<?xml version="1.0" encoding="UTF-8"?>
<svg xmlns="http://www.w3.org/2000/svg" xmlns:xlink="http://www.w3.org/1999/xlink" width="517pt" height="517pt" viewBox="0 0 517 517" version="1.1">
<g id="surface6196">
<rect x="0" y="0" width="517" height="517" style="fill:rgb(90%,90%,90%);fill-opacity:1;stroke:none;"/>
<path style="fill-rule:nonzero;fill:rgb(35%,70%,90%);fill-opacity:1;stroke-width:1;stroke-linecap:butt;stroke-linejoin:miter;stroke:rgb(0%,0%,0%);stroke-opacity:1;stroke-miterlimit:10;" d="M 117.503906 119.195312 L 97.503906 119.195312 L 97.503906 129.195312 L 117.503906 129.195312 L 117.503906 149.195312 L 127.503906 149.195312 L 127.503906 129.195312 L 147.503906 129.195312 L 147.503906 119.195312 L 127.503906 119.195312 L 127.503906 99.195312 L 117.503906 99.195312 L 117.503906 119.195312 "/>
<path style="fill-rule:nonzero;fill:rgb(35%,70%,90%);fill-opacity:1;stroke-width:1;stroke-linecap:butt;stroke-linejoin:miter;stroke:rgb(0%,0%,0%);stroke-opacity:1;stroke-miterlimit:10;" d="M 177.042969 52.445312 L 157.042969 52.445312 L 157.042969 62.445312 L 177.042969 62.445312 L 177.042969 82.445312 L 187.042969 82.445312 L 187.042969 62.445312 L 207.042969 62.445312 L 207.042969 52.445312 L 187.042969 52.445312 L 187.042969 32.445312 L 177.042969 32.445312 L 177.042969 52.445312 "/>
<path style="fill-rule:nonzero;fill:rgb(35%,70%,90%);fill-opacity:1;stroke-width:1;stroke-linecap:butt;stroke-linejoin:miter;stroke:rgb(0%,0%,0%);stroke-opacity:1;stroke-miterlimit:10;" d="M 329.433594 354.78125 L 309.433594 354.78125 L 309.433594 364.78125 L 329.433594 364.78125 L 329.433594 384.78125 L 339.433594 384.78125 L 339.433594 364.78125 L 359.433594 364.78125 L 359.433594 354.78125 L 339.433594 354.78125 L 339.433594 334.78125 L 329.433594 334.78125 L 329.433594 354.78125 "/>
<path style="fill-rule:nonzero;fill:rgb(100%,100%,0%);fill-opacity:1;stroke-width:1;stroke-linecap:butt;stroke-linejoin:miter;stroke:rgb(0%,0%,0%);stroke-opacity:1;stroke-miterlimit:10;" d="M 286.835938 462.308594 L 266.835938 462.308594 L 266.835938 472.308594 L 286.835938 472.308594 L 286.835938 492.308594 L 296.835938 492.308594 L 296.835938 472.308594 L 316.835938 472.308594 L 316.835938 462.308594 L 296.835938 462.308594 L 296.835938 442.308594 L 286.835938 442.308594 L 286.835938 462.308594 "/>
<path style="fill-rule:nonzero;fill:rgb(100%,100%,0%);fill-opacity:1;stroke-width:1;stroke-linecap:butt;stroke-linejoin:miter;stroke:rgb(0%,0%,0%);stroke-opacity:1;stroke-miterlimit:10;" d="M 324.78125 294.941406 L 304.78125 294.941406 L 304.78125 304.941406 L 324.78125 304.941406 L 324.78125 324.941406 L 334.78125 324.941406 L 334.78125 304.941406 L 354.78125 304.941406 L 354.78125 294.941406 L 334.78125 294.941406 L 334.78125 274.941406 L 324.78125 274.941406 L 324.78125 294.941406 "/>
<path style="fill-rule:nonzero;fill:rgb(100%,100%,0%);fill-opacity:1;stroke-width:1;stroke-linecap:butt;stroke-linejoin:miter;stroke:rgb(0%,0%,0%);stroke-opacity:1;stroke-miterlimit:10;" d="M 434.648438 325.476562 L 414.648438 325.476562 L 414.648438 335.476562 L 434.648438 335.476562 L 434.648438 355.476562 L 444.648438 355.476562 L 444.648438 335.476562 L 464.648438 335.476562 L 464.648438 325.476562 L 444.648438 325.476562 L 444.648438 305.476562 L 434.648438 305.476562 L 434.648438 325.476562 "/>
<path style="fill-rule:nonzero;fill:rgb(100%,100%,0%);fill-opacity:1;stroke-width:1;stroke-linecap:butt;stroke-linejoin:miter;stroke:rgb(0%,0%,0%);stroke-opacity:1;stroke-miterlimit:10;" d="M 446.242188 462.945312 L 426.242188 462.945312 L 426.242188 472.945312 L 446.242188 472.945312 L 446.242188 492.945312 L 456.242188 492.945312 L 456.242188 472.945312 L 476.242188 472.945312 L 476.242188 462.945312 L 456.242188 462.945312 L 456.242188 442.945312 L 446.242188 442.945312 L 446.242188 462.945312 "/>
<path style="fill-rule:nonzero;fill:rgb(100%,100%,0%);fill-opacity:1;stroke-width:1;stroke-linecap:butt;stroke-linejoin:miter;stroke:rgb(0%,0%,0%);stroke-opacity:1;stroke-miterlimit:10;" d="M 399.085938 382.292969 L 379.085938 382.292969 L 379.085938 392.292969 L 399.085938 392.292969 L 399.085938 412.292969 L 409.085938 412.292969 L 409.085938 392.292969 L 429.085938 392.292969 L 429.085938 382.292969 L 409.085938 382.292969 L 409.085938 362.292969 L 399.085938 362.292969 L 399.085938 382.292969 "/>
</g>
</svg>
