<?xml version="1.0" encoding="UTF-8"?>
<svg xmlns="http://www.w3.org/2000/svg" xmlns:xlink="http://www.w3.org/1999/xlink" width="517pt" height="517pt" viewBox="0 0 517 517" version="1.1">
<g id="surface1446">
<rect x="0" y="0" width="517" height="517" style="fill:rgb(90%,90%,90%);fill-opacity:1;stroke:none;"/>
<path style="fill:none;stroke-width:5;stroke-linecap:butt;stroke-linejoin:round;stroke:rgb(100%,0%,0%);stroke-opacity:1;stroke-miterlimit:10;" d="M 261 261 L 517 261 L 517 517 L 261 517 Z M 261 261 "/>
<path style="fill-rule:nonzero;fill:rgb(100%,100%,0%);fill-opacity:1;stroke-width:1;stroke-linecap:butt;stroke-linejoin:round;stroke:rgb(0%,0%,0%);stroke-opacity:1;stroke-miterlimit:10;" d="M 328.410156 382.78125 C 328.410156 368.382812 304.410156 368.382812 304.410156 382.78125 C 304.410156 397.183594 328.410156 399.582031 328.410156 411.582031 C 328.410156 399.582031 352.410156 397.183594 352.410156 382.78125 C 352.410156 368.382812 328.410156 368.382812 328.410156 382.78125 "/>
<path style="fill-rule:nonzero;fill:rgb(50%,0%,50%);fill-opacity:1;stroke-width:1;stroke-linecap:butt;stroke-linejoin:round;stroke:rgb(0%,0%,0%);stroke-opacity:1;stroke-miterlimit:10;" d="M 395.0625 89.683594 C 395.0625 75.28125 371.0625 75.28125 371.0625 89.683594 C 371.0625 104.082031 395.0625 106.484375 395.0625 118.484375 C 395.0625 106.484375 419.0625 104.082031 419.0625 89.683594 C 419.0625 75.28125 395.0625 75.28125 395.0625 89.683594 "/>
<path style="fill-rule:nonzero;fill:rgb(50%,0%,50%);fill-opacity:1;stroke-width:1;stroke-linecap:butt;stroke-linejoin:round;stroke:rgb(0%,0%,0%);stroke-opacity:1;stroke-miterlimit:10;" d="M 442.125 130.878906 C 442.125 116.480469 418.125 116.480469 418.125 130.878906 C 418.125 145.28125 442.125 147.679688 442.125 159.679688 C 442.125 147.679688 466.125 145.28125 466.125 130.878906 C 466.125 116.480469 442.125 116.480469 442.125 130.878906 "/>
<path style="fill-rule:nonzero;fill:rgb(50%,0%,50%);fill-opacity:1;stroke-width:1;stroke-linecap:butt;stroke-linejoin:round;stroke:rgb(0%,0%,0%);stroke-opacity:1;stroke-miterlimit:10;" d="M 159.589844 57.351562 C 159.589844 42.949219 135.589844 42.949219 135.589844 57.351562 C 135.589844 71.75 159.589844 74.152344 159.589844 86.152344 C 159.589844 74.152344 183.589844 71.75 183.589844 57.351562 C 183.589844 42.949219 159.589844 42.949219 159.589844 57.351562 "/>
</g>
</svg>
