<?xml version="1.0" encoding="UTF-8"?>
<svg xmlns="http://www.w3.org/2000/svg" xmlns:xlink="http://www.w3.org/1999/xlink" width="517pt" height="517pt" viewBox="0 0 517 517" version="1.1">
<g id="surface1016">
<rect x="0" y="0" width="517" height="517" style="fill:rgb(90%,90%,90%);fill-opacity:1;stroke:none;"/>
<path style="fill:none;stroke-width:5;stroke-linecap:butt;stroke-linejoin:round;stroke:rgb(100%,0%,0%);stroke-opacity:1;stroke-miterlimit:10;" d="M 5 261 L 261 261 L 261 517 L 5 517 Z M 5 261 "/>
<path style="fill-rule:nonzero;fill:rgb(50%,0%,50%);fill-opacity:1;stroke-width:1;stroke-linecap:butt;stroke-linejoin:round;stroke:rgb(0%,0%,0%);stroke-opacity:1;stroke-miterlimit:10;" d="M 200.238281 417.738281 C 200.238281 434.308594 186.804688 447.738281 170.238281 447.738281 C 153.667969 447.738281 140.238281 434.308594 140.238281 417.738281 C 140.238281 401.171875 153.667969 387.738281 170.238281 387.738281 C 186.804688 387.738281 200.238281 401.171875 200.238281 417.738281 "/>
<path style="fill-rule:nonzero;fill:rgb(53%,27%,7%);fill-opacity:1;stroke-width:1;stroke-linecap:butt;stroke-linejoin:round;stroke:rgb(0%,0%,0%);stroke-opacity:1;stroke-miterlimit:10;" d="M 452.542969 165.800781 C 452.542969 182.367188 439.113281 195.800781 422.542969 195.800781 C 405.976562 195.800781 392.542969 182.367188 392.542969 165.800781 C 392.542969 149.230469 405.976562 135.800781 422.542969 135.800781 C 439.113281 135.800781 452.542969 149.230469 452.542969 165.800781 "/>
<path style="fill-rule:nonzero;fill:rgb(50%,0%,50%);fill-opacity:1;stroke-width:1;stroke-linecap:butt;stroke-linejoin:round;stroke:rgb(0%,0%,0%);stroke-opacity:1;stroke-miterlimit:10;" d="M 438.335938 93.925781 C 438.335938 110.496094 424.90625 123.925781 408.335938 123.925781 C 391.769531 123.925781 378.335938 110.496094 378.335938 93.925781 C 378.335938 77.359375 391.769531 63.925781 408.335938 63.925781 C 424.90625 63.925781 438.335938 77.359375 438.335938 93.925781 "/>
<path style="fill-rule:nonzero;fill:rgb(50%,0%,50%);fill-opacity:1;stroke-width:1;stroke-linecap:butt;stroke-linejoin:round;stroke:rgb(0%,0%,0%);stroke-opacity:1;stroke-miterlimit:10;" d="M 356.90625 464.449219 C 356.90625 481.019531 343.472656 494.449219 326.90625 494.449219 C 310.335938 494.449219 296.90625 481.019531 296.90625 464.449219 C 296.90625 447.882812 310.335938 434.449219 326.90625 434.449219 C 343.472656 434.449219 356.90625 447.882812 356.90625 464.449219 "/>
</g>
</svg>
