<?xml version="1.0" encoding="UTF-8"?>
<svg xmlns="http://www.w3.org/2000/svg" xmlns:xlink="http://www.w3.org/1999/xlink" width="517pt" height="517pt" viewBox="0 0 517 517" version="1.1">
<g id="surface1076">
<rect x="0" y="0" width="517" height="517" style="fill:rgb(90%,90%,90%);fill-opacity:1;stroke:none;"/>
<path style="fill:none;stroke-width:5;stroke-linecap:butt;stroke-linejoin:round;stroke:rgb(100%,0%,0%);stroke-opacity:1;stroke-miterlimit:10;" d="M 5 261 L 261 261 L 261 517 L 5 517 Z M 5 261 "/>
<path style="fill-rule:nonzero;fill:rgb(100%,0%,0%);fill-opacity:1;stroke-width:1;stroke-linecap:butt;stroke-linejoin:round;stroke:rgb(0%,0%,0%);stroke-opacity:1;stroke-miterlimit:10;" d="M 150.800781 366.570312 C 150.800781 352.171875 126.800781 352.171875 126.800781 366.570312 C 126.800781 380.972656 150.800781 383.371094 150.800781 395.371094 C 150.800781 383.371094 174.800781 380.972656 174.800781 366.570312 C 174.800781 352.171875 150.800781 352.171875 150.800781 366.570312 "/>
<path style="fill-rule:nonzero;fill:rgb(35%,70%,90%);fill-opacity:1;stroke-width:1;stroke-linecap:butt;stroke-linejoin:round;stroke:rgb(0%,0%,0%);stroke-opacity:1;stroke-miterlimit:10;" d="M 360.230469 408.390625 C 360.230469 393.992188 336.230469 393.992188 336.230469 408.390625 C 336.230469 422.789062 360.230469 425.191406 360.230469 437.191406 C 360.230469 425.191406 384.230469 422.789062 384.230469 408.390625 C 384.230469 393.992188 360.230469 393.992188 360.230469 408.390625 "/>
<path style="fill-rule:nonzero;fill:rgb(35%,70%,90%);fill-opacity:1;stroke-width:1;stroke-linecap:butt;stroke-linejoin:round;stroke:rgb(0%,0%,0%);stroke-opacity:1;stroke-miterlimit:10;" d="M 347.757812 296.800781 C 347.757812 282.402344 323.757812 282.402344 323.757812 296.800781 C 323.757812 311.203125 347.757812 313.601562 347.757812 325.601562 C 347.757812 313.601562 371.757812 311.203125 371.757812 296.800781 C 371.757812 282.402344 347.757812 282.402344 347.757812 296.800781 "/>
<path style="fill-rule:nonzero;fill:rgb(100%,0%,0%);fill-opacity:1;stroke-width:1;stroke-linecap:butt;stroke-linejoin:round;stroke:rgb(0%,0%,0%);stroke-opacity:1;stroke-miterlimit:10;" d="M 124.621094 119.695312 C 124.621094 105.296875 100.621094 105.296875 100.621094 119.695312 C 100.621094 134.097656 124.621094 136.496094 124.621094 148.496094 C 124.621094 136.496094 148.621094 134.097656 148.621094 119.695312 C 148.621094 105.296875 124.621094 105.296875 124.621094 119.695312 "/>
</g>
</svg>
