<?xml version="1.0" encoding="UTF-8"?>
<svg xmlns="http://www.w3.org/2000/svg" xmlns:xlink="http://www.w3.org/1999/xlink" width="517pt" height="517pt" viewBox="0 0 517 517" version="1.1">
<g id="surface6006">
<rect x="0" y="0" width="517" height="517" style="fill:rgb(90%,90%,90%);fill-opacity:1;stroke:none;"/>
<path style="fill-rule:nonzero;fill:rgb(35%,70%,90%);fill-opacity:1;stroke-width:1;stroke-linecap:butt;stroke-linejoin:miter;stroke:rgb(0%,0%,0%);stroke-opacity:1;stroke-miterlimit:10;" d="M 118.113281 88.167969 L 98.113281 88.167969 L 98.113281 98.167969 L 118.113281 98.167969 L 118.113281 118.167969 L 128.113281 118.167969 L 128.113281 98.167969 L 148.113281 98.167969 L 148.113281 88.167969 L 128.113281 88.167969 L 128.113281 68.167969 L 118.113281 68.167969 L 118.113281 88.167969 "/>
<path style="fill-rule:nonzero;fill:rgb(35%,70%,90%);fill-opacity:1;stroke-width:1;stroke-linecap:butt;stroke-linejoin:miter;stroke:rgb(0%,0%,0%);stroke-opacity:1;stroke-miterlimit:10;" d="M 454.167969 148.714844 L 434.167969 148.714844 L 434.167969 158.714844 L 454.167969 158.714844 L 454.167969 178.714844 L 464.167969 178.714844 L 464.167969 158.714844 L 484.167969 158.714844 L 484.167969 148.714844 L 464.167969 148.714844 L 464.167969 128.714844 L 454.167969 128.714844 L 454.167969 148.714844 "/>
<path style="fill-rule:nonzero;fill:rgb(35%,70%,90%);fill-opacity:1;stroke-width:1;stroke-linecap:butt;stroke-linejoin:miter;stroke:rgb(0%,0%,0%);stroke-opacity:1;stroke-miterlimit:10;" d="M 386.289062 186.730469 L 366.289062 186.730469 L 366.289062 196.730469 L 386.289062 196.730469 L 386.289062 216.730469 L 396.289062 216.730469 L 396.289062 196.730469 L 416.289062 196.730469 L 416.289062 186.730469 L 396.289062 186.730469 L 396.289062 166.730469 L 386.289062 166.730469 L 386.289062 186.730469 "/>
<path style="fill-rule:nonzero;fill:rgb(35%,70%,90%);fill-opacity:1;stroke-width:1;stroke-linecap:butt;stroke-linejoin:miter;stroke:rgb(0%,0%,0%);stroke-opacity:1;stroke-miterlimit:10;" d="M 108.75 376.453125 L 88.75 376.453125 L 88.75 386.453125 L 108.75 386.453125 L 108.75 406.453125 L 118.75 406.453125 L 118.75 386.453125 L 138.75 386.453125 L 138.75 376.453125 L 118.75 376.453125 L 118.75 356.453125 L 108.75 356.453125 L 108.75 376.453125 "/>
<path style="fill-rule:nonzero;fill:rgb(35%,70%,90%);fill-opacity:1;stroke-width:1;stroke-linecap:butt;stroke-linejoin:miter;stroke:rgb(0%,0%,0%);stroke-opacity:1;stroke-miterlimit:10;" d="M 183.703125 440.652344 L 163.703125 440.652344 L 163.703125 450.652344 L 183.703125 450.652344 L 183.703125 470.652344 L 193.703125 470.652344 L 193.703125 450.652344 L 213.703125 450.652344 L 213.703125 440.652344 L 193.703125 440.652344 L 193.703125 420.652344 L 183.703125 420.652344 L 183.703125 440.652344 "/>
<path style="fill-rule:nonzero;fill:rgb(35%,70%,90%);fill-opacity:1;stroke-width:1;stroke-linecap:butt;stroke-linejoin:miter;stroke:rgb(0%,0%,0%);stroke-opacity:1;stroke-miterlimit:10;" d="M 136.21875 318.148438 L 116.21875 318.148438 L 116.21875 328.148438 L 136.21875 328.148438 L 136.21875 348.148438 L 146.21875 348.148438 L 146.21875 328.148438 L 166.21875 328.148438 L 166.21875 318.148438 L 146.21875 318.148438 L 146.21875 298.148438 L 136.21875 298.148438 L 136.21875 318.148438 "/>
<path style="fill-rule:nonzero;fill:rgb(35%,70%,90%);fill-opacity:1;stroke-width:1;stroke-linecap:butt;stroke-linejoin:miter;stroke:rgb(0%,0%,0%);stroke-opacity:1;stroke-miterlimit:10;" d="M 44.035156 322.3125 L 24.035156 322.3125 L 24.035156 332.3125 L 44.035156 332.3125 L 44.035156 352.3125 L 54.035156 352.3125 L 54.035156 332.3125 L 74.035156 332.3125 L 74.035156 322.3125 L 54.035156 322.3125 L 54.035156 302.3125 L 44.035156 302.3125 L 44.035156 322.3125 "/>
<path style="fill-rule:nonzero;fill:rgb(35%,70%,90%);fill-opacity:1;stroke-width:1;stroke-linecap:butt;stroke-linejoin:miter;stroke:rgb(0%,0%,0%);stroke-opacity:1;stroke-miterlimit:10;" d="M 114.105469 444.066406 L 94.105469 444.066406 L 94.105469 454.066406 L 114.105469 454.066406 L 114.105469 474.066406 L 124.105469 474.066406 L 124.105469 454.066406 L 144.105469 454.066406 L 144.105469 444.066406 L 124.105469 444.066406 L 124.105469 424.066406 L 114.105469 424.066406 L 114.105469 444.066406 "/>
</g>
</svg>
