<?xml version="1.0" encoding="UTF-8"?>
<svg xmlns="http://www.w3.org/2000/svg" xmlns:xlink="http://www.w3.org/1999/xlink" width="517pt" height="517pt" viewBox="0 0 517 517" version="1.1">
<g id="surface966">
<rect x="0" y="0" width="517" height="517" style="fill:rgb(90%,90%,90%);fill-opacity:1;stroke:none;"/>
<path style="fill:none;stroke-width:5;stroke-linecap:butt;stroke-linejoin:round;stroke:rgb(100%,0%,0%);stroke-opacity:1;stroke-miterlimit:10;" d="M 5 261 L 261 261 L 261 517 L 5 517 Z M 5 261 "/>
<path style="fill-rule:nonzero;fill:rgb(50%,0%,50%);fill-opacity:1;stroke-width:1;stroke-linecap:butt;stroke-linejoin:round;stroke:rgb(0%,0%,0%);stroke-opacity:1;stroke-miterlimit:10;" d="M 214.824219 450.242188 C 214.824219 466.8125 201.394531 480.242188 184.824219 480.242188 C 168.257812 480.242188 154.824219 466.8125 154.824219 450.242188 C 154.824219 433.675781 168.257812 420.242188 184.824219 420.242188 C 201.394531 420.242188 214.824219 433.675781 214.824219 450.242188 "/>
<path style="fill-rule:nonzero;fill:rgb(53%,27%,7%);fill-opacity:1;stroke-width:1;stroke-linecap:butt;stroke-linejoin:round;stroke:rgb(0%,0%,0%);stroke-opacity:1;stroke-miterlimit:10;" d="M 407.429688 53.761719 C 407.429688 70.332031 393.996094 83.761719 377.429688 83.761719 C 360.859375 83.761719 347.429688 70.332031 347.429688 53.761719 C 347.429688 37.195312 360.859375 23.761719 377.429688 23.761719 C 393.996094 23.761719 407.429688 37.195312 407.429688 53.761719 "/>
<path style="fill-rule:nonzero;fill:rgb(53%,27%,7%);fill-opacity:1;stroke-width:1;stroke-linecap:butt;stroke-linejoin:round;stroke:rgb(0%,0%,0%);stroke-opacity:1;stroke-miterlimit:10;" d="M 356.667969 346.257812 C 356.667969 362.828125 343.234375 376.257812 326.667969 376.257812 C 310.097656 376.257812 296.667969 362.828125 296.667969 346.257812 C 296.667969 329.691406 310.097656 316.257812 326.667969 316.257812 C 343.234375 316.257812 356.667969 329.691406 356.667969 346.257812 "/>
<path style="fill-rule:nonzero;fill:rgb(53%,27%,7%);fill-opacity:1;stroke-width:1;stroke-linecap:butt;stroke-linejoin:round;stroke:rgb(0%,0%,0%);stroke-opacity:1;stroke-miterlimit:10;" d="M 410.925781 403.0625 C 410.925781 419.628906 397.496094 433.0625 380.925781 433.0625 C 364.359375 433.0625 350.925781 419.628906 350.925781 403.0625 C 350.925781 386.492188 364.359375 373.0625 380.925781 373.0625 C 397.496094 373.0625 410.925781 386.492188 410.925781 403.0625 "/>
</g>
</svg>
