<?xml version="1.0" encoding="UTF-8"?>
<svg xmlns="http://www.w3.org/2000/svg" xmlns:xlink="http://www.w3.org/1999/xlink" width="517pt" height="517pt" viewBox="0 0 517 517" version="1.1">
<g id="surface6146">
<rect x="0" y="0" width="517" height="517" style="fill:rgb(90%,90%,90%);fill-opacity:1;stroke:none;"/>
<path style="fill-rule:nonzero;fill:rgb(90%,65%,0%);fill-opacity:1;stroke-width:1;stroke-linecap:butt;stroke-linejoin:miter;stroke:rgb(0%,0%,0%);stroke-opacity:1;stroke-miterlimit:10;" d="M 375.382812 105.359375 L 355.382812 105.359375 L 355.382812 115.359375 L 375.382812 115.359375 L 375.382812 135.359375 L 385.382812 135.359375 L 385.382812 115.359375 L 405.382812 115.359375 L 405.382812 105.359375 L 385.382812 105.359375 L 385.382812 85.359375 L 375.382812 85.359375 L 375.382812 105.359375 "/>
<path style="fill-rule:nonzero;fill:rgb(90%,65%,0%);fill-opacity:1;stroke-width:1;stroke-linecap:butt;stroke-linejoin:miter;stroke:rgb(0%,0%,0%);stroke-opacity:1;stroke-miterlimit:10;" d="M 452.804688 175.058594 L 432.804688 175.058594 L 432.804688 185.058594 L 452.804688 185.058594 L 452.804688 205.058594 L 462.804688 205.058594 L 462.804688 185.058594 L 482.804688 185.058594 L 482.804688 175.058594 L 462.804688 175.058594 L 462.804688 155.058594 L 452.804688 155.058594 L 452.804688 175.058594 "/>
<path style="fill-rule:nonzero;fill:rgb(67%,100%,18%);fill-opacity:1;stroke-width:1;stroke-linecap:butt;stroke-linejoin:miter;stroke:rgb(0%,0%,0%);stroke-opacity:1;stroke-miterlimit:10;" d="M 75.980469 463.667969 L 55.980469 463.667969 L 55.980469 473.667969 L 75.980469 473.667969 L 75.980469 493.667969 L 85.980469 493.667969 L 85.980469 473.667969 L 105.980469 473.667969 L 105.980469 463.667969 L 85.980469 463.667969 L 85.980469 443.667969 L 75.980469 443.667969 L 75.980469 463.667969 "/>
<path style="fill-rule:nonzero;fill:rgb(67%,100%,18%);fill-opacity:1;stroke-width:1;stroke-linecap:butt;stroke-linejoin:miter;stroke:rgb(0%,0%,0%);stroke-opacity:1;stroke-miterlimit:10;" d="M 210.320312 349.210938 L 190.320312 349.210938 L 190.320312 359.210938 L 210.320312 359.210938 L 210.320312 379.210938 L 220.320312 379.210938 L 220.320312 359.210938 L 240.320312 359.210938 L 240.320312 349.210938 L 220.320312 349.210938 L 220.320312 329.210938 L 210.320312 329.210938 L 210.320312 349.210938 "/>
<path style="fill-rule:nonzero;fill:rgb(67%,100%,18%);fill-opacity:1;stroke-width:1;stroke-linecap:butt;stroke-linejoin:miter;stroke:rgb(0%,0%,0%);stroke-opacity:1;stroke-miterlimit:10;" d="M 51.664062 376.457031 L 31.664062 376.457031 L 31.664062 386.457031 L 51.664062 386.457031 L 51.664062 406.457031 L 61.664062 406.457031 L 61.664062 386.457031 L 81.664062 386.457031 L 81.664062 376.457031 L 61.664062 376.457031 L 61.664062 356.457031 L 51.664062 356.457031 L 51.664062 376.457031 "/>
<path style="fill-rule:nonzero;fill:rgb(67%,100%,18%);fill-opacity:1;stroke-width:1;stroke-linecap:butt;stroke-linejoin:miter;stroke:rgb(0%,0%,0%);stroke-opacity:1;stroke-miterlimit:10;" d="M 89.664062 312.640625 L 69.664062 312.640625 L 69.664062 322.640625 L 89.664062 322.640625 L 89.664062 342.640625 L 99.664062 342.640625 L 99.664062 322.640625 L 119.664062 322.640625 L 119.664062 312.640625 L 99.664062 312.640625 L 99.664062 292.640625 L 89.664062 292.640625 L 89.664062 312.640625 "/>
<path style="fill-rule:nonzero;fill:rgb(67%,100%,18%);fill-opacity:1;stroke-width:1;stroke-linecap:butt;stroke-linejoin:miter;stroke:rgb(0%,0%,0%);stroke-opacity:1;stroke-miterlimit:10;" d="M 215.730469 449.257812 L 195.730469 449.257812 L 195.730469 459.257812 L 215.730469 459.257812 L 215.730469 479.257812 L 225.730469 479.257812 L 225.730469 459.257812 L 245.730469 459.257812 L 245.730469 449.257812 L 225.730469 449.257812 L 225.730469 429.257812 L 215.730469 429.257812 L 215.730469 449.257812 "/>
<path style="fill-rule:nonzero;fill:rgb(67%,100%,18%);fill-opacity:1;stroke-width:1;stroke-linecap:butt;stroke-linejoin:miter;stroke:rgb(0%,0%,0%);stroke-opacity:1;stroke-miterlimit:10;" d="M 169.136719 57.105469 L 149.136719 57.105469 L 149.136719 67.105469 L 169.136719 67.105469 L 169.136719 87.105469 L 179.136719 87.105469 L 179.136719 67.105469 L 199.136719 67.105469 L 199.136719 57.105469 L 179.136719 57.105469 L 179.136719 37.105469 L 169.136719 37.105469 L 169.136719 57.105469 "/>
</g>
</svg>
