<?xml version="1.0" encoding="UTF-8"?>
<svg xmlns="http://www.w3.org/2000/svg" xmlns:xlink="http://www.w3.org/1999/xlink" width="517pt" height="517pt" viewBox="0 0 517 517" version="1.1">
<g id="surface1156">
<rect x="0" y="0" width="517" height="517" style="fill:rgb(90%,90%,90%);fill-opacity:1;stroke:none;"/>
<path style="fill:none;stroke-width:5;stroke-linecap:butt;stroke-linejoin:round;stroke:rgb(100%,0%,0%);stroke-opacity:1;stroke-miterlimit:10;" d="M 5 261 L 261 261 L 261 517 L 5 517 Z M 5 261 "/>
<path style="fill-rule:nonzero;fill:rgb(35%,70%,90%);fill-opacity:1;stroke-width:1;stroke-linecap:butt;stroke-linejoin:round;stroke:rgb(0%,0%,0%);stroke-opacity:1;stroke-miterlimit:10;" d="M 202.953125 302.1875 L 182.953125 302.1875 L 182.953125 312.1875 L 202.953125 312.1875 L 202.953125 332.1875 L 212.953125 332.1875 L 212.953125 312.1875 L 232.953125 312.1875 L 232.953125 302.1875 L 212.953125 302.1875 L 212.953125 282.1875 L 202.953125 282.1875 L 202.953125 302.1875 "/>
<path style="fill-rule:nonzero;fill:rgb(100%,0%,0%);fill-opacity:1;stroke-width:1;stroke-linecap:butt;stroke-linejoin:round;stroke:rgb(0%,0%,0%);stroke-opacity:1;stroke-miterlimit:10;" d="M 467.460938 311.832031 L 447.460938 311.832031 L 447.460938 321.832031 L 467.460938 321.832031 L 467.460938 341.832031 L 477.460938 341.832031 L 477.460938 321.832031 L 497.460938 321.832031 L 497.460938 311.832031 L 477.460938 311.832031 L 477.460938 291.832031 L 467.460938 291.832031 L 467.460938 311.832031 "/>
<path style="fill-rule:nonzero;fill:rgb(100%,0%,0%);fill-opacity:1;stroke-width:1;stroke-linecap:butt;stroke-linejoin:round;stroke:rgb(0%,0%,0%);stroke-opacity:1;stroke-miterlimit:10;" d="M 367.210938 417.609375 L 347.210938 417.609375 L 347.210938 427.609375 L 367.210938 427.609375 L 367.210938 447.609375 L 377.210938 447.609375 L 377.210938 427.609375 L 397.210938 427.609375 L 397.210938 417.609375 L 377.210938 417.609375 L 377.210938 397.609375 L 367.210938 397.609375 L 367.210938 417.609375 "/>
<path style="fill-rule:nonzero;fill:rgb(35%,70%,90%);fill-opacity:1;stroke-width:1;stroke-linecap:butt;stroke-linejoin:round;stroke:rgb(0%,0%,0%);stroke-opacity:1;stroke-miterlimit:10;" d="M 304.699219 103.269531 L 284.699219 103.269531 L 284.699219 113.269531 L 304.699219 113.269531 L 304.699219 133.269531 L 314.699219 133.269531 L 314.699219 113.269531 L 334.699219 113.269531 L 334.699219 103.269531 L 314.699219 103.269531 L 314.699219 83.269531 L 304.699219 83.269531 L 304.699219 103.269531 "/>
</g>
</svg>
