<?xml version="1.0" encoding="UTF-8"?>
<svg xmlns="http://www.w3.org/2000/svg" xmlns:xlink="http://www.w3.org/1999/xlink" width="517pt" height="517pt" viewBox="0 0 517 517" version="1.1">
<g id="surface996">
<rect x="0" y="0" width="517" height="517" style="fill:rgb(90%,90%,90%);fill-opacity:1;stroke:none;"/>
<path style="fill:none;stroke-width:5;stroke-linecap:butt;stroke-linejoin:round;stroke:rgb(100%,0%,0%);stroke-opacity:1;stroke-miterlimit:10;" d="M 5 261 L 261 261 L 261 517 L 5 517 Z M 5 261 "/>
<path style="fill-rule:nonzero;fill:rgb(50%,0%,50%);fill-opacity:1;stroke-width:1;stroke-linecap:butt;stroke-linejoin:round;stroke:rgb(0%,0%,0%);stroke-opacity:1;stroke-miterlimit:10;" d="M 98.234375 417.027344 C 98.234375 433.59375 84.804688 447.027344 68.234375 447.027344 C 51.664062 447.027344 38.234375 433.59375 38.234375 417.027344 C 38.234375 400.457031 51.664062 387.027344 68.234375 387.027344 C 84.804688 387.027344 98.234375 400.457031 98.234375 417.027344 "/>
<path style="fill-rule:nonzero;fill:rgb(53%,27%,7%);fill-opacity:1;stroke-width:1;stroke-linecap:butt;stroke-linejoin:round;stroke:rgb(0%,0%,0%);stroke-opacity:1;stroke-miterlimit:10;" d="M 392.402344 65 C 392.402344 81.566406 378.96875 95 362.402344 95 C 345.832031 95 332.402344 81.566406 332.402344 65 C 332.402344 48.429688 345.832031 35 362.402344 35 C 378.96875 35 392.402344 48.429688 392.402344 65 "/>
<path style="fill-rule:nonzero;fill:rgb(53%,27%,7%);fill-opacity:1;stroke-width:1;stroke-linecap:butt;stroke-linejoin:round;stroke:rgb(0%,0%,0%);stroke-opacity:1;stroke-miterlimit:10;" d="M 382.804688 414.082031 C 382.804688 430.652344 369.375 444.082031 352.804688 444.082031 C 336.238281 444.082031 322.804688 430.652344 322.804688 414.082031 C 322.804688 397.515625 336.238281 384.082031 352.804688 384.082031 C 369.375 384.082031 382.804688 397.515625 382.804688 414.082031 "/>
<path style="fill-rule:nonzero;fill:rgb(50%,0%,50%);fill-opacity:1;stroke-width:1;stroke-linecap:butt;stroke-linejoin:round;stroke:rgb(0%,0%,0%);stroke-opacity:1;stroke-miterlimit:10;" d="M 341.5625 337.800781 C 341.5625 354.367188 328.132812 367.800781 311.5625 367.800781 C 294.996094 367.800781 281.5625 354.367188 281.5625 337.800781 C 281.5625 321.230469 294.996094 307.800781 311.5625 307.800781 C 328.132812 307.800781 341.5625 321.230469 341.5625 337.800781 "/>
</g>
</svg>
