<?xml version="1.0" encoding="UTF-8"?>
<svg xmlns="http://www.w3.org/2000/svg" xmlns:xlink="http://www.w3.org/1999/xlink" width="517pt" height="517pt" viewBox="0 0 517 517" version="1.1">
<g id="surface6356">
<rect x="0" y="0" width="517" height="517" style="fill:rgb(90%,90%,90%);fill-opacity:1;stroke:none;"/>
<path style="fill-rule:nonzero;fill:rgb(90%,65%,0%);fill-opacity:1;stroke-width:1;stroke-linecap:butt;stroke-linejoin:miter;stroke:rgb(0%,0%,0%);stroke-opacity:1;stroke-miterlimit:10;" d="M 202.589844 170.859375 L 182.589844 170.859375 L 182.589844 180.859375 L 202.589844 180.859375 L 202.589844 200.859375 L 212.589844 200.859375 L 212.589844 180.859375 L 232.589844 180.859375 L 232.589844 170.859375 L 212.589844 170.859375 L 212.589844 150.859375 L 202.589844 150.859375 L 202.589844 170.859375 "/>
<path style="fill-rule:nonzero;fill:rgb(90%,65%,0%);fill-opacity:1;stroke-width:1;stroke-linecap:butt;stroke-linejoin:miter;stroke:rgb(0%,0%,0%);stroke-opacity:1;stroke-miterlimit:10;" d="M 188.1875 61.960938 L 168.1875 61.960938 L 168.1875 71.960938 L 188.1875 71.960938 L 188.1875 91.960938 L 198.1875 91.960938 L 198.1875 71.960938 L 218.1875 71.960938 L 218.1875 61.960938 L 198.1875 61.960938 L 198.1875 41.960938 L 188.1875 41.960938 L 188.1875 61.960938 "/>
<path style="fill-rule:nonzero;fill:rgb(90%,65%,0%);fill-opacity:1;stroke-width:1;stroke-linecap:butt;stroke-linejoin:miter;stroke:rgb(0%,0%,0%);stroke-opacity:1;stroke-miterlimit:10;" d="M 300.648438 403.570312 L 280.648438 403.570312 L 280.648438 413.570312 L 300.648438 413.570312 L 300.648438 433.570312 L 310.648438 433.570312 L 310.648438 413.570312 L 330.648438 413.570312 L 330.648438 403.570312 L 310.648438 403.570312 L 310.648438 383.570312 L 300.648438 383.570312 L 300.648438 403.570312 "/>
<path style="fill-rule:nonzero;fill:rgb(0%,0%,0%);fill-opacity:1;stroke-width:1;stroke-linecap:butt;stroke-linejoin:miter;stroke:rgb(0%,0%,0%);stroke-opacity:1;stroke-miterlimit:10;" d="M 319.4375 333.71875 L 299.4375 333.71875 L 299.4375 343.71875 L 319.4375 343.71875 L 319.4375 363.71875 L 329.4375 363.71875 L 329.4375 343.71875 L 349.4375 343.71875 L 349.4375 333.71875 L 329.4375 333.71875 L 329.4375 313.71875 L 319.4375 313.71875 L 319.4375 333.71875 "/>
<path style="fill-rule:nonzero;fill:rgb(0%,0%,0%);fill-opacity:1;stroke-width:1;stroke-linecap:butt;stroke-linejoin:miter;stroke:rgb(0%,0%,0%);stroke-opacity:1;stroke-miterlimit:10;" d="M 457.242188 469.652344 L 437.242188 469.652344 L 437.242188 479.652344 L 457.242188 479.652344 L 457.242188 499.652344 L 467.242188 499.652344 L 467.242188 479.652344 L 487.242188 479.652344 L 487.242188 469.652344 L 467.242188 469.652344 L 467.242188 449.652344 L 457.242188 449.652344 L 457.242188 469.652344 "/>
<path style="fill-rule:nonzero;fill:rgb(0%,0%,0%);fill-opacity:1;stroke-width:1;stroke-linecap:butt;stroke-linejoin:miter;stroke:rgb(0%,0%,0%);stroke-opacity:1;stroke-miterlimit:10;" d="M 400.722656 420.054688 L 380.722656 420.054688 L 380.722656 430.054688 L 400.722656 430.054688 L 400.722656 450.054688 L 410.722656 450.054688 L 410.722656 430.054688 L 430.722656 430.054688 L 430.722656 420.054688 L 410.722656 420.054688 L 410.722656 400.054688 L 400.722656 400.054688 L 400.722656 420.054688 "/>
<path style="fill-rule:nonzero;fill:rgb(0%,0%,0%);fill-opacity:1;stroke-width:1;stroke-linecap:butt;stroke-linejoin:miter;stroke:rgb(0%,0%,0%);stroke-opacity:1;stroke-miterlimit:10;" d="M 334.617188 32.40625 L 314.617188 32.40625 L 314.617188 42.40625 L 334.617188 42.40625 L 334.617188 62.40625 L 344.617188 62.40625 L 344.617188 42.40625 L 364.617188 42.40625 L 364.617188 32.40625 L 344.617188 32.40625 L 344.617188 12.40625 L 334.617188 12.40625 L 334.617188 32.40625 "/>
<path style="fill-rule:nonzero;fill:rgb(0%,0%,0%);fill-opacity:1;stroke-width:1;stroke-linecap:butt;stroke-linejoin:miter;stroke:rgb(0%,0%,0%);stroke-opacity:1;stroke-miterlimit:10;" d="M 450.113281 190.152344 L 430.113281 190.152344 L 430.113281 200.152344 L 450.113281 200.152344 L 450.113281 220.152344 L 460.113281 220.152344 L 460.113281 200.152344 L 480.113281 200.152344 L 480.113281 190.152344 L 460.113281 190.152344 L 460.113281 170.152344 L 450.113281 170.152344 L 450.113281 190.152344 "/>
</g>
</svg>
