<?xml version="1.0" encoding="UTF-8"?>
<svg xmlns="http://www.w3.org/2000/svg" xmlns:xlink="http://www.w3.org/1999/xlink" width="517pt" height="517pt" viewBox="0 0 517 517" version="1.1">
<g id="surface6336">
<rect x="0" y="0" width="517" height="517" style="fill:rgb(90%,90%,90%);fill-opacity:1;stroke:none;"/>
<path style="fill-rule:nonzero;fill:rgb(90%,65%,0%);fill-opacity:1;stroke-width:1;stroke-linecap:butt;stroke-linejoin:miter;stroke:rgb(0%,0%,0%);stroke-opacity:1;stroke-miterlimit:10;" d="M 82.226562 352.1875 L 62.226562 352.1875 L 62.226562 362.1875 L 82.226562 362.1875 L 82.226562 382.1875 L 92.226562 382.1875 L 92.226562 362.1875 L 112.226562 362.1875 L 112.226562 352.1875 L 92.226562 352.1875 L 92.226562 332.1875 L 82.226562 332.1875 L 82.226562 352.1875 "/>
<path style="fill-rule:nonzero;fill:rgb(0%,0%,0%);fill-opacity:1;stroke-width:1;stroke-linecap:butt;stroke-linejoin:miter;stroke:rgb(0%,0%,0%);stroke-opacity:1;stroke-miterlimit:10;" d="M 447.726562 203.175781 L 427.726562 203.175781 L 427.726562 213.175781 L 447.726562 213.175781 L 447.726562 233.175781 L 457.726562 233.175781 L 457.726562 213.175781 L 477.726562 213.175781 L 477.726562 203.175781 L 457.726562 203.175781 L 457.726562 183.175781 L 447.726562 183.175781 L 447.726562 203.175781 "/>
<path style="fill-rule:nonzero;fill:rgb(0%,0%,0%);fill-opacity:1;stroke-width:1;stroke-linecap:butt;stroke-linejoin:miter;stroke:rgb(0%,0%,0%);stroke-opacity:1;stroke-miterlimit:10;" d="M 399.253906 135.085938 L 379.253906 135.085938 L 379.253906 145.085938 L 399.253906 145.085938 L 399.253906 165.085938 L 409.253906 165.085938 L 409.253906 145.085938 L 429.253906 145.085938 L 429.253906 135.085938 L 409.253906 135.085938 L 409.253906 115.085938 L 399.253906 115.085938 L 399.253906 135.085938 "/>
<path style="fill-rule:nonzero;fill:rgb(0%,0%,0%);fill-opacity:1;stroke-width:1;stroke-linecap:butt;stroke-linejoin:miter;stroke:rgb(0%,0%,0%);stroke-opacity:1;stroke-miterlimit:10;" d="M 337.191406 214.636719 L 317.191406 214.636719 L 317.191406 224.636719 L 337.191406 224.636719 L 337.191406 244.636719 L 347.191406 244.636719 L 347.191406 224.636719 L 367.191406 224.636719 L 367.191406 214.636719 L 347.191406 214.636719 L 347.191406 194.636719 L 337.191406 194.636719 L 337.191406 214.636719 "/>
<path style="fill-rule:nonzero;fill:rgb(0%,0%,0%);fill-opacity:1;stroke-width:1;stroke-linecap:butt;stroke-linejoin:miter;stroke:rgb(0%,0%,0%);stroke-opacity:1;stroke-miterlimit:10;" d="M 320.125 105.34375 L 300.125 105.34375 L 300.125 115.34375 L 320.125 115.34375 L 320.125 135.34375 L 330.125 135.34375 L 330.125 115.34375 L 350.125 115.34375 L 350.125 105.34375 L 330.125 105.34375 L 330.125 85.34375 L 320.125 85.34375 L 320.125 105.34375 "/>
<path style="fill-rule:nonzero;fill:rgb(0%,0%,0%);fill-opacity:1;stroke-width:1;stroke-linecap:butt;stroke-linejoin:miter;stroke:rgb(0%,0%,0%);stroke-opacity:1;stroke-miterlimit:10;" d="M 366.914062 61.609375 L 346.914062 61.609375 L 346.914062 71.609375 L 366.914062 71.609375 L 366.914062 91.609375 L 376.914062 91.609375 L 376.914062 71.609375 L 396.914062 71.609375 L 396.914062 61.609375 L 376.914062 61.609375 L 376.914062 41.609375 L 366.914062 41.609375 L 366.914062 61.609375 "/>
<path style="fill-rule:nonzero;fill:rgb(0%,0%,0%);fill-opacity:1;stroke-width:1;stroke-linecap:butt;stroke-linejoin:miter;stroke:rgb(0%,0%,0%);stroke-opacity:1;stroke-miterlimit:10;" d="M 459.222656 33.753906 L 439.222656 33.753906 L 439.222656 43.753906 L 459.222656 43.753906 L 459.222656 63.753906 L 469.222656 63.753906 L 469.222656 43.753906 L 489.222656 43.753906 L 489.222656 33.753906 L 469.222656 33.753906 L 469.222656 13.753906 L 459.222656 13.753906 L 459.222656 33.753906 "/>
<path style="fill-rule:nonzero;fill:rgb(0%,0%,0%);fill-opacity:1;stroke-width:1;stroke-linecap:butt;stroke-linejoin:miter;stroke:rgb(0%,0%,0%);stroke-opacity:1;stroke-miterlimit:10;" d="M 179.214844 47.882812 L 159.214844 47.882812 L 159.214844 57.882812 L 179.214844 57.882812 L 179.214844 77.882812 L 189.214844 77.882812 L 189.214844 57.882812 L 209.214844 57.882812 L 209.214844 47.882812 L 189.214844 47.882812 L 189.214844 27.882812 L 179.214844 27.882812 L 179.214844 47.882812 "/>
</g>
</svg>
