<?xml version="1.0" encoding="UTF-8"?>
<svg xmlns="http://www.w3.org/2000/svg" xmlns:xlink="http://www.w3.org/1999/xlink" width="517pt" height="517pt" viewBox="0 0 517 517" version="1.1">
<g id="surface5936">
<rect x="0" y="0" width="517" height="517" style="fill:rgb(90%,90%,90%);fill-opacity:1;stroke:none;"/>
<path style="fill-rule:nonzero;fill:rgb(100%,0%,0%);fill-opacity:1;stroke-width:1;stroke-linecap:butt;stroke-linejoin:miter;stroke:rgb(0%,0%,0%);stroke-opacity:1;stroke-miterlimit:10;" d="M 336.929688 177.847656 L 316.929688 177.847656 L 316.929688 187.847656 L 336.929688 187.847656 L 336.929688 207.847656 L 346.929688 207.847656 L 346.929688 187.847656 L 366.929688 187.847656 L 366.929688 177.847656 L 346.929688 177.847656 L 346.929688 157.847656 L 336.929688 157.847656 L 336.929688 177.847656 "/>
<path style="fill-rule:nonzero;fill:rgb(100%,100%,0%);fill-opacity:1;stroke-width:1;stroke-linecap:butt;stroke-linejoin:miter;stroke:rgb(0%,0%,0%);stroke-opacity:1;stroke-miterlimit:10;" d="M 408.652344 128.640625 L 388.652344 128.640625 L 388.652344 138.640625 L 408.652344 138.640625 L 408.652344 158.640625 L 418.652344 158.640625 L 418.652344 138.640625 L 438.652344 138.640625 L 438.652344 128.640625 L 418.652344 128.640625 L 418.652344 108.640625 L 408.652344 108.640625 L 408.652344 128.640625 "/>
<path style="fill-rule:nonzero;fill:rgb(100%,100%,0%);fill-opacity:1;stroke-width:1;stroke-linecap:butt;stroke-linejoin:miter;stroke:rgb(0%,0%,0%);stroke-opacity:1;stroke-miterlimit:10;" d="M 210.820312 144.628906 L 190.820312 144.628906 L 190.820312 154.628906 L 210.820312 154.628906 L 210.820312 174.628906 L 220.820312 174.628906 L 220.820312 154.628906 L 240.820312 154.628906 L 240.820312 144.628906 L 220.820312 144.628906 L 220.820312 124.628906 L 210.820312 124.628906 L 210.820312 144.628906 "/>
<path style="fill-rule:nonzero;fill:rgb(100%,100%,0%);fill-opacity:1;stroke-width:1;stroke-linecap:butt;stroke-linejoin:miter;stroke:rgb(0%,0%,0%);stroke-opacity:1;stroke-miterlimit:10;" d="M 136.226562 39.300781 L 116.226562 39.300781 L 116.226562 49.300781 L 136.226562 49.300781 L 136.226562 69.300781 L 146.226562 69.300781 L 146.226562 49.300781 L 166.226562 49.300781 L 166.226562 39.300781 L 146.226562 39.300781 L 146.226562 19.300781 L 136.226562 19.300781 L 136.226562 39.300781 "/>
<path style="fill-rule:nonzero;fill:rgb(100%,100%,0%);fill-opacity:1;stroke-width:1;stroke-linecap:butt;stroke-linejoin:miter;stroke:rgb(0%,0%,0%);stroke-opacity:1;stroke-miterlimit:10;" d="M 62.507812 145.578125 L 42.507812 145.578125 L 42.507812 155.578125 L 62.507812 155.578125 L 62.507812 175.578125 L 72.507812 175.578125 L 72.507812 155.578125 L 92.507812 155.578125 L 92.507812 145.578125 L 72.507812 145.578125 L 72.507812 125.578125 L 62.507812 125.578125 L 62.507812 145.578125 "/>
<path style="fill-rule:nonzero;fill:rgb(100%,100%,0%);fill-opacity:1;stroke-width:1;stroke-linecap:butt;stroke-linejoin:miter;stroke:rgb(0%,0%,0%);stroke-opacity:1;stroke-miterlimit:10;" d="M 54.238281 388.632812 L 34.238281 388.632812 L 34.238281 398.632812 L 54.238281 398.632812 L 54.238281 418.632812 L 64.238281 418.632812 L 64.238281 398.632812 L 84.238281 398.632812 L 84.238281 388.632812 L 64.238281 388.632812 L 64.238281 368.632812 L 54.238281 368.632812 L 54.238281 388.632812 "/>
<path style="fill-rule:nonzero;fill:rgb(100%,100%,0%);fill-opacity:1;stroke-width:1;stroke-linecap:butt;stroke-linejoin:miter;stroke:rgb(0%,0%,0%);stroke-opacity:1;stroke-miterlimit:10;" d="M 162.394531 351.53125 L 142.394531 351.53125 L 142.394531 361.53125 L 162.394531 361.53125 L 162.394531 381.53125 L 172.394531 381.53125 L 172.394531 361.53125 L 192.394531 361.53125 L 192.394531 351.53125 L 172.394531 351.53125 L 172.394531 331.53125 L 162.394531 331.53125 L 162.394531 351.53125 "/>
<path style="fill-rule:nonzero;fill:rgb(100%,100%,0%);fill-opacity:1;stroke-width:1;stroke-linecap:butt;stroke-linejoin:miter;stroke:rgb(0%,0%,0%);stroke-opacity:1;stroke-miterlimit:10;" d="M 106.835938 431.480469 L 86.835938 431.480469 L 86.835938 441.480469 L 106.835938 441.480469 L 106.835938 461.480469 L 116.835938 461.480469 L 116.835938 441.480469 L 136.835938 441.480469 L 136.835938 431.480469 L 116.835938 431.480469 L 116.835938 411.480469 L 106.835938 411.480469 L 106.835938 431.480469 "/>
</g>
</svg>
