<?xml version="1.0" encoding="UTF-8"?>
<svg xmlns="http://www.w3.org/2000/svg" xmlns:xlink="http://www.w3.org/1999/xlink" width="517pt" height="517pt" viewBox="0 0 517 517" version="1.1">
<g id="surface5196">
<rect x="0" y="0" width="517" height="517" style="fill:rgb(90%,90%,90%);fill-opacity:1;stroke:none;"/>
<path style="fill-rule:nonzero;fill:rgb(100%,0%,0%);fill-opacity:1;stroke-width:1;stroke-linecap:butt;stroke-linejoin:miter;stroke:rgb(0%,0%,0%);stroke-opacity:1;stroke-miterlimit:10;" d="M 368.203125 212.28125 C 368.203125 228.847656 354.773438 242.28125 338.203125 242.28125 C 321.636719 242.28125 308.203125 228.847656 308.203125 212.28125 C 308.203125 195.710938 321.636719 182.28125 338.203125 182.28125 C 354.773438 182.28125 368.203125 195.710938 368.203125 212.28125 "/>
<path style="fill-rule:nonzero;fill:rgb(100%,0%,0%);fill-opacity:1;stroke-width:1;stroke-linecap:butt;stroke-linejoin:miter;stroke:rgb(0%,0%,0%);stroke-opacity:1;stroke-miterlimit:10;" d="M 387.46875 293.667969 C 387.46875 310.234375 374.039062 323.667969 357.46875 323.667969 C 340.902344 323.667969 327.46875 310.234375 327.46875 293.667969 C 327.46875 277.097656 340.902344 263.667969 357.46875 263.667969 C 374.039062 263.667969 387.46875 277.097656 387.46875 293.667969 "/>
<path style="fill-rule:nonzero;fill:rgb(100%,0%,0%);fill-opacity:1;stroke-width:1;stroke-linecap:butt;stroke-linejoin:miter;stroke:rgb(0%,0%,0%);stroke-opacity:1;stroke-miterlimit:10;" d="M 495.335938 331.972656 C 495.335938 348.539062 481.90625 361.972656 465.335938 361.972656 C 448.769531 361.972656 435.335938 348.539062 435.335938 331.972656 C 435.335938 315.402344 448.769531 301.972656 465.335938 301.972656 C 481.90625 301.972656 495.335938 315.402344 495.335938 331.972656 "/>
<path style="fill-rule:nonzero;fill:rgb(35%,70%,90%);fill-opacity:1;stroke-width:1;stroke-linecap:butt;stroke-linejoin:miter;stroke:rgb(0%,0%,0%);stroke-opacity:1;stroke-miterlimit:10;" d="M 420.804688 412.132812 C 420.804688 428.703125 407.375 442.132812 390.804688 442.132812 C 374.234375 442.132812 360.804688 428.703125 360.804688 412.132812 C 360.804688 395.5625 374.234375 382.132812 390.804688 382.132812 C 407.375 382.132812 420.804688 395.5625 420.804688 412.132812 "/>
<path style="fill-rule:nonzero;fill:rgb(35%,70%,90%);fill-opacity:1;stroke-width:1;stroke-linecap:butt;stroke-linejoin:miter;stroke:rgb(0%,0%,0%);stroke-opacity:1;stroke-miterlimit:10;" d="M 462.289062 457.179688 C 462.289062 473.75 448.859375 487.179688 432.289062 487.179688 C 415.722656 487.179688 402.289062 473.75 402.289062 457.179688 C 402.289062 440.613281 415.722656 427.179688 432.289062 427.179688 C 448.859375 427.179688 462.289062 440.613281 462.289062 457.179688 "/>
<path style="fill-rule:nonzero;fill:rgb(35%,70%,90%);fill-opacity:1;stroke-width:1;stroke-linecap:butt;stroke-linejoin:miter;stroke:rgb(0%,0%,0%);stroke-opacity:1;stroke-miterlimit:10;" d="M 496.101562 393.898438 C 496.101562 410.46875 482.671875 423.898438 466.101562 423.898438 C 449.535156 423.898438 436.101562 410.46875 436.101562 393.898438 C 436.101562 377.332031 449.535156 363.898438 466.101562 363.898438 C 482.671875 363.898438 496.101562 377.332031 496.101562 393.898438 "/>
<path style="fill-rule:nonzero;fill:rgb(35%,70%,90%);fill-opacity:1;stroke-width:1;stroke-linecap:butt;stroke-linejoin:miter;stroke:rgb(0%,0%,0%);stroke-opacity:1;stroke-miterlimit:10;" d="M 345.871094 344.253906 C 345.871094 360.824219 332.4375 374.253906 315.871094 374.253906 C 299.300781 374.253906 285.871094 360.824219 285.871094 344.253906 C 285.871094 327.6875 299.300781 314.253906 315.871094 314.253906 C 332.4375 314.253906 345.871094 327.6875 345.871094 344.253906 "/>
<path style="fill-rule:nonzero;fill:rgb(35%,70%,90%);fill-opacity:1;stroke-width:1;stroke-linecap:butt;stroke-linejoin:miter;stroke:rgb(0%,0%,0%);stroke-opacity:1;stroke-miterlimit:10;" d="M 338.515625 452.105469 C 338.515625 468.671875 325.085938 482.105469 308.515625 482.105469 C 291.949219 482.105469 278.515625 468.671875 278.515625 452.105469 C 278.515625 435.535156 291.949219 422.105469 308.515625 422.105469 C 325.085938 422.105469 338.515625 435.535156 338.515625 452.105469 "/>
</g>
</svg>
