<?xml version="1.0" encoding="UTF-8"?>
<svg xmlns="http://www.w3.org/2000/svg" xmlns:xlink="http://www.w3.org/1999/xlink" width="517pt" height="517pt" viewBox="0 0 517 517" version="1.1">
<g id="surface1051">
<rect x="0" y="0" width="517" height="517" style="fill:rgb(90%,90%,90%);fill-opacity:1;stroke:none;"/>
<path style="fill:none;stroke-width:5;stroke-linecap:butt;stroke-linejoin:round;stroke:rgb(100%,0%,0%);stroke-opacity:1;stroke-miterlimit:10;" d="M 5 261 L 261 261 L 261 517 L 5 517 Z M 5 261 "/>
<path style="fill-rule:nonzero;fill:rgb(100%,0%,0%);fill-opacity:1;stroke-width:1;stroke-linecap:butt;stroke-linejoin:round;stroke:rgb(0%,0%,0%);stroke-opacity:1;stroke-miterlimit:10;" d="M 173.171875 462 C 173.171875 447.597656 149.171875 447.597656 149.171875 462 C 149.171875 476.398438 173.171875 478.800781 173.171875 490.800781 C 173.171875 478.800781 197.171875 476.398438 197.171875 462 C 197.171875 447.597656 173.171875 447.597656 173.171875 462 "/>
<path style="fill-rule:nonzero;fill:rgb(35%,70%,90%);fill-opacity:1;stroke-width:1;stroke-linecap:butt;stroke-linejoin:round;stroke:rgb(0%,0%,0%);stroke-opacity:1;stroke-miterlimit:10;" d="M 198.242188 90.066406 C 198.242188 75.667969 174.242188 75.667969 174.242188 90.066406 C 174.242188 104.46875 198.242188 106.867188 198.242188 118.867188 C 198.242188 106.867188 222.242188 104.46875 222.242188 90.066406 C 222.242188 75.667969 198.242188 75.667969 198.242188 90.066406 "/>
<path style="fill-rule:nonzero;fill:rgb(35%,70%,90%);fill-opacity:1;stroke-width:1;stroke-linecap:butt;stroke-linejoin:round;stroke:rgb(0%,0%,0%);stroke-opacity:1;stroke-miterlimit:10;" d="M 145.765625 144.320312 C 145.765625 129.917969 121.765625 129.917969 121.765625 144.320312 C 121.765625 158.71875 145.765625 161.117188 145.765625 173.117188 C 145.765625 161.117188 169.765625 158.71875 169.765625 144.320312 C 169.765625 129.917969 145.765625 129.917969 145.765625 144.320312 "/>
<path style="fill-rule:nonzero;fill:rgb(35%,70%,90%);fill-opacity:1;stroke-width:1;stroke-linecap:butt;stroke-linejoin:round;stroke:rgb(0%,0%,0%);stroke-opacity:1;stroke-miterlimit:10;" d="M 356.089844 87.117188 C 356.089844 72.71875 332.089844 72.71875 332.089844 87.117188 C 332.089844 101.519531 356.089844 103.917969 356.089844 115.917969 C 356.089844 103.917969 380.089844 101.519531 380.089844 87.117188 C 380.089844 72.71875 356.089844 72.71875 356.089844 87.117188 "/>
</g>
</svg>
