<?xml version="1.0" encoding="UTF-8"?>
<svg xmlns="http://www.w3.org/2000/svg" xmlns:xlink="http://www.w3.org/1999/xlink" width="517pt" height="517pt" viewBox="0 0 517 517" version="1.1">
<g id="surface6526">
<rect x="0" y="0" width="517" height="517" style="fill:rgb(90%,90%,90%);fill-opacity:1;stroke:none;"/>
<path style="fill-rule:nonzero;fill:rgb(67%,100%,18%);fill-opacity:1;stroke-width:1;stroke-linecap:butt;stroke-linejoin:miter;stroke:rgb(0%,0%,0%);stroke-opacity:1;stroke-miterlimit:10;" d="M 330.429688 406.414062 L 330.429688 448.839844 L 372.855469 448.839844 L 372.855469 406.414062 L 330.429688 406.414062 "/>
<path style="fill-rule:nonzero;fill:rgb(67%,100%,18%);fill-opacity:1;stroke-width:1;stroke-linecap:butt;stroke-linejoin:miter;stroke:rgb(0%,0%,0%);stroke-opacity:1;stroke-miterlimit:10;" d="M 359.378906 85.84375 L 359.378906 128.269531 L 401.804688 128.269531 L 401.804688 85.84375 L 359.378906 85.84375 "/>
<path style="fill-rule:nonzero;fill:rgb(67%,100%,18%);fill-opacity:1;stroke-width:1;stroke-linecap:butt;stroke-linejoin:miter;stroke:rgb(0%,0%,0%);stroke-opacity:1;stroke-miterlimit:10;" d="M 302.46875 51.503906 L 302.46875 93.929688 L 344.894531 93.929688 L 344.894531 51.503906 L 302.46875 51.503906 "/>
<path style="fill-rule:nonzero;fill:rgb(67%,100%,18%);fill-opacity:1;stroke-width:1;stroke-linecap:butt;stroke-linejoin:miter;stroke:rgb(0%,0%,0%);stroke-opacity:1;stroke-miterlimit:10;" d="M 336.078125 151.695312 L 336.078125 194.121094 L 378.503906 194.121094 L 378.503906 151.695312 L 336.078125 151.695312 "/>
<path style="fill-rule:nonzero;fill:rgb(67%,100%,18%);fill-opacity:1;stroke-width:1;stroke-linecap:butt;stroke-linejoin:miter;stroke:rgb(0%,0%,0%);stroke-opacity:1;stroke-miterlimit:10;" d="M 271.230469 194.660156 L 271.230469 237.085938 L 313.660156 237.085938 L 313.660156 194.660156 L 271.230469 194.660156 "/>
<path style="fill-rule:nonzero;fill:rgb(67%,100%,18%);fill-opacity:1;stroke-width:1;stroke-linecap:butt;stroke-linejoin:miter;stroke:rgb(0%,0%,0%);stroke-opacity:1;stroke-miterlimit:10;" d="M 429.515625 52.257812 L 429.515625 94.683594 L 471.941406 94.683594 L 471.941406 52.257812 L 429.515625 52.257812 "/>
<path style="fill-rule:nonzero;fill:rgb(67%,100%,18%);fill-opacity:1;stroke-width:1;stroke-linecap:butt;stroke-linejoin:miter;stroke:rgb(0%,0%,0%);stroke-opacity:1;stroke-miterlimit:10;" d="M 440.472656 132.558594 L 440.472656 174.984375 L 482.902344 174.984375 L 482.902344 132.558594 L 440.472656 132.558594 "/>
<path style="fill-rule:nonzero;fill:rgb(67%,100%,18%);fill-opacity:1;stroke-width:1;stroke-linecap:butt;stroke-linejoin:miter;stroke:rgb(0%,0%,0%);stroke-opacity:1;stroke-miterlimit:10;" d="M 354.984375 18.425781 L 354.984375 60.851562 L 397.410156 60.851562 L 397.410156 18.425781 L 354.984375 18.425781 "/>
</g>
</svg>
