<?xml version="1.0" encoding="UTF-8"?>
<svg xmlns="http://www.w3.org/2000/svg" xmlns:xlink="http://www.w3.org/1999/xlink" width="517pt" height="517pt" viewBox="0 0 517 517" version="1.1">
<g id="surface6316">
<rect x="0" y="0" width="517" height="517" style="fill:rgb(90%,90%,90%);fill-opacity:1;stroke:none;"/>
<path style="fill-rule:nonzero;fill:rgb(50%,0%,50%);fill-opacity:1;stroke-width:1;stroke-linecap:butt;stroke-linejoin:miter;stroke:rgb(0%,0%,0%);stroke-opacity:1;stroke-miterlimit:10;" d="M 72.425781 46.09375 L 52.425781 46.09375 L 52.425781 56.09375 L 72.425781 56.09375 L 72.425781 76.09375 L 82.425781 76.09375 L 82.425781 56.09375 L 102.425781 56.09375 L 102.425781 46.09375 L 82.425781 46.09375 L 82.425781 26.09375 L 72.425781 26.09375 L 72.425781 46.09375 "/>
<path style="fill-rule:nonzero;fill:rgb(50%,0%,50%);fill-opacity:1;stroke-width:1;stroke-linecap:butt;stroke-linejoin:miter;stroke:rgb(0%,0%,0%);stroke-opacity:1;stroke-miterlimit:10;" d="M 212.015625 149.578125 L 192.015625 149.578125 L 192.015625 159.578125 L 212.015625 159.578125 L 212.015625 179.578125 L 222.015625 179.578125 L 222.015625 159.578125 L 242.015625 159.578125 L 242.015625 149.578125 L 222.015625 149.578125 L 222.015625 129.578125 L 212.015625 129.578125 L 212.015625 149.578125 "/>
<path style="fill-rule:nonzero;fill:rgb(50%,0%,50%);fill-opacity:1;stroke-width:1;stroke-linecap:butt;stroke-linejoin:miter;stroke:rgb(0%,0%,0%);stroke-opacity:1;stroke-miterlimit:10;" d="M 98.421875 371.59375 L 78.421875 371.59375 L 78.421875 381.59375 L 98.421875 381.59375 L 98.421875 401.59375 L 108.421875 401.59375 L 108.421875 381.59375 L 128.421875 381.59375 L 128.421875 371.59375 L 108.421875 371.59375 L 108.421875 351.59375 L 98.421875 351.59375 L 98.421875 371.59375 "/>
<path style="fill-rule:nonzero;fill:rgb(67%,100%,18%);fill-opacity:1;stroke-width:1;stroke-linecap:butt;stroke-linejoin:miter;stroke:rgb(0%,0%,0%);stroke-opacity:1;stroke-miterlimit:10;" d="M 113.125 468.023438 L 93.125 468.023438 L 93.125 478.023438 L 113.125 478.023438 L 113.125 498.023438 L 123.125 498.023438 L 123.125 478.023438 L 143.125 478.023438 L 143.125 468.023438 L 123.125 468.023438 L 123.125 448.023438 L 113.125 448.023438 L 113.125 468.023438 "/>
<path style="fill-rule:nonzero;fill:rgb(67%,100%,18%);fill-opacity:1;stroke-width:1;stroke-linecap:butt;stroke-linejoin:miter;stroke:rgb(0%,0%,0%);stroke-opacity:1;stroke-miterlimit:10;" d="M 341.035156 68.628906 L 321.035156 68.628906 L 321.035156 78.628906 L 341.035156 78.628906 L 341.035156 98.628906 L 351.035156 98.628906 L 351.035156 78.628906 L 371.035156 78.628906 L 371.035156 68.628906 L 351.035156 68.628906 L 351.035156 48.628906 L 341.035156 48.628906 L 341.035156 68.628906 "/>
<path style="fill-rule:nonzero;fill:rgb(67%,100%,18%);fill-opacity:1;stroke-width:1;stroke-linecap:butt;stroke-linejoin:miter;stroke:rgb(0%,0%,0%);stroke-opacity:1;stroke-miterlimit:10;" d="M 375.921875 200.0625 L 355.921875 200.0625 L 355.921875 210.0625 L 375.921875 210.0625 L 375.921875 230.0625 L 385.921875 230.0625 L 385.921875 210.0625 L 405.921875 210.0625 L 405.921875 200.0625 L 385.921875 200.0625 L 385.921875 180.0625 L 375.921875 180.0625 L 375.921875 200.0625 "/>
<path style="fill-rule:nonzero;fill:rgb(67%,100%,18%);fill-opacity:1;stroke-width:1;stroke-linecap:butt;stroke-linejoin:miter;stroke:rgb(0%,0%,0%);stroke-opacity:1;stroke-miterlimit:10;" d="M 429.09375 46.867188 L 409.09375 46.867188 L 409.09375 56.867188 L 429.09375 56.867188 L 429.09375 76.867188 L 439.09375 76.867188 L 439.09375 56.867188 L 459.09375 56.867188 L 459.09375 46.867188 L 439.09375 46.867188 L 439.09375 26.867188 L 429.09375 26.867188 L 429.09375 46.867188 "/>
<path style="fill-rule:nonzero;fill:rgb(67%,100%,18%);fill-opacity:1;stroke-width:1;stroke-linecap:butt;stroke-linejoin:miter;stroke:rgb(0%,0%,0%);stroke-opacity:1;stroke-miterlimit:10;" d="M 299.742188 127.273438 L 279.742188 127.273438 L 279.742188 137.273438 L 299.742188 137.273438 L 299.742188 157.273438 L 309.742188 157.273438 L 309.742188 137.273438 L 329.742188 137.273438 L 329.742188 127.273438 L 309.742188 127.273438 L 309.742188 107.273438 L 299.742188 107.273438 L 299.742188 127.273438 "/>
</g>
</svg>
