<?xml version="1.0" encoding="UTF-8"?>
<svg xmlns="http://www.w3.org/2000/svg" xmlns:xlink="http://www.w3.org/1999/xlink" width="517pt" height="517pt" viewBox="0 0 517 517" version="1.1">
<g id="surface1026">
<rect x="0" y="0" width="517" height="517" style="fill:rgb(90%,90%,90%);fill-opacity:1;stroke:none;"/>
<path style="fill:none;stroke-width:5;stroke-linecap:butt;stroke-linejoin:round;stroke:rgb(100%,0%,0%);stroke-opacity:1;stroke-miterlimit:10;" d="M 5 261 L 261 261 L 261 517 L 5 517 Z M 5 261 "/>
<path style="fill-rule:nonzero;fill:rgb(67%,100%,18%);fill-opacity:1;stroke-width:1;stroke-linecap:butt;stroke-linejoin:round;stroke:rgb(0%,0%,0%);stroke-opacity:1;stroke-miterlimit:10;" d="M 114.640625 412.585938 C 114.640625 429.15625 101.207031 442.585938 84.640625 442.585938 C 68.070312 442.585938 54.640625 429.15625 54.640625 412.585938 C 54.640625 396.019531 68.070312 382.585938 84.640625 382.585938 C 101.207031 382.585938 114.640625 396.019531 114.640625 412.585938 "/>
<path style="fill-rule:nonzero;fill:rgb(53%,27%,7%);fill-opacity:1;stroke-width:1;stroke-linecap:butt;stroke-linejoin:round;stroke:rgb(0%,0%,0%);stroke-opacity:1;stroke-miterlimit:10;" d="M 342.171875 63.839844 C 342.171875 80.410156 328.738281 93.839844 312.171875 93.839844 C 295.601562 93.839844 282.171875 80.410156 282.171875 63.839844 C 282.171875 47.273438 295.601562 33.839844 312.171875 33.839844 C 328.738281 33.839844 342.171875 47.273438 342.171875 63.839844 "/>
<path style="fill-rule:nonzero;fill:rgb(53%,27%,7%);fill-opacity:1;stroke-width:1;stroke-linecap:butt;stroke-linejoin:round;stroke:rgb(0%,0%,0%);stroke-opacity:1;stroke-miterlimit:10;" d="M 464.132812 93.074219 C 464.132812 109.644531 450.699219 123.074219 434.132812 123.074219 C 417.5625 123.074219 404.132812 109.644531 404.132812 93.074219 C 404.132812 76.503906 417.5625 63.074219 434.132812 63.074219 C 450.699219 63.074219 464.132812 76.503906 464.132812 93.074219 "/>
<path style="fill-rule:nonzero;fill:rgb(53%,27%,7%);fill-opacity:1;stroke-width:1;stroke-linecap:butt;stroke-linejoin:round;stroke:rgb(0%,0%,0%);stroke-opacity:1;stroke-miterlimit:10;" d="M 80.445312 163.746094 C 80.445312 180.316406 67.011719 193.746094 50.445312 193.746094 C 33.875 193.746094 20.445312 180.316406 20.445312 163.746094 C 20.445312 147.179688 33.875 133.746094 50.445312 133.746094 C 67.011719 133.746094 80.445312 147.179688 80.445312 163.746094 "/>
</g>
</svg>
