<?xml version="1.0" encoding="UTF-8"?>
<svg xmlns="http://www.w3.org/2000/svg" xmlns:xlink="http://www.w3.org/1999/xlink" width="517pt" height="517pt" viewBox="0 0 517 517" version="1.1">
<g id="surface6176">
<rect x="0" y="0" width="517" height="517" style="fill:rgb(90%,90%,90%);fill-opacity:1;stroke:none;"/>
<path style="fill-rule:nonzero;fill:rgb(35%,70%,90%);fill-opacity:1;stroke-width:1;stroke-linecap:butt;stroke-linejoin:miter;stroke:rgb(0%,0%,0%);stroke-opacity:1;stroke-miterlimit:10;" d="M 94.390625 313.386719 L 74.390625 313.386719 L 74.390625 323.386719 L 94.390625 323.386719 L 94.390625 343.386719 L 104.390625 343.386719 L 104.390625 323.386719 L 124.390625 323.386719 L 124.390625 313.386719 L 104.390625 313.386719 L 104.390625 293.386719 L 94.390625 293.386719 L 94.390625 313.386719 "/>
<path style="fill-rule:nonzero;fill:rgb(100%,100%,0%);fill-opacity:1;stroke-width:1;stroke-linecap:butt;stroke-linejoin:miter;stroke:rgb(0%,0%,0%);stroke-opacity:1;stroke-miterlimit:10;" d="M 342.636719 78.128906 L 322.636719 78.128906 L 322.636719 88.128906 L 342.636719 88.128906 L 342.636719 108.128906 L 352.636719 108.128906 L 352.636719 88.128906 L 372.636719 88.128906 L 372.636719 78.128906 L 352.636719 78.128906 L 352.636719 58.128906 L 342.636719 58.128906 L 342.636719 78.128906 "/>
<path style="fill-rule:nonzero;fill:rgb(100%,100%,0%);fill-opacity:1;stroke-width:1;stroke-linecap:butt;stroke-linejoin:miter;stroke:rgb(0%,0%,0%);stroke-opacity:1;stroke-miterlimit:10;" d="M 422.074219 98.425781 L 402.074219 98.425781 L 402.074219 108.425781 L 422.074219 108.425781 L 422.074219 128.425781 L 432.074219 128.425781 L 432.074219 108.425781 L 452.074219 108.425781 L 452.074219 98.425781 L 432.074219 98.425781 L 432.074219 78.425781 L 422.074219 78.425781 L 422.074219 98.425781 "/>
<path style="fill-rule:nonzero;fill:rgb(100%,100%,0%);fill-opacity:1;stroke-width:1;stroke-linecap:butt;stroke-linejoin:miter;stroke:rgb(0%,0%,0%);stroke-opacity:1;stroke-miterlimit:10;" d="M 86.769531 122.65625 L 66.769531 122.65625 L 66.769531 132.65625 L 86.769531 132.65625 L 86.769531 152.65625 L 96.769531 152.65625 L 96.769531 132.65625 L 116.769531 132.65625 L 116.769531 122.65625 L 96.769531 122.65625 L 96.769531 102.65625 L 86.769531 102.65625 L 86.769531 122.65625 "/>
<path style="fill-rule:nonzero;fill:rgb(100%,100%,0%);fill-opacity:1;stroke-width:1;stroke-linecap:butt;stroke-linejoin:miter;stroke:rgb(0%,0%,0%);stroke-opacity:1;stroke-miterlimit:10;" d="M 169.359375 58.148438 L 149.359375 58.148438 L 149.359375 68.148438 L 169.359375 68.148438 L 169.359375 88.148438 L 179.359375 88.148438 L 179.359375 68.148438 L 199.359375 68.148438 L 199.359375 58.148438 L 179.359375 58.148438 L 179.359375 38.148438 L 169.359375 38.148438 L 169.359375 58.148438 "/>
<path style="fill-rule:nonzero;fill:rgb(100%,100%,0%);fill-opacity:1;stroke-width:1;stroke-linecap:butt;stroke-linejoin:miter;stroke:rgb(0%,0%,0%);stroke-opacity:1;stroke-miterlimit:10;" d="M 188.441406 167.035156 L 168.441406 167.035156 L 168.441406 177.035156 L 188.441406 177.035156 L 188.441406 197.035156 L 198.441406 197.035156 L 198.441406 177.035156 L 218.441406 177.035156 L 218.441406 167.035156 L 198.441406 167.035156 L 198.441406 147.035156 L 188.441406 147.035156 L 188.441406 167.035156 "/>
<path style="fill-rule:nonzero;fill:rgb(100%,100%,0%);fill-opacity:1;stroke-width:1;stroke-linecap:butt;stroke-linejoin:miter;stroke:rgb(0%,0%,0%);stroke-opacity:1;stroke-miterlimit:10;" d="M 151.304688 214.921875 L 131.304688 214.921875 L 131.304688 224.921875 L 151.304688 224.921875 L 151.304688 244.921875 L 161.304688 244.921875 L 161.304688 224.921875 L 181.304688 224.921875 L 181.304688 214.921875 L 161.304688 214.921875 L 161.304688 194.921875 L 151.304688 194.921875 L 151.304688 214.921875 "/>
<path style="fill-rule:nonzero;fill:rgb(100%,100%,0%);fill-opacity:1;stroke-width:1;stroke-linecap:butt;stroke-linejoin:miter;stroke:rgb(0%,0%,0%);stroke-opacity:1;stroke-miterlimit:10;" d="M 87.851562 190.011719 L 67.851562 190.011719 L 67.851562 200.011719 L 87.851562 200.011719 L 87.851562 220.011719 L 97.851562 220.011719 L 97.851562 200.011719 L 117.851562 200.011719 L 117.851562 190.011719 L 97.851562 190.011719 L 97.851562 170.011719 L 87.851562 170.011719 L 87.851562 190.011719 "/>
</g>
</svg>
