<?xml version="1.0" encoding="UTF-8"?>
<svg xmlns="http://www.w3.org/2000/svg" xmlns:xlink="http://www.w3.org/1999/xlink" width="517pt" height="517pt" viewBox="0 0 517 517" version="1.1">
<g id="surface6396">
<rect x="0" y="0" width="517" height="517" style="fill:rgb(90%,90%,90%);fill-opacity:1;stroke:none;"/>
<path style="fill-rule:nonzero;fill:rgb(90%,65%,0%);fill-opacity:1;stroke-width:1;stroke-linecap:butt;stroke-linejoin:miter;stroke:rgb(0%,0%,0%);stroke-opacity:1;stroke-miterlimit:10;" d="M 84.351562 419.835938 L 64.351562 419.835938 L 64.351562 429.835938 L 84.351562 429.835938 L 84.351562 449.835938 L 94.351562 449.835938 L 94.351562 429.835938 L 114.351562 429.835938 L 114.351562 419.835938 L 94.351562 419.835938 L 94.351562 399.835938 L 84.351562 399.835938 L 84.351562 419.835938 "/>
<path style="fill-rule:nonzero;fill:rgb(90%,65%,0%);fill-opacity:1;stroke-width:1;stroke-linecap:butt;stroke-linejoin:miter;stroke:rgb(0%,0%,0%);stroke-opacity:1;stroke-miterlimit:10;" d="M 120.710938 30.90625 L 100.710938 30.90625 L 100.710938 40.90625 L 120.710938 40.90625 L 120.710938 60.90625 L 130.710938 60.90625 L 130.710938 40.90625 L 150.710938 40.90625 L 150.710938 30.90625 L 130.710938 30.90625 L 130.710938 10.90625 L 120.710938 10.90625 L 120.710938 30.90625 "/>
<path style="fill-rule:nonzero;fill:rgb(90%,65%,0%);fill-opacity:1;stroke-width:1;stroke-linecap:butt;stroke-linejoin:miter;stroke:rgb(0%,0%,0%);stroke-opacity:1;stroke-miterlimit:10;" d="M 73.859375 74.773438 L 53.859375 74.773438 L 53.859375 84.773438 L 73.859375 84.773438 L 73.859375 104.773438 L 83.859375 104.773438 L 83.859375 84.773438 L 103.859375 84.773438 L 103.859375 74.773438 L 83.859375 74.773438 L 83.859375 54.773438 L 73.859375 54.773438 L 73.859375 74.773438 "/>
<path style="fill-rule:nonzero;fill:rgb(0%,0%,0%);fill-opacity:1;stroke-width:1;stroke-linecap:butt;stroke-linejoin:miter;stroke:rgb(0%,0%,0%);stroke-opacity:1;stroke-miterlimit:10;" d="M 183.53125 35.140625 L 163.53125 35.140625 L 163.53125 45.140625 L 183.53125 45.140625 L 183.53125 65.140625 L 193.53125 65.140625 L 193.53125 45.140625 L 213.53125 45.140625 L 213.53125 35.140625 L 193.53125 35.140625 L 193.53125 15.140625 L 183.53125 15.140625 L 183.53125 35.140625 "/>
<path style="fill-rule:nonzero;fill:rgb(0%,0%,0%);fill-opacity:1;stroke-width:1;stroke-linecap:butt;stroke-linejoin:miter;stroke:rgb(0%,0%,0%);stroke-opacity:1;stroke-miterlimit:10;" d="M 204.535156 201.285156 L 184.535156 201.285156 L 184.535156 211.285156 L 204.535156 211.285156 L 204.535156 231.285156 L 214.535156 231.285156 L 214.535156 211.285156 L 234.535156 211.285156 L 234.535156 201.285156 L 214.535156 201.285156 L 214.535156 181.285156 L 204.535156 181.285156 L 204.535156 201.285156 "/>
<path style="fill-rule:nonzero;fill:rgb(0%,0%,0%);fill-opacity:1;stroke-width:1;stroke-linecap:butt;stroke-linejoin:miter;stroke:rgb(0%,0%,0%);stroke-opacity:1;stroke-miterlimit:10;" d="M 102.242188 133.066406 L 82.242188 133.066406 L 82.242188 143.066406 L 102.242188 143.066406 L 102.242188 163.066406 L 112.242188 163.066406 L 112.242188 143.066406 L 132.242188 143.066406 L 132.242188 133.066406 L 112.242188 133.066406 L 112.242188 113.066406 L 102.242188 113.066406 L 102.242188 133.066406 "/>
<path style="fill-rule:nonzero;fill:rgb(0%,0%,0%);fill-opacity:1;stroke-width:1;stroke-linecap:butt;stroke-linejoin:miter;stroke:rgb(0%,0%,0%);stroke-opacity:1;stroke-miterlimit:10;" d="M 37.847656 126.402344 L 17.847656 126.402344 L 17.847656 136.402344 L 37.847656 136.402344 L 37.847656 156.402344 L 47.847656 156.402344 L 47.847656 136.402344 L 67.847656 136.402344 L 67.847656 126.402344 L 47.847656 126.402344 L 47.847656 106.402344 L 37.847656 106.402344 L 37.847656 126.402344 "/>
<path style="fill-rule:nonzero;fill:rgb(0%,0%,0%);fill-opacity:1;stroke-width:1;stroke-linecap:butt;stroke-linejoin:miter;stroke:rgb(0%,0%,0%);stroke-opacity:1;stroke-miterlimit:10;" d="M 184.835938 97.738281 L 164.835938 97.738281 L 164.835938 107.738281 L 184.835938 107.738281 L 184.835938 127.738281 L 194.835938 127.738281 L 194.835938 107.738281 L 214.835938 107.738281 L 214.835938 97.738281 L 194.835938 97.738281 L 194.835938 77.738281 L 184.835938 77.738281 L 184.835938 97.738281 "/>
</g>
</svg>
