<?xml version="1.0" encoding="UTF-8"?>
<svg xmlns="http://www.w3.org/2000/svg" xmlns:xlink="http://www.w3.org/1999/xlink" width="517pt" height="517pt" viewBox="0 0 517 517" version="1.1">
<g id="surface6116">
<rect x="0" y="0" width="517" height="517" style="fill:rgb(90%,90%,90%);fill-opacity:1;stroke:none;"/>
<path style="fill-rule:nonzero;fill:rgb(90%,65%,0%);fill-opacity:1;stroke-width:1;stroke-linecap:butt;stroke-linejoin:miter;stroke:rgb(0%,0%,0%);stroke-opacity:1;stroke-miterlimit:10;" d="M 185.253906 304.519531 L 165.253906 304.519531 L 165.253906 314.519531 L 185.253906 314.519531 L 185.253906 334.519531 L 195.253906 334.519531 L 195.253906 314.519531 L 215.253906 314.519531 L 215.253906 304.519531 L 195.253906 304.519531 L 195.253906 284.519531 L 185.253906 284.519531 L 185.253906 304.519531 "/>
<path style="fill-rule:nonzero;fill:rgb(90%,65%,0%);fill-opacity:1;stroke-width:1;stroke-linecap:butt;stroke-linejoin:miter;stroke:rgb(0%,0%,0%);stroke-opacity:1;stroke-miterlimit:10;" d="M 296.078125 318.667969 L 276.078125 318.667969 L 276.078125 328.667969 L 296.078125 328.667969 L 296.078125 348.667969 L 306.078125 348.667969 L 306.078125 328.667969 L 326.078125 328.667969 L 326.078125 318.667969 L 306.078125 318.667969 L 306.078125 298.667969 L 296.078125 298.667969 L 296.078125 318.667969 "/>
<path style="fill-rule:nonzero;fill:rgb(90%,65%,0%);fill-opacity:1;stroke-width:1;stroke-linecap:butt;stroke-linejoin:miter;stroke:rgb(0%,0%,0%);stroke-opacity:1;stroke-miterlimit:10;" d="M 356.65625 324.367188 L 336.65625 324.367188 L 336.65625 334.367188 L 356.65625 334.367188 L 356.65625 354.367188 L 366.65625 354.367188 L 366.65625 334.367188 L 386.65625 334.367188 L 386.65625 324.367188 L 366.65625 324.367188 L 366.65625 304.367188 L 356.65625 304.367188 L 356.65625 324.367188 "/>
<path style="fill-rule:nonzero;fill:rgb(67%,100%,18%);fill-opacity:1;stroke-width:1;stroke-linecap:butt;stroke-linejoin:miter;stroke:rgb(0%,0%,0%);stroke-opacity:1;stroke-miterlimit:10;" d="M 468.078125 419.949219 L 448.078125 419.949219 L 448.078125 429.949219 L 468.078125 429.949219 L 468.078125 449.949219 L 478.078125 449.949219 L 478.078125 429.949219 L 498.078125 429.949219 L 498.078125 419.949219 L 478.078125 419.949219 L 478.078125 399.949219 L 468.078125 399.949219 L 468.078125 419.949219 "/>
<path style="fill-rule:nonzero;fill:rgb(67%,100%,18%);fill-opacity:1;stroke-width:1;stroke-linecap:butt;stroke-linejoin:miter;stroke:rgb(0%,0%,0%);stroke-opacity:1;stroke-miterlimit:10;" d="M 403.699219 368.691406 L 383.699219 368.691406 L 383.699219 378.691406 L 403.699219 378.691406 L 403.699219 398.691406 L 413.699219 398.691406 L 413.699219 378.691406 L 433.699219 378.691406 L 433.699219 368.691406 L 413.699219 368.691406 L 413.699219 348.691406 L 403.699219 348.691406 L 403.699219 368.691406 "/>
<path style="fill-rule:nonzero;fill:rgb(67%,100%,18%);fill-opacity:1;stroke-width:1;stroke-linecap:butt;stroke-linejoin:miter;stroke:rgb(0%,0%,0%);stroke-opacity:1;stroke-miterlimit:10;" d="M 363.542969 436.894531 L 343.542969 436.894531 L 343.542969 446.894531 L 363.542969 446.894531 L 363.542969 466.894531 L 373.542969 466.894531 L 373.542969 446.894531 L 393.542969 446.894531 L 393.542969 436.894531 L 373.542969 436.894531 L 373.542969 416.894531 L 363.542969 416.894531 L 363.542969 436.894531 "/>
<path style="fill-rule:nonzero;fill:rgb(67%,100%,18%);fill-opacity:1;stroke-width:1;stroke-linecap:butt;stroke-linejoin:miter;stroke:rgb(0%,0%,0%);stroke-opacity:1;stroke-miterlimit:10;" d="M 295.128906 466.039062 L 275.128906 466.039062 L 275.128906 476.039062 L 295.128906 476.039062 L 295.128906 496.039062 L 305.128906 496.039062 L 305.128906 476.039062 L 325.128906 476.039062 L 325.128906 466.039062 L 305.128906 466.039062 L 305.128906 446.039062 L 295.128906 446.039062 L 295.128906 466.039062 "/>
<path style="fill-rule:nonzero;fill:rgb(67%,100%,18%);fill-opacity:1;stroke-width:1;stroke-linecap:butt;stroke-linejoin:miter;stroke:rgb(0%,0%,0%);stroke-opacity:1;stroke-miterlimit:10;" d="M 471.601562 292.277344 L 451.601562 292.277344 L 451.601562 302.277344 L 471.601562 302.277344 L 471.601562 322.277344 L 481.601562 322.277344 L 481.601562 302.277344 L 501.601562 302.277344 L 501.601562 292.277344 L 481.601562 292.277344 L 481.601562 272.277344 L 471.601562 272.277344 L 471.601562 292.277344 "/>
</g>
</svg>
