<?xml version="1.0" encoding="UTF-8"?>
<svg xmlns="http://www.w3.org/2000/svg" xmlns:xlink="http://www.w3.org/1999/xlink" width="517pt" height="517pt" viewBox="0 0 517 517" version="1.1">
<g id="surface1381">
<rect x="0" y="0" width="517" height="517" style="fill:rgb(90%,90%,90%);fill-opacity:1;stroke:none;"/>
<path style="fill:none;stroke-width:5;stroke-linecap:butt;stroke-linejoin:round;stroke:rgb(100%,0%,0%);stroke-opacity:1;stroke-miterlimit:10;" d="M 261 261 L 517 261 L 517 517 L 261 517 Z M 261 261 "/>
<path style="fill-rule:nonzero;fill:rgb(0%,0%,0%);fill-opacity:1;stroke-width:1;stroke-linecap:butt;stroke-linejoin:round;stroke:rgb(0%,0%,0%);stroke-opacity:1;stroke-miterlimit:10;" d="M 432.484375 297.992188 C 432.484375 314.558594 419.050781 327.992188 402.484375 327.992188 C 385.914062 327.992188 372.484375 314.558594 372.484375 297.992188 C 372.484375 281.421875 385.914062 267.992188 402.484375 267.992188 C 419.050781 267.992188 432.484375 281.421875 432.484375 297.992188 "/>
<path style="fill-rule:nonzero;fill:rgb(100%,0%,0%);fill-opacity:1;stroke-width:1;stroke-linecap:butt;stroke-linejoin:round;stroke:rgb(0%,0%,0%);stroke-opacity:1;stroke-miterlimit:10;" d="M 250.421875 442.140625 C 250.421875 458.710938 236.992188 472.140625 220.421875 472.140625 C 203.851562 472.140625 190.421875 458.710938 190.421875 442.140625 C 190.421875 425.574219 203.851562 412.140625 220.421875 412.140625 C 236.992188 412.140625 250.421875 425.574219 250.421875 442.140625 "/>
<path style="fill-rule:nonzero;fill:rgb(100%,0%,0%);fill-opacity:1;stroke-width:1;stroke-linecap:butt;stroke-linejoin:round;stroke:rgb(0%,0%,0%);stroke-opacity:1;stroke-miterlimit:10;" d="M 183.570312 74.929688 C 183.570312 91.496094 170.136719 104.929688 153.570312 104.929688 C 137 104.929688 123.570312 91.496094 123.570312 74.929688 C 123.570312 58.359375 137 44.929688 153.570312 44.929688 C 170.136719 44.929688 183.570312 58.359375 183.570312 74.929688 "/>
<path style="fill-rule:nonzero;fill:rgb(0%,0%,0%);fill-opacity:1;stroke-width:1;stroke-linecap:butt;stroke-linejoin:round;stroke:rgb(0%,0%,0%);stroke-opacity:1;stroke-miterlimit:10;" d="M 89.796875 62.167969 C 89.796875 78.738281 76.367188 92.167969 59.796875 92.167969 C 43.230469 92.167969 29.796875 78.738281 29.796875 62.167969 C 29.796875 45.601562 43.230469 32.167969 59.796875 32.167969 C 76.367188 32.167969 89.796875 45.601562 89.796875 62.167969 "/>
</g>
</svg>
