<?xml version="1.0" encoding="UTF-8"?>
<svg xmlns="http://www.w3.org/2000/svg" xmlns:xlink="http://www.w3.org/1999/xlink" width="517pt" height="517pt" viewBox="0 0 517 517" version="1.1">
<g id="surface1371">
<rect x="0" y="0" width="517" height="517" style="fill:rgb(90%,90%,90%);fill-opacity:1;stroke:none;"/>
<path style="fill:none;stroke-width:5;stroke-linecap:butt;stroke-linejoin:round;stroke:rgb(100%,0%,0%);stroke-opacity:1;stroke-miterlimit:10;" d="M 261 261 L 517 261 L 517 517 L 261 517 Z M 261 261 "/>
<path style="fill-rule:nonzero;fill:rgb(0%,0%,0%);fill-opacity:1;stroke-width:1;stroke-linecap:butt;stroke-linejoin:round;stroke:rgb(0%,0%,0%);stroke-opacity:1;stroke-miterlimit:10;" d="M 434.492188 327.234375 C 434.492188 343.804688 421.058594 357.234375 404.492188 357.234375 C 387.921875 357.234375 374.492188 343.804688 374.492188 327.234375 C 374.492188 310.667969 387.921875 297.234375 404.492188 297.234375 C 421.058594 297.234375 434.492188 310.667969 434.492188 327.234375 "/>
<path style="fill-rule:nonzero;fill:rgb(100%,0%,0%);fill-opacity:1;stroke-width:1;stroke-linecap:butt;stroke-linejoin:round;stroke:rgb(0%,0%,0%);stroke-opacity:1;stroke-miterlimit:10;" d="M 113.5 349.019531 C 113.5 365.589844 100.070312 379.019531 83.5 379.019531 C 66.933594 379.019531 53.5 365.589844 53.5 349.019531 C 53.5 332.449219 66.933594 319.019531 83.5 319.019531 C 100.070312 319.019531 113.5 332.449219 113.5 349.019531 "/>
<path style="fill-rule:nonzero;fill:rgb(100%,0%,0%);fill-opacity:1;stroke-width:1;stroke-linecap:butt;stroke-linejoin:round;stroke:rgb(0%,0%,0%);stroke-opacity:1;stroke-miterlimit:10;" d="M 326.703125 148.929688 C 326.703125 165.496094 313.269531 178.929688 296.703125 178.929688 C 280.132812 178.929688 266.703125 165.496094 266.703125 148.929688 C 266.703125 132.359375 280.132812 118.929688 296.703125 118.929688 C 313.269531 118.929688 326.703125 132.359375 326.703125 148.929688 "/>
<path style="fill-rule:nonzero;fill:rgb(100%,0%,0%);fill-opacity:1;stroke-width:1;stroke-linecap:butt;stroke-linejoin:round;stroke:rgb(0%,0%,0%);stroke-opacity:1;stroke-miterlimit:10;" d="M 326.355469 48.019531 C 326.355469 64.589844 312.921875 78.019531 296.355469 78.019531 C 279.785156 78.019531 266.355469 64.589844 266.355469 48.019531 C 266.355469 31.453125 279.785156 18.019531 296.355469 18.019531 C 312.921875 18.019531 326.355469 31.453125 326.355469 48.019531 "/>
</g>
</svg>
