<?xml version="1.0" encoding="UTF-8"?>
<svg xmlns="http://www.w3.org/2000/svg" xmlns:xlink="http://www.w3.org/1999/xlink" width="517pt" height="517pt" viewBox="0 0 517 517" version="1.1">
<g id="surface1486">
<rect x="0" y="0" width="517" height="517" style="fill:rgb(90%,90%,90%);fill-opacity:1;stroke:none;"/>
<path style="fill:none;stroke-width:5;stroke-linecap:butt;stroke-linejoin:round;stroke:rgb(100%,0%,0%);stroke-opacity:1;stroke-miterlimit:10;" d="M 261 261 L 517 261 L 517 517 L 261 517 Z M 261 261 "/>
<path style="fill-rule:nonzero;fill:rgb(100%,100%,0%);fill-opacity:1;stroke-width:1;stroke-linecap:butt;stroke-linejoin:round;stroke:rgb(0%,0%,0%);stroke-opacity:1;stroke-miterlimit:10;" d="M 373.480469 399.21875 C 373.480469 384.816406 349.480469 384.816406 349.480469 399.21875 C 349.480469 413.617188 373.480469 416.015625 373.480469 428.015625 C 373.480469 416.015625 397.480469 413.617188 397.480469 399.21875 C 397.480469 384.816406 373.480469 384.816406 373.480469 399.21875 "/>
<path style="fill-rule:nonzero;fill:rgb(50%,0%,50%);fill-opacity:1;stroke-width:1;stroke-linecap:butt;stroke-linejoin:round;stroke:rgb(0%,0%,0%);stroke-opacity:1;stroke-miterlimit:10;" d="M 458.234375 32.585938 C 458.234375 18.1875 434.234375 18.1875 434.234375 32.585938 C 434.234375 46.988281 458.234375 49.386719 458.234375 61.386719 C 458.234375 49.386719 482.234375 46.988281 482.234375 32.585938 C 482.234375 18.1875 458.234375 18.1875 458.234375 32.585938 "/>
<path style="fill-rule:nonzero;fill:rgb(100%,100%,0%);fill-opacity:1;stroke-width:1;stroke-linecap:butt;stroke-linejoin:round;stroke:rgb(0%,0%,0%);stroke-opacity:1;stroke-miterlimit:10;" d="M 467.355469 191.886719 C 467.355469 177.484375 443.355469 177.484375 443.355469 191.886719 C 443.355469 206.285156 467.355469 208.683594 467.355469 220.683594 C 467.355469 208.683594 491.355469 206.285156 491.355469 191.886719 C 491.355469 177.484375 467.355469 177.484375 467.355469 191.886719 "/>
<path style="fill-rule:nonzero;fill:rgb(100%,100%,0%);fill-opacity:1;stroke-width:1;stroke-linecap:butt;stroke-linejoin:round;stroke:rgb(0%,0%,0%);stroke-opacity:1;stroke-miterlimit:10;" d="M 176.007812 193.625 C 176.007812 179.222656 152.007812 179.222656 152.007812 193.625 C 152.007812 208.023438 176.007812 210.425781 176.007812 222.425781 C 176.007812 210.425781 200.007812 208.023438 200.007812 193.625 C 200.007812 179.222656 176.007812 179.222656 176.007812 193.625 "/>
</g>
</svg>
