<?xml version="1.0" encoding="UTF-8"?>
<svg xmlns="http://www.w3.org/2000/svg" xmlns:xlink="http://www.w3.org/1999/xlink" width="517pt" height="517pt" viewBox="0 0 517 517" version="1.1">
<g id="surface1416">
<rect x="0" y="0" width="517" height="517" style="fill:rgb(90%,90%,90%);fill-opacity:1;stroke:none;"/>
<path style="fill:none;stroke-width:5;stroke-linecap:butt;stroke-linejoin:round;stroke:rgb(100%,0%,0%);stroke-opacity:1;stroke-miterlimit:10;" d="M 261 261 L 517 261 L 517 517 L 261 517 Z M 261 261 "/>
<path style="fill-rule:nonzero;fill:rgb(0%,0%,0%);fill-opacity:1;stroke-width:1;stroke-linecap:butt;stroke-linejoin:round;stroke:rgb(0%,0%,0%);stroke-opacity:1;stroke-miterlimit:10;" d="M 447.183594 363.144531 C 447.183594 379.710938 433.753906 393.144531 417.183594 393.144531 C 400.617188 393.144531 387.183594 379.710938 387.183594 363.144531 C 387.183594 346.574219 400.617188 333.144531 417.183594 333.144531 C 433.753906 333.144531 447.183594 346.574219 447.183594 363.144531 "/>
<path style="fill-rule:nonzero;fill:rgb(100%,0%,0%);fill-opacity:1;stroke-width:1;stroke-linecap:butt;stroke-linejoin:round;stroke:rgb(0%,0%,0%);stroke-opacity:1;stroke-miterlimit:10;" d="M 321.765625 72.421875 C 321.765625 88.992188 308.332031 102.421875 291.765625 102.421875 C 275.195312 102.421875 261.765625 88.992188 261.765625 72.421875 C 261.765625 55.855469 275.195312 42.421875 291.765625 42.421875 C 308.332031 42.421875 321.765625 55.855469 321.765625 72.421875 "/>
<path style="fill-rule:nonzero;fill:rgb(0%,0%,0%);fill-opacity:1;stroke-width:1;stroke-linecap:butt;stroke-linejoin:round;stroke:rgb(0%,0%,0%);stroke-opacity:1;stroke-miterlimit:10;" d="M 174.378906 104.109375 C 174.378906 120.679688 160.945312 134.109375 144.378906 134.109375 C 127.808594 134.109375 114.378906 120.679688 114.378906 104.109375 C 114.378906 87.542969 127.808594 74.109375 144.378906 74.109375 C 160.945312 74.109375 174.378906 87.542969 174.378906 104.109375 "/>
<path style="fill-rule:nonzero;fill:rgb(0%,0%,0%);fill-opacity:1;stroke-width:1;stroke-linecap:butt;stroke-linejoin:round;stroke:rgb(0%,0%,0%);stroke-opacity:1;stroke-miterlimit:10;" d="M 75.410156 89.871094 C 75.410156 106.441406 61.980469 119.871094 45.410156 119.871094 C 28.839844 119.871094 15.410156 106.441406 15.410156 89.871094 C 15.410156 73.304688 28.839844 59.871094 45.410156 59.871094 C 61.980469 59.871094 75.410156 73.304688 75.410156 89.871094 "/>
</g>
</svg>
