<?xml version="1.0" encoding="UTF-8"?>
<svg xmlns="http://www.w3.org/2000/svg" xmlns:xlink="http://www.w3.org/1999/xlink" width="517pt" height="517pt" viewBox="0 0 517 517" version="1.1">
<g id="surface5866">
<rect x="0" y="0" width="517" height="517" style="fill:rgb(90%,90%,90%);fill-opacity:1;stroke:none;"/>
<path style="fill-rule:nonzero;fill:rgb(50%,0%,50%);fill-opacity:1;stroke-width:1;stroke-linecap:butt;stroke-linejoin:miter;stroke:rgb(0%,0%,0%);stroke-opacity:1;stroke-miterlimit:10;" d="M 214.289062 55.175781 L 194.289062 55.175781 L 194.289062 65.175781 L 214.289062 65.175781 L 214.289062 85.175781 L 224.289062 85.175781 L 224.289062 65.175781 L 244.289062 65.175781 L 244.289062 55.175781 L 224.289062 55.175781 L 224.289062 35.175781 L 214.289062 35.175781 L 214.289062 55.175781 "/>
<path style="fill-rule:nonzero;fill:rgb(50%,0%,50%);fill-opacity:1;stroke-width:1;stroke-linecap:butt;stroke-linejoin:miter;stroke:rgb(0%,0%,0%);stroke-opacity:1;stroke-miterlimit:10;" d="M 378.351562 311.605469 L 358.351562 311.605469 L 358.351562 321.605469 L 378.351562 321.605469 L 378.351562 341.605469 L 388.351562 341.605469 L 388.351562 321.605469 L 408.351562 321.605469 L 408.351562 311.605469 L 388.351562 311.605469 L 388.351562 291.605469 L 378.351562 291.605469 L 378.351562 311.605469 "/>
<path style="fill-rule:nonzero;fill:rgb(100%,0%,0%);fill-opacity:1;stroke-width:1;stroke-linecap:butt;stroke-linejoin:miter;stroke:rgb(0%,0%,0%);stroke-opacity:1;stroke-miterlimit:10;" d="M 350.636719 416.339844 L 330.636719 416.339844 L 330.636719 426.339844 L 350.636719 426.339844 L 350.636719 446.339844 L 360.636719 446.339844 L 360.636719 426.339844 L 380.636719 426.339844 L 380.636719 416.339844 L 360.636719 416.339844 L 360.636719 396.339844 L 350.636719 396.339844 L 350.636719 416.339844 "/>
<path style="fill-rule:nonzero;fill:rgb(100%,0%,0%);fill-opacity:1;stroke-width:1;stroke-linecap:butt;stroke-linejoin:miter;stroke:rgb(0%,0%,0%);stroke-opacity:1;stroke-miterlimit:10;" d="M 443.660156 406.597656 L 423.660156 406.597656 L 423.660156 416.597656 L 443.660156 416.597656 L 443.660156 436.597656 L 453.660156 436.597656 L 453.660156 416.597656 L 473.660156 416.597656 L 473.660156 406.597656 L 453.660156 406.597656 L 453.660156 386.597656 L 443.660156 386.597656 L 443.660156 406.597656 "/>
<path style="fill-rule:nonzero;fill:rgb(100%,0%,0%);fill-opacity:1;stroke-width:1;stroke-linecap:butt;stroke-linejoin:miter;stroke:rgb(0%,0%,0%);stroke-opacity:1;stroke-miterlimit:10;" d="M 446.84375 287.746094 L 426.84375 287.746094 L 426.84375 297.746094 L 446.84375 297.746094 L 446.84375 317.746094 L 456.84375 317.746094 L 456.84375 297.746094 L 476.84375 297.746094 L 476.84375 287.746094 L 456.84375 287.746094 L 456.84375 267.746094 L 446.84375 267.746094 L 446.84375 287.746094 "/>
<path style="fill-rule:nonzero;fill:rgb(100%,0%,0%);fill-opacity:1;stroke-width:1;stroke-linecap:butt;stroke-linejoin:miter;stroke:rgb(0%,0%,0%);stroke-opacity:1;stroke-miterlimit:10;" d="M 314.53125 360.328125 L 294.53125 360.328125 L 294.53125 370.328125 L 314.53125 370.328125 L 314.53125 390.328125 L 324.53125 390.328125 L 324.53125 370.328125 L 344.53125 370.328125 L 344.53125 360.328125 L 324.53125 360.328125 L 324.53125 340.328125 L 314.53125 340.328125 L 314.53125 360.328125 "/>
<path style="fill-rule:nonzero;fill:rgb(100%,0%,0%);fill-opacity:1;stroke-width:1;stroke-linecap:butt;stroke-linejoin:miter;stroke:rgb(0%,0%,0%);stroke-opacity:1;stroke-miterlimit:10;" d="M 290.472656 69.203125 L 270.472656 69.203125 L 270.472656 79.203125 L 290.472656 79.203125 L 290.472656 99.203125 L 300.472656 99.203125 L 300.472656 79.203125 L 320.472656 79.203125 L 320.472656 69.203125 L 300.472656 69.203125 L 300.472656 49.203125 L 290.472656 49.203125 L 290.472656 69.203125 "/>
<path style="fill-rule:nonzero;fill:rgb(100%,0%,0%);fill-opacity:1;stroke-width:1;stroke-linecap:butt;stroke-linejoin:miter;stroke:rgb(0%,0%,0%);stroke-opacity:1;stroke-miterlimit:10;" d="M 373.59375 98.410156 L 353.59375 98.410156 L 353.59375 108.410156 L 373.59375 108.410156 L 373.59375 128.410156 L 383.59375 128.410156 L 383.59375 108.410156 L 403.59375 108.410156 L 403.59375 98.410156 L 383.59375 98.410156 L 383.59375 78.410156 L 373.59375 78.410156 L 373.59375 98.410156 "/>
</g>
</svg>
