<?xml version="1.0" encoding="UTF-8"?>
<svg xmlns="http://www.w3.org/2000/svg" xmlns:xlink="http://www.w3.org/1999/xlink" width="517pt" height="517pt" viewBox="0 0 517 517" version="1.1">
<g id="surface6376">
<rect x="0" y="0" width="517" height="517" style="fill:rgb(90%,90%,90%);fill-opacity:1;stroke:none;"/>
<path style="fill-rule:nonzero;fill:rgb(90%,65%,0%);fill-opacity:1;stroke-width:1;stroke-linecap:butt;stroke-linejoin:miter;stroke:rgb(0%,0%,0%);stroke-opacity:1;stroke-miterlimit:10;" d="M 445.574219 312.789062 L 425.574219 312.789062 L 425.574219 322.789062 L 445.574219 322.789062 L 445.574219 342.789062 L 455.574219 342.789062 L 455.574219 322.789062 L 475.574219 322.789062 L 475.574219 312.789062 L 455.574219 312.789062 L 455.574219 292.789062 L 445.574219 292.789062 L 445.574219 312.789062 "/>
<path style="fill-rule:nonzero;fill:rgb(0%,0%,0%);fill-opacity:1;stroke-width:1;stroke-linecap:butt;stroke-linejoin:miter;stroke:rgb(0%,0%,0%);stroke-opacity:1;stroke-miterlimit:10;" d="M 72.898438 456.703125 L 52.898438 456.703125 L 52.898438 466.703125 L 72.898438 466.703125 L 72.898438 486.703125 L 82.898438 486.703125 L 82.898438 466.703125 L 102.898438 466.703125 L 102.898438 456.703125 L 82.898438 456.703125 L 82.898438 436.703125 L 72.898438 436.703125 L 72.898438 456.703125 "/>
<path style="fill-rule:nonzero;fill:rgb(0%,0%,0%);fill-opacity:1;stroke-width:1;stroke-linecap:butt;stroke-linejoin:miter;stroke:rgb(0%,0%,0%);stroke-opacity:1;stroke-miterlimit:10;" d="M 174.734375 373.066406 L 154.734375 373.066406 L 154.734375 383.066406 L 174.734375 383.066406 L 174.734375 403.066406 L 184.734375 403.066406 L 184.734375 383.066406 L 204.734375 383.066406 L 204.734375 373.066406 L 184.734375 373.066406 L 184.734375 353.066406 L 174.734375 353.066406 L 174.734375 373.066406 "/>
<path style="fill-rule:nonzero;fill:rgb(0%,0%,0%);fill-opacity:1;stroke-width:1;stroke-linecap:butt;stroke-linejoin:miter;stroke:rgb(0%,0%,0%);stroke-opacity:1;stroke-miterlimit:10;" d="M 199.359375 462.597656 L 179.359375 462.597656 L 179.359375 472.597656 L 199.359375 472.597656 L 199.359375 492.597656 L 209.359375 492.597656 L 209.359375 472.597656 L 229.359375 472.597656 L 229.359375 462.597656 L 209.359375 462.597656 L 209.359375 442.597656 L 199.359375 442.597656 L 199.359375 462.597656 "/>
<path style="fill-rule:nonzero;fill:rgb(0%,0%,0%);fill-opacity:1;stroke-width:1;stroke-linecap:butt;stroke-linejoin:miter;stroke:rgb(0%,0%,0%);stroke-opacity:1;stroke-miterlimit:10;" d="M 76.707031 302.347656 L 56.707031 302.347656 L 56.707031 312.347656 L 76.707031 312.347656 L 76.707031 332.347656 L 86.707031 332.347656 L 86.707031 312.347656 L 106.707031 312.347656 L 106.707031 302.347656 L 86.707031 302.347656 L 86.707031 282.347656 L 76.707031 282.347656 L 76.707031 302.347656 "/>
<path style="fill-rule:nonzero;fill:rgb(0%,0%,0%);fill-opacity:1;stroke-width:1;stroke-linecap:butt;stroke-linejoin:miter;stroke:rgb(0%,0%,0%);stroke-opacity:1;stroke-miterlimit:10;" d="M 165.144531 105.367188 L 145.144531 105.367188 L 145.144531 115.367188 L 165.144531 115.367188 L 165.144531 135.367188 L 175.144531 135.367188 L 175.144531 115.367188 L 195.144531 115.367188 L 195.144531 105.367188 L 175.144531 105.367188 L 175.144531 85.367188 L 165.144531 85.367188 L 165.144531 105.367188 "/>
<path style="fill-rule:nonzero;fill:rgb(0%,0%,0%);fill-opacity:1;stroke-width:1;stroke-linecap:butt;stroke-linejoin:miter;stroke:rgb(0%,0%,0%);stroke-opacity:1;stroke-miterlimit:10;" d="M 85.246094 98.695312 L 65.246094 98.695312 L 65.246094 108.695312 L 85.246094 108.695312 L 85.246094 128.695312 L 95.246094 128.695312 L 95.246094 108.695312 L 115.246094 108.695312 L 115.246094 98.695312 L 95.246094 98.695312 L 95.246094 78.695312 L 85.246094 78.695312 L 85.246094 98.695312 "/>
<path style="fill-rule:nonzero;fill:rgb(0%,0%,0%);fill-opacity:1;stroke-width:1;stroke-linecap:butt;stroke-linejoin:miter;stroke:rgb(0%,0%,0%);stroke-opacity:1;stroke-miterlimit:10;" d="M 128.105469 215.882812 L 108.105469 215.882812 L 108.105469 225.882812 L 128.105469 225.882812 L 128.105469 245.882812 L 138.105469 245.882812 L 138.105469 225.882812 L 158.105469 225.882812 L 158.105469 215.882812 L 138.105469 215.882812 L 138.105469 195.882812 L 128.105469 195.882812 L 128.105469 215.882812 "/>
</g>
</svg>
