<?xml version="1.0" encoding="UTF-8"?>
<svg xmlns="http://www.w3.org/2000/svg" xmlns:xlink="http://www.w3.org/1999/xlink" width="517pt" height="517pt" viewBox="0 0 517 517" version="1.1">
<g id="surface5996">
<rect x="0" y="0" width="517" height="517" style="fill:rgb(90%,90%,90%);fill-opacity:1;stroke:none;"/>
<path style="fill-rule:nonzero;fill:rgb(100%,0%,0%);fill-opacity:1;stroke-width:1;stroke-linecap:butt;stroke-linejoin:miter;stroke:rgb(0%,0%,0%);stroke-opacity:1;stroke-miterlimit:10;" d="M 152.53125 419.992188 L 132.53125 419.992188 L 132.53125 429.992188 L 152.53125 429.992188 L 152.53125 449.992188 L 162.53125 449.992188 L 162.53125 429.992188 L 182.53125 429.992188 L 182.53125 419.992188 L 162.53125 419.992188 L 162.53125 399.992188 L 152.53125 399.992188 L 152.53125 419.992188 "/>
<path style="fill-rule:nonzero;fill:rgb(100%,0%,0%);fill-opacity:1;stroke-width:1;stroke-linecap:butt;stroke-linejoin:miter;stroke:rgb(0%,0%,0%);stroke-opacity:1;stroke-miterlimit:10;" d="M 44.101562 469.644531 L 24.101562 469.644531 L 24.101562 479.644531 L 44.101562 479.644531 L 44.101562 499.644531 L 54.101562 499.644531 L 54.101562 479.644531 L 74.101562 479.644531 L 74.101562 469.644531 L 54.101562 469.644531 L 54.101562 449.644531 L 44.101562 449.644531 L 44.101562 469.644531 "/>
<path style="fill-rule:nonzero;fill:rgb(100%,0%,0%);fill-opacity:1;stroke-width:1;stroke-linecap:butt;stroke-linejoin:miter;stroke:rgb(0%,0%,0%);stroke-opacity:1;stroke-miterlimit:10;" d="M 137.367188 65.574219 L 117.367188 65.574219 L 117.367188 75.574219 L 137.367188 75.574219 L 137.367188 95.574219 L 147.367188 95.574219 L 147.367188 75.574219 L 167.367188 75.574219 L 167.367188 65.574219 L 147.367188 65.574219 L 147.367188 45.574219 L 137.367188 45.574219 L 137.367188 65.574219 "/>
<path style="fill-rule:nonzero;fill:rgb(100%,100%,0%);fill-opacity:1;stroke-width:1;stroke-linecap:butt;stroke-linejoin:miter;stroke:rgb(0%,0%,0%);stroke-opacity:1;stroke-miterlimit:10;" d="M 297.441406 78.769531 L 277.441406 78.769531 L 277.441406 88.769531 L 297.441406 88.769531 L 297.441406 108.769531 L 307.441406 108.769531 L 307.441406 88.769531 L 327.441406 88.769531 L 327.441406 78.769531 L 307.441406 78.769531 L 307.441406 58.769531 L 297.441406 58.769531 L 297.441406 78.769531 "/>
<path style="fill-rule:nonzero;fill:rgb(100%,100%,0%);fill-opacity:1;stroke-width:1;stroke-linecap:butt;stroke-linejoin:miter;stroke:rgb(0%,0%,0%);stroke-opacity:1;stroke-miterlimit:10;" d="M 332.265625 156.675781 L 312.265625 156.675781 L 312.265625 166.675781 L 332.265625 166.675781 L 332.265625 186.675781 L 342.265625 186.675781 L 342.265625 166.675781 L 362.265625 166.675781 L 362.265625 156.675781 L 342.265625 156.675781 L 342.265625 136.675781 L 332.265625 136.675781 L 332.265625 156.675781 "/>
<path style="fill-rule:nonzero;fill:rgb(100%,100%,0%);fill-opacity:1;stroke-width:1;stroke-linecap:butt;stroke-linejoin:miter;stroke:rgb(0%,0%,0%);stroke-opacity:1;stroke-miterlimit:10;" d="M 420.097656 163.101562 L 400.097656 163.101562 L 400.097656 173.101562 L 420.097656 173.101562 L 420.097656 193.101562 L 430.097656 193.101562 L 430.097656 173.101562 L 450.097656 173.101562 L 450.097656 163.101562 L 430.097656 163.101562 L 430.097656 143.101562 L 420.097656 143.101562 L 420.097656 163.101562 "/>
<path style="fill-rule:nonzero;fill:rgb(100%,100%,0%);fill-opacity:1;stroke-width:1;stroke-linecap:butt;stroke-linejoin:miter;stroke:rgb(0%,0%,0%);stroke-opacity:1;stroke-miterlimit:10;" d="M 359.984375 40.742188 L 339.984375 40.742188 L 339.984375 50.742188 L 359.984375 50.742188 L 359.984375 70.742188 L 369.984375 70.742188 L 369.984375 50.742188 L 389.984375 50.742188 L 389.984375 40.742188 L 369.984375 40.742188 L 369.984375 20.742188 L 359.984375 20.742188 L 359.984375 40.742188 "/>
<path style="fill-rule:nonzero;fill:rgb(100%,100%,0%);fill-opacity:1;stroke-width:1;stroke-linecap:butt;stroke-linejoin:miter;stroke:rgb(0%,0%,0%);stroke-opacity:1;stroke-miterlimit:10;" d="M 374.15625 109.464844 L 354.15625 109.464844 L 354.15625 119.464844 L 374.15625 119.464844 L 374.15625 139.464844 L 384.15625 139.464844 L 384.15625 119.464844 L 404.15625 119.464844 L 404.15625 109.464844 L 384.15625 109.464844 L 384.15625 89.464844 L 374.15625 89.464844 L 374.15625 109.464844 "/>
</g>
</svg>
