<?xml version="1.0" encoding="UTF-8"?>
<svg xmlns="http://www.w3.org/2000/svg" xmlns:xlink="http://www.w3.org/1999/xlink" width="517pt" height="517pt" viewBox="0 0 517 517" version="1.1">
<g id="surface1366">
<rect x="0" y="0" width="517" height="517" style="fill:rgb(90%,90%,90%);fill-opacity:1;stroke:none;"/>
<path style="fill:none;stroke-width:5;stroke-linecap:butt;stroke-linejoin:round;stroke:rgb(100%,0%,0%);stroke-opacity:1;stroke-miterlimit:10;" d="M 261 261 L 517 261 L 517 517 L 261 517 Z M 261 261 "/>
<path style="fill-rule:nonzero;fill:rgb(0%,0%,0%);fill-opacity:1;stroke-width:1;stroke-linecap:butt;stroke-linejoin:round;stroke:rgb(0%,0%,0%);stroke-opacity:1;stroke-miterlimit:10;" d="M 477.746094 348.78125 C 477.746094 365.351562 464.316406 378.78125 447.746094 378.78125 C 431.179688 378.78125 417.746094 365.351562 417.746094 348.78125 C 417.746094 332.214844 431.179688 318.78125 447.746094 318.78125 C 464.316406 318.78125 477.746094 332.214844 477.746094 348.78125 "/>
<path style="fill-rule:nonzero;fill:rgb(100%,0%,0%);fill-opacity:1;stroke-width:1;stroke-linecap:butt;stroke-linejoin:round;stroke:rgb(0%,0%,0%);stroke-opacity:1;stroke-miterlimit:10;" d="M 99.917969 58.796875 C 99.917969 75.367188 86.484375 88.796875 69.917969 88.796875 C 53.347656 88.796875 39.917969 75.367188 39.917969 58.796875 C 39.917969 42.230469 53.347656 28.796875 69.917969 28.796875 C 86.484375 28.796875 99.917969 42.230469 99.917969 58.796875 "/>
<path style="fill-rule:nonzero;fill:rgb(100%,0%,0%);fill-opacity:1;stroke-width:1;stroke-linecap:butt;stroke-linejoin:round;stroke:rgb(0%,0%,0%);stroke-opacity:1;stroke-miterlimit:10;" d="M 391.492188 169.796875 C 391.492188 186.367188 378.058594 199.796875 361.492188 199.796875 C 344.921875 199.796875 331.492188 186.367188 331.492188 169.796875 C 331.492188 153.230469 344.921875 139.796875 361.492188 139.796875 C 378.058594 139.796875 391.492188 153.230469 391.492188 169.796875 "/>
<path style="fill-rule:nonzero;fill:rgb(100%,0%,0%);fill-opacity:1;stroke-width:1;stroke-linecap:butt;stroke-linejoin:round;stroke:rgb(0%,0%,0%);stroke-opacity:1;stroke-miterlimit:10;" d="M 357.109375 96.902344 C 357.109375 113.472656 343.679688 126.902344 327.109375 126.902344 C 310.542969 126.902344 297.109375 113.472656 297.109375 96.902344 C 297.109375 80.335938 310.542969 66.902344 327.109375 66.902344 C 343.679688 66.902344 357.109375 80.335938 357.109375 96.902344 "/>
</g>
</svg>
