<?xml version="1.0" encoding="UTF-8"?>
<svg xmlns="http://www.w3.org/2000/svg" xmlns:xlink="http://www.w3.org/1999/xlink" width="517pt" height="517pt" viewBox="0 0 517 517" version="1.1">
<g id="surface1171">
<rect x="0" y="0" width="517" height="517" style="fill:rgb(90%,90%,90%);fill-opacity:1;stroke:none;"/>
<path style="fill:none;stroke-width:5;stroke-linecap:butt;stroke-linejoin:round;stroke:rgb(100%,0%,0%);stroke-opacity:1;stroke-miterlimit:10;" d="M 5 261 L 261 261 L 261 517 L 5 517 Z M 5 261 "/>
<path style="fill-rule:nonzero;fill:rgb(35%,70%,90%);fill-opacity:1;stroke-width:1;stroke-linecap:butt;stroke-linejoin:round;stroke:rgb(0%,0%,0%);stroke-opacity:1;stroke-miterlimit:10;" d="M 211.347656 286.15625 L 191.347656 286.15625 L 191.347656 296.15625 L 211.347656 296.15625 L 211.347656 316.15625 L 221.347656 316.15625 L 221.347656 296.15625 L 241.347656 296.15625 L 241.347656 286.15625 L 221.347656 286.15625 L 221.347656 266.15625 L 211.347656 266.15625 L 211.347656 286.15625 "/>
<path style="fill-rule:nonzero;fill:rgb(100%,0%,0%);fill-opacity:1;stroke-width:1;stroke-linecap:butt;stroke-linejoin:round;stroke:rgb(0%,0%,0%);stroke-opacity:1;stroke-miterlimit:10;" d="M 328.839844 409.425781 L 308.839844 409.425781 L 308.839844 419.425781 L 328.839844 419.425781 L 328.839844 439.425781 L 338.839844 439.425781 L 338.839844 419.425781 L 358.839844 419.425781 L 358.839844 409.425781 L 338.839844 409.425781 L 338.839844 389.425781 L 328.839844 389.425781 L 328.839844 409.425781 "/>
<path style="fill-rule:nonzero;fill:rgb(35%,70%,90%);fill-opacity:1;stroke-width:1;stroke-linecap:butt;stroke-linejoin:round;stroke:rgb(0%,0%,0%);stroke-opacity:1;stroke-miterlimit:10;" d="M 291.132812 458.171875 L 271.132812 458.171875 L 271.132812 468.171875 L 291.132812 468.171875 L 291.132812 488.171875 L 301.132812 488.171875 L 301.132812 468.171875 L 321.132812 468.171875 L 321.132812 458.171875 L 301.132812 458.171875 L 301.132812 438.171875 L 291.132812 438.171875 L 291.132812 458.171875 "/>
<path style="fill-rule:nonzero;fill:rgb(35%,70%,90%);fill-opacity:1;stroke-width:1;stroke-linecap:butt;stroke-linejoin:round;stroke:rgb(0%,0%,0%);stroke-opacity:1;stroke-miterlimit:10;" d="M 31.589844 86.261719 L 11.589844 86.261719 L 11.589844 96.261719 L 31.589844 96.261719 L 31.589844 116.261719 L 41.589844 116.261719 L 41.589844 96.261719 L 61.589844 96.261719 L 61.589844 86.261719 L 41.589844 86.261719 L 41.589844 66.261719 L 31.589844 66.261719 L 31.589844 86.261719 "/>
</g>
</svg>
