<?xml version="1.0" encoding="UTF-8"?>
<svg xmlns="http://www.w3.org/2000/svg" xmlns:xlink="http://www.w3.org/1999/xlink" width="517pt" height="517pt" viewBox="0 0 517 517" version="1.1">
<g id="surface6016">
<rect x="0" y="0" width="517" height="517" style="fill:rgb(90%,90%,90%);fill-opacity:1;stroke:none;"/>
<path style="fill-rule:nonzero;fill:rgb(0%,0%,0%);fill-opacity:1;stroke-width:1;stroke-linecap:butt;stroke-linejoin:miter;stroke:rgb(0%,0%,0%);stroke-opacity:1;stroke-miterlimit:10;" d="M 411.144531 339.273438 L 391.144531 339.273438 L 391.144531 349.273438 L 411.144531 349.273438 L 411.144531 369.273438 L 421.144531 369.273438 L 421.144531 349.273438 L 441.144531 349.273438 L 441.144531 339.273438 L 421.144531 339.273438 L 421.144531 319.273438 L 411.144531 319.273438 L 411.144531 339.273438 "/>
<path style="fill-rule:nonzero;fill:rgb(35%,70%,90%);fill-opacity:1;stroke-width:1;stroke-linecap:butt;stroke-linejoin:miter;stroke:rgb(0%,0%,0%);stroke-opacity:1;stroke-miterlimit:10;" d="M 418.597656 412.863281 L 398.597656 412.863281 L 398.597656 422.863281 L 418.597656 422.863281 L 418.597656 442.863281 L 428.597656 442.863281 L 428.597656 422.863281 L 448.597656 422.863281 L 448.597656 412.863281 L 428.597656 412.863281 L 428.597656 392.863281 L 418.597656 392.863281 L 418.597656 412.863281 "/>
<path style="fill-rule:nonzero;fill:rgb(35%,70%,90%);fill-opacity:1;stroke-width:1;stroke-linecap:butt;stroke-linejoin:miter;stroke:rgb(0%,0%,0%);stroke-opacity:1;stroke-miterlimit:10;" d="M 387.132812 43.367188 L 367.132812 43.367188 L 367.132812 53.367188 L 387.132812 53.367188 L 387.132812 73.367188 L 397.132812 73.367188 L 397.132812 53.367188 L 417.132812 53.367188 L 417.132812 43.367188 L 397.132812 43.367188 L 397.132812 23.367188 L 387.132812 23.367188 L 387.132812 43.367188 "/>
<path style="fill-rule:nonzero;fill:rgb(35%,70%,90%);fill-opacity:1;stroke-width:1;stroke-linecap:butt;stroke-linejoin:miter;stroke:rgb(0%,0%,0%);stroke-opacity:1;stroke-miterlimit:10;" d="M 418.875 122.363281 L 398.875 122.363281 L 398.875 132.363281 L 418.875 132.363281 L 418.875 152.363281 L 428.875 152.363281 L 428.875 132.363281 L 448.875 132.363281 L 448.875 122.363281 L 428.875 122.363281 L 428.875 102.363281 L 418.875 102.363281 L 418.875 122.363281 "/>
<path style="fill-rule:nonzero;fill:rgb(35%,70%,90%);fill-opacity:1;stroke-width:1;stroke-linecap:butt;stroke-linejoin:miter;stroke:rgb(0%,0%,0%);stroke-opacity:1;stroke-miterlimit:10;" d="M 65.742188 189.839844 L 45.742188 189.839844 L 45.742188 199.839844 L 65.742188 199.839844 L 65.742188 219.839844 L 75.742188 219.839844 L 75.742188 199.839844 L 95.742188 199.839844 L 95.742188 189.839844 L 75.742188 189.839844 L 75.742188 169.839844 L 65.742188 169.839844 L 65.742188 189.839844 "/>
<path style="fill-rule:nonzero;fill:rgb(35%,70%,90%);fill-opacity:1;stroke-width:1;stroke-linecap:butt;stroke-linejoin:miter;stroke:rgb(0%,0%,0%);stroke-opacity:1;stroke-miterlimit:10;" d="M 129.902344 51.320312 L 109.902344 51.320312 L 109.902344 61.320312 L 129.902344 61.320312 L 129.902344 81.320312 L 139.902344 81.320312 L 139.902344 61.320312 L 159.902344 61.320312 L 159.902344 51.320312 L 139.902344 51.320312 L 139.902344 31.320312 L 129.902344 31.320312 L 129.902344 51.320312 "/>
<path style="fill-rule:nonzero;fill:rgb(35%,70%,90%);fill-opacity:1;stroke-width:1;stroke-linecap:butt;stroke-linejoin:miter;stroke:rgb(0%,0%,0%);stroke-opacity:1;stroke-miterlimit:10;" d="M 161.640625 167.613281 L 141.640625 167.613281 L 141.640625 177.613281 L 161.640625 177.613281 L 161.640625 197.613281 L 171.640625 197.613281 L 171.640625 177.613281 L 191.640625 177.613281 L 191.640625 167.613281 L 171.640625 167.613281 L 171.640625 147.613281 L 161.640625 147.613281 L 161.640625 167.613281 "/>
<path style="fill-rule:nonzero;fill:rgb(35%,70%,90%);fill-opacity:1;stroke-width:1;stroke-linecap:butt;stroke-linejoin:miter;stroke:rgb(0%,0%,0%);stroke-opacity:1;stroke-miterlimit:10;" d="M 55.402344 58.582031 L 35.402344 58.582031 L 35.402344 68.582031 L 55.402344 68.582031 L 55.402344 88.582031 L 65.402344 88.582031 L 65.402344 68.582031 L 85.402344 68.582031 L 85.402344 58.582031 L 65.402344 58.582031 L 65.402344 38.582031 L 55.402344 38.582031 L 55.402344 58.582031 "/>
</g>
</svg>
