<?xml version="1.0" encoding="UTF-8"?>
<svg xmlns="http://www.w3.org/2000/svg" xmlns:xlink="http://www.w3.org/1999/xlink" width="517pt" height="517pt" viewBox="0 0 517 517" version="1.1">
<g id="surface796">
<rect x="0" y="0" width="517" height="517" style="fill:rgb(90%,90%,90%);fill-opacity:1;stroke:none;"/>
<path style="fill:none;stroke-width:5;stroke-linecap:butt;stroke-linejoin:round;stroke:rgb(100%,0%,0%);stroke-opacity:1;stroke-miterlimit:10;" d="M 261 5 L 517 5 L 517 261 L 261 261 Z M 261 5 "/>
<path style="fill-rule:nonzero;fill:rgb(100%,100%,0%);fill-opacity:1;stroke-width:1;stroke-linecap:butt;stroke-linejoin:round;stroke:rgb(0%,0%,0%);stroke-opacity:1;stroke-miterlimit:10;" d="M 390.304688 106.507812 L 370.304688 106.507812 L 370.304688 116.507812 L 390.304688 116.507812 L 390.304688 136.507812 L 400.304688 136.507812 L 400.304688 116.507812 L 420.304688 116.507812 L 420.304688 106.507812 L 400.304688 106.507812 L 400.304688 86.507812 L 390.304688 86.507812 L 390.304688 106.507812 "/>
<path style="fill-rule:nonzero;fill:rgb(100%,100%,0%);fill-opacity:1;stroke-width:1;stroke-linecap:butt;stroke-linejoin:round;stroke:rgb(0%,0%,0%);stroke-opacity:1;stroke-miterlimit:10;" d="M 41.304688 96.917969 L 21.304688 96.917969 L 21.304688 106.917969 L 41.304688 106.917969 L 41.304688 126.917969 L 51.304688 126.917969 L 51.304688 106.917969 L 71.304688 106.917969 L 71.304688 96.917969 L 51.304688 96.917969 L 51.304688 76.917969 L 41.304688 76.917969 L 41.304688 96.917969 "/>
<path style="fill-rule:nonzero;fill:rgb(100%,100%,0%);fill-opacity:1;stroke-width:1;stroke-linecap:butt;stroke-linejoin:round;stroke:rgb(0%,0%,0%);stroke-opacity:1;stroke-miterlimit:10;" d="M 132.042969 118.878906 L 112.042969 118.878906 L 112.042969 128.878906 L 132.042969 128.878906 L 132.042969 148.878906 L 142.042969 148.878906 L 142.042969 128.878906 L 162.042969 128.878906 L 162.042969 118.878906 L 142.042969 118.878906 L 142.042969 98.878906 L 132.042969 98.878906 L 132.042969 118.878906 "/>
<path style="fill-rule:nonzero;fill:rgb(25%,88%,82%);fill-opacity:1;stroke-width:1;stroke-linecap:butt;stroke-linejoin:round;stroke:rgb(0%,0%,0%);stroke-opacity:1;stroke-miterlimit:10;" d="M 102.8125 381.617188 L 82.8125 381.617188 L 82.8125 391.617188 L 102.8125 391.617188 L 102.8125 411.617188 L 112.8125 411.617188 L 112.8125 391.617188 L 132.8125 391.617188 L 132.8125 381.617188 L 112.8125 381.617188 L 112.8125 361.617188 L 102.8125 361.617188 L 102.8125 381.617188 "/>
</g>
</svg>
