<?xml version="1.0" encoding="UTF-8"?>
<svg xmlns="http://www.w3.org/2000/svg" xmlns:xlink="http://www.w3.org/1999/xlink" width="517pt" height="517pt" viewBox="0 0 517 517" version="1.1">
<g id="surface1431">
<rect x="0" y="0" width="517" height="517" style="fill:rgb(90%,90%,90%);fill-opacity:1;stroke:none;"/>
<path style="fill:none;stroke-width:5;stroke-linecap:butt;stroke-linejoin:round;stroke:rgb(100%,0%,0%);stroke-opacity:1;stroke-miterlimit:10;" d="M 261 261 L 517 261 L 517 517 L 261 517 Z M 261 261 "/>
<path style="fill-rule:nonzero;fill:rgb(35%,70%,90%);fill-opacity:1;stroke-width:1;stroke-linecap:butt;stroke-linejoin:round;stroke:rgb(0%,0%,0%);stroke-opacity:1;stroke-miterlimit:10;" d="M 355.128906 351.671875 C 355.128906 368.238281 341.695312 381.671875 325.128906 381.671875 C 308.558594 381.671875 295.128906 368.238281 295.128906 351.671875 C 295.128906 335.101562 308.558594 321.671875 325.128906 321.671875 C 341.695312 321.671875 355.128906 335.101562 355.128906 351.671875 "/>
<path style="fill-rule:nonzero;fill:rgb(100%,0%,0%);fill-opacity:1;stroke-width:1;stroke-linecap:butt;stroke-linejoin:round;stroke:rgb(0%,0%,0%);stroke-opacity:1;stroke-miterlimit:10;" d="M 346.222656 136.789062 C 346.222656 153.355469 332.792969 166.789062 316.222656 166.789062 C 299.652344 166.789062 286.222656 153.355469 286.222656 136.789062 C 286.222656 120.21875 299.652344 106.789062 316.222656 106.789062 C 332.792969 106.789062 346.222656 120.21875 346.222656 136.789062 "/>
<path style="fill-rule:nonzero;fill:rgb(0%,0%,0%);fill-opacity:1;stroke-width:1;stroke-linecap:butt;stroke-linejoin:round;stroke:rgb(0%,0%,0%);stroke-opacity:1;stroke-miterlimit:10;" d="M 205.332031 422.847656 C 205.332031 439.417969 191.902344 452.847656 175.332031 452.847656 C 158.765625 452.847656 145.332031 439.417969 145.332031 422.847656 C 145.332031 406.28125 158.765625 392.847656 175.332031 392.847656 C 191.902344 392.847656 205.332031 406.28125 205.332031 422.847656 "/>
<path style="fill-rule:nonzero;fill:rgb(0%,0%,0%);fill-opacity:1;stroke-width:1;stroke-linecap:butt;stroke-linejoin:round;stroke:rgb(0%,0%,0%);stroke-opacity:1;stroke-miterlimit:10;" d="M 136 344.542969 C 136 361.109375 122.570312 374.542969 106 374.542969 C 89.433594 374.542969 76 361.109375 76 344.542969 C 76 327.972656 89.433594 314.542969 106 314.542969 C 122.570312 314.542969 136 327.972656 136 344.542969 "/>
</g>
</svg>
