<?xml version="1.0" encoding="UTF-8"?>
<svg xmlns="http://www.w3.org/2000/svg" xmlns:xlink="http://www.w3.org/1999/xlink" width="517pt" height="517pt" viewBox="0 0 517 517" version="1.1">
<g id="surface1481">
<rect x="0" y="0" width="517" height="517" style="fill:rgb(90%,90%,90%);fill-opacity:1;stroke:none;"/>
<path style="fill:none;stroke-width:5;stroke-linecap:butt;stroke-linejoin:round;stroke:rgb(100%,0%,0%);stroke-opacity:1;stroke-miterlimit:10;" d="M 261 261 L 517 261 L 517 517 L 261 517 Z M 261 261 "/>
<path style="fill-rule:nonzero;fill:rgb(100%,100%,0%);fill-opacity:1;stroke-width:1;stroke-linecap:butt;stroke-linejoin:round;stroke:rgb(0%,0%,0%);stroke-opacity:1;stroke-miterlimit:10;" d="M 307.082031 344.757812 C 307.082031 330.355469 283.082031 330.355469 283.082031 344.757812 C 283.082031 359.15625 307.082031 361.558594 307.082031 373.558594 C 307.082031 361.558594 331.082031 359.15625 331.082031 344.757812 C 331.082031 330.355469 307.082031 330.355469 307.082031 344.757812 "/>
<path style="fill-rule:nonzero;fill:rgb(50%,0%,50%);fill-opacity:1;stroke-width:1;stroke-linecap:butt;stroke-linejoin:round;stroke:rgb(0%,0%,0%);stroke-opacity:1;stroke-miterlimit:10;" d="M 215.675781 292.820312 C 215.675781 278.421875 191.675781 278.421875 191.675781 292.820312 C 191.675781 307.222656 215.675781 309.621094 215.675781 321.621094 C 215.675781 309.621094 239.675781 307.222656 239.675781 292.820312 C 239.675781 278.421875 215.675781 278.421875 215.675781 292.820312 "/>
<path style="fill-rule:nonzero;fill:rgb(100%,100%,0%);fill-opacity:1;stroke-width:1;stroke-linecap:butt;stroke-linejoin:round;stroke:rgb(0%,0%,0%);stroke-opacity:1;stroke-miterlimit:10;" d="M 78.617188 129.980469 C 78.617188 115.578125 54.617188 115.578125 54.617188 129.980469 C 54.617188 144.378906 78.617188 146.78125 78.617188 158.78125 C 78.617188 146.78125 102.617188 144.378906 102.617188 129.980469 C 102.617188 115.578125 78.617188 115.578125 78.617188 129.980469 "/>
<path style="fill-rule:nonzero;fill:rgb(100%,100%,0%);fill-opacity:1;stroke-width:1;stroke-linecap:butt;stroke-linejoin:round;stroke:rgb(0%,0%,0%);stroke-opacity:1;stroke-miterlimit:10;" d="M 156.867188 199.34375 C 156.867188 184.941406 132.867188 184.941406 132.867188 199.34375 C 132.867188 213.742188 156.867188 216.144531 156.867188 228.144531 C 156.867188 216.144531 180.867188 213.742188 180.867188 199.34375 C 180.867188 184.941406 156.867188 184.941406 156.867188 199.34375 "/>
</g>
</svg>
