<?xml version="1.0" encoding="UTF-8"?>
<svg xmlns="http://www.w3.org/2000/svg" xmlns:xlink="http://www.w3.org/1999/xlink" width="517pt" height="517pt" viewBox="0 0 517 517" version="1.1">
<g id="surface6246">
<rect x="0" y="0" width="517" height="517" style="fill:rgb(90%,90%,90%);fill-opacity:1;stroke:none;"/>
<path style="fill-rule:nonzero;fill:rgb(67%,100%,18%);fill-opacity:1;stroke-width:1;stroke-linecap:butt;stroke-linejoin:miter;stroke:rgb(0%,0%,0%);stroke-opacity:1;stroke-miterlimit:10;" d="M 300.632812 351.367188 L 280.632812 351.367188 L 280.632812 361.367188 L 300.632812 361.367188 L 300.632812 381.367188 L 310.632812 381.367188 L 310.632812 361.367188 L 330.632812 361.367188 L 330.632812 351.367188 L 310.632812 351.367188 L 310.632812 331.367188 L 300.632812 331.367188 L 300.632812 351.367188 "/>
<path style="fill-rule:nonzero;fill:rgb(67%,100%,18%);fill-opacity:1;stroke-width:1;stroke-linecap:butt;stroke-linejoin:miter;stroke:rgb(0%,0%,0%);stroke-opacity:1;stroke-miterlimit:10;" d="M 350.613281 435.773438 L 330.613281 435.773438 L 330.613281 445.773438 L 350.613281 445.773438 L 350.613281 465.773438 L 360.613281 465.773438 L 360.613281 445.773438 L 380.613281 445.773438 L 380.613281 435.773438 L 360.613281 435.773438 L 360.613281 415.773438 L 350.613281 415.773438 L 350.613281 435.773438 "/>
<path style="fill-rule:nonzero;fill:rgb(67%,100%,18%);fill-opacity:1;stroke-width:1;stroke-linecap:butt;stroke-linejoin:miter;stroke:rgb(0%,0%,0%);stroke-opacity:1;stroke-miterlimit:10;" d="M 42.507812 45.785156 L 22.507812 45.785156 L 22.507812 55.785156 L 42.507812 55.785156 L 42.507812 75.785156 L 52.507812 75.785156 L 52.507812 55.785156 L 72.507812 55.785156 L 72.507812 45.785156 L 52.507812 45.785156 L 52.507812 25.785156 L 42.507812 25.785156 L 42.507812 45.785156 "/>
<path style="fill-rule:nonzero;fill:rgb(67%,100%,18%);fill-opacity:1;stroke-width:1;stroke-linecap:butt;stroke-linejoin:miter;stroke:rgb(0%,0%,0%);stroke-opacity:1;stroke-miterlimit:10;" d="M 345.445312 104.089844 L 325.445312 104.089844 L 325.445312 114.089844 L 345.445312 114.089844 L 345.445312 134.089844 L 355.445312 134.089844 L 355.445312 114.089844 L 375.445312 114.089844 L 375.445312 104.089844 L 355.445312 104.089844 L 355.445312 84.089844 L 345.445312 84.089844 L 345.445312 104.089844 "/>
<path style="fill-rule:nonzero;fill:rgb(67%,100%,18%);fill-opacity:1;stroke-width:1;stroke-linecap:butt;stroke-linejoin:miter;stroke:rgb(0%,0%,0%);stroke-opacity:1;stroke-miterlimit:10;" d="M 357.769531 188.355469 L 337.769531 188.355469 L 337.769531 198.355469 L 357.769531 198.355469 L 357.769531 218.355469 L 367.769531 218.355469 L 367.769531 198.355469 L 387.769531 198.355469 L 387.769531 188.355469 L 367.769531 188.355469 L 367.769531 168.355469 L 357.769531 168.355469 L 357.769531 188.355469 "/>
<path style="fill-rule:nonzero;fill:rgb(67%,100%,18%);fill-opacity:1;stroke-width:1;stroke-linecap:butt;stroke-linejoin:miter;stroke:rgb(0%,0%,0%);stroke-opacity:1;stroke-miterlimit:10;" d="M 289.113281 168.121094 L 269.113281 168.121094 L 269.113281 178.121094 L 289.113281 178.121094 L 289.113281 198.121094 L 299.113281 198.121094 L 299.113281 178.121094 L 319.113281 178.121094 L 319.113281 168.121094 L 299.113281 168.121094 L 299.113281 148.121094 L 289.113281 148.121094 L 289.113281 168.121094 "/>
<path style="fill-rule:nonzero;fill:rgb(67%,100%,18%);fill-opacity:1;stroke-width:1;stroke-linecap:butt;stroke-linejoin:miter;stroke:rgb(0%,0%,0%);stroke-opacity:1;stroke-miterlimit:10;" d="M 436.574219 46.671875 L 416.574219 46.671875 L 416.574219 56.671875 L 436.574219 56.671875 L 436.574219 76.671875 L 446.574219 76.671875 L 446.574219 56.671875 L 466.574219 56.671875 L 466.574219 46.671875 L 446.574219 46.671875 L 446.574219 26.671875 L 436.574219 26.671875 L 436.574219 46.671875 "/>
<path style="fill-rule:nonzero;fill:rgb(67%,100%,18%);fill-opacity:1;stroke-width:1;stroke-linecap:butt;stroke-linejoin:miter;stroke:rgb(0%,0%,0%);stroke-opacity:1;stroke-miterlimit:10;" d="M 461.210938 142.542969 L 441.210938 142.542969 L 441.210938 152.542969 L 461.210938 152.542969 L 461.210938 172.542969 L 471.210938 172.542969 L 471.210938 152.542969 L 491.210938 152.542969 L 491.210938 142.542969 L 471.210938 142.542969 L 471.210938 122.542969 L 461.210938 122.542969 L 461.210938 142.542969 "/>
</g>
</svg>
