<?xml version="1.0" encoding="UTF-8"?>
<svg xmlns="http://www.w3.org/2000/svg" xmlns:xlink="http://www.w3.org/1999/xlink" width="517pt" height="517pt" viewBox="0 0 517 517" version="1.1">
<g id="surface5186">
<rect x="0" y="0" width="517" height="517" style="fill:rgb(90%,90%,90%);fill-opacity:1;stroke:none;"/>
<path style="fill-rule:nonzero;fill:rgb(100%,0%,0%);fill-opacity:1;stroke-width:1;stroke-linecap:butt;stroke-linejoin:miter;stroke:rgb(0%,0%,0%);stroke-opacity:1;stroke-miterlimit:10;" d="M 450.785156 171.625 C 450.785156 188.195312 437.351562 201.625 420.785156 201.625 C 404.214844 201.625 390.785156 188.195312 390.785156 171.625 C 390.785156 155.058594 404.214844 141.625 420.785156 141.625 C 437.351562 141.625 450.785156 155.058594 450.785156 171.625 "/>
<path style="fill-rule:nonzero;fill:rgb(100%,0%,0%);fill-opacity:1;stroke-width:1;stroke-linecap:butt;stroke-linejoin:miter;stroke:rgb(0%,0%,0%);stroke-opacity:1;stroke-miterlimit:10;" d="M 387.753906 148.234375 C 387.753906 164.800781 374.320312 178.234375 357.753906 178.234375 C 341.183594 178.234375 327.753906 164.800781 327.753906 148.234375 C 327.753906 131.664062 341.183594 118.234375 357.753906 118.234375 C 374.320312 118.234375 387.753906 131.664062 387.753906 148.234375 "/>
<path style="fill-rule:nonzero;fill:rgb(35%,70%,90%);fill-opacity:1;stroke-width:1;stroke-linecap:butt;stroke-linejoin:miter;stroke:rgb(0%,0%,0%);stroke-opacity:1;stroke-miterlimit:10;" d="M 129.046875 47.101562 C 129.046875 63.667969 115.617188 77.101562 99.046875 77.101562 C 82.480469 77.101562 69.046875 63.667969 69.046875 47.101562 C 69.046875 30.53125 82.480469 17.101562 99.046875 17.101562 C 115.617188 17.101562 129.046875 30.53125 129.046875 47.101562 "/>
<path style="fill-rule:nonzero;fill:rgb(35%,70%,90%);fill-opacity:1;stroke-width:1;stroke-linecap:butt;stroke-linejoin:miter;stroke:rgb(0%,0%,0%);stroke-opacity:1;stroke-miterlimit:10;" d="M 188.785156 195.863281 C 188.785156 212.433594 175.351562 225.863281 158.785156 225.863281 C 142.214844 225.863281 128.785156 212.433594 128.785156 195.863281 C 128.785156 179.296875 142.214844 165.863281 158.785156 165.863281 C 175.351562 165.863281 188.785156 179.296875 188.785156 195.863281 "/>
<path style="fill-rule:nonzero;fill:rgb(35%,70%,90%);fill-opacity:1;stroke-width:1;stroke-linecap:butt;stroke-linejoin:miter;stroke:rgb(0%,0%,0%);stroke-opacity:1;stroke-miterlimit:10;" d="M 240.1875 163.035156 C 240.1875 179.601562 226.753906 193.035156 210.1875 193.035156 C 193.617188 193.035156 180.1875 179.601562 180.1875 163.035156 C 180.1875 146.464844 193.617188 133.035156 210.1875 133.035156 C 226.753906 133.035156 240.1875 146.464844 240.1875 163.035156 "/>
<path style="fill-rule:nonzero;fill:rgb(35%,70%,90%);fill-opacity:1;stroke-width:1;stroke-linecap:butt;stroke-linejoin:miter;stroke:rgb(0%,0%,0%);stroke-opacity:1;stroke-miterlimit:10;" d="M 214.429688 441.210938 C 214.429688 457.777344 201 471.210938 184.429688 471.210938 C 167.863281 471.210938 154.429688 457.777344 154.429688 441.210938 C 154.429688 424.640625 167.863281 411.210938 184.429688 411.210938 C 201 411.210938 214.429688 424.640625 214.429688 441.210938 "/>
<path style="fill-rule:nonzero;fill:rgb(35%,70%,90%);fill-opacity:1;stroke-width:1;stroke-linecap:butt;stroke-linejoin:miter;stroke:rgb(0%,0%,0%);stroke-opacity:1;stroke-miterlimit:10;" d="M 180.535156 377.382812 C 180.535156 393.953125 167.105469 407.382812 150.535156 407.382812 C 133.964844 407.382812 120.535156 393.953125 120.535156 377.382812 C 120.535156 360.8125 133.964844 347.382812 150.535156 347.382812 C 167.105469 347.382812 180.535156 360.8125 180.535156 377.382812 "/>
<path style="fill-rule:nonzero;fill:rgb(35%,70%,90%);fill-opacity:1;stroke-width:1;stroke-linecap:butt;stroke-linejoin:miter;stroke:rgb(0%,0%,0%);stroke-opacity:1;stroke-miterlimit:10;" d="M 108.050781 421.117188 C 108.050781 437.683594 94.621094 451.117188 78.050781 451.117188 C 61.484375 451.117188 48.050781 437.683594 48.050781 421.117188 C 48.050781 404.546875 61.484375 391.117188 78.050781 391.117188 C 94.621094 391.117188 108.050781 404.546875 108.050781 421.117188 "/>
</g>
</svg>
