<?xml version="1.0" encoding="UTF-8"?>
<svg xmlns="http://www.w3.org/2000/svg" xmlns:xlink="http://www.w3.org/1999/xlink" width="517pt" height="517pt" viewBox="0 0 517 517" version="1.1">
<g id="surface1456">
<rect x="0" y="0" width="517" height="517" style="fill:rgb(90%,90%,90%);fill-opacity:1;stroke:none;"/>
<path style="fill:none;stroke-width:5;stroke-linecap:butt;stroke-linejoin:round;stroke:rgb(100%,0%,0%);stroke-opacity:1;stroke-miterlimit:10;" d="M 261 261 L 517 261 L 517 517 L 261 517 Z M 261 261 "/>
<path style="fill-rule:nonzero;fill:rgb(100%,100%,0%);fill-opacity:1;stroke-width:1;stroke-linecap:butt;stroke-linejoin:round;stroke:rgb(0%,0%,0%);stroke-opacity:1;stroke-miterlimit:10;" d="M 315.191406 355.40625 C 315.191406 341.007812 291.191406 341.007812 291.191406 355.40625 C 291.191406 369.808594 315.191406 372.207031 315.191406 384.207031 C 315.191406 372.207031 339.191406 369.808594 339.191406 355.40625 C 339.191406 341.007812 315.191406 341.007812 315.191406 355.40625 "/>
<path style="fill-rule:nonzero;fill:rgb(50%,0%,50%);fill-opacity:1;stroke-width:1;stroke-linecap:butt;stroke-linejoin:round;stroke:rgb(0%,0%,0%);stroke-opacity:1;stroke-miterlimit:10;" d="M 176.796875 313.007812 C 176.796875 298.609375 152.796875 298.609375 152.796875 313.007812 C 152.796875 327.410156 176.796875 329.808594 176.796875 341.808594 C 176.796875 329.808594 200.796875 327.410156 200.796875 313.007812 C 200.796875 298.609375 176.796875 298.609375 176.796875 313.007812 "/>
<path style="fill-rule:nonzero;fill:rgb(50%,0%,50%);fill-opacity:1;stroke-width:1;stroke-linecap:butt;stroke-linejoin:round;stroke:rgb(0%,0%,0%);stroke-opacity:1;stroke-miterlimit:10;" d="M 423.496094 166.921875 C 423.496094 152.519531 399.496094 152.519531 399.496094 166.921875 C 399.496094 181.320312 423.496094 183.722656 423.496094 195.722656 C 423.496094 183.722656 447.496094 181.320312 447.496094 166.921875 C 447.496094 152.519531 423.496094 152.519531 423.496094 166.921875 "/>
<path style="fill-rule:nonzero;fill:rgb(50%,0%,50%);fill-opacity:1;stroke-width:1;stroke-linecap:butt;stroke-linejoin:round;stroke:rgb(0%,0%,0%);stroke-opacity:1;stroke-miterlimit:10;" d="M 427.082031 56.492188 C 427.082031 42.089844 403.082031 42.089844 403.082031 56.492188 C 403.082031 70.890625 427.082031 73.289062 427.082031 85.289062 C 427.082031 73.289062 451.082031 70.890625 451.082031 56.492188 C 451.082031 42.089844 427.082031 42.089844 427.082031 56.492188 "/>
</g>
</svg>
