<?xml version="1.0" encoding="UTF-8"?>
<svg xmlns="http://www.w3.org/2000/svg" xmlns:xlink="http://www.w3.org/1999/xlink" width="517pt" height="517pt" viewBox="0 0 517 517" version="1.1">
<g id="surface1491">
<rect x="0" y="0" width="517" height="517" style="fill:rgb(90%,90%,90%);fill-opacity:1;stroke:none;"/>
<path style="fill:none;stroke-width:5;stroke-linecap:butt;stroke-linejoin:round;stroke:rgb(100%,0%,0%);stroke-opacity:1;stroke-miterlimit:10;" d="M 261 261 L 517 261 L 517 517 L 261 517 Z M 261 261 "/>
<path style="fill-rule:nonzero;fill:rgb(100%,100%,0%);fill-opacity:1;stroke-width:1;stroke-linecap:butt;stroke-linejoin:round;stroke:rgb(0%,0%,0%);stroke-opacity:1;stroke-miterlimit:10;" d="M 340.222656 406.167969 C 340.222656 391.765625 316.222656 391.765625 316.222656 406.167969 C 316.222656 420.566406 340.222656 422.964844 340.222656 434.964844 C 340.222656 422.964844 364.222656 420.566406 364.222656 406.167969 C 364.222656 391.765625 340.222656 391.765625 340.222656 406.167969 "/>
<path style="fill-rule:nonzero;fill:rgb(50%,0%,50%);fill-opacity:1;stroke-width:1;stroke-linecap:butt;stroke-linejoin:round;stroke:rgb(0%,0%,0%);stroke-opacity:1;stroke-miterlimit:10;" d="M 108.046875 105.628906 C 108.046875 91.230469 84.046875 91.230469 84.046875 105.628906 C 84.046875 120.03125 108.046875 122.429688 108.046875 134.429688 C 108.046875 122.429688 132.046875 120.03125 132.046875 105.628906 C 132.046875 91.230469 108.046875 91.230469 108.046875 105.628906 "/>
<path style="fill-rule:nonzero;fill:rgb(100%,100%,0%);fill-opacity:1;stroke-width:1;stroke-linecap:butt;stroke-linejoin:round;stroke:rgb(0%,0%,0%);stroke-opacity:1;stroke-miterlimit:10;" d="M 346.101562 98.238281 C 346.101562 83.835938 322.101562 83.835938 322.101562 98.238281 C 322.101562 112.636719 346.101562 115.039062 346.101562 127.039062 C 346.101562 115.039062 370.101562 112.636719 370.101562 98.238281 C 370.101562 83.835938 346.101562 83.835938 346.101562 98.238281 "/>
<path style="fill-rule:nonzero;fill:rgb(100%,100%,0%);fill-opacity:1;stroke-width:1;stroke-linecap:butt;stroke-linejoin:round;stroke:rgb(0%,0%,0%);stroke-opacity:1;stroke-miterlimit:10;" d="M 450.367188 50.273438 C 450.367188 35.871094 426.367188 35.871094 426.367188 50.273438 C 426.367188 64.671875 450.367188 67.070312 450.367188 79.070312 C 450.367188 67.070312 474.367188 64.671875 474.367188 50.273438 C 474.367188 35.871094 450.367188 35.871094 450.367188 50.273438 "/>
</g>
</svg>
