<?xml version="1.0" encoding="UTF-8"?>
<svg xmlns="http://www.w3.org/2000/svg" xmlns:xlink="http://www.w3.org/1999/xlink" width="517pt" height="517pt" viewBox="0 0 517 517" version="1.1">
<g id="surface1451">
<rect x="0" y="0" width="517" height="517" style="fill:rgb(90%,90%,90%);fill-opacity:1;stroke:none;"/>
<path style="fill:none;stroke-width:5;stroke-linecap:butt;stroke-linejoin:round;stroke:rgb(100%,0%,0%);stroke-opacity:1;stroke-miterlimit:10;" d="M 261 261 L 517 261 L 517 517 L 261 517 Z M 261 261 "/>
<path style="fill-rule:nonzero;fill:rgb(100%,100%,0%);fill-opacity:1;stroke-width:1;stroke-linecap:butt;stroke-linejoin:round;stroke:rgb(0%,0%,0%);stroke-opacity:1;stroke-miterlimit:10;" d="M 411.679688 399.894531 C 411.679688 385.492188 387.679688 385.492188 387.679688 399.894531 C 387.679688 414.292969 411.679688 416.691406 411.679688 428.691406 C 411.679688 416.691406 435.679688 414.292969 435.679688 399.894531 C 435.679688 385.492188 411.679688 385.492188 411.679688 399.894531 "/>
<path style="fill-rule:nonzero;fill:rgb(50%,0%,50%);fill-opacity:1;stroke-width:1;stroke-linecap:butt;stroke-linejoin:round;stroke:rgb(0%,0%,0%);stroke-opacity:1;stroke-miterlimit:10;" d="M 466.101562 77.921875 C 466.101562 63.519531 442.101562 63.519531 442.101562 77.921875 C 442.101562 92.320312 466.101562 94.722656 466.101562 106.722656 C 466.101562 94.722656 490.101562 92.320312 490.101562 77.921875 C 490.101562 63.519531 466.101562 63.519531 466.101562 77.921875 "/>
<path style="fill-rule:nonzero;fill:rgb(50%,0%,50%);fill-opacity:1;stroke-width:1;stroke-linecap:butt;stroke-linejoin:round;stroke:rgb(0%,0%,0%);stroke-opacity:1;stroke-miterlimit:10;" d="M 396.25 122.113281 C 396.25 107.710938 372.25 107.710938 372.25 122.113281 C 372.25 136.511719 396.25 138.914062 396.25 150.914062 C 396.25 138.914062 420.25 136.511719 420.25 122.113281 C 420.25 107.710938 396.25 107.710938 396.25 122.113281 "/>
<path style="fill-rule:nonzero;fill:rgb(50%,0%,50%);fill-opacity:1;stroke-width:1;stroke-linecap:butt;stroke-linejoin:round;stroke:rgb(0%,0%,0%);stroke-opacity:1;stroke-miterlimit:10;" d="M 63.839844 413.828125 C 63.839844 399.425781 39.839844 399.425781 39.839844 413.828125 C 39.839844 428.226562 63.839844 430.625 63.839844 442.625 C 63.839844 430.625 87.839844 428.226562 87.839844 413.828125 C 87.839844 399.425781 63.839844 399.425781 63.839844 413.828125 "/>
</g>
</svg>
