<?xml version="1.0" encoding="UTF-8"?>
<svg xmlns="http://www.w3.org/2000/svg" xmlns:xlink="http://www.w3.org/1999/xlink" width="517pt" height="517pt" viewBox="0 0 517 517" version="1.1">
<g id="surface1406">
<rect x="0" y="0" width="517" height="517" style="fill:rgb(90%,90%,90%);fill-opacity:1;stroke:none;"/>
<path style="fill:none;stroke-width:5;stroke-linecap:butt;stroke-linejoin:round;stroke:rgb(100%,0%,0%);stroke-opacity:1;stroke-miterlimit:10;" d="M 261 261 L 517 261 L 517 517 L 261 517 Z M 261 261 "/>
<path style="fill-rule:nonzero;fill:rgb(0%,0%,0%);fill-opacity:1;stroke-width:1;stroke-linecap:butt;stroke-linejoin:round;stroke:rgb(0%,0%,0%);stroke-opacity:1;stroke-miterlimit:10;" d="M 401.449219 351.183594 C 401.449219 367.753906 388.019531 381.183594 371.449219 381.183594 C 354.882812 381.183594 341.449219 367.753906 341.449219 351.183594 C 341.449219 334.617188 354.882812 321.183594 371.449219 321.183594 C 388.019531 321.183594 401.449219 334.617188 401.449219 351.183594 "/>
<path style="fill-rule:nonzero;fill:rgb(100%,0%,0%);fill-opacity:1;stroke-width:1;stroke-linecap:butt;stroke-linejoin:round;stroke:rgb(0%,0%,0%);stroke-opacity:1;stroke-miterlimit:10;" d="M 243.621094 330.675781 C 243.621094 347.246094 230.191406 360.675781 213.621094 360.675781 C 197.054688 360.675781 183.621094 347.246094 183.621094 330.675781 C 183.621094 314.105469 197.054688 300.675781 213.621094 300.675781 C 230.191406 300.675781 243.621094 314.105469 243.621094 330.675781 "/>
<path style="fill-rule:nonzero;fill:rgb(0%,0%,0%);fill-opacity:1;stroke-width:1;stroke-linecap:butt;stroke-linejoin:round;stroke:rgb(0%,0%,0%);stroke-opacity:1;stroke-miterlimit:10;" d="M 162.589844 69.585938 C 162.589844 86.15625 149.15625 99.585938 132.589844 99.585938 C 116.019531 99.585938 102.589844 86.15625 102.589844 69.585938 C 102.589844 53.019531 116.019531 39.585938 132.589844 39.585938 C 149.15625 39.585938 162.589844 53.019531 162.589844 69.585938 "/>
<path style="fill-rule:nonzero;fill:rgb(0%,0%,0%);fill-opacity:1;stroke-width:1;stroke-linecap:butt;stroke-linejoin:round;stroke:rgb(0%,0%,0%);stroke-opacity:1;stroke-miterlimit:10;" d="M 94.570312 121.316406 C 94.570312 137.882812 81.140625 151.316406 64.570312 151.316406 C 48 151.316406 34.570312 137.882812 34.570312 121.316406 C 34.570312 104.746094 48 91.316406 64.570312 91.316406 C 81.140625 91.316406 94.570312 104.746094 94.570312 121.316406 "/>
</g>
</svg>
