<?xml version="1.0" encoding="UTF-8"?>
<svg xmlns="http://www.w3.org/2000/svg" xmlns:xlink="http://www.w3.org/1999/xlink" width="517pt" height="517pt" viewBox="0 0 517 517" version="1.1">
<g id="surface1056">
<rect x="0" y="0" width="517" height="517" style="fill:rgb(90%,90%,90%);fill-opacity:1;stroke:none;"/>
<path style="fill:none;stroke-width:5;stroke-linecap:butt;stroke-linejoin:round;stroke:rgb(100%,0%,0%);stroke-opacity:1;stroke-miterlimit:10;" d="M 5 261 L 261 261 L 261 517 L 5 517 Z M 5 261 "/>
<path style="fill-rule:nonzero;fill:rgb(100%,0%,0%);fill-opacity:1;stroke-width:1;stroke-linecap:butt;stroke-linejoin:round;stroke:rgb(0%,0%,0%);stroke-opacity:1;stroke-miterlimit:10;" d="M 174.410156 358.597656 C 174.410156 344.199219 150.410156 344.199219 150.410156 358.597656 C 150.410156 373 174.410156 375.398438 174.410156 387.398438 C 174.410156 375.398438 198.410156 373 198.410156 358.597656 C 198.410156 344.199219 174.410156 344.199219 174.410156 358.597656 "/>
<path style="fill-rule:nonzero;fill:rgb(35%,70%,90%);fill-opacity:1;stroke-width:1;stroke-linecap:butt;stroke-linejoin:round;stroke:rgb(0%,0%,0%);stroke-opacity:1;stroke-miterlimit:10;" d="M 457.25 374.742188 C 457.25 360.34375 433.25 360.34375 433.25 374.742188 C 433.25 389.144531 457.25 391.542969 457.25 403.542969 C 457.25 391.542969 481.25 389.144531 481.25 374.742188 C 481.25 360.34375 457.25 360.34375 457.25 374.742188 "/>
<path style="fill-rule:nonzero;fill:rgb(35%,70%,90%);fill-opacity:1;stroke-width:1;stroke-linecap:butt;stroke-linejoin:round;stroke:rgb(0%,0%,0%);stroke-opacity:1;stroke-miterlimit:10;" d="M 379.007812 308.175781 C 379.007812 293.777344 355.007812 293.777344 355.007812 308.175781 C 355.007812 322.578125 379.007812 324.976562 379.007812 336.976562 C 379.007812 324.976562 403.007812 322.578125 403.007812 308.175781 C 403.007812 293.777344 379.007812 293.777344 379.007812 308.175781 "/>
<path style="fill-rule:nonzero;fill:rgb(35%,70%,90%);fill-opacity:1;stroke-width:1;stroke-linecap:butt;stroke-linejoin:round;stroke:rgb(0%,0%,0%);stroke-opacity:1;stroke-miterlimit:10;" d="M 375.167969 198.90625 C 375.167969 184.503906 351.167969 184.503906 351.167969 198.90625 C 351.167969 213.304688 375.167969 215.703125 375.167969 227.703125 C 375.167969 215.703125 399.167969 213.304688 399.167969 198.90625 C 399.167969 184.503906 375.167969 184.503906 375.167969 198.90625 "/>
</g>
</svg>
