<?xml version="1.0" encoding="UTF-8"?>
<svg xmlns="http://www.w3.org/2000/svg" xmlns:xlink="http://www.w3.org/1999/xlink" width="517pt" height="517pt" viewBox="0 0 517 517" version="1.1">
<g id="surface6386">
<rect x="0" y="0" width="517" height="517" style="fill:rgb(90%,90%,90%);fill-opacity:1;stroke:none;"/>
<path style="fill-rule:nonzero;fill:rgb(90%,65%,0%);fill-opacity:1;stroke-width:1;stroke-linecap:butt;stroke-linejoin:miter;stroke:rgb(0%,0%,0%);stroke-opacity:1;stroke-miterlimit:10;" d="M 90.367188 431.984375 L 70.367188 431.984375 L 70.367188 441.984375 L 90.367188 441.984375 L 90.367188 461.984375 L 100.367188 461.984375 L 100.367188 441.984375 L 120.367188 441.984375 L 120.367188 431.984375 L 100.367188 431.984375 L 100.367188 411.984375 L 90.367188 411.984375 L 90.367188 431.984375 "/>
<path style="fill-rule:nonzero;fill:rgb(90%,65%,0%);fill-opacity:1;stroke-width:1;stroke-linecap:butt;stroke-linejoin:miter;stroke:rgb(0%,0%,0%);stroke-opacity:1;stroke-miterlimit:10;" d="M 467.539062 179.71875 L 447.539062 179.71875 L 447.539062 189.71875 L 467.539062 189.71875 L 467.539062 209.71875 L 477.539062 209.71875 L 477.539062 189.71875 L 497.539062 189.71875 L 497.539062 179.71875 L 477.539062 179.71875 L 477.539062 159.71875 L 467.539062 159.71875 L 467.539062 179.71875 "/>
<path style="fill-rule:nonzero;fill:rgb(0%,0%,0%);fill-opacity:1;stroke-width:1;stroke-linecap:butt;stroke-linejoin:miter;stroke:rgb(0%,0%,0%);stroke-opacity:1;stroke-miterlimit:10;" d="M 342.859375 151.617188 L 322.859375 151.617188 L 322.859375 161.617188 L 342.859375 161.617188 L 342.859375 181.617188 L 352.859375 181.617188 L 352.859375 161.617188 L 372.859375 161.617188 L 372.859375 151.617188 L 352.859375 151.617188 L 352.859375 131.617188 L 342.859375 131.617188 L 342.859375 151.617188 "/>
<path style="fill-rule:nonzero;fill:rgb(0%,0%,0%);fill-opacity:1;stroke-width:1;stroke-linecap:butt;stroke-linejoin:miter;stroke:rgb(0%,0%,0%);stroke-opacity:1;stroke-miterlimit:10;" d="M 412.292969 35.644531 L 392.292969 35.644531 L 392.292969 45.644531 L 412.292969 45.644531 L 412.292969 65.644531 L 422.292969 65.644531 L 422.292969 45.644531 L 442.292969 45.644531 L 442.292969 35.644531 L 422.292969 35.644531 L 422.292969 15.644531 L 412.292969 15.644531 L 412.292969 35.644531 "/>
<path style="fill-rule:nonzero;fill:rgb(0%,0%,0%);fill-opacity:1;stroke-width:1;stroke-linecap:butt;stroke-linejoin:miter;stroke:rgb(0%,0%,0%);stroke-opacity:1;stroke-miterlimit:10;" d="M 471.535156 99.546875 L 451.535156 99.546875 L 451.535156 109.546875 L 471.535156 109.546875 L 471.535156 129.546875 L 481.535156 129.546875 L 481.535156 109.546875 L 501.535156 109.546875 L 501.535156 99.546875 L 481.535156 99.546875 L 481.535156 79.546875 L 471.535156 79.546875 L 471.535156 99.546875 "/>
<path style="fill-rule:nonzero;fill:rgb(0%,0%,0%);fill-opacity:1;stroke-width:1;stroke-linecap:butt;stroke-linejoin:miter;stroke:rgb(0%,0%,0%);stroke-opacity:1;stroke-miterlimit:10;" d="M 289.871094 119.152344 L 269.871094 119.152344 L 269.871094 129.152344 L 289.871094 129.152344 L 289.871094 149.152344 L 299.871094 149.152344 L 299.871094 129.152344 L 319.871094 129.152344 L 319.871094 119.152344 L 299.871094 119.152344 L 299.871094 99.152344 L 289.871094 99.152344 L 289.871094 119.152344 "/>
<path style="fill-rule:nonzero;fill:rgb(0%,0%,0%);fill-opacity:1;stroke-width:1;stroke-linecap:butt;stroke-linejoin:miter;stroke:rgb(0%,0%,0%);stroke-opacity:1;stroke-miterlimit:10;" d="M 69.082031 161.449219 L 49.082031 161.449219 L 49.082031 171.449219 L 69.082031 171.449219 L 69.082031 191.449219 L 79.082031 191.449219 L 79.082031 171.449219 L 99.082031 171.449219 L 99.082031 161.449219 L 79.082031 161.449219 L 79.082031 141.449219 L 69.082031 141.449219 L 69.082031 161.449219 "/>
<path style="fill-rule:nonzero;fill:rgb(0%,0%,0%);fill-opacity:1;stroke-width:1;stroke-linecap:butt;stroke-linejoin:miter;stroke:rgb(0%,0%,0%);stroke-opacity:1;stroke-miterlimit:10;" d="M 186.570312 78.816406 L 166.570312 78.816406 L 166.570312 88.816406 L 186.570312 88.816406 L 186.570312 108.816406 L 196.570312 108.816406 L 196.570312 88.816406 L 216.570312 88.816406 L 216.570312 78.816406 L 196.570312 78.816406 L 196.570312 58.816406 L 186.570312 58.816406 L 186.570312 78.816406 "/>
</g>
</svg>
