<?xml version="1.0" encoding="UTF-8"?>
<svg xmlns="http://www.w3.org/2000/svg" xmlns:xlink="http://www.w3.org/1999/xlink" width="517pt" height="517pt" viewBox="0 0 517 517" version="1.1">
<g id="surface6136">
<rect x="0" y="0" width="517" height="517" style="fill:rgb(90%,90%,90%);fill-opacity:1;stroke:none;"/>
<path style="fill-rule:nonzero;fill:rgb(90%,65%,0%);fill-opacity:1;stroke-width:1;stroke-linecap:butt;stroke-linejoin:miter;stroke:rgb(0%,0%,0%);stroke-opacity:1;stroke-miterlimit:10;" d="M 116.734375 384.933594 L 96.734375 384.933594 L 96.734375 394.933594 L 116.734375 394.933594 L 116.734375 414.933594 L 126.734375 414.933594 L 126.734375 394.933594 L 146.734375 394.933594 L 146.734375 384.933594 L 126.734375 384.933594 L 126.734375 364.933594 L 116.734375 364.933594 L 116.734375 384.933594 "/>
<path style="fill-rule:nonzero;fill:rgb(67%,100%,18%);fill-opacity:1;stroke-width:1;stroke-linecap:butt;stroke-linejoin:miter;stroke:rgb(0%,0%,0%);stroke-opacity:1;stroke-miterlimit:10;" d="M 45.332031 437.007812 L 25.332031 437.007812 L 25.332031 447.007812 L 45.332031 447.007812 L 45.332031 467.007812 L 55.332031 467.007812 L 55.332031 447.007812 L 75.332031 447.007812 L 75.332031 437.007812 L 55.332031 437.007812 L 55.332031 417.007812 L 45.332031 417.007812 L 45.332031 437.007812 "/>
<path style="fill-rule:nonzero;fill:rgb(67%,100%,18%);fill-opacity:1;stroke-width:1;stroke-linecap:butt;stroke-linejoin:miter;stroke:rgb(0%,0%,0%);stroke-opacity:1;stroke-miterlimit:10;" d="M 298.972656 292.527344 L 278.972656 292.527344 L 278.972656 302.527344 L 298.972656 302.527344 L 298.972656 322.527344 L 308.972656 322.527344 L 308.972656 302.527344 L 328.972656 302.527344 L 328.972656 292.527344 L 308.972656 292.527344 L 308.972656 272.527344 L 298.972656 272.527344 L 298.972656 292.527344 "/>
<path style="fill-rule:nonzero;fill:rgb(67%,100%,18%);fill-opacity:1;stroke-width:1;stroke-linecap:butt;stroke-linejoin:miter;stroke:rgb(0%,0%,0%);stroke-opacity:1;stroke-miterlimit:10;" d="M 448.816406 450.976562 L 428.816406 450.976562 L 428.816406 460.976562 L 448.816406 460.976562 L 448.816406 480.976562 L 458.816406 480.976562 L 458.816406 460.976562 L 478.816406 460.976562 L 478.816406 450.976562 L 458.816406 450.976562 L 458.816406 430.976562 L 448.816406 430.976562 L 448.816406 450.976562 "/>
<path style="fill-rule:nonzero;fill:rgb(67%,100%,18%);fill-opacity:1;stroke-width:1;stroke-linecap:butt;stroke-linejoin:miter;stroke:rgb(0%,0%,0%);stroke-opacity:1;stroke-miterlimit:10;" d="M 177.433594 169.875 L 157.433594 169.875 L 157.433594 179.875 L 177.433594 179.875 L 177.433594 199.875 L 187.433594 199.875 L 187.433594 179.875 L 207.433594 179.875 L 207.433594 169.875 L 187.433594 169.875 L 187.433594 149.875 L 177.433594 149.875 L 177.433594 169.875 "/>
<path style="fill-rule:nonzero;fill:rgb(67%,100%,18%);fill-opacity:1;stroke-width:1;stroke-linecap:butt;stroke-linejoin:miter;stroke:rgb(0%,0%,0%);stroke-opacity:1;stroke-miterlimit:10;" d="M 119.074219 40.980469 L 99.074219 40.980469 L 99.074219 50.980469 L 119.074219 50.980469 L 119.074219 70.980469 L 129.074219 70.980469 L 129.074219 50.980469 L 149.074219 50.980469 L 149.074219 40.980469 L 129.074219 40.980469 L 129.074219 20.980469 L 119.074219 20.980469 L 119.074219 40.980469 "/>
<path style="fill-rule:nonzero;fill:rgb(67%,100%,18%);fill-opacity:1;stroke-width:1;stroke-linecap:butt;stroke-linejoin:miter;stroke:rgb(0%,0%,0%);stroke-opacity:1;stroke-miterlimit:10;" d="M 30.921875 184.636719 L 10.921875 184.636719 L 10.921875 194.636719 L 30.921875 194.636719 L 30.921875 214.636719 L 40.921875 214.636719 L 40.921875 194.636719 L 60.921875 194.636719 L 60.921875 184.636719 L 40.921875 184.636719 L 40.921875 164.636719 L 30.921875 164.636719 L 30.921875 184.636719 "/>
<path style="fill-rule:nonzero;fill:rgb(67%,100%,18%);fill-opacity:1;stroke-width:1;stroke-linecap:butt;stroke-linejoin:miter;stroke:rgb(0%,0%,0%);stroke-opacity:1;stroke-miterlimit:10;" d="M 48.609375 59.339844 L 28.609375 59.339844 L 28.609375 69.339844 L 48.609375 69.339844 L 48.609375 89.339844 L 58.609375 89.339844 L 58.609375 69.339844 L 78.609375 69.339844 L 78.609375 59.339844 L 58.609375 59.339844 L 58.609375 39.339844 L 48.609375 39.339844 L 48.609375 59.339844 "/>
</g>
</svg>
