<?xml version="1.0" encoding="UTF-8"?>
<svg xmlns="http://www.w3.org/2000/svg" xmlns:xlink="http://www.w3.org/1999/xlink" width="517pt" height="517pt" viewBox="0 0 517 517" version="1.1">
<g id="surface5876">
<rect x="0" y="0" width="517" height="517" style="fill:rgb(90%,90%,90%);fill-opacity:1;stroke:none;"/>
<path style="fill-rule:nonzero;fill:rgb(50%,0%,50%);fill-opacity:1;stroke-width:1;stroke-linecap:butt;stroke-linejoin:miter;stroke:rgb(0%,0%,0%);stroke-opacity:1;stroke-miterlimit:10;" d="M 69.304688 314.929688 L 49.304688 314.929688 L 49.304688 324.929688 L 69.304688 324.929688 L 69.304688 344.929688 L 79.304688 344.929688 L 79.304688 324.929688 L 99.304688 324.929688 L 99.304688 314.929688 L 79.304688 314.929688 L 79.304688 294.929688 L 69.304688 294.929688 L 69.304688 314.929688 "/>
<path style="fill-rule:nonzero;fill:rgb(50%,0%,50%);fill-opacity:1;stroke-width:1;stroke-linecap:butt;stroke-linejoin:miter;stroke:rgb(0%,0%,0%);stroke-opacity:1;stroke-miterlimit:10;" d="M 186.894531 434.933594 L 166.894531 434.933594 L 166.894531 444.933594 L 186.894531 444.933594 L 186.894531 464.933594 L 196.894531 464.933594 L 196.894531 444.933594 L 216.894531 444.933594 L 216.894531 434.933594 L 196.894531 434.933594 L 196.894531 414.933594 L 186.894531 414.933594 L 186.894531 434.933594 "/>
<path style="fill-rule:nonzero;fill:rgb(50%,0%,50%);fill-opacity:1;stroke-width:1;stroke-linecap:butt;stroke-linejoin:miter;stroke:rgb(0%,0%,0%);stroke-opacity:1;stroke-miterlimit:10;" d="M 179.566406 165.761719 L 159.566406 165.761719 L 159.566406 175.761719 L 179.566406 175.761719 L 179.566406 195.761719 L 189.566406 195.761719 L 189.566406 175.761719 L 209.566406 175.761719 L 209.566406 165.761719 L 189.566406 165.761719 L 189.566406 145.761719 L 179.566406 145.761719 L 179.566406 165.761719 "/>
<path style="fill-rule:nonzero;fill:rgb(100%,0%,0%);fill-opacity:1;stroke-width:1;stroke-linecap:butt;stroke-linejoin:miter;stroke:rgb(0%,0%,0%);stroke-opacity:1;stroke-miterlimit:10;" d="M 55.933594 37.207031 L 35.933594 37.207031 L 35.933594 47.207031 L 55.933594 47.207031 L 55.933594 67.207031 L 65.933594 67.207031 L 65.933594 47.207031 L 85.933594 47.207031 L 85.933594 37.207031 L 65.933594 37.207031 L 65.933594 17.207031 L 55.933594 17.207031 L 55.933594 37.207031 "/>
<path style="fill-rule:nonzero;fill:rgb(100%,0%,0%);fill-opacity:1;stroke-width:1;stroke-linecap:butt;stroke-linejoin:miter;stroke:rgb(0%,0%,0%);stroke-opacity:1;stroke-miterlimit:10;" d="M 111.3125 111.003906 L 91.3125 111.003906 L 91.3125 121.003906 L 111.3125 121.003906 L 111.3125 141.003906 L 121.3125 141.003906 L 121.3125 121.003906 L 141.3125 121.003906 L 141.3125 111.003906 L 121.3125 111.003906 L 121.3125 91.003906 L 111.3125 91.003906 L 111.3125 111.003906 "/>
<path style="fill-rule:nonzero;fill:rgb(100%,0%,0%);fill-opacity:1;stroke-width:1;stroke-linecap:butt;stroke-linejoin:miter;stroke:rgb(0%,0%,0%);stroke-opacity:1;stroke-miterlimit:10;" d="M 74.804688 170.996094 L 54.804688 170.996094 L 54.804688 180.996094 L 74.804688 180.996094 L 74.804688 200.996094 L 84.804688 200.996094 L 84.804688 180.996094 L 104.804688 180.996094 L 104.804688 170.996094 L 84.804688 170.996094 L 84.804688 150.996094 L 74.804688 150.996094 L 74.804688 170.996094 "/>
<path style="fill-rule:nonzero;fill:rgb(100%,0%,0%);fill-opacity:1;stroke-width:1;stroke-linecap:butt;stroke-linejoin:miter;stroke:rgb(0%,0%,0%);stroke-opacity:1;stroke-miterlimit:10;" d="M 32.6875 122.011719 L 12.6875 122.011719 L 12.6875 132.011719 L 32.6875 132.011719 L 32.6875 152.011719 L 42.6875 152.011719 L 42.6875 132.011719 L 62.6875 132.011719 L 62.6875 122.011719 L 42.6875 122.011719 L 42.6875 102.011719 L 32.6875 102.011719 L 32.6875 122.011719 "/>
<path style="fill-rule:nonzero;fill:rgb(100%,0%,0%);fill-opacity:1;stroke-width:1;stroke-linecap:butt;stroke-linejoin:miter;stroke:rgb(0%,0%,0%);stroke-opacity:1;stroke-miterlimit:10;" d="M 215.015625 60.515625 L 195.015625 60.515625 L 195.015625 70.515625 L 215.015625 70.515625 L 215.015625 90.515625 L 225.015625 90.515625 L 225.015625 70.515625 L 245.015625 70.515625 L 245.015625 60.515625 L 225.015625 60.515625 L 225.015625 40.515625 L 215.015625 40.515625 L 215.015625 60.515625 "/>
</g>
</svg>
