<?xml version="1.0" encoding="UTF-8"?>
<svg xmlns="http://www.w3.org/2000/svg" xmlns:xlink="http://www.w3.org/1999/xlink" width="517pt" height="517pt" viewBox="0 0 517 517" version="1.1">
<g id="surface971">
<rect x="0" y="0" width="517" height="517" style="fill:rgb(90%,90%,90%);fill-opacity:1;stroke:none;"/>
<path style="fill:none;stroke-width:5;stroke-linecap:butt;stroke-linejoin:round;stroke:rgb(100%,0%,0%);stroke-opacity:1;stroke-miterlimit:10;" d="M 5 261 L 261 261 L 261 517 L 5 517 Z M 5 261 "/>
<path style="fill-rule:nonzero;fill:rgb(50%,0%,50%);fill-opacity:1;stroke-width:1;stroke-linecap:butt;stroke-linejoin:round;stroke:rgb(0%,0%,0%);stroke-opacity:1;stroke-miterlimit:10;" d="M 83.066406 292.027344 C 83.066406 308.59375 69.636719 322.027344 53.066406 322.027344 C 36.5 322.027344 23.066406 308.59375 23.066406 292.027344 C 23.066406 275.457031 36.5 262.027344 53.066406 262.027344 C 69.636719 262.027344 83.066406 275.457031 83.066406 292.027344 "/>
<path style="fill-rule:nonzero;fill:rgb(53%,27%,7%);fill-opacity:1;stroke-width:1;stroke-linecap:butt;stroke-linejoin:round;stroke:rgb(0%,0%,0%);stroke-opacity:1;stroke-miterlimit:10;" d="M 175.28125 63.039062 C 175.28125 79.609375 161.851562 93.039062 145.28125 93.039062 C 128.714844 93.039062 115.28125 79.609375 115.28125 63.039062 C 115.28125 46.472656 128.714844 33.039062 145.28125 33.039062 C 161.851562 33.039062 175.28125 46.472656 175.28125 63.039062 "/>
<path style="fill-rule:nonzero;fill:rgb(53%,27%,7%);fill-opacity:1;stroke-width:1;stroke-linecap:butt;stroke-linejoin:round;stroke:rgb(0%,0%,0%);stroke-opacity:1;stroke-miterlimit:10;" d="M 424.5 340.671875 C 424.5 357.238281 411.066406 370.671875 394.5 370.671875 C 377.929688 370.671875 364.5 357.238281 364.5 340.671875 C 364.5 324.101562 377.929688 310.671875 394.5 310.671875 C 411.066406 310.671875 424.5 324.101562 424.5 340.671875 "/>
<path style="fill-rule:nonzero;fill:rgb(53%,27%,7%);fill-opacity:1;stroke-width:1;stroke-linecap:butt;stroke-linejoin:round;stroke:rgb(0%,0%,0%);stroke-opacity:1;stroke-miterlimit:10;" d="M 463.039062 452.800781 C 463.039062 469.371094 449.605469 482.800781 433.039062 482.800781 C 416.46875 482.800781 403.039062 469.371094 403.039062 452.800781 C 403.039062 436.234375 416.46875 422.800781 433.039062 422.800781 C 449.605469 422.800781 463.039062 436.234375 463.039062 452.800781 "/>
</g>
</svg>
