<?xml version="1.0" encoding="UTF-8"?>
<svg xmlns="http://www.w3.org/2000/svg" xmlns:xlink="http://www.w3.org/1999/xlink" width="517pt" height="517pt" viewBox="0 0 517 517" version="1.1">
<g id="surface741">
<rect x="0" y="0" width="517" height="517" style="fill:rgb(90%,90%,90%);fill-opacity:1;stroke:none;"/>
<path style="fill:none;stroke-width:5;stroke-linecap:butt;stroke-linejoin:round;stroke:rgb(100%,0%,0%);stroke-opacity:1;stroke-miterlimit:10;" d="M 261 5 L 517 5 L 517 261 L 261 261 Z M 261 5 "/>
<path style="fill-rule:nonzero;fill:rgb(25%,88%,82%);fill-opacity:1;stroke-width:1;stroke-linecap:butt;stroke-linejoin:round;stroke:rgb(0%,0%,0%);stroke-opacity:1;stroke-miterlimit:10;" d="M 296.597656 208.566406 L 276.597656 208.566406 L 276.597656 218.566406 L 296.597656 218.566406 L 296.597656 238.566406 L 306.597656 238.566406 L 306.597656 218.566406 L 326.597656 218.566406 L 326.597656 208.566406 L 306.597656 208.566406 L 306.597656 188.566406 L 296.597656 188.566406 L 296.597656 208.566406 "/>
<path style="fill-rule:nonzero;fill:rgb(100%,100%,0%);fill-opacity:1;stroke-width:1;stroke-linecap:butt;stroke-linejoin:round;stroke:rgb(0%,0%,0%);stroke-opacity:1;stroke-miterlimit:10;" d="M 51.292969 130.238281 L 31.292969 130.238281 L 31.292969 140.238281 L 51.292969 140.238281 L 51.292969 160.238281 L 61.292969 160.238281 L 61.292969 140.238281 L 81.292969 140.238281 L 81.292969 130.238281 L 61.292969 130.238281 L 61.292969 110.238281 L 51.292969 110.238281 L 51.292969 130.238281 "/>
<path style="fill-rule:nonzero;fill:rgb(100%,100%,0%);fill-opacity:1;stroke-width:1;stroke-linecap:butt;stroke-linejoin:round;stroke:rgb(0%,0%,0%);stroke-opacity:1;stroke-miterlimit:10;" d="M 148.179688 184.511719 L 128.179688 184.511719 L 128.179688 194.511719 L 148.179688 194.511719 L 148.179688 214.511719 L 158.179688 214.511719 L 158.179688 194.511719 L 178.179688 194.511719 L 178.179688 184.511719 L 158.179688 184.511719 L 158.179688 164.511719 L 148.179688 164.511719 L 148.179688 184.511719 "/>
<path style="fill-rule:nonzero;fill:rgb(25%,88%,82%);fill-opacity:1;stroke-width:1;stroke-linecap:butt;stroke-linejoin:round;stroke:rgb(0%,0%,0%);stroke-opacity:1;stroke-miterlimit:10;" d="M 190.996094 443.648438 L 170.996094 443.648438 L 170.996094 453.648438 L 190.996094 453.648438 L 190.996094 473.648438 L 200.996094 473.648438 L 200.996094 453.648438 L 220.996094 453.648438 L 220.996094 443.648438 L 200.996094 443.648438 L 200.996094 423.648438 L 190.996094 423.648438 L 190.996094 443.648438 "/>
</g>
</svg>
