<?xml version="1.0" encoding="UTF-8"?>
<svg xmlns="http://www.w3.org/2000/svg" xmlns:xlink="http://www.w3.org/1999/xlink" width="517pt" height="517pt" viewBox="0 0 517 517" version="1.1">
<g id="surface1106">
<rect x="0" y="0" width="517" height="517" style="fill:rgb(90%,90%,90%);fill-opacity:1;stroke:none;"/>
<path style="fill:none;stroke-width:5;stroke-linecap:butt;stroke-linejoin:round;stroke:rgb(100%,0%,0%);stroke-opacity:1;stroke-miterlimit:10;" d="M 5 261 L 261 261 L 261 517 L 5 517 Z M 5 261 "/>
<path style="fill-rule:nonzero;fill:rgb(100%,100%,0%);fill-opacity:1;stroke-width:1;stroke-linecap:butt;stroke-linejoin:round;stroke:rgb(0%,0%,0%);stroke-opacity:1;stroke-miterlimit:10;" d="M 209.265625 447.730469 C 209.265625 433.332031 185.265625 433.332031 185.265625 447.730469 C 185.265625 462.132812 209.265625 464.53125 209.265625 476.53125 C 209.265625 464.53125 233.265625 462.132812 233.265625 447.730469 C 233.265625 433.332031 209.265625 433.332031 209.265625 447.730469 "/>
<path style="fill-rule:nonzero;fill:rgb(35%,70%,90%);fill-opacity:1;stroke-width:1;stroke-linecap:butt;stroke-linejoin:round;stroke:rgb(0%,0%,0%);stroke-opacity:1;stroke-miterlimit:10;" d="M 471.894531 23.027344 C 471.894531 8.625 447.894531 8.625 447.894531 23.027344 C 447.894531 37.425781 471.894531 39.824219 471.894531 51.824219 C 471.894531 39.824219 495.894531 37.425781 495.894531 23.027344 C 495.894531 8.625 471.894531 8.625 471.894531 23.027344 "/>
<path style="fill-rule:nonzero;fill:rgb(35%,70%,90%);fill-opacity:1;stroke-width:1;stroke-linecap:butt;stroke-linejoin:round;stroke:rgb(0%,0%,0%);stroke-opacity:1;stroke-miterlimit:10;" d="M 122.476562 150.226562 C 122.476562 135.824219 98.476562 135.824219 98.476562 150.226562 C 98.476562 164.625 122.476562 167.027344 122.476562 179.027344 C 122.476562 167.027344 146.476562 164.625 146.476562 150.226562 C 146.476562 135.824219 122.476562 135.824219 122.476562 150.226562 "/>
<path style="fill-rule:nonzero;fill:rgb(35%,70%,90%);fill-opacity:1;stroke-width:1;stroke-linecap:butt;stroke-linejoin:round;stroke:rgb(0%,0%,0%);stroke-opacity:1;stroke-miterlimit:10;" d="M 215.785156 139.296875 C 215.785156 124.898438 191.785156 124.898438 191.785156 139.296875 C 191.785156 153.695312 215.785156 156.097656 215.785156 168.097656 C 215.785156 156.097656 239.785156 153.695312 239.785156 139.296875 C 239.785156 124.898438 215.785156 124.898438 215.785156 139.296875 "/>
</g>
</svg>
