<?xml version="1.0" encoding="UTF-8"?>
<svg xmlns="http://www.w3.org/2000/svg" xmlns:xlink="http://www.w3.org/1999/xlink" width="517pt" height="517pt" viewBox="0 0 517 517" version="1.1">
<g id="surface6206">
<rect x="0" y="0" width="517" height="517" style="fill:rgb(90%,90%,90%);fill-opacity:1;stroke:none;"/>
<path style="fill-rule:nonzero;fill:rgb(100%,100%,0%);fill-opacity:1;stroke-width:1;stroke-linecap:butt;stroke-linejoin:miter;stroke:rgb(0%,0%,0%);stroke-opacity:1;stroke-miterlimit:10;" d="M 287.570312 67.78125 L 267.570312 67.78125 L 267.570312 77.78125 L 287.570312 77.78125 L 287.570312 97.78125 L 297.570312 97.78125 L 297.570312 77.78125 L 317.570312 77.78125 L 317.570312 67.78125 L 297.570312 67.78125 L 297.570312 47.78125 L 287.570312 47.78125 L 287.570312 67.78125 "/>
<path style="fill-rule:nonzero;fill:rgb(100%,100%,0%);fill-opacity:1;stroke-width:1;stroke-linecap:butt;stroke-linejoin:miter;stroke:rgb(0%,0%,0%);stroke-opacity:1;stroke-miterlimit:10;" d="M 462.558594 374.507812 L 442.558594 374.507812 L 442.558594 384.507812 L 462.558594 384.507812 L 462.558594 404.507812 L 472.558594 404.507812 L 472.558594 384.507812 L 492.558594 384.507812 L 492.558594 374.507812 L 472.558594 374.507812 L 472.558594 354.507812 L 462.558594 354.507812 L 462.558594 374.507812 "/>
<path style="fill-rule:nonzero;fill:rgb(100%,100%,0%);fill-opacity:1;stroke-width:1;stroke-linecap:butt;stroke-linejoin:miter;stroke:rgb(0%,0%,0%);stroke-opacity:1;stroke-miterlimit:10;" d="M 380.472656 401.746094 L 360.472656 401.746094 L 360.472656 411.746094 L 380.472656 411.746094 L 380.472656 431.746094 L 390.472656 431.746094 L 390.472656 411.746094 L 410.472656 411.746094 L 410.472656 401.746094 L 390.472656 401.746094 L 390.472656 381.746094 L 380.472656 381.746094 L 380.472656 401.746094 "/>
<path style="fill-rule:nonzero;fill:rgb(100%,100%,0%);fill-opacity:1;stroke-width:1;stroke-linecap:butt;stroke-linejoin:miter;stroke:rgb(0%,0%,0%);stroke-opacity:1;stroke-miterlimit:10;" d="M 372.019531 293.804688 L 352.019531 293.804688 L 352.019531 303.804688 L 372.019531 303.804688 L 372.019531 323.804688 L 382.019531 323.804688 L 382.019531 303.804688 L 402.019531 303.804688 L 402.019531 293.804688 L 382.019531 293.804688 L 382.019531 273.804688 L 372.019531 273.804688 L 372.019531 293.804688 "/>
<path style="fill-rule:nonzero;fill:rgb(100%,100%,0%);fill-opacity:1;stroke-width:1;stroke-linecap:butt;stroke-linejoin:miter;stroke:rgb(0%,0%,0%);stroke-opacity:1;stroke-miterlimit:10;" d="M 287.066406 313.667969 L 267.066406 313.667969 L 267.066406 323.667969 L 287.066406 323.667969 L 287.066406 343.667969 L 297.066406 343.667969 L 297.066406 323.667969 L 317.066406 323.667969 L 317.066406 313.667969 L 297.066406 313.667969 L 297.066406 293.667969 L 287.066406 293.667969 L 287.066406 313.667969 "/>
<path style="fill-rule:nonzero;fill:rgb(100%,100%,0%);fill-opacity:1;stroke-width:1;stroke-linecap:butt;stroke-linejoin:miter;stroke:rgb(0%,0%,0%);stroke-opacity:1;stroke-miterlimit:10;" d="M 125.15625 164.421875 L 105.15625 164.421875 L 105.15625 174.421875 L 125.15625 174.421875 L 125.15625 194.421875 L 135.15625 194.421875 L 135.15625 174.421875 L 155.15625 174.421875 L 155.15625 164.421875 L 135.15625 164.421875 L 135.15625 144.421875 L 125.15625 144.421875 L 125.15625 164.421875 "/>
<path style="fill-rule:nonzero;fill:rgb(100%,100%,0%);fill-opacity:1;stroke-width:1;stroke-linecap:butt;stroke-linejoin:miter;stroke:rgb(0%,0%,0%);stroke-opacity:1;stroke-miterlimit:10;" d="M 32.992188 208.988281 L 12.992188 208.988281 L 12.992188 218.988281 L 32.992188 218.988281 L 32.992188 238.988281 L 42.992188 238.988281 L 42.992188 218.988281 L 62.992188 218.988281 L 62.992188 208.988281 L 42.992188 208.988281 L 42.992188 188.988281 L 32.992188 188.988281 L 32.992188 208.988281 "/>
<path style="fill-rule:nonzero;fill:rgb(100%,100%,0%);fill-opacity:1;stroke-width:1;stroke-linecap:butt;stroke-linejoin:miter;stroke:rgb(0%,0%,0%);stroke-opacity:1;stroke-miterlimit:10;" d="M 182.355469 140.320312 L 162.355469 140.320312 L 162.355469 150.320312 L 182.355469 150.320312 L 182.355469 170.320312 L 192.355469 170.320312 L 192.355469 150.320312 L 212.355469 150.320312 L 212.355469 140.320312 L 192.355469 140.320312 L 192.355469 120.320312 L 182.355469 120.320312 L 182.355469 140.320312 "/>
</g>
</svg>
