<?xml version="1.0" encoding="UTF-8"?>
<svg xmlns="http://www.w3.org/2000/svg" xmlns:xlink="http://www.w3.org/1999/xlink" width="517pt" height="517pt" viewBox="0 0 517 517" version="1.1">
<g id="surface5166">
<rect x="0" y="0" width="517" height="517" style="fill:rgb(90%,90%,90%);fill-opacity:1;stroke:none;"/>
<path style="fill-rule:nonzero;fill:rgb(35%,70%,90%);fill-opacity:1;stroke-width:1;stroke-linecap:butt;stroke-linejoin:miter;stroke:rgb(0%,0%,0%);stroke-opacity:1;stroke-miterlimit:10;" d="M 337.234375 57.015625 C 337.234375 73.585938 323.804688 87.015625 307.234375 87.015625 C 290.664062 87.015625 277.234375 73.585938 277.234375 57.015625 C 277.234375 40.449219 290.664062 27.015625 307.234375 27.015625 C 323.804688 27.015625 337.234375 40.449219 337.234375 57.015625 "/>
<path style="fill-rule:nonzero;fill:rgb(35%,70%,90%);fill-opacity:1;stroke-width:1;stroke-linecap:butt;stroke-linejoin:miter;stroke:rgb(0%,0%,0%);stroke-opacity:1;stroke-miterlimit:10;" d="M 441.886719 105.835938 C 441.886719 122.402344 428.457031 135.835938 411.886719 135.835938 C 395.320312 135.835938 381.886719 122.402344 381.886719 105.835938 C 381.886719 89.265625 395.320312 75.835938 411.886719 75.835938 C 428.457031 75.835938 441.886719 89.265625 441.886719 105.835938 "/>
<path style="fill-rule:nonzero;fill:rgb(35%,70%,90%);fill-opacity:1;stroke-width:1;stroke-linecap:butt;stroke-linejoin:miter;stroke:rgb(0%,0%,0%);stroke-opacity:1;stroke-miterlimit:10;" d="M 133.894531 445.503906 C 133.894531 462.070312 120.464844 475.503906 103.894531 475.503906 C 87.328125 475.503906 73.894531 462.070312 73.894531 445.503906 C 73.894531 428.933594 87.328125 415.503906 103.894531 415.503906 C 120.464844 415.503906 133.894531 428.933594 133.894531 445.503906 "/>
<path style="fill-rule:nonzero;fill:rgb(35%,70%,90%);fill-opacity:1;stroke-width:1;stroke-linecap:butt;stroke-linejoin:miter;stroke:rgb(0%,0%,0%);stroke-opacity:1;stroke-miterlimit:10;" d="M 225.363281 420.796875 C 225.363281 437.363281 211.929688 450.796875 195.363281 450.796875 C 178.792969 450.796875 165.363281 437.363281 165.363281 420.796875 C 165.363281 404.226562 178.792969 390.796875 195.363281 390.796875 C 211.929688 390.796875 225.363281 404.226562 225.363281 420.796875 "/>
<path style="fill-rule:nonzero;fill:rgb(35%,70%,90%);fill-opacity:1;stroke-width:1;stroke-linecap:butt;stroke-linejoin:miter;stroke:rgb(0%,0%,0%);stroke-opacity:1;stroke-miterlimit:10;" d="M 147.117188 326.75 C 147.117188 343.316406 133.6875 356.75 117.117188 356.75 C 100.550781 356.75 87.117188 343.316406 87.117188 326.75 C 87.117188 310.179688 100.550781 296.75 117.117188 296.75 C 133.6875 296.75 147.117188 310.179688 147.117188 326.75 "/>
<path style="fill-rule:nonzero;fill:rgb(35%,70%,90%);fill-opacity:1;stroke-width:1;stroke-linecap:butt;stroke-linejoin:miter;stroke:rgb(0%,0%,0%);stroke-opacity:1;stroke-miterlimit:10;" d="M 81.015625 314.914062 C 81.015625 331.484375 67.585938 344.914062 51.015625 344.914062 C 34.449219 344.914062 21.015625 331.484375 21.015625 314.914062 C 21.015625 298.347656 34.449219 284.914062 51.015625 284.914062 C 67.585938 284.914062 81.015625 298.347656 81.015625 314.914062 "/>
<path style="fill-rule:nonzero;fill:rgb(35%,70%,90%);fill-opacity:1;stroke-width:1;stroke-linecap:butt;stroke-linejoin:miter;stroke:rgb(0%,0%,0%);stroke-opacity:1;stroke-miterlimit:10;" d="M 191.417969 471.722656 C 191.417969 488.289062 177.984375 501.722656 161.417969 501.722656 C 144.847656 501.722656 131.417969 488.289062 131.417969 471.722656 C 131.417969 455.152344 144.847656 441.722656 161.417969 441.722656 C 177.984375 441.722656 191.417969 455.152344 191.417969 471.722656 "/>
<path style="fill-rule:nonzero;fill:rgb(35%,70%,90%);fill-opacity:1;stroke-width:1;stroke-linecap:butt;stroke-linejoin:miter;stroke:rgb(0%,0%,0%);stroke-opacity:1;stroke-miterlimit:10;" d="M 164.023438 191.113281 C 164.023438 207.683594 150.589844 221.113281 134.023438 221.113281 C 117.453125 221.113281 104.023438 207.683594 104.023438 191.113281 C 104.023438 174.546875 117.453125 161.113281 134.023438 161.113281 C 150.589844 161.113281 164.023438 174.546875 164.023438 191.113281 "/>
</g>
</svg>
