<?xml version="1.0" encoding="UTF-8"?>
<svg xmlns="http://www.w3.org/2000/svg" xmlns:xlink="http://www.w3.org/1999/xlink" width="517pt" height="517pt" viewBox="0 0 517 517" version="1.1">
<g id="surface1061">
<rect x="0" y="0" width="517" height="517" style="fill:rgb(90%,90%,90%);fill-opacity:1;stroke:none;"/>
<path style="fill:none;stroke-width:5;stroke-linecap:butt;stroke-linejoin:round;stroke:rgb(100%,0%,0%);stroke-opacity:1;stroke-miterlimit:10;" d="M 5 261 L 261 261 L 261 517 L 5 517 Z M 5 261 "/>
<path style="fill-rule:nonzero;fill:rgb(100%,0%,0%);fill-opacity:1;stroke-width:1;stroke-linecap:butt;stroke-linejoin:round;stroke:rgb(0%,0%,0%);stroke-opacity:1;stroke-miterlimit:10;" d="M 152.003906 370.691406 C 152.003906 356.292969 128.003906 356.292969 128.003906 370.691406 C 128.003906 385.09375 152.003906 387.492188 152.003906 399.492188 C 152.003906 387.492188 176.003906 385.09375 176.003906 370.691406 C 176.003906 356.292969 152.003906 356.292969 152.003906 370.691406 "/>
<path style="fill-rule:nonzero;fill:rgb(35%,70%,90%);fill-opacity:1;stroke-width:1;stroke-linecap:butt;stroke-linejoin:round;stroke:rgb(0%,0%,0%);stroke-opacity:1;stroke-miterlimit:10;" d="M 366.675781 427.417969 C 366.675781 413.019531 342.675781 413.019531 342.675781 427.417969 C 342.675781 441.816406 366.675781 444.21875 366.675781 456.21875 C 366.675781 444.21875 390.675781 441.816406 390.675781 427.417969 C 390.675781 413.019531 366.675781 413.019531 366.675781 427.417969 "/>
<path style="fill-rule:nonzero;fill:rgb(35%,70%,90%);fill-opacity:1;stroke-width:1;stroke-linecap:butt;stroke-linejoin:round;stroke:rgb(0%,0%,0%);stroke-opacity:1;stroke-miterlimit:10;" d="M 351.238281 205.378906 C 351.238281 190.980469 327.238281 190.980469 327.238281 205.378906 C 327.238281 219.777344 351.238281 222.179688 351.238281 234.179688 C 351.238281 222.179688 375.238281 219.777344 375.238281 205.378906 C 375.238281 190.980469 351.238281 190.980469 351.238281 205.378906 "/>
<path style="fill-rule:nonzero;fill:rgb(100%,0%,0%);fill-opacity:1;stroke-width:1;stroke-linecap:butt;stroke-linejoin:round;stroke:rgb(0%,0%,0%);stroke-opacity:1;stroke-miterlimit:10;" d="M 407.347656 79.359375 C 407.347656 64.960938 383.347656 64.960938 383.347656 79.359375 C 383.347656 93.757812 407.347656 96.160156 407.347656 108.160156 C 407.347656 96.160156 431.347656 93.757812 431.347656 79.359375 C 431.347656 64.960938 407.347656 64.960938 407.347656 79.359375 "/>
</g>
</svg>
