<?xml version="1.0" encoding="UTF-8"?>
<svg xmlns="http://www.w3.org/2000/svg" xmlns:xlink="http://www.w3.org/1999/xlink" width="517pt" height="517pt" viewBox="0 0 517 517" version="1.1">
<g id="surface6096">
<rect x="0" y="0" width="517" height="517" style="fill:rgb(90%,90%,90%);fill-opacity:1;stroke:none;"/>
<path style="fill-rule:nonzero;fill:rgb(90%,65%,0%);fill-opacity:1;stroke-width:1;stroke-linecap:butt;stroke-linejoin:miter;stroke:rgb(0%,0%,0%);stroke-opacity:1;stroke-miterlimit:10;" d="M 354.085938 461.179688 L 334.085938 461.179688 L 334.085938 471.179688 L 354.085938 471.179688 L 354.085938 491.179688 L 364.085938 491.179688 L 364.085938 471.179688 L 384.085938 471.179688 L 384.085938 461.179688 L 364.085938 461.179688 L 364.085938 441.179688 L 354.085938 441.179688 L 354.085938 461.179688 "/>
<path style="fill-rule:nonzero;fill:rgb(67%,100%,18%);fill-opacity:1;stroke-width:1;stroke-linecap:butt;stroke-linejoin:miter;stroke:rgb(0%,0%,0%);stroke-opacity:1;stroke-miterlimit:10;" d="M 96.488281 315.078125 L 76.488281 315.078125 L 76.488281 325.078125 L 96.488281 325.078125 L 96.488281 345.078125 L 106.488281 345.078125 L 106.488281 325.078125 L 126.488281 325.078125 L 126.488281 315.078125 L 106.488281 315.078125 L 106.488281 295.078125 L 96.488281 295.078125 L 96.488281 315.078125 "/>
<path style="fill-rule:nonzero;fill:rgb(67%,100%,18%);fill-opacity:1;stroke-width:1;stroke-linecap:butt;stroke-linejoin:miter;stroke:rgb(0%,0%,0%);stroke-opacity:1;stroke-miterlimit:10;" d="M 191.121094 409.632812 L 171.121094 409.632812 L 171.121094 419.632812 L 191.121094 419.632812 L 191.121094 439.632812 L 201.121094 439.632812 L 201.121094 419.632812 L 221.121094 419.632812 L 221.121094 409.632812 L 201.121094 409.632812 L 201.121094 389.632812 L 191.121094 389.632812 L 191.121094 409.632812 "/>
<path style="fill-rule:nonzero;fill:rgb(67%,100%,18%);fill-opacity:1;stroke-width:1;stroke-linecap:butt;stroke-linejoin:miter;stroke:rgb(0%,0%,0%);stroke-opacity:1;stroke-miterlimit:10;" d="M 113.933594 188.210938 L 93.933594 188.210938 L 93.933594 198.210938 L 113.933594 198.210938 L 113.933594 218.210938 L 123.933594 218.210938 L 123.933594 198.210938 L 143.933594 198.210938 L 143.933594 188.210938 L 123.933594 188.210938 L 123.933594 168.210938 L 113.933594 168.210938 L 113.933594 188.210938 "/>
<path style="fill-rule:nonzero;fill:rgb(67%,100%,18%);fill-opacity:1;stroke-width:1;stroke-linecap:butt;stroke-linejoin:miter;stroke:rgb(0%,0%,0%);stroke-opacity:1;stroke-miterlimit:10;" d="M 122.203125 97.640625 L 102.203125 97.640625 L 102.203125 107.640625 L 122.203125 107.640625 L 122.203125 127.640625 L 132.203125 127.640625 L 132.203125 107.640625 L 152.203125 107.640625 L 152.203125 97.640625 L 132.203125 97.640625 L 132.203125 77.640625 L 122.203125 77.640625 L 122.203125 97.640625 "/>
<path style="fill-rule:nonzero;fill:rgb(67%,100%,18%);fill-opacity:1;stroke-width:1;stroke-linecap:butt;stroke-linejoin:miter;stroke:rgb(0%,0%,0%);stroke-opacity:1;stroke-miterlimit:10;" d="M 37.324219 151.457031 L 17.324219 151.457031 L 17.324219 161.457031 L 37.324219 161.457031 L 37.324219 181.457031 L 47.324219 181.457031 L 47.324219 161.457031 L 67.324219 161.457031 L 67.324219 151.457031 L 47.324219 151.457031 L 47.324219 131.457031 L 37.324219 131.457031 L 37.324219 151.457031 "/>
<path style="fill-rule:nonzero;fill:rgb(67%,100%,18%);fill-opacity:1;stroke-width:1;stroke-linecap:butt;stroke-linejoin:miter;stroke:rgb(0%,0%,0%);stroke-opacity:1;stroke-miterlimit:10;" d="M 32.734375 57.90625 L 12.734375 57.90625 L 12.734375 67.90625 L 32.734375 67.90625 L 32.734375 87.90625 L 42.734375 87.90625 L 42.734375 67.90625 L 62.734375 67.90625 L 62.734375 57.90625 L 42.734375 57.90625 L 42.734375 37.90625 L 32.734375 37.90625 L 32.734375 57.90625 "/>
<path style="fill-rule:nonzero;fill:rgb(67%,100%,18%);fill-opacity:1;stroke-width:1;stroke-linecap:butt;stroke-linejoin:miter;stroke:rgb(0%,0%,0%);stroke-opacity:1;stroke-miterlimit:10;" d="M 166.964844 139.503906 L 146.964844 139.503906 L 146.964844 149.503906 L 166.964844 149.503906 L 166.964844 169.503906 L 176.964844 169.503906 L 176.964844 149.503906 L 196.964844 149.503906 L 196.964844 139.503906 L 176.964844 139.503906 L 176.964844 119.503906 L 166.964844 119.503906 L 166.964844 139.503906 "/>
</g>
</svg>
