<?xml version="1.0" encoding="UTF-8"?>
<svg xmlns="http://www.w3.org/2000/svg" xmlns:xlink="http://www.w3.org/1999/xlink" width="517pt" height="517pt" viewBox="0 0 517 517" version="1.1">
<g id="surface1396">
<rect x="0" y="0" width="517" height="517" style="fill:rgb(90%,90%,90%);fill-opacity:1;stroke:none;"/>
<path style="fill:none;stroke-width:5;stroke-linecap:butt;stroke-linejoin:round;stroke:rgb(100%,0%,0%);stroke-opacity:1;stroke-miterlimit:10;" d="M 261 261 L 517 261 L 517 517 L 261 517 Z M 261 261 "/>
<path style="fill-rule:nonzero;fill:rgb(0%,0%,0%);fill-opacity:1;stroke-width:1;stroke-linecap:butt;stroke-linejoin:round;stroke:rgb(0%,0%,0%);stroke-opacity:1;stroke-miterlimit:10;" d="M 417.617188 358.09375 C 417.617188 374.664062 404.183594 388.09375 387.617188 388.09375 C 371.046875 388.09375 357.617188 374.664062 357.617188 358.09375 C 357.617188 341.527344 371.046875 328.09375 387.617188 328.09375 C 404.183594 328.09375 417.617188 341.527344 417.617188 358.09375 "/>
<path style="fill-rule:nonzero;fill:rgb(100%,0%,0%);fill-opacity:1;stroke-width:1;stroke-linecap:butt;stroke-linejoin:round;stroke:rgb(0%,0%,0%);stroke-opacity:1;stroke-miterlimit:10;" d="M 131.675781 130.921875 C 131.675781 147.492188 118.242188 160.921875 101.675781 160.921875 C 85.105469 160.921875 71.675781 147.492188 71.675781 130.921875 C 71.675781 114.355469 85.105469 100.921875 101.675781 100.921875 C 118.242188 100.921875 131.675781 114.355469 131.675781 130.921875 "/>
<path style="fill-rule:nonzero;fill:rgb(100%,0%,0%);fill-opacity:1;stroke-width:1;stroke-linecap:butt;stroke-linejoin:round;stroke:rgb(0%,0%,0%);stroke-opacity:1;stroke-miterlimit:10;" d="M 198.96875 61.980469 C 198.96875 78.546875 185.539062 91.980469 168.96875 91.980469 C 152.402344 91.980469 138.96875 78.546875 138.96875 61.980469 C 138.96875 45.410156 152.402344 31.980469 168.96875 31.980469 C 185.539062 31.980469 198.96875 45.410156 198.96875 61.980469 "/>
<path style="fill-rule:nonzero;fill:rgb(0%,0%,0%);fill-opacity:1;stroke-width:1;stroke-linecap:butt;stroke-linejoin:round;stroke:rgb(0%,0%,0%);stroke-opacity:1;stroke-miterlimit:10;" d="M 231.503906 314.902344 C 231.503906 331.46875 218.074219 344.902344 201.503906 344.902344 C 184.933594 344.902344 171.503906 331.46875 171.503906 314.902344 C 171.503906 298.332031 184.933594 284.902344 201.503906 284.902344 C 218.074219 284.902344 231.503906 298.332031 231.503906 314.902344 "/>
</g>
</svg>
