<?xml version="1.0" encoding="UTF-8"?>
<svg xmlns="http://www.w3.org/2000/svg" xmlns:xlink="http://www.w3.org/1999/xlink" width="517pt" height="517pt" viewBox="0 0 517 517" version="1.1">
<g id="surface1176">
<rect x="0" y="0" width="517" height="517" style="fill:rgb(90%,90%,90%);fill-opacity:1;stroke:none;"/>
<path style="fill:none;stroke-width:5;stroke-linecap:butt;stroke-linejoin:round;stroke:rgb(100%,0%,0%);stroke-opacity:1;stroke-miterlimit:10;" d="M 5 261 L 261 261 L 261 517 L 5 517 Z M 5 261 "/>
<path style="fill-rule:nonzero;fill:rgb(35%,70%,90%);fill-opacity:1;stroke-width:1;stroke-linecap:butt;stroke-linejoin:round;stroke:rgb(0%,0%,0%);stroke-opacity:1;stroke-miterlimit:10;" d="M 89.140625 304.097656 L 69.140625 304.097656 L 69.140625 314.097656 L 89.140625 314.097656 L 89.140625 334.097656 L 99.140625 334.097656 L 99.140625 314.097656 L 119.140625 314.097656 L 119.140625 304.097656 L 99.140625 304.097656 L 99.140625 284.097656 L 89.140625 284.097656 L 89.140625 304.097656 "/>
<path style="fill-rule:nonzero;fill:rgb(100%,0%,0%);fill-opacity:1;stroke-width:1;stroke-linecap:butt;stroke-linejoin:round;stroke:rgb(0%,0%,0%);stroke-opacity:1;stroke-miterlimit:10;" d="M 313.84375 417.664062 L 293.84375 417.664062 L 293.84375 427.664062 L 313.84375 427.664062 L 313.84375 447.664062 L 323.84375 447.664062 L 323.84375 427.664062 L 343.84375 427.664062 L 343.84375 417.664062 L 323.84375 417.664062 L 323.84375 397.664062 L 313.84375 397.664062 L 313.84375 417.664062 "/>
<path style="fill-rule:nonzero;fill:rgb(35%,70%,90%);fill-opacity:1;stroke-width:1;stroke-linecap:butt;stroke-linejoin:round;stroke:rgb(0%,0%,0%);stroke-opacity:1;stroke-miterlimit:10;" d="M 188.269531 113.089844 L 168.269531 113.089844 L 168.269531 123.089844 L 188.269531 123.089844 L 188.269531 143.089844 L 198.269531 143.089844 L 198.269531 123.089844 L 218.269531 123.089844 L 218.269531 113.089844 L 198.269531 113.089844 L 198.269531 93.089844 L 188.269531 93.089844 L 188.269531 113.089844 "/>
<path style="fill-rule:nonzero;fill:rgb(35%,70%,90%);fill-opacity:1;stroke-width:1;stroke-linecap:butt;stroke-linejoin:round;stroke:rgb(0%,0%,0%);stroke-opacity:1;stroke-miterlimit:10;" d="M 107.519531 49.445312 L 87.519531 49.445312 L 87.519531 59.445312 L 107.519531 59.445312 L 107.519531 79.445312 L 117.519531 79.445312 L 117.519531 59.445312 L 137.519531 59.445312 L 137.519531 49.445312 L 117.519531 49.445312 L 117.519531 29.445312 L 107.519531 29.445312 L 107.519531 49.445312 "/>
</g>
</svg>
