<?xml version="1.0" encoding="UTF-8"?>
<svg xmlns="http://www.w3.org/2000/svg" xmlns:xlink="http://www.w3.org/1999/xlink" width="517pt" height="517pt" viewBox="0 0 517 517" version="1.1">
<g id="surface1496">
<rect x="0" y="0" width="517" height="517" style="fill:rgb(90%,90%,90%);fill-opacity:1;stroke:none;"/>
<path style="fill:none;stroke-width:5;stroke-linecap:butt;stroke-linejoin:round;stroke:rgb(100%,0%,0%);stroke-opacity:1;stroke-miterlimit:10;" d="M 261 261 L 517 261 L 517 517 L 261 517 Z M 261 261 "/>
<path style="fill-rule:nonzero;fill:rgb(100%,100%,0%);fill-opacity:1;stroke-width:1;stroke-linecap:butt;stroke-linejoin:round;stroke:rgb(0%,0%,0%);stroke-opacity:1;stroke-miterlimit:10;" d="M 378.4375 452.6875 C 378.4375 438.289062 354.4375 438.289062 354.4375 452.6875 C 354.4375 467.085938 378.4375 469.488281 378.4375 481.488281 C 378.4375 469.488281 402.4375 467.085938 402.4375 452.6875 C 402.4375 438.289062 378.4375 438.289062 378.4375 452.6875 "/>
<path style="fill-rule:nonzero;fill:rgb(50%,0%,50%);fill-opacity:1;stroke-width:1;stroke-linecap:butt;stroke-linejoin:round;stroke:rgb(0%,0%,0%);stroke-opacity:1;stroke-miterlimit:10;" d="M 153.136719 277.738281 C 153.136719 263.335938 129.136719 263.335938 129.136719 277.738281 C 129.136719 292.136719 153.136719 294.539062 153.136719 306.539062 C 153.136719 294.539062 177.136719 292.136719 177.136719 277.738281 C 177.136719 263.335938 153.136719 263.335938 153.136719 277.738281 "/>
<path style="fill-rule:nonzero;fill:rgb(100%,100%,0%);fill-opacity:1;stroke-width:1;stroke-linecap:butt;stroke-linejoin:round;stroke:rgb(0%,0%,0%);stroke-opacity:1;stroke-miterlimit:10;" d="M 176.128906 201.089844 C 176.128906 186.691406 152.128906 186.691406 152.128906 201.089844 C 152.128906 215.492188 176.128906 217.890625 176.128906 229.890625 C 176.128906 217.890625 200.128906 215.492188 200.128906 201.089844 C 200.128906 186.691406 176.128906 186.691406 176.128906 201.089844 "/>
<path style="fill-rule:nonzero;fill:rgb(100%,100%,0%);fill-opacity:1;stroke-width:1;stroke-linecap:butt;stroke-linejoin:round;stroke:rgb(0%,0%,0%);stroke-opacity:1;stroke-miterlimit:10;" d="M 114.152344 62.367188 C 114.152344 47.96875 90.152344 47.96875 90.152344 62.367188 C 90.152344 76.765625 114.152344 79.167969 114.152344 91.167969 C 114.152344 79.167969 138.152344 76.765625 138.152344 62.367188 C 138.152344 47.96875 114.152344 47.96875 114.152344 62.367188 "/>
</g>
</svg>
