<?xml version="1.0" encoding="UTF-8"?>
<svg xmlns="http://www.w3.org/2000/svg" xmlns:xlink="http://www.w3.org/1999/xlink" width="517pt" height="517pt" viewBox="0 0 517 517" version="1.1">
<g id="surface981">
<rect x="0" y="0" width="517" height="517" style="fill:rgb(90%,90%,90%);fill-opacity:1;stroke:none;"/>
<path style="fill:none;stroke-width:5;stroke-linecap:butt;stroke-linejoin:round;stroke:rgb(100%,0%,0%);stroke-opacity:1;stroke-miterlimit:10;" d="M 5 261 L 261 261 L 261 517 L 5 517 Z M 5 261 "/>
<path style="fill-rule:nonzero;fill:rgb(50%,0%,50%);fill-opacity:1;stroke-width:1;stroke-linecap:butt;stroke-linejoin:round;stroke:rgb(0%,0%,0%);stroke-opacity:1;stroke-miterlimit:10;" d="M 240.828125 430.789062 C 240.828125 447.355469 227.394531 460.789062 210.828125 460.789062 C 194.257812 460.789062 180.828125 447.355469 180.828125 430.789062 C 180.828125 414.21875 194.257812 400.789062 210.828125 400.789062 C 227.394531 400.789062 240.828125 414.21875 240.828125 430.789062 "/>
<path style="fill-rule:nonzero;fill:rgb(53%,27%,7%);fill-opacity:1;stroke-width:1;stroke-linecap:butt;stroke-linejoin:round;stroke:rgb(0%,0%,0%);stroke-opacity:1;stroke-miterlimit:10;" d="M 65.644531 157.734375 C 65.644531 174.304688 52.210938 187.734375 35.644531 187.734375 C 19.074219 187.734375 5.644531 174.304688 5.644531 157.734375 C 5.644531 141.167969 19.074219 127.734375 35.644531 127.734375 C 52.210938 127.734375 65.644531 141.167969 65.644531 157.734375 "/>
<path style="fill-rule:nonzero;fill:rgb(53%,27%,7%);fill-opacity:1;stroke-width:1;stroke-linecap:butt;stroke-linejoin:round;stroke:rgb(0%,0%,0%);stroke-opacity:1;stroke-miterlimit:10;" d="M 210.136719 186.5 C 210.136719 203.070312 196.707031 216.5 180.136719 216.5 C 163.566406 216.5 150.136719 203.070312 150.136719 186.5 C 150.136719 169.933594 163.566406 156.5 180.136719 156.5 C 196.707031 156.5 210.136719 169.933594 210.136719 186.5 "/>
<path style="fill-rule:nonzero;fill:rgb(50%,0%,50%);fill-opacity:1;stroke-width:1;stroke-linecap:butt;stroke-linejoin:round;stroke:rgb(0%,0%,0%);stroke-opacity:1;stroke-miterlimit:10;" d="M 472.183594 180.359375 C 472.183594 196.929688 458.75 210.359375 442.183594 210.359375 C 425.613281 210.359375 412.183594 196.929688 412.183594 180.359375 C 412.183594 163.792969 425.613281 150.359375 442.183594 150.359375 C 458.75 150.359375 472.183594 163.792969 472.183594 180.359375 "/>
</g>
</svg>
