<?xml version="1.0" encoding="UTF-8"?>
<svg xmlns="http://www.w3.org/2000/svg" xmlns:xlink="http://www.w3.org/1999/xlink" width="517pt" height="517pt" viewBox="0 0 517 517" version="1.1">
<g id="surface6036">
<rect x="0" y="0" width="517" height="517" style="fill:rgb(90%,90%,90%);fill-opacity:1;stroke:none;"/>
<path style="fill-rule:nonzero;fill:rgb(0%,0%,0%);fill-opacity:1;stroke-width:1;stroke-linecap:butt;stroke-linejoin:miter;stroke:rgb(0%,0%,0%);stroke-opacity:1;stroke-miterlimit:10;" d="M 361.832031 155.414062 L 341.832031 155.414062 L 341.832031 165.414062 L 361.832031 165.414062 L 361.832031 185.414062 L 371.832031 185.414062 L 371.832031 165.414062 L 391.832031 165.414062 L 391.832031 155.414062 L 371.832031 155.414062 L 371.832031 135.414062 L 361.832031 135.414062 L 361.832031 155.414062 "/>
<path style="fill-rule:nonzero;fill:rgb(0%,0%,0%);fill-opacity:1;stroke-width:1;stroke-linecap:butt;stroke-linejoin:miter;stroke:rgb(0%,0%,0%);stroke-opacity:1;stroke-miterlimit:10;" d="M 327.679688 103.648438 L 307.679688 103.648438 L 307.679688 113.648438 L 327.679688 113.648438 L 327.679688 133.648438 L 337.679688 133.648438 L 337.679688 113.648438 L 357.679688 113.648438 L 357.679688 103.648438 L 337.679688 103.648438 L 337.679688 83.648438 L 327.679688 83.648438 L 327.679688 103.648438 "/>
<path style="fill-rule:nonzero;fill:rgb(0%,0%,0%);fill-opacity:1;stroke-width:1;stroke-linecap:butt;stroke-linejoin:miter;stroke:rgb(0%,0%,0%);stroke-opacity:1;stroke-miterlimit:10;" d="M 30.640625 419.230469 L 10.640625 419.230469 L 10.640625 429.230469 L 30.640625 429.230469 L 30.640625 449.230469 L 40.640625 449.230469 L 40.640625 429.230469 L 60.640625 429.230469 L 60.640625 419.230469 L 40.640625 419.230469 L 40.640625 399.230469 L 30.640625 399.230469 L 30.640625 419.230469 "/>
<path style="fill-rule:nonzero;fill:rgb(35%,70%,90%);fill-opacity:1;stroke-width:1;stroke-linecap:butt;stroke-linejoin:miter;stroke:rgb(0%,0%,0%);stroke-opacity:1;stroke-miterlimit:10;" d="M 189.558594 332.269531 L 169.558594 332.269531 L 169.558594 342.269531 L 189.558594 342.269531 L 189.558594 362.269531 L 199.558594 362.269531 L 199.558594 342.269531 L 219.558594 342.269531 L 219.558594 332.269531 L 199.558594 332.269531 L 199.558594 312.269531 L 189.558594 312.269531 L 189.558594 332.269531 "/>
<path style="fill-rule:nonzero;fill:rgb(35%,70%,90%);fill-opacity:1;stroke-width:1;stroke-linecap:butt;stroke-linejoin:miter;stroke:rgb(0%,0%,0%);stroke-opacity:1;stroke-miterlimit:10;" d="M 102.539062 381.484375 L 82.539062 381.484375 L 82.539062 391.484375 L 102.539062 391.484375 L 102.539062 411.484375 L 112.539062 411.484375 L 112.539062 391.484375 L 132.539062 391.484375 L 132.539062 381.484375 L 112.539062 381.484375 L 112.539062 361.484375 L 102.539062 361.484375 L 102.539062 381.484375 "/>
<path style="fill-rule:nonzero;fill:rgb(35%,70%,90%);fill-opacity:1;stroke-width:1;stroke-linecap:butt;stroke-linejoin:miter;stroke:rgb(0%,0%,0%);stroke-opacity:1;stroke-miterlimit:10;" d="M 103.042969 308.984375 L 83.042969 308.984375 L 83.042969 318.984375 L 103.042969 318.984375 L 103.042969 338.984375 L 113.042969 338.984375 L 113.042969 318.984375 L 133.042969 318.984375 L 133.042969 308.984375 L 113.042969 308.984375 L 113.042969 288.984375 L 103.042969 288.984375 L 103.042969 308.984375 "/>
<path style="fill-rule:nonzero;fill:rgb(35%,70%,90%);fill-opacity:1;stroke-width:1;stroke-linecap:butt;stroke-linejoin:miter;stroke:rgb(0%,0%,0%);stroke-opacity:1;stroke-miterlimit:10;" d="M 125.769531 448.324219 L 105.769531 448.324219 L 105.769531 458.324219 L 125.769531 458.324219 L 125.769531 478.324219 L 135.769531 478.324219 L 135.769531 458.324219 L 155.769531 458.324219 L 155.769531 448.324219 L 135.769531 448.324219 L 135.769531 428.324219 L 125.769531 428.324219 L 125.769531 448.324219 "/>
<path style="fill-rule:nonzero;fill:rgb(35%,70%,90%);fill-opacity:1;stroke-width:1;stroke-linecap:butt;stroke-linejoin:miter;stroke:rgb(0%,0%,0%);stroke-opacity:1;stroke-miterlimit:10;" d="M 193.4375 439.078125 L 173.4375 439.078125 L 173.4375 449.078125 L 193.4375 449.078125 L 193.4375 469.078125 L 203.4375 469.078125 L 203.4375 449.078125 L 223.4375 449.078125 L 223.4375 439.078125 L 203.4375 439.078125 L 203.4375 419.078125 L 193.4375 419.078125 L 193.4375 439.078125 "/>
</g>
</svg>
