<?xml version="1.0" encoding="UTF-8"?>
<svg xmlns="http://www.w3.org/2000/svg" xmlns:xlink="http://www.w3.org/1999/xlink" width="517pt" height="517pt" viewBox="0 0 517 517" version="1.1">
<g id="surface1501">
<rect x="0" y="0" width="517" height="517" style="fill:rgb(90%,90%,90%);fill-opacity:1;stroke:none;"/>
<path style="fill:none;stroke-width:5;stroke-linecap:butt;stroke-linejoin:round;stroke:rgb(100%,0%,0%);stroke-opacity:1;stroke-miterlimit:10;" d="M 261 261 L 517 261 L 517 517 L 261 517 Z M 261 261 "/>
<path style="fill-rule:nonzero;fill:rgb(50%,0%,50%);fill-opacity:1;stroke-width:1;stroke-linecap:butt;stroke-linejoin:round;stroke:rgb(0%,0%,0%);stroke-opacity:1;stroke-miterlimit:10;" d="M 427.285156 446.210938 C 427.285156 431.808594 403.285156 431.808594 403.285156 446.210938 C 403.285156 460.609375 427.285156 463.007812 427.285156 475.007812 C 427.285156 463.007812 451.285156 460.609375 451.285156 446.210938 C 451.285156 431.808594 427.285156 431.808594 427.285156 446.210938 "/>
<path style="fill-rule:nonzero;fill:rgb(50%,0%,50%);fill-opacity:1;stroke-width:1;stroke-linecap:butt;stroke-linejoin:round;stroke:rgb(0%,0%,0%);stroke-opacity:1;stroke-miterlimit:10;" d="M 106.839844 47.914062 C 106.839844 33.515625 82.839844 33.515625 82.839844 47.914062 C 82.839844 62.316406 106.839844 64.714844 106.839844 76.714844 C 106.839844 64.714844 130.839844 62.316406 130.839844 47.914062 C 130.839844 33.515625 106.839844 33.515625 106.839844 47.914062 "/>
<path style="fill-rule:nonzero;fill:rgb(50%,0%,50%);fill-opacity:1;stroke-width:1;stroke-linecap:butt;stroke-linejoin:round;stroke:rgb(0%,0%,0%);stroke-opacity:1;stroke-miterlimit:10;" d="M 444.101562 137.179688 C 444.101562 122.78125 420.101562 122.78125 420.101562 137.179688 C 420.101562 151.578125 444.101562 153.980469 444.101562 165.980469 C 444.101562 153.980469 468.101562 151.578125 468.101562 137.179688 C 468.101562 122.78125 444.101562 122.78125 444.101562 137.179688 "/>
<path style="fill-rule:nonzero;fill:rgb(100%,100%,0%);fill-opacity:1;stroke-width:1;stroke-linecap:butt;stroke-linejoin:round;stroke:rgb(0%,0%,0%);stroke-opacity:1;stroke-miterlimit:10;" d="M 366.929688 72.285156 C 366.929688 57.886719 342.929688 57.886719 342.929688 72.285156 C 342.929688 86.6875 366.929688 89.085938 366.929688 101.085938 C 366.929688 89.085938 390.929688 86.6875 390.929688 72.285156 C 390.929688 57.886719 366.929688 57.886719 366.929688 72.285156 "/>
</g>
</svg>
