<?xml version="1.0" encoding="UTF-8"?>
<svg xmlns="http://www.w3.org/2000/svg" xmlns:xlink="http://www.w3.org/1999/xlink" width="517pt" height="517pt" viewBox="0 0 517 517" version="1.1">
<g id="surface1401">
<rect x="0" y="0" width="517" height="517" style="fill:rgb(90%,90%,90%);fill-opacity:1;stroke:none;"/>
<path style="fill:none;stroke-width:5;stroke-linecap:butt;stroke-linejoin:round;stroke:rgb(100%,0%,0%);stroke-opacity:1;stroke-miterlimit:10;" d="M 261 261 L 517 261 L 517 517 L 261 517 Z M 261 261 "/>
<path style="fill-rule:nonzero;fill:rgb(0%,0%,0%);fill-opacity:1;stroke-width:1;stroke-linecap:butt;stroke-linejoin:round;stroke:rgb(0%,0%,0%);stroke-opacity:1;stroke-miterlimit:10;" d="M 349.183594 322.089844 C 349.183594 338.65625 335.753906 352.089844 319.183594 352.089844 C 302.617188 352.089844 289.183594 338.65625 289.183594 322.089844 C 289.183594 305.519531 302.617188 292.089844 319.183594 292.089844 C 335.753906 292.089844 349.183594 305.519531 349.183594 322.089844 "/>
<path style="fill-rule:nonzero;fill:rgb(100%,0%,0%);fill-opacity:1;stroke-width:1;stroke-linecap:butt;stroke-linejoin:round;stroke:rgb(0%,0%,0%);stroke-opacity:1;stroke-miterlimit:10;" d="M 350.109375 39.445312 C 350.109375 56.011719 336.679688 69.445312 320.109375 69.445312 C 303.539062 69.445312 290.109375 56.011719 290.109375 39.445312 C 290.109375 22.875 303.539062 9.445312 320.109375 9.445312 C 336.679688 9.445312 350.109375 22.875 350.109375 39.445312 "/>
<path style="fill-rule:nonzero;fill:rgb(0%,0%,0%);fill-opacity:1;stroke-width:1;stroke-linecap:butt;stroke-linejoin:round;stroke:rgb(0%,0%,0%);stroke-opacity:1;stroke-miterlimit:10;" d="M 342.046875 191.410156 C 342.046875 207.976562 328.613281 221.410156 312.046875 221.410156 C 295.476562 221.410156 282.046875 207.976562 282.046875 191.410156 C 282.046875 174.839844 295.476562 161.410156 312.046875 161.410156 C 328.613281 161.410156 342.046875 174.839844 342.046875 191.410156 "/>
<path style="fill-rule:nonzero;fill:rgb(0%,0%,0%);fill-opacity:1;stroke-width:1;stroke-linecap:butt;stroke-linejoin:round;stroke:rgb(0%,0%,0%);stroke-opacity:1;stroke-miterlimit:10;" d="M 118.398438 203.832031 C 118.398438 220.402344 104.964844 233.832031 88.398438 233.832031 C 71.828125 233.832031 58.398438 220.402344 58.398438 203.832031 C 58.398438 187.265625 71.828125 173.832031 88.398438 173.832031 C 104.964844 173.832031 118.398438 187.265625 118.398438 203.832031 "/>
</g>
</svg>
