<?xml version="1.0" encoding="UTF-8"?>
<svg xmlns="http://www.w3.org/2000/svg" xmlns:xlink="http://www.w3.org/1999/xlink" width="517pt" height="517pt" viewBox="0 0 517 517" version="1.1">
<g id="surface5966">
<rect x="0" y="0" width="517" height="517" style="fill:rgb(90%,90%,90%);fill-opacity:1;stroke:none;"/>
<path style="fill-rule:nonzero;fill:rgb(100%,100%,0%);fill-opacity:1;stroke-width:1;stroke-linecap:butt;stroke-linejoin:miter;stroke:rgb(0%,0%,0%);stroke-opacity:1;stroke-miterlimit:10;" d="M 211.9375 325.738281 L 191.9375 325.738281 L 191.9375 335.738281 L 211.9375 335.738281 L 211.9375 355.738281 L 221.9375 355.738281 L 221.9375 335.738281 L 241.9375 335.738281 L 241.9375 325.738281 L 221.9375 325.738281 L 221.9375 305.738281 L 211.9375 305.738281 L 211.9375 325.738281 "/>
<path style="fill-rule:nonzero;fill:rgb(100%,100%,0%);fill-opacity:1;stroke-width:1;stroke-linecap:butt;stroke-linejoin:miter;stroke:rgb(0%,0%,0%);stroke-opacity:1;stroke-miterlimit:10;" d="M 377.78125 346.179688 L 357.78125 346.179688 L 357.78125 356.179688 L 377.78125 356.179688 L 377.78125 376.179688 L 387.78125 376.179688 L 387.78125 356.179688 L 407.78125 356.179688 L 407.78125 346.179688 L 387.78125 346.179688 L 387.78125 326.179688 L 377.78125 326.179688 L 377.78125 346.179688 "/>
<path style="fill-rule:nonzero;fill:rgb(100%,100%,0%);fill-opacity:1;stroke-width:1;stroke-linecap:butt;stroke-linejoin:miter;stroke:rgb(0%,0%,0%);stroke-opacity:1;stroke-miterlimit:10;" d="M 464.851562 417.75 L 444.851562 417.75 L 444.851562 427.75 L 464.851562 427.75 L 464.851562 447.75 L 474.851562 447.75 L 474.851562 427.75 L 494.851562 427.75 L 494.851562 417.75 L 474.851562 417.75 L 474.851562 397.75 L 464.851562 397.75 L 464.851562 417.75 "/>
<path style="fill-rule:nonzero;fill:rgb(100%,100%,0%);fill-opacity:1;stroke-width:1;stroke-linecap:butt;stroke-linejoin:miter;stroke:rgb(0%,0%,0%);stroke-opacity:1;stroke-miterlimit:10;" d="M 303.523438 292.699219 L 283.523438 292.699219 L 283.523438 302.699219 L 303.523438 302.699219 L 303.523438 322.699219 L 313.523438 322.699219 L 313.523438 302.699219 L 333.523438 302.699219 L 333.523438 292.699219 L 313.523438 292.699219 L 313.523438 272.699219 L 303.523438 272.699219 L 303.523438 292.699219 "/>
<path style="fill-rule:nonzero;fill:rgb(100%,100%,0%);fill-opacity:1;stroke-width:1;stroke-linecap:butt;stroke-linejoin:miter;stroke:rgb(0%,0%,0%);stroke-opacity:1;stroke-miterlimit:10;" d="M 312.292969 365.492188 L 292.292969 365.492188 L 292.292969 375.492188 L 312.292969 375.492188 L 312.292969 395.492188 L 322.292969 395.492188 L 322.292969 375.492188 L 342.292969 375.492188 L 342.292969 365.492188 L 322.292969 365.492188 L 322.292969 345.492188 L 312.292969 345.492188 L 312.292969 365.492188 "/>
<path style="fill-rule:nonzero;fill:rgb(100%,100%,0%);fill-opacity:1;stroke-width:1;stroke-linecap:butt;stroke-linejoin:miter;stroke:rgb(0%,0%,0%);stroke-opacity:1;stroke-miterlimit:10;" d="M 33.875 143.652344 L 13.875 143.652344 L 13.875 153.652344 L 33.875 153.652344 L 33.875 173.652344 L 43.875 173.652344 L 43.875 153.652344 L 63.875 153.652344 L 63.875 143.652344 L 43.875 143.652344 L 43.875 123.652344 L 33.875 123.652344 L 33.875 143.652344 "/>
<path style="fill-rule:nonzero;fill:rgb(100%,100%,0%);fill-opacity:1;stroke-width:1;stroke-linecap:butt;stroke-linejoin:miter;stroke:rgb(0%,0%,0%);stroke-opacity:1;stroke-miterlimit:10;" d="M 123.609375 106.492188 L 103.609375 106.492188 L 103.609375 116.492188 L 123.609375 116.492188 L 123.609375 136.492188 L 133.609375 136.492188 L 133.609375 116.492188 L 153.609375 116.492188 L 153.609375 106.492188 L 133.609375 106.492188 L 133.609375 86.492188 L 123.609375 86.492188 L 123.609375 106.492188 "/>
<path style="fill-rule:nonzero;fill:rgb(100%,100%,0%);fill-opacity:1;stroke-width:1;stroke-linecap:butt;stroke-linejoin:miter;stroke:rgb(0%,0%,0%);stroke-opacity:1;stroke-miterlimit:10;" d="M 178.710938 189.289062 L 158.710938 189.289062 L 158.710938 199.289062 L 178.710938 199.289062 L 178.710938 219.289062 L 188.710938 219.289062 L 188.710938 199.289062 L 208.710938 199.289062 L 208.710938 189.289062 L 188.710938 189.289062 L 188.710938 169.289062 L 178.710938 169.289062 L 178.710938 189.289062 "/>
</g>
</svg>
