<?xml version="1.0" encoding="UTF-8"?>
<svg xmlns="http://www.w3.org/2000/svg" xmlns:xlink="http://www.w3.org/1999/xlink" width="517pt" height="517pt" viewBox="0 0 517 517" version="1.1">
<g id="surface5136">
<rect x="0" y="0" width="517" height="517" style="fill:rgb(90%,90%,90%);fill-opacity:1;stroke:none;"/>
<path style="fill-rule:nonzero;fill:rgb(100%,0%,0%);fill-opacity:1;stroke-width:1;stroke-linecap:butt;stroke-linejoin:miter;stroke:rgb(0%,0%,0%);stroke-opacity:1;stroke-miterlimit:10;" d="M 220.207031 107.546875 C 220.207031 124.117188 206.777344 137.546875 190.207031 137.546875 C 173.640625 137.546875 160.207031 124.117188 160.207031 107.546875 C 160.207031 90.980469 173.640625 77.546875 190.207031 77.546875 C 206.777344 77.546875 220.207031 90.980469 220.207031 107.546875 "/>
<path style="fill-rule:nonzero;fill:rgb(35%,70%,90%);fill-opacity:1;stroke-width:1;stroke-linecap:butt;stroke-linejoin:miter;stroke:rgb(0%,0%,0%);stroke-opacity:1;stroke-miterlimit:10;" d="M 390.628906 168.210938 C 390.628906 184.78125 377.199219 198.210938 360.628906 198.210938 C 344.058594 198.210938 330.628906 184.78125 330.628906 168.210938 C 330.628906 151.644531 344.058594 138.210938 360.628906 138.210938 C 377.199219 138.210938 390.628906 151.644531 390.628906 168.210938 "/>
<path style="fill-rule:nonzero;fill:rgb(35%,70%,90%);fill-opacity:1;stroke-width:1;stroke-linecap:butt;stroke-linejoin:miter;stroke:rgb(0%,0%,0%);stroke-opacity:1;stroke-miterlimit:10;" d="M 495.097656 155.207031 C 495.097656 171.777344 481.667969 185.207031 465.097656 185.207031 C 448.53125 185.207031 435.097656 171.777344 435.097656 155.207031 C 435.097656 138.636719 448.53125 125.207031 465.097656 125.207031 C 481.667969 125.207031 495.097656 138.636719 495.097656 155.207031 "/>
<path style="fill-rule:nonzero;fill:rgb(35%,70%,90%);fill-opacity:1;stroke-width:1;stroke-linecap:butt;stroke-linejoin:miter;stroke:rgb(0%,0%,0%);stroke-opacity:1;stroke-miterlimit:10;" d="M 164.253906 442.125 C 164.253906 458.695312 150.824219 472.125 134.253906 472.125 C 117.6875 472.125 104.253906 458.695312 104.253906 442.125 C 104.253906 425.558594 117.6875 412.125 134.253906 412.125 C 150.824219 412.125 164.253906 425.558594 164.253906 442.125 "/>
<path style="fill-rule:nonzero;fill:rgb(35%,70%,90%);fill-opacity:1;stroke-width:1;stroke-linecap:butt;stroke-linejoin:miter;stroke:rgb(0%,0%,0%);stroke-opacity:1;stroke-miterlimit:10;" d="M 160.375 354.1875 C 160.375 370.753906 146.941406 384.1875 130.375 384.1875 C 113.804688 384.1875 100.375 370.753906 100.375 354.1875 C 100.375 337.617188 113.804688 324.1875 130.375 324.1875 C 146.941406 324.1875 160.375 337.617188 160.375 354.1875 "/>
<path style="fill-rule:nonzero;fill:rgb(35%,70%,90%);fill-opacity:1;stroke-width:1;stroke-linecap:butt;stroke-linejoin:miter;stroke:rgb(0%,0%,0%);stroke-opacity:1;stroke-miterlimit:10;" d="M 245.410156 340.011719 C 245.410156 356.582031 231.980469 370.011719 215.410156 370.011719 C 198.84375 370.011719 185.410156 356.582031 185.410156 340.011719 C 185.410156 323.445312 198.84375 310.011719 215.410156 310.011719 C 231.980469 310.011719 245.410156 323.445312 245.410156 340.011719 "/>
<path style="fill-rule:nonzero;fill:rgb(35%,70%,90%);fill-opacity:1;stroke-width:1;stroke-linecap:butt;stroke-linejoin:miter;stroke:rgb(0%,0%,0%);stroke-opacity:1;stroke-miterlimit:10;" d="M 117.882812 400.109375 C 117.882812 416.679688 104.449219 430.109375 87.882812 430.109375 C 71.3125 430.109375 57.882812 416.679688 57.882812 400.109375 C 57.882812 383.539062 71.3125 370.109375 87.882812 370.109375 C 104.449219 370.109375 117.882812 383.539062 117.882812 400.109375 "/>
<path style="fill-rule:nonzero;fill:rgb(35%,70%,90%);fill-opacity:1;stroke-width:1;stroke-linecap:butt;stroke-linejoin:miter;stroke:rgb(0%,0%,0%);stroke-opacity:1;stroke-miterlimit:10;" d="M 76.429688 346.988281 C 76.429688 363.554688 63 376.988281 46.429688 376.988281 C 29.859375 376.988281 16.429688 363.554688 16.429688 346.988281 C 16.429688 330.417969 29.859375 316.988281 46.429688 316.988281 C 63 316.988281 76.429688 330.417969 76.429688 346.988281 "/>
</g>
</svg>
