<?xml version="1.0" encoding="UTF-8"?>
<svg xmlns="http://www.w3.org/2000/svg" xmlns:xlink="http://www.w3.org/1999/xlink" width="517pt" height="517pt" viewBox="0 0 517 517" version="1.1">
<g id="surface1181">
<rect x="0" y="0" width="517" height="517" style="fill:rgb(90%,90%,90%);fill-opacity:1;stroke:none;"/>
<path style="fill:none;stroke-width:5;stroke-linecap:butt;stroke-linejoin:round;stroke:rgb(100%,0%,0%);stroke-opacity:1;stroke-miterlimit:10;" d="M 5 261 L 261 261 L 261 517 L 5 517 Z M 5 261 "/>
<path style="fill-rule:nonzero;fill:rgb(0%,0%,0%);fill-opacity:1;stroke-width:1;stroke-linecap:butt;stroke-linejoin:round;stroke:rgb(0%,0%,0%);stroke-opacity:1;stroke-miterlimit:10;" d="M 210.316406 456.125 L 190.316406 456.125 L 190.316406 466.125 L 210.316406 466.125 L 210.316406 486.125 L 220.316406 486.125 L 220.316406 466.125 L 240.316406 466.125 L 240.316406 456.125 L 220.316406 456.125 L 220.316406 436.125 L 210.316406 436.125 L 210.316406 456.125 "/>
<path style="fill-rule:nonzero;fill:rgb(100%,0%,0%);fill-opacity:1;stroke-width:1;stroke-linecap:butt;stroke-linejoin:round;stroke:rgb(0%,0%,0%);stroke-opacity:1;stroke-miterlimit:10;" d="M 427.316406 328.859375 L 407.316406 328.859375 L 407.316406 338.859375 L 427.316406 338.859375 L 427.316406 358.859375 L 437.316406 358.859375 L 437.316406 338.859375 L 457.316406 338.859375 L 457.316406 328.859375 L 437.316406 328.859375 L 437.316406 308.859375 L 427.316406 308.859375 L 427.316406 328.859375 "/>
<path style="fill-rule:nonzero;fill:rgb(100%,0%,0%);fill-opacity:1;stroke-width:1;stroke-linecap:butt;stroke-linejoin:round;stroke:rgb(0%,0%,0%);stroke-opacity:1;stroke-miterlimit:10;" d="M 196.746094 90.832031 L 176.746094 90.832031 L 176.746094 100.832031 L 196.746094 100.832031 L 196.746094 120.832031 L 206.746094 120.832031 L 206.746094 100.832031 L 226.746094 100.832031 L 226.746094 90.832031 L 206.746094 90.832031 L 206.746094 70.832031 L 196.746094 70.832031 L 196.746094 90.832031 "/>
<path style="fill-rule:nonzero;fill:rgb(35%,70%,90%);fill-opacity:1;stroke-width:1;stroke-linecap:butt;stroke-linejoin:round;stroke:rgb(0%,0%,0%);stroke-opacity:1;stroke-miterlimit:10;" d="M 127.84375 173.683594 L 107.84375 173.683594 L 107.84375 183.683594 L 127.84375 183.683594 L 127.84375 203.683594 L 137.84375 203.683594 L 137.84375 183.683594 L 157.84375 183.683594 L 157.84375 173.683594 L 137.84375 173.683594 L 137.84375 153.683594 L 127.84375 153.683594 L 127.84375 173.683594 "/>
</g>
</svg>
