<?xml version="1.0" encoding="UTF-8"?>
<svg xmlns="http://www.w3.org/2000/svg" xmlns:xlink="http://www.w3.org/1999/xlink" width="517pt" height="517pt" viewBox="0 0 517 517" version="1.1">
<g id="surface731">
<rect x="0" y="0" width="517" height="517" style="fill:rgb(90%,90%,90%);fill-opacity:1;stroke:none;"/>
<path style="fill:none;stroke-width:5;stroke-linecap:butt;stroke-linejoin:round;stroke:rgb(100%,0%,0%);stroke-opacity:1;stroke-miterlimit:10;" d="M 261 5 L 517 5 L 517 261 L 261 261 Z M 261 5 "/>
<path style="fill-rule:nonzero;fill:rgb(25%,88%,82%);fill-opacity:1;stroke-width:1;stroke-linecap:butt;stroke-linejoin:round;stroke:rgb(0%,0%,0%);stroke-opacity:1;stroke-miterlimit:10;" d="M 433.464844 170.066406 L 413.464844 170.066406 L 413.464844 180.066406 L 433.464844 180.066406 L 433.464844 200.066406 L 443.464844 200.066406 L 443.464844 180.066406 L 463.464844 180.066406 L 463.464844 170.066406 L 443.464844 170.066406 L 443.464844 150.066406 L 433.464844 150.066406 L 433.464844 170.066406 "/>
<path style="fill-rule:nonzero;fill:rgb(100%,100%,0%);fill-opacity:1;stroke-width:1;stroke-linecap:butt;stroke-linejoin:round;stroke:rgb(0%,0%,0%);stroke-opacity:1;stroke-miterlimit:10;" d="M 63.949219 73.960938 L 43.949219 73.960938 L 43.949219 83.960938 L 63.949219 83.960938 L 63.949219 103.960938 L 73.949219 103.960938 L 73.949219 83.960938 L 93.949219 83.960938 L 93.949219 73.960938 L 73.949219 73.960938 L 73.949219 53.960938 L 63.949219 53.960938 L 63.949219 73.960938 "/>
<path style="fill-rule:nonzero;fill:rgb(100%,100%,0%);fill-opacity:1;stroke-width:1;stroke-linecap:butt;stroke-linejoin:round;stroke:rgb(0%,0%,0%);stroke-opacity:1;stroke-miterlimit:10;" d="M 336.199219 392.160156 L 316.199219 392.160156 L 316.199219 402.160156 L 336.199219 402.160156 L 336.199219 422.160156 L 346.199219 422.160156 L 346.199219 402.160156 L 366.199219 402.160156 L 366.199219 392.160156 L 346.199219 392.160156 L 346.199219 372.160156 L 336.199219 372.160156 L 336.199219 392.160156 "/>
<path style="fill-rule:nonzero;fill:rgb(100%,100%,0%);fill-opacity:1;stroke-width:1;stroke-linecap:butt;stroke-linejoin:round;stroke:rgb(0%,0%,0%);stroke-opacity:1;stroke-miterlimit:10;" d="M 384.082031 457.960938 L 364.082031 457.960938 L 364.082031 467.960938 L 384.082031 467.960938 L 384.082031 487.960938 L 394.082031 487.960938 L 394.082031 467.960938 L 414.082031 467.960938 L 414.082031 457.960938 L 394.082031 457.960938 L 394.082031 437.960938 L 384.082031 437.960938 L 384.082031 457.960938 "/>
</g>
</svg>
