<?xml version="1.0" encoding="UTF-8"?>
<svg xmlns="http://www.w3.org/2000/svg" xmlns:xlink="http://www.w3.org/1999/xlink" width="517pt" height="517pt" viewBox="0 0 517 517" version="1.1">
<g id="surface1441">
<rect x="0" y="0" width="517" height="517" style="fill:rgb(90%,90%,90%);fill-opacity:1;stroke:none;"/>
<path style="fill:none;stroke-width:5;stroke-linecap:butt;stroke-linejoin:round;stroke:rgb(100%,0%,0%);stroke-opacity:1;stroke-miterlimit:10;" d="M 261 261 L 517 261 L 517 517 L 261 517 Z M 261 261 "/>
<path style="fill-rule:nonzero;fill:rgb(100%,100%,0%);fill-opacity:1;stroke-width:1;stroke-linecap:butt;stroke-linejoin:round;stroke:rgb(0%,0%,0%);stroke-opacity:1;stroke-miterlimit:10;" d="M 344.742188 383.878906 C 344.742188 369.480469 320.742188 369.480469 320.742188 383.878906 C 320.742188 398.277344 344.742188 400.679688 344.742188 412.679688 C 344.742188 400.679688 368.742188 398.277344 368.742188 383.878906 C 368.742188 369.480469 344.742188 369.480469 344.742188 383.878906 "/>
<path style="fill-rule:nonzero;fill:rgb(50%,0%,50%);fill-opacity:1;stroke-width:1;stroke-linecap:butt;stroke-linejoin:round;stroke:rgb(0%,0%,0%);stroke-opacity:1;stroke-miterlimit:10;" d="M 65.398438 103.117188 C 65.398438 88.71875 41.398438 88.71875 41.398438 103.117188 C 41.398438 117.519531 65.398438 119.917969 65.398438 131.917969 C 65.398438 119.917969 89.398438 117.519531 89.398438 103.117188 C 89.398438 88.71875 65.398438 88.71875 65.398438 103.117188 "/>
<path style="fill-rule:nonzero;fill:rgb(50%,0%,50%);fill-opacity:1;stroke-width:1;stroke-linecap:butt;stroke-linejoin:round;stroke:rgb(0%,0%,0%);stroke-opacity:1;stroke-miterlimit:10;" d="M 296.492188 127.976562 C 296.492188 113.574219 272.492188 113.574219 272.492188 127.976562 C 272.492188 142.375 296.492188 144.773438 296.492188 156.773438 C 296.492188 144.773438 320.492188 142.375 320.492188 127.976562 C 320.492188 113.574219 296.492188 113.574219 296.492188 127.976562 "/>
<path style="fill-rule:nonzero;fill:rgb(50%,0%,50%);fill-opacity:1;stroke-width:1;stroke-linecap:butt;stroke-linejoin:round;stroke:rgb(0%,0%,0%);stroke-opacity:1;stroke-miterlimit:10;" d="M 75.871094 402.175781 C 75.871094 387.773438 51.871094 387.773438 51.871094 402.175781 C 51.871094 416.574219 75.871094 418.976562 75.871094 430.976562 C 75.871094 418.976562 99.871094 416.574219 99.871094 402.175781 C 99.871094 387.773438 75.871094 387.773438 75.871094 402.175781 "/>
</g>
</svg>
