<?xml version="1.0" encoding="UTF-8"?>
<svg xmlns="http://www.w3.org/2000/svg" xmlns:xlink="http://www.w3.org/1999/xlink" width="517pt" height="517pt" viewBox="0 0 517 517" version="1.1">
<g id="surface751">
<rect x="0" y="0" width="517" height="517" style="fill:rgb(90%,90%,90%);fill-opacity:1;stroke:none;"/>
<path style="fill:none;stroke-width:5;stroke-linecap:butt;stroke-linejoin:round;stroke:rgb(100%,0%,0%);stroke-opacity:1;stroke-miterlimit:10;" d="M 261 5 L 517 5 L 517 261 L 261 261 Z M 261 5 "/>
<path style="fill-rule:nonzero;fill:rgb(25%,88%,82%);fill-opacity:1;stroke-width:1;stroke-linecap:butt;stroke-linejoin:round;stroke:rgb(0%,0%,0%);stroke-opacity:1;stroke-miterlimit:10;" d="M 329.488281 118.375 L 309.488281 118.375 L 309.488281 128.375 L 329.488281 128.375 L 329.488281 148.375 L 339.488281 148.375 L 339.488281 128.375 L 359.488281 128.375 L 359.488281 118.375 L 339.488281 118.375 L 339.488281 98.375 L 329.488281 98.375 L 329.488281 118.375 "/>
<path style="fill-rule:nonzero;fill:rgb(100%,100%,0%);fill-opacity:1;stroke-width:1;stroke-linecap:butt;stroke-linejoin:round;stroke:rgb(0%,0%,0%);stroke-opacity:1;stroke-miterlimit:10;" d="M 397.300781 316.914062 L 377.300781 316.914062 L 377.300781 326.914062 L 397.300781 326.914062 L 397.300781 346.914062 L 407.300781 346.914062 L 407.300781 326.914062 L 427.300781 326.914062 L 427.300781 316.914062 L 407.300781 316.914062 L 407.300781 296.914062 L 397.300781 296.914062 L 397.300781 316.914062 "/>
<path style="fill-rule:nonzero;fill:rgb(100%,100%,0%);fill-opacity:1;stroke-width:1;stroke-linecap:butt;stroke-linejoin:round;stroke:rgb(0%,0%,0%);stroke-opacity:1;stroke-miterlimit:10;" d="M 89.273438 343.792969 L 69.273438 343.792969 L 69.273438 353.792969 L 89.273438 353.792969 L 89.273438 373.792969 L 99.273438 373.792969 L 99.273438 353.792969 L 119.273438 353.792969 L 119.273438 343.792969 L 99.273438 343.792969 L 99.273438 323.792969 L 89.273438 323.792969 L 89.273438 343.792969 "/>
<path style="fill-rule:nonzero;fill:rgb(25%,88%,82%);fill-opacity:1;stroke-width:1;stroke-linecap:butt;stroke-linejoin:round;stroke:rgb(0%,0%,0%);stroke-opacity:1;stroke-miterlimit:10;" d="M 88.699219 411.273438 L 68.699219 411.273438 L 68.699219 421.273438 L 88.699219 421.273438 L 88.699219 441.273438 L 98.699219 441.273438 L 98.699219 421.273438 L 118.699219 421.273438 L 118.699219 411.273438 L 98.699219 411.273438 L 98.699219 391.273438 L 88.699219 391.273438 L 88.699219 411.273438 "/>
</g>
</svg>
