<?xml version="1.0" encoding="UTF-8"?>
<svg xmlns="http://www.w3.org/2000/svg" xmlns:xlink="http://www.w3.org/1999/xlink" width="517pt" height="517pt" viewBox="0 0 517 517" version="1.1">
<g id="surface5176">
<rect x="0" y="0" width="517" height="517" style="fill:rgb(90%,90%,90%);fill-opacity:1;stroke:none;"/>
<path style="fill-rule:nonzero;fill:rgb(100%,0%,0%);fill-opacity:1;stroke-width:1;stroke-linecap:butt;stroke-linejoin:miter;stroke:rgb(0%,0%,0%);stroke-opacity:1;stroke-miterlimit:10;" d="M 444.527344 165.988281 C 444.527344 182.558594 431.09375 195.988281 414.527344 195.988281 C 397.957031 195.988281 384.527344 182.558594 384.527344 165.988281 C 384.527344 149.421875 397.957031 135.988281 414.527344 135.988281 C 431.09375 135.988281 444.527344 149.421875 444.527344 165.988281 "/>
<path style="fill-rule:nonzero;fill:rgb(35%,70%,90%);fill-opacity:1;stroke-width:1;stroke-linecap:butt;stroke-linejoin:miter;stroke:rgb(0%,0%,0%);stroke-opacity:1;stroke-miterlimit:10;" d="M 164.691406 87.566406 C 164.691406 104.132812 151.261719 117.566406 134.691406 117.566406 C 118.125 117.566406 104.691406 104.132812 104.691406 87.566406 C 104.691406 70.996094 118.125 57.566406 134.691406 57.566406 C 151.261719 57.566406 164.691406 70.996094 164.691406 87.566406 "/>
<path style="fill-rule:nonzero;fill:rgb(35%,70%,90%);fill-opacity:1;stroke-width:1;stroke-linecap:butt;stroke-linejoin:miter;stroke:rgb(0%,0%,0%);stroke-opacity:1;stroke-miterlimit:10;" d="M 217.65625 132.300781 C 217.65625 148.867188 204.222656 162.300781 187.65625 162.300781 C 171.085938 162.300781 157.65625 148.867188 157.65625 132.300781 C 157.65625 115.730469 171.085938 102.300781 187.65625 102.300781 C 204.222656 102.300781 217.65625 115.730469 217.65625 132.300781 "/>
<path style="fill-rule:nonzero;fill:rgb(35%,70%,90%);fill-opacity:1;stroke-width:1;stroke-linecap:butt;stroke-linejoin:miter;stroke:rgb(0%,0%,0%);stroke-opacity:1;stroke-miterlimit:10;" d="M 96.542969 91.964844 C 96.542969 108.535156 83.109375 121.964844 66.542969 121.964844 C 49.972656 121.964844 36.542969 108.535156 36.542969 91.964844 C 36.542969 75.394531 49.972656 61.964844 66.542969 61.964844 C 83.109375 61.964844 96.542969 75.394531 96.542969 91.964844 "/>
<path style="fill-rule:nonzero;fill:rgb(35%,70%,90%);fill-opacity:1;stroke-width:1;stroke-linecap:butt;stroke-linejoin:miter;stroke:rgb(0%,0%,0%);stroke-opacity:1;stroke-miterlimit:10;" d="M 243.53125 59.441406 C 243.53125 76.011719 230.097656 89.441406 213.53125 89.441406 C 196.960938 89.441406 183.53125 76.011719 183.53125 59.441406 C 183.53125 42.875 196.960938 29.441406 213.53125 29.441406 C 230.097656 29.441406 243.53125 42.875 243.53125 59.441406 "/>
<path style="fill-rule:nonzero;fill:rgb(35%,70%,90%);fill-opacity:1;stroke-width:1;stroke-linecap:butt;stroke-linejoin:miter;stroke:rgb(0%,0%,0%);stroke-opacity:1;stroke-miterlimit:10;" d="M 191.453125 420.894531 C 191.453125 437.464844 178.023438 450.894531 161.453125 450.894531 C 144.882812 450.894531 131.453125 437.464844 131.453125 420.894531 C 131.453125 404.324219 144.882812 390.894531 161.453125 390.894531 C 178.023438 390.894531 191.453125 404.324219 191.453125 420.894531 "/>
<path style="fill-rule:nonzero;fill:rgb(35%,70%,90%);fill-opacity:1;stroke-width:1;stroke-linecap:butt;stroke-linejoin:miter;stroke:rgb(0%,0%,0%);stroke-opacity:1;stroke-miterlimit:10;" d="M 148.769531 466.144531 C 148.769531 482.714844 135.335938 496.144531 118.769531 496.144531 C 102.199219 496.144531 88.769531 482.714844 88.769531 466.144531 C 88.769531 449.578125 102.199219 436.144531 118.769531 436.144531 C 135.335938 436.144531 148.769531 449.578125 148.769531 466.144531 "/>
<path style="fill-rule:nonzero;fill:rgb(35%,70%,90%);fill-opacity:1;stroke-width:1;stroke-linecap:butt;stroke-linejoin:miter;stroke:rgb(0%,0%,0%);stroke-opacity:1;stroke-miterlimit:10;" d="M 153.253906 365.371094 C 153.253906 381.9375 139.824219 395.371094 123.253906 395.371094 C 106.6875 395.371094 93.253906 381.9375 93.253906 365.371094 C 93.253906 348.800781 106.6875 335.371094 123.253906 335.371094 C 139.824219 335.371094 153.253906 348.800781 153.253906 365.371094 "/>
</g>
</svg>
