<?xml version="1.0" encoding="UTF-8"?>
<svg xmlns="http://www.w3.org/2000/svg" xmlns:xlink="http://www.w3.org/1999/xlink" width="517pt" height="517pt" viewBox="0 0 517 517" version="1.1">
<g id="surface5906">
<rect x="0" y="0" width="517" height="517" style="fill:rgb(90%,90%,90%);fill-opacity:1;stroke:none;"/>
<path style="fill-rule:nonzero;fill:rgb(50%,0%,50%);fill-opacity:1;stroke-width:1;stroke-linecap:butt;stroke-linejoin:miter;stroke:rgb(0%,0%,0%);stroke-opacity:1;stroke-miterlimit:10;" d="M 194.179688 366.746094 L 174.179688 366.746094 L 174.179688 376.746094 L 194.179688 376.746094 L 194.179688 396.746094 L 204.179688 396.746094 L 204.179688 376.746094 L 224.179688 376.746094 L 224.179688 366.746094 L 204.179688 366.746094 L 204.179688 346.746094 L 194.179688 346.746094 L 194.179688 366.746094 "/>
<path style="fill-rule:nonzero;fill:rgb(50%,0%,50%);fill-opacity:1;stroke-width:1;stroke-linecap:butt;stroke-linejoin:miter;stroke:rgb(0%,0%,0%);stroke-opacity:1;stroke-miterlimit:10;" d="M 401.292969 56.828125 L 381.292969 56.828125 L 381.292969 66.828125 L 401.292969 66.828125 L 401.292969 86.828125 L 411.292969 86.828125 L 411.292969 66.828125 L 431.292969 66.828125 L 431.292969 56.828125 L 411.292969 56.828125 L 411.292969 36.828125 L 401.292969 36.828125 L 401.292969 56.828125 "/>
<path style="fill-rule:nonzero;fill:rgb(100%,0%,0%);fill-opacity:1;stroke-width:1;stroke-linecap:butt;stroke-linejoin:miter;stroke:rgb(0%,0%,0%);stroke-opacity:1;stroke-miterlimit:10;" d="M 436.34375 139.175781 L 416.34375 139.175781 L 416.34375 149.175781 L 436.34375 149.175781 L 436.34375 169.175781 L 446.34375 169.175781 L 446.34375 149.175781 L 466.34375 149.175781 L 466.34375 139.175781 L 446.34375 139.175781 L 446.34375 119.175781 L 436.34375 119.175781 L 436.34375 139.175781 "/>
<path style="fill-rule:nonzero;fill:rgb(100%,0%,0%);fill-opacity:1;stroke-width:1;stroke-linecap:butt;stroke-linejoin:miter;stroke:rgb(0%,0%,0%);stroke-opacity:1;stroke-miterlimit:10;" d="M 363.511719 110.261719 L 343.511719 110.261719 L 343.511719 120.261719 L 363.511719 120.261719 L 363.511719 140.261719 L 373.511719 140.261719 L 373.511719 120.261719 L 393.511719 120.261719 L 393.511719 110.261719 L 373.511719 110.261719 L 373.511719 90.261719 L 363.511719 90.261719 L 363.511719 110.261719 "/>
<path style="fill-rule:nonzero;fill:rgb(100%,0%,0%);fill-opacity:1;stroke-width:1;stroke-linecap:butt;stroke-linejoin:miter;stroke:rgb(0%,0%,0%);stroke-opacity:1;stroke-miterlimit:10;" d="M 305.835938 151.785156 L 285.835938 151.785156 L 285.835938 161.785156 L 305.835938 161.785156 L 305.835938 181.785156 L 315.835938 181.785156 L 315.835938 161.785156 L 335.835938 161.785156 L 335.835938 151.785156 L 315.835938 151.785156 L 315.835938 131.785156 L 305.835938 131.785156 L 305.835938 151.785156 "/>
<path style="fill-rule:nonzero;fill:rgb(100%,0%,0%);fill-opacity:1;stroke-width:1;stroke-linecap:butt;stroke-linejoin:miter;stroke:rgb(0%,0%,0%);stroke-opacity:1;stroke-miterlimit:10;" d="M 126.859375 173.695312 L 106.859375 173.695312 L 106.859375 183.695312 L 126.859375 183.695312 L 126.859375 203.695312 L 136.859375 203.695312 L 136.859375 183.695312 L 156.859375 183.695312 L 156.859375 173.695312 L 136.859375 173.695312 L 136.859375 153.695312 L 126.859375 153.695312 L 126.859375 173.695312 "/>
<path style="fill-rule:nonzero;fill:rgb(100%,0%,0%);fill-opacity:1;stroke-width:1;stroke-linecap:butt;stroke-linejoin:miter;stroke:rgb(0%,0%,0%);stroke-opacity:1;stroke-miterlimit:10;" d="M 196.554688 73.460938 L 176.554688 73.460938 L 176.554688 83.460938 L 196.554688 83.460938 L 196.554688 103.460938 L 206.554688 103.460938 L 206.554688 83.460938 L 226.554688 83.460938 L 226.554688 73.460938 L 206.554688 73.460938 L 206.554688 53.460938 L 196.554688 53.460938 L 196.554688 73.460938 "/>
<path style="fill-rule:nonzero;fill:rgb(100%,0%,0%);fill-opacity:1;stroke-width:1;stroke-linecap:butt;stroke-linejoin:miter;stroke:rgb(0%,0%,0%);stroke-opacity:1;stroke-miterlimit:10;" d="M 34.417969 144.5625 L 14.417969 144.5625 L 14.417969 154.5625 L 34.417969 154.5625 L 34.417969 174.5625 L 44.417969 174.5625 L 44.417969 154.5625 L 64.417969 154.5625 L 64.417969 144.5625 L 44.417969 144.5625 L 44.417969 124.5625 L 34.417969 124.5625 L 34.417969 144.5625 "/>
</g>
</svg>
