<?xml version="1.0" encoding="UTF-8"?>
<svg xmlns="http://www.w3.org/2000/svg" xmlns:xlink="http://www.w3.org/1999/xlink" width="517pt" height="517pt" viewBox="0 0 517 517" version="1.1">
<g id="surface5856">
<rect x="0" y="0" width="517" height="517" style="fill:rgb(90%,90%,90%);fill-opacity:1;stroke:none;"/>
<path style="fill-rule:nonzero;fill:rgb(50%,0%,50%);fill-opacity:1;stroke-width:1;stroke-linecap:butt;stroke-linejoin:miter;stroke:rgb(0%,0%,0%);stroke-opacity:1;stroke-miterlimit:10;" d="M 411.652344 299.03125 L 391.652344 299.03125 L 391.652344 309.03125 L 411.652344 309.03125 L 411.652344 329.03125 L 421.652344 329.03125 L 421.652344 309.03125 L 441.652344 309.03125 L 441.652344 299.03125 L 421.652344 299.03125 L 421.652344 279.03125 L 411.652344 279.03125 L 411.652344 299.03125 "/>
<path style="fill-rule:nonzero;fill:rgb(100%,0%,0%);fill-opacity:1;stroke-width:1;stroke-linecap:butt;stroke-linejoin:miter;stroke:rgb(0%,0%,0%);stroke-opacity:1;stroke-miterlimit:10;" d="M 289.957031 419.074219 L 269.957031 419.074219 L 269.957031 429.074219 L 289.957031 429.074219 L 289.957031 449.074219 L 299.957031 449.074219 L 299.957031 429.074219 L 319.957031 429.074219 L 319.957031 419.074219 L 299.957031 419.074219 L 299.957031 399.074219 L 289.957031 399.074219 L 289.957031 419.074219 "/>
<path style="fill-rule:nonzero;fill:rgb(100%,0%,0%);fill-opacity:1;stroke-width:1;stroke-linecap:butt;stroke-linejoin:miter;stroke:rgb(0%,0%,0%);stroke-opacity:1;stroke-miterlimit:10;" d="M 401.859375 39.898438 L 381.859375 39.898438 L 381.859375 49.898438 L 401.859375 49.898438 L 401.859375 69.898438 L 411.859375 69.898438 L 411.859375 49.898438 L 431.859375 49.898438 L 431.859375 39.898438 L 411.859375 39.898438 L 411.859375 19.898438 L 401.859375 19.898438 L 401.859375 39.898438 "/>
<path style="fill-rule:nonzero;fill:rgb(100%,0%,0%);fill-opacity:1;stroke-width:1;stroke-linecap:butt;stroke-linejoin:miter;stroke:rgb(0%,0%,0%);stroke-opacity:1;stroke-miterlimit:10;" d="M 444.09375 195.25 L 424.09375 195.25 L 424.09375 205.25 L 444.09375 205.25 L 444.09375 225.25 L 454.09375 225.25 L 454.09375 205.25 L 474.09375 205.25 L 474.09375 195.25 L 454.09375 195.25 L 454.09375 175.25 L 444.09375 175.25 L 444.09375 195.25 "/>
<path style="fill-rule:nonzero;fill:rgb(100%,0%,0%);fill-opacity:1;stroke-width:1;stroke-linecap:butt;stroke-linejoin:miter;stroke:rgb(0%,0%,0%);stroke-opacity:1;stroke-miterlimit:10;" d="M 90.003906 64.582031 L 70.003906 64.582031 L 70.003906 74.582031 L 90.003906 74.582031 L 90.003906 94.582031 L 100.003906 94.582031 L 100.003906 74.582031 L 120.003906 74.582031 L 120.003906 64.582031 L 100.003906 64.582031 L 100.003906 44.582031 L 90.003906 44.582031 L 90.003906 64.582031 "/>
<path style="fill-rule:nonzero;fill:rgb(100%,0%,0%);fill-opacity:1;stroke-width:1;stroke-linecap:butt;stroke-linejoin:miter;stroke:rgb(0%,0%,0%);stroke-opacity:1;stroke-miterlimit:10;" d="M 85.8125 126.09375 L 65.8125 126.09375 L 65.8125 136.09375 L 85.8125 136.09375 L 85.8125 156.09375 L 95.8125 156.09375 L 95.8125 136.09375 L 115.8125 136.09375 L 115.8125 126.09375 L 95.8125 126.09375 L 95.8125 106.09375 L 85.8125 106.09375 L 85.8125 126.09375 "/>
<path style="fill-rule:nonzero;fill:rgb(100%,0%,0%);fill-opacity:1;stroke-width:1;stroke-linecap:butt;stroke-linejoin:miter;stroke:rgb(0%,0%,0%);stroke-opacity:1;stroke-miterlimit:10;" d="M 187.238281 61.609375 L 167.238281 61.609375 L 167.238281 71.609375 L 187.238281 71.609375 L 187.238281 91.609375 L 197.238281 91.609375 L 197.238281 71.609375 L 217.238281 71.609375 L 217.238281 61.609375 L 197.238281 61.609375 L 197.238281 41.609375 L 187.238281 41.609375 L 187.238281 61.609375 "/>
<path style="fill-rule:nonzero;fill:rgb(100%,0%,0%);fill-opacity:1;stroke-width:1;stroke-linecap:butt;stroke-linejoin:miter;stroke:rgb(0%,0%,0%);stroke-opacity:1;stroke-miterlimit:10;" d="M 105.972656 204.421875 L 85.972656 204.421875 L 85.972656 214.421875 L 105.972656 214.421875 L 105.972656 234.421875 L 115.972656 234.421875 L 115.972656 214.421875 L 135.972656 214.421875 L 135.972656 204.421875 L 115.972656 204.421875 L 115.972656 184.421875 L 105.972656 184.421875 L 105.972656 204.421875 "/>
</g>
</svg>
