<?xml version="1.0" encoding="UTF-8"?>
<svg xmlns="http://www.w3.org/2000/svg" xmlns:xlink="http://www.w3.org/1999/xlink" width="517pt" height="517pt" viewBox="0 0 517 517" version="1.1">
<g id="surface781">
<rect x="0" y="0" width="517" height="517" style="fill:rgb(90%,90%,90%);fill-opacity:1;stroke:none;"/>
<path style="fill:none;stroke-width:5;stroke-linecap:butt;stroke-linejoin:round;stroke:rgb(100%,0%,0%);stroke-opacity:1;stroke-miterlimit:10;" d="M 261 5 L 517 5 L 517 261 L 261 261 Z M 261 5 "/>
<path style="fill-rule:nonzero;fill:rgb(100%,100%,0%);fill-opacity:1;stroke-width:1;stroke-linecap:butt;stroke-linejoin:round;stroke:rgb(0%,0%,0%);stroke-opacity:1;stroke-miterlimit:10;" d="M 460.3125 80.945312 L 440.3125 80.945312 L 440.3125 90.945312 L 460.3125 90.945312 L 460.3125 110.945312 L 470.3125 110.945312 L 470.3125 90.945312 L 490.3125 90.945312 L 490.3125 80.945312 L 470.3125 80.945312 L 470.3125 60.945312 L 460.3125 60.945312 L 460.3125 80.945312 "/>
<path style="fill-rule:nonzero;fill:rgb(100%,100%,0%);fill-opacity:1;stroke-width:1;stroke-linecap:butt;stroke-linejoin:round;stroke:rgb(0%,0%,0%);stroke-opacity:1;stroke-miterlimit:10;" d="M 125.160156 426.78125 L 105.160156 426.78125 L 105.160156 436.78125 L 125.160156 436.78125 L 125.160156 456.78125 L 135.160156 456.78125 L 135.160156 436.78125 L 155.160156 436.78125 L 155.160156 426.78125 L 135.160156 426.78125 L 135.160156 406.78125 L 125.160156 406.78125 L 125.160156 426.78125 "/>
<path style="fill-rule:nonzero;fill:rgb(100%,100%,0%);fill-opacity:1;stroke-width:1;stroke-linecap:butt;stroke-linejoin:round;stroke:rgb(0%,0%,0%);stroke-opacity:1;stroke-miterlimit:10;" d="M 37.058594 390.5 L 17.058594 390.5 L 17.058594 400.5 L 37.058594 400.5 L 37.058594 420.5 L 47.058594 420.5 L 47.058594 400.5 L 67.058594 400.5 L 67.058594 390.5 L 47.058594 390.5 L 47.058594 370.5 L 37.058594 370.5 L 37.058594 390.5 "/>
<path style="fill-rule:nonzero;fill:rgb(25%,88%,82%);fill-opacity:1;stroke-width:1;stroke-linecap:butt;stroke-linejoin:round;stroke:rgb(0%,0%,0%);stroke-opacity:1;stroke-miterlimit:10;" d="M 75.214844 80.234375 L 55.214844 80.234375 L 55.214844 90.234375 L 75.214844 90.234375 L 75.214844 110.234375 L 85.214844 110.234375 L 85.214844 90.234375 L 105.214844 90.234375 L 105.214844 80.234375 L 85.214844 80.234375 L 85.214844 60.234375 L 75.214844 60.234375 L 75.214844 80.234375 "/>
</g>
</svg>
