<?xml version="1.0" encoding="UTF-8"?>
<svg xmlns="http://www.w3.org/2000/svg" xmlns:xlink="http://www.w3.org/1999/xlink" width="517pt" height="517pt" viewBox="0 0 517 517" version="1.1">
<g id="surface1461">
<rect x="0" y="0" width="517" height="517" style="fill:rgb(90%,90%,90%);fill-opacity:1;stroke:none;"/>
<path style="fill:none;stroke-width:5;stroke-linecap:butt;stroke-linejoin:round;stroke:rgb(100%,0%,0%);stroke-opacity:1;stroke-miterlimit:10;" d="M 261 261 L 517 261 L 517 517 L 261 517 Z M 261 261 "/>
<path style="fill-rule:nonzero;fill:rgb(100%,100%,0%);fill-opacity:1;stroke-width:1;stroke-linecap:butt;stroke-linejoin:round;stroke:rgb(0%,0%,0%);stroke-opacity:1;stroke-miterlimit:10;" d="M 337.550781 459.785156 C 337.550781 445.382812 313.550781 445.382812 313.550781 459.785156 C 313.550781 474.183594 337.550781 476.585938 337.550781 488.585938 C 337.550781 476.585938 361.550781 474.183594 361.550781 459.785156 C 361.550781 445.382812 337.550781 445.382812 337.550781 459.785156 "/>
<path style="fill-rule:nonzero;fill:rgb(50%,0%,50%);fill-opacity:1;stroke-width:1;stroke-linecap:butt;stroke-linejoin:round;stroke:rgb(0%,0%,0%);stroke-opacity:1;stroke-miterlimit:10;" d="M 127.882812 129.523438 C 127.882812 115.125 103.882812 115.125 103.882812 129.523438 C 103.882812 143.925781 127.882812 146.324219 127.882812 158.324219 C 127.882812 146.324219 151.882812 143.925781 151.882812 129.523438 C 151.882812 115.125 127.882812 115.125 127.882812 129.523438 "/>
<path style="fill-rule:nonzero;fill:rgb(50%,0%,50%);fill-opacity:1;stroke-width:1;stroke-linecap:butt;stroke-linejoin:round;stroke:rgb(0%,0%,0%);stroke-opacity:1;stroke-miterlimit:10;" d="M 212.089844 121.871094 C 212.089844 107.46875 188.089844 107.46875 188.089844 121.871094 C 188.089844 136.269531 212.089844 138.671875 212.089844 150.671875 C 212.089844 138.671875 236.089844 136.269531 236.089844 121.871094 C 236.089844 107.46875 212.089844 107.46875 212.089844 121.871094 "/>
<path style="fill-rule:nonzero;fill:rgb(100%,100%,0%);fill-opacity:1;stroke-width:1;stroke-linecap:butt;stroke-linejoin:round;stroke:rgb(0%,0%,0%);stroke-opacity:1;stroke-miterlimit:10;" d="M 455.929688 90.152344 C 455.929688 75.75 431.929688 75.75 431.929688 90.152344 C 431.929688 104.550781 455.929688 106.949219 455.929688 118.949219 C 455.929688 106.949219 479.929688 104.550781 479.929688 90.152344 C 479.929688 75.75 455.929688 75.75 455.929688 90.152344 "/>
</g>
</svg>
