<?xml version="1.0" encoding="UTF-8"?>
<svg xmlns="http://www.w3.org/2000/svg" xmlns:xlink="http://www.w3.org/1999/xlink" width="517pt" height="517pt" viewBox="0 0 517 517" version="1.1">
<g id="surface1141">
<rect x="0" y="0" width="517" height="517" style="fill:rgb(90%,90%,90%);fill-opacity:1;stroke:none;"/>
<path style="fill:none;stroke-width:5;stroke-linecap:butt;stroke-linejoin:round;stroke:rgb(100%,0%,0%);stroke-opacity:1;stroke-miterlimit:10;" d="M 5 261 L 261 261 L 261 517 L 5 517 Z M 5 261 "/>
<path style="fill-rule:nonzero;fill:rgb(35%,70%,90%);fill-opacity:1;stroke-width:1;stroke-linecap:butt;stroke-linejoin:round;stroke:rgb(0%,0%,0%);stroke-opacity:1;stroke-miterlimit:10;" d="M 169.261719 337.097656 L 149.261719 337.097656 L 149.261719 347.097656 L 169.261719 347.097656 L 169.261719 367.097656 L 179.261719 367.097656 L 179.261719 347.097656 L 199.261719 347.097656 L 199.261719 337.097656 L 179.261719 337.097656 L 179.261719 317.097656 L 169.261719 317.097656 L 169.261719 337.097656 "/>
<path style="fill-rule:nonzero;fill:rgb(100%,0%,0%);fill-opacity:1;stroke-width:1;stroke-linecap:butt;stroke-linejoin:round;stroke:rgb(0%,0%,0%);stroke-opacity:1;stroke-miterlimit:10;" d="M 403.578125 183.433594 L 383.578125 183.433594 L 383.578125 193.433594 L 403.578125 193.433594 L 403.578125 213.433594 L 413.578125 213.433594 L 413.578125 193.433594 L 433.578125 193.433594 L 433.578125 183.433594 L 413.578125 183.433594 L 413.578125 163.433594 L 403.578125 163.433594 L 403.578125 183.433594 "/>
<path style="fill-rule:nonzero;fill:rgb(100%,0%,0%);fill-opacity:1;stroke-width:1;stroke-linecap:butt;stroke-linejoin:round;stroke:rgb(0%,0%,0%);stroke-opacity:1;stroke-miterlimit:10;" d="M 416.605469 314.195312 L 396.605469 314.195312 L 396.605469 324.195312 L 416.605469 324.195312 L 416.605469 344.195312 L 426.605469 344.195312 L 426.605469 324.195312 L 446.605469 324.195312 L 446.605469 314.195312 L 426.605469 314.195312 L 426.605469 294.195312 L 416.605469 294.195312 L 416.605469 314.195312 "/>
<path style="fill-rule:nonzero;fill:rgb(35%,70%,90%);fill-opacity:1;stroke-width:1;stroke-linecap:butt;stroke-linejoin:round;stroke:rgb(0%,0%,0%);stroke-opacity:1;stroke-miterlimit:10;" d="M 467.578125 459.042969 L 447.578125 459.042969 L 447.578125 469.042969 L 467.578125 469.042969 L 467.578125 489.042969 L 477.578125 489.042969 L 477.578125 469.042969 L 497.578125 469.042969 L 497.578125 459.042969 L 477.578125 459.042969 L 477.578125 439.042969 L 467.578125 439.042969 L 467.578125 459.042969 "/>
</g>
</svg>
