<?xml version="1.0" encoding="UTF-8"?>
<svg xmlns="http://www.w3.org/2000/svg" xmlns:xlink="http://www.w3.org/1999/xlink" width="517pt" height="517pt" viewBox="0 0 517 517" version="1.1">
<g id="surface1391">
<rect x="0" y="0" width="517" height="517" style="fill:rgb(90%,90%,90%);fill-opacity:1;stroke:none;"/>
<path style="fill:none;stroke-width:5;stroke-linecap:butt;stroke-linejoin:round;stroke:rgb(100%,0%,0%);stroke-opacity:1;stroke-miterlimit:10;" d="M 261 261 L 517 261 L 517 517 L 261 517 Z M 261 261 "/>
<path style="fill-rule:nonzero;fill:rgb(0%,0%,0%);fill-opacity:1;stroke-width:1;stroke-linecap:butt;stroke-linejoin:round;stroke:rgb(0%,0%,0%);stroke-opacity:1;stroke-miterlimit:10;" d="M 367.773438 351.523438 C 367.773438 368.089844 354.34375 381.523438 337.773438 381.523438 C 321.207031 381.523438 307.773438 368.089844 307.773438 351.523438 C 307.773438 334.953125 321.207031 321.523438 337.773438 321.523438 C 354.34375 321.523438 367.773438 334.953125 367.773438 351.523438 "/>
<path style="fill-rule:nonzero;fill:rgb(100%,0%,0%);fill-opacity:1;stroke-width:1;stroke-linecap:butt;stroke-linejoin:round;stroke:rgb(0%,0%,0%);stroke-opacity:1;stroke-miterlimit:10;" d="M 438.148438 153.34375 C 438.148438 169.914062 424.71875 183.34375 408.148438 183.34375 C 391.582031 183.34375 378.148438 169.914062 378.148438 153.34375 C 378.148438 136.773438 391.582031 123.34375 408.148438 123.34375 C 424.71875 123.34375 438.148438 136.773438 438.148438 153.34375 "/>
<path style="fill-rule:nonzero;fill:rgb(100%,0%,0%);fill-opacity:1;stroke-width:1;stroke-linecap:butt;stroke-linejoin:round;stroke:rgb(0%,0%,0%);stroke-opacity:1;stroke-miterlimit:10;" d="M 243.460938 142.804688 C 243.460938 159.371094 230.03125 172.804688 213.460938 172.804688 C 196.894531 172.804688 183.460938 159.371094 183.460938 142.804688 C 183.460938 126.234375 196.894531 112.804688 213.460938 112.804688 C 230.03125 112.804688 243.460938 126.234375 243.460938 142.804688 "/>
<path style="fill-rule:nonzero;fill:rgb(0%,0%,0%);fill-opacity:1;stroke-width:1;stroke-linecap:butt;stroke-linejoin:round;stroke:rgb(0%,0%,0%);stroke-opacity:1;stroke-miterlimit:10;" d="M 69.113281 203.011719 C 69.113281 219.578125 55.683594 233.011719 39.113281 233.011719 C 22.546875 233.011719 9.113281 219.578125 9.113281 203.011719 C 9.113281 186.441406 22.546875 173.011719 39.113281 173.011719 C 55.683594 173.011719 69.113281 186.441406 69.113281 203.011719 "/>
</g>
</svg>
