<?xml version="1.0" encoding="UTF-8"?>
<svg xmlns="http://www.w3.org/2000/svg" xmlns:xlink="http://www.w3.org/1999/xlink" width="517pt" height="517pt" viewBox="0 0 517 517" version="1.1">
<g id="surface1001">
<rect x="0" y="0" width="517" height="517" style="fill:rgb(90%,90%,90%);fill-opacity:1;stroke:none;"/>
<path style="fill:none;stroke-width:5;stroke-linecap:butt;stroke-linejoin:round;stroke:rgb(100%,0%,0%);stroke-opacity:1;stroke-miterlimit:10;" d="M 5 261 L 261 261 L 261 517 L 5 517 Z M 5 261 "/>
<path style="fill-rule:nonzero;fill:rgb(50%,0%,50%);fill-opacity:1;stroke-width:1;stroke-linecap:butt;stroke-linejoin:round;stroke:rgb(0%,0%,0%);stroke-opacity:1;stroke-miterlimit:10;" d="M 218.152344 406.929688 C 218.152344 423.5 204.71875 436.929688 188.152344 436.929688 C 171.582031 436.929688 158.152344 423.5 158.152344 406.929688 C 158.152344 390.363281 171.582031 376.929688 188.152344 376.929688 C 204.71875 376.929688 218.152344 390.363281 218.152344 406.929688 "/>
<path style="fill-rule:nonzero;fill:rgb(53%,27%,7%);fill-opacity:1;stroke-width:1;stroke-linecap:butt;stroke-linejoin:round;stroke:rgb(0%,0%,0%);stroke-opacity:1;stroke-miterlimit:10;" d="M 499.382812 301.492188 C 499.382812 318.0625 485.953125 331.492188 469.382812 331.492188 C 452.816406 331.492188 439.382812 318.0625 439.382812 301.492188 C 439.382812 284.925781 452.816406 271.492188 469.382812 271.492188 C 485.953125 271.492188 499.382812 284.925781 499.382812 301.492188 "/>
<path style="fill-rule:nonzero;fill:rgb(50%,0%,50%);fill-opacity:1;stroke-width:1;stroke-linecap:butt;stroke-linejoin:round;stroke:rgb(0%,0%,0%);stroke-opacity:1;stroke-miterlimit:10;" d="M 388.109375 397.027344 C 388.109375 413.597656 374.675781 427.027344 358.109375 427.027344 C 341.539062 427.027344 328.109375 413.597656 328.109375 397.027344 C 328.109375 380.460938 341.539062 367.027344 358.109375 367.027344 C 374.675781 367.027344 388.109375 380.460938 388.109375 397.027344 "/>
<path style="fill-rule:nonzero;fill:rgb(50%,0%,50%);fill-opacity:1;stroke-width:1;stroke-linecap:butt;stroke-linejoin:round;stroke:rgb(0%,0%,0%);stroke-opacity:1;stroke-miterlimit:10;" d="M 66.894531 99.578125 C 66.894531 116.144531 53.464844 129.578125 36.894531 129.578125 C 20.328125 129.578125 6.894531 116.144531 6.894531 99.578125 C 6.894531 83.007812 20.328125 69.578125 36.894531 69.578125 C 53.464844 69.578125 66.894531 83.007812 66.894531 99.578125 "/>
</g>
</svg>
