<?xml version="1.0" encoding="UTF-8"?>
<svg xmlns="http://www.w3.org/2000/svg" xmlns:xlink="http://www.w3.org/1999/xlink" width="517pt" height="517pt" viewBox="0 0 517 517" version="1.1">
<g id="surface6186">
<rect x="0" y="0" width="517" height="517" style="fill:rgb(90%,90%,90%);fill-opacity:1;stroke:none;"/>
<path style="fill-rule:nonzero;fill:rgb(35%,70%,90%);fill-opacity:1;stroke-width:1;stroke-linecap:butt;stroke-linejoin:miter;stroke:rgb(0%,0%,0%);stroke-opacity:1;stroke-miterlimit:10;" d="M 300.042969 368.707031 L 280.042969 368.707031 L 280.042969 378.707031 L 300.042969 378.707031 L 300.042969 398.707031 L 310.042969 398.707031 L 310.042969 378.707031 L 330.042969 378.707031 L 330.042969 368.707031 L 310.042969 368.707031 L 310.042969 348.707031 L 300.042969 348.707031 L 300.042969 368.707031 "/>
<path style="fill-rule:nonzero;fill:rgb(35%,70%,90%);fill-opacity:1;stroke-width:1;stroke-linecap:butt;stroke-linejoin:miter;stroke:rgb(0%,0%,0%);stroke-opacity:1;stroke-miterlimit:10;" d="M 468.988281 73.957031 L 448.988281 73.957031 L 448.988281 83.957031 L 468.988281 83.957031 L 468.988281 103.957031 L 478.988281 103.957031 L 478.988281 83.957031 L 498.988281 83.957031 L 498.988281 73.957031 L 478.988281 73.957031 L 478.988281 53.957031 L 468.988281 53.957031 L 468.988281 73.957031 "/>
<path style="fill-rule:nonzero;fill:rgb(100%,100%,0%);fill-opacity:1;stroke-width:1;stroke-linecap:butt;stroke-linejoin:miter;stroke:rgb(0%,0%,0%);stroke-opacity:1;stroke-miterlimit:10;" d="M 467.410156 187.625 L 447.410156 187.625 L 447.410156 197.625 L 467.410156 197.625 L 467.410156 217.625 L 477.410156 217.625 L 477.410156 197.625 L 497.410156 197.625 L 497.410156 187.625 L 477.410156 187.625 L 477.410156 167.625 L 467.410156 167.625 L 467.410156 187.625 "/>
<path style="fill-rule:nonzero;fill:rgb(100%,100%,0%);fill-opacity:1;stroke-width:1;stroke-linecap:butt;stroke-linejoin:miter;stroke:rgb(0%,0%,0%);stroke-opacity:1;stroke-miterlimit:10;" d="M 321.273438 185.503906 L 301.273438 185.503906 L 301.273438 195.503906 L 321.273438 195.503906 L 321.273438 215.503906 L 331.273438 215.503906 L 331.273438 195.503906 L 351.273438 195.503906 L 351.273438 185.503906 L 331.273438 185.503906 L 331.273438 165.503906 L 321.273438 165.503906 L 321.273438 185.503906 "/>
<path style="fill-rule:nonzero;fill:rgb(100%,100%,0%);fill-opacity:1;stroke-width:1;stroke-linecap:butt;stroke-linejoin:miter;stroke:rgb(0%,0%,0%);stroke-opacity:1;stroke-miterlimit:10;" d="M 366.4375 77.351562 L 346.4375 77.351562 L 346.4375 87.351562 L 366.4375 87.351562 L 366.4375 107.351562 L 376.4375 107.351562 L 376.4375 87.351562 L 396.4375 87.351562 L 396.4375 77.351562 L 376.4375 77.351562 L 376.4375 57.351562 L 366.4375 57.351562 L 366.4375 77.351562 "/>
<path style="fill-rule:nonzero;fill:rgb(100%,100%,0%);fill-opacity:1;stroke-width:1;stroke-linecap:butt;stroke-linejoin:miter;stroke:rgb(0%,0%,0%);stroke-opacity:1;stroke-miterlimit:10;" d="M 311.289062 43.296875 L 291.289062 43.296875 L 291.289062 53.296875 L 311.289062 53.296875 L 311.289062 73.296875 L 321.289062 73.296875 L 321.289062 53.296875 L 341.289062 53.296875 L 341.289062 43.296875 L 321.289062 43.296875 L 321.289062 23.296875 L 311.289062 23.296875 L 311.289062 43.296875 "/>
<path style="fill-rule:nonzero;fill:rgb(100%,100%,0%);fill-opacity:1;stroke-width:1;stroke-linecap:butt;stroke-linejoin:miter;stroke:rgb(0%,0%,0%);stroke-opacity:1;stroke-miterlimit:10;" d="M 93.628906 164.417969 L 73.628906 164.417969 L 73.628906 174.417969 L 93.628906 174.417969 L 93.628906 194.417969 L 103.628906 194.417969 L 103.628906 174.417969 L 123.628906 174.417969 L 123.628906 164.417969 L 103.628906 164.417969 L 103.628906 144.417969 L 93.628906 144.417969 L 93.628906 164.417969 "/>
<path style="fill-rule:nonzero;fill:rgb(100%,100%,0%);fill-opacity:1;stroke-width:1;stroke-linecap:butt;stroke-linejoin:miter;stroke:rgb(0%,0%,0%);stroke-opacity:1;stroke-miterlimit:10;" d="M 166.515625 159.964844 L 146.515625 159.964844 L 146.515625 169.964844 L 166.515625 169.964844 L 166.515625 189.964844 L 176.515625 189.964844 L 176.515625 169.964844 L 196.515625 169.964844 L 196.515625 159.964844 L 176.515625 159.964844 L 176.515625 139.964844 L 166.515625 139.964844 L 166.515625 159.964844 "/>
</g>
</svg>
