<?xml version="1.0" encoding="UTF-8"?>
<svg xmlns="http://www.w3.org/2000/svg" xmlns:xlink="http://www.w3.org/1999/xlink" width="517pt" height="517pt" viewBox="0 0 517 517" version="1.1">
<g id="surface5846">
<rect x="0" y="0" width="517" height="517" style="fill:rgb(90%,90%,90%);fill-opacity:1;stroke:none;"/>
<path style="fill-rule:nonzero;fill:rgb(100%,0%,0%);fill-opacity:1;stroke-width:1;stroke-linecap:butt;stroke-linejoin:miter;stroke:rgb(0%,0%,0%);stroke-opacity:1;stroke-miterlimit:10;" d="M 170.417969 47.742188 L 150.417969 47.742188 L 150.417969 57.742188 L 170.417969 57.742188 L 170.417969 77.742188 L 180.417969 77.742188 L 180.417969 57.742188 L 200.417969 57.742188 L 200.417969 47.742188 L 180.417969 47.742188 L 180.417969 27.742188 L 170.417969 27.742188 L 170.417969 47.742188 "/>
<path style="fill-rule:nonzero;fill:rgb(100%,0%,0%);fill-opacity:1;stroke-width:1;stroke-linecap:butt;stroke-linejoin:miter;stroke:rgb(0%,0%,0%);stroke-opacity:1;stroke-miterlimit:10;" d="M 62.160156 93.101562 L 42.160156 93.101562 L 42.160156 103.101562 L 62.160156 103.101562 L 62.160156 123.101562 L 72.160156 123.101562 L 72.160156 103.101562 L 92.160156 103.101562 L 92.160156 93.101562 L 72.160156 93.101562 L 72.160156 73.101562 L 62.160156 73.101562 L 62.160156 93.101562 "/>
<path style="fill-rule:nonzero;fill:rgb(100%,0%,0%);fill-opacity:1;stroke-width:1;stroke-linecap:butt;stroke-linejoin:miter;stroke:rgb(0%,0%,0%);stroke-opacity:1;stroke-miterlimit:10;" d="M 422.78125 432.5625 L 402.78125 432.5625 L 402.78125 442.5625 L 422.78125 442.5625 L 422.78125 462.5625 L 432.78125 462.5625 L 432.78125 442.5625 L 452.78125 442.5625 L 452.78125 432.5625 L 432.78125 432.5625 L 432.78125 412.5625 L 422.78125 412.5625 L 422.78125 432.5625 "/>
<path style="fill-rule:nonzero;fill:rgb(100%,0%,0%);fill-opacity:1;stroke-width:1;stroke-linecap:butt;stroke-linejoin:miter;stroke:rgb(0%,0%,0%);stroke-opacity:1;stroke-miterlimit:10;" d="M 321.132812 311.695312 L 301.132812 311.695312 L 301.132812 321.695312 L 321.132812 321.695312 L 321.132812 341.695312 L 331.132812 341.695312 L 331.132812 321.695312 L 351.132812 321.695312 L 351.132812 311.695312 L 331.132812 311.695312 L 331.132812 291.695312 L 321.132812 291.695312 L 321.132812 311.695312 "/>
<path style="fill-rule:nonzero;fill:rgb(100%,0%,0%);fill-opacity:1;stroke-width:1;stroke-linecap:butt;stroke-linejoin:miter;stroke:rgb(0%,0%,0%);stroke-opacity:1;stroke-miterlimit:10;" d="M 363.765625 471.835938 L 343.765625 471.835938 L 343.765625 481.835938 L 363.765625 481.835938 L 363.765625 501.835938 L 373.765625 501.835938 L 373.765625 481.835938 L 393.765625 481.835938 L 393.765625 471.835938 L 373.765625 471.835938 L 373.765625 451.835938 L 363.765625 451.835938 L 363.765625 471.835938 "/>
<path style="fill-rule:nonzero;fill:rgb(100%,0%,0%);fill-opacity:1;stroke-width:1;stroke-linecap:butt;stroke-linejoin:miter;stroke:rgb(0%,0%,0%);stroke-opacity:1;stroke-miterlimit:10;" d="M 365.492188 370.082031 L 345.492188 370.082031 L 345.492188 380.082031 L 365.492188 380.082031 L 365.492188 400.082031 L 375.492188 400.082031 L 375.492188 380.082031 L 395.492188 380.082031 L 395.492188 370.082031 L 375.492188 370.082031 L 375.492188 350.082031 L 365.492188 350.082031 L 365.492188 370.082031 "/>
<path style="fill-rule:nonzero;fill:rgb(100%,0%,0%);fill-opacity:1;stroke-width:1;stroke-linecap:butt;stroke-linejoin:miter;stroke:rgb(0%,0%,0%);stroke-opacity:1;stroke-miterlimit:10;" d="M 411.671875 211.523438 L 391.671875 211.523438 L 391.671875 221.523438 L 411.671875 221.523438 L 411.671875 241.523438 L 421.671875 241.523438 L 421.671875 221.523438 L 441.671875 221.523438 L 441.671875 211.523438 L 421.671875 211.523438 L 421.671875 191.523438 L 411.671875 191.523438 L 411.671875 211.523438 "/>
<path style="fill-rule:nonzero;fill:rgb(100%,0%,0%);fill-opacity:1;stroke-width:1;stroke-linecap:butt;stroke-linejoin:miter;stroke:rgb(0%,0%,0%);stroke-opacity:1;stroke-miterlimit:10;" d="M 347.035156 86.261719 L 327.035156 86.261719 L 327.035156 96.261719 L 347.035156 96.261719 L 347.035156 116.261719 L 357.035156 116.261719 L 357.035156 96.261719 L 377.035156 96.261719 L 377.035156 86.261719 L 357.035156 86.261719 L 357.035156 66.261719 L 347.035156 66.261719 L 347.035156 86.261719 "/>
</g>
</svg>
