<?xml version="1.0" encoding="UTF-8"?>
<svg xmlns="http://www.w3.org/2000/svg" xmlns:xlink="http://www.w3.org/1999/xlink" width="517pt" height="517pt" viewBox="0 0 517 517" version="1.1">
<g id="surface6306">
<rect x="0" y="0" width="517" height="517" style="fill:rgb(90%,90%,90%);fill-opacity:1;stroke:none;"/>
<path style="fill-rule:nonzero;fill:rgb(50%,0%,50%);fill-opacity:1;stroke-width:1;stroke-linecap:butt;stroke-linejoin:miter;stroke:rgb(0%,0%,0%);stroke-opacity:1;stroke-miterlimit:10;" d="M 341.980469 190.699219 L 321.980469 190.699219 L 321.980469 200.699219 L 341.980469 200.699219 L 341.980469 220.699219 L 351.980469 220.699219 L 351.980469 200.699219 L 371.980469 200.699219 L 371.980469 190.699219 L 351.980469 190.699219 L 351.980469 170.699219 L 341.980469 170.699219 L 341.980469 190.699219 "/>
<path style="fill-rule:nonzero;fill:rgb(50%,0%,50%);fill-opacity:1;stroke-width:1;stroke-linecap:butt;stroke-linejoin:miter;stroke:rgb(0%,0%,0%);stroke-opacity:1;stroke-miterlimit:10;" d="M 325.851562 77.675781 L 305.851562 77.675781 L 305.851562 87.675781 L 325.851562 87.675781 L 325.851562 107.675781 L 335.851562 107.675781 L 335.851562 87.675781 L 355.851562 87.675781 L 355.851562 77.675781 L 335.851562 77.675781 L 335.851562 57.675781 L 325.851562 57.675781 L 325.851562 77.675781 "/>
<path style="fill-rule:nonzero;fill:rgb(67%,100%,18%);fill-opacity:1;stroke-width:1;stroke-linecap:butt;stroke-linejoin:miter;stroke:rgb(0%,0%,0%);stroke-opacity:1;stroke-miterlimit:10;" d="M 157.742188 184.003906 L 137.742188 184.003906 L 137.742188 194.003906 L 157.742188 194.003906 L 157.742188 214.003906 L 167.742188 214.003906 L 167.742188 194.003906 L 187.742188 194.003906 L 187.742188 184.003906 L 167.742188 184.003906 L 167.742188 164.003906 L 157.742188 164.003906 L 157.742188 184.003906 "/>
<path style="fill-rule:nonzero;fill:rgb(67%,100%,18%);fill-opacity:1;stroke-width:1;stroke-linecap:butt;stroke-linejoin:miter;stroke:rgb(0%,0%,0%);stroke-opacity:1;stroke-miterlimit:10;" d="M 173.492188 101.273438 L 153.492188 101.273438 L 153.492188 111.273438 L 173.492188 111.273438 L 173.492188 131.273438 L 183.492188 131.273438 L 183.492188 111.273438 L 203.492188 111.273438 L 203.492188 101.273438 L 183.492188 101.273438 L 183.492188 81.273438 L 173.492188 81.273438 L 173.492188 101.273438 "/>
<path style="fill-rule:nonzero;fill:rgb(67%,100%,18%);fill-opacity:1;stroke-width:1;stroke-linecap:butt;stroke-linejoin:miter;stroke:rgb(0%,0%,0%);stroke-opacity:1;stroke-miterlimit:10;" d="M 43.367188 203.195312 L 23.367188 203.195312 L 23.367188 213.195312 L 43.367188 213.195312 L 43.367188 233.195312 L 53.367188 233.195312 L 53.367188 213.195312 L 73.367188 213.195312 L 73.367188 203.195312 L 53.367188 203.195312 L 53.367188 183.195312 L 43.367188 183.195312 L 43.367188 203.195312 "/>
<path style="fill-rule:nonzero;fill:rgb(67%,100%,18%);fill-opacity:1;stroke-width:1;stroke-linecap:butt;stroke-linejoin:miter;stroke:rgb(0%,0%,0%);stroke-opacity:1;stroke-miterlimit:10;" d="M 140.972656 44.738281 L 120.972656 44.738281 L 120.972656 54.738281 L 140.972656 54.738281 L 140.972656 74.738281 L 150.972656 74.738281 L 150.972656 54.738281 L 170.972656 54.738281 L 170.972656 44.738281 L 150.972656 44.738281 L 150.972656 24.738281 L 140.972656 24.738281 L 140.972656 44.738281 "/>
<path style="fill-rule:nonzero;fill:rgb(67%,100%,18%);fill-opacity:1;stroke-width:1;stroke-linecap:butt;stroke-linejoin:miter;stroke:rgb(0%,0%,0%);stroke-opacity:1;stroke-miterlimit:10;" d="M 72.457031 45.546875 L 52.457031 45.546875 L 52.457031 55.546875 L 72.457031 55.546875 L 72.457031 75.546875 L 82.457031 75.546875 L 82.457031 55.546875 L 102.457031 55.546875 L 102.457031 45.546875 L 82.457031 45.546875 L 82.457031 25.546875 L 72.457031 25.546875 L 72.457031 45.546875 "/>
<path style="fill-rule:nonzero;fill:rgb(67%,100%,18%);fill-opacity:1;stroke-width:1;stroke-linecap:butt;stroke-linejoin:miter;stroke:rgb(0%,0%,0%);stroke-opacity:1;stroke-miterlimit:10;" d="M 73.195312 412.6875 L 53.195312 412.6875 L 53.195312 422.6875 L 73.195312 422.6875 L 73.195312 442.6875 L 83.195312 442.6875 L 83.195312 422.6875 L 103.195312 422.6875 L 103.195312 412.6875 L 83.195312 412.6875 L 83.195312 392.6875 L 73.195312 392.6875 L 73.195312 412.6875 "/>
</g>
</svg>
