<?xml version="1.0" encoding="UTF-8"?>
<svg xmlns="http://www.w3.org/2000/svg" xmlns:xlink="http://www.w3.org/1999/xlink" width="517pt" height="517pt" viewBox="0 0 517 517" version="1.1">
<g id="surface1066">
<rect x="0" y="0" width="517" height="517" style="fill:rgb(90%,90%,90%);fill-opacity:1;stroke:none;"/>
<path style="fill:none;stroke-width:5;stroke-linecap:butt;stroke-linejoin:round;stroke:rgb(100%,0%,0%);stroke-opacity:1;stroke-miterlimit:10;" d="M 5 261 L 261 261 L 261 517 L 5 517 Z M 5 261 "/>
<path style="fill-rule:nonzero;fill:rgb(100%,0%,0%);fill-opacity:1;stroke-width:1;stroke-linecap:butt;stroke-linejoin:round;stroke:rgb(0%,0%,0%);stroke-opacity:1;stroke-miterlimit:10;" d="M 156.734375 413.675781 C 156.734375 399.277344 132.734375 399.277344 132.734375 413.675781 C 132.734375 428.078125 156.734375 430.476562 156.734375 442.476562 C 156.734375 430.476562 180.734375 428.078125 180.734375 413.675781 C 180.734375 399.277344 156.734375 399.277344 156.734375 413.675781 "/>
<path style="fill-rule:nonzero;fill:rgb(35%,70%,90%);fill-opacity:1;stroke-width:1;stroke-linecap:butt;stroke-linejoin:round;stroke:rgb(0%,0%,0%);stroke-opacity:1;stroke-miterlimit:10;" d="M 370.09375 448.296875 C 370.09375 433.898438 346.09375 433.898438 346.09375 448.296875 C 346.09375 462.699219 370.09375 465.097656 370.09375 477.097656 C 370.09375 465.097656 394.09375 462.699219 394.09375 448.296875 C 394.09375 433.898438 370.09375 433.898438 370.09375 448.296875 "/>
<path style="fill-rule:nonzero;fill:rgb(35%,70%,90%);fill-opacity:1;stroke-width:1;stroke-linecap:butt;stroke-linejoin:round;stroke:rgb(0%,0%,0%);stroke-opacity:1;stroke-miterlimit:10;" d="M 80.570312 30.929688 C 80.570312 16.53125 56.570312 16.53125 56.570312 30.929688 C 56.570312 45.332031 80.570312 47.730469 80.570312 59.730469 C 80.570312 47.730469 104.570312 45.332031 104.570312 30.929688 C 104.570312 16.53125 80.570312 16.53125 80.570312 30.929688 "/>
<path style="fill-rule:nonzero;fill:rgb(100%,0%,0%);fill-opacity:1;stroke-width:1;stroke-linecap:butt;stroke-linejoin:round;stroke:rgb(0%,0%,0%);stroke-opacity:1;stroke-miterlimit:10;" d="M 339.558594 100.132812 C 339.558594 85.734375 315.558594 85.734375 315.558594 100.132812 C 315.558594 114.535156 339.558594 116.933594 339.558594 128.933594 C 339.558594 116.933594 363.558594 114.535156 363.558594 100.132812 C 363.558594 85.734375 339.558594 85.734375 339.558594 100.132812 "/>
</g>
</svg>
