<?xml version="1.0" encoding="UTF-8"?>
<svg xmlns="http://www.w3.org/2000/svg" xmlns:xlink="http://www.w3.org/1999/xlink" width="517pt" height="517pt" viewBox="0 0 517 517" version="1.1">
<g id="surface1506">
<rect x="0" y="0" width="517" height="517" style="fill:rgb(90%,90%,90%);fill-opacity:1;stroke:none;"/>
<path style="fill:none;stroke-width:5;stroke-linecap:butt;stroke-linejoin:round;stroke:rgb(100%,0%,0%);stroke-opacity:1;stroke-miterlimit:10;" d="M 261 261 L 517 261 L 517 517 L 261 517 Z M 261 261 "/>
<path style="fill-rule:nonzero;fill:rgb(50%,0%,50%);fill-opacity:1;stroke-width:1;stroke-linecap:butt;stroke-linejoin:round;stroke:rgb(0%,0%,0%);stroke-opacity:1;stroke-miterlimit:10;" d="M 437.464844 420.53125 C 437.464844 406.128906 413.464844 406.128906 413.464844 420.53125 C 413.464844 434.929688 437.464844 437.328125 437.464844 449.328125 C 437.464844 437.328125 461.464844 434.929688 461.464844 420.53125 C 461.464844 406.128906 437.464844 406.128906 437.464844 420.53125 "/>
<path style="fill-rule:nonzero;fill:rgb(50%,0%,50%);fill-opacity:1;stroke-width:1;stroke-linecap:butt;stroke-linejoin:round;stroke:rgb(0%,0%,0%);stroke-opacity:1;stroke-miterlimit:10;" d="M 347.320312 132.339844 C 347.320312 117.9375 323.320312 117.9375 323.320312 132.339844 C 323.320312 146.738281 347.320312 149.136719 347.320312 161.136719 C 347.320312 149.136719 371.320312 146.738281 371.320312 132.339844 C 371.320312 117.9375 347.320312 117.9375 347.320312 132.339844 "/>
<path style="fill-rule:nonzero;fill:rgb(50%,0%,50%);fill-opacity:1;stroke-width:1;stroke-linecap:butt;stroke-linejoin:round;stroke:rgb(0%,0%,0%);stroke-opacity:1;stroke-miterlimit:10;" d="M 49.238281 53.632812 C 49.238281 39.234375 25.238281 39.234375 25.238281 53.632812 C 25.238281 68.035156 49.238281 70.433594 49.238281 82.433594 C 49.238281 70.433594 73.238281 68.035156 73.238281 53.632812 C 73.238281 39.234375 49.238281 39.234375 49.238281 53.632812 "/>
<path style="fill-rule:nonzero;fill:rgb(50%,0%,50%);fill-opacity:1;stroke-width:1;stroke-linecap:butt;stroke-linejoin:round;stroke:rgb(0%,0%,0%);stroke-opacity:1;stroke-miterlimit:10;" d="M 216.625 55.726562 C 216.625 41.328125 192.625 41.328125 192.625 55.726562 C 192.625 70.128906 216.625 72.527344 216.625 84.527344 C 216.625 72.527344 240.625 70.128906 240.625 55.726562 C 240.625 41.328125 216.625 41.328125 216.625 55.726562 "/>
</g>
</svg>
