<?xml version="1.0" encoding="UTF-8"?>
<svg xmlns="http://www.w3.org/2000/svg" xmlns:xlink="http://www.w3.org/1999/xlink" width="517pt" height="517pt" viewBox="0 0 517 517" version="1.1">
<g id="surface6346">
<rect x="0" y="0" width="517" height="517" style="fill:rgb(90%,90%,90%);fill-opacity:1;stroke:none;"/>
<path style="fill-rule:nonzero;fill:rgb(90%,65%,0%);fill-opacity:1;stroke-width:1;stroke-linecap:butt;stroke-linejoin:miter;stroke:rgb(0%,0%,0%);stroke-opacity:1;stroke-miterlimit:10;" d="M 131.648438 119.203125 L 111.648438 119.203125 L 111.648438 129.203125 L 131.648438 129.203125 L 131.648438 149.203125 L 141.648438 149.203125 L 141.648438 129.203125 L 161.648438 129.203125 L 161.648438 119.203125 L 141.648438 119.203125 L 141.648438 99.203125 L 131.648438 99.203125 L 131.648438 119.203125 "/>
<path style="fill-rule:nonzero;fill:rgb(90%,65%,0%);fill-opacity:1;stroke-width:1;stroke-linecap:butt;stroke-linejoin:miter;stroke:rgb(0%,0%,0%);stroke-opacity:1;stroke-miterlimit:10;" d="M 156.140625 289.144531 L 136.140625 289.144531 L 136.140625 299.144531 L 156.140625 299.144531 L 156.140625 319.144531 L 166.140625 319.144531 L 166.140625 299.144531 L 186.140625 299.144531 L 186.140625 289.144531 L 166.140625 289.144531 L 166.140625 269.144531 L 156.140625 269.144531 L 156.140625 289.144531 "/>
<path style="fill-rule:nonzero;fill:rgb(0%,0%,0%);fill-opacity:1;stroke-width:1;stroke-linecap:butt;stroke-linejoin:miter;stroke:rgb(0%,0%,0%);stroke-opacity:1;stroke-miterlimit:10;" d="M 60.753906 334.285156 L 40.753906 334.285156 L 40.753906 344.285156 L 60.753906 344.285156 L 60.753906 364.285156 L 70.753906 364.285156 L 70.753906 344.285156 L 90.753906 344.285156 L 90.753906 334.285156 L 70.753906 334.285156 L 70.753906 314.285156 L 60.753906 314.285156 L 60.753906 334.285156 "/>
<path style="fill-rule:nonzero;fill:rgb(0%,0%,0%);fill-opacity:1;stroke-width:1;stroke-linecap:butt;stroke-linejoin:miter;stroke:rgb(0%,0%,0%);stroke-opacity:1;stroke-miterlimit:10;" d="M 193.234375 389.371094 L 173.234375 389.371094 L 173.234375 399.371094 L 193.234375 399.371094 L 193.234375 419.371094 L 203.234375 419.371094 L 203.234375 399.371094 L 223.234375 399.371094 L 223.234375 389.371094 L 203.234375 389.371094 L 203.234375 369.371094 L 193.234375 369.371094 L 193.234375 389.371094 "/>
<path style="fill-rule:nonzero;fill:rgb(0%,0%,0%);fill-opacity:1;stroke-width:1;stroke-linecap:butt;stroke-linejoin:miter;stroke:rgb(0%,0%,0%);stroke-opacity:1;stroke-miterlimit:10;" d="M 137.871094 421.109375 L 117.871094 421.109375 L 117.871094 431.109375 L 137.871094 431.109375 L 137.871094 451.109375 L 147.871094 451.109375 L 147.871094 431.109375 L 167.871094 431.109375 L 167.871094 421.109375 L 147.871094 421.109375 L 147.871094 401.109375 L 137.871094 401.109375 L 137.871094 421.109375 "/>
<path style="fill-rule:nonzero;fill:rgb(0%,0%,0%);fill-opacity:1;stroke-width:1;stroke-linecap:butt;stroke-linejoin:miter;stroke:rgb(0%,0%,0%);stroke-opacity:1;stroke-miterlimit:10;" d="M 337.65625 154.429688 L 317.65625 154.429688 L 317.65625 164.429688 L 337.65625 164.429688 L 337.65625 184.429688 L 347.65625 184.429688 L 347.65625 164.429688 L 367.65625 164.429688 L 367.65625 154.429688 L 347.65625 154.429688 L 347.65625 134.429688 L 337.65625 134.429688 L 337.65625 154.429688 "/>
<path style="fill-rule:nonzero;fill:rgb(0%,0%,0%);fill-opacity:1;stroke-width:1;stroke-linecap:butt;stroke-linejoin:miter;stroke:rgb(0%,0%,0%);stroke-opacity:1;stroke-miterlimit:10;" d="M 403.984375 170.257812 L 383.984375 170.257812 L 383.984375 180.257812 L 403.984375 180.257812 L 403.984375 200.257812 L 413.984375 200.257812 L 413.984375 180.257812 L 433.984375 180.257812 L 433.984375 170.257812 L 413.984375 170.257812 L 413.984375 150.257812 L 403.984375 150.257812 L 403.984375 170.257812 "/>
<path style="fill-rule:nonzero;fill:rgb(0%,0%,0%);fill-opacity:1;stroke-width:1;stroke-linecap:butt;stroke-linejoin:miter;stroke:rgb(0%,0%,0%);stroke-opacity:1;stroke-miterlimit:10;" d="M 403.273438 62.988281 L 383.273438 62.988281 L 383.273438 72.988281 L 403.273438 72.988281 L 403.273438 92.988281 L 413.273438 92.988281 L 413.273438 72.988281 L 433.273438 72.988281 L 433.273438 62.988281 L 413.273438 62.988281 L 413.273438 42.988281 L 403.273438 42.988281 L 403.273438 62.988281 "/>
</g>
</svg>
