<?xml version="1.0" encoding="UTF-8"?>
<svg xmlns="http://www.w3.org/2000/svg" xmlns:xlink="http://www.w3.org/1999/xlink" width="517pt" height="517pt" viewBox="0 0 517 517" version="1.1">
<g id="surface1471">
<rect x="0" y="0" width="517" height="517" style="fill:rgb(90%,90%,90%);fill-opacity:1;stroke:none;"/>
<path style="fill:none;stroke-width:5;stroke-linecap:butt;stroke-linejoin:round;stroke:rgb(100%,0%,0%);stroke-opacity:1;stroke-miterlimit:10;" d="M 261 261 L 517 261 L 517 517 L 261 517 Z M 261 261 "/>
<path style="fill-rule:nonzero;fill:rgb(100%,100%,0%);fill-opacity:1;stroke-width:1;stroke-linecap:butt;stroke-linejoin:round;stroke:rgb(0%,0%,0%);stroke-opacity:1;stroke-miterlimit:10;" d="M 372.71875 426.183594 C 372.71875 411.785156 348.71875 411.785156 348.71875 426.183594 C 348.71875 440.582031 372.71875 442.984375 372.71875 454.984375 C 372.71875 442.984375 396.71875 440.582031 396.71875 426.183594 C 396.71875 411.785156 372.71875 411.785156 372.71875 426.183594 "/>
<path style="fill-rule:nonzero;fill:rgb(50%,0%,50%);fill-opacity:1;stroke-width:1;stroke-linecap:butt;stroke-linejoin:round;stroke:rgb(0%,0%,0%);stroke-opacity:1;stroke-miterlimit:10;" d="M 163.097656 96.253906 C 163.097656 81.851562 139.097656 81.851562 139.097656 96.253906 C 139.097656 110.652344 163.097656 113.054688 163.097656 125.054688 C 163.097656 113.054688 187.097656 110.652344 187.097656 96.253906 C 187.097656 81.851562 163.097656 81.851562 163.097656 96.253906 "/>
<path style="fill-rule:nonzero;fill:rgb(50%,0%,50%);fill-opacity:1;stroke-width:1;stroke-linecap:butt;stroke-linejoin:round;stroke:rgb(0%,0%,0%);stroke-opacity:1;stroke-miterlimit:10;" d="M 54.648438 131.835938 C 54.648438 117.4375 30.648438 117.4375 30.648438 131.835938 C 30.648438 146.238281 54.648438 148.636719 54.648438 160.636719 C 54.648438 148.636719 78.648438 146.238281 78.648438 131.835938 C 78.648438 117.4375 54.648438 117.4375 54.648438 131.835938 "/>
<path style="fill-rule:nonzero;fill:rgb(100%,100%,0%);fill-opacity:1;stroke-width:1;stroke-linecap:butt;stroke-linejoin:round;stroke:rgb(0%,0%,0%);stroke-opacity:1;stroke-miterlimit:10;" d="M 213.203125 356.011719 C 213.203125 341.613281 189.203125 341.613281 189.203125 356.011719 C 189.203125 370.414062 213.203125 372.8125 213.203125 384.8125 C 213.203125 372.8125 237.203125 370.414062 237.203125 356.011719 C 237.203125 341.613281 213.203125 341.613281 213.203125 356.011719 "/>
</g>
</svg>
