<?xml version="1.0" encoding="UTF-8"?>
<svg xmlns="http://www.w3.org/2000/svg" xmlns:xlink="http://www.w3.org/1999/xlink" width="517pt" height="517pt" viewBox="0 0 517 517" version="1.1">
<g id="surface6126">
<rect x="0" y="0" width="517" height="517" style="fill:rgb(90%,90%,90%);fill-opacity:1;stroke:none;"/>
<path style="fill-rule:nonzero;fill:rgb(67%,100%,18%);fill-opacity:1;stroke-width:1;stroke-linecap:butt;stroke-linejoin:miter;stroke:rgb(0%,0%,0%);stroke-opacity:1;stroke-miterlimit:10;" d="M 324.628906 102.398438 L 304.628906 102.398438 L 304.628906 112.398438 L 324.628906 112.398438 L 324.628906 132.398438 L 334.628906 132.398438 L 334.628906 112.398438 L 354.628906 112.398438 L 354.628906 102.398438 L 334.628906 102.398438 L 334.628906 82.398438 L 324.628906 82.398438 L 324.628906 102.398438 "/>
<path style="fill-rule:nonzero;fill:rgb(67%,100%,18%);fill-opacity:1;stroke-width:1;stroke-linecap:butt;stroke-linejoin:miter;stroke:rgb(0%,0%,0%);stroke-opacity:1;stroke-miterlimit:10;" d="M 430.972656 50.003906 L 410.972656 50.003906 L 410.972656 60.003906 L 430.972656 60.003906 L 430.972656 80.003906 L 440.972656 80.003906 L 440.972656 60.003906 L 460.972656 60.003906 L 460.972656 50.003906 L 440.972656 50.003906 L 440.972656 30.003906 L 430.972656 30.003906 L 430.972656 50.003906 "/>
<path style="fill-rule:nonzero;fill:rgb(67%,100%,18%);fill-opacity:1;stroke-width:1;stroke-linecap:butt;stroke-linejoin:miter;stroke:rgb(0%,0%,0%);stroke-opacity:1;stroke-miterlimit:10;" d="M 379.597656 425.394531 L 359.597656 425.394531 L 359.597656 435.394531 L 379.597656 435.394531 L 379.597656 455.394531 L 389.597656 455.394531 L 389.597656 435.394531 L 409.597656 435.394531 L 409.597656 425.394531 L 389.597656 425.394531 L 389.597656 405.394531 L 379.597656 405.394531 L 379.597656 425.394531 "/>
<path style="fill-rule:nonzero;fill:rgb(67%,100%,18%);fill-opacity:1;stroke-width:1;stroke-linecap:butt;stroke-linejoin:miter;stroke:rgb(0%,0%,0%);stroke-opacity:1;stroke-miterlimit:10;" d="M 468.429688 343.277344 L 448.429688 343.277344 L 448.429688 353.277344 L 468.429688 353.277344 L 468.429688 373.277344 L 478.429688 373.277344 L 478.429688 353.277344 L 498.429688 353.277344 L 498.429688 343.277344 L 478.429688 343.277344 L 478.429688 323.277344 L 468.429688 323.277344 L 468.429688 343.277344 "/>
<path style="fill-rule:nonzero;fill:rgb(67%,100%,18%);fill-opacity:1;stroke-width:1;stroke-linecap:butt;stroke-linejoin:miter;stroke:rgb(0%,0%,0%);stroke-opacity:1;stroke-miterlimit:10;" d="M 437.226562 406.015625 L 417.226562 406.015625 L 417.226562 416.015625 L 437.226562 416.015625 L 437.226562 436.015625 L 447.226562 436.015625 L 447.226562 416.015625 L 467.226562 416.015625 L 467.226562 406.015625 L 447.226562 406.015625 L 447.226562 386.015625 L 437.226562 386.015625 L 437.226562 406.015625 "/>
<path style="fill-rule:nonzero;fill:rgb(67%,100%,18%);fill-opacity:1;stroke-width:1;stroke-linecap:butt;stroke-linejoin:miter;stroke:rgb(0%,0%,0%);stroke-opacity:1;stroke-miterlimit:10;" d="M 364.0625 338.683594 L 344.0625 338.683594 L 344.0625 348.683594 L 364.0625 348.683594 L 364.0625 368.683594 L 374.0625 368.683594 L 374.0625 348.683594 L 394.0625 348.683594 L 394.0625 338.683594 L 374.0625 338.683594 L 374.0625 318.683594 L 364.0625 318.683594 L 364.0625 338.683594 "/>
<path style="fill-rule:nonzero;fill:rgb(67%,100%,18%);fill-opacity:1;stroke-width:1;stroke-linecap:butt;stroke-linejoin:miter;stroke:rgb(0%,0%,0%);stroke-opacity:1;stroke-miterlimit:10;" d="M 417.230469 300.921875 L 397.230469 300.921875 L 397.230469 310.921875 L 417.230469 310.921875 L 417.230469 330.921875 L 427.230469 330.921875 L 427.230469 310.921875 L 447.230469 310.921875 L 447.230469 300.921875 L 427.230469 300.921875 L 427.230469 280.921875 L 417.230469 280.921875 L 417.230469 300.921875 "/>
<path style="fill-rule:nonzero;fill:rgb(67%,100%,18%);fill-opacity:1;stroke-width:1;stroke-linecap:butt;stroke-linejoin:miter;stroke:rgb(0%,0%,0%);stroke-opacity:1;stroke-miterlimit:10;" d="M 62.703125 30.691406 L 42.703125 30.691406 L 42.703125 40.691406 L 62.703125 40.691406 L 62.703125 60.691406 L 72.703125 60.691406 L 72.703125 40.691406 L 92.703125 40.691406 L 92.703125 30.691406 L 72.703125 30.691406 L 72.703125 10.691406 L 62.703125 10.691406 L 62.703125 30.691406 "/>
</g>
</svg>
