<?xml version="1.0" encoding="UTF-8"?>
<svg xmlns="http://www.w3.org/2000/svg" xmlns:xlink="http://www.w3.org/1999/xlink" width="517pt" height="517pt" viewBox="0 0 517 517" version="1.1">
<g id="surface5146">
<rect x="0" y="0" width="517" height="517" style="fill:rgb(90%,90%,90%);fill-opacity:1;stroke:none;"/>
<path style="fill-rule:nonzero;fill:rgb(100%,0%,0%);fill-opacity:1;stroke-width:1;stroke-linecap:butt;stroke-linejoin:miter;stroke:rgb(0%,0%,0%);stroke-opacity:1;stroke-miterlimit:10;" d="M 431.40625 150.863281 C 431.40625 167.433594 417.976562 180.863281 401.40625 180.863281 C 384.835938 180.863281 371.40625 167.433594 371.40625 150.863281 C 371.40625 134.296875 384.835938 120.863281 401.40625 120.863281 C 417.976562 120.863281 431.40625 134.296875 431.40625 150.863281 "/>
<path style="fill-rule:nonzero;fill:rgb(100%,0%,0%);fill-opacity:1;stroke-width:1;stroke-linecap:butt;stroke-linejoin:miter;stroke:rgb(0%,0%,0%);stroke-opacity:1;stroke-miterlimit:10;" d="M 355.71875 139.363281 C 355.71875 155.929688 342.285156 169.363281 325.71875 169.363281 C 309.148438 169.363281 295.71875 155.929688 295.71875 139.363281 C 295.71875 122.792969 309.148438 109.363281 325.71875 109.363281 C 342.285156 109.363281 355.71875 122.792969 355.71875 139.363281 "/>
<path style="fill-rule:nonzero;fill:rgb(35%,70%,90%);fill-opacity:1;stroke-width:1;stroke-linecap:butt;stroke-linejoin:miter;stroke:rgb(0%,0%,0%);stroke-opacity:1;stroke-miterlimit:10;" d="M 148.230469 40.316406 C 148.230469 56.886719 134.800781 70.316406 118.230469 70.316406 C 101.664062 70.316406 88.230469 56.886719 88.230469 40.316406 C 88.230469 23.75 101.664062 10.316406 118.230469 10.316406 C 134.800781 10.316406 148.230469 23.75 148.230469 40.316406 "/>
<path style="fill-rule:nonzero;fill:rgb(35%,70%,90%);fill-opacity:1;stroke-width:1;stroke-linecap:butt;stroke-linejoin:miter;stroke:rgb(0%,0%,0%);stroke-opacity:1;stroke-miterlimit:10;" d="M 213.515625 193.078125 C 213.515625 209.644531 200.085938 223.078125 183.515625 223.078125 C 166.949219 223.078125 153.515625 209.644531 153.515625 193.078125 C 153.515625 176.507812 166.949219 163.078125 183.515625 163.078125 C 200.085938 163.078125 213.515625 176.507812 213.515625 193.078125 "/>
<path style="fill-rule:nonzero;fill:rgb(35%,70%,90%);fill-opacity:1;stroke-width:1;stroke-linecap:butt;stroke-linejoin:miter;stroke:rgb(0%,0%,0%);stroke-opacity:1;stroke-miterlimit:10;" d="M 139.410156 194.152344 C 139.410156 210.71875 125.980469 224.152344 109.410156 224.152344 C 92.84375 224.152344 79.410156 210.71875 79.410156 194.152344 C 79.410156 177.582031 92.84375 164.152344 109.410156 164.152344 C 125.980469 164.152344 139.410156 177.582031 139.410156 194.152344 "/>
<path style="fill-rule:nonzero;fill:rgb(35%,70%,90%);fill-opacity:1;stroke-width:1;stroke-linecap:butt;stroke-linejoin:miter;stroke:rgb(0%,0%,0%);stroke-opacity:1;stroke-miterlimit:10;" d="M 83.890625 144.628906 C 83.890625 161.195312 70.460938 174.628906 53.890625 174.628906 C 37.320312 174.628906 23.890625 161.195312 23.890625 144.628906 C 23.890625 128.058594 37.320312 114.628906 53.890625 114.628906 C 70.460938 114.628906 83.890625 128.058594 83.890625 144.628906 "/>
<path style="fill-rule:nonzero;fill:rgb(35%,70%,90%);fill-opacity:1;stroke-width:1;stroke-linecap:butt;stroke-linejoin:miter;stroke:rgb(0%,0%,0%);stroke-opacity:1;stroke-miterlimit:10;" d="M 92.269531 469.335938 C 92.269531 485.902344 78.839844 499.335938 62.269531 499.335938 C 45.703125 499.335938 32.269531 485.902344 32.269531 469.335938 C 32.269531 452.765625 45.703125 439.335938 62.269531 439.335938 C 78.839844 439.335938 92.269531 452.765625 92.269531 469.335938 "/>
<path style="fill-rule:nonzero;fill:rgb(35%,70%,90%);fill-opacity:1;stroke-width:1;stroke-linecap:butt;stroke-linejoin:miter;stroke:rgb(0%,0%,0%);stroke-opacity:1;stroke-miterlimit:10;" d="M 249.179688 431.289062 C 249.179688 447.855469 235.75 461.289062 219.179688 461.289062 C 202.613281 461.289062 189.179688 447.855469 189.179688 431.289062 C 189.179688 414.71875 202.613281 401.289062 219.179688 401.289062 C 235.75 401.289062 249.179688 414.71875 249.179688 431.289062 "/>
</g>
</svg>
