<?xml version="1.0" encoding="UTF-8"?>
<svg xmlns="http://www.w3.org/2000/svg" xmlns:xlink="http://www.w3.org/1999/xlink" width="517pt" height="517pt" viewBox="0 0 517 517" version="1.1">
<g id="surface1146">
<rect x="0" y="0" width="517" height="517" style="fill:rgb(90%,90%,90%);fill-opacity:1;stroke:none;"/>
<path style="fill:none;stroke-width:5;stroke-linecap:butt;stroke-linejoin:round;stroke:rgb(100%,0%,0%);stroke-opacity:1;stroke-miterlimit:10;" d="M 5 261 L 261 261 L 261 517 L 5 517 Z M 5 261 "/>
<path style="fill-rule:nonzero;fill:rgb(35%,70%,90%);fill-opacity:1;stroke-width:1;stroke-linecap:butt;stroke-linejoin:round;stroke:rgb(0%,0%,0%);stroke-opacity:1;stroke-miterlimit:10;" d="M 64.386719 413.289062 L 44.386719 413.289062 L 44.386719 423.289062 L 64.386719 423.289062 L 64.386719 443.289062 L 74.386719 443.289062 L 74.386719 423.289062 L 94.386719 423.289062 L 94.386719 413.289062 L 74.386719 413.289062 L 74.386719 393.289062 L 64.386719 393.289062 L 64.386719 413.289062 "/>
<path style="fill-rule:nonzero;fill:rgb(100%,0%,0%);fill-opacity:1;stroke-width:1;stroke-linecap:butt;stroke-linejoin:round;stroke:rgb(0%,0%,0%);stroke-opacity:1;stroke-miterlimit:10;" d="M 71.953125 208.1875 L 51.953125 208.1875 L 51.953125 218.1875 L 71.953125 218.1875 L 71.953125 238.1875 L 81.953125 238.1875 L 81.953125 218.1875 L 101.953125 218.1875 L 101.953125 208.1875 L 81.953125 208.1875 L 81.953125 188.1875 L 71.953125 188.1875 L 71.953125 208.1875 "/>
<path style="fill-rule:nonzero;fill:rgb(100%,0%,0%);fill-opacity:1;stroke-width:1;stroke-linecap:butt;stroke-linejoin:round;stroke:rgb(0%,0%,0%);stroke-opacity:1;stroke-miterlimit:10;" d="M 49.714844 120.554688 L 29.714844 120.554688 L 29.714844 130.554688 L 49.714844 130.554688 L 49.714844 150.554688 L 59.714844 150.554688 L 59.714844 130.554688 L 79.714844 130.554688 L 79.714844 120.554688 L 59.714844 120.554688 L 59.714844 100.554688 L 49.714844 100.554688 L 49.714844 120.554688 "/>
<path style="fill-rule:nonzero;fill:rgb(35%,70%,90%);fill-opacity:1;stroke-width:1;stroke-linecap:butt;stroke-linejoin:round;stroke:rgb(0%,0%,0%);stroke-opacity:1;stroke-miterlimit:10;" d="M 287.878906 113.175781 L 267.878906 113.175781 L 267.878906 123.175781 L 287.878906 123.175781 L 287.878906 143.175781 L 297.878906 143.175781 L 297.878906 123.175781 L 317.878906 123.175781 L 317.878906 113.175781 L 297.878906 113.175781 L 297.878906 93.175781 L 287.878906 93.175781 L 287.878906 113.175781 "/>
</g>
</svg>
