<?xml version="1.0" encoding="UTF-8"?>
<svg xmlns="http://www.w3.org/2000/svg" xmlns:xlink="http://www.w3.org/1999/xlink" width="517pt" height="517pt" viewBox="0 0 517 517" version="1.1">
<g id="surface6256">
<rect x="0" y="0" width="517" height="517" style="fill:rgb(90%,90%,90%);fill-opacity:1;stroke:none;"/>
<path style="fill-rule:nonzero;fill:rgb(50%,0%,50%);fill-opacity:1;stroke-width:1;stroke-linecap:butt;stroke-linejoin:miter;stroke:rgb(0%,0%,0%);stroke-opacity:1;stroke-miterlimit:10;" d="M 325.1875 400.367188 L 305.1875 400.367188 L 305.1875 410.367188 L 325.1875 410.367188 L 325.1875 430.367188 L 335.1875 430.367188 L 335.1875 410.367188 L 355.1875 410.367188 L 355.1875 400.367188 L 335.1875 400.367188 L 335.1875 380.367188 L 325.1875 380.367188 L 325.1875 400.367188 "/>
<path style="fill-rule:nonzero;fill:rgb(67%,100%,18%);fill-opacity:1;stroke-width:1;stroke-linecap:butt;stroke-linejoin:miter;stroke:rgb(0%,0%,0%);stroke-opacity:1;stroke-miterlimit:10;" d="M 412.953125 374.117188 L 392.953125 374.117188 L 392.953125 384.117188 L 412.953125 384.117188 L 412.953125 404.117188 L 422.953125 404.117188 L 422.953125 384.117188 L 442.953125 384.117188 L 442.953125 374.117188 L 422.953125 374.117188 L 422.953125 354.117188 L 412.953125 354.117188 L 412.953125 374.117188 "/>
<path style="fill-rule:nonzero;fill:rgb(67%,100%,18%);fill-opacity:1;stroke-width:1;stroke-linecap:butt;stroke-linejoin:miter;stroke:rgb(0%,0%,0%);stroke-opacity:1;stroke-miterlimit:10;" d="M 48.855469 67.78125 L 28.855469 67.78125 L 28.855469 77.78125 L 48.855469 77.78125 L 48.855469 97.78125 L 58.855469 97.78125 L 58.855469 77.78125 L 78.855469 77.78125 L 78.855469 67.78125 L 58.855469 67.78125 L 58.855469 47.78125 L 48.855469 47.78125 L 48.855469 67.78125 "/>
<path style="fill-rule:nonzero;fill:rgb(67%,100%,18%);fill-opacity:1;stroke-width:1;stroke-linecap:butt;stroke-linejoin:miter;stroke:rgb(0%,0%,0%);stroke-opacity:1;stroke-miterlimit:10;" d="M 288.929688 82.964844 L 268.929688 82.964844 L 268.929688 92.964844 L 288.929688 92.964844 L 288.929688 112.964844 L 298.929688 112.964844 L 298.929688 92.964844 L 318.929688 92.964844 L 318.929688 82.964844 L 298.929688 82.964844 L 298.929688 62.964844 L 288.929688 62.964844 L 288.929688 82.964844 "/>
<path style="fill-rule:nonzero;fill:rgb(67%,100%,18%);fill-opacity:1;stroke-width:1;stroke-linecap:butt;stroke-linejoin:miter;stroke:rgb(0%,0%,0%);stroke-opacity:1;stroke-miterlimit:10;" d="M 456.796875 170.90625 L 436.796875 170.90625 L 436.796875 180.90625 L 456.796875 180.90625 L 456.796875 200.90625 L 466.796875 200.90625 L 466.796875 180.90625 L 486.796875 180.90625 L 486.796875 170.90625 L 466.796875 170.90625 L 466.796875 150.90625 L 456.796875 150.90625 L 456.796875 170.90625 "/>
<path style="fill-rule:nonzero;fill:rgb(67%,100%,18%);fill-opacity:1;stroke-width:1;stroke-linecap:butt;stroke-linejoin:miter;stroke:rgb(0%,0%,0%);stroke-opacity:1;stroke-miterlimit:10;" d="M 467.773438 97.839844 L 447.773438 97.839844 L 447.773438 107.839844 L 467.773438 107.839844 L 467.773438 127.839844 L 477.773438 127.839844 L 477.773438 107.839844 L 497.773438 107.839844 L 497.773438 97.839844 L 477.773438 97.839844 L 477.773438 77.839844 L 467.773438 77.839844 L 467.773438 97.839844 "/>
<path style="fill-rule:nonzero;fill:rgb(67%,100%,18%);fill-opacity:1;stroke-width:1;stroke-linecap:butt;stroke-linejoin:miter;stroke:rgb(0%,0%,0%);stroke-opacity:1;stroke-miterlimit:10;" d="M 331.117188 146.855469 L 311.117188 146.855469 L 311.117188 156.855469 L 331.117188 156.855469 L 331.117188 176.855469 L 341.117188 176.855469 L 341.117188 156.855469 L 361.117188 156.855469 L 361.117188 146.855469 L 341.117188 146.855469 L 341.117188 126.855469 L 331.117188 126.855469 L 331.117188 146.855469 "/>
<path style="fill-rule:nonzero;fill:rgb(67%,100%,18%);fill-opacity:1;stroke-width:1;stroke-linecap:butt;stroke-linejoin:miter;stroke:rgb(0%,0%,0%);stroke-opacity:1;stroke-miterlimit:10;" d="M 398.445312 98.667969 L 378.445312 98.667969 L 378.445312 108.667969 L 398.445312 108.667969 L 398.445312 128.667969 L 408.445312 128.667969 L 408.445312 108.667969 L 428.445312 108.667969 L 428.445312 98.667969 L 408.445312 98.667969 L 408.445312 78.667969 L 398.445312 78.667969 L 398.445312 98.667969 "/>
</g>
</svg>
