<?xml version="1.0" encoding="UTF-8"?>
<svg xmlns="http://www.w3.org/2000/svg" xmlns:xlink="http://www.w3.org/1999/xlink" width="517pt" height="517pt" viewBox="0 0 517 517" version="1.1">
<g id="surface1096">
<rect x="0" y="0" width="517" height="517" style="fill:rgb(90%,90%,90%);fill-opacity:1;stroke:none;"/>
<path style="fill:none;stroke-width:5;stroke-linecap:butt;stroke-linejoin:round;stroke:rgb(100%,0%,0%);stroke-opacity:1;stroke-miterlimit:10;" d="M 5 261 L 261 261 L 261 517 L 5 517 Z M 5 261 "/>
<path style="fill-rule:nonzero;fill:rgb(100%,0%,0%);fill-opacity:1;stroke-width:1;stroke-linecap:butt;stroke-linejoin:round;stroke:rgb(0%,0%,0%);stroke-opacity:1;stroke-miterlimit:10;" d="M 136.261719 399.453125 C 136.261719 385.054688 112.261719 385.054688 112.261719 399.453125 C 112.261719 413.855469 136.261719 416.253906 136.261719 428.253906 C 136.261719 416.253906 160.261719 413.855469 160.261719 399.453125 C 160.261719 385.054688 136.261719 385.054688 136.261719 399.453125 "/>
<path style="fill-rule:nonzero;fill:rgb(35%,70%,90%);fill-opacity:1;stroke-width:1;stroke-linecap:butt;stroke-linejoin:round;stroke:rgb(0%,0%,0%);stroke-opacity:1;stroke-miterlimit:10;" d="M 339.882812 404.402344 C 339.882812 390.003906 315.882812 390.003906 315.882812 404.402344 C 315.882812 418.800781 339.882812 421.203125 339.882812 433.203125 C 339.882812 421.203125 363.882812 418.800781 363.882812 404.402344 C 363.882812 390.003906 339.882812 390.003906 339.882812 404.402344 "/>
<path style="fill-rule:nonzero;fill:rgb(100%,0%,0%);fill-opacity:1;stroke-width:1;stroke-linecap:butt;stroke-linejoin:round;stroke:rgb(0%,0%,0%);stroke-opacity:1;stroke-miterlimit:10;" d="M 174.933594 31.9375 C 174.933594 17.539062 150.933594 17.539062 150.933594 31.9375 C 150.933594 46.339844 174.933594 48.738281 174.933594 60.738281 C 174.933594 48.738281 198.933594 46.339844 198.933594 31.9375 C 198.933594 17.539062 174.933594 17.539062 174.933594 31.9375 "/>
<path style="fill-rule:nonzero;fill:rgb(100%,0%,0%);fill-opacity:1;stroke-width:1;stroke-linecap:butt;stroke-linejoin:round;stroke:rgb(0%,0%,0%);stroke-opacity:1;stroke-miterlimit:10;" d="M 87.316406 205.222656 C 87.316406 190.824219 63.316406 190.824219 63.316406 205.222656 C 63.316406 219.625 87.316406 222.023438 87.316406 234.023438 C 87.316406 222.023438 111.316406 219.625 111.316406 205.222656 C 111.316406 190.824219 87.316406 190.824219 87.316406 205.222656 "/>
</g>
</svg>
