<?xml version="1.0" encoding="UTF-8"?>
<svg xmlns="http://www.w3.org/2000/svg" xmlns:xlink="http://www.w3.org/1999/xlink" width="517pt" height="517pt" viewBox="0 0 517 517" version="1.1">
<g id="surface5976">
<rect x="0" y="0" width="517" height="517" style="fill:rgb(90%,90%,90%);fill-opacity:1;stroke:none;"/>
<path style="fill-rule:nonzero;fill:rgb(100%,0%,0%);fill-opacity:1;stroke-width:1;stroke-linecap:butt;stroke-linejoin:miter;stroke:rgb(0%,0%,0%);stroke-opacity:1;stroke-miterlimit:10;" d="M 350.320312 339.675781 L 330.320312 339.675781 L 330.320312 349.675781 L 350.320312 349.675781 L 350.320312 369.675781 L 360.320312 369.675781 L 360.320312 349.675781 L 380.320312 349.675781 L 380.320312 339.675781 L 360.320312 339.675781 L 360.320312 319.675781 L 350.320312 319.675781 L 350.320312 339.675781 "/>
<path style="fill-rule:nonzero;fill:rgb(100%,100%,0%);fill-opacity:1;stroke-width:1;stroke-linecap:butt;stroke-linejoin:miter;stroke:rgb(0%,0%,0%);stroke-opacity:1;stroke-miterlimit:10;" d="M 34.546875 137.101562 L 14.546875 137.101562 L 14.546875 147.101562 L 34.546875 147.101562 L 34.546875 167.101562 L 44.546875 167.101562 L 44.546875 147.101562 L 64.546875 147.101562 L 64.546875 137.101562 L 44.546875 137.101562 L 44.546875 117.101562 L 34.546875 117.101562 L 34.546875 137.101562 "/>
<path style="fill-rule:nonzero;fill:rgb(100%,100%,0%);fill-opacity:1;stroke-width:1;stroke-linecap:butt;stroke-linejoin:miter;stroke:rgb(0%,0%,0%);stroke-opacity:1;stroke-miterlimit:10;" d="M 214.796875 31.523438 L 194.796875 31.523438 L 194.796875 41.523438 L 214.796875 41.523438 L 214.796875 61.523438 L 224.796875 61.523438 L 224.796875 41.523438 L 244.796875 41.523438 L 244.796875 31.523438 L 224.796875 31.523438 L 224.796875 11.523438 L 214.796875 11.523438 L 214.796875 31.523438 "/>
<path style="fill-rule:nonzero;fill:rgb(100%,100%,0%);fill-opacity:1;stroke-width:1;stroke-linecap:butt;stroke-linejoin:miter;stroke:rgb(0%,0%,0%);stroke-opacity:1;stroke-miterlimit:10;" d="M 162.292969 209.894531 L 142.292969 209.894531 L 142.292969 219.894531 L 162.292969 219.894531 L 162.292969 239.894531 L 172.292969 239.894531 L 172.292969 219.894531 L 192.292969 219.894531 L 192.292969 209.894531 L 172.292969 209.894531 L 172.292969 189.894531 L 162.292969 189.894531 L 162.292969 209.894531 "/>
<path style="fill-rule:nonzero;fill:rgb(100%,100%,0%);fill-opacity:1;stroke-width:1;stroke-linecap:butt;stroke-linejoin:miter;stroke:rgb(0%,0%,0%);stroke-opacity:1;stroke-miterlimit:10;" d="M 42.835938 50.0625 L 22.835938 50.0625 L 22.835938 60.0625 L 42.835938 60.0625 L 42.835938 80.0625 L 52.835938 80.0625 L 52.835938 60.0625 L 72.835938 60.0625 L 72.835938 50.0625 L 52.835938 50.0625 L 52.835938 30.0625 L 42.835938 30.0625 L 42.835938 50.0625 "/>
<path style="fill-rule:nonzero;fill:rgb(100%,100%,0%);fill-opacity:1;stroke-width:1;stroke-linecap:butt;stroke-linejoin:miter;stroke:rgb(0%,0%,0%);stroke-opacity:1;stroke-miterlimit:10;" d="M 148.292969 128.242188 L 128.292969 128.242188 L 128.292969 138.242188 L 148.292969 138.242188 L 148.292969 158.242188 L 158.292969 158.242188 L 158.292969 138.242188 L 178.292969 138.242188 L 178.292969 128.242188 L 158.292969 128.242188 L 158.292969 108.242188 L 148.292969 108.242188 L 148.292969 128.242188 "/>
<path style="fill-rule:nonzero;fill:rgb(100%,100%,0%);fill-opacity:1;stroke-width:1;stroke-linecap:butt;stroke-linejoin:miter;stroke:rgb(0%,0%,0%);stroke-opacity:1;stroke-miterlimit:10;" d="M 35.296875 197.660156 L 15.296875 197.660156 L 15.296875 207.660156 L 35.296875 207.660156 L 35.296875 227.660156 L 45.296875 227.660156 L 45.296875 207.660156 L 65.296875 207.660156 L 65.296875 197.660156 L 45.296875 197.660156 L 45.296875 177.660156 L 35.296875 177.660156 L 35.296875 197.660156 "/>
<path style="fill-rule:nonzero;fill:rgb(100%,100%,0%);fill-opacity:1;stroke-width:1;stroke-linecap:butt;stroke-linejoin:miter;stroke:rgb(0%,0%,0%);stroke-opacity:1;stroke-miterlimit:10;" d="M 210.53125 140.261719 L 190.53125 140.261719 L 190.53125 150.261719 L 210.53125 150.261719 L 210.53125 170.261719 L 220.53125 170.261719 L 220.53125 150.261719 L 240.53125 150.261719 L 240.53125 140.261719 L 220.53125 140.261719 L 220.53125 120.261719 L 210.53125 120.261719 L 210.53125 140.261719 "/>
</g>
</svg>
