<?xml version="1.0" encoding="UTF-8"?>
<svg xmlns="http://www.w3.org/2000/svg" xmlns:xlink="http://www.w3.org/1999/xlink" width="517pt" height="517pt" viewBox="0 0 517 517" version="1.1">
<g id="surface1111">
<rect x="0" y="0" width="517" height="517" style="fill:rgb(90%,90%,90%);fill-opacity:1;stroke:none;"/>
<path style="fill:none;stroke-width:5;stroke-linecap:butt;stroke-linejoin:round;stroke:rgb(100%,0%,0%);stroke-opacity:1;stroke-miterlimit:10;" d="M 5 261 L 261 261 L 261 517 L 5 517 Z M 5 261 "/>
<path style="fill-rule:nonzero;fill:rgb(100%,100%,0%);fill-opacity:1;stroke-width:1;stroke-linecap:butt;stroke-linejoin:round;stroke:rgb(0%,0%,0%);stroke-opacity:1;stroke-miterlimit:10;" d="M 212.429688 433.570312 C 212.429688 419.167969 188.429688 419.167969 188.429688 433.570312 C 188.429688 447.96875 212.429688 450.371094 212.429688 462.371094 C 212.429688 450.371094 236.429688 447.96875 236.429688 433.570312 C 236.429688 419.167969 212.429688 419.167969 212.429688 433.570312 "/>
<path style="fill-rule:nonzero;fill:rgb(35%,70%,90%);fill-opacity:1;stroke-width:1;stroke-linecap:butt;stroke-linejoin:round;stroke:rgb(0%,0%,0%);stroke-opacity:1;stroke-miterlimit:10;" d="M 324.578125 365.601562 C 324.578125 351.203125 300.578125 351.203125 300.578125 365.601562 C 300.578125 380.003906 324.578125 382.402344 324.578125 394.402344 C 324.578125 382.402344 348.578125 380.003906 348.578125 365.601562 C 348.578125 351.203125 324.578125 351.203125 324.578125 365.601562 "/>
<path style="fill-rule:nonzero;fill:rgb(100%,0%,0%);fill-opacity:1;stroke-width:1;stroke-linecap:butt;stroke-linejoin:round;stroke:rgb(0%,0%,0%);stroke-opacity:1;stroke-miterlimit:10;" d="M 400.714844 451.699219 C 400.714844 437.300781 376.714844 437.300781 376.714844 451.699219 C 376.714844 466.101562 400.714844 468.5 400.714844 480.5 C 400.714844 468.5 424.714844 466.101562 424.714844 451.699219 C 424.714844 437.300781 400.714844 437.300781 400.714844 451.699219 "/>
<path style="fill-rule:nonzero;fill:rgb(100%,0%,0%);fill-opacity:1;stroke-width:1;stroke-linecap:butt;stroke-linejoin:round;stroke:rgb(0%,0%,0%);stroke-opacity:1;stroke-miterlimit:10;" d="M 90.167969 180.375 C 90.167969 165.976562 66.167969 165.976562 66.167969 180.375 C 66.167969 194.777344 90.167969 197.175781 90.167969 209.175781 C 90.167969 197.175781 114.167969 194.777344 114.167969 180.375 C 114.167969 165.976562 90.167969 165.976562 90.167969 180.375 "/>
</g>
</svg>
