<?xml version="1.0" encoding="UTF-8"?>
<svg xmlns="http://www.w3.org/2000/svg" xmlns:xlink="http://www.w3.org/1999/xlink" width="517pt" height="517pt" viewBox="0 0 517 517" version="1.1">
<g id="surface1021">
<rect x="0" y="0" width="517" height="517" style="fill:rgb(90%,90%,90%);fill-opacity:1;stroke:none;"/>
<path style="fill:none;stroke-width:5;stroke-linecap:butt;stroke-linejoin:round;stroke:rgb(100%,0%,0%);stroke-opacity:1;stroke-miterlimit:10;" d="M 5 261 L 261 261 L 261 517 L 5 517 Z M 5 261 "/>
<path style="fill-rule:nonzero;fill:rgb(67%,100%,18%);fill-opacity:1;stroke-width:1;stroke-linecap:butt;stroke-linejoin:round;stroke:rgb(0%,0%,0%);stroke-opacity:1;stroke-miterlimit:10;" d="M 161.972656 377.804688 C 161.972656 394.371094 148.542969 407.804688 131.972656 407.804688 C 115.40625 407.804688 101.972656 394.371094 101.972656 377.804688 C 101.972656 361.234375 115.40625 347.804688 131.972656 347.804688 C 148.542969 347.804688 161.972656 361.234375 161.972656 377.804688 "/>
<path style="fill-rule:nonzero;fill:rgb(53%,27%,7%);fill-opacity:1;stroke-width:1;stroke-linecap:butt;stroke-linejoin:round;stroke:rgb(0%,0%,0%);stroke-opacity:1;stroke-miterlimit:10;" d="M 343.289062 405.417969 C 343.289062 421.988281 329.855469 435.417969 313.289062 435.417969 C 296.71875 435.417969 283.289062 421.988281 283.289062 405.417969 C 283.289062 388.851562 296.71875 375.417969 313.289062 375.417969 C 329.855469 375.417969 343.289062 388.851562 343.289062 405.417969 "/>
<path style="fill-rule:nonzero;fill:rgb(53%,27%,7%);fill-opacity:1;stroke-width:1;stroke-linecap:butt;stroke-linejoin:round;stroke:rgb(0%,0%,0%);stroke-opacity:1;stroke-miterlimit:10;" d="M 480.472656 301.539062 C 480.472656 318.109375 467.042969 331.539062 450.472656 331.539062 C 433.90625 331.539062 420.472656 318.109375 420.472656 301.539062 C 420.472656 284.972656 433.90625 271.539062 450.472656 271.539062 C 467.042969 271.539062 480.472656 284.972656 480.472656 301.539062 "/>
<path style="fill-rule:nonzero;fill:rgb(50%,0%,50%);fill-opacity:1;stroke-width:1;stroke-linecap:butt;stroke-linejoin:round;stroke:rgb(0%,0%,0%);stroke-opacity:1;stroke-miterlimit:10;" d="M 464.5625 74.457031 C 464.5625 91.027344 451.132812 104.457031 434.5625 104.457031 C 417.996094 104.457031 404.5625 91.027344 404.5625 74.457031 C 404.5625 57.890625 417.996094 44.457031 434.5625 44.457031 C 451.132812 44.457031 464.5625 57.890625 464.5625 74.457031 "/>
</g>
</svg>
