<?xml version="1.0" encoding="UTF-8"?>
<svg xmlns="http://www.w3.org/2000/svg" xmlns:xlink="http://www.w3.org/1999/xlink" width="517pt" height="517pt" viewBox="0 0 517 517" version="1.1">
<g id="surface986">
<rect x="0" y="0" width="517" height="517" style="fill:rgb(90%,90%,90%);fill-opacity:1;stroke:none;"/>
<path style="fill:none;stroke-width:5;stroke-linecap:butt;stroke-linejoin:round;stroke:rgb(100%,0%,0%);stroke-opacity:1;stroke-miterlimit:10;" d="M 5 261 L 261 261 L 261 517 L 5 517 Z M 5 261 "/>
<path style="fill-rule:nonzero;fill:rgb(50%,0%,50%);fill-opacity:1;stroke-width:1;stroke-linecap:butt;stroke-linejoin:round;stroke:rgb(0%,0%,0%);stroke-opacity:1;stroke-miterlimit:10;" d="M 131.261719 352.632812 C 131.261719 369.199219 117.832031 382.632812 101.261719 382.632812 C 84.691406 382.632812 71.261719 369.199219 71.261719 352.632812 C 71.261719 336.0625 84.691406 322.632812 101.261719 322.632812 C 117.832031 322.632812 131.261719 336.0625 131.261719 352.632812 "/>
<path style="fill-rule:nonzero;fill:rgb(53%,27%,7%);fill-opacity:1;stroke-width:1;stroke-linecap:butt;stroke-linejoin:round;stroke:rgb(0%,0%,0%);stroke-opacity:1;stroke-miterlimit:10;" d="M 372.601562 373.585938 C 372.601562 390.152344 359.167969 403.585938 342.601562 403.585938 C 326.03125 403.585938 312.601562 390.152344 312.601562 373.585938 C 312.601562 357.015625 326.03125 343.585938 342.601562 343.585938 C 359.167969 343.585938 372.601562 357.015625 372.601562 373.585938 "/>
<path style="fill-rule:nonzero;fill:rgb(53%,27%,7%);fill-opacity:1;stroke-width:1;stroke-linecap:butt;stroke-linejoin:round;stroke:rgb(0%,0%,0%);stroke-opacity:1;stroke-miterlimit:10;" d="M 430.1875 71.007812 C 430.1875 87.578125 416.757812 101.007812 400.1875 101.007812 C 383.621094 101.007812 370.1875 87.578125 370.1875 71.007812 C 370.1875 54.441406 383.621094 41.007812 400.1875 41.007812 C 416.757812 41.007812 430.1875 54.441406 430.1875 71.007812 "/>
<path style="fill-rule:nonzero;fill:rgb(50%,0%,50%);fill-opacity:1;stroke-width:1;stroke-linecap:butt;stroke-linejoin:round;stroke:rgb(0%,0%,0%);stroke-opacity:1;stroke-miterlimit:10;" d="M 402.359375 138.941406 C 402.359375 155.511719 388.929688 168.941406 372.359375 168.941406 C 355.792969 168.941406 342.359375 155.511719 342.359375 138.941406 C 342.359375 122.375 355.792969 108.941406 372.359375 108.941406 C 388.929688 108.941406 402.359375 122.375 402.359375 138.941406 "/>
</g>
</svg>
