<?xml version="1.0" encoding="UTF-8"?>
<svg xmlns="http://www.w3.org/2000/svg" xmlns:xlink="http://www.w3.org/1999/xlink" width="517pt" height="517pt" viewBox="0 0 517 517" version="1.1">
<g id="surface766">
<rect x="0" y="0" width="517" height="517" style="fill:rgb(90%,90%,90%);fill-opacity:1;stroke:none;"/>
<path style="fill:none;stroke-width:5;stroke-linecap:butt;stroke-linejoin:round;stroke:rgb(100%,0%,0%);stroke-opacity:1;stroke-miterlimit:10;" d="M 261 5 L 517 5 L 517 261 L 261 261 Z M 261 5 "/>
<path style="fill-rule:nonzero;fill:rgb(25%,88%,82%);fill-opacity:1;stroke-width:1;stroke-linecap:butt;stroke-linejoin:round;stroke:rgb(0%,0%,0%);stroke-opacity:1;stroke-miterlimit:10;" d="M 338.785156 30.097656 L 318.785156 30.097656 L 318.785156 40.097656 L 338.785156 40.097656 L 338.785156 60.097656 L 348.785156 60.097656 L 348.785156 40.097656 L 368.785156 40.097656 L 368.785156 30.097656 L 348.785156 30.097656 L 348.785156 10.097656 L 338.785156 10.097656 L 338.785156 30.097656 "/>
<path style="fill-rule:nonzero;fill:rgb(100%,100%,0%);fill-opacity:1;stroke-width:1;stroke-linecap:butt;stroke-linejoin:round;stroke:rgb(0%,0%,0%);stroke-opacity:1;stroke-miterlimit:10;" d="M 385.109375 444.988281 L 365.109375 444.988281 L 365.109375 454.988281 L 385.109375 454.988281 L 385.109375 474.988281 L 395.109375 474.988281 L 395.109375 454.988281 L 415.109375 454.988281 L 415.109375 444.988281 L 395.109375 444.988281 L 395.109375 424.988281 L 385.109375 424.988281 L 385.109375 444.988281 "/>
<path style="fill-rule:nonzero;fill:rgb(25%,88%,82%);fill-opacity:1;stroke-width:1;stroke-linecap:butt;stroke-linejoin:round;stroke:rgb(0%,0%,0%);stroke-opacity:1;stroke-miterlimit:10;" d="M 163.03125 462.914062 L 143.03125 462.914062 L 143.03125 472.914062 L 163.03125 472.914062 L 163.03125 492.914062 L 173.03125 492.914062 L 173.03125 472.914062 L 193.03125 472.914062 L 193.03125 462.914062 L 173.03125 462.914062 L 173.03125 442.914062 L 163.03125 442.914062 L 163.03125 462.914062 "/>
<path style="fill-rule:nonzero;fill:rgb(25%,88%,82%);fill-opacity:1;stroke-width:1;stroke-linecap:butt;stroke-linejoin:round;stroke:rgb(0%,0%,0%);stroke-opacity:1;stroke-miterlimit:10;" d="M 98.070312 466.875 L 78.070312 466.875 L 78.070312 476.875 L 98.070312 476.875 L 98.070312 496.875 L 108.070312 496.875 L 108.070312 476.875 L 128.070312 476.875 L 128.070312 466.875 L 108.070312 466.875 L 108.070312 446.875 L 98.070312 446.875 L 98.070312 466.875 "/>
</g>
</svg>
