<?xml version="1.0" encoding="UTF-8"?>
<svg xmlns="http://www.w3.org/2000/svg" xmlns:xlink="http://www.w3.org/1999/xlink" width="517pt" height="517pt" viewBox="0 0 517 517" version="1.1">
<g id="surface1361">
<rect x="0" y="0" width="517" height="517" style="fill:rgb(90%,90%,90%);fill-opacity:1;stroke:none;"/>
<path style="fill:none;stroke-width:5;stroke-linecap:butt;stroke-linejoin:round;stroke:rgb(100%,0%,0%);stroke-opacity:1;stroke-miterlimit:10;" d="M 261 261 L 517 261 L 517 517 L 261 517 Z M 261 261 "/>
<path style="fill-rule:nonzero;fill:rgb(0%,0%,0%);fill-opacity:1;stroke-width:1;stroke-linecap:butt;stroke-linejoin:round;stroke:rgb(0%,0%,0%);stroke-opacity:1;stroke-miterlimit:10;" d="M 392.59375 341.257812 C 392.59375 357.824219 379.164062 371.257812 362.59375 371.257812 C 346.027344 371.257812 332.59375 357.824219 332.59375 341.257812 C 332.59375 324.6875 346.027344 311.257812 362.59375 311.257812 C 379.164062 311.257812 392.59375 324.6875 392.59375 341.257812 "/>
<path style="fill-rule:nonzero;fill:rgb(100%,0%,0%);fill-opacity:1;stroke-width:1;stroke-linecap:butt;stroke-linejoin:round;stroke:rgb(0%,0%,0%);stroke-opacity:1;stroke-miterlimit:10;" d="M 419.015625 101.613281 C 419.015625 118.183594 405.582031 131.613281 389.015625 131.613281 C 372.445312 131.613281 359.015625 118.183594 359.015625 101.613281 C 359.015625 85.046875 372.445312 71.613281 389.015625 71.613281 C 405.582031 71.613281 419.015625 85.046875 419.015625 101.613281 "/>
<path style="fill-rule:nonzero;fill:rgb(100%,0%,0%);fill-opacity:1;stroke-width:1;stroke-linecap:butt;stroke-linejoin:round;stroke:rgb(0%,0%,0%);stroke-opacity:1;stroke-miterlimit:10;" d="M 394.492188 160.417969 C 394.492188 176.988281 381.0625 190.417969 364.492188 190.417969 C 347.925781 190.417969 334.492188 176.988281 334.492188 160.417969 C 334.492188 143.851562 347.925781 130.417969 364.492188 130.417969 C 381.0625 130.417969 394.492188 143.851562 394.492188 160.417969 "/>
<path style="fill-rule:nonzero;fill:rgb(100%,0%,0%);fill-opacity:1;stroke-width:1;stroke-linecap:butt;stroke-linejoin:round;stroke:rgb(0%,0%,0%);stroke-opacity:1;stroke-miterlimit:10;" d="M 80.988281 303.839844 C 80.988281 320.410156 67.554688 333.839844 50.988281 333.839844 C 34.417969 333.839844 20.988281 320.410156 20.988281 303.839844 C 20.988281 287.273438 34.417969 273.839844 50.988281 273.839844 C 67.554688 273.839844 80.988281 287.273438 80.988281 303.839844 "/>
</g>
</svg>
