<?xml version="1.0" encoding="UTF-8"?>
<svg xmlns="http://www.w3.org/2000/svg" xmlns:xlink="http://www.w3.org/1999/xlink" width="517pt" height="517pt" viewBox="0 0 517 517" version="1.1">
<g id="surface1031">
<rect x="0" y="0" width="517" height="517" style="fill:rgb(90%,90%,90%);fill-opacity:1;stroke:none;"/>
<path style="fill:none;stroke-width:5;stroke-linecap:butt;stroke-linejoin:round;stroke:rgb(100%,0%,0%);stroke-opacity:1;stroke-miterlimit:10;" d="M 5 261 L 261 261 L 261 517 L 5 517 Z M 5 261 "/>
<path style="fill-rule:nonzero;fill:rgb(67%,100%,18%);fill-opacity:1;stroke-width:1;stroke-linecap:butt;stroke-linejoin:round;stroke:rgb(0%,0%,0%);stroke-opacity:1;stroke-miterlimit:10;" d="M 139.984375 310.925781 C 139.984375 327.492188 126.554688 340.925781 109.984375 340.925781 C 93.417969 340.925781 79.984375 327.492188 79.984375 310.925781 C 79.984375 294.355469 93.417969 280.925781 109.984375 280.925781 C 126.554688 280.925781 139.984375 294.355469 139.984375 310.925781 "/>
<path style="fill-rule:nonzero;fill:rgb(53%,27%,7%);fill-opacity:1;stroke-width:1;stroke-linecap:butt;stroke-linejoin:round;stroke:rgb(0%,0%,0%);stroke-opacity:1;stroke-miterlimit:10;" d="M 491.128906 70.777344 C 491.128906 87.34375 477.699219 100.777344 461.128906 100.777344 C 444.558594 100.777344 431.128906 87.34375 431.128906 70.777344 C 431.128906 54.207031 444.558594 40.777344 461.128906 40.777344 C 477.699219 40.777344 491.128906 54.207031 491.128906 70.777344 "/>
<path style="fill-rule:nonzero;fill:rgb(50%,0%,50%);fill-opacity:1;stroke-width:1;stroke-linecap:butt;stroke-linejoin:round;stroke:rgb(0%,0%,0%);stroke-opacity:1;stroke-miterlimit:10;" d="M 250.824219 71.273438 C 250.824219 87.84375 237.394531 101.273438 220.824219 101.273438 C 204.257812 101.273438 190.824219 87.84375 190.824219 71.273438 C 190.824219 54.707031 204.257812 41.273438 220.824219 41.273438 C 237.394531 41.273438 250.824219 54.707031 250.824219 71.273438 "/>
<path style="fill-rule:nonzero;fill:rgb(50%,0%,50%);fill-opacity:1;stroke-width:1;stroke-linecap:butt;stroke-linejoin:round;stroke:rgb(0%,0%,0%);stroke-opacity:1;stroke-miterlimit:10;" d="M 159.046875 63.132812 C 159.046875 79.699219 145.617188 93.132812 129.046875 93.132812 C 112.480469 93.132812 99.046875 79.699219 99.046875 63.132812 C 99.046875 46.5625 112.480469 33.132812 129.046875 33.132812 C 145.617188 33.132812 159.046875 46.5625 159.046875 63.132812 "/>
</g>
</svg>
