<?xml version="1.0" encoding="UTF-8"?>
<svg xmlns="http://www.w3.org/2000/svg" xmlns:xlink="http://www.w3.org/1999/xlink" width="517pt" height="517pt" viewBox="0 0 517 517" version="1.1">
<g id="surface6026">
<rect x="0" y="0" width="517" height="517" style="fill:rgb(90%,90%,90%);fill-opacity:1;stroke:none;"/>
<path style="fill-rule:nonzero;fill:rgb(0%,0%,0%);fill-opacity:1;stroke-width:1;stroke-linecap:butt;stroke-linejoin:miter;stroke:rgb(0%,0%,0%);stroke-opacity:1;stroke-miterlimit:10;" d="M 322.839844 204.136719 L 302.839844 204.136719 L 302.839844 214.136719 L 322.839844 214.136719 L 322.839844 234.136719 L 332.839844 234.136719 L 332.839844 214.136719 L 352.839844 214.136719 L 352.839844 204.136719 L 332.839844 204.136719 L 332.839844 184.136719 L 322.839844 184.136719 L 322.839844 204.136719 "/>
<path style="fill-rule:nonzero;fill:rgb(0%,0%,0%);fill-opacity:1;stroke-width:1;stroke-linecap:butt;stroke-linejoin:miter;stroke:rgb(0%,0%,0%);stroke-opacity:1;stroke-miterlimit:10;" d="M 379.851562 449.730469 L 359.851562 449.730469 L 359.851562 459.730469 L 379.851562 459.730469 L 379.851562 479.730469 L 389.851562 479.730469 L 389.851562 459.730469 L 409.851562 459.730469 L 409.851562 449.730469 L 389.851562 449.730469 L 389.851562 429.730469 L 379.851562 429.730469 L 379.851562 449.730469 "/>
<path style="fill-rule:nonzero;fill:rgb(35%,70%,90%);fill-opacity:1;stroke-width:1;stroke-linecap:butt;stroke-linejoin:miter;stroke:rgb(0%,0%,0%);stroke-opacity:1;stroke-miterlimit:10;" d="M 336.253906 399.746094 L 316.253906 399.746094 L 316.253906 409.746094 L 336.253906 409.746094 L 336.253906 429.746094 L 346.253906 429.746094 L 346.253906 409.746094 L 366.253906 409.746094 L 366.253906 399.746094 L 346.253906 399.746094 L 346.253906 379.746094 L 336.253906 379.746094 L 336.253906 399.746094 "/>
<path style="fill-rule:nonzero;fill:rgb(35%,70%,90%);fill-opacity:1;stroke-width:1;stroke-linecap:butt;stroke-linejoin:miter;stroke:rgb(0%,0%,0%);stroke-opacity:1;stroke-miterlimit:10;" d="M 433.148438 389.328125 L 413.148438 389.328125 L 413.148438 399.328125 L 433.148438 399.328125 L 433.148438 419.328125 L 443.148438 419.328125 L 443.148438 399.328125 L 463.148438 399.328125 L 463.148438 389.328125 L 443.148438 389.328125 L 443.148438 369.328125 L 433.148438 369.328125 L 433.148438 389.328125 "/>
<path style="fill-rule:nonzero;fill:rgb(35%,70%,90%);fill-opacity:1;stroke-width:1;stroke-linecap:butt;stroke-linejoin:miter;stroke:rgb(0%,0%,0%);stroke-opacity:1;stroke-miterlimit:10;" d="M 336.546875 329.871094 L 316.546875 329.871094 L 316.546875 339.871094 L 336.546875 339.871094 L 336.546875 359.871094 L 346.546875 359.871094 L 346.546875 339.871094 L 366.546875 339.871094 L 366.546875 329.871094 L 346.546875 329.871094 L 346.546875 309.871094 L 336.546875 309.871094 L 336.546875 329.871094 "/>
<path style="fill-rule:nonzero;fill:rgb(35%,70%,90%);fill-opacity:1;stroke-width:1;stroke-linecap:butt;stroke-linejoin:miter;stroke:rgb(0%,0%,0%);stroke-opacity:1;stroke-miterlimit:10;" d="M 150.128906 125.316406 L 130.128906 125.316406 L 130.128906 135.316406 L 150.128906 135.316406 L 150.128906 155.316406 L 160.128906 155.316406 L 160.128906 135.316406 L 180.128906 135.316406 L 180.128906 125.316406 L 160.128906 125.316406 L 160.128906 105.316406 L 150.128906 105.316406 L 150.128906 125.316406 "/>
<path style="fill-rule:nonzero;fill:rgb(35%,70%,90%);fill-opacity:1;stroke-width:1;stroke-linecap:butt;stroke-linejoin:miter;stroke:rgb(0%,0%,0%);stroke-opacity:1;stroke-miterlimit:10;" d="M 175.085938 44.96875 L 155.085938 44.96875 L 155.085938 54.96875 L 175.085938 54.96875 L 175.085938 74.96875 L 185.085938 74.96875 L 185.085938 54.96875 L 205.085938 54.96875 L 205.085938 44.96875 L 185.085938 44.96875 L 185.085938 24.96875 L 175.085938 24.96875 L 175.085938 44.96875 "/>
<path style="fill-rule:nonzero;fill:rgb(35%,70%,90%);fill-opacity:1;stroke-width:1;stroke-linecap:butt;stroke-linejoin:miter;stroke:rgb(0%,0%,0%);stroke-opacity:1;stroke-miterlimit:10;" d="M 73.292969 108.601562 L 53.292969 108.601562 L 53.292969 118.601562 L 73.292969 118.601562 L 73.292969 138.601562 L 83.292969 138.601562 L 83.292969 118.601562 L 103.292969 118.601562 L 103.292969 108.601562 L 83.292969 108.601562 L 83.292969 88.601562 L 73.292969 88.601562 L 73.292969 108.601562 "/>
</g>
</svg>
