<?xml version="1.0" encoding="UTF-8"?>
<svg xmlns="http://www.w3.org/2000/svg" xmlns:xlink="http://www.w3.org/1999/xlink" width="517pt" height="517pt" viewBox="0 0 517 517" version="1.1">
<g id="surface1101">
<rect x="0" y="0" width="517" height="517" style="fill:rgb(90%,90%,90%);fill-opacity:1;stroke:none;"/>
<path style="fill:none;stroke-width:5;stroke-linecap:butt;stroke-linejoin:round;stroke:rgb(100%,0%,0%);stroke-opacity:1;stroke-miterlimit:10;" d="M 5 261 L 261 261 L 261 517 L 5 517 Z M 5 261 "/>
<path style="fill-rule:nonzero;fill:rgb(100%,100%,0%);fill-opacity:1;stroke-width:1;stroke-linecap:butt;stroke-linejoin:round;stroke:rgb(0%,0%,0%);stroke-opacity:1;stroke-miterlimit:10;" d="M 63.839844 335.464844 C 63.839844 321.066406 39.839844 321.066406 39.839844 335.464844 C 39.839844 349.863281 63.839844 352.265625 63.839844 364.265625 C 63.839844 352.265625 87.839844 349.863281 87.839844 335.464844 C 87.839844 321.066406 63.839844 321.066406 63.839844 335.464844 "/>
<path style="fill-rule:nonzero;fill:rgb(35%,70%,90%);fill-opacity:1;stroke-width:1;stroke-linecap:butt;stroke-linejoin:round;stroke:rgb(0%,0%,0%);stroke-opacity:1;stroke-miterlimit:10;" d="M 78.460938 172.015625 C 78.460938 157.613281 54.460938 157.613281 54.460938 172.015625 C 54.460938 186.414062 78.460938 188.816406 78.460938 200.816406 C 78.460938 188.816406 102.460938 186.414062 102.460938 172.015625 C 102.460938 157.613281 78.460938 157.613281 78.460938 172.015625 "/>
<path style="fill-rule:nonzero;fill:rgb(35%,70%,90%);fill-opacity:1;stroke-width:1;stroke-linecap:butt;stroke-linejoin:round;stroke:rgb(0%,0%,0%);stroke-opacity:1;stroke-miterlimit:10;" d="M 82.398438 63.097656 C 82.398438 48.695312 58.398438 48.695312 58.398438 63.097656 C 58.398438 77.496094 82.398438 79.898438 82.398438 91.898438 C 82.398438 79.898438 106.398438 77.496094 106.398438 63.097656 C 106.398438 48.695312 82.398438 48.695312 82.398438 63.097656 "/>
<path style="fill-rule:nonzero;fill:rgb(100%,0%,0%);fill-opacity:1;stroke-width:1;stroke-linecap:butt;stroke-linejoin:round;stroke:rgb(0%,0%,0%);stroke-opacity:1;stroke-miterlimit:10;" d="M 439.601562 170.285156 C 439.601562 155.886719 415.601562 155.886719 415.601562 170.285156 C 415.601562 184.6875 439.601562 187.085938 439.601562 199.085938 C 439.601562 187.085938 463.601562 184.6875 463.601562 170.285156 C 463.601562 155.886719 439.601562 155.886719 439.601562 170.285156 "/>
</g>
</svg>
