<?xml version="1.0" encoding="UTF-8"?>
<svg xmlns="http://www.w3.org/2000/svg" xmlns:xlink="http://www.w3.org/1999/xlink" width="517pt" height="517pt" viewBox="0 0 517 517" version="1.1">
<g id="surface1081">
<rect x="0" y="0" width="517" height="517" style="fill:rgb(90%,90%,90%);fill-opacity:1;stroke:none;"/>
<path style="fill:none;stroke-width:5;stroke-linecap:butt;stroke-linejoin:round;stroke:rgb(100%,0%,0%);stroke-opacity:1;stroke-miterlimit:10;" d="M 5 261 L 261 261 L 261 517 L 5 517 Z M 5 261 "/>
<path style="fill-rule:nonzero;fill:rgb(100%,0%,0%);fill-opacity:1;stroke-width:1;stroke-linecap:butt;stroke-linejoin:round;stroke:rgb(0%,0%,0%);stroke-opacity:1;stroke-miterlimit:10;" d="M 206.726562 316.898438 C 206.726562 302.5 182.726562 302.5 182.726562 316.898438 C 182.726562 331.296875 206.726562 333.699219 206.726562 345.699219 C 206.726562 333.699219 230.726562 331.296875 230.726562 316.898438 C 230.726562 302.5 206.726562 302.5 206.726562 316.898438 "/>
<path style="fill-rule:nonzero;fill:rgb(35%,70%,90%);fill-opacity:1;stroke-width:1;stroke-linecap:butt;stroke-linejoin:round;stroke:rgb(0%,0%,0%);stroke-opacity:1;stroke-miterlimit:10;" d="M 474.910156 203.09375 C 474.910156 188.695312 450.910156 188.695312 450.910156 203.09375 C 450.910156 217.496094 474.910156 219.894531 474.910156 231.894531 C 474.910156 219.894531 498.910156 217.496094 498.910156 203.09375 C 498.910156 188.695312 474.910156 188.695312 474.910156 203.09375 "/>
<path style="fill-rule:nonzero;fill:rgb(100%,0%,0%);fill-opacity:1;stroke-width:1;stroke-linecap:butt;stroke-linejoin:round;stroke:rgb(0%,0%,0%);stroke-opacity:1;stroke-miterlimit:10;" d="M 455.503906 36.820312 C 455.503906 22.417969 431.503906 22.417969 431.503906 36.820312 C 431.503906 51.21875 455.503906 53.621094 455.503906 65.621094 C 455.503906 53.621094 479.503906 51.21875 479.503906 36.820312 C 479.503906 22.417969 455.503906 22.417969 455.503906 36.820312 "/>
<path style="fill-rule:nonzero;fill:rgb(100%,0%,0%);fill-opacity:1;stroke-width:1;stroke-linecap:butt;stroke-linejoin:round;stroke:rgb(0%,0%,0%);stroke-opacity:1;stroke-miterlimit:10;" d="M 123.496094 170.789062 C 123.496094 156.386719 99.496094 156.386719 99.496094 170.789062 C 99.496094 185.1875 123.496094 187.585938 123.496094 199.585938 C 123.496094 187.585938 147.496094 185.1875 147.496094 170.789062 C 147.496094 156.386719 123.496094 156.386719 123.496094 170.789062 "/>
</g>
</svg>
