<?xml version="1.0" encoding="UTF-8"?>
<svg xmlns="http://www.w3.org/2000/svg" xmlns:xlink="http://www.w3.org/1999/xlink" width="517pt" height="517pt" viewBox="0 0 517 517" version="1.1">
<g id="surface1011">
<rect x="0" y="0" width="517" height="517" style="fill:rgb(90%,90%,90%);fill-opacity:1;stroke:none;"/>
<path style="fill:none;stroke-width:5;stroke-linecap:butt;stroke-linejoin:round;stroke:rgb(100%,0%,0%);stroke-opacity:1;stroke-miterlimit:10;" d="M 5 261 L 261 261 L 261 517 L 5 517 Z M 5 261 "/>
<path style="fill-rule:nonzero;fill:rgb(50%,0%,50%);fill-opacity:1;stroke-width:1;stroke-linecap:butt;stroke-linejoin:round;stroke:rgb(0%,0%,0%);stroke-opacity:1;stroke-miterlimit:10;" d="M 86.441406 295.367188 C 86.441406 311.9375 73.007812 325.367188 56.441406 325.367188 C 39.871094 325.367188 26.441406 311.9375 26.441406 295.367188 C 26.441406 278.796875 39.871094 265.367188 56.441406 265.367188 C 73.007812 265.367188 86.441406 278.796875 86.441406 295.367188 "/>
<path style="fill-rule:nonzero;fill:rgb(53%,27%,7%);fill-opacity:1;stroke-width:1;stroke-linecap:butt;stroke-linejoin:round;stroke:rgb(0%,0%,0%);stroke-opacity:1;stroke-miterlimit:10;" d="M 134.222656 141.804688 C 134.222656 158.371094 120.792969 171.804688 104.222656 171.804688 C 87.65625 171.804688 74.222656 158.371094 74.222656 141.804688 C 74.222656 125.234375 87.65625 111.804688 104.222656 111.804688 C 120.792969 111.804688 134.222656 125.234375 134.222656 141.804688 "/>
<path style="fill-rule:nonzero;fill:rgb(50%,0%,50%);fill-opacity:1;stroke-width:1;stroke-linecap:butt;stroke-linejoin:round;stroke:rgb(0%,0%,0%);stroke-opacity:1;stroke-miterlimit:10;" d="M 212.253906 95.183594 C 212.253906 111.75 198.824219 125.183594 182.253906 125.183594 C 165.6875 125.183594 152.253906 111.75 152.253906 95.183594 C 152.253906 78.613281 165.6875 65.183594 182.253906 65.183594 C 198.824219 65.183594 212.253906 78.613281 212.253906 95.183594 "/>
<path style="fill-rule:nonzero;fill:rgb(50%,0%,50%);fill-opacity:1;stroke-width:1;stroke-linecap:butt;stroke-linejoin:round;stroke:rgb(0%,0%,0%);stroke-opacity:1;stroke-miterlimit:10;" d="M 452.015625 89.640625 C 452.015625 106.210938 438.582031 119.640625 422.015625 119.640625 C 405.445312 119.640625 392.015625 106.210938 392.015625 89.640625 C 392.015625 73.074219 405.445312 59.640625 422.015625 59.640625 C 438.582031 59.640625 452.015625 73.074219 452.015625 89.640625 "/>
</g>
</svg>
