<?xml version="1.0" encoding="UTF-8"?>
<svg xmlns="http://www.w3.org/2000/svg" xmlns:xlink="http://www.w3.org/1999/xlink" width="517pt" height="517pt" viewBox="0 0 517 517" version="1.1">
<g id="surface991">
<rect x="0" y="0" width="517" height="517" style="fill:rgb(90%,90%,90%);fill-opacity:1;stroke:none;"/>
<path style="fill:none;stroke-width:5;stroke-linecap:butt;stroke-linejoin:round;stroke:rgb(100%,0%,0%);stroke-opacity:1;stroke-miterlimit:10;" d="M 5 261 L 261 261 L 261 517 L 5 517 Z M 5 261 "/>
<path style="fill-rule:nonzero;fill:rgb(50%,0%,50%);fill-opacity:1;stroke-width:1;stroke-linecap:butt;stroke-linejoin:round;stroke:rgb(0%,0%,0%);stroke-opacity:1;stroke-miterlimit:10;" d="M 69.53125 423.773438 C 69.53125 440.34375 56.101562 453.773438 39.53125 453.773438 C 22.964844 453.773438 9.53125 440.34375 9.53125 423.773438 C 9.53125 407.207031 22.964844 393.773438 39.53125 393.773438 C 56.101562 393.773438 69.53125 407.207031 69.53125 423.773438 "/>
<path style="fill-rule:nonzero;fill:rgb(53%,27%,7%);fill-opacity:1;stroke-width:1;stroke-linecap:butt;stroke-linejoin:round;stroke:rgb(0%,0%,0%);stroke-opacity:1;stroke-miterlimit:10;" d="M 340.917969 420.328125 C 340.917969 436.898438 327.484375 450.328125 310.917969 450.328125 C 294.347656 450.328125 280.917969 436.898438 280.917969 420.328125 C 280.917969 403.761719 294.347656 390.328125 310.917969 390.328125 C 327.484375 390.328125 340.917969 403.761719 340.917969 420.328125 "/>
<path style="fill-rule:nonzero;fill:rgb(53%,27%,7%);fill-opacity:1;stroke-width:1;stroke-linecap:butt;stroke-linejoin:round;stroke:rgb(0%,0%,0%);stroke-opacity:1;stroke-miterlimit:10;" d="M 490.722656 171.140625 C 490.722656 187.707031 477.289062 201.140625 460.722656 201.140625 C 444.152344 201.140625 430.722656 187.707031 430.722656 171.140625 C 430.722656 154.570312 444.152344 141.140625 460.722656 141.140625 C 477.289062 141.140625 490.722656 154.570312 490.722656 171.140625 "/>
<path style="fill-rule:nonzero;fill:rgb(50%,0%,50%);fill-opacity:1;stroke-width:1;stroke-linecap:butt;stroke-linejoin:round;stroke:rgb(0%,0%,0%);stroke-opacity:1;stroke-miterlimit:10;" d="M 361.199219 188.761719 C 361.199219 205.332031 347.765625 218.761719 331.199219 218.761719 C 314.628906 218.761719 301.199219 205.332031 301.199219 188.761719 C 301.199219 172.195312 314.628906 158.761719 331.199219 158.761719 C 347.765625 158.761719 361.199219 172.195312 361.199219 188.761719 "/>
</g>
</svg>
