<?xml version="1.0" encoding="UTF-8"?>
<svg xmlns="http://www.w3.org/2000/svg" xmlns:xlink="http://www.w3.org/1999/xlink" width="517pt" height="517pt" viewBox="0 0 517 517" version="1.1">
<g id="surface1086">
<rect x="0" y="0" width="517" height="517" style="fill:rgb(90%,90%,90%);fill-opacity:1;stroke:none;"/>
<path style="fill:none;stroke-width:5;stroke-linecap:butt;stroke-linejoin:round;stroke:rgb(100%,0%,0%);stroke-opacity:1;stroke-miterlimit:10;" d="M 5 261 L 261 261 L 261 517 L 5 517 Z M 5 261 "/>
<path style="fill-rule:nonzero;fill:rgb(100%,0%,0%);fill-opacity:1;stroke-width:1;stroke-linecap:butt;stroke-linejoin:round;stroke:rgb(0%,0%,0%);stroke-opacity:1;stroke-miterlimit:10;" d="M 121.511719 435.886719 C 121.511719 421.484375 97.511719 421.484375 97.511719 435.886719 C 97.511719 450.285156 121.511719 452.6875 121.511719 464.6875 C 121.511719 452.6875 145.511719 450.285156 145.511719 435.886719 C 145.511719 421.484375 121.511719 421.484375 121.511719 435.886719 "/>
<path style="fill-rule:nonzero;fill:rgb(35%,70%,90%);fill-opacity:1;stroke-width:1;stroke-linecap:butt;stroke-linejoin:round;stroke:rgb(0%,0%,0%);stroke-opacity:1;stroke-miterlimit:10;" d="M 450.070312 117.5625 C 450.070312 103.164062 426.070312 103.164062 426.070312 117.5625 C 426.070312 131.964844 450.070312 134.363281 450.070312 146.363281 C 450.070312 134.363281 474.070312 131.964844 474.070312 117.5625 C 474.070312 103.164062 450.070312 103.164062 450.070312 117.5625 "/>
<path style="fill-rule:nonzero;fill:rgb(100%,0%,0%);fill-opacity:1;stroke-width:1;stroke-linecap:butt;stroke-linejoin:round;stroke:rgb(0%,0%,0%);stroke-opacity:1;stroke-miterlimit:10;" d="M 72.46875 68.835938 C 72.46875 54.433594 48.46875 54.433594 48.46875 68.835938 C 48.46875 83.234375 72.46875 85.632812 72.46875 97.632812 C 72.46875 85.632812 96.46875 83.234375 96.46875 68.835938 C 96.46875 54.433594 72.46875 54.433594 72.46875 68.835938 "/>
<path style="fill-rule:nonzero;fill:rgb(100%,0%,0%);fill-opacity:1;stroke-width:1;stroke-linecap:butt;stroke-linejoin:round;stroke:rgb(0%,0%,0%);stroke-opacity:1;stroke-miterlimit:10;" d="M 345.621094 406.011719 C 345.621094 391.609375 321.621094 391.609375 321.621094 406.011719 C 321.621094 420.410156 345.621094 422.808594 345.621094 434.808594 C 345.621094 422.808594 369.621094 420.410156 369.621094 406.011719 C 369.621094 391.609375 345.621094 391.609375 345.621094 406.011719 "/>
</g>
</svg>
