<?xml version="1.0" encoding="UTF-8"?>
<svg xmlns="http://www.w3.org/2000/svg" xmlns:xlink="http://www.w3.org/1999/xlink" width="517pt" height="517pt" viewBox="0 0 517 517" version="1.1">
<g id="surface1426">
<rect x="0" y="0" width="517" height="517" style="fill:rgb(90%,90%,90%);fill-opacity:1;stroke:none;"/>
<path style="fill:none;stroke-width:5;stroke-linecap:butt;stroke-linejoin:round;stroke:rgb(100%,0%,0%);stroke-opacity:1;stroke-miterlimit:10;" d="M 261 261 L 517 261 L 517 517 L 261 517 Z M 261 261 "/>
<path style="fill-rule:nonzero;fill:rgb(35%,70%,90%);fill-opacity:1;stroke-width:1;stroke-linecap:butt;stroke-linejoin:round;stroke:rgb(0%,0%,0%);stroke-opacity:1;stroke-miterlimit:10;" d="M 384.519531 355.019531 C 384.519531 371.585938 371.089844 385.019531 354.519531 385.019531 C 337.953125 385.019531 324.519531 371.585938 324.519531 355.019531 C 324.519531 338.449219 337.953125 325.019531 354.519531 325.019531 C 371.089844 325.019531 384.519531 338.449219 384.519531 355.019531 "/>
<path style="fill-rule:nonzero;fill:rgb(100%,0%,0%);fill-opacity:1;stroke-width:1;stroke-linecap:butt;stroke-linejoin:round;stroke:rgb(0%,0%,0%);stroke-opacity:1;stroke-miterlimit:10;" d="M 224.707031 377.386719 C 224.707031 393.953125 211.277344 407.386719 194.707031 407.386719 C 178.140625 407.386719 164.707031 393.953125 164.707031 377.386719 C 164.707031 360.816406 178.140625 347.386719 194.707031 347.386719 C 211.277344 347.386719 224.707031 360.816406 224.707031 377.386719 "/>
<path style="fill-rule:nonzero;fill:rgb(100%,0%,0%);fill-opacity:1;stroke-width:1;stroke-linecap:butt;stroke-linejoin:round;stroke:rgb(0%,0%,0%);stroke-opacity:1;stroke-miterlimit:10;" d="M 78.859375 352.441406 C 78.859375 369.007812 65.425781 382.441406 48.859375 382.441406 C 32.289062 382.441406 18.859375 369.007812 18.859375 352.441406 C 18.859375 335.871094 32.289062 322.441406 48.859375 322.441406 C 65.425781 322.441406 78.859375 335.871094 78.859375 352.441406 "/>
<path style="fill-rule:nonzero;fill:rgb(100%,0%,0%);fill-opacity:1;stroke-width:1;stroke-linecap:butt;stroke-linejoin:round;stroke:rgb(0%,0%,0%);stroke-opacity:1;stroke-miterlimit:10;" d="M 162.894531 202.214844 C 162.894531 218.78125 149.464844 232.214844 132.894531 232.214844 C 116.328125 232.214844 102.894531 218.78125 102.894531 202.214844 C 102.894531 185.644531 116.328125 172.214844 132.894531 172.214844 C 149.464844 172.214844 162.894531 185.644531 162.894531 202.214844 "/>
</g>
</svg>
