<?xml version="1.0" encoding="UTF-8"?>
<svg xmlns="http://www.w3.org/2000/svg" xmlns:xlink="http://www.w3.org/1999/xlink" width="517pt" height="517pt" viewBox="0 0 517 517" version="1.1">
<g id="surface721">
<rect x="0" y="0" width="517" height="517" style="fill:rgb(90%,90%,90%);fill-opacity:1;stroke:none;"/>
<path style="fill:none;stroke-width:5;stroke-linecap:butt;stroke-linejoin:round;stroke:rgb(100%,0%,0%);stroke-opacity:1;stroke-miterlimit:10;" d="M 261 5 L 517 5 L 517 261 L 261 261 Z M 261 5 "/>
<path style="fill-rule:nonzero;fill:rgb(25%,88%,82%);fill-opacity:1;stroke-width:1;stroke-linecap:butt;stroke-linejoin:round;stroke:rgb(0%,0%,0%);stroke-opacity:1;stroke-miterlimit:10;" d="M 420.640625 62.351562 L 400.640625 62.351562 L 400.640625 72.351562 L 420.640625 72.351562 L 420.640625 92.351562 L 430.640625 92.351562 L 430.640625 72.351562 L 450.640625 72.351562 L 450.640625 62.351562 L 430.640625 62.351562 L 430.640625 42.351562 L 420.640625 42.351562 L 420.640625 62.351562 "/>
<path style="fill-rule:nonzero;fill:rgb(100%,100%,0%);fill-opacity:1;stroke-width:1;stroke-linecap:butt;stroke-linejoin:round;stroke:rgb(0%,0%,0%);stroke-opacity:1;stroke-miterlimit:10;" d="M 92.554688 36.582031 L 72.554688 36.582031 L 72.554688 46.582031 L 92.554688 46.582031 L 92.554688 66.582031 L 102.554688 66.582031 L 102.554688 46.582031 L 122.554688 46.582031 L 122.554688 36.582031 L 102.554688 36.582031 L 102.554688 16.582031 L 92.554688 16.582031 L 92.554688 36.582031 "/>
<path style="fill-rule:nonzero;fill:rgb(100%,100%,0%);fill-opacity:1;stroke-width:1;stroke-linecap:butt;stroke-linejoin:round;stroke:rgb(0%,0%,0%);stroke-opacity:1;stroke-miterlimit:10;" d="M 153.464844 400.988281 L 133.464844 400.988281 L 133.464844 410.988281 L 153.464844 410.988281 L 153.464844 430.988281 L 163.464844 430.988281 L 163.464844 410.988281 L 183.464844 410.988281 L 183.464844 400.988281 L 163.464844 400.988281 L 163.464844 380.988281 L 153.464844 380.988281 L 153.464844 400.988281 "/>
<path style="fill-rule:nonzero;fill:rgb(100%,100%,0%);fill-opacity:1;stroke-width:1;stroke-linecap:butt;stroke-linejoin:round;stroke:rgb(0%,0%,0%);stroke-opacity:1;stroke-miterlimit:10;" d="M 39.675781 325.769531 L 19.675781 325.769531 L 19.675781 335.769531 L 39.675781 335.769531 L 39.675781 355.769531 L 49.675781 355.769531 L 49.675781 335.769531 L 69.675781 335.769531 L 69.675781 325.769531 L 49.675781 325.769531 L 49.675781 305.769531 L 39.675781 305.769531 L 39.675781 325.769531 "/>
</g>
</svg>
