<?xml version="1.0" encoding="UTF-8"?>
<svg xmlns="http://www.w3.org/2000/svg" xmlns:xlink="http://www.w3.org/1999/xlink" width="517pt" height="517pt" viewBox="0 0 517 517" version="1.1">
<g id="surface1136">
<rect x="0" y="0" width="517" height="517" style="fill:rgb(90%,90%,90%);fill-opacity:1;stroke:none;"/>
<path style="fill:none;stroke-width:5;stroke-linecap:butt;stroke-linejoin:round;stroke:rgb(100%,0%,0%);stroke-opacity:1;stroke-miterlimit:10;" d="M 5 261 L 261 261 L 261 517 L 5 517 Z M 5 261 "/>
<path style="fill-rule:nonzero;fill:rgb(35%,70%,90%);fill-opacity:1;stroke-width:1;stroke-linecap:butt;stroke-linejoin:round;stroke:rgb(0%,0%,0%);stroke-opacity:1;stroke-miterlimit:10;" d="M 211.328125 419.449219 L 191.328125 419.449219 L 191.328125 429.449219 L 211.328125 429.449219 L 211.328125 449.449219 L 221.328125 449.449219 L 221.328125 429.449219 L 241.328125 429.449219 L 241.328125 419.449219 L 221.328125 419.449219 L 221.328125 399.449219 L 211.328125 399.449219 L 211.328125 419.449219 "/>
<path style="fill-rule:nonzero;fill:rgb(100%,0%,0%);fill-opacity:1;stroke-width:1;stroke-linecap:butt;stroke-linejoin:round;stroke:rgb(0%,0%,0%);stroke-opacity:1;stroke-miterlimit:10;" d="M 34.75 185.46875 L 14.75 185.46875 L 14.75 195.46875 L 34.75 195.46875 L 34.75 215.46875 L 44.75 215.46875 L 44.75 195.46875 L 64.75 195.46875 L 64.75 185.46875 L 44.75 185.46875 L 44.75 165.46875 L 34.75 165.46875 L 34.75 185.46875 "/>
<path style="fill-rule:nonzero;fill:rgb(100%,0%,0%);fill-opacity:1;stroke-width:1;stroke-linecap:butt;stroke-linejoin:round;stroke:rgb(0%,0%,0%);stroke-opacity:1;stroke-miterlimit:10;" d="M 353.609375 174.015625 L 333.609375 174.015625 L 333.609375 184.015625 L 353.609375 184.015625 L 353.609375 204.015625 L 363.609375 204.015625 L 363.609375 184.015625 L 383.609375 184.015625 L 383.609375 174.015625 L 363.609375 174.015625 L 363.609375 154.015625 L 353.609375 154.015625 L 353.609375 174.015625 "/>
<path style="fill-rule:nonzero;fill:rgb(100%,0%,0%);fill-opacity:1;stroke-width:1;stroke-linecap:butt;stroke-linejoin:round;stroke:rgb(0%,0%,0%);stroke-opacity:1;stroke-miterlimit:10;" d="M 401.976562 109.234375 L 381.976562 109.234375 L 381.976562 119.234375 L 401.976562 119.234375 L 401.976562 139.234375 L 411.976562 139.234375 L 411.976562 119.234375 L 431.976562 119.234375 L 431.976562 109.234375 L 411.976562 109.234375 L 411.976562 89.234375 L 401.976562 89.234375 L 401.976562 109.234375 "/>
</g>
</svg>
