<?xml version="1.0" encoding="UTF-8"?>
<svg xmlns="http://www.w3.org/2000/svg" xmlns:xlink="http://www.w3.org/1999/xlink" width="517pt" height="517pt" viewBox="0 0 517 517" version="1.1">
<g id="surface746">
<rect x="0" y="0" width="517" height="517" style="fill:rgb(90%,90%,90%);fill-opacity:1;stroke:none;"/>
<path style="fill:none;stroke-width:5;stroke-linecap:butt;stroke-linejoin:round;stroke:rgb(100%,0%,0%);stroke-opacity:1;stroke-miterlimit:10;" d="M 261 5 L 517 5 L 517 261 L 261 261 Z M 261 5 "/>
<path style="fill-rule:nonzero;fill:rgb(25%,88%,82%);fill-opacity:1;stroke-width:1;stroke-linecap:butt;stroke-linejoin:round;stroke:rgb(0%,0%,0%);stroke-opacity:1;stroke-miterlimit:10;" d="M 326.742188 212.535156 L 306.742188 212.535156 L 306.742188 222.535156 L 326.742188 222.535156 L 326.742188 242.535156 L 336.742188 242.535156 L 336.742188 222.535156 L 356.742188 222.535156 L 356.742188 212.535156 L 336.742188 212.535156 L 336.742188 192.535156 L 326.742188 192.535156 L 326.742188 212.535156 "/>
<path style="fill-rule:nonzero;fill:rgb(100%,100%,0%);fill-opacity:1;stroke-width:1;stroke-linecap:butt;stroke-linejoin:round;stroke:rgb(0%,0%,0%);stroke-opacity:1;stroke-miterlimit:10;" d="M 193.253906 151.488281 L 173.253906 151.488281 L 173.253906 161.488281 L 193.253906 161.488281 L 193.253906 181.488281 L 203.253906 181.488281 L 203.253906 161.488281 L 223.253906 161.488281 L 223.253906 151.488281 L 203.253906 151.488281 L 203.253906 131.488281 L 193.253906 131.488281 L 193.253906 151.488281 "/>
<path style="fill-rule:nonzero;fill:rgb(100%,100%,0%);fill-opacity:1;stroke-width:1;stroke-linecap:butt;stroke-linejoin:round;stroke:rgb(0%,0%,0%);stroke-opacity:1;stroke-miterlimit:10;" d="M 42.558594 115.667969 L 22.558594 115.667969 L 22.558594 125.667969 L 42.558594 125.667969 L 42.558594 145.667969 L 52.558594 145.667969 L 52.558594 125.667969 L 72.558594 125.667969 L 72.558594 115.667969 L 52.558594 115.667969 L 52.558594 95.667969 L 42.558594 95.667969 L 42.558594 115.667969 "/>
<path style="fill-rule:nonzero;fill:rgb(25%,88%,82%);fill-opacity:1;stroke-width:1;stroke-linecap:butt;stroke-linejoin:round;stroke:rgb(0%,0%,0%);stroke-opacity:1;stroke-miterlimit:10;" d="M 39.375 333.996094 L 19.375 333.996094 L 19.375 343.996094 L 39.375 343.996094 L 39.375 363.996094 L 49.375 363.996094 L 49.375 343.996094 L 69.375 343.996094 L 69.375 333.996094 L 49.375 333.996094 L 49.375 313.996094 L 39.375 313.996094 L 39.375 333.996094 "/>
</g>
</svg>
