<?xml version="1.0" encoding="UTF-8"?>
<svg xmlns="http://www.w3.org/2000/svg" xmlns:xlink="http://www.w3.org/1999/xlink" width="517pt" height="517pt" viewBox="0 0 517 517" version="1.1">
<g id="surface5156">
<rect x="0" y="0" width="517" height="517" style="fill:rgb(90%,90%,90%);fill-opacity:1;stroke:none;"/>
<path style="fill-rule:nonzero;fill:rgb(100%,0%,0%);fill-opacity:1;stroke-width:1;stroke-linecap:butt;stroke-linejoin:miter;stroke:rgb(0%,0%,0%);stroke-opacity:1;stroke-miterlimit:10;" d="M 396.839844 352.769531 C 396.839844 369.335938 383.40625 382.769531 366.839844 382.769531 C 350.269531 382.769531 336.839844 369.335938 336.839844 352.769531 C 336.839844 336.199219 350.269531 322.769531 366.839844 322.769531 C 383.40625 322.769531 396.839844 336.199219 396.839844 352.769531 "/>
<path style="fill-rule:nonzero;fill:rgb(100%,0%,0%);fill-opacity:1;stroke-width:1;stroke-linecap:butt;stroke-linejoin:miter;stroke:rgb(0%,0%,0%);stroke-opacity:1;stroke-miterlimit:10;" d="M 421.691406 104.40625 C 421.691406 120.972656 408.261719 134.40625 391.691406 134.40625 C 375.125 134.40625 361.691406 120.972656 361.691406 104.40625 C 361.691406 87.835938 375.125 74.40625 391.691406 74.40625 C 408.261719 74.40625 421.691406 87.835938 421.691406 104.40625 "/>
<path style="fill-rule:nonzero;fill:rgb(100%,0%,0%);fill-opacity:1;stroke-width:1;stroke-linecap:butt;stroke-linejoin:miter;stroke:rgb(0%,0%,0%);stroke-opacity:1;stroke-miterlimit:10;" d="M 384.578125 167.121094 C 384.578125 183.691406 371.148438 197.121094 354.578125 197.121094 C 338.007812 197.121094 324.578125 183.691406 324.578125 167.121094 C 324.578125 150.554688 338.007812 137.121094 354.578125 137.121094 C 371.148438 137.121094 384.578125 150.554688 384.578125 167.121094 "/>
<path style="fill-rule:nonzero;fill:rgb(35%,70%,90%);fill-opacity:1;stroke-width:1;stroke-linecap:butt;stroke-linejoin:miter;stroke:rgb(0%,0%,0%);stroke-opacity:1;stroke-miterlimit:10;" d="M 499.328125 199.871094 C 499.328125 216.441406 485.894531 229.871094 469.328125 229.871094 C 452.757812 229.871094 439.328125 216.441406 439.328125 199.871094 C 439.328125 183.304688 452.757812 169.871094 469.328125 169.871094 C 485.894531 169.871094 499.328125 183.304688 499.328125 199.871094 "/>
<path style="fill-rule:nonzero;fill:rgb(35%,70%,90%);fill-opacity:1;stroke-width:1;stroke-linecap:butt;stroke-linejoin:miter;stroke:rgb(0%,0%,0%);stroke-opacity:1;stroke-miterlimit:10;" d="M 358.875 61.367188 C 358.875 77.9375 345.445312 91.367188 328.875 91.367188 C 312.308594 91.367188 298.875 77.9375 298.875 61.367188 C 298.875 44.796875 312.308594 31.367188 328.875 31.367188 C 345.445312 31.367188 358.875 44.796875 358.875 61.367188 "/>
<path style="fill-rule:nonzero;fill:rgb(35%,70%,90%);fill-opacity:1;stroke-width:1;stroke-linecap:butt;stroke-linejoin:miter;stroke:rgb(0%,0%,0%);stroke-opacity:1;stroke-miterlimit:10;" d="M 97.363281 75.371094 C 97.363281 91.9375 83.929688 105.371094 67.363281 105.371094 C 50.792969 105.371094 37.363281 91.9375 37.363281 75.371094 C 37.363281 58.800781 50.792969 45.371094 67.363281 45.371094 C 83.929688 45.371094 97.363281 58.800781 97.363281 75.371094 "/>
<path style="fill-rule:nonzero;fill:rgb(35%,70%,90%);fill-opacity:1;stroke-width:1;stroke-linecap:butt;stroke-linejoin:miter;stroke:rgb(0%,0%,0%);stroke-opacity:1;stroke-miterlimit:10;" d="M 117.1875 190.875 C 117.1875 207.445312 103.757812 220.875 87.1875 220.875 C 70.617188 220.875 57.1875 207.445312 57.1875 190.875 C 57.1875 174.308594 70.617188 160.875 87.1875 160.875 C 103.757812 160.875 117.1875 174.308594 117.1875 190.875 "/>
<path style="fill-rule:nonzero;fill:rgb(35%,70%,90%);fill-opacity:1;stroke-width:1;stroke-linecap:butt;stroke-linejoin:miter;stroke:rgb(0%,0%,0%);stroke-opacity:1;stroke-miterlimit:10;" d="M 181.296875 175.269531 C 181.296875 191.839844 167.863281 205.269531 151.296875 205.269531 C 134.726562 205.269531 121.296875 191.839844 121.296875 175.269531 C 121.296875 158.703125 134.726562 145.269531 151.296875 145.269531 C 167.863281 145.269531 181.296875 158.703125 181.296875 175.269531 "/>
</g>
</svg>
