<?xml version="1.0" encoding="UTF-8"?>
<svg xmlns="http://www.w3.org/2000/svg" xmlns:xlink="http://www.w3.org/1999/xlink" width="517pt" height="517pt" viewBox="0 0 517 517" version="1.1">
<g id="surface6296">
<rect x="0" y="0" width="517" height="517" style="fill:rgb(90%,90%,90%);fill-opacity:1;stroke:none;"/>
<path style="fill-rule:nonzero;fill:rgb(50%,0%,50%);fill-opacity:1;stroke-width:1;stroke-linecap:butt;stroke-linejoin:miter;stroke:rgb(0%,0%,0%);stroke-opacity:1;stroke-miterlimit:10;" d="M 330.195312 164.933594 L 310.195312 164.933594 L 310.195312 174.933594 L 330.195312 174.933594 L 330.195312 194.933594 L 340.195312 194.933594 L 340.195312 174.933594 L 360.195312 174.933594 L 360.195312 164.933594 L 340.195312 164.933594 L 340.195312 144.933594 L 330.195312 144.933594 L 330.195312 164.933594 "/>
<path style="fill-rule:nonzero;fill:rgb(67%,100%,18%);fill-opacity:1;stroke-width:1;stroke-linecap:butt;stroke-linejoin:miter;stroke:rgb(0%,0%,0%);stroke-opacity:1;stroke-miterlimit:10;" d="M 434.117188 185.730469 L 414.117188 185.730469 L 414.117188 195.730469 L 434.117188 195.730469 L 434.117188 215.730469 L 444.117188 215.730469 L 444.117188 195.730469 L 464.117188 195.730469 L 464.117188 185.730469 L 444.117188 185.730469 L 444.117188 165.730469 L 434.117188 165.730469 L 434.117188 185.730469 "/>
<path style="fill-rule:nonzero;fill:rgb(67%,100%,18%);fill-opacity:1;stroke-width:1;stroke-linecap:butt;stroke-linejoin:miter;stroke:rgb(0%,0%,0%);stroke-opacity:1;stroke-miterlimit:10;" d="M 75.933594 209.78125 L 55.933594 209.78125 L 55.933594 219.78125 L 75.933594 219.78125 L 75.933594 239.78125 L 85.933594 239.78125 L 85.933594 219.78125 L 105.933594 219.78125 L 105.933594 209.78125 L 85.933594 209.78125 L 85.933594 189.78125 L 75.933594 189.78125 L 75.933594 209.78125 "/>
<path style="fill-rule:nonzero;fill:rgb(67%,100%,18%);fill-opacity:1;stroke-width:1;stroke-linecap:butt;stroke-linejoin:miter;stroke:rgb(0%,0%,0%);stroke-opacity:1;stroke-miterlimit:10;" d="M 195.679688 85.800781 L 175.679688 85.800781 L 175.679688 95.800781 L 195.679688 95.800781 L 195.679688 115.800781 L 205.679688 115.800781 L 205.679688 95.800781 L 225.679688 95.800781 L 225.679688 85.800781 L 205.679688 85.800781 L 205.679688 65.800781 L 195.679688 65.800781 L 195.679688 85.800781 "/>
<path style="fill-rule:nonzero;fill:rgb(67%,100%,18%);fill-opacity:1;stroke-width:1;stroke-linecap:butt;stroke-linejoin:miter;stroke:rgb(0%,0%,0%);stroke-opacity:1;stroke-miterlimit:10;" d="M 88.085938 60.835938 L 68.085938 60.835938 L 68.085938 70.835938 L 88.085938 70.835938 L 88.085938 90.835938 L 98.085938 90.835938 L 98.085938 70.835938 L 118.085938 70.835938 L 118.085938 60.835938 L 98.085938 60.835938 L 98.085938 40.835938 L 88.085938 40.835938 L 88.085938 60.835938 "/>
<path style="fill-rule:nonzero;fill:rgb(67%,100%,18%);fill-opacity:1;stroke-width:1;stroke-linecap:butt;stroke-linejoin:miter;stroke:rgb(0%,0%,0%);stroke-opacity:1;stroke-miterlimit:10;" d="M 191.683594 196.804688 L 171.683594 196.804688 L 171.683594 206.804688 L 191.683594 206.804688 L 191.683594 226.804688 L 201.683594 226.804688 L 201.683594 206.804688 L 221.683594 206.804688 L 221.683594 196.804688 L 201.683594 196.804688 L 201.683594 176.804688 L 191.683594 176.804688 L 191.683594 196.804688 "/>
<path style="fill-rule:nonzero;fill:rgb(67%,100%,18%);fill-opacity:1;stroke-width:1;stroke-linecap:butt;stroke-linejoin:miter;stroke:rgb(0%,0%,0%);stroke-opacity:1;stroke-miterlimit:10;" d="M 48.949219 129.917969 L 28.949219 129.917969 L 28.949219 139.917969 L 48.949219 139.917969 L 48.949219 159.917969 L 58.949219 159.917969 L 58.949219 139.917969 L 78.949219 139.917969 L 78.949219 129.917969 L 58.949219 129.917969 L 58.949219 109.917969 L 48.949219 109.917969 L 48.949219 129.917969 "/>
<path style="fill-rule:nonzero;fill:rgb(67%,100%,18%);fill-opacity:1;stroke-width:1;stroke-linecap:butt;stroke-linejoin:miter;stroke:rgb(0%,0%,0%);stroke-opacity:1;stroke-miterlimit:10;" d="M 146.859375 42.363281 L 126.859375 42.363281 L 126.859375 52.363281 L 146.859375 52.363281 L 146.859375 72.363281 L 156.859375 72.363281 L 156.859375 52.363281 L 176.859375 52.363281 L 176.859375 42.363281 L 156.859375 42.363281 L 156.859375 22.363281 L 146.859375 22.363281 L 146.859375 42.363281 "/>
</g>
</svg>
