<?xml version="1.0" encoding="UTF-8"?>
<svg xmlns="http://www.w3.org/2000/svg" xmlns:xlink="http://www.w3.org/1999/xlink" width="517pt" height="517pt" viewBox="0 0 517 517" version="1.1">
<g id="surface6076">
<rect x="0" y="0" width="517" height="517" style="fill:rgb(90%,90%,90%);fill-opacity:1;stroke:none;"/>
<path style="fill-rule:nonzero;fill:rgb(0%,0%,0%);fill-opacity:1;stroke-width:1;stroke-linecap:butt;stroke-linejoin:miter;stroke:rgb(0%,0%,0%);stroke-opacity:1;stroke-miterlimit:10;" d="M 313.394531 197.75 L 293.394531 197.75 L 293.394531 207.75 L 313.394531 207.75 L 313.394531 227.75 L 323.394531 227.75 L 323.394531 207.75 L 343.394531 207.75 L 343.394531 197.75 L 323.394531 197.75 L 323.394531 177.75 L 313.394531 177.75 L 313.394531 197.75 "/>
<path style="fill-rule:nonzero;fill:rgb(0%,0%,0%);fill-opacity:1;stroke-width:1;stroke-linecap:butt;stroke-linejoin:miter;stroke:rgb(0%,0%,0%);stroke-opacity:1;stroke-miterlimit:10;" d="M 335.894531 38.675781 L 315.894531 38.675781 L 315.894531 48.675781 L 335.894531 48.675781 L 335.894531 68.675781 L 345.894531 68.675781 L 345.894531 48.675781 L 365.894531 48.675781 L 365.894531 38.675781 L 345.894531 38.675781 L 345.894531 18.675781 L 335.894531 18.675781 L 335.894531 38.675781 "/>
<path style="fill-rule:nonzero;fill:rgb(0%,0%,0%);fill-opacity:1;stroke-width:1;stroke-linecap:butt;stroke-linejoin:miter;stroke:rgb(0%,0%,0%);stroke-opacity:1;stroke-miterlimit:10;" d="M 318.992188 344.730469 L 298.992188 344.730469 L 298.992188 354.730469 L 318.992188 354.730469 L 318.992188 374.730469 L 328.992188 374.730469 L 328.992188 354.730469 L 348.992188 354.730469 L 348.992188 344.730469 L 328.992188 344.730469 L 328.992188 324.730469 L 318.992188 324.730469 L 318.992188 344.730469 "/>
<path style="fill-rule:nonzero;fill:rgb(35%,70%,90%);fill-opacity:1;stroke-width:1;stroke-linecap:butt;stroke-linejoin:miter;stroke:rgb(0%,0%,0%);stroke-opacity:1;stroke-miterlimit:10;" d="M 413.394531 404.886719 L 393.394531 404.886719 L 393.394531 414.886719 L 413.394531 414.886719 L 413.394531 434.886719 L 423.394531 434.886719 L 423.394531 414.886719 L 443.394531 414.886719 L 443.394531 404.886719 L 423.394531 404.886719 L 423.394531 384.886719 L 413.394531 384.886719 L 413.394531 404.886719 "/>
<path style="fill-rule:nonzero;fill:rgb(35%,70%,90%);fill-opacity:1;stroke-width:1;stroke-linecap:butt;stroke-linejoin:miter;stroke:rgb(0%,0%,0%);stroke-opacity:1;stroke-miterlimit:10;" d="M 171.429688 203.277344 L 151.429688 203.277344 L 151.429688 213.277344 L 171.429688 213.277344 L 171.429688 233.277344 L 181.429688 233.277344 L 181.429688 213.277344 L 201.429688 213.277344 L 201.429688 203.277344 L 181.429688 203.277344 L 181.429688 183.277344 L 171.429688 183.277344 L 171.429688 203.277344 "/>
<path style="fill-rule:nonzero;fill:rgb(35%,70%,90%);fill-opacity:1;stroke-width:1;stroke-linecap:butt;stroke-linejoin:miter;stroke:rgb(0%,0%,0%);stroke-opacity:1;stroke-miterlimit:10;" d="M 55.347656 40.890625 L 35.347656 40.890625 L 35.347656 50.890625 L 55.347656 50.890625 L 55.347656 70.890625 L 65.347656 70.890625 L 65.347656 50.890625 L 85.347656 50.890625 L 85.347656 40.890625 L 65.347656 40.890625 L 65.347656 20.890625 L 55.347656 20.890625 L 55.347656 40.890625 "/>
<path style="fill-rule:nonzero;fill:rgb(35%,70%,90%);fill-opacity:1;stroke-width:1;stroke-linecap:butt;stroke-linejoin:miter;stroke:rgb(0%,0%,0%);stroke-opacity:1;stroke-miterlimit:10;" d="M 132.050781 75.378906 L 112.050781 75.378906 L 112.050781 85.378906 L 132.050781 85.378906 L 132.050781 105.378906 L 142.050781 105.378906 L 142.050781 85.378906 L 162.050781 85.378906 L 162.050781 75.378906 L 142.050781 75.378906 L 142.050781 55.378906 L 132.050781 55.378906 L 132.050781 75.378906 "/>
<path style="fill-rule:nonzero;fill:rgb(35%,70%,90%);fill-opacity:1;stroke-width:1;stroke-linecap:butt;stroke-linejoin:miter;stroke:rgb(0%,0%,0%);stroke-opacity:1;stroke-miterlimit:10;" d="M 72.3125 140.910156 L 52.3125 140.910156 L 52.3125 150.910156 L 72.3125 150.910156 L 72.3125 170.910156 L 82.3125 170.910156 L 82.3125 150.910156 L 102.3125 150.910156 L 102.3125 140.910156 L 82.3125 140.910156 L 82.3125 120.910156 L 72.3125 120.910156 L 72.3125 140.910156 "/>
</g>
</svg>
