<?xml version="1.0" encoding="UTF-8"?>
<svg xmlns="http://www.w3.org/2000/svg" xmlns:xlink="http://www.w3.org/1999/xlink" width="517pt" height="517pt" viewBox="0 0 517 517" version="1.1">
<g id="surface961">
<rect x="0" y="0" width="517" height="517" style="fill:rgb(90%,90%,90%);fill-opacity:1;stroke:none;"/>
<path style="fill:none;stroke-width:5;stroke-linecap:butt;stroke-linejoin:round;stroke:rgb(100%,0%,0%);stroke-opacity:1;stroke-miterlimit:10;" d="M 5 261 L 261 261 L 261 517 L 5 517 Z M 5 261 "/>
<path style="fill-rule:nonzero;fill:rgb(50%,0%,50%);fill-opacity:1;stroke-width:1;stroke-linecap:butt;stroke-linejoin:round;stroke:rgb(0%,0%,0%);stroke-opacity:1;stroke-miterlimit:10;" d="M 66.617188 357.097656 C 66.617188 373.667969 53.183594 387.097656 36.617188 387.097656 C 20.046875 387.097656 6.617188 373.667969 6.617188 357.097656 C 6.617188 340.53125 20.046875 327.097656 36.617188 327.097656 C 53.183594 327.097656 66.617188 340.53125 66.617188 357.097656 "/>
<path style="fill-rule:nonzero;fill:rgb(53%,27%,7%);fill-opacity:1;stroke-width:1;stroke-linecap:butt;stroke-linejoin:round;stroke:rgb(0%,0%,0%);stroke-opacity:1;stroke-miterlimit:10;" d="M 383.039062 411.726562 C 383.039062 428.292969 369.609375 441.726562 353.039062 441.726562 C 336.472656 441.726562 323.039062 428.292969 323.039062 411.726562 C 323.039062 395.15625 336.472656 381.726562 353.039062 381.726562 C 369.609375 381.726562 383.039062 395.15625 383.039062 411.726562 "/>
<path style="fill-rule:nonzero;fill:rgb(53%,27%,7%);fill-opacity:1;stroke-width:1;stroke-linecap:butt;stroke-linejoin:round;stroke:rgb(0%,0%,0%);stroke-opacity:1;stroke-miterlimit:10;" d="M 501.964844 455.011719 C 501.964844 471.582031 488.53125 485.011719 471.964844 485.011719 C 455.394531 485.011719 441.964844 471.582031 441.964844 455.011719 C 441.964844 438.445312 455.394531 425.011719 471.964844 425.011719 C 488.53125 425.011719 501.964844 438.445312 501.964844 455.011719 "/>
<path style="fill-rule:nonzero;fill:rgb(53%,27%,7%);fill-opacity:1;stroke-width:1;stroke-linecap:butt;stroke-linejoin:round;stroke:rgb(0%,0%,0%);stroke-opacity:1;stroke-miterlimit:10;" d="M 427.402344 47.171875 C 427.402344 63.742188 413.972656 77.171875 397.402344 77.171875 C 380.832031 77.171875 367.402344 63.742188 367.402344 47.171875 C 367.402344 30.605469 380.832031 17.171875 397.402344 17.171875 C 413.972656 17.171875 427.402344 30.605469 427.402344 47.171875 "/>
</g>
</svg>
