<?xml version="1.0" encoding="UTF-8"?>
<svg xmlns="http://www.w3.org/2000/svg" xmlns:xlink="http://www.w3.org/1999/xlink" width="517pt" height="517pt" viewBox="0 0 517 517" version="1.1">
<g id="surface1376">
<rect x="0" y="0" width="517" height="517" style="fill:rgb(90%,90%,90%);fill-opacity:1;stroke:none;"/>
<path style="fill:none;stroke-width:5;stroke-linecap:butt;stroke-linejoin:round;stroke:rgb(100%,0%,0%);stroke-opacity:1;stroke-miterlimit:10;" d="M 261 261 L 517 261 L 517 517 L 261 517 Z M 261 261 "/>
<path style="fill-rule:nonzero;fill:rgb(0%,0%,0%);fill-opacity:1;stroke-width:1;stroke-linecap:butt;stroke-linejoin:round;stroke:rgb(0%,0%,0%);stroke-opacity:1;stroke-miterlimit:10;" d="M 441.34375 342.59375 C 441.34375 359.164062 427.914062 372.59375 411.34375 372.59375 C 394.773438 372.59375 381.34375 359.164062 381.34375 342.59375 C 381.34375 326.027344 394.773438 312.59375 411.34375 312.59375 C 427.914062 312.59375 441.34375 326.027344 441.34375 342.59375 "/>
<path style="fill-rule:nonzero;fill:rgb(100%,0%,0%);fill-opacity:1;stroke-width:1;stroke-linecap:butt;stroke-linejoin:round;stroke:rgb(0%,0%,0%);stroke-opacity:1;stroke-miterlimit:10;" d="M 232.113281 405.886719 C 232.113281 422.457031 218.683594 435.886719 202.113281 435.886719 C 185.546875 435.886719 172.113281 422.457031 172.113281 405.886719 C 172.113281 389.320312 185.546875 375.886719 202.113281 375.886719 C 218.683594 375.886719 232.113281 389.320312 232.113281 405.886719 "/>
<path style="fill-rule:nonzero;fill:rgb(100%,0%,0%);fill-opacity:1;stroke-width:1;stroke-linecap:butt;stroke-linejoin:round;stroke:rgb(0%,0%,0%);stroke-opacity:1;stroke-miterlimit:10;" d="M 130.503906 417.132812 C 130.503906 433.703125 117.070312 447.132812 100.503906 447.132812 C 83.933594 447.132812 70.503906 433.703125 70.503906 417.132812 C 70.503906 400.566406 83.933594 387.132812 100.503906 387.132812 C 117.070312 387.132812 130.503906 400.566406 130.503906 417.132812 "/>
<path style="fill-rule:nonzero;fill:rgb(100%,0%,0%);fill-opacity:1;stroke-width:1;stroke-linecap:butt;stroke-linejoin:round;stroke:rgb(0%,0%,0%);stroke-opacity:1;stroke-miterlimit:10;" d="M 183.609375 190.640625 C 183.609375 207.207031 170.175781 220.640625 153.609375 220.640625 C 137.039062 220.640625 123.609375 207.207031 123.609375 190.640625 C 123.609375 174.070312 137.039062 160.640625 153.609375 160.640625 C 170.175781 160.640625 183.609375 174.070312 183.609375 190.640625 "/>
</g>
</svg>
