<?xml version="1.0" encoding="UTF-8"?>
<svg xmlns="http://www.w3.org/2000/svg" xmlns:xlink="http://www.w3.org/1999/xlink" width="517pt" height="517pt" viewBox="0 0 517 517" version="1.1">
<g id="surface1466">
<rect x="0" y="0" width="517" height="517" style="fill:rgb(90%,90%,90%);fill-opacity:1;stroke:none;"/>
<path style="fill:none;stroke-width:5;stroke-linecap:butt;stroke-linejoin:round;stroke:rgb(100%,0%,0%);stroke-opacity:1;stroke-miterlimit:10;" d="M 261 261 L 517 261 L 517 517 L 261 517 Z M 261 261 "/>
<path style="fill-rule:nonzero;fill:rgb(100%,100%,0%);fill-opacity:1;stroke-width:1;stroke-linecap:butt;stroke-linejoin:round;stroke:rgb(0%,0%,0%);stroke-opacity:1;stroke-miterlimit:10;" d="M 372.03125 313.625 C 372.03125 299.226562 348.03125 299.226562 348.03125 313.625 C 348.03125 328.023438 372.03125 330.425781 372.03125 342.425781 C 372.03125 330.425781 396.03125 328.023438 396.03125 313.625 C 396.03125 299.226562 372.03125 299.226562 372.03125 313.625 "/>
<path style="fill-rule:nonzero;fill:rgb(50%,0%,50%);fill-opacity:1;stroke-width:1;stroke-linecap:butt;stroke-linejoin:round;stroke:rgb(0%,0%,0%);stroke-opacity:1;stroke-miterlimit:10;" d="M 178.335938 144.664062 C 178.335938 130.261719 154.335938 130.261719 154.335938 144.664062 C 154.335938 159.0625 178.335938 161.460938 178.335938 173.460938 C 178.335938 161.460938 202.335938 159.0625 202.335938 144.664062 C 202.335938 130.261719 178.335938 130.261719 178.335938 144.664062 "/>
<path style="fill-rule:nonzero;fill:rgb(50%,0%,50%);fill-opacity:1;stroke-width:1;stroke-linecap:butt;stroke-linejoin:round;stroke:rgb(0%,0%,0%);stroke-opacity:1;stroke-miterlimit:10;" d="M 128.339844 193.648438 C 128.339844 179.25 104.339844 179.25 104.339844 193.648438 C 104.339844 208.050781 128.339844 210.449219 128.339844 222.449219 C 128.339844 210.449219 152.339844 208.050781 152.339844 193.648438 C 152.339844 179.25 128.339844 179.25 128.339844 193.648438 "/>
<path style="fill-rule:nonzero;fill:rgb(100%,100%,0%);fill-opacity:1;stroke-width:1;stroke-linecap:butt;stroke-linejoin:round;stroke:rgb(0%,0%,0%);stroke-opacity:1;stroke-miterlimit:10;" d="M 452.046875 182.382812 C 452.046875 167.980469 428.046875 167.980469 428.046875 182.382812 C 428.046875 196.78125 452.046875 199.179688 452.046875 211.179688 C 452.046875 199.179688 476.046875 196.78125 476.046875 182.382812 C 476.046875 167.980469 452.046875 167.980469 452.046875 182.382812 "/>
</g>
</svg>
