<?xml version="1.0" encoding="UTF-8"?>
<svg xmlns="http://www.w3.org/2000/svg" xmlns:xlink="http://www.w3.org/1999/xlink" width="517pt" height="517pt" viewBox="0 0 517 517" version="1.1">
<g id="surface786">
<rect x="0" y="0" width="517" height="517" style="fill:rgb(90%,90%,90%);fill-opacity:1;stroke:none;"/>
<path style="fill:none;stroke-width:5;stroke-linecap:butt;stroke-linejoin:round;stroke:rgb(100%,0%,0%);stroke-opacity:1;stroke-miterlimit:10;" d="M 261 5 L 517 5 L 517 261 L 261 261 Z M 261 5 "/>
<path style="fill-rule:nonzero;fill:rgb(100%,100%,0%);fill-opacity:1;stroke-width:1;stroke-linecap:butt;stroke-linejoin:round;stroke:rgb(0%,0%,0%);stroke-opacity:1;stroke-miterlimit:10;" d="M 456.5625 213.753906 L 436.5625 213.753906 L 436.5625 223.753906 L 456.5625 223.753906 L 456.5625 243.753906 L 466.5625 243.753906 L 466.5625 223.753906 L 486.5625 223.753906 L 486.5625 213.753906 L 466.5625 213.753906 L 466.5625 193.753906 L 456.5625 193.753906 L 456.5625 213.753906 "/>
<path style="fill-rule:nonzero;fill:rgb(100%,100%,0%);fill-opacity:1;stroke-width:1;stroke-linecap:butt;stroke-linejoin:round;stroke:rgb(0%,0%,0%);stroke-opacity:1;stroke-miterlimit:10;" d="M 333.820312 391.023438 L 313.820312 391.023438 L 313.820312 401.023438 L 333.820312 401.023438 L 333.820312 421.023438 L 343.820312 421.023438 L 343.820312 401.023438 L 363.820312 401.023438 L 363.820312 391.023438 L 343.820312 391.023438 L 343.820312 371.023438 L 333.820312 371.023438 L 333.820312 391.023438 "/>
<path style="fill-rule:nonzero;fill:rgb(100%,100%,0%);fill-opacity:1;stroke-width:1;stroke-linecap:butt;stroke-linejoin:round;stroke:rgb(0%,0%,0%);stroke-opacity:1;stroke-miterlimit:10;" d="M 286.214844 451.84375 L 266.214844 451.84375 L 266.214844 461.84375 L 286.214844 461.84375 L 286.214844 481.84375 L 296.214844 481.84375 L 296.214844 461.84375 L 316.214844 461.84375 L 316.214844 451.84375 L 296.214844 451.84375 L 296.214844 431.84375 L 286.214844 431.84375 L 286.214844 451.84375 "/>
<path style="fill-rule:nonzero;fill:rgb(100%,100%,0%);fill-opacity:1;stroke-width:1;stroke-linecap:butt;stroke-linejoin:round;stroke:rgb(0%,0%,0%);stroke-opacity:1;stroke-miterlimit:10;" d="M 114.421875 53.488281 L 94.421875 53.488281 L 94.421875 63.488281 L 114.421875 63.488281 L 114.421875 83.488281 L 124.421875 83.488281 L 124.421875 63.488281 L 144.421875 63.488281 L 144.421875 53.488281 L 124.421875 53.488281 L 124.421875 33.488281 L 114.421875 33.488281 L 114.421875 53.488281 "/>
</g>
</svg>
