<?xml version="1.0" encoding="UTF-8"?>
<svg xmlns="http://www.w3.org/2000/svg" xmlns:xlink="http://www.w3.org/1999/xlink" width="517pt" height="517pt" viewBox="0 0 517 517" version="1.1">
<g id="surface5916">
<rect x="0" y="0" width="517" height="517" style="fill:rgb(90%,90%,90%);fill-opacity:1;stroke:none;"/>
<path style="fill-rule:nonzero;fill:rgb(50%,0%,50%);fill-opacity:1;stroke-width:1;stroke-linecap:butt;stroke-linejoin:miter;stroke:rgb(0%,0%,0%);stroke-opacity:1;stroke-miterlimit:10;" d="M 468.910156 36.09375 L 448.910156 36.09375 L 448.910156 46.09375 L 468.910156 46.09375 L 468.910156 66.09375 L 478.910156 66.09375 L 478.910156 46.09375 L 498.910156 46.09375 L 498.910156 36.09375 L 478.910156 36.09375 L 478.910156 16.09375 L 468.910156 16.09375 L 468.910156 36.09375 "/>
<path style="fill-rule:nonzero;fill:rgb(50%,0%,50%);fill-opacity:1;stroke-width:1;stroke-linecap:butt;stroke-linejoin:miter;stroke:rgb(0%,0%,0%);stroke-opacity:1;stroke-miterlimit:10;" d="M 47.175781 335.152344 L 27.175781 335.152344 L 27.175781 345.152344 L 47.175781 345.152344 L 47.175781 365.152344 L 57.175781 365.152344 L 57.175781 345.152344 L 77.175781 345.152344 L 77.175781 335.152344 L 57.175781 335.152344 L 57.175781 315.152344 L 47.175781 315.152344 L 47.175781 335.152344 "/>
<path style="fill-rule:nonzero;fill:rgb(50%,0%,50%);fill-opacity:1;stroke-width:1;stroke-linecap:butt;stroke-linejoin:miter;stroke:rgb(0%,0%,0%);stroke-opacity:1;stroke-miterlimit:10;" d="M 112.574219 465.777344 L 92.574219 465.777344 L 92.574219 475.777344 L 112.574219 475.777344 L 112.574219 495.777344 L 122.574219 495.777344 L 122.574219 475.777344 L 142.574219 475.777344 L 142.574219 465.777344 L 122.574219 465.777344 L 122.574219 445.777344 L 112.574219 445.777344 L 112.574219 465.777344 "/>
<path style="fill-rule:nonzero;fill:rgb(100%,0%,0%);fill-opacity:1;stroke-width:1;stroke-linecap:butt;stroke-linejoin:miter;stroke:rgb(0%,0%,0%);stroke-opacity:1;stroke-miterlimit:10;" d="M 176.289062 337.867188 L 156.289062 337.867188 L 156.289062 347.867188 L 176.289062 347.867188 L 176.289062 367.867188 L 186.289062 367.867188 L 186.289062 347.867188 L 206.289062 347.867188 L 206.289062 337.867188 L 186.289062 337.867188 L 186.289062 317.867188 L 176.289062 317.867188 L 176.289062 337.867188 "/>
<path style="fill-rule:nonzero;fill:rgb(100%,0%,0%);fill-opacity:1;stroke-width:1;stroke-linecap:butt;stroke-linejoin:miter;stroke:rgb(0%,0%,0%);stroke-opacity:1;stroke-miterlimit:10;" d="M 98.957031 151.035156 L 78.957031 151.035156 L 78.957031 161.035156 L 98.957031 161.035156 L 98.957031 181.035156 L 108.957031 181.035156 L 108.957031 161.035156 L 128.957031 161.035156 L 128.957031 151.035156 L 108.957031 151.035156 L 108.957031 131.035156 L 98.957031 131.035156 L 98.957031 151.035156 "/>
<path style="fill-rule:nonzero;fill:rgb(100%,0%,0%);fill-opacity:1;stroke-width:1;stroke-linecap:butt;stroke-linejoin:miter;stroke:rgb(0%,0%,0%);stroke-opacity:1;stroke-miterlimit:10;" d="M 117.75 47.96875 L 97.75 47.96875 L 97.75 57.96875 L 117.75 57.96875 L 117.75 77.96875 L 127.75 77.96875 L 127.75 57.96875 L 147.75 57.96875 L 147.75 47.96875 L 127.75 47.96875 L 127.75 27.96875 L 117.75 27.96875 L 117.75 47.96875 "/>
<path style="fill-rule:nonzero;fill:rgb(100%,0%,0%);fill-opacity:1;stroke-width:1;stroke-linecap:butt;stroke-linejoin:miter;stroke:rgb(0%,0%,0%);stroke-opacity:1;stroke-miterlimit:10;" d="M 192.585938 91.941406 L 172.585938 91.941406 L 172.585938 101.941406 L 192.585938 101.941406 L 192.585938 121.941406 L 202.585938 121.941406 L 202.585938 101.941406 L 222.585938 101.941406 L 222.585938 91.941406 L 202.585938 91.941406 L 202.585938 71.941406 L 192.585938 71.941406 L 192.585938 91.941406 "/>
<path style="fill-rule:nonzero;fill:rgb(100%,0%,0%);fill-opacity:1;stroke-width:1;stroke-linecap:butt;stroke-linejoin:miter;stroke:rgb(0%,0%,0%);stroke-opacity:1;stroke-miterlimit:10;" d="M 119.703125 207.882812 L 99.703125 207.882812 L 99.703125 217.882812 L 119.703125 217.882812 L 119.703125 237.882812 L 129.703125 237.882812 L 129.703125 217.882812 L 149.703125 217.882812 L 149.703125 207.882812 L 129.703125 207.882812 L 129.703125 187.882812 L 119.703125 187.882812 L 119.703125 207.882812 "/>
</g>
</svg>
