<?xml version="1.0" encoding="UTF-8"?>
<svg xmlns="http://www.w3.org/2000/svg" xmlns:xlink="http://www.w3.org/1999/xlink" width="517pt" height="517pt" viewBox="0 0 517 517" version="1.1">
<g id="surface6106">
<rect x="0" y="0" width="517" height="517" style="fill:rgb(90%,90%,90%);fill-opacity:1;stroke:none;"/>
<path style="fill-rule:nonzero;fill:rgb(90%,65%,0%);fill-opacity:1;stroke-width:1;stroke-linecap:butt;stroke-linejoin:miter;stroke:rgb(0%,0%,0%);stroke-opacity:1;stroke-miterlimit:10;" d="M 300.238281 63.519531 L 280.238281 63.519531 L 280.238281 73.519531 L 300.238281 73.519531 L 300.238281 93.519531 L 310.238281 93.519531 L 310.238281 73.519531 L 330.238281 73.519531 L 330.238281 63.519531 L 310.238281 63.519531 L 310.238281 43.519531 L 300.238281 43.519531 L 300.238281 63.519531 "/>
<path style="fill-rule:nonzero;fill:rgb(90%,65%,0%);fill-opacity:1;stroke-width:1;stroke-linecap:butt;stroke-linejoin:miter;stroke:rgb(0%,0%,0%);stroke-opacity:1;stroke-miterlimit:10;" d="M 114.941406 392.410156 L 94.941406 392.410156 L 94.941406 402.410156 L 114.941406 402.410156 L 114.941406 422.410156 L 124.941406 422.410156 L 124.941406 402.410156 L 144.941406 402.410156 L 144.941406 392.410156 L 124.941406 392.410156 L 124.941406 372.410156 L 114.941406 372.410156 L 114.941406 392.410156 "/>
<path style="fill-rule:nonzero;fill:rgb(67%,100%,18%);fill-opacity:1;stroke-width:1;stroke-linecap:butt;stroke-linejoin:miter;stroke:rgb(0%,0%,0%);stroke-opacity:1;stroke-miterlimit:10;" d="M 138.210938 336.839844 L 118.210938 336.839844 L 118.210938 346.839844 L 138.210938 346.839844 L 138.210938 366.839844 L 148.210938 366.839844 L 148.210938 346.839844 L 168.210938 346.839844 L 168.210938 336.839844 L 148.210938 336.839844 L 148.210938 316.839844 L 138.210938 316.839844 L 138.210938 336.839844 "/>
<path style="fill-rule:nonzero;fill:rgb(67%,100%,18%);fill-opacity:1;stroke-width:1;stroke-linecap:butt;stroke-linejoin:miter;stroke:rgb(0%,0%,0%);stroke-opacity:1;stroke-miterlimit:10;" d="M 164.050781 427.605469 L 144.050781 427.605469 L 144.050781 437.605469 L 164.050781 437.605469 L 164.050781 457.605469 L 174.050781 457.605469 L 174.050781 437.605469 L 194.050781 437.605469 L 194.050781 427.605469 L 174.050781 427.605469 L 174.050781 407.605469 L 164.050781 407.605469 L 164.050781 427.605469 "/>
<path style="fill-rule:nonzero;fill:rgb(67%,100%,18%);fill-opacity:1;stroke-width:1;stroke-linecap:butt;stroke-linejoin:miter;stroke:rgb(0%,0%,0%);stroke-opacity:1;stroke-miterlimit:10;" d="M 37.789062 287.0625 L 17.789062 287.0625 L 17.789062 297.0625 L 37.789062 297.0625 L 37.789062 317.0625 L 47.789062 317.0625 L 47.789062 297.0625 L 67.789062 297.0625 L 67.789062 287.0625 L 47.789062 287.0625 L 47.789062 267.0625 L 37.789062 267.0625 L 37.789062 287.0625 "/>
<path style="fill-rule:nonzero;fill:rgb(67%,100%,18%);fill-opacity:1;stroke-width:1;stroke-linecap:butt;stroke-linejoin:miter;stroke:rgb(0%,0%,0%);stroke-opacity:1;stroke-miterlimit:10;" d="M 214.535156 348.488281 L 194.535156 348.488281 L 194.535156 358.488281 L 214.535156 358.488281 L 214.535156 378.488281 L 224.535156 378.488281 L 224.535156 358.488281 L 244.535156 358.488281 L 244.535156 348.488281 L 224.535156 348.488281 L 224.535156 328.488281 L 214.535156 328.488281 L 214.535156 348.488281 "/>
<path style="fill-rule:nonzero;fill:rgb(67%,100%,18%);fill-opacity:1;stroke-width:1;stroke-linecap:butt;stroke-linejoin:miter;stroke:rgb(0%,0%,0%);stroke-opacity:1;stroke-miterlimit:10;" d="M 72.726562 348.4375 L 52.726562 348.4375 L 52.726562 358.4375 L 72.726562 358.4375 L 72.726562 378.4375 L 82.726562 378.4375 L 82.726562 358.4375 L 102.726562 358.4375 L 102.726562 348.4375 L 82.726562 348.4375 L 82.726562 328.4375 L 72.726562 328.4375 L 72.726562 348.4375 "/>
<path style="fill-rule:nonzero;fill:rgb(67%,100%,18%);fill-opacity:1;stroke-width:1;stroke-linecap:butt;stroke-linejoin:miter;stroke:rgb(0%,0%,0%);stroke-opacity:1;stroke-miterlimit:10;" d="M 88.496094 452.464844 L 68.496094 452.464844 L 68.496094 462.464844 L 88.496094 462.464844 L 88.496094 482.464844 L 98.496094 482.464844 L 98.496094 462.464844 L 118.496094 462.464844 L 118.496094 452.464844 L 98.496094 452.464844 L 98.496094 432.464844 L 88.496094 432.464844 L 88.496094 452.464844 "/>
</g>
</svg>
