<?xml version="1.0" encoding="UTF-8"?>
<svg xmlns="http://www.w3.org/2000/svg" xmlns:xlink="http://www.w3.org/1999/xlink" width="517pt" height="517pt" viewBox="0 0 517 517" version="1.1">
<g id="surface6166">
<rect x="0" y="0" width="517" height="517" style="fill:rgb(90%,90%,90%);fill-opacity:1;stroke:none;"/>
<path style="fill-rule:nonzero;fill:rgb(100%,100%,0%);fill-opacity:1;stroke-width:1;stroke-linecap:butt;stroke-linejoin:miter;stroke:rgb(0%,0%,0%);stroke-opacity:1;stroke-miterlimit:10;" d="M 353.019531 176.558594 L 333.019531 176.558594 L 333.019531 186.558594 L 353.019531 186.558594 L 353.019531 206.558594 L 363.019531 206.558594 L 363.019531 186.558594 L 383.019531 186.558594 L 383.019531 176.558594 L 363.019531 176.558594 L 363.019531 156.558594 L 353.019531 156.558594 L 353.019531 176.558594 "/>
<path style="fill-rule:nonzero;fill:rgb(100%,100%,0%);fill-opacity:1;stroke-width:1;stroke-linecap:butt;stroke-linejoin:miter;stroke:rgb(0%,0%,0%);stroke-opacity:1;stroke-miterlimit:10;" d="M 304.234375 72.0625 L 284.234375 72.0625 L 284.234375 82.0625 L 304.234375 82.0625 L 304.234375 102.0625 L 314.234375 102.0625 L 314.234375 82.0625 L 334.234375 82.0625 L 334.234375 72.0625 L 314.234375 72.0625 L 314.234375 52.0625 L 304.234375 52.0625 L 304.234375 72.0625 "/>
<path style="fill-rule:nonzero;fill:rgb(100%,100%,0%);fill-opacity:1;stroke-width:1;stroke-linecap:butt;stroke-linejoin:miter;stroke:rgb(0%,0%,0%);stroke-opacity:1;stroke-miterlimit:10;" d="M 84.730469 70.828125 L 64.730469 70.828125 L 64.730469 80.828125 L 84.730469 80.828125 L 84.730469 100.828125 L 94.730469 100.828125 L 94.730469 80.828125 L 114.730469 80.828125 L 114.730469 70.828125 L 94.730469 70.828125 L 94.730469 50.828125 L 84.730469 50.828125 L 84.730469 70.828125 "/>
<path style="fill-rule:nonzero;fill:rgb(100%,100%,0%);fill-opacity:1;stroke-width:1;stroke-linecap:butt;stroke-linejoin:miter;stroke:rgb(0%,0%,0%);stroke-opacity:1;stroke-miterlimit:10;" d="M 159.480469 158.621094 L 139.480469 158.621094 L 139.480469 168.621094 L 159.480469 168.621094 L 159.480469 188.621094 L 169.480469 188.621094 L 169.480469 168.621094 L 189.480469 168.621094 L 189.480469 158.621094 L 169.480469 158.621094 L 169.480469 138.621094 L 159.480469 138.621094 L 159.480469 158.621094 "/>
<path style="fill-rule:nonzero;fill:rgb(100%,100%,0%);fill-opacity:1;stroke-width:1;stroke-linecap:butt;stroke-linejoin:miter;stroke:rgb(0%,0%,0%);stroke-opacity:1;stroke-miterlimit:10;" d="M 78.867188 402.820312 L 58.867188 402.820312 L 58.867188 412.820312 L 78.867188 412.820312 L 78.867188 432.820312 L 88.867188 432.820312 L 88.867188 412.820312 L 108.867188 412.820312 L 108.867188 402.820312 L 88.867188 402.820312 L 88.867188 382.820312 L 78.867188 382.820312 L 78.867188 402.820312 "/>
<path style="fill-rule:nonzero;fill:rgb(100%,100%,0%);fill-opacity:1;stroke-width:1;stroke-linecap:butt;stroke-linejoin:miter;stroke:rgb(0%,0%,0%);stroke-opacity:1;stroke-miterlimit:10;" d="M 63.527344 467.863281 L 43.527344 467.863281 L 43.527344 477.863281 L 63.527344 477.863281 L 63.527344 497.863281 L 73.527344 497.863281 L 73.527344 477.863281 L 93.527344 477.863281 L 93.527344 467.863281 L 73.527344 467.863281 L 73.527344 447.863281 L 63.527344 447.863281 L 63.527344 467.863281 "/>
<path style="fill-rule:nonzero;fill:rgb(100%,100%,0%);fill-opacity:1;stroke-width:1;stroke-linecap:butt;stroke-linejoin:miter;stroke:rgb(0%,0%,0%);stroke-opacity:1;stroke-miterlimit:10;" d="M 199.242188 338.355469 L 179.242188 338.355469 L 179.242188 348.355469 L 199.242188 348.355469 L 199.242188 368.355469 L 209.242188 368.355469 L 209.242188 348.355469 L 229.242188 348.355469 L 229.242188 338.355469 L 209.242188 338.355469 L 209.242188 318.355469 L 199.242188 318.355469 L 199.242188 338.355469 "/>
<path style="fill-rule:nonzero;fill:rgb(100%,100%,0%);fill-opacity:1;stroke-width:1;stroke-linecap:butt;stroke-linejoin:miter;stroke:rgb(0%,0%,0%);stroke-opacity:1;stroke-miterlimit:10;" d="M 191.726562 425.015625 L 171.726562 425.015625 L 171.726562 435.015625 L 191.726562 435.015625 L 191.726562 455.015625 L 201.726562 455.015625 L 201.726562 435.015625 L 221.726562 435.015625 L 221.726562 425.015625 L 201.726562 425.015625 L 201.726562 405.015625 L 191.726562 405.015625 L 191.726562 425.015625 "/>
</g>
</svg>
