<?xml version="1.0" encoding="UTF-8"?>
<svg xmlns="http://www.w3.org/2000/svg" xmlns:xlink="http://www.w3.org/1999/xlink" width="517pt" height="517pt" viewBox="0 0 517 517" version="1.1">
<g id="surface5126">
<rect x="0" y="0" width="517" height="517" style="fill:rgb(90%,90%,90%);fill-opacity:1;stroke:none;"/>
<path style="fill-rule:nonzero;fill:rgb(35%,70%,90%);fill-opacity:1;stroke-width:1;stroke-linecap:butt;stroke-linejoin:miter;stroke:rgb(0%,0%,0%);stroke-opacity:1;stroke-miterlimit:10;" d="M 380.453125 452.988281 C 380.453125 469.558594 367.019531 482.988281 350.453125 482.988281 C 333.882812 482.988281 320.453125 469.558594 320.453125 452.988281 C 320.453125 436.421875 333.882812 422.988281 350.453125 422.988281 C 367.019531 422.988281 380.453125 436.421875 380.453125 452.988281 "/>
<path style="fill-rule:nonzero;fill:rgb(35%,70%,90%);fill-opacity:1;stroke-width:1;stroke-linecap:butt;stroke-linejoin:miter;stroke:rgb(0%,0%,0%);stroke-opacity:1;stroke-miterlimit:10;" d="M 195.683594 353.375 C 195.683594 369.945312 182.253906 383.375 165.683594 383.375 C 149.113281 383.375 135.683594 369.945312 135.683594 353.375 C 135.683594 336.808594 149.113281 323.375 165.683594 323.375 C 182.253906 323.375 195.683594 336.808594 195.683594 353.375 "/>
<path style="fill-rule:nonzero;fill:rgb(35%,70%,90%);fill-opacity:1;stroke-width:1;stroke-linecap:butt;stroke-linejoin:miter;stroke:rgb(0%,0%,0%);stroke-opacity:1;stroke-miterlimit:10;" d="M 101.488281 400.925781 C 101.488281 417.496094 88.058594 430.925781 71.488281 430.925781 C 54.921875 430.925781 41.488281 417.496094 41.488281 400.925781 C 41.488281 384.355469 54.921875 370.925781 71.488281 370.925781 C 88.058594 370.925781 101.488281 384.355469 101.488281 400.925781 "/>
<path style="fill-rule:nonzero;fill:rgb(35%,70%,90%);fill-opacity:1;stroke-width:1;stroke-linecap:butt;stroke-linejoin:miter;stroke:rgb(0%,0%,0%);stroke-opacity:1;stroke-miterlimit:10;" d="M 92.671875 112.363281 C 92.671875 128.929688 79.238281 142.363281 62.671875 142.363281 C 46.101562 142.363281 32.671875 128.929688 32.671875 112.363281 C 32.671875 95.792969 46.101562 82.363281 62.671875 82.363281 C 79.238281 82.363281 92.671875 95.792969 92.671875 112.363281 "/>
<path style="fill-rule:nonzero;fill:rgb(35%,70%,90%);fill-opacity:1;stroke-width:1;stroke-linecap:butt;stroke-linejoin:miter;stroke:rgb(0%,0%,0%);stroke-opacity:1;stroke-miterlimit:10;" d="M 201.824219 115.300781 C 201.824219 131.867188 188.394531 145.300781 171.824219 145.300781 C 155.257812 145.300781 141.824219 131.867188 141.824219 115.300781 C 141.824219 98.730469 155.257812 85.300781 171.824219 85.300781 C 188.394531 85.300781 201.824219 98.730469 201.824219 115.300781 "/>
<path style="fill-rule:nonzero;fill:rgb(35%,70%,90%);fill-opacity:1;stroke-width:1;stroke-linecap:butt;stroke-linejoin:miter;stroke:rgb(0%,0%,0%);stroke-opacity:1;stroke-miterlimit:10;" d="M 79.71875 186.433594 C 79.71875 203.003906 66.285156 216.433594 49.71875 216.433594 C 33.148438 216.433594 19.71875 203.003906 19.71875 186.433594 C 19.71875 169.867188 33.148438 156.433594 49.71875 156.433594 C 66.285156 156.433594 79.71875 169.867188 79.71875 186.433594 "/>
<path style="fill-rule:nonzero;fill:rgb(35%,70%,90%);fill-opacity:1;stroke-width:1;stroke-linecap:butt;stroke-linejoin:miter;stroke:rgb(0%,0%,0%);stroke-opacity:1;stroke-miterlimit:10;" d="M 214.792969 219.875 C 214.792969 236.441406 201.359375 249.875 184.792969 249.875 C 168.222656 249.875 154.792969 236.441406 154.792969 219.875 C 154.792969 203.304688 168.222656 189.875 184.792969 189.875 C 201.359375 189.875 214.792969 203.304688 214.792969 219.875 "/>
<path style="fill-rule:nonzero;fill:rgb(35%,70%,90%);fill-opacity:1;stroke-width:1;stroke-linecap:butt;stroke-linejoin:miter;stroke:rgb(0%,0%,0%);stroke-opacity:1;stroke-miterlimit:10;" d="M 204.351562 35.074219 C 204.351562 51.640625 190.921875 65.074219 174.351562 65.074219 C 157.785156 65.074219 144.351562 51.640625 144.351562 35.074219 C 144.351562 18.503906 157.785156 5.074219 174.351562 5.074219 C 190.921875 5.074219 204.351562 18.503906 204.351562 35.074219 "/>
</g>
</svg>
