<?xml version="1.0" encoding="UTF-8"?>
<svg xmlns="http://www.w3.org/2000/svg" xmlns:xlink="http://www.w3.org/1999/xlink" width="517pt" height="517pt" viewBox="0 0 517 517" version="1.1">
<g id="surface6066">
<rect x="0" y="0" width="517" height="517" style="fill:rgb(90%,90%,90%);fill-opacity:1;stroke:none;"/>
<path style="fill-rule:nonzero;fill:rgb(0%,0%,0%);fill-opacity:1;stroke-width:1;stroke-linecap:butt;stroke-linejoin:miter;stroke:rgb(0%,0%,0%);stroke-opacity:1;stroke-miterlimit:10;" d="M 386.277344 210.753906 L 366.277344 210.753906 L 366.277344 220.753906 L 386.277344 220.753906 L 386.277344 240.753906 L 396.277344 240.753906 L 396.277344 220.753906 L 416.277344 220.753906 L 416.277344 210.753906 L 396.277344 210.753906 L 396.277344 190.753906 L 386.277344 190.753906 L 386.277344 210.753906 "/>
<path style="fill-rule:nonzero;fill:rgb(0%,0%,0%);fill-opacity:1;stroke-width:1;stroke-linecap:butt;stroke-linejoin:miter;stroke:rgb(0%,0%,0%);stroke-opacity:1;stroke-miterlimit:10;" d="M 410.046875 143.363281 L 390.046875 143.363281 L 390.046875 153.363281 L 410.046875 153.363281 L 410.046875 173.363281 L 420.046875 173.363281 L 420.046875 153.363281 L 440.046875 153.363281 L 440.046875 143.363281 L 420.046875 143.363281 L 420.046875 123.363281 L 410.046875 123.363281 L 410.046875 143.363281 "/>
<path style="fill-rule:nonzero;fill:rgb(35%,70%,90%);fill-opacity:1;stroke-width:1;stroke-linecap:butt;stroke-linejoin:miter;stroke:rgb(0%,0%,0%);stroke-opacity:1;stroke-miterlimit:10;" d="M 399.101562 451.707031 L 379.101562 451.707031 L 379.101562 461.707031 L 399.101562 461.707031 L 399.101562 481.707031 L 409.101562 481.707031 L 409.101562 461.707031 L 429.101562 461.707031 L 429.101562 451.707031 L 409.101562 451.707031 L 409.101562 431.707031 L 399.101562 431.707031 L 399.101562 451.707031 "/>
<path style="fill-rule:nonzero;fill:rgb(35%,70%,90%);fill-opacity:1;stroke-width:1;stroke-linecap:butt;stroke-linejoin:miter;stroke:rgb(0%,0%,0%);stroke-opacity:1;stroke-miterlimit:10;" d="M 405.171875 287.042969 L 385.171875 287.042969 L 385.171875 297.042969 L 405.171875 297.042969 L 405.171875 317.042969 L 415.171875 317.042969 L 415.171875 297.042969 L 435.171875 297.042969 L 435.171875 287.042969 L 415.171875 287.042969 L 415.171875 267.042969 L 405.171875 267.042969 L 405.171875 287.042969 "/>
<path style="fill-rule:nonzero;fill:rgb(35%,70%,90%);fill-opacity:1;stroke-width:1;stroke-linecap:butt;stroke-linejoin:miter;stroke:rgb(0%,0%,0%);stroke-opacity:1;stroke-miterlimit:10;" d="M 441.699219 363.816406 L 421.699219 363.816406 L 421.699219 373.816406 L 441.699219 373.816406 L 441.699219 393.816406 L 451.699219 393.816406 L 451.699219 373.816406 L 471.699219 373.816406 L 471.699219 363.816406 L 451.699219 363.816406 L 451.699219 343.816406 L 441.699219 343.816406 L 441.699219 363.816406 "/>
<path style="fill-rule:nonzero;fill:rgb(35%,70%,90%);fill-opacity:1;stroke-width:1;stroke-linecap:butt;stroke-linejoin:miter;stroke:rgb(0%,0%,0%);stroke-opacity:1;stroke-miterlimit:10;" d="M 97.792969 157.769531 L 77.792969 157.769531 L 77.792969 167.769531 L 97.792969 167.769531 L 97.792969 187.769531 L 107.792969 187.769531 L 107.792969 167.769531 L 127.792969 167.769531 L 127.792969 157.769531 L 107.792969 157.769531 L 107.792969 137.769531 L 97.792969 137.769531 L 97.792969 157.769531 "/>
<path style="fill-rule:nonzero;fill:rgb(35%,70%,90%);fill-opacity:1;stroke-width:1;stroke-linecap:butt;stroke-linejoin:miter;stroke:rgb(0%,0%,0%);stroke-opacity:1;stroke-miterlimit:10;" d="M 158.695312 85.441406 L 138.695312 85.441406 L 138.695312 95.441406 L 158.695312 95.441406 L 158.695312 115.441406 L 168.695312 115.441406 L 168.695312 95.441406 L 188.695312 95.441406 L 188.695312 85.441406 L 168.695312 85.441406 L 168.695312 65.441406 L 158.695312 65.441406 L 158.695312 85.441406 "/>
<path style="fill-rule:nonzero;fill:rgb(35%,70%,90%);fill-opacity:1;stroke-width:1;stroke-linecap:butt;stroke-linejoin:miter;stroke:rgb(0%,0%,0%);stroke-opacity:1;stroke-miterlimit:10;" d="M 158.5 146.894531 L 138.5 146.894531 L 138.5 156.894531 L 158.5 156.894531 L 158.5 176.894531 L 168.5 176.894531 L 168.5 156.894531 L 188.5 156.894531 L 188.5 146.894531 L 168.5 146.894531 L 168.5 126.894531 L 158.5 126.894531 L 158.5 146.894531 "/>
</g>
</svg>
