<?xml version="1.0" encoding="UTF-8"?>
<svg xmlns="http://www.w3.org/2000/svg" xmlns:xlink="http://www.w3.org/1999/xlink" width="517pt" height="517pt" viewBox="0 0 517 517" version="1.1">
<g id="surface1041">
<rect x="0" y="0" width="517" height="517" style="fill:rgb(90%,90%,90%);fill-opacity:1;stroke:none;"/>
<path style="fill:none;stroke-width:5;stroke-linecap:butt;stroke-linejoin:round;stroke:rgb(100%,0%,0%);stroke-opacity:1;stroke-miterlimit:10;" d="M 5 261 L 261 261 L 261 517 L 5 517 Z M 5 261 "/>
<path style="fill-rule:nonzero;fill:rgb(100%,0%,0%);fill-opacity:1;stroke-width:1;stroke-linecap:butt;stroke-linejoin:round;stroke:rgb(0%,0%,0%);stroke-opacity:1;stroke-miterlimit:10;" d="M 153.988281 325.800781 C 153.988281 311.398438 129.988281 311.398438 129.988281 325.800781 C 129.988281 340.199219 153.988281 342.597656 153.988281 354.597656 C 153.988281 342.597656 177.988281 340.199219 177.988281 325.800781 C 177.988281 311.398438 153.988281 311.398438 153.988281 325.800781 "/>
<path style="fill-rule:nonzero;fill:rgb(35%,70%,90%);fill-opacity:1;stroke-width:1;stroke-linecap:butt;stroke-linejoin:round;stroke:rgb(0%,0%,0%);stroke-opacity:1;stroke-miterlimit:10;" d="M 360.128906 316.140625 C 360.128906 301.742188 336.128906 301.742188 336.128906 316.140625 C 336.128906 330.542969 360.128906 332.941406 360.128906 344.941406 C 360.128906 332.941406 384.128906 330.542969 384.128906 316.140625 C 384.128906 301.742188 360.128906 301.742188 360.128906 316.140625 "/>
<path style="fill-rule:nonzero;fill:rgb(35%,70%,90%);fill-opacity:1;stroke-width:1;stroke-linecap:butt;stroke-linejoin:round;stroke:rgb(0%,0%,0%);stroke-opacity:1;stroke-miterlimit:10;" d="M 297.640625 339.304688 C 297.640625 324.90625 273.640625 324.90625 273.640625 339.304688 C 273.640625 353.707031 297.640625 356.105469 297.640625 368.105469 C 297.640625 356.105469 321.640625 353.707031 321.640625 339.304688 C 321.640625 324.90625 297.640625 324.90625 297.640625 339.304688 "/>
<path style="fill-rule:nonzero;fill:rgb(35%,70%,90%);fill-opacity:1;stroke-width:1;stroke-linecap:butt;stroke-linejoin:round;stroke:rgb(0%,0%,0%);stroke-opacity:1;stroke-miterlimit:10;" d="M 46.035156 204.453125 C 46.035156 190.054688 22.035156 190.054688 22.035156 204.453125 C 22.035156 218.855469 46.035156 221.253906 46.035156 233.253906 C 46.035156 221.253906 70.035156 218.855469 70.035156 204.453125 C 70.035156 190.054688 46.035156 190.054688 46.035156 204.453125 "/>
</g>
</svg>
