<?xml version="1.0" encoding="UTF-8"?>
<svg xmlns="http://www.w3.org/2000/svg" xmlns:xlink="http://www.w3.org/1999/xlink" width="517pt" height="517pt" viewBox="0 0 517 517" version="1.1">
<g id="surface6326">
<rect x="0" y="0" width="517" height="517" style="fill:rgb(90%,90%,90%);fill-opacity:1;stroke:none;"/>
<path style="fill-rule:nonzero;fill:rgb(0%,0%,0%);fill-opacity:1;stroke-width:1;stroke-linecap:butt;stroke-linejoin:miter;stroke:rgb(0%,0%,0%);stroke-opacity:1;stroke-miterlimit:10;" d="M 386.480469 350.316406 L 366.480469 350.316406 L 366.480469 360.316406 L 386.480469 360.316406 L 386.480469 380.316406 L 396.480469 380.316406 L 396.480469 360.316406 L 416.480469 360.316406 L 416.480469 350.316406 L 396.480469 350.316406 L 396.480469 330.316406 L 386.480469 330.316406 L 386.480469 350.316406 "/>
<path style="fill-rule:nonzero;fill:rgb(0%,0%,0%);fill-opacity:1;stroke-width:1;stroke-linecap:butt;stroke-linejoin:miter;stroke:rgb(0%,0%,0%);stroke-opacity:1;stroke-miterlimit:10;" d="M 471.542969 183.738281 L 451.542969 183.738281 L 451.542969 193.738281 L 471.542969 193.738281 L 471.542969 213.738281 L 481.542969 213.738281 L 481.542969 193.738281 L 501.542969 193.738281 L 501.542969 183.738281 L 481.542969 183.738281 L 481.542969 163.738281 L 471.542969 163.738281 L 471.542969 183.738281 "/>
<path style="fill-rule:nonzero;fill:rgb(0%,0%,0%);fill-opacity:1;stroke-width:1;stroke-linecap:butt;stroke-linejoin:miter;stroke:rgb(0%,0%,0%);stroke-opacity:1;stroke-miterlimit:10;" d="M 308.113281 38.90625 L 288.113281 38.90625 L 288.113281 48.90625 L 308.113281 48.90625 L 308.113281 68.90625 L 318.113281 68.90625 L 318.113281 48.90625 L 338.113281 48.90625 L 338.113281 38.90625 L 318.113281 38.90625 L 318.113281 18.90625 L 308.113281 18.90625 L 308.113281 38.90625 "/>
<path style="fill-rule:nonzero;fill:rgb(0%,0%,0%);fill-opacity:1;stroke-width:1;stroke-linecap:butt;stroke-linejoin:miter;stroke:rgb(0%,0%,0%);stroke-opacity:1;stroke-miterlimit:10;" d="M 463.347656 53.449219 L 443.347656 53.449219 L 443.347656 63.449219 L 463.347656 63.449219 L 463.347656 83.449219 L 473.347656 83.449219 L 473.347656 63.449219 L 493.347656 63.449219 L 493.347656 53.449219 L 473.347656 53.449219 L 473.347656 33.449219 L 463.347656 33.449219 L 463.347656 53.449219 "/>
<path style="fill-rule:nonzero;fill:rgb(0%,0%,0%);fill-opacity:1;stroke-width:1;stroke-linecap:butt;stroke-linejoin:miter;stroke:rgb(0%,0%,0%);stroke-opacity:1;stroke-miterlimit:10;" d="M 307.734375 186.019531 L 287.734375 186.019531 L 287.734375 196.019531 L 307.734375 196.019531 L 307.734375 216.019531 L 317.734375 216.019531 L 317.734375 196.019531 L 337.734375 196.019531 L 337.734375 186.019531 L 317.734375 186.019531 L 317.734375 166.019531 L 307.734375 166.019531 L 307.734375 186.019531 "/>
<path style="fill-rule:nonzero;fill:rgb(0%,0%,0%);fill-opacity:1;stroke-width:1;stroke-linecap:butt;stroke-linejoin:miter;stroke:rgb(0%,0%,0%);stroke-opacity:1;stroke-miterlimit:10;" d="M 40.800781 55.808594 L 20.800781 55.808594 L 20.800781 65.808594 L 40.800781 65.808594 L 40.800781 85.808594 L 50.800781 85.808594 L 50.800781 65.808594 L 70.800781 65.808594 L 70.800781 55.808594 L 50.800781 55.808594 L 50.800781 35.808594 L 40.800781 35.808594 L 40.800781 55.808594 "/>
<path style="fill-rule:nonzero;fill:rgb(0%,0%,0%);fill-opacity:1;stroke-width:1;stroke-linecap:butt;stroke-linejoin:miter;stroke:rgb(0%,0%,0%);stroke-opacity:1;stroke-miterlimit:10;" d="M 195.492188 146.816406 L 175.492188 146.816406 L 175.492188 156.816406 L 195.492188 156.816406 L 195.492188 176.816406 L 205.492188 176.816406 L 205.492188 156.816406 L 225.492188 156.816406 L 225.492188 146.816406 L 205.492188 146.816406 L 205.492188 126.816406 L 195.492188 126.816406 L 195.492188 146.816406 "/>
<path style="fill-rule:nonzero;fill:rgb(0%,0%,0%);fill-opacity:1;stroke-width:1;stroke-linecap:butt;stroke-linejoin:miter;stroke:rgb(0%,0%,0%);stroke-opacity:1;stroke-miterlimit:10;" d="M 91.339844 100.558594 L 71.339844 100.558594 L 71.339844 110.558594 L 91.339844 110.558594 L 91.339844 130.558594 L 101.339844 130.558594 L 101.339844 110.558594 L 121.339844 110.558594 L 121.339844 100.558594 L 101.339844 100.558594 L 101.339844 80.558594 L 91.339844 80.558594 L 91.339844 100.558594 "/>
</g>
</svg>
