<?xml version="1.0" encoding="UTF-8"?>
<svg xmlns="http://www.w3.org/2000/svg" xmlns:xlink="http://www.w3.org/1999/xlink" width="517pt" height="517pt" viewBox="0 0 517 517" version="1.1">
<g id="surface6216">
<rect x="0" y="0" width="517" height="517" style="fill:rgb(90%,90%,90%);fill-opacity:1;stroke:none;"/>
<path style="fill-rule:nonzero;fill:rgb(35%,70%,90%);fill-opacity:1;stroke-width:1;stroke-linecap:butt;stroke-linejoin:miter;stroke:rgb(0%,0%,0%);stroke-opacity:1;stroke-miterlimit:10;" d="M 462.582031 43.171875 L 442.582031 43.171875 L 442.582031 53.171875 L 462.582031 53.171875 L 462.582031 73.171875 L 472.582031 73.171875 L 472.582031 53.171875 L 492.582031 53.171875 L 492.582031 43.171875 L 472.582031 43.171875 L 472.582031 23.171875 L 462.582031 23.171875 L 462.582031 43.171875 "/>
<path style="fill-rule:nonzero;fill:rgb(100%,100%,0%);fill-opacity:1;stroke-width:1;stroke-linecap:butt;stroke-linejoin:miter;stroke:rgb(0%,0%,0%);stroke-opacity:1;stroke-miterlimit:10;" d="M 335.996094 170.136719 L 315.996094 170.136719 L 315.996094 180.136719 L 335.996094 180.136719 L 335.996094 200.136719 L 345.996094 200.136719 L 345.996094 180.136719 L 365.996094 180.136719 L 365.996094 170.136719 L 345.996094 170.136719 L 345.996094 150.136719 L 335.996094 150.136719 L 335.996094 170.136719 "/>
<path style="fill-rule:nonzero;fill:rgb(100%,100%,0%);fill-opacity:1;stroke-width:1;stroke-linecap:butt;stroke-linejoin:miter;stroke:rgb(0%,0%,0%);stroke-opacity:1;stroke-miterlimit:10;" d="M 74.046875 455.042969 L 54.046875 455.042969 L 54.046875 465.042969 L 74.046875 465.042969 L 74.046875 485.042969 L 84.046875 485.042969 L 84.046875 465.042969 L 104.046875 465.042969 L 104.046875 455.042969 L 84.046875 455.042969 L 84.046875 435.042969 L 74.046875 435.042969 L 74.046875 455.042969 "/>
<path style="fill-rule:nonzero;fill:rgb(100%,100%,0%);fill-opacity:1;stroke-width:1;stroke-linecap:butt;stroke-linejoin:miter;stroke:rgb(0%,0%,0%);stroke-opacity:1;stroke-miterlimit:10;" d="M 70.113281 389.566406 L 50.113281 389.566406 L 50.113281 399.566406 L 70.113281 399.566406 L 70.113281 419.566406 L 80.113281 419.566406 L 80.113281 399.566406 L 100.113281 399.566406 L 100.113281 389.566406 L 80.113281 389.566406 L 80.113281 369.566406 L 70.113281 369.566406 L 70.113281 389.566406 "/>
<path style="fill-rule:nonzero;fill:rgb(100%,100%,0%);fill-opacity:1;stroke-width:1;stroke-linecap:butt;stroke-linejoin:miter;stroke:rgb(0%,0%,0%);stroke-opacity:1;stroke-miterlimit:10;" d="M 176.179688 418.804688 L 156.179688 418.804688 L 156.179688 428.804688 L 176.179688 428.804688 L 176.179688 448.804688 L 186.179688 448.804688 L 186.179688 428.804688 L 206.179688 428.804688 L 206.179688 418.804688 L 186.179688 418.804688 L 186.179688 398.804688 L 176.179688 398.804688 L 176.179688 418.804688 "/>
<path style="fill-rule:nonzero;fill:rgb(100%,100%,0%);fill-opacity:1;stroke-width:1;stroke-linecap:butt;stroke-linejoin:miter;stroke:rgb(0%,0%,0%);stroke-opacity:1;stroke-miterlimit:10;" d="M 72.132812 312.285156 L 52.132812 312.285156 L 52.132812 322.285156 L 72.132812 322.285156 L 72.132812 342.285156 L 82.132812 342.285156 L 82.132812 322.285156 L 102.132812 322.285156 L 102.132812 312.285156 L 82.132812 312.285156 L 82.132812 292.285156 L 72.132812 292.285156 L 72.132812 312.285156 "/>
<path style="fill-rule:nonzero;fill:rgb(100%,100%,0%);fill-opacity:1;stroke-width:1;stroke-linecap:butt;stroke-linejoin:miter;stroke:rgb(0%,0%,0%);stroke-opacity:1;stroke-miterlimit:10;" d="M 163.78125 299.164062 L 143.78125 299.164062 L 143.78125 309.164062 L 163.78125 309.164062 L 163.78125 329.164062 L 173.78125 329.164062 L 173.78125 309.164062 L 193.78125 309.164062 L 193.78125 299.164062 L 173.78125 299.164062 L 173.78125 279.164062 L 163.78125 279.164062 L 163.78125 299.164062 "/>
<path style="fill-rule:nonzero;fill:rgb(100%,100%,0%);fill-opacity:1;stroke-width:1;stroke-linecap:butt;stroke-linejoin:miter;stroke:rgb(0%,0%,0%);stroke-opacity:1;stroke-miterlimit:10;" d="M 144.542969 357.578125 L 124.542969 357.578125 L 124.542969 367.578125 L 144.542969 367.578125 L 144.542969 387.578125 L 154.542969 387.578125 L 154.542969 367.578125 L 174.542969 367.578125 L 174.542969 357.578125 L 154.542969 357.578125 L 154.542969 337.578125 L 144.542969 337.578125 L 144.542969 357.578125 "/>
</g>
</svg>
