<?xml version="1.0" encoding="UTF-8"?>
<svg xmlns="http://www.w3.org/2000/svg" xmlns:xlink="http://www.w3.org/1999/xlink" width="517pt" height="517pt" viewBox="0 0 517 517" version="1.1">
<g id="surface1131">
<rect x="0" y="0" width="517" height="517" style="fill:rgb(90%,90%,90%);fill-opacity:1;stroke:none;"/>
<path style="fill:none;stroke-width:5;stroke-linecap:butt;stroke-linejoin:round;stroke:rgb(100%,0%,0%);stroke-opacity:1;stroke-miterlimit:10;" d="M 5 261 L 261 261 L 261 517 L 5 517 Z M 5 261 "/>
<path style="fill-rule:nonzero;fill:rgb(35%,70%,90%);fill-opacity:1;stroke-width:1;stroke-linecap:butt;stroke-linejoin:round;stroke:rgb(0%,0%,0%);stroke-opacity:1;stroke-miterlimit:10;" d="M 88.6875 432.378906 L 68.6875 432.378906 L 68.6875 442.378906 L 88.6875 442.378906 L 88.6875 462.378906 L 98.6875 462.378906 L 98.6875 442.378906 L 118.6875 442.378906 L 118.6875 432.378906 L 98.6875 432.378906 L 98.6875 412.378906 L 88.6875 412.378906 L 88.6875 432.378906 "/>
<path style="fill-rule:nonzero;fill:rgb(100%,0%,0%);fill-opacity:1;stroke-width:1;stroke-linecap:butt;stroke-linejoin:round;stroke:rgb(0%,0%,0%);stroke-opacity:1;stroke-miterlimit:10;" d="M 317.632812 360.441406 L 297.632812 360.441406 L 297.632812 370.441406 L 317.632812 370.441406 L 317.632812 390.441406 L 327.632812 390.441406 L 327.632812 370.441406 L 347.632812 370.441406 L 347.632812 360.441406 L 327.632812 360.441406 L 327.632812 340.441406 L 317.632812 340.441406 L 317.632812 360.441406 "/>
<path style="fill-rule:nonzero;fill:rgb(100%,0%,0%);fill-opacity:1;stroke-width:1;stroke-linecap:butt;stroke-linejoin:round;stroke:rgb(0%,0%,0%);stroke-opacity:1;stroke-miterlimit:10;" d="M 295.378906 288.417969 L 275.378906 288.417969 L 275.378906 298.417969 L 295.378906 298.417969 L 295.378906 318.417969 L 305.378906 318.417969 L 305.378906 298.417969 L 325.378906 298.417969 L 325.378906 288.417969 L 305.378906 288.417969 L 305.378906 268.417969 L 295.378906 268.417969 L 295.378906 288.417969 "/>
<path style="fill-rule:nonzero;fill:rgb(100%,0%,0%);fill-opacity:1;stroke-width:1;stroke-linecap:butt;stroke-linejoin:round;stroke:rgb(0%,0%,0%);stroke-opacity:1;stroke-miterlimit:10;" d="M 157.757812 167.289062 L 137.757812 167.289062 L 137.757812 177.289062 L 157.757812 177.289062 L 157.757812 197.289062 L 167.757812 197.289062 L 167.757812 177.289062 L 187.757812 177.289062 L 187.757812 167.289062 L 167.757812 167.289062 L 167.757812 147.289062 L 157.757812 147.289062 L 157.757812 167.289062 "/>
</g>
</svg>
