<?xml version="1.0" encoding="UTF-8"?>
<svg xmlns="http://www.w3.org/2000/svg" xmlns:xlink="http://www.w3.org/1999/xlink" width="517pt" height="517pt" viewBox="0 0 517 517" version="1.1">
<g id="surface1421">
<rect x="0" y="0" width="517" height="517" style="fill:rgb(90%,90%,90%);fill-opacity:1;stroke:none;"/>
<path style="fill:none;stroke-width:5;stroke-linecap:butt;stroke-linejoin:round;stroke:rgb(100%,0%,0%);stroke-opacity:1;stroke-miterlimit:10;" d="M 261 261 L 517 261 L 517 517 L 261 517 Z M 261 261 "/>
<path style="fill-rule:nonzero;fill:rgb(35%,70%,90%);fill-opacity:1;stroke-width:1;stroke-linecap:butt;stroke-linejoin:round;stroke:rgb(0%,0%,0%);stroke-opacity:1;stroke-miterlimit:10;" d="M 395.769531 402.957031 C 395.769531 419.523438 382.339844 432.957031 365.769531 432.957031 C 349.199219 432.957031 335.769531 419.523438 335.769531 402.957031 C 335.769531 386.386719 349.199219 372.957031 365.769531 372.957031 C 382.339844 372.957031 395.769531 386.386719 395.769531 402.957031 "/>
<path style="fill-rule:nonzero;fill:rgb(100%,0%,0%);fill-opacity:1;stroke-width:1;stroke-linecap:butt;stroke-linejoin:round;stroke:rgb(0%,0%,0%);stroke-opacity:1;stroke-miterlimit:10;" d="M 200.546875 131.421875 C 200.546875 147.992188 187.113281 161.421875 170.546875 161.421875 C 153.976562 161.421875 140.546875 147.992188 140.546875 131.421875 C 140.546875 114.855469 153.976562 101.421875 170.546875 101.421875 C 187.113281 101.421875 200.546875 114.855469 200.546875 131.421875 "/>
<path style="fill-rule:nonzero;fill:rgb(100%,0%,0%);fill-opacity:1;stroke-width:1;stroke-linecap:butt;stroke-linejoin:round;stroke:rgb(0%,0%,0%);stroke-opacity:1;stroke-miterlimit:10;" d="M 81.789062 141.125 C 81.789062 157.691406 68.355469 171.125 51.789062 171.125 C 35.21875 171.125 21.789062 157.691406 21.789062 141.125 C 21.789062 124.554688 35.21875 111.125 51.789062 111.125 C 68.355469 111.125 81.789062 124.554688 81.789062 141.125 "/>
<path style="fill-rule:nonzero;fill:rgb(0%,0%,0%);fill-opacity:1;stroke-width:1;stroke-linecap:butt;stroke-linejoin:round;stroke:rgb(0%,0%,0%);stroke-opacity:1;stroke-miterlimit:10;" d="M 429.628906 151.109375 C 429.628906 167.679688 416.199219 181.109375 399.628906 181.109375 C 383.058594 181.109375 369.628906 167.679688 369.628906 151.109375 C 369.628906 134.542969 383.058594 121.109375 399.628906 121.109375 C 416.199219 121.109375 429.628906 134.542969 429.628906 151.109375 "/>
</g>
</svg>
