<?xml version="1.0" encoding="UTF-8"?>
<svg xmlns="http://www.w3.org/2000/svg" xmlns:xlink="http://www.w3.org/1999/xlink" width="517pt" height="517pt" viewBox="0 0 517 517" version="1.1">
<g id="surface5946">
<rect x="0" y="0" width="517" height="517" style="fill:rgb(90%,90%,90%);fill-opacity:1;stroke:none;"/>
<path style="fill-rule:nonzero;fill:rgb(100%,0%,0%);fill-opacity:1;stroke-width:1;stroke-linecap:butt;stroke-linejoin:miter;stroke:rgb(0%,0%,0%);stroke-opacity:1;stroke-miterlimit:10;" d="M 345.429688 454.128906 L 325.429688 454.128906 L 325.429688 464.128906 L 345.429688 464.128906 L 345.429688 484.128906 L 355.429688 484.128906 L 355.429688 464.128906 L 375.429688 464.128906 L 375.429688 454.128906 L 355.429688 454.128906 L 355.429688 434.128906 L 345.429688 434.128906 L 345.429688 454.128906 "/>
<path style="fill-rule:nonzero;fill:rgb(100%,0%,0%);fill-opacity:1;stroke-width:1;stroke-linecap:butt;stroke-linejoin:miter;stroke:rgb(0%,0%,0%);stroke-opacity:1;stroke-miterlimit:10;" d="M 183.394531 460.890625 L 163.394531 460.890625 L 163.394531 470.890625 L 183.394531 470.890625 L 183.394531 490.890625 L 193.394531 490.890625 L 193.394531 470.890625 L 213.394531 470.890625 L 213.394531 460.890625 L 193.394531 460.890625 L 193.394531 440.890625 L 183.394531 440.890625 L 183.394531 460.890625 "/>
<path style="fill-rule:nonzero;fill:rgb(100%,100%,0%);fill-opacity:1;stroke-width:1;stroke-linecap:butt;stroke-linejoin:miter;stroke:rgb(0%,0%,0%);stroke-opacity:1;stroke-miterlimit:10;" d="M 59.375 382.839844 L 39.375 382.839844 L 39.375 392.839844 L 59.375 392.839844 L 59.375 412.839844 L 69.375 412.839844 L 69.375 392.839844 L 89.375 392.839844 L 89.375 382.839844 L 69.375 382.839844 L 69.375 362.839844 L 59.375 362.839844 L 59.375 382.839844 "/>
<path style="fill-rule:nonzero;fill:rgb(100%,100%,0%);fill-opacity:1;stroke-width:1;stroke-linecap:butt;stroke-linejoin:miter;stroke:rgb(0%,0%,0%);stroke-opacity:1;stroke-miterlimit:10;" d="M 140.738281 406.550781 L 120.738281 406.550781 L 120.738281 416.550781 L 140.738281 416.550781 L 140.738281 436.550781 L 150.738281 436.550781 L 150.738281 416.550781 L 170.738281 416.550781 L 170.738281 406.550781 L 150.738281 406.550781 L 150.738281 386.550781 L 140.738281 386.550781 L 140.738281 406.550781 "/>
<path style="fill-rule:nonzero;fill:rgb(100%,100%,0%);fill-opacity:1;stroke-width:1;stroke-linecap:butt;stroke-linejoin:miter;stroke:rgb(0%,0%,0%);stroke-opacity:1;stroke-miterlimit:10;" d="M 51.890625 451.992188 L 31.890625 451.992188 L 31.890625 461.992188 L 51.890625 461.992188 L 51.890625 481.992188 L 61.890625 481.992188 L 61.890625 461.992188 L 81.890625 461.992188 L 81.890625 451.992188 L 61.890625 451.992188 L 61.890625 431.992188 L 51.890625 431.992188 L 51.890625 451.992188 "/>
<path style="fill-rule:nonzero;fill:rgb(100%,100%,0%);fill-opacity:1;stroke-width:1;stroke-linecap:butt;stroke-linejoin:miter;stroke:rgb(0%,0%,0%);stroke-opacity:1;stroke-miterlimit:10;" d="M 84.59375 119.464844 L 64.59375 119.464844 L 64.59375 129.464844 L 84.59375 129.464844 L 84.59375 149.464844 L 94.59375 149.464844 L 94.59375 129.464844 L 114.59375 129.464844 L 114.59375 119.464844 L 94.59375 119.464844 L 94.59375 99.464844 L 84.59375 99.464844 L 84.59375 119.464844 "/>
<path style="fill-rule:nonzero;fill:rgb(100%,100%,0%);fill-opacity:1;stroke-width:1;stroke-linecap:butt;stroke-linejoin:miter;stroke:rgb(0%,0%,0%);stroke-opacity:1;stroke-miterlimit:10;" d="M 168.507812 165.175781 L 148.507812 165.175781 L 148.507812 175.175781 L 168.507812 175.175781 L 168.507812 195.175781 L 178.507812 195.175781 L 178.507812 175.175781 L 198.507812 175.175781 L 198.507812 165.175781 L 178.507812 165.175781 L 178.507812 145.175781 L 168.507812 145.175781 L 168.507812 165.175781 "/>
<path style="fill-rule:nonzero;fill:rgb(100%,100%,0%);fill-opacity:1;stroke-width:1;stroke-linecap:butt;stroke-linejoin:miter;stroke:rgb(0%,0%,0%);stroke-opacity:1;stroke-miterlimit:10;" d="M 175.542969 69.527344 L 155.542969 69.527344 L 155.542969 79.527344 L 175.542969 79.527344 L 175.542969 99.527344 L 185.542969 99.527344 L 185.542969 79.527344 L 205.542969 79.527344 L 205.542969 69.527344 L 185.542969 69.527344 L 185.542969 49.527344 L 175.542969 49.527344 L 175.542969 69.527344 "/>
</g>
</svg>
