<?xml version="1.0" encoding="UTF-8"?>
<svg xmlns="http://www.w3.org/2000/svg" xmlns:xlink="http://www.w3.org/1999/xlink" width="517pt" height="517pt" viewBox="0 0 517 517" version="1.1">
<g id="surface1436">
<rect x="0" y="0" width="517" height="517" style="fill:rgb(90%,90%,90%);fill-opacity:1;stroke:none;"/>
<path style="fill:none;stroke-width:5;stroke-linecap:butt;stroke-linejoin:round;stroke:rgb(100%,0%,0%);stroke-opacity:1;stroke-miterlimit:10;" d="M 261 261 L 517 261 L 517 517 L 261 517 Z M 261 261 "/>
<path style="fill-rule:nonzero;fill:rgb(35%,70%,90%);fill-opacity:1;stroke-width:1;stroke-linecap:butt;stroke-linejoin:round;stroke:rgb(0%,0%,0%);stroke-opacity:1;stroke-miterlimit:10;" d="M 446.585938 303.851562 C 446.585938 320.417969 433.15625 333.851562 416.585938 333.851562 C 400.019531 333.851562 386.585938 320.417969 386.585938 303.851562 C 386.585938 287.28125 400.019531 273.851562 416.585938 273.851562 C 433.15625 273.851562 446.585938 287.28125 446.585938 303.851562 "/>
<path style="fill-rule:nonzero;fill:rgb(100%,0%,0%);fill-opacity:1;stroke-width:1;stroke-linecap:butt;stroke-linejoin:round;stroke:rgb(0%,0%,0%);stroke-opacity:1;stroke-miterlimit:10;" d="M 343.460938 47.976562 C 343.460938 64.542969 330.027344 77.976562 313.460938 77.976562 C 296.890625 77.976562 283.460938 64.542969 283.460938 47.976562 C 283.460938 31.40625 296.890625 17.976562 313.460938 17.976562 C 330.027344 17.976562 343.460938 31.40625 343.460938 47.976562 "/>
<path style="fill-rule:nonzero;fill:rgb(100%,0%,0%);fill-opacity:1;stroke-width:1;stroke-linecap:butt;stroke-linejoin:round;stroke:rgb(0%,0%,0%);stroke-opacity:1;stroke-miterlimit:10;" d="M 183.167969 450.355469 C 183.167969 466.925781 169.738281 480.355469 153.167969 480.355469 C 136.601562 480.355469 123.167969 466.925781 123.167969 450.355469 C 123.167969 433.789062 136.601562 420.355469 153.167969 420.355469 C 169.738281 420.355469 183.167969 433.789062 183.167969 450.355469 "/>
<path style="fill-rule:nonzero;fill:rgb(0%,0%,0%);fill-opacity:1;stroke-width:1;stroke-linecap:butt;stroke-linejoin:round;stroke:rgb(0%,0%,0%);stroke-opacity:1;stroke-miterlimit:10;" d="M 232.574219 299.199219 C 232.574219 315.769531 219.140625 329.199219 202.574219 329.199219 C 186.003906 329.199219 172.574219 315.769531 172.574219 299.199219 C 172.574219 282.632812 186.003906 269.199219 202.574219 269.199219 C 219.140625 269.199219 232.574219 282.632812 232.574219 299.199219 "/>
</g>
</svg>
