<?xml version="1.0" encoding="UTF-8"?>
<svg xmlns="http://www.w3.org/2000/svg" xmlns:xlink="http://www.w3.org/1999/xlink" width="517pt" height="517pt" viewBox="0 0 517 517" version="1.1">
<g id="surface6236">
<rect x="0" y="0" width="517" height="517" style="fill:rgb(90%,90%,90%);fill-opacity:1;stroke:none;"/>
<path style="fill-rule:nonzero;fill:rgb(35%,70%,90%);fill-opacity:1;stroke-width:1;stroke-linecap:butt;stroke-linejoin:miter;stroke:rgb(0%,0%,0%);stroke-opacity:1;stroke-miterlimit:10;" d="M 157.785156 425.570312 L 137.785156 425.570312 L 137.785156 435.570312 L 157.785156 435.570312 L 157.785156 455.570312 L 167.785156 455.570312 L 167.785156 435.570312 L 187.785156 435.570312 L 187.785156 425.570312 L 167.785156 425.570312 L 167.785156 405.570312 L 157.785156 405.570312 L 157.785156 425.570312 "/>
<path style="fill-rule:nonzero;fill:rgb(35%,70%,90%);fill-opacity:1;stroke-width:1;stroke-linecap:butt;stroke-linejoin:miter;stroke:rgb(0%,0%,0%);stroke-opacity:1;stroke-miterlimit:10;" d="M 146.0625 364.195312 L 126.0625 364.195312 L 126.0625 374.195312 L 146.0625 374.195312 L 146.0625 394.195312 L 156.0625 394.195312 L 156.0625 374.195312 L 176.0625 374.195312 L 176.0625 364.195312 L 156.0625 364.195312 L 156.0625 344.195312 L 146.0625 344.195312 L 146.0625 364.195312 "/>
<path style="fill-rule:nonzero;fill:rgb(35%,70%,90%);fill-opacity:1;stroke-width:1;stroke-linecap:butt;stroke-linejoin:miter;stroke:rgb(0%,0%,0%);stroke-opacity:1;stroke-miterlimit:10;" d="M 419.382812 325.929688 L 399.382812 325.929688 L 399.382812 335.929688 L 419.382812 335.929688 L 419.382812 355.929688 L 429.382812 355.929688 L 429.382812 335.929688 L 449.382812 335.929688 L 449.382812 325.929688 L 429.382812 325.929688 L 429.382812 305.929688 L 419.382812 305.929688 L 419.382812 325.929688 "/>
<path style="fill-rule:nonzero;fill:rgb(100%,100%,0%);fill-opacity:1;stroke-width:1;stroke-linecap:butt;stroke-linejoin:miter;stroke:rgb(0%,0%,0%);stroke-opacity:1;stroke-miterlimit:10;" d="M 120.855469 125.988281 L 100.855469 125.988281 L 100.855469 135.988281 L 120.855469 135.988281 L 120.855469 155.988281 L 130.855469 155.988281 L 130.855469 135.988281 L 150.855469 135.988281 L 150.855469 125.988281 L 130.855469 125.988281 L 130.855469 105.988281 L 120.855469 105.988281 L 120.855469 125.988281 "/>
<path style="fill-rule:nonzero;fill:rgb(100%,100%,0%);fill-opacity:1;stroke-width:1;stroke-linecap:butt;stroke-linejoin:miter;stroke:rgb(0%,0%,0%);stroke-opacity:1;stroke-miterlimit:10;" d="M 198.628906 69.828125 L 178.628906 69.828125 L 178.628906 79.828125 L 198.628906 79.828125 L 198.628906 99.828125 L 208.628906 99.828125 L 208.628906 79.828125 L 228.628906 79.828125 L 228.628906 69.828125 L 208.628906 69.828125 L 208.628906 49.828125 L 198.628906 49.828125 L 198.628906 69.828125 "/>
<path style="fill-rule:nonzero;fill:rgb(100%,100%,0%);fill-opacity:1;stroke-width:1;stroke-linecap:butt;stroke-linejoin:miter;stroke:rgb(0%,0%,0%);stroke-opacity:1;stroke-miterlimit:10;" d="M 197.203125 153.769531 L 177.203125 153.769531 L 177.203125 163.769531 L 197.203125 163.769531 L 197.203125 183.769531 L 207.203125 183.769531 L 207.203125 163.769531 L 227.203125 163.769531 L 227.203125 153.769531 L 207.203125 153.769531 L 207.203125 133.769531 L 197.203125 133.769531 L 197.203125 153.769531 "/>
<path style="fill-rule:nonzero;fill:rgb(100%,100%,0%);fill-opacity:1;stroke-width:1;stroke-linecap:butt;stroke-linejoin:miter;stroke:rgb(0%,0%,0%);stroke-opacity:1;stroke-miterlimit:10;" d="M 35.269531 39.355469 L 15.269531 39.355469 L 15.269531 49.355469 L 35.269531 49.355469 L 35.269531 69.355469 L 45.269531 69.355469 L 45.269531 49.355469 L 65.269531 49.355469 L 65.269531 39.355469 L 45.269531 39.355469 L 45.269531 19.355469 L 35.269531 19.355469 L 35.269531 39.355469 "/>
<path style="fill-rule:nonzero;fill:rgb(100%,100%,0%);fill-opacity:1;stroke-width:1;stroke-linecap:butt;stroke-linejoin:miter;stroke:rgb(0%,0%,0%);stroke-opacity:1;stroke-miterlimit:10;" d="M 165.191406 208.796875 L 145.191406 208.796875 L 145.191406 218.796875 L 165.191406 218.796875 L 165.191406 238.796875 L 175.191406 238.796875 L 175.191406 218.796875 L 195.191406 218.796875 L 195.191406 208.796875 L 175.191406 208.796875 L 175.191406 188.796875 L 165.191406 188.796875 L 165.191406 208.796875 "/>
</g>
</svg>
