<?xml version="1.0" encoding="UTF-8"?>
<svg xmlns="http://www.w3.org/2000/svg" xmlns:xlink="http://www.w3.org/1999/xlink" width="517pt" height="517pt" viewBox="0 0 517 517" version="1.1">
<g id="surface6046">
<rect x="0" y="0" width="517" height="517" style="fill:rgb(90%,90%,90%);fill-opacity:1;stroke:none;"/>
<path style="fill-rule:nonzero;fill:rgb(35%,70%,90%);fill-opacity:1;stroke-width:1;stroke-linecap:butt;stroke-linejoin:miter;stroke:rgb(0%,0%,0%);stroke-opacity:1;stroke-miterlimit:10;" d="M 387.835938 388.324219 L 367.835938 388.324219 L 367.835938 398.324219 L 387.835938 398.324219 L 387.835938 418.324219 L 397.835938 418.324219 L 397.835938 398.324219 L 417.835938 398.324219 L 417.835938 388.324219 L 397.835938 388.324219 L 397.835938 368.324219 L 387.835938 368.324219 L 387.835938 388.324219 "/>
<path style="fill-rule:nonzero;fill:rgb(35%,70%,90%);fill-opacity:1;stroke-width:1;stroke-linecap:butt;stroke-linejoin:miter;stroke:rgb(0%,0%,0%);stroke-opacity:1;stroke-miterlimit:10;" d="M 456.289062 470.136719 L 436.289062 470.136719 L 436.289062 480.136719 L 456.289062 480.136719 L 456.289062 500.136719 L 466.289062 500.136719 L 466.289062 480.136719 L 486.289062 480.136719 L 486.289062 470.136719 L 466.289062 470.136719 L 466.289062 450.136719 L 456.289062 450.136719 L 456.289062 470.136719 "/>
<path style="fill-rule:nonzero;fill:rgb(35%,70%,90%);fill-opacity:1;stroke-width:1;stroke-linecap:butt;stroke-linejoin:miter;stroke:rgb(0%,0%,0%);stroke-opacity:1;stroke-miterlimit:10;" d="M 303.273438 189.375 L 283.273438 189.375 L 283.273438 199.375 L 303.273438 199.375 L 303.273438 219.375 L 313.273438 219.375 L 313.273438 199.375 L 333.273438 199.375 L 333.273438 189.375 L 313.273438 189.375 L 313.273438 169.375 L 303.273438 169.375 L 303.273438 189.375 "/>
<path style="fill-rule:nonzero;fill:rgb(35%,70%,90%);fill-opacity:1;stroke-width:1;stroke-linecap:butt;stroke-linejoin:miter;stroke:rgb(0%,0%,0%);stroke-opacity:1;stroke-miterlimit:10;" d="M 416.691406 45.96875 L 396.691406 45.96875 L 396.691406 55.96875 L 416.691406 55.96875 L 416.691406 75.96875 L 426.691406 75.96875 L 426.691406 55.96875 L 446.691406 55.96875 L 446.691406 45.96875 L 426.691406 45.96875 L 426.691406 25.96875 L 416.691406 25.96875 L 416.691406 45.96875 "/>
<path style="fill-rule:nonzero;fill:rgb(35%,70%,90%);fill-opacity:1;stroke-width:1;stroke-linecap:butt;stroke-linejoin:miter;stroke:rgb(0%,0%,0%);stroke-opacity:1;stroke-miterlimit:10;" d="M 119.617188 123.320312 L 99.617188 123.320312 L 99.617188 133.320312 L 119.617188 133.320312 L 119.617188 153.320312 L 129.617188 153.320312 L 129.617188 133.320312 L 149.617188 133.320312 L 149.617188 123.320312 L 129.617188 123.320312 L 129.617188 103.320312 L 119.617188 103.320312 L 119.617188 123.320312 "/>
<path style="fill-rule:nonzero;fill:rgb(35%,70%,90%);fill-opacity:1;stroke-width:1;stroke-linecap:butt;stroke-linejoin:miter;stroke:rgb(0%,0%,0%);stroke-opacity:1;stroke-miterlimit:10;" d="M 31.457031 68.085938 L 11.457031 68.085938 L 11.457031 78.085938 L 31.457031 78.085938 L 31.457031 98.085938 L 41.457031 98.085938 L 41.457031 78.085938 L 61.457031 78.085938 L 61.457031 68.085938 L 41.457031 68.085938 L 41.457031 48.085938 L 31.457031 48.085938 L 31.457031 68.085938 "/>
<path style="fill-rule:nonzero;fill:rgb(35%,70%,90%);fill-opacity:1;stroke-width:1;stroke-linecap:butt;stroke-linejoin:miter;stroke:rgb(0%,0%,0%);stroke-opacity:1;stroke-miterlimit:10;" d="M 203.90625 194.816406 L 183.90625 194.816406 L 183.90625 204.816406 L 203.90625 204.816406 L 203.90625 224.816406 L 213.90625 224.816406 L 213.90625 204.816406 L 233.90625 204.816406 L 233.90625 194.816406 L 213.90625 194.816406 L 213.90625 174.816406 L 203.90625 174.816406 L 203.90625 194.816406 "/>
<path style="fill-rule:nonzero;fill:rgb(35%,70%,90%);fill-opacity:1;stroke-width:1;stroke-linecap:butt;stroke-linejoin:miter;stroke:rgb(0%,0%,0%);stroke-opacity:1;stroke-miterlimit:10;" d="M 193.542969 118.09375 L 173.542969 118.09375 L 173.542969 128.09375 L 193.542969 128.09375 L 193.542969 148.09375 L 203.542969 148.09375 L 203.542969 128.09375 L 223.542969 128.09375 L 223.542969 118.09375 L 203.542969 118.09375 L 203.542969 98.09375 L 193.542969 98.09375 L 193.542969 118.09375 "/>
</g>
</svg>
