<?xml version="1.0" encoding="UTF-8"?>
<svg xmlns="http://www.w3.org/2000/svg" xmlns:xlink="http://www.w3.org/1999/xlink" width="517pt" height="517pt" viewBox="0 0 517 517" version="1.1">
<g id="surface6226">
<rect x="0" y="0" width="517" height="517" style="fill:rgb(90%,90%,90%);fill-opacity:1;stroke:none;"/>
<path style="fill-rule:nonzero;fill:rgb(35%,70%,90%);fill-opacity:1;stroke-width:1;stroke-linecap:butt;stroke-linejoin:miter;stroke:rgb(0%,0%,0%);stroke-opacity:1;stroke-miterlimit:10;" d="M 155.066406 345.890625 L 135.066406 345.890625 L 135.066406 355.890625 L 155.066406 355.890625 L 155.066406 375.890625 L 165.066406 375.890625 L 165.066406 355.890625 L 185.066406 355.890625 L 185.066406 345.890625 L 165.066406 345.890625 L 165.066406 325.890625 L 155.066406 325.890625 L 155.066406 345.890625 "/>
<path style="fill-rule:nonzero;fill:rgb(35%,70%,90%);fill-opacity:1;stroke-width:1;stroke-linecap:butt;stroke-linejoin:miter;stroke:rgb(0%,0%,0%);stroke-opacity:1;stroke-miterlimit:10;" d="M 210.046875 318.09375 L 190.046875 318.09375 L 190.046875 328.09375 L 210.046875 328.09375 L 210.046875 348.09375 L 220.046875 348.09375 L 220.046875 328.09375 L 240.046875 328.09375 L 240.046875 318.09375 L 220.046875 318.09375 L 220.046875 298.09375 L 210.046875 298.09375 L 210.046875 318.09375 "/>
<path style="fill-rule:nonzero;fill:rgb(100%,100%,0%);fill-opacity:1;stroke-width:1;stroke-linecap:butt;stroke-linejoin:miter;stroke:rgb(0%,0%,0%);stroke-opacity:1;stroke-miterlimit:10;" d="M 152.410156 67.90625 L 132.410156 67.90625 L 132.410156 77.90625 L 152.410156 77.90625 L 152.410156 97.90625 L 162.410156 97.90625 L 162.410156 77.90625 L 182.410156 77.90625 L 182.410156 67.90625 L 162.410156 67.90625 L 162.410156 47.90625 L 152.410156 47.90625 L 152.410156 67.90625 "/>
<path style="fill-rule:nonzero;fill:rgb(100%,100%,0%);fill-opacity:1;stroke-width:1;stroke-linecap:butt;stroke-linejoin:miter;stroke:rgb(0%,0%,0%);stroke-opacity:1;stroke-miterlimit:10;" d="M 80.773438 121.84375 L 60.773438 121.84375 L 60.773438 131.84375 L 80.773438 131.84375 L 80.773438 151.84375 L 90.773438 151.84375 L 90.773438 131.84375 L 110.773438 131.84375 L 110.773438 121.84375 L 90.773438 121.84375 L 90.773438 101.84375 L 80.773438 101.84375 L 80.773438 121.84375 "/>
<path style="fill-rule:nonzero;fill:rgb(100%,100%,0%);fill-opacity:1;stroke-width:1;stroke-linecap:butt;stroke-linejoin:miter;stroke:rgb(0%,0%,0%);stroke-opacity:1;stroke-miterlimit:10;" d="M 194.601562 207.207031 L 174.601562 207.207031 L 174.601562 217.207031 L 194.601562 217.207031 L 194.601562 237.207031 L 204.601562 237.207031 L 204.601562 217.207031 L 224.601562 217.207031 L 224.601562 207.207031 L 204.601562 207.207031 L 204.601562 187.207031 L 194.601562 187.207031 L 194.601562 207.207031 "/>
<path style="fill-rule:nonzero;fill:rgb(100%,100%,0%);fill-opacity:1;stroke-width:1;stroke-linecap:butt;stroke-linejoin:miter;stroke:rgb(0%,0%,0%);stroke-opacity:1;stroke-miterlimit:10;" d="M 47.519531 187.671875 L 27.519531 187.671875 L 27.519531 197.671875 L 47.519531 197.671875 L 47.519531 217.671875 L 57.519531 217.671875 L 57.519531 197.671875 L 77.519531 197.671875 L 77.519531 187.671875 L 57.519531 187.671875 L 57.519531 167.671875 L 47.519531 167.671875 L 47.519531 187.671875 "/>
<path style="fill-rule:nonzero;fill:rgb(100%,100%,0%);fill-opacity:1;stroke-width:1;stroke-linecap:butt;stroke-linejoin:miter;stroke:rgb(0%,0%,0%);stroke-opacity:1;stroke-miterlimit:10;" d="M 372.0625 46.09375 L 352.0625 46.09375 L 352.0625 56.09375 L 372.0625 56.09375 L 372.0625 76.09375 L 382.0625 76.09375 L 382.0625 56.09375 L 402.0625 56.09375 L 402.0625 46.09375 L 382.0625 46.09375 L 382.0625 26.09375 L 372.0625 26.09375 L 372.0625 46.09375 "/>
<path style="fill-rule:nonzero;fill:rgb(100%,100%,0%);fill-opacity:1;stroke-width:1;stroke-linecap:butt;stroke-linejoin:miter;stroke:rgb(0%,0%,0%);stroke-opacity:1;stroke-miterlimit:10;" d="M 325.351562 90.636719 L 305.351562 90.636719 L 305.351562 100.636719 L 325.351562 100.636719 L 325.351562 120.636719 L 335.351562 120.636719 L 335.351562 100.636719 L 355.351562 100.636719 L 355.351562 90.636719 L 335.351562 90.636719 L 335.351562 70.636719 L 325.351562 70.636719 L 325.351562 90.636719 "/>
</g>
</svg>
