<?xml version="1.0" encoding="UTF-8"?>
<svg xmlns="http://www.w3.org/2000/svg" xmlns:xlink="http://www.w3.org/1999/xlink" width="517pt" height="517pt" viewBox="0 0 517 517" version="1.1">
<g id="surface1386">
<rect x="0" y="0" width="517" height="517" style="fill:rgb(90%,90%,90%);fill-opacity:1;stroke:none;"/>
<path style="fill:none;stroke-width:5;stroke-linecap:butt;stroke-linejoin:round;stroke:rgb(100%,0%,0%);stroke-opacity:1;stroke-miterlimit:10;" d="M 261 261 L 517 261 L 517 517 L 261 517 Z M 261 261 "/>
<path style="fill-rule:nonzero;fill:rgb(0%,0%,0%);fill-opacity:1;stroke-width:1;stroke-linecap:butt;stroke-linejoin:round;stroke:rgb(0%,0%,0%);stroke-opacity:1;stroke-miterlimit:10;" d="M 429.410156 292.4375 C 429.410156 309.003906 415.980469 322.4375 399.410156 322.4375 C 382.839844 322.4375 369.410156 309.003906 369.410156 292.4375 C 369.410156 275.867188 382.839844 262.4375 399.410156 262.4375 C 415.980469 262.4375 429.410156 275.867188 429.410156 292.4375 "/>
<path style="fill-rule:nonzero;fill:rgb(100%,0%,0%);fill-opacity:1;stroke-width:1;stroke-linecap:butt;stroke-linejoin:round;stroke:rgb(0%,0%,0%);stroke-opacity:1;stroke-miterlimit:10;" d="M 398.945312 218.300781 C 398.945312 234.871094 385.511719 248.300781 368.945312 248.300781 C 352.375 248.300781 338.945312 234.871094 338.945312 218.300781 C 338.945312 201.730469 352.375 188.300781 368.945312 188.300781 C 385.511719 188.300781 398.945312 201.730469 398.945312 218.300781 "/>
<path style="fill-rule:nonzero;fill:rgb(100%,0%,0%);fill-opacity:1;stroke-width:1;stroke-linecap:butt;stroke-linejoin:round;stroke:rgb(0%,0%,0%);stroke-opacity:1;stroke-miterlimit:10;" d="M 107.480469 387.542969 C 107.480469 404.113281 94.046875 417.542969 77.480469 417.542969 C 60.910156 417.542969 47.480469 404.113281 47.480469 387.542969 C 47.480469 370.976562 60.910156 357.542969 77.480469 357.542969 C 94.046875 357.542969 107.480469 370.976562 107.480469 387.542969 "/>
<path style="fill-rule:nonzero;fill:rgb(0%,0%,0%);fill-opacity:1;stroke-width:1;stroke-linecap:butt;stroke-linejoin:round;stroke:rgb(0%,0%,0%);stroke-opacity:1;stroke-miterlimit:10;" d="M 167.238281 321.40625 C 167.238281 337.972656 153.804688 351.40625 137.238281 351.40625 C 120.667969 351.40625 107.238281 337.972656 107.238281 321.40625 C 107.238281 304.835938 120.667969 291.40625 137.238281 291.40625 C 153.804688 291.40625 167.238281 304.835938 167.238281 321.40625 "/>
</g>
</svg>
