<?xml version="1.0" encoding="UTF-8"?>
<svg xmlns="http://www.w3.org/2000/svg" xmlns:xlink="http://www.w3.org/1999/xlink" width="517pt" height="517pt" viewBox="0 0 517 517" version="1.1">
<g id="surface1511">
<rect x="0" y="0" width="517" height="517" style="fill:rgb(90%,90%,90%);fill-opacity:1;stroke:none;"/>
<path style="fill:none;stroke-width:5;stroke-linecap:butt;stroke-linejoin:round;stroke:rgb(100%,0%,0%);stroke-opacity:1;stroke-miterlimit:10;" d="M 261 261 L 517 261 L 517 517 L 261 517 Z M 261 261 "/>
<path style="fill-rule:nonzero;fill:rgb(50%,0%,50%);fill-opacity:1;stroke-width:1;stroke-linecap:butt;stroke-linejoin:round;stroke:rgb(0%,0%,0%);stroke-opacity:1;stroke-miterlimit:10;" d="M 366.566406 381.113281 C 366.566406 366.710938 342.566406 366.710938 342.566406 381.113281 C 342.566406 395.511719 366.566406 397.914062 366.566406 409.914062 C 366.566406 397.914062 390.566406 395.511719 390.566406 381.113281 C 390.566406 366.710938 366.566406 366.710938 366.566406 381.113281 "/>
<path style="fill-rule:nonzero;fill:rgb(50%,0%,50%);fill-opacity:1;stroke-width:1;stroke-linecap:butt;stroke-linejoin:round;stroke:rgb(0%,0%,0%);stroke-opacity:1;stroke-miterlimit:10;" d="M 472.929688 95.773438 C 472.929688 81.371094 448.929688 81.371094 448.929688 95.773438 C 448.929688 110.171875 472.929688 112.570312 472.929688 124.570312 C 472.929688 112.570312 496.929688 110.171875 496.929688 95.773438 C 496.929688 81.371094 472.929688 81.371094 472.929688 95.773438 "/>
<path style="fill-rule:nonzero;fill:rgb(100%,100%,0%);fill-opacity:1;stroke-width:1;stroke-linecap:butt;stroke-linejoin:round;stroke:rgb(0%,0%,0%);stroke-opacity:1;stroke-miterlimit:10;" d="M 450.703125 153.578125 C 450.703125 139.179688 426.703125 139.179688 426.703125 153.578125 C 426.703125 167.980469 450.703125 170.378906 450.703125 182.378906 C 450.703125 170.378906 474.703125 167.980469 474.703125 153.578125 C 474.703125 139.179688 450.703125 139.179688 450.703125 153.578125 "/>
<path style="fill-rule:nonzero;fill:rgb(100%,100%,0%);fill-opacity:1;stroke-width:1;stroke-linecap:butt;stroke-linejoin:round;stroke:rgb(0%,0%,0%);stroke-opacity:1;stroke-miterlimit:10;" d="M 53.574219 387.957031 C 53.574219 373.558594 29.574219 373.558594 29.574219 387.957031 C 29.574219 402.359375 53.574219 404.757812 53.574219 416.757812 C 53.574219 404.757812 77.574219 402.359375 77.574219 387.957031 C 77.574219 373.558594 53.574219 373.558594 53.574219 387.957031 "/>
</g>
</svg>
