<?xml version="1.0" encoding="UTF-8"?>
<svg xmlns="http://www.w3.org/2000/svg" xmlns:xlink="http://www.w3.org/1999/xlink" width="517pt" height="517pt" viewBox="0 0 517 517" version="1.1">
<g id="surface1411">
<rect x="0" y="0" width="517" height="517" style="fill:rgb(90%,90%,90%);fill-opacity:1;stroke:none;"/>
<path style="fill:none;stroke-width:5;stroke-linecap:butt;stroke-linejoin:round;stroke:rgb(100%,0%,0%);stroke-opacity:1;stroke-miterlimit:10;" d="M 261 261 L 517 261 L 517 517 L 261 517 Z M 261 261 "/>
<path style="fill-rule:nonzero;fill:rgb(0%,0%,0%);fill-opacity:1;stroke-width:1;stroke-linecap:butt;stroke-linejoin:round;stroke:rgb(0%,0%,0%);stroke-opacity:1;stroke-miterlimit:10;" d="M 402.503906 348.992188 C 402.503906 365.5625 389.070312 378.992188 372.503906 378.992188 C 355.933594 378.992188 342.503906 365.5625 342.503906 348.992188 C 342.503906 332.425781 355.933594 318.992188 372.503906 318.992188 C 389.070312 318.992188 402.503906 332.425781 402.503906 348.992188 "/>
<path style="fill-rule:nonzero;fill:rgb(100%,0%,0%);fill-opacity:1;stroke-width:1;stroke-linecap:butt;stroke-linejoin:round;stroke:rgb(0%,0%,0%);stroke-opacity:1;stroke-miterlimit:10;" d="M 207.601562 199.027344 C 207.601562 215.59375 194.171875 229.027344 177.601562 229.027344 C 161.035156 229.027344 147.601562 215.59375 147.601562 199.027344 C 147.601562 182.457031 161.035156 169.027344 177.601562 169.027344 C 194.171875 169.027344 207.601562 182.457031 207.601562 199.027344 "/>
<path style="fill-rule:nonzero;fill:rgb(0%,0%,0%);fill-opacity:1;stroke-width:1;stroke-linecap:butt;stroke-linejoin:round;stroke:rgb(0%,0%,0%);stroke-opacity:1;stroke-miterlimit:10;" d="M 151.851562 121.171875 C 151.851562 137.742188 138.417969 151.171875 121.851562 151.171875 C 105.28125 151.171875 91.851562 137.742188 91.851562 121.171875 C 91.851562 104.605469 105.28125 91.171875 121.851562 91.171875 C 138.417969 91.171875 151.851562 104.605469 151.851562 121.171875 "/>
<path style="fill-rule:nonzero;fill:rgb(0%,0%,0%);fill-opacity:1;stroke-width:1;stroke-linecap:butt;stroke-linejoin:round;stroke:rgb(0%,0%,0%);stroke-opacity:1;stroke-miterlimit:10;" d="M 78.742188 448.945312 C 78.742188 465.511719 65.3125 478.945312 48.742188 478.945312 C 32.175781 478.945312 18.742188 465.511719 18.742188 448.945312 C 18.742188 432.375 32.175781 418.945312 48.742188 418.945312 C 65.3125 418.945312 78.742188 432.375 78.742188 448.945312 "/>
</g>
</svg>
