<?xml version="1.0" encoding="UTF-8"?>
<svg xmlns="http://www.w3.org/2000/svg" xmlns:xlink="http://www.w3.org/1999/xlink" width="517pt" height="517pt" viewBox="0 0 517 517" version="1.1">
<g id="surface1121">
<rect x="0" y="0" width="517" height="517" style="fill:rgb(90%,90%,90%);fill-opacity:1;stroke:none;"/>
<path style="fill:none;stroke-width:5;stroke-linecap:butt;stroke-linejoin:round;stroke:rgb(100%,0%,0%);stroke-opacity:1;stroke-miterlimit:10;" d="M 5 261 L 261 261 L 261 517 L 5 517 Z M 5 261 "/>
<path style="fill-rule:nonzero;fill:rgb(35%,70%,90%);fill-opacity:1;stroke-width:1;stroke-linecap:butt;stroke-linejoin:round;stroke:rgb(0%,0%,0%);stroke-opacity:1;stroke-miterlimit:10;" d="M 115.804688 416.300781 L 95.804688 416.300781 L 95.804688 426.300781 L 115.804688 426.300781 L 115.804688 446.300781 L 125.804688 446.300781 L 125.804688 426.300781 L 145.804688 426.300781 L 145.804688 416.300781 L 125.804688 416.300781 L 125.804688 396.300781 L 115.804688 396.300781 L 115.804688 416.300781 "/>
<path style="fill-rule:nonzero;fill:rgb(100%,0%,0%);fill-opacity:1;stroke-width:1;stroke-linecap:butt;stroke-linejoin:round;stroke:rgb(0%,0%,0%);stroke-opacity:1;stroke-miterlimit:10;" d="M 375.507812 161.449219 L 355.507812 161.449219 L 355.507812 171.449219 L 375.507812 171.449219 L 375.507812 191.449219 L 385.507812 191.449219 L 385.507812 171.449219 L 405.507812 171.449219 L 405.507812 161.449219 L 385.507812 161.449219 L 385.507812 141.449219 L 375.507812 141.449219 L 375.507812 161.449219 "/>
<path style="fill-rule:nonzero;fill:rgb(100%,0%,0%);fill-opacity:1;stroke-width:1;stroke-linecap:butt;stroke-linejoin:round;stroke:rgb(0%,0%,0%);stroke-opacity:1;stroke-miterlimit:10;" d="M 369.566406 454.761719 L 349.566406 454.761719 L 349.566406 464.761719 L 369.566406 464.761719 L 369.566406 484.761719 L 379.566406 484.761719 L 379.566406 464.761719 L 399.566406 464.761719 L 399.566406 454.761719 L 379.566406 454.761719 L 379.566406 434.761719 L 369.566406 434.761719 L 369.566406 454.761719 "/>
<path style="fill-rule:nonzero;fill:rgb(100%,0%,0%);fill-opacity:1;stroke-width:1;stroke-linecap:butt;stroke-linejoin:round;stroke:rgb(0%,0%,0%);stroke-opacity:1;stroke-miterlimit:10;" d="M 57.621094 192.789062 L 37.621094 192.789062 L 37.621094 202.789062 L 57.621094 202.789062 L 57.621094 222.789062 L 67.621094 222.789062 L 67.621094 202.789062 L 87.621094 202.789062 L 87.621094 192.789062 L 67.621094 192.789062 L 67.621094 172.789062 L 57.621094 172.789062 L 57.621094 192.789062 "/>
</g>
</svg>
