<?xml version="1.0" encoding="UTF-8"?>
<svg xmlns="http://www.w3.org/2000/svg" xmlns:xlink="http://www.w3.org/1999/xlink" width="517pt" height="517pt" viewBox="0 0 517 517" version="1.1">
<g id="surface726">
<rect x="0" y="0" width="517" height="517" style="fill:rgb(90%,90%,90%);fill-opacity:1;stroke:none;"/>
<path style="fill:none;stroke-width:5;stroke-linecap:butt;stroke-linejoin:round;stroke:rgb(100%,0%,0%);stroke-opacity:1;stroke-miterlimit:10;" d="M 261 5 L 517 5 L 517 261 L 261 261 Z M 261 5 "/>
<path style="fill-rule:nonzero;fill:rgb(25%,88%,82%);fill-opacity:1;stroke-width:1;stroke-linecap:butt;stroke-linejoin:round;stroke:rgb(0%,0%,0%);stroke-opacity:1;stroke-miterlimit:10;" d="M 390.75 182.789062 L 370.75 182.789062 L 370.75 192.789062 L 390.75 192.789062 L 390.75 212.789062 L 400.75 212.789062 L 400.75 192.789062 L 420.75 192.789062 L 420.75 182.789062 L 400.75 182.789062 L 400.75 162.789062 L 390.75 162.789062 L 390.75 182.789062 "/>
<path style="fill-rule:nonzero;fill:rgb(100%,100%,0%);fill-opacity:1;stroke-width:1;stroke-linecap:butt;stroke-linejoin:round;stroke:rgb(0%,0%,0%);stroke-opacity:1;stroke-miterlimit:10;" d="M 197.554688 316.402344 L 177.554688 316.402344 L 177.554688 326.402344 L 197.554688 326.402344 L 197.554688 346.402344 L 207.554688 346.402344 L 207.554688 326.402344 L 227.554688 326.402344 L 227.554688 316.402344 L 207.554688 316.402344 L 207.554688 296.402344 L 197.554688 296.402344 L 197.554688 316.402344 "/>
<path style="fill-rule:nonzero;fill:rgb(100%,100%,0%);fill-opacity:1;stroke-width:1;stroke-linecap:butt;stroke-linejoin:round;stroke:rgb(0%,0%,0%);stroke-opacity:1;stroke-miterlimit:10;" d="M 135.84375 357.140625 L 115.84375 357.140625 L 115.84375 367.140625 L 135.84375 367.140625 L 135.84375 387.140625 L 145.84375 387.140625 L 145.84375 367.140625 L 165.84375 367.140625 L 165.84375 357.140625 L 145.84375 357.140625 L 145.84375 337.140625 L 135.84375 337.140625 L 135.84375 357.140625 "/>
<path style="fill-rule:nonzero;fill:rgb(100%,100%,0%);fill-opacity:1;stroke-width:1;stroke-linecap:butt;stroke-linejoin:round;stroke:rgb(0%,0%,0%);stroke-opacity:1;stroke-miterlimit:10;" d="M 382.375 437.273438 L 362.375 437.273438 L 362.375 447.273438 L 382.375 447.273438 L 382.375 467.273438 L 392.375 467.273438 L 392.375 447.273438 L 412.375 447.273438 L 412.375 437.273438 L 392.375 437.273438 L 392.375 417.273438 L 382.375 417.273438 L 382.375 437.273438 "/>
</g>
</svg>
