<?xml version="1.0" encoding="UTF-8"?>
<svg xmlns="http://www.w3.org/2000/svg" xmlns:xlink="http://www.w3.org/1999/xlink" width="517pt" height="517pt" viewBox="0 0 517 517" version="1.1">
<g id="surface1006">
<rect x="0" y="0" width="517" height="517" style="fill:rgb(90%,90%,90%);fill-opacity:1;stroke:none;"/>
<path style="fill:none;stroke-width:5;stroke-linecap:butt;stroke-linejoin:round;stroke:rgb(100%,0%,0%);stroke-opacity:1;stroke-miterlimit:10;" d="M 5 261 L 261 261 L 261 517 L 5 517 Z M 5 261 "/>
<path style="fill-rule:nonzero;fill:rgb(50%,0%,50%);fill-opacity:1;stroke-width:1;stroke-linecap:butt;stroke-linejoin:round;stroke:rgb(0%,0%,0%);stroke-opacity:1;stroke-miterlimit:10;" d="M 179.113281 412.308594 C 179.113281 428.878906 165.679688 442.308594 149.113281 442.308594 C 132.542969 442.308594 119.113281 428.878906 119.113281 412.308594 C 119.113281 395.742188 132.542969 382.308594 149.113281 382.308594 C 165.679688 382.308594 179.113281 395.742188 179.113281 412.308594 "/>
<path style="fill-rule:nonzero;fill:rgb(53%,27%,7%);fill-opacity:1;stroke-width:1;stroke-linecap:butt;stroke-linejoin:round;stroke:rgb(0%,0%,0%);stroke-opacity:1;stroke-miterlimit:10;" d="M 244.066406 123.296875 C 244.066406 139.867188 230.632812 153.296875 214.066406 153.296875 C 197.496094 153.296875 184.066406 139.867188 184.066406 123.296875 C 184.066406 106.730469 197.496094 93.296875 214.066406 93.296875 C 230.632812 93.296875 244.066406 106.730469 244.066406 123.296875 "/>
<path style="fill-rule:nonzero;fill:rgb(50%,0%,50%);fill-opacity:1;stroke-width:1;stroke-linecap:butt;stroke-linejoin:round;stroke:rgb(0%,0%,0%);stroke-opacity:1;stroke-miterlimit:10;" d="M 418.03125 366.113281 C 418.03125 382.683594 404.601562 396.113281 388.03125 396.113281 C 371.464844 396.113281 358.03125 382.683594 358.03125 366.113281 C 358.03125 349.546875 371.464844 336.113281 388.03125 336.113281 C 404.601562 336.113281 418.03125 349.546875 418.03125 366.113281 "/>
<path style="fill-rule:nonzero;fill:rgb(50%,0%,50%);fill-opacity:1;stroke-width:1;stroke-linecap:butt;stroke-linejoin:round;stroke:rgb(0%,0%,0%);stroke-opacity:1;stroke-miterlimit:10;" d="M 498.152344 449.855469 C 498.152344 466.425781 484.722656 479.855469 468.152344 479.855469 C 451.585938 479.855469 438.152344 466.425781 438.152344 449.855469 C 438.152344 433.289062 451.585938 419.855469 468.152344 419.855469 C 484.722656 419.855469 498.152344 433.289062 498.152344 449.855469 "/>
</g>
</svg>
