<?xml version="1.0" encoding="UTF-8"?>
<svg xmlns="http://www.w3.org/2000/svg" xmlns:xlink="http://www.w3.org/1999/xlink" width="517pt" height="517pt" viewBox="0 0 517 517" version="1.1">
<g id="surface6056">
<rect x="0" y="0" width="517" height="517" style="fill:rgb(90%,90%,90%);fill-opacity:1;stroke:none;"/>
<path style="fill-rule:nonzero;fill:rgb(0%,0%,0%);fill-opacity:1;stroke-width:1;stroke-linecap:butt;stroke-linejoin:miter;stroke:rgb(0%,0%,0%);stroke-opacity:1;stroke-miterlimit:10;" d="M 68.539062 333.664062 L 48.539062 333.664062 L 48.539062 343.664062 L 68.539062 343.664062 L 68.539062 363.664062 L 78.539062 363.664062 L 78.539062 343.664062 L 98.539062 343.664062 L 98.539062 333.664062 L 78.539062 333.664062 L 78.539062 313.664062 L 68.539062 313.664062 L 68.539062 333.664062 "/>
<path style="fill-rule:nonzero;fill:rgb(35%,70%,90%);fill-opacity:1;stroke-width:1;stroke-linecap:butt;stroke-linejoin:miter;stroke:rgb(0%,0%,0%);stroke-opacity:1;stroke-miterlimit:10;" d="M 53.742188 464.960938 L 33.742188 464.960938 L 33.742188 474.960938 L 53.742188 474.960938 L 53.742188 494.960938 L 63.742188 494.960938 L 63.742188 474.960938 L 83.742188 474.960938 L 83.742188 464.960938 L 63.742188 464.960938 L 63.742188 444.960938 L 53.742188 444.960938 L 53.742188 464.960938 "/>
<path style="fill-rule:nonzero;fill:rgb(35%,70%,90%);fill-opacity:1;stroke-width:1;stroke-linecap:butt;stroke-linejoin:miter;stroke:rgb(0%,0%,0%);stroke-opacity:1;stroke-miterlimit:10;" d="M 403.242188 295.070312 L 383.242188 295.070312 L 383.242188 305.070312 L 403.242188 305.070312 L 403.242188 325.070312 L 413.242188 325.070312 L 413.242188 305.070312 L 433.242188 305.070312 L 433.242188 295.070312 L 413.242188 295.070312 L 413.242188 275.070312 L 403.242188 275.070312 L 403.242188 295.070312 "/>
<path style="fill-rule:nonzero;fill:rgb(35%,70%,90%);fill-opacity:1;stroke-width:1;stroke-linecap:butt;stroke-linejoin:miter;stroke:rgb(0%,0%,0%);stroke-opacity:1;stroke-miterlimit:10;" d="M 51.003906 75.820312 L 31.003906 75.820312 L 31.003906 85.820312 L 51.003906 85.820312 L 51.003906 105.820312 L 61.003906 105.820312 L 61.003906 85.820312 L 81.003906 85.820312 L 81.003906 75.820312 L 61.003906 75.820312 L 61.003906 55.820312 L 51.003906 55.820312 L 51.003906 75.820312 "/>
<path style="fill-rule:nonzero;fill:rgb(35%,70%,90%);fill-opacity:1;stroke-width:1;stroke-linecap:butt;stroke-linejoin:miter;stroke:rgb(0%,0%,0%);stroke-opacity:1;stroke-miterlimit:10;" d="M 131.058594 162.558594 L 111.058594 162.558594 L 111.058594 172.558594 L 131.058594 172.558594 L 131.058594 192.558594 L 141.058594 192.558594 L 141.058594 172.558594 L 161.058594 172.558594 L 161.058594 162.558594 L 141.058594 162.558594 L 141.058594 142.558594 L 131.058594 142.558594 L 131.058594 162.558594 "/>
<path style="fill-rule:nonzero;fill:rgb(35%,70%,90%);fill-opacity:1;stroke-width:1;stroke-linecap:butt;stroke-linejoin:miter;stroke:rgb(0%,0%,0%);stroke-opacity:1;stroke-miterlimit:10;" d="M 209.832031 181.390625 L 189.832031 181.390625 L 189.832031 191.390625 L 209.832031 191.390625 L 209.832031 211.390625 L 219.832031 211.390625 L 219.832031 191.390625 L 239.832031 191.390625 L 239.832031 181.390625 L 219.832031 181.390625 L 219.832031 161.390625 L 209.832031 161.390625 L 209.832031 181.390625 "/>
<path style="fill-rule:nonzero;fill:rgb(35%,70%,90%);fill-opacity:1;stroke-width:1;stroke-linecap:butt;stroke-linejoin:miter;stroke:rgb(0%,0%,0%);stroke-opacity:1;stroke-miterlimit:10;" d="M 130.441406 54.785156 L 110.441406 54.785156 L 110.441406 64.785156 L 130.441406 64.785156 L 130.441406 84.785156 L 140.441406 84.785156 L 140.441406 64.785156 L 160.441406 64.785156 L 160.441406 54.785156 L 140.441406 54.785156 L 140.441406 34.785156 L 130.441406 34.785156 L 130.441406 54.785156 "/>
<path style="fill-rule:nonzero;fill:rgb(35%,70%,90%);fill-opacity:1;stroke-width:1;stroke-linecap:butt;stroke-linejoin:miter;stroke:rgb(0%,0%,0%);stroke-opacity:1;stroke-miterlimit:10;" d="M 214.132812 32.640625 L 194.132812 32.640625 L 194.132812 42.640625 L 214.132812 42.640625 L 214.132812 62.640625 L 224.132812 62.640625 L 224.132812 42.640625 L 244.132812 42.640625 L 244.132812 32.640625 L 224.132812 32.640625 L 224.132812 12.640625 L 214.132812 12.640625 L 214.132812 32.640625 "/>
</g>
</svg>
