<?xml version="1.0" encoding="UTF-8"?>
<svg xmlns="http://www.w3.org/2000/svg" xmlns:xlink="http://www.w3.org/1999/xlink" width="517pt" height="517pt" viewBox="0 0 517 517" version="1.1">
<g id="surface6276">
<rect x="0" y="0" width="517" height="517" style="fill:rgb(90%,90%,90%);fill-opacity:1;stroke:none;"/>
<path style="fill-rule:nonzero;fill:rgb(50%,0%,50%);fill-opacity:1;stroke-width:1;stroke-linecap:butt;stroke-linejoin:miter;stroke:rgb(0%,0%,0%);stroke-opacity:1;stroke-miterlimit:10;" d="M 298.625 301.09375 L 278.625 301.09375 L 278.625 311.09375 L 298.625 311.09375 L 298.625 331.09375 L 308.625 331.09375 L 308.625 311.09375 L 328.625 311.09375 L 328.625 301.09375 L 308.625 301.09375 L 308.625 281.09375 L 298.625 281.09375 L 298.625 301.09375 "/>
<path style="fill-rule:nonzero;fill:rgb(50%,0%,50%);fill-opacity:1;stroke-width:1;stroke-linecap:butt;stroke-linejoin:miter;stroke:rgb(0%,0%,0%);stroke-opacity:1;stroke-miterlimit:10;" d="M 299.226562 215.820312 L 279.226562 215.820312 L 279.226562 225.820312 L 299.226562 225.820312 L 299.226562 245.820312 L 309.226562 245.820312 L 309.226562 225.820312 L 329.226562 225.820312 L 329.226562 215.820312 L 309.226562 215.820312 L 309.226562 195.820312 L 299.226562 195.820312 L 299.226562 215.820312 "/>
<path style="fill-rule:nonzero;fill:rgb(50%,0%,50%);fill-opacity:1;stroke-width:1;stroke-linecap:butt;stroke-linejoin:miter;stroke:rgb(0%,0%,0%);stroke-opacity:1;stroke-miterlimit:10;" d="M 434.378906 168.832031 L 414.378906 168.832031 L 414.378906 178.832031 L 434.378906 178.832031 L 434.378906 198.832031 L 444.378906 198.832031 L 444.378906 178.832031 L 464.378906 178.832031 L 464.378906 168.832031 L 444.378906 168.832031 L 444.378906 148.832031 L 434.378906 148.832031 L 434.378906 168.832031 "/>
<path style="fill-rule:nonzero;fill:rgb(67%,100%,18%);fill-opacity:1;stroke-width:1;stroke-linecap:butt;stroke-linejoin:miter;stroke:rgb(0%,0%,0%);stroke-opacity:1;stroke-miterlimit:10;" d="M 424.175781 91.15625 L 404.175781 91.15625 L 404.175781 101.15625 L 424.175781 101.15625 L 424.175781 121.15625 L 434.175781 121.15625 L 434.175781 101.15625 L 454.175781 101.15625 L 454.175781 91.15625 L 434.175781 91.15625 L 434.175781 71.15625 L 424.175781 71.15625 L 424.175781 91.15625 "/>
<path style="fill-rule:nonzero;fill:rgb(67%,100%,18%);fill-opacity:1;stroke-width:1;stroke-linecap:butt;stroke-linejoin:miter;stroke:rgb(0%,0%,0%);stroke-opacity:1;stroke-miterlimit:10;" d="M 194.535156 134.894531 L 174.535156 134.894531 L 174.535156 144.894531 L 194.535156 144.894531 L 194.535156 164.894531 L 204.535156 164.894531 L 204.535156 144.894531 L 224.535156 144.894531 L 224.535156 134.894531 L 204.535156 134.894531 L 204.535156 114.894531 L 194.535156 114.894531 L 194.535156 134.894531 "/>
<path style="fill-rule:nonzero;fill:rgb(67%,100%,18%);fill-opacity:1;stroke-width:1;stroke-linecap:butt;stroke-linejoin:miter;stroke:rgb(0%,0%,0%);stroke-opacity:1;stroke-miterlimit:10;" d="M 63.816406 196.695312 L 43.816406 196.695312 L 43.816406 206.695312 L 63.816406 206.695312 L 63.816406 226.695312 L 73.816406 226.695312 L 73.816406 206.695312 L 93.816406 206.695312 L 93.816406 196.695312 L 73.816406 196.695312 L 73.816406 176.695312 L 63.816406 176.695312 L 63.816406 196.695312 "/>
<path style="fill-rule:nonzero;fill:rgb(67%,100%,18%);fill-opacity:1;stroke-width:1;stroke-linecap:butt;stroke-linejoin:miter;stroke:rgb(0%,0%,0%);stroke-opacity:1;stroke-miterlimit:10;" d="M 70.621094 41.859375 L 50.621094 41.859375 L 50.621094 51.859375 L 70.621094 51.859375 L 70.621094 71.859375 L 80.621094 71.859375 L 80.621094 51.859375 L 100.621094 51.859375 L 100.621094 41.859375 L 80.621094 41.859375 L 80.621094 21.859375 L 70.621094 21.859375 L 70.621094 41.859375 "/>
<path style="fill-rule:nonzero;fill:rgb(67%,100%,18%);fill-opacity:1;stroke-width:1;stroke-linecap:butt;stroke-linejoin:miter;stroke:rgb(0%,0%,0%);stroke-opacity:1;stroke-miterlimit:10;" d="M 155.992188 71.308594 L 135.992188 71.308594 L 135.992188 81.308594 L 155.992188 81.308594 L 155.992188 101.308594 L 165.992188 101.308594 L 165.992188 81.308594 L 185.992188 81.308594 L 185.992188 71.308594 L 165.992188 71.308594 L 165.992188 51.308594 L 155.992188 51.308594 L 155.992188 71.308594 "/>
</g>
</svg>
