<?xml version="1.0" encoding="UTF-8"?>
<svg xmlns="http://www.w3.org/2000/svg" xmlns:xlink="http://www.w3.org/1999/xlink" width="517pt" height="517pt" viewBox="0 0 517 517" version="1.1">
<g id="surface1516">
<rect x="0" y="0" width="517" height="517" style="fill:rgb(90%,90%,90%);fill-opacity:1;stroke:none;"/>
<path style="fill:none;stroke-width:5;stroke-linecap:butt;stroke-linejoin:round;stroke:rgb(100%,0%,0%);stroke-opacity:1;stroke-miterlimit:10;" d="M 261 261 L 517 261 L 517 517 L 261 517 Z M 261 261 "/>
<path style="fill-rule:nonzero;fill:rgb(50%,0%,50%);fill-opacity:1;stroke-width:1;stroke-linecap:butt;stroke-linejoin:round;stroke:rgb(0%,0%,0%);stroke-opacity:1;stroke-miterlimit:10;" d="M 467.253906 379.484375 C 467.253906 365.082031 443.253906 365.082031 443.253906 379.484375 C 443.253906 393.882812 467.253906 396.28125 467.253906 408.28125 C 467.253906 396.28125 491.253906 393.882812 491.253906 379.484375 C 491.253906 365.082031 467.253906 365.082031 467.253906 379.484375 "/>
<path style="fill-rule:nonzero;fill:rgb(50%,0%,50%);fill-opacity:1;stroke-width:1;stroke-linecap:butt;stroke-linejoin:round;stroke:rgb(0%,0%,0%);stroke-opacity:1;stroke-miterlimit:10;" d="M 458.835938 22.273438 C 458.835938 7.875 434.835938 7.875 434.835938 22.273438 C 434.835938 36.675781 458.835938 39.074219 458.835938 51.074219 C 458.835938 39.074219 482.835938 36.675781 482.835938 22.273438 C 482.835938 7.875 458.835938 7.875 458.835938 22.273438 "/>
<path style="fill-rule:nonzero;fill:rgb(50%,0%,50%);fill-opacity:1;stroke-width:1;stroke-linecap:butt;stroke-linejoin:round;stroke:rgb(0%,0%,0%);stroke-opacity:1;stroke-miterlimit:10;" d="M 41.875 92.601562 C 41.875 78.203125 17.875 78.203125 17.875 92.601562 C 17.875 107.003906 41.875 109.402344 41.875 121.402344 C 41.875 109.402344 65.875 107.003906 65.875 92.601562 C 65.875 78.203125 41.875 78.203125 41.875 92.601562 "/>
<path style="fill-rule:nonzero;fill:rgb(100%,100%,0%);fill-opacity:1;stroke-width:1;stroke-linecap:butt;stroke-linejoin:round;stroke:rgb(0%,0%,0%);stroke-opacity:1;stroke-miterlimit:10;" d="M 183.953125 97.761719 C 183.953125 83.363281 159.953125 83.363281 159.953125 97.761719 C 159.953125 112.164062 183.953125 114.5625 183.953125 126.5625 C 183.953125 114.5625 207.953125 112.164062 207.953125 97.761719 C 207.953125 83.363281 183.953125 83.363281 183.953125 97.761719 "/>
</g>
</svg>
