<?xml version="1.0" encoding="UTF-8"?>
<svg xmlns="http://www.w3.org/2000/svg" xmlns:xlink="http://www.w3.org/1999/xlink" width="517pt" height="517pt" viewBox="0 0 517 517" version="1.1">
<g id="surface1151">
<rect x="0" y="0" width="517" height="517" style="fill:rgb(90%,90%,90%);fill-opacity:1;stroke:none;"/>
<path style="fill:none;stroke-width:5;stroke-linecap:butt;stroke-linejoin:round;stroke:rgb(100%,0%,0%);stroke-opacity:1;stroke-miterlimit:10;" d="M 5 261 L 261 261 L 261 517 L 5 517 Z M 5 261 "/>
<path style="fill-rule:nonzero;fill:rgb(35%,70%,90%);fill-opacity:1;stroke-width:1;stroke-linecap:butt;stroke-linejoin:round;stroke:rgb(0%,0%,0%);stroke-opacity:1;stroke-miterlimit:10;" d="M 199.59375 402.941406 L 179.59375 402.941406 L 179.59375 412.941406 L 199.59375 412.941406 L 199.59375 432.941406 L 209.59375 432.941406 L 209.59375 412.941406 L 229.59375 412.941406 L 229.59375 402.941406 L 209.59375 402.941406 L 209.59375 382.941406 L 199.59375 382.941406 L 199.59375 402.941406 "/>
<path style="fill-rule:nonzero;fill:rgb(100%,0%,0%);fill-opacity:1;stroke-width:1;stroke-linecap:butt;stroke-linejoin:round;stroke:rgb(0%,0%,0%);stroke-opacity:1;stroke-miterlimit:10;" d="M 190.558594 150.390625 L 170.558594 150.390625 L 170.558594 160.390625 L 190.558594 160.390625 L 190.558594 180.390625 L 200.558594 180.390625 L 200.558594 160.390625 L 220.558594 160.390625 L 220.558594 150.390625 L 200.558594 150.390625 L 200.558594 130.390625 L 190.558594 130.390625 L 190.558594 150.390625 "/>
<path style="fill-rule:nonzero;fill:rgb(100%,0%,0%);fill-opacity:1;stroke-width:1;stroke-linecap:butt;stroke-linejoin:round;stroke:rgb(0%,0%,0%);stroke-opacity:1;stroke-miterlimit:10;" d="M 35.699219 86.398438 L 15.699219 86.398438 L 15.699219 96.398438 L 35.699219 96.398438 L 35.699219 116.398438 L 45.699219 116.398438 L 45.699219 96.398438 L 65.699219 96.398438 L 65.699219 86.398438 L 45.699219 86.398438 L 45.699219 66.398438 L 35.699219 66.398438 L 35.699219 86.398438 "/>
<path style="fill-rule:nonzero;fill:rgb(35%,70%,90%);fill-opacity:1;stroke-width:1;stroke-linecap:butt;stroke-linejoin:round;stroke:rgb(0%,0%,0%);stroke-opacity:1;stroke-miterlimit:10;" d="M 298.609375 426.324219 L 278.609375 426.324219 L 278.609375 436.324219 L 298.609375 436.324219 L 298.609375 456.324219 L 308.609375 456.324219 L 308.609375 436.324219 L 328.609375 436.324219 L 328.609375 426.324219 L 308.609375 426.324219 L 308.609375 406.324219 L 298.609375 406.324219 L 298.609375 426.324219 "/>
</g>
</svg>
