<?xml version="1.0" encoding="UTF-8"?>
<svg xmlns="http://www.w3.org/2000/svg" xmlns:xlink="http://www.w3.org/1999/xlink" width="517pt" height="517pt" viewBox="0 0 517 517" version="1.1">
<g id="surface1036">
<rect x="0" y="0" width="517" height="517" style="fill:rgb(90%,90%,90%);fill-opacity:1;stroke:none;"/>
<path style="fill:none;stroke-width:5;stroke-linecap:butt;stroke-linejoin:round;stroke:rgb(100%,0%,0%);stroke-opacity:1;stroke-miterlimit:10;" d="M 5 261 L 261 261 L 261 517 L 5 517 Z M 5 261 "/>
<path style="fill-rule:nonzero;fill:rgb(67%,100%,18%);fill-opacity:1;stroke-width:1;stroke-linecap:butt;stroke-linejoin:round;stroke:rgb(0%,0%,0%);stroke-opacity:1;stroke-miterlimit:10;" d="M 161.027344 389.394531 C 161.027344 405.964844 147.59375 419.394531 131.027344 419.394531 C 114.457031 419.394531 101.027344 405.964844 101.027344 389.394531 C 101.027344 372.824219 114.457031 359.394531 131.027344 359.394531 C 147.59375 359.394531 161.027344 372.824219 161.027344 389.394531 "/>
<path style="fill-rule:nonzero;fill:rgb(53%,27%,7%);fill-opacity:1;stroke-width:1;stroke-linecap:butt;stroke-linejoin:round;stroke:rgb(0%,0%,0%);stroke-opacity:1;stroke-miterlimit:10;" d="M 505.496094 150.8125 C 505.496094 167.378906 492.066406 180.8125 475.496094 180.8125 C 458.929688 180.8125 445.496094 167.378906 445.496094 150.8125 C 445.496094 134.242188 458.929688 120.8125 475.496094 120.8125 C 492.066406 120.8125 505.496094 134.242188 505.496094 150.8125 "/>
<path style="fill-rule:nonzero;fill:rgb(53%,27%,7%);fill-opacity:1;stroke-width:1;stroke-linecap:butt;stroke-linejoin:round;stroke:rgb(0%,0%,0%);stroke-opacity:1;stroke-miterlimit:10;" d="M 414.460938 217.296875 C 414.460938 233.863281 401.03125 247.296875 384.460938 247.296875 C 367.894531 247.296875 354.460938 233.863281 354.460938 217.296875 C 354.460938 200.726562 367.894531 187.296875 384.460938 187.296875 C 401.03125 187.296875 414.460938 200.726562 414.460938 217.296875 "/>
<path style="fill-rule:nonzero;fill:rgb(50%,0%,50%);fill-opacity:1;stroke-width:1;stroke-linecap:butt;stroke-linejoin:round;stroke:rgb(0%,0%,0%);stroke-opacity:1;stroke-miterlimit:10;" d="M 221.921875 146.355469 C 221.921875 162.921875 208.492188 176.355469 191.921875 176.355469 C 175.355469 176.355469 161.921875 162.921875 161.921875 146.355469 C 161.921875 129.785156 175.355469 116.355469 191.921875 116.355469 C 208.492188 116.355469 221.921875 129.785156 221.921875 146.355469 "/>
</g>
</svg>
