<?xml version="1.0" encoding="UTF-8"?>
<svg xmlns="http://www.w3.org/2000/svg" xmlns:xlink="http://www.w3.org/1999/xlink" width="517pt" height="517pt" viewBox="0 0 517 517" version="1.1">
<g id="surface1476">
<rect x="0" y="0" width="517" height="517" style="fill:rgb(90%,90%,90%);fill-opacity:1;stroke:none;"/>
<path style="fill:none;stroke-width:5;stroke-linecap:butt;stroke-linejoin:round;stroke:rgb(100%,0%,0%);stroke-opacity:1;stroke-miterlimit:10;" d="M 261 261 L 517 261 L 517 517 L 261 517 Z M 261 261 "/>
<path style="fill-rule:nonzero;fill:rgb(100%,100%,0%);fill-opacity:1;stroke-width:1;stroke-linecap:butt;stroke-linejoin:round;stroke:rgb(0%,0%,0%);stroke-opacity:1;stroke-miterlimit:10;" d="M 323.886719 295.386719 C 323.886719 280.984375 299.886719 280.984375 299.886719 295.386719 C 299.886719 309.785156 323.886719 312.1875 323.886719 324.1875 C 323.886719 312.1875 347.886719 309.785156 347.886719 295.386719 C 347.886719 280.984375 323.886719 280.984375 323.886719 295.386719 "/>
<path style="fill-rule:nonzero;fill:rgb(50%,0%,50%);fill-opacity:1;stroke-width:1;stroke-linecap:butt;stroke-linejoin:round;stroke:rgb(0%,0%,0%);stroke-opacity:1;stroke-miterlimit:10;" d="M 101.195312 96.695312 C 101.195312 82.296875 77.195312 82.296875 77.195312 96.695312 C 77.195312 111.097656 101.195312 113.496094 101.195312 125.496094 C 101.195312 113.496094 125.195312 111.097656 125.195312 96.695312 C 125.195312 82.296875 101.195312 82.296875 101.195312 96.695312 "/>
<path style="fill-rule:nonzero;fill:rgb(50%,0%,50%);fill-opacity:1;stroke-width:1;stroke-linecap:butt;stroke-linejoin:round;stroke:rgb(0%,0%,0%);stroke-opacity:1;stroke-miterlimit:10;" d="M 121.234375 308.117188 C 121.234375 293.71875 97.234375 293.71875 97.234375 308.117188 C 97.234375 322.515625 121.234375 324.917969 121.234375 336.917969 C 121.234375 324.917969 145.234375 322.515625 145.234375 308.117188 C 145.234375 293.71875 121.234375 293.71875 121.234375 308.117188 "/>
<path style="fill-rule:nonzero;fill:rgb(100%,100%,0%);fill-opacity:1;stroke-width:1;stroke-linecap:butt;stroke-linejoin:round;stroke:rgb(0%,0%,0%);stroke-opacity:1;stroke-miterlimit:10;" d="M 91.4375 400.804688 C 91.4375 386.40625 67.4375 386.40625 67.4375 400.804688 C 67.4375 415.203125 91.4375 417.605469 91.4375 429.605469 C 91.4375 417.605469 115.4375 415.203125 115.4375 400.804688 C 115.4375 386.40625 91.4375 386.40625 91.4375 400.804688 "/>
</g>
</svg>
