<?xml version="1.0" encoding="UTF-8"?>
<svg xmlns="http://www.w3.org/2000/svg" xmlns:xlink="http://www.w3.org/1999/xlink" width="517pt" height="517pt" viewBox="0 0 517 517" version="1.1">
<g id="surface736">
<rect x="0" y="0" width="517" height="517" style="fill:rgb(90%,90%,90%);fill-opacity:1;stroke:none;"/>
<path style="fill:none;stroke-width:5;stroke-linecap:butt;stroke-linejoin:round;stroke:rgb(100%,0%,0%);stroke-opacity:1;stroke-miterlimit:10;" d="M 261 5 L 517 5 L 517 261 L 261 261 Z M 261 5 "/>
<path style="fill-rule:nonzero;fill:rgb(25%,88%,82%);fill-opacity:1;stroke-width:1;stroke-linecap:butt;stroke-linejoin:round;stroke:rgb(0%,0%,0%);stroke-opacity:1;stroke-miterlimit:10;" d="M 467.5 149.414062 L 447.5 149.414062 L 447.5 159.414062 L 467.5 159.414062 L 467.5 179.414062 L 477.5 179.414062 L 477.5 159.414062 L 497.5 159.414062 L 497.5 149.414062 L 477.5 149.414062 L 477.5 129.414062 L 467.5 129.414062 L 467.5 149.414062 "/>
<path style="fill-rule:nonzero;fill:rgb(100%,100%,0%);fill-opacity:1;stroke-width:1;stroke-linecap:butt;stroke-linejoin:round;stroke:rgb(0%,0%,0%);stroke-opacity:1;stroke-miterlimit:10;" d="M 177.242188 356.574219 L 157.242188 356.574219 L 157.242188 366.574219 L 177.242188 366.574219 L 177.242188 386.574219 L 187.242188 386.574219 L 187.242188 366.574219 L 207.242188 366.574219 L 207.242188 356.574219 L 187.242188 356.574219 L 187.242188 336.574219 L 177.242188 336.574219 L 177.242188 356.574219 "/>
<path style="fill-rule:nonzero;fill:rgb(100%,100%,0%);fill-opacity:1;stroke-width:1;stroke-linecap:butt;stroke-linejoin:round;stroke:rgb(0%,0%,0%);stroke-opacity:1;stroke-miterlimit:10;" d="M 128.679688 432.082031 L 108.679688 432.082031 L 108.679688 442.082031 L 128.679688 442.082031 L 128.679688 462.082031 L 138.679688 462.082031 L 138.679688 442.082031 L 158.679688 442.082031 L 158.679688 432.082031 L 138.679688 432.082031 L 138.679688 412.082031 L 128.679688 412.082031 L 128.679688 432.082031 "/>
<path style="fill-rule:nonzero;fill:rgb(100%,100%,0%);fill-opacity:1;stroke-width:1;stroke-linecap:butt;stroke-linejoin:round;stroke:rgb(0%,0%,0%);stroke-opacity:1;stroke-miterlimit:10;" d="M 74.910156 81.886719 L 54.910156 81.886719 L 54.910156 91.886719 L 74.910156 91.886719 L 74.910156 111.886719 L 84.910156 111.886719 L 84.910156 91.886719 L 104.910156 91.886719 L 104.910156 81.886719 L 84.910156 81.886719 L 84.910156 61.886719 L 74.910156 61.886719 L 74.910156 81.886719 "/>
</g>
</svg>
