<?xml version="1.0" encoding="UTF-8"?>
<svg xmlns="http://www.w3.org/2000/svg" xmlns:xlink="http://www.w3.org/1999/xlink" width="517pt" height="517pt" viewBox="0 0 517 517" version="1.1">
<g id="surface1161">
<rect x="0" y="0" width="517" height="517" style="fill:rgb(90%,90%,90%);fill-opacity:1;stroke:none;"/>
<path style="fill:none;stroke-width:5;stroke-linecap:butt;stroke-linejoin:round;stroke:rgb(100%,0%,0%);stroke-opacity:1;stroke-miterlimit:10;" d="M 5 261 L 261 261 L 261 517 L 5 517 Z M 5 261 "/>
<path style="fill-rule:nonzero;fill:rgb(35%,70%,90%);fill-opacity:1;stroke-width:1;stroke-linecap:butt;stroke-linejoin:round;stroke:rgb(0%,0%,0%);stroke-opacity:1;stroke-miterlimit:10;" d="M 165.757812 396.277344 L 145.757812 396.277344 L 145.757812 406.277344 L 165.757812 406.277344 L 165.757812 426.277344 L 175.757812 426.277344 L 175.757812 406.277344 L 195.757812 406.277344 L 195.757812 396.277344 L 175.757812 396.277344 L 175.757812 376.277344 L 165.757812 376.277344 L 165.757812 396.277344 "/>
<path style="fill-rule:nonzero;fill:rgb(100%,0%,0%);fill-opacity:1;stroke-width:1;stroke-linecap:butt;stroke-linejoin:round;stroke:rgb(0%,0%,0%);stroke-opacity:1;stroke-miterlimit:10;" d="M 442.03125 341.886719 L 422.03125 341.886719 L 422.03125 351.886719 L 442.03125 351.886719 L 442.03125 371.886719 L 452.03125 371.886719 L 452.03125 351.886719 L 472.03125 351.886719 L 472.03125 341.886719 L 452.03125 341.886719 L 452.03125 321.886719 L 442.03125 321.886719 L 442.03125 341.886719 "/>
<path style="fill-rule:nonzero;fill:rgb(35%,70%,90%);fill-opacity:1;stroke-width:1;stroke-linecap:butt;stroke-linejoin:round;stroke:rgb(0%,0%,0%);stroke-opacity:1;stroke-miterlimit:10;" d="M 294.230469 328.753906 L 274.230469 328.753906 L 274.230469 338.753906 L 294.230469 338.753906 L 294.230469 358.753906 L 304.230469 358.753906 L 304.230469 338.753906 L 324.230469 338.753906 L 324.230469 328.753906 L 304.230469 328.753906 L 304.230469 308.753906 L 294.230469 308.753906 L 294.230469 328.753906 "/>
<path style="fill-rule:nonzero;fill:rgb(35%,70%,90%);fill-opacity:1;stroke-width:1;stroke-linecap:butt;stroke-linejoin:round;stroke:rgb(0%,0%,0%);stroke-opacity:1;stroke-miterlimit:10;" d="M 313.578125 33.214844 L 293.578125 33.214844 L 293.578125 43.214844 L 313.578125 43.214844 L 313.578125 63.214844 L 323.578125 63.214844 L 323.578125 43.214844 L 343.578125 43.214844 L 343.578125 33.214844 L 323.578125 33.214844 L 323.578125 13.214844 L 313.578125 13.214844 L 313.578125 33.214844 "/>
</g>
</svg>
