<?xml version="1.0" encoding="UTF-8"?>
<svg xmlns="http://www.w3.org/2000/svg" xmlns:xlink="http://www.w3.org/1999/xlink" width="517pt" height="517pt" viewBox="0 0 517 517" version="1.1">
<g id="surface6266">
<rect x="0" y="0" width="517" height="517" style="fill:rgb(90%,90%,90%);fill-opacity:1;stroke:none;"/>
<path style="fill-rule:nonzero;fill:rgb(50%,0%,50%);fill-opacity:1;stroke-width:1;stroke-linecap:butt;stroke-linejoin:miter;stroke:rgb(0%,0%,0%);stroke-opacity:1;stroke-miterlimit:10;" d="M 306.488281 51.351562 L 286.488281 51.351562 L 286.488281 61.351562 L 306.488281 61.351562 L 306.488281 81.351562 L 316.488281 81.351562 L 316.488281 61.351562 L 336.488281 61.351562 L 336.488281 51.351562 L 316.488281 51.351562 L 316.488281 31.351562 L 306.488281 31.351562 L 306.488281 51.351562 "/>
<path style="fill-rule:nonzero;fill:rgb(50%,0%,50%);fill-opacity:1;stroke-width:1;stroke-linecap:butt;stroke-linejoin:miter;stroke:rgb(0%,0%,0%);stroke-opacity:1;stroke-miterlimit:10;" d="M 450.957031 213.878906 L 430.957031 213.878906 L 430.957031 223.878906 L 450.957031 223.878906 L 450.957031 243.878906 L 460.957031 243.878906 L 460.957031 223.878906 L 480.957031 223.878906 L 480.957031 213.878906 L 460.957031 213.878906 L 460.957031 193.878906 L 450.957031 193.878906 L 450.957031 213.878906 "/>
<path style="fill-rule:nonzero;fill:rgb(67%,100%,18%);fill-opacity:1;stroke-width:1;stroke-linecap:butt;stroke-linejoin:miter;stroke:rgb(0%,0%,0%);stroke-opacity:1;stroke-miterlimit:10;" d="M 320.605469 345.996094 L 300.605469 345.996094 L 300.605469 355.996094 L 320.605469 355.996094 L 320.605469 375.996094 L 330.605469 375.996094 L 330.605469 355.996094 L 350.605469 355.996094 L 350.605469 345.996094 L 330.605469 345.996094 L 330.605469 325.996094 L 320.605469 325.996094 L 320.605469 345.996094 "/>
<path style="fill-rule:nonzero;fill:rgb(67%,100%,18%);fill-opacity:1;stroke-width:1;stroke-linecap:butt;stroke-linejoin:miter;stroke:rgb(0%,0%,0%);stroke-opacity:1;stroke-miterlimit:10;" d="M 418.035156 328.714844 L 398.035156 328.714844 L 398.035156 338.714844 L 418.035156 338.714844 L 418.035156 358.714844 L 428.035156 358.714844 L 428.035156 338.714844 L 448.035156 338.714844 L 448.035156 328.714844 L 428.035156 328.714844 L 428.035156 308.714844 L 418.035156 308.714844 L 418.035156 328.714844 "/>
<path style="fill-rule:nonzero;fill:rgb(67%,100%,18%);fill-opacity:1;stroke-width:1;stroke-linecap:butt;stroke-linejoin:miter;stroke:rgb(0%,0%,0%);stroke-opacity:1;stroke-miterlimit:10;" d="M 325.421875 456.652344 L 305.421875 456.652344 L 305.421875 466.652344 L 325.421875 466.652344 L 325.421875 486.652344 L 335.421875 486.652344 L 335.421875 466.652344 L 355.421875 466.652344 L 355.421875 456.652344 L 335.421875 456.652344 L 335.421875 436.652344 L 325.421875 436.652344 L 325.421875 456.652344 "/>
<path style="fill-rule:nonzero;fill:rgb(67%,100%,18%);fill-opacity:1;stroke-width:1;stroke-linecap:butt;stroke-linejoin:miter;stroke:rgb(0%,0%,0%);stroke-opacity:1;stroke-miterlimit:10;" d="M 416.933594 460.84375 L 396.933594 460.84375 L 396.933594 470.84375 L 416.933594 470.84375 L 416.933594 490.84375 L 426.933594 490.84375 L 426.933594 470.84375 L 446.933594 470.84375 L 446.933594 460.84375 L 426.933594 460.84375 L 426.933594 440.84375 L 416.933594 440.84375 L 416.933594 460.84375 "/>
<path style="fill-rule:nonzero;fill:rgb(67%,100%,18%);fill-opacity:1;stroke-width:1;stroke-linecap:butt;stroke-linejoin:miter;stroke:rgb(0%,0%,0%);stroke-opacity:1;stroke-miterlimit:10;" d="M 95.789062 37.058594 L 75.789062 37.058594 L 75.789062 47.058594 L 95.789062 47.058594 L 95.789062 67.058594 L 105.789062 67.058594 L 105.789062 47.058594 L 125.789062 47.058594 L 125.789062 37.058594 L 105.789062 37.058594 L 105.789062 17.058594 L 95.789062 17.058594 L 95.789062 37.058594 "/>
<path style="fill-rule:nonzero;fill:rgb(67%,100%,18%);fill-opacity:1;stroke-width:1;stroke-linecap:butt;stroke-linejoin:miter;stroke:rgb(0%,0%,0%);stroke-opacity:1;stroke-miterlimit:10;" d="M 74.023438 206.90625 L 54.023438 206.90625 L 54.023438 216.90625 L 74.023438 216.90625 L 74.023438 236.90625 L 84.023438 236.90625 L 84.023438 216.90625 L 104.023438 216.90625 L 104.023438 206.90625 L 84.023438 206.90625 L 84.023438 186.90625 L 74.023438 186.90625 L 74.023438 206.90625 "/>
</g>
</svg>
