<?xml version="1.0" encoding="UTF-8"?>
<svg xmlns="http://www.w3.org/2000/svg" xmlns:xlink="http://www.w3.org/1999/xlink" width="517pt" height="517pt" viewBox="0 0 517 517" version="1.1">
<g id="surface5986">
<rect x="0" y="0" width="517" height="517" style="fill:rgb(90%,90%,90%);fill-opacity:1;stroke:none;"/>
<path style="fill-rule:nonzero;fill:rgb(100%,0%,0%);fill-opacity:1;stroke-width:1;stroke-linecap:butt;stroke-linejoin:miter;stroke:rgb(0%,0%,0%);stroke-opacity:1;stroke-miterlimit:10;" d="M 434.476562 465.421875 L 414.476562 465.421875 L 414.476562 475.421875 L 434.476562 475.421875 L 434.476562 495.421875 L 444.476562 495.421875 L 444.476562 475.421875 L 464.476562 475.421875 L 464.476562 465.421875 L 444.476562 465.421875 L 444.476562 445.421875 L 434.476562 445.421875 L 434.476562 465.421875 "/>
<path style="fill-rule:nonzero;fill:rgb(100%,0%,0%);fill-opacity:1;stroke-width:1;stroke-linecap:butt;stroke-linejoin:miter;stroke:rgb(0%,0%,0%);stroke-opacity:1;stroke-miterlimit:10;" d="M 395.488281 343.8125 L 375.488281 343.8125 L 375.488281 353.8125 L 395.488281 353.8125 L 395.488281 373.8125 L 405.488281 373.8125 L 405.488281 353.8125 L 425.488281 353.8125 L 425.488281 343.8125 L 405.488281 343.8125 L 405.488281 323.8125 L 395.488281 323.8125 L 395.488281 343.8125 "/>
<path style="fill-rule:nonzero;fill:rgb(100%,100%,0%);fill-opacity:1;stroke-width:1;stroke-linecap:butt;stroke-linejoin:miter;stroke:rgb(0%,0%,0%);stroke-opacity:1;stroke-miterlimit:10;" d="M 37.640625 399.226562 L 17.640625 399.226562 L 17.640625 409.226562 L 37.640625 409.226562 L 37.640625 429.226562 L 47.640625 429.226562 L 47.640625 409.226562 L 67.640625 409.226562 L 67.640625 399.226562 L 47.640625 399.226562 L 47.640625 379.226562 L 37.640625 379.226562 L 37.640625 399.226562 "/>
<path style="fill-rule:nonzero;fill:rgb(100%,100%,0%);fill-opacity:1;stroke-width:1;stroke-linecap:butt;stroke-linejoin:miter;stroke:rgb(0%,0%,0%);stroke-opacity:1;stroke-miterlimit:10;" d="M 71.792969 460.90625 L 51.792969 460.90625 L 51.792969 470.90625 L 71.792969 470.90625 L 71.792969 490.90625 L 81.792969 490.90625 L 81.792969 470.90625 L 101.792969 470.90625 L 101.792969 460.90625 L 81.792969 460.90625 L 81.792969 440.90625 L 71.792969 440.90625 L 71.792969 460.90625 "/>
<path style="fill-rule:nonzero;fill:rgb(100%,100%,0%);fill-opacity:1;stroke-width:1;stroke-linecap:butt;stroke-linejoin:miter;stroke:rgb(0%,0%,0%);stroke-opacity:1;stroke-miterlimit:10;" d="M 135.390625 169.085938 L 115.390625 169.085938 L 115.390625 179.085938 L 135.390625 179.085938 L 135.390625 199.085938 L 145.390625 199.085938 L 145.390625 179.085938 L 165.390625 179.085938 L 165.390625 169.085938 L 145.390625 169.085938 L 145.390625 149.085938 L 135.390625 149.085938 L 135.390625 169.085938 "/>
<path style="fill-rule:nonzero;fill:rgb(100%,100%,0%);fill-opacity:1;stroke-width:1;stroke-linecap:butt;stroke-linejoin:miter;stroke:rgb(0%,0%,0%);stroke-opacity:1;stroke-miterlimit:10;" d="M 175.480469 74.6875 L 155.480469 74.6875 L 155.480469 84.6875 L 175.480469 84.6875 L 175.480469 104.6875 L 185.480469 104.6875 L 185.480469 84.6875 L 205.480469 84.6875 L 205.480469 74.6875 L 185.480469 74.6875 L 185.480469 54.6875 L 175.480469 54.6875 L 175.480469 74.6875 "/>
<path style="fill-rule:nonzero;fill:rgb(100%,100%,0%);fill-opacity:1;stroke-width:1;stroke-linecap:butt;stroke-linejoin:miter;stroke:rgb(0%,0%,0%);stroke-opacity:1;stroke-miterlimit:10;" d="M 65.550781 44.613281 L 45.550781 44.613281 L 45.550781 54.613281 L 65.550781 54.613281 L 65.550781 74.613281 L 75.550781 74.613281 L 75.550781 54.613281 L 95.550781 54.613281 L 95.550781 44.613281 L 75.550781 44.613281 L 75.550781 24.613281 L 65.550781 24.613281 L 65.550781 44.613281 "/>
<path style="fill-rule:nonzero;fill:rgb(100%,100%,0%);fill-opacity:1;stroke-width:1;stroke-linecap:butt;stroke-linejoin:miter;stroke:rgb(0%,0%,0%);stroke-opacity:1;stroke-miterlimit:10;" d="M 46.796875 212.964844 L 26.796875 212.964844 L 26.796875 222.964844 L 46.796875 222.964844 L 46.796875 242.964844 L 56.796875 242.964844 L 56.796875 222.964844 L 76.796875 222.964844 L 76.796875 212.964844 L 56.796875 212.964844 L 56.796875 192.964844 L 46.796875 192.964844 L 46.796875 212.964844 "/>
</g>
</svg>
