<?xml version="1.0" encoding="UTF-8"?>
<svg xmlns="http://www.w3.org/2000/svg" xmlns:xlink="http://www.w3.org/1999/xlink" width="517pt" height="517pt" viewBox="0 0 517 517" version="1.1">
<g id="surface5886">
<rect x="0" y="0" width="517" height="517" style="fill:rgb(90%,90%,90%);fill-opacity:1;stroke:none;"/>
<path style="fill-rule:nonzero;fill:rgb(100%,0%,0%);fill-opacity:1;stroke-width:1;stroke-linecap:butt;stroke-linejoin:miter;stroke:rgb(0%,0%,0%);stroke-opacity:1;stroke-miterlimit:10;" d="M 374.792969 58.234375 L 354.792969 58.234375 L 354.792969 68.234375 L 374.792969 68.234375 L 374.792969 88.234375 L 384.792969 88.234375 L 384.792969 68.234375 L 404.792969 68.234375 L 404.792969 58.234375 L 384.792969 58.234375 L 384.792969 38.234375 L 374.792969 38.234375 L 374.792969 58.234375 "/>
<path style="fill-rule:nonzero;fill:rgb(100%,0%,0%);fill-opacity:1;stroke-width:1;stroke-linecap:butt;stroke-linejoin:miter;stroke:rgb(0%,0%,0%);stroke-opacity:1;stroke-miterlimit:10;" d="M 452.304688 306.953125 L 432.304688 306.953125 L 432.304688 316.953125 L 452.304688 316.953125 L 452.304688 336.953125 L 462.304688 336.953125 L 462.304688 316.953125 L 482.304688 316.953125 L 482.304688 306.953125 L 462.304688 306.953125 L 462.304688 286.953125 L 452.304688 286.953125 L 452.304688 306.953125 "/>
<path style="fill-rule:nonzero;fill:rgb(100%,0%,0%);fill-opacity:1;stroke-width:1;stroke-linecap:butt;stroke-linejoin:miter;stroke:rgb(0%,0%,0%);stroke-opacity:1;stroke-miterlimit:10;" d="M 357.199219 376.628906 L 337.199219 376.628906 L 337.199219 386.628906 L 357.199219 386.628906 L 357.199219 406.628906 L 367.199219 406.628906 L 367.199219 386.628906 L 387.199219 386.628906 L 387.199219 376.628906 L 367.199219 376.628906 L 367.199219 356.628906 L 357.199219 356.628906 L 357.199219 376.628906 "/>
<path style="fill-rule:nonzero;fill:rgb(100%,0%,0%);fill-opacity:1;stroke-width:1;stroke-linecap:butt;stroke-linejoin:miter;stroke:rgb(0%,0%,0%);stroke-opacity:1;stroke-miterlimit:10;" d="M 414.714844 462.042969 L 394.714844 462.042969 L 394.714844 472.042969 L 414.714844 472.042969 L 414.714844 492.042969 L 424.714844 492.042969 L 424.714844 472.042969 L 444.714844 472.042969 L 444.714844 462.042969 L 424.714844 462.042969 L 424.714844 442.042969 L 414.714844 442.042969 L 414.714844 462.042969 "/>
<path style="fill-rule:nonzero;fill:rgb(100%,0%,0%);fill-opacity:1;stroke-width:1;stroke-linecap:butt;stroke-linejoin:miter;stroke:rgb(0%,0%,0%);stroke-opacity:1;stroke-miterlimit:10;" d="M 81.058594 213.023438 L 61.058594 213.023438 L 61.058594 223.023438 L 81.058594 223.023438 L 81.058594 243.023438 L 91.058594 243.023438 L 91.058594 223.023438 L 111.058594 223.023438 L 111.058594 213.023438 L 91.058594 213.023438 L 91.058594 193.023438 L 81.058594 193.023438 L 81.058594 213.023438 "/>
<path style="fill-rule:nonzero;fill:rgb(100%,0%,0%);fill-opacity:1;stroke-width:1;stroke-linecap:butt;stroke-linejoin:miter;stroke:rgb(0%,0%,0%);stroke-opacity:1;stroke-miterlimit:10;" d="M 172.984375 69.675781 L 152.984375 69.675781 L 152.984375 79.675781 L 172.984375 79.675781 L 172.984375 99.675781 L 182.984375 99.675781 L 182.984375 79.675781 L 202.984375 79.675781 L 202.984375 69.675781 L 182.984375 69.675781 L 182.984375 49.675781 L 172.984375 49.675781 L 172.984375 69.675781 "/>
<path style="fill-rule:nonzero;fill:rgb(100%,0%,0%);fill-opacity:1;stroke-width:1;stroke-linecap:butt;stroke-linejoin:miter;stroke:rgb(0%,0%,0%);stroke-opacity:1;stroke-miterlimit:10;" d="M 58.003906 77.964844 L 38.003906 77.964844 L 38.003906 87.964844 L 58.003906 87.964844 L 58.003906 107.964844 L 68.003906 107.964844 L 68.003906 87.964844 L 88.003906 87.964844 L 88.003906 77.964844 L 68.003906 77.964844 L 68.003906 57.964844 L 58.003906 57.964844 L 58.003906 77.964844 "/>
<path style="fill-rule:nonzero;fill:rgb(100%,0%,0%);fill-opacity:1;stroke-width:1;stroke-linecap:butt;stroke-linejoin:miter;stroke:rgb(0%,0%,0%);stroke-opacity:1;stroke-miterlimit:10;" d="M 182.914062 202.355469 L 162.914062 202.355469 L 162.914062 212.355469 L 182.914062 212.355469 L 182.914062 232.355469 L 192.914062 232.355469 L 192.914062 212.355469 L 212.914062 212.355469 L 212.914062 202.355469 L 192.914062 202.355469 L 192.914062 182.355469 L 182.914062 182.355469 L 182.914062 202.355469 "/>
</g>
</svg>
