<?xml version="1.0" encoding="UTF-8"?>
<svg xmlns="http://www.w3.org/2000/svg" xmlns:xlink="http://www.w3.org/1999/xlink" width="517pt" height="517pt" viewBox="0 0 517 517" version="1.1">
<g id="surface6156">
<rect x="0" y="0" width="517" height="517" style="fill:rgb(90%,90%,90%);fill-opacity:1;stroke:none;"/>
<path style="fill-rule:nonzero;fill:rgb(90%,65%,0%);fill-opacity:1;stroke-width:1;stroke-linecap:butt;stroke-linejoin:miter;stroke:rgb(0%,0%,0%);stroke-opacity:1;stroke-miterlimit:10;" d="M 433.292969 215.5625 L 413.292969 215.5625 L 413.292969 225.5625 L 433.292969 225.5625 L 433.292969 245.5625 L 443.292969 245.5625 L 443.292969 225.5625 L 463.292969 225.5625 L 463.292969 215.5625 L 443.292969 215.5625 L 443.292969 195.5625 L 433.292969 195.5625 L 433.292969 215.5625 "/>
<path style="fill-rule:nonzero;fill:rgb(90%,65%,0%);fill-opacity:1;stroke-width:1;stroke-linecap:butt;stroke-linejoin:miter;stroke:rgb(0%,0%,0%);stroke-opacity:1;stroke-miterlimit:10;" d="M 308.816406 215.472656 L 288.816406 215.472656 L 288.816406 225.472656 L 308.816406 225.472656 L 308.816406 245.472656 L 318.816406 245.472656 L 318.816406 225.472656 L 338.816406 225.472656 L 338.816406 215.472656 L 318.816406 215.472656 L 318.816406 195.472656 L 308.816406 195.472656 L 308.816406 215.472656 "/>
<path style="fill-rule:nonzero;fill:rgb(90%,65%,0%);fill-opacity:1;stroke-width:1;stroke-linecap:butt;stroke-linejoin:miter;stroke:rgb(0%,0%,0%);stroke-opacity:1;stroke-miterlimit:10;" d="M 101.785156 427.761719 L 81.785156 427.761719 L 81.785156 437.761719 L 101.785156 437.761719 L 101.785156 457.761719 L 111.785156 457.761719 L 111.785156 437.761719 L 131.785156 437.761719 L 131.785156 427.761719 L 111.785156 427.761719 L 111.785156 407.761719 L 101.785156 407.761719 L 101.785156 427.761719 "/>
<path style="fill-rule:nonzero;fill:rgb(67%,100%,18%);fill-opacity:1;stroke-width:1;stroke-linecap:butt;stroke-linejoin:miter;stroke:rgb(0%,0%,0%);stroke-opacity:1;stroke-miterlimit:10;" d="M 200.363281 377.042969 L 180.363281 377.042969 L 180.363281 387.042969 L 200.363281 387.042969 L 200.363281 407.042969 L 210.363281 407.042969 L 210.363281 387.042969 L 230.363281 387.042969 L 230.363281 377.042969 L 210.363281 377.042969 L 210.363281 357.042969 L 200.363281 357.042969 L 200.363281 377.042969 "/>
<path style="fill-rule:nonzero;fill:rgb(67%,100%,18%);fill-opacity:1;stroke-width:1;stroke-linecap:butt;stroke-linejoin:miter;stroke:rgb(0%,0%,0%);stroke-opacity:1;stroke-miterlimit:10;" d="M 41.179688 286.5625 L 21.179688 286.5625 L 21.179688 296.5625 L 41.179688 296.5625 L 41.179688 316.5625 L 51.179688 316.5625 L 51.179688 296.5625 L 71.179688 296.5625 L 71.179688 286.5625 L 51.179688 286.5625 L 51.179688 266.5625 L 41.179688 266.5625 L 41.179688 286.5625 "/>
<path style="fill-rule:nonzero;fill:rgb(67%,100%,18%);fill-opacity:1;stroke-width:1;stroke-linecap:butt;stroke-linejoin:miter;stroke:rgb(0%,0%,0%);stroke-opacity:1;stroke-miterlimit:10;" d="M 51.894531 358.53125 L 31.894531 358.53125 L 31.894531 368.53125 L 51.894531 368.53125 L 51.894531 388.53125 L 61.894531 388.53125 L 61.894531 368.53125 L 81.894531 368.53125 L 81.894531 358.53125 L 61.894531 358.53125 L 61.894531 338.53125 L 51.894531 338.53125 L 51.894531 358.53125 "/>
<path style="fill-rule:nonzero;fill:rgb(67%,100%,18%);fill-opacity:1;stroke-width:1;stroke-linecap:butt;stroke-linejoin:miter;stroke:rgb(0%,0%,0%);stroke-opacity:1;stroke-miterlimit:10;" d="M 190.347656 313.152344 L 170.347656 313.152344 L 170.347656 323.152344 L 190.347656 323.152344 L 190.347656 343.152344 L 200.347656 343.152344 L 200.347656 323.152344 L 220.347656 323.152344 L 220.347656 313.152344 L 200.347656 313.152344 L 200.347656 293.152344 L 190.347656 293.152344 L 190.347656 313.152344 "/>
<path style="fill-rule:nonzero;fill:rgb(67%,100%,18%);fill-opacity:1;stroke-width:1;stroke-linecap:butt;stroke-linejoin:miter;stroke:rgb(0%,0%,0%);stroke-opacity:1;stroke-miterlimit:10;" d="M 204.695312 441.125 L 184.695312 441.125 L 184.695312 451.125 L 204.695312 451.125 L 204.695312 471.125 L 214.695312 471.125 L 214.695312 451.125 L 234.695312 451.125 L 234.695312 441.125 L 214.695312 441.125 L 214.695312 421.125 L 204.695312 421.125 L 204.695312 441.125 "/>
</g>
</svg>
