<?xml version="1.0" encoding="UTF-8"?>
<svg xmlns="http://www.w3.org/2000/svg" xmlns:xlink="http://www.w3.org/1999/xlink" width="517pt" height="517pt" viewBox="0 0 517 517" version="1.1">
<g id="surface1191">
<rect x="0" y="0" width="517" height="517" style="fill:rgb(90%,90%,90%);fill-opacity:1;stroke:none;"/>
<path style="fill:none;stroke-width:5;stroke-linecap:butt;stroke-linejoin:round;stroke:rgb(100%,0%,0%);stroke-opacity:1;stroke-miterlimit:10;" d="M 5 261 L 261 261 L 261 517 L 5 517 Z M 5 261 "/>
<path style="fill-rule:nonzero;fill:rgb(0%,0%,0%);fill-opacity:1;stroke-width:1;stroke-linecap:butt;stroke-linejoin:round;stroke:rgb(0%,0%,0%);stroke-opacity:1;stroke-miterlimit:10;" d="M 209.109375 406.671875 L 189.109375 406.671875 L 189.109375 416.671875 L 209.109375 416.671875 L 209.109375 436.671875 L 219.109375 436.671875 L 219.109375 416.671875 L 239.109375 416.671875 L 239.109375 406.671875 L 219.109375 406.671875 L 219.109375 386.671875 L 209.109375 386.671875 L 209.109375 406.671875 "/>
<path style="fill-rule:nonzero;fill:rgb(100%,0%,0%);fill-opacity:1;stroke-width:1;stroke-linecap:butt;stroke-linejoin:round;stroke:rgb(0%,0%,0%);stroke-opacity:1;stroke-miterlimit:10;" d="M 432.019531 297.394531 L 412.019531 297.394531 L 412.019531 307.394531 L 432.019531 307.394531 L 432.019531 327.394531 L 442.019531 327.394531 L 442.019531 307.394531 L 462.019531 307.394531 L 462.019531 297.394531 L 442.019531 297.394531 L 442.019531 277.394531 L 432.019531 277.394531 L 432.019531 297.394531 "/>
<path style="fill-rule:nonzero;fill:rgb(35%,70%,90%);fill-opacity:1;stroke-width:1;stroke-linecap:butt;stroke-linejoin:round;stroke:rgb(0%,0%,0%);stroke-opacity:1;stroke-miterlimit:10;" d="M 36.132812 129.726562 L 16.132812 129.726562 L 16.132812 139.726562 L 36.132812 139.726562 L 36.132812 159.726562 L 46.132812 159.726562 L 46.132812 139.726562 L 66.132812 139.726562 L 66.132812 129.726562 L 46.132812 129.726562 L 46.132812 109.726562 L 36.132812 109.726562 L 36.132812 129.726562 "/>
<path style="fill-rule:nonzero;fill:rgb(35%,70%,90%);fill-opacity:1;stroke-width:1;stroke-linecap:butt;stroke-linejoin:round;stroke:rgb(0%,0%,0%);stroke-opacity:1;stroke-miterlimit:10;" d="M 111.082031 48.722656 L 91.082031 48.722656 L 91.082031 58.722656 L 111.082031 58.722656 L 111.082031 78.722656 L 121.082031 78.722656 L 121.082031 58.722656 L 141.082031 58.722656 L 141.082031 48.722656 L 121.082031 48.722656 L 121.082031 28.722656 L 111.082031 28.722656 L 111.082031 48.722656 "/>
</g>
</svg>
