<?xml version="1.0" encoding="UTF-8"?>
<svg xmlns="http://www.w3.org/2000/svg" xmlns:xlink="http://www.w3.org/1999/xlink" width="517pt" height="517pt" viewBox="0 0 517 517" version="1.1">
<g id="surface976">
<rect x="0" y="0" width="517" height="517" style="fill:rgb(90%,90%,90%);fill-opacity:1;stroke:none;"/>
<path style="fill:none;stroke-width:5;stroke-linecap:butt;stroke-linejoin:round;stroke:rgb(100%,0%,0%);stroke-opacity:1;stroke-miterlimit:10;" d="M 5 261 L 261 261 L 261 517 L 5 517 Z M 5 261 "/>
<path style="fill-rule:nonzero;fill:rgb(50%,0%,50%);fill-opacity:1;stroke-width:1;stroke-linecap:butt;stroke-linejoin:round;stroke:rgb(0%,0%,0%);stroke-opacity:1;stroke-miterlimit:10;" d="M 128.207031 463.214844 C 128.207031 479.78125 114.777344 493.214844 98.207031 493.214844 C 81.640625 493.214844 68.207031 479.78125 68.207031 463.214844 C 68.207031 446.644531 81.640625 433.214844 98.207031 433.214844 C 114.777344 433.214844 128.207031 446.644531 128.207031 463.214844 "/>
<path style="fill-rule:nonzero;fill:rgb(53%,27%,7%);fill-opacity:1;stroke-width:1;stroke-linecap:butt;stroke-linejoin:round;stroke:rgb(0%,0%,0%);stroke-opacity:1;stroke-miterlimit:10;" d="M 399.078125 146.371094 C 399.078125 162.941406 385.648438 176.371094 369.078125 176.371094 C 352.511719 176.371094 339.078125 162.941406 339.078125 146.371094 C 339.078125 129.800781 352.511719 116.371094 369.078125 116.371094 C 385.648438 116.371094 399.078125 129.800781 399.078125 146.371094 "/>
<path style="fill-rule:nonzero;fill:rgb(53%,27%,7%);fill-opacity:1;stroke-width:1;stroke-linecap:butt;stroke-linejoin:round;stroke:rgb(0%,0%,0%);stroke-opacity:1;stroke-miterlimit:10;" d="M 364.558594 321.835938 C 364.558594 338.40625 351.125 351.835938 334.558594 351.835938 C 317.988281 351.835938 304.558594 338.40625 304.558594 321.835938 C 304.558594 305.269531 317.988281 291.835938 334.558594 291.835938 C 351.125 291.835938 364.558594 305.269531 364.558594 321.835938 "/>
<path style="fill-rule:nonzero;fill:rgb(53%,27%,7%);fill-opacity:1;stroke-width:1;stroke-linecap:butt;stroke-linejoin:round;stroke:rgb(0%,0%,0%);stroke-opacity:1;stroke-miterlimit:10;" d="M 119.683594 166.210938 C 119.683594 182.78125 106.253906 196.210938 89.683594 196.210938 C 73.117188 196.210938 59.683594 182.78125 59.683594 166.210938 C 59.683594 149.644531 73.117188 136.210938 89.683594 136.210938 C 106.253906 136.210938 119.683594 149.644531 119.683594 166.210938 "/>
</g>
</svg>
