<?xml version="1.0" encoding="UTF-8"?>
<svg xmlns="http://www.w3.org/2000/svg" xmlns:xlink="http://www.w3.org/1999/xlink" width="517pt" height="517pt" viewBox="0 0 517 517" version="1.1">
<g id="surface1091">
<rect x="0" y="0" width="517" height="517" style="fill:rgb(90%,90%,90%);fill-opacity:1;stroke:none;"/>
<path style="fill:none;stroke-width:5;stroke-linecap:butt;stroke-linejoin:round;stroke:rgb(100%,0%,0%);stroke-opacity:1;stroke-miterlimit:10;" d="M 5 261 L 261 261 L 261 517 L 5 517 Z M 5 261 "/>
<path style="fill-rule:nonzero;fill:rgb(100%,0%,0%);fill-opacity:1;stroke-width:1;stroke-linecap:butt;stroke-linejoin:round;stroke:rgb(0%,0%,0%);stroke-opacity:1;stroke-miterlimit:10;" d="M 175.683594 381.101562 C 175.683594 366.699219 151.683594 366.699219 151.683594 381.101562 C 151.683594 395.5 175.683594 397.902344 175.683594 409.902344 C 175.683594 397.902344 199.683594 395.5 199.683594 381.101562 C 199.683594 366.699219 175.683594 366.699219 175.683594 381.101562 "/>
<path style="fill-rule:nonzero;fill:rgb(35%,70%,90%);fill-opacity:1;stroke-width:1;stroke-linecap:butt;stroke-linejoin:round;stroke:rgb(0%,0%,0%);stroke-opacity:1;stroke-miterlimit:10;" d="M 351.496094 134.589844 C 351.496094 120.191406 327.496094 120.191406 327.496094 134.589844 C 327.496094 148.992188 351.496094 151.390625 351.496094 163.390625 C 351.496094 151.390625 375.496094 148.992188 375.496094 134.589844 C 375.496094 120.191406 351.496094 120.191406 351.496094 134.589844 "/>
<path style="fill-rule:nonzero;fill:rgb(100%,0%,0%);fill-opacity:1;stroke-width:1;stroke-linecap:butt;stroke-linejoin:round;stroke:rgb(0%,0%,0%);stroke-opacity:1;stroke-miterlimit:10;" d="M 186.933594 38.59375 C 186.933594 24.191406 162.933594 24.191406 162.933594 38.59375 C 162.933594 52.992188 186.933594 55.394531 186.933594 67.394531 C 186.933594 55.394531 210.933594 52.992188 210.933594 38.59375 C 210.933594 24.191406 186.933594 24.191406 186.933594 38.59375 "/>
<path style="fill-rule:nonzero;fill:rgb(100%,0%,0%);fill-opacity:1;stroke-width:1;stroke-linecap:butt;stroke-linejoin:round;stroke:rgb(0%,0%,0%);stroke-opacity:1;stroke-miterlimit:10;" d="M 448.746094 319.429688 C 448.746094 305.027344 424.746094 305.027344 424.746094 319.429688 C 424.746094 333.828125 448.746094 336.226562 448.746094 348.226562 C 448.746094 336.226562 472.746094 333.828125 472.746094 319.429688 C 472.746094 305.027344 448.746094 305.027344 448.746094 319.429688 "/>
</g>
</svg>
