<?xml version="1.0" encoding="UTF-8"?>
<svg xmlns="http://www.w3.org/2000/svg" xmlns:xlink="http://www.w3.org/1999/xlink" width="517pt" height="517pt" viewBox="0 0 517 517" version="1.1">
<g id="surface791">
<rect x="0" y="0" width="517" height="517" style="fill:rgb(90%,90%,90%);fill-opacity:1;stroke:none;"/>
<path style="fill:none;stroke-width:5;stroke-linecap:butt;stroke-linejoin:round;stroke:rgb(100%,0%,0%);stroke-opacity:1;stroke-miterlimit:10;" d="M 261 5 L 517 5 L 517 261 L 261 261 Z M 261 5 "/>
<path style="fill-rule:nonzero;fill:rgb(100%,100%,0%);fill-opacity:1;stroke-width:1;stroke-linecap:butt;stroke-linejoin:round;stroke:rgb(0%,0%,0%);stroke-opacity:1;stroke-miterlimit:10;" d="M 338.855469 100.238281 L 318.855469 100.238281 L 318.855469 110.238281 L 338.855469 110.238281 L 338.855469 130.238281 L 348.855469 130.238281 L 348.855469 110.238281 L 368.855469 110.238281 L 368.855469 100.238281 L 348.855469 100.238281 L 348.855469 80.238281 L 338.855469 80.238281 L 338.855469 100.238281 "/>
<path style="fill-rule:nonzero;fill:rgb(100%,100%,0%);fill-opacity:1;stroke-width:1;stroke-linecap:butt;stroke-linejoin:round;stroke:rgb(0%,0%,0%);stroke-opacity:1;stroke-miterlimit:10;" d="M 205.804688 65.929688 L 185.804688 65.929688 L 185.804688 75.929688 L 205.804688 75.929688 L 205.804688 95.929688 L 215.804688 95.929688 L 215.804688 75.929688 L 235.804688 75.929688 L 235.804688 65.929688 L 215.804688 65.929688 L 215.804688 45.929688 L 205.804688 45.929688 L 205.804688 65.929688 "/>
<path style="fill-rule:nonzero;fill:rgb(25%,88%,82%);fill-opacity:1;stroke-width:1;stroke-linecap:butt;stroke-linejoin:round;stroke:rgb(0%,0%,0%);stroke-opacity:1;stroke-miterlimit:10;" d="M 145.453125 133.722656 L 125.453125 133.722656 L 125.453125 143.722656 L 145.453125 143.722656 L 145.453125 163.722656 L 155.453125 163.722656 L 155.453125 143.722656 L 175.453125 143.722656 L 175.453125 133.722656 L 155.453125 133.722656 L 155.453125 113.722656 L 145.453125 113.722656 L 145.453125 133.722656 "/>
<path style="fill-rule:nonzero;fill:rgb(25%,88%,82%);fill-opacity:1;stroke-width:1;stroke-linecap:butt;stroke-linejoin:round;stroke:rgb(0%,0%,0%);stroke-opacity:1;stroke-miterlimit:10;" d="M 36.929688 460.457031 L 16.929688 460.457031 L 16.929688 470.457031 L 36.929688 470.457031 L 36.929688 490.457031 L 46.929688 490.457031 L 46.929688 470.457031 L 66.929688 470.457031 L 66.929688 460.457031 L 46.929688 460.457031 L 46.929688 440.457031 L 36.929688 440.457031 L 36.929688 460.457031 "/>
</g>
</svg>
