<?xml version="1.0" encoding="UTF-8"?>
<svg xmlns="http://www.w3.org/2000/svg" xmlns:xlink="http://www.w3.org/1999/xlink" width="517pt" height="517pt" viewBox="0 0 517 517" version="1.1">
<g id="surface756">
<rect x="0" y="0" width="517" height="517" style="fill:rgb(90%,90%,90%);fill-opacity:1;stroke:none;"/>
<path style="fill:none;stroke-width:5;stroke-linecap:butt;stroke-linejoin:round;stroke:rgb(100%,0%,0%);stroke-opacity:1;stroke-miterlimit:10;" d="M 261 5 L 517 5 L 517 261 L 261 261 Z M 261 5 "/>
<path style="fill-rule:nonzero;fill:rgb(25%,88%,82%);fill-opacity:1;stroke-width:1;stroke-linecap:butt;stroke-linejoin:round;stroke:rgb(0%,0%,0%);stroke-opacity:1;stroke-miterlimit:10;" d="M 318.597656 207.144531 L 298.597656 207.144531 L 298.597656 217.144531 L 318.597656 217.144531 L 318.597656 237.144531 L 328.597656 237.144531 L 328.597656 217.144531 L 348.597656 217.144531 L 348.597656 207.144531 L 328.597656 207.144531 L 328.597656 187.144531 L 318.597656 187.144531 L 318.597656 207.144531 "/>
<path style="fill-rule:nonzero;fill:rgb(100%,100%,0%);fill-opacity:1;stroke-width:1;stroke-linecap:butt;stroke-linejoin:round;stroke:rgb(0%,0%,0%);stroke-opacity:1;stroke-miterlimit:10;" d="M 32.679688 306.503906 L 12.679688 306.503906 L 12.679688 316.503906 L 32.679688 316.503906 L 32.679688 336.503906 L 42.679688 336.503906 L 42.679688 316.503906 L 62.679688 316.503906 L 62.679688 306.503906 L 42.679688 306.503906 L 42.679688 286.503906 L 32.679688 286.503906 L 32.679688 306.503906 "/>
<path style="fill-rule:nonzero;fill:rgb(100%,100%,0%);fill-opacity:1;stroke-width:1;stroke-linecap:butt;stroke-linejoin:round;stroke:rgb(0%,0%,0%);stroke-opacity:1;stroke-miterlimit:10;" d="M 386.105469 401.09375 L 366.105469 401.09375 L 366.105469 411.09375 L 386.105469 411.09375 L 386.105469 431.09375 L 396.105469 431.09375 L 396.105469 411.09375 L 416.105469 411.09375 L 416.105469 401.09375 L 396.105469 401.09375 L 396.105469 381.09375 L 386.105469 381.09375 L 386.105469 401.09375 "/>
<path style="fill-rule:nonzero;fill:rgb(25%,88%,82%);fill-opacity:1;stroke-width:1;stroke-linecap:butt;stroke-linejoin:round;stroke:rgb(0%,0%,0%);stroke-opacity:1;stroke-miterlimit:10;" d="M 306.796875 438.878906 L 286.796875 438.878906 L 286.796875 448.878906 L 306.796875 448.878906 L 306.796875 468.878906 L 316.796875 468.878906 L 316.796875 448.878906 L 336.796875 448.878906 L 336.796875 438.878906 L 316.796875 438.878906 L 316.796875 418.878906 L 306.796875 418.878906 L 306.796875 438.878906 "/>
</g>
</svg>
