<?xml version="1.0" encoding="UTF-8"?>
<svg xmlns="http://www.w3.org/2000/svg" xmlns:xlink="http://www.w3.org/1999/xlink" width="517pt" height="517pt" viewBox="0 0 517 517" version="1.1">
<g id="surface1166">
<rect x="0" y="0" width="517" height="517" style="fill:rgb(90%,90%,90%);fill-opacity:1;stroke:none;"/>
<path style="fill:none;stroke-width:5;stroke-linecap:butt;stroke-linejoin:round;stroke:rgb(100%,0%,0%);stroke-opacity:1;stroke-miterlimit:10;" d="M 5 261 L 261 261 L 261 517 L 5 517 Z M 5 261 "/>
<path style="fill-rule:nonzero;fill:rgb(35%,70%,90%);fill-opacity:1;stroke-width:1;stroke-linecap:butt;stroke-linejoin:round;stroke:rgb(0%,0%,0%);stroke-opacity:1;stroke-miterlimit:10;" d="M 127.535156 295.464844 L 107.535156 295.464844 L 107.535156 305.464844 L 127.535156 305.464844 L 127.535156 325.464844 L 137.535156 325.464844 L 137.535156 305.464844 L 157.535156 305.464844 L 157.535156 295.464844 L 137.535156 295.464844 L 137.535156 275.464844 L 127.535156 275.464844 L 127.535156 295.464844 "/>
<path style="fill-rule:nonzero;fill:rgb(100%,0%,0%);fill-opacity:1;stroke-width:1;stroke-linecap:butt;stroke-linejoin:round;stroke:rgb(0%,0%,0%);stroke-opacity:1;stroke-miterlimit:10;" d="M 185.75 77.613281 L 165.75 77.613281 L 165.75 87.613281 L 185.75 87.613281 L 185.75 107.613281 L 195.75 107.613281 L 195.75 87.613281 L 215.75 87.613281 L 215.75 77.613281 L 195.75 77.613281 L 195.75 57.613281 L 185.75 57.613281 L 185.75 77.613281 "/>
<path style="fill-rule:nonzero;fill:rgb(35%,70%,90%);fill-opacity:1;stroke-width:1;stroke-linecap:butt;stroke-linejoin:round;stroke:rgb(0%,0%,0%);stroke-opacity:1;stroke-miterlimit:10;" d="M 113.585938 146.703125 L 93.585938 146.703125 L 93.585938 156.703125 L 113.585938 156.703125 L 113.585938 176.703125 L 123.585938 176.703125 L 123.585938 156.703125 L 143.585938 156.703125 L 143.585938 146.703125 L 123.585938 146.703125 L 123.585938 126.703125 L 113.585938 126.703125 L 113.585938 146.703125 "/>
<path style="fill-rule:nonzero;fill:rgb(35%,70%,90%);fill-opacity:1;stroke-width:1;stroke-linecap:butt;stroke-linejoin:round;stroke:rgb(0%,0%,0%);stroke-opacity:1;stroke-miterlimit:10;" d="M 344.15625 112.972656 L 324.15625 112.972656 L 324.15625 122.972656 L 344.15625 122.972656 L 344.15625 142.972656 L 354.15625 142.972656 L 354.15625 122.972656 L 374.15625 122.972656 L 374.15625 112.972656 L 354.15625 112.972656 L 354.15625 92.972656 L 344.15625 92.972656 L 344.15625 112.972656 "/>
</g>
</svg>
