<?xml version="1.0" encoding="UTF-8"?>
<svg xmlns="http://www.w3.org/2000/svg" xmlns:xlink="http://www.w3.org/1999/xlink" width="517pt" height="517pt" viewBox="0 0 517 517" version="1.1">
<g id="surface6086">
<rect x="0" y="0" width="517" height="517" style="fill:rgb(90%,90%,90%);fill-opacity:1;stroke:none;"/>
<path style="fill-rule:nonzero;fill:rgb(67%,100%,18%);fill-opacity:1;stroke-width:1;stroke-linecap:butt;stroke-linejoin:miter;stroke:rgb(0%,0%,0%);stroke-opacity:1;stroke-miterlimit:10;" d="M 392.664062 58.851562 L 372.664062 58.851562 L 372.664062 68.851562 L 392.664062 68.851562 L 392.664062 88.851562 L 402.664062 88.851562 L 402.664062 68.851562 L 422.664062 68.851562 L 422.664062 58.851562 L 402.664062 58.851562 L 402.664062 38.851562 L 392.664062 38.851562 L 392.664062 58.851562 "/>
<path style="fill-rule:nonzero;fill:rgb(67%,100%,18%);fill-opacity:1;stroke-width:1;stroke-linecap:butt;stroke-linejoin:miter;stroke:rgb(0%,0%,0%);stroke-opacity:1;stroke-miterlimit:10;" d="M 54.917969 461.453125 L 34.917969 461.453125 L 34.917969 471.453125 L 54.917969 471.453125 L 54.917969 491.453125 L 64.917969 491.453125 L 64.917969 471.453125 L 84.917969 471.453125 L 84.917969 461.453125 L 64.917969 461.453125 L 64.917969 441.453125 L 54.917969 441.453125 L 54.917969 461.453125 "/>
<path style="fill-rule:nonzero;fill:rgb(67%,100%,18%);fill-opacity:1;stroke-width:1;stroke-linecap:butt;stroke-linejoin:miter;stroke:rgb(0%,0%,0%);stroke-opacity:1;stroke-miterlimit:10;" d="M 114.292969 450.925781 L 94.292969 450.925781 L 94.292969 460.925781 L 114.292969 460.925781 L 114.292969 480.925781 L 124.292969 480.925781 L 124.292969 460.925781 L 144.292969 460.925781 L 144.292969 450.925781 L 124.292969 450.925781 L 124.292969 430.925781 L 114.292969 430.925781 L 114.292969 450.925781 "/>
<path style="fill-rule:nonzero;fill:rgb(67%,100%,18%);fill-opacity:1;stroke-width:1;stroke-linecap:butt;stroke-linejoin:miter;stroke:rgb(0%,0%,0%);stroke-opacity:1;stroke-miterlimit:10;" d="M 146.027344 393.019531 L 126.027344 393.019531 L 126.027344 403.019531 L 146.027344 403.019531 L 146.027344 423.019531 L 156.027344 423.019531 L 156.027344 403.019531 L 176.027344 403.019531 L 176.027344 393.019531 L 156.027344 393.019531 L 156.027344 373.019531 L 146.027344 373.019531 L 146.027344 393.019531 "/>
<path style="fill-rule:nonzero;fill:rgb(67%,100%,18%);fill-opacity:1;stroke-width:1;stroke-linecap:butt;stroke-linejoin:miter;stroke:rgb(0%,0%,0%);stroke-opacity:1;stroke-miterlimit:10;" d="M 138.359375 301.445312 L 118.359375 301.445312 L 118.359375 311.445312 L 138.359375 311.445312 L 138.359375 331.445312 L 148.359375 331.445312 L 148.359375 311.445312 L 168.359375 311.445312 L 168.359375 301.445312 L 148.359375 301.445312 L 148.359375 281.445312 L 138.359375 281.445312 L 138.359375 301.445312 "/>
<path style="fill-rule:nonzero;fill:rgb(67%,100%,18%);fill-opacity:1;stroke-width:1;stroke-linecap:butt;stroke-linejoin:miter;stroke:rgb(0%,0%,0%);stroke-opacity:1;stroke-miterlimit:10;" d="M 198.621094 312.144531 L 178.621094 312.144531 L 178.621094 322.144531 L 198.621094 322.144531 L 198.621094 342.144531 L 208.621094 342.144531 L 208.621094 322.144531 L 228.621094 322.144531 L 228.621094 312.144531 L 208.621094 312.144531 L 208.621094 292.144531 L 198.621094 292.144531 L 198.621094 312.144531 "/>
<path style="fill-rule:nonzero;fill:rgb(67%,100%,18%);fill-opacity:1;stroke-width:1;stroke-linecap:butt;stroke-linejoin:miter;stroke:rgb(0%,0%,0%);stroke-opacity:1;stroke-miterlimit:10;" d="M 118.65625 41.019531 L 98.65625 41.019531 L 98.65625 51.019531 L 118.65625 51.019531 L 118.65625 71.019531 L 128.65625 71.019531 L 128.65625 51.019531 L 148.65625 51.019531 L 148.65625 41.019531 L 128.65625 41.019531 L 128.65625 21.019531 L 118.65625 21.019531 L 118.65625 41.019531 "/>
<path style="fill-rule:nonzero;fill:rgb(67%,100%,18%);fill-opacity:1;stroke-width:1;stroke-linecap:butt;stroke-linejoin:miter;stroke:rgb(0%,0%,0%);stroke-opacity:1;stroke-miterlimit:10;" d="M 39.523438 54.132812 L 19.523438 54.132812 L 19.523438 64.132812 L 39.523438 64.132812 L 39.523438 84.132812 L 49.523438 84.132812 L 49.523438 64.132812 L 69.523438 64.132812 L 69.523438 54.132812 L 49.523438 54.132812 L 49.523438 34.132812 L 39.523438 34.132812 L 39.523438 54.132812 "/>
</g>
</svg>
