<?xml version="1.0" encoding="UTF-8"?>
<svg xmlns="http://www.w3.org/2000/svg" xmlns:xlink="http://www.w3.org/1999/xlink" width="517pt" height="517pt" viewBox="0 0 517 517" version="1.1">
<g id="surface6286">
<rect x="0" y="0" width="517" height="517" style="fill:rgb(90%,90%,90%);fill-opacity:1;stroke:none;"/>
<path style="fill-rule:nonzero;fill:rgb(67%,100%,18%);fill-opacity:1;stroke-width:1;stroke-linecap:butt;stroke-linejoin:miter;stroke:rgb(0%,0%,0%);stroke-opacity:1;stroke-miterlimit:10;" d="M 439.816406 333.53125 L 419.816406 333.53125 L 419.816406 343.53125 L 439.816406 343.53125 L 439.816406 363.53125 L 449.816406 363.53125 L 449.816406 343.53125 L 469.816406 343.53125 L 469.816406 333.53125 L 449.816406 333.53125 L 449.816406 313.53125 L 439.816406 313.53125 L 439.816406 333.53125 "/>
<path style="fill-rule:nonzero;fill:rgb(67%,100%,18%);fill-opacity:1;stroke-width:1;stroke-linecap:butt;stroke-linejoin:miter;stroke:rgb(0%,0%,0%);stroke-opacity:1;stroke-miterlimit:10;" d="M 209.5625 465.449219 L 189.5625 465.449219 L 189.5625 475.449219 L 209.5625 475.449219 L 209.5625 495.449219 L 219.5625 495.449219 L 219.5625 475.449219 L 239.5625 475.449219 L 239.5625 465.449219 L 219.5625 465.449219 L 219.5625 445.449219 L 209.5625 445.449219 L 209.5625 465.449219 "/>
<path style="fill-rule:nonzero;fill:rgb(67%,100%,18%);fill-opacity:1;stroke-width:1;stroke-linecap:butt;stroke-linejoin:miter;stroke:rgb(0%,0%,0%);stroke-opacity:1;stroke-miterlimit:10;" d="M 157.597656 396.527344 L 137.597656 396.527344 L 137.597656 406.527344 L 157.597656 406.527344 L 157.597656 426.527344 L 167.597656 426.527344 L 167.597656 406.527344 L 187.597656 406.527344 L 187.597656 396.527344 L 167.597656 396.527344 L 167.597656 376.527344 L 157.597656 376.527344 L 157.597656 396.527344 "/>
<path style="fill-rule:nonzero;fill:rgb(67%,100%,18%);fill-opacity:1;stroke-width:1;stroke-linecap:butt;stroke-linejoin:miter;stroke:rgb(0%,0%,0%);stroke-opacity:1;stroke-miterlimit:10;" d="M 133.347656 204.214844 L 113.347656 204.214844 L 113.347656 214.214844 L 133.347656 214.214844 L 133.347656 234.214844 L 143.347656 234.214844 L 143.347656 214.214844 L 163.347656 214.214844 L 163.347656 204.214844 L 143.347656 204.214844 L 143.347656 184.214844 L 133.347656 184.214844 L 133.347656 204.214844 "/>
<path style="fill-rule:nonzero;fill:rgb(67%,100%,18%);fill-opacity:1;stroke-width:1;stroke-linecap:butt;stroke-linejoin:miter;stroke:rgb(0%,0%,0%);stroke-opacity:1;stroke-miterlimit:10;" d="M 52.257812 177.972656 L 32.257812 177.972656 L 32.257812 187.972656 L 52.257812 187.972656 L 52.257812 207.972656 L 62.257812 207.972656 L 62.257812 187.972656 L 82.257812 187.972656 L 82.257812 177.972656 L 62.257812 177.972656 L 62.257812 157.972656 L 52.257812 157.972656 L 52.257812 177.972656 "/>
<path style="fill-rule:nonzero;fill:rgb(67%,100%,18%);fill-opacity:1;stroke-width:1;stroke-linecap:butt;stroke-linejoin:miter;stroke:rgb(0%,0%,0%);stroke-opacity:1;stroke-miterlimit:10;" d="M 211.464844 165.304688 L 191.464844 165.304688 L 191.464844 175.304688 L 211.464844 175.304688 L 211.464844 195.304688 L 221.464844 195.304688 L 221.464844 175.304688 L 241.464844 175.304688 L 241.464844 165.304688 L 221.464844 165.304688 L 221.464844 145.304688 L 211.464844 145.304688 L 211.464844 165.304688 "/>
<path style="fill-rule:nonzero;fill:rgb(67%,100%,18%);fill-opacity:1;stroke-width:1;stroke-linecap:butt;stroke-linejoin:miter;stroke:rgb(0%,0%,0%);stroke-opacity:1;stroke-miterlimit:10;" d="M 90.789062 97.332031 L 70.789062 97.332031 L 70.789062 107.332031 L 90.789062 107.332031 L 90.789062 127.332031 L 100.789062 127.332031 L 100.789062 107.332031 L 120.789062 107.332031 L 120.789062 97.332031 L 100.789062 97.332031 L 100.789062 77.332031 L 90.789062 77.332031 L 90.789062 97.332031 "/>
<path style="fill-rule:nonzero;fill:rgb(67%,100%,18%);fill-opacity:1;stroke-width:1;stroke-linecap:butt;stroke-linejoin:miter;stroke:rgb(0%,0%,0%);stroke-opacity:1;stroke-miterlimit:10;" d="M 31.902344 38.800781 L 11.902344 38.800781 L 11.902344 48.800781 L 31.902344 48.800781 L 31.902344 68.800781 L 41.902344 68.800781 L 41.902344 48.800781 L 61.902344 48.800781 L 61.902344 38.800781 L 41.902344 38.800781 L 41.902344 18.800781 L 31.902344 18.800781 L 31.902344 38.800781 "/>
</g>
</svg>
