<?xml version="1.0" encoding="UTF-8"?>
<svg xmlns="http://www.w3.org/2000/svg" xmlns:xlink="http://www.w3.org/1999/xlink" width="517pt" height="517pt" viewBox="0 0 517 517" version="1.1">
<g id="surface5926">
<rect x="0" y="0" width="517" height="517" style="fill:rgb(90%,90%,90%);fill-opacity:1;stroke:none;"/>
<path style="fill-rule:nonzero;fill:rgb(100%,100%,0%);fill-opacity:1;stroke-width:1;stroke-linecap:butt;stroke-linejoin:miter;stroke:rgb(0%,0%,0%);stroke-opacity:1;stroke-miterlimit:10;" d="M 197.40625 53.445312 L 177.40625 53.445312 L 177.40625 63.445312 L 197.40625 63.445312 L 197.40625 83.445312 L 207.40625 83.445312 L 207.40625 63.445312 L 227.40625 63.445312 L 227.40625 53.445312 L 207.40625 53.445312 L 207.40625 33.445312 L 197.40625 33.445312 L 197.40625 53.445312 "/>
<path style="fill-rule:nonzero;fill:rgb(100%,100%,0%);fill-opacity:1;stroke-width:1;stroke-linecap:butt;stroke-linejoin:miter;stroke:rgb(0%,0%,0%);stroke-opacity:1;stroke-miterlimit:10;" d="M 170.519531 342.980469 L 150.519531 342.980469 L 150.519531 352.980469 L 170.519531 352.980469 L 170.519531 372.980469 L 180.519531 372.980469 L 180.519531 352.980469 L 200.519531 352.980469 L 200.519531 342.980469 L 180.519531 342.980469 L 180.519531 322.980469 L 170.519531 322.980469 L 170.519531 342.980469 "/>
<path style="fill-rule:nonzero;fill:rgb(100%,100%,0%);fill-opacity:1;stroke-width:1;stroke-linecap:butt;stroke-linejoin:miter;stroke:rgb(0%,0%,0%);stroke-opacity:1;stroke-miterlimit:10;" d="M 403.554688 201.152344 L 383.554688 201.152344 L 383.554688 211.152344 L 403.554688 211.152344 L 403.554688 231.152344 L 413.554688 231.152344 L 413.554688 211.152344 L 433.554688 211.152344 L 433.554688 201.152344 L 413.554688 201.152344 L 413.554688 181.152344 L 403.554688 181.152344 L 403.554688 201.152344 "/>
<path style="fill-rule:nonzero;fill:rgb(100%,100%,0%);fill-opacity:1;stroke-width:1;stroke-linecap:butt;stroke-linejoin:miter;stroke:rgb(0%,0%,0%);stroke-opacity:1;stroke-miterlimit:10;" d="M 308.816406 92.941406 L 288.816406 92.941406 L 288.816406 102.941406 L 308.816406 102.941406 L 308.816406 122.941406 L 318.816406 122.941406 L 318.816406 102.941406 L 338.816406 102.941406 L 338.816406 92.941406 L 318.816406 92.941406 L 318.816406 72.941406 L 308.816406 72.941406 L 308.816406 92.941406 "/>
<path style="fill-rule:nonzero;fill:rgb(100%,100%,0%);fill-opacity:1;stroke-width:1;stroke-linecap:butt;stroke-linejoin:miter;stroke:rgb(0%,0%,0%);stroke-opacity:1;stroke-miterlimit:10;" d="M 447.726562 116.648438 L 427.726562 116.648438 L 427.726562 126.648438 L 447.726562 126.648438 L 447.726562 146.648438 L 457.726562 146.648438 L 457.726562 126.648438 L 477.726562 126.648438 L 477.726562 116.648438 L 457.726562 116.648438 L 457.726562 96.648438 L 447.726562 96.648438 L 447.726562 116.648438 "/>
<path style="fill-rule:nonzero;fill:rgb(100%,100%,0%);fill-opacity:1;stroke-width:1;stroke-linecap:butt;stroke-linejoin:miter;stroke:rgb(0%,0%,0%);stroke-opacity:1;stroke-miterlimit:10;" d="M 326.363281 182.492188 L 306.363281 182.492188 L 306.363281 192.492188 L 326.363281 192.492188 L 326.363281 212.492188 L 336.363281 212.492188 L 336.363281 192.492188 L 356.363281 192.492188 L 356.363281 182.492188 L 336.363281 182.492188 L 336.363281 162.492188 L 326.363281 162.492188 L 326.363281 182.492188 "/>
<path style="fill-rule:nonzero;fill:rgb(100%,100%,0%);fill-opacity:1;stroke-width:1;stroke-linecap:butt;stroke-linejoin:miter;stroke:rgb(0%,0%,0%);stroke-opacity:1;stroke-miterlimit:10;" d="M 410.1875 34.84375 L 390.1875 34.84375 L 390.1875 44.84375 L 410.1875 44.84375 L 410.1875 64.84375 L 420.1875 64.84375 L 420.1875 44.84375 L 440.1875 44.84375 L 440.1875 34.84375 L 420.1875 34.84375 L 420.1875 14.84375 L 410.1875 14.84375 L 410.1875 34.84375 "/>
<path style="fill-rule:nonzero;fill:rgb(100%,100%,0%);fill-opacity:1;stroke-width:1;stroke-linecap:butt;stroke-linejoin:miter;stroke:rgb(0%,0%,0%);stroke-opacity:1;stroke-miterlimit:10;" d="M 381.722656 100.675781 L 361.722656 100.675781 L 361.722656 110.675781 L 381.722656 110.675781 L 381.722656 130.675781 L 391.722656 130.675781 L 391.722656 110.675781 L 411.722656 110.675781 L 411.722656 100.675781 L 391.722656 100.675781 L 391.722656 80.675781 L 381.722656 80.675781 L 381.722656 100.675781 "/>
</g>
</svg>
