<?xml version="1.0" encoding="UTF-8"?>
<svg xmlns="http://www.w3.org/2000/svg" xmlns:xlink="http://www.w3.org/1999/xlink" width="517pt" height="517pt" viewBox="0 0 517 517" version="1.1">
<g id="surface1046">
<rect x="0" y="0" width="517" height="517" style="fill:rgb(90%,90%,90%);fill-opacity:1;stroke:none;"/>
<path style="fill:none;stroke-width:5;stroke-linecap:butt;stroke-linejoin:round;stroke:rgb(100%,0%,0%);stroke-opacity:1;stroke-miterlimit:10;" d="M 5 261 L 261 261 L 261 517 L 5 517 Z M 5 261 "/>
<path style="fill-rule:nonzero;fill:rgb(100%,0%,0%);fill-opacity:1;stroke-width:1;stroke-linecap:butt;stroke-linejoin:round;stroke:rgb(0%,0%,0%);stroke-opacity:1;stroke-miterlimit:10;" d="M 135.328125 429.167969 C 135.328125 414.765625 111.328125 414.765625 111.328125 429.167969 C 111.328125 443.566406 135.328125 445.96875 135.328125 457.96875 C 135.328125 445.96875 159.328125 443.566406 159.328125 429.167969 C 159.328125 414.765625 135.328125 414.765625 135.328125 429.167969 "/>
<path style="fill-rule:nonzero;fill:rgb(35%,70%,90%);fill-opacity:1;stroke-width:1;stroke-linecap:butt;stroke-linejoin:round;stroke:rgb(0%,0%,0%);stroke-opacity:1;stroke-miterlimit:10;" d="M 403.597656 340.855469 C 403.597656 326.457031 379.597656 326.457031 379.597656 340.855469 C 379.597656 355.257812 403.597656 357.65625 403.597656 369.65625 C 403.597656 357.65625 427.597656 355.257812 427.597656 340.855469 C 427.597656 326.457031 403.597656 326.457031 403.597656 340.855469 "/>
<path style="fill-rule:nonzero;fill:rgb(35%,70%,90%);fill-opacity:1;stroke-width:1;stroke-linecap:butt;stroke-linejoin:round;stroke:rgb(0%,0%,0%);stroke-opacity:1;stroke-miterlimit:10;" d="M 332.90625 364.238281 C 332.90625 349.839844 308.90625 349.839844 308.90625 364.238281 C 308.90625 378.640625 332.90625 381.039062 332.90625 393.039062 C 332.90625 381.039062 356.90625 378.640625 356.90625 364.238281 C 356.90625 349.839844 332.90625 349.839844 332.90625 364.238281 "/>
<path style="fill-rule:nonzero;fill:rgb(35%,70%,90%);fill-opacity:1;stroke-width:1;stroke-linecap:butt;stroke-linejoin:round;stroke:rgb(0%,0%,0%);stroke-opacity:1;stroke-miterlimit:10;" d="M 367.21875 144.570312 C 367.21875 130.167969 343.21875 130.167969 343.21875 144.570312 C 343.21875 158.96875 367.21875 161.367188 367.21875 173.367188 C 367.21875 161.367188 391.21875 158.96875 391.21875 144.570312 C 391.21875 130.167969 367.21875 130.167969 367.21875 144.570312 "/>
</g>
</svg>
