<?xml version="1.0" encoding="UTF-8"?>
<svg xmlns="http://www.w3.org/2000/svg" xmlns:xlink="http://www.w3.org/1999/xlink" width="517pt" height="517pt" viewBox="0 0 517 517" version="1.1">
<g id="surface761">
<rect x="0" y="0" width="517" height="517" style="fill:rgb(90%,90%,90%);fill-opacity:1;stroke:none;"/>
<path style="fill:none;stroke-width:5;stroke-linecap:butt;stroke-linejoin:round;stroke:rgb(100%,0%,0%);stroke-opacity:1;stroke-miterlimit:10;" d="M 261 5 L 517 5 L 517 261 L 261 261 Z M 261 5 "/>
<path style="fill-rule:nonzero;fill:rgb(25%,88%,82%);fill-opacity:1;stroke-width:1;stroke-linecap:butt;stroke-linejoin:round;stroke:rgb(0%,0%,0%);stroke-opacity:1;stroke-miterlimit:10;" d="M 411.300781 173.203125 L 391.300781 173.203125 L 391.300781 183.203125 L 411.300781 183.203125 L 411.300781 203.203125 L 421.300781 203.203125 L 421.300781 183.203125 L 441.300781 183.203125 L 441.300781 173.203125 L 421.300781 173.203125 L 421.300781 153.203125 L 411.300781 153.203125 L 411.300781 173.203125 "/>
<path style="fill-rule:nonzero;fill:rgb(100%,100%,0%);fill-opacity:1;stroke-width:1;stroke-linecap:butt;stroke-linejoin:round;stroke:rgb(0%,0%,0%);stroke-opacity:1;stroke-miterlimit:10;" d="M 93.726562 129.238281 L 73.726562 129.238281 L 73.726562 139.238281 L 93.726562 139.238281 L 93.726562 159.238281 L 103.726562 159.238281 L 103.726562 139.238281 L 123.726562 139.238281 L 123.726562 129.238281 L 103.726562 129.238281 L 103.726562 109.238281 L 93.726562 109.238281 L 93.726562 129.238281 "/>
<path style="fill-rule:nonzero;fill:rgb(25%,88%,82%);fill-opacity:1;stroke-width:1;stroke-linecap:butt;stroke-linejoin:round;stroke:rgb(0%,0%,0%);stroke-opacity:1;stroke-miterlimit:10;" d="M 145.300781 32.84375 L 125.300781 32.84375 L 125.300781 42.84375 L 145.300781 42.84375 L 145.300781 62.84375 L 155.300781 62.84375 L 155.300781 42.84375 L 175.300781 42.84375 L 175.300781 32.84375 L 155.300781 32.84375 L 155.300781 12.84375 L 145.300781 12.84375 L 145.300781 32.84375 "/>
<path style="fill-rule:nonzero;fill:rgb(25%,88%,82%);fill-opacity:1;stroke-width:1;stroke-linecap:butt;stroke-linejoin:round;stroke:rgb(0%,0%,0%);stroke-opacity:1;stroke-miterlimit:10;" d="M 434.355469 378.058594 L 414.355469 378.058594 L 414.355469 388.058594 L 434.355469 388.058594 L 434.355469 408.058594 L 444.355469 408.058594 L 444.355469 388.058594 L 464.355469 388.058594 L 464.355469 378.058594 L 444.355469 378.058594 L 444.355469 358.058594 L 434.355469 358.058594 L 434.355469 378.058594 "/>
</g>
</svg>
