<?xml version="1.0" encoding="UTF-8"?>
<svg xmlns="http://www.w3.org/2000/svg" xmlns:xlink="http://www.w3.org/1999/xlink" width="517pt" height="517pt" viewBox="0 0 517 517" version="1.1">
<g id="surface1071">
<rect x="0" y="0" width="517" height="517" style="fill:rgb(90%,90%,90%);fill-opacity:1;stroke:none;"/>
<path style="fill:none;stroke-width:5;stroke-linecap:butt;stroke-linejoin:round;stroke:rgb(100%,0%,0%);stroke-opacity:1;stroke-miterlimit:10;" d="M 5 261 L 261 261 L 261 517 L 5 517 Z M 5 261 "/>
<path style="fill-rule:nonzero;fill:rgb(100%,0%,0%);fill-opacity:1;stroke-width:1;stroke-linecap:butt;stroke-linejoin:round;stroke:rgb(0%,0%,0%);stroke-opacity:1;stroke-miterlimit:10;" d="M 147.21875 380.039062 C 147.21875 365.640625 123.21875 365.640625 123.21875 380.039062 C 123.21875 394.441406 147.21875 396.839844 147.21875 408.839844 C 147.21875 396.839844 171.21875 394.441406 171.21875 380.039062 C 171.21875 365.640625 147.21875 365.640625 147.21875 380.039062 "/>
<path style="fill-rule:nonzero;fill:rgb(35%,70%,90%);fill-opacity:1;stroke-width:1;stroke-linecap:butt;stroke-linejoin:round;stroke:rgb(0%,0%,0%);stroke-opacity:1;stroke-miterlimit:10;" d="M 434.957031 378.910156 C 434.957031 364.511719 410.957031 364.511719 410.957031 378.910156 C 410.957031 393.3125 434.957031 395.710938 434.957031 407.710938 C 434.957031 395.710938 458.957031 393.3125 458.957031 378.910156 C 458.957031 364.511719 434.957031 364.511719 434.957031 378.910156 "/>
<path style="fill-rule:nonzero;fill:rgb(35%,70%,90%);fill-opacity:1;stroke-width:1;stroke-linecap:butt;stroke-linejoin:round;stroke:rgb(0%,0%,0%);stroke-opacity:1;stroke-miterlimit:10;" d="M 425.246094 299.65625 C 425.246094 285.253906 401.246094 285.253906 401.246094 299.65625 C 401.246094 314.054688 425.246094 316.453125 425.246094 328.453125 C 425.246094 316.453125 449.246094 314.054688 449.246094 299.65625 C 449.246094 285.253906 425.246094 285.253906 425.246094 299.65625 "/>
<path style="fill-rule:nonzero;fill:rgb(100%,0%,0%);fill-opacity:1;stroke-width:1;stroke-linecap:butt;stroke-linejoin:round;stroke:rgb(0%,0%,0%);stroke-opacity:1;stroke-miterlimit:10;" d="M 336.058594 79.410156 C 336.058594 65.011719 312.058594 65.011719 312.058594 79.410156 C 312.058594 93.808594 336.058594 96.210938 336.058594 108.210938 C 336.058594 96.210938 360.058594 93.808594 360.058594 79.410156 C 360.058594 65.011719 336.058594 65.011719 336.058594 79.410156 "/>
</g>
</svg>
