<?xml version="1.0" encoding="UTF-8"?>
<svg xmlns="http://www.w3.org/2000/svg" xmlns:xlink="http://www.w3.org/1999/xlink" width="517pt" height="517pt" viewBox="0 0 517 517" version="1.1">
<g id="surface5956">
<rect x="0" y="0" width="517" height="517" style="fill:rgb(90%,90%,90%);fill-opacity:1;stroke:none;"/>
<path style="fill-rule:nonzero;fill:rgb(100%,0%,0%);fill-opacity:1;stroke-width:1;stroke-linecap:butt;stroke-linejoin:miter;stroke:rgb(0%,0%,0%);stroke-opacity:1;stroke-miterlimit:10;" d="M 424.925781 69.636719 L 404.925781 69.636719 L 404.925781 79.636719 L 424.925781 79.636719 L 424.925781 99.636719 L 434.925781 99.636719 L 434.925781 79.636719 L 454.925781 79.636719 L 454.925781 69.636719 L 434.925781 69.636719 L 434.925781 49.636719 L 424.925781 49.636719 L 424.925781 69.636719 "/>
<path style="fill-rule:nonzero;fill:rgb(100%,0%,0%);fill-opacity:1;stroke-width:1;stroke-linecap:butt;stroke-linejoin:miter;stroke:rgb(0%,0%,0%);stroke-opacity:1;stroke-miterlimit:10;" d="M 318.898438 338.261719 L 298.898438 338.261719 L 298.898438 348.261719 L 318.898438 348.261719 L 318.898438 368.261719 L 328.898438 368.261719 L 328.898438 348.261719 L 348.898438 348.261719 L 348.898438 338.261719 L 328.898438 338.261719 L 328.898438 318.261719 L 318.898438 318.261719 L 318.898438 338.261719 "/>
<path style="fill-rule:nonzero;fill:rgb(100%,0%,0%);fill-opacity:1;stroke-width:1;stroke-linecap:butt;stroke-linejoin:miter;stroke:rgb(0%,0%,0%);stroke-opacity:1;stroke-miterlimit:10;" d="M 385.878906 333.257812 L 365.878906 333.257812 L 365.878906 343.257812 L 385.878906 343.257812 L 385.878906 363.257812 L 395.878906 363.257812 L 395.878906 343.257812 L 415.878906 343.257812 L 415.878906 333.257812 L 395.878906 333.257812 L 395.878906 313.257812 L 385.878906 313.257812 L 385.878906 333.257812 "/>
<path style="fill-rule:nonzero;fill:rgb(100%,100%,0%);fill-opacity:1;stroke-width:1;stroke-linecap:butt;stroke-linejoin:miter;stroke:rgb(0%,0%,0%);stroke-opacity:1;stroke-miterlimit:10;" d="M 420.667969 389.585938 L 400.667969 389.585938 L 400.667969 399.585938 L 420.667969 399.585938 L 420.667969 419.585938 L 430.667969 419.585938 L 430.667969 399.585938 L 450.667969 399.585938 L 450.667969 389.585938 L 430.667969 389.585938 L 430.667969 369.585938 L 420.667969 369.585938 L 420.667969 389.585938 "/>
<path style="fill-rule:nonzero;fill:rgb(100%,100%,0%);fill-opacity:1;stroke-width:1;stroke-linecap:butt;stroke-linejoin:miter;stroke:rgb(0%,0%,0%);stroke-opacity:1;stroke-miterlimit:10;" d="M 295.304688 414.472656 L 275.304688 414.472656 L 275.304688 424.472656 L 295.304688 424.472656 L 295.304688 444.472656 L 305.304688 444.472656 L 305.304688 424.472656 L 325.304688 424.472656 L 325.304688 414.472656 L 305.304688 414.472656 L 305.304688 394.472656 L 295.304688 394.472656 L 295.304688 414.472656 "/>
<path style="fill-rule:nonzero;fill:rgb(100%,100%,0%);fill-opacity:1;stroke-width:1;stroke-linecap:butt;stroke-linejoin:miter;stroke:rgb(0%,0%,0%);stroke-opacity:1;stroke-miterlimit:10;" d="M 145.722656 92.726562 L 125.722656 92.726562 L 125.722656 102.726562 L 145.722656 102.726562 L 145.722656 122.726562 L 155.722656 122.726562 L 155.722656 102.726562 L 175.722656 102.726562 L 175.722656 92.726562 L 155.722656 92.726562 L 155.722656 72.726562 L 145.722656 72.726562 L 145.722656 92.726562 "/>
<path style="fill-rule:nonzero;fill:rgb(100%,100%,0%);fill-opacity:1;stroke-width:1;stroke-linecap:butt;stroke-linejoin:miter;stroke:rgb(0%,0%,0%);stroke-opacity:1;stroke-miterlimit:10;" d="M 137.53125 169.710938 L 117.53125 169.710938 L 117.53125 179.710938 L 137.53125 179.710938 L 137.53125 199.710938 L 147.53125 199.710938 L 147.53125 179.710938 L 167.53125 179.710938 L 167.53125 169.710938 L 147.53125 169.710938 L 147.53125 149.710938 L 137.53125 149.710938 L 137.53125 169.710938 "/>
<path style="fill-rule:nonzero;fill:rgb(100%,100%,0%);fill-opacity:1;stroke-width:1;stroke-linecap:butt;stroke-linejoin:miter;stroke:rgb(0%,0%,0%);stroke-opacity:1;stroke-miterlimit:10;" d="M 214.152344 192.699219 L 194.152344 192.699219 L 194.152344 202.699219 L 214.152344 202.699219 L 214.152344 222.699219 L 224.152344 222.699219 L 224.152344 202.699219 L 244.152344 202.699219 L 244.152344 192.699219 L 224.152344 192.699219 L 224.152344 172.699219 L 214.152344 172.699219 L 214.152344 192.699219 "/>
</g>
</svg>
