<?xml version="1.0" encoding="UTF-8"?>
<svg xmlns="http://www.w3.org/2000/svg" xmlns:xlink="http://www.w3.org/1999/xlink" width="517pt" height="517pt" viewBox="0 0 517 517" version="1.1">
<g id="surface1196">
<rect x="0" y="0" width="517" height="517" style="fill:rgb(90%,90%,90%);fill-opacity:1;stroke:none;"/>
<path style="fill:none;stroke-width:5;stroke-linecap:butt;stroke-linejoin:round;stroke:rgb(100%,0%,0%);stroke-opacity:1;stroke-miterlimit:10;" d="M 5 261 L 261 261 L 261 517 L 5 517 Z M 5 261 "/>
<path style="fill-rule:nonzero;fill:rgb(0%,0%,0%);fill-opacity:1;stroke-width:1;stroke-linecap:butt;stroke-linejoin:round;stroke:rgb(0%,0%,0%);stroke-opacity:1;stroke-miterlimit:10;" d="M 204.816406 347.074219 L 184.816406 347.074219 L 184.816406 357.074219 L 204.816406 357.074219 L 204.816406 377.074219 L 214.816406 377.074219 L 214.816406 357.074219 L 234.816406 357.074219 L 234.816406 347.074219 L 214.816406 347.074219 L 214.816406 327.074219 L 204.816406 327.074219 L 204.816406 347.074219 "/>
<path style="fill-rule:nonzero;fill:rgb(100%,0%,0%);fill-opacity:1;stroke-width:1;stroke-linecap:butt;stroke-linejoin:round;stroke:rgb(0%,0%,0%);stroke-opacity:1;stroke-miterlimit:10;" d="M 329.992188 352.050781 L 309.992188 352.050781 L 309.992188 362.050781 L 329.992188 362.050781 L 329.992188 382.050781 L 339.992188 382.050781 L 339.992188 362.050781 L 359.992188 362.050781 L 359.992188 352.050781 L 339.992188 352.050781 L 339.992188 332.050781 L 329.992188 332.050781 L 329.992188 352.050781 "/>
<path style="fill-rule:nonzero;fill:rgb(100%,0%,0%);fill-opacity:1;stroke-width:1;stroke-linecap:butt;stroke-linejoin:round;stroke:rgb(0%,0%,0%);stroke-opacity:1;stroke-miterlimit:10;" d="M 469.585938 327.214844 L 449.585938 327.214844 L 449.585938 337.214844 L 469.585938 337.214844 L 469.585938 357.214844 L 479.585938 357.214844 L 479.585938 337.214844 L 499.585938 337.214844 L 499.585938 327.214844 L 479.585938 327.214844 L 479.585938 307.214844 L 469.585938 307.214844 L 469.585938 327.214844 "/>
<path style="fill-rule:nonzero;fill:rgb(35%,70%,90%);fill-opacity:1;stroke-width:1;stroke-linecap:butt;stroke-linejoin:round;stroke:rgb(0%,0%,0%);stroke-opacity:1;stroke-miterlimit:10;" d="M 79.65625 80.574219 L 59.65625 80.574219 L 59.65625 90.574219 L 79.65625 90.574219 L 79.65625 110.574219 L 89.65625 110.574219 L 89.65625 90.574219 L 109.65625 90.574219 L 109.65625 80.574219 L 89.65625 80.574219 L 89.65625 60.574219 L 79.65625 60.574219 L 79.65625 80.574219 "/>
</g>
</svg>
