<?xml version="1.0" encoding="UTF-8"?>
<svg xmlns="http://www.w3.org/2000/svg" xmlns:xlink="http://www.w3.org/1999/xlink" width="517pt" height="517pt" viewBox="0 0 517 517" version="1.1">
<g id="surface5896">
<rect x="0" y="0" width="517" height="517" style="fill:rgb(90%,90%,90%);fill-opacity:1;stroke:none;"/>
<path style="fill-rule:nonzero;fill:rgb(50%,0%,50%);fill-opacity:1;stroke-width:1;stroke-linecap:butt;stroke-linejoin:miter;stroke:rgb(0%,0%,0%);stroke-opacity:1;stroke-miterlimit:10;" d="M 354.867188 357.527344 L 334.867188 357.527344 L 334.867188 367.527344 L 354.867188 367.527344 L 354.867188 387.527344 L 364.867188 387.527344 L 364.867188 367.527344 L 384.867188 367.527344 L 384.867188 357.527344 L 364.867188 357.527344 L 364.867188 337.527344 L 354.867188 337.527344 L 354.867188 357.527344 "/>
<path style="fill-rule:nonzero;fill:rgb(100%,0%,0%);fill-opacity:1;stroke-width:1;stroke-linecap:butt;stroke-linejoin:miter;stroke:rgb(0%,0%,0%);stroke-opacity:1;stroke-miterlimit:10;" d="M 153.339844 293.375 L 133.339844 293.375 L 133.339844 303.375 L 153.339844 303.375 L 153.339844 323.375 L 163.339844 323.375 L 163.339844 303.375 L 183.339844 303.375 L 183.339844 293.375 L 163.339844 293.375 L 163.339844 273.375 L 153.339844 273.375 L 153.339844 293.375 "/>
<path style="fill-rule:nonzero;fill:rgb(100%,0%,0%);fill-opacity:1;stroke-width:1;stroke-linecap:butt;stroke-linejoin:miter;stroke:rgb(0%,0%,0%);stroke-opacity:1;stroke-miterlimit:10;" d="M 205.070312 414.953125 L 185.070312 414.953125 L 185.070312 424.953125 L 205.070312 424.953125 L 205.070312 444.953125 L 215.070312 444.953125 L 215.070312 424.953125 L 235.070312 424.953125 L 235.070312 414.953125 L 215.070312 414.953125 L 215.070312 394.953125 L 205.070312 394.953125 L 205.070312 414.953125 "/>
<path style="fill-rule:nonzero;fill:rgb(100%,0%,0%);fill-opacity:1;stroke-width:1;stroke-linecap:butt;stroke-linejoin:miter;stroke:rgb(0%,0%,0%);stroke-opacity:1;stroke-miterlimit:10;" d="M 149.550781 181.917969 L 129.550781 181.917969 L 129.550781 191.917969 L 149.550781 191.917969 L 149.550781 211.917969 L 159.550781 211.917969 L 159.550781 191.917969 L 179.550781 191.917969 L 179.550781 181.917969 L 159.550781 181.917969 L 159.550781 161.917969 L 149.550781 161.917969 L 149.550781 181.917969 "/>
<path style="fill-rule:nonzero;fill:rgb(100%,0%,0%);fill-opacity:1;stroke-width:1;stroke-linecap:butt;stroke-linejoin:miter;stroke:rgb(0%,0%,0%);stroke-opacity:1;stroke-miterlimit:10;" d="M 151.101562 52.546875 L 131.101562 52.546875 L 131.101562 62.546875 L 151.101562 62.546875 L 151.101562 82.546875 L 161.101562 82.546875 L 161.101562 62.546875 L 181.101562 62.546875 L 181.101562 52.546875 L 161.101562 52.546875 L 161.101562 32.546875 L 151.101562 32.546875 L 151.101562 52.546875 "/>
<path style="fill-rule:nonzero;fill:rgb(100%,0%,0%);fill-opacity:1;stroke-width:1;stroke-linecap:butt;stroke-linejoin:miter;stroke:rgb(0%,0%,0%);stroke-opacity:1;stroke-miterlimit:10;" d="M 210.203125 119.25 L 190.203125 119.25 L 190.203125 129.25 L 210.203125 129.25 L 210.203125 149.25 L 220.203125 149.25 L 220.203125 129.25 L 240.203125 129.25 L 240.203125 119.25 L 220.203125 119.25 L 220.203125 99.25 L 210.203125 99.25 L 210.203125 119.25 "/>
<path style="fill-rule:nonzero;fill:rgb(100%,0%,0%);fill-opacity:1;stroke-width:1;stroke-linecap:butt;stroke-linejoin:miter;stroke:rgb(0%,0%,0%);stroke-opacity:1;stroke-miterlimit:10;" d="M 202.3125 211.074219 L 182.3125 211.074219 L 182.3125 221.074219 L 202.3125 221.074219 L 202.3125 241.074219 L 212.3125 241.074219 L 212.3125 221.074219 L 232.3125 221.074219 L 232.3125 211.074219 L 212.3125 211.074219 L 212.3125 191.074219 L 202.3125 191.074219 L 202.3125 211.074219 "/>
<path style="fill-rule:nonzero;fill:rgb(100%,0%,0%);fill-opacity:1;stroke-width:1;stroke-linecap:butt;stroke-linejoin:miter;stroke:rgb(0%,0%,0%);stroke-opacity:1;stroke-miterlimit:10;" d="M 37.3125 214.902344 L 17.3125 214.902344 L 17.3125 224.902344 L 37.3125 224.902344 L 37.3125 244.902344 L 47.3125 244.902344 L 47.3125 224.902344 L 67.3125 224.902344 L 67.3125 214.902344 L 47.3125 214.902344 L 47.3125 194.902344 L 37.3125 194.902344 L 37.3125 214.902344 "/>
</g>
</svg>
