<?xml version="1.0" encoding="UTF-8"?>
<svg xmlns="http://www.w3.org/2000/svg" xmlns:xlink="http://www.w3.org/1999/xlink" width="517pt" height="517pt" viewBox="0 0 517 517" version="1.1">
<g id="surface771">
<rect x="0" y="0" width="517" height="517" style="fill:rgb(90%,90%,90%);fill-opacity:1;stroke:none;"/>
<path style="fill:none;stroke-width:5;stroke-linecap:butt;stroke-linejoin:round;stroke:rgb(100%,0%,0%);stroke-opacity:1;stroke-miterlimit:10;" d="M 261 5 L 517 5 L 517 261 L 261 261 Z M 261 5 "/>
<path style="fill-rule:nonzero;fill:rgb(25%,88%,82%);fill-opacity:1;stroke-width:1;stroke-linecap:butt;stroke-linejoin:round;stroke:rgb(0%,0%,0%);stroke-opacity:1;stroke-miterlimit:10;" d="M 379.675781 107.207031 L 359.675781 107.207031 L 359.675781 117.207031 L 379.675781 117.207031 L 379.675781 137.207031 L 389.675781 137.207031 L 389.675781 117.207031 L 409.675781 117.207031 L 409.675781 107.207031 L 389.675781 107.207031 L 389.675781 87.207031 L 379.675781 87.207031 L 379.675781 107.207031 "/>
<path style="fill-rule:nonzero;fill:rgb(100%,100%,0%);fill-opacity:1;stroke-width:1;stroke-linecap:butt;stroke-linejoin:round;stroke:rgb(0%,0%,0%);stroke-opacity:1;stroke-miterlimit:10;" d="M 335.304688 393.027344 L 315.304688 393.027344 L 315.304688 403.027344 L 335.304688 403.027344 L 335.304688 423.027344 L 345.304688 423.027344 L 345.304688 403.027344 L 365.304688 403.027344 L 365.304688 393.027344 L 345.304688 393.027344 L 345.304688 373.027344 L 335.304688 373.027344 L 335.304688 393.027344 "/>
<path style="fill-rule:nonzero;fill:rgb(25%,88%,82%);fill-opacity:1;stroke-width:1;stroke-linecap:butt;stroke-linejoin:round;stroke:rgb(0%,0%,0%);stroke-opacity:1;stroke-miterlimit:10;" d="M 372.785156 317.425781 L 352.785156 317.425781 L 352.785156 327.425781 L 372.785156 327.425781 L 372.785156 347.425781 L 382.785156 347.425781 L 382.785156 327.425781 L 402.785156 327.425781 L 402.785156 317.425781 L 382.785156 317.425781 L 382.785156 297.425781 L 372.785156 297.425781 L 372.785156 317.425781 "/>
<path style="fill-rule:nonzero;fill:rgb(25%,88%,82%);fill-opacity:1;stroke-width:1;stroke-linecap:butt;stroke-linejoin:round;stroke:rgb(0%,0%,0%);stroke-opacity:1;stroke-miterlimit:10;" d="M 52.589844 434.824219 L 32.589844 434.824219 L 32.589844 444.824219 L 52.589844 444.824219 L 52.589844 464.824219 L 62.589844 464.824219 L 62.589844 444.824219 L 82.589844 444.824219 L 82.589844 434.824219 L 62.589844 434.824219 L 62.589844 414.824219 L 52.589844 414.824219 L 52.589844 434.824219 "/>
</g>
</svg>
