<?xml version="1.0" encoding="UTF-8"?>
<svg xmlns="http://www.w3.org/2000/svg" xmlns:xlink="http://www.w3.org/1999/xlink" width="517pt" height="517pt" viewBox="0 0 517 517" version="1.1">
<g id="surface1116">
<rect x="0" y="0" width="517" height="517" style="fill:rgb(90%,90%,90%);fill-opacity:1;stroke:none;"/>
<path style="fill:none;stroke-width:5;stroke-linecap:butt;stroke-linejoin:round;stroke:rgb(100%,0%,0%);stroke-opacity:1;stroke-miterlimit:10;" d="M 5 261 L 261 261 L 261 517 L 5 517 Z M 5 261 "/>
<path style="fill-rule:nonzero;fill:rgb(100%,100%,0%);fill-opacity:1;stroke-width:1;stroke-linecap:butt;stroke-linejoin:round;stroke:rgb(0%,0%,0%);stroke-opacity:1;stroke-miterlimit:10;" d="M 79.203125 327.441406 C 79.203125 313.039062 55.203125 313.039062 55.203125 327.441406 C 55.203125 341.839844 79.203125 344.238281 79.203125 356.238281 C 79.203125 344.238281 103.203125 341.839844 103.203125 327.441406 C 103.203125 313.039062 79.203125 313.039062 79.203125 327.441406 "/>
<path style="fill-rule:nonzero;fill:rgb(35%,70%,90%);fill-opacity:1;stroke-width:1;stroke-linecap:butt;stroke-linejoin:round;stroke:rgb(0%,0%,0%);stroke-opacity:1;stroke-miterlimit:10;" d="M 322.773438 418.304688 C 322.773438 403.902344 298.773438 403.902344 298.773438 418.304688 C 298.773438 432.703125 322.773438 435.105469 322.773438 447.105469 C 322.773438 435.105469 346.773438 432.703125 346.773438 418.304688 C 346.773438 403.902344 322.773438 403.902344 322.773438 418.304688 "/>
<path style="fill-rule:nonzero;fill:rgb(35%,70%,90%);fill-opacity:1;stroke-width:1;stroke-linecap:butt;stroke-linejoin:round;stroke:rgb(0%,0%,0%);stroke-opacity:1;stroke-miterlimit:10;" d="M 459.835938 378.863281 C 459.835938 364.464844 435.835938 364.464844 435.835938 378.863281 C 435.835938 393.261719 459.835938 395.664062 459.835938 407.664062 C 459.835938 395.664062 483.835938 393.261719 483.835938 378.863281 C 483.835938 364.464844 459.835938 364.464844 459.835938 378.863281 "/>
<path style="fill-rule:nonzero;fill:rgb(100%,0%,0%);fill-opacity:1;stroke-width:1;stroke-linecap:butt;stroke-linejoin:round;stroke:rgb(0%,0%,0%);stroke-opacity:1;stroke-miterlimit:10;" d="M 167.644531 159.015625 C 167.644531 144.617188 143.644531 144.617188 143.644531 159.015625 C 143.644531 173.417969 167.644531 175.816406 167.644531 187.816406 C 167.644531 175.816406 191.644531 173.417969 191.644531 159.015625 C 191.644531 144.617188 167.644531 144.617188 167.644531 159.015625 "/>
</g>
</svg>
