<?xml version="1.0" encoding="UTF-8"?>
<svg xmlns="http://www.w3.org/2000/svg" xmlns:xlink="http://www.w3.org/1999/xlink" width="517pt" height="517pt" viewBox="0 0 517 517" version="1.1">
<g id="surface1126">
<rect x="0" y="0" width="517" height="517" style="fill:rgb(90%,90%,90%);fill-opacity:1;stroke:none;"/>
<path style="fill:none;stroke-width:5;stroke-linecap:butt;stroke-linejoin:round;stroke:rgb(100%,0%,0%);stroke-opacity:1;stroke-miterlimit:10;" d="M 5 261 L 261 261 L 261 517 L 5 517 Z M 5 261 "/>
<path style="fill-rule:nonzero;fill:rgb(35%,70%,90%);fill-opacity:1;stroke-width:1;stroke-linecap:butt;stroke-linejoin:round;stroke:rgb(0%,0%,0%);stroke-opacity:1;stroke-miterlimit:10;" d="M 82.058594 320.875 L 62.058594 320.875 L 62.058594 330.875 L 82.058594 330.875 L 82.058594 350.875 L 92.058594 350.875 L 92.058594 330.875 L 112.058594 330.875 L 112.058594 320.875 L 92.058594 320.875 L 92.058594 300.875 L 82.058594 300.875 L 82.058594 320.875 "/>
<path style="fill-rule:nonzero;fill:rgb(100%,0%,0%);fill-opacity:1;stroke-width:1;stroke-linecap:butt;stroke-linejoin:round;stroke:rgb(0%,0%,0%);stroke-opacity:1;stroke-miterlimit:10;" d="M 350.792969 350.578125 L 330.792969 350.578125 L 330.792969 360.578125 L 350.792969 360.578125 L 350.792969 380.578125 L 360.792969 380.578125 L 360.792969 360.578125 L 380.792969 360.578125 L 380.792969 350.578125 L 360.792969 350.578125 L 360.792969 330.578125 L 350.792969 330.578125 L 350.792969 350.578125 "/>
<path style="fill-rule:nonzero;fill:rgb(100%,0%,0%);fill-opacity:1;stroke-width:1;stroke-linecap:butt;stroke-linejoin:round;stroke:rgb(0%,0%,0%);stroke-opacity:1;stroke-miterlimit:10;" d="M 334.144531 206.816406 L 314.144531 206.816406 L 314.144531 216.816406 L 334.144531 216.816406 L 334.144531 236.816406 L 344.144531 236.816406 L 344.144531 216.816406 L 364.144531 216.816406 L 364.144531 206.816406 L 344.144531 206.816406 L 344.144531 186.816406 L 334.144531 186.816406 L 334.144531 206.816406 "/>
<path style="fill-rule:nonzero;fill:rgb(100%,0%,0%);fill-opacity:1;stroke-width:1;stroke-linecap:butt;stroke-linejoin:round;stroke:rgb(0%,0%,0%);stroke-opacity:1;stroke-miterlimit:10;" d="M 463.890625 213.488281 L 443.890625 213.488281 L 443.890625 223.488281 L 463.890625 223.488281 L 463.890625 243.488281 L 473.890625 243.488281 L 473.890625 223.488281 L 493.890625 223.488281 L 493.890625 213.488281 L 473.890625 213.488281 L 473.890625 193.488281 L 463.890625 193.488281 L 463.890625 213.488281 "/>
</g>
</svg>
