<?xml version="1.0" encoding="UTF-8"?>
<svg xmlns="http://www.w3.org/2000/svg" xmlns:xlink="http://www.w3.org/1999/xlink" width="517pt" height="517pt" viewBox="0 0 517 517" version="1.1">
<g id="surface6366">
<rect x="0" y="0" width="517" height="517" style="fill:rgb(90%,90%,90%);fill-opacity:1;stroke:none;"/>
<path style="fill-rule:nonzero;fill:rgb(0%,0%,0%);fill-opacity:1;stroke-width:1;stroke-linecap:butt;stroke-linejoin:miter;stroke:rgb(0%,0%,0%);stroke-opacity:1;stroke-miterlimit:10;" d="M 295.386719 402.046875 L 275.386719 402.046875 L 275.386719 412.046875 L 295.386719 412.046875 L 295.386719 432.046875 L 305.386719 432.046875 L 305.386719 412.046875 L 325.386719 412.046875 L 325.386719 402.046875 L 305.386719 402.046875 L 305.386719 382.046875 L 295.386719 382.046875 L 295.386719 402.046875 "/>
<path style="fill-rule:nonzero;fill:rgb(0%,0%,0%);fill-opacity:1;stroke-width:1;stroke-linecap:butt;stroke-linejoin:miter;stroke:rgb(0%,0%,0%);stroke-opacity:1;stroke-miterlimit:10;" d="M 93.257812 426.425781 L 73.257812 426.425781 L 73.257812 436.425781 L 93.257812 436.425781 L 93.257812 456.425781 L 103.257812 456.425781 L 103.257812 436.425781 L 123.257812 436.425781 L 123.257812 426.425781 L 103.257812 426.425781 L 103.257812 406.425781 L 93.257812 406.425781 L 93.257812 426.425781 "/>
<path style="fill-rule:nonzero;fill:rgb(0%,0%,0%);fill-opacity:1;stroke-width:1;stroke-linecap:butt;stroke-linejoin:miter;stroke:rgb(0%,0%,0%);stroke-opacity:1;stroke-miterlimit:10;" d="M 37.191406 384.089844 L 17.191406 384.089844 L 17.191406 394.089844 L 37.191406 394.089844 L 37.191406 414.089844 L 47.191406 414.089844 L 47.191406 394.089844 L 67.191406 394.089844 L 67.191406 384.089844 L 47.191406 384.089844 L 47.191406 364.089844 L 37.191406 364.089844 L 37.191406 384.089844 "/>
<path style="fill-rule:nonzero;fill:rgb(0%,0%,0%);fill-opacity:1;stroke-width:1;stroke-linecap:butt;stroke-linejoin:miter;stroke:rgb(0%,0%,0%);stroke-opacity:1;stroke-miterlimit:10;" d="M 174.910156 435.984375 L 154.910156 435.984375 L 154.910156 445.984375 L 174.910156 445.984375 L 174.910156 465.984375 L 184.910156 465.984375 L 184.910156 445.984375 L 204.910156 445.984375 L 204.910156 435.984375 L 184.910156 435.984375 L 184.910156 415.984375 L 174.910156 415.984375 L 174.910156 435.984375 "/>
<path style="fill-rule:nonzero;fill:rgb(0%,0%,0%);fill-opacity:1;stroke-width:1;stroke-linecap:butt;stroke-linejoin:miter;stroke:rgb(0%,0%,0%);stroke-opacity:1;stroke-miterlimit:10;" d="M 159.757812 307.449219 L 139.757812 307.449219 L 139.757812 317.449219 L 159.757812 317.449219 L 159.757812 337.449219 L 169.757812 337.449219 L 169.757812 317.449219 L 189.757812 317.449219 L 189.757812 307.449219 L 169.757812 307.449219 L 169.757812 287.449219 L 159.757812 287.449219 L 159.757812 307.449219 "/>
<path style="fill-rule:nonzero;fill:rgb(0%,0%,0%);fill-opacity:1;stroke-width:1;stroke-linecap:butt;stroke-linejoin:miter;stroke:rgb(0%,0%,0%);stroke-opacity:1;stroke-miterlimit:10;" d="M 213.652344 343.214844 L 193.652344 343.214844 L 193.652344 353.214844 L 213.652344 353.214844 L 213.652344 373.214844 L 223.652344 373.214844 L 223.652344 353.214844 L 243.652344 353.214844 L 243.652344 343.214844 L 223.652344 343.214844 L 223.652344 323.214844 L 213.652344 323.214844 L 213.652344 343.214844 "/>
<path style="fill-rule:nonzero;fill:rgb(0%,0%,0%);fill-opacity:1;stroke-width:1;stroke-linecap:butt;stroke-linejoin:miter;stroke:rgb(0%,0%,0%);stroke-opacity:1;stroke-miterlimit:10;" d="M 100.722656 294.359375 L 80.722656 294.359375 L 80.722656 304.359375 L 100.722656 304.359375 L 100.722656 324.359375 L 110.722656 324.359375 L 110.722656 304.359375 L 130.722656 304.359375 L 130.722656 294.359375 L 110.722656 294.359375 L 110.722656 274.359375 L 100.722656 274.359375 L 100.722656 294.359375 "/>
<path style="fill-rule:nonzero;fill:rgb(0%,0%,0%);fill-opacity:1;stroke-width:1;stroke-linecap:butt;stroke-linejoin:miter;stroke:rgb(0%,0%,0%);stroke-opacity:1;stroke-miterlimit:10;" d="M 36.570312 458.316406 L 16.570312 458.316406 L 16.570312 468.316406 L 36.570312 468.316406 L 36.570312 488.316406 L 46.570312 488.316406 L 46.570312 468.316406 L 66.570312 468.316406 L 66.570312 458.316406 L 46.570312 458.316406 L 46.570312 438.316406 L 36.570312 438.316406 L 36.570312 458.316406 "/>
</g>
</svg>
