<?xml version="1.0" encoding="UTF-8"?>
<svg xmlns="http://www.w3.org/2000/svg" xmlns:xlink="http://www.w3.org/1999/xlink" width="517pt" height="517pt" viewBox="0 0 517 517" version="1.1">
<g id="surface776">
<rect x="0" y="0" width="517" height="517" style="fill:rgb(90%,90%,90%);fill-opacity:1;stroke:none;"/>
<path style="fill:none;stroke-width:5;stroke-linecap:butt;stroke-linejoin:round;stroke:rgb(100%,0%,0%);stroke-opacity:1;stroke-miterlimit:10;" d="M 261 5 L 517 5 L 517 261 L 261 261 Z M 261 5 "/>
<path style="fill-rule:nonzero;fill:rgb(25%,88%,82%);fill-opacity:1;stroke-width:1;stroke-linecap:butt;stroke-linejoin:round;stroke:rgb(0%,0%,0%);stroke-opacity:1;stroke-miterlimit:10;" d="M 462.398438 122.292969 L 442.398438 122.292969 L 442.398438 132.292969 L 462.398438 132.292969 L 462.398438 152.292969 L 472.398438 152.292969 L 472.398438 132.292969 L 492.398438 132.292969 L 492.398438 122.292969 L 472.398438 122.292969 L 472.398438 102.292969 L 462.398438 102.292969 L 462.398438 122.292969 "/>
<path style="fill-rule:nonzero;fill:rgb(100%,100%,0%);fill-opacity:1;stroke-width:1;stroke-linecap:butt;stroke-linejoin:round;stroke:rgb(0%,0%,0%);stroke-opacity:1;stroke-miterlimit:10;" d="M 34.527344 160.761719 L 14.527344 160.761719 L 14.527344 170.761719 L 34.527344 170.761719 L 34.527344 190.761719 L 44.527344 190.761719 L 44.527344 170.761719 L 64.527344 170.761719 L 64.527344 160.761719 L 44.527344 160.761719 L 44.527344 140.761719 L 34.527344 140.761719 L 34.527344 160.761719 "/>
<path style="fill-rule:nonzero;fill:rgb(25%,88%,82%);fill-opacity:1;stroke-width:1;stroke-linecap:butt;stroke-linejoin:round;stroke:rgb(0%,0%,0%);stroke-opacity:1;stroke-miterlimit:10;" d="M 153.410156 427.648438 L 133.410156 427.648438 L 133.410156 437.648438 L 153.410156 437.648438 L 153.410156 457.648438 L 163.410156 457.648438 L 163.410156 437.648438 L 183.410156 437.648438 L 183.410156 427.648438 L 163.410156 427.648438 L 163.410156 407.648438 L 153.410156 407.648438 L 153.410156 427.648438 "/>
<path style="fill-rule:nonzero;fill:rgb(25%,88%,82%);fill-opacity:1;stroke-width:1;stroke-linecap:butt;stroke-linejoin:round;stroke:rgb(0%,0%,0%);stroke-opacity:1;stroke-miterlimit:10;" d="M 38.453125 346.53125 L 18.453125 346.53125 L 18.453125 356.53125 L 38.453125 356.53125 L 38.453125 376.53125 L 48.453125 376.53125 L 48.453125 356.53125 L 68.453125 356.53125 L 68.453125 346.53125 L 48.453125 346.53125 L 48.453125 326.53125 L 38.453125 326.53125 L 38.453125 346.53125 "/>
</g>
</svg>
