<?xml version="1.0" encoding="UTF-8"?>
<svg xmlns="http://www.w3.org/2000/svg" xmlns:xlink="http://www.w3.org/1999/xlink" width="517pt" height="517pt" viewBox="0 0 517 517" version="1.1">
<g id="surface1186">
<rect x="0" y="0" width="517" height="517" style="fill:rgb(90%,90%,90%);fill-opacity:1;stroke:none;"/>
<path style="fill:none;stroke-width:5;stroke-linecap:butt;stroke-linejoin:round;stroke:rgb(100%,0%,0%);stroke-opacity:1;stroke-miterlimit:10;" d="M 5 261 L 261 261 L 261 517 L 5 517 Z M 5 261 "/>
<path style="fill-rule:nonzero;fill:rgb(0%,0%,0%);fill-opacity:1;stroke-width:1;stroke-linecap:butt;stroke-linejoin:round;stroke:rgb(0%,0%,0%);stroke-opacity:1;stroke-miterlimit:10;" d="M 35.355469 296.476562 L 15.355469 296.476562 L 15.355469 306.476562 L 35.355469 306.476562 L 35.355469 326.476562 L 45.355469 326.476562 L 45.355469 306.476562 L 65.355469 306.476562 L 65.355469 296.476562 L 45.355469 296.476562 L 45.355469 276.476562 L 35.355469 276.476562 L 35.355469 296.476562 "/>
<path style="fill-rule:nonzero;fill:rgb(100%,0%,0%);fill-opacity:1;stroke-width:1;stroke-linecap:butt;stroke-linejoin:round;stroke:rgb(0%,0%,0%);stroke-opacity:1;stroke-miterlimit:10;" d="M 321.125 130.558594 L 301.125 130.558594 L 301.125 140.558594 L 321.125 140.558594 L 321.125 160.558594 L 331.125 160.558594 L 331.125 140.558594 L 351.125 140.558594 L 351.125 130.558594 L 331.125 130.558594 L 331.125 110.558594 L 321.125 110.558594 L 321.125 130.558594 "/>
<path style="fill-rule:nonzero;fill:rgb(100%,0%,0%);fill-opacity:1;stroke-width:1;stroke-linecap:butt;stroke-linejoin:round;stroke:rgb(0%,0%,0%);stroke-opacity:1;stroke-miterlimit:10;" d="M 460.144531 106.550781 L 440.144531 106.550781 L 440.144531 116.550781 L 460.144531 116.550781 L 460.144531 136.550781 L 470.144531 136.550781 L 470.144531 116.550781 L 490.144531 116.550781 L 490.144531 106.550781 L 470.144531 106.550781 L 470.144531 86.550781 L 460.144531 86.550781 L 460.144531 106.550781 "/>
<path style="fill-rule:nonzero;fill:rgb(100%,0%,0%);fill-opacity:1;stroke-width:1;stroke-linecap:butt;stroke-linejoin:round;stroke:rgb(0%,0%,0%);stroke-opacity:1;stroke-miterlimit:10;" d="M 125.621094 166.410156 L 105.621094 166.410156 L 105.621094 176.410156 L 125.621094 176.410156 L 125.621094 196.410156 L 135.621094 196.410156 L 135.621094 176.410156 L 155.621094 176.410156 L 155.621094 166.410156 L 135.621094 166.410156 L 135.621094 146.410156 L 125.621094 146.410156 L 125.621094 166.410156 "/>
</g>
</svg>
