<?xml version="1.0" encoding="UTF-8"?>
<svg xmlns="http://www.w3.org/2000/svg" xmlns:xlink="http://www.w3.org/1999/xlink" width="517pt" height="517pt" viewBox="0 0 517 517" version="1.1">
<g id="surface1931">
<rect x="0" y="0" width="517" height="517" style="fill:rgb(90%,90%,90%);fill-opacity:1;stroke:none;"/>
<path style="fill:none;stroke-width:5;stroke-linecap:butt;stroke-linejoin:round;stroke:rgb(100%,0%,0%);stroke-opacity:1;stroke-miterlimit:10;" d="M 5 5 L 261 5 L 261 261 L 5 261 Z M 5 5 "/>
<path style="fill-rule:nonzero;fill:rgb(35%,70%,90%);fill-opacity:1;stroke-width:1;stroke-linecap:butt;stroke-linejoin:round;stroke:rgb(0%,0%,0%);stroke-opacity:1;stroke-miterlimit:10;" d="M 91.160156 47.148438 L 71.160156 47.148438 L 71.160156 57.148438 L 91.160156 57.148438 L 91.160156 77.148438 L 101.160156 77.148438 L 101.160156 57.148438 L 121.160156 57.148438 L 121.160156 47.148438 L 101.160156 47.148438 L 101.160156 27.148438 L 91.160156 27.148438 L 91.160156 47.148438 "/>
<path style="fill-rule:nonzero;fill:rgb(90%,65%,0%);fill-opacity:1;stroke-width:1;stroke-linecap:butt;stroke-linejoin:round;stroke:rgb(0%,0%,0%);stroke-opacity:1;stroke-miterlimit:10;" d="M 124.851562 454.757812 L 104.851562 454.757812 L 104.851562 464.757812 L 124.851562 464.757812 L 124.851562 484.757812 L 134.851562 484.757812 L 134.851562 464.757812 L 154.851562 464.757812 L 154.851562 454.757812 L 134.851562 454.757812 L 134.851562 434.757812 L 124.851562 434.757812 L 124.851562 454.757812 "/>
<path style="fill-rule:nonzero;fill:rgb(90%,65%,0%);fill-opacity:1;stroke-width:1;stroke-linecap:butt;stroke-linejoin:round;stroke:rgb(0%,0%,0%);stroke-opacity:1;stroke-miterlimit:10;" d="M 444.128906 98.027344 L 424.128906 98.027344 L 424.128906 108.027344 L 444.128906 108.027344 L 444.128906 128.027344 L 454.128906 128.027344 L 454.128906 108.027344 L 474.128906 108.027344 L 474.128906 98.027344 L 454.128906 98.027344 L 454.128906 78.027344 L 444.128906 78.027344 L 444.128906 98.027344 "/>
<path style="fill-rule:nonzero;fill:rgb(90%,65%,0%);fill-opacity:1;stroke-width:1;stroke-linecap:butt;stroke-linejoin:round;stroke:rgb(0%,0%,0%);stroke-opacity:1;stroke-miterlimit:10;" d="M 310.769531 103.550781 L 290.769531 103.550781 L 290.769531 113.550781 L 310.769531 113.550781 L 310.769531 133.550781 L 320.769531 133.550781 L 320.769531 113.550781 L 340.769531 113.550781 L 340.769531 103.550781 L 320.769531 103.550781 L 320.769531 83.550781 L 310.769531 83.550781 L 310.769531 103.550781 "/>
<path style="fill-rule:nonzero;fill:rgb(90%,65%,0%);fill-opacity:1;stroke-width:1;stroke-linecap:butt;stroke-linejoin:round;stroke:rgb(0%,0%,0%);stroke-opacity:1;stroke-miterlimit:10;" d="M 469.8125 321.695312 L 449.8125 321.695312 L 449.8125 331.695312 L 469.8125 331.695312 L 469.8125 351.695312 L 479.8125 351.695312 L 479.8125 331.695312 L 499.8125 331.695312 L 499.8125 321.695312 L 479.8125 321.695312 L 479.8125 301.695312 L 469.8125 301.695312 L 469.8125 321.695312 "/>
</g>
</svg>
