<?xml version="1.0" encoding="UTF-8"?>
<svg xmlns="http://www.w3.org/2000/svg" xmlns:xlink="http://www.w3.org/1999/xlink" width="517pt" height="517pt" viewBox="0 0 517 517" version="1.1">
<g id="surface1996">
<rect x="0" y="0" width="517" height="517" style="fill:rgb(90%,90%,90%);fill-opacity:1;stroke:none;"/>
<path style="fill:none;stroke-width:5;stroke-linecap:butt;stroke-linejoin:round;stroke:rgb(100%,0%,0%);stroke-opacity:1;stroke-miterlimit:10;" d="M 5 5 L 261 5 L 261 261 L 5 261 Z M 5 5 "/>
<path style="fill-rule:nonzero;fill:rgb(90%,65%,0%);fill-opacity:1;stroke-width:1;stroke-linecap:butt;stroke-linejoin:round;stroke:rgb(0%,0%,0%);stroke-opacity:1;stroke-miterlimit:10;" d="M 208.785156 109.710938 L 188.785156 109.710938 L 188.785156 119.710938 L 208.785156 119.710938 L 208.785156 139.710938 L 218.785156 139.710938 L 218.785156 119.710938 L 238.785156 119.710938 L 238.785156 109.710938 L 218.785156 109.710938 L 218.785156 89.710938 L 208.785156 89.710938 L 208.785156 109.710938 "/>
<path style="fill-rule:nonzero;fill:rgb(90%,65%,0%);fill-opacity:1;stroke-width:1;stroke-linecap:butt;stroke-linejoin:round;stroke:rgb(0%,0%,0%);stroke-opacity:1;stroke-miterlimit:10;" d="M 31.632812 421.695312 L 11.632812 421.695312 L 11.632812 431.695312 L 31.632812 431.695312 L 31.632812 451.695312 L 41.632812 451.695312 L 41.632812 431.695312 L 61.632812 431.695312 L 61.632812 421.695312 L 41.632812 421.695312 L 41.632812 401.695312 L 31.632812 401.695312 L 31.632812 421.695312 "/>
<path style="fill-rule:nonzero;fill:rgb(90%,65%,0%);fill-opacity:1;stroke-width:1;stroke-linecap:butt;stroke-linejoin:round;stroke:rgb(0%,0%,0%);stroke-opacity:1;stroke-miterlimit:10;" d="M 316.136719 149.175781 L 296.136719 149.175781 L 296.136719 159.175781 L 316.136719 159.175781 L 316.136719 179.175781 L 326.136719 179.175781 L 326.136719 159.175781 L 346.136719 159.175781 L 346.136719 149.175781 L 326.136719 149.175781 L 326.136719 129.175781 L 316.136719 129.175781 L 316.136719 149.175781 "/>
<path style="fill-rule:nonzero;fill:rgb(90%,65%,0%);fill-opacity:1;stroke-width:1;stroke-linecap:butt;stroke-linejoin:round;stroke:rgb(0%,0%,0%);stroke-opacity:1;stroke-miterlimit:10;" d="M 391.015625 143.46875 L 371.015625 143.46875 L 371.015625 153.46875 L 391.015625 153.46875 L 391.015625 173.46875 L 401.015625 173.46875 L 401.015625 153.46875 L 421.015625 153.46875 L 421.015625 143.46875 L 401.015625 143.46875 L 401.015625 123.46875 L 391.015625 123.46875 L 391.015625 143.46875 "/>
<path style="fill-rule:nonzero;fill:rgb(35%,70%,90%);fill-opacity:1;stroke-width:1;stroke-linecap:butt;stroke-linejoin:round;stroke:rgb(0%,0%,0%);stroke-opacity:1;stroke-miterlimit:10;" d="M 353.800781 300.308594 L 333.800781 300.308594 L 333.800781 310.308594 L 353.800781 310.308594 L 353.800781 330.308594 L 363.800781 330.308594 L 363.800781 310.308594 L 383.800781 310.308594 L 383.800781 300.308594 L 363.800781 300.308594 L 363.800781 280.308594 L 353.800781 280.308594 L 353.800781 300.308594 "/>
</g>
</svg>
