<?xml version="1.0" encoding="UTF-8"?>
<svg xmlns="http://www.w3.org/2000/svg" xmlns:xlink="http://www.w3.org/1999/xlink" width="517pt" height="517pt" viewBox="0 0 517 517" version="1.1">
<g id="surface2246">
<rect x="0" y="0" width="517" height="517" style="fill:rgb(90%,90%,90%);fill-opacity:1;stroke:none;"/>
<path style="fill:none;stroke-width:5;stroke-linecap:butt;stroke-linejoin:round;stroke:rgb(100%,0%,0%);stroke-opacity:1;stroke-miterlimit:10;" d="M 261 5 L 517 5 L 517 261 L 261 261 Z M 261 5 "/>
<path style="fill-rule:nonzero;fill:rgb(67%,100%,18%);fill-opacity:1;stroke-width:1;stroke-linecap:butt;stroke-linejoin:round;stroke:rgb(0%,0%,0%);stroke-opacity:1;stroke-miterlimit:10;" d="M 442.199219 103.332031 C 442.199219 119.902344 428.765625 133.332031 412.199219 133.332031 C 395.628906 133.332031 382.199219 119.902344 382.199219 103.332031 C 382.199219 86.765625 395.628906 73.332031 412.199219 73.332031 C 428.765625 73.332031 442.199219 86.765625 442.199219 103.332031 "/>
<path style="fill-rule:nonzero;fill:rgb(100%,0%,0%);fill-opacity:1;stroke-width:1;stroke-linecap:butt;stroke-linejoin:round;stroke:rgb(0%,0%,0%);stroke-opacity:1;stroke-miterlimit:10;" d="M 65.566406 96.871094 C 65.566406 113.441406 52.136719 126.871094 35.566406 126.871094 C 19 126.871094 5.566406 113.441406 5.566406 96.871094 C 5.566406 80.304688 19 66.871094 35.566406 66.871094 C 52.136719 66.871094 65.566406 80.304688 65.566406 96.871094 "/>
<path style="fill-rule:nonzero;fill:rgb(100%,0%,0%);fill-opacity:1;stroke-width:1;stroke-linecap:butt;stroke-linejoin:round;stroke:rgb(0%,0%,0%);stroke-opacity:1;stroke-miterlimit:10;" d="M 100.808594 172.871094 C 100.808594 189.441406 87.375 202.871094 70.808594 202.871094 C 54.238281 202.871094 40.808594 189.441406 40.808594 172.871094 C 40.808594 156.304688 54.238281 142.871094 70.808594 142.871094 C 87.375 142.871094 100.808594 156.304688 100.808594 172.871094 "/>
<path style="fill-rule:nonzero;fill:rgb(100%,0%,0%);fill-opacity:1;stroke-width:1;stroke-linecap:butt;stroke-linejoin:round;stroke:rgb(0%,0%,0%);stroke-opacity:1;stroke-miterlimit:10;" d="M 160.265625 297.613281 C 160.265625 314.183594 146.832031 327.613281 130.265625 327.613281 C 113.695312 327.613281 100.265625 314.183594 100.265625 297.613281 C 100.265625 281.046875 113.695312 267.613281 130.265625 267.613281 C 146.832031 267.613281 160.265625 281.046875 160.265625 297.613281 "/>
<path style="fill-rule:nonzero;fill:rgb(100%,0%,0%);fill-opacity:1;stroke-width:1;stroke-linecap:butt;stroke-linejoin:round;stroke:rgb(0%,0%,0%);stroke-opacity:1;stroke-miterlimit:10;" d="M 474.753906 363.691406 C 474.753906 380.261719 461.320312 393.691406 444.753906 393.691406 C 428.183594 393.691406 414.753906 380.261719 414.753906 363.691406 C 414.753906 347.121094 428.183594 333.691406 444.753906 333.691406 C 461.320312 333.691406 474.753906 347.121094 474.753906 363.691406 "/>
</g>
</svg>
