<?xml version="1.0" encoding="UTF-8"?>
<svg xmlns="http://www.w3.org/2000/svg" xmlns:xlink="http://www.w3.org/1999/xlink" width="517pt" height="517pt" viewBox="0 0 517 517" version="1.1">
<g id="surface2316">
<rect x="0" y="0" width="517" height="517" style="fill:rgb(90%,90%,90%);fill-opacity:1;stroke:none;"/>
<path style="fill:none;stroke-width:5;stroke-linecap:butt;stroke-linejoin:round;stroke:rgb(100%,0%,0%);stroke-opacity:1;stroke-miterlimit:10;" d="M 261 5 L 517 5 L 517 261 L 261 261 Z M 261 5 "/>
<path style="fill-rule:nonzero;fill:rgb(0%,0%,0%);fill-opacity:1;stroke-width:1;stroke-linecap:butt;stroke-linejoin:round;stroke:rgb(0%,0%,0%);stroke-opacity:1;stroke-miterlimit:10;" d="M 328.902344 165.003906 C 328.902344 181.570312 315.46875 195.003906 298.902344 195.003906 C 282.332031 195.003906 268.902344 181.570312 268.902344 165.003906 C 268.902344 148.433594 282.332031 135.003906 298.902344 135.003906 C 315.46875 135.003906 328.902344 148.433594 328.902344 165.003906 "/>
<path style="fill-rule:nonzero;fill:rgb(100%,0%,0%);fill-opacity:1;stroke-width:1;stroke-linecap:butt;stroke-linejoin:round;stroke:rgb(0%,0%,0%);stroke-opacity:1;stroke-miterlimit:10;" d="M 78.972656 357.519531 C 78.972656 374.085938 65.542969 387.519531 48.972656 387.519531 C 32.40625 387.519531 18.972656 374.085938 18.972656 357.519531 C 18.972656 340.949219 32.40625 327.519531 48.972656 327.519531 C 65.542969 327.519531 78.972656 340.949219 78.972656 357.519531 "/>
<path style="fill-rule:nonzero;fill:rgb(100%,0%,0%);fill-opacity:1;stroke-width:1;stroke-linecap:butt;stroke-linejoin:round;stroke:rgb(0%,0%,0%);stroke-opacity:1;stroke-miterlimit:10;" d="M 159.339844 472.546875 C 159.339844 489.113281 145.90625 502.546875 129.339844 502.546875 C 112.769531 502.546875 99.339844 489.113281 99.339844 472.546875 C 99.339844 455.976562 112.769531 442.546875 129.339844 442.546875 C 145.90625 442.546875 159.339844 455.976562 159.339844 472.546875 "/>
<path style="fill-rule:nonzero;fill:rgb(100%,0%,0%);fill-opacity:1;stroke-width:1;stroke-linecap:butt;stroke-linejoin:round;stroke:rgb(0%,0%,0%);stroke-opacity:1;stroke-miterlimit:10;" d="M 432.386719 443.066406 C 432.386719 459.632812 418.957031 473.066406 402.386719 473.066406 C 385.820312 473.066406 372.386719 459.632812 372.386719 443.066406 C 372.386719 426.496094 385.820312 413.066406 402.386719 413.066406 C 418.957031 413.066406 432.386719 426.496094 432.386719 443.066406 "/>
<path style="fill-rule:nonzero;fill:rgb(67%,100%,18%);fill-opacity:1;stroke-width:1;stroke-linecap:butt;stroke-linejoin:round;stroke:rgb(0%,0%,0%);stroke-opacity:1;stroke-miterlimit:10;" d="M 408.753906 328.785156 C 408.753906 345.351562 395.324219 358.785156 378.753906 358.785156 C 362.1875 358.785156 348.753906 345.351562 348.753906 328.785156 C 348.753906 312.214844 362.1875 298.785156 378.753906 298.785156 C 395.324219 298.785156 408.753906 312.214844 408.753906 328.785156 "/>
</g>
</svg>
