<?xml version="1.0" encoding="UTF-8"?>
<svg xmlns="http://www.w3.org/2000/svg" xmlns:xlink="http://www.w3.org/1999/xlink" width="517pt" height="517pt" viewBox="0 0 517 517" version="1.1">
<g id="surface2026">
<rect x="0" y="0" width="517" height="517" style="fill:rgb(90%,90%,90%);fill-opacity:1;stroke:none;"/>
<path style="fill:none;stroke-width:5;stroke-linecap:butt;stroke-linejoin:round;stroke:rgb(100%,0%,0%);stroke-opacity:1;stroke-miterlimit:10;" d="M 261 5 L 517 5 L 517 261 L 261 261 Z M 261 5 "/>
<path style="fill-rule:nonzero;fill:rgb(100%,7%,57%);fill-opacity:1;stroke-width:1;stroke-linecap:butt;stroke-linejoin:round;stroke:rgb(0%,0%,0%);stroke-opacity:1;stroke-miterlimit:10;" d="M 328.082031 155.808594 L 308.082031 155.808594 L 308.082031 165.808594 L 328.082031 165.808594 L 328.082031 185.808594 L 338.082031 185.808594 L 338.082031 165.808594 L 358.082031 165.808594 L 358.082031 155.808594 L 338.082031 155.808594 L 338.082031 135.808594 L 328.082031 135.808594 L 328.082031 155.808594 "/>
<path style="fill-rule:nonzero;fill:rgb(35%,70%,90%);fill-opacity:1;stroke-width:1;stroke-linecap:butt;stroke-linejoin:round;stroke:rgb(0%,0%,0%);stroke-opacity:1;stroke-miterlimit:10;" d="M 127.316406 66.039062 L 107.316406 66.039062 L 107.316406 76.039062 L 127.316406 76.039062 L 127.316406 96.039062 L 137.316406 96.039062 L 137.316406 76.039062 L 157.316406 76.039062 L 157.316406 66.039062 L 137.316406 66.039062 L 137.316406 46.039062 L 127.316406 46.039062 L 127.316406 66.039062 "/>
<path style="fill-rule:nonzero;fill:rgb(35%,70%,90%);fill-opacity:1;stroke-width:1;stroke-linecap:butt;stroke-linejoin:round;stroke:rgb(0%,0%,0%);stroke-opacity:1;stroke-miterlimit:10;" d="M 203.941406 123.15625 L 183.941406 123.15625 L 183.941406 133.15625 L 203.941406 133.15625 L 203.941406 153.15625 L 213.941406 153.15625 L 213.941406 133.15625 L 233.941406 133.15625 L 233.941406 123.15625 L 213.941406 123.15625 L 213.941406 103.15625 L 203.941406 103.15625 L 203.941406 123.15625 "/>
<path style="fill-rule:nonzero;fill:rgb(35%,70%,90%);fill-opacity:1;stroke-width:1;stroke-linecap:butt;stroke-linejoin:round;stroke:rgb(0%,0%,0%);stroke-opacity:1;stroke-miterlimit:10;" d="M 100.710938 286.558594 L 80.710938 286.558594 L 80.710938 296.558594 L 100.710938 296.558594 L 100.710938 316.558594 L 110.710938 316.558594 L 110.710938 296.558594 L 130.710938 296.558594 L 130.710938 286.558594 L 110.710938 286.558594 L 110.710938 266.558594 L 100.710938 266.558594 L 100.710938 286.558594 "/>
<path style="fill-rule:nonzero;fill:rgb(100%,7%,57%);fill-opacity:1;stroke-width:1;stroke-linecap:butt;stroke-linejoin:round;stroke:rgb(0%,0%,0%);stroke-opacity:1;stroke-miterlimit:10;" d="M 367.136719 422.816406 L 347.136719 422.816406 L 347.136719 432.816406 L 367.136719 432.816406 L 367.136719 452.816406 L 377.136719 452.816406 L 377.136719 432.816406 L 397.136719 432.816406 L 397.136719 422.816406 L 377.136719 422.816406 L 377.136719 402.816406 L 367.136719 402.816406 L 367.136719 422.816406 "/>
</g>
</svg>
