<?xml version="1.0" encoding="UTF-8"?>
<svg xmlns="http://www.w3.org/2000/svg" xmlns:xlink="http://www.w3.org/1999/xlink" width="517pt" height="517pt" viewBox="0 0 517 517" version="1.1">
<g id="surface1806">
<rect x="0" y="0" width="517" height="517" style="fill:rgb(90%,90%,90%);fill-opacity:1;stroke:none;"/>
<path style="fill:none;stroke-width:5;stroke-linecap:butt;stroke-linejoin:round;stroke:rgb(100%,0%,0%);stroke-opacity:1;stroke-miterlimit:10;" d="M 5 5 L 261 5 L 261 261 L 5 261 Z M 5 5 "/>
<path style="fill-rule:nonzero;fill:rgb(100%,100%,0%);fill-opacity:1;stroke-width:1;stroke-linecap:butt;stroke-linejoin:round;stroke:rgb(0%,0%,0%);stroke-opacity:1;stroke-miterlimit:10;" d="M 167.507812 185.910156 C 167.507812 202.480469 154.078125 215.910156 137.507812 215.910156 C 120.941406 215.910156 107.507812 202.480469 107.507812 185.910156 C 107.507812 169.34375 120.941406 155.910156 137.507812 155.910156 C 154.078125 155.910156 167.507812 169.34375 167.507812 185.910156 "/>
<path style="fill-rule:nonzero;fill:rgb(35%,70%,90%);fill-opacity:1;stroke-width:1;stroke-linecap:butt;stroke-linejoin:round;stroke:rgb(0%,0%,0%);stroke-opacity:1;stroke-miterlimit:10;" d="M 407.320312 142.46875 C 407.320312 159.035156 393.886719 172.46875 377.320312 172.46875 C 360.75 172.46875 347.320312 159.035156 347.320312 142.46875 C 347.320312 125.898438 360.75 112.46875 377.320312 112.46875 C 393.886719 112.46875 407.320312 125.898438 407.320312 142.46875 "/>
<path style="fill-rule:nonzero;fill:rgb(100%,100%,0%);fill-opacity:1;stroke-width:1;stroke-linecap:butt;stroke-linejoin:round;stroke:rgb(0%,0%,0%);stroke-opacity:1;stroke-miterlimit:10;" d="M 407.179688 413.128906 C 407.179688 429.699219 393.746094 443.128906 377.179688 443.128906 C 360.609375 443.128906 347.179688 429.699219 347.179688 413.128906 C 347.179688 396.5625 360.609375 383.128906 377.179688 383.128906 C 393.746094 383.128906 407.179688 396.5625 407.179688 413.128906 "/>
<path style="fill-rule:nonzero;fill:rgb(100%,100%,0%);fill-opacity:1;stroke-width:1;stroke-linecap:butt;stroke-linejoin:round;stroke:rgb(0%,0%,0%);stroke-opacity:1;stroke-miterlimit:10;" d="M 474.71875 304.554688 C 474.71875 321.125 461.285156 334.554688 444.71875 334.554688 C 428.148438 334.554688 414.71875 321.125 414.71875 304.554688 C 414.71875 287.988281 428.148438 274.554688 444.71875 274.554688 C 461.285156 274.554688 474.71875 287.988281 474.71875 304.554688 "/>
<path style="fill-rule:nonzero;fill:rgb(100%,100%,0%);fill-opacity:1;stroke-width:1;stroke-linecap:butt;stroke-linejoin:round;stroke:rgb(0%,0%,0%);stroke-opacity:1;stroke-miterlimit:10;" d="M 185.84375 454.929688 C 185.84375 471.5 172.414062 484.929688 155.84375 484.929688 C 139.277344 484.929688 125.84375 471.5 125.84375 454.929688 C 125.84375 438.363281 139.277344 424.929688 155.84375 424.929688 C 172.414062 424.929688 185.84375 438.363281 185.84375 454.929688 "/>
</g>
</svg>
