<?xml version="1.0" encoding="UTF-8"?>
<svg xmlns="http://www.w3.org/2000/svg" xmlns:xlink="http://www.w3.org/1999/xlink" width="517pt" height="517pt" viewBox="0 0 517 517" version="1.1">
<g id="surface1961">
<rect x="0" y="0" width="517" height="517" style="fill:rgb(90%,90%,90%);fill-opacity:1;stroke:none;"/>
<path style="fill:none;stroke-width:5;stroke-linecap:butt;stroke-linejoin:round;stroke:rgb(100%,0%,0%);stroke-opacity:1;stroke-miterlimit:10;" d="M 5 5 L 261 5 L 261 261 L 5 261 Z M 5 5 "/>
<path style="fill-rule:nonzero;fill:rgb(35%,70%,90%);fill-opacity:1;stroke-width:1;stroke-linecap:butt;stroke-linejoin:round;stroke:rgb(0%,0%,0%);stroke-opacity:1;stroke-miterlimit:10;" d="M 38.355469 60.109375 L 18.355469 60.109375 L 18.355469 70.109375 L 38.355469 70.109375 L 38.355469 90.109375 L 48.355469 90.109375 L 48.355469 70.109375 L 68.355469 70.109375 L 68.355469 60.109375 L 48.355469 60.109375 L 48.355469 40.109375 L 38.355469 40.109375 L 38.355469 60.109375 "/>
<path style="fill-rule:nonzero;fill:rgb(90%,65%,0%);fill-opacity:1;stroke-width:1;stroke-linecap:butt;stroke-linejoin:round;stroke:rgb(0%,0%,0%);stroke-opacity:1;stroke-miterlimit:10;" d="M 441.996094 190.773438 L 421.996094 190.773438 L 421.996094 200.773438 L 441.996094 200.773438 L 441.996094 220.773438 L 451.996094 220.773438 L 451.996094 200.773438 L 471.996094 200.773438 L 471.996094 190.773438 L 451.996094 190.773438 L 451.996094 170.773438 L 441.996094 170.773438 L 441.996094 190.773438 "/>
<path style="fill-rule:nonzero;fill:rgb(35%,70%,90%);fill-opacity:1;stroke-width:1;stroke-linecap:butt;stroke-linejoin:round;stroke:rgb(0%,0%,0%);stroke-opacity:1;stroke-miterlimit:10;" d="M 131.140625 453.886719 L 111.140625 453.886719 L 111.140625 463.886719 L 131.140625 463.886719 L 131.140625 483.886719 L 141.140625 483.886719 L 141.140625 463.886719 L 161.140625 463.886719 L 161.140625 453.886719 L 141.140625 453.886719 L 141.140625 433.886719 L 131.140625 433.886719 L 131.140625 453.886719 "/>
<path style="fill-rule:nonzero;fill:rgb(35%,70%,90%);fill-opacity:1;stroke-width:1;stroke-linecap:butt;stroke-linejoin:round;stroke:rgb(0%,0%,0%);stroke-opacity:1;stroke-miterlimit:10;" d="M 55.351562 346.472656 L 35.351562 346.472656 L 35.351562 356.472656 L 55.351562 356.472656 L 55.351562 376.472656 L 65.351562 376.472656 L 65.351562 356.472656 L 85.351562 356.472656 L 85.351562 346.472656 L 65.351562 346.472656 L 65.351562 326.472656 L 55.351562 326.472656 L 55.351562 346.472656 "/>
<path style="fill-rule:nonzero;fill:rgb(35%,70%,90%);fill-opacity:1;stroke-width:1;stroke-linecap:butt;stroke-linejoin:round;stroke:rgb(0%,0%,0%);stroke-opacity:1;stroke-miterlimit:10;" d="M 393.3125 448.320312 L 373.3125 448.320312 L 373.3125 458.320312 L 393.3125 458.320312 L 393.3125 478.320312 L 403.3125 478.320312 L 403.3125 458.320312 L 423.3125 458.320312 L 423.3125 448.320312 L 403.3125 448.320312 L 403.3125 428.320312 L 393.3125 428.320312 L 393.3125 448.320312 "/>
</g>
</svg>
