<?xml version="1.0" encoding="UTF-8"?>
<svg xmlns="http://www.w3.org/2000/svg" xmlns:xlink="http://www.w3.org/1999/xlink" width="517pt" height="517pt" viewBox="0 0 517 517" version="1.1">
<g id="surface1946">
<rect x="0" y="0" width="517" height="517" style="fill:rgb(90%,90%,90%);fill-opacity:1;stroke:none;"/>
<path style="fill:none;stroke-width:5;stroke-linecap:butt;stroke-linejoin:round;stroke:rgb(100%,0%,0%);stroke-opacity:1;stroke-miterlimit:10;" d="M 5 5 L 261 5 L 261 261 L 5 261 Z M 5 5 "/>
<path style="fill-rule:nonzero;fill:rgb(35%,70%,90%);fill-opacity:1;stroke-width:1;stroke-linecap:butt;stroke-linejoin:round;stroke:rgb(0%,0%,0%);stroke-opacity:1;stroke-miterlimit:10;" d="M 55.273438 164.117188 L 35.273438 164.117188 L 35.273438 174.117188 L 55.273438 174.117188 L 55.273438 194.117188 L 65.273438 194.117188 L 65.273438 174.117188 L 85.273438 174.117188 L 85.273438 164.117188 L 65.273438 164.117188 L 65.273438 144.117188 L 55.273438 144.117188 L 55.273438 164.117188 "/>
<path style="fill-rule:nonzero;fill:rgb(90%,65%,0%);fill-opacity:1;stroke-width:1;stroke-linecap:butt;stroke-linejoin:round;stroke:rgb(0%,0%,0%);stroke-opacity:1;stroke-miterlimit:10;" d="M 53.753906 420.289062 L 33.753906 420.289062 L 33.753906 430.289062 L 53.753906 430.289062 L 53.753906 450.289062 L 63.753906 450.289062 L 63.753906 430.289062 L 83.753906 430.289062 L 83.753906 420.289062 L 63.753906 420.289062 L 63.753906 400.289062 L 53.753906 400.289062 L 53.753906 420.289062 "/>
<path style="fill-rule:nonzero;fill:rgb(90%,65%,0%);fill-opacity:1;stroke-width:1;stroke-linecap:butt;stroke-linejoin:round;stroke:rgb(0%,0%,0%);stroke-opacity:1;stroke-miterlimit:10;" d="M 308.582031 64.792969 L 288.582031 64.792969 L 288.582031 74.792969 L 308.582031 74.792969 L 308.582031 94.792969 L 318.582031 94.792969 L 318.582031 74.792969 L 338.582031 74.792969 L 338.582031 64.792969 L 318.582031 64.792969 L 318.582031 44.792969 L 308.582031 44.792969 L 308.582031 64.792969 "/>
<path style="fill-rule:nonzero;fill:rgb(90%,65%,0%);fill-opacity:1;stroke-width:1;stroke-linecap:butt;stroke-linejoin:round;stroke:rgb(0%,0%,0%);stroke-opacity:1;stroke-miterlimit:10;" d="M 295.695312 329.144531 L 275.695312 329.144531 L 275.695312 339.144531 L 295.695312 339.144531 L 295.695312 359.144531 L 305.695312 359.144531 L 305.695312 339.144531 L 325.695312 339.144531 L 325.695312 329.144531 L 305.695312 329.144531 L 305.695312 309.144531 L 295.695312 309.144531 L 295.695312 329.144531 "/>
<path style="fill-rule:nonzero;fill:rgb(35%,70%,90%);fill-opacity:1;stroke-width:1;stroke-linecap:butt;stroke-linejoin:round;stroke:rgb(0%,0%,0%);stroke-opacity:1;stroke-miterlimit:10;" d="M 356.035156 368.390625 L 336.035156 368.390625 L 336.035156 378.390625 L 356.035156 378.390625 L 356.035156 398.390625 L 366.035156 398.390625 L 366.035156 378.390625 L 386.035156 378.390625 L 386.035156 368.390625 L 366.035156 368.390625 L 366.035156 348.390625 L 356.035156 348.390625 L 356.035156 368.390625 "/>
</g>
</svg>
