<?xml version="1.0" encoding="UTF-8"?>
<svg xmlns="http://www.w3.org/2000/svg" xmlns:xlink="http://www.w3.org/1999/xlink" width="517pt" height="517pt" viewBox="0 0 517 517" version="1.1">
<g id="surface2241">
<rect x="0" y="0" width="517" height="517" style="fill:rgb(90%,90%,90%);fill-opacity:1;stroke:none;"/>
<path style="fill:none;stroke-width:5;stroke-linecap:butt;stroke-linejoin:round;stroke:rgb(100%,0%,0%);stroke-opacity:1;stroke-miterlimit:10;" d="M 261 5 L 517 5 L 517 261 L 261 261 Z M 261 5 "/>
<path style="fill-rule:nonzero;fill:rgb(67%,100%,18%);fill-opacity:1;stroke-width:1;stroke-linecap:butt;stroke-linejoin:round;stroke:rgb(0%,0%,0%);stroke-opacity:1;stroke-miterlimit:10;" d="M 398.363281 201.320312 C 398.363281 217.886719 384.933594 231.320312 368.363281 231.320312 C 351.796875 231.320312 338.363281 217.886719 338.363281 201.320312 C 338.363281 184.75 351.796875 171.320312 368.363281 171.320312 C 384.933594 171.320312 398.363281 184.75 398.363281 201.320312 "/>
<path style="fill-rule:nonzero;fill:rgb(100%,0%,0%);fill-opacity:1;stroke-width:1;stroke-linecap:butt;stroke-linejoin:round;stroke:rgb(0%,0%,0%);stroke-opacity:1;stroke-miterlimit:10;" d="M 87.085938 450 C 87.085938 466.566406 73.652344 480 57.085938 480 C 40.515625 480 27.085938 466.566406 27.085938 450 C 27.085938 433.429688 40.515625 420 57.085938 420 C 73.652344 420 87.085938 433.429688 87.085938 450 "/>
<path style="fill-rule:nonzero;fill:rgb(100%,0%,0%);fill-opacity:1;stroke-width:1;stroke-linecap:butt;stroke-linejoin:round;stroke:rgb(0%,0%,0%);stroke-opacity:1;stroke-miterlimit:10;" d="M 234.195312 369.410156 C 234.195312 385.980469 220.765625 399.410156 204.195312 399.410156 C 187.625 399.410156 174.195312 385.980469 174.195312 369.410156 C 174.195312 352.839844 187.625 339.410156 204.195312 339.410156 C 220.765625 339.410156 234.195312 352.839844 234.195312 369.410156 "/>
<path style="fill-rule:nonzero;fill:rgb(100%,0%,0%);fill-opacity:1;stroke-width:1;stroke-linecap:butt;stroke-linejoin:round;stroke:rgb(0%,0%,0%);stroke-opacity:1;stroke-miterlimit:10;" d="M 216.414062 75.570312 C 216.414062 92.136719 202.980469 105.570312 186.414062 105.570312 C 169.84375 105.570312 156.414062 92.136719 156.414062 75.570312 C 156.414062 59 169.84375 45.570312 186.414062 45.570312 C 202.980469 45.570312 216.414062 59 216.414062 75.570312 "/>
<path style="fill-rule:nonzero;fill:rgb(100%,0%,0%);fill-opacity:1;stroke-width:1;stroke-linecap:butt;stroke-linejoin:round;stroke:rgb(0%,0%,0%);stroke-opacity:1;stroke-miterlimit:10;" d="M 120.507812 64.894531 C 120.507812 81.464844 107.078125 94.894531 90.507812 94.894531 C 73.941406 94.894531 60.507812 81.464844 60.507812 64.894531 C 60.507812 48.328125 73.941406 34.894531 90.507812 34.894531 C 107.078125 34.894531 120.507812 48.328125 120.507812 64.894531 "/>
</g>
</svg>
