<?xml version="1.0" encoding="UTF-8"?>
<svg xmlns="http://www.w3.org/2000/svg" xmlns:xlink="http://www.w3.org/1999/xlink" width="517pt" height="517pt" viewBox="0 0 517 517" version="1.1">
<g id="surface1991">
<rect x="0" y="0" width="517" height="517" style="fill:rgb(90%,90%,90%);fill-opacity:1;stroke:none;"/>
<path style="fill:none;stroke-width:5;stroke-linecap:butt;stroke-linejoin:round;stroke:rgb(100%,0%,0%);stroke-opacity:1;stroke-miterlimit:10;" d="M 5 5 L 261 5 L 261 261 L 5 261 Z M 5 5 "/>
<path style="fill-rule:nonzero;fill:rgb(90%,65%,0%);fill-opacity:1;stroke-width:1;stroke-linecap:butt;stroke-linejoin:round;stroke:rgb(0%,0%,0%);stroke-opacity:1;stroke-miterlimit:10;" d="M 211.253906 184.914062 L 191.253906 184.914062 L 191.253906 194.914062 L 211.253906 194.914062 L 211.253906 214.914062 L 221.253906 214.914062 L 221.253906 194.914062 L 241.253906 194.914062 L 241.253906 184.914062 L 221.253906 184.914062 L 221.253906 164.914062 L 211.253906 164.914062 L 211.253906 184.914062 "/>
<path style="fill-rule:nonzero;fill:rgb(90%,65%,0%);fill-opacity:1;stroke-width:1;stroke-linecap:butt;stroke-linejoin:round;stroke:rgb(0%,0%,0%);stroke-opacity:1;stroke-miterlimit:10;" d="M 336.308594 201.371094 L 316.308594 201.371094 L 316.308594 211.371094 L 336.308594 211.371094 L 336.308594 231.371094 L 346.308594 231.371094 L 346.308594 211.371094 L 366.308594 211.371094 L 366.308594 201.371094 L 346.308594 201.371094 L 346.308594 181.371094 L 336.308594 181.371094 L 336.308594 201.371094 "/>
<path style="fill-rule:nonzero;fill:rgb(35%,70%,90%);fill-opacity:1;stroke-width:1;stroke-linecap:butt;stroke-linejoin:round;stroke:rgb(0%,0%,0%);stroke-opacity:1;stroke-miterlimit:10;" d="M 433.394531 147.394531 L 413.394531 147.394531 L 413.394531 157.394531 L 433.394531 157.394531 L 433.394531 177.394531 L 443.394531 177.394531 L 443.394531 157.394531 L 463.394531 157.394531 L 463.394531 147.394531 L 443.394531 147.394531 L 443.394531 127.394531 L 433.394531 127.394531 L 433.394531 147.394531 "/>
<path style="fill-rule:nonzero;fill:rgb(35%,70%,90%);fill-opacity:1;stroke-width:1;stroke-linecap:butt;stroke-linejoin:round;stroke:rgb(0%,0%,0%);stroke-opacity:1;stroke-miterlimit:10;" d="M 332.699219 310.988281 L 312.699219 310.988281 L 312.699219 320.988281 L 332.699219 320.988281 L 332.699219 340.988281 L 342.699219 340.988281 L 342.699219 320.988281 L 362.699219 320.988281 L 362.699219 310.988281 L 342.699219 310.988281 L 342.699219 290.988281 L 332.699219 290.988281 L 332.699219 310.988281 "/>
<path style="fill-rule:nonzero;fill:rgb(35%,70%,90%);fill-opacity:1;stroke-width:1;stroke-linecap:butt;stroke-linejoin:round;stroke:rgb(0%,0%,0%);stroke-opacity:1;stroke-miterlimit:10;" d="M 81.355469 462.449219 L 61.355469 462.449219 L 61.355469 472.449219 L 81.355469 472.449219 L 81.355469 492.449219 L 91.355469 492.449219 L 91.355469 472.449219 L 111.355469 472.449219 L 111.355469 462.449219 L 91.355469 462.449219 L 91.355469 442.449219 L 81.355469 442.449219 L 81.355469 462.449219 "/>
</g>
</svg>
