<?xml version="1.0" encoding="UTF-8"?>
<svg xmlns="http://www.w3.org/2000/svg" xmlns:xlink="http://www.w3.org/1999/xlink" width="517pt" height="517pt" viewBox="0 0 517 517" version="1.1">
<g id="surface1886">
<rect x="0" y="0" width="517" height="517" style="fill:rgb(90%,90%,90%);fill-opacity:1;stroke:none;"/>
<path style="fill:none;stroke-width:5;stroke-linecap:butt;stroke-linejoin:round;stroke:rgb(100%,0%,0%);stroke-opacity:1;stroke-miterlimit:10;" d="M 5 5 L 261 5 L 261 261 L 5 261 Z M 5 5 "/>
<path style="fill-rule:nonzero;fill:rgb(100%,7%,57%);fill-opacity:1;stroke-width:1;stroke-linecap:butt;stroke-linejoin:round;stroke:rgb(0%,0%,0%);stroke-opacity:1;stroke-miterlimit:10;" d="M 202.648438 131.296875 C 202.648438 116.898438 178.648438 116.898438 178.648438 131.296875 C 178.648438 145.695312 202.648438 148.097656 202.648438 160.097656 C 202.648438 148.097656 226.648438 145.695312 226.648438 131.296875 C 226.648438 116.898438 202.648438 116.898438 202.648438 131.296875 "/>
<path style="fill-rule:nonzero;fill:rgb(67%,100%,18%);fill-opacity:1;stroke-width:1;stroke-linecap:butt;stroke-linejoin:round;stroke:rgb(0%,0%,0%);stroke-opacity:1;stroke-miterlimit:10;" d="M 361 41.535156 C 361 27.132812 337 27.132812 337 41.535156 C 337 55.933594 361 58.332031 361 70.332031 C 361 58.332031 385 55.933594 385 41.535156 C 385 27.132812 361 27.132812 361 41.535156 "/>
<path style="fill-rule:nonzero;fill:rgb(100%,7%,57%);fill-opacity:1;stroke-width:1;stroke-linecap:butt;stroke-linejoin:round;stroke:rgb(0%,0%,0%);stroke-opacity:1;stroke-miterlimit:10;" d="M 328.074219 369.539062 C 328.074219 355.136719 304.074219 355.136719 304.074219 369.539062 C 304.074219 383.9375 328.074219 386.335938 328.074219 398.335938 C 328.074219 386.335938 352.074219 383.9375 352.074219 369.539062 C 352.074219 355.136719 328.074219 355.136719 328.074219 369.539062 "/>
<path style="fill-rule:nonzero;fill:rgb(100%,7%,57%);fill-opacity:1;stroke-width:1;stroke-linecap:butt;stroke-linejoin:round;stroke:rgb(0%,0%,0%);stroke-opacity:1;stroke-miterlimit:10;" d="M 145.957031 436.480469 C 145.957031 422.078125 121.957031 422.078125 121.957031 436.480469 C 121.957031 450.878906 145.957031 453.277344 145.957031 465.277344 C 145.957031 453.277344 169.957031 450.878906 169.957031 436.480469 C 169.957031 422.078125 145.957031 422.078125 145.957031 436.480469 "/>
<path style="fill-rule:nonzero;fill:rgb(100%,7%,57%);fill-opacity:1;stroke-width:1;stroke-linecap:butt;stroke-linejoin:round;stroke:rgb(0%,0%,0%);stroke-opacity:1;stroke-miterlimit:10;" d="M 55.933594 418.433594 C 55.933594 404.03125 31.933594 404.03125 31.933594 418.433594 C 31.933594 432.832031 55.933594 435.230469 55.933594 447.230469 C 55.933594 435.230469 79.933594 432.832031 79.933594 418.433594 C 79.933594 404.03125 55.933594 404.03125 55.933594 418.433594 "/>
</g>
</svg>
