<?xml version="1.0" encoding="UTF-8"?>
<svg xmlns="http://www.w3.org/2000/svg" xmlns:xlink="http://www.w3.org/1999/xlink" width="517pt" height="517pt" viewBox="0 0 517 517" version="1.1">
<g id="surface1916">
<rect x="0" y="0" width="517" height="517" style="fill:rgb(90%,90%,90%);fill-opacity:1;stroke:none;"/>
<path style="fill:none;stroke-width:5;stroke-linecap:butt;stroke-linejoin:round;stroke:rgb(100%,0%,0%);stroke-opacity:1;stroke-miterlimit:10;" d="M 5 5 L 261 5 L 261 261 L 5 261 Z M 5 5 "/>
<path style="fill-rule:nonzero;fill:rgb(67%,100%,18%);fill-opacity:1;stroke-width:1;stroke-linecap:butt;stroke-linejoin:round;stroke:rgb(0%,0%,0%);stroke-opacity:1;stroke-miterlimit:10;" d="M 191.6875 72.398438 C 191.6875 58 167.6875 58 167.6875 72.398438 C 167.6875 86.800781 191.6875 89.199219 191.6875 101.199219 C 191.6875 89.199219 215.6875 86.800781 215.6875 72.398438 C 215.6875 58 191.6875 58 191.6875 72.398438 "/>
<path style="fill-rule:nonzero;fill:rgb(67%,100%,18%);fill-opacity:1;stroke-width:1;stroke-linecap:butt;stroke-linejoin:round;stroke:rgb(0%,0%,0%);stroke-opacity:1;stroke-miterlimit:10;" d="M 207.828125 338.023438 C 207.828125 323.621094 183.828125 323.621094 183.828125 338.023438 C 183.828125 352.421875 207.828125 354.820312 207.828125 366.820312 C 207.828125 354.820312 231.828125 352.421875 231.828125 338.023438 C 231.828125 323.621094 207.828125 323.621094 207.828125 338.023438 "/>
<path style="fill-rule:nonzero;fill:rgb(67%,100%,18%);fill-opacity:1;stroke-width:1;stroke-linecap:butt;stroke-linejoin:round;stroke:rgb(0%,0%,0%);stroke-opacity:1;stroke-miterlimit:10;" d="M 120.671875 349.144531 C 120.671875 334.746094 96.671875 334.746094 96.671875 349.144531 C 96.671875 363.546875 120.671875 365.945312 120.671875 377.945312 C 120.671875 365.945312 144.671875 363.546875 144.671875 349.144531 C 144.671875 334.746094 120.671875 334.746094 120.671875 349.144531 "/>
<path style="fill-rule:nonzero;fill:rgb(67%,100%,18%);fill-opacity:1;stroke-width:1;stroke-linecap:butt;stroke-linejoin:round;stroke:rgb(0%,0%,0%);stroke-opacity:1;stroke-miterlimit:10;" d="M 411.253906 436.386719 C 411.253906 421.988281 387.253906 421.988281 387.253906 436.386719 C 387.253906 450.785156 411.253906 453.1875 411.253906 465.1875 C 411.253906 453.1875 435.253906 450.785156 435.253906 436.386719 C 435.253906 421.988281 411.253906 421.988281 411.253906 436.386719 "/>
<path style="fill-rule:nonzero;fill:rgb(100%,7%,57%);fill-opacity:1;stroke-width:1;stroke-linecap:butt;stroke-linejoin:round;stroke:rgb(0%,0%,0%);stroke-opacity:1;stroke-miterlimit:10;" d="M 412.726562 322.554688 C 412.726562 308.15625 388.726562 308.15625 388.726562 322.554688 C 388.726562 336.957031 412.726562 339.355469 412.726562 351.355469 C 412.726562 339.355469 436.726562 336.957031 436.726562 322.554688 C 436.726562 308.15625 412.726562 308.15625 412.726562 322.554688 "/>
</g>
</svg>
