<?xml version="1.0" encoding="UTF-8"?>
<svg xmlns="http://www.w3.org/2000/svg" xmlns:xlink="http://www.w3.org/1999/xlink" width="517pt" height="517pt" viewBox="0 0 517 517" version="1.1">
<g id="surface1796">
<rect x="0" y="0" width="517" height="517" style="fill:rgb(90%,90%,90%);fill-opacity:1;stroke:none;"/>
<path style="fill:none;stroke-width:5;stroke-linecap:butt;stroke-linejoin:round;stroke:rgb(100%,0%,0%);stroke-opacity:1;stroke-miterlimit:10;" d="M 5 5 L 261 5 L 261 261 L 5 261 Z M 5 5 "/>
<path style="fill-rule:nonzero;fill:rgb(100%,100%,0%);fill-opacity:1;stroke-width:1;stroke-linecap:butt;stroke-linejoin:round;stroke:rgb(0%,0%,0%);stroke-opacity:1;stroke-miterlimit:10;" d="M 111.59375 151.703125 C 111.59375 168.269531 98.164062 181.703125 81.59375 181.703125 C 65.027344 181.703125 51.59375 168.269531 51.59375 151.703125 C 51.59375 135.132812 65.027344 121.703125 81.59375 121.703125 C 98.164062 121.703125 111.59375 135.132812 111.59375 151.703125 "/>
<path style="fill-rule:nonzero;fill:rgb(35%,70%,90%);fill-opacity:1;stroke-width:1;stroke-linecap:butt;stroke-linejoin:round;stroke:rgb(0%,0%,0%);stroke-opacity:1;stroke-miterlimit:10;" d="M 368.027344 301.425781 C 368.027344 317.992188 354.597656 331.425781 338.027344 331.425781 C 321.460938 331.425781 308.027344 317.992188 308.027344 301.425781 C 308.027344 284.855469 321.460938 271.425781 338.027344 271.425781 C 354.597656 271.425781 368.027344 284.855469 368.027344 301.425781 "/>
<path style="fill-rule:nonzero;fill:rgb(35%,70%,90%);fill-opacity:1;stroke-width:1;stroke-linecap:butt;stroke-linejoin:round;stroke:rgb(0%,0%,0%);stroke-opacity:1;stroke-miterlimit:10;" d="M 336.585938 397.832031 C 336.585938 414.402344 323.152344 427.832031 306.585938 427.832031 C 290.015625 427.832031 276.585938 414.402344 276.585938 397.832031 C 276.585938 381.261719 290.015625 367.832031 306.585938 367.832031 C 323.152344 367.832031 336.585938 381.261719 336.585938 397.832031 "/>
<path style="fill-rule:nonzero;fill:rgb(35%,70%,90%);fill-opacity:1;stroke-width:1;stroke-linecap:butt;stroke-linejoin:round;stroke:rgb(0%,0%,0%);stroke-opacity:1;stroke-miterlimit:10;" d="M 204.148438 336.332031 C 204.148438 352.902344 190.714844 366.332031 174.148438 366.332031 C 157.578125 366.332031 144.148438 352.902344 144.148438 336.332031 C 144.148438 319.765625 157.578125 306.332031 174.148438 306.332031 C 190.714844 306.332031 204.148438 319.765625 204.148438 336.332031 "/>
<path style="fill-rule:nonzero;fill:rgb(100%,100%,0%);fill-opacity:1;stroke-width:1;stroke-linecap:butt;stroke-linejoin:round;stroke:rgb(0%,0%,0%);stroke-opacity:1;stroke-miterlimit:10;" d="M 132.578125 455.570312 C 132.578125 472.136719 119.144531 485.570312 102.578125 485.570312 C 86.007812 485.570312 72.578125 472.136719 72.578125 455.570312 C 72.578125 439 86.007812 425.570312 102.578125 425.570312 C 119.144531 425.570312 132.578125 439 132.578125 455.570312 "/>
</g>
</svg>
