<?xml version="1.0" encoding="UTF-8"?>
<svg xmlns="http://www.w3.org/2000/svg" xmlns:xlink="http://www.w3.org/1999/xlink" width="517pt" height="517pt" viewBox="0 0 517 517" version="1.1">
<g id="surface1791">
<rect x="0" y="0" width="517" height="517" style="fill:rgb(90%,90%,90%);fill-opacity:1;stroke:none;"/>
<path style="fill:none;stroke-width:5;stroke-linecap:butt;stroke-linejoin:round;stroke:rgb(100%,0%,0%);stroke-opacity:1;stroke-miterlimit:10;" d="M 5 5 L 261 5 L 261 261 L 5 261 Z M 5 5 "/>
<path style="fill-rule:nonzero;fill:rgb(100%,100%,0%);fill-opacity:1;stroke-width:1;stroke-linecap:butt;stroke-linejoin:round;stroke:rgb(0%,0%,0%);stroke-opacity:1;stroke-miterlimit:10;" d="M 77.769531 110.929688 C 77.769531 127.5 64.339844 140.929688 47.769531 140.929688 C 31.199219 140.929688 17.769531 127.5 17.769531 110.929688 C 17.769531 94.363281 31.199219 80.929688 47.769531 80.929688 C 64.339844 80.929688 77.769531 94.363281 77.769531 110.929688 "/>
<path style="fill-rule:nonzero;fill:rgb(35%,70%,90%);fill-opacity:1;stroke-width:1;stroke-linecap:butt;stroke-linejoin:round;stroke:rgb(0%,0%,0%);stroke-opacity:1;stroke-miterlimit:10;" d="M 355.640625 401.855469 C 355.640625 418.421875 342.210938 431.855469 325.640625 431.855469 C 309.074219 431.855469 295.640625 418.421875 295.640625 401.855469 C 295.640625 385.285156 309.074219 371.855469 325.640625 371.855469 C 342.210938 371.855469 355.640625 385.285156 355.640625 401.855469 "/>
<path style="fill-rule:nonzero;fill:rgb(35%,70%,90%);fill-opacity:1;stroke-width:1;stroke-linecap:butt;stroke-linejoin:round;stroke:rgb(0%,0%,0%);stroke-opacity:1;stroke-miterlimit:10;" d="M 456.035156 446.257812 C 456.035156 462.828125 442.605469 476.257812 426.035156 476.257812 C 409.46875 476.257812 396.035156 462.828125 396.035156 446.257812 C 396.035156 429.691406 409.46875 416.257812 426.035156 416.257812 C 442.605469 416.257812 456.035156 429.691406 456.035156 446.257812 "/>
<path style="fill-rule:nonzero;fill:rgb(35%,70%,90%);fill-opacity:1;stroke-width:1;stroke-linecap:butt;stroke-linejoin:round;stroke:rgb(0%,0%,0%);stroke-opacity:1;stroke-miterlimit:10;" d="M 325.863281 190.367188 C 325.863281 206.9375 312.433594 220.367188 295.863281 220.367188 C 279.296875 220.367188 265.863281 206.9375 265.863281 190.367188 C 265.863281 173.800781 279.296875 160.367188 295.863281 160.367188 C 312.433594 160.367188 325.863281 173.800781 325.863281 190.367188 "/>
<path style="fill-rule:nonzero;fill:rgb(100%,100%,0%);fill-opacity:1;stroke-width:1;stroke-linecap:butt;stroke-linejoin:round;stroke:rgb(0%,0%,0%);stroke-opacity:1;stroke-miterlimit:10;" d="M 397.480469 57.121094 C 397.480469 73.6875 384.046875 87.121094 367.480469 87.121094 C 350.910156 87.121094 337.480469 73.6875 337.480469 57.121094 C 337.480469 40.550781 350.910156 27.121094 367.480469 27.121094 C 384.046875 27.121094 397.480469 40.550781 397.480469 57.121094 "/>
</g>
</svg>
