<?xml version="1.0" encoding="UTF-8"?>
<svg xmlns="http://www.w3.org/2000/svg" xmlns:xlink="http://www.w3.org/1999/xlink" width="517pt" height="517pt" viewBox="0 0 517 517" version="1.1">
<g id="surface1541">
<rect x="0" y="0" width="517" height="517" style="fill:rgb(90%,90%,90%);fill-opacity:1;stroke:none;"/>
<path style="fill:none;stroke-width:5;stroke-linecap:butt;stroke-linejoin:round;stroke:rgb(100%,0%,0%);stroke-opacity:1;stroke-miterlimit:10;" d="M 261 261 L 517 261 L 517 517 L 261 517 Z M 261 261 "/>
<path style="fill-rule:nonzero;fill:rgb(53%,27%,7%);fill-opacity:1;stroke-width:1;stroke-linecap:butt;stroke-linejoin:round;stroke:rgb(0%,0%,0%);stroke-opacity:1;stroke-miterlimit:10;" d="M 343.804688 444.117188 L 323.804688 444.117188 L 323.804688 454.117188 L 343.804688 454.117188 L 343.804688 474.117188 L 353.804688 474.117188 L 353.804688 454.117188 L 373.804688 454.117188 L 373.804688 444.117188 L 353.804688 444.117188 L 353.804688 424.117188 L 343.804688 424.117188 L 343.804688 444.117188 "/>
<path style="fill-rule:nonzero;fill:rgb(35%,70%,90%);fill-opacity:1;stroke-width:1;stroke-linecap:butt;stroke-linejoin:round;stroke:rgb(0%,0%,0%);stroke-opacity:1;stroke-miterlimit:10;" d="M 426.613281 102.445312 L 406.613281 102.445312 L 406.613281 112.445312 L 426.613281 112.445312 L 426.613281 132.445312 L 436.613281 132.445312 L 436.613281 112.445312 L 456.613281 112.445312 L 456.613281 102.445312 L 436.613281 102.445312 L 436.613281 82.445312 L 426.613281 82.445312 L 426.613281 102.445312 "/>
<path style="fill-rule:nonzero;fill:rgb(35%,70%,90%);fill-opacity:1;stroke-width:1;stroke-linecap:butt;stroke-linejoin:round;stroke:rgb(0%,0%,0%);stroke-opacity:1;stroke-miterlimit:10;" d="M 349.707031 130.890625 L 329.707031 130.890625 L 329.707031 140.890625 L 349.707031 140.890625 L 349.707031 160.890625 L 359.707031 160.890625 L 359.707031 140.890625 L 379.707031 140.890625 L 379.707031 130.890625 L 359.707031 130.890625 L 359.707031 110.890625 L 349.707031 110.890625 L 349.707031 130.890625 "/>
<path style="fill-rule:nonzero;fill:rgb(53%,27%,7%);fill-opacity:1;stroke-width:1;stroke-linecap:butt;stroke-linejoin:round;stroke:rgb(0%,0%,0%);stroke-opacity:1;stroke-miterlimit:10;" d="M 44.347656 427.105469 L 24.347656 427.105469 L 24.347656 437.105469 L 44.347656 437.105469 L 44.347656 457.105469 L 54.347656 457.105469 L 54.347656 437.105469 L 74.347656 437.105469 L 74.347656 427.105469 L 54.347656 427.105469 L 54.347656 407.105469 L 44.347656 407.105469 L 44.347656 427.105469 "/>
</g>
</svg>
