<?xml version="1.0" encoding="UTF-8"?>
<svg xmlns="http://www.w3.org/2000/svg" xmlns:xlink="http://www.w3.org/1999/xlink" width="517pt" height="517pt" viewBox="0 0 517 517" version="1.1">
<g id="surface1891">
<rect x="0" y="0" width="517" height="517" style="fill:rgb(90%,90%,90%);fill-opacity:1;stroke:none;"/>
<path style="fill:none;stroke-width:5;stroke-linecap:butt;stroke-linejoin:round;stroke:rgb(100%,0%,0%);stroke-opacity:1;stroke-miterlimit:10;" d="M 5 5 L 261 5 L 261 261 L 5 261 Z M 5 5 "/>
<path style="fill-rule:nonzero;fill:rgb(100%,7%,57%);fill-opacity:1;stroke-width:1;stroke-linecap:butt;stroke-linejoin:round;stroke:rgb(0%,0%,0%);stroke-opacity:1;stroke-miterlimit:10;" d="M 75.339844 139.476562 C 75.339844 125.074219 51.339844 125.074219 51.339844 139.476562 C 51.339844 153.875 75.339844 156.277344 75.339844 168.277344 C 75.339844 156.277344 99.339844 153.875 99.339844 139.476562 C 99.339844 125.074219 75.339844 125.074219 75.339844 139.476562 "/>
<path style="fill-rule:nonzero;fill:rgb(67%,100%,18%);fill-opacity:1;stroke-width:1;stroke-linecap:butt;stroke-linejoin:round;stroke:rgb(0%,0%,0%);stroke-opacity:1;stroke-miterlimit:10;" d="M 101.214844 369.746094 C 101.214844 355.34375 77.214844 355.34375 77.214844 369.746094 C 77.214844 384.144531 101.214844 386.546875 101.214844 398.546875 C 101.214844 386.546875 125.214844 384.144531 125.214844 369.746094 C 125.214844 355.34375 101.214844 355.34375 101.214844 369.746094 "/>
<path style="fill-rule:nonzero;fill:rgb(100%,7%,57%);fill-opacity:1;stroke-width:1;stroke-linecap:butt;stroke-linejoin:round;stroke:rgb(0%,0%,0%);stroke-opacity:1;stroke-miterlimit:10;" d="M 206.246094 334.332031 C 206.246094 319.933594 182.246094 319.933594 182.246094 334.332031 C 182.246094 348.730469 206.246094 351.132812 206.246094 363.132812 C 206.246094 351.132812 230.246094 348.730469 230.246094 334.332031 C 230.246094 319.933594 206.246094 319.933594 206.246094 334.332031 "/>
<path style="fill-rule:nonzero;fill:rgb(100%,7%,57%);fill-opacity:1;stroke-width:1;stroke-linecap:butt;stroke-linejoin:round;stroke:rgb(0%,0%,0%);stroke-opacity:1;stroke-miterlimit:10;" d="M 404.769531 193.871094 C 404.769531 179.472656 380.769531 179.472656 380.769531 193.871094 C 380.769531 208.273438 404.769531 210.671875 404.769531 222.671875 C 404.769531 210.671875 428.769531 208.273438 428.769531 193.871094 C 428.769531 179.472656 404.769531 179.472656 404.769531 193.871094 "/>
<path style="fill-rule:nonzero;fill:rgb(100%,7%,57%);fill-opacity:1;stroke-width:1;stroke-linecap:butt;stroke-linejoin:round;stroke:rgb(0%,0%,0%);stroke-opacity:1;stroke-miterlimit:10;" d="M 291.613281 147.773438 C 291.613281 133.371094 267.613281 133.371094 267.613281 147.773438 C 267.613281 162.171875 291.613281 164.570312 291.613281 176.570312 C 291.613281 164.570312 315.613281 162.171875 315.613281 147.773438 C 315.613281 133.371094 291.613281 133.371094 291.613281 147.773438 "/>
</g>
</svg>
