<?xml version="1.0" encoding="UTF-8"?>
<svg xmlns="http://www.w3.org/2000/svg" xmlns:xlink="http://www.w3.org/1999/xlink" width="517pt" height="517pt" viewBox="0 0 517 517" version="1.1">
<g id="surface1981">
<rect x="0" y="0" width="517" height="517" style="fill:rgb(90%,90%,90%);fill-opacity:1;stroke:none;"/>
<path style="fill:none;stroke-width:5;stroke-linecap:butt;stroke-linejoin:round;stroke:rgb(100%,0%,0%);stroke-opacity:1;stroke-miterlimit:10;" d="M 5 5 L 261 5 L 261 261 L 5 261 Z M 5 5 "/>
<path style="fill-rule:nonzero;fill:rgb(90%,65%,0%);fill-opacity:1;stroke-width:1;stroke-linecap:butt;stroke-linejoin:round;stroke:rgb(0%,0%,0%);stroke-opacity:1;stroke-miterlimit:10;" d="M 62.105469 185.046875 L 42.105469 185.046875 L 42.105469 195.046875 L 62.105469 195.046875 L 62.105469 215.046875 L 72.105469 215.046875 L 72.105469 195.046875 L 92.105469 195.046875 L 92.105469 185.046875 L 72.105469 185.046875 L 72.105469 165.046875 L 62.105469 165.046875 L 62.105469 185.046875 "/>
<path style="fill-rule:nonzero;fill:rgb(90%,65%,0%);fill-opacity:1;stroke-width:1;stroke-linecap:butt;stroke-linejoin:round;stroke:rgb(0%,0%,0%);stroke-opacity:1;stroke-miterlimit:10;" d="M 310.398438 295.03125 L 290.398438 295.03125 L 290.398438 305.03125 L 310.398438 305.03125 L 310.398438 325.03125 L 320.398438 325.03125 L 320.398438 305.03125 L 340.398438 305.03125 L 340.398438 295.03125 L 320.398438 295.03125 L 320.398438 275.03125 L 310.398438 275.03125 L 310.398438 295.03125 "/>
<path style="fill-rule:nonzero;fill:rgb(90%,65%,0%);fill-opacity:1;stroke-width:1;stroke-linecap:butt;stroke-linejoin:round;stroke:rgb(0%,0%,0%);stroke-opacity:1;stroke-miterlimit:10;" d="M 428.710938 307.875 L 408.710938 307.875 L 408.710938 317.875 L 428.710938 317.875 L 428.710938 337.875 L 438.710938 337.875 L 438.710938 317.875 L 458.710938 317.875 L 458.710938 307.875 L 438.710938 307.875 L 438.710938 287.875 L 428.710938 287.875 L 428.710938 307.875 "/>
<path style="fill-rule:nonzero;fill:rgb(90%,65%,0%);fill-opacity:1;stroke-width:1;stroke-linecap:butt;stroke-linejoin:round;stroke:rgb(0%,0%,0%);stroke-opacity:1;stroke-miterlimit:10;" d="M 412.15625 47.261719 L 392.15625 47.261719 L 392.15625 57.261719 L 412.15625 57.261719 L 412.15625 77.261719 L 422.15625 77.261719 L 422.15625 57.261719 L 442.15625 57.261719 L 442.15625 47.261719 L 422.15625 47.261719 L 422.15625 27.261719 L 412.15625 27.261719 L 412.15625 47.261719 "/>
<path style="fill-rule:nonzero;fill:rgb(35%,70%,90%);fill-opacity:1;stroke-width:1;stroke-linecap:butt;stroke-linejoin:round;stroke:rgb(0%,0%,0%);stroke-opacity:1;stroke-miterlimit:10;" d="M 171.957031 305.800781 L 151.957031 305.800781 L 151.957031 315.800781 L 171.957031 315.800781 L 171.957031 335.800781 L 181.957031 335.800781 L 181.957031 315.800781 L 201.957031 315.800781 L 201.957031 305.800781 L 181.957031 305.800781 L 181.957031 285.800781 L 171.957031 285.800781 L 171.957031 305.800781 "/>
</g>
</svg>
