<?xml version="1.0" encoding="UTF-8"?>
<svg xmlns="http://www.w3.org/2000/svg" xmlns:xlink="http://www.w3.org/1999/xlink" width="517pt" height="517pt" viewBox="0 0 517 517" version="1.1">
<g id="surface2021">
<rect x="0" y="0" width="517" height="517" style="fill:rgb(90%,90%,90%);fill-opacity:1;stroke:none;"/>
<path style="fill:none;stroke-width:5;stroke-linecap:butt;stroke-linejoin:round;stroke:rgb(100%,0%,0%);stroke-opacity:1;stroke-miterlimit:10;" d="M 261 5 L 517 5 L 517 261 L 261 261 Z M 261 5 "/>
<path style="fill-rule:nonzero;fill:rgb(100%,7%,57%);fill-opacity:1;stroke-width:1;stroke-linecap:butt;stroke-linejoin:round;stroke:rgb(0%,0%,0%);stroke-opacity:1;stroke-miterlimit:10;" d="M 294.042969 209.277344 L 274.042969 209.277344 L 274.042969 219.277344 L 294.042969 219.277344 L 294.042969 239.277344 L 304.042969 239.277344 L 304.042969 219.277344 L 324.042969 219.277344 L 324.042969 209.277344 L 304.042969 209.277344 L 304.042969 189.277344 L 294.042969 189.277344 L 294.042969 209.277344 "/>
<path style="fill-rule:nonzero;fill:rgb(35%,70%,90%);fill-opacity:1;stroke-width:1;stroke-linecap:butt;stroke-linejoin:round;stroke:rgb(0%,0%,0%);stroke-opacity:1;stroke-miterlimit:10;" d="M 35.679688 71.949219 L 15.679688 71.949219 L 15.679688 81.949219 L 35.679688 81.949219 L 35.679688 101.949219 L 45.679688 101.949219 L 45.679688 81.949219 L 65.679688 81.949219 L 65.679688 71.949219 L 45.679688 71.949219 L 45.679688 51.949219 L 35.679688 51.949219 L 35.679688 71.949219 "/>
<path style="fill-rule:nonzero;fill:rgb(35%,70%,90%);fill-opacity:1;stroke-width:1;stroke-linecap:butt;stroke-linejoin:round;stroke:rgb(0%,0%,0%);stroke-opacity:1;stroke-miterlimit:10;" d="M 192.902344 93.15625 L 172.902344 93.15625 L 172.902344 103.15625 L 192.902344 103.15625 L 192.902344 123.15625 L 202.902344 123.15625 L 202.902344 103.15625 L 222.902344 103.15625 L 222.902344 93.15625 L 202.902344 93.15625 L 202.902344 73.15625 L 192.902344 73.15625 L 192.902344 93.15625 "/>
<path style="fill-rule:nonzero;fill:rgb(35%,70%,90%);fill-opacity:1;stroke-width:1;stroke-linecap:butt;stroke-linejoin:round;stroke:rgb(0%,0%,0%);stroke-opacity:1;stroke-miterlimit:10;" d="M 57.730469 346.257812 L 37.730469 346.257812 L 37.730469 356.257812 L 57.730469 356.257812 L 57.730469 376.257812 L 67.730469 376.257812 L 67.730469 356.257812 L 87.730469 356.257812 L 87.730469 346.257812 L 67.730469 346.257812 L 67.730469 326.257812 L 57.730469 326.257812 L 57.730469 346.257812 "/>
<path style="fill-rule:nonzero;fill:rgb(100%,7%,57%);fill-opacity:1;stroke-width:1;stroke-linecap:butt;stroke-linejoin:round;stroke:rgb(0%,0%,0%);stroke-opacity:1;stroke-miterlimit:10;" d="M 201.203125 351.566406 L 181.203125 351.566406 L 181.203125 361.566406 L 201.203125 361.566406 L 201.203125 381.566406 L 211.203125 381.566406 L 211.203125 361.566406 L 231.203125 361.566406 L 231.203125 351.566406 L 211.203125 351.566406 L 211.203125 331.566406 L 201.203125 331.566406 L 201.203125 351.566406 "/>
</g>
</svg>
