<?xml version="1.0" encoding="UTF-8"?>
<svg xmlns="http://www.w3.org/2000/svg" xmlns:xlink="http://www.w3.org/1999/xlink" width="517pt" height="517pt" viewBox="0 0 517 517" version="1.1">
<g id="surface7126">
<rect x="0" y="0" width="517" height="517" style="fill:rgb(90%,90%,90%);fill-opacity:1;stroke:none;"/>
<path style="fill-rule:nonzero;fill:rgb(100%,100%,0%);fill-opacity:1;stroke-width:1;stroke-linecap:butt;stroke-linejoin:miter;stroke:rgb(0%,0%,0%);stroke-opacity:1;stroke-miterlimit:10;" d="M 429.226562 392.714844 L 403.246094 437.714844 L 455.207031 437.714844 L 429.226562 392.714844 "/>
<path style="fill-rule:nonzero;fill:rgb(100%,100%,0%);fill-opacity:1;stroke-width:1;stroke-linecap:butt;stroke-linejoin:miter;stroke:rgb(0%,0%,0%);stroke-opacity:1;stroke-miterlimit:10;" d="M 336.554688 93.515625 L 310.574219 138.515625 L 362.535156 138.515625 L 336.554688 93.515625 "/>
<path style="fill-rule:nonzero;fill:rgb(100%,100%,0%);fill-opacity:1;stroke-width:1;stroke-linecap:butt;stroke-linejoin:miter;stroke:rgb(0%,0%,0%);stroke-opacity:1;stroke-miterlimit:10;" d="M 360.160156 27.117188 L 334.179688 72.117188 L 386.140625 72.117188 L 360.160156 27.117188 "/>
<path style="fill-rule:nonzero;fill:rgb(100%,100%,0%);fill-opacity:1;stroke-width:1;stroke-linecap:butt;stroke-linejoin:miter;stroke:rgb(0%,0%,0%);stroke-opacity:1;stroke-miterlimit:10;" d="M 460.730469 171.605469 L 434.75 216.605469 L 486.710938 216.605469 L 460.730469 171.605469 "/>
<path style="fill-rule:nonzero;fill:rgb(100%,100%,0%);fill-opacity:1;stroke-width:1;stroke-linecap:butt;stroke-linejoin:miter;stroke:rgb(0%,0%,0%);stroke-opacity:1;stroke-miterlimit:10;" d="M 418.648438 56.152344 L 392.667969 101.152344 L 444.628906 101.152344 L 418.648438 56.152344 "/>
<path style="fill-rule:nonzero;fill:rgb(100%,100%,0%);fill-opacity:1;stroke-width:1;stroke-linecap:butt;stroke-linejoin:miter;stroke:rgb(0%,0%,0%);stroke-opacity:1;stroke-miterlimit:10;" d="M 354.585938 157.503906 L 328.605469 202.503906 L 380.566406 202.503906 L 354.585938 157.503906 "/>
<path style="fill-rule:nonzero;fill:rgb(100%,100%,0%);fill-opacity:1;stroke-width:1;stroke-linecap:butt;stroke-linejoin:miter;stroke:rgb(0%,0%,0%);stroke-opacity:1;stroke-miterlimit:10;" d="M 74.707031 32.757812 L 48.726562 77.757812 L 100.6875 77.757812 L 74.707031 32.757812 "/>
<path style="fill-rule:nonzero;fill:rgb(100%,100%,0%);fill-opacity:1;stroke-width:1;stroke-linecap:butt;stroke-linejoin:miter;stroke:rgb(0%,0%,0%);stroke-opacity:1;stroke-miterlimit:10;" d="M 178.019531 72.210938 L 152.039062 117.210938 L 204 117.210938 L 178.019531 72.210938 "/>
</g>
</svg>
