<?xml version="1.0" encoding="UTF-8"?>
<svg xmlns="http://www.w3.org/2000/svg" xmlns:xlink="http://www.w3.org/1999/xlink" width="517pt" height="517pt" viewBox="0 0 517 517" version="1.1">
<g id="surface1811">
<rect x="0" y="0" width="517" height="517" style="fill:rgb(90%,90%,90%);fill-opacity:1;stroke:none;"/>
<path style="fill:none;stroke-width:5;stroke-linecap:butt;stroke-linejoin:round;stroke:rgb(100%,0%,0%);stroke-opacity:1;stroke-miterlimit:10;" d="M 5 5 L 261 5 L 261 261 L 5 261 Z M 5 5 "/>
<path style="fill-rule:nonzero;fill:rgb(100%,100%,0%);fill-opacity:1;stroke-width:1;stroke-linecap:butt;stroke-linejoin:round;stroke:rgb(0%,0%,0%);stroke-opacity:1;stroke-miterlimit:10;" d="M 84.164062 165.617188 C 84.164062 182.1875 70.730469 195.617188 54.164062 195.617188 C 37.59375 195.617188 24.164062 182.1875 24.164062 165.617188 C 24.164062 149.046875 37.59375 135.617188 54.164062 135.617188 C 70.730469 135.617188 84.164062 149.046875 84.164062 165.617188 "/>
<path style="fill-rule:nonzero;fill:rgb(35%,70%,90%);fill-opacity:1;stroke-width:1;stroke-linecap:butt;stroke-linejoin:round;stroke:rgb(0%,0%,0%);stroke-opacity:1;stroke-miterlimit:10;" d="M 159.605469 352.351562 C 159.605469 368.921875 146.171875 382.351562 129.605469 382.351562 C 113.035156 382.351562 99.605469 368.921875 99.605469 352.351562 C 99.605469 335.785156 113.035156 322.351562 129.605469 322.351562 C 146.171875 322.351562 159.605469 335.785156 159.605469 352.351562 "/>
<path style="fill-rule:nonzero;fill:rgb(100%,100%,0%);fill-opacity:1;stroke-width:1;stroke-linecap:butt;stroke-linejoin:round;stroke:rgb(0%,0%,0%);stroke-opacity:1;stroke-miterlimit:10;" d="M 339.136719 429.679688 C 339.136719 446.246094 325.707031 459.679688 309.136719 459.679688 C 292.570312 459.679688 279.136719 446.246094 279.136719 429.679688 C 279.136719 413.109375 292.570312 399.679688 309.136719 399.679688 C 325.707031 399.679688 339.136719 413.109375 339.136719 429.679688 "/>
<path style="fill-rule:nonzero;fill:rgb(100%,100%,0%);fill-opacity:1;stroke-width:1;stroke-linecap:butt;stroke-linejoin:round;stroke:rgb(0%,0%,0%);stroke-opacity:1;stroke-miterlimit:10;" d="M 413.621094 198.433594 C 413.621094 215.003906 400.191406 228.433594 383.621094 228.433594 C 367.054688 228.433594 353.621094 215.003906 353.621094 198.433594 C 353.621094 181.867188 367.054688 168.433594 383.621094 168.433594 C 400.191406 168.433594 413.621094 181.867188 413.621094 198.433594 "/>
<path style="fill-rule:nonzero;fill:rgb(100%,100%,0%);fill-opacity:1;stroke-width:1;stroke-linecap:butt;stroke-linejoin:round;stroke:rgb(0%,0%,0%);stroke-opacity:1;stroke-miterlimit:10;" d="M 343.894531 138.105469 C 343.894531 154.675781 330.460938 168.105469 313.894531 168.105469 C 297.324219 168.105469 283.894531 154.675781 283.894531 138.105469 C 283.894531 121.535156 297.324219 108.105469 313.894531 108.105469 C 330.460938 108.105469 343.894531 121.535156 343.894531 138.105469 "/>
</g>
</svg>
