<?xml version="1.0" encoding="UTF-8"?>
<svg xmlns="http://www.w3.org/2000/svg" xmlns:xlink="http://www.w3.org/1999/xlink" width="517pt" height="517pt" viewBox="0 0 517 517" version="1.1">
<g id="surface1576">
<rect x="0" y="0" width="517" height="517" style="fill:rgb(90%,90%,90%);fill-opacity:1;stroke:none;"/>
<path style="fill:none;stroke-width:5;stroke-linecap:butt;stroke-linejoin:round;stroke:rgb(100%,0%,0%);stroke-opacity:1;stroke-miterlimit:10;" d="M 261 261 L 517 261 L 517 517 L 261 517 Z M 261 261 "/>
<path style="fill-rule:nonzero;fill:rgb(53%,27%,7%);fill-opacity:1;stroke-width:1;stroke-linecap:butt;stroke-linejoin:round;stroke:rgb(0%,0%,0%);stroke-opacity:1;stroke-miterlimit:10;" d="M 445.90625 356.304688 L 425.90625 356.304688 L 425.90625 366.304688 L 445.90625 366.304688 L 445.90625 386.304688 L 455.90625 386.304688 L 455.90625 366.304688 L 475.90625 366.304688 L 475.90625 356.304688 L 455.90625 356.304688 L 455.90625 336.304688 L 445.90625 336.304688 L 445.90625 356.304688 "/>
<path style="fill-rule:nonzero;fill:rgb(35%,70%,90%);fill-opacity:1;stroke-width:1;stroke-linecap:butt;stroke-linejoin:round;stroke:rgb(0%,0%,0%);stroke-opacity:1;stroke-miterlimit:10;" d="M 171.832031 148.863281 L 151.832031 148.863281 L 151.832031 158.863281 L 171.832031 158.863281 L 171.832031 178.863281 L 181.832031 178.863281 L 181.832031 158.863281 L 201.832031 158.863281 L 201.832031 148.863281 L 181.832031 148.863281 L 181.832031 128.863281 L 171.832031 128.863281 L 171.832031 148.863281 "/>
<path style="fill-rule:nonzero;fill:rgb(53%,27%,7%);fill-opacity:1;stroke-width:1;stroke-linecap:butt;stroke-linejoin:round;stroke:rgb(0%,0%,0%);stroke-opacity:1;stroke-miterlimit:10;" d="M 58.808594 78.210938 L 38.808594 78.210938 L 38.808594 88.210938 L 58.808594 88.210938 L 58.808594 108.210938 L 68.808594 108.210938 L 68.808594 88.210938 L 88.808594 88.210938 L 88.808594 78.210938 L 68.808594 78.210938 L 68.808594 58.210938 L 58.808594 58.210938 L 58.808594 78.210938 "/>
<path style="fill-rule:nonzero;fill:rgb(53%,27%,7%);fill-opacity:1;stroke-width:1;stroke-linecap:butt;stroke-linejoin:round;stroke:rgb(0%,0%,0%);stroke-opacity:1;stroke-miterlimit:10;" d="M 404.679688 119.453125 L 384.679688 119.453125 L 384.679688 129.453125 L 404.679688 129.453125 L 404.679688 149.453125 L 414.679688 149.453125 L 414.679688 129.453125 L 434.679688 129.453125 L 434.679688 119.453125 L 414.679688 119.453125 L 414.679688 99.453125 L 404.679688 99.453125 L 404.679688 119.453125 "/>
</g>
</svg>
