<?xml version="1.0" encoding="UTF-8"?>
<svg xmlns="http://www.w3.org/2000/svg" xmlns:xlink="http://www.w3.org/1999/xlink" width="517pt" height="517pt" viewBox="0 0 517 517" version="1.1">
<g id="surface2051">
<rect x="0" y="0" width="517" height="517" style="fill:rgb(90%,90%,90%);fill-opacity:1;stroke:none;"/>
<path style="fill:none;stroke-width:5;stroke-linecap:butt;stroke-linejoin:round;stroke:rgb(100%,0%,0%);stroke-opacity:1;stroke-miterlimit:10;" d="M 261 5 L 517 5 L 517 261 L 261 261 Z M 261 5 "/>
<path style="fill-rule:nonzero;fill:rgb(100%,7%,57%);fill-opacity:1;stroke-width:1;stroke-linecap:butt;stroke-linejoin:round;stroke:rgb(0%,0%,0%);stroke-opacity:1;stroke-miterlimit:10;" d="M 319.441406 81.898438 L 299.441406 81.898438 L 299.441406 91.898438 L 319.441406 91.898438 L 319.441406 111.898438 L 329.441406 111.898438 L 329.441406 91.898438 L 349.441406 91.898438 L 349.441406 81.898438 L 329.441406 81.898438 L 329.441406 61.898438 L 319.441406 61.898438 L 319.441406 81.898438 "/>
<path style="fill-rule:nonzero;fill:rgb(35%,70%,90%);fill-opacity:1;stroke-width:1;stroke-linecap:butt;stroke-linejoin:round;stroke:rgb(0%,0%,0%);stroke-opacity:1;stroke-miterlimit:10;" d="M 143.460938 67.824219 L 123.460938 67.824219 L 123.460938 77.824219 L 143.460938 77.824219 L 143.460938 97.824219 L 153.460938 97.824219 L 153.460938 77.824219 L 173.460938 77.824219 L 173.460938 67.824219 L 153.460938 67.824219 L 153.460938 47.824219 L 143.460938 47.824219 L 143.460938 67.824219 "/>
<path style="fill-rule:nonzero;fill:rgb(100%,7%,57%);fill-opacity:1;stroke-width:1;stroke-linecap:butt;stroke-linejoin:round;stroke:rgb(0%,0%,0%);stroke-opacity:1;stroke-miterlimit:10;" d="M 369.085938 307.6875 L 349.085938 307.6875 L 349.085938 317.6875 L 369.085938 317.6875 L 369.085938 337.6875 L 379.085938 337.6875 L 379.085938 317.6875 L 399.085938 317.6875 L 399.085938 307.6875 L 379.085938 307.6875 L 379.085938 287.6875 L 369.085938 287.6875 L 369.085938 307.6875 "/>
<path style="fill-rule:nonzero;fill:rgb(100%,7%,57%);fill-opacity:1;stroke-width:1;stroke-linecap:butt;stroke-linejoin:round;stroke:rgb(0%,0%,0%);stroke-opacity:1;stroke-miterlimit:10;" d="M 83.523438 469.417969 L 63.523438 469.417969 L 63.523438 479.417969 L 83.523438 479.417969 L 83.523438 499.417969 L 93.523438 499.417969 L 93.523438 479.417969 L 113.523438 479.417969 L 113.523438 469.417969 L 93.523438 469.417969 L 93.523438 449.417969 L 83.523438 449.417969 L 83.523438 469.417969 "/>
<path style="fill-rule:nonzero;fill:rgb(100%,7%,57%);fill-opacity:1;stroke-width:1;stroke-linecap:butt;stroke-linejoin:round;stroke:rgb(0%,0%,0%);stroke-opacity:1;stroke-miterlimit:10;" d="M 95.601562 368.355469 L 75.601562 368.355469 L 75.601562 378.355469 L 95.601562 378.355469 L 95.601562 398.355469 L 105.601562 398.355469 L 105.601562 378.355469 L 125.601562 378.355469 L 125.601562 368.355469 L 105.601562 368.355469 L 105.601562 348.355469 L 95.601562 348.355469 L 95.601562 368.355469 "/>
</g>
</svg>
