<?xml version="1.0" encoding="UTF-8"?>
<svg xmlns="http://www.w3.org/2000/svg" xmlns:xlink="http://www.w3.org/1999/xlink" width="517pt" height="517pt" viewBox="0 0 517 517" version="1.1">
<g id="surface2296">
<rect x="0" y="0" width="517" height="517" style="fill:rgb(90%,90%,90%);fill-opacity:1;stroke:none;"/>
<path style="fill:none;stroke-width:5;stroke-linecap:butt;stroke-linejoin:round;stroke:rgb(100%,0%,0%);stroke-opacity:1;stroke-miterlimit:10;" d="M 261 5 L 517 5 L 517 261 L 261 261 Z M 261 5 "/>
<path style="fill-rule:nonzero;fill:rgb(67%,100%,18%);fill-opacity:1;stroke-width:1;stroke-linecap:butt;stroke-linejoin:round;stroke:rgb(0%,0%,0%);stroke-opacity:1;stroke-miterlimit:10;" d="M 455.289062 180.515625 C 455.289062 197.085938 441.859375 210.515625 425.289062 210.515625 C 408.722656 210.515625 395.289062 197.085938 395.289062 180.515625 C 395.289062 163.949219 408.722656 150.515625 425.289062 150.515625 C 441.859375 150.515625 455.289062 163.949219 455.289062 180.515625 "/>
<path style="fill-rule:nonzero;fill:rgb(100%,0%,0%);fill-opacity:1;stroke-width:1;stroke-linecap:butt;stroke-linejoin:round;stroke:rgb(0%,0%,0%);stroke-opacity:1;stroke-miterlimit:10;" d="M 95.480469 147.644531 C 95.480469 164.210938 82.046875 177.644531 65.480469 177.644531 C 48.910156 177.644531 35.480469 164.210938 35.480469 147.644531 C 35.480469 131.074219 48.910156 117.644531 65.480469 117.644531 C 82.046875 117.644531 95.480469 131.074219 95.480469 147.644531 "/>
<path style="fill-rule:nonzero;fill:rgb(67%,100%,18%);fill-opacity:1;stroke-width:1;stroke-linecap:butt;stroke-linejoin:round;stroke:rgb(0%,0%,0%);stroke-opacity:1;stroke-miterlimit:10;" d="M 145.3125 93.246094 C 145.3125 109.8125 131.882812 123.246094 115.3125 123.246094 C 98.746094 123.246094 85.3125 109.8125 85.3125 93.246094 C 85.3125 76.675781 98.746094 63.246094 115.3125 63.246094 C 131.882812 63.246094 145.3125 76.675781 145.3125 93.246094 "/>
<path style="fill-rule:nonzero;fill:rgb(67%,100%,18%);fill-opacity:1;stroke-width:1;stroke-linecap:butt;stroke-linejoin:round;stroke:rgb(0%,0%,0%);stroke-opacity:1;stroke-miterlimit:10;" d="M 78.601562 450.03125 C 78.601562 466.597656 65.167969 480.03125 48.601562 480.03125 C 32.03125 480.03125 18.601562 466.597656 18.601562 450.03125 C 18.601562 433.460938 32.03125 420.03125 48.601562 420.03125 C 65.167969 420.03125 78.601562 433.460938 78.601562 450.03125 "/>
<path style="fill-rule:nonzero;fill:rgb(67%,100%,18%);fill-opacity:1;stroke-width:1;stroke-linecap:butt;stroke-linejoin:round;stroke:rgb(0%,0%,0%);stroke-opacity:1;stroke-miterlimit:10;" d="M 186.539062 402.199219 C 186.539062 418.769531 173.105469 432.199219 156.539062 432.199219 C 139.96875 432.199219 126.539062 418.769531 126.539062 402.199219 C 126.539062 385.632812 139.96875 372.199219 156.539062 372.199219 C 173.105469 372.199219 186.539062 385.632812 186.539062 402.199219 "/>
</g>
</svg>
