<?xml version="1.0" encoding="UTF-8"?>
<svg xmlns="http://www.w3.org/2000/svg" xmlns:xlink="http://www.w3.org/1999/xlink" width="517pt" height="517pt" viewBox="0 0 517 517" version="1.1">
<g id="surface1951">
<rect x="0" y="0" width="517" height="517" style="fill:rgb(90%,90%,90%);fill-opacity:1;stroke:none;"/>
<path style="fill:none;stroke-width:5;stroke-linecap:butt;stroke-linejoin:round;stroke:rgb(100%,0%,0%);stroke-opacity:1;stroke-miterlimit:10;" d="M 5 5 L 261 5 L 261 261 L 5 261 Z M 5 5 "/>
<path style="fill-rule:nonzero;fill:rgb(35%,70%,90%);fill-opacity:1;stroke-width:1;stroke-linecap:butt;stroke-linejoin:round;stroke:rgb(0%,0%,0%);stroke-opacity:1;stroke-miterlimit:10;" d="M 178.773438 38.542969 L 158.773438 38.542969 L 158.773438 48.542969 L 178.773438 48.542969 L 178.773438 68.542969 L 188.773438 68.542969 L 188.773438 48.542969 L 208.773438 48.542969 L 208.773438 38.542969 L 188.773438 38.542969 L 188.773438 18.542969 L 178.773438 18.542969 L 178.773438 38.542969 "/>
<path style="fill-rule:nonzero;fill:rgb(90%,65%,0%);fill-opacity:1;stroke-width:1;stroke-linecap:butt;stroke-linejoin:round;stroke:rgb(0%,0%,0%);stroke-opacity:1;stroke-miterlimit:10;" d="M 364.578125 436.074219 L 344.578125 436.074219 L 344.578125 446.074219 L 364.578125 446.074219 L 364.578125 466.074219 L 374.578125 466.074219 L 374.578125 446.074219 L 394.578125 446.074219 L 394.578125 436.074219 L 374.578125 436.074219 L 374.578125 416.074219 L 364.578125 416.074219 L 364.578125 436.074219 "/>
<path style="fill-rule:nonzero;fill:rgb(90%,65%,0%);fill-opacity:1;stroke-width:1;stroke-linecap:butt;stroke-linejoin:round;stroke:rgb(0%,0%,0%);stroke-opacity:1;stroke-miterlimit:10;" d="M 425.792969 327.960938 L 405.792969 327.960938 L 405.792969 337.960938 L 425.792969 337.960938 L 425.792969 357.960938 L 435.792969 357.960938 L 435.792969 337.960938 L 455.792969 337.960938 L 455.792969 327.960938 L 435.792969 327.960938 L 435.792969 307.960938 L 425.792969 307.960938 L 425.792969 327.960938 "/>
<path style="fill-rule:nonzero;fill:rgb(90%,65%,0%);fill-opacity:1;stroke-width:1;stroke-linecap:butt;stroke-linejoin:round;stroke:rgb(0%,0%,0%);stroke-opacity:1;stroke-miterlimit:10;" d="M 454.71875 110.792969 L 434.71875 110.792969 L 434.71875 120.792969 L 454.71875 120.792969 L 454.71875 140.792969 L 464.71875 140.792969 L 464.71875 120.792969 L 484.71875 120.792969 L 484.71875 110.792969 L 464.71875 110.792969 L 464.71875 90.792969 L 454.71875 90.792969 L 454.71875 110.792969 "/>
<path style="fill-rule:nonzero;fill:rgb(35%,70%,90%);fill-opacity:1;stroke-width:1;stroke-linecap:butt;stroke-linejoin:round;stroke:rgb(0%,0%,0%);stroke-opacity:1;stroke-miterlimit:10;" d="M 302.550781 98.417969 L 282.550781 98.417969 L 282.550781 108.417969 L 302.550781 108.417969 L 302.550781 128.417969 L 312.550781 128.417969 L 312.550781 108.417969 L 332.550781 108.417969 L 332.550781 98.417969 L 312.550781 98.417969 L 312.550781 78.417969 L 302.550781 78.417969 L 302.550781 98.417969 "/>
</g>
</svg>
