<?xml version="1.0" encoding="UTF-8"?>
<svg xmlns="http://www.w3.org/2000/svg" xmlns:xlink="http://www.w3.org/1999/xlink" width="517pt" height="517pt" viewBox="0 0 517 517" version="1.1">
<g id="surface5266">
<rect x="0" y="0" width="517" height="517" style="fill:rgb(90%,90%,90%);fill-opacity:1;stroke:none;"/>
<path style="fill-rule:nonzero;fill:rgb(67%,100%,18%);fill-opacity:1;stroke-width:1;stroke-linecap:butt;stroke-linejoin:miter;stroke:rgb(0%,0%,0%);stroke-opacity:1;stroke-miterlimit:10;" d="M 431.144531 421.222656 C 431.144531 437.792969 417.714844 451.222656 401.144531 451.222656 C 384.578125 451.222656 371.144531 437.792969 371.144531 421.222656 C 371.144531 404.65625 384.578125 391.222656 401.144531 391.222656 C 417.714844 391.222656 431.144531 404.65625 431.144531 421.222656 "/>
<path style="fill-rule:nonzero;fill:rgb(67%,100%,18%);fill-opacity:1;stroke-width:1;stroke-linecap:butt;stroke-linejoin:miter;stroke:rgb(0%,0%,0%);stroke-opacity:1;stroke-miterlimit:10;" d="M 463.039062 353.589844 C 463.039062 370.160156 449.605469 383.589844 433.039062 383.589844 C 416.46875 383.589844 403.039062 370.160156 403.039062 353.589844 C 403.039062 337.023438 416.46875 323.589844 433.039062 323.589844 C 449.605469 323.589844 463.039062 337.023438 463.039062 353.589844 "/>
<path style="fill-rule:nonzero;fill:rgb(100%,0%,0%);fill-opacity:1;stroke-width:1;stroke-linecap:butt;stroke-linejoin:miter;stroke:rgb(0%,0%,0%);stroke-opacity:1;stroke-miterlimit:10;" d="M 75.589844 450.84375 C 75.589844 467.410156 62.15625 480.84375 45.589844 480.84375 C 29.019531 480.84375 15.589844 467.410156 15.589844 450.84375 C 15.589844 434.273438 29.019531 420.84375 45.589844 420.84375 C 62.15625 420.84375 75.589844 434.273438 75.589844 450.84375 "/>
<path style="fill-rule:nonzero;fill:rgb(100%,0%,0%);fill-opacity:1;stroke-width:1;stroke-linecap:butt;stroke-linejoin:miter;stroke:rgb(0%,0%,0%);stroke-opacity:1;stroke-miterlimit:10;" d="M 248.230469 408.675781 C 248.230469 425.242188 234.800781 438.675781 218.230469 438.675781 C 201.660156 438.675781 188.230469 425.242188 188.230469 408.675781 C 188.230469 392.105469 201.660156 378.675781 218.230469 378.675781 C 234.800781 378.675781 248.230469 392.105469 248.230469 408.675781 "/>
<path style="fill-rule:nonzero;fill:rgb(100%,0%,0%);fill-opacity:1;stroke-width:1;stroke-linecap:butt;stroke-linejoin:miter;stroke:rgb(0%,0%,0%);stroke-opacity:1;stroke-miterlimit:10;" d="M 186.441406 370.949219 C 186.441406 387.519531 173.007812 400.949219 156.441406 400.949219 C 139.871094 400.949219 126.441406 387.519531 126.441406 370.949219 C 126.441406 354.382812 139.871094 340.949219 156.441406 340.949219 C 173.007812 340.949219 186.441406 354.382812 186.441406 370.949219 "/>
<path style="fill-rule:nonzero;fill:rgb(100%,0%,0%);fill-opacity:1;stroke-width:1;stroke-linecap:butt;stroke-linejoin:miter;stroke:rgb(0%,0%,0%);stroke-opacity:1;stroke-miterlimit:10;" d="M 96.292969 338.890625 C 96.292969 355.457031 82.863281 368.890625 66.292969 368.890625 C 49.726562 368.890625 36.292969 355.457031 36.292969 338.890625 C 36.292969 322.320312 49.726562 308.890625 66.292969 308.890625 C 82.863281 308.890625 96.292969 322.320312 96.292969 338.890625 "/>
<path style="fill-rule:nonzero;fill:rgb(100%,0%,0%);fill-opacity:1;stroke-width:1;stroke-linecap:butt;stroke-linejoin:miter;stroke:rgb(0%,0%,0%);stroke-opacity:1;stroke-miterlimit:10;" d="M 182.664062 474.675781 C 182.664062 491.246094 169.234375 504.675781 152.664062 504.675781 C 136.097656 504.675781 122.664062 491.246094 122.664062 474.675781 C 122.664062 458.109375 136.097656 444.675781 152.664062 444.675781 C 169.234375 444.675781 182.664062 458.109375 182.664062 474.675781 "/>
<path style="fill-rule:nonzero;fill:rgb(100%,0%,0%);fill-opacity:1;stroke-width:1;stroke-linecap:butt;stroke-linejoin:miter;stroke:rgb(0%,0%,0%);stroke-opacity:1;stroke-miterlimit:10;" d="M 94.492188 158.359375 C 94.492188 174.925781 81.0625 188.359375 64.492188 188.359375 C 47.921875 188.359375 34.492188 174.925781 34.492188 158.359375 C 34.492188 141.789062 47.921875 128.359375 64.492188 128.359375 C 81.0625 128.359375 94.492188 141.789062 94.492188 158.359375 "/>
</g>
</svg>
