<?xml version="1.0" encoding="UTF-8"?>
<svg xmlns="http://www.w3.org/2000/svg" xmlns:xlink="http://www.w3.org/1999/xlink" width="517pt" height="517pt" viewBox="0 0 517 517" version="1.1">
<g id="surface6896">
<rect x="0" y="0" width="517" height="517" style="fill:rgb(90%,90%,90%);fill-opacity:1;stroke:none;"/>
<path style="fill-rule:nonzero;fill:rgb(100%,0%,0%);fill-opacity:1;stroke-width:1;stroke-linecap:butt;stroke-linejoin:miter;stroke:rgb(0%,0%,0%);stroke-opacity:1;stroke-miterlimit:10;" d="M 101.578125 122.789062 L 101.578125 165.214844 L 144.003906 165.214844 L 144.003906 122.789062 L 101.578125 122.789062 "/>
<path style="fill-rule:nonzero;fill:rgb(50%,0%,50%);fill-opacity:1;stroke-width:1;stroke-linecap:butt;stroke-linejoin:miter;stroke:rgb(0%,0%,0%);stroke-opacity:1;stroke-miterlimit:10;" d="M 394.972656 98.816406 L 394.972656 141.242188 L 437.398438 141.242188 L 437.398438 98.816406 L 394.972656 98.816406 "/>
<path style="fill-rule:nonzero;fill:rgb(50%,0%,50%);fill-opacity:1;stroke-width:1;stroke-linecap:butt;stroke-linejoin:miter;stroke:rgb(0%,0%,0%);stroke-opacity:1;stroke-miterlimit:10;" d="M 293.9375 85.28125 L 293.9375 127.707031 L 336.367188 127.707031 L 336.367188 85.28125 L 293.9375 85.28125 "/>
<path style="fill-rule:nonzero;fill:rgb(50%,0%,50%);fill-opacity:1;stroke-width:1;stroke-linecap:butt;stroke-linejoin:miter;stroke:rgb(0%,0%,0%);stroke-opacity:1;stroke-miterlimit:10;" d="M 330.726562 135.152344 L 330.726562 177.582031 L 373.152344 177.582031 L 373.152344 135.152344 L 330.726562 135.152344 "/>
<path style="fill-rule:nonzero;fill:rgb(50%,0%,50%);fill-opacity:1;stroke-width:1;stroke-linecap:butt;stroke-linejoin:miter;stroke:rgb(0%,0%,0%);stroke-opacity:1;stroke-miterlimit:10;" d="M 399.519531 160.09375 L 399.519531 202.519531 L 441.945312 202.519531 L 441.945312 160.09375 L 399.519531 160.09375 "/>
<path style="fill-rule:nonzero;fill:rgb(50%,0%,50%);fill-opacity:1;stroke-width:1;stroke-linecap:butt;stroke-linejoin:miter;stroke:rgb(0%,0%,0%);stroke-opacity:1;stroke-miterlimit:10;" d="M 299.039062 198.101562 L 299.039062 240.527344 L 341.464844 240.527344 L 341.464844 198.101562 L 299.039062 198.101562 "/>
<path style="fill-rule:nonzero;fill:rgb(50%,0%,50%);fill-opacity:1;stroke-width:1;stroke-linecap:butt;stroke-linejoin:miter;stroke:rgb(0%,0%,0%);stroke-opacity:1;stroke-miterlimit:10;" d="M 333.644531 38.8125 L 333.644531 81.238281 L 376.070312 81.238281 L 376.070312 38.8125 L 333.644531 38.8125 "/>
<path style="fill-rule:nonzero;fill:rgb(50%,0%,50%);fill-opacity:1;stroke-width:1;stroke-linecap:butt;stroke-linejoin:miter;stroke:rgb(0%,0%,0%);stroke-opacity:1;stroke-miterlimit:10;" d="M 398.59375 18.078125 L 398.59375 60.503906 L 441.023438 60.503906 L 441.023438 18.078125 L 398.59375 18.078125 "/>
</g>
</svg>
