<?xml version="1.0" encoding="UTF-8"?>
<svg xmlns="http://www.w3.org/2000/svg" xmlns:xlink="http://www.w3.org/1999/xlink" width="517pt" height="517pt" viewBox="0 0 517 517" version="1.1">
<g id="surface2311">
<rect x="0" y="0" width="517" height="517" style="fill:rgb(90%,90%,90%);fill-opacity:1;stroke:none;"/>
<path style="fill:none;stroke-width:5;stroke-linecap:butt;stroke-linejoin:round;stroke:rgb(100%,0%,0%);stroke-opacity:1;stroke-miterlimit:10;" d="M 261 5 L 517 5 L 517 261 L 261 261 Z M 261 5 "/>
<path style="fill-rule:nonzero;fill:rgb(0%,0%,0%);fill-opacity:1;stroke-width:1;stroke-linecap:butt;stroke-linejoin:round;stroke:rgb(0%,0%,0%);stroke-opacity:1;stroke-miterlimit:10;" d="M 379.511719 158.886719 C 379.511719 175.453125 366.082031 188.886719 349.511719 188.886719 C 332.945312 188.886719 319.511719 175.453125 319.511719 158.886719 C 319.511719 142.316406 332.945312 128.886719 349.511719 128.886719 C 366.082031 128.886719 379.511719 142.316406 379.511719 158.886719 "/>
<path style="fill-rule:nonzero;fill:rgb(100%,0%,0%);fill-opacity:1;stroke-width:1;stroke-linecap:butt;stroke-linejoin:round;stroke:rgb(0%,0%,0%);stroke-opacity:1;stroke-miterlimit:10;" d="M 232 151.609375 C 232 168.175781 218.570312 181.609375 202 181.609375 C 185.433594 181.609375 172 168.175781 172 151.609375 C 172 135.039062 185.433594 121.609375 202 121.609375 C 218.570312 121.609375 232 135.039062 232 151.609375 "/>
<path style="fill-rule:nonzero;fill:rgb(67%,100%,18%);fill-opacity:1;stroke-width:1;stroke-linecap:butt;stroke-linejoin:round;stroke:rgb(0%,0%,0%);stroke-opacity:1;stroke-miterlimit:10;" d="M 97.117188 349.898438 C 97.117188 366.464844 83.683594 379.898438 67.117188 379.898438 C 50.546875 379.898438 37.117188 366.464844 37.117188 349.898438 C 37.117188 333.328125 50.546875 319.898438 67.117188 319.898438 C 83.683594 319.898438 97.117188 333.328125 97.117188 349.898438 "/>
<path style="fill-rule:nonzero;fill:rgb(67%,100%,18%);fill-opacity:1;stroke-width:1;stroke-linecap:butt;stroke-linejoin:round;stroke:rgb(0%,0%,0%);stroke-opacity:1;stroke-miterlimit:10;" d="M 171.636719 349.132812 C 171.636719 365.699219 158.207031 379.132812 141.636719 379.132812 C 125.070312 379.132812 111.636719 365.699219 111.636719 349.132812 C 111.636719 332.5625 125.070312 319.132812 141.636719 319.132812 C 158.207031 319.132812 171.636719 332.5625 171.636719 349.132812 "/>
<path style="fill-rule:nonzero;fill:rgb(67%,100%,18%);fill-opacity:1;stroke-width:1;stroke-linecap:butt;stroke-linejoin:round;stroke:rgb(0%,0%,0%);stroke-opacity:1;stroke-miterlimit:10;" d="M 112.605469 435.410156 C 112.605469 451.980469 99.175781 465.410156 82.605469 465.410156 C 66.039062 465.410156 52.605469 451.980469 52.605469 435.410156 C 52.605469 418.84375 66.039062 405.410156 82.605469 405.410156 C 99.175781 405.410156 112.605469 418.84375 112.605469 435.410156 "/>
</g>
</svg>
