<?xml version="1.0" encoding="UTF-8"?>
<svg xmlns="http://www.w3.org/2000/svg" xmlns:xlink="http://www.w3.org/1999/xlink" width="517pt" height="517pt" viewBox="0 0 517 517" version="1.1">
<g id="surface2251">
<rect x="0" y="0" width="517" height="517" style="fill:rgb(90%,90%,90%);fill-opacity:1;stroke:none;"/>
<path style="fill:none;stroke-width:5;stroke-linecap:butt;stroke-linejoin:round;stroke:rgb(100%,0%,0%);stroke-opacity:1;stroke-miterlimit:10;" d="M 261 5 L 517 5 L 517 261 L 261 261 Z M 261 5 "/>
<path style="fill-rule:nonzero;fill:rgb(67%,100%,18%);fill-opacity:1;stroke-width:1;stroke-linecap:butt;stroke-linejoin:round;stroke:rgb(0%,0%,0%);stroke-opacity:1;stroke-miterlimit:10;" d="M 444.914062 215.609375 C 444.914062 232.179688 431.484375 245.609375 414.914062 245.609375 C 398.347656 245.609375 384.914062 232.179688 384.914062 215.609375 C 384.914062 199.042969 398.347656 185.609375 414.914062 185.609375 C 431.484375 185.609375 444.914062 199.042969 444.914062 215.609375 "/>
<path style="fill-rule:nonzero;fill:rgb(100%,0%,0%);fill-opacity:1;stroke-width:1;stroke-linecap:butt;stroke-linejoin:round;stroke:rgb(0%,0%,0%);stroke-opacity:1;stroke-miterlimit:10;" d="M 173.808594 126.101562 C 173.808594 142.671875 160.375 156.101562 143.808594 156.101562 C 127.238281 156.101562 113.808594 142.671875 113.808594 126.101562 C 113.808594 109.535156 127.238281 96.101562 143.808594 96.101562 C 160.375 96.101562 173.808594 109.535156 173.808594 126.101562 "/>
<path style="fill-rule:nonzero;fill:rgb(100%,0%,0%);fill-opacity:1;stroke-width:1;stroke-linecap:butt;stroke-linejoin:round;stroke:rgb(0%,0%,0%);stroke-opacity:1;stroke-miterlimit:10;" d="M 373.066406 469.949219 C 373.066406 486.519531 359.636719 499.949219 343.066406 499.949219 C 326.5 499.949219 313.066406 486.519531 313.066406 469.949219 C 313.066406 453.378906 326.5 439.949219 343.066406 439.949219 C 359.636719 439.949219 373.066406 453.378906 373.066406 469.949219 "/>
<path style="fill-rule:nonzero;fill:rgb(100%,0%,0%);fill-opacity:1;stroke-width:1;stroke-linecap:butt;stroke-linejoin:round;stroke:rgb(0%,0%,0%);stroke-opacity:1;stroke-miterlimit:10;" d="M 152.300781 417.171875 C 152.300781 433.742188 138.867188 447.171875 122.300781 447.171875 C 105.730469 447.171875 92.300781 433.742188 92.300781 417.171875 C 92.300781 400.605469 105.730469 387.171875 122.300781 387.171875 C 138.867188 387.171875 152.300781 400.605469 152.300781 417.171875 "/>
<path style="fill-rule:nonzero;fill:rgb(100%,0%,0%);fill-opacity:1;stroke-width:1;stroke-linecap:butt;stroke-linejoin:round;stroke:rgb(0%,0%,0%);stroke-opacity:1;stroke-miterlimit:10;" d="M 159.410156 333.5 C 159.410156 350.066406 145.980469 363.5 129.410156 363.5 C 112.839844 363.5 99.410156 350.066406 99.410156 333.5 C 99.410156 316.929688 112.839844 303.5 129.410156 303.5 C 145.980469 303.5 159.410156 316.929688 159.410156 333.5 "/>
</g>
</svg>
