<?xml version="1.0" encoding="UTF-8"?>
<svg xmlns="http://www.w3.org/2000/svg" xmlns:xlink="http://www.w3.org/1999/xlink" width="517pt" height="517pt" viewBox="0 0 517 517" version="1.1">
<g id="surface2001">
<rect x="0" y="0" width="517" height="517" style="fill:rgb(90%,90%,90%);fill-opacity:1;stroke:none;"/>
<path style="fill:none;stroke-width:5;stroke-linecap:butt;stroke-linejoin:round;stroke:rgb(100%,0%,0%);stroke-opacity:1;stroke-miterlimit:10;" d="M 261 5 L 517 5 L 517 261 L 261 261 Z M 261 5 "/>
<path style="fill-rule:nonzero;fill:rgb(100%,7%,57%);fill-opacity:1;stroke-width:1;stroke-linecap:butt;stroke-linejoin:round;stroke:rgb(0%,0%,0%);stroke-opacity:1;stroke-miterlimit:10;" d="M 401.957031 97.5 L 381.957031 97.5 L 381.957031 107.5 L 401.957031 107.5 L 401.957031 127.5 L 411.957031 127.5 L 411.957031 107.5 L 431.957031 107.5 L 431.957031 97.5 L 411.957031 97.5 L 411.957031 77.5 L 401.957031 77.5 L 401.957031 97.5 "/>
<path style="fill-rule:nonzero;fill:rgb(35%,70%,90%);fill-opacity:1;stroke-width:1;stroke-linecap:butt;stroke-linejoin:round;stroke:rgb(0%,0%,0%);stroke-opacity:1;stroke-miterlimit:10;" d="M 347.757812 352.761719 L 327.757812 352.761719 L 327.757812 362.761719 L 347.757812 362.761719 L 347.757812 382.761719 L 357.757812 382.761719 L 357.757812 362.761719 L 377.757812 362.761719 L 377.757812 352.761719 L 357.757812 352.761719 L 357.757812 332.761719 L 347.757812 332.761719 L 347.757812 352.761719 "/>
<path style="fill-rule:nonzero;fill:rgb(35%,70%,90%);fill-opacity:1;stroke-width:1;stroke-linecap:butt;stroke-linejoin:round;stroke:rgb(0%,0%,0%);stroke-opacity:1;stroke-miterlimit:10;" d="M 426.761719 291.152344 L 406.761719 291.152344 L 406.761719 301.152344 L 426.761719 301.152344 L 426.761719 321.152344 L 436.761719 321.152344 L 436.761719 301.152344 L 456.761719 301.152344 L 456.761719 291.152344 L 436.761719 291.152344 L 436.761719 271.152344 L 426.761719 271.152344 L 426.761719 291.152344 "/>
<path style="fill-rule:nonzero;fill:rgb(35%,70%,90%);fill-opacity:1;stroke-width:1;stroke-linecap:butt;stroke-linejoin:round;stroke:rgb(0%,0%,0%);stroke-opacity:1;stroke-miterlimit:10;" d="M 56.519531 93.214844 L 36.519531 93.214844 L 36.519531 103.214844 L 56.519531 103.214844 L 56.519531 123.214844 L 66.519531 123.214844 L 66.519531 103.214844 L 86.519531 103.214844 L 86.519531 93.214844 L 66.519531 93.214844 L 66.519531 73.214844 L 56.519531 73.214844 L 56.519531 93.214844 "/>
<path style="fill-rule:nonzero;fill:rgb(35%,70%,90%);fill-opacity:1;stroke-width:1;stroke-linecap:butt;stroke-linejoin:round;stroke:rgb(0%,0%,0%);stroke-opacity:1;stroke-miterlimit:10;" d="M 82.394531 34.339844 L 62.394531 34.339844 L 62.394531 44.339844 L 82.394531 44.339844 L 82.394531 64.339844 L 92.394531 64.339844 L 92.394531 44.339844 L 112.394531 44.339844 L 112.394531 34.339844 L 92.394531 34.339844 L 92.394531 14.339844 L 82.394531 14.339844 L 82.394531 34.339844 "/>
</g>
</svg>
