<?xml version="1.0" encoding="UTF-8"?>
<svg xmlns="http://www.w3.org/2000/svg" xmlns:xlink="http://www.w3.org/1999/xlink" width="517pt" height="517pt" viewBox="0 0 517 517" version="1.1">
<g id="surface2306">
<rect x="0" y="0" width="517" height="517" style="fill:rgb(90%,90%,90%);fill-opacity:1;stroke:none;"/>
<path style="fill:none;stroke-width:5;stroke-linecap:butt;stroke-linejoin:round;stroke:rgb(100%,0%,0%);stroke-opacity:1;stroke-miterlimit:10;" d="M 261 5 L 517 5 L 517 261 L 261 261 Z M 261 5 "/>
<path style="fill-rule:nonzero;fill:rgb(0%,0%,0%);fill-opacity:1;stroke-width:1;stroke-linecap:butt;stroke-linejoin:round;stroke:rgb(0%,0%,0%);stroke-opacity:1;stroke-miterlimit:10;" d="M 470.9375 155.4375 C 470.9375 172.007812 457.503906 185.4375 440.9375 185.4375 C 424.367188 185.4375 410.9375 172.007812 410.9375 155.4375 C 410.9375 138.871094 424.367188 125.4375 440.9375 125.4375 C 457.503906 125.4375 470.9375 138.871094 470.9375 155.4375 "/>
<path style="fill-rule:nonzero;fill:rgb(100%,0%,0%);fill-opacity:1;stroke-width:1;stroke-linecap:butt;stroke-linejoin:round;stroke:rgb(0%,0%,0%);stroke-opacity:1;stroke-miterlimit:10;" d="M 405.074219 451.199219 C 405.074219 467.769531 391.644531 481.199219 375.074219 481.199219 C 358.507812 481.199219 345.074219 467.769531 345.074219 451.199219 C 345.074219 434.632812 358.507812 421.199219 375.074219 421.199219 C 391.644531 421.199219 405.074219 434.632812 405.074219 451.199219 "/>
<path style="fill-rule:nonzero;fill:rgb(100%,0%,0%);fill-opacity:1;stroke-width:1;stroke-linecap:butt;stroke-linejoin:round;stroke:rgb(0%,0%,0%);stroke-opacity:1;stroke-miterlimit:10;" d="M 421.921875 362.058594 C 421.921875 378.628906 408.492188 392.058594 391.921875 392.058594 C 375.355469 392.058594 361.921875 378.628906 361.921875 362.058594 C 361.921875 345.492188 375.355469 332.058594 391.921875 332.058594 C 408.492188 332.058594 421.921875 345.492188 421.921875 362.058594 "/>
<path style="fill-rule:nonzero;fill:rgb(100%,0%,0%);fill-opacity:1;stroke-width:1;stroke-linecap:butt;stroke-linejoin:round;stroke:rgb(0%,0%,0%);stroke-opacity:1;stroke-miterlimit:10;" d="M 113.59375 215.71875 C 113.59375 232.289062 100.160156 245.71875 83.59375 245.71875 C 67.023438 245.71875 53.59375 232.289062 53.59375 215.71875 C 53.59375 199.148438 67.023438 185.71875 83.59375 185.71875 C 100.160156 185.71875 113.59375 199.148438 113.59375 215.71875 "/>
<path style="fill-rule:nonzero;fill:rgb(100%,0%,0%);fill-opacity:1;stroke-width:1;stroke-linecap:butt;stroke-linejoin:round;stroke:rgb(0%,0%,0%);stroke-opacity:1;stroke-miterlimit:10;" d="M 214.539062 137.640625 C 214.539062 154.207031 201.105469 167.640625 184.539062 167.640625 C 167.96875 167.640625 154.539062 154.207031 154.539062 137.640625 C 154.539062 121.070312 167.96875 107.640625 184.539062 107.640625 C 201.105469 107.640625 214.539062 121.070312 214.539062 137.640625 "/>
</g>
</svg>
