<?xml version="1.0" encoding="UTF-8"?>
<svg xmlns="http://www.w3.org/2000/svg" xmlns:xlink="http://www.w3.org/1999/xlink" width="517pt" height="517pt" viewBox="0 0 517 517" version="1.1">
<g id="surface1781">
<rect x="0" y="0" width="517" height="517" style="fill:rgb(90%,90%,90%);fill-opacity:1;stroke:none;"/>
<path style="fill:none;stroke-width:5;stroke-linecap:butt;stroke-linejoin:round;stroke:rgb(100%,0%,0%);stroke-opacity:1;stroke-miterlimit:10;" d="M 5 5 L 261 5 L 261 261 L 5 261 Z M 5 5 "/>
<path style="fill-rule:nonzero;fill:rgb(100%,100%,0%);fill-opacity:1;stroke-width:1;stroke-linecap:butt;stroke-linejoin:round;stroke:rgb(0%,0%,0%);stroke-opacity:1;stroke-miterlimit:10;" d="M 94.453125 116.777344 C 94.453125 133.34375 81.023438 146.777344 64.453125 146.777344 C 47.886719 146.777344 34.453125 133.34375 34.453125 116.777344 C 34.453125 100.207031 47.886719 86.777344 64.453125 86.777344 C 81.023438 86.777344 94.453125 100.207031 94.453125 116.777344 "/>
<path style="fill-rule:nonzero;fill:rgb(35%,70%,90%);fill-opacity:1;stroke-width:1;stroke-linecap:butt;stroke-linejoin:round;stroke:rgb(0%,0%,0%);stroke-opacity:1;stroke-miterlimit:10;" d="M 402.984375 89.027344 C 402.984375 105.59375 389.550781 119.027344 372.984375 119.027344 C 356.414062 119.027344 342.984375 105.59375 342.984375 89.027344 C 342.984375 72.457031 356.414062 59.027344 372.984375 59.027344 C 389.550781 59.027344 402.984375 72.457031 402.984375 89.027344 "/>
<path style="fill-rule:nonzero;fill:rgb(35%,70%,90%);fill-opacity:1;stroke-width:1;stroke-linecap:butt;stroke-linejoin:round;stroke:rgb(0%,0%,0%);stroke-opacity:1;stroke-miterlimit:10;" d="M 148.910156 431.621094 C 148.910156 448.191406 135.480469 461.621094 118.910156 461.621094 C 102.34375 461.621094 88.910156 448.191406 88.910156 431.621094 C 88.910156 415.054688 102.34375 401.621094 118.910156 401.621094 C 135.480469 401.621094 148.910156 415.054688 148.910156 431.621094 "/>
<path style="fill-rule:nonzero;fill:rgb(35%,70%,90%);fill-opacity:1;stroke-width:1;stroke-linecap:butt;stroke-linejoin:round;stroke:rgb(0%,0%,0%);stroke-opacity:1;stroke-miterlimit:10;" d="M 189.105469 347.144531 C 189.105469 363.714844 175.675781 377.144531 159.105469 377.144531 C 142.539062 377.144531 129.105469 363.714844 129.105469 347.144531 C 129.105469 330.578125 142.539062 317.144531 159.105469 317.144531 C 175.675781 317.144531 189.105469 330.578125 189.105469 347.144531 "/>
<path style="fill-rule:nonzero;fill:rgb(100%,100%,0%);fill-opacity:1;stroke-width:1;stroke-linecap:butt;stroke-linejoin:round;stroke:rgb(0%,0%,0%);stroke-opacity:1;stroke-miterlimit:10;" d="M 502.15625 357.886719 C 502.15625 374.453125 488.726562 387.886719 472.15625 387.886719 C 455.589844 387.886719 442.15625 374.453125 442.15625 357.886719 C 442.15625 341.316406 455.589844 327.886719 472.15625 327.886719 C 488.726562 327.886719 502.15625 341.316406 502.15625 357.886719 "/>
</g>
</svg>
