<?xml version="1.0" encoding="UTF-8"?>
<svg xmlns="http://www.w3.org/2000/svg" xmlns:xlink="http://www.w3.org/1999/xlink" width="517pt" height="517pt" viewBox="0 0 517 517" version="1.1">
<g id="surface1586">
<rect x="0" y="0" width="517" height="517" style="fill:rgb(90%,90%,90%);fill-opacity:1;stroke:none;"/>
<path style="fill:none;stroke-width:5;stroke-linecap:butt;stroke-linejoin:round;stroke:rgb(100%,0%,0%);stroke-opacity:1;stroke-miterlimit:10;" d="M 261 261 L 517 261 L 517 517 L 261 517 Z M 261 261 "/>
<path style="fill-rule:nonzero;fill:rgb(35%,70%,90%);fill-opacity:1;stroke-width:1;stroke-linecap:butt;stroke-linejoin:round;stroke:rgb(0%,0%,0%);stroke-opacity:1;stroke-miterlimit:10;" d="M 293.738281 330.15625 L 273.738281 330.15625 L 273.738281 340.15625 L 293.738281 340.15625 L 293.738281 360.15625 L 303.738281 360.15625 L 303.738281 340.15625 L 323.738281 340.15625 L 323.738281 330.15625 L 303.738281 330.15625 L 303.738281 310.15625 L 293.738281 310.15625 L 293.738281 330.15625 "/>
<path style="fill-rule:nonzero;fill:rgb(35%,70%,90%);fill-opacity:1;stroke-width:1;stroke-linecap:butt;stroke-linejoin:round;stroke:rgb(0%,0%,0%);stroke-opacity:1;stroke-miterlimit:10;" d="M 76.402344 43.394531 L 56.402344 43.394531 L 56.402344 53.394531 L 76.402344 53.394531 L 76.402344 73.394531 L 86.402344 73.394531 L 86.402344 53.394531 L 106.402344 53.394531 L 106.402344 43.394531 L 86.402344 43.394531 L 86.402344 23.394531 L 76.402344 23.394531 L 76.402344 43.394531 "/>
<path style="fill-rule:nonzero;fill:rgb(35%,70%,90%);fill-opacity:1;stroke-width:1;stroke-linecap:butt;stroke-linejoin:round;stroke:rgb(0%,0%,0%);stroke-opacity:1;stroke-miterlimit:10;" d="M 82.980469 346.246094 L 62.980469 346.246094 L 62.980469 356.246094 L 82.980469 356.246094 L 82.980469 376.246094 L 92.980469 376.246094 L 92.980469 356.246094 L 112.980469 356.246094 L 112.980469 346.246094 L 92.980469 346.246094 L 92.980469 326.246094 L 82.980469 326.246094 L 82.980469 346.246094 "/>
<path style="fill-rule:nonzero;fill:rgb(35%,70%,90%);fill-opacity:1;stroke-width:1;stroke-linecap:butt;stroke-linejoin:round;stroke:rgb(0%,0%,0%);stroke-opacity:1;stroke-miterlimit:10;" d="M 335.03125 166.691406 L 315.03125 166.691406 L 315.03125 176.691406 L 335.03125 176.691406 L 335.03125 196.691406 L 345.03125 196.691406 L 345.03125 176.691406 L 365.03125 176.691406 L 365.03125 166.691406 L 345.03125 166.691406 L 345.03125 146.691406 L 335.03125 146.691406 L 335.03125 166.691406 "/>
</g>
</svg>
