<?xml version="1.0" encoding="UTF-8"?>
<svg xmlns="http://www.w3.org/2000/svg" xmlns:xlink="http://www.w3.org/1999/xlink" width="517pt" height="517pt" viewBox="0 0 517 517" version="1.1">
<g id="surface5216">
<rect x="0" y="0" width="517" height="517" style="fill:rgb(90%,90%,90%);fill-opacity:1;stroke:none;"/>
<path style="fill-rule:nonzero;fill:rgb(67%,100%,18%);fill-opacity:1;stroke-width:1;stroke-linecap:butt;stroke-linejoin:miter;stroke:rgb(0%,0%,0%);stroke-opacity:1;stroke-miterlimit:10;" d="M 238.578125 88.558594 C 238.578125 105.125 225.148438 118.558594 208.578125 118.558594 C 192.011719 118.558594 178.578125 105.125 178.578125 88.558594 C 178.578125 71.988281 192.011719 58.558594 208.578125 58.558594 C 225.148438 58.558594 238.578125 71.988281 238.578125 88.558594 "/>
<path style="fill-rule:nonzero;fill:rgb(100%,0%,0%);fill-opacity:1;stroke-width:1;stroke-linecap:butt;stroke-linejoin:miter;stroke:rgb(0%,0%,0%);stroke-opacity:1;stroke-miterlimit:10;" d="M 332.746094 69.003906 C 332.746094 85.574219 319.3125 99.003906 302.746094 99.003906 C 286.175781 99.003906 272.746094 85.574219 272.746094 69.003906 C 272.746094 52.4375 286.175781 39.003906 302.746094 39.003906 C 319.3125 39.003906 332.746094 52.4375 332.746094 69.003906 "/>
<path style="fill-rule:nonzero;fill:rgb(100%,0%,0%);fill-opacity:1;stroke-width:1;stroke-linecap:butt;stroke-linejoin:miter;stroke:rgb(0%,0%,0%);stroke-opacity:1;stroke-miterlimit:10;" d="M 499.15625 65.007812 C 499.15625 81.574219 485.726562 95.007812 469.15625 95.007812 C 452.589844 95.007812 439.15625 81.574219 439.15625 65.007812 C 439.15625 48.4375 452.589844 35.007812 469.15625 35.007812 C 485.726562 35.007812 499.15625 48.4375 499.15625 65.007812 "/>
<path style="fill-rule:nonzero;fill:rgb(100%,0%,0%);fill-opacity:1;stroke-width:1;stroke-linecap:butt;stroke-linejoin:miter;stroke:rgb(0%,0%,0%);stroke-opacity:1;stroke-miterlimit:10;" d="M 341.242188 176.820312 C 341.242188 193.390625 327.8125 206.820312 311.242188 206.820312 C 294.675781 206.820312 281.242188 193.390625 281.242188 176.820312 C 281.242188 160.253906 294.675781 146.820312 311.242188 146.820312 C 327.8125 146.820312 341.242188 160.253906 341.242188 176.820312 "/>
<path style="fill-rule:nonzero;fill:rgb(100%,0%,0%);fill-opacity:1;stroke-width:1;stroke-linecap:butt;stroke-linejoin:miter;stroke:rgb(0%,0%,0%);stroke-opacity:1;stroke-miterlimit:10;" d="M 395 120.015625 C 395 136.582031 381.566406 150.015625 365 150.015625 C 348.429688 150.015625 335 136.582031 335 120.015625 C 335 103.445312 348.429688 90.015625 365 90.015625 C 381.566406 90.015625 395 103.445312 395 120.015625 "/>
<path style="fill-rule:nonzero;fill:rgb(100%,0%,0%);fill-opacity:1;stroke-width:1;stroke-linecap:butt;stroke-linejoin:miter;stroke:rgb(0%,0%,0%);stroke-opacity:1;stroke-miterlimit:10;" d="M 204.804688 324.777344 C 204.804688 341.347656 191.371094 354.777344 174.804688 354.777344 C 158.234375 354.777344 144.804688 341.347656 144.804688 324.777344 C 144.804688 308.210938 158.234375 294.777344 174.804688 294.777344 C 191.371094 294.777344 204.804688 308.210938 204.804688 324.777344 "/>
<path style="fill-rule:nonzero;fill:rgb(100%,0%,0%);fill-opacity:1;stroke-width:1;stroke-linecap:butt;stroke-linejoin:miter;stroke:rgb(0%,0%,0%);stroke-opacity:1;stroke-miterlimit:10;" d="M 120.84375 474.746094 C 120.84375 491.316406 107.414062 504.746094 90.84375 504.746094 C 74.277344 504.746094 60.84375 491.316406 60.84375 474.746094 C 60.84375 458.179688 74.277344 444.746094 90.84375 444.746094 C 107.414062 444.746094 120.84375 458.179688 120.84375 474.746094 "/>
<path style="fill-rule:nonzero;fill:rgb(100%,0%,0%);fill-opacity:1;stroke-width:1;stroke-linecap:butt;stroke-linejoin:miter;stroke:rgb(0%,0%,0%);stroke-opacity:1;stroke-miterlimit:10;" d="M 107.367188 386.929688 C 107.367188 403.496094 93.933594 416.929688 77.367188 416.929688 C 60.796875 416.929688 47.367188 403.496094 47.367188 386.929688 C 47.367188 370.359375 60.796875 356.929688 77.367188 356.929688 C 93.933594 356.929688 107.367188 370.359375 107.367188 386.929688 "/>
</g>
</svg>
