<?xml version="1.0" encoding="UTF-8"?>
<svg xmlns="http://www.w3.org/2000/svg" xmlns:xlink="http://www.w3.org/1999/xlink" width="517pt" height="517pt" viewBox="0 0 517 517" version="1.1">
<g id="surface1816">
<rect x="0" y="0" width="517" height="517" style="fill:rgb(90%,90%,90%);fill-opacity:1;stroke:none;"/>
<path style="fill:none;stroke-width:5;stroke-linecap:butt;stroke-linejoin:round;stroke:rgb(100%,0%,0%);stroke-opacity:1;stroke-miterlimit:10;" d="M 5 5 L 261 5 L 261 261 L 5 261 Z M 5 5 "/>
<path style="fill-rule:nonzero;fill:rgb(100%,100%,0%);fill-opacity:1;stroke-width:1;stroke-linecap:butt;stroke-linejoin:round;stroke:rgb(0%,0%,0%);stroke-opacity:1;stroke-miterlimit:10;" d="M 243.429688 192.980469 C 243.429688 209.550781 229.996094 222.980469 213.429688 222.980469 C 196.859375 222.980469 183.429688 209.550781 183.429688 192.980469 C 183.429688 176.414062 196.859375 162.980469 213.429688 162.980469 C 229.996094 162.980469 243.429688 176.414062 243.429688 192.980469 "/>
<path style="fill-rule:nonzero;fill:rgb(35%,70%,90%);fill-opacity:1;stroke-width:1;stroke-linecap:butt;stroke-linejoin:round;stroke:rgb(0%,0%,0%);stroke-opacity:1;stroke-miterlimit:10;" d="M 418.324219 457.363281 C 418.324219 473.933594 404.894531 487.363281 388.324219 487.363281 C 371.757812 487.363281 358.324219 473.933594 358.324219 457.363281 C 358.324219 440.796875 371.757812 427.363281 388.324219 427.363281 C 404.894531 427.363281 418.324219 440.796875 418.324219 457.363281 "/>
<path style="fill-rule:nonzero;fill:rgb(100%,100%,0%);fill-opacity:1;stroke-width:1;stroke-linecap:butt;stroke-linejoin:round;stroke:rgb(0%,0%,0%);stroke-opacity:1;stroke-miterlimit:10;" d="M 202.863281 358.597656 C 202.863281 375.164062 189.429688 388.597656 172.863281 388.597656 C 156.292969 388.597656 142.863281 375.164062 142.863281 358.597656 C 142.863281 342.027344 156.292969 328.597656 172.863281 328.597656 C 189.429688 328.597656 202.863281 342.027344 202.863281 358.597656 "/>
<path style="fill-rule:nonzero;fill:rgb(100%,100%,0%);fill-opacity:1;stroke-width:1;stroke-linecap:butt;stroke-linejoin:round;stroke:rgb(0%,0%,0%);stroke-opacity:1;stroke-miterlimit:10;" d="M 117.449219 306.371094 C 117.449219 322.9375 104.019531 336.371094 87.449219 336.371094 C 70.882812 336.371094 57.449219 322.9375 57.449219 306.371094 C 57.449219 289.800781 70.882812 276.371094 87.449219 276.371094 C 104.019531 276.371094 117.449219 289.800781 117.449219 306.371094 "/>
<path style="fill-rule:nonzero;fill:rgb(100%,100%,0%);fill-opacity:1;stroke-width:1;stroke-linecap:butt;stroke-linejoin:round;stroke:rgb(0%,0%,0%);stroke-opacity:1;stroke-miterlimit:10;" d="M 198.476562 467.84375 C 198.476562 484.414062 185.042969 497.84375 168.476562 497.84375 C 151.90625 497.84375 138.476562 484.414062 138.476562 467.84375 C 138.476562 451.273438 151.90625 437.84375 168.476562 437.84375 C 185.042969 437.84375 198.476562 451.273438 198.476562 467.84375 "/>
</g>
</svg>
