<?xml version="1.0" encoding="UTF-8"?>
<svg xmlns="http://www.w3.org/2000/svg" xmlns:xlink="http://www.w3.org/1999/xlink" width="517pt" height="517pt" viewBox="0 0 517 517" version="1.1">
<g id="surface2011">
<rect x="0" y="0" width="517" height="517" style="fill:rgb(90%,90%,90%);fill-opacity:1;stroke:none;"/>
<path style="fill:none;stroke-width:5;stroke-linecap:butt;stroke-linejoin:round;stroke:rgb(100%,0%,0%);stroke-opacity:1;stroke-miterlimit:10;" d="M 261 5 L 517 5 L 517 261 L 261 261 Z M 261 5 "/>
<path style="fill-rule:nonzero;fill:rgb(100%,7%,57%);fill-opacity:1;stroke-width:1;stroke-linecap:butt;stroke-linejoin:round;stroke:rgb(0%,0%,0%);stroke-opacity:1;stroke-miterlimit:10;" d="M 389.6875 100.171875 L 369.6875 100.171875 L 369.6875 110.171875 L 389.6875 110.171875 L 389.6875 130.171875 L 399.6875 130.171875 L 399.6875 110.171875 L 419.6875 110.171875 L 419.6875 100.171875 L 399.6875 100.171875 L 399.6875 80.171875 L 389.6875 80.171875 L 389.6875 100.171875 "/>
<path style="fill-rule:nonzero;fill:rgb(35%,70%,90%);fill-opacity:1;stroke-width:1;stroke-linecap:butt;stroke-linejoin:round;stroke:rgb(0%,0%,0%);stroke-opacity:1;stroke-miterlimit:10;" d="M 79.933594 105.566406 L 59.933594 105.566406 L 59.933594 115.566406 L 79.933594 115.566406 L 79.933594 135.566406 L 89.933594 135.566406 L 89.933594 115.566406 L 109.933594 115.566406 L 109.933594 105.566406 L 89.933594 105.566406 L 89.933594 85.566406 L 79.933594 85.566406 L 79.933594 105.566406 "/>
<path style="fill-rule:nonzero;fill:rgb(35%,70%,90%);fill-opacity:1;stroke-width:1;stroke-linecap:butt;stroke-linejoin:round;stroke:rgb(0%,0%,0%);stroke-opacity:1;stroke-miterlimit:10;" d="M 109.109375 177.886719 L 89.109375 177.886719 L 89.109375 187.886719 L 109.109375 187.886719 L 109.109375 207.886719 L 119.109375 207.886719 L 119.109375 187.886719 L 139.109375 187.886719 L 139.109375 177.886719 L 119.109375 177.886719 L 119.109375 157.886719 L 109.109375 157.886719 L 109.109375 177.886719 "/>
<path style="fill-rule:nonzero;fill:rgb(35%,70%,90%);fill-opacity:1;stroke-width:1;stroke-linecap:butt;stroke-linejoin:round;stroke:rgb(0%,0%,0%);stroke-opacity:1;stroke-miterlimit:10;" d="M 304.855469 433.78125 L 284.855469 433.78125 L 284.855469 443.78125 L 304.855469 443.78125 L 304.855469 463.78125 L 314.855469 463.78125 L 314.855469 443.78125 L 334.855469 443.78125 L 334.855469 433.78125 L 314.855469 433.78125 L 314.855469 413.78125 L 304.855469 413.78125 L 304.855469 433.78125 "/>
<path style="fill-rule:nonzero;fill:rgb(35%,70%,90%);fill-opacity:1;stroke-width:1;stroke-linecap:butt;stroke-linejoin:round;stroke:rgb(0%,0%,0%);stroke-opacity:1;stroke-miterlimit:10;" d="M 446.757812 468.765625 L 426.757812 468.765625 L 426.757812 478.765625 L 446.757812 478.765625 L 446.757812 498.765625 L 456.757812 498.765625 L 456.757812 478.765625 L 476.757812 478.765625 L 476.757812 468.765625 L 456.757812 468.765625 L 456.757812 448.765625 L 446.757812 448.765625 L 446.757812 468.765625 "/>
</g>
</svg>
