<?xml version="1.0" encoding="UTF-8"?>
<svg xmlns="http://www.w3.org/2000/svg" xmlns:xlink="http://www.w3.org/1999/xlink" width="517pt" height="517pt" viewBox="0 0 517 517" version="1.1">
<g id="surface1836">
<rect x="0" y="0" width="517" height="517" style="fill:rgb(90%,90%,90%);fill-opacity:1;stroke:none;"/>
<path style="fill:none;stroke-width:5;stroke-linecap:butt;stroke-linejoin:round;stroke:rgb(100%,0%,0%);stroke-opacity:1;stroke-miterlimit:10;" d="M 5 5 L 261 5 L 261 261 L 5 261 Z M 5 5 "/>
<path style="fill-rule:nonzero;fill:rgb(35%,70%,90%);fill-opacity:1;stroke-width:1;stroke-linecap:butt;stroke-linejoin:round;stroke:rgb(0%,0%,0%);stroke-opacity:1;stroke-miterlimit:10;" d="M 138.542969 58.480469 C 138.542969 75.050781 125.113281 88.480469 108.542969 88.480469 C 91.976562 88.480469 78.542969 75.050781 78.542969 58.480469 C 78.542969 41.914062 91.976562 28.480469 108.542969 28.480469 C 125.113281 28.480469 138.542969 41.914062 138.542969 58.480469 "/>
<path style="fill-rule:nonzero;fill:rgb(35%,70%,90%);fill-opacity:1;stroke-width:1;stroke-linecap:butt;stroke-linejoin:round;stroke:rgb(0%,0%,0%);stroke-opacity:1;stroke-miterlimit:10;" d="M 412.527344 347.507812 C 412.527344 364.074219 399.09375 377.507812 382.527344 377.507812 C 365.957031 377.507812 352.527344 364.074219 352.527344 347.507812 C 352.527344 330.9375 365.957031 317.507812 382.527344 317.507812 C 399.09375 317.507812 412.527344 330.9375 412.527344 347.507812 "/>
<path style="fill-rule:nonzero;fill:rgb(35%,70%,90%);fill-opacity:1;stroke-width:1;stroke-linecap:butt;stroke-linejoin:round;stroke:rgb(0%,0%,0%);stroke-opacity:1;stroke-miterlimit:10;" d="M 483.703125 328.890625 C 483.703125 345.460938 470.273438 358.890625 453.703125 358.890625 C 437.132812 358.890625 423.703125 345.460938 423.703125 328.890625 C 423.703125 312.324219 437.132812 298.890625 453.703125 298.890625 C 470.273438 298.890625 483.703125 312.324219 483.703125 328.890625 "/>
<path style="fill-rule:nonzero;fill:rgb(35%,70%,90%);fill-opacity:1;stroke-width:1;stroke-linecap:butt;stroke-linejoin:round;stroke:rgb(0%,0%,0%);stroke-opacity:1;stroke-miterlimit:10;" d="M 373.84375 117.792969 C 373.84375 134.363281 360.414062 147.792969 343.84375 147.792969 C 327.277344 147.792969 313.84375 134.363281 313.84375 117.792969 C 313.84375 101.226562 327.277344 87.792969 343.84375 87.792969 C 360.414062 87.792969 373.84375 101.226562 373.84375 117.792969 "/>
<path style="fill-rule:nonzero;fill:rgb(100%,100%,0%);fill-opacity:1;stroke-width:1;stroke-linecap:butt;stroke-linejoin:round;stroke:rgb(0%,0%,0%);stroke-opacity:1;stroke-miterlimit:10;" d="M 457.652344 110.332031 C 457.652344 126.902344 444.222656 140.332031 427.652344 140.332031 C 411.085938 140.332031 397.652344 126.902344 397.652344 110.332031 C 397.652344 93.761719 411.085938 80.332031 427.652344 80.332031 C 444.222656 80.332031 457.652344 93.761719 457.652344 110.332031 "/>
</g>
</svg>
