<?xml version="1.0" encoding="UTF-8"?>
<svg xmlns="http://www.w3.org/2000/svg" xmlns:xlink="http://www.w3.org/1999/xlink" width="517pt" height="517pt" viewBox="0 0 517 517" version="1.1">
<g id="surface1596">
<rect x="0" y="0" width="517" height="517" style="fill:rgb(90%,90%,90%);fill-opacity:1;stroke:none;"/>
<path style="fill:none;stroke-width:5;stroke-linecap:butt;stroke-linejoin:round;stroke:rgb(100%,0%,0%);stroke-opacity:1;stroke-miterlimit:10;" d="M 261 261 L 517 261 L 517 517 L 261 517 Z M 261 261 "/>
<path style="fill-rule:nonzero;fill:rgb(35%,70%,90%);fill-opacity:1;stroke-width:1;stroke-linecap:butt;stroke-linejoin:round;stroke:rgb(0%,0%,0%);stroke-opacity:1;stroke-miterlimit:10;" d="M 296.679688 379.328125 L 276.679688 379.328125 L 276.679688 389.328125 L 296.679688 389.328125 L 296.679688 409.328125 L 306.679688 409.328125 L 306.679688 389.328125 L 326.679688 389.328125 L 326.679688 379.328125 L 306.679688 379.328125 L 306.679688 359.328125 L 296.679688 359.328125 L 296.679688 379.328125 "/>
<path style="fill-rule:nonzero;fill:rgb(35%,70%,90%);fill-opacity:1;stroke-width:1;stroke-linecap:butt;stroke-linejoin:round;stroke:rgb(0%,0%,0%);stroke-opacity:1;stroke-miterlimit:10;" d="M 132.175781 360.222656 L 112.175781 360.222656 L 112.175781 370.222656 L 132.175781 370.222656 L 132.175781 390.222656 L 142.175781 390.222656 L 142.175781 370.222656 L 162.175781 370.222656 L 162.175781 360.222656 L 142.175781 360.222656 L 142.175781 340.222656 L 132.175781 340.222656 L 132.175781 360.222656 "/>
<path style="fill-rule:nonzero;fill:rgb(35%,70%,90%);fill-opacity:1;stroke-width:1;stroke-linecap:butt;stroke-linejoin:round;stroke:rgb(0%,0%,0%);stroke-opacity:1;stroke-miterlimit:10;" d="M 113.292969 292.882812 L 93.292969 292.882812 L 93.292969 302.882812 L 113.292969 302.882812 L 113.292969 322.882812 L 123.292969 322.882812 L 123.292969 302.882812 L 143.292969 302.882812 L 143.292969 292.882812 L 123.292969 292.882812 L 123.292969 272.882812 L 113.292969 272.882812 L 113.292969 292.882812 "/>
<path style="fill-rule:nonzero;fill:rgb(53%,27%,7%);fill-opacity:1;stroke-width:1;stroke-linecap:butt;stroke-linejoin:round;stroke:rgb(0%,0%,0%);stroke-opacity:1;stroke-miterlimit:10;" d="M 210.152344 162.347656 L 190.152344 162.347656 L 190.152344 172.347656 L 210.152344 172.347656 L 210.152344 192.347656 L 220.152344 192.347656 L 220.152344 172.347656 L 240.152344 172.347656 L 240.152344 162.347656 L 220.152344 162.347656 L 220.152344 142.347656 L 210.152344 142.347656 L 210.152344 162.347656 "/>
</g>
</svg>
