<?xml version="1.0" encoding="UTF-8"?>
<svg xmlns="http://www.w3.org/2000/svg" xmlns:xlink="http://www.w3.org/1999/xlink" width="517pt" height="517pt" viewBox="0 0 517 517" version="1.1">
<g id="surface1861">
<rect x="0" y="0" width="517" height="517" style="fill:rgb(90%,90%,90%);fill-opacity:1;stroke:none;"/>
<path style="fill:none;stroke-width:5;stroke-linecap:butt;stroke-linejoin:round;stroke:rgb(100%,0%,0%);stroke-opacity:1;stroke-miterlimit:10;" d="M 5 5 L 261 5 L 261 261 L 5 261 Z M 5 5 "/>
<path style="fill-rule:nonzero;fill:rgb(100%,7%,57%);fill-opacity:1;stroke-width:1;stroke-linecap:butt;stroke-linejoin:round;stroke:rgb(0%,0%,0%);stroke-opacity:1;stroke-miterlimit:10;" d="M 168.859375 119.164062 C 168.859375 104.765625 144.859375 104.765625 144.859375 119.164062 C 144.859375 133.566406 168.859375 135.964844 168.859375 147.964844 C 168.859375 135.964844 192.859375 133.566406 192.859375 119.164062 C 192.859375 104.765625 168.859375 104.765625 168.859375 119.164062 "/>
<path style="fill-rule:nonzero;fill:rgb(67%,100%,18%);fill-opacity:1;stroke-width:1;stroke-linecap:butt;stroke-linejoin:round;stroke:rgb(0%,0%,0%);stroke-opacity:1;stroke-miterlimit:10;" d="M 340.375 113.351562 C 340.375 98.953125 316.375 98.953125 316.375 113.351562 C 316.375 127.75 340.375 130.152344 340.375 142.152344 C 340.375 130.152344 364.375 127.75 364.375 113.351562 C 364.375 98.953125 340.375 98.953125 340.375 113.351562 "/>
<path style="fill-rule:nonzero;fill:rgb(67%,100%,18%);fill-opacity:1;stroke-width:1;stroke-linecap:butt;stroke-linejoin:round;stroke:rgb(0%,0%,0%);stroke-opacity:1;stroke-miterlimit:10;" d="M 207.226562 433.03125 C 207.226562 418.632812 183.226562 418.632812 183.226562 433.03125 C 183.226562 447.433594 207.226562 449.832031 207.226562 461.832031 C 207.226562 449.832031 231.226562 447.433594 231.226562 433.03125 C 231.226562 418.632812 207.226562 418.632812 207.226562 433.03125 "/>
<path style="fill-rule:nonzero;fill:rgb(67%,100%,18%);fill-opacity:1;stroke-width:1;stroke-linecap:butt;stroke-linejoin:round;stroke:rgb(0%,0%,0%);stroke-opacity:1;stroke-miterlimit:10;" d="M 80.871094 307.125 C 80.871094 292.722656 56.871094 292.722656 56.871094 307.125 C 56.871094 321.523438 80.871094 323.925781 80.871094 335.925781 C 80.871094 323.925781 104.871094 321.523438 104.871094 307.125 C 104.871094 292.722656 80.871094 292.722656 80.871094 307.125 "/>
<path style="fill-rule:nonzero;fill:rgb(100%,7%,57%);fill-opacity:1;stroke-width:1;stroke-linecap:butt;stroke-linejoin:round;stroke:rgb(0%,0%,0%);stroke-opacity:1;stroke-miterlimit:10;" d="M 40.503906 430.496094 C 40.503906 416.09375 16.503906 416.09375 16.503906 430.496094 C 16.503906 444.894531 40.503906 447.292969 40.503906 459.292969 C 40.503906 447.292969 64.503906 444.894531 64.503906 430.496094 C 64.503906 416.09375 40.503906 416.09375 40.503906 430.496094 "/>
</g>
</svg>
