<?xml version="1.0" encoding="UTF-8"?>
<svg xmlns="http://www.w3.org/2000/svg" xmlns:xlink="http://www.w3.org/1999/xlink" width="517pt" height="517pt" viewBox="0 0 517 517" version="1.1">
<g id="surface1531">
<rect x="0" y="0" width="517" height="517" style="fill:rgb(90%,90%,90%);fill-opacity:1;stroke:none;"/>
<path style="fill:none;stroke-width:5;stroke-linecap:butt;stroke-linejoin:round;stroke:rgb(100%,0%,0%);stroke-opacity:1;stroke-miterlimit:10;" d="M 261 261 L 517 261 L 517 517 L 261 517 Z M 261 261 "/>
<path style="fill-rule:nonzero;fill:rgb(53%,27%,7%);fill-opacity:1;stroke-width:1;stroke-linecap:butt;stroke-linejoin:round;stroke:rgb(0%,0%,0%);stroke-opacity:1;stroke-miterlimit:10;" d="M 339.753906 460.261719 L 319.753906 460.261719 L 319.753906 470.261719 L 339.753906 470.261719 L 339.753906 490.261719 L 349.753906 490.261719 L 349.753906 470.261719 L 369.753906 470.261719 L 369.753906 460.261719 L 349.753906 460.261719 L 349.753906 440.261719 L 339.753906 440.261719 L 339.753906 460.261719 "/>
<path style="fill-rule:nonzero;fill:rgb(35%,70%,90%);fill-opacity:1;stroke-width:1;stroke-linecap:butt;stroke-linejoin:round;stroke:rgb(0%,0%,0%);stroke-opacity:1;stroke-miterlimit:10;" d="M 93.066406 391.027344 L 73.066406 391.027344 L 73.066406 401.027344 L 93.066406 401.027344 L 93.066406 421.027344 L 103.066406 421.027344 L 103.066406 401.027344 L 123.066406 401.027344 L 123.066406 391.027344 L 103.066406 391.027344 L 103.066406 371.027344 L 93.066406 371.027344 L 93.066406 391.027344 "/>
<path style="fill-rule:nonzero;fill:rgb(35%,70%,90%);fill-opacity:1;stroke-width:1;stroke-linecap:butt;stroke-linejoin:round;stroke:rgb(0%,0%,0%);stroke-opacity:1;stroke-miterlimit:10;" d="M 185.601562 77.492188 L 165.601562 77.492188 L 165.601562 87.492188 L 185.601562 87.492188 L 185.601562 107.492188 L 195.601562 107.492188 L 195.601562 87.492188 L 215.601562 87.492188 L 215.601562 77.492188 L 195.601562 77.492188 L 195.601562 57.492188 L 185.601562 57.492188 L 185.601562 77.492188 "/>
<path style="fill-rule:nonzero;fill:rgb(35%,70%,90%);fill-opacity:1;stroke-width:1;stroke-linecap:butt;stroke-linejoin:round;stroke:rgb(0%,0%,0%);stroke-opacity:1;stroke-miterlimit:10;" d="M 136.503906 204.34375 L 116.503906 204.34375 L 116.503906 214.34375 L 136.503906 214.34375 L 136.503906 234.34375 L 146.503906 234.34375 L 146.503906 214.34375 L 166.503906 214.34375 L 166.503906 204.34375 L 146.503906 204.34375 L 146.503906 184.34375 L 136.503906 184.34375 L 136.503906 204.34375 "/>
</g>
</svg>
