<?xml version="1.0" encoding="UTF-8"?>
<svg xmlns="http://www.w3.org/2000/svg" xmlns:xlink="http://www.w3.org/1999/xlink" width="517pt" height="517pt" viewBox="0 0 517 517" version="1.1">
<g id="surface1846">
<rect x="0" y="0" width="517" height="517" style="fill:rgb(90%,90%,90%);fill-opacity:1;stroke:none;"/>
<path style="fill:none;stroke-width:5;stroke-linecap:butt;stroke-linejoin:round;stroke:rgb(100%,0%,0%);stroke-opacity:1;stroke-miterlimit:10;" d="M 5 5 L 261 5 L 261 261 L 5 261 Z M 5 5 "/>
<path style="fill-rule:nonzero;fill:rgb(100%,7%,57%);fill-opacity:1;stroke-width:1;stroke-linecap:butt;stroke-linejoin:round;stroke:rgb(0%,0%,0%);stroke-opacity:1;stroke-miterlimit:10;" d="M 96.148438 141.15625 C 96.148438 126.753906 72.148438 126.753906 72.148438 141.15625 C 72.148438 155.554688 96.148438 157.957031 96.148438 169.957031 C 96.148438 157.957031 120.148438 155.554688 120.148438 141.15625 C 120.148438 126.753906 96.148438 126.753906 96.148438 141.15625 "/>
<path style="fill-rule:nonzero;fill:rgb(67%,100%,18%);fill-opacity:1;stroke-width:1;stroke-linecap:butt;stroke-linejoin:round;stroke:rgb(0%,0%,0%);stroke-opacity:1;stroke-miterlimit:10;" d="M 422.492188 191.691406 C 422.492188 177.289062 398.492188 177.289062 398.492188 191.691406 C 398.492188 206.089844 422.492188 208.488281 422.492188 220.488281 C 422.492188 208.488281 446.492188 206.089844 446.492188 191.691406 C 446.492188 177.289062 422.492188 177.289062 422.492188 191.691406 "/>
<path style="fill-rule:nonzero;fill:rgb(67%,100%,18%);fill-opacity:1;stroke-width:1;stroke-linecap:butt;stroke-linejoin:round;stroke:rgb(0%,0%,0%);stroke-opacity:1;stroke-miterlimit:10;" d="M 424.855469 35.628906 C 424.855469 21.226562 400.855469 21.226562 400.855469 35.628906 C 400.855469 50.027344 424.855469 52.425781 424.855469 64.425781 C 424.855469 52.425781 448.855469 50.027344 448.855469 35.628906 C 448.855469 21.226562 424.855469 21.226562 424.855469 35.628906 "/>
<path style="fill-rule:nonzero;fill:rgb(67%,100%,18%);fill-opacity:1;stroke-width:1;stroke-linecap:butt;stroke-linejoin:round;stroke:rgb(0%,0%,0%);stroke-opacity:1;stroke-miterlimit:10;" d="M 409.925781 359.722656 C 409.925781 345.320312 385.925781 345.320312 385.925781 359.722656 C 385.925781 374.121094 409.925781 376.519531 409.925781 388.519531 C 409.925781 376.519531 433.925781 374.121094 433.925781 359.722656 C 433.925781 345.320312 409.925781 345.320312 409.925781 359.722656 "/>
<path style="fill-rule:nonzero;fill:rgb(67%,100%,18%);fill-opacity:1;stroke-width:1;stroke-linecap:butt;stroke-linejoin:round;stroke:rgb(0%,0%,0%);stroke-opacity:1;stroke-miterlimit:10;" d="M 317.074219 394.8125 C 317.074219 380.414062 293.074219 380.414062 293.074219 394.8125 C 293.074219 409.214844 317.074219 411.613281 317.074219 423.613281 C 317.074219 411.613281 341.074219 409.214844 341.074219 394.8125 C 341.074219 380.414062 317.074219 380.414062 317.074219 394.8125 "/>
</g>
</svg>
