<?xml version="1.0" encoding="UTF-8"?>
<svg xmlns="http://www.w3.org/2000/svg" xmlns:xlink="http://www.w3.org/1999/xlink" width="517pt" height="517pt" viewBox="0 0 517 517" version="1.1">
<g id="surface1831">
<rect x="0" y="0" width="517" height="517" style="fill:rgb(90%,90%,90%);fill-opacity:1;stroke:none;"/>
<path style="fill:none;stroke-width:5;stroke-linecap:butt;stroke-linejoin:round;stroke:rgb(100%,0%,0%);stroke-opacity:1;stroke-miterlimit:10;" d="M 5 5 L 261 5 L 261 261 L 5 261 Z M 5 5 "/>
<path style="fill-rule:nonzero;fill:rgb(35%,70%,90%);fill-opacity:1;stroke-width:1;stroke-linecap:butt;stroke-linejoin:round;stroke:rgb(0%,0%,0%);stroke-opacity:1;stroke-miterlimit:10;" d="M 76.554688 214.878906 C 76.554688 231.449219 63.121094 244.878906 46.554688 244.878906 C 29.984375 244.878906 16.554688 231.449219 16.554688 214.878906 C 16.554688 198.308594 29.984375 184.878906 46.554688 184.878906 C 63.121094 184.878906 76.554688 198.308594 76.554688 214.878906 "/>
<path style="fill-rule:nonzero;fill:rgb(35%,70%,90%);fill-opacity:1;stroke-width:1;stroke-linecap:butt;stroke-linejoin:round;stroke:rgb(0%,0%,0%);stroke-opacity:1;stroke-miterlimit:10;" d="M 331.683594 380.820312 C 331.683594 397.390625 318.25 410.820312 301.683594 410.820312 C 285.113281 410.820312 271.683594 397.390625 271.683594 380.820312 C 271.683594 364.253906 285.113281 350.820312 301.683594 350.820312 C 318.25 350.820312 331.683594 364.253906 331.683594 380.820312 "/>
<path style="fill-rule:nonzero;fill:rgb(100%,100%,0%);fill-opacity:1;stroke-width:1;stroke-linecap:butt;stroke-linejoin:round;stroke:rgb(0%,0%,0%);stroke-opacity:1;stroke-miterlimit:10;" d="M 398.261719 435.074219 C 398.261719 451.644531 384.832031 465.074219 368.261719 465.074219 C 351.695312 465.074219 338.261719 451.644531 338.261719 435.074219 C 338.261719 418.503906 351.695312 405.074219 368.261719 405.074219 C 384.832031 405.074219 398.261719 418.503906 398.261719 435.074219 "/>
<path style="fill-rule:nonzero;fill:rgb(100%,100%,0%);fill-opacity:1;stroke-width:1;stroke-linecap:butt;stroke-linejoin:round;stroke:rgb(0%,0%,0%);stroke-opacity:1;stroke-miterlimit:10;" d="M 347.441406 114.859375 C 347.441406 131.425781 334.007812 144.859375 317.441406 144.859375 C 300.871094 144.859375 287.441406 131.425781 287.441406 114.859375 C 287.441406 98.289062 300.871094 84.859375 317.441406 84.859375 C 334.007812 84.859375 347.441406 98.289062 347.441406 114.859375 "/>
<path style="fill-rule:nonzero;fill:rgb(100%,100%,0%);fill-opacity:1;stroke-width:1;stroke-linecap:butt;stroke-linejoin:round;stroke:rgb(0%,0%,0%);stroke-opacity:1;stroke-miterlimit:10;" d="M 343.578125 44.625 C 343.578125 61.191406 330.144531 74.625 313.578125 74.625 C 297.007812 74.625 283.578125 61.191406 283.578125 44.625 C 283.578125 28.054688 297.007812 14.625 313.578125 14.625 C 330.144531 14.625 343.578125 28.054688 343.578125 44.625 "/>
</g>
</svg>
