<?xml version="1.0" encoding="UTF-8"?>
<svg xmlns="http://www.w3.org/2000/svg" xmlns:xlink="http://www.w3.org/1999/xlink" width="517pt" height="517pt" viewBox="0 0 517 517" version="1.1">
<g id="surface1971">
<rect x="0" y="0" width="517" height="517" style="fill:rgb(90%,90%,90%);fill-opacity:1;stroke:none;"/>
<path style="fill:none;stroke-width:5;stroke-linecap:butt;stroke-linejoin:round;stroke:rgb(100%,0%,0%);stroke-opacity:1;stroke-miterlimit:10;" d="M 5 5 L 261 5 L 261 261 L 5 261 Z M 5 5 "/>
<path style="fill-rule:nonzero;fill:rgb(35%,70%,90%);fill-opacity:1;stroke-width:1;stroke-linecap:butt;stroke-linejoin:round;stroke:rgb(0%,0%,0%);stroke-opacity:1;stroke-miterlimit:10;" d="M 85.988281 44.207031 L 65.988281 44.207031 L 65.988281 54.207031 L 85.988281 54.207031 L 85.988281 74.207031 L 95.988281 74.207031 L 95.988281 54.207031 L 115.988281 54.207031 L 115.988281 44.207031 L 95.988281 44.207031 L 95.988281 24.207031 L 85.988281 24.207031 L 85.988281 44.207031 "/>
<path style="fill-rule:nonzero;fill:rgb(90%,65%,0%);fill-opacity:1;stroke-width:1;stroke-linecap:butt;stroke-linejoin:round;stroke:rgb(0%,0%,0%);stroke-opacity:1;stroke-miterlimit:10;" d="M 366.28125 109.289062 L 346.28125 109.289062 L 346.28125 119.289062 L 366.28125 119.289062 L 366.28125 139.289062 L 376.28125 139.289062 L 376.28125 119.289062 L 396.28125 119.289062 L 396.28125 109.289062 L 376.28125 109.289062 L 376.28125 89.289062 L 366.28125 89.289062 L 366.28125 109.289062 "/>
<path style="fill-rule:nonzero;fill:rgb(35%,70%,90%);fill-opacity:1;stroke-width:1;stroke-linecap:butt;stroke-linejoin:round;stroke:rgb(0%,0%,0%);stroke-opacity:1;stroke-miterlimit:10;" d="M 463.375 427.433594 L 443.375 427.433594 L 443.375 437.433594 L 463.375 437.433594 L 463.375 457.433594 L 473.375 457.433594 L 473.375 437.433594 L 493.375 437.433594 L 493.375 427.433594 L 473.375 427.433594 L 473.375 407.433594 L 463.375 407.433594 L 463.375 427.433594 "/>
<path style="fill-rule:nonzero;fill:rgb(35%,70%,90%);fill-opacity:1;stroke-width:1;stroke-linecap:butt;stroke-linejoin:round;stroke:rgb(0%,0%,0%);stroke-opacity:1;stroke-miterlimit:10;" d="M 427.132812 291.5625 L 407.132812 291.5625 L 407.132812 301.5625 L 427.132812 301.5625 L 427.132812 321.5625 L 437.132812 321.5625 L 437.132812 301.5625 L 457.132812 301.5625 L 457.132812 291.5625 L 437.132812 291.5625 L 437.132812 271.5625 L 427.132812 271.5625 L 427.132812 291.5625 "/>
<path style="fill-rule:nonzero;fill:rgb(35%,70%,90%);fill-opacity:1;stroke-width:1;stroke-linecap:butt;stroke-linejoin:round;stroke:rgb(0%,0%,0%);stroke-opacity:1;stroke-miterlimit:10;" d="M 346.429688 324.519531 L 326.429688 324.519531 L 326.429688 334.519531 L 346.429688 334.519531 L 346.429688 354.519531 L 356.429688 354.519531 L 356.429688 334.519531 L 376.429688 334.519531 L 376.429688 324.519531 L 356.429688 324.519531 L 356.429688 304.519531 L 346.429688 304.519531 L 346.429688 324.519531 "/>
</g>
</svg>
