<?xml version="1.0" encoding="UTF-8"?>
<svg xmlns="http://www.w3.org/2000/svg" xmlns:xlink="http://www.w3.org/1999/xlink" width="517pt" height="517pt" viewBox="0 0 517 517" version="1.1">
<g id="surface1526">
<rect x="0" y="0" width="517" height="517" style="fill:rgb(90%,90%,90%);fill-opacity:1;stroke:none;"/>
<path style="fill:none;stroke-width:5;stroke-linecap:butt;stroke-linejoin:round;stroke:rgb(100%,0%,0%);stroke-opacity:1;stroke-miterlimit:10;" d="M 261 261 L 517 261 L 517 517 L 261 517 Z M 261 261 "/>
<path style="fill-rule:nonzero;fill:rgb(53%,27%,7%);fill-opacity:1;stroke-width:1;stroke-linecap:butt;stroke-linejoin:round;stroke:rgb(0%,0%,0%);stroke-opacity:1;stroke-miterlimit:10;" d="M 430.328125 418.792969 L 410.328125 418.792969 L 410.328125 428.792969 L 430.328125 428.792969 L 430.328125 448.792969 L 440.328125 448.792969 L 440.328125 428.792969 L 460.328125 428.792969 L 460.328125 418.792969 L 440.328125 418.792969 L 440.328125 398.792969 L 430.328125 398.792969 L 430.328125 418.792969 "/>
<path style="fill-rule:nonzero;fill:rgb(35%,70%,90%);fill-opacity:1;stroke-width:1;stroke-linecap:butt;stroke-linejoin:round;stroke:rgb(0%,0%,0%);stroke-opacity:1;stroke-miterlimit:10;" d="M 42.753906 133.710938 L 22.753906 133.710938 L 22.753906 143.710938 L 42.753906 143.710938 L 42.753906 163.710938 L 52.753906 163.710938 L 52.753906 143.710938 L 72.753906 143.710938 L 72.753906 133.710938 L 52.753906 133.710938 L 52.753906 113.710938 L 42.753906 113.710938 L 42.753906 133.710938 "/>
<path style="fill-rule:nonzero;fill:rgb(35%,70%,90%);fill-opacity:1;stroke-width:1;stroke-linecap:butt;stroke-linejoin:round;stroke:rgb(0%,0%,0%);stroke-opacity:1;stroke-miterlimit:10;" d="M 199.679688 371.027344 L 179.679688 371.027344 L 179.679688 381.027344 L 199.679688 381.027344 L 199.679688 401.027344 L 209.679688 401.027344 L 209.679688 381.027344 L 229.679688 381.027344 L 229.679688 371.027344 L 209.679688 371.027344 L 209.679688 351.027344 L 199.679688 351.027344 L 199.679688 371.027344 "/>
<path style="fill-rule:nonzero;fill:rgb(35%,70%,90%);fill-opacity:1;stroke-width:1;stroke-linecap:butt;stroke-linejoin:round;stroke:rgb(0%,0%,0%);stroke-opacity:1;stroke-miterlimit:10;" d="M 90.347656 339.976562 L 70.347656 339.976562 L 70.347656 349.976562 L 90.347656 349.976562 L 90.347656 369.976562 L 100.347656 369.976562 L 100.347656 349.976562 L 120.347656 349.976562 L 120.347656 339.976562 L 100.347656 339.976562 L 100.347656 319.976562 L 90.347656 319.976562 L 90.347656 339.976562 "/>
</g>
</svg>
