<?xml version="1.0" encoding="UTF-8"?>
<svg xmlns="http://www.w3.org/2000/svg" xmlns:xlink="http://www.w3.org/1999/xlink" width="517pt" height="517pt" viewBox="0 0 517 517" version="1.1">
<g id="surface1766">
<rect x="0" y="0" width="517" height="517" style="fill:rgb(90%,90%,90%);fill-opacity:1;stroke:none;"/>
<path style="fill:none;stroke-width:5;stroke-linecap:butt;stroke-linejoin:round;stroke:rgb(100%,0%,0%);stroke-opacity:1;stroke-miterlimit:10;" d="M 5 5 L 261 5 L 261 261 L 5 261 Z M 5 5 "/>
<path style="fill-rule:nonzero;fill:rgb(100%,100%,0%);fill-opacity:1;stroke-width:1;stroke-linecap:butt;stroke-linejoin:round;stroke:rgb(0%,0%,0%);stroke-opacity:1;stroke-miterlimit:10;" d="M 111.722656 85.574219 C 111.722656 102.144531 98.292969 115.574219 81.722656 115.574219 C 65.15625 115.574219 51.722656 102.144531 51.722656 85.574219 C 51.722656 69.007812 65.15625 55.574219 81.722656 55.574219 C 98.292969 55.574219 111.722656 69.007812 111.722656 85.574219 "/>
<path style="fill-rule:nonzero;fill:rgb(35%,70%,90%);fill-opacity:1;stroke-width:1;stroke-linecap:butt;stroke-linejoin:round;stroke:rgb(0%,0%,0%);stroke-opacity:1;stroke-miterlimit:10;" d="M 375.796875 98.269531 C 375.796875 114.839844 362.363281 128.269531 345.796875 128.269531 C 329.226562 128.269531 315.796875 114.839844 315.796875 98.269531 C 315.796875 81.703125 329.226562 68.269531 345.796875 68.269531 C 362.363281 68.269531 375.796875 81.703125 375.796875 98.269531 "/>
<path style="fill-rule:nonzero;fill:rgb(35%,70%,90%);fill-opacity:1;stroke-width:1;stroke-linecap:butt;stroke-linejoin:round;stroke:rgb(0%,0%,0%);stroke-opacity:1;stroke-miterlimit:10;" d="M 236.917969 314.078125 C 236.917969 330.644531 223.484375 344.078125 206.917969 344.078125 C 190.347656 344.078125 176.917969 330.644531 176.917969 314.078125 C 176.917969 297.507812 190.347656 284.078125 206.917969 284.078125 C 223.484375 284.078125 236.917969 297.507812 236.917969 314.078125 "/>
<path style="fill-rule:nonzero;fill:rgb(35%,70%,90%);fill-opacity:1;stroke-width:1;stroke-linecap:butt;stroke-linejoin:round;stroke:rgb(0%,0%,0%);stroke-opacity:1;stroke-miterlimit:10;" d="M 421 458.496094 C 421 475.0625 407.570312 488.496094 391 488.496094 C 374.429688 488.496094 361 475.0625 361 458.496094 C 361 441.925781 374.429688 428.496094 391 428.496094 C 407.570312 428.496094 421 441.925781 421 458.496094 "/>
<path style="fill-rule:nonzero;fill:rgb(35%,70%,90%);fill-opacity:1;stroke-width:1;stroke-linecap:butt;stroke-linejoin:round;stroke:rgb(0%,0%,0%);stroke-opacity:1;stroke-miterlimit:10;" d="M 501.085938 430.78125 C 501.085938 447.347656 487.652344 460.78125 471.085938 460.78125 C 454.515625 460.78125 441.085938 447.347656 441.085938 430.78125 C 441.085938 414.210938 454.515625 400.78125 471.085938 400.78125 C 487.652344 400.78125 501.085938 414.210938 501.085938 430.78125 "/>
</g>
</svg>
