<?xml version="1.0" encoding="UTF-8"?>
<svg xmlns="http://www.w3.org/2000/svg" xmlns:xlink="http://www.w3.org/1999/xlink" width="517pt" height="517pt" viewBox="0 0 517 517" version="1.1">
<g id="surface1821">
<rect x="0" y="0" width="517" height="517" style="fill:rgb(90%,90%,90%);fill-opacity:1;stroke:none;"/>
<path style="fill:none;stroke-width:5;stroke-linecap:butt;stroke-linejoin:round;stroke:rgb(100%,0%,0%);stroke-opacity:1;stroke-miterlimit:10;" d="M 5 5 L 261 5 L 261 261 L 5 261 Z M 5 5 "/>
<path style="fill-rule:nonzero;fill:rgb(35%,70%,90%);fill-opacity:1;stroke-width:1;stroke-linecap:butt;stroke-linejoin:round;stroke:rgb(0%,0%,0%);stroke-opacity:1;stroke-miterlimit:10;" d="M 237.921875 58.96875 C 237.921875 75.539062 224.488281 88.96875 207.921875 88.96875 C 191.351562 88.96875 177.921875 75.539062 177.921875 58.96875 C 177.921875 42.398438 191.351562 28.96875 207.921875 28.96875 C 224.488281 28.96875 237.921875 42.398438 237.921875 58.96875 "/>
<path style="fill-rule:nonzero;fill:rgb(35%,70%,90%);fill-opacity:1;stroke-width:1;stroke-linecap:butt;stroke-linejoin:round;stroke:rgb(0%,0%,0%);stroke-opacity:1;stroke-miterlimit:10;" d="M 175.972656 385.664062 C 175.972656 402.234375 162.539062 415.664062 145.972656 415.664062 C 129.402344 415.664062 115.972656 402.234375 115.972656 385.664062 C 115.972656 369.097656 129.402344 355.664062 145.972656 355.664062 C 162.539062 355.664062 175.972656 369.097656 175.972656 385.664062 "/>
<path style="fill-rule:nonzero;fill:rgb(35%,70%,90%);fill-opacity:1;stroke-width:1;stroke-linecap:butt;stroke-linejoin:round;stroke:rgb(0%,0%,0%);stroke-opacity:1;stroke-miterlimit:10;" d="M 86.855469 412.363281 C 86.855469 428.933594 73.421875 442.363281 56.855469 442.363281 C 40.285156 442.363281 26.855469 428.933594 26.855469 412.363281 C 26.855469 395.796875 40.285156 382.363281 56.855469 382.363281 C 73.421875 382.363281 86.855469 395.796875 86.855469 412.363281 "/>
<path style="fill-rule:nonzero;fill:rgb(35%,70%,90%);fill-opacity:1;stroke-width:1;stroke-linecap:butt;stroke-linejoin:round;stroke:rgb(0%,0%,0%);stroke-opacity:1;stroke-miterlimit:10;" d="M 449.710938 36.914062 C 449.710938 53.480469 436.277344 66.914062 419.710938 66.914062 C 403.140625 66.914062 389.710938 53.480469 389.710938 36.914062 C 389.710938 20.34375 403.140625 6.914062 419.710938 6.914062 C 436.277344 6.914062 449.710938 20.34375 449.710938 36.914062 "/>
<path style="fill-rule:nonzero;fill:rgb(100%,100%,0%);fill-opacity:1;stroke-width:1;stroke-linecap:butt;stroke-linejoin:round;stroke:rgb(0%,0%,0%);stroke-opacity:1;stroke-miterlimit:10;" d="M 361.296875 216.886719 C 361.296875 233.453125 347.867188 246.886719 331.296875 246.886719 C 314.726562 246.886719 301.296875 233.453125 301.296875 216.886719 C 301.296875 200.316406 314.726562 186.886719 331.296875 186.886719 C 347.867188 186.886719 361.296875 200.316406 361.296875 216.886719 "/>
</g>
</svg>
