<?xml version="1.0" encoding="UTF-8"?>
<svg xmlns="http://www.w3.org/2000/svg" xmlns:xlink="http://www.w3.org/1999/xlink" width="517pt" height="517pt" viewBox="0 0 517 517" version="1.1">
<g id="surface1941">
<rect x="0" y="0" width="517" height="517" style="fill:rgb(90%,90%,90%);fill-opacity:1;stroke:none;"/>
<path style="fill:none;stroke-width:5;stroke-linecap:butt;stroke-linejoin:round;stroke:rgb(100%,0%,0%);stroke-opacity:1;stroke-miterlimit:10;" d="M 5 5 L 261 5 L 261 261 L 5 261 Z M 5 5 "/>
<path style="fill-rule:nonzero;fill:rgb(35%,70%,90%);fill-opacity:1;stroke-width:1;stroke-linecap:butt;stroke-linejoin:round;stroke:rgb(0%,0%,0%);stroke-opacity:1;stroke-miterlimit:10;" d="M 150.464844 110.898438 L 130.464844 110.898438 L 130.464844 120.898438 L 150.464844 120.898438 L 150.464844 140.898438 L 160.464844 140.898438 L 160.464844 120.898438 L 180.464844 120.898438 L 180.464844 110.898438 L 160.464844 110.898438 L 160.464844 90.898438 L 150.464844 90.898438 L 150.464844 110.898438 "/>
<path style="fill-rule:nonzero;fill:rgb(90%,65%,0%);fill-opacity:1;stroke-width:1;stroke-linecap:butt;stroke-linejoin:round;stroke:rgb(0%,0%,0%);stroke-opacity:1;stroke-miterlimit:10;" d="M 62.050781 339.769531 L 42.050781 339.769531 L 42.050781 349.769531 L 62.050781 349.769531 L 62.050781 369.769531 L 72.050781 369.769531 L 72.050781 349.769531 L 92.050781 349.769531 L 92.050781 339.769531 L 72.050781 339.769531 L 72.050781 319.769531 L 62.050781 319.769531 L 62.050781 339.769531 "/>
<path style="fill-rule:nonzero;fill:rgb(90%,65%,0%);fill-opacity:1;stroke-width:1;stroke-linecap:butt;stroke-linejoin:round;stroke:rgb(0%,0%,0%);stroke-opacity:1;stroke-miterlimit:10;" d="M 150.441406 358.492188 L 130.441406 358.492188 L 130.441406 368.492188 L 150.441406 368.492188 L 150.441406 388.492188 L 160.441406 388.492188 L 160.441406 368.492188 L 180.441406 368.492188 L 180.441406 358.492188 L 160.441406 358.492188 L 160.441406 338.492188 L 150.441406 338.492188 L 150.441406 358.492188 "/>
<path style="fill-rule:nonzero;fill:rgb(90%,65%,0%);fill-opacity:1;stroke-width:1;stroke-linecap:butt;stroke-linejoin:round;stroke:rgb(0%,0%,0%);stroke-opacity:1;stroke-miterlimit:10;" d="M 314.152344 316.617188 L 294.152344 316.617188 L 294.152344 326.617188 L 314.152344 326.617188 L 314.152344 346.617188 L 324.152344 346.617188 L 324.152344 326.617188 L 344.152344 326.617188 L 344.152344 316.617188 L 324.152344 316.617188 L 324.152344 296.617188 L 314.152344 296.617188 L 314.152344 316.617188 "/>
<path style="fill-rule:nonzero;fill:rgb(35%,70%,90%);fill-opacity:1;stroke-width:1;stroke-linecap:butt;stroke-linejoin:round;stroke:rgb(0%,0%,0%);stroke-opacity:1;stroke-miterlimit:10;" d="M 379.210938 349.914062 L 359.210938 349.914062 L 359.210938 359.914062 L 379.210938 359.914062 L 379.210938 379.914062 L 389.210938 379.914062 L 389.210938 359.914062 L 409.210938 359.914062 L 409.210938 349.914062 L 389.210938 349.914062 L 389.210938 329.914062 L 379.210938 329.914062 L 379.210938 349.914062 "/>
</g>
</svg>
