<?xml version="1.0" encoding="UTF-8"?>
<svg xmlns="http://www.w3.org/2000/svg" xmlns:xlink="http://www.w3.org/1999/xlink" width="517pt" height="517pt" viewBox="0 0 517 517" version="1.1">
<g id="surface2281">
<rect x="0" y="0" width="517" height="517" style="fill:rgb(90%,90%,90%);fill-opacity:1;stroke:none;"/>
<path style="fill:none;stroke-width:5;stroke-linecap:butt;stroke-linejoin:round;stroke:rgb(100%,0%,0%);stroke-opacity:1;stroke-miterlimit:10;" d="M 261 5 L 517 5 L 517 261 L 261 261 Z M 261 5 "/>
<path style="fill-rule:nonzero;fill:rgb(67%,100%,18%);fill-opacity:1;stroke-width:1;stroke-linecap:butt;stroke-linejoin:round;stroke:rgb(0%,0%,0%);stroke-opacity:1;stroke-miterlimit:10;" d="M 372.996094 183.125 C 372.996094 199.695312 359.5625 213.125 342.996094 213.125 C 326.425781 213.125 312.996094 199.695312 312.996094 183.125 C 312.996094 166.558594 326.425781 153.125 342.996094 153.125 C 359.5625 153.125 372.996094 166.558594 372.996094 183.125 "/>
<path style="fill-rule:nonzero;fill:rgb(100%,0%,0%);fill-opacity:1;stroke-width:1;stroke-linecap:butt;stroke-linejoin:round;stroke:rgb(0%,0%,0%);stroke-opacity:1;stroke-miterlimit:10;" d="M 378.921875 366.125 C 378.921875 382.695312 365.492188 396.125 348.921875 396.125 C 332.355469 396.125 318.921875 382.695312 318.921875 366.125 C 318.921875 349.558594 332.355469 336.125 348.921875 336.125 C 365.492188 336.125 378.921875 349.558594 378.921875 366.125 "/>
<path style="fill-rule:nonzero;fill:rgb(67%,100%,18%);fill-opacity:1;stroke-width:1;stroke-linecap:butt;stroke-linejoin:round;stroke:rgb(0%,0%,0%);stroke-opacity:1;stroke-miterlimit:10;" d="M 194.539062 101.378906 C 194.539062 117.945312 181.105469 131.378906 164.539062 131.378906 C 147.96875 131.378906 134.539062 117.945312 134.539062 101.378906 C 134.539062 84.808594 147.96875 71.378906 164.539062 71.378906 C 181.105469 71.378906 194.539062 84.808594 194.539062 101.378906 "/>
<path style="fill-rule:nonzero;fill:rgb(67%,100%,18%);fill-opacity:1;stroke-width:1;stroke-linecap:butt;stroke-linejoin:round;stroke:rgb(0%,0%,0%);stroke-opacity:1;stroke-miterlimit:10;" d="M 72.480469 170.953125 C 72.480469 187.519531 59.046875 200.953125 42.480469 200.953125 C 25.910156 200.953125 12.480469 187.519531 12.480469 170.953125 C 12.480469 154.382812 25.910156 140.953125 42.480469 140.953125 C 59.046875 140.953125 72.480469 154.382812 72.480469 170.953125 "/>
<path style="fill-rule:nonzero;fill:rgb(67%,100%,18%);fill-opacity:1;stroke-width:1;stroke-linecap:butt;stroke-linejoin:round;stroke:rgb(0%,0%,0%);stroke-opacity:1;stroke-miterlimit:10;" d="M 222.75 449.769531 C 222.75 466.335938 209.320312 479.769531 192.75 479.769531 C 176.183594 479.769531 162.75 466.335938 162.75 449.769531 C 162.75 433.199219 176.183594 419.769531 192.75 419.769531 C 209.320312 419.769531 222.75 433.199219 222.75 449.769531 "/>
</g>
</svg>
