<?xml version="1.0" encoding="UTF-8"?>
<svg xmlns="http://www.w3.org/2000/svg" xmlns:xlink="http://www.w3.org/1999/xlink" width="517pt" height="517pt" viewBox="0 0 517 517" version="1.1">
<g id="surface1986">
<rect x="0" y="0" width="517" height="517" style="fill:rgb(90%,90%,90%);fill-opacity:1;stroke:none;"/>
<path style="fill:none;stroke-width:5;stroke-linecap:butt;stroke-linejoin:round;stroke:rgb(100%,0%,0%);stroke-opacity:1;stroke-miterlimit:10;" d="M 5 5 L 261 5 L 261 261 L 5 261 Z M 5 5 "/>
<path style="fill-rule:nonzero;fill:rgb(90%,65%,0%);fill-opacity:1;stroke-width:1;stroke-linecap:butt;stroke-linejoin:round;stroke:rgb(0%,0%,0%);stroke-opacity:1;stroke-miterlimit:10;" d="M 138.292969 125.890625 L 118.292969 125.890625 L 118.292969 135.890625 L 138.292969 135.890625 L 138.292969 155.890625 L 148.292969 155.890625 L 148.292969 135.890625 L 168.292969 135.890625 L 168.292969 125.890625 L 148.292969 125.890625 L 148.292969 105.890625 L 138.292969 105.890625 L 138.292969 125.890625 "/>
<path style="fill-rule:nonzero;fill:rgb(90%,65%,0%);fill-opacity:1;stroke-width:1;stroke-linecap:butt;stroke-linejoin:round;stroke:rgb(0%,0%,0%);stroke-opacity:1;stroke-miterlimit:10;" d="M 392.652344 337.253906 L 372.652344 337.253906 L 372.652344 347.253906 L 392.652344 347.253906 L 392.652344 367.253906 L 402.652344 367.253906 L 402.652344 347.253906 L 422.652344 347.253906 L 422.652344 337.253906 L 402.652344 337.253906 L 402.652344 317.253906 L 392.652344 317.253906 L 392.652344 337.253906 "/>
<path style="fill-rule:nonzero;fill:rgb(90%,65%,0%);fill-opacity:1;stroke-width:1;stroke-linecap:butt;stroke-linejoin:round;stroke:rgb(0%,0%,0%);stroke-opacity:1;stroke-miterlimit:10;" d="M 354.777344 92.882812 L 334.777344 92.882812 L 334.777344 102.882812 L 354.777344 102.882812 L 354.777344 122.882812 L 364.777344 122.882812 L 364.777344 102.882812 L 384.777344 102.882812 L 384.777344 92.882812 L 364.777344 92.882812 L 364.777344 72.882812 L 354.777344 72.882812 L 354.777344 92.882812 "/>
<path style="fill-rule:nonzero;fill:rgb(90%,65%,0%);fill-opacity:1;stroke-width:1;stroke-linecap:butt;stroke-linejoin:round;stroke:rgb(0%,0%,0%);stroke-opacity:1;stroke-miterlimit:10;" d="M 73.257812 386.207031 L 53.257812 386.207031 L 53.257812 396.207031 L 73.257812 396.207031 L 73.257812 416.207031 L 83.257812 416.207031 L 83.257812 396.207031 L 103.257812 396.207031 L 103.257812 386.207031 L 83.257812 386.207031 L 83.257812 366.207031 L 73.257812 366.207031 L 73.257812 386.207031 "/>
<path style="fill-rule:nonzero;fill:rgb(90%,65%,0%);fill-opacity:1;stroke-width:1;stroke-linecap:butt;stroke-linejoin:round;stroke:rgb(0%,0%,0%);stroke-opacity:1;stroke-miterlimit:10;" d="M 83.832031 453.386719 L 63.832031 453.386719 L 63.832031 463.386719 L 83.832031 463.386719 L 83.832031 483.386719 L 93.832031 483.386719 L 93.832031 463.386719 L 113.832031 463.386719 L 113.832031 453.386719 L 93.832031 453.386719 L 93.832031 433.386719 L 83.832031 433.386719 L 83.832031 453.386719 "/>
</g>
</svg>
