<?xml version="1.0" encoding="UTF-8"?>
<svg xmlns="http://www.w3.org/2000/svg" xmlns:xlink="http://www.w3.org/1999/xlink" width="517pt" height="517pt" viewBox="0 0 517 517" version="1.1">
<g id="surface1591">
<rect x="0" y="0" width="517" height="517" style="fill:rgb(90%,90%,90%);fill-opacity:1;stroke:none;"/>
<path style="fill:none;stroke-width:5;stroke-linecap:butt;stroke-linejoin:round;stroke:rgb(100%,0%,0%);stroke-opacity:1;stroke-miterlimit:10;" d="M 261 261 L 517 261 L 517 517 L 261 517 Z M 261 261 "/>
<path style="fill-rule:nonzero;fill:rgb(35%,70%,90%);fill-opacity:1;stroke-width:1;stroke-linecap:butt;stroke-linejoin:round;stroke:rgb(0%,0%,0%);stroke-opacity:1;stroke-miterlimit:10;" d="M 360.863281 328.070312 L 340.863281 328.070312 L 340.863281 338.070312 L 360.863281 338.070312 L 360.863281 358.070312 L 370.863281 358.070312 L 370.863281 338.070312 L 390.863281 338.070312 L 390.863281 328.070312 L 370.863281 328.070312 L 370.863281 308.070312 L 360.863281 308.070312 L 360.863281 328.070312 "/>
<path style="fill-rule:nonzero;fill:rgb(35%,70%,90%);fill-opacity:1;stroke-width:1;stroke-linecap:butt;stroke-linejoin:round;stroke:rgb(0%,0%,0%);stroke-opacity:1;stroke-miterlimit:10;" d="M 43.167969 392.308594 L 23.167969 392.308594 L 23.167969 402.308594 L 43.167969 402.308594 L 43.167969 422.308594 L 53.167969 422.308594 L 53.167969 402.308594 L 73.167969 402.308594 L 73.167969 392.308594 L 53.167969 392.308594 L 53.167969 372.308594 L 43.167969 372.308594 L 43.167969 392.308594 "/>
<path style="fill-rule:nonzero;fill:rgb(53%,27%,7%);fill-opacity:1;stroke-width:1;stroke-linecap:butt;stroke-linejoin:round;stroke:rgb(0%,0%,0%);stroke-opacity:1;stroke-miterlimit:10;" d="M 434.128906 117.40625 L 414.128906 117.40625 L 414.128906 127.40625 L 434.128906 127.40625 L 434.128906 147.40625 L 444.128906 147.40625 L 444.128906 127.40625 L 464.128906 127.40625 L 464.128906 117.40625 L 444.128906 117.40625 L 444.128906 97.40625 L 434.128906 97.40625 L 434.128906 117.40625 "/>
<path style="fill-rule:nonzero;fill:rgb(53%,27%,7%);fill-opacity:1;stroke-width:1;stroke-linecap:butt;stroke-linejoin:round;stroke:rgb(0%,0%,0%);stroke-opacity:1;stroke-miterlimit:10;" d="M 381.984375 172.097656 L 361.984375 172.097656 L 361.984375 182.097656 L 381.984375 182.097656 L 381.984375 202.097656 L 391.984375 202.097656 L 391.984375 182.097656 L 411.984375 182.097656 L 411.984375 172.097656 L 391.984375 172.097656 L 391.984375 152.097656 L 381.984375 152.097656 L 381.984375 172.097656 "/>
</g>
</svg>
