<?xml version="1.0" encoding="UTF-8"?>
<svg xmlns="http://www.w3.org/2000/svg" xmlns:xlink="http://www.w3.org/1999/xlink" width="517pt" height="517pt" viewBox="0 0 517 517" version="1.1">
<g id="surface1546">
<rect x="0" y="0" width="517" height="517" style="fill:rgb(90%,90%,90%);fill-opacity:1;stroke:none;"/>
<path style="fill:none;stroke-width:5;stroke-linecap:butt;stroke-linejoin:round;stroke:rgb(100%,0%,0%);stroke-opacity:1;stroke-miterlimit:10;" d="M 261 261 L 517 261 L 517 517 L 261 517 Z M 261 261 "/>
<path style="fill-rule:nonzero;fill:rgb(53%,27%,7%);fill-opacity:1;stroke-width:1;stroke-linecap:butt;stroke-linejoin:round;stroke:rgb(0%,0%,0%);stroke-opacity:1;stroke-miterlimit:10;" d="M 447.296875 410.90625 L 427.296875 410.90625 L 427.296875 420.90625 L 447.296875 420.90625 L 447.296875 440.90625 L 457.296875 440.90625 L 457.296875 420.90625 L 477.296875 420.90625 L 477.296875 410.90625 L 457.296875 410.90625 L 457.296875 390.90625 L 447.296875 390.90625 L 447.296875 410.90625 "/>
<path style="fill-rule:nonzero;fill:rgb(35%,70%,90%);fill-opacity:1;stroke-width:1;stroke-linecap:butt;stroke-linejoin:round;stroke:rgb(0%,0%,0%);stroke-opacity:1;stroke-miterlimit:10;" d="M 133.90625 141.316406 L 113.90625 141.316406 L 113.90625 151.316406 L 133.90625 151.316406 L 133.90625 171.316406 L 143.90625 171.316406 L 143.90625 151.316406 L 163.90625 151.316406 L 163.90625 141.316406 L 143.90625 141.316406 L 143.90625 121.316406 L 133.90625 121.316406 L 133.90625 141.316406 "/>
<path style="fill-rule:nonzero;fill:rgb(35%,70%,90%);fill-opacity:1;stroke-width:1;stroke-linecap:butt;stroke-linejoin:round;stroke:rgb(0%,0%,0%);stroke-opacity:1;stroke-miterlimit:10;" d="M 35.722656 188.691406 L 15.722656 188.691406 L 15.722656 198.691406 L 35.722656 198.691406 L 35.722656 218.691406 L 45.722656 218.691406 L 45.722656 198.691406 L 65.722656 198.691406 L 65.722656 188.691406 L 45.722656 188.691406 L 45.722656 168.691406 L 35.722656 168.691406 L 35.722656 188.691406 "/>
<path style="fill-rule:nonzero;fill:rgb(53%,27%,7%);fill-opacity:1;stroke-width:1;stroke-linecap:butt;stroke-linejoin:round;stroke:rgb(0%,0%,0%);stroke-opacity:1;stroke-miterlimit:10;" d="M 136.839844 444.5 L 116.839844 444.5 L 116.839844 454.5 L 136.839844 454.5 L 136.839844 474.5 L 146.839844 474.5 L 146.839844 454.5 L 166.839844 454.5 L 166.839844 444.5 L 146.839844 444.5 L 146.839844 424.5 L 136.839844 424.5 L 136.839844 444.5 "/>
</g>
</svg>
