<?xml version="1.0" encoding="UTF-8"?>
<svg xmlns="http://www.w3.org/2000/svg" xmlns:xlink="http://www.w3.org/1999/xlink" width="517pt" height="517pt" viewBox="0 0 517 517" version="1.1">
<g id="surface1921">
<rect x="0" y="0" width="517" height="517" style="fill:rgb(90%,90%,90%);fill-opacity:1;stroke:none;"/>
<path style="fill:none;stroke-width:5;stroke-linecap:butt;stroke-linejoin:round;stroke:rgb(100%,0%,0%);stroke-opacity:1;stroke-miterlimit:10;" d="M 5 5 L 261 5 L 261 261 L 5 261 Z M 5 5 "/>
<path style="fill-rule:nonzero;fill:rgb(35%,70%,90%);fill-opacity:1;stroke-width:1;stroke-linecap:butt;stroke-linejoin:round;stroke:rgb(0%,0%,0%);stroke-opacity:1;stroke-miterlimit:10;" d="M 206.117188 40.394531 L 186.117188 40.394531 L 186.117188 50.394531 L 206.117188 50.394531 L 206.117188 70.394531 L 216.117188 70.394531 L 216.117188 50.394531 L 236.117188 50.394531 L 236.117188 40.394531 L 216.117188 40.394531 L 216.117188 20.394531 L 206.117188 20.394531 L 206.117188 40.394531 "/>
<path style="fill-rule:nonzero;fill:rgb(90%,65%,0%);fill-opacity:1;stroke-width:1;stroke-linecap:butt;stroke-linejoin:round;stroke:rgb(0%,0%,0%);stroke-opacity:1;stroke-miterlimit:10;" d="M 154.238281 464.21875 L 134.238281 464.21875 L 134.238281 474.21875 L 154.238281 474.21875 L 154.238281 494.21875 L 164.238281 494.21875 L 164.238281 474.21875 L 184.238281 474.21875 L 184.238281 464.21875 L 164.238281 464.21875 L 164.238281 444.21875 L 154.238281 444.21875 L 154.238281 464.21875 "/>
<path style="fill-rule:nonzero;fill:rgb(90%,65%,0%);fill-opacity:1;stroke-width:1;stroke-linecap:butt;stroke-linejoin:round;stroke:rgb(0%,0%,0%);stroke-opacity:1;stroke-miterlimit:10;" d="M 325.808594 57.851562 L 305.808594 57.851562 L 305.808594 67.851562 L 325.808594 67.851562 L 325.808594 87.851562 L 335.808594 87.851562 L 335.808594 67.851562 L 355.808594 67.851562 L 355.808594 57.851562 L 335.808594 57.851562 L 335.808594 37.851562 L 325.808594 37.851562 L 325.808594 57.851562 "/>
<path style="fill-rule:nonzero;fill:rgb(90%,65%,0%);fill-opacity:1;stroke-width:1;stroke-linecap:butt;stroke-linejoin:round;stroke:rgb(0%,0%,0%);stroke-opacity:1;stroke-miterlimit:10;" d="M 379.402344 93.082031 L 359.402344 93.082031 L 359.402344 103.082031 L 379.402344 103.082031 L 379.402344 123.082031 L 389.402344 123.082031 L 389.402344 103.082031 L 409.402344 103.082031 L 409.402344 93.082031 L 389.402344 93.082031 L 389.402344 73.082031 L 379.402344 73.082031 L 379.402344 93.082031 "/>
<path style="fill-rule:nonzero;fill:rgb(90%,65%,0%);fill-opacity:1;stroke-width:1;stroke-linecap:butt;stroke-linejoin:round;stroke:rgb(0%,0%,0%);stroke-opacity:1;stroke-miterlimit:10;" d="M 393.140625 366.035156 L 373.140625 366.035156 L 373.140625 376.035156 L 393.140625 376.035156 L 393.140625 396.035156 L 403.140625 396.035156 L 403.140625 376.035156 L 423.140625 376.035156 L 423.140625 366.035156 L 403.140625 366.035156 L 403.140625 346.035156 L 393.140625 346.035156 L 393.140625 366.035156 "/>
</g>
</svg>
