<?xml version="1.0" encoding="UTF-8"?>
<svg xmlns="http://www.w3.org/2000/svg" xmlns:xlink="http://www.w3.org/1999/xlink" width="517pt" height="517pt" viewBox="0 0 517 517" version="1.1">
<g id="surface1976">
<rect x="0" y="0" width="517" height="517" style="fill:rgb(90%,90%,90%);fill-opacity:1;stroke:none;"/>
<path style="fill:none;stroke-width:5;stroke-linecap:butt;stroke-linejoin:round;stroke:rgb(100%,0%,0%);stroke-opacity:1;stroke-miterlimit:10;" d="M 5 5 L 261 5 L 261 261 L 5 261 Z M 5 5 "/>
<path style="fill-rule:nonzero;fill:rgb(35%,70%,90%);fill-opacity:1;stroke-width:1;stroke-linecap:butt;stroke-linejoin:round;stroke:rgb(0%,0%,0%);stroke-opacity:1;stroke-miterlimit:10;" d="M 186.003906 81.753906 L 166.003906 81.753906 L 166.003906 91.753906 L 186.003906 91.753906 L 186.003906 111.753906 L 196.003906 111.753906 L 196.003906 91.753906 L 216.003906 91.753906 L 216.003906 81.753906 L 196.003906 81.753906 L 196.003906 61.753906 L 186.003906 61.753906 L 186.003906 81.753906 "/>
<path style="fill-rule:nonzero;fill:rgb(90%,65%,0%);fill-opacity:1;stroke-width:1;stroke-linecap:butt;stroke-linejoin:round;stroke:rgb(0%,0%,0%);stroke-opacity:1;stroke-miterlimit:10;" d="M 38.28125 326.988281 L 18.28125 326.988281 L 18.28125 336.988281 L 38.28125 336.988281 L 38.28125 356.988281 L 48.28125 356.988281 L 48.28125 336.988281 L 68.28125 336.988281 L 68.28125 326.988281 L 48.28125 326.988281 L 48.28125 306.988281 L 38.28125 306.988281 L 38.28125 326.988281 "/>
<path style="fill-rule:nonzero;fill:rgb(35%,70%,90%);fill-opacity:1;stroke-width:1;stroke-linecap:butt;stroke-linejoin:round;stroke:rgb(0%,0%,0%);stroke-opacity:1;stroke-miterlimit:10;" d="M 433.296875 441.25 L 413.296875 441.25 L 413.296875 451.25 L 433.296875 451.25 L 433.296875 471.25 L 443.296875 471.25 L 443.296875 451.25 L 463.296875 451.25 L 463.296875 441.25 L 443.296875 441.25 L 443.296875 421.25 L 433.296875 421.25 L 433.296875 441.25 "/>
<path style="fill-rule:nonzero;fill:rgb(35%,70%,90%);fill-opacity:1;stroke-width:1;stroke-linecap:butt;stroke-linejoin:round;stroke:rgb(0%,0%,0%);stroke-opacity:1;stroke-miterlimit:10;" d="M 293.347656 213.617188 L 273.347656 213.617188 L 273.347656 223.617188 L 293.347656 223.617188 L 293.347656 243.617188 L 303.347656 243.617188 L 303.347656 223.617188 L 323.347656 223.617188 L 323.347656 213.617188 L 303.347656 213.617188 L 303.347656 193.617188 L 293.347656 193.617188 L 293.347656 213.617188 "/>
<path style="fill-rule:nonzero;fill:rgb(35%,70%,90%);fill-opacity:1;stroke-width:1;stroke-linecap:butt;stroke-linejoin:round;stroke:rgb(0%,0%,0%);stroke-opacity:1;stroke-miterlimit:10;" d="M 352.960938 185.152344 L 332.960938 185.152344 L 332.960938 195.152344 L 352.960938 195.152344 L 352.960938 215.152344 L 362.960938 215.152344 L 362.960938 195.152344 L 382.960938 195.152344 L 382.960938 185.152344 L 362.960938 185.152344 L 362.960938 165.152344 L 352.960938 165.152344 L 352.960938 185.152344 "/>
</g>
</svg>
