<?xml version="1.0" encoding="UTF-8"?>
<svg xmlns="http://www.w3.org/2000/svg" xmlns:xlink="http://www.w3.org/1999/xlink" width="517pt" height="517pt" viewBox="0 0 517 517" version="1.1">
<g id="surface1786">
<rect x="0" y="0" width="517" height="517" style="fill:rgb(90%,90%,90%);fill-opacity:1;stroke:none;"/>
<path style="fill:none;stroke-width:5;stroke-linecap:butt;stroke-linejoin:round;stroke:rgb(100%,0%,0%);stroke-opacity:1;stroke-miterlimit:10;" d="M 5 5 L 261 5 L 261 261 L 5 261 Z M 5 5 "/>
<path style="fill-rule:nonzero;fill:rgb(100%,100%,0%);fill-opacity:1;stroke-width:1;stroke-linecap:butt;stroke-linejoin:round;stroke:rgb(0%,0%,0%);stroke-opacity:1;stroke-miterlimit:10;" d="M 148.742188 102.113281 C 148.742188 118.679688 135.308594 132.113281 118.742188 132.113281 C 102.171875 132.113281 88.742188 118.679688 88.742188 102.113281 C 88.742188 85.542969 102.171875 72.113281 118.742188 72.113281 C 135.308594 72.113281 148.742188 85.542969 148.742188 102.113281 "/>
<path style="fill-rule:nonzero;fill:rgb(35%,70%,90%);fill-opacity:1;stroke-width:1;stroke-linecap:butt;stroke-linejoin:round;stroke:rgb(0%,0%,0%);stroke-opacity:1;stroke-miterlimit:10;" d="M 476.972656 423.050781 C 476.972656 439.621094 463.542969 453.050781 446.972656 453.050781 C 430.40625 453.050781 416.972656 439.621094 416.972656 423.050781 C 416.972656 406.484375 430.40625 393.050781 446.972656 393.050781 C 463.542969 393.050781 476.972656 406.484375 476.972656 423.050781 "/>
<path style="fill-rule:nonzero;fill:rgb(35%,70%,90%);fill-opacity:1;stroke-width:1;stroke-linecap:butt;stroke-linejoin:round;stroke:rgb(0%,0%,0%);stroke-opacity:1;stroke-miterlimit:10;" d="M 363.53125 341.507812 C 363.53125 358.078125 350.097656 371.507812 333.53125 371.507812 C 316.960938 371.507812 303.53125 358.078125 303.53125 341.507812 C 303.53125 324.941406 316.960938 311.507812 333.53125 311.507812 C 350.097656 311.507812 363.53125 324.941406 363.53125 341.507812 "/>
<path style="fill-rule:nonzero;fill:rgb(35%,70%,90%);fill-opacity:1;stroke-width:1;stroke-linecap:butt;stroke-linejoin:round;stroke:rgb(0%,0%,0%);stroke-opacity:1;stroke-miterlimit:10;" d="M 166.359375 468.863281 C 166.359375 485.433594 152.929688 498.863281 136.359375 498.863281 C 119.792969 498.863281 106.359375 485.433594 106.359375 468.863281 C 106.359375 452.296875 119.792969 438.863281 136.359375 438.863281 C 152.929688 438.863281 166.359375 452.296875 166.359375 468.863281 "/>
<path style="fill-rule:nonzero;fill:rgb(100%,100%,0%);fill-opacity:1;stroke-width:1;stroke-linecap:butt;stroke-linejoin:round;stroke:rgb(0%,0%,0%);stroke-opacity:1;stroke-miterlimit:10;" d="M 412.820312 171.195312 C 412.820312 187.765625 399.386719 201.195312 382.820312 201.195312 C 366.25 201.195312 352.820312 187.765625 352.820312 171.195312 C 352.820312 154.625 366.25 141.195312 382.820312 141.195312 C 399.386719 141.195312 412.820312 154.625 412.820312 171.195312 "/>
</g>
</svg>
