<?xml version="1.0" encoding="UTF-8"?>
<svg xmlns="http://www.w3.org/2000/svg" xmlns:xlink="http://www.w3.org/1999/xlink" width="517pt" height="517pt" viewBox="0 0 517 517" version="1.1">
<g id="surface2291">
<rect x="0" y="0" width="517" height="517" style="fill:rgb(90%,90%,90%);fill-opacity:1;stroke:none;"/>
<path style="fill:none;stroke-width:5;stroke-linecap:butt;stroke-linejoin:round;stroke:rgb(100%,0%,0%);stroke-opacity:1;stroke-miterlimit:10;" d="M 261 5 L 517 5 L 517 261 L 261 261 Z M 261 5 "/>
<path style="fill-rule:nonzero;fill:rgb(67%,100%,18%);fill-opacity:1;stroke-width:1;stroke-linecap:butt;stroke-linejoin:round;stroke:rgb(0%,0%,0%);stroke-opacity:1;stroke-miterlimit:10;" d="M 449.683594 150.183594 C 449.683594 166.75 436.253906 180.183594 419.683594 180.183594 C 403.117188 180.183594 389.683594 166.75 389.683594 150.183594 C 389.683594 133.613281 403.117188 120.183594 419.683594 120.183594 C 436.253906 120.183594 449.683594 133.613281 449.683594 150.183594 "/>
<path style="fill-rule:nonzero;fill:rgb(100%,0%,0%);fill-opacity:1;stroke-width:1;stroke-linecap:butt;stroke-linejoin:round;stroke:rgb(0%,0%,0%);stroke-opacity:1;stroke-miterlimit:10;" d="M 158.75 83.496094 C 158.75 100.066406 145.320312 113.496094 128.75 113.496094 C 112.183594 113.496094 98.75 100.066406 98.75 83.496094 C 98.75 66.929688 112.183594 53.496094 128.75 53.496094 C 145.320312 53.496094 158.75 66.929688 158.75 83.496094 "/>
<path style="fill-rule:nonzero;fill:rgb(67%,100%,18%);fill-opacity:1;stroke-width:1;stroke-linecap:butt;stroke-linejoin:round;stroke:rgb(0%,0%,0%);stroke-opacity:1;stroke-miterlimit:10;" d="M 203.871094 333.125 C 203.871094 349.691406 190.4375 363.125 173.871094 363.125 C 157.300781 363.125 143.871094 349.691406 143.871094 333.125 C 143.871094 316.554688 157.300781 303.125 173.871094 303.125 C 190.4375 303.125 203.871094 316.554688 203.871094 333.125 "/>
<path style="fill-rule:nonzero;fill:rgb(67%,100%,18%);fill-opacity:1;stroke-width:1;stroke-linecap:butt;stroke-linejoin:round;stroke:rgb(0%,0%,0%);stroke-opacity:1;stroke-miterlimit:10;" d="M 246.5625 403.542969 C 246.5625 420.109375 233.132812 433.542969 216.5625 433.542969 C 199.996094 433.542969 186.5625 420.109375 186.5625 403.542969 C 186.5625 386.972656 199.996094 373.542969 216.5625 373.542969 C 233.132812 373.542969 246.5625 386.972656 246.5625 403.542969 "/>
<path style="fill-rule:nonzero;fill:rgb(67%,100%,18%);fill-opacity:1;stroke-width:1;stroke-linecap:butt;stroke-linejoin:round;stroke:rgb(0%,0%,0%);stroke-opacity:1;stroke-miterlimit:10;" d="M 95.425781 439.019531 C 95.425781 455.585938 81.992188 469.019531 65.425781 469.019531 C 48.855469 469.019531 35.425781 455.585938 35.425781 439.019531 C 35.425781 422.449219 48.855469 409.019531 65.425781 409.019531 C 81.992188 409.019531 95.425781 422.449219 95.425781 439.019531 "/>
</g>
</svg>
