<?xml version="1.0" encoding="UTF-8"?>
<svg xmlns="http://www.w3.org/2000/svg" xmlns:xlink="http://www.w3.org/1999/xlink" width="517pt" height="517pt" viewBox="0 0 517 517" version="1.1">
<g id="surface5226">
<rect x="0" y="0" width="517" height="517" style="fill:rgb(90%,90%,90%);fill-opacity:1;stroke:none;"/>
<path style="fill-rule:nonzero;fill:rgb(67%,100%,18%);fill-opacity:1;stroke-width:1;stroke-linecap:butt;stroke-linejoin:miter;stroke:rgb(0%,0%,0%);stroke-opacity:1;stroke-miterlimit:10;" d="M 102.445312 326.246094 C 102.445312 342.816406 89.011719 356.246094 72.445312 356.246094 C 55.875 356.246094 42.445312 342.816406 42.445312 326.246094 C 42.445312 309.679688 55.875 296.246094 72.445312 296.246094 C 89.011719 296.246094 102.445312 309.679688 102.445312 326.246094 "/>
<path style="fill-rule:nonzero;fill:rgb(67%,100%,18%);fill-opacity:1;stroke-width:1;stroke-linecap:butt;stroke-linejoin:miter;stroke:rgb(0%,0%,0%);stroke-opacity:1;stroke-miterlimit:10;" d="M 91.335938 390.96875 C 91.335938 407.539062 77.90625 420.96875 61.335938 420.96875 C 44.765625 420.96875 31.335938 407.539062 31.335938 390.96875 C 31.335938 374.402344 44.765625 360.96875 61.335938 360.96875 C 77.90625 360.96875 91.335938 374.402344 91.335938 390.96875 "/>
<path style="fill-rule:nonzero;fill:rgb(100%,0%,0%);fill-opacity:1;stroke-width:1;stroke-linecap:butt;stroke-linejoin:miter;stroke:rgb(0%,0%,0%);stroke-opacity:1;stroke-miterlimit:10;" d="M 387.808594 43.378906 C 387.808594 59.945312 374.378906 73.378906 357.808594 73.378906 C 341.242188 73.378906 327.808594 59.945312 327.808594 43.378906 C 327.808594 26.808594 341.242188 13.378906 357.808594 13.378906 C 374.378906 13.378906 387.808594 26.808594 387.808594 43.378906 "/>
<path style="fill-rule:nonzero;fill:rgb(100%,0%,0%);fill-opacity:1;stroke-width:1;stroke-linecap:butt;stroke-linejoin:miter;stroke:rgb(0%,0%,0%);stroke-opacity:1;stroke-miterlimit:10;" d="M 323.878906 186.78125 C 323.878906 203.347656 310.445312 216.78125 293.878906 216.78125 C 277.308594 216.78125 263.878906 203.347656 263.878906 186.78125 C 263.878906 170.210938 277.308594 156.78125 293.878906 156.78125 C 310.445312 156.78125 323.878906 170.210938 323.878906 186.78125 "/>
<path style="fill-rule:nonzero;fill:rgb(100%,0%,0%);fill-opacity:1;stroke-width:1;stroke-linecap:butt;stroke-linejoin:miter;stroke:rgb(0%,0%,0%);stroke-opacity:1;stroke-miterlimit:10;" d="M 470.753906 123.117188 C 470.753906 139.6875 457.320312 153.117188 440.753906 153.117188 C 424.183594 153.117188 410.753906 139.6875 410.753906 123.117188 C 410.753906 106.546875 424.183594 93.117188 440.753906 93.117188 C 457.320312 93.117188 470.753906 106.546875 470.753906 123.117188 "/>
<path style="fill-rule:nonzero;fill:rgb(100%,0%,0%);fill-opacity:1;stroke-width:1;stroke-linecap:butt;stroke-linejoin:miter;stroke:rgb(0%,0%,0%);stroke-opacity:1;stroke-miterlimit:10;" d="M 250.351562 147.269531 C 250.351562 163.835938 236.921875 177.269531 220.351562 177.269531 C 203.785156 177.269531 190.351562 163.835938 190.351562 147.269531 C 190.351562 130.699219 203.785156 117.269531 220.351562 117.269531 C 236.921875 117.269531 250.351562 130.699219 250.351562 147.269531 "/>
<path style="fill-rule:nonzero;fill:rgb(100%,0%,0%);fill-opacity:1;stroke-width:1;stroke-linecap:butt;stroke-linejoin:miter;stroke:rgb(0%,0%,0%);stroke-opacity:1;stroke-miterlimit:10;" d="M 176.355469 96.972656 C 176.355469 113.539062 162.925781 126.972656 146.355469 126.972656 C 129.785156 126.972656 116.355469 113.539062 116.355469 96.972656 C 116.355469 80.402344 129.785156 66.972656 146.355469 66.972656 C 162.925781 66.972656 176.355469 80.402344 176.355469 96.972656 "/>
<path style="fill-rule:nonzero;fill:rgb(100%,0%,0%);fill-opacity:1;stroke-width:1;stroke-linecap:butt;stroke-linejoin:miter;stroke:rgb(0%,0%,0%);stroke-opacity:1;stroke-miterlimit:10;" d="M 98.363281 164.503906 C 98.363281 181.074219 84.929688 194.503906 68.363281 194.503906 C 51.792969 194.503906 38.363281 181.074219 38.363281 164.503906 C 38.363281 147.9375 51.792969 134.503906 68.363281 134.503906 C 84.929688 134.503906 98.363281 147.9375 98.363281 164.503906 "/>
</g>
</svg>
