<?xml version="1.0" encoding="UTF-8"?>
<svg xmlns="http://www.w3.org/2000/svg" xmlns:xlink="http://www.w3.org/1999/xlink" width="517pt" height="517pt" viewBox="0 0 517 517" version="1.1">
<g id="surface1551">
<rect x="0" y="0" width="517" height="517" style="fill:rgb(90%,90%,90%);fill-opacity:1;stroke:none;"/>
<path style="fill:none;stroke-width:5;stroke-linecap:butt;stroke-linejoin:round;stroke:rgb(100%,0%,0%);stroke-opacity:1;stroke-miterlimit:10;" d="M 261 261 L 517 261 L 517 517 L 261 517 Z M 261 261 "/>
<path style="fill-rule:nonzero;fill:rgb(53%,27%,7%);fill-opacity:1;stroke-width:1;stroke-linecap:butt;stroke-linejoin:round;stroke:rgb(0%,0%,0%);stroke-opacity:1;stroke-miterlimit:10;" d="M 433.289062 429.382812 L 413.289062 429.382812 L 413.289062 439.382812 L 433.289062 439.382812 L 433.289062 459.382812 L 443.289062 459.382812 L 443.289062 439.382812 L 463.289062 439.382812 L 463.289062 429.382812 L 443.289062 429.382812 L 443.289062 409.382812 L 433.289062 409.382812 L 433.289062 429.382812 "/>
<path style="fill-rule:nonzero;fill:rgb(35%,70%,90%);fill-opacity:1;stroke-width:1;stroke-linecap:butt;stroke-linejoin:round;stroke:rgb(0%,0%,0%);stroke-opacity:1;stroke-miterlimit:10;" d="M 87.59375 376.808594 L 67.59375 376.808594 L 67.59375 386.808594 L 87.59375 386.808594 L 87.59375 406.808594 L 97.59375 406.808594 L 97.59375 386.808594 L 117.59375 386.808594 L 117.59375 376.808594 L 97.59375 376.808594 L 97.59375 356.808594 L 87.59375 356.808594 L 87.59375 376.808594 "/>
<path style="fill-rule:nonzero;fill:rgb(35%,70%,90%);fill-opacity:1;stroke-width:1;stroke-linecap:butt;stroke-linejoin:round;stroke:rgb(0%,0%,0%);stroke-opacity:1;stroke-miterlimit:10;" d="M 159.238281 372.867188 L 139.238281 372.867188 L 139.238281 382.867188 L 159.238281 382.867188 L 159.238281 402.867188 L 169.238281 402.867188 L 169.238281 382.867188 L 189.238281 382.867188 L 189.238281 372.867188 L 169.238281 372.867188 L 169.238281 352.867188 L 159.238281 352.867188 L 159.238281 372.867188 "/>
<path style="fill-rule:nonzero;fill:rgb(53%,27%,7%);fill-opacity:1;stroke-width:1;stroke-linecap:butt;stroke-linejoin:round;stroke:rgb(0%,0%,0%);stroke-opacity:1;stroke-miterlimit:10;" d="M 353.40625 40.960938 L 333.40625 40.960938 L 333.40625 50.960938 L 353.40625 50.960938 L 353.40625 70.960938 L 363.40625 70.960938 L 363.40625 50.960938 L 383.40625 50.960938 L 383.40625 40.960938 L 363.40625 40.960938 L 363.40625 20.960938 L 353.40625 20.960938 L 353.40625 40.960938 "/>
</g>
</svg>
