<?xml version="1.0" encoding="UTF-8"?>
<svg xmlns="http://www.w3.org/2000/svg" xmlns:xlink="http://www.w3.org/1999/xlink" width="517pt" height="517pt" viewBox="0 0 517 517" version="1.1">
<g id="surface1956">
<rect x="0" y="0" width="517" height="517" style="fill:rgb(90%,90%,90%);fill-opacity:1;stroke:none;"/>
<path style="fill:none;stroke-width:5;stroke-linecap:butt;stroke-linejoin:round;stroke:rgb(100%,0%,0%);stroke-opacity:1;stroke-miterlimit:10;" d="M 5 5 L 261 5 L 261 261 L 5 261 Z M 5 5 "/>
<path style="fill-rule:nonzero;fill:rgb(35%,70%,90%);fill-opacity:1;stroke-width:1;stroke-linecap:butt;stroke-linejoin:round;stroke:rgb(0%,0%,0%);stroke-opacity:1;stroke-miterlimit:10;" d="M 198.015625 150.5 L 178.015625 150.5 L 178.015625 160.5 L 198.015625 160.5 L 198.015625 180.5 L 208.015625 180.5 L 208.015625 160.5 L 228.015625 160.5 L 228.015625 150.5 L 208.015625 150.5 L 208.015625 130.5 L 198.015625 130.5 L 198.015625 150.5 "/>
<path style="fill-rule:nonzero;fill:rgb(90%,65%,0%);fill-opacity:1;stroke-width:1;stroke-linecap:butt;stroke-linejoin:round;stroke:rgb(0%,0%,0%);stroke-opacity:1;stroke-miterlimit:10;" d="M 361.867188 81.070312 L 341.867188 81.070312 L 341.867188 91.070312 L 361.867188 91.070312 L 361.867188 111.070312 L 371.867188 111.070312 L 371.867188 91.070312 L 391.867188 91.070312 L 391.867188 81.070312 L 371.867188 81.070312 L 371.867188 61.070312 L 361.867188 61.070312 L 361.867188 81.070312 "/>
<path style="fill-rule:nonzero;fill:rgb(90%,65%,0%);fill-opacity:1;stroke-width:1;stroke-linecap:butt;stroke-linejoin:round;stroke:rgb(0%,0%,0%);stroke-opacity:1;stroke-miterlimit:10;" d="M 302.34375 144.207031 L 282.34375 144.207031 L 282.34375 154.207031 L 302.34375 154.207031 L 302.34375 174.207031 L 312.34375 174.207031 L 312.34375 154.207031 L 332.34375 154.207031 L 332.34375 144.207031 L 312.34375 144.207031 L 312.34375 124.207031 L 302.34375 124.207031 L 302.34375 144.207031 "/>
<path style="fill-rule:nonzero;fill:rgb(90%,65%,0%);fill-opacity:1;stroke-width:1;stroke-linecap:butt;stroke-linejoin:round;stroke:rgb(0%,0%,0%);stroke-opacity:1;stroke-miterlimit:10;" d="M 318.292969 430.226562 L 298.292969 430.226562 L 298.292969 440.226562 L 318.292969 440.226562 L 318.292969 460.226562 L 328.292969 460.226562 L 328.292969 440.226562 L 348.292969 440.226562 L 348.292969 430.226562 L 328.292969 430.226562 L 328.292969 410.226562 L 318.292969 410.226562 L 318.292969 430.226562 "/>
<path style="fill-rule:nonzero;fill:rgb(35%,70%,90%);fill-opacity:1;stroke-width:1;stroke-linecap:butt;stroke-linejoin:round;stroke:rgb(0%,0%,0%);stroke-opacity:1;stroke-miterlimit:10;" d="M 372.382812 341.617188 L 352.382812 341.617188 L 352.382812 351.617188 L 372.382812 351.617188 L 372.382812 371.617188 L 382.382812 371.617188 L 382.382812 351.617188 L 402.382812 351.617188 L 402.382812 341.617188 L 382.382812 341.617188 L 382.382812 321.617188 L 372.382812 321.617188 L 372.382812 341.617188 "/>
</g>
</svg>
