<?xml version="1.0" encoding="UTF-8"?>
<svg xmlns="http://www.w3.org/2000/svg" xmlns:xlink="http://www.w3.org/1999/xlink" width="517pt" height="517pt" viewBox="0 0 517 517" version="1.1">
<g id="surface1911">
<rect x="0" y="0" width="517" height="517" style="fill:rgb(90%,90%,90%);fill-opacity:1;stroke:none;"/>
<path style="fill:none;stroke-width:5;stroke-linecap:butt;stroke-linejoin:round;stroke:rgb(100%,0%,0%);stroke-opacity:1;stroke-miterlimit:10;" d="M 5 5 L 261 5 L 261 261 L 5 261 Z M 5 5 "/>
<path style="fill-rule:nonzero;fill:rgb(67%,100%,18%);fill-opacity:1;stroke-width:1;stroke-linecap:butt;stroke-linejoin:round;stroke:rgb(0%,0%,0%);stroke-opacity:1;stroke-miterlimit:10;" d="M 120.5625 148.871094 C 120.5625 134.472656 96.5625 134.472656 96.5625 148.871094 C 96.5625 163.273438 120.5625 165.671875 120.5625 177.671875 C 120.5625 165.671875 144.5625 163.273438 144.5625 148.871094 C 144.5625 134.472656 120.5625 134.472656 120.5625 148.871094 "/>
<path style="fill-rule:nonzero;fill:rgb(67%,100%,18%);fill-opacity:1;stroke-width:1;stroke-linecap:butt;stroke-linejoin:round;stroke:rgb(0%,0%,0%);stroke-opacity:1;stroke-miterlimit:10;" d="M 41.257812 280.796875 C 41.257812 266.394531 17.257812 266.394531 17.257812 280.796875 C 17.257812 295.195312 41.257812 297.59375 41.257812 309.59375 C 41.257812 297.59375 65.257812 295.195312 65.257812 280.796875 C 65.257812 266.394531 41.257812 266.394531 41.257812 280.796875 "/>
<path style="fill-rule:nonzero;fill:rgb(100%,7%,57%);fill-opacity:1;stroke-width:1;stroke-linecap:butt;stroke-linejoin:round;stroke:rgb(0%,0%,0%);stroke-opacity:1;stroke-miterlimit:10;" d="M 129.773438 279.964844 C 129.773438 265.566406 105.773438 265.566406 105.773438 279.964844 C 105.773438 294.367188 129.773438 296.765625 129.773438 308.765625 C 129.773438 296.765625 153.773438 294.367188 153.773438 279.964844 C 153.773438 265.566406 129.773438 265.566406 129.773438 279.964844 "/>
<path style="fill-rule:nonzero;fill:rgb(100%,7%,57%);fill-opacity:1;stroke-width:1;stroke-linecap:butt;stroke-linejoin:round;stroke:rgb(0%,0%,0%);stroke-opacity:1;stroke-miterlimit:10;" d="M 351.296875 438.75 C 351.296875 424.351562 327.296875 424.351562 327.296875 438.75 C 327.296875 453.152344 351.296875 455.550781 351.296875 467.550781 C 351.296875 455.550781 375.296875 453.152344 375.296875 438.75 C 375.296875 424.351562 351.296875 424.351562 351.296875 438.75 "/>
<path style="fill-rule:nonzero;fill:rgb(100%,7%,57%);fill-opacity:1;stroke-width:1;stroke-linecap:butt;stroke-linejoin:round;stroke:rgb(0%,0%,0%);stroke-opacity:1;stroke-miterlimit:10;" d="M 390.699219 116.921875 C 390.699219 102.523438 366.699219 102.523438 366.699219 116.921875 C 366.699219 131.320312 390.699219 133.722656 390.699219 145.722656 C 390.699219 133.722656 414.699219 131.320312 414.699219 116.921875 C 414.699219 102.523438 390.699219 102.523438 390.699219 116.921875 "/>
</g>
</svg>
