<?xml version="1.0" encoding="UTF-8"?>
<svg xmlns="http://www.w3.org/2000/svg" xmlns:xlink="http://www.w3.org/1999/xlink" width="517pt" height="517pt" viewBox="0 0 517 517" version="1.1">
<g id="surface2061">
<rect x="0" y="0" width="517" height="517" style="fill:rgb(90%,90%,90%);fill-opacity:1;stroke:none;"/>
<path style="fill:none;stroke-width:5;stroke-linecap:butt;stroke-linejoin:round;stroke:rgb(100%,0%,0%);stroke-opacity:1;stroke-miterlimit:10;" d="M 261 5 L 517 5 L 517 261 L 261 261 Z M 261 5 "/>
<path style="fill-rule:nonzero;fill:rgb(35%,70%,90%);fill-opacity:1;stroke-width:1;stroke-linecap:butt;stroke-linejoin:round;stroke:rgb(0%,0%,0%);stroke-opacity:1;stroke-miterlimit:10;" d="M 440.1875 211.351562 L 420.1875 211.351562 L 420.1875 221.351562 L 440.1875 221.351562 L 440.1875 241.351562 L 450.1875 241.351562 L 450.1875 221.351562 L 470.1875 221.351562 L 470.1875 211.351562 L 450.1875 211.351562 L 450.1875 191.351562 L 440.1875 191.351562 L 440.1875 211.351562 "/>
<path style="fill-rule:nonzero;fill:rgb(35%,70%,90%);fill-opacity:1;stroke-width:1;stroke-linecap:butt;stroke-linejoin:round;stroke:rgb(0%,0%,0%);stroke-opacity:1;stroke-miterlimit:10;" d="M 449.890625 468.121094 L 429.890625 468.121094 L 429.890625 478.121094 L 449.890625 478.121094 L 449.890625 498.121094 L 459.890625 498.121094 L 459.890625 478.121094 L 479.890625 478.121094 L 479.890625 468.121094 L 459.890625 468.121094 L 459.890625 448.121094 L 449.890625 448.121094 L 449.890625 468.121094 "/>
<path style="fill-rule:nonzero;fill:rgb(35%,70%,90%);fill-opacity:1;stroke-width:1;stroke-linecap:butt;stroke-linejoin:round;stroke:rgb(0%,0%,0%);stroke-opacity:1;stroke-miterlimit:10;" d="M 151.882812 210.570312 L 131.882812 210.570312 L 131.882812 220.570312 L 151.882812 220.570312 L 151.882812 240.570312 L 161.882812 240.570312 L 161.882812 220.570312 L 181.882812 220.570312 L 181.882812 210.570312 L 161.882812 210.570312 L 161.882812 190.570312 L 151.882812 190.570312 L 151.882812 210.570312 "/>
<path style="fill-rule:nonzero;fill:rgb(35%,70%,90%);fill-opacity:1;stroke-width:1;stroke-linecap:butt;stroke-linejoin:round;stroke:rgb(0%,0%,0%);stroke-opacity:1;stroke-miterlimit:10;" d="M 125.070312 154.265625 L 105.070312 154.265625 L 105.070312 164.265625 L 125.070312 164.265625 L 125.070312 184.265625 L 135.070312 184.265625 L 135.070312 164.265625 L 155.070312 164.265625 L 155.070312 154.265625 L 135.070312 154.265625 L 135.070312 134.265625 L 125.070312 134.265625 L 125.070312 154.265625 "/>
<path style="fill-rule:nonzero;fill:rgb(100%,7%,57%);fill-opacity:1;stroke-width:1;stroke-linecap:butt;stroke-linejoin:round;stroke:rgb(0%,0%,0%);stroke-opacity:1;stroke-miterlimit:10;" d="M 198.839844 36.117188 L 178.839844 36.117188 L 178.839844 46.117188 L 198.839844 46.117188 L 198.839844 66.117188 L 208.839844 66.117188 L 208.839844 46.117188 L 228.839844 46.117188 L 228.839844 36.117188 L 208.839844 36.117188 L 208.839844 16.117188 L 198.839844 16.117188 L 198.839844 36.117188 "/>
</g>
</svg>
