<?xml version="1.0" encoding="UTF-8"?>
<svg xmlns="http://www.w3.org/2000/svg" xmlns:xlink="http://www.w3.org/1999/xlink" width="517pt" height="517pt" viewBox="0 0 517 517" version="1.1">
<g id="surface1881">
<rect x="0" y="0" width="517" height="517" style="fill:rgb(90%,90%,90%);fill-opacity:1;stroke:none;"/>
<path style="fill:none;stroke-width:5;stroke-linecap:butt;stroke-linejoin:round;stroke:rgb(100%,0%,0%);stroke-opacity:1;stroke-miterlimit:10;" d="M 5 5 L 261 5 L 261 261 L 5 261 Z M 5 5 "/>
<path style="fill-rule:nonzero;fill:rgb(100%,7%,57%);fill-opacity:1;stroke-width:1;stroke-linecap:butt;stroke-linejoin:round;stroke:rgb(0%,0%,0%);stroke-opacity:1;stroke-miterlimit:10;" d="M 55.308594 33.34375 C 55.308594 18.945312 31.308594 18.945312 31.308594 33.34375 C 31.308594 47.742188 55.308594 50.144531 55.308594 62.144531 C 55.308594 50.144531 79.308594 47.742188 79.308594 33.34375 C 79.308594 18.945312 55.308594 18.945312 55.308594 33.34375 "/>
<path style="fill-rule:nonzero;fill:rgb(67%,100%,18%);fill-opacity:1;stroke-width:1;stroke-linecap:butt;stroke-linejoin:round;stroke:rgb(0%,0%,0%);stroke-opacity:1;stroke-miterlimit:10;" d="M 351.144531 90.316406 C 351.144531 75.917969 327.144531 75.917969 327.144531 90.316406 C 327.144531 104.71875 351.144531 107.117188 351.144531 119.117188 C 351.144531 107.117188 375.144531 104.71875 375.144531 90.316406 C 375.144531 75.917969 351.144531 75.917969 351.144531 90.316406 "/>
<path style="fill-rule:nonzero;fill:rgb(100%,7%,57%);fill-opacity:1;stroke-width:1;stroke-linecap:butt;stroke-linejoin:round;stroke:rgb(0%,0%,0%);stroke-opacity:1;stroke-miterlimit:10;" d="M 438.476562 51.503906 C 438.476562 37.105469 414.476562 37.105469 414.476562 51.503906 C 414.476562 65.902344 438.476562 68.304688 438.476562 80.304688 C 438.476562 68.304688 462.476562 65.902344 462.476562 51.503906 C 462.476562 37.105469 438.476562 37.105469 438.476562 51.503906 "/>
<path style="fill-rule:nonzero;fill:rgb(100%,7%,57%);fill-opacity:1;stroke-width:1;stroke-linecap:butt;stroke-linejoin:round;stroke:rgb(0%,0%,0%);stroke-opacity:1;stroke-miterlimit:10;" d="M 359.707031 390.519531 C 359.707031 376.121094 335.707031 376.121094 335.707031 390.519531 C 335.707031 404.921875 359.707031 407.320312 359.707031 419.320312 C 359.707031 407.320312 383.707031 404.921875 383.707031 390.519531 C 383.707031 376.121094 359.707031 376.121094 359.707031 390.519531 "/>
<path style="fill-rule:nonzero;fill:rgb(100%,7%,57%);fill-opacity:1;stroke-width:1;stroke-linecap:butt;stroke-linejoin:round;stroke:rgb(0%,0%,0%);stroke-opacity:1;stroke-miterlimit:10;" d="M 68.234375 312.347656 C 68.234375 297.949219 44.234375 297.949219 44.234375 312.347656 C 44.234375 326.75 68.234375 329.148438 68.234375 341.148438 C 68.234375 329.148438 92.234375 326.75 92.234375 312.347656 C 92.234375 297.949219 68.234375 297.949219 68.234375 312.347656 "/>
</g>
</svg>
