<?xml version="1.0" encoding="UTF-8"?>
<svg xmlns="http://www.w3.org/2000/svg" xmlns:xlink="http://www.w3.org/1999/xlink" width="517pt" height="517pt" viewBox="0 0 517 517" version="1.1">
<g id="surface1966">
<rect x="0" y="0" width="517" height="517" style="fill:rgb(90%,90%,90%);fill-opacity:1;stroke:none;"/>
<path style="fill:none;stroke-width:5;stroke-linecap:butt;stroke-linejoin:round;stroke:rgb(100%,0%,0%);stroke-opacity:1;stroke-miterlimit:10;" d="M 5 5 L 261 5 L 261 261 L 5 261 Z M 5 5 "/>
<path style="fill-rule:nonzero;fill:rgb(35%,70%,90%);fill-opacity:1;stroke-width:1;stroke-linecap:butt;stroke-linejoin:round;stroke:rgb(0%,0%,0%);stroke-opacity:1;stroke-miterlimit:10;" d="M 164.984375 89.53125 L 144.984375 89.53125 L 144.984375 99.53125 L 164.984375 99.53125 L 164.984375 119.53125 L 174.984375 119.53125 L 174.984375 99.53125 L 194.984375 99.53125 L 194.984375 89.53125 L 174.984375 89.53125 L 174.984375 69.53125 L 164.984375 69.53125 L 164.984375 89.53125 "/>
<path style="fill-rule:nonzero;fill:rgb(90%,65%,0%);fill-opacity:1;stroke-width:1;stroke-linecap:butt;stroke-linejoin:round;stroke:rgb(0%,0%,0%);stroke-opacity:1;stroke-miterlimit:10;" d="M 122.898438 429.570312 L 102.898438 429.570312 L 102.898438 439.570312 L 122.898438 439.570312 L 122.898438 459.570312 L 132.898438 459.570312 L 132.898438 439.570312 L 152.898438 439.570312 L 152.898438 429.570312 L 132.898438 429.570312 L 132.898438 409.570312 L 122.898438 409.570312 L 122.898438 429.570312 "/>
<path style="fill-rule:nonzero;fill:rgb(35%,70%,90%);fill-opacity:1;stroke-width:1;stroke-linecap:butt;stroke-linejoin:round;stroke:rgb(0%,0%,0%);stroke-opacity:1;stroke-miterlimit:10;" d="M 183.386719 351.394531 L 163.386719 351.394531 L 163.386719 361.394531 L 183.386719 361.394531 L 183.386719 381.394531 L 193.386719 381.394531 L 193.386719 361.394531 L 213.386719 361.394531 L 213.386719 351.394531 L 193.386719 351.394531 L 193.386719 331.394531 L 183.386719 331.394531 L 183.386719 351.394531 "/>
<path style="fill-rule:nonzero;fill:rgb(35%,70%,90%);fill-opacity:1;stroke-width:1;stroke-linecap:butt;stroke-linejoin:round;stroke:rgb(0%,0%,0%);stroke-opacity:1;stroke-miterlimit:10;" d="M 453.804688 160.386719 L 433.804688 160.386719 L 433.804688 170.386719 L 453.804688 170.386719 L 453.804688 190.386719 L 463.804688 190.386719 L 463.804688 170.386719 L 483.804688 170.386719 L 483.804688 160.386719 L 463.804688 160.386719 L 463.804688 140.386719 L 453.804688 140.386719 L 453.804688 160.386719 "/>
<path style="fill-rule:nonzero;fill:rgb(35%,70%,90%);fill-opacity:1;stroke-width:1;stroke-linecap:butt;stroke-linejoin:round;stroke:rgb(0%,0%,0%);stroke-opacity:1;stroke-miterlimit:10;" d="M 467.507812 344.261719 L 447.507812 344.261719 L 447.507812 354.261719 L 467.507812 354.261719 L 467.507812 374.261719 L 477.507812 374.261719 L 477.507812 354.261719 L 497.507812 354.261719 L 497.507812 344.261719 L 477.507812 344.261719 L 477.507812 324.261719 L 467.507812 324.261719 L 467.507812 344.261719 "/>
</g>
</svg>
