<?xml version="1.0" encoding="UTF-8"?>
<svg xmlns="http://www.w3.org/2000/svg" xmlns:xlink="http://www.w3.org/1999/xlink" width="517pt" height="517pt" viewBox="0 0 517 517" version="1.1">
<g id="surface1826">
<rect x="0" y="0" width="517" height="517" style="fill:rgb(90%,90%,90%);fill-opacity:1;stroke:none;"/>
<path style="fill:none;stroke-width:5;stroke-linecap:butt;stroke-linejoin:round;stroke:rgb(100%,0%,0%);stroke-opacity:1;stroke-miterlimit:10;" d="M 5 5 L 261 5 L 261 261 L 5 261 Z M 5 5 "/>
<path style="fill-rule:nonzero;fill:rgb(35%,70%,90%);fill-opacity:1;stroke-width:1;stroke-linecap:butt;stroke-linejoin:round;stroke:rgb(0%,0%,0%);stroke-opacity:1;stroke-miterlimit:10;" d="M 128.28125 104.644531 C 128.28125 121.214844 114.851562 134.644531 98.28125 134.644531 C 81.710938 134.644531 68.28125 121.214844 68.28125 104.644531 C 68.28125 88.078125 81.710938 74.644531 98.28125 74.644531 C 114.851562 74.644531 128.28125 88.078125 128.28125 104.644531 "/>
<path style="fill-rule:nonzero;fill:rgb(35%,70%,90%);fill-opacity:1;stroke-width:1;stroke-linecap:butt;stroke-linejoin:round;stroke:rgb(0%,0%,0%);stroke-opacity:1;stroke-miterlimit:10;" d="M 86.1875 457.574219 C 86.1875 474.140625 72.757812 487.574219 56.1875 487.574219 C 39.621094 487.574219 26.1875 474.140625 26.1875 457.574219 C 26.1875 441.003906 39.621094 427.574219 56.1875 427.574219 C 72.757812 427.574219 86.1875 441.003906 86.1875 457.574219 "/>
<path style="fill-rule:nonzero;fill:rgb(35%,70%,90%);fill-opacity:1;stroke-width:1;stroke-linecap:butt;stroke-linejoin:round;stroke:rgb(0%,0%,0%);stroke-opacity:1;stroke-miterlimit:10;" d="M 207.667969 369.785156 C 207.667969 386.355469 194.234375 399.785156 177.667969 399.785156 C 161.097656 399.785156 147.667969 386.355469 147.667969 369.785156 C 147.667969 353.21875 161.097656 339.785156 177.667969 339.785156 C 194.234375 339.785156 207.667969 353.21875 207.667969 369.785156 "/>
<path style="fill-rule:nonzero;fill:rgb(35%,70%,90%);fill-opacity:1;stroke-width:1;stroke-linecap:butt;stroke-linejoin:round;stroke:rgb(0%,0%,0%);stroke-opacity:1;stroke-miterlimit:10;" d="M 474.015625 182.769531 C 474.015625 199.339844 460.582031 212.769531 444.015625 212.769531 C 427.445312 212.769531 414.015625 199.339844 414.015625 182.769531 C 414.015625 166.199219 427.445312 152.769531 444.015625 152.769531 C 460.582031 152.769531 474.015625 166.199219 474.015625 182.769531 "/>
<path style="fill-rule:nonzero;fill:rgb(35%,70%,90%);fill-opacity:1;stroke-width:1;stroke-linecap:butt;stroke-linejoin:round;stroke:rgb(0%,0%,0%);stroke-opacity:1;stroke-miterlimit:10;" d="M 410.71875 65.128906 C 410.71875 81.699219 397.285156 95.128906 380.71875 95.128906 C 364.148438 95.128906 350.71875 81.699219 350.71875 65.128906 C 350.71875 48.5625 364.148438 35.128906 380.71875 35.128906 C 397.285156 35.128906 410.71875 48.5625 410.71875 65.128906 "/>
</g>
</svg>
