<?xml version="1.0" encoding="UTF-8"?>
<svg xmlns="http://www.w3.org/2000/svg" xmlns:xlink="http://www.w3.org/1999/xlink" width="517pt" height="517pt" viewBox="0 0 517 517" version="1.1">
<g id="surface2031">
<rect x="0" y="0" width="517" height="517" style="fill:rgb(90%,90%,90%);fill-opacity:1;stroke:none;"/>
<path style="fill:none;stroke-width:5;stroke-linecap:butt;stroke-linejoin:round;stroke:rgb(100%,0%,0%);stroke-opacity:1;stroke-miterlimit:10;" d="M 261 5 L 517 5 L 517 261 L 261 261 Z M 261 5 "/>
<path style="fill-rule:nonzero;fill:rgb(100%,7%,57%);fill-opacity:1;stroke-width:1;stroke-linecap:butt;stroke-linejoin:round;stroke:rgb(0%,0%,0%);stroke-opacity:1;stroke-miterlimit:10;" d="M 426.871094 32.601562 L 406.871094 32.601562 L 406.871094 42.601562 L 426.871094 42.601562 L 426.871094 62.601562 L 436.871094 62.601562 L 436.871094 42.601562 L 456.871094 42.601562 L 456.871094 32.601562 L 436.871094 32.601562 L 436.871094 12.601562 L 426.871094 12.601562 L 426.871094 32.601562 "/>
<path style="fill-rule:nonzero;fill:rgb(35%,70%,90%);fill-opacity:1;stroke-width:1;stroke-linecap:butt;stroke-linejoin:round;stroke:rgb(0%,0%,0%);stroke-opacity:1;stroke-miterlimit:10;" d="M 161 201.355469 L 141 201.355469 L 141 211.355469 L 161 211.355469 L 161 231.355469 L 171 231.355469 L 171 211.355469 L 191 211.355469 L 191 201.355469 L 171 201.355469 L 171 181.355469 L 161 181.355469 L 161 201.355469 "/>
<path style="fill-rule:nonzero;fill:rgb(35%,70%,90%);fill-opacity:1;stroke-width:1;stroke-linecap:butt;stroke-linejoin:round;stroke:rgb(0%,0%,0%);stroke-opacity:1;stroke-miterlimit:10;" d="M 421.921875 393.742188 L 401.921875 393.742188 L 401.921875 403.742188 L 421.921875 403.742188 L 421.921875 423.742188 L 431.921875 423.742188 L 431.921875 403.742188 L 451.921875 403.742188 L 451.921875 393.742188 L 431.921875 393.742188 L 431.921875 373.742188 L 421.921875 373.742188 L 421.921875 393.742188 "/>
<path style="fill-rule:nonzero;fill:rgb(35%,70%,90%);fill-opacity:1;stroke-width:1;stroke-linecap:butt;stroke-linejoin:round;stroke:rgb(0%,0%,0%);stroke-opacity:1;stroke-miterlimit:10;" d="M 313.664062 411.058594 L 293.664062 411.058594 L 293.664062 421.058594 L 313.664062 421.058594 L 313.664062 441.058594 L 323.664062 441.058594 L 323.664062 421.058594 L 343.664062 421.058594 L 343.664062 411.058594 L 323.664062 411.058594 L 323.664062 391.058594 L 313.664062 391.058594 L 313.664062 411.058594 "/>
<path style="fill-rule:nonzero;fill:rgb(100%,7%,57%);fill-opacity:1;stroke-width:1;stroke-linecap:butt;stroke-linejoin:round;stroke:rgb(0%,0%,0%);stroke-opacity:1;stroke-miterlimit:10;" d="M 432.523438 310.429688 L 412.523438 310.429688 L 412.523438 320.429688 L 432.523438 320.429688 L 432.523438 340.429688 L 442.523438 340.429688 L 442.523438 320.429688 L 462.523438 320.429688 L 462.523438 310.429688 L 442.523438 310.429688 L 442.523438 290.429688 L 432.523438 290.429688 L 432.523438 310.429688 "/>
</g>
</svg>
