<?xml version="1.0" encoding="UTF-8"?>
<svg xmlns="http://www.w3.org/2000/svg" xmlns:xlink="http://www.w3.org/1999/xlink" width="517pt" height="517pt" viewBox="0 0 517 517" version="1.1">
<g id="surface2041">
<rect x="0" y="0" width="517" height="517" style="fill:rgb(90%,90%,90%);fill-opacity:1;stroke:none;"/>
<path style="fill:none;stroke-width:5;stroke-linecap:butt;stroke-linejoin:round;stroke:rgb(100%,0%,0%);stroke-opacity:1;stroke-miterlimit:10;" d="M 261 5 L 517 5 L 517 261 L 261 261 Z M 261 5 "/>
<path style="fill-rule:nonzero;fill:rgb(100%,7%,57%);fill-opacity:1;stroke-width:1;stroke-linecap:butt;stroke-linejoin:round;stroke:rgb(0%,0%,0%);stroke-opacity:1;stroke-miterlimit:10;" d="M 329.335938 52.53125 L 309.335938 52.53125 L 309.335938 62.53125 L 329.335938 62.53125 L 329.335938 82.53125 L 339.335938 82.53125 L 339.335938 62.53125 L 359.335938 62.53125 L 359.335938 52.53125 L 339.335938 52.53125 L 339.335938 32.53125 L 329.335938 32.53125 L 329.335938 52.53125 "/>
<path style="fill-rule:nonzero;fill:rgb(35%,70%,90%);fill-opacity:1;stroke-width:1;stroke-linecap:butt;stroke-linejoin:round;stroke:rgb(0%,0%,0%);stroke-opacity:1;stroke-miterlimit:10;" d="M 434.65625 455.726562 L 414.65625 455.726562 L 414.65625 465.726562 L 434.65625 465.726562 L 434.65625 485.726562 L 444.65625 485.726562 L 444.65625 465.726562 L 464.65625 465.726562 L 464.65625 455.726562 L 444.65625 455.726562 L 444.65625 435.726562 L 434.65625 435.726562 L 434.65625 455.726562 "/>
<path style="fill-rule:nonzero;fill:rgb(100%,7%,57%);fill-opacity:1;stroke-width:1;stroke-linecap:butt;stroke-linejoin:round;stroke:rgb(0%,0%,0%);stroke-opacity:1;stroke-miterlimit:10;" d="M 365.882812 390.601562 L 345.882812 390.601562 L 345.882812 400.601562 L 365.882812 400.601562 L 365.882812 420.601562 L 375.882812 420.601562 L 375.882812 400.601562 L 395.882812 400.601562 L 395.882812 390.601562 L 375.882812 390.601562 L 375.882812 370.601562 L 365.882812 370.601562 L 365.882812 390.601562 "/>
<path style="fill-rule:nonzero;fill:rgb(100%,7%,57%);fill-opacity:1;stroke-width:1;stroke-linecap:butt;stroke-linejoin:round;stroke:rgb(0%,0%,0%);stroke-opacity:1;stroke-miterlimit:10;" d="M 47.917969 162.152344 L 27.917969 162.152344 L 27.917969 172.152344 L 47.917969 172.152344 L 47.917969 192.152344 L 57.917969 192.152344 L 57.917969 172.152344 L 77.917969 172.152344 L 77.917969 162.152344 L 57.917969 162.152344 L 57.917969 142.152344 L 47.917969 142.152344 L 47.917969 162.152344 "/>
<path style="fill-rule:nonzero;fill:rgb(100%,7%,57%);fill-opacity:1;stroke-width:1;stroke-linecap:butt;stroke-linejoin:round;stroke:rgb(0%,0%,0%);stroke-opacity:1;stroke-miterlimit:10;" d="M 178.457031 77.125 L 158.457031 77.125 L 158.457031 87.125 L 178.457031 87.125 L 178.457031 107.125 L 188.457031 107.125 L 188.457031 87.125 L 208.457031 87.125 L 208.457031 77.125 L 188.457031 77.125 L 188.457031 57.125 L 178.457031 57.125 L 178.457031 77.125 "/>
</g>
</svg>
