<?xml version="1.0" encoding="UTF-8"?>
<svg xmlns="http://www.w3.org/2000/svg" xmlns:xlink="http://www.w3.org/1999/xlink" width="517pt" height="517pt" viewBox="0 0 517 517" version="1.1">
<g id="surface2271">
<rect x="0" y="0" width="517" height="517" style="fill:rgb(90%,90%,90%);fill-opacity:1;stroke:none;"/>
<path style="fill:none;stroke-width:5;stroke-linecap:butt;stroke-linejoin:round;stroke:rgb(100%,0%,0%);stroke-opacity:1;stroke-miterlimit:10;" d="M 261 5 L 517 5 L 517 261 L 261 261 Z M 261 5 "/>
<path style="fill-rule:nonzero;fill:rgb(67%,100%,18%);fill-opacity:1;stroke-width:1;stroke-linecap:butt;stroke-linejoin:round;stroke:rgb(0%,0%,0%);stroke-opacity:1;stroke-miterlimit:10;" d="M 441.785156 157.472656 C 441.785156 174.039062 428.355469 187.472656 411.785156 187.472656 C 395.214844 187.472656 381.785156 174.039062 381.785156 157.472656 C 381.785156 140.902344 395.214844 127.472656 411.785156 127.472656 C 428.355469 127.472656 441.785156 140.902344 441.785156 157.472656 "/>
<path style="fill-rule:nonzero;fill:rgb(100%,0%,0%);fill-opacity:1;stroke-width:1;stroke-linecap:butt;stroke-linejoin:round;stroke:rgb(0%,0%,0%);stroke-opacity:1;stroke-miterlimit:10;" d="M 90.292969 130.558594 C 90.292969 147.128906 76.859375 160.558594 60.292969 160.558594 C 43.722656 160.558594 30.292969 147.128906 30.292969 130.558594 C 30.292969 113.992188 43.722656 100.558594 60.292969 100.558594 C 76.859375 100.558594 90.292969 113.992188 90.292969 130.558594 "/>
<path style="fill-rule:nonzero;fill:rgb(100%,0%,0%);fill-opacity:1;stroke-width:1;stroke-linecap:butt;stroke-linejoin:round;stroke:rgb(0%,0%,0%);stroke-opacity:1;stroke-miterlimit:10;" d="M 405.785156 330.496094 C 405.785156 347.0625 392.355469 360.496094 375.785156 360.496094 C 359.21875 360.496094 345.785156 347.0625 345.785156 330.496094 C 345.785156 313.925781 359.21875 300.496094 375.785156 300.496094 C 392.355469 300.496094 405.785156 313.925781 405.785156 330.496094 "/>
<path style="fill-rule:nonzero;fill:rgb(100%,0%,0%);fill-opacity:1;stroke-width:1;stroke-linecap:butt;stroke-linejoin:round;stroke:rgb(0%,0%,0%);stroke-opacity:1;stroke-miterlimit:10;" d="M 414.285156 409.457031 C 414.285156 426.023438 400.851562 439.457031 384.285156 439.457031 C 367.714844 439.457031 354.285156 426.023438 354.285156 409.457031 C 354.285156 392.886719 367.714844 379.457031 384.285156 379.457031 C 400.851562 379.457031 414.285156 392.886719 414.285156 409.457031 "/>
<path style="fill-rule:nonzero;fill:rgb(67%,100%,18%);fill-opacity:1;stroke-width:1;stroke-linecap:butt;stroke-linejoin:round;stroke:rgb(0%,0%,0%);stroke-opacity:1;stroke-miterlimit:10;" d="M 336.515625 407.40625 C 336.515625 423.976562 323.085938 437.40625 306.515625 437.40625 C 289.949219 437.40625 276.515625 423.976562 276.515625 407.40625 C 276.515625 390.839844 289.949219 377.40625 306.515625 377.40625 C 323.085938 377.40625 336.515625 390.839844 336.515625 407.40625 "/>
</g>
</svg>
