<?xml version="1.0" encoding="UTF-8"?>
<svg xmlns="http://www.w3.org/2000/svg" xmlns:xlink="http://www.w3.org/1999/xlink" width="517pt" height="517pt" viewBox="0 0 517 517" version="1.1">
<g id="surface1771">
<rect x="0" y="0" width="517" height="517" style="fill:rgb(90%,90%,90%);fill-opacity:1;stroke:none;"/>
<path style="fill:none;stroke-width:5;stroke-linecap:butt;stroke-linejoin:round;stroke:rgb(100%,0%,0%);stroke-opacity:1;stroke-miterlimit:10;" d="M 5 5 L 261 5 L 261 261 L 5 261 Z M 5 5 "/>
<path style="fill-rule:nonzero;fill:rgb(100%,100%,0%);fill-opacity:1;stroke-width:1;stroke-linecap:butt;stroke-linejoin:round;stroke:rgb(0%,0%,0%);stroke-opacity:1;stroke-miterlimit:10;" d="M 107.628906 63.28125 C 107.628906 79.851562 94.199219 93.28125 77.628906 93.28125 C 61.058594 93.28125 47.628906 79.851562 47.628906 63.28125 C 47.628906 46.714844 61.058594 33.28125 77.628906 33.28125 C 94.199219 33.28125 107.628906 46.714844 107.628906 63.28125 "/>
<path style="fill-rule:nonzero;fill:rgb(35%,70%,90%);fill-opacity:1;stroke-width:1;stroke-linecap:butt;stroke-linejoin:round;stroke:rgb(0%,0%,0%);stroke-opacity:1;stroke-miterlimit:10;" d="M 387.199219 64.550781 C 387.199219 81.117188 373.769531 94.550781 357.199219 94.550781 C 340.628906 94.550781 327.199219 81.117188 327.199219 64.550781 C 327.199219 47.980469 340.628906 34.550781 357.199219 34.550781 C 373.769531 34.550781 387.199219 47.980469 387.199219 64.550781 "/>
<path style="fill-rule:nonzero;fill:rgb(35%,70%,90%);fill-opacity:1;stroke-width:1;stroke-linecap:butt;stroke-linejoin:round;stroke:rgb(0%,0%,0%);stroke-opacity:1;stroke-miterlimit:10;" d="M 462.972656 324.992188 C 462.972656 341.558594 449.542969 354.992188 432.972656 354.992188 C 416.40625 354.992188 402.972656 341.558594 402.972656 324.992188 C 402.972656 308.421875 416.40625 294.992188 432.972656 294.992188 C 449.542969 294.992188 462.972656 308.421875 462.972656 324.992188 "/>
<path style="fill-rule:nonzero;fill:rgb(35%,70%,90%);fill-opacity:1;stroke-width:1;stroke-linecap:butt;stroke-linejoin:round;stroke:rgb(0%,0%,0%);stroke-opacity:1;stroke-miterlimit:10;" d="M 483.410156 398.429688 C 483.410156 415 469.980469 428.429688 453.410156 428.429688 C 436.839844 428.429688 423.410156 415 423.410156 398.429688 C 423.410156 381.863281 436.839844 368.429688 453.410156 368.429688 C 469.980469 368.429688 483.410156 381.863281 483.410156 398.429688 "/>
<path style="fill-rule:nonzero;fill:rgb(35%,70%,90%);fill-opacity:1;stroke-width:1;stroke-linecap:butt;stroke-linejoin:round;stroke:rgb(0%,0%,0%);stroke-opacity:1;stroke-miterlimit:10;" d="M 323.019531 438.917969 C 323.019531 455.488281 309.589844 468.917969 293.019531 468.917969 C 276.449219 468.917969 263.019531 455.488281 263.019531 438.917969 C 263.019531 422.351562 276.449219 408.917969 293.019531 408.917969 C 309.589844 408.917969 323.019531 422.351562 323.019531 438.917969 "/>
</g>
</svg>
