<?xml version="1.0" encoding="UTF-8"?>
<svg xmlns="http://www.w3.org/2000/svg" xmlns:xlink="http://www.w3.org/1999/xlink" width="517pt" height="517pt" viewBox="0 0 517 517" version="1.1">
<g id="surface2046">
<rect x="0" y="0" width="517" height="517" style="fill:rgb(90%,90%,90%);fill-opacity:1;stroke:none;"/>
<path style="fill:none;stroke-width:5;stroke-linecap:butt;stroke-linejoin:round;stroke:rgb(100%,0%,0%);stroke-opacity:1;stroke-miterlimit:10;" d="M 261 5 L 517 5 L 517 261 L 261 261 Z M 261 5 "/>
<path style="fill-rule:nonzero;fill:rgb(100%,7%,57%);fill-opacity:1;stroke-width:1;stroke-linecap:butt;stroke-linejoin:round;stroke:rgb(0%,0%,0%);stroke-opacity:1;stroke-miterlimit:10;" d="M 320.59375 60.707031 L 300.59375 60.707031 L 300.59375 70.707031 L 320.59375 70.707031 L 320.59375 90.707031 L 330.59375 90.707031 L 330.59375 70.707031 L 350.59375 70.707031 L 350.59375 60.707031 L 330.59375 60.707031 L 330.59375 40.707031 L 320.59375 40.707031 L 320.59375 60.707031 "/>
<path style="fill-rule:nonzero;fill:rgb(35%,70%,90%);fill-opacity:1;stroke-width:1;stroke-linecap:butt;stroke-linejoin:round;stroke:rgb(0%,0%,0%);stroke-opacity:1;stroke-miterlimit:10;" d="M 67.328125 196.695312 L 47.328125 196.695312 L 47.328125 206.695312 L 67.328125 206.695312 L 67.328125 226.695312 L 77.328125 226.695312 L 77.328125 206.695312 L 97.328125 206.695312 L 97.328125 196.695312 L 77.328125 196.695312 L 77.328125 176.695312 L 67.328125 176.695312 L 67.328125 196.695312 "/>
<path style="fill-rule:nonzero;fill:rgb(100%,7%,57%);fill-opacity:1;stroke-width:1;stroke-linecap:butt;stroke-linejoin:round;stroke:rgb(0%,0%,0%);stroke-opacity:1;stroke-miterlimit:10;" d="M 34.332031 122.164062 L 14.332031 122.164062 L 14.332031 132.164062 L 34.332031 132.164062 L 34.332031 152.164062 L 44.332031 152.164062 L 44.332031 132.164062 L 64.332031 132.164062 L 64.332031 122.164062 L 44.332031 122.164062 L 44.332031 102.164062 L 34.332031 102.164062 L 34.332031 122.164062 "/>
<path style="fill-rule:nonzero;fill:rgb(100%,7%,57%);fill-opacity:1;stroke-width:1;stroke-linecap:butt;stroke-linejoin:round;stroke:rgb(0%,0%,0%);stroke-opacity:1;stroke-miterlimit:10;" d="M 406.613281 323.140625 L 386.613281 323.140625 L 386.613281 333.140625 L 406.613281 333.140625 L 406.613281 353.140625 L 416.613281 353.140625 L 416.613281 333.140625 L 436.613281 333.140625 L 436.613281 323.140625 L 416.613281 323.140625 L 416.613281 303.140625 L 406.613281 303.140625 L 406.613281 323.140625 "/>
<path style="fill-rule:nonzero;fill:rgb(100%,7%,57%);fill-opacity:1;stroke-width:1;stroke-linecap:butt;stroke-linejoin:round;stroke:rgb(0%,0%,0%);stroke-opacity:1;stroke-miterlimit:10;" d="M 311.269531 321.085938 L 291.269531 321.085938 L 291.269531 331.085938 L 311.269531 331.085938 L 311.269531 351.085938 L 321.269531 351.085938 L 321.269531 331.085938 L 341.269531 331.085938 L 341.269531 321.085938 L 321.269531 321.085938 L 321.269531 301.085938 L 311.269531 301.085938 L 311.269531 321.085938 "/>
</g>
</svg>
