<?xml version="1.0" encoding="UTF-8"?>
<svg xmlns="http://www.w3.org/2000/svg" xmlns:xlink="http://www.w3.org/1999/xlink" width="517pt" height="517pt" viewBox="0 0 517 517" version="1.1">
<g id="surface1936">
<rect x="0" y="0" width="517" height="517" style="fill:rgb(90%,90%,90%);fill-opacity:1;stroke:none;"/>
<path style="fill:none;stroke-width:5;stroke-linecap:butt;stroke-linejoin:round;stroke:rgb(100%,0%,0%);stroke-opacity:1;stroke-miterlimit:10;" d="M 5 5 L 261 5 L 261 261 L 5 261 Z M 5 5 "/>
<path style="fill-rule:nonzero;fill:rgb(35%,70%,90%);fill-opacity:1;stroke-width:1;stroke-linecap:butt;stroke-linejoin:round;stroke:rgb(0%,0%,0%);stroke-opacity:1;stroke-miterlimit:10;" d="M 114.757812 180.808594 L 94.757812 180.808594 L 94.757812 190.808594 L 114.757812 190.808594 L 114.757812 210.808594 L 124.757812 210.808594 L 124.757812 190.808594 L 144.757812 190.808594 L 144.757812 180.808594 L 124.757812 180.808594 L 124.757812 160.808594 L 114.757812 160.808594 L 114.757812 180.808594 "/>
<path style="fill-rule:nonzero;fill:rgb(90%,65%,0%);fill-opacity:1;stroke-width:1;stroke-linecap:butt;stroke-linejoin:round;stroke:rgb(0%,0%,0%);stroke-opacity:1;stroke-miterlimit:10;" d="M 90.390625 422.566406 L 70.390625 422.566406 L 70.390625 432.566406 L 90.390625 432.566406 L 90.390625 452.566406 L 100.390625 452.566406 L 100.390625 432.566406 L 120.390625 432.566406 L 120.390625 422.566406 L 100.390625 422.566406 L 100.390625 402.566406 L 90.390625 402.566406 L 90.390625 422.566406 "/>
<path style="fill-rule:nonzero;fill:rgb(90%,65%,0%);fill-opacity:1;stroke-width:1;stroke-linecap:butt;stroke-linejoin:round;stroke:rgb(0%,0%,0%);stroke-opacity:1;stroke-miterlimit:10;" d="M 465.460938 124.320312 L 445.460938 124.320312 L 445.460938 134.320312 L 465.460938 134.320312 L 465.460938 154.320312 L 475.460938 154.320312 L 475.460938 134.320312 L 495.460938 134.320312 L 495.460938 124.320312 L 475.460938 124.320312 L 475.460938 104.320312 L 465.460938 104.320312 L 465.460938 124.320312 "/>
<path style="fill-rule:nonzero;fill:rgb(90%,65%,0%);fill-opacity:1;stroke-width:1;stroke-linecap:butt;stroke-linejoin:round;stroke:rgb(0%,0%,0%);stroke-opacity:1;stroke-miterlimit:10;" d="M 355.257812 128.480469 L 335.257812 128.480469 L 335.257812 138.480469 L 355.257812 138.480469 L 355.257812 158.480469 L 365.257812 158.480469 L 365.257812 138.480469 L 385.257812 138.480469 L 385.257812 128.480469 L 365.257812 128.480469 L 365.257812 108.480469 L 355.257812 108.480469 L 355.257812 128.480469 "/>
<path style="fill-rule:nonzero;fill:rgb(90%,65%,0%);fill-opacity:1;stroke-width:1;stroke-linecap:butt;stroke-linejoin:round;stroke:rgb(0%,0%,0%);stroke-opacity:1;stroke-miterlimit:10;" d="M 439.945312 194.621094 L 419.945312 194.621094 L 419.945312 204.621094 L 439.945312 204.621094 L 439.945312 224.621094 L 449.945312 224.621094 L 449.945312 204.621094 L 469.945312 204.621094 L 469.945312 194.621094 L 449.945312 194.621094 L 449.945312 174.621094 L 439.945312 174.621094 L 439.945312 194.621094 "/>
</g>
</svg>
