<?xml version="1.0" encoding="UTF-8"?>
<svg xmlns="http://www.w3.org/2000/svg" xmlns:xlink="http://www.w3.org/1999/xlink" width="517pt" height="517pt" viewBox="0 0 517 517" version="1.1">
<g id="surface1536">
<rect x="0" y="0" width="517" height="517" style="fill:rgb(90%,90%,90%);fill-opacity:1;stroke:none;"/>
<path style="fill:none;stroke-width:5;stroke-linecap:butt;stroke-linejoin:round;stroke:rgb(100%,0%,0%);stroke-opacity:1;stroke-miterlimit:10;" d="M 261 261 L 517 261 L 517 517 L 261 517 Z M 261 261 "/>
<path style="fill-rule:nonzero;fill:rgb(53%,27%,7%);fill-opacity:1;stroke-width:1;stroke-linecap:butt;stroke-linejoin:round;stroke:rgb(0%,0%,0%);stroke-opacity:1;stroke-miterlimit:10;" d="M 393.320312 381.058594 L 373.320312 381.058594 L 373.320312 391.058594 L 393.320312 391.058594 L 393.320312 411.058594 L 403.320312 411.058594 L 403.320312 391.058594 L 423.320312 391.058594 L 423.320312 381.058594 L 403.320312 381.058594 L 403.320312 361.058594 L 393.320312 361.058594 L 393.320312 381.058594 "/>
<path style="fill-rule:nonzero;fill:rgb(35%,70%,90%);fill-opacity:1;stroke-width:1;stroke-linecap:butt;stroke-linejoin:round;stroke:rgb(0%,0%,0%);stroke-opacity:1;stroke-miterlimit:10;" d="M 68.117188 164.320312 L 48.117188 164.320312 L 48.117188 174.320312 L 68.117188 174.320312 L 68.117188 194.320312 L 78.117188 194.320312 L 78.117188 174.320312 L 98.117188 174.320312 L 98.117188 164.320312 L 78.117188 164.320312 L 78.117188 144.320312 L 68.117188 144.320312 L 68.117188 164.320312 "/>
<path style="fill-rule:nonzero;fill:rgb(35%,70%,90%);fill-opacity:1;stroke-width:1;stroke-linecap:butt;stroke-linejoin:round;stroke:rgb(0%,0%,0%);stroke-opacity:1;stroke-miterlimit:10;" d="M 108.707031 108.144531 L 88.707031 108.144531 L 88.707031 118.144531 L 108.707031 118.144531 L 108.707031 138.144531 L 118.707031 138.144531 L 118.707031 118.144531 L 138.707031 118.144531 L 138.707031 108.144531 L 118.707031 108.144531 L 118.707031 88.144531 L 108.707031 88.144531 L 108.707031 108.144531 "/>
<path style="fill-rule:nonzero;fill:rgb(35%,70%,90%);fill-opacity:1;stroke-width:1;stroke-linecap:butt;stroke-linejoin:round;stroke:rgb(0%,0%,0%);stroke-opacity:1;stroke-miterlimit:10;" d="M 181.710938 330.109375 L 161.710938 330.109375 L 161.710938 340.109375 L 181.710938 340.109375 L 181.710938 360.109375 L 191.710938 360.109375 L 191.710938 340.109375 L 211.710938 340.109375 L 211.710938 330.109375 L 191.710938 330.109375 L 191.710938 310.109375 L 181.710938 310.109375 L 181.710938 330.109375 "/>
</g>
</svg>
