<?xml version="1.0" encoding="UTF-8"?>
<svg xmlns="http://www.w3.org/2000/svg" xmlns:xlink="http://www.w3.org/1999/xlink" width="517pt" height="517pt" viewBox="0 0 517 517" version="1.1">
<g id="surface1776">
<rect x="0" y="0" width="517" height="517" style="fill:rgb(90%,90%,90%);fill-opacity:1;stroke:none;"/>
<path style="fill:none;stroke-width:5;stroke-linecap:butt;stroke-linejoin:round;stroke:rgb(100%,0%,0%);stroke-opacity:1;stroke-miterlimit:10;" d="M 5 5 L 261 5 L 261 261 L 5 261 Z M 5 5 "/>
<path style="fill-rule:nonzero;fill:rgb(100%,100%,0%);fill-opacity:1;stroke-width:1;stroke-linecap:butt;stroke-linejoin:round;stroke:rgb(0%,0%,0%);stroke-opacity:1;stroke-miterlimit:10;" d="M 248.847656 217.179688 C 248.847656 233.75 235.417969 247.179688 218.847656 247.179688 C 202.277344 247.179688 188.847656 233.75 188.847656 217.179688 C 188.847656 200.613281 202.277344 187.179688 218.847656 187.179688 C 235.417969 187.179688 248.847656 200.613281 248.847656 217.179688 "/>
<path style="fill-rule:nonzero;fill:rgb(35%,70%,90%);fill-opacity:1;stroke-width:1;stroke-linecap:butt;stroke-linejoin:round;stroke:rgb(0%,0%,0%);stroke-opacity:1;stroke-miterlimit:10;" d="M 373.714844 177.179688 C 373.714844 193.746094 360.285156 207.179688 343.714844 207.179688 C 327.148438 207.179688 313.714844 193.746094 313.714844 177.179688 C 313.714844 160.609375 327.148438 147.179688 343.714844 147.179688 C 360.285156 147.179688 373.714844 160.609375 373.714844 177.179688 "/>
<path style="fill-rule:nonzero;fill:rgb(35%,70%,90%);fill-opacity:1;stroke-width:1;stroke-linecap:butt;stroke-linejoin:round;stroke:rgb(0%,0%,0%);stroke-opacity:1;stroke-miterlimit:10;" d="M 321.394531 459.339844 C 321.394531 475.90625 307.960938 489.339844 291.394531 489.339844 C 274.824219 489.339844 261.394531 475.90625 261.394531 459.339844 C 261.394531 442.769531 274.824219 429.339844 291.394531 429.339844 C 307.960938 429.339844 321.394531 442.769531 321.394531 459.339844 "/>
<path style="fill-rule:nonzero;fill:rgb(35%,70%,90%);fill-opacity:1;stroke-width:1;stroke-linecap:butt;stroke-linejoin:round;stroke:rgb(0%,0%,0%);stroke-opacity:1;stroke-miterlimit:10;" d="M 501.578125 444.894531 C 501.578125 461.460938 488.144531 474.894531 471.578125 474.894531 C 455.007812 474.894531 441.578125 461.460938 441.578125 444.894531 C 441.578125 428.324219 455.007812 414.894531 471.578125 414.894531 C 488.144531 414.894531 501.578125 428.324219 501.578125 444.894531 "/>
<path style="fill-rule:nonzero;fill:rgb(35%,70%,90%);fill-opacity:1;stroke-width:1;stroke-linecap:butt;stroke-linejoin:round;stroke:rgb(0%,0%,0%);stroke-opacity:1;stroke-miterlimit:10;" d="M 376.761719 400.300781 C 376.761719 416.867188 363.332031 430.300781 346.761719 430.300781 C 330.195312 430.300781 316.761719 416.867188 316.761719 400.300781 C 316.761719 383.730469 330.195312 370.300781 346.761719 370.300781 C 363.332031 370.300781 376.761719 383.730469 376.761719 400.300781 "/>
</g>
</svg>
