<?xml version="1.0" encoding="UTF-8"?>
<svg xmlns="http://www.w3.org/2000/svg" xmlns:xlink="http://www.w3.org/1999/xlink" width="517pt" height="517pt" viewBox="0 0 517 517" version="1.1">
<g id="surface2261">
<rect x="0" y="0" width="517" height="517" style="fill:rgb(90%,90%,90%);fill-opacity:1;stroke:none;"/>
<path style="fill:none;stroke-width:5;stroke-linecap:butt;stroke-linejoin:round;stroke:rgb(100%,0%,0%);stroke-opacity:1;stroke-miterlimit:10;" d="M 261 5 L 517 5 L 517 261 L 261 261 Z M 261 5 "/>
<path style="fill-rule:nonzero;fill:rgb(67%,100%,18%);fill-opacity:1;stroke-width:1;stroke-linecap:butt;stroke-linejoin:round;stroke:rgb(0%,0%,0%);stroke-opacity:1;stroke-miterlimit:10;" d="M 464.4375 161.472656 C 464.4375 178.039062 451.003906 191.472656 434.4375 191.472656 C 417.867188 191.472656 404.4375 178.039062 404.4375 161.472656 C 404.4375 144.902344 417.867188 131.472656 434.4375 131.472656 C 451.003906 131.472656 464.4375 144.902344 464.4375 161.472656 "/>
<path style="fill-rule:nonzero;fill:rgb(100%,0%,0%);fill-opacity:1;stroke-width:1;stroke-linecap:butt;stroke-linejoin:round;stroke:rgb(0%,0%,0%);stroke-opacity:1;stroke-miterlimit:10;" d="M 95.167969 113.089844 C 95.167969 129.660156 81.738281 143.089844 65.167969 143.089844 C 48.601562 143.089844 35.167969 129.660156 35.167969 113.089844 C 35.167969 96.523438 48.601562 83.089844 65.167969 83.089844 C 81.738281 83.089844 95.167969 96.523438 95.167969 113.089844 "/>
<path style="fill-rule:nonzero;fill:rgb(100%,0%,0%);fill-opacity:1;stroke-width:1;stroke-linecap:butt;stroke-linejoin:round;stroke:rgb(0%,0%,0%);stroke-opacity:1;stroke-miterlimit:10;" d="M 199.996094 370.722656 C 199.996094 387.292969 186.5625 400.722656 169.996094 400.722656 C 153.425781 400.722656 139.996094 387.292969 139.996094 370.722656 C 139.996094 354.152344 153.425781 340.722656 169.996094 340.722656 C 186.5625 340.722656 199.996094 354.152344 199.996094 370.722656 "/>
<path style="fill-rule:nonzero;fill:rgb(100%,0%,0%);fill-opacity:1;stroke-width:1;stroke-linecap:butt;stroke-linejoin:round;stroke:rgb(0%,0%,0%);stroke-opacity:1;stroke-miterlimit:10;" d="M 248.636719 457.488281 C 248.636719 474.058594 235.203125 487.488281 218.636719 487.488281 C 202.066406 487.488281 188.636719 474.058594 188.636719 457.488281 C 188.636719 440.921875 202.066406 427.488281 218.636719 427.488281 C 235.203125 427.488281 248.636719 440.921875 248.636719 457.488281 "/>
<path style="fill-rule:nonzero;fill:rgb(67%,100%,18%);fill-opacity:1;stroke-width:1;stroke-linecap:butt;stroke-linejoin:round;stroke:rgb(0%,0%,0%);stroke-opacity:1;stroke-miterlimit:10;" d="M 463.777344 372.527344 C 463.777344 389.097656 450.34375 402.527344 433.777344 402.527344 C 417.207031 402.527344 403.777344 389.097656 403.777344 372.527344 C 403.777344 355.960938 417.207031 342.527344 433.777344 342.527344 C 450.34375 342.527344 463.777344 355.960938 463.777344 372.527344 "/>
</g>
</svg>
