<?xml version="1.0" encoding="UTF-8"?>
<svg xmlns="http://www.w3.org/2000/svg" xmlns:xlink="http://www.w3.org/1999/xlink" width="517pt" height="517pt" viewBox="0 0 517 517" version="1.1">
<g id="surface2071">
<rect x="0" y="0" width="517" height="517" style="fill:rgb(90%,90%,90%);fill-opacity:1;stroke:none;"/>
<path style="fill:none;stroke-width:5;stroke-linecap:butt;stroke-linejoin:round;stroke:rgb(100%,0%,0%);stroke-opacity:1;stroke-miterlimit:10;" d="M 261 5 L 517 5 L 517 261 L 261 261 Z M 261 5 "/>
<path style="fill-rule:nonzero;fill:rgb(35%,70%,90%);fill-opacity:1;stroke-width:1;stroke-linecap:butt;stroke-linejoin:round;stroke:rgb(0%,0%,0%);stroke-opacity:1;stroke-miterlimit:10;" d="M 431.625 43.59375 L 411.625 43.59375 L 411.625 53.59375 L 431.625 53.59375 L 431.625 73.59375 L 441.625 73.59375 L 441.625 53.59375 L 461.625 53.59375 L 461.625 43.59375 L 441.625 43.59375 L 441.625 23.59375 L 431.625 23.59375 L 431.625 43.59375 "/>
<path style="fill-rule:nonzero;fill:rgb(35%,70%,90%);fill-opacity:1;stroke-width:1;stroke-linecap:butt;stroke-linejoin:round;stroke:rgb(0%,0%,0%);stroke-opacity:1;stroke-miterlimit:10;" d="M 407.632812 464.625 L 387.632812 464.625 L 387.632812 474.625 L 407.632812 474.625 L 407.632812 494.625 L 417.632812 494.625 L 417.632812 474.625 L 437.632812 474.625 L 437.632812 464.625 L 417.632812 464.625 L 417.632812 444.625 L 407.632812 444.625 L 407.632812 464.625 "/>
<path style="fill-rule:nonzero;fill:rgb(100%,7%,57%);fill-opacity:1;stroke-width:1;stroke-linecap:butt;stroke-linejoin:round;stroke:rgb(0%,0%,0%);stroke-opacity:1;stroke-miterlimit:10;" d="M 456.085938 401.667969 L 436.085938 401.667969 L 436.085938 411.667969 L 456.085938 411.667969 L 456.085938 431.667969 L 466.085938 431.667969 L 466.085938 411.667969 L 486.085938 411.667969 L 486.085938 401.667969 L 466.085938 401.667969 L 466.085938 381.667969 L 456.085938 381.667969 L 456.085938 401.667969 "/>
<path style="fill-rule:nonzero;fill:rgb(100%,7%,57%);fill-opacity:1;stroke-width:1;stroke-linecap:butt;stroke-linejoin:round;stroke:rgb(0%,0%,0%);stroke-opacity:1;stroke-miterlimit:10;" d="M 126.597656 313.410156 L 106.597656 313.410156 L 106.597656 323.410156 L 126.597656 323.410156 L 126.597656 343.410156 L 136.597656 343.410156 L 136.597656 323.410156 L 156.597656 323.410156 L 156.597656 313.410156 L 136.597656 313.410156 L 136.597656 293.410156 L 126.597656 293.410156 L 126.597656 313.410156 "/>
<path style="fill-rule:nonzero;fill:rgb(100%,7%,57%);fill-opacity:1;stroke-width:1;stroke-linecap:butt;stroke-linejoin:round;stroke:rgb(0%,0%,0%);stroke-opacity:1;stroke-miterlimit:10;" d="M 184.066406 178.734375 L 164.066406 178.734375 L 164.066406 188.734375 L 184.066406 188.734375 L 184.066406 208.734375 L 194.066406 208.734375 L 194.066406 188.734375 L 214.066406 188.734375 L 214.066406 178.734375 L 194.066406 178.734375 L 194.066406 158.734375 L 184.066406 158.734375 L 184.066406 178.734375 "/>
</g>
</svg>
