<?xml version="1.0" encoding="UTF-8"?>
<svg xmlns="http://www.w3.org/2000/svg" xmlns:xlink="http://www.w3.org/1999/xlink" width="517pt" height="517pt" viewBox="0 0 517 517" version="1.1">
<g id="surface1851">
<rect x="0" y="0" width="517" height="517" style="fill:rgb(90%,90%,90%);fill-opacity:1;stroke:none;"/>
<path style="fill:none;stroke-width:5;stroke-linecap:butt;stroke-linejoin:round;stroke:rgb(100%,0%,0%);stroke-opacity:1;stroke-miterlimit:10;" d="M 5 5 L 261 5 L 261 261 L 5 261 Z M 5 5 "/>
<path style="fill-rule:nonzero;fill:rgb(100%,7%,57%);fill-opacity:1;stroke-width:1;stroke-linecap:butt;stroke-linejoin:round;stroke:rgb(0%,0%,0%);stroke-opacity:1;stroke-miterlimit:10;" d="M 158.703125 143.878906 C 158.703125 129.480469 134.703125 129.480469 134.703125 143.878906 C 134.703125 158.277344 158.703125 160.679688 158.703125 172.679688 C 158.703125 160.679688 182.703125 158.277344 182.703125 143.878906 C 182.703125 129.480469 158.703125 129.480469 158.703125 143.878906 "/>
<path style="fill-rule:nonzero;fill:rgb(67%,100%,18%);fill-opacity:1;stroke-width:1;stroke-linecap:butt;stroke-linejoin:round;stroke:rgb(0%,0%,0%);stroke-opacity:1;stroke-miterlimit:10;" d="M 324.261719 337.824219 C 324.261719 323.421875 300.261719 323.421875 300.261719 337.824219 C 300.261719 352.222656 324.261719 354.625 324.261719 366.625 C 324.261719 354.625 348.261719 352.222656 348.261719 337.824219 C 348.261719 323.421875 324.261719 323.421875 324.261719 337.824219 "/>
<path style="fill-rule:nonzero;fill:rgb(67%,100%,18%);fill-opacity:1;stroke-width:1;stroke-linecap:butt;stroke-linejoin:round;stroke:rgb(0%,0%,0%);stroke-opacity:1;stroke-miterlimit:10;" d="M 388.167969 397.132812 C 388.167969 382.730469 364.167969 382.730469 364.167969 397.132812 C 364.167969 411.53125 388.167969 413.929688 388.167969 425.929688 C 388.167969 413.929688 412.167969 411.53125 412.167969 397.132812 C 412.167969 382.730469 388.167969 382.730469 388.167969 397.132812 "/>
<path style="fill-rule:nonzero;fill:rgb(67%,100%,18%);fill-opacity:1;stroke-width:1;stroke-linecap:butt;stroke-linejoin:round;stroke:rgb(0%,0%,0%);stroke-opacity:1;stroke-miterlimit:10;" d="M 357.910156 116.90625 C 357.910156 102.507812 333.910156 102.507812 333.910156 116.90625 C 333.910156 131.308594 357.910156 133.707031 357.910156 145.707031 C 357.910156 133.707031 381.910156 131.308594 381.910156 116.90625 C 381.910156 102.507812 357.910156 102.507812 357.910156 116.90625 "/>
<path style="fill-rule:nonzero;fill:rgb(67%,100%,18%);fill-opacity:1;stroke-width:1;stroke-linecap:butt;stroke-linejoin:round;stroke:rgb(0%,0%,0%);stroke-opacity:1;stroke-miterlimit:10;" d="M 147.238281 327.515625 C 147.238281 313.113281 123.238281 313.113281 123.238281 327.515625 C 123.238281 341.914062 147.238281 344.316406 147.238281 356.316406 C 147.238281 344.316406 171.238281 341.914062 171.238281 327.515625 C 171.238281 313.113281 147.238281 313.113281 147.238281 327.515625 "/>
</g>
</svg>
