<?xml version="1.0" encoding="UTF-8"?>
<svg xmlns="http://www.w3.org/2000/svg" xmlns:xlink="http://www.w3.org/1999/xlink" width="517pt" height="517pt" viewBox="0 0 517 517" version="1.1">
<g id="surface2266">
<rect x="0" y="0" width="517" height="517" style="fill:rgb(90%,90%,90%);fill-opacity:1;stroke:none;"/>
<path style="fill:none;stroke-width:5;stroke-linecap:butt;stroke-linejoin:round;stroke:rgb(100%,0%,0%);stroke-opacity:1;stroke-miterlimit:10;" d="M 261 5 L 517 5 L 517 261 L 261 261 Z M 261 5 "/>
<path style="fill-rule:nonzero;fill:rgb(67%,100%,18%);fill-opacity:1;stroke-width:1;stroke-linecap:butt;stroke-linejoin:round;stroke:rgb(0%,0%,0%);stroke-opacity:1;stroke-miterlimit:10;" d="M 411.296875 138.980469 C 411.296875 155.546875 397.867188 168.980469 381.296875 168.980469 C 364.730469 168.980469 351.296875 155.546875 351.296875 138.980469 C 351.296875 122.410156 364.730469 108.980469 381.296875 108.980469 C 397.867188 108.980469 411.296875 122.410156 411.296875 138.980469 "/>
<path style="fill-rule:nonzero;fill:rgb(100%,0%,0%);fill-opacity:1;stroke-width:1;stroke-linecap:butt;stroke-linejoin:round;stroke:rgb(0%,0%,0%);stroke-opacity:1;stroke-miterlimit:10;" d="M 425.328125 370.578125 C 425.328125 387.144531 411.898438 400.578125 395.328125 400.578125 C 378.761719 400.578125 365.328125 387.144531 365.328125 370.578125 C 365.328125 354.007812 378.761719 340.578125 395.328125 340.578125 C 411.898438 340.578125 425.328125 354.007812 425.328125 370.578125 "/>
<path style="fill-rule:nonzero;fill:rgb(100%,0%,0%);fill-opacity:1;stroke-width:1;stroke-linecap:butt;stroke-linejoin:round;stroke:rgb(0%,0%,0%);stroke-opacity:1;stroke-miterlimit:10;" d="M 83.566406 426.773438 C 83.566406 443.339844 70.136719 456.773438 53.566406 456.773438 C 37 456.773438 23.566406 443.339844 23.566406 426.773438 C 23.566406 410.203125 37 396.773438 53.566406 396.773438 C 70.136719 396.773438 83.566406 410.203125 83.566406 426.773438 "/>
<path style="fill-rule:nonzero;fill:rgb(100%,0%,0%);fill-opacity:1;stroke-width:1;stroke-linecap:butt;stroke-linejoin:round;stroke:rgb(0%,0%,0%);stroke-opacity:1;stroke-miterlimit:10;" d="M 182.992188 397.660156 C 182.992188 414.226562 169.5625 427.660156 152.992188 427.660156 C 136.425781 427.660156 122.992188 414.226562 122.992188 397.660156 C 122.992188 381.089844 136.425781 367.660156 152.992188 367.660156 C 169.5625 367.660156 182.992188 381.089844 182.992188 397.660156 "/>
<path style="fill-rule:nonzero;fill:rgb(67%,100%,18%);fill-opacity:1;stroke-width:1;stroke-linecap:butt;stroke-linejoin:round;stroke:rgb(0%,0%,0%);stroke-opacity:1;stroke-miterlimit:10;" d="M 89.148438 70.875 C 89.148438 87.441406 75.714844 100.875 59.148438 100.875 C 42.578125 100.875 29.148438 87.441406 29.148438 70.875 C 29.148438 54.304688 42.578125 40.875 59.148438 40.875 C 75.714844 40.875 89.148438 54.304688 89.148438 70.875 "/>
</g>
</svg>
