<?xml version="1.0" encoding="UTF-8"?>
<svg xmlns="http://www.w3.org/2000/svg" xmlns:xlink="http://www.w3.org/1999/xlink" width="517pt" height="517pt" viewBox="0 0 517 517" version="1.1">
<g id="surface5276">
<rect x="0" y="0" width="517" height="517" style="fill:rgb(90%,90%,90%);fill-opacity:1;stroke:none;"/>
<path style="fill-rule:nonzero;fill:rgb(67%,100%,18%);fill-opacity:1;stroke-width:1;stroke-linecap:butt;stroke-linejoin:miter;stroke:rgb(0%,0%,0%);stroke-opacity:1;stroke-miterlimit:10;" d="M 219.03125 413.601562 C 219.03125 430.171875 205.601562 443.601562 189.03125 443.601562 C 172.464844 443.601562 159.03125 430.171875 159.03125 413.601562 C 159.03125 397.035156 172.464844 383.601562 189.03125 383.601562 C 205.601562 383.601562 219.03125 397.035156 219.03125 413.601562 "/>
<path style="fill-rule:nonzero;fill:rgb(67%,100%,18%);fill-opacity:1;stroke-width:1;stroke-linecap:butt;stroke-linejoin:miter;stroke:rgb(0%,0%,0%);stroke-opacity:1;stroke-miterlimit:10;" d="M 327.367188 474.058594 C 327.367188 490.628906 313.9375 504.058594 297.367188 504.058594 C 280.800781 504.058594 267.367188 490.628906 267.367188 474.058594 C 267.367188 457.492188 280.800781 444.058594 297.367188 444.058594 C 313.9375 444.058594 327.367188 457.492188 327.367188 474.058594 "/>
<path style="fill-rule:nonzero;fill:rgb(67%,100%,18%);fill-opacity:1;stroke-width:1;stroke-linecap:butt;stroke-linejoin:miter;stroke:rgb(0%,0%,0%);stroke-opacity:1;stroke-miterlimit:10;" d="M 386.101562 385.207031 C 386.101562 401.777344 372.671875 415.207031 356.101562 415.207031 C 339.535156 415.207031 326.101562 401.777344 326.101562 385.207031 C 326.101562 368.640625 339.535156 355.207031 356.101562 355.207031 C 372.671875 355.207031 386.101562 368.640625 386.101562 385.207031 "/>
<path style="fill-rule:nonzero;fill:rgb(100%,0%,0%);fill-opacity:1;stroke-width:1;stroke-linecap:butt;stroke-linejoin:miter;stroke:rgb(0%,0%,0%);stroke-opacity:1;stroke-miterlimit:10;" d="M 451.074219 298.042969 C 451.074219 314.613281 437.644531 328.042969 421.074219 328.042969 C 404.507812 328.042969 391.074219 314.613281 391.074219 298.042969 C 391.074219 281.472656 404.507812 268.042969 421.074219 268.042969 C 437.644531 268.042969 451.074219 281.472656 451.074219 298.042969 "/>
<path style="fill-rule:nonzero;fill:rgb(100%,0%,0%);fill-opacity:1;stroke-width:1;stroke-linecap:butt;stroke-linejoin:miter;stroke:rgb(0%,0%,0%);stroke-opacity:1;stroke-miterlimit:10;" d="M 155.042969 196.792969 C 155.042969 213.359375 141.609375 226.792969 125.042969 226.792969 C 108.472656 226.792969 95.042969 213.359375 95.042969 196.792969 C 95.042969 180.222656 108.472656 166.792969 125.042969 166.792969 C 141.609375 166.792969 155.042969 180.222656 155.042969 196.792969 "/>
<path style="fill-rule:nonzero;fill:rgb(100%,0%,0%);fill-opacity:1;stroke-width:1;stroke-linecap:butt;stroke-linejoin:miter;stroke:rgb(0%,0%,0%);stroke-opacity:1;stroke-miterlimit:10;" d="M 77.84375 144.902344 C 77.84375 161.46875 64.410156 174.902344 47.84375 174.902344 C 31.273438 174.902344 17.84375 161.46875 17.84375 144.902344 C 17.84375 128.332031 31.273438 114.902344 47.84375 114.902344 C 64.410156 114.902344 77.84375 128.332031 77.84375 144.902344 "/>
<path style="fill-rule:nonzero;fill:rgb(100%,0%,0%);fill-opacity:1;stroke-width:1;stroke-linecap:butt;stroke-linejoin:miter;stroke:rgb(0%,0%,0%);stroke-opacity:1;stroke-miterlimit:10;" d="M 204.054688 131.515625 C 204.054688 148.082031 190.625 161.515625 174.054688 161.515625 C 157.488281 161.515625 144.054688 148.082031 144.054688 131.515625 C 144.054688 114.945312 157.488281 101.515625 174.054688 101.515625 C 190.625 101.515625 204.054688 114.945312 204.054688 131.515625 "/>
<path style="fill-rule:nonzero;fill:rgb(100%,0%,0%);fill-opacity:1;stroke-width:1;stroke-linecap:butt;stroke-linejoin:miter;stroke:rgb(0%,0%,0%);stroke-opacity:1;stroke-miterlimit:10;" d="M 102.453125 57.226562 C 102.453125 73.796875 89.019531 87.226562 72.453125 87.226562 C 55.882812 87.226562 42.453125 73.796875 42.453125 57.226562 C 42.453125 40.660156 55.882812 27.226562 72.453125 27.226562 C 89.019531 27.226562 102.453125 40.660156 102.453125 57.226562 "/>
</g>
</svg>
