<?xml version="1.0" encoding="UTF-8"?>
<svg xmlns="http://www.w3.org/2000/svg" xmlns:xlink="http://www.w3.org/1999/xlink" width="517pt" height="517pt" viewBox="0 0 517 517" version="1.1">
<g id="surface1871">
<rect x="0" y="0" width="517" height="517" style="fill:rgb(90%,90%,90%);fill-opacity:1;stroke:none;"/>
<path style="fill:none;stroke-width:5;stroke-linecap:butt;stroke-linejoin:round;stroke:rgb(100%,0%,0%);stroke-opacity:1;stroke-miterlimit:10;" d="M 5 5 L 261 5 L 261 261 L 5 261 Z M 5 5 "/>
<path style="fill-rule:nonzero;fill:rgb(100%,7%,57%);fill-opacity:1;stroke-width:1;stroke-linecap:butt;stroke-linejoin:round;stroke:rgb(0%,0%,0%);stroke-opacity:1;stroke-miterlimit:10;" d="M 190.453125 191.058594 C 190.453125 176.65625 166.453125 176.65625 166.453125 191.058594 C 166.453125 205.457031 190.453125 207.855469 190.453125 219.855469 C 190.453125 207.855469 214.453125 205.457031 214.453125 191.058594 C 214.453125 176.65625 190.453125 176.65625 190.453125 191.058594 "/>
<path style="fill-rule:nonzero;fill:rgb(67%,100%,18%);fill-opacity:1;stroke-width:1;stroke-linecap:butt;stroke-linejoin:round;stroke:rgb(0%,0%,0%);stroke-opacity:1;stroke-miterlimit:10;" d="M 305.285156 442.6875 C 305.285156 428.285156 281.285156 428.285156 281.285156 442.6875 C 281.285156 457.085938 305.285156 459.484375 305.285156 471.484375 C 305.285156 459.484375 329.285156 457.085938 329.285156 442.6875 C 329.285156 428.285156 305.285156 428.285156 305.285156 442.6875 "/>
<path style="fill-rule:nonzero;fill:rgb(67%,100%,18%);fill-opacity:1;stroke-width:1;stroke-linecap:butt;stroke-linejoin:round;stroke:rgb(0%,0%,0%);stroke-opacity:1;stroke-miterlimit:10;" d="M 317.800781 361.140625 C 317.800781 346.742188 293.800781 346.742188 293.800781 361.140625 C 293.800781 375.542969 317.800781 377.941406 317.800781 389.941406 C 317.800781 377.941406 341.800781 375.542969 341.800781 361.140625 C 341.800781 346.742188 317.800781 346.742188 317.800781 361.140625 "/>
<path style="fill-rule:nonzero;fill:rgb(67%,100%,18%);fill-opacity:1;stroke-width:1;stroke-linecap:butt;stroke-linejoin:round;stroke:rgb(0%,0%,0%);stroke-opacity:1;stroke-miterlimit:10;" d="M 344.117188 187.910156 C 344.117188 173.511719 320.117188 173.511719 320.117188 187.910156 C 320.117188 202.308594 344.117188 204.710938 344.117188 216.710938 C 344.117188 204.710938 368.117188 202.308594 368.117188 187.910156 C 368.117188 173.511719 344.117188 173.511719 344.117188 187.910156 "/>
<path style="fill-rule:nonzero;fill:rgb(100%,7%,57%);fill-opacity:1;stroke-width:1;stroke-linecap:butt;stroke-linejoin:round;stroke:rgb(0%,0%,0%);stroke-opacity:1;stroke-miterlimit:10;" d="M 194.078125 277.914062 C 194.078125 263.515625 170.078125 263.515625 170.078125 277.914062 C 170.078125 292.316406 194.078125 294.714844 194.078125 306.714844 C 194.078125 294.714844 218.078125 292.316406 218.078125 277.914062 C 218.078125 263.515625 194.078125 263.515625 194.078125 277.914062 "/>
</g>
</svg>
