<?xml version="1.0" encoding="UTF-8"?>
<svg xmlns="http://www.w3.org/2000/svg" xmlns:xlink="http://www.w3.org/1999/xlink" width="517pt" height="517pt" viewBox="0 0 517 517" version="1.1">
<g id="surface5236">
<rect x="0" y="0" width="517" height="517" style="fill:rgb(90%,90%,90%);fill-opacity:1;stroke:none;"/>
<path style="fill-rule:nonzero;fill:rgb(67%,100%,18%);fill-opacity:1;stroke-width:1;stroke-linecap:butt;stroke-linejoin:miter;stroke:rgb(0%,0%,0%);stroke-opacity:1;stroke-miterlimit:10;" d="M 419.84375 132.550781 C 419.84375 149.117188 406.410156 162.550781 389.84375 162.550781 C 373.273438 162.550781 359.84375 149.117188 359.84375 132.550781 C 359.84375 115.980469 373.273438 102.550781 389.84375 102.550781 C 406.410156 102.550781 419.84375 115.980469 419.84375 132.550781 "/>
<path style="fill-rule:nonzero;fill:rgb(67%,100%,18%);fill-opacity:1;stroke-width:1;stroke-linecap:butt;stroke-linejoin:miter;stroke:rgb(0%,0%,0%);stroke-opacity:1;stroke-miterlimit:10;" d="M 453.058594 295.824219 C 453.058594 312.394531 439.625 325.824219 423.058594 325.824219 C 406.488281 325.824219 393.058594 312.394531 393.058594 295.824219 C 393.058594 279.257812 406.488281 265.824219 423.058594 265.824219 C 439.625 265.824219 453.058594 279.257812 453.058594 295.824219 "/>
<path style="fill-rule:nonzero;fill:rgb(67%,100%,18%);fill-opacity:1;stroke-width:1;stroke-linecap:butt;stroke-linejoin:miter;stroke:rgb(0%,0%,0%);stroke-opacity:1;stroke-miterlimit:10;" d="M 431.765625 442.914062 C 431.765625 459.484375 418.335938 472.914062 401.765625 472.914062 C 385.195312 472.914062 371.765625 459.484375 371.765625 442.914062 C 371.765625 426.347656 385.195312 412.914062 401.765625 412.914062 C 418.335938 412.914062 431.765625 426.347656 431.765625 442.914062 "/>
<path style="fill-rule:nonzero;fill:rgb(100%,0%,0%);fill-opacity:1;stroke-width:1;stroke-linecap:butt;stroke-linejoin:miter;stroke:rgb(0%,0%,0%);stroke-opacity:1;stroke-miterlimit:10;" d="M 378.027344 297.25 C 378.027344 313.816406 364.597656 327.25 348.027344 327.25 C 331.460938 327.25 318.027344 313.816406 318.027344 297.25 C 318.027344 280.679688 331.460938 267.25 348.027344 267.25 C 364.597656 267.25 378.027344 280.679688 378.027344 297.25 "/>
<path style="fill-rule:nonzero;fill:rgb(100%,0%,0%);fill-opacity:1;stroke-width:1;stroke-linecap:butt;stroke-linejoin:miter;stroke:rgb(0%,0%,0%);stroke-opacity:1;stroke-miterlimit:10;" d="M 149.339844 63.585938 C 149.339844 80.152344 135.90625 93.585938 119.339844 93.585938 C 102.769531 93.585938 89.339844 80.152344 89.339844 63.585938 C 89.339844 47.015625 102.769531 33.585938 119.339844 33.585938 C 135.90625 33.585938 149.339844 47.015625 149.339844 63.585938 "/>
<path style="fill-rule:nonzero;fill:rgb(100%,0%,0%);fill-opacity:1;stroke-width:1;stroke-linecap:butt;stroke-linejoin:miter;stroke:rgb(0%,0%,0%);stroke-opacity:1;stroke-miterlimit:10;" d="M 219.207031 149.402344 C 219.207031 165.96875 205.773438 179.402344 189.207031 179.402344 C 172.636719 179.402344 159.207031 165.96875 159.207031 149.402344 C 159.207031 132.832031 172.636719 119.402344 189.207031 119.402344 C 205.773438 119.402344 219.207031 132.832031 219.207031 149.402344 "/>
<path style="fill-rule:nonzero;fill:rgb(100%,0%,0%);fill-opacity:1;stroke-width:1;stroke-linecap:butt;stroke-linejoin:miter;stroke:rgb(0%,0%,0%);stroke-opacity:1;stroke-miterlimit:10;" d="M 89.335938 88.574219 C 89.335938 105.140625 75.90625 118.574219 59.335938 118.574219 C 42.769531 118.574219 29.335938 105.140625 29.335938 88.574219 C 29.335938 72.003906 42.769531 58.574219 59.335938 58.574219 C 75.90625 58.574219 89.335938 72.003906 89.335938 88.574219 "/>
<path style="fill-rule:nonzero;fill:rgb(100%,0%,0%);fill-opacity:1;stroke-width:1;stroke-linecap:butt;stroke-linejoin:miter;stroke:rgb(0%,0%,0%);stroke-opacity:1;stroke-miterlimit:10;" d="M 168.257812 201.972656 C 168.257812 218.542969 154.824219 231.972656 138.257812 231.972656 C 121.6875 231.972656 108.257812 218.542969 108.257812 201.972656 C 108.257812 185.40625 121.6875 171.972656 138.257812 171.972656 C 154.824219 171.972656 168.257812 185.40625 168.257812 201.972656 "/>
</g>
</svg>
