<?xml version="1.0" encoding="UTF-8"?>
<svg xmlns="http://www.w3.org/2000/svg" xmlns:xlink="http://www.w3.org/1999/xlink" width="517pt" height="517pt" viewBox="0 0 517 517" version="1.1">
<g id="surface2066">
<rect x="0" y="0" width="517" height="517" style="fill:rgb(90%,90%,90%);fill-opacity:1;stroke:none;"/>
<path style="fill:none;stroke-width:5;stroke-linecap:butt;stroke-linejoin:round;stroke:rgb(100%,0%,0%);stroke-opacity:1;stroke-miterlimit:10;" d="M 261 5 L 517 5 L 517 261 L 261 261 Z M 261 5 "/>
<path style="fill-rule:nonzero;fill:rgb(35%,70%,90%);fill-opacity:1;stroke-width:1;stroke-linecap:butt;stroke-linejoin:round;stroke:rgb(0%,0%,0%);stroke-opacity:1;stroke-miterlimit:10;" d="M 308.105469 173.042969 L 288.105469 173.042969 L 288.105469 183.042969 L 308.105469 183.042969 L 308.105469 203.042969 L 318.105469 203.042969 L 318.105469 183.042969 L 338.105469 183.042969 L 338.105469 173.042969 L 318.105469 173.042969 L 318.105469 153.042969 L 308.105469 153.042969 L 308.105469 173.042969 "/>
<path style="fill-rule:nonzero;fill:rgb(35%,70%,90%);fill-opacity:1;stroke-width:1;stroke-linecap:butt;stroke-linejoin:round;stroke:rgb(0%,0%,0%);stroke-opacity:1;stroke-miterlimit:10;" d="M 165.910156 181.585938 L 145.910156 181.585938 L 145.910156 191.585938 L 165.910156 191.585938 L 165.910156 211.585938 L 175.910156 211.585938 L 175.910156 191.585938 L 195.910156 191.585938 L 195.910156 181.585938 L 175.910156 181.585938 L 175.910156 161.585938 L 165.910156 161.585938 L 165.910156 181.585938 "/>
<path style="fill-rule:nonzero;fill:rgb(35%,70%,90%);fill-opacity:1;stroke-width:1;stroke-linecap:butt;stroke-linejoin:round;stroke:rgb(0%,0%,0%);stroke-opacity:1;stroke-miterlimit:10;" d="M 46.527344 335.378906 L 26.527344 335.378906 L 26.527344 345.378906 L 46.527344 345.378906 L 46.527344 365.378906 L 56.527344 365.378906 L 56.527344 345.378906 L 76.527344 345.378906 L 76.527344 335.378906 L 56.527344 335.378906 L 56.527344 315.378906 L 46.527344 315.378906 L 46.527344 335.378906 "/>
<path style="fill-rule:nonzero;fill:rgb(35%,70%,90%);fill-opacity:1;stroke-width:1;stroke-linecap:butt;stroke-linejoin:round;stroke:rgb(0%,0%,0%);stroke-opacity:1;stroke-miterlimit:10;" d="M 204.542969 306.769531 L 184.542969 306.769531 L 184.542969 316.769531 L 204.542969 316.769531 L 204.542969 336.769531 L 214.542969 336.769531 L 214.542969 316.769531 L 234.542969 316.769531 L 234.542969 306.769531 L 214.542969 306.769531 L 214.542969 286.769531 L 204.542969 286.769531 L 204.542969 306.769531 "/>
<path style="fill-rule:nonzero;fill:rgb(35%,70%,90%);fill-opacity:1;stroke-width:1;stroke-linecap:butt;stroke-linejoin:round;stroke:rgb(0%,0%,0%);stroke-opacity:1;stroke-miterlimit:10;" d="M 112.097656 451.699219 L 92.097656 451.699219 L 92.097656 461.699219 L 112.097656 461.699219 L 112.097656 481.699219 L 122.097656 481.699219 L 122.097656 461.699219 L 142.097656 461.699219 L 142.097656 451.699219 L 122.097656 451.699219 L 122.097656 431.699219 L 112.097656 431.699219 L 112.097656 451.699219 "/>
</g>
</svg>
