<?xml version="1.0" encoding="UTF-8"?>
<svg xmlns="http://www.w3.org/2000/svg" xmlns:xlink="http://www.w3.org/1999/xlink" width="517pt" height="517pt" viewBox="0 0 517 517" version="1.1">
<g id="surface1841">
<rect x="0" y="0" width="517" height="517" style="fill:rgb(90%,90%,90%);fill-opacity:1;stroke:none;"/>
<path style="fill:none;stroke-width:5;stroke-linecap:butt;stroke-linejoin:round;stroke:rgb(100%,0%,0%);stroke-opacity:1;stroke-miterlimit:10;" d="M 5 5 L 261 5 L 261 261 L 5 261 Z M 5 5 "/>
<path style="fill-rule:nonzero;fill:rgb(100%,7%,57%);fill-opacity:1;stroke-width:1;stroke-linecap:butt;stroke-linejoin:round;stroke:rgb(0%,0%,0%);stroke-opacity:1;stroke-miterlimit:10;" d="M 69.960938 30.539062 C 69.960938 16.140625 45.960938 16.140625 45.960938 30.539062 C 45.960938 44.9375 69.960938 47.339844 69.960938 59.339844 C 69.960938 47.339844 93.960938 44.9375 93.960938 30.539062 C 93.960938 16.140625 69.960938 16.140625 69.960938 30.539062 "/>
<path style="fill-rule:nonzero;fill:rgb(67%,100%,18%);fill-opacity:1;stroke-width:1;stroke-linecap:butt;stroke-linejoin:round;stroke:rgb(0%,0%,0%);stroke-opacity:1;stroke-miterlimit:10;" d="M 309.078125 120.023438 C 309.078125 105.625 285.078125 105.625 285.078125 120.023438 C 285.078125 134.425781 309.078125 136.824219 309.078125 148.824219 C 309.078125 136.824219 333.078125 134.425781 333.078125 120.023438 C 333.078125 105.625 309.078125 105.625 309.078125 120.023438 "/>
<path style="fill-rule:nonzero;fill:rgb(67%,100%,18%);fill-opacity:1;stroke-width:1;stroke-linecap:butt;stroke-linejoin:round;stroke:rgb(0%,0%,0%);stroke-opacity:1;stroke-miterlimit:10;" d="M 425.46875 51.523438 C 425.46875 37.125 401.46875 37.125 401.46875 51.523438 C 401.46875 65.925781 425.46875 68.324219 425.46875 80.324219 C 425.46875 68.324219 449.46875 65.925781 449.46875 51.523438 C 449.46875 37.125 425.46875 37.125 425.46875 51.523438 "/>
<path style="fill-rule:nonzero;fill:rgb(67%,100%,18%);fill-opacity:1;stroke-width:1;stroke-linecap:butt;stroke-linejoin:round;stroke:rgb(0%,0%,0%);stroke-opacity:1;stroke-miterlimit:10;" d="M 40.902344 383.707031 C 40.902344 369.304688 16.902344 369.304688 16.902344 383.707031 C 16.902344 398.105469 40.902344 400.507812 40.902344 412.507812 C 40.902344 400.507812 64.902344 398.105469 64.902344 383.707031 C 64.902344 369.304688 40.902344 369.304688 40.902344 383.707031 "/>
<path style="fill-rule:nonzero;fill:rgb(67%,100%,18%);fill-opacity:1;stroke-width:1;stroke-linecap:butt;stroke-linejoin:round;stroke:rgb(0%,0%,0%);stroke-opacity:1;stroke-miterlimit:10;" d="M 396.222656 280.695312 C 396.222656 266.292969 372.222656 266.292969 372.222656 280.695312 C 372.222656 295.09375 396.222656 297.496094 396.222656 309.496094 C 396.222656 297.496094 420.222656 295.09375 420.222656 280.695312 C 420.222656 266.292969 396.222656 266.292969 396.222656 280.695312 "/>
</g>
</svg>
