<?xml version="1.0" encoding="UTF-8"?>
<svg xmlns="http://www.w3.org/2000/svg" xmlns:xlink="http://www.w3.org/1999/xlink" width="517pt" height="517pt" viewBox="0 0 517 517" version="1.1">
<g id="surface2276">
<rect x="0" y="0" width="517" height="517" style="fill:rgb(90%,90%,90%);fill-opacity:1;stroke:none;"/>
<path style="fill:none;stroke-width:5;stroke-linecap:butt;stroke-linejoin:round;stroke:rgb(100%,0%,0%);stroke-opacity:1;stroke-miterlimit:10;" d="M 261 5 L 517 5 L 517 261 L 261 261 Z M 261 5 "/>
<path style="fill-rule:nonzero;fill:rgb(67%,100%,18%);fill-opacity:1;stroke-width:1;stroke-linecap:butt;stroke-linejoin:round;stroke:rgb(0%,0%,0%);stroke-opacity:1;stroke-miterlimit:10;" d="M 390.984375 92.898438 C 390.984375 109.46875 377.554688 122.898438 360.984375 122.898438 C 344.417969 122.898438 330.984375 109.46875 330.984375 92.898438 C 330.984375 76.328125 344.417969 62.898438 360.984375 62.898438 C 377.554688 62.898438 390.984375 76.328125 390.984375 92.898438 "/>
<path style="fill-rule:nonzero;fill:rgb(100%,0%,0%);fill-opacity:1;stroke-width:1;stroke-linecap:butt;stroke-linejoin:round;stroke:rgb(0%,0%,0%);stroke-opacity:1;stroke-miterlimit:10;" d="M 105.132812 448.109375 C 105.132812 464.679688 91.699219 478.109375 75.132812 478.109375 C 58.5625 478.109375 45.132812 464.679688 45.132812 448.109375 C 45.132812 431.539062 58.5625 418.109375 75.132812 418.109375 C 91.699219 418.109375 105.132812 431.539062 105.132812 448.109375 "/>
<path style="fill-rule:nonzero;fill:rgb(100%,0%,0%);fill-opacity:1;stroke-width:1;stroke-linecap:butt;stroke-linejoin:round;stroke:rgb(0%,0%,0%);stroke-opacity:1;stroke-miterlimit:10;" d="M 99.585938 142.550781 C 99.585938 159.117188 86.15625 172.550781 69.585938 172.550781 C 53.015625 172.550781 39.585938 159.117188 39.585938 142.550781 C 39.585938 125.980469 53.015625 112.550781 69.585938 112.550781 C 86.15625 112.550781 99.585938 125.980469 99.585938 142.550781 "/>
<path style="fill-rule:nonzero;fill:rgb(100%,0%,0%);fill-opacity:1;stroke-width:1;stroke-linecap:butt;stroke-linejoin:round;stroke:rgb(0%,0%,0%);stroke-opacity:1;stroke-miterlimit:10;" d="M 370.945312 353.285156 C 370.945312 369.851562 357.511719 383.285156 340.945312 383.285156 C 324.375 383.285156 310.945312 369.851562 310.945312 353.285156 C 310.945312 336.714844 324.375 323.285156 340.945312 323.285156 C 357.511719 323.285156 370.945312 336.714844 370.945312 353.285156 "/>
<path style="fill-rule:nonzero;fill:rgb(67%,100%,18%);fill-opacity:1;stroke-width:1;stroke-linecap:butt;stroke-linejoin:round;stroke:rgb(0%,0%,0%);stroke-opacity:1;stroke-miterlimit:10;" d="M 489.976562 411.707031 C 489.976562 428.273438 476.546875 441.707031 459.976562 441.707031 C 443.410156 441.707031 429.976562 428.273438 429.976562 411.707031 C 429.976562 395.136719 443.410156 381.707031 459.976562 381.707031 C 476.546875 381.707031 489.976562 395.136719 489.976562 411.707031 "/>
</g>
</svg>
