<?xml version="1.0" encoding="UTF-8"?>
<svg xmlns="http://www.w3.org/2000/svg" xmlns:xlink="http://www.w3.org/1999/xlink" width="517pt" height="517pt" viewBox="0 0 517 517" version="1.1">
<g id="surface2016">
<rect x="0" y="0" width="517" height="517" style="fill:rgb(90%,90%,90%);fill-opacity:1;stroke:none;"/>
<path style="fill:none;stroke-width:5;stroke-linecap:butt;stroke-linejoin:round;stroke:rgb(100%,0%,0%);stroke-opacity:1;stroke-miterlimit:10;" d="M 261 5 L 517 5 L 517 261 L 261 261 Z M 261 5 "/>
<path style="fill-rule:nonzero;fill:rgb(100%,7%,57%);fill-opacity:1;stroke-width:1;stroke-linecap:butt;stroke-linejoin:round;stroke:rgb(0%,0%,0%);stroke-opacity:1;stroke-miterlimit:10;" d="M 302.011719 91.175781 L 282.011719 91.175781 L 282.011719 101.175781 L 302.011719 101.175781 L 302.011719 121.175781 L 312.011719 121.175781 L 312.011719 101.175781 L 332.011719 101.175781 L 332.011719 91.175781 L 312.011719 91.175781 L 312.011719 71.175781 L 302.011719 71.175781 L 302.011719 91.175781 "/>
<path style="fill-rule:nonzero;fill:rgb(35%,70%,90%);fill-opacity:1;stroke-width:1;stroke-linecap:butt;stroke-linejoin:round;stroke:rgb(0%,0%,0%);stroke-opacity:1;stroke-miterlimit:10;" d="M 175.667969 111.207031 L 155.667969 111.207031 L 155.667969 121.207031 L 175.667969 121.207031 L 175.667969 141.207031 L 185.667969 141.207031 L 185.667969 121.207031 L 205.667969 121.207031 L 205.667969 111.207031 L 185.667969 111.207031 L 185.667969 91.207031 L 175.667969 91.207031 L 175.667969 111.207031 "/>
<path style="fill-rule:nonzero;fill:rgb(35%,70%,90%);fill-opacity:1;stroke-width:1;stroke-linecap:butt;stroke-linejoin:round;stroke:rgb(0%,0%,0%);stroke-opacity:1;stroke-miterlimit:10;" d="M 289.523438 424.453125 L 269.523438 424.453125 L 269.523438 434.453125 L 289.523438 434.453125 L 289.523438 454.453125 L 299.523438 454.453125 L 299.523438 434.453125 L 319.523438 434.453125 L 319.523438 424.453125 L 299.523438 424.453125 L 299.523438 404.453125 L 289.523438 404.453125 L 289.523438 424.453125 "/>
<path style="fill-rule:nonzero;fill:rgb(35%,70%,90%);fill-opacity:1;stroke-width:1;stroke-linecap:butt;stroke-linejoin:round;stroke:rgb(0%,0%,0%);stroke-opacity:1;stroke-miterlimit:10;" d="M 461.199219 349.761719 L 441.199219 349.761719 L 441.199219 359.761719 L 461.199219 359.761719 L 461.199219 379.761719 L 471.199219 379.761719 L 471.199219 359.761719 L 491.199219 359.761719 L 491.199219 349.761719 L 471.199219 349.761719 L 471.199219 329.761719 L 461.199219 329.761719 L 461.199219 349.761719 "/>
<path style="fill-rule:nonzero;fill:rgb(35%,70%,90%);fill-opacity:1;stroke-width:1;stroke-linecap:butt;stroke-linejoin:round;stroke:rgb(0%,0%,0%);stroke-opacity:1;stroke-miterlimit:10;" d="M 438.625 455.695312 L 418.625 455.695312 L 418.625 465.695312 L 438.625 465.695312 L 438.625 485.695312 L 448.625 485.695312 L 448.625 465.695312 L 468.625 465.695312 L 468.625 455.695312 L 448.625 455.695312 L 448.625 435.695312 L 438.625 435.695312 L 438.625 455.695312 "/>
</g>
</svg>
