<?xml version="1.0" encoding="UTF-8"?>
<svg xmlns="http://www.w3.org/2000/svg" xmlns:xlink="http://www.w3.org/1999/xlink" width="517pt" height="517pt" viewBox="0 0 517 517" version="1.1">
<g id="surface1876">
<rect x="0" y="0" width="517" height="517" style="fill:rgb(90%,90%,90%);fill-opacity:1;stroke:none;"/>
<path style="fill:none;stroke-width:5;stroke-linecap:butt;stroke-linejoin:round;stroke:rgb(100%,0%,0%);stroke-opacity:1;stroke-miterlimit:10;" d="M 5 5 L 261 5 L 261 261 L 5 261 Z M 5 5 "/>
<path style="fill-rule:nonzero;fill:rgb(100%,7%,57%);fill-opacity:1;stroke-width:1;stroke-linecap:butt;stroke-linejoin:round;stroke:rgb(0%,0%,0%);stroke-opacity:1;stroke-miterlimit:10;" d="M 183.660156 27.054688 C 183.660156 12.65625 159.660156 12.65625 159.660156 27.054688 C 159.660156 41.453125 183.660156 43.855469 183.660156 55.855469 C 183.660156 43.855469 207.660156 41.453125 207.660156 27.054688 C 207.660156 12.65625 183.660156 12.65625 183.660156 27.054688 "/>
<path style="fill-rule:nonzero;fill:rgb(67%,100%,18%);fill-opacity:1;stroke-width:1;stroke-linecap:butt;stroke-linejoin:round;stroke:rgb(0%,0%,0%);stroke-opacity:1;stroke-miterlimit:10;" d="M 475.589844 456.425781 C 475.589844 442.023438 451.589844 442.023438 451.589844 456.425781 C 451.589844 470.824219 475.589844 473.226562 475.589844 485.226562 C 475.589844 473.226562 499.589844 470.824219 499.589844 456.425781 C 499.589844 442.023438 475.589844 442.023438 475.589844 456.425781 "/>
<path style="fill-rule:nonzero;fill:rgb(67%,100%,18%);fill-opacity:1;stroke-width:1;stroke-linecap:butt;stroke-linejoin:round;stroke:rgb(0%,0%,0%);stroke-opacity:1;stroke-miterlimit:10;" d="M 304.050781 401.980469 C 304.050781 387.578125 280.050781 387.578125 280.050781 401.980469 C 280.050781 416.378906 304.050781 418.78125 304.050781 430.78125 C 304.050781 418.78125 328.050781 416.378906 328.050781 401.980469 C 328.050781 387.578125 304.050781 387.578125 304.050781 401.980469 "/>
<path style="fill-rule:nonzero;fill:rgb(67%,100%,18%);fill-opacity:1;stroke-width:1;stroke-linecap:butt;stroke-linejoin:round;stroke:rgb(0%,0%,0%);stroke-opacity:1;stroke-miterlimit:10;" d="M 473.71875 69.96875 C 473.71875 55.570312 449.71875 55.570312 449.71875 69.96875 C 449.71875 84.371094 473.71875 86.769531 473.71875 98.769531 C 473.71875 86.769531 497.71875 84.371094 497.71875 69.96875 C 497.71875 55.570312 473.71875 55.570312 473.71875 69.96875 "/>
<path style="fill-rule:nonzero;fill:rgb(100%,7%,57%);fill-opacity:1;stroke-width:1;stroke-linecap:butt;stroke-linejoin:round;stroke:rgb(0%,0%,0%);stroke-opacity:1;stroke-miterlimit:10;" d="M 150.800781 368.441406 C 150.800781 354.042969 126.800781 354.042969 126.800781 368.441406 C 126.800781 382.839844 150.800781 385.242188 150.800781 397.242188 C 150.800781 385.242188 174.800781 382.839844 174.800781 368.441406 C 174.800781 354.042969 150.800781 354.042969 150.800781 368.441406 "/>
</g>
</svg>
