<?xml version="1.0" encoding="UTF-8"?>
<svg xmlns="http://www.w3.org/2000/svg" xmlns:xlink="http://www.w3.org/1999/xlink" width="517pt" height="517pt" viewBox="0 0 517 517" version="1.1">
<g id="surface1896">
<rect x="0" y="0" width="517" height="517" style="fill:rgb(90%,90%,90%);fill-opacity:1;stroke:none;"/>
<path style="fill:none;stroke-width:5;stroke-linecap:butt;stroke-linejoin:round;stroke:rgb(100%,0%,0%);stroke-opacity:1;stroke-miterlimit:10;" d="M 5 5 L 261 5 L 261 261 L 5 261 Z M 5 5 "/>
<path style="fill-rule:nonzero;fill:rgb(100%,7%,57%);fill-opacity:1;stroke-width:1;stroke-linecap:butt;stroke-linejoin:round;stroke:rgb(0%,0%,0%);stroke-opacity:1;stroke-miterlimit:10;" d="M 115.125 102.296875 C 115.125 87.898438 91.125 87.898438 91.125 102.296875 C 91.125 116.699219 115.125 119.097656 115.125 131.097656 C 115.125 119.097656 139.125 116.699219 139.125 102.296875 C 139.125 87.898438 115.125 87.898438 115.125 102.296875 "/>
<path style="fill-rule:nonzero;fill:rgb(67%,100%,18%);fill-opacity:1;stroke-width:1;stroke-linecap:butt;stroke-linejoin:round;stroke:rgb(0%,0%,0%);stroke-opacity:1;stroke-miterlimit:10;" d="M 463.757812 67.371094 C 463.757812 52.972656 439.757812 52.972656 439.757812 67.371094 C 439.757812 81.773438 463.757812 84.171875 463.757812 96.171875 C 463.757812 84.171875 487.757812 81.773438 487.757812 67.371094 C 487.757812 52.972656 463.757812 52.972656 463.757812 67.371094 "/>
<path style="fill-rule:nonzero;fill:rgb(100%,7%,57%);fill-opacity:1;stroke-width:1;stroke-linecap:butt;stroke-linejoin:round;stroke:rgb(0%,0%,0%);stroke-opacity:1;stroke-miterlimit:10;" d="M 449.996094 206.273438 C 449.996094 191.871094 425.996094 191.871094 425.996094 206.273438 C 425.996094 220.671875 449.996094 223.070312 449.996094 235.070312 C 449.996094 223.070312 473.996094 220.671875 473.996094 206.273438 C 473.996094 191.871094 449.996094 191.871094 449.996094 206.273438 "/>
<path style="fill-rule:nonzero;fill:rgb(100%,7%,57%);fill-opacity:1;stroke-width:1;stroke-linecap:butt;stroke-linejoin:round;stroke:rgb(0%,0%,0%);stroke-opacity:1;stroke-miterlimit:10;" d="M 372.328125 298.96875 C 372.328125 284.566406 348.328125 284.566406 348.328125 298.96875 C 348.328125 313.367188 372.328125 315.765625 372.328125 327.765625 C 372.328125 315.765625 396.328125 313.367188 396.328125 298.96875 C 396.328125 284.566406 372.328125 284.566406 372.328125 298.96875 "/>
<path style="fill-rule:nonzero;fill:rgb(100%,7%,57%);fill-opacity:1;stroke-width:1;stroke-linecap:butt;stroke-linejoin:round;stroke:rgb(0%,0%,0%);stroke-opacity:1;stroke-miterlimit:10;" d="M 387.894531 399.515625 C 387.894531 385.113281 363.894531 385.113281 363.894531 399.515625 C 363.894531 413.914062 387.894531 416.316406 387.894531 428.316406 C 387.894531 416.316406 411.894531 413.914062 411.894531 399.515625 C 411.894531 385.113281 387.894531 385.113281 387.894531 399.515625 "/>
</g>
</svg>
