<?xml version="1.0" encoding="UTF-8"?>
<svg xmlns="http://www.w3.org/2000/svg" xmlns:xlink="http://www.w3.org/1999/xlink" width="517pt" height="517pt" viewBox="0 0 517 517" version="1.1">
<g id="surface1561">
<rect x="0" y="0" width="517" height="517" style="fill:rgb(90%,90%,90%);fill-opacity:1;stroke:none;"/>
<path style="fill:none;stroke-width:5;stroke-linecap:butt;stroke-linejoin:round;stroke:rgb(100%,0%,0%);stroke-opacity:1;stroke-miterlimit:10;" d="M 261 261 L 517 261 L 517 517 L 261 517 Z M 261 261 "/>
<path style="fill-rule:nonzero;fill:rgb(53%,27%,7%);fill-opacity:1;stroke-width:1;stroke-linecap:butt;stroke-linejoin:round;stroke:rgb(0%,0%,0%);stroke-opacity:1;stroke-miterlimit:10;" d="M 365.117188 345.164062 L 345.117188 345.164062 L 345.117188 355.164062 L 365.117188 355.164062 L 365.117188 375.164062 L 375.117188 375.164062 L 375.117188 355.164062 L 395.117188 355.164062 L 395.117188 345.164062 L 375.117188 345.164062 L 375.117188 325.164062 L 365.117188 325.164062 L 365.117188 345.164062 "/>
<path style="fill-rule:nonzero;fill:rgb(35%,70%,90%);fill-opacity:1;stroke-width:1;stroke-linecap:butt;stroke-linejoin:round;stroke:rgb(0%,0%,0%);stroke-opacity:1;stroke-miterlimit:10;" d="M 90.820312 299.65625 L 70.820312 299.65625 L 70.820312 309.65625 L 90.820312 309.65625 L 90.820312 329.65625 L 100.820312 329.65625 L 100.820312 309.65625 L 120.820312 309.65625 L 120.820312 299.65625 L 100.820312 299.65625 L 100.820312 279.65625 L 90.820312 279.65625 L 90.820312 299.65625 "/>
<path style="fill-rule:nonzero;fill:rgb(53%,27%,7%);fill-opacity:1;stroke-width:1;stroke-linecap:butt;stroke-linejoin:round;stroke:rgb(0%,0%,0%);stroke-opacity:1;stroke-miterlimit:10;" d="M 56.703125 424.585938 L 36.703125 424.585938 L 36.703125 434.585938 L 56.703125 434.585938 L 56.703125 454.585938 L 66.703125 454.585938 L 66.703125 434.585938 L 86.703125 434.585938 L 86.703125 424.585938 L 66.703125 424.585938 L 66.703125 404.585938 L 56.703125 404.585938 L 56.703125 424.585938 "/>
<path style="fill-rule:nonzero;fill:rgb(53%,27%,7%);fill-opacity:1;stroke-width:1;stroke-linecap:butt;stroke-linejoin:round;stroke:rgb(0%,0%,0%);stroke-opacity:1;stroke-miterlimit:10;" d="M 301.46875 114.03125 L 281.46875 114.03125 L 281.46875 124.03125 L 301.46875 124.03125 L 301.46875 144.03125 L 311.46875 144.03125 L 311.46875 124.03125 L 331.46875 124.03125 L 331.46875 114.03125 L 311.46875 114.03125 L 311.46875 94.03125 L 301.46875 94.03125 L 301.46875 114.03125 "/>
</g>
</svg>
