<?xml version="1.0" encoding="UTF-8"?>
<svg xmlns="http://www.w3.org/2000/svg" xmlns:xlink="http://www.w3.org/1999/xlink" width="517pt" height="517pt" viewBox="0 0 517 517" version="1.1">
<g id="surface1801">
<rect x="0" y="0" width="517" height="517" style="fill:rgb(90%,90%,90%);fill-opacity:1;stroke:none;"/>
<path style="fill:none;stroke-width:5;stroke-linecap:butt;stroke-linejoin:round;stroke:rgb(100%,0%,0%);stroke-opacity:1;stroke-miterlimit:10;" d="M 5 5 L 261 5 L 261 261 L 5 261 Z M 5 5 "/>
<path style="fill-rule:nonzero;fill:rgb(100%,100%,0%);fill-opacity:1;stroke-width:1;stroke-linecap:butt;stroke-linejoin:round;stroke:rgb(0%,0%,0%);stroke-opacity:1;stroke-miterlimit:10;" d="M 215.054688 110.273438 C 215.054688 126.84375 201.625 140.273438 185.054688 140.273438 C 168.488281 140.273438 155.054688 126.84375 155.054688 110.273438 C 155.054688 93.707031 168.488281 80.273438 185.054688 80.273438 C 201.625 80.273438 215.054688 93.707031 215.054688 110.273438 "/>
<path style="fill-rule:nonzero;fill:rgb(35%,70%,90%);fill-opacity:1;stroke-width:1;stroke-linecap:butt;stroke-linejoin:round;stroke:rgb(0%,0%,0%);stroke-opacity:1;stroke-miterlimit:10;" d="M 357.738281 88.648438 C 357.738281 105.214844 344.308594 118.648438 327.738281 118.648438 C 311.167969 118.648438 297.738281 105.214844 297.738281 88.648438 C 297.738281 72.078125 311.167969 58.648438 327.738281 58.648438 C 344.308594 58.648438 357.738281 72.078125 357.738281 88.648438 "/>
<path style="fill-rule:nonzero;fill:rgb(100%,100%,0%);fill-opacity:1;stroke-width:1;stroke-linecap:butt;stroke-linejoin:round;stroke:rgb(0%,0%,0%);stroke-opacity:1;stroke-miterlimit:10;" d="M 192.738281 318.972656 C 192.738281 335.539062 179.304688 348.972656 162.738281 348.972656 C 146.167969 348.972656 132.738281 335.539062 132.738281 318.972656 C 132.738281 302.402344 146.167969 288.972656 162.738281 288.972656 C 179.304688 288.972656 192.738281 302.402344 192.738281 318.972656 "/>
<path style="fill-rule:nonzero;fill:rgb(100%,100%,0%);fill-opacity:1;stroke-width:1;stroke-linecap:butt;stroke-linejoin:round;stroke:rgb(0%,0%,0%);stroke-opacity:1;stroke-miterlimit:10;" d="M 104.300781 397.417969 C 104.300781 413.988281 90.871094 427.417969 74.300781 427.417969 C 57.730469 427.417969 44.300781 413.988281 44.300781 397.417969 C 44.300781 380.847656 57.730469 367.417969 74.300781 367.417969 C 90.871094 367.417969 104.300781 380.847656 104.300781 397.417969 "/>
<path style="fill-rule:nonzero;fill:rgb(100%,100%,0%);fill-opacity:1;stroke-width:1;stroke-linecap:butt;stroke-linejoin:round;stroke:rgb(0%,0%,0%);stroke-opacity:1;stroke-miterlimit:10;" d="M 227.824219 460.652344 C 227.824219 477.21875 214.390625 490.652344 197.824219 490.652344 C 181.253906 490.652344 167.824219 477.21875 167.824219 460.652344 C 167.824219 444.082031 181.253906 430.652344 197.824219 430.652344 C 214.390625 430.652344 227.824219 444.082031 227.824219 460.652344 "/>
</g>
</svg>
