<?xml version="1.0" encoding="UTF-8"?>
<svg xmlns="http://www.w3.org/2000/svg" xmlns:xlink="http://www.w3.org/1999/xlink" width="517pt" height="517pt" viewBox="0 0 517 517" version="1.1">
<g id="surface1866">
<rect x="0" y="0" width="517" height="517" style="fill:rgb(90%,90%,90%);fill-opacity:1;stroke:none;"/>
<path style="fill:none;stroke-width:5;stroke-linecap:butt;stroke-linejoin:round;stroke:rgb(100%,0%,0%);stroke-opacity:1;stroke-miterlimit:10;" d="M 5 5 L 261 5 L 261 261 L 5 261 Z M 5 5 "/>
<path style="fill-rule:nonzero;fill:rgb(100%,7%,57%);fill-opacity:1;stroke-width:1;stroke-linecap:butt;stroke-linejoin:round;stroke:rgb(0%,0%,0%);stroke-opacity:1;stroke-miterlimit:10;" d="M 208.699219 64.78125 C 208.699219 50.382812 184.699219 50.382812 184.699219 64.78125 C 184.699219 79.179688 208.699219 81.582031 208.699219 93.582031 C 208.699219 81.582031 232.699219 79.179688 232.699219 64.78125 C 232.699219 50.382812 208.699219 50.382812 208.699219 64.78125 "/>
<path style="fill-rule:nonzero;fill:rgb(67%,100%,18%);fill-opacity:1;stroke-width:1;stroke-linecap:butt;stroke-linejoin:round;stroke:rgb(0%,0%,0%);stroke-opacity:1;stroke-miterlimit:10;" d="M 451.542969 122.539062 C 451.542969 108.136719 427.542969 108.136719 427.542969 122.539062 C 427.542969 136.9375 451.542969 139.335938 451.542969 151.335938 C 451.542969 139.335938 475.542969 136.9375 475.542969 122.539062 C 475.542969 108.136719 451.542969 108.136719 451.542969 122.539062 "/>
<path style="fill-rule:nonzero;fill:rgb(67%,100%,18%);fill-opacity:1;stroke-width:1;stroke-linecap:butt;stroke-linejoin:round;stroke:rgb(0%,0%,0%);stroke-opacity:1;stroke-miterlimit:10;" d="M 366.382812 132.582031 C 366.382812 118.183594 342.382812 118.183594 342.382812 132.582031 C 342.382812 146.984375 366.382812 149.382812 366.382812 161.382812 C 366.382812 149.382812 390.382812 146.984375 390.382812 132.582031 C 390.382812 118.183594 366.382812 118.183594 366.382812 132.582031 "/>
<path style="fill-rule:nonzero;fill:rgb(67%,100%,18%);fill-opacity:1;stroke-width:1;stroke-linecap:butt;stroke-linejoin:round;stroke:rgb(0%,0%,0%);stroke-opacity:1;stroke-miterlimit:10;" d="M 423.375 393.792969 C 423.375 379.394531 399.375 379.394531 399.375 393.792969 C 399.375 408.191406 423.375 410.59375 423.375 422.59375 C 423.375 410.59375 447.375 408.191406 447.375 393.792969 C 447.375 379.394531 423.375 379.394531 423.375 393.792969 "/>
<path style="fill-rule:nonzero;fill:rgb(100%,7%,57%);fill-opacity:1;stroke-width:1;stroke-linecap:butt;stroke-linejoin:round;stroke:rgb(0%,0%,0%);stroke-opacity:1;stroke-miterlimit:10;" d="M 370.308594 445.121094 C 370.308594 430.722656 346.308594 430.722656 346.308594 445.121094 C 346.308594 459.523438 370.308594 461.921875 370.308594 473.921875 C 370.308594 461.921875 394.308594 459.523438 394.308594 445.121094 C 394.308594 430.722656 370.308594 430.722656 370.308594 445.121094 "/>
</g>
</svg>
