<?xml version="1.0" encoding="UTF-8"?>
<svg xmlns="http://www.w3.org/2000/svg" xmlns:xlink="http://www.w3.org/1999/xlink" width="517pt" height="517pt" viewBox="0 0 517 517" version="1.1">
<g id="surface2286">
<rect x="0" y="0" width="517" height="517" style="fill:rgb(90%,90%,90%);fill-opacity:1;stroke:none;"/>
<path style="fill:none;stroke-width:5;stroke-linecap:butt;stroke-linejoin:round;stroke:rgb(100%,0%,0%);stroke-opacity:1;stroke-miterlimit:10;" d="M 261 5 L 517 5 L 517 261 L 261 261 Z M 261 5 "/>
<path style="fill-rule:nonzero;fill:rgb(67%,100%,18%);fill-opacity:1;stroke-width:1;stroke-linecap:butt;stroke-linejoin:round;stroke:rgb(0%,0%,0%);stroke-opacity:1;stroke-miterlimit:10;" d="M 479.953125 216.9375 C 479.953125 233.503906 466.523438 246.9375 449.953125 246.9375 C 433.386719 246.9375 419.953125 233.503906 419.953125 216.9375 C 419.953125 200.367188 433.386719 186.9375 449.953125 186.9375 C 466.523438 186.9375 479.953125 200.367188 479.953125 216.9375 "/>
<path style="fill-rule:nonzero;fill:rgb(100%,0%,0%);fill-opacity:1;stroke-width:1;stroke-linecap:butt;stroke-linejoin:round;stroke:rgb(0%,0%,0%);stroke-opacity:1;stroke-miterlimit:10;" d="M 246.917969 311.542969 C 246.917969 328.113281 233.488281 341.542969 216.917969 341.542969 C 200.347656 341.542969 186.917969 328.113281 186.917969 311.542969 C 186.917969 294.976562 200.347656 281.542969 216.917969 281.542969 C 233.488281 281.542969 246.917969 294.976562 246.917969 311.542969 "/>
<path style="fill-rule:nonzero;fill:rgb(67%,100%,18%);fill-opacity:1;stroke-width:1;stroke-linecap:butt;stroke-linejoin:round;stroke:rgb(0%,0%,0%);stroke-opacity:1;stroke-miterlimit:10;" d="M 142.457031 457.800781 C 142.457031 474.371094 129.023438 487.800781 112.457031 487.800781 C 95.886719 487.800781 82.457031 474.371094 82.457031 457.800781 C 82.457031 441.234375 95.886719 427.800781 112.457031 427.800781 C 129.023438 427.800781 142.457031 441.234375 142.457031 457.800781 "/>
<path style="fill-rule:nonzero;fill:rgb(67%,100%,18%);fill-opacity:1;stroke-width:1;stroke-linecap:butt;stroke-linejoin:round;stroke:rgb(0%,0%,0%);stroke-opacity:1;stroke-miterlimit:10;" d="M 223.371094 66.070312 C 223.371094 82.636719 209.9375 96.070312 193.371094 96.070312 C 176.800781 96.070312 163.371094 82.636719 163.371094 66.070312 C 163.371094 49.5 176.800781 36.070312 193.371094 36.070312 C 209.9375 36.070312 223.371094 49.5 223.371094 66.070312 "/>
<path style="fill-rule:nonzero;fill:rgb(67%,100%,18%);fill-opacity:1;stroke-width:1;stroke-linecap:butt;stroke-linejoin:round;stroke:rgb(0%,0%,0%);stroke-opacity:1;stroke-miterlimit:10;" d="M 70.664062 208.230469 C 70.664062 224.800781 57.234375 238.230469 40.664062 238.230469 C 24.097656 238.230469 10.664062 224.800781 10.664062 208.230469 C 10.664062 191.660156 24.097656 178.230469 40.664062 178.230469 C 57.234375 178.230469 70.664062 191.660156 70.664062 208.230469 "/>
</g>
</svg>
