<?xml version="1.0" encoding="UTF-8"?>
<svg xmlns="http://www.w3.org/2000/svg" xmlns:xlink="http://www.w3.org/1999/xlink" width="517pt" height="517pt" viewBox="0 0 517 517" version="1.1">
<g id="surface1761">
<rect x="0" y="0" width="517" height="517" style="fill:rgb(90%,90%,90%);fill-opacity:1;stroke:none;"/>
<path style="fill:none;stroke-width:5;stroke-linecap:butt;stroke-linejoin:round;stroke:rgb(100%,0%,0%);stroke-opacity:1;stroke-miterlimit:10;" d="M 5 5 L 261 5 L 261 261 L 5 261 Z M 5 5 "/>
<path style="fill-rule:nonzero;fill:rgb(100%,100%,0%);fill-opacity:1;stroke-width:1;stroke-linecap:butt;stroke-linejoin:round;stroke:rgb(0%,0%,0%);stroke-opacity:1;stroke-miterlimit:10;" d="M 190.902344 218.324219 C 190.902344 234.890625 177.472656 248.324219 160.902344 248.324219 C 144.335938 248.324219 130.902344 234.890625 130.902344 218.324219 C 130.902344 201.753906 144.335938 188.324219 160.902344 188.324219 C 177.472656 188.324219 190.902344 201.753906 190.902344 218.324219 "/>
<path style="fill-rule:nonzero;fill:rgb(35%,70%,90%);fill-opacity:1;stroke-width:1;stroke-linecap:butt;stroke-linejoin:round;stroke:rgb(0%,0%,0%);stroke-opacity:1;stroke-miterlimit:10;" d="M 416.167969 373.886719 C 416.167969 390.453125 402.734375 403.886719 386.167969 403.886719 C 369.597656 403.886719 356.167969 390.453125 356.167969 373.886719 C 356.167969 357.316406 369.597656 343.886719 386.167969 343.886719 C 402.734375 343.886719 416.167969 357.316406 416.167969 373.886719 "/>
<path style="fill-rule:nonzero;fill:rgb(35%,70%,90%);fill-opacity:1;stroke-width:1;stroke-linecap:butt;stroke-linejoin:round;stroke:rgb(0%,0%,0%);stroke-opacity:1;stroke-miterlimit:10;" d="M 405.324219 470.8125 C 405.324219 487.378906 391.894531 500.8125 375.324219 500.8125 C 358.757812 500.8125 345.324219 487.378906 345.324219 470.8125 C 345.324219 454.242188 358.757812 440.8125 375.324219 440.8125 C 391.894531 440.8125 405.324219 454.242188 405.324219 470.8125 "/>
<path style="fill-rule:nonzero;fill:rgb(35%,70%,90%);fill-opacity:1;stroke-width:1;stroke-linecap:butt;stroke-linejoin:round;stroke:rgb(0%,0%,0%);stroke-opacity:1;stroke-miterlimit:10;" d="M 447.503906 152.292969 C 447.503906 168.863281 434.070312 182.292969 417.503906 182.292969 C 400.933594 182.292969 387.503906 168.863281 387.503906 152.292969 C 387.503906 135.726562 400.933594 122.292969 417.503906 122.292969 C 434.070312 122.292969 447.503906 135.726562 447.503906 152.292969 "/>
<path style="fill-rule:nonzero;fill:rgb(35%,70%,90%);fill-opacity:1;stroke-width:1;stroke-linecap:butt;stroke-linejoin:round;stroke:rgb(0%,0%,0%);stroke-opacity:1;stroke-miterlimit:10;" d="M 237.324219 339.425781 C 237.324219 355.996094 223.894531 369.425781 207.324219 369.425781 C 190.757812 369.425781 177.324219 355.996094 177.324219 339.425781 C 177.324219 322.859375 190.757812 309.425781 207.324219 309.425781 C 223.894531 309.425781 237.324219 322.859375 237.324219 339.425781 "/>
</g>
</svg>
