<?xml version="1.0" encoding="UTF-8"?>
<svg xmlns="http://www.w3.org/2000/svg" xmlns:xlink="http://www.w3.org/1999/xlink" width="517pt" height="517pt" viewBox="0 0 517 517" version="1.1">
<g id="surface2256">
<rect x="0" y="0" width="517" height="517" style="fill:rgb(90%,90%,90%);fill-opacity:1;stroke:none;"/>
<path style="fill:none;stroke-width:5;stroke-linecap:butt;stroke-linejoin:round;stroke:rgb(100%,0%,0%);stroke-opacity:1;stroke-miterlimit:10;" d="M 261 5 L 517 5 L 517 261 L 261 261 Z M 261 5 "/>
<path style="fill-rule:nonzero;fill:rgb(67%,100%,18%);fill-opacity:1;stroke-width:1;stroke-linecap:butt;stroke-linejoin:round;stroke:rgb(0%,0%,0%);stroke-opacity:1;stroke-miterlimit:10;" d="M 485.550781 91.222656 C 485.550781 107.789062 472.117188 121.222656 455.550781 121.222656 C 438.980469 121.222656 425.550781 107.789062 425.550781 91.222656 C 425.550781 74.652344 438.980469 61.222656 455.550781 61.222656 C 472.117188 61.222656 485.550781 74.652344 485.550781 91.222656 "/>
<path style="fill-rule:nonzero;fill:rgb(100%,0%,0%);fill-opacity:1;stroke-width:1;stroke-linecap:butt;stroke-linejoin:round;stroke:rgb(0%,0%,0%);stroke-opacity:1;stroke-miterlimit:10;" d="M 347.152344 332.746094 C 347.152344 349.3125 333.722656 362.746094 317.152344 362.746094 C 300.585938 362.746094 287.152344 349.3125 287.152344 332.746094 C 287.152344 316.175781 300.585938 302.746094 317.152344 302.746094 C 333.722656 302.746094 347.152344 316.175781 347.152344 332.746094 "/>
<path style="fill-rule:nonzero;fill:rgb(100%,0%,0%);fill-opacity:1;stroke-width:1;stroke-linecap:butt;stroke-linejoin:round;stroke:rgb(0%,0%,0%);stroke-opacity:1;stroke-miterlimit:10;" d="M 143.863281 164.933594 C 143.863281 181.5 130.433594 194.933594 113.863281 194.933594 C 97.296875 194.933594 83.863281 181.5 83.863281 164.933594 C 83.863281 148.363281 97.296875 134.933594 113.863281 134.933594 C 130.433594 134.933594 143.863281 148.363281 143.863281 164.933594 "/>
<path style="fill-rule:nonzero;fill:rgb(100%,0%,0%);fill-opacity:1;stroke-width:1;stroke-linecap:butt;stroke-linejoin:round;stroke:rgb(0%,0%,0%);stroke-opacity:1;stroke-miterlimit:10;" d="M 67.429688 396.472656 C 67.429688 413.039062 53.996094 426.472656 37.429688 426.472656 C 20.859375 426.472656 7.429688 413.039062 7.429688 396.472656 C 7.429688 379.902344 20.859375 366.472656 37.429688 366.472656 C 53.996094 366.472656 67.429688 379.902344 67.429688 396.472656 "/>
<path style="fill-rule:nonzero;fill:rgb(100%,0%,0%);fill-opacity:1;stroke-width:1;stroke-linecap:butt;stroke-linejoin:round;stroke:rgb(0%,0%,0%);stroke-opacity:1;stroke-miterlimit:10;" d="M 138.75 467.996094 C 138.75 484.5625 125.320312 497.996094 108.75 497.996094 C 92.183594 497.996094 78.75 484.5625 78.75 467.996094 C 78.75 451.425781 92.183594 437.996094 108.75 437.996094 C 125.320312 437.996094 138.75 451.425781 138.75 467.996094 "/>
</g>
</svg>
