<?xml version="1.0" encoding="UTF-8"?>
<svg xmlns="http://www.w3.org/2000/svg" xmlns:xlink="http://www.w3.org/1999/xlink" width="517pt" height="517pt" viewBox="0 0 517 517" version="1.1">
<g id="surface2076">
<rect x="0" y="0" width="517" height="517" style="fill:rgb(90%,90%,90%);fill-opacity:1;stroke:none;"/>
<path style="fill:none;stroke-width:5;stroke-linecap:butt;stroke-linejoin:round;stroke:rgb(100%,0%,0%);stroke-opacity:1;stroke-miterlimit:10;" d="M 261 5 L 517 5 L 517 261 L 261 261 Z M 261 5 "/>
<path style="fill-rule:nonzero;fill:rgb(35%,70%,90%);fill-opacity:1;stroke-width:1;stroke-linecap:butt;stroke-linejoin:round;stroke:rgb(0%,0%,0%);stroke-opacity:1;stroke-miterlimit:10;" d="M 457.125 35.890625 L 437.125 35.890625 L 437.125 45.890625 L 457.125 45.890625 L 457.125 65.890625 L 467.125 65.890625 L 467.125 45.890625 L 487.125 45.890625 L 487.125 35.890625 L 467.125 35.890625 L 467.125 15.890625 L 457.125 15.890625 L 457.125 35.890625 "/>
<path style="fill-rule:nonzero;fill:rgb(35%,70%,90%);fill-opacity:1;stroke-width:1;stroke-linecap:butt;stroke-linejoin:round;stroke:rgb(0%,0%,0%);stroke-opacity:1;stroke-miterlimit:10;" d="M 454.703125 434.511719 L 434.703125 434.511719 L 434.703125 444.511719 L 454.703125 444.511719 L 454.703125 464.511719 L 464.703125 464.511719 L 464.703125 444.511719 L 484.703125 444.511719 L 484.703125 434.511719 L 464.703125 434.511719 L 464.703125 414.511719 L 454.703125 414.511719 L 454.703125 434.511719 "/>
<path style="fill-rule:nonzero;fill:rgb(35%,70%,90%);fill-opacity:1;stroke-width:1;stroke-linecap:butt;stroke-linejoin:round;stroke:rgb(0%,0%,0%);stroke-opacity:1;stroke-miterlimit:10;" d="M 214.800781 127.863281 L 194.800781 127.863281 L 194.800781 137.863281 L 214.800781 137.863281 L 214.800781 157.863281 L 224.800781 157.863281 L 224.800781 137.863281 L 244.800781 137.863281 L 244.800781 127.863281 L 224.800781 127.863281 L 224.800781 107.863281 L 214.800781 107.863281 L 214.800781 127.863281 "/>
<path style="fill-rule:nonzero;fill:rgb(35%,70%,90%);fill-opacity:1;stroke-width:1;stroke-linecap:butt;stroke-linejoin:round;stroke:rgb(0%,0%,0%);stroke-opacity:1;stroke-miterlimit:10;" d="M 134.625 98.804688 L 114.625 98.804688 L 114.625 108.804688 L 134.625 108.804688 L 134.625 128.804688 L 144.625 128.804688 L 144.625 108.804688 L 164.625 108.804688 L 164.625 98.804688 L 144.625 98.804688 L 144.625 78.804688 L 134.625 78.804688 L 134.625 98.804688 "/>
<path style="fill-rule:nonzero;fill:rgb(100%,7%,57%);fill-opacity:1;stroke-width:1;stroke-linecap:butt;stroke-linejoin:round;stroke:rgb(0%,0%,0%);stroke-opacity:1;stroke-miterlimit:10;" d="M 184.832031 55.933594 L 164.832031 55.933594 L 164.832031 65.933594 L 184.832031 65.933594 L 184.832031 85.933594 L 194.832031 85.933594 L 194.832031 65.933594 L 214.832031 65.933594 L 214.832031 55.933594 L 194.832031 55.933594 L 194.832031 35.933594 L 184.832031 35.933594 L 184.832031 55.933594 "/>
</g>
</svg>
