<?xml version="1.0" encoding="UTF-8"?>
<svg xmlns="http://www.w3.org/2000/svg" xmlns:xlink="http://www.w3.org/1999/xlink" width="517pt" height="517pt" viewBox="0 0 517 517" version="1.1">
<g id="surface1571">
<rect x="0" y="0" width="517" height="517" style="fill:rgb(90%,90%,90%);fill-opacity:1;stroke:none;"/>
<path style="fill:none;stroke-width:5;stroke-linecap:butt;stroke-linejoin:round;stroke:rgb(100%,0%,0%);stroke-opacity:1;stroke-miterlimit:10;" d="M 261 261 L 517 261 L 517 517 L 261 517 Z M 261 261 "/>
<path style="fill-rule:nonzero;fill:rgb(53%,27%,7%);fill-opacity:1;stroke-width:1;stroke-linecap:butt;stroke-linejoin:round;stroke:rgb(0%,0%,0%);stroke-opacity:1;stroke-miterlimit:10;" d="M 316.980469 444.390625 L 296.980469 444.390625 L 296.980469 454.390625 L 316.980469 454.390625 L 316.980469 474.390625 L 326.980469 474.390625 L 326.980469 454.390625 L 346.980469 454.390625 L 346.980469 444.390625 L 326.980469 444.390625 L 326.980469 424.390625 L 316.980469 424.390625 L 316.980469 444.390625 "/>
<path style="fill-rule:nonzero;fill:rgb(35%,70%,90%);fill-opacity:1;stroke-width:1;stroke-linecap:butt;stroke-linejoin:round;stroke:rgb(0%,0%,0%);stroke-opacity:1;stroke-miterlimit:10;" d="M 418.246094 61.425781 L 398.246094 61.425781 L 398.246094 71.425781 L 418.246094 71.425781 L 418.246094 91.425781 L 428.246094 91.425781 L 428.246094 71.425781 L 448.246094 71.425781 L 448.246094 61.425781 L 428.246094 61.425781 L 428.246094 41.425781 L 418.246094 41.425781 L 418.246094 61.425781 "/>
<path style="fill-rule:nonzero;fill:rgb(53%,27%,7%);fill-opacity:1;stroke-width:1;stroke-linecap:butt;stroke-linejoin:round;stroke:rgb(0%,0%,0%);stroke-opacity:1;stroke-miterlimit:10;" d="M 148.546875 459.007812 L 128.546875 459.007812 L 128.546875 469.007812 L 148.546875 469.007812 L 148.546875 489.007812 L 158.546875 489.007812 L 158.546875 469.007812 L 178.546875 469.007812 L 178.546875 459.007812 L 158.546875 459.007812 L 158.546875 439.007812 L 148.546875 439.007812 L 148.546875 459.007812 "/>
<path style="fill-rule:nonzero;fill:rgb(53%,27%,7%);fill-opacity:1;stroke-width:1;stroke-linecap:butt;stroke-linejoin:round;stroke:rgb(0%,0%,0%);stroke-opacity:1;stroke-miterlimit:10;" d="M 98.496094 354.460938 L 78.496094 354.460938 L 78.496094 364.460938 L 98.496094 364.460938 L 98.496094 384.460938 L 108.496094 384.460938 L 108.496094 364.460938 L 128.496094 364.460938 L 128.496094 354.460938 L 108.496094 354.460938 L 108.496094 334.460938 L 98.496094 334.460938 L 98.496094 354.460938 "/>
</g>
</svg>
