<?xml version="1.0" encoding="UTF-8"?>
<svg xmlns="http://www.w3.org/2000/svg" xmlns:xlink="http://www.w3.org/1999/xlink" width="517pt" height="517pt" viewBox="0 0 517 517" version="1.1">
<g id="surface1566">
<rect x="0" y="0" width="517" height="517" style="fill:rgb(90%,90%,90%);fill-opacity:1;stroke:none;"/>
<path style="fill:none;stroke-width:5;stroke-linecap:butt;stroke-linejoin:round;stroke:rgb(100%,0%,0%);stroke-opacity:1;stroke-miterlimit:10;" d="M 261 261 L 517 261 L 517 517 L 261 517 Z M 261 261 "/>
<path style="fill-rule:nonzero;fill:rgb(53%,27%,7%);fill-opacity:1;stroke-width:1;stroke-linecap:butt;stroke-linejoin:round;stroke:rgb(0%,0%,0%);stroke-opacity:1;stroke-miterlimit:10;" d="M 296.757812 323.828125 L 276.757812 323.828125 L 276.757812 333.828125 L 296.757812 333.828125 L 296.757812 353.828125 L 306.757812 353.828125 L 306.757812 333.828125 L 326.757812 333.828125 L 326.757812 323.828125 L 306.757812 323.828125 L 306.757812 303.828125 L 296.757812 303.828125 L 296.757812 323.828125 "/>
<path style="fill-rule:nonzero;fill:rgb(35%,70%,90%);fill-opacity:1;stroke-width:1;stroke-linecap:butt;stroke-linejoin:round;stroke:rgb(0%,0%,0%);stroke-opacity:1;stroke-miterlimit:10;" d="M 205.5625 409.003906 L 185.5625 409.003906 L 185.5625 419.003906 L 205.5625 419.003906 L 205.5625 439.003906 L 215.5625 439.003906 L 215.5625 419.003906 L 235.5625 419.003906 L 235.5625 409.003906 L 215.5625 409.003906 L 215.5625 389.003906 L 205.5625 389.003906 L 205.5625 409.003906 "/>
<path style="fill-rule:nonzero;fill:rgb(53%,27%,7%);fill-opacity:1;stroke-width:1;stroke-linecap:butt;stroke-linejoin:round;stroke:rgb(0%,0%,0%);stroke-opacity:1;stroke-miterlimit:10;" d="M 180.722656 344.148438 L 160.722656 344.148438 L 160.722656 354.148438 L 180.722656 354.148438 L 180.722656 374.148438 L 190.722656 374.148438 L 190.722656 354.148438 L 210.722656 354.148438 L 210.722656 344.148438 L 190.722656 344.148438 L 190.722656 324.148438 L 180.722656 324.148438 L 180.722656 344.148438 "/>
<path style="fill-rule:nonzero;fill:rgb(53%,27%,7%);fill-opacity:1;stroke-width:1;stroke-linecap:butt;stroke-linejoin:round;stroke:rgb(0%,0%,0%);stroke-opacity:1;stroke-miterlimit:10;" d="M 459.453125 186.238281 L 439.453125 186.238281 L 439.453125 196.238281 L 459.453125 196.238281 L 459.453125 216.238281 L 469.453125 216.238281 L 469.453125 196.238281 L 489.453125 196.238281 L 489.453125 186.238281 L 469.453125 186.238281 L 469.453125 166.238281 L 459.453125 166.238281 L 459.453125 186.238281 "/>
</g>
</svg>
