<?xml version="1.0" encoding="UTF-8"?>
<svg xmlns="http://www.w3.org/2000/svg" xmlns:xlink="http://www.w3.org/1999/xlink" width="517pt" height="517pt" viewBox="0 0 517 517" version="1.1">
<g id="surface2301">
<rect x="0" y="0" width="517" height="517" style="fill:rgb(90%,90%,90%);fill-opacity:1;stroke:none;"/>
<path style="fill:none;stroke-width:5;stroke-linecap:butt;stroke-linejoin:round;stroke:rgb(100%,0%,0%);stroke-opacity:1;stroke-miterlimit:10;" d="M 261 5 L 517 5 L 517 261 L 261 261 Z M 261 5 "/>
<path style="fill-rule:nonzero;fill:rgb(0%,0%,0%);fill-opacity:1;stroke-width:1;stroke-linecap:butt;stroke-linejoin:round;stroke:rgb(0%,0%,0%);stroke-opacity:1;stroke-miterlimit:10;" d="M 337.203125 190.316406 C 337.203125 206.882812 323.769531 220.316406 307.203125 220.316406 C 290.632812 220.316406 277.203125 206.882812 277.203125 190.316406 C 277.203125 173.746094 290.632812 160.316406 307.203125 160.316406 C 323.769531 160.316406 337.203125 173.746094 337.203125 190.316406 "/>
<path style="fill-rule:nonzero;fill:rgb(100%,0%,0%);fill-opacity:1;stroke-width:1;stroke-linecap:butt;stroke-linejoin:round;stroke:rgb(0%,0%,0%);stroke-opacity:1;stroke-miterlimit:10;" d="M 442.171875 306.382812 C 442.171875 322.953125 428.738281 336.382812 412.171875 336.382812 C 395.601562 336.382812 382.171875 322.953125 382.171875 306.382812 C 382.171875 289.8125 395.601562 276.382812 412.171875 276.382812 C 428.738281 276.382812 442.171875 289.8125 442.171875 306.382812 "/>
<path style="fill-rule:nonzero;fill:rgb(100%,0%,0%);fill-opacity:1;stroke-width:1;stroke-linecap:butt;stroke-linejoin:round;stroke:rgb(0%,0%,0%);stroke-opacity:1;stroke-miterlimit:10;" d="M 159.9375 163.707031 C 159.9375 180.273438 146.507812 193.707031 129.9375 193.707031 C 113.371094 193.707031 99.9375 180.273438 99.9375 163.707031 C 99.9375 147.136719 113.371094 133.707031 129.9375 133.707031 C 146.507812 133.707031 159.9375 147.136719 159.9375 163.707031 "/>
<path style="fill-rule:nonzero;fill:rgb(100%,0%,0%);fill-opacity:1;stroke-width:1;stroke-linecap:butt;stroke-linejoin:round;stroke:rgb(0%,0%,0%);stroke-opacity:1;stroke-miterlimit:10;" d="M 245.886719 464.695312 C 245.886719 481.265625 232.453125 494.695312 215.886719 494.695312 C 199.316406 494.695312 185.886719 481.265625 185.886719 464.695312 C 185.886719 448.128906 199.316406 434.695312 215.886719 434.695312 C 232.453125 434.695312 245.886719 448.128906 245.886719 464.695312 "/>
<path style="fill-rule:nonzero;fill:rgb(67%,100%,18%);fill-opacity:1;stroke-width:1;stroke-linecap:butt;stroke-linejoin:round;stroke:rgb(0%,0%,0%);stroke-opacity:1;stroke-miterlimit:10;" d="M 171.351562 441.878906 C 171.351562 458.449219 157.917969 471.878906 141.351562 471.878906 C 124.78125 471.878906 111.351562 458.449219 111.351562 441.878906 C 111.351562 425.3125 124.78125 411.878906 141.351562 411.878906 C 157.917969 411.878906 171.351562 425.3125 171.351562 441.878906 "/>
</g>
</svg>
