<?xml version="1.0" encoding="UTF-8"?>
<svg xmlns="http://www.w3.org/2000/svg" xmlns:xlink="http://www.w3.org/1999/xlink" width="517pt" height="517pt" viewBox="0 0 517 517" version="1.1">
<g id="surface2036">
<rect x="0" y="0" width="517" height="517" style="fill:rgb(90%,90%,90%);fill-opacity:1;stroke:none;"/>
<path style="fill:none;stroke-width:5;stroke-linecap:butt;stroke-linejoin:round;stroke:rgb(100%,0%,0%);stroke-opacity:1;stroke-miterlimit:10;" d="M 261 5 L 517 5 L 517 261 L 261 261 Z M 261 5 "/>
<path style="fill-rule:nonzero;fill:rgb(100%,7%,57%);fill-opacity:1;stroke-width:1;stroke-linecap:butt;stroke-linejoin:round;stroke:rgb(0%,0%,0%);stroke-opacity:1;stroke-miterlimit:10;" d="M 358.191406 101.753906 L 338.191406 101.753906 L 338.191406 111.753906 L 358.191406 111.753906 L 358.191406 131.753906 L 368.191406 131.753906 L 368.191406 111.753906 L 388.191406 111.753906 L 388.191406 101.753906 L 368.191406 101.753906 L 368.191406 81.753906 L 358.191406 81.753906 L 358.191406 101.753906 "/>
<path style="fill-rule:nonzero;fill:rgb(35%,70%,90%);fill-opacity:1;stroke-width:1;stroke-linecap:butt;stroke-linejoin:round;stroke:rgb(0%,0%,0%);stroke-opacity:1;stroke-miterlimit:10;" d="M 51.695312 423.953125 L 31.695312 423.953125 L 31.695312 433.953125 L 51.695312 433.953125 L 51.695312 453.953125 L 61.695312 453.953125 L 61.695312 433.953125 L 81.695312 433.953125 L 81.695312 423.953125 L 61.695312 423.953125 L 61.695312 403.953125 L 51.695312 403.953125 L 51.695312 423.953125 "/>
<path style="fill-rule:nonzero;fill:rgb(35%,70%,90%);fill-opacity:1;stroke-width:1;stroke-linecap:butt;stroke-linejoin:round;stroke:rgb(0%,0%,0%);stroke-opacity:1;stroke-miterlimit:10;" d="M 313.09375 454.875 L 293.09375 454.875 L 293.09375 464.875 L 313.09375 464.875 L 313.09375 484.875 L 323.09375 484.875 L 323.09375 464.875 L 343.09375 464.875 L 343.09375 454.875 L 323.09375 454.875 L 323.09375 434.875 L 313.09375 434.875 L 313.09375 454.875 "/>
<path style="fill-rule:nonzero;fill:rgb(35%,70%,90%);fill-opacity:1;stroke-width:1;stroke-linecap:butt;stroke-linejoin:round;stroke:rgb(0%,0%,0%);stroke-opacity:1;stroke-miterlimit:10;" d="M 366.140625 298.160156 L 346.140625 298.160156 L 346.140625 308.160156 L 366.140625 308.160156 L 366.140625 328.160156 L 376.140625 328.160156 L 376.140625 308.160156 L 396.140625 308.160156 L 396.140625 298.160156 L 376.140625 298.160156 L 376.140625 278.160156 L 366.140625 278.160156 L 366.140625 298.160156 "/>
<path style="fill-rule:nonzero;fill:rgb(100%,7%,57%);fill-opacity:1;stroke-width:1;stroke-linecap:butt;stroke-linejoin:round;stroke:rgb(0%,0%,0%);stroke-opacity:1;stroke-miterlimit:10;" d="M 381.5625 371.191406 L 361.5625 371.191406 L 361.5625 381.191406 L 381.5625 381.191406 L 381.5625 401.191406 L 391.5625 401.191406 L 391.5625 381.191406 L 411.5625 381.191406 L 411.5625 371.191406 L 391.5625 371.191406 L 391.5625 351.191406 L 381.5625 351.191406 L 381.5625 371.191406 "/>
</g>
</svg>
