<?xml version="1.0" encoding="UTF-8"?>
<svg xmlns="http://www.w3.org/2000/svg" xmlns:xlink="http://www.w3.org/1999/xlink" width="517pt" height="517pt" viewBox="0 0 517 517" version="1.1">
<g id="surface1556">
<rect x="0" y="0" width="517" height="517" style="fill:rgb(90%,90%,90%);fill-opacity:1;stroke:none;"/>
<path style="fill:none;stroke-width:5;stroke-linecap:butt;stroke-linejoin:round;stroke:rgb(100%,0%,0%);stroke-opacity:1;stroke-miterlimit:10;" d="M 261 261 L 517 261 L 517 517 L 261 517 Z M 261 261 "/>
<path style="fill-rule:nonzero;fill:rgb(53%,27%,7%);fill-opacity:1;stroke-width:1;stroke-linecap:butt;stroke-linejoin:round;stroke:rgb(0%,0%,0%);stroke-opacity:1;stroke-miterlimit:10;" d="M 446.980469 340.183594 L 426.980469 340.183594 L 426.980469 350.183594 L 446.980469 350.183594 L 446.980469 370.183594 L 456.980469 370.183594 L 456.980469 350.183594 L 476.980469 350.183594 L 476.980469 340.183594 L 456.980469 340.183594 L 456.980469 320.183594 L 446.980469 320.183594 L 446.980469 340.183594 "/>
<path style="fill-rule:nonzero;fill:rgb(35%,70%,90%);fill-opacity:1;stroke-width:1;stroke-linecap:butt;stroke-linejoin:round;stroke:rgb(0%,0%,0%);stroke-opacity:1;stroke-miterlimit:10;" d="M 196.773438 75.992188 L 176.773438 75.992188 L 176.773438 85.992188 L 196.773438 85.992188 L 196.773438 105.992188 L 206.773438 105.992188 L 206.773438 85.992188 L 226.773438 85.992188 L 226.773438 75.992188 L 206.773438 75.992188 L 206.773438 55.992188 L 196.773438 55.992188 L 196.773438 75.992188 "/>
<path style="fill-rule:nonzero;fill:rgb(35%,70%,90%);fill-opacity:1;stroke-width:1;stroke-linecap:butt;stroke-linejoin:round;stroke:rgb(0%,0%,0%);stroke-opacity:1;stroke-miterlimit:10;" d="M 31.664062 183.980469 L 11.664062 183.980469 L 11.664062 193.980469 L 31.664062 193.980469 L 31.664062 213.980469 L 41.664062 213.980469 L 41.664062 193.980469 L 61.664062 193.980469 L 61.664062 183.980469 L 41.664062 183.980469 L 41.664062 163.980469 L 31.664062 163.980469 L 31.664062 183.980469 "/>
<path style="fill-rule:nonzero;fill:rgb(53%,27%,7%);fill-opacity:1;stroke-width:1;stroke-linecap:butt;stroke-linejoin:round;stroke:rgb(0%,0%,0%);stroke-opacity:1;stroke-miterlimit:10;" d="M 445.839844 81.691406 L 425.839844 81.691406 L 425.839844 91.691406 L 445.839844 91.691406 L 445.839844 111.691406 L 455.839844 111.691406 L 455.839844 91.691406 L 475.839844 91.691406 L 475.839844 81.691406 L 455.839844 81.691406 L 455.839844 61.691406 L 445.839844 61.691406 L 445.839844 81.691406 "/>
</g>
</svg>
