<?xml version="1.0" encoding="UTF-8"?>
<svg xmlns="http://www.w3.org/2000/svg" xmlns:xlink="http://www.w3.org/1999/xlink" width="517pt" height="517pt" viewBox="0 0 517 517" version="1.1">
<g id="surface5246">
<rect x="0" y="0" width="517" height="517" style="fill:rgb(90%,90%,90%);fill-opacity:1;stroke:none;"/>
<path style="fill-rule:nonzero;fill:rgb(100%,0%,0%);fill-opacity:1;stroke-width:1;stroke-linecap:butt;stroke-linejoin:miter;stroke:rgb(0%,0%,0%);stroke-opacity:1;stroke-miterlimit:10;" d="M 82.382812 200.929688 C 82.382812 217.5 68.953125 230.929688 52.382812 230.929688 C 35.8125 230.929688 22.382812 217.5 22.382812 200.929688 C 22.382812 184.359375 35.8125 170.929688 52.382812 170.929688 C 68.953125 170.929688 82.382812 184.359375 82.382812 200.929688 "/>
<path style="fill-rule:nonzero;fill:rgb(100%,0%,0%);fill-opacity:1;stroke-width:1;stroke-linecap:butt;stroke-linejoin:miter;stroke:rgb(0%,0%,0%);stroke-opacity:1;stroke-miterlimit:10;" d="M 177.589844 209.023438 C 177.589844 225.59375 164.160156 239.023438 147.589844 239.023438 C 131.023438 239.023438 117.589844 225.59375 117.589844 209.023438 C 117.589844 192.457031 131.023438 179.023438 147.589844 179.023438 C 164.160156 179.023438 177.589844 192.457031 177.589844 209.023438 "/>
<path style="fill-rule:nonzero;fill:rgb(100%,0%,0%);fill-opacity:1;stroke-width:1;stroke-linecap:butt;stroke-linejoin:miter;stroke:rgb(0%,0%,0%);stroke-opacity:1;stroke-miterlimit:10;" d="M 334.148438 422.832031 C 334.148438 439.402344 320.714844 452.832031 304.148438 452.832031 C 287.578125 452.832031 274.148438 439.402344 274.148438 422.832031 C 274.148438 406.265625 287.578125 392.832031 304.148438 392.832031 C 320.714844 392.832031 334.148438 406.265625 334.148438 422.832031 "/>
<path style="fill-rule:nonzero;fill:rgb(100%,0%,0%);fill-opacity:1;stroke-width:1;stroke-linecap:butt;stroke-linejoin:miter;stroke:rgb(0%,0%,0%);stroke-opacity:1;stroke-miterlimit:10;" d="M 464.964844 292.140625 C 464.964844 308.710938 451.53125 322.140625 434.964844 322.140625 C 418.394531 322.140625 404.964844 308.710938 404.964844 292.140625 C 404.964844 275.574219 418.394531 262.140625 434.964844 262.140625 C 451.53125 262.140625 464.964844 275.574219 464.964844 292.140625 "/>
<path style="fill-rule:nonzero;fill:rgb(100%,0%,0%);fill-opacity:1;stroke-width:1;stroke-linecap:butt;stroke-linejoin:miter;stroke:rgb(0%,0%,0%);stroke-opacity:1;stroke-miterlimit:10;" d="M 458.535156 459.601562 C 458.535156 476.167969 445.101562 489.601562 428.535156 489.601562 C 411.964844 489.601562 398.535156 476.167969 398.535156 459.601562 C 398.535156 443.03125 411.964844 429.601562 428.535156 429.601562 C 445.101562 429.601562 458.535156 443.03125 458.535156 459.601562 "/>
<path style="fill-rule:nonzero;fill:rgb(100%,0%,0%);fill-opacity:1;stroke-width:1;stroke-linecap:butt;stroke-linejoin:miter;stroke:rgb(0%,0%,0%);stroke-opacity:1;stroke-miterlimit:10;" d="M 400.757812 315.683594 C 400.757812 332.25 387.328125 345.683594 370.757812 345.683594 C 354.1875 345.683594 340.757812 332.25 340.757812 315.683594 C 340.757812 299.113281 354.1875 285.683594 370.757812 285.683594 C 387.328125 285.683594 400.757812 299.113281 400.757812 315.683594 "/>
<path style="fill-rule:nonzero;fill:rgb(100%,0%,0%);fill-opacity:1;stroke-width:1;stroke-linecap:butt;stroke-linejoin:miter;stroke:rgb(0%,0%,0%);stroke-opacity:1;stroke-miterlimit:10;" d="M 464.875 374.878906 C 464.875 391.445312 451.441406 404.878906 434.875 404.878906 C 418.304688 404.878906 404.875 391.445312 404.875 374.878906 C 404.875 358.308594 418.304688 344.878906 434.875 344.878906 C 451.441406 344.878906 464.875 358.308594 464.875 374.878906 "/>
<path style="fill-rule:nonzero;fill:rgb(100%,0%,0%);fill-opacity:1;stroke-width:1;stroke-linecap:butt;stroke-linejoin:miter;stroke:rgb(0%,0%,0%);stroke-opacity:1;stroke-miterlimit:10;" d="M 322.796875 355.304688 C 322.796875 371.875 309.367188 385.304688 292.796875 385.304688 C 276.230469 385.304688 262.796875 371.875 262.796875 355.304688 C 262.796875 338.738281 276.230469 325.304688 292.796875 325.304688 C 309.367188 325.304688 322.796875 338.738281 322.796875 355.304688 "/>
</g>
</svg>
