<?xml version="1.0" encoding="UTF-8"?>
<svg xmlns="http://www.w3.org/2000/svg" xmlns:xlink="http://www.w3.org/1999/xlink" width="517pt" height="517pt" viewBox="0 0 517 517" version="1.1">
<g id="surface5206">
<rect x="0" y="0" width="517" height="517" style="fill:rgb(90%,90%,90%);fill-opacity:1;stroke:none;"/>
<path style="fill-rule:nonzero;fill:rgb(100%,0%,0%);fill-opacity:1;stroke-width:1;stroke-linecap:butt;stroke-linejoin:miter;stroke:rgb(0%,0%,0%);stroke-opacity:1;stroke-miterlimit:10;" d="M 156.84375 167.035156 C 156.84375 183.601562 143.414062 197.035156 126.84375 197.035156 C 110.277344 197.035156 96.84375 183.601562 96.84375 167.035156 C 96.84375 150.464844 110.277344 137.035156 126.84375 137.035156 C 143.414062 137.035156 156.84375 150.464844 156.84375 167.035156 "/>
<path style="fill-rule:nonzero;fill:rgb(100%,0%,0%);fill-opacity:1;stroke-width:1;stroke-linecap:butt;stroke-linejoin:miter;stroke:rgb(0%,0%,0%);stroke-opacity:1;stroke-miterlimit:10;" d="M 393.910156 52.476562 C 393.910156 69.046875 380.480469 82.476562 363.910156 82.476562 C 347.34375 82.476562 333.910156 69.046875 333.910156 52.476562 C 333.910156 35.910156 347.34375 22.476562 363.910156 22.476562 C 380.480469 22.476562 393.910156 35.910156 393.910156 52.476562 "/>
<path style="fill-rule:nonzero;fill:rgb(100%,0%,0%);fill-opacity:1;stroke-width:1;stroke-linecap:butt;stroke-linejoin:miter;stroke:rgb(0%,0%,0%);stroke-opacity:1;stroke-miterlimit:10;" d="M 334.695312 198.792969 C 334.695312 215.363281 321.261719 228.792969 304.695312 228.792969 C 288.125 228.792969 274.695312 215.363281 274.695312 198.792969 C 274.695312 182.226562 288.125 168.792969 304.695312 168.792969 C 321.261719 168.792969 334.695312 182.226562 334.695312 198.792969 "/>
<path style="fill-rule:nonzero;fill:rgb(100%,0%,0%);fill-opacity:1;stroke-width:1;stroke-linecap:butt;stroke-linejoin:miter;stroke:rgb(0%,0%,0%);stroke-opacity:1;stroke-miterlimit:10;" d="M 407.746094 117.761719 C 407.746094 134.328125 394.3125 147.761719 377.746094 147.761719 C 361.175781 147.761719 347.746094 134.328125 347.746094 117.761719 C 347.746094 101.191406 361.175781 87.761719 377.746094 87.761719 C 394.3125 87.761719 407.746094 101.191406 407.746094 117.761719 "/>
<path style="fill-rule:nonzero;fill:rgb(100%,0%,0%);fill-opacity:1;stroke-width:1;stroke-linecap:butt;stroke-linejoin:miter;stroke:rgb(0%,0%,0%);stroke-opacity:1;stroke-miterlimit:10;" d="M 489.550781 170.066406 C 489.550781 186.632812 476.121094 200.066406 459.550781 200.066406 C 442.984375 200.066406 429.550781 186.632812 429.550781 170.066406 C 429.550781 153.496094 442.984375 140.066406 459.550781 140.066406 C 476.121094 140.066406 489.550781 153.496094 489.550781 170.066406 "/>
<path style="fill-rule:nonzero;fill:rgb(100%,0%,0%);fill-opacity:1;stroke-width:1;stroke-linecap:butt;stroke-linejoin:miter;stroke:rgb(0%,0%,0%);stroke-opacity:1;stroke-miterlimit:10;" d="M 459.144531 57.339844 C 459.144531 73.910156 445.714844 87.339844 429.144531 87.339844 C 412.578125 87.339844 399.144531 73.910156 399.144531 57.339844 C 399.144531 40.773438 412.578125 27.339844 429.144531 27.339844 C 445.714844 27.339844 459.144531 40.773438 459.144531 57.339844 "/>
<path style="fill-rule:nonzero;fill:rgb(100%,0%,0%);fill-opacity:1;stroke-width:1;stroke-linecap:butt;stroke-linejoin:miter;stroke:rgb(0%,0%,0%);stroke-opacity:1;stroke-miterlimit:10;" d="M 326.679688 69.472656 C 326.679688 86.042969 313.25 99.472656 296.679688 99.472656 C 280.113281 99.472656 266.679688 86.042969 266.679688 69.472656 C 266.679688 52.90625 280.113281 39.472656 296.679688 39.472656 C 313.25 39.472656 326.679688 52.90625 326.679688 69.472656 "/>
<path style="fill-rule:nonzero;fill:rgb(100%,0%,0%);fill-opacity:1;stroke-width:1;stroke-linecap:butt;stroke-linejoin:miter;stroke:rgb(0%,0%,0%);stroke-opacity:1;stroke-miterlimit:10;" d="M 435.292969 204.117188 C 435.292969 220.683594 421.863281 234.117188 405.292969 234.117188 C 388.726562 234.117188 375.292969 220.683594 375.292969 204.117188 C 375.292969 187.546875 388.726562 174.117188 405.292969 174.117188 C 421.863281 174.117188 435.292969 187.546875 435.292969 204.117188 "/>
</g>
</svg>
