<?xml version="1.0" encoding="UTF-8"?>
<svg xmlns="http://www.w3.org/2000/svg" xmlns:xlink="http://www.w3.org/1999/xlink" width="517pt" height="517pt" viewBox="0 0 517 517" version="1.1">
<g id="surface1901">
<rect x="0" y="0" width="517" height="517" style="fill:rgb(90%,90%,90%);fill-opacity:1;stroke:none;"/>
<path style="fill:none;stroke-width:5;stroke-linecap:butt;stroke-linejoin:round;stroke:rgb(100%,0%,0%);stroke-opacity:1;stroke-miterlimit:10;" d="M 5 5 L 261 5 L 261 261 L 5 261 Z M 5 5 "/>
<path style="fill-rule:nonzero;fill:rgb(67%,100%,18%);fill-opacity:1;stroke-width:1;stroke-linecap:butt;stroke-linejoin:round;stroke:rgb(0%,0%,0%);stroke-opacity:1;stroke-miterlimit:10;" d="M 86.925781 94.832031 C 86.925781 80.433594 62.925781 80.433594 62.925781 94.832031 C 62.925781 109.234375 86.925781 111.632812 86.925781 123.632812 C 86.925781 111.632812 110.925781 109.234375 110.925781 94.832031 C 110.925781 80.433594 86.925781 80.433594 86.925781 94.832031 "/>
<path style="fill-rule:nonzero;fill:rgb(67%,100%,18%);fill-opacity:1;stroke-width:1;stroke-linecap:butt;stroke-linejoin:round;stroke:rgb(0%,0%,0%);stroke-opacity:1;stroke-miterlimit:10;" d="M 333.691406 338.046875 C 333.691406 323.644531 309.691406 323.644531 309.691406 338.046875 C 309.691406 352.445312 333.691406 354.847656 333.691406 366.847656 C 333.691406 354.847656 357.691406 352.445312 357.691406 338.046875 C 357.691406 323.644531 333.691406 323.644531 333.691406 338.046875 "/>
<path style="fill-rule:nonzero;fill:rgb(67%,100%,18%);fill-opacity:1;stroke-width:1;stroke-linecap:butt;stroke-linejoin:round;stroke:rgb(0%,0%,0%);stroke-opacity:1;stroke-miterlimit:10;" d="M 155.703125 352.277344 C 155.703125 337.878906 131.703125 337.878906 131.703125 352.277344 C 131.703125 366.679688 155.703125 369.078125 155.703125 381.078125 C 155.703125 369.078125 179.703125 366.679688 179.703125 352.277344 C 179.703125 337.878906 155.703125 337.878906 155.703125 352.277344 "/>
<path style="fill-rule:nonzero;fill:rgb(67%,100%,18%);fill-opacity:1;stroke-width:1;stroke-linecap:butt;stroke-linejoin:round;stroke:rgb(0%,0%,0%);stroke-opacity:1;stroke-miterlimit:10;" d="M 201.605469 425.4375 C 201.605469 411.035156 177.605469 411.035156 177.605469 425.4375 C 177.605469 439.835938 201.605469 442.238281 201.605469 454.238281 C 201.605469 442.238281 225.605469 439.835938 225.605469 425.4375 C 225.605469 411.035156 201.605469 411.035156 201.605469 425.4375 "/>
<path style="fill-rule:nonzero;fill:rgb(100%,7%,57%);fill-opacity:1;stroke-width:1;stroke-linecap:butt;stroke-linejoin:round;stroke:rgb(0%,0%,0%);stroke-opacity:1;stroke-miterlimit:10;" d="M 462.582031 164 C 462.582031 149.601562 438.582031 149.601562 438.582031 164 C 438.582031 178.402344 462.582031 180.800781 462.582031 192.800781 C 462.582031 180.800781 486.582031 178.402344 486.582031 164 C 486.582031 149.601562 462.582031 149.601562 462.582031 164 "/>
</g>
</svg>
