<?xml version="1.0" encoding="UTF-8"?>
<svg xmlns="http://www.w3.org/2000/svg" xmlns:xlink="http://www.w3.org/1999/xlink" width="517pt" height="517pt" viewBox="0 0 517 517" version="1.1">
<g id="surface1906">
<rect x="0" y="0" width="517" height="517" style="fill:rgb(90%,90%,90%);fill-opacity:1;stroke:none;"/>
<path style="fill:none;stroke-width:5;stroke-linecap:butt;stroke-linejoin:round;stroke:rgb(100%,0%,0%);stroke-opacity:1;stroke-miterlimit:10;" d="M 5 5 L 261 5 L 261 261 L 5 261 Z M 5 5 "/>
<path style="fill-rule:nonzero;fill:rgb(67%,100%,18%);fill-opacity:1;stroke-width:1;stroke-linecap:butt;stroke-linejoin:round;stroke:rgb(0%,0%,0%);stroke-opacity:1;stroke-miterlimit:10;" d="M 220.878906 185.136719 C 220.878906 170.734375 196.878906 170.734375 196.878906 185.136719 C 196.878906 199.535156 220.878906 201.933594 220.878906 213.933594 C 220.878906 201.933594 244.878906 199.535156 244.878906 185.136719 C 244.878906 170.734375 220.878906 170.734375 220.878906 185.136719 "/>
<path style="fill-rule:nonzero;fill:rgb(67%,100%,18%);fill-opacity:1;stroke-width:1;stroke-linecap:butt;stroke-linejoin:round;stroke:rgb(0%,0%,0%);stroke-opacity:1;stroke-miterlimit:10;" d="M 392.34375 432.148438 C 392.34375 417.75 368.34375 417.75 368.34375 432.148438 C 368.34375 446.546875 392.34375 448.949219 392.34375 460.949219 C 392.34375 448.949219 416.34375 446.546875 416.34375 432.148438 C 416.34375 417.75 392.34375 417.75 392.34375 432.148438 "/>
<path style="fill-rule:nonzero;fill:rgb(67%,100%,18%);fill-opacity:1;stroke-width:1;stroke-linecap:butt;stroke-linejoin:round;stroke:rgb(0%,0%,0%);stroke-opacity:1;stroke-miterlimit:10;" d="M 315.503906 425.140625 C 315.503906 410.742188 291.503906 410.742188 291.503906 425.140625 C 291.503906 439.542969 315.503906 441.941406 315.503906 453.941406 C 315.503906 441.941406 339.503906 439.542969 339.503906 425.140625 C 339.503906 410.742188 315.503906 410.742188 315.503906 425.140625 "/>
<path style="fill-rule:nonzero;fill:rgb(67%,100%,18%);fill-opacity:1;stroke-width:1;stroke-linecap:butt;stroke-linejoin:round;stroke:rgb(0%,0%,0%);stroke-opacity:1;stroke-miterlimit:10;" d="M 101.519531 454.089844 C 101.519531 439.691406 77.519531 439.691406 77.519531 454.089844 C 77.519531 468.488281 101.519531 470.890625 101.519531 482.890625 C 101.519531 470.890625 125.519531 468.488281 125.519531 454.089844 C 125.519531 439.691406 101.519531 439.691406 101.519531 454.089844 "/>
<path style="fill-rule:nonzero;fill:rgb(67%,100%,18%);fill-opacity:1;stroke-width:1;stroke-linecap:butt;stroke-linejoin:round;stroke:rgb(0%,0%,0%);stroke-opacity:1;stroke-miterlimit:10;" d="M 449.707031 205.203125 C 449.707031 190.804688 425.707031 190.804688 425.707031 205.203125 C 425.707031 219.605469 449.707031 222.003906 449.707031 234.003906 C 449.707031 222.003906 473.707031 219.605469 473.707031 205.203125 C 473.707031 190.804688 449.707031 190.804688 449.707031 205.203125 "/>
</g>
</svg>
