<?xml version="1.0" encoding="UTF-8"?>
<svg xmlns="http://www.w3.org/2000/svg" xmlns:xlink="http://www.w3.org/1999/xlink" width="517pt" height="517pt" viewBox="0 0 517 517" version="1.1">
<g id="surface1926">
<rect x="0" y="0" width="517" height="517" style="fill:rgb(90%,90%,90%);fill-opacity:1;stroke:none;"/>
<path style="fill:none;stroke-width:5;stroke-linecap:butt;stroke-linejoin:round;stroke:rgb(100%,0%,0%);stroke-opacity:1;stroke-miterlimit:10;" d="M 5 5 L 261 5 L 261 261 L 5 261 Z M 5 5 "/>
<path style="fill-rule:nonzero;fill:rgb(35%,70%,90%);fill-opacity:1;stroke-width:1;stroke-linecap:butt;stroke-linejoin:round;stroke:rgb(0%,0%,0%);stroke-opacity:1;stroke-miterlimit:10;" d="M 138.152344 214.371094 L 118.152344 214.371094 L 118.152344 224.371094 L 138.152344 224.371094 L 138.152344 244.371094 L 148.152344 244.371094 L 148.152344 224.371094 L 168.152344 224.371094 L 168.152344 214.371094 L 148.152344 214.371094 L 148.152344 194.371094 L 138.152344 194.371094 L 138.152344 214.371094 "/>
<path style="fill-rule:nonzero;fill:rgb(90%,65%,0%);fill-opacity:1;stroke-width:1;stroke-linecap:butt;stroke-linejoin:round;stroke:rgb(0%,0%,0%);stroke-opacity:1;stroke-miterlimit:10;" d="M 117.464844 301.679688 L 97.464844 301.679688 L 97.464844 311.679688 L 117.464844 311.679688 L 117.464844 331.679688 L 127.464844 331.679688 L 127.464844 311.679688 L 147.464844 311.679688 L 147.464844 301.679688 L 127.464844 301.679688 L 127.464844 281.679688 L 117.464844 281.679688 L 117.464844 301.679688 "/>
<path style="fill-rule:nonzero;fill:rgb(90%,65%,0%);fill-opacity:1;stroke-width:1;stroke-linecap:butt;stroke-linejoin:round;stroke:rgb(0%,0%,0%);stroke-opacity:1;stroke-miterlimit:10;" d="M 35.402344 402.835938 L 15.402344 402.835938 L 15.402344 412.835938 L 35.402344 412.835938 L 35.402344 432.835938 L 45.402344 432.835938 L 45.402344 412.835938 L 65.402344 412.835938 L 65.402344 402.835938 L 45.402344 402.835938 L 45.402344 382.835938 L 35.402344 382.835938 L 35.402344 402.835938 "/>
<path style="fill-rule:nonzero;fill:rgb(90%,65%,0%);fill-opacity:1;stroke-width:1;stroke-linecap:butt;stroke-linejoin:round;stroke:rgb(0%,0%,0%);stroke-opacity:1;stroke-miterlimit:10;" d="M 357.300781 186.253906 L 337.300781 186.253906 L 337.300781 196.253906 L 357.300781 196.253906 L 357.300781 216.253906 L 367.300781 216.253906 L 367.300781 196.253906 L 387.300781 196.253906 L 387.300781 186.253906 L 367.300781 186.253906 L 367.300781 166.253906 L 357.300781 166.253906 L 357.300781 186.253906 "/>
<path style="fill-rule:nonzero;fill:rgb(90%,65%,0%);fill-opacity:1;stroke-width:1;stroke-linecap:butt;stroke-linejoin:round;stroke:rgb(0%,0%,0%);stroke-opacity:1;stroke-miterlimit:10;" d="M 347.96875 94.21875 L 327.96875 94.21875 L 327.96875 104.21875 L 347.96875 104.21875 L 347.96875 124.21875 L 357.96875 124.21875 L 357.96875 104.21875 L 377.96875 104.21875 L 377.96875 94.21875 L 357.96875 94.21875 L 357.96875 74.21875 L 347.96875 74.21875 L 347.96875 94.21875 "/>
</g>
</svg>
