<?xml version="1.0" encoding="UTF-8"?>
<svg xmlns="http://www.w3.org/2000/svg" xmlns:xlink="http://www.w3.org/1999/xlink" width="517pt" height="517pt" viewBox="0 0 517 517" version="1.1">
<g id="surface1581">
<rect x="0" y="0" width="517" height="517" style="fill:rgb(90%,90%,90%);fill-opacity:1;stroke:none;"/>
<path style="fill:none;stroke-width:5;stroke-linecap:butt;stroke-linejoin:round;stroke:rgb(100%,0%,0%);stroke-opacity:1;stroke-miterlimit:10;" d="M 261 261 L 517 261 L 517 517 L 261 517 Z M 261 261 "/>
<path style="fill-rule:nonzero;fill:rgb(35%,70%,90%);fill-opacity:1;stroke-width:1;stroke-linecap:butt;stroke-linejoin:round;stroke:rgb(0%,0%,0%);stroke-opacity:1;stroke-miterlimit:10;" d="M 294.367188 402.765625 L 274.367188 402.765625 L 274.367188 412.765625 L 294.367188 412.765625 L 294.367188 432.765625 L 304.367188 432.765625 L 304.367188 412.765625 L 324.367188 412.765625 L 324.367188 402.765625 L 304.367188 402.765625 L 304.367188 382.765625 L 294.367188 382.765625 L 294.367188 402.765625 "/>
<path style="fill-rule:nonzero;fill:rgb(35%,70%,90%);fill-opacity:1;stroke-width:1;stroke-linecap:butt;stroke-linejoin:round;stroke:rgb(0%,0%,0%);stroke-opacity:1;stroke-miterlimit:10;" d="M 113.542969 74.902344 L 93.542969 74.902344 L 93.542969 84.902344 L 113.542969 84.902344 L 113.542969 104.902344 L 123.542969 104.902344 L 123.542969 84.902344 L 143.542969 84.902344 L 143.542969 74.902344 L 123.542969 74.902344 L 123.542969 54.902344 L 113.542969 54.902344 L 113.542969 74.902344 "/>
<path style="fill-rule:nonzero;fill:rgb(35%,70%,90%);fill-opacity:1;stroke-width:1;stroke-linecap:butt;stroke-linejoin:round;stroke:rgb(0%,0%,0%);stroke-opacity:1;stroke-miterlimit:10;" d="M 422.53125 159.160156 L 402.53125 159.160156 L 402.53125 169.160156 L 422.53125 169.160156 L 422.53125 189.160156 L 432.53125 189.160156 L 432.53125 169.160156 L 452.53125 169.160156 L 452.53125 159.160156 L 432.53125 159.160156 L 432.53125 139.160156 L 422.53125 139.160156 L 422.53125 159.160156 "/>
<path style="fill-rule:nonzero;fill:rgb(53%,27%,7%);fill-opacity:1;stroke-width:1;stroke-linecap:butt;stroke-linejoin:round;stroke:rgb(0%,0%,0%);stroke-opacity:1;stroke-miterlimit:10;" d="M 303.140625 68.824219 L 283.140625 68.824219 L 283.140625 78.824219 L 303.140625 78.824219 L 303.140625 98.824219 L 313.140625 98.824219 L 313.140625 78.824219 L 333.140625 78.824219 L 333.140625 68.824219 L 313.140625 68.824219 L 313.140625 48.824219 L 303.140625 48.824219 L 303.140625 68.824219 "/>
</g>
</svg>
