<?xml version="1.0" encoding="UTF-8"?>
<svg xmlns="http://www.w3.org/2000/svg" xmlns:xlink="http://www.w3.org/1999/xlink" width="517pt" height="517pt" viewBox="0 0 517 517" version="1.1">
<g id="surface2006">
<rect x="0" y="0" width="517" height="517" style="fill:rgb(90%,90%,90%);fill-opacity:1;stroke:none;"/>
<path style="fill:none;stroke-width:5;stroke-linecap:butt;stroke-linejoin:round;stroke:rgb(100%,0%,0%);stroke-opacity:1;stroke-miterlimit:10;" d="M 261 5 L 517 5 L 517 261 L 261 261 Z M 261 5 "/>
<path style="fill-rule:nonzero;fill:rgb(100%,7%,57%);fill-opacity:1;stroke-width:1;stroke-linecap:butt;stroke-linejoin:round;stroke:rgb(0%,0%,0%);stroke-opacity:1;stroke-miterlimit:10;" d="M 471.46875 167.648438 L 451.46875 167.648438 L 451.46875 177.648438 L 471.46875 177.648438 L 471.46875 197.648438 L 481.46875 197.648438 L 481.46875 177.648438 L 501.46875 177.648438 L 501.46875 167.648438 L 481.46875 167.648438 L 481.46875 147.648438 L 471.46875 147.648438 L 471.46875 167.648438 "/>
<path style="fill-rule:nonzero;fill:rgb(35%,70%,90%);fill-opacity:1;stroke-width:1;stroke-linecap:butt;stroke-linejoin:round;stroke:rgb(0%,0%,0%);stroke-opacity:1;stroke-miterlimit:10;" d="M 462.222656 423.300781 L 442.222656 423.300781 L 442.222656 433.300781 L 462.222656 433.300781 L 462.222656 453.300781 L 472.222656 453.300781 L 472.222656 433.300781 L 492.222656 433.300781 L 492.222656 423.300781 L 472.222656 423.300781 L 472.222656 403.300781 L 462.222656 403.300781 L 462.222656 423.300781 "/>
<path style="fill-rule:nonzero;fill:rgb(35%,70%,90%);fill-opacity:1;stroke-width:1;stroke-linecap:butt;stroke-linejoin:round;stroke:rgb(0%,0%,0%);stroke-opacity:1;stroke-miterlimit:10;" d="M 347.335938 401.136719 L 327.335938 401.136719 L 327.335938 411.136719 L 347.335938 411.136719 L 347.335938 431.136719 L 357.335938 431.136719 L 357.335938 411.136719 L 377.335938 411.136719 L 377.335938 401.136719 L 357.335938 401.136719 L 357.335938 381.136719 L 347.335938 381.136719 L 347.335938 401.136719 "/>
<path style="fill-rule:nonzero;fill:rgb(35%,70%,90%);fill-opacity:1;stroke-width:1;stroke-linecap:butt;stroke-linejoin:round;stroke:rgb(0%,0%,0%);stroke-opacity:1;stroke-miterlimit:10;" d="M 52.675781 299.148438 L 32.675781 299.148438 L 32.675781 309.148438 L 52.675781 309.148438 L 52.675781 329.148438 L 62.675781 329.148438 L 62.675781 309.148438 L 82.675781 309.148438 L 82.675781 299.148438 L 62.675781 299.148438 L 62.675781 279.148438 L 52.675781 279.148438 L 52.675781 299.148438 "/>
<path style="fill-rule:nonzero;fill:rgb(35%,70%,90%);fill-opacity:1;stroke-width:1;stroke-linecap:butt;stroke-linejoin:round;stroke:rgb(0%,0%,0%);stroke-opacity:1;stroke-miterlimit:10;" d="M 120.917969 158.292969 L 100.917969 158.292969 L 100.917969 168.292969 L 120.917969 168.292969 L 120.917969 188.292969 L 130.917969 188.292969 L 130.917969 168.292969 L 150.917969 168.292969 L 150.917969 158.292969 L 130.917969 158.292969 L 130.917969 138.292969 L 120.917969 138.292969 L 120.917969 158.292969 "/>
</g>
</svg>
