<?xml version="1.0" encoding="UTF-8"?>
<svg xmlns="http://www.w3.org/2000/svg" xmlns:xlink="http://www.w3.org/1999/xlink" width="517pt" height="517pt" viewBox="0 0 517 517" version="1.1">
<g id="surface1521">
<rect x="0" y="0" width="517" height="517" style="fill:rgb(90%,90%,90%);fill-opacity:1;stroke:none;"/>
<path style="fill:none;stroke-width:5;stroke-linecap:butt;stroke-linejoin:round;stroke:rgb(100%,0%,0%);stroke-opacity:1;stroke-miterlimit:10;" d="M 261 261 L 517 261 L 517 517 L 261 517 Z M 261 261 "/>
<path style="fill-rule:nonzero;fill:rgb(53%,27%,7%);fill-opacity:1;stroke-width:1;stroke-linecap:butt;stroke-linejoin:round;stroke:rgb(0%,0%,0%);stroke-opacity:1;stroke-miterlimit:10;" d="M 398.621094 412.582031 L 378.621094 412.582031 L 378.621094 422.582031 L 398.621094 422.582031 L 398.621094 442.582031 L 408.621094 442.582031 L 408.621094 422.582031 L 428.621094 422.582031 L 428.621094 412.582031 L 408.621094 412.582031 L 408.621094 392.582031 L 398.621094 392.582031 L 398.621094 412.582031 "/>
<path style="fill-rule:nonzero;fill:rgb(35%,70%,90%);fill-opacity:1;stroke-width:1;stroke-linecap:butt;stroke-linejoin:round;stroke:rgb(0%,0%,0%);stroke-opacity:1;stroke-miterlimit:10;" d="M 124.726562 348.855469 L 104.726562 348.855469 L 104.726562 358.855469 L 124.726562 358.855469 L 124.726562 378.855469 L 134.726562 378.855469 L 134.726562 358.855469 L 154.726562 358.855469 L 154.726562 348.855469 L 134.726562 348.855469 L 134.726562 328.855469 L 124.726562 328.855469 L 124.726562 348.855469 "/>
<path style="fill-rule:nonzero;fill:rgb(35%,70%,90%);fill-opacity:1;stroke-width:1;stroke-linecap:butt;stroke-linejoin:round;stroke:rgb(0%,0%,0%);stroke-opacity:1;stroke-miterlimit:10;" d="M 146.144531 157.15625 L 126.144531 157.15625 L 126.144531 167.15625 L 146.144531 167.15625 L 146.144531 187.15625 L 156.144531 187.15625 L 156.144531 167.15625 L 176.144531 167.15625 L 176.144531 157.15625 L 156.144531 157.15625 L 156.144531 137.15625 L 146.144531 137.15625 L 146.144531 157.15625 "/>
<path style="fill-rule:nonzero;fill:rgb(35%,70%,90%);fill-opacity:1;stroke-width:1;stroke-linecap:butt;stroke-linejoin:round;stroke:rgb(0%,0%,0%);stroke-opacity:1;stroke-miterlimit:10;" d="M 90.949219 199.691406 L 70.949219 199.691406 L 70.949219 209.691406 L 90.949219 209.691406 L 90.949219 229.691406 L 100.949219 229.691406 L 100.949219 209.691406 L 120.949219 209.691406 L 120.949219 199.691406 L 100.949219 199.691406 L 100.949219 179.691406 L 90.949219 179.691406 L 90.949219 199.691406 "/>
</g>
</svg>
