<?xml version="1.0" encoding="UTF-8"?>
<svg xmlns="http://www.w3.org/2000/svg" xmlns:xlink="http://www.w3.org/1999/xlink" width="517pt" height="517pt" viewBox="0 0 517 517" version="1.1">
<g id="surface2056">
<rect x="0" y="0" width="517" height="517" style="fill:rgb(90%,90%,90%);fill-opacity:1;stroke:none;"/>
<path style="fill:none;stroke-width:5;stroke-linecap:butt;stroke-linejoin:round;stroke:rgb(100%,0%,0%);stroke-opacity:1;stroke-miterlimit:10;" d="M 261 5 L 517 5 L 517 261 L 261 261 Z M 261 5 "/>
<path style="fill-rule:nonzero;fill:rgb(100%,7%,57%);fill-opacity:1;stroke-width:1;stroke-linecap:butt;stroke-linejoin:round;stroke:rgb(0%,0%,0%);stroke-opacity:1;stroke-miterlimit:10;" d="M 338.972656 82.710938 L 318.972656 82.710938 L 318.972656 92.710938 L 338.972656 92.710938 L 338.972656 112.710938 L 348.972656 112.710938 L 348.972656 92.710938 L 368.972656 92.710938 L 368.972656 82.710938 L 348.972656 82.710938 L 348.972656 62.710938 L 338.972656 62.710938 L 338.972656 82.710938 "/>
<path style="fill-rule:nonzero;fill:rgb(35%,70%,90%);fill-opacity:1;stroke-width:1;stroke-linecap:butt;stroke-linejoin:round;stroke:rgb(0%,0%,0%);stroke-opacity:1;stroke-miterlimit:10;" d="M 54.148438 181.675781 L 34.148438 181.675781 L 34.148438 191.675781 L 54.148438 191.675781 L 54.148438 211.675781 L 64.148438 211.675781 L 64.148438 191.675781 L 84.148438 191.675781 L 84.148438 181.675781 L 64.148438 181.675781 L 64.148438 161.675781 L 54.148438 161.675781 L 54.148438 181.675781 "/>
<path style="fill-rule:nonzero;fill:rgb(100%,7%,57%);fill-opacity:1;stroke-width:1;stroke-linecap:butt;stroke-linejoin:round;stroke:rgb(0%,0%,0%);stroke-opacity:1;stroke-miterlimit:10;" d="M 172.988281 333.40625 L 152.988281 333.40625 L 152.988281 343.40625 L 172.988281 343.40625 L 172.988281 363.40625 L 182.988281 363.40625 L 182.988281 343.40625 L 202.988281 343.40625 L 202.988281 333.40625 L 182.988281 333.40625 L 182.988281 313.40625 L 172.988281 313.40625 L 172.988281 333.40625 "/>
<path style="fill-rule:nonzero;fill:rgb(100%,7%,57%);fill-opacity:1;stroke-width:1;stroke-linecap:butt;stroke-linejoin:round;stroke:rgb(0%,0%,0%);stroke-opacity:1;stroke-miterlimit:10;" d="M 162.253906 402.265625 L 142.253906 402.265625 L 142.253906 412.265625 L 162.253906 412.265625 L 162.253906 432.265625 L 172.253906 432.265625 L 172.253906 412.265625 L 192.253906 412.265625 L 192.253906 402.265625 L 172.253906 402.265625 L 172.253906 382.265625 L 162.253906 382.265625 L 162.253906 402.265625 "/>
<path style="fill-rule:nonzero;fill:rgb(100%,7%,57%);fill-opacity:1;stroke-width:1;stroke-linecap:butt;stroke-linejoin:round;stroke:rgb(0%,0%,0%);stroke-opacity:1;stroke-miterlimit:10;" d="M 367.191406 414.261719 L 347.191406 414.261719 L 347.191406 424.261719 L 367.191406 424.261719 L 367.191406 444.261719 L 377.191406 444.261719 L 377.191406 424.261719 L 397.191406 424.261719 L 397.191406 414.261719 L 377.191406 414.261719 L 377.191406 394.261719 L 367.191406 394.261719 L 367.191406 414.261719 "/>
</g>
</svg>
