<?xml version="1.0" encoding="UTF-8"?>
<svg xmlns="http://www.w3.org/2000/svg" xmlns:xlink="http://www.w3.org/1999/xlink" width="517pt" height="517pt" viewBox="0 0 517 517" version="1.1">
<g id="surface1856">
<rect x="0" y="0" width="517" height="517" style="fill:rgb(90%,90%,90%);fill-opacity:1;stroke:none;"/>
<path style="fill:none;stroke-width:5;stroke-linecap:butt;stroke-linejoin:round;stroke:rgb(100%,0%,0%);stroke-opacity:1;stroke-miterlimit:10;" d="M 5 5 L 261 5 L 261 261 L 5 261 Z M 5 5 "/>
<path style="fill-rule:nonzero;fill:rgb(100%,7%,57%);fill-opacity:1;stroke-width:1;stroke-linecap:butt;stroke-linejoin:round;stroke:rgb(0%,0%,0%);stroke-opacity:1;stroke-miterlimit:10;" d="M 79.902344 78.949219 C 79.902344 64.550781 55.902344 64.550781 55.902344 78.949219 C 55.902344 93.351562 79.902344 95.75 79.902344 107.75 C 79.902344 95.75 103.902344 93.351562 103.902344 78.949219 C 103.902344 64.550781 79.902344 64.550781 79.902344 78.949219 "/>
<path style="fill-rule:nonzero;fill:rgb(67%,100%,18%);fill-opacity:1;stroke-width:1;stroke-linecap:butt;stroke-linejoin:round;stroke:rgb(0%,0%,0%);stroke-opacity:1;stroke-miterlimit:10;" d="M 314.324219 452.902344 C 314.324219 438.503906 290.324219 438.503906 290.324219 452.902344 C 290.324219 467.304688 314.324219 469.703125 314.324219 481.703125 C 314.324219 469.703125 338.324219 467.304688 338.324219 452.902344 C 338.324219 438.503906 314.324219 438.503906 314.324219 452.902344 "/>
<path style="fill-rule:nonzero;fill:rgb(67%,100%,18%);fill-opacity:1;stroke-width:1;stroke-linecap:butt;stroke-linejoin:round;stroke:rgb(0%,0%,0%);stroke-opacity:1;stroke-miterlimit:10;" d="M 46.300781 428.964844 C 46.300781 414.5625 22.300781 414.5625 22.300781 428.964844 C 22.300781 443.363281 46.300781 445.765625 46.300781 457.765625 C 46.300781 445.765625 70.300781 443.363281 70.300781 428.964844 C 70.300781 414.5625 46.300781 414.5625 46.300781 428.964844 "/>
<path style="fill-rule:nonzero;fill:rgb(67%,100%,18%);fill-opacity:1;stroke-width:1;stroke-linecap:butt;stroke-linejoin:round;stroke:rgb(0%,0%,0%);stroke-opacity:1;stroke-miterlimit:10;" d="M 117.433594 316.480469 C 117.433594 302.082031 93.433594 302.082031 93.433594 316.480469 C 93.433594 330.878906 117.433594 333.28125 117.433594 345.28125 C 117.433594 333.28125 141.433594 330.878906 141.433594 316.480469 C 141.433594 302.082031 117.433594 302.082031 117.433594 316.480469 "/>
<path style="fill-rule:nonzero;fill:rgb(67%,100%,18%);fill-opacity:1;stroke-width:1;stroke-linecap:butt;stroke-linejoin:round;stroke:rgb(0%,0%,0%);stroke-opacity:1;stroke-miterlimit:10;" d="M 183.941406 373.007812 C 183.941406 358.609375 159.941406 358.609375 159.941406 373.007812 C 159.941406 387.410156 183.941406 389.808594 183.941406 401.808594 C 183.941406 389.808594 207.941406 387.410156 207.941406 373.007812 C 207.941406 358.609375 183.941406 358.609375 183.941406 373.007812 "/>
</g>
</svg>
