<?xml version="1.0" encoding="UTF-8"?>
<svg xmlns="http://www.w3.org/2000/svg" xmlns:xlink="http://www.w3.org/1999/xlink" width="517pt" height="517pt" viewBox="0 0 517 517" version="1.1">
<g id="surface5256">
<rect x="0" y="0" width="517" height="517" style="fill:rgb(90%,90%,90%);fill-opacity:1;stroke:none;"/>
<path style="fill-rule:nonzero;fill:rgb(67%,100%,18%);fill-opacity:1;stroke-width:1;stroke-linecap:butt;stroke-linejoin:miter;stroke:rgb(0%,0%,0%);stroke-opacity:1;stroke-miterlimit:10;" d="M 249.832031 374.945312 C 249.832031 391.511719 236.402344 404.945312 219.832031 404.945312 C 203.265625 404.945312 189.832031 391.511719 189.832031 374.945312 C 189.832031 358.375 203.265625 344.945312 219.832031 344.945312 C 236.402344 344.945312 249.832031 358.375 249.832031 374.945312 "/>
<path style="fill-rule:nonzero;fill:rgb(100%,0%,0%);fill-opacity:1;stroke-width:1;stroke-linecap:butt;stroke-linejoin:miter;stroke:rgb(0%,0%,0%);stroke-opacity:1;stroke-miterlimit:10;" d="M 439.851562 104.757812 C 439.851562 121.328125 426.417969 134.757812 409.851562 134.757812 C 393.28125 134.757812 379.851562 121.328125 379.851562 104.757812 C 379.851562 88.191406 393.28125 74.757812 409.851562 74.757812 C 426.417969 74.757812 439.851562 88.191406 439.851562 104.757812 "/>
<path style="fill-rule:nonzero;fill:rgb(100%,0%,0%);fill-opacity:1;stroke-width:1;stroke-linecap:butt;stroke-linejoin:miter;stroke:rgb(0%,0%,0%);stroke-opacity:1;stroke-miterlimit:10;" d="M 332.21875 202.628906 C 332.21875 219.199219 318.789062 232.628906 302.21875 232.628906 C 285.648438 232.628906 272.21875 219.199219 272.21875 202.628906 C 272.21875 186.058594 285.648438 172.628906 302.21875 172.628906 C 318.789062 172.628906 332.21875 186.058594 332.21875 202.628906 "/>
<path style="fill-rule:nonzero;fill:rgb(100%,0%,0%);fill-opacity:1;stroke-width:1;stroke-linecap:butt;stroke-linejoin:miter;stroke:rgb(0%,0%,0%);stroke-opacity:1;stroke-miterlimit:10;" d="M 437.773438 178.742188 C 437.773438 195.308594 424.34375 208.742188 407.773438 208.742188 C 391.207031 208.742188 377.773438 195.308594 377.773438 178.742188 C 377.773438 162.171875 391.207031 148.742188 407.773438 148.742188 C 424.34375 148.742188 437.773438 162.171875 437.773438 178.742188 "/>
<path style="fill-rule:nonzero;fill:rgb(100%,0%,0%);fill-opacity:1;stroke-width:1;stroke-linecap:butt;stroke-linejoin:miter;stroke:rgb(0%,0%,0%);stroke-opacity:1;stroke-miterlimit:10;" d="M 397.851562 44.359375 C 397.851562 60.925781 384.421875 74.359375 367.851562 74.359375 C 351.285156 74.359375 337.851562 60.925781 337.851562 44.359375 C 337.851562 27.789062 351.285156 14.359375 367.851562 14.359375 C 384.421875 14.359375 397.851562 27.789062 397.851562 44.359375 "/>
<path style="fill-rule:nonzero;fill:rgb(100%,0%,0%);fill-opacity:1;stroke-width:1;stroke-linecap:butt;stroke-linejoin:miter;stroke:rgb(0%,0%,0%);stroke-opacity:1;stroke-miterlimit:10;" d="M 499.089844 203.894531 C 499.089844 220.460938 485.660156 233.894531 469.089844 233.894531 C 452.523438 233.894531 439.089844 220.460938 439.089844 203.894531 C 439.089844 187.324219 452.523438 173.894531 469.089844 173.894531 C 485.660156 173.894531 499.089844 187.324219 499.089844 203.894531 "/>
<path style="fill-rule:nonzero;fill:rgb(100%,0%,0%);fill-opacity:1;stroke-width:1;stroke-linecap:butt;stroke-linejoin:miter;stroke:rgb(0%,0%,0%);stroke-opacity:1;stroke-miterlimit:10;" d="M 482.910156 48.945312 C 482.910156 65.515625 469.480469 78.945312 452.910156 78.945312 C 436.339844 78.945312 422.910156 65.515625 422.910156 48.945312 C 422.910156 32.378906 436.339844 18.945312 452.910156 18.945312 C 469.480469 18.945312 482.910156 32.378906 482.910156 48.945312 "/>
<path style="fill-rule:nonzero;fill:rgb(100%,0%,0%);fill-opacity:1;stroke-width:1;stroke-linecap:butt;stroke-linejoin:miter;stroke:rgb(0%,0%,0%);stroke-opacity:1;stroke-miterlimit:10;" d="M 501.167969 139.839844 C 501.167969 156.410156 487.734375 169.839844 471.167969 169.839844 C 454.597656 169.839844 441.167969 156.410156 441.167969 139.839844 C 441.167969 123.273438 454.597656 109.839844 471.167969 109.839844 C 487.734375 109.839844 501.167969 123.273438 501.167969 139.839844 "/>
</g>
</svg>
