<?xml version="1.0" encoding="UTF-8"?>
<svg xmlns="http://www.w3.org/2000/svg" xmlns:xlink="http://www.w3.org/1999/xlink" width="517pt" height="517pt" viewBox="0 0 517 517" version="1.1">
<g id="surface231">
<rect x="0" y="0" width="517" height="517" style="fill:rgb(90%,90%,90%);fill-opacity:1;stroke:none;"/>
<path style="fill:none;stroke-width:5;stroke-linecap:butt;stroke-linejoin:round;stroke:rgb(100%,0%,0%);stroke-opacity:1;stroke-miterlimit:10;" d="M 5 5 L 261 5 L 261 261 L 5 261 Z M 5 5 "/>
<path style="fill-rule:nonzero;fill:rgb(0%,0%,0%);fill-opacity:1;stroke-width:1;stroke-linecap:butt;stroke-linejoin:round;stroke:rgb(0%,0%,0%);stroke-opacity:1;stroke-miterlimit:10;" d="M 176.710938 180.957031 C 176.710938 197.523438 163.28125 210.957031 146.710938 210.957031 C 130.144531 210.957031 116.710938 197.523438 116.710938 180.957031 C 116.710938 164.386719 130.144531 150.957031 146.710938 150.957031 C 163.28125 150.957031 176.710938 164.386719 176.710938 180.957031 "/>
<path style="fill-rule:nonzero;fill:rgb(0%,0%,0%);fill-opacity:1;stroke-width:1;stroke-linecap:butt;stroke-linejoin:round;stroke:rgb(0%,0%,0%);stroke-opacity:1;stroke-miterlimit:10;" d="M 501.300781 201.164062 C 501.300781 217.734375 487.871094 231.164062 471.300781 231.164062 C 454.734375 231.164062 441.300781 217.734375 441.300781 201.164062 C 441.300781 184.59375 454.734375 171.164062 471.300781 171.164062 C 487.871094 171.164062 501.300781 184.59375 501.300781 201.164062 "/>
<path style="fill-rule:nonzero;fill:rgb(100%,7%,57%);fill-opacity:1;stroke-width:1;stroke-linecap:butt;stroke-linejoin:round;stroke:rgb(0%,0%,0%);stroke-opacity:1;stroke-miterlimit:10;" d="M 446.589844 142.769531 C 446.589844 159.339844 433.15625 172.769531 416.589844 172.769531 C 400.019531 172.769531 386.589844 159.339844 386.589844 142.769531 C 386.589844 126.203125 400.019531 112.769531 416.589844 112.769531 C 433.15625 112.769531 446.589844 126.203125 446.589844 142.769531 "/>
<path style="fill-rule:nonzero;fill:rgb(100%,7%,57%);fill-opacity:1;stroke-width:1;stroke-linecap:butt;stroke-linejoin:round;stroke:rgb(0%,0%,0%);stroke-opacity:1;stroke-miterlimit:10;" d="M 463.8125 305.132812 C 463.8125 321.699219 450.382812 335.132812 433.8125 335.132812 C 417.246094 335.132812 403.8125 321.699219 403.8125 305.132812 C 403.8125 288.5625 417.246094 275.132812 433.8125 275.132812 C 450.382812 275.132812 463.8125 288.5625 463.8125 305.132812 "/>
</g>
</svg>
