<?xml version="1.0" encoding="UTF-8"?>
<svg xmlns="http://www.w3.org/2000/svg" xmlns:xlink="http://www.w3.org/1999/xlink" width="517pt" height="517pt" viewBox="0 0 517 517" version="1.1">
<g id="surface2381">
<rect x="0" y="0" width="517" height="517" style="fill:rgb(90%,90%,90%);fill-opacity:1;stroke:none;"/>
<path style="fill:none;stroke-width:5;stroke-linecap:butt;stroke-linejoin:round;stroke:rgb(100%,0%,0%);stroke-opacity:1;stroke-miterlimit:10;" d="M 261 261 L 517 261 L 517 517 L 261 517 Z M 261 261 "/>
<path style="fill-rule:nonzero;fill:rgb(67%,100%,18%);fill-opacity:1;stroke-width:1;stroke-linecap:butt;stroke-linejoin:round;stroke:rgb(0%,0%,0%);stroke-opacity:1;stroke-miterlimit:10;" d="M 353.140625 463.769531 L 333.140625 463.769531 L 333.140625 473.769531 L 353.140625 473.769531 L 353.140625 493.769531 L 363.140625 493.769531 L 363.140625 473.769531 L 383.140625 473.769531 L 383.140625 463.769531 L 363.140625 463.769531 L 363.140625 443.769531 L 353.140625 443.769531 L 353.140625 463.769531 "/>
<path style="fill-rule:nonzero;fill:rgb(67%,100%,18%);fill-opacity:1;stroke-width:1;stroke-linecap:butt;stroke-linejoin:round;stroke:rgb(0%,0%,0%);stroke-opacity:1;stroke-miterlimit:10;" d="M 42.308594 134.441406 L 22.308594 134.441406 L 22.308594 144.441406 L 42.308594 144.441406 L 42.308594 164.441406 L 52.308594 164.441406 L 52.308594 144.441406 L 72.308594 144.441406 L 72.308594 134.441406 L 52.308594 134.441406 L 52.308594 114.441406 L 42.308594 114.441406 L 42.308594 134.441406 "/>
<path style="fill-rule:nonzero;fill:rgb(67%,100%,18%);fill-opacity:1;stroke-width:1;stroke-linecap:butt;stroke-linejoin:round;stroke:rgb(0%,0%,0%);stroke-opacity:1;stroke-miterlimit:10;" d="M 100.105469 349.132812 L 80.105469 349.132812 L 80.105469 359.132812 L 100.105469 359.132812 L 100.105469 379.132812 L 110.105469 379.132812 L 110.105469 359.132812 L 130.105469 359.132812 L 130.105469 349.132812 L 110.105469 349.132812 L 110.105469 329.132812 L 100.105469 329.132812 L 100.105469 349.132812 "/>
<path style="fill-rule:nonzero;fill:rgb(67%,100%,18%);fill-opacity:1;stroke-width:1;stroke-linecap:butt;stroke-linejoin:round;stroke:rgb(0%,0%,0%);stroke-opacity:1;stroke-miterlimit:10;" d="M 182.1875 332.417969 L 162.1875 332.417969 L 162.1875 342.417969 L 182.1875 342.417969 L 182.1875 362.417969 L 192.1875 362.417969 L 192.1875 342.417969 L 212.1875 342.417969 L 212.1875 332.417969 L 192.1875 332.417969 L 192.1875 312.417969 L 182.1875 312.417969 L 182.1875 332.417969 "/>
<path style="fill-rule:nonzero;fill:rgb(100%,0%,0%);fill-opacity:1;stroke-width:1;stroke-linecap:butt;stroke-linejoin:round;stroke:rgb(0%,0%,0%);stroke-opacity:1;stroke-miterlimit:10;" d="M 118.375 470.773438 L 98.375 470.773438 L 98.375 480.773438 L 118.375 480.773438 L 118.375 500.773438 L 128.375 500.773438 L 128.375 480.773438 L 148.375 480.773438 L 148.375 470.773438 L 128.375 470.773438 L 128.375 450.773438 L 118.375 450.773438 L 118.375 470.773438 "/>
</g>
</svg>
