<?xml version="1.0" encoding="UTF-8"?>
<svg xmlns="http://www.w3.org/2000/svg" xmlns:xlink="http://www.w3.org/1999/xlink" width="517pt" height="517pt" viewBox="0 0 517 517" version="1.1">
<g id="surface5356">
<rect x="0" y="0" width="517" height="517" style="fill:rgb(90%,90%,90%);fill-opacity:1;stroke:none;"/>
<path style="fill-rule:nonzero;fill:rgb(0%,0%,0%);fill-opacity:1;stroke-width:1;stroke-linecap:butt;stroke-linejoin:miter;stroke:rgb(0%,0%,0%);stroke-opacity:1;stroke-miterlimit:10;" d="M 166.21875 385.144531 C 166.21875 401.710938 152.789062 415.144531 136.21875 415.144531 C 119.652344 415.144531 106.21875 401.710938 106.21875 385.144531 C 106.21875 368.574219 119.652344 355.144531 136.21875 355.144531 C 152.789062 355.144531 166.21875 368.574219 166.21875 385.144531 "/>
<path style="fill-rule:nonzero;fill:rgb(0%,0%,0%);fill-opacity:1;stroke-width:1;stroke-linecap:butt;stroke-linejoin:miter;stroke:rgb(0%,0%,0%);stroke-opacity:1;stroke-miterlimit:10;" d="M 382.796875 443.804688 C 382.796875 460.375 369.363281 473.804688 352.796875 473.804688 C 336.226562 473.804688 322.796875 460.375 322.796875 443.804688 C 322.796875 427.238281 336.226562 413.804688 352.796875 413.804688 C 369.363281 413.804688 382.796875 427.238281 382.796875 443.804688 "/>
<path style="fill-rule:nonzero;fill:rgb(0%,0%,0%);fill-opacity:1;stroke-width:1;stroke-linecap:butt;stroke-linejoin:miter;stroke:rgb(0%,0%,0%);stroke-opacity:1;stroke-miterlimit:10;" d="M 427.5625 352.59375 C 427.5625 369.160156 414.132812 382.59375 397.5625 382.59375 C 380.996094 382.59375 367.5625 369.160156 367.5625 352.59375 C 367.5625 336.023438 380.996094 322.59375 397.5625 322.59375 C 414.132812 322.59375 427.5625 336.023438 427.5625 352.59375 "/>
<path style="fill-rule:nonzero;fill:rgb(67%,100%,18%);fill-opacity:1;stroke-width:1;stroke-linecap:butt;stroke-linejoin:miter;stroke:rgb(0%,0%,0%);stroke-opacity:1;stroke-miterlimit:10;" d="M 439.226562 472.53125 C 439.226562 489.101562 425.792969 502.53125 409.226562 502.53125 C 392.65625 502.53125 379.226562 489.101562 379.226562 472.53125 C 379.226562 455.960938 392.65625 442.53125 409.226562 442.53125 C 425.792969 442.53125 439.226562 455.960938 439.226562 472.53125 "/>
<path style="fill-rule:nonzero;fill:rgb(67%,100%,18%);fill-opacity:1;stroke-width:1;stroke-linecap:butt;stroke-linejoin:miter;stroke:rgb(0%,0%,0%);stroke-opacity:1;stroke-miterlimit:10;" d="M 445.886719 411.820312 C 445.886719 428.390625 432.453125 441.820312 415.886719 441.820312 C 399.316406 441.820312 385.886719 428.390625 385.886719 411.820312 C 385.886719 395.253906 399.316406 381.820312 415.886719 381.820312 C 432.453125 381.820312 445.886719 395.253906 445.886719 411.820312 "/>
<path style="fill-rule:nonzero;fill:rgb(67%,100%,18%);fill-opacity:1;stroke-width:1;stroke-linecap:butt;stroke-linejoin:miter;stroke:rgb(0%,0%,0%);stroke-opacity:1;stroke-miterlimit:10;" d="M 506.191406 340.707031 C 506.191406 357.273438 492.757812 370.707031 476.191406 370.707031 C 459.621094 370.707031 446.191406 357.273438 446.191406 340.707031 C 446.191406 324.136719 459.621094 310.707031 476.191406 310.707031 C 492.757812 310.707031 506.191406 324.136719 506.191406 340.707031 "/>
<path style="fill-rule:nonzero;fill:rgb(67%,100%,18%);fill-opacity:1;stroke-width:1;stroke-linecap:butt;stroke-linejoin:miter;stroke:rgb(0%,0%,0%);stroke-opacity:1;stroke-miterlimit:10;" d="M 329.667969 365.917969 C 329.667969 382.484375 316.238281 395.917969 299.667969 395.917969 C 283.101562 395.917969 269.667969 382.484375 269.667969 365.917969 C 269.667969 349.347656 283.101562 335.917969 299.667969 335.917969 C 316.238281 335.917969 329.667969 349.347656 329.667969 365.917969 "/>
<path style="fill-rule:nonzero;fill:rgb(67%,100%,18%);fill-opacity:1;stroke-width:1;stroke-linecap:butt;stroke-linejoin:miter;stroke:rgb(0%,0%,0%);stroke-opacity:1;stroke-miterlimit:10;" d="M 226.179688 132.757812 C 226.179688 149.324219 212.746094 162.757812 196.179688 162.757812 C 179.609375 162.757812 166.179688 149.324219 166.179688 132.757812 C 166.179688 116.1875 179.609375 102.757812 196.179688 102.757812 C 212.746094 102.757812 226.179688 116.1875 226.179688 132.757812 "/>
</g>
</svg>
