<?xml version="1.0" encoding="UTF-8"?>
<svg xmlns="http://www.w3.org/2000/svg" xmlns:xlink="http://www.w3.org/1999/xlink" width="517pt" height="517pt" viewBox="0 0 517 517" version="1.1">
<g id="surface5296">
<rect x="0" y="0" width="517" height="517" style="fill:rgb(90%,90%,90%);fill-opacity:1;stroke:none;"/>
<path style="fill-rule:nonzero;fill:rgb(0%,0%,0%);fill-opacity:1;stroke-width:1;stroke-linecap:butt;stroke-linejoin:miter;stroke:rgb(0%,0%,0%);stroke-opacity:1;stroke-miterlimit:10;" d="M 125.148438 150.472656 C 125.148438 167.042969 111.714844 180.472656 95.148438 180.472656 C 78.578125 180.472656 65.148438 167.042969 65.148438 150.472656 C 65.148438 133.90625 78.578125 120.472656 95.148438 120.472656 C 111.714844 120.472656 125.148438 133.90625 125.148438 150.472656 "/>
<path style="fill-rule:nonzero;fill:rgb(67%,100%,18%);fill-opacity:1;stroke-width:1;stroke-linecap:butt;stroke-linejoin:miter;stroke:rgb(0%,0%,0%);stroke-opacity:1;stroke-miterlimit:10;" d="M 443.910156 113.390625 C 443.910156 129.957031 430.476562 143.390625 413.910156 143.390625 C 397.339844 143.390625 383.910156 129.957031 383.910156 113.390625 C 383.910156 96.820312 397.339844 83.390625 413.910156 83.390625 C 430.476562 83.390625 443.910156 96.820312 443.910156 113.390625 "/>
<path style="fill-rule:nonzero;fill:rgb(67%,100%,18%);fill-opacity:1;stroke-width:1;stroke-linecap:butt;stroke-linejoin:miter;stroke:rgb(0%,0%,0%);stroke-opacity:1;stroke-miterlimit:10;" d="M 459.136719 201.953125 C 459.136719 218.523438 445.707031 231.953125 429.136719 231.953125 C 412.570312 231.953125 399.136719 218.523438 399.136719 201.953125 C 399.136719 185.386719 412.570312 171.953125 429.136719 171.953125 C 445.707031 171.953125 459.136719 185.386719 459.136719 201.953125 "/>
<path style="fill-rule:nonzero;fill:rgb(67%,100%,18%);fill-opacity:1;stroke-width:1;stroke-linecap:butt;stroke-linejoin:miter;stroke:rgb(0%,0%,0%);stroke-opacity:1;stroke-miterlimit:10;" d="M 200.722656 292.484375 C 200.722656 309.054688 187.289062 322.484375 170.722656 322.484375 C 154.152344 322.484375 140.722656 309.054688 140.722656 292.484375 C 140.722656 275.914062 154.152344 262.484375 170.722656 262.484375 C 187.289062 262.484375 200.722656 275.914062 200.722656 292.484375 "/>
<path style="fill-rule:nonzero;fill:rgb(67%,100%,18%);fill-opacity:1;stroke-width:1;stroke-linecap:butt;stroke-linejoin:miter;stroke:rgb(0%,0%,0%);stroke-opacity:1;stroke-miterlimit:10;" d="M 232.980469 400.910156 C 232.980469 417.480469 219.546875 430.910156 202.980469 430.910156 C 186.410156 430.910156 172.980469 417.480469 172.980469 400.910156 C 172.980469 384.34375 186.410156 370.910156 202.980469 370.910156 C 219.546875 370.910156 232.980469 384.34375 232.980469 400.910156 "/>
<path style="fill-rule:nonzero;fill:rgb(67%,100%,18%);fill-opacity:1;stroke-width:1;stroke-linecap:butt;stroke-linejoin:miter;stroke:rgb(0%,0%,0%);stroke-opacity:1;stroke-miterlimit:10;" d="M 87.03125 301.324219 C 87.03125 317.894531 73.597656 331.324219 57.03125 331.324219 C 40.460938 331.324219 27.03125 317.894531 27.03125 301.324219 C 27.03125 284.757812 40.460938 271.324219 57.03125 271.324219 C 73.597656 271.324219 87.03125 284.757812 87.03125 301.324219 "/>
<path style="fill-rule:nonzero;fill:rgb(67%,100%,18%);fill-opacity:1;stroke-width:1;stroke-linecap:butt;stroke-linejoin:miter;stroke:rgb(0%,0%,0%);stroke-opacity:1;stroke-miterlimit:10;" d="M 131.6875 470.746094 C 131.6875 487.3125 118.253906 500.746094 101.6875 500.746094 C 85.117188 500.746094 71.6875 487.3125 71.6875 470.746094 C 71.6875 454.175781 85.117188 440.746094 101.6875 440.746094 C 118.253906 440.746094 131.6875 454.175781 131.6875 470.746094 "/>
<path style="fill-rule:nonzero;fill:rgb(67%,100%,18%);fill-opacity:1;stroke-width:1;stroke-linecap:butt;stroke-linejoin:miter;stroke:rgb(0%,0%,0%);stroke-opacity:1;stroke-miterlimit:10;" d="M 153.949219 399.691406 C 153.949219 416.261719 140.519531 429.691406 123.949219 429.691406 C 107.382812 429.691406 93.949219 416.261719 93.949219 399.691406 C 93.949219 383.121094 107.382812 369.691406 123.949219 369.691406 C 140.519531 369.691406 153.949219 383.121094 153.949219 399.691406 "/>
</g>
</svg>
