<?xml version="1.0" encoding="UTF-8"?>
<svg xmlns="http://www.w3.org/2000/svg" xmlns:xlink="http://www.w3.org/1999/xlink" width="517pt" height="517pt" viewBox="0 0 517 517" version="1.1">
<g id="surface2901">
<rect x="0" y="0" width="517" height="517" style="fill:rgb(90%,90%,90%);fill-opacity:1;stroke:none;"/>
<path style="fill:none;stroke-width:5;stroke-linecap:butt;stroke-linejoin:round;stroke:rgb(100%,0%,0%);stroke-opacity:1;stroke-miterlimit:10;" d="M 5 261 L 261 261 L 261 517 L 5 517 Z M 5 261 "/>
<path style="fill-rule:nonzero;fill:rgb(53%,27%,7%);fill-opacity:1;stroke-width:1;stroke-linecap:butt;stroke-linejoin:round;stroke:rgb(0%,0%,0%);stroke-opacity:1;stroke-miterlimit:10;" d="M 119.835938 456.984375 C 119.835938 473.550781 106.402344 486.984375 89.835938 486.984375 C 73.265625 486.984375 59.835938 473.550781 59.835938 456.984375 C 59.835938 440.414062 73.265625 426.984375 89.835938 426.984375 C 106.402344 426.984375 119.835938 440.414062 119.835938 456.984375 "/>
<path style="fill-rule:nonzero;fill:rgb(67%,100%,18%);fill-opacity:1;stroke-width:1;stroke-linecap:butt;stroke-linejoin:round;stroke:rgb(0%,0%,0%);stroke-opacity:1;stroke-miterlimit:10;" d="M 214.621094 194.867188 C 214.621094 211.4375 201.191406 224.867188 184.621094 224.867188 C 168.050781 224.867188 154.621094 211.4375 154.621094 194.867188 C 154.621094 178.296875 168.050781 164.867188 184.621094 164.867188 C 201.191406 164.867188 214.621094 178.296875 214.621094 194.867188 "/>
<path style="fill-rule:nonzero;fill:rgb(67%,100%,18%);fill-opacity:1;stroke-width:1;stroke-linecap:butt;stroke-linejoin:round;stroke:rgb(0%,0%,0%);stroke-opacity:1;stroke-miterlimit:10;" d="M 442.164062 142.796875 C 442.164062 159.363281 428.734375 172.796875 412.164062 172.796875 C 395.597656 172.796875 382.164062 159.363281 382.164062 142.796875 C 382.164062 126.226562 395.597656 112.796875 412.164062 112.796875 C 428.734375 112.796875 442.164062 126.226562 442.164062 142.796875 "/>
<path style="fill-rule:nonzero;fill:rgb(67%,100%,18%);fill-opacity:1;stroke-width:1;stroke-linecap:butt;stroke-linejoin:round;stroke:rgb(0%,0%,0%);stroke-opacity:1;stroke-miterlimit:10;" d="M 336.640625 215.335938 C 336.640625 231.902344 323.210938 245.335938 306.640625 245.335938 C 290.074219 245.335938 276.640625 231.902344 276.640625 215.335938 C 276.640625 198.765625 290.074219 185.335938 306.640625 185.335938 C 323.210938 185.335938 336.640625 198.765625 336.640625 215.335938 "/>
<path style="fill-rule:nonzero;fill:rgb(53%,27%,7%);fill-opacity:1;stroke-width:1;stroke-linecap:butt;stroke-linejoin:round;stroke:rgb(0%,0%,0%);stroke-opacity:1;stroke-miterlimit:10;" d="M 488.976562 219.597656 C 488.976562 236.164062 475.542969 249.597656 458.976562 249.597656 C 442.40625 249.597656 428.976562 236.164062 428.976562 219.597656 C 428.976562 203.027344 442.40625 189.597656 458.976562 189.597656 C 475.542969 189.597656 488.976562 203.027344 488.976562 219.597656 "/>
</g>
</svg>
