<?xml version="1.0" encoding="UTF-8"?>
<svg xmlns="http://www.w3.org/2000/svg" xmlns:xlink="http://www.w3.org/1999/xlink" width="517pt" height="517pt" viewBox="0 0 517 517" version="1.1">
<g id="surface3021">
<rect x="0" y="0" width="517" height="517" style="fill:rgb(90%,90%,90%);fill-opacity:1;stroke:none;"/>
<path style="fill:none;stroke-width:5;stroke-linecap:butt;stroke-linejoin:round;stroke:rgb(100%,0%,0%);stroke-opacity:1;stroke-miterlimit:10;" d="M 5 261 L 261 261 L 261 517 L 5 517 Z M 5 261 "/>
<path style="fill-rule:nonzero;fill:rgb(0%,0%,0%);fill-opacity:1;stroke-width:1;stroke-linecap:butt;stroke-linejoin:round;stroke:rgb(0%,0%,0%);stroke-opacity:1;stroke-miterlimit:10;" d="M 192.589844 323.875 L 172.589844 323.875 L 172.589844 333.875 L 192.589844 333.875 L 192.589844 353.875 L 202.589844 353.875 L 202.589844 333.875 L 222.589844 333.875 L 222.589844 323.875 L 202.589844 323.875 L 202.589844 303.875 L 192.589844 303.875 L 192.589844 323.875 "/>
<path style="fill-rule:nonzero;fill:rgb(0%,0%,0%);fill-opacity:1;stroke-width:1;stroke-linecap:butt;stroke-linejoin:round;stroke:rgb(0%,0%,0%);stroke-opacity:1;stroke-miterlimit:10;" d="M 294.214844 171.472656 L 274.214844 171.472656 L 274.214844 181.472656 L 294.214844 181.472656 L 294.214844 201.472656 L 304.214844 201.472656 L 304.214844 181.472656 L 324.214844 181.472656 L 324.214844 171.472656 L 304.214844 171.472656 L 304.214844 151.472656 L 294.214844 151.472656 L 294.214844 171.472656 "/>
<path style="fill-rule:nonzero;fill:rgb(0%,0%,0%);fill-opacity:1;stroke-width:1;stroke-linecap:butt;stroke-linejoin:round;stroke:rgb(0%,0%,0%);stroke-opacity:1;stroke-miterlimit:10;" d="M 357.839844 293.65625 L 337.839844 293.65625 L 337.839844 303.65625 L 357.839844 303.65625 L 357.839844 323.65625 L 367.839844 323.65625 L 367.839844 303.65625 L 387.839844 303.65625 L 387.839844 293.65625 L 367.839844 293.65625 L 367.839844 273.65625 L 357.839844 273.65625 L 357.839844 293.65625 "/>
<path style="fill-rule:nonzero;fill:rgb(0%,0%,0%);fill-opacity:1;stroke-width:1;stroke-linecap:butt;stroke-linejoin:round;stroke:rgb(0%,0%,0%);stroke-opacity:1;stroke-miterlimit:10;" d="M 355.164062 440.257812 L 335.164062 440.257812 L 335.164062 450.257812 L 355.164062 450.257812 L 355.164062 470.257812 L 365.164062 470.257812 L 365.164062 450.257812 L 385.164062 450.257812 L 385.164062 440.257812 L 365.164062 440.257812 L 365.164062 420.257812 L 355.164062 420.257812 L 355.164062 440.257812 "/>
<path style="fill-rule:nonzero;fill:rgb(50%,0%,50%);fill-opacity:1;stroke-width:1;stroke-linecap:butt;stroke-linejoin:round;stroke:rgb(0%,0%,0%);stroke-opacity:1;stroke-miterlimit:10;" d="M 457.671875 400.71875 L 437.671875 400.71875 L 437.671875 410.71875 L 457.671875 410.71875 L 457.671875 430.71875 L 467.671875 430.71875 L 467.671875 410.71875 L 487.671875 410.71875 L 487.671875 400.71875 L 467.671875 400.71875 L 467.671875 380.71875 L 457.671875 380.71875 L 457.671875 400.71875 "/>
</g>
</svg>
