<?xml version="1.0" encoding="UTF-8"?>
<svg xmlns="http://www.w3.org/2000/svg" xmlns:xlink="http://www.w3.org/1999/xlink" width="517pt" height="517pt" viewBox="0 0 517 517" version="1.1">
<g id="surface2921">
<rect x="0" y="0" width="517" height="517" style="fill:rgb(90%,90%,90%);fill-opacity:1;stroke:none;"/>
<path style="fill:none;stroke-width:5;stroke-linecap:butt;stroke-linejoin:round;stroke:rgb(100%,0%,0%);stroke-opacity:1;stroke-miterlimit:10;" d="M 5 261 L 261 261 L 261 517 L 5 517 Z M 5 261 "/>
<path style="fill-rule:nonzero;fill:rgb(53%,27%,7%);fill-opacity:1;stroke-width:1;stroke-linecap:butt;stroke-linejoin:round;stroke:rgb(0%,0%,0%);stroke-opacity:1;stroke-miterlimit:10;" d="M 190.503906 410.101562 C 190.503906 426.671875 177.070312 440.101562 160.503906 440.101562 C 143.933594 440.101562 130.503906 426.671875 130.503906 410.101562 C 130.503906 393.535156 143.933594 380.101562 160.503906 380.101562 C 177.070312 380.101562 190.503906 393.535156 190.503906 410.101562 "/>
<path style="fill-rule:nonzero;fill:rgb(67%,100%,18%);fill-opacity:1;stroke-width:1;stroke-linecap:butt;stroke-linejoin:round;stroke:rgb(0%,0%,0%);stroke-opacity:1;stroke-miterlimit:10;" d="M 335.246094 100.148438 C 335.246094 116.714844 321.816406 130.148438 305.246094 130.148438 C 288.679688 130.148438 275.246094 116.714844 275.246094 100.148438 C 275.246094 83.578125 288.679688 70.148438 305.246094 70.148438 C 321.816406 70.148438 335.246094 83.578125 335.246094 100.148438 "/>
<path style="fill-rule:nonzero;fill:rgb(53%,27%,7%);fill-opacity:1;stroke-width:1;stroke-linecap:butt;stroke-linejoin:round;stroke:rgb(0%,0%,0%);stroke-opacity:1;stroke-miterlimit:10;" d="M 490.296875 133.714844 C 490.296875 150.285156 476.867188 163.714844 460.296875 163.714844 C 443.730469 163.714844 430.296875 150.285156 430.296875 133.714844 C 430.296875 117.148438 443.730469 103.714844 460.296875 103.714844 C 476.867188 103.714844 490.296875 117.148438 490.296875 133.714844 "/>
<path style="fill-rule:nonzero;fill:rgb(53%,27%,7%);fill-opacity:1;stroke-width:1;stroke-linecap:butt;stroke-linejoin:round;stroke:rgb(0%,0%,0%);stroke-opacity:1;stroke-miterlimit:10;" d="M 69.554688 136.25 C 69.554688 152.820312 56.125 166.25 39.554688 166.25 C 22.988281 166.25 9.554688 152.820312 9.554688 136.25 C 9.554688 119.683594 22.988281 106.25 39.554688 106.25 C 56.125 106.25 69.554688 119.683594 69.554688 136.25 "/>
<path style="fill-rule:nonzero;fill:rgb(53%,27%,7%);fill-opacity:1;stroke-width:1;stroke-linecap:butt;stroke-linejoin:round;stroke:rgb(0%,0%,0%);stroke-opacity:1;stroke-miterlimit:10;" d="M 235.210938 198.34375 C 235.210938 214.914062 221.777344 228.34375 205.210938 228.34375 C 188.640625 228.34375 175.210938 214.914062 175.210938 198.34375 C 175.210938 181.777344 188.640625 168.34375 205.210938 168.34375 C 221.777344 168.34375 235.210938 181.777344 235.210938 198.34375 "/>
</g>
</svg>
