<?xml version="1.0" encoding="UTF-8"?>
<svg xmlns="http://www.w3.org/2000/svg" xmlns:xlink="http://www.w3.org/1999/xlink" width="517pt" height="517pt" viewBox="0 0 517 517" version="1.1">
<g id="surface2621">
<rect x="0" y="0" width="517" height="517" style="fill:rgb(90%,90%,90%);fill-opacity:1;stroke:none;"/>
<path style="fill:none;stroke-width:5;stroke-linecap:butt;stroke-linejoin:round;stroke:rgb(100%,0%,0%);stroke-opacity:1;stroke-miterlimit:10;" d="M 261 261 L 517 261 L 517 517 L 261 517 Z M 261 261 "/>
<path style="fill-rule:nonzero;fill:rgb(53%,27%,7%);fill-opacity:1;stroke-width:1;stroke-linecap:butt;stroke-linejoin:round;stroke:rgb(0%,0%,0%);stroke-opacity:1;stroke-miterlimit:10;" d="M 368.839844 333.214844 C 368.839844 349.78125 355.410156 363.214844 338.839844 363.214844 C 322.273438 363.214844 308.839844 349.78125 308.839844 333.214844 C 308.839844 316.644531 322.273438 303.214844 338.839844 303.214844 C 355.410156 303.214844 368.839844 316.644531 368.839844 333.214844 "/>
<path style="fill-rule:nonzero;fill:rgb(35%,70%,90%);fill-opacity:1;stroke-width:1;stroke-linecap:butt;stroke-linejoin:round;stroke:rgb(0%,0%,0%);stroke-opacity:1;stroke-miterlimit:10;" d="M 200.871094 98.789062 C 200.871094 115.355469 187.4375 128.789062 170.871094 128.789062 C 154.300781 128.789062 140.871094 115.355469 140.871094 98.789062 C 140.871094 82.21875 154.300781 68.789062 170.871094 68.789062 C 187.4375 68.789062 200.871094 82.21875 200.871094 98.789062 "/>
<path style="fill-rule:nonzero;fill:rgb(35%,70%,90%);fill-opacity:1;stroke-width:1;stroke-linecap:butt;stroke-linejoin:round;stroke:rgb(0%,0%,0%);stroke-opacity:1;stroke-miterlimit:10;" d="M 133.269531 220.132812 C 133.269531 236.699219 119.839844 250.132812 103.269531 250.132812 C 86.703125 250.132812 73.269531 236.699219 73.269531 220.132812 C 73.269531 203.5625 86.703125 190.132812 103.269531 190.132812 C 119.839844 190.132812 133.269531 203.5625 133.269531 220.132812 "/>
<path style="fill-rule:nonzero;fill:rgb(35%,70%,90%);fill-opacity:1;stroke-width:1;stroke-linecap:butt;stroke-linejoin:round;stroke:rgb(0%,0%,0%);stroke-opacity:1;stroke-miterlimit:10;" d="M 461.394531 87.898438 C 461.394531 104.464844 447.964844 117.898438 431.394531 117.898438 C 414.824219 117.898438 401.394531 104.464844 401.394531 87.898438 C 401.394531 71.328125 414.824219 57.898438 431.394531 57.898438 C 447.964844 57.898438 461.394531 71.328125 461.394531 87.898438 "/>
<path style="fill-rule:nonzero;fill:rgb(90%,65%,0%);fill-opacity:1;stroke-width:1;stroke-linecap:butt;stroke-linejoin:round;stroke:rgb(0%,0%,0%);stroke-opacity:1;stroke-miterlimit:10;" d="M 363.625 104.6875 C 363.625 121.253906 350.191406 134.6875 333.625 134.6875 C 317.054688 134.6875 303.625 121.253906 303.625 104.6875 C 303.625 88.117188 317.054688 74.6875 333.625 74.6875 C 350.191406 74.6875 363.625 88.117188 363.625 104.6875 "/>
</g>
</svg>
