<?xml version="1.0" encoding="UTF-8"?>
<svg xmlns="http://www.w3.org/2000/svg" xmlns:xlink="http://www.w3.org/1999/xlink" width="517pt" height="517pt" viewBox="0 0 517 517" version="1.1">
<g id="surface3036">
<rect x="0" y="0" width="517" height="517" style="fill:rgb(90%,90%,90%);fill-opacity:1;stroke:none;"/>
<path style="fill:none;stroke-width:5;stroke-linecap:butt;stroke-linejoin:round;stroke:rgb(100%,0%,0%);stroke-opacity:1;stroke-miterlimit:10;" d="M 5 261 L 261 261 L 261 517 L 5 517 Z M 5 261 "/>
<path style="fill-rule:nonzero;fill:rgb(0%,0%,0%);fill-opacity:1;stroke-width:1;stroke-linecap:butt;stroke-linejoin:round;stroke:rgb(0%,0%,0%);stroke-opacity:1;stroke-miterlimit:10;" d="M 152.691406 413.878906 L 132.691406 413.878906 L 132.691406 423.878906 L 152.691406 423.878906 L 152.691406 443.878906 L 162.691406 443.878906 L 162.691406 423.878906 L 182.691406 423.878906 L 182.691406 413.878906 L 162.691406 413.878906 L 162.691406 393.878906 L 152.691406 393.878906 L 152.691406 413.878906 "/>
<path style="fill-rule:nonzero;fill:rgb(0%,0%,0%);fill-opacity:1;stroke-width:1;stroke-linecap:butt;stroke-linejoin:round;stroke:rgb(0%,0%,0%);stroke-opacity:1;stroke-miterlimit:10;" d="M 425.363281 457.886719 L 405.363281 457.886719 L 405.363281 467.886719 L 425.363281 467.886719 L 425.363281 487.886719 L 435.363281 487.886719 L 435.363281 467.886719 L 455.363281 467.886719 L 455.363281 457.886719 L 435.363281 457.886719 L 435.363281 437.886719 L 425.363281 437.886719 L 425.363281 457.886719 "/>
<path style="fill-rule:nonzero;fill:rgb(0%,0%,0%);fill-opacity:1;stroke-width:1;stroke-linecap:butt;stroke-linejoin:round;stroke:rgb(0%,0%,0%);stroke-opacity:1;stroke-miterlimit:10;" d="M 436.667969 382.988281 L 416.667969 382.988281 L 416.667969 392.988281 L 436.667969 392.988281 L 436.667969 412.988281 L 446.667969 412.988281 L 446.667969 392.988281 L 466.667969 392.988281 L 466.667969 382.988281 L 446.667969 382.988281 L 446.667969 362.988281 L 436.667969 362.988281 L 436.667969 382.988281 "/>
<path style="fill-rule:nonzero;fill:rgb(0%,0%,0%);fill-opacity:1;stroke-width:1;stroke-linecap:butt;stroke-linejoin:round;stroke:rgb(0%,0%,0%);stroke-opacity:1;stroke-miterlimit:10;" d="M 345.792969 124.664062 L 325.792969 124.664062 L 325.792969 134.664062 L 345.792969 134.664062 L 345.792969 154.664062 L 355.792969 154.664062 L 355.792969 134.664062 L 375.792969 134.664062 L 375.792969 124.664062 L 355.792969 124.664062 L 355.792969 104.664062 L 345.792969 104.664062 L 345.792969 124.664062 "/>
<path style="fill-rule:nonzero;fill:rgb(50%,0%,50%);fill-opacity:1;stroke-width:1;stroke-linecap:butt;stroke-linejoin:round;stroke:rgb(0%,0%,0%);stroke-opacity:1;stroke-miterlimit:10;" d="M 312.628906 196.339844 L 292.628906 196.339844 L 292.628906 206.339844 L 312.628906 206.339844 L 312.628906 226.339844 L 322.628906 226.339844 L 322.628906 206.339844 L 342.628906 206.339844 L 342.628906 196.339844 L 322.628906 196.339844 L 322.628906 176.339844 L 312.628906 176.339844 L 312.628906 196.339844 "/>
</g>
</svg>
