<?xml version="1.0" encoding="UTF-8"?>
<svg xmlns="http://www.w3.org/2000/svg" xmlns:xlink="http://www.w3.org/1999/xlink" width="517pt" height="517pt" viewBox="0 0 517 517" version="1.1">
<g id="surface5346">
<rect x="0" y="0" width="517" height="517" style="fill:rgb(90%,90%,90%);fill-opacity:1;stroke:none;"/>
<path style="fill-rule:nonzero;fill:rgb(0%,0%,0%);fill-opacity:1;stroke-width:1;stroke-linecap:butt;stroke-linejoin:miter;stroke:rgb(0%,0%,0%);stroke-opacity:1;stroke-miterlimit:10;" d="M 194.9375 130.9375 C 194.9375 147.507812 181.503906 160.9375 164.9375 160.9375 C 148.367188 160.9375 134.9375 147.507812 134.9375 130.9375 C 134.9375 114.371094 148.367188 100.9375 164.9375 100.9375 C 181.503906 100.9375 194.9375 114.371094 194.9375 130.9375 "/>
<path style="fill-rule:nonzero;fill:rgb(0%,0%,0%);fill-opacity:1;stroke-width:1;stroke-linecap:butt;stroke-linejoin:miter;stroke:rgb(0%,0%,0%);stroke-opacity:1;stroke-miterlimit:10;" d="M 331.8125 80.066406 C 331.8125 96.636719 318.382812 110.066406 301.8125 110.066406 C 285.246094 110.066406 271.8125 96.636719 271.8125 80.066406 C 271.8125 63.5 285.246094 50.066406 301.8125 50.066406 C 318.382812 50.066406 331.8125 63.5 331.8125 80.066406 "/>
<path style="fill-rule:nonzero;fill:rgb(67%,100%,18%);fill-opacity:1;stroke-width:1;stroke-linecap:butt;stroke-linejoin:miter;stroke:rgb(0%,0%,0%);stroke-opacity:1;stroke-miterlimit:10;" d="M 352.914062 167.171875 C 352.914062 183.742188 339.484375 197.171875 322.914062 197.171875 C 306.347656 197.171875 292.914062 183.742188 292.914062 167.171875 C 292.914062 150.605469 306.347656 137.171875 322.914062 137.171875 C 339.484375 137.171875 352.914062 150.605469 352.914062 167.171875 "/>
<path style="fill-rule:nonzero;fill:rgb(67%,100%,18%);fill-opacity:1;stroke-width:1;stroke-linecap:butt;stroke-linejoin:miter;stroke:rgb(0%,0%,0%);stroke-opacity:1;stroke-miterlimit:10;" d="M 410.296875 111.253906 C 410.296875 127.824219 396.867188 141.253906 380.296875 141.253906 C 363.730469 141.253906 350.296875 127.824219 350.296875 111.253906 C 350.296875 94.6875 363.730469 81.253906 380.296875 81.253906 C 396.867188 81.253906 410.296875 94.6875 410.296875 111.253906 "/>
<path style="fill-rule:nonzero;fill:rgb(67%,100%,18%);fill-opacity:1;stroke-width:1;stroke-linecap:butt;stroke-linejoin:miter;stroke:rgb(0%,0%,0%);stroke-opacity:1;stroke-miterlimit:10;" d="M 390.6875 44.964844 C 390.6875 61.53125 377.253906 74.964844 360.6875 74.964844 C 344.117188 74.964844 330.6875 61.53125 330.6875 44.964844 C 330.6875 28.394531 344.117188 14.964844 360.6875 14.964844 C 377.253906 14.964844 390.6875 28.394531 390.6875 44.964844 "/>
<path style="fill-rule:nonzero;fill:rgb(67%,100%,18%);fill-opacity:1;stroke-width:1;stroke-linecap:butt;stroke-linejoin:miter;stroke:rgb(0%,0%,0%);stroke-opacity:1;stroke-miterlimit:10;" d="M 451.59375 186.027344 C 451.59375 202.59375 438.160156 216.027344 421.59375 216.027344 C 405.023438 216.027344 391.59375 202.59375 391.59375 186.027344 C 391.59375 169.457031 405.023438 156.027344 421.59375 156.027344 C 438.160156 156.027344 451.59375 169.457031 451.59375 186.027344 "/>
<path style="fill-rule:nonzero;fill:rgb(67%,100%,18%);fill-opacity:1;stroke-width:1;stroke-linecap:butt;stroke-linejoin:miter;stroke:rgb(0%,0%,0%);stroke-opacity:1;stroke-miterlimit:10;" d="M 193.902344 450.507812 C 193.902344 467.074219 180.46875 480.507812 163.902344 480.507812 C 147.332031 480.507812 133.902344 467.074219 133.902344 450.507812 C 133.902344 433.9375 147.332031 420.507812 163.902344 420.507812 C 180.46875 420.507812 193.902344 433.9375 193.902344 450.507812 "/>
<path style="fill-rule:nonzero;fill:rgb(67%,100%,18%);fill-opacity:1;stroke-width:1;stroke-linecap:butt;stroke-linejoin:miter;stroke:rgb(0%,0%,0%);stroke-opacity:1;stroke-miterlimit:10;" d="M 234.882812 350.453125 C 234.882812 367.019531 221.453125 380.453125 204.882812 380.453125 C 188.316406 380.453125 174.882812 367.019531 174.882812 350.453125 C 174.882812 333.882812 188.316406 320.453125 204.882812 320.453125 C 221.453125 320.453125 234.882812 333.882812 234.882812 350.453125 "/>
</g>
</svg>
