<?xml version="1.0" encoding="UTF-8"?>
<svg xmlns="http://www.w3.org/2000/svg" xmlns:xlink="http://www.w3.org/1999/xlink" width="517pt" height="517pt" viewBox="0 0 517 517" version="1.1">
<g id="surface2396">
<rect x="0" y="0" width="517" height="517" style="fill:rgb(90%,90%,90%);fill-opacity:1;stroke:none;"/>
<path style="fill:none;stroke-width:5;stroke-linecap:butt;stroke-linejoin:round;stroke:rgb(100%,0%,0%);stroke-opacity:1;stroke-miterlimit:10;" d="M 261 261 L 517 261 L 517 517 L 261 517 Z M 261 261 "/>
<path style="fill-rule:nonzero;fill:rgb(67%,100%,18%);fill-opacity:1;stroke-width:1;stroke-linecap:butt;stroke-linejoin:round;stroke:rgb(0%,0%,0%);stroke-opacity:1;stroke-miterlimit:10;" d="M 313.03125 412.335938 L 293.03125 412.335938 L 293.03125 422.335938 L 313.03125 422.335938 L 313.03125 442.335938 L 323.03125 442.335938 L 323.03125 422.335938 L 343.03125 422.335938 L 343.03125 412.335938 L 323.03125 412.335938 L 323.03125 392.335938 L 313.03125 392.335938 L 313.03125 412.335938 "/>
<path style="fill-rule:nonzero;fill:rgb(67%,100%,18%);fill-opacity:1;stroke-width:1;stroke-linecap:butt;stroke-linejoin:round;stroke:rgb(0%,0%,0%);stroke-opacity:1;stroke-miterlimit:10;" d="M 375.277344 129.644531 L 355.277344 129.644531 L 355.277344 139.644531 L 375.277344 139.644531 L 375.277344 159.644531 L 385.277344 159.644531 L 385.277344 139.644531 L 405.277344 139.644531 L 405.277344 129.644531 L 385.277344 129.644531 L 385.277344 109.644531 L 375.277344 109.644531 L 375.277344 129.644531 "/>
<path style="fill-rule:nonzero;fill:rgb(67%,100%,18%);fill-opacity:1;stroke-width:1;stroke-linecap:butt;stroke-linejoin:round;stroke:rgb(0%,0%,0%);stroke-opacity:1;stroke-miterlimit:10;" d="M 299.417969 171.417969 L 279.417969 171.417969 L 279.417969 181.417969 L 299.417969 181.417969 L 299.417969 201.417969 L 309.417969 201.417969 L 309.417969 181.417969 L 329.417969 181.417969 L 329.417969 171.417969 L 309.417969 171.417969 L 309.417969 151.417969 L 299.417969 151.417969 L 299.417969 171.417969 "/>
<path style="fill-rule:nonzero;fill:rgb(67%,100%,18%);fill-opacity:1;stroke-width:1;stroke-linecap:butt;stroke-linejoin:round;stroke:rgb(0%,0%,0%);stroke-opacity:1;stroke-miterlimit:10;" d="M 115.144531 469.484375 L 95.144531 469.484375 L 95.144531 479.484375 L 115.144531 479.484375 L 115.144531 499.484375 L 125.144531 499.484375 L 125.144531 479.484375 L 145.144531 479.484375 L 145.144531 469.484375 L 125.144531 469.484375 L 125.144531 449.484375 L 115.144531 449.484375 L 115.144531 469.484375 "/>
<path style="fill-rule:nonzero;fill:rgb(100%,0%,0%);fill-opacity:1;stroke-width:1;stroke-linecap:butt;stroke-linejoin:round;stroke:rgb(0%,0%,0%);stroke-opacity:1;stroke-miterlimit:10;" d="M 176.535156 212.4375 L 156.535156 212.4375 L 156.535156 222.4375 L 176.535156 222.4375 L 176.535156 242.4375 L 186.535156 242.4375 L 186.535156 222.4375 L 206.535156 222.4375 L 206.535156 212.4375 L 186.535156 212.4375 L 186.535156 192.4375 L 176.535156 192.4375 L 176.535156 212.4375 "/>
</g>
</svg>
