<?xml version="1.0" encoding="UTF-8"?>
<svg xmlns="http://www.w3.org/2000/svg" xmlns:xlink="http://www.w3.org/1999/xlink" width="517pt" height="517pt" viewBox="0 0 517 517" version="1.1">
<g id="surface2911">
<rect x="0" y="0" width="517" height="517" style="fill:rgb(90%,90%,90%);fill-opacity:1;stroke:none;"/>
<path style="fill:none;stroke-width:5;stroke-linecap:butt;stroke-linejoin:round;stroke:rgb(100%,0%,0%);stroke-opacity:1;stroke-miterlimit:10;" d="M 5 261 L 261 261 L 261 517 L 5 517 Z M 5 261 "/>
<path style="fill-rule:nonzero;fill:rgb(53%,27%,7%);fill-opacity:1;stroke-width:1;stroke-linecap:butt;stroke-linejoin:round;stroke:rgb(0%,0%,0%);stroke-opacity:1;stroke-miterlimit:10;" d="M 130.558594 403.390625 C 130.558594 419.960938 117.128906 433.390625 100.558594 433.390625 C 83.992188 433.390625 70.558594 419.960938 70.558594 403.390625 C 70.558594 386.820312 83.992188 373.390625 100.558594 373.390625 C 117.128906 373.390625 130.558594 386.820312 130.558594 403.390625 "/>
<path style="fill-rule:nonzero;fill:rgb(67%,100%,18%);fill-opacity:1;stroke-width:1;stroke-linecap:butt;stroke-linejoin:round;stroke:rgb(0%,0%,0%);stroke-opacity:1;stroke-miterlimit:10;" d="M 179.101562 152.097656 C 179.101562 168.667969 165.671875 182.097656 149.101562 182.097656 C 132.53125 182.097656 119.101562 168.667969 119.101562 152.097656 C 119.101562 135.527344 132.53125 122.097656 149.101562 122.097656 C 165.671875 122.097656 179.101562 135.527344 179.101562 152.097656 "/>
<path style="fill-rule:nonzero;fill:rgb(67%,100%,18%);fill-opacity:1;stroke-width:1;stroke-linecap:butt;stroke-linejoin:round;stroke:rgb(0%,0%,0%);stroke-opacity:1;stroke-miterlimit:10;" d="M 421.488281 110.730469 C 421.488281 127.300781 408.054688 140.730469 391.488281 140.730469 C 374.917969 140.730469 361.488281 127.300781 361.488281 110.730469 C 361.488281 94.160156 374.917969 80.730469 391.488281 80.730469 C 408.054688 80.730469 421.488281 94.160156 421.488281 110.730469 "/>
<path style="fill-rule:nonzero;fill:rgb(67%,100%,18%);fill-opacity:1;stroke-width:1;stroke-linecap:butt;stroke-linejoin:round;stroke:rgb(0%,0%,0%);stroke-opacity:1;stroke-miterlimit:10;" d="M 381.292969 60.667969 C 381.292969 77.234375 367.863281 90.667969 351.292969 90.667969 C 334.726562 90.667969 321.292969 77.234375 321.292969 60.667969 C 321.292969 44.097656 334.726562 30.667969 351.292969 30.667969 C 367.863281 30.667969 381.292969 44.097656 381.292969 60.667969 "/>
<path style="fill-rule:nonzero;fill:rgb(53%,27%,7%);fill-opacity:1;stroke-width:1;stroke-linecap:butt;stroke-linejoin:round;stroke:rgb(0%,0%,0%);stroke-opacity:1;stroke-miterlimit:10;" d="M 461.308594 180.4375 C 461.308594 197.007812 447.878906 210.4375 431.308594 210.4375 C 414.742188 210.4375 401.308594 197.007812 401.308594 180.4375 C 401.308594 163.871094 414.742188 150.4375 431.308594 150.4375 C 447.878906 150.4375 461.308594 163.871094 461.308594 180.4375 "/>
</g>
</svg>
