<?xml version="1.0" encoding="UTF-8"?>
<svg xmlns="http://www.w3.org/2000/svg" xmlns:xlink="http://www.w3.org/1999/xlink" width="517pt" height="517pt" viewBox="0 0 517 517" version="1.1">
<g id="surface191">
<rect x="0" y="0" width="517" height="517" style="fill:rgb(90%,90%,90%);fill-opacity:1;stroke:none;"/>
<path style="fill:none;stroke-width:5;stroke-linecap:butt;stroke-linejoin:round;stroke:rgb(100%,0%,0%);stroke-opacity:1;stroke-miterlimit:10;" d="M 5 5 L 261 5 L 261 261 L 5 261 Z M 5 5 "/>
<path style="fill-rule:nonzero;fill:rgb(100%,7%,57%);fill-opacity:1;stroke-width:1;stroke-linecap:butt;stroke-linejoin:round;stroke:rgb(0%,0%,0%);stroke-opacity:1;stroke-miterlimit:10;" d="M 164.945312 217.816406 C 164.945312 234.382812 151.511719 247.816406 134.945312 247.816406 C 118.375 247.816406 104.945312 234.382812 104.945312 217.816406 C 104.945312 201.246094 118.375 187.816406 134.945312 187.816406 C 151.511719 187.816406 164.945312 201.246094 164.945312 217.816406 "/>
<path style="fill-rule:nonzero;fill:rgb(0%,0%,0%);fill-opacity:1;stroke-width:1;stroke-linecap:butt;stroke-linejoin:round;stroke:rgb(0%,0%,0%);stroke-opacity:1;stroke-miterlimit:10;" d="M 249.128906 420.414062 C 249.128906 436.984375 235.699219 450.414062 219.128906 450.414062 C 202.5625 450.414062 189.128906 436.984375 189.128906 420.414062 C 189.128906 403.847656 202.5625 390.414062 219.128906 390.414062 C 235.699219 390.414062 249.128906 403.847656 249.128906 420.414062 "/>
<path style="fill-rule:nonzero;fill:rgb(0%,0%,0%);fill-opacity:1;stroke-width:1;stroke-linecap:butt;stroke-linejoin:round;stroke:rgb(0%,0%,0%);stroke-opacity:1;stroke-miterlimit:10;" d="M 493.179688 179.925781 C 493.179688 196.492188 479.746094 209.925781 463.179688 209.925781 C 446.609375 209.925781 433.179688 196.492188 433.179688 179.925781 C 433.179688 163.355469 446.609375 149.925781 463.179688 149.925781 C 479.746094 149.925781 493.179688 163.355469 493.179688 179.925781 "/>
<path style="fill-rule:nonzero;fill:rgb(100%,7%,57%);fill-opacity:1;stroke-width:1;stroke-linecap:butt;stroke-linejoin:round;stroke:rgb(0%,0%,0%);stroke-opacity:1;stroke-miterlimit:10;" d="M 382.460938 53.8125 C 382.460938 70.378906 369.027344 83.8125 352.460938 83.8125 C 335.890625 83.8125 322.460938 70.378906 322.460938 53.8125 C 322.460938 37.242188 335.890625 23.8125 352.460938 23.8125 C 369.027344 23.8125 382.460938 37.242188 382.460938 53.8125 "/>
</g>
</svg>
