<?xml version="1.0" encoding="UTF-8"?>
<svg xmlns="http://www.w3.org/2000/svg" xmlns:xlink="http://www.w3.org/1999/xlink" width="517pt" height="517pt" viewBox="0 0 517 517" version="1.1">
<g id="surface2961">
<rect x="0" y="0" width="517" height="517" style="fill:rgb(90%,90%,90%);fill-opacity:1;stroke:none;"/>
<path style="fill:none;stroke-width:5;stroke-linecap:butt;stroke-linejoin:round;stroke:rgb(100%,0%,0%);stroke-opacity:1;stroke-miterlimit:10;" d="M 5 261 L 261 261 L 261 517 L 5 517 Z M 5 261 "/>
<path style="fill-rule:nonzero;fill:rgb(50%,0%,50%);fill-opacity:1;stroke-width:1;stroke-linecap:butt;stroke-linejoin:round;stroke:rgb(0%,0%,0%);stroke-opacity:1;stroke-miterlimit:10;" d="M 155.582031 299.578125 L 135.582031 299.578125 L 135.582031 309.578125 L 155.582031 309.578125 L 155.582031 329.578125 L 165.582031 329.578125 L 165.582031 309.578125 L 185.582031 309.578125 L 185.582031 299.578125 L 165.582031 299.578125 L 165.582031 279.578125 L 155.582031 279.578125 L 155.582031 299.578125 "/>
<path style="fill-rule:nonzero;fill:rgb(0%,0%,0%);fill-opacity:1;stroke-width:1;stroke-linecap:butt;stroke-linejoin:round;stroke:rgb(0%,0%,0%);stroke-opacity:1;stroke-miterlimit:10;" d="M 379.65625 456.667969 L 359.65625 456.667969 L 359.65625 466.667969 L 379.65625 466.667969 L 379.65625 486.667969 L 389.65625 486.667969 L 389.65625 466.667969 L 409.65625 466.667969 L 409.65625 456.667969 L 389.65625 456.667969 L 389.65625 436.667969 L 379.65625 436.667969 L 379.65625 456.667969 "/>
<path style="fill-rule:nonzero;fill:rgb(0%,0%,0%);fill-opacity:1;stroke-width:1;stroke-linecap:butt;stroke-linejoin:round;stroke:rgb(0%,0%,0%);stroke-opacity:1;stroke-miterlimit:10;" d="M 435.511719 38.585938 L 415.511719 38.585938 L 415.511719 48.585938 L 435.511719 48.585938 L 435.511719 68.585938 L 445.511719 68.585938 L 445.511719 48.585938 L 465.511719 48.585938 L 465.511719 38.585938 L 445.511719 38.585938 L 445.511719 18.585938 L 435.511719 18.585938 L 435.511719 38.585938 "/>
<path style="fill-rule:nonzero;fill:rgb(0%,0%,0%);fill-opacity:1;stroke-width:1;stroke-linecap:butt;stroke-linejoin:round;stroke:rgb(0%,0%,0%);stroke-opacity:1;stroke-miterlimit:10;" d="M 71.871094 137.527344 L 51.871094 137.527344 L 51.871094 147.527344 L 71.871094 147.527344 L 71.871094 167.527344 L 81.871094 167.527344 L 81.871094 147.527344 L 101.871094 147.527344 L 101.871094 137.527344 L 81.871094 137.527344 L 81.871094 117.527344 L 71.871094 117.527344 L 71.871094 137.527344 "/>
<path style="fill-rule:nonzero;fill:rgb(0%,0%,0%);fill-opacity:1;stroke-width:1;stroke-linecap:butt;stroke-linejoin:round;stroke:rgb(0%,0%,0%);stroke-opacity:1;stroke-miterlimit:10;" d="M 201.265625 203.710938 L 181.265625 203.710938 L 181.265625 213.710938 L 201.265625 213.710938 L 201.265625 233.710938 L 211.265625 233.710938 L 211.265625 213.710938 L 231.265625 213.710938 L 231.265625 203.710938 L 211.265625 203.710938 L 211.265625 183.710938 L 201.265625 183.710938 L 201.265625 203.710938 "/>
</g>
</svg>
