<?xml version="1.0" encoding="UTF-8"?>
<svg xmlns="http://www.w3.org/2000/svg" xmlns:xlink="http://www.w3.org/1999/xlink" width="517pt" height="517pt" viewBox="0 0 517 517" version="1.1">
<g id="surface2646">
<rect x="0" y="0" width="517" height="517" style="fill:rgb(90%,90%,90%);fill-opacity:1;stroke:none;"/>
<path style="fill:none;stroke-width:5;stroke-linecap:butt;stroke-linejoin:round;stroke:rgb(100%,0%,0%);stroke-opacity:1;stroke-miterlimit:10;" d="M 261 261 L 517 261 L 517 517 L 261 517 Z M 261 261 "/>
<path style="fill-rule:nonzero;fill:rgb(67%,100%,18%);fill-opacity:1;stroke-width:1;stroke-linecap:butt;stroke-linejoin:round;stroke:rgb(0%,0%,0%);stroke-opacity:1;stroke-miterlimit:10;" d="M 323.847656 298.539062 L 303.847656 298.539062 L 303.847656 308.539062 L 323.847656 308.539062 L 323.847656 328.539062 L 333.847656 328.539062 L 333.847656 308.539062 L 353.847656 308.539062 L 353.847656 298.539062 L 333.847656 298.539062 L 333.847656 278.539062 L 323.847656 278.539062 L 323.847656 298.539062 "/>
<path style="fill-rule:nonzero;fill:rgb(50%,0%,50%);fill-opacity:1;stroke-width:1;stroke-linecap:butt;stroke-linejoin:round;stroke:rgb(0%,0%,0%);stroke-opacity:1;stroke-miterlimit:10;" d="M 328.472656 149.914062 L 308.472656 149.914062 L 308.472656 159.914062 L 328.472656 159.914062 L 328.472656 179.914062 L 338.472656 179.914062 L 338.472656 159.914062 L 358.472656 159.914062 L 358.472656 149.914062 L 338.472656 149.914062 L 338.472656 129.914062 L 328.472656 129.914062 L 328.472656 149.914062 "/>
<path style="fill-rule:nonzero;fill:rgb(50%,0%,50%);fill-opacity:1;stroke-width:1;stroke-linecap:butt;stroke-linejoin:round;stroke:rgb(0%,0%,0%);stroke-opacity:1;stroke-miterlimit:10;" d="M 297.722656 41.359375 L 277.722656 41.359375 L 277.722656 51.359375 L 297.722656 51.359375 L 297.722656 71.359375 L 307.722656 71.359375 L 307.722656 51.359375 L 327.722656 51.359375 L 327.722656 41.359375 L 307.722656 41.359375 L 307.722656 21.359375 L 297.722656 21.359375 L 297.722656 41.359375 "/>
<path style="fill-rule:nonzero;fill:rgb(50%,0%,50%);fill-opacity:1;stroke-width:1;stroke-linecap:butt;stroke-linejoin:round;stroke:rgb(0%,0%,0%);stroke-opacity:1;stroke-miterlimit:10;" d="M 151.042969 79.589844 L 131.042969 79.589844 L 131.042969 89.589844 L 151.042969 89.589844 L 151.042969 109.589844 L 161.042969 109.589844 L 161.042969 89.589844 L 181.042969 89.589844 L 181.042969 79.589844 L 161.042969 79.589844 L 161.042969 59.589844 L 151.042969 59.589844 L 151.042969 79.589844 "/>
<path style="fill-rule:nonzero;fill:rgb(50%,0%,50%);fill-opacity:1;stroke-width:1;stroke-linecap:butt;stroke-linejoin:round;stroke:rgb(0%,0%,0%);stroke-opacity:1;stroke-miterlimit:10;" d="M 177.777344 417.289062 L 157.777344 417.289062 L 157.777344 427.289062 L 177.777344 427.289062 L 177.777344 447.289062 L 187.777344 447.289062 L 187.777344 427.289062 L 207.777344 427.289062 L 207.777344 417.289062 L 187.777344 417.289062 L 187.777344 397.289062 L 177.777344 397.289062 L 177.777344 417.289062 "/>
</g>
</svg>
