<?xml version="1.0" encoding="UTF-8"?>
<svg xmlns="http://www.w3.org/2000/svg" xmlns:xlink="http://www.w3.org/1999/xlink" width="517pt" height="517pt" viewBox="0 0 517 517" version="1.1">
<g id="surface2581">
<rect x="0" y="0" width="517" height="517" style="fill:rgb(90%,90%,90%);fill-opacity:1;stroke:none;"/>
<path style="fill:none;stroke-width:5;stroke-linecap:butt;stroke-linejoin:round;stroke:rgb(100%,0%,0%);stroke-opacity:1;stroke-miterlimit:10;" d="M 261 261 L 517 261 L 517 517 L 261 517 Z M 261 261 "/>
<path style="fill-rule:nonzero;fill:rgb(90%,65%,0%);fill-opacity:1;stroke-width:1;stroke-linecap:butt;stroke-linejoin:round;stroke:rgb(0%,0%,0%);stroke-opacity:1;stroke-miterlimit:10;" d="M 337.332031 349.863281 C 337.332031 366.433594 323.898438 379.863281 307.332031 379.863281 C 290.761719 379.863281 277.332031 366.433594 277.332031 349.863281 C 277.332031 333.296875 290.761719 319.863281 307.332031 319.863281 C 323.898438 319.863281 337.332031 333.296875 337.332031 349.863281 "/>
<path style="fill-rule:nonzero;fill:rgb(35%,70%,90%);fill-opacity:1;stroke-width:1;stroke-linecap:butt;stroke-linejoin:round;stroke:rgb(0%,0%,0%);stroke-opacity:1;stroke-miterlimit:10;" d="M 85.304688 212.558594 C 85.304688 229.125 71.871094 242.558594 55.304688 242.558594 C 38.734375 242.558594 25.304688 229.125 25.304688 212.558594 C 25.304688 195.988281 38.734375 182.558594 55.304688 182.558594 C 71.871094 182.558594 85.304688 195.988281 85.304688 212.558594 "/>
<path style="fill-rule:nonzero;fill:rgb(35%,70%,90%);fill-opacity:1;stroke-width:1;stroke-linecap:butt;stroke-linejoin:round;stroke:rgb(0%,0%,0%);stroke-opacity:1;stroke-miterlimit:10;" d="M 228.0625 197.671875 C 228.0625 214.238281 214.628906 227.671875 198.0625 227.671875 C 181.492188 227.671875 168.0625 214.238281 168.0625 197.671875 C 168.0625 181.101562 181.492188 167.671875 198.0625 167.671875 C 214.628906 167.671875 228.0625 181.101562 228.0625 197.671875 "/>
<path style="fill-rule:nonzero;fill:rgb(35%,70%,90%);fill-opacity:1;stroke-width:1;stroke-linecap:butt;stroke-linejoin:round;stroke:rgb(0%,0%,0%);stroke-opacity:1;stroke-miterlimit:10;" d="M 99.585938 460.921875 C 99.585938 477.488281 86.152344 490.921875 69.585938 490.921875 C 53.015625 490.921875 39.585938 477.488281 39.585938 460.921875 C 39.585938 444.351562 53.015625 430.921875 69.585938 430.921875 C 86.152344 430.921875 99.585938 444.351562 99.585938 460.921875 "/>
<path style="fill-rule:nonzero;fill:rgb(90%,65%,0%);fill-opacity:1;stroke-width:1;stroke-linecap:butt;stroke-linejoin:round;stroke:rgb(0%,0%,0%);stroke-opacity:1;stroke-miterlimit:10;" d="M 123.148438 310.246094 C 123.148438 326.8125 109.71875 340.246094 93.148438 340.246094 C 76.582031 340.246094 63.148438 326.8125 63.148438 310.246094 C 63.148438 293.675781 76.582031 280.246094 93.148438 280.246094 C 109.71875 280.246094 123.148438 293.675781 123.148438 310.246094 "/>
</g>
</svg>
