<?xml version="1.0" encoding="UTF-8"?>
<svg xmlns="http://www.w3.org/2000/svg" xmlns:xlink="http://www.w3.org/1999/xlink" width="517pt" height="517pt" viewBox="0 0 517 517" version="1.1">
<g id="surface181">
<rect x="0" y="0" width="517" height="517" style="fill:rgb(90%,90%,90%);fill-opacity:1;stroke:none;"/>
<path style="fill:none;stroke-width:5;stroke-linecap:butt;stroke-linejoin:round;stroke:rgb(100%,0%,0%);stroke-opacity:1;stroke-miterlimit:10;" d="M 5 5 L 261 5 L 261 261 L 5 261 Z M 5 5 "/>
<path style="fill-rule:nonzero;fill:rgb(100%,7%,57%);fill-opacity:1;stroke-width:1;stroke-linecap:butt;stroke-linejoin:round;stroke:rgb(0%,0%,0%);stroke-opacity:1;stroke-miterlimit:10;" d="M 132.355469 211.101562 C 132.355469 227.671875 118.925781 241.101562 102.355469 241.101562 C 85.789062 241.101562 72.355469 227.671875 72.355469 211.101562 C 72.355469 194.535156 85.789062 181.101562 102.355469 181.101562 C 118.925781 181.101562 132.355469 194.535156 132.355469 211.101562 "/>
<path style="fill-rule:nonzero;fill:rgb(0%,0%,0%);fill-opacity:1;stroke-width:1;stroke-linecap:butt;stroke-linejoin:round;stroke:rgb(0%,0%,0%);stroke-opacity:1;stroke-miterlimit:10;" d="M 400.816406 131.3125 C 400.816406 147.882812 387.386719 161.3125 370.816406 161.3125 C 354.25 161.3125 340.816406 147.882812 340.816406 131.3125 C 340.816406 114.746094 354.25 101.3125 370.816406 101.3125 C 387.386719 101.3125 400.816406 114.746094 400.816406 131.3125 "/>
<path style="fill-rule:nonzero;fill:rgb(0%,0%,0%);fill-opacity:1;stroke-width:1;stroke-linecap:butt;stroke-linejoin:round;stroke:rgb(0%,0%,0%);stroke-opacity:1;stroke-miterlimit:10;" d="M 205.203125 307.980469 C 205.203125 324.550781 191.769531 337.980469 175.203125 337.980469 C 158.632812 337.980469 145.203125 324.550781 145.203125 307.980469 C 145.203125 291.414062 158.632812 277.980469 175.203125 277.980469 C 191.769531 277.980469 205.203125 291.414062 205.203125 307.980469 "/>
<path style="fill-rule:nonzero;fill:rgb(100%,7%,57%);fill-opacity:1;stroke-width:1;stroke-linecap:butt;stroke-linejoin:round;stroke:rgb(0%,0%,0%);stroke-opacity:1;stroke-miterlimit:10;" d="M 152.636719 403.609375 C 152.636719 420.179688 139.207031 433.609375 122.636719 433.609375 C 106.070312 433.609375 92.636719 420.179688 92.636719 403.609375 C 92.636719 387.042969 106.070312 373.609375 122.636719 373.609375 C 139.207031 373.609375 152.636719 387.042969 152.636719 403.609375 "/>
</g>
</svg>
