<?xml version="1.0" encoding="UTF-8"?>
<svg xmlns="http://www.w3.org/2000/svg" xmlns:xlink="http://www.w3.org/1999/xlink" width="517pt" height="517pt" viewBox="0 0 517 517" version="1.1">
<g id="surface2681">
<rect x="0" y="0" width="517" height="517" style="fill:rgb(90%,90%,90%);fill-opacity:1;stroke:none;"/>
<path style="fill:none;stroke-width:5;stroke-linecap:butt;stroke-linejoin:round;stroke:rgb(100%,0%,0%);stroke-opacity:1;stroke-miterlimit:10;" d="M 261 261 L 517 261 L 517 517 L 261 517 Z M 261 261 "/>
<path style="fill-rule:nonzero;fill:rgb(67%,100%,18%);fill-opacity:1;stroke-width:1;stroke-linecap:butt;stroke-linejoin:round;stroke:rgb(0%,0%,0%);stroke-opacity:1;stroke-miterlimit:10;" d="M 460.203125 381.71875 L 440.203125 381.71875 L 440.203125 391.71875 L 460.203125 391.71875 L 460.203125 411.71875 L 470.203125 411.71875 L 470.203125 391.71875 L 490.203125 391.71875 L 490.203125 381.71875 L 470.203125 381.71875 L 470.203125 361.71875 L 460.203125 361.71875 L 460.203125 381.71875 "/>
<path style="fill-rule:nonzero;fill:rgb(50%,0%,50%);fill-opacity:1;stroke-width:1;stroke-linecap:butt;stroke-linejoin:round;stroke:rgb(0%,0%,0%);stroke-opacity:1;stroke-miterlimit:10;" d="M 459.980469 113.917969 L 439.980469 113.917969 L 439.980469 123.917969 L 459.980469 123.917969 L 459.980469 143.917969 L 469.980469 143.917969 L 469.980469 123.917969 L 489.980469 123.917969 L 489.980469 113.917969 L 469.980469 113.917969 L 469.980469 93.917969 L 459.980469 93.917969 L 459.980469 113.917969 "/>
<path style="fill-rule:nonzero;fill:rgb(67%,100%,18%);fill-opacity:1;stroke-width:1;stroke-linecap:butt;stroke-linejoin:round;stroke:rgb(0%,0%,0%);stroke-opacity:1;stroke-miterlimit:10;" d="M 178.800781 72.320312 L 158.800781 72.320312 L 158.800781 82.320312 L 178.800781 82.320312 L 178.800781 102.320312 L 188.800781 102.320312 L 188.800781 82.320312 L 208.800781 82.320312 L 208.800781 72.320312 L 188.800781 72.320312 L 188.800781 52.320312 L 178.800781 52.320312 L 178.800781 72.320312 "/>
<path style="fill-rule:nonzero;fill:rgb(67%,100%,18%);fill-opacity:1;stroke-width:1;stroke-linecap:butt;stroke-linejoin:round;stroke:rgb(0%,0%,0%);stroke-opacity:1;stroke-miterlimit:10;" d="M 58.9375 212.5 L 38.9375 212.5 L 38.9375 222.5 L 58.9375 222.5 L 58.9375 242.5 L 68.9375 242.5 L 68.9375 222.5 L 88.9375 222.5 L 88.9375 212.5 L 68.9375 212.5 L 68.9375 192.5 L 58.9375 192.5 L 58.9375 212.5 "/>
<path style="fill-rule:nonzero;fill:rgb(67%,100%,18%);fill-opacity:1;stroke-width:1;stroke-linecap:butt;stroke-linejoin:round;stroke:rgb(0%,0%,0%);stroke-opacity:1;stroke-miterlimit:10;" d="M 78.183594 60.265625 L 58.183594 60.265625 L 58.183594 70.265625 L 78.183594 70.265625 L 78.183594 90.265625 L 88.183594 90.265625 L 88.183594 70.265625 L 108.183594 70.265625 L 108.183594 60.265625 L 88.183594 60.265625 L 88.183594 40.265625 L 78.183594 40.265625 L 78.183594 60.265625 "/>
</g>
</svg>
