<?xml version="1.0" encoding="UTF-8"?>
<svg xmlns="http://www.w3.org/2000/svg" xmlns:xlink="http://www.w3.org/1999/xlink" width="517pt" height="517pt" viewBox="0 0 517 517" version="1.1">
<g id="surface2651">
<rect x="0" y="0" width="517" height="517" style="fill:rgb(90%,90%,90%);fill-opacity:1;stroke:none;"/>
<path style="fill:none;stroke-width:5;stroke-linecap:butt;stroke-linejoin:round;stroke:rgb(100%,0%,0%);stroke-opacity:1;stroke-miterlimit:10;" d="M 261 261 L 517 261 L 517 517 L 261 517 Z M 261 261 "/>
<path style="fill-rule:nonzero;fill:rgb(67%,100%,18%);fill-opacity:1;stroke-width:1;stroke-linecap:butt;stroke-linejoin:round;stroke:rgb(0%,0%,0%);stroke-opacity:1;stroke-miterlimit:10;" d="M 298.542969 470.308594 L 278.542969 470.308594 L 278.542969 480.308594 L 298.542969 480.308594 L 298.542969 500.308594 L 308.542969 500.308594 L 308.542969 480.308594 L 328.542969 480.308594 L 328.542969 470.308594 L 308.542969 470.308594 L 308.542969 450.308594 L 298.542969 450.308594 L 298.542969 470.308594 "/>
<path style="fill-rule:nonzero;fill:rgb(50%,0%,50%);fill-opacity:1;stroke-width:1;stroke-linecap:butt;stroke-linejoin:round;stroke:rgb(0%,0%,0%);stroke-opacity:1;stroke-miterlimit:10;" d="M 210.117188 127.269531 L 190.117188 127.269531 L 190.117188 137.269531 L 210.117188 137.269531 L 210.117188 157.269531 L 220.117188 157.269531 L 220.117188 137.269531 L 240.117188 137.269531 L 240.117188 127.269531 L 220.117188 127.269531 L 220.117188 107.269531 L 210.117188 107.269531 L 210.117188 127.269531 "/>
<path style="fill-rule:nonzero;fill:rgb(50%,0%,50%);fill-opacity:1;stroke-width:1;stroke-linecap:butt;stroke-linejoin:round;stroke:rgb(0%,0%,0%);stroke-opacity:1;stroke-miterlimit:10;" d="M 113.492188 364.503906 L 93.492188 364.503906 L 93.492188 374.503906 L 113.492188 374.503906 L 113.492188 394.503906 L 123.492188 394.503906 L 123.492188 374.503906 L 143.492188 374.503906 L 143.492188 364.503906 L 123.492188 364.503906 L 123.492188 344.503906 L 113.492188 344.503906 L 113.492188 364.503906 "/>
<path style="fill-rule:nonzero;fill:rgb(50%,0%,50%);fill-opacity:1;stroke-width:1;stroke-linecap:butt;stroke-linejoin:round;stroke:rgb(0%,0%,0%);stroke-opacity:1;stroke-miterlimit:10;" d="M 115.417969 457.476562 L 95.417969 457.476562 L 95.417969 467.476562 L 115.417969 467.476562 L 115.417969 487.476562 L 125.417969 487.476562 L 125.417969 467.476562 L 145.417969 467.476562 L 145.417969 457.476562 L 125.417969 457.476562 L 125.417969 437.476562 L 115.417969 437.476562 L 115.417969 457.476562 "/>
<path style="fill-rule:nonzero;fill:rgb(50%,0%,50%);fill-opacity:1;stroke-width:1;stroke-linecap:butt;stroke-linejoin:round;stroke:rgb(0%,0%,0%);stroke-opacity:1;stroke-miterlimit:10;" d="M 181.976562 325.007812 L 161.976562 325.007812 L 161.976562 335.007812 L 181.976562 335.007812 L 181.976562 355.007812 L 191.976562 355.007812 L 191.976562 335.007812 L 211.976562 335.007812 L 211.976562 325.007812 L 191.976562 325.007812 L 191.976562 305.007812 L 181.976562 305.007812 L 181.976562 325.007812 "/>
</g>
</svg>
