<?xml version="1.0" encoding="UTF-8"?>
<svg xmlns="http://www.w3.org/2000/svg" xmlns:xlink="http://www.w3.org/1999/xlink" width="517pt" height="517pt" viewBox="0 0 517 517" version="1.1">
<g id="surface2716">
<rect x="0" y="0" width="517" height="517" style="fill:rgb(90%,90%,90%);fill-opacity:1;stroke:none;"/>
<path style="fill:none;stroke-width:5;stroke-linecap:butt;stroke-linejoin:round;stroke:rgb(100%,0%,0%);stroke-opacity:1;stroke-miterlimit:10;" d="M 261 261 L 517 261 L 517 517 L 261 517 Z M 261 261 "/>
<path style="fill-rule:nonzero;fill:rgb(100%,0%,0%);fill-opacity:1;stroke-width:1;stroke-linecap:butt;stroke-linejoin:round;stroke:rgb(0%,0%,0%);stroke-opacity:1;stroke-miterlimit:10;" d="M 335.882812 337.5625 L 315.882812 337.5625 L 315.882812 347.5625 L 335.882812 347.5625 L 335.882812 367.5625 L 345.882812 367.5625 L 345.882812 347.5625 L 365.882812 347.5625 L 365.882812 337.5625 L 345.882812 337.5625 L 345.882812 317.5625 L 335.882812 317.5625 L 335.882812 337.5625 "/>
<path style="fill-rule:nonzero;fill:rgb(50%,0%,50%);fill-opacity:1;stroke-width:1;stroke-linecap:butt;stroke-linejoin:round;stroke:rgb(0%,0%,0%);stroke-opacity:1;stroke-miterlimit:10;" d="M 358.777344 94.441406 L 338.777344 94.441406 L 338.777344 104.441406 L 358.777344 104.441406 L 358.777344 124.441406 L 368.777344 124.441406 L 368.777344 104.441406 L 388.777344 104.441406 L 388.777344 94.441406 L 368.777344 94.441406 L 368.777344 74.441406 L 358.777344 74.441406 L 358.777344 94.441406 "/>
<path style="fill-rule:nonzero;fill:rgb(50%,0%,50%);fill-opacity:1;stroke-width:1;stroke-linecap:butt;stroke-linejoin:round;stroke:rgb(0%,0%,0%);stroke-opacity:1;stroke-miterlimit:10;" d="M 441.109375 121.054688 L 421.109375 121.054688 L 421.109375 131.054688 L 441.109375 131.054688 L 441.109375 151.054688 L 451.109375 151.054688 L 451.109375 131.054688 L 471.109375 131.054688 L 471.109375 121.054688 L 451.109375 121.054688 L 451.109375 101.054688 L 441.109375 101.054688 L 441.109375 121.054688 "/>
<path style="fill-rule:nonzero;fill:rgb(50%,0%,50%);fill-opacity:1;stroke-width:1;stroke-linecap:butt;stroke-linejoin:round;stroke:rgb(0%,0%,0%);stroke-opacity:1;stroke-miterlimit:10;" d="M 127.859375 140.042969 L 107.859375 140.042969 L 107.859375 150.042969 L 127.859375 150.042969 L 127.859375 170.042969 L 137.859375 170.042969 L 137.859375 150.042969 L 157.859375 150.042969 L 157.859375 140.042969 L 137.859375 140.042969 L 137.859375 120.042969 L 127.859375 120.042969 L 127.859375 140.042969 "/>
<path style="fill-rule:nonzero;fill:rgb(67%,100%,18%);fill-opacity:1;stroke-width:1;stroke-linecap:butt;stroke-linejoin:round;stroke:rgb(0%,0%,0%);stroke-opacity:1;stroke-miterlimit:10;" d="M 198.757812 157.421875 L 178.757812 157.421875 L 178.757812 167.421875 L 198.757812 167.421875 L 198.757812 187.421875 L 208.757812 187.421875 L 208.757812 167.421875 L 228.757812 167.421875 L 228.757812 157.421875 L 208.757812 157.421875 L 208.757812 137.421875 L 198.757812 137.421875 L 198.757812 157.421875 "/>
</g>
</svg>
