<?xml version="1.0" encoding="UTF-8"?>
<svg xmlns="http://www.w3.org/2000/svg" xmlns:xlink="http://www.w3.org/1999/xlink" width="517pt" height="517pt" viewBox="0 0 517 517" version="1.1">
<g id="surface2571">
<rect x="0" y="0" width="517" height="517" style="fill:rgb(90%,90%,90%);fill-opacity:1;stroke:none;"/>
<path style="fill:none;stroke-width:5;stroke-linecap:butt;stroke-linejoin:round;stroke:rgb(100%,0%,0%);stroke-opacity:1;stroke-miterlimit:10;" d="M 261 261 L 517 261 L 517 517 L 261 517 Z M 261 261 "/>
<path style="fill-rule:nonzero;fill:rgb(90%,65%,0%);fill-opacity:1;stroke-width:1;stroke-linecap:butt;stroke-linejoin:round;stroke:rgb(0%,0%,0%);stroke-opacity:1;stroke-miterlimit:10;" d="M 384.644531 370.101562 C 384.644531 386.671875 371.210938 400.101562 354.644531 400.101562 C 338.074219 400.101562 324.644531 386.671875 324.644531 370.101562 C 324.644531 353.535156 338.074219 340.101562 354.644531 340.101562 C 371.210938 340.101562 384.644531 353.535156 384.644531 370.101562 "/>
<path style="fill-rule:nonzero;fill:rgb(35%,70%,90%);fill-opacity:1;stroke-width:1;stroke-linecap:butt;stroke-linejoin:round;stroke:rgb(0%,0%,0%);stroke-opacity:1;stroke-miterlimit:10;" d="M 494.796875 105.949219 C 494.796875 122.515625 481.367188 135.949219 464.796875 135.949219 C 448.230469 135.949219 434.796875 122.515625 434.796875 105.949219 C 434.796875 89.378906 448.230469 75.949219 464.796875 75.949219 C 481.367188 75.949219 494.796875 89.378906 494.796875 105.949219 "/>
<path style="fill-rule:nonzero;fill:rgb(35%,70%,90%);fill-opacity:1;stroke-width:1;stroke-linecap:butt;stroke-linejoin:round;stroke:rgb(0%,0%,0%);stroke-opacity:1;stroke-miterlimit:10;" d="M 243.867188 338.246094 C 243.867188 354.816406 230.4375 368.246094 213.867188 368.246094 C 197.300781 368.246094 183.867188 354.816406 183.867188 338.246094 C 183.867188 321.679688 197.300781 308.246094 213.867188 308.246094 C 230.4375 308.246094 243.867188 321.679688 243.867188 338.246094 "/>
<path style="fill-rule:nonzero;fill:rgb(35%,70%,90%);fill-opacity:1;stroke-width:1;stroke-linecap:butt;stroke-linejoin:round;stroke:rgb(0%,0%,0%);stroke-opacity:1;stroke-miterlimit:10;" d="M 87.226562 51.261719 C 87.226562 67.828125 73.792969 81.261719 57.226562 81.261719 C 40.65625 81.261719 27.226562 67.828125 27.226562 51.261719 C 27.226562 34.691406 40.65625 21.261719 57.226562 21.261719 C 73.792969 21.261719 87.226562 34.691406 87.226562 51.261719 "/>
<path style="fill-rule:nonzero;fill:rgb(35%,70%,90%);fill-opacity:1;stroke-width:1;stroke-linecap:butt;stroke-linejoin:round;stroke:rgb(0%,0%,0%);stroke-opacity:1;stroke-miterlimit:10;" d="M 73.269531 176.191406 C 73.269531 192.757812 59.839844 206.191406 43.269531 206.191406 C 26.703125 206.191406 13.269531 192.757812 13.269531 176.191406 C 13.269531 159.621094 26.703125 146.191406 43.269531 146.191406 C 59.839844 146.191406 73.269531 159.621094 73.269531 176.191406 "/>
</g>
</svg>
