<?xml version="1.0" encoding="UTF-8"?>
<svg xmlns="http://www.w3.org/2000/svg" xmlns:xlink="http://www.w3.org/1999/xlink" width="517pt" height="517pt" viewBox="0 0 517 517" version="1.1">
<g id="surface2616">
<rect x="0" y="0" width="517" height="517" style="fill:rgb(90%,90%,90%);fill-opacity:1;stroke:none;"/>
<path style="fill:none;stroke-width:5;stroke-linecap:butt;stroke-linejoin:round;stroke:rgb(100%,0%,0%);stroke-opacity:1;stroke-miterlimit:10;" d="M 261 261 L 517 261 L 517 517 L 261 517 Z M 261 261 "/>
<path style="fill-rule:nonzero;fill:rgb(90%,65%,0%);fill-opacity:1;stroke-width:1;stroke-linecap:butt;stroke-linejoin:round;stroke:rgb(0%,0%,0%);stroke-opacity:1;stroke-miterlimit:10;" d="M 355.667969 428.300781 C 355.667969 444.871094 342.234375 458.300781 325.667969 458.300781 C 309.097656 458.300781 295.667969 444.871094 295.667969 428.300781 C 295.667969 411.734375 309.097656 398.300781 325.667969 398.300781 C 342.234375 398.300781 355.667969 411.734375 355.667969 428.300781 "/>
<path style="fill-rule:nonzero;fill:rgb(35%,70%,90%);fill-opacity:1;stroke-width:1;stroke-linecap:butt;stroke-linejoin:round;stroke:rgb(0%,0%,0%);stroke-opacity:1;stroke-miterlimit:10;" d="M 235.992188 193.417969 C 235.992188 209.984375 222.5625 223.417969 205.992188 223.417969 C 189.425781 223.417969 175.992188 209.984375 175.992188 193.417969 C 175.992188 176.847656 189.425781 163.417969 205.992188 163.417969 C 222.5625 163.417969 235.992188 176.847656 235.992188 193.417969 "/>
<path style="fill-rule:nonzero;fill:rgb(90%,65%,0%);fill-opacity:1;stroke-width:1;stroke-linecap:butt;stroke-linejoin:round;stroke:rgb(0%,0%,0%);stroke-opacity:1;stroke-miterlimit:10;" d="M 130.535156 117.984375 C 130.535156 134.550781 117.101562 147.984375 100.535156 147.984375 C 83.964844 147.984375 70.535156 134.550781 70.535156 117.984375 C 70.535156 101.414062 83.964844 87.984375 100.535156 87.984375 C 117.101562 87.984375 130.535156 101.414062 130.535156 117.984375 "/>
<path style="fill-rule:nonzero;fill:rgb(90%,65%,0%);fill-opacity:1;stroke-width:1;stroke-linecap:butt;stroke-linejoin:round;stroke:rgb(0%,0%,0%);stroke-opacity:1;stroke-miterlimit:10;" d="M 350.40625 123.351562 C 350.40625 139.917969 336.972656 153.351562 320.40625 153.351562 C 303.835938 153.351562 290.40625 139.917969 290.40625 123.351562 C 290.40625 106.78125 303.835938 93.351562 320.40625 93.351562 C 336.972656 93.351562 350.40625 106.78125 350.40625 123.351562 "/>
<path style="fill-rule:nonzero;fill:rgb(90%,65%,0%);fill-opacity:1;stroke-width:1;stroke-linecap:butt;stroke-linejoin:round;stroke:rgb(0%,0%,0%);stroke-opacity:1;stroke-miterlimit:10;" d="M 417.125 162.222656 C 417.125 178.792969 403.695312 192.222656 387.125 192.222656 C 370.554688 192.222656 357.125 178.792969 357.125 162.222656 C 357.125 145.652344 370.554688 132.222656 387.125 132.222656 C 403.695312 132.222656 417.125 145.652344 417.125 162.222656 "/>
</g>
</svg>
