<?xml version="1.0" encoding="UTF-8"?>
<svg xmlns="http://www.w3.org/2000/svg" xmlns:xlink="http://www.w3.org/1999/xlink" width="517pt" height="517pt" viewBox="0 0 517 517" version="1.1">
<g id="surface161">
<rect x="0" y="0" width="517" height="517" style="fill:rgb(90%,90%,90%);fill-opacity:1;stroke:none;"/>
<path style="fill:none;stroke-width:5;stroke-linecap:butt;stroke-linejoin:round;stroke:rgb(100%,0%,0%);stroke-opacity:1;stroke-miterlimit:10;" d="M 5 5 L 261 5 L 261 261 L 5 261 Z M 5 5 "/>
<path style="fill-rule:nonzero;fill:rgb(100%,7%,57%);fill-opacity:1;stroke-width:1;stroke-linecap:butt;stroke-linejoin:round;stroke:rgb(0%,0%,0%);stroke-opacity:1;stroke-miterlimit:10;" d="M 227.78125 182.570312 C 227.78125 199.140625 214.351562 212.570312 197.78125 212.570312 C 181.214844 212.570312 167.78125 199.140625 167.78125 182.570312 C 167.78125 166.003906 181.214844 152.570312 197.78125 152.570312 C 214.351562 152.570312 227.78125 166.003906 227.78125 182.570312 "/>
<path style="fill-rule:nonzero;fill:rgb(0%,0%,0%);fill-opacity:1;stroke-width:1;stroke-linecap:butt;stroke-linejoin:round;stroke:rgb(0%,0%,0%);stroke-opacity:1;stroke-miterlimit:10;" d="M 389.992188 302.851562 C 389.992188 319.421875 376.558594 332.851562 359.992188 332.851562 C 343.421875 332.851562 329.992188 319.421875 329.992188 302.851562 C 329.992188 286.285156 343.421875 272.851562 359.992188 272.851562 C 376.558594 272.851562 389.992188 286.285156 389.992188 302.851562 "/>
<path style="fill-rule:nonzero;fill:rgb(0%,0%,0%);fill-opacity:1;stroke-width:1;stroke-linecap:butt;stroke-linejoin:round;stroke:rgb(0%,0%,0%);stroke-opacity:1;stroke-miterlimit:10;" d="M 122.382812 373.882812 C 122.382812 390.453125 108.949219 403.882812 92.382812 403.882812 C 75.8125 403.882812 62.382812 390.453125 62.382812 373.882812 C 62.382812 357.3125 75.8125 343.882812 92.382812 343.882812 C 108.949219 343.882812 122.382812 357.3125 122.382812 373.882812 "/>
<path style="fill-rule:nonzero;fill:rgb(0%,0%,0%);fill-opacity:1;stroke-width:1;stroke-linecap:butt;stroke-linejoin:round;stroke:rgb(0%,0%,0%);stroke-opacity:1;stroke-miterlimit:10;" d="M 436.027344 84.492188 C 436.027344 101.0625 422.59375 114.492188 406.027344 114.492188 C 389.457031 114.492188 376.027344 101.0625 376.027344 84.492188 C 376.027344 67.925781 389.457031 54.492188 406.027344 54.492188 C 422.59375 54.492188 436.027344 67.925781 436.027344 84.492188 "/>
</g>
</svg>
