<?xml version="1.0" encoding="UTF-8"?>
<svg xmlns="http://www.w3.org/2000/svg" xmlns:xlink="http://www.w3.org/1999/xlink" width="517pt" height="517pt" viewBox="0 0 517 517" version="1.1">
<g id="surface2986">
<rect x="0" y="0" width="517" height="517" style="fill:rgb(90%,90%,90%);fill-opacity:1;stroke:none;"/>
<path style="fill:none;stroke-width:5;stroke-linecap:butt;stroke-linejoin:round;stroke:rgb(100%,0%,0%);stroke-opacity:1;stroke-miterlimit:10;" d="M 5 261 L 261 261 L 261 517 L 5 517 Z M 5 261 "/>
<path style="fill-rule:nonzero;fill:rgb(50%,0%,50%);fill-opacity:1;stroke-width:1;stroke-linecap:butt;stroke-linejoin:round;stroke:rgb(0%,0%,0%);stroke-opacity:1;stroke-miterlimit:10;" d="M 73.910156 365.546875 L 53.910156 365.546875 L 53.910156 375.546875 L 73.910156 375.546875 L 73.910156 395.546875 L 83.910156 395.546875 L 83.910156 375.546875 L 103.910156 375.546875 L 103.910156 365.546875 L 83.910156 365.546875 L 83.910156 345.546875 L 73.910156 345.546875 L 73.910156 365.546875 "/>
<path style="fill-rule:nonzero;fill:rgb(0%,0%,0%);fill-opacity:1;stroke-width:1;stroke-linecap:butt;stroke-linejoin:round;stroke:rgb(0%,0%,0%);stroke-opacity:1;stroke-miterlimit:10;" d="M 81.34375 163.378906 L 61.34375 163.378906 L 61.34375 173.378906 L 81.34375 173.378906 L 81.34375 193.378906 L 91.34375 193.378906 L 91.34375 173.378906 L 111.34375 173.378906 L 111.34375 163.378906 L 91.34375 163.378906 L 91.34375 143.378906 L 81.34375 143.378906 L 81.34375 163.378906 "/>
<path style="fill-rule:nonzero;fill:rgb(0%,0%,0%);fill-opacity:1;stroke-width:1;stroke-linecap:butt;stroke-linejoin:round;stroke:rgb(0%,0%,0%);stroke-opacity:1;stroke-miterlimit:10;" d="M 443.023438 440.585938 L 423.023438 440.585938 L 423.023438 450.585938 L 443.023438 450.585938 L 443.023438 470.585938 L 453.023438 470.585938 L 453.023438 450.585938 L 473.023438 450.585938 L 473.023438 440.585938 L 453.023438 440.585938 L 453.023438 420.585938 L 443.023438 420.585938 L 443.023438 440.585938 "/>
<path style="fill-rule:nonzero;fill:rgb(0%,0%,0%);fill-opacity:1;stroke-width:1;stroke-linecap:butt;stroke-linejoin:round;stroke:rgb(0%,0%,0%);stroke-opacity:1;stroke-miterlimit:10;" d="M 306.492188 312.828125 L 286.492188 312.828125 L 286.492188 322.828125 L 306.492188 322.828125 L 306.492188 342.828125 L 316.492188 342.828125 L 316.492188 322.828125 L 336.492188 322.828125 L 336.492188 312.828125 L 316.492188 312.828125 L 316.492188 292.828125 L 306.492188 292.828125 L 306.492188 312.828125 "/>
<path style="fill-rule:nonzero;fill:rgb(50%,0%,50%);fill-opacity:1;stroke-width:1;stroke-linecap:butt;stroke-linejoin:round;stroke:rgb(0%,0%,0%);stroke-opacity:1;stroke-miterlimit:10;" d="M 296.648438 54.261719 L 276.648438 54.261719 L 276.648438 64.261719 L 296.648438 64.261719 L 296.648438 84.261719 L 306.648438 84.261719 L 306.648438 64.261719 L 326.648438 64.261719 L 326.648438 54.261719 L 306.648438 54.261719 L 306.648438 34.261719 L 296.648438 34.261719 L 296.648438 54.261719 "/>
</g>
</svg>
