<?xml version="1.0" encoding="UTF-8"?>
<svg xmlns="http://www.w3.org/2000/svg" xmlns:xlink="http://www.w3.org/1999/xlink" width="517pt" height="517pt" viewBox="0 0 517 517" version="1.1">
<g id="surface2926">
<rect x="0" y="0" width="517" height="517" style="fill:rgb(90%,90%,90%);fill-opacity:1;stroke:none;"/>
<path style="fill:none;stroke-width:5;stroke-linecap:butt;stroke-linejoin:round;stroke:rgb(100%,0%,0%);stroke-opacity:1;stroke-miterlimit:10;" d="M 5 261 L 261 261 L 261 517 L 5 517 Z M 5 261 "/>
<path style="fill-rule:nonzero;fill:rgb(53%,27%,7%);fill-opacity:1;stroke-width:1;stroke-linecap:butt;stroke-linejoin:round;stroke:rgb(0%,0%,0%);stroke-opacity:1;stroke-miterlimit:10;" d="M 140.167969 464.75 C 140.167969 481.316406 126.734375 494.75 110.167969 494.75 C 93.597656 494.75 80.167969 481.316406 80.167969 464.75 C 80.167969 448.179688 93.597656 434.75 110.167969 434.75 C 126.734375 434.75 140.167969 448.179688 140.167969 464.75 "/>
<path style="fill-rule:nonzero;fill:rgb(67%,100%,18%);fill-opacity:1;stroke-width:1;stroke-linecap:butt;stroke-linejoin:round;stroke:rgb(0%,0%,0%);stroke-opacity:1;stroke-miterlimit:10;" d="M 359.230469 93.777344 C 359.230469 110.34375 345.796875 123.777344 329.230469 123.777344 C 312.660156 123.777344 299.230469 110.34375 299.230469 93.777344 C 299.230469 77.207031 312.660156 63.777344 329.230469 63.777344 C 345.796875 63.777344 359.230469 77.207031 359.230469 93.777344 "/>
<path style="fill-rule:nonzero;fill:rgb(53%,27%,7%);fill-opacity:1;stroke-width:1;stroke-linecap:butt;stroke-linejoin:round;stroke:rgb(0%,0%,0%);stroke-opacity:1;stroke-miterlimit:10;" d="M 340.925781 468.695312 C 340.925781 485.265625 327.496094 498.695312 310.925781 498.695312 C 294.359375 498.695312 280.925781 485.265625 280.925781 468.695312 C 280.925781 452.128906 294.359375 438.695312 310.925781 438.695312 C 327.496094 438.695312 340.925781 452.128906 340.925781 468.695312 "/>
<path style="fill-rule:nonzero;fill:rgb(53%,27%,7%);fill-opacity:1;stroke-width:1;stroke-linecap:butt;stroke-linejoin:round;stroke:rgb(0%,0%,0%);stroke-opacity:1;stroke-miterlimit:10;" d="M 486.539062 292.445312 C 486.539062 309.015625 473.105469 322.445312 456.539062 322.445312 C 439.96875 322.445312 426.539062 309.015625 426.539062 292.445312 C 426.539062 275.878906 439.96875 262.445312 456.539062 262.445312 C 473.105469 262.445312 486.539062 275.878906 486.539062 292.445312 "/>
<path style="fill-rule:nonzero;fill:rgb(53%,27%,7%);fill-opacity:1;stroke-width:1;stroke-linecap:butt;stroke-linejoin:round;stroke:rgb(0%,0%,0%);stroke-opacity:1;stroke-miterlimit:10;" d="M 502.746094 429.816406 C 502.746094 446.382812 489.316406 459.816406 472.746094 459.816406 C 456.175781 459.816406 442.746094 446.382812 442.746094 429.816406 C 442.746094 413.246094 456.175781 399.816406 472.746094 399.816406 C 489.316406 399.816406 502.746094 413.246094 502.746094 429.816406 "/>
</g>
</svg>
