<?xml version="1.0" encoding="UTF-8"?>
<svg xmlns="http://www.w3.org/2000/svg" xmlns:xlink="http://www.w3.org/1999/xlink" width="517pt" height="517pt" viewBox="0 0 517 517" version="1.1">
<g id="surface2886">
<rect x="0" y="0" width="517" height="517" style="fill:rgb(90%,90%,90%);fill-opacity:1;stroke:none;"/>
<path style="fill:none;stroke-width:5;stroke-linecap:butt;stroke-linejoin:round;stroke:rgb(100%,0%,0%);stroke-opacity:1;stroke-miterlimit:10;" d="M 5 261 L 261 261 L 261 517 L 5 517 Z M 5 261 "/>
<path style="fill-rule:nonzero;fill:rgb(53%,27%,7%);fill-opacity:1;stroke-width:1;stroke-linecap:butt;stroke-linejoin:round;stroke:rgb(0%,0%,0%);stroke-opacity:1;stroke-miterlimit:10;" d="M 195.136719 425.417969 C 195.136719 441.984375 181.703125 455.417969 165.136719 455.417969 C 148.566406 455.417969 135.136719 441.984375 135.136719 425.417969 C 135.136719 408.847656 148.566406 395.417969 165.136719 395.417969 C 181.703125 395.417969 195.136719 408.847656 195.136719 425.417969 "/>
<path style="fill-rule:nonzero;fill:rgb(67%,100%,18%);fill-opacity:1;stroke-width:1;stroke-linecap:butt;stroke-linejoin:round;stroke:rgb(0%,0%,0%);stroke-opacity:1;stroke-miterlimit:10;" d="M 492.101562 111.484375 C 492.101562 128.050781 478.671875 141.484375 462.101562 141.484375 C 445.535156 141.484375 432.101562 128.050781 432.101562 111.484375 C 432.101562 94.914062 445.535156 81.484375 462.101562 81.484375 C 478.671875 81.484375 492.101562 94.914062 492.101562 111.484375 "/>
<path style="fill-rule:nonzero;fill:rgb(67%,100%,18%);fill-opacity:1;stroke-width:1;stroke-linecap:butt;stroke-linejoin:round;stroke:rgb(0%,0%,0%);stroke-opacity:1;stroke-miterlimit:10;" d="M 86.9375 103.429688 C 86.9375 120 73.507812 133.429688 56.9375 133.429688 C 40.371094 133.429688 26.9375 120 26.9375 103.429688 C 26.9375 86.863281 40.371094 73.429688 56.9375 73.429688 C 73.507812 73.429688 86.9375 86.863281 86.9375 103.429688 "/>
<path style="fill-rule:nonzero;fill:rgb(67%,100%,18%);fill-opacity:1;stroke-width:1;stroke-linecap:butt;stroke-linejoin:round;stroke:rgb(0%,0%,0%);stroke-opacity:1;stroke-miterlimit:10;" d="M 355.125 433.703125 C 355.125 450.269531 341.695312 463.703125 325.125 463.703125 C 308.558594 463.703125 295.125 450.269531 295.125 433.703125 C 295.125 417.132812 308.558594 403.703125 325.125 403.703125 C 341.695312 403.703125 355.125 417.132812 355.125 433.703125 "/>
<path style="fill-rule:nonzero;fill:rgb(67%,100%,18%);fill-opacity:1;stroke-width:1;stroke-linecap:butt;stroke-linejoin:round;stroke:rgb(0%,0%,0%);stroke-opacity:1;stroke-miterlimit:10;" d="M 380.144531 331.378906 C 380.144531 347.945312 366.710938 361.378906 350.144531 361.378906 C 333.574219 361.378906 320.144531 347.945312 320.144531 331.378906 C 320.144531 314.808594 333.574219 301.378906 350.144531 301.378906 C 366.710938 301.378906 380.144531 314.808594 380.144531 331.378906 "/>
</g>
</svg>
