<?xml version="1.0" encoding="UTF-8"?>
<svg xmlns="http://www.w3.org/2000/svg" xmlns:xlink="http://www.w3.org/1999/xlink" width="517pt" height="517pt" viewBox="0 0 517 517" version="1.1">
<g id="surface2591">
<rect x="0" y="0" width="517" height="517" style="fill:rgb(90%,90%,90%);fill-opacity:1;stroke:none;"/>
<path style="fill:none;stroke-width:5;stroke-linecap:butt;stroke-linejoin:round;stroke:rgb(100%,0%,0%);stroke-opacity:1;stroke-miterlimit:10;" d="M 261 261 L 517 261 L 517 517 L 261 517 Z M 261 261 "/>
<path style="fill-rule:nonzero;fill:rgb(90%,65%,0%);fill-opacity:1;stroke-width:1;stroke-linecap:butt;stroke-linejoin:round;stroke:rgb(0%,0%,0%);stroke-opacity:1;stroke-miterlimit:10;" d="M 478.144531 309.039062 C 478.144531 325.605469 464.710938 339.039062 448.144531 339.039062 C 431.574219 339.039062 418.144531 325.605469 418.144531 309.039062 C 418.144531 292.46875 431.574219 279.039062 448.144531 279.039062 C 464.710938 279.039062 478.144531 292.46875 478.144531 309.039062 "/>
<path style="fill-rule:nonzero;fill:rgb(35%,70%,90%);fill-opacity:1;stroke-width:1;stroke-linecap:butt;stroke-linejoin:round;stroke:rgb(0%,0%,0%);stroke-opacity:1;stroke-miterlimit:10;" d="M 143.351562 445.992188 C 143.351562 462.5625 129.921875 475.992188 113.351562 475.992188 C 96.785156 475.992188 83.351562 462.5625 83.351562 445.992188 C 83.351562 429.421875 96.785156 415.992188 113.351562 415.992188 C 129.921875 415.992188 143.351562 429.421875 143.351562 445.992188 "/>
<path style="fill-rule:nonzero;fill:rgb(35%,70%,90%);fill-opacity:1;stroke-width:1;stroke-linecap:butt;stroke-linejoin:round;stroke:rgb(0%,0%,0%);stroke-opacity:1;stroke-miterlimit:10;" d="M 189.984375 313.386719 C 189.984375 329.953125 176.550781 343.386719 159.984375 343.386719 C 143.414062 343.386719 129.984375 329.953125 129.984375 313.386719 C 129.984375 296.816406 143.414062 283.386719 159.984375 283.386719 C 176.550781 283.386719 189.984375 296.816406 189.984375 313.386719 "/>
<path style="fill-rule:nonzero;fill:rgb(35%,70%,90%);fill-opacity:1;stroke-width:1;stroke-linecap:butt;stroke-linejoin:round;stroke:rgb(0%,0%,0%);stroke-opacity:1;stroke-miterlimit:10;" d="M 202.960938 188.59375 C 202.960938 205.164062 189.53125 218.59375 172.960938 218.59375 C 156.394531 218.59375 142.960938 205.164062 142.960938 188.59375 C 142.960938 172.027344 156.394531 158.59375 172.960938 158.59375 C 189.53125 158.59375 202.960938 172.027344 202.960938 188.59375 "/>
<path style="fill-rule:nonzero;fill:rgb(90%,65%,0%);fill-opacity:1;stroke-width:1;stroke-linecap:butt;stroke-linejoin:round;stroke:rgb(0%,0%,0%);stroke-opacity:1;stroke-miterlimit:10;" d="M 407.214844 215.117188 C 407.214844 231.6875 393.78125 245.117188 377.214844 245.117188 C 360.644531 245.117188 347.214844 231.6875 347.214844 215.117188 C 347.214844 198.546875 360.644531 185.117188 377.214844 185.117188 C 393.78125 185.117188 407.214844 198.546875 407.214844 215.117188 "/>
</g>
</svg>
