<?xml version="1.0" encoding="UTF-8"?>
<svg xmlns="http://www.w3.org/2000/svg" xmlns:xlink="http://www.w3.org/1999/xlink" width="517pt" height="517pt" viewBox="0 0 517 517" version="1.1">
<g id="surface5306">
<rect x="0" y="0" width="517" height="517" style="fill:rgb(90%,90%,90%);fill-opacity:1;stroke:none;"/>
<path style="fill-rule:nonzero;fill:rgb(0%,0%,0%);fill-opacity:1;stroke-width:1;stroke-linecap:butt;stroke-linejoin:miter;stroke:rgb(0%,0%,0%);stroke-opacity:1;stroke-miterlimit:10;" d="M 206.5625 420.578125 C 206.5625 437.144531 193.132812 450.578125 176.5625 450.578125 C 159.996094 450.578125 146.5625 437.144531 146.5625 420.578125 C 146.5625 404.007812 159.996094 390.578125 176.5625 390.578125 C 193.132812 390.578125 206.5625 404.007812 206.5625 420.578125 "/>
<path style="fill-rule:nonzero;fill:rgb(0%,0%,0%);fill-opacity:1;stroke-width:1;stroke-linecap:butt;stroke-linejoin:miter;stroke:rgb(0%,0%,0%);stroke-opacity:1;stroke-miterlimit:10;" d="M 486.472656 132.324219 C 486.472656 148.894531 473.039062 162.324219 456.472656 162.324219 C 439.902344 162.324219 426.472656 148.894531 426.472656 132.324219 C 426.472656 115.757812 439.902344 102.324219 456.472656 102.324219 C 473.039062 102.324219 486.472656 115.757812 486.472656 132.324219 "/>
<path style="fill-rule:nonzero;fill:rgb(67%,100%,18%);fill-opacity:1;stroke-width:1;stroke-linecap:butt;stroke-linejoin:miter;stroke:rgb(0%,0%,0%);stroke-opacity:1;stroke-miterlimit:10;" d="M 384.359375 158.285156 C 384.359375 174.851562 370.929688 188.285156 354.359375 188.285156 C 337.792969 188.285156 324.359375 174.851562 324.359375 158.285156 C 324.359375 141.714844 337.792969 128.285156 354.359375 128.285156 C 370.929688 128.285156 384.359375 141.714844 384.359375 158.285156 "/>
<path style="fill-rule:nonzero;fill:rgb(67%,100%,18%);fill-opacity:1;stroke-width:1;stroke-linecap:butt;stroke-linejoin:miter;stroke:rgb(0%,0%,0%);stroke-opacity:1;stroke-miterlimit:10;" d="M 352.140625 72.550781 C 352.140625 89.121094 338.710938 102.550781 322.140625 102.550781 C 305.570312 102.550781 292.140625 89.121094 292.140625 72.550781 C 292.140625 55.984375 305.570312 42.550781 322.140625 42.550781 C 338.710938 42.550781 352.140625 55.984375 352.140625 72.550781 "/>
<path style="fill-rule:nonzero;fill:rgb(67%,100%,18%);fill-opacity:1;stroke-width:1;stroke-linecap:butt;stroke-linejoin:miter;stroke:rgb(0%,0%,0%);stroke-opacity:1;stroke-miterlimit:10;" d="M 476.515625 37.875 C 476.515625 54.441406 463.082031 67.875 446.515625 67.875 C 429.945312 67.875 416.515625 54.441406 416.515625 37.875 C 416.515625 21.304688 429.945312 7.875 446.515625 7.875 C 463.082031 7.875 476.515625 21.304688 476.515625 37.875 "/>
<path style="fill-rule:nonzero;fill:rgb(67%,100%,18%);fill-opacity:1;stroke-width:1;stroke-linecap:butt;stroke-linejoin:miter;stroke:rgb(0%,0%,0%);stroke-opacity:1;stroke-miterlimit:10;" d="M 343.253906 220.472656 C 343.253906 237.039062 329.820312 250.472656 313.253906 250.472656 C 296.683594 250.472656 283.253906 237.039062 283.253906 220.472656 C 283.253906 203.902344 296.683594 190.472656 313.253906 190.472656 C 329.820312 190.472656 343.253906 203.902344 343.253906 220.472656 "/>
<path style="fill-rule:nonzero;fill:rgb(67%,100%,18%);fill-opacity:1;stroke-width:1;stroke-linecap:butt;stroke-linejoin:miter;stroke:rgb(0%,0%,0%);stroke-opacity:1;stroke-miterlimit:10;" d="M 443.402344 210.453125 C 443.402344 227.019531 429.96875 240.453125 413.402344 240.453125 C 396.832031 240.453125 383.402344 227.019531 383.402344 210.453125 C 383.402344 193.882812 396.832031 180.453125 413.402344 180.453125 C 429.96875 180.453125 443.402344 193.882812 443.402344 210.453125 "/>
<path style="fill-rule:nonzero;fill:rgb(67%,100%,18%);fill-opacity:1;stroke-width:1;stroke-linecap:butt;stroke-linejoin:miter;stroke:rgb(0%,0%,0%);stroke-opacity:1;stroke-miterlimit:10;" d="M 153.382812 54.285156 C 153.382812 70.851562 139.953125 84.285156 123.382812 84.285156 C 106.816406 84.285156 93.382812 70.851562 93.382812 54.285156 C 93.382812 37.714844 106.816406 24.285156 123.382812 24.285156 C 139.953125 24.285156 153.382812 37.714844 153.382812 54.285156 "/>
</g>
</svg>
