<?xml version="1.0" encoding="UTF-8"?>
<svg xmlns="http://www.w3.org/2000/svg" xmlns:xlink="http://www.w3.org/1999/xlink" width="517pt" height="517pt" viewBox="0 0 517 517" version="1.1">
<g id="surface2931">
<rect x="0" y="0" width="517" height="517" style="fill:rgb(90%,90%,90%);fill-opacity:1;stroke:none;"/>
<path style="fill:none;stroke-width:5;stroke-linecap:butt;stroke-linejoin:round;stroke:rgb(100%,0%,0%);stroke-opacity:1;stroke-miterlimit:10;" d="M 5 261 L 261 261 L 261 517 L 5 517 Z M 5 261 "/>
<path style="fill-rule:nonzero;fill:rgb(53%,27%,7%);fill-opacity:1;stroke-width:1;stroke-linecap:butt;stroke-linejoin:round;stroke:rgb(0%,0%,0%);stroke-opacity:1;stroke-miterlimit:10;" d="M 87.871094 399.90625 C 87.871094 416.472656 74.4375 429.90625 57.871094 429.90625 C 41.300781 429.90625 27.871094 416.472656 27.871094 399.90625 C 27.871094 383.335938 41.300781 369.90625 57.871094 369.90625 C 74.4375 369.90625 87.871094 383.335938 87.871094 399.90625 "/>
<path style="fill-rule:nonzero;fill:rgb(67%,100%,18%);fill-opacity:1;stroke-width:1;stroke-linecap:butt;stroke-linejoin:round;stroke:rgb(0%,0%,0%);stroke-opacity:1;stroke-miterlimit:10;" d="M 482.207031 108.808594 C 482.207031 125.375 468.777344 138.808594 452.207031 138.808594 C 435.636719 138.808594 422.207031 125.375 422.207031 108.808594 C 422.207031 92.238281 435.636719 78.808594 452.207031 78.808594 C 468.777344 78.808594 482.207031 92.238281 482.207031 108.808594 "/>
<path style="fill-rule:nonzero;fill:rgb(53%,27%,7%);fill-opacity:1;stroke-width:1;stroke-linecap:butt;stroke-linejoin:round;stroke:rgb(0%,0%,0%);stroke-opacity:1;stroke-miterlimit:10;" d="M 364.9375 218.917969 C 364.9375 235.488281 351.507812 248.917969 334.9375 248.917969 C 318.371094 248.917969 304.9375 235.488281 304.9375 218.917969 C 304.9375 202.351562 318.371094 188.917969 334.9375 188.917969 C 351.507812 188.917969 364.9375 202.351562 364.9375 218.917969 "/>
<path style="fill-rule:nonzero;fill:rgb(53%,27%,7%);fill-opacity:1;stroke-width:1;stroke-linecap:butt;stroke-linejoin:round;stroke:rgb(0%,0%,0%);stroke-opacity:1;stroke-miterlimit:10;" d="M 195.054688 97.953125 C 195.054688 114.523438 181.625 127.953125 165.054688 127.953125 C 148.488281 127.953125 135.054688 114.523438 135.054688 97.953125 C 135.054688 81.386719 148.488281 67.953125 165.054688 67.953125 C 181.625 67.953125 195.054688 81.386719 195.054688 97.953125 "/>
<path style="fill-rule:nonzero;fill:rgb(53%,27%,7%);fill-opacity:1;stroke-width:1;stroke-linecap:butt;stroke-linejoin:round;stroke:rgb(0%,0%,0%);stroke-opacity:1;stroke-miterlimit:10;" d="M 119.703125 109.324219 C 119.703125 125.890625 106.273438 139.324219 89.703125 139.324219 C 73.136719 139.324219 59.703125 125.890625 59.703125 109.324219 C 59.703125 92.753906 73.136719 79.324219 89.703125 79.324219 C 106.273438 79.324219 119.703125 92.753906 119.703125 109.324219 "/>
</g>
</svg>
