<?xml version="1.0" encoding="UTF-8"?>
<svg xmlns="http://www.w3.org/2000/svg" xmlns:xlink="http://www.w3.org/1999/xlink" width="517pt" height="517pt" viewBox="0 0 517 517" version="1.1">
<g id="surface2881">
<rect x="0" y="0" width="517" height="517" style="fill:rgb(90%,90%,90%);fill-opacity:1;stroke:none;"/>
<path style="fill:none;stroke-width:5;stroke-linecap:butt;stroke-linejoin:round;stroke:rgb(100%,0%,0%);stroke-opacity:1;stroke-miterlimit:10;" d="M 5 261 L 261 261 L 261 517 L 5 517 Z M 5 261 "/>
<path style="fill-rule:nonzero;fill:rgb(53%,27%,7%);fill-opacity:1;stroke-width:1;stroke-linecap:butt;stroke-linejoin:round;stroke:rgb(0%,0%,0%);stroke-opacity:1;stroke-miterlimit:10;" d="M 66.09375 305.496094 C 66.09375 322.0625 52.664062 335.496094 36.09375 335.496094 C 19.527344 335.496094 6.09375 322.0625 6.09375 305.496094 C 6.09375 288.925781 19.527344 275.496094 36.09375 275.496094 C 52.664062 275.496094 66.09375 288.925781 66.09375 305.496094 "/>
<path style="fill-rule:nonzero;fill:rgb(67%,100%,18%);fill-opacity:1;stroke-width:1;stroke-linecap:butt;stroke-linejoin:round;stroke:rgb(0%,0%,0%);stroke-opacity:1;stroke-miterlimit:10;" d="M 121.601562 76.015625 C 121.601562 92.582031 108.167969 106.015625 91.601562 106.015625 C 75.03125 106.015625 61.601562 92.582031 61.601562 76.015625 C 61.601562 59.445312 75.03125 46.015625 91.601562 46.015625 C 108.167969 46.015625 121.601562 59.445312 121.601562 76.015625 "/>
<path style="fill-rule:nonzero;fill:rgb(67%,100%,18%);fill-opacity:1;stroke-width:1;stroke-linecap:butt;stroke-linejoin:round;stroke:rgb(0%,0%,0%);stroke-opacity:1;stroke-miterlimit:10;" d="M 432.953125 317.816406 C 432.953125 334.382812 419.523438 347.816406 402.953125 347.816406 C 386.386719 347.816406 372.953125 334.382812 372.953125 317.816406 C 372.953125 301.246094 386.386719 287.816406 402.953125 287.816406 C 419.523438 287.816406 432.953125 301.246094 432.953125 317.816406 "/>
<path style="fill-rule:nonzero;fill:rgb(67%,100%,18%);fill-opacity:1;stroke-width:1;stroke-linecap:butt;stroke-linejoin:round;stroke:rgb(0%,0%,0%);stroke-opacity:1;stroke-miterlimit:10;" d="M 370.679688 396.910156 C 370.679688 413.480469 357.25 426.910156 340.679688 426.910156 C 324.109375 426.910156 310.679688 413.480469 310.679688 396.910156 C 310.679688 380.339844 324.109375 366.910156 340.679688 366.910156 C 357.25 366.910156 370.679688 380.339844 370.679688 396.910156 "/>
<path style="fill-rule:nonzero;fill:rgb(67%,100%,18%);fill-opacity:1;stroke-width:1;stroke-linecap:butt;stroke-linejoin:round;stroke:rgb(0%,0%,0%);stroke-opacity:1;stroke-miterlimit:10;" d="M 336.335938 110.761719 C 336.335938 127.332031 322.902344 140.761719 306.335938 140.761719 C 289.765625 140.761719 276.335938 127.332031 276.335938 110.761719 C 276.335938 94.195312 289.765625 80.761719 306.335938 80.761719 C 322.902344 80.761719 336.335938 94.195312 336.335938 110.761719 "/>
</g>
</svg>
