<?xml version="1.0" encoding="UTF-8"?>
<svg xmlns="http://www.w3.org/2000/svg" xmlns:xlink="http://www.w3.org/1999/xlink" width="517pt" height="517pt" viewBox="0 0 517 517" version="1.1">
<g id="surface2611">
<rect x="0" y="0" width="517" height="517" style="fill:rgb(90%,90%,90%);fill-opacity:1;stroke:none;"/>
<path style="fill:none;stroke-width:5;stroke-linecap:butt;stroke-linejoin:round;stroke:rgb(100%,0%,0%);stroke-opacity:1;stroke-miterlimit:10;" d="M 261 261 L 517 261 L 517 517 L 261 517 Z M 261 261 "/>
<path style="fill-rule:nonzero;fill:rgb(90%,65%,0%);fill-opacity:1;stroke-width:1;stroke-linecap:butt;stroke-linejoin:round;stroke:rgb(0%,0%,0%);stroke-opacity:1;stroke-miterlimit:10;" d="M 357.820312 313.277344 C 357.820312 329.847656 344.390625 343.277344 327.820312 343.277344 C 311.25 343.277344 297.820312 329.847656 297.820312 313.277344 C 297.820312 296.707031 311.25 283.277344 327.820312 283.277344 C 344.390625 283.277344 357.820312 296.707031 357.820312 313.277344 "/>
<path style="fill-rule:nonzero;fill:rgb(35%,70%,90%);fill-opacity:1;stroke-width:1;stroke-linecap:butt;stroke-linejoin:round;stroke:rgb(0%,0%,0%);stroke-opacity:1;stroke-miterlimit:10;" d="M 447.960938 216.355469 C 447.960938 232.921875 434.53125 246.355469 417.960938 246.355469 C 401.394531 246.355469 387.960938 232.921875 387.960938 216.355469 C 387.960938 199.785156 401.394531 186.355469 417.960938 186.355469 C 434.53125 186.355469 447.960938 199.785156 447.960938 216.355469 "/>
<path style="fill-rule:nonzero;fill:rgb(90%,65%,0%);fill-opacity:1;stroke-width:1;stroke-linecap:butt;stroke-linejoin:round;stroke:rgb(0%,0%,0%);stroke-opacity:1;stroke-miterlimit:10;" d="M 135.941406 411.027344 C 135.941406 427.59375 122.507812 441.027344 105.941406 441.027344 C 89.371094 441.027344 75.941406 427.59375 75.941406 411.027344 C 75.941406 394.457031 89.371094 381.027344 105.941406 381.027344 C 122.507812 381.027344 135.941406 394.457031 135.941406 411.027344 "/>
<path style="fill-rule:nonzero;fill:rgb(90%,65%,0%);fill-opacity:1;stroke-width:1;stroke-linecap:butt;stroke-linejoin:round;stroke:rgb(0%,0%,0%);stroke-opacity:1;stroke-miterlimit:10;" d="M 188.601562 309.042969 C 188.601562 325.609375 175.171875 339.042969 158.601562 339.042969 C 142.035156 339.042969 128.601562 325.609375 128.601562 309.042969 C 128.601562 292.472656 142.035156 279.042969 158.601562 279.042969 C 175.171875 279.042969 188.601562 292.472656 188.601562 309.042969 "/>
<path style="fill-rule:nonzero;fill:rgb(90%,65%,0%);fill-opacity:1;stroke-width:1;stroke-linecap:butt;stroke-linejoin:round;stroke:rgb(0%,0%,0%);stroke-opacity:1;stroke-miterlimit:10;" d="M 197.246094 454.117188 C 197.246094 470.683594 183.8125 484.117188 167.246094 484.117188 C 150.675781 484.117188 137.246094 470.683594 137.246094 454.117188 C 137.246094 437.546875 150.675781 424.117188 167.246094 424.117188 C 183.8125 424.117188 197.246094 437.546875 197.246094 454.117188 "/>
</g>
</svg>
