<?xml version="1.0" encoding="UTF-8"?>
<svg xmlns="http://www.w3.org/2000/svg" xmlns:xlink="http://www.w3.org/1999/xlink" width="517pt" height="517pt" viewBox="0 0 517 517" version="1.1">
<g id="surface2706">
<rect x="0" y="0" width="517" height="517" style="fill:rgb(90%,90%,90%);fill-opacity:1;stroke:none;"/>
<path style="fill:none;stroke-width:5;stroke-linecap:butt;stroke-linejoin:round;stroke:rgb(100%,0%,0%);stroke-opacity:1;stroke-miterlimit:10;" d="M 261 261 L 517 261 L 517 517 L 261 517 Z M 261 261 "/>
<path style="fill-rule:nonzero;fill:rgb(100%,0%,0%);fill-opacity:1;stroke-width:1;stroke-linecap:butt;stroke-linejoin:round;stroke:rgb(0%,0%,0%);stroke-opacity:1;stroke-miterlimit:10;" d="M 307.5 337.050781 L 287.5 337.050781 L 287.5 347.050781 L 307.5 347.050781 L 307.5 367.050781 L 317.5 367.050781 L 317.5 347.050781 L 337.5 347.050781 L 337.5 337.050781 L 317.5 337.050781 L 317.5 317.050781 L 307.5 317.050781 L 307.5 337.050781 "/>
<path style="fill-rule:nonzero;fill:rgb(50%,0%,50%);fill-opacity:1;stroke-width:1;stroke-linecap:butt;stroke-linejoin:round;stroke:rgb(0%,0%,0%);stroke-opacity:1;stroke-miterlimit:10;" d="M 370.53125 190.515625 L 350.53125 190.515625 L 350.53125 200.515625 L 370.53125 200.515625 L 370.53125 220.515625 L 380.53125 220.515625 L 380.53125 200.515625 L 400.53125 200.515625 L 400.53125 190.515625 L 380.53125 190.515625 L 380.53125 170.515625 L 370.53125 170.515625 L 370.53125 190.515625 "/>
<path style="fill-rule:nonzero;fill:rgb(50%,0%,50%);fill-opacity:1;stroke-width:1;stroke-linecap:butt;stroke-linejoin:round;stroke:rgb(0%,0%,0%);stroke-opacity:1;stroke-miterlimit:10;" d="M 144.394531 440.386719 L 124.394531 440.386719 L 124.394531 450.386719 L 144.394531 450.386719 L 144.394531 470.386719 L 154.394531 470.386719 L 154.394531 450.386719 L 174.394531 450.386719 L 174.394531 440.386719 L 154.394531 440.386719 L 154.394531 420.386719 L 144.394531 420.386719 L 144.394531 440.386719 "/>
<path style="fill-rule:nonzero;fill:rgb(50%,0%,50%);fill-opacity:1;stroke-width:1;stroke-linecap:butt;stroke-linejoin:round;stroke:rgb(0%,0%,0%);stroke-opacity:1;stroke-miterlimit:10;" d="M 61.414062 81.625 L 41.414062 81.625 L 41.414062 91.625 L 61.414062 91.625 L 61.414062 111.625 L 71.414062 111.625 L 71.414062 91.625 L 91.414062 91.625 L 91.414062 81.625 L 71.414062 81.625 L 71.414062 61.625 L 61.414062 61.625 L 61.414062 81.625 "/>
<path style="fill-rule:nonzero;fill:rgb(50%,0%,50%);fill-opacity:1;stroke-width:1;stroke-linecap:butt;stroke-linejoin:round;stroke:rgb(0%,0%,0%);stroke-opacity:1;stroke-miterlimit:10;" d="M 70.109375 208.210938 L 50.109375 208.210938 L 50.109375 218.210938 L 70.109375 218.210938 L 70.109375 238.210938 L 80.109375 238.210938 L 80.109375 218.210938 L 100.109375 218.210938 L 100.109375 208.210938 L 80.109375 208.210938 L 80.109375 188.210938 L 70.109375 188.210938 L 70.109375 208.210938 "/>
</g>
</svg>
