<?xml version="1.0" encoding="UTF-8"?>
<svg xmlns="http://www.w3.org/2000/svg" xmlns:xlink="http://www.w3.org/1999/xlink" width="517pt" height="517pt" viewBox="0 0 517 517" version="1.1">
<g id="surface5316">
<rect x="0" y="0" width="517" height="517" style="fill:rgb(90%,90%,90%);fill-opacity:1;stroke:none;"/>
<path style="fill-rule:nonzero;fill:rgb(0%,0%,0%);fill-opacity:1;stroke-width:1;stroke-linecap:butt;stroke-linejoin:miter;stroke:rgb(0%,0%,0%);stroke-opacity:1;stroke-miterlimit:10;" d="M 74.332031 339.035156 C 74.332031 355.605469 60.898438 369.035156 44.332031 369.035156 C 27.761719 369.035156 14.332031 355.605469 14.332031 339.035156 C 14.332031 322.46875 27.761719 309.035156 44.332031 309.035156 C 60.898438 309.035156 74.332031 322.46875 74.332031 339.035156 "/>
<path style="fill-rule:nonzero;fill:rgb(0%,0%,0%);fill-opacity:1;stroke-width:1;stroke-linecap:butt;stroke-linejoin:miter;stroke:rgb(0%,0%,0%);stroke-opacity:1;stroke-miterlimit:10;" d="M 160.0625 301.875 C 160.0625 318.441406 146.628906 331.875 130.0625 331.875 C 113.492188 331.875 100.0625 318.441406 100.0625 301.875 C 100.0625 285.304688 113.492188 271.875 130.0625 271.875 C 146.628906 271.875 160.0625 285.304688 160.0625 301.875 "/>
<path style="fill-rule:nonzero;fill:rgb(0%,0%,0%);fill-opacity:1;stroke-width:1;stroke-linecap:butt;stroke-linejoin:miter;stroke:rgb(0%,0%,0%);stroke-opacity:1;stroke-miterlimit:10;" d="M 150.011719 216.933594 C 150.011719 233.5 136.582031 246.933594 120.011719 246.933594 C 103.445312 246.933594 90.011719 233.5 90.011719 216.933594 C 90.011719 200.363281 103.445312 186.933594 120.011719 186.933594 C 136.582031 186.933594 150.011719 200.363281 150.011719 216.933594 "/>
<path style="fill-rule:nonzero;fill:rgb(67%,100%,18%);fill-opacity:1;stroke-width:1;stroke-linecap:butt;stroke-linejoin:miter;stroke:rgb(0%,0%,0%);stroke-opacity:1;stroke-miterlimit:10;" d="M 215.386719 160.292969 C 215.386719 176.863281 201.957031 190.292969 185.386719 190.292969 C 168.820312 190.292969 155.386719 176.863281 155.386719 160.292969 C 155.386719 143.726562 168.820312 130.292969 185.386719 130.292969 C 201.957031 130.292969 215.386719 143.726562 215.386719 160.292969 "/>
<path style="fill-rule:nonzero;fill:rgb(67%,100%,18%);fill-opacity:1;stroke-width:1;stroke-linecap:butt;stroke-linejoin:miter;stroke:rgb(0%,0%,0%);stroke-opacity:1;stroke-miterlimit:10;" d="M 500.25 145.449219 C 500.25 162.015625 486.820312 175.449219 470.25 175.449219 C 453.683594 175.449219 440.25 162.015625 440.25 145.449219 C 440.25 128.878906 453.683594 115.449219 470.25 115.449219 C 486.820312 115.449219 500.25 128.878906 500.25 145.449219 "/>
<path style="fill-rule:nonzero;fill:rgb(67%,100%,18%);fill-opacity:1;stroke-width:1;stroke-linecap:butt;stroke-linejoin:miter;stroke:rgb(0%,0%,0%);stroke-opacity:1;stroke-miterlimit:10;" d="M 382.367188 129.074219 C 382.367188 145.644531 368.933594 159.074219 352.367188 159.074219 C 335.796875 159.074219 322.367188 145.644531 322.367188 129.074219 C 322.367188 112.507812 335.796875 99.074219 352.367188 99.074219 C 368.933594 99.074219 382.367188 112.507812 382.367188 129.074219 "/>
<path style="fill-rule:nonzero;fill:rgb(67%,100%,18%);fill-opacity:1;stroke-width:1;stroke-linecap:butt;stroke-linejoin:miter;stroke:rgb(0%,0%,0%);stroke-opacity:1;stroke-miterlimit:10;" d="M 503.71875 59.863281 C 503.71875 76.433594 490.285156 89.863281 473.71875 89.863281 C 457.148438 89.863281 443.71875 76.433594 443.71875 59.863281 C 443.71875 43.296875 457.148438 29.863281 473.71875 29.863281 C 490.285156 29.863281 503.71875 43.296875 503.71875 59.863281 "/>
<path style="fill-rule:nonzero;fill:rgb(67%,100%,18%);fill-opacity:1;stroke-width:1;stroke-linecap:butt;stroke-linejoin:miter;stroke:rgb(0%,0%,0%);stroke-opacity:1;stroke-miterlimit:10;" d="M 474.128906 218.957031 C 474.128906 235.527344 460.695312 248.957031 444.128906 248.957031 C 427.558594 248.957031 414.128906 235.527344 414.128906 218.957031 C 414.128906 202.390625 427.558594 188.957031 444.128906 188.957031 C 460.695312 188.957031 474.128906 202.390625 474.128906 218.957031 "/>
</g>
</svg>
