<?xml version="1.0" encoding="UTF-8"?>
<svg xmlns="http://www.w3.org/2000/svg" xmlns:xlink="http://www.w3.org/1999/xlink" width="517pt" height="517pt" viewBox="0 0 517 517" version="1.1">
<g id="surface196">
<rect x="0" y="0" width="517" height="517" style="fill:rgb(90%,90%,90%);fill-opacity:1;stroke:none;"/>
<path style="fill:none;stroke-width:5;stroke-linecap:butt;stroke-linejoin:round;stroke:rgb(100%,0%,0%);stroke-opacity:1;stroke-miterlimit:10;" d="M 5 5 L 261 5 L 261 261 L 5 261 Z M 5 5 "/>
<path style="fill-rule:nonzero;fill:rgb(100%,7%,57%);fill-opacity:1;stroke-width:1;stroke-linecap:butt;stroke-linejoin:round;stroke:rgb(0%,0%,0%);stroke-opacity:1;stroke-miterlimit:10;" d="M 88.378906 141.78125 C 88.378906 158.351562 74.949219 171.78125 58.378906 171.78125 C 41.8125 171.78125 28.378906 158.351562 28.378906 141.78125 C 28.378906 125.214844 41.8125 111.78125 58.378906 111.78125 C 74.949219 111.78125 88.378906 125.214844 88.378906 141.78125 "/>
<path style="fill-rule:nonzero;fill:rgb(0%,0%,0%);fill-opacity:1;stroke-width:1;stroke-linecap:butt;stroke-linejoin:round;stroke:rgb(0%,0%,0%);stroke-opacity:1;stroke-miterlimit:10;" d="M 321.027344 299.097656 C 321.027344 315.664062 307.597656 329.097656 291.027344 329.097656 C 274.460938 329.097656 261.027344 315.664062 261.027344 299.097656 C 261.027344 282.527344 274.460938 269.097656 291.027344 269.097656 C 307.597656 269.097656 321.027344 282.527344 321.027344 299.097656 "/>
<path style="fill-rule:nonzero;fill:rgb(0%,0%,0%);fill-opacity:1;stroke-width:1;stroke-linecap:butt;stroke-linejoin:round;stroke:rgb(0%,0%,0%);stroke-opacity:1;stroke-miterlimit:10;" d="M 354.09375 157.328125 C 354.09375 173.898438 340.664062 187.328125 324.09375 187.328125 C 307.527344 187.328125 294.09375 173.898438 294.09375 157.328125 C 294.09375 140.761719 307.527344 127.328125 324.09375 127.328125 C 340.664062 127.328125 354.09375 140.761719 354.09375 157.328125 "/>
<path style="fill-rule:nonzero;fill:rgb(100%,7%,57%);fill-opacity:1;stroke-width:1;stroke-linecap:butt;stroke-linejoin:round;stroke:rgb(0%,0%,0%);stroke-opacity:1;stroke-miterlimit:10;" d="M 127.710938 463.007812 C 127.710938 479.574219 114.277344 493.007812 97.710938 493.007812 C 81.140625 493.007812 67.710938 479.574219 67.710938 463.007812 C 67.710938 446.4375 81.140625 433.007812 97.710938 433.007812 C 114.277344 433.007812 127.710938 446.4375 127.710938 463.007812 "/>
</g>
</svg>
