<?xml version="1.0" encoding="UTF-8"?>
<svg xmlns="http://www.w3.org/2000/svg" xmlns:xlink="http://www.w3.org/1999/xlink" width="517pt" height="517pt" viewBox="0 0 517 517" version="1.1">
<g id="surface2601">
<rect x="0" y="0" width="517" height="517" style="fill:rgb(90%,90%,90%);fill-opacity:1;stroke:none;"/>
<path style="fill:none;stroke-width:5;stroke-linecap:butt;stroke-linejoin:round;stroke:rgb(100%,0%,0%);stroke-opacity:1;stroke-miterlimit:10;" d="M 261 261 L 517 261 L 517 517 L 261 517 Z M 261 261 "/>
<path style="fill-rule:nonzero;fill:rgb(90%,65%,0%);fill-opacity:1;stroke-width:1;stroke-linecap:butt;stroke-linejoin:round;stroke:rgb(0%,0%,0%);stroke-opacity:1;stroke-miterlimit:10;" d="M 494.898438 432.511719 C 494.898438 449.082031 481.46875 462.511719 464.898438 462.511719 C 448.332031 462.511719 434.898438 449.082031 434.898438 432.511719 C 434.898438 415.945312 448.332031 402.511719 464.898438 402.511719 C 481.46875 402.511719 494.898438 415.945312 494.898438 432.511719 "/>
<path style="fill-rule:nonzero;fill:rgb(35%,70%,90%);fill-opacity:1;stroke-width:1;stroke-linecap:butt;stroke-linejoin:round;stroke:rgb(0%,0%,0%);stroke-opacity:1;stroke-miterlimit:10;" d="M 110.128906 395.792969 C 110.128906 412.363281 96.699219 425.792969 80.128906 425.792969 C 63.5625 425.792969 50.128906 412.363281 50.128906 395.792969 C 50.128906 379.226562 63.5625 365.792969 80.128906 365.792969 C 96.699219 365.792969 110.128906 379.226562 110.128906 395.792969 "/>
<path style="fill-rule:nonzero;fill:rgb(90%,65%,0%);fill-opacity:1;stroke-width:1;stroke-linecap:butt;stroke-linejoin:round;stroke:rgb(0%,0%,0%);stroke-opacity:1;stroke-miterlimit:10;" d="M 138.78125 296.738281 C 138.78125 313.304688 125.347656 326.738281 108.78125 326.738281 C 92.210938 326.738281 78.78125 313.304688 78.78125 296.738281 C 78.78125 280.167969 92.210938 266.738281 108.78125 266.738281 C 125.347656 266.738281 138.78125 280.167969 138.78125 296.738281 "/>
<path style="fill-rule:nonzero;fill:rgb(90%,65%,0%);fill-opacity:1;stroke-width:1;stroke-linecap:butt;stroke-linejoin:round;stroke:rgb(0%,0%,0%);stroke-opacity:1;stroke-miterlimit:10;" d="M 217.980469 169.652344 C 217.980469 186.21875 204.546875 199.652344 187.980469 199.652344 C 171.410156 199.652344 157.980469 186.21875 157.980469 169.652344 C 157.980469 153.082031 171.410156 139.652344 187.980469 139.652344 C 204.546875 139.652344 217.980469 153.082031 217.980469 169.652344 "/>
<path style="fill-rule:nonzero;fill:rgb(90%,65%,0%);fill-opacity:1;stroke-width:1;stroke-linecap:butt;stroke-linejoin:round;stroke:rgb(0%,0%,0%);stroke-opacity:1;stroke-miterlimit:10;" d="M 210.390625 45.027344 C 210.390625 61.597656 196.957031 75.027344 180.390625 75.027344 C 163.820312 75.027344 150.390625 61.597656 150.390625 45.027344 C 150.390625 28.460938 163.820312 15.027344 180.390625 15.027344 C 196.957031 15.027344 210.390625 28.460938 210.390625 45.027344 "/>
</g>
</svg>
