<?xml version="1.0" encoding="UTF-8"?>
<svg xmlns="http://www.w3.org/2000/svg" xmlns:xlink="http://www.w3.org/1999/xlink" width="517pt" height="517pt" viewBox="0 0 517 517" version="1.1">
<g id="surface3016">
<rect x="0" y="0" width="517" height="517" style="fill:rgb(90%,90%,90%);fill-opacity:1;stroke:none;"/>
<path style="fill:none;stroke-width:5;stroke-linecap:butt;stroke-linejoin:round;stroke:rgb(100%,0%,0%);stroke-opacity:1;stroke-miterlimit:10;" d="M 5 261 L 261 261 L 261 517 L 5 517 Z M 5 261 "/>
<path style="fill-rule:nonzero;fill:rgb(50%,0%,50%);fill-opacity:1;stroke-width:1;stroke-linecap:butt;stroke-linejoin:round;stroke:rgb(0%,0%,0%);stroke-opacity:1;stroke-miterlimit:10;" d="M 102.546875 293.722656 L 82.546875 293.722656 L 82.546875 303.722656 L 102.546875 303.722656 L 102.546875 323.722656 L 112.546875 323.722656 L 112.546875 303.722656 L 132.546875 303.722656 L 132.546875 293.722656 L 112.546875 293.722656 L 112.546875 273.722656 L 102.546875 273.722656 L 102.546875 293.722656 "/>
<path style="fill-rule:nonzero;fill:rgb(0%,0%,0%);fill-opacity:1;stroke-width:1;stroke-linecap:butt;stroke-linejoin:round;stroke:rgb(0%,0%,0%);stroke-opacity:1;stroke-miterlimit:10;" d="M 466.972656 171.917969 L 446.972656 171.917969 L 446.972656 181.917969 L 466.972656 181.917969 L 466.972656 201.917969 L 476.972656 201.917969 L 476.972656 181.917969 L 496.972656 181.917969 L 496.972656 171.917969 L 476.972656 171.917969 L 476.972656 151.917969 L 466.972656 151.917969 L 466.972656 171.917969 "/>
<path style="fill-rule:nonzero;fill:rgb(50%,0%,50%);fill-opacity:1;stroke-width:1;stroke-linecap:butt;stroke-linejoin:round;stroke:rgb(0%,0%,0%);stroke-opacity:1;stroke-miterlimit:10;" d="M 325.808594 384.972656 L 305.808594 384.972656 L 305.808594 394.972656 L 325.808594 394.972656 L 325.808594 414.972656 L 335.808594 414.972656 L 335.808594 394.972656 L 355.808594 394.972656 L 355.808594 384.972656 L 335.808594 384.972656 L 335.808594 364.972656 L 325.808594 364.972656 L 325.808594 384.972656 "/>
<path style="fill-rule:nonzero;fill:rgb(50%,0%,50%);fill-opacity:1;stroke-width:1;stroke-linecap:butt;stroke-linejoin:round;stroke:rgb(0%,0%,0%);stroke-opacity:1;stroke-miterlimit:10;" d="M 41.433594 51.671875 L 21.433594 51.671875 L 21.433594 61.671875 L 41.433594 61.671875 L 41.433594 81.671875 L 51.433594 81.671875 L 51.433594 61.671875 L 71.433594 61.671875 L 71.433594 51.671875 L 51.433594 51.671875 L 51.433594 31.671875 L 41.433594 31.671875 L 41.433594 51.671875 "/>
<path style="fill-rule:nonzero;fill:rgb(50%,0%,50%);fill-opacity:1;stroke-width:1;stroke-linecap:butt;stroke-linejoin:round;stroke:rgb(0%,0%,0%);stroke-opacity:1;stroke-miterlimit:10;" d="M 95.972656 171.429688 L 75.972656 171.429688 L 75.972656 181.429688 L 95.972656 181.429688 L 95.972656 201.429688 L 105.972656 201.429688 L 105.972656 181.429688 L 125.972656 181.429688 L 125.972656 171.429688 L 105.972656 171.429688 L 105.972656 151.429688 L 95.972656 151.429688 L 95.972656 171.429688 "/>
</g>
</svg>
