<?xml version="1.0" encoding="UTF-8"?>
<svg xmlns="http://www.w3.org/2000/svg" xmlns:xlink="http://www.w3.org/1999/xlink" width="517pt" height="517pt" viewBox="0 0 517 517" version="1.1">
<g id="surface3011">
<rect x="0" y="0" width="517" height="517" style="fill:rgb(90%,90%,90%);fill-opacity:1;stroke:none;"/>
<path style="fill:none;stroke-width:5;stroke-linecap:butt;stroke-linejoin:round;stroke:rgb(100%,0%,0%);stroke-opacity:1;stroke-miterlimit:10;" d="M 5 261 L 261 261 L 261 517 L 5 517 Z M 5 261 "/>
<path style="fill-rule:nonzero;fill:rgb(50%,0%,50%);fill-opacity:1;stroke-width:1;stroke-linecap:butt;stroke-linejoin:round;stroke:rgb(0%,0%,0%);stroke-opacity:1;stroke-miterlimit:10;" d="M 118.234375 426.9375 L 98.234375 426.9375 L 98.234375 436.9375 L 118.234375 436.9375 L 118.234375 456.9375 L 128.234375 456.9375 L 128.234375 436.9375 L 148.234375 436.9375 L 148.234375 426.9375 L 128.234375 426.9375 L 128.234375 406.9375 L 118.234375 406.9375 L 118.234375 426.9375 "/>
<path style="fill-rule:nonzero;fill:rgb(0%,0%,0%);fill-opacity:1;stroke-width:1;stroke-linecap:butt;stroke-linejoin:round;stroke:rgb(0%,0%,0%);stroke-opacity:1;stroke-miterlimit:10;" d="M 436.257812 405.933594 L 416.257812 405.933594 L 416.257812 415.933594 L 436.257812 415.933594 L 436.257812 435.933594 L 446.257812 435.933594 L 446.257812 415.933594 L 466.257812 415.933594 L 466.257812 405.933594 L 446.257812 405.933594 L 446.257812 385.933594 L 436.257812 385.933594 L 436.257812 405.933594 "/>
<path style="fill-rule:nonzero;fill:rgb(50%,0%,50%);fill-opacity:1;stroke-width:1;stroke-linecap:butt;stroke-linejoin:round;stroke:rgb(0%,0%,0%);stroke-opacity:1;stroke-miterlimit:10;" d="M 102.53125 121.714844 L 82.53125 121.714844 L 82.53125 131.714844 L 102.53125 131.714844 L 102.53125 151.714844 L 112.53125 151.714844 L 112.53125 131.714844 L 132.53125 131.714844 L 132.53125 121.714844 L 112.53125 121.714844 L 112.53125 101.714844 L 102.53125 101.714844 L 102.53125 121.714844 "/>
<path style="fill-rule:nonzero;fill:rgb(50%,0%,50%);fill-opacity:1;stroke-width:1;stroke-linecap:butt;stroke-linejoin:round;stroke:rgb(0%,0%,0%);stroke-opacity:1;stroke-miterlimit:10;" d="M 131.457031 40.398438 L 111.457031 40.398438 L 111.457031 50.398438 L 131.457031 50.398438 L 131.457031 70.398438 L 141.457031 70.398438 L 141.457031 50.398438 L 161.457031 50.398438 L 161.457031 40.398438 L 141.457031 40.398438 L 141.457031 20.398438 L 131.457031 20.398438 L 131.457031 40.398438 "/>
<path style="fill-rule:nonzero;fill:rgb(50%,0%,50%);fill-opacity:1;stroke-width:1;stroke-linecap:butt;stroke-linejoin:round;stroke:rgb(0%,0%,0%);stroke-opacity:1;stroke-miterlimit:10;" d="M 186.796875 98.128906 L 166.796875 98.128906 L 166.796875 108.128906 L 186.796875 108.128906 L 186.796875 128.128906 L 196.796875 128.128906 L 196.796875 108.128906 L 216.796875 108.128906 L 216.796875 98.128906 L 196.796875 98.128906 L 196.796875 78.128906 L 186.796875 78.128906 L 186.796875 98.128906 "/>
</g>
</svg>
