<?xml version="1.0" encoding="UTF-8"?>
<svg xmlns="http://www.w3.org/2000/svg" xmlns:xlink="http://www.w3.org/1999/xlink" width="517pt" height="517pt" viewBox="0 0 517 517" version="1.1">
<g id="surface2361">
<rect x="0" y="0" width="517" height="517" style="fill:rgb(90%,90%,90%);fill-opacity:1;stroke:none;"/>
<path style="fill:none;stroke-width:5;stroke-linecap:butt;stroke-linejoin:round;stroke:rgb(100%,0%,0%);stroke-opacity:1;stroke-miterlimit:10;" d="M 261 261 L 517 261 L 517 517 L 261 517 Z M 261 261 "/>
<path style="fill-rule:nonzero;fill:rgb(100%,0%,0%);fill-opacity:1;stroke-width:1;stroke-linecap:butt;stroke-linejoin:round;stroke:rgb(0%,0%,0%);stroke-opacity:1;stroke-miterlimit:10;" d="M 421.234375 295.453125 L 401.234375 295.453125 L 401.234375 305.453125 L 421.234375 305.453125 L 421.234375 325.453125 L 431.234375 325.453125 L 431.234375 305.453125 L 451.234375 305.453125 L 451.234375 295.453125 L 431.234375 295.453125 L 431.234375 275.453125 L 421.234375 275.453125 L 421.234375 295.453125 "/>
<path style="fill-rule:nonzero;fill:rgb(67%,100%,18%);fill-opacity:1;stroke-width:1;stroke-linecap:butt;stroke-linejoin:round;stroke:rgb(0%,0%,0%);stroke-opacity:1;stroke-miterlimit:10;" d="M 463.585938 197.859375 L 443.585938 197.859375 L 443.585938 207.859375 L 463.585938 207.859375 L 463.585938 227.859375 L 473.585938 227.859375 L 473.585938 207.859375 L 493.585938 207.859375 L 493.585938 197.859375 L 473.585938 197.859375 L 473.585938 177.859375 L 463.585938 177.859375 L 463.585938 197.859375 "/>
<path style="fill-rule:nonzero;fill:rgb(100%,0%,0%);fill-opacity:1;stroke-width:1;stroke-linecap:butt;stroke-linejoin:round;stroke:rgb(0%,0%,0%);stroke-opacity:1;stroke-miterlimit:10;" d="M 459.3125 62.945312 L 439.3125 62.945312 L 439.3125 72.945312 L 459.3125 72.945312 L 459.3125 92.945312 L 469.3125 92.945312 L 469.3125 72.945312 L 489.3125 72.945312 L 489.3125 62.945312 L 469.3125 62.945312 L 469.3125 42.945312 L 459.3125 42.945312 L 459.3125 62.945312 "/>
<path style="fill-rule:nonzero;fill:rgb(100%,0%,0%);fill-opacity:1;stroke-width:1;stroke-linecap:butt;stroke-linejoin:round;stroke:rgb(0%,0%,0%);stroke-opacity:1;stroke-miterlimit:10;" d="M 85.734375 99.867188 L 65.734375 99.867188 L 65.734375 109.867188 L 85.734375 109.867188 L 85.734375 129.867188 L 95.734375 129.867188 L 95.734375 109.867188 L 115.734375 109.867188 L 115.734375 99.867188 L 95.734375 99.867188 L 95.734375 79.867188 L 85.734375 79.867188 L 85.734375 99.867188 "/>
<path style="fill-rule:nonzero;fill:rgb(100%,0%,0%);fill-opacity:1;stroke-width:1;stroke-linecap:butt;stroke-linejoin:round;stroke:rgb(0%,0%,0%);stroke-opacity:1;stroke-miterlimit:10;" d="M 182.878906 154.84375 L 162.878906 154.84375 L 162.878906 164.84375 L 182.878906 164.84375 L 182.878906 184.84375 L 192.878906 184.84375 L 192.878906 164.84375 L 212.878906 164.84375 L 212.878906 154.84375 L 192.878906 154.84375 L 192.878906 134.84375 L 182.878906 134.84375 L 182.878906 154.84375 "/>
</g>
</svg>
