<?xml version="1.0" encoding="UTF-8"?>
<svg xmlns="http://www.w3.org/2000/svg" xmlns:xlink="http://www.w3.org/1999/xlink" width="517pt" height="517pt" viewBox="0 0 517 517" version="1.1">
<g id="surface2371">
<rect x="0" y="0" width="517" height="517" style="fill:rgb(90%,90%,90%);fill-opacity:1;stroke:none;"/>
<path style="fill:none;stroke-width:5;stroke-linecap:butt;stroke-linejoin:round;stroke:rgb(100%,0%,0%);stroke-opacity:1;stroke-miterlimit:10;" d="M 261 261 L 517 261 L 517 517 L 261 517 Z M 261 261 "/>
<path style="fill-rule:nonzero;fill:rgb(100%,0%,0%);fill-opacity:1;stroke-width:1;stroke-linecap:butt;stroke-linejoin:round;stroke:rgb(0%,0%,0%);stroke-opacity:1;stroke-miterlimit:10;" d="M 419.304688 361.324219 L 399.304688 361.324219 L 399.304688 371.324219 L 419.304688 371.324219 L 419.304688 391.324219 L 429.304688 391.324219 L 429.304688 371.324219 L 449.304688 371.324219 L 449.304688 361.324219 L 429.304688 361.324219 L 429.304688 341.324219 L 419.304688 341.324219 L 419.304688 361.324219 "/>
<path style="fill-rule:nonzero;fill:rgb(67%,100%,18%);fill-opacity:1;stroke-width:1;stroke-linecap:butt;stroke-linejoin:round;stroke:rgb(0%,0%,0%);stroke-opacity:1;stroke-miterlimit:10;" d="M 344.449219 38.964844 L 324.449219 38.964844 L 324.449219 48.964844 L 344.449219 48.964844 L 344.449219 68.964844 L 354.449219 68.964844 L 354.449219 48.964844 L 374.449219 48.964844 L 374.449219 38.964844 L 354.449219 38.964844 L 354.449219 18.964844 L 344.449219 18.964844 L 344.449219 38.964844 "/>
<path style="fill-rule:nonzero;fill:rgb(100%,0%,0%);fill-opacity:1;stroke-width:1;stroke-linecap:butt;stroke-linejoin:round;stroke:rgb(0%,0%,0%);stroke-opacity:1;stroke-miterlimit:10;" d="M 301.789062 89.25 L 281.789062 89.25 L 281.789062 99.25 L 301.789062 99.25 L 301.789062 119.25 L 311.789062 119.25 L 311.789062 99.25 L 331.789062 99.25 L 331.789062 89.25 L 311.789062 89.25 L 311.789062 69.25 L 301.789062 69.25 L 301.789062 89.25 "/>
<path style="fill-rule:nonzero;fill:rgb(100%,0%,0%);fill-opacity:1;stroke-width:1;stroke-linecap:butt;stroke-linejoin:round;stroke:rgb(0%,0%,0%);stroke-opacity:1;stroke-miterlimit:10;" d="M 194.730469 380.582031 L 174.730469 380.582031 L 174.730469 390.582031 L 194.730469 390.582031 L 194.730469 410.582031 L 204.730469 410.582031 L 204.730469 390.582031 L 224.730469 390.582031 L 224.730469 380.582031 L 204.730469 380.582031 L 204.730469 360.582031 L 194.730469 360.582031 L 194.730469 380.582031 "/>
<path style="fill-rule:nonzero;fill:rgb(100%,0%,0%);fill-opacity:1;stroke-width:1;stroke-linecap:butt;stroke-linejoin:round;stroke:rgb(0%,0%,0%);stroke-opacity:1;stroke-miterlimit:10;" d="M 114.953125 370.1875 L 94.953125 370.1875 L 94.953125 380.1875 L 114.953125 380.1875 L 114.953125 400.1875 L 124.953125 400.1875 L 124.953125 380.1875 L 144.953125 380.1875 L 144.953125 370.1875 L 124.953125 370.1875 L 124.953125 350.1875 L 114.953125 350.1875 L 114.953125 370.1875 "/>
</g>
</svg>
