<?xml version="1.0" encoding="UTF-8"?>
<svg xmlns="http://www.w3.org/2000/svg" xmlns:xlink="http://www.w3.org/1999/xlink" width="517pt" height="517pt" viewBox="0 0 517 517" version="1.1">
<g id="surface2626">
<rect x="0" y="0" width="517" height="517" style="fill:rgb(90%,90%,90%);fill-opacity:1;stroke:none;"/>
<path style="fill:none;stroke-width:5;stroke-linecap:butt;stroke-linejoin:round;stroke:rgb(100%,0%,0%);stroke-opacity:1;stroke-miterlimit:10;" d="M 261 261 L 517 261 L 517 517 L 261 517 Z M 261 261 "/>
<path style="fill-rule:nonzero;fill:rgb(53%,27%,7%);fill-opacity:1;stroke-width:1;stroke-linecap:butt;stroke-linejoin:round;stroke:rgb(0%,0%,0%);stroke-opacity:1;stroke-miterlimit:10;" d="M 346.511719 316.90625 C 346.511719 333.472656 333.082031 346.90625 316.511719 346.90625 C 299.941406 346.90625 286.511719 333.472656 286.511719 316.90625 C 286.511719 300.335938 299.941406 286.90625 316.511719 286.90625 C 333.082031 286.90625 346.511719 300.335938 346.511719 316.90625 "/>
<path style="fill-rule:nonzero;fill:rgb(35%,70%,90%);fill-opacity:1;stroke-width:1;stroke-linecap:butt;stroke-linejoin:round;stroke:rgb(0%,0%,0%);stroke-opacity:1;stroke-miterlimit:10;" d="M 187.289062 149.355469 C 187.289062 165.925781 173.859375 179.355469 157.289062 179.355469 C 140.722656 179.355469 127.289062 165.925781 127.289062 149.355469 C 127.289062 132.789062 140.722656 119.355469 157.289062 119.355469 C 173.859375 119.355469 187.289062 132.789062 187.289062 149.355469 "/>
<path style="fill-rule:nonzero;fill:rgb(35%,70%,90%);fill-opacity:1;stroke-width:1;stroke-linecap:butt;stroke-linejoin:round;stroke:rgb(0%,0%,0%);stroke-opacity:1;stroke-miterlimit:10;" d="M 102.9375 135.730469 C 102.9375 152.300781 89.503906 165.730469 72.9375 165.730469 C 56.367188 165.730469 42.9375 152.300781 42.9375 135.730469 C 42.9375 119.164062 56.367188 105.730469 72.9375 105.730469 C 89.503906 105.730469 102.9375 119.164062 102.9375 135.730469 "/>
<path style="fill-rule:nonzero;fill:rgb(35%,70%,90%);fill-opacity:1;stroke-width:1;stroke-linecap:butt;stroke-linejoin:round;stroke:rgb(0%,0%,0%);stroke-opacity:1;stroke-miterlimit:10;" d="M 217.9375 377.214844 C 217.9375 393.785156 204.503906 407.214844 187.9375 407.214844 C 171.367188 407.214844 157.9375 393.785156 157.9375 377.214844 C 157.9375 360.648438 171.367188 347.214844 187.9375 347.214844 C 204.503906 347.214844 217.9375 360.648438 217.9375 377.214844 "/>
<path style="fill-rule:nonzero;fill:rgb(35%,70%,90%);fill-opacity:1;stroke-width:1;stroke-linecap:butt;stroke-linejoin:round;stroke:rgb(0%,0%,0%);stroke-opacity:1;stroke-miterlimit:10;" d="M 91.171875 428.316406 C 91.171875 444.882812 77.742188 458.316406 61.171875 458.316406 C 44.605469 458.316406 31.171875 444.882812 31.171875 428.316406 C 31.171875 411.746094 44.605469 398.316406 61.171875 398.316406 C 77.742188 398.316406 91.171875 411.746094 91.171875 428.316406 "/>
</g>
</svg>
