<?xml version="1.0" encoding="UTF-8"?>
<svg xmlns="http://www.w3.org/2000/svg" xmlns:xlink="http://www.w3.org/1999/xlink" width="517pt" height="517pt" viewBox="0 0 517 517" version="1.1">
<g id="surface2936">
<rect x="0" y="0" width="517" height="517" style="fill:rgb(90%,90%,90%);fill-opacity:1;stroke:none;"/>
<path style="fill:none;stroke-width:5;stroke-linecap:butt;stroke-linejoin:round;stroke:rgb(100%,0%,0%);stroke-opacity:1;stroke-miterlimit:10;" d="M 5 261 L 261 261 L 261 517 L 5 517 Z M 5 261 "/>
<path style="fill-rule:nonzero;fill:rgb(53%,27%,7%);fill-opacity:1;stroke-width:1;stroke-linecap:butt;stroke-linejoin:round;stroke:rgb(0%,0%,0%);stroke-opacity:1;stroke-miterlimit:10;" d="M 104.535156 411.34375 C 104.535156 427.914062 91.101562 441.34375 74.535156 441.34375 C 57.964844 441.34375 44.535156 427.914062 44.535156 411.34375 C 44.535156 394.777344 57.964844 381.34375 74.535156 381.34375 C 91.101562 381.34375 104.535156 394.777344 104.535156 411.34375 "/>
<path style="fill-rule:nonzero;fill:rgb(67%,100%,18%);fill-opacity:1;stroke-width:1;stroke-linecap:butt;stroke-linejoin:round;stroke:rgb(0%,0%,0%);stroke-opacity:1;stroke-miterlimit:10;" d="M 185.234375 147.640625 C 185.234375 164.210938 171.804688 177.640625 155.234375 177.640625 C 138.667969 177.640625 125.234375 164.210938 125.234375 147.640625 C 125.234375 131.074219 138.667969 117.640625 155.234375 117.640625 C 171.804688 117.640625 185.234375 131.074219 185.234375 147.640625 "/>
<path style="fill-rule:nonzero;fill:rgb(53%,27%,7%);fill-opacity:1;stroke-width:1;stroke-linecap:butt;stroke-linejoin:round;stroke:rgb(0%,0%,0%);stroke-opacity:1;stroke-miterlimit:10;" d="M 355.417969 383.304688 C 355.417969 399.871094 341.984375 413.304688 325.417969 413.304688 C 308.847656 413.304688 295.417969 399.871094 295.417969 383.304688 C 295.417969 366.734375 308.847656 353.304688 325.417969 353.304688 C 341.984375 353.304688 355.417969 366.734375 355.417969 383.304688 "/>
<path style="fill-rule:nonzero;fill:rgb(53%,27%,7%);fill-opacity:1;stroke-width:1;stroke-linecap:butt;stroke-linejoin:round;stroke:rgb(0%,0%,0%);stroke-opacity:1;stroke-miterlimit:10;" d="M 450.367188 153.023438 C 450.367188 169.589844 436.933594 183.023438 420.367188 183.023438 C 403.796875 183.023438 390.367188 169.589844 390.367188 153.023438 C 390.367188 136.453125 403.796875 123.023438 420.367188 123.023438 C 436.933594 123.023438 450.367188 136.453125 450.367188 153.023438 "/>
<path style="fill-rule:nonzero;fill:rgb(53%,27%,7%);fill-opacity:1;stroke-width:1;stroke-linecap:butt;stroke-linejoin:round;stroke:rgb(0%,0%,0%);stroke-opacity:1;stroke-miterlimit:10;" d="M 392.308594 81.199219 C 392.308594 97.769531 378.878906 111.199219 362.308594 111.199219 C 345.742188 111.199219 332.308594 97.769531 332.308594 81.199219 C 332.308594 64.632812 345.742188 51.199219 362.308594 51.199219 C 378.878906 51.199219 392.308594 64.632812 392.308594 81.199219 "/>
</g>
</svg>
