<?xml version="1.0" encoding="UTF-8"?>
<svg xmlns="http://www.w3.org/2000/svg" xmlns:xlink="http://www.w3.org/1999/xlink" width="517pt" height="517pt" viewBox="0 0 517 517" version="1.1">
<g id="surface2641">
<rect x="0" y="0" width="517" height="517" style="fill:rgb(90%,90%,90%);fill-opacity:1;stroke:none;"/>
<path style="fill:none;stroke-width:5;stroke-linecap:butt;stroke-linejoin:round;stroke:rgb(100%,0%,0%);stroke-opacity:1;stroke-miterlimit:10;" d="M 261 261 L 517 261 L 517 517 L 261 517 Z M 261 261 "/>
<path style="fill-rule:nonzero;fill:rgb(67%,100%,18%);fill-opacity:1;stroke-width:1;stroke-linecap:butt;stroke-linejoin:round;stroke:rgb(0%,0%,0%);stroke-opacity:1;stroke-miterlimit:10;" d="M 320.519531 301.136719 L 300.519531 301.136719 L 300.519531 311.136719 L 320.519531 311.136719 L 320.519531 331.136719 L 330.519531 331.136719 L 330.519531 311.136719 L 350.519531 311.136719 L 350.519531 301.136719 L 330.519531 301.136719 L 330.519531 281.136719 L 320.519531 281.136719 L 320.519531 301.136719 "/>
<path style="fill-rule:nonzero;fill:rgb(50%,0%,50%);fill-opacity:1;stroke-width:1;stroke-linecap:butt;stroke-linejoin:round;stroke:rgb(0%,0%,0%);stroke-opacity:1;stroke-miterlimit:10;" d="M 327.90625 36.847656 L 307.90625 36.847656 L 307.90625 46.847656 L 327.90625 46.847656 L 327.90625 66.847656 L 337.90625 66.847656 L 337.90625 46.847656 L 357.90625 46.847656 L 357.90625 36.847656 L 337.90625 36.847656 L 337.90625 16.847656 L 327.90625 16.847656 L 327.90625 36.847656 "/>
<path style="fill-rule:nonzero;fill:rgb(50%,0%,50%);fill-opacity:1;stroke-width:1;stroke-linecap:butt;stroke-linejoin:round;stroke:rgb(0%,0%,0%);stroke-opacity:1;stroke-miterlimit:10;" d="M 445.039062 86.789062 L 425.039062 86.789062 L 425.039062 96.789062 L 445.039062 96.789062 L 445.039062 116.789062 L 455.039062 116.789062 L 455.039062 96.789062 L 475.039062 96.789062 L 475.039062 86.789062 L 455.039062 86.789062 L 455.039062 66.789062 L 445.039062 66.789062 L 445.039062 86.789062 "/>
<path style="fill-rule:nonzero;fill:rgb(50%,0%,50%);fill-opacity:1;stroke-width:1;stroke-linecap:butt;stroke-linejoin:round;stroke:rgb(0%,0%,0%);stroke-opacity:1;stroke-miterlimit:10;" d="M 36.8125 366.527344 L 16.8125 366.527344 L 16.8125 376.527344 L 36.8125 376.527344 L 36.8125 396.527344 L 46.8125 396.527344 L 46.8125 376.527344 L 66.8125 376.527344 L 66.8125 366.527344 L 46.8125 366.527344 L 46.8125 346.527344 L 36.8125 346.527344 L 36.8125 366.527344 "/>
<path style="fill-rule:nonzero;fill:rgb(50%,0%,50%);fill-opacity:1;stroke-width:1;stroke-linecap:butt;stroke-linejoin:round;stroke:rgb(0%,0%,0%);stroke-opacity:1;stroke-miterlimit:10;" d="M 65.703125 50.953125 L 45.703125 50.953125 L 45.703125 60.953125 L 65.703125 60.953125 L 65.703125 80.953125 L 75.703125 80.953125 L 75.703125 60.953125 L 95.703125 60.953125 L 95.703125 50.953125 L 75.703125 50.953125 L 75.703125 30.953125 L 65.703125 30.953125 L 65.703125 50.953125 "/>
</g>
</svg>
