<?xml version="1.0" encoding="UTF-8"?>
<svg xmlns="http://www.w3.org/2000/svg" xmlns:xlink="http://www.w3.org/1999/xlink" width="517pt" height="517pt" viewBox="0 0 517 517" version="1.1">
<g id="surface186">
<rect x="0" y="0" width="517" height="517" style="fill:rgb(90%,90%,90%);fill-opacity:1;stroke:none;"/>
<path style="fill:none;stroke-width:5;stroke-linecap:butt;stroke-linejoin:round;stroke:rgb(100%,0%,0%);stroke-opacity:1;stroke-miterlimit:10;" d="M 5 5 L 261 5 L 261 261 L 5 261 Z M 5 5 "/>
<path style="fill-rule:nonzero;fill:rgb(100%,7%,57%);fill-opacity:1;stroke-width:1;stroke-linecap:butt;stroke-linejoin:round;stroke:rgb(0%,0%,0%);stroke-opacity:1;stroke-miterlimit:10;" d="M 225.394531 85.496094 C 225.394531 102.066406 211.964844 115.496094 195.394531 115.496094 C 178.828125 115.496094 165.394531 102.066406 165.394531 85.496094 C 165.394531 68.925781 178.828125 55.496094 195.394531 55.496094 C 211.964844 55.496094 225.394531 68.925781 225.394531 85.496094 "/>
<path style="fill-rule:nonzero;fill:rgb(0%,0%,0%);fill-opacity:1;stroke-width:1;stroke-linecap:butt;stroke-linejoin:round;stroke:rgb(0%,0%,0%);stroke-opacity:1;stroke-miterlimit:10;" d="M 166.773438 424.171875 C 166.773438 440.742188 153.339844 454.171875 136.773438 454.171875 C 120.203125 454.171875 106.773438 440.742188 106.773438 424.171875 C 106.773438 407.601562 120.203125 394.171875 136.773438 394.171875 C 153.339844 394.171875 166.773438 407.601562 166.773438 424.171875 "/>
<path style="fill-rule:nonzero;fill:rgb(0%,0%,0%);fill-opacity:1;stroke-width:1;stroke-linecap:butt;stroke-linejoin:round;stroke:rgb(0%,0%,0%);stroke-opacity:1;stroke-miterlimit:10;" d="M 235.835938 465.488281 C 235.835938 482.058594 222.40625 495.488281 205.835938 495.488281 C 189.269531 495.488281 175.835938 482.058594 175.835938 465.488281 C 175.835938 448.917969 189.269531 435.488281 205.835938 435.488281 C 222.40625 435.488281 235.835938 448.917969 235.835938 465.488281 "/>
<path style="fill-rule:nonzero;fill:rgb(100%,7%,57%);fill-opacity:1;stroke-width:1;stroke-linecap:butt;stroke-linejoin:round;stroke:rgb(0%,0%,0%);stroke-opacity:1;stroke-miterlimit:10;" d="M 334.425781 437.808594 C 334.425781 454.375 320.996094 467.808594 304.425781 467.808594 C 287.859375 467.808594 274.425781 454.375 274.425781 437.808594 C 274.425781 421.238281 287.859375 407.808594 304.425781 407.808594 C 320.996094 407.808594 334.425781 421.238281 334.425781 437.808594 "/>
</g>
</svg>
