<?xml version="1.0" encoding="UTF-8"?>
<svg xmlns="http://www.w3.org/2000/svg" xmlns:xlink="http://www.w3.org/1999/xlink" width="517pt" height="517pt" viewBox="0 0 517 517" version="1.1">
<g id="surface2576">
<rect x="0" y="0" width="517" height="517" style="fill:rgb(90%,90%,90%);fill-opacity:1;stroke:none;"/>
<path style="fill:none;stroke-width:5;stroke-linecap:butt;stroke-linejoin:round;stroke:rgb(100%,0%,0%);stroke-opacity:1;stroke-miterlimit:10;" d="M 261 261 L 517 261 L 517 517 L 261 517 Z M 261 261 "/>
<path style="fill-rule:nonzero;fill:rgb(90%,65%,0%);fill-opacity:1;stroke-width:1;stroke-linecap:butt;stroke-linejoin:round;stroke:rgb(0%,0%,0%);stroke-opacity:1;stroke-miterlimit:10;" d="M 472.851562 352.980469 C 472.851562 369.546875 459.421875 382.980469 442.851562 382.980469 C 426.285156 382.980469 412.851562 369.546875 412.851562 352.980469 C 412.851562 336.410156 426.285156 322.980469 442.851562 322.980469 C 459.421875 322.980469 472.851562 336.410156 472.851562 352.980469 "/>
<path style="fill-rule:nonzero;fill:rgb(35%,70%,90%);fill-opacity:1;stroke-width:1;stroke-linecap:butt;stroke-linejoin:round;stroke:rgb(0%,0%,0%);stroke-opacity:1;stroke-miterlimit:10;" d="M 185.601562 83.175781 C 185.601562 99.746094 172.171875 113.175781 155.601562 113.175781 C 139.035156 113.175781 125.601562 99.746094 125.601562 83.175781 C 125.601562 66.609375 139.035156 53.175781 155.601562 53.175781 C 172.171875 53.175781 185.601562 66.609375 185.601562 83.175781 "/>
<path style="fill-rule:nonzero;fill:rgb(35%,70%,90%);fill-opacity:1;stroke-width:1;stroke-linecap:butt;stroke-linejoin:round;stroke:rgb(0%,0%,0%);stroke-opacity:1;stroke-miterlimit:10;" d="M 111.277344 349.898438 C 111.277344 366.46875 97.847656 379.898438 81.277344 379.898438 C 64.710938 379.898438 51.277344 366.46875 51.277344 349.898438 C 51.277344 333.328125 64.710938 319.898438 81.277344 319.898438 C 97.847656 319.898438 111.277344 333.328125 111.277344 349.898438 "/>
<path style="fill-rule:nonzero;fill:rgb(35%,70%,90%);fill-opacity:1;stroke-width:1;stroke-linecap:butt;stroke-linejoin:round;stroke:rgb(0%,0%,0%);stroke-opacity:1;stroke-miterlimit:10;" d="M 213.0625 340.316406 C 213.0625 356.882812 199.632812 370.316406 183.0625 370.316406 C 166.496094 370.316406 153.0625 356.882812 153.0625 340.316406 C 153.0625 323.746094 166.496094 310.316406 183.0625 310.316406 C 199.632812 310.316406 213.0625 323.746094 213.0625 340.316406 "/>
<path style="fill-rule:nonzero;fill:rgb(35%,70%,90%);fill-opacity:1;stroke-width:1;stroke-linecap:butt;stroke-linejoin:round;stroke:rgb(0%,0%,0%);stroke-opacity:1;stroke-miterlimit:10;" d="M 163.949219 382.859375 C 163.949219 399.425781 150.515625 412.859375 133.949219 412.859375 C 117.378906 412.859375 103.949219 399.425781 103.949219 382.859375 C 103.949219 366.289062 117.378906 352.859375 133.949219 352.859375 C 150.515625 352.859375 163.949219 366.289062 163.949219 382.859375 "/>
</g>
</svg>
