<?xml version="1.0" encoding="UTF-8"?>
<svg xmlns="http://www.w3.org/2000/svg" xmlns:xlink="http://www.w3.org/1999/xlink" width="517pt" height="517pt" viewBox="0 0 517 517" version="1.1">
<g id="surface3031">
<rect x="0" y="0" width="517" height="517" style="fill:rgb(90%,90%,90%);fill-opacity:1;stroke:none;"/>
<path style="fill:none;stroke-width:5;stroke-linecap:butt;stroke-linejoin:round;stroke:rgb(100%,0%,0%);stroke-opacity:1;stroke-miterlimit:10;" d="M 5 261 L 261 261 L 261 517 L 5 517 Z M 5 261 "/>
<path style="fill-rule:nonzero;fill:rgb(0%,0%,0%);fill-opacity:1;stroke-width:1;stroke-linecap:butt;stroke-linejoin:round;stroke:rgb(0%,0%,0%);stroke-opacity:1;stroke-miterlimit:10;" d="M 105.46875 464.640625 L 85.46875 464.640625 L 85.46875 474.640625 L 105.46875 474.640625 L 105.46875 494.640625 L 115.46875 494.640625 L 115.46875 474.640625 L 135.46875 474.640625 L 135.46875 464.640625 L 115.46875 464.640625 L 115.46875 444.640625 L 105.46875 444.640625 L 105.46875 464.640625 "/>
<path style="fill-rule:nonzero;fill:rgb(0%,0%,0%);fill-opacity:1;stroke-width:1;stroke-linecap:butt;stroke-linejoin:round;stroke:rgb(0%,0%,0%);stroke-opacity:1;stroke-miterlimit:10;" d="M 411.574219 161.953125 L 391.574219 161.953125 L 391.574219 171.953125 L 411.574219 171.953125 L 411.574219 191.953125 L 421.574219 191.953125 L 421.574219 171.953125 L 441.574219 171.953125 L 441.574219 161.953125 L 421.574219 161.953125 L 421.574219 141.953125 L 411.574219 141.953125 L 411.574219 161.953125 "/>
<path style="fill-rule:nonzero;fill:rgb(50%,0%,50%);fill-opacity:1;stroke-width:1;stroke-linecap:butt;stroke-linejoin:round;stroke:rgb(0%,0%,0%);stroke-opacity:1;stroke-miterlimit:10;" d="M 331.71875 195.664062 L 311.71875 195.664062 L 311.71875 205.664062 L 331.71875 205.664062 L 331.71875 225.664062 L 341.71875 225.664062 L 341.71875 205.664062 L 361.71875 205.664062 L 361.71875 195.664062 L 341.71875 195.664062 L 341.71875 175.664062 L 331.71875 175.664062 L 331.71875 195.664062 "/>
<path style="fill-rule:nonzero;fill:rgb(50%,0%,50%);fill-opacity:1;stroke-width:1;stroke-linecap:butt;stroke-linejoin:round;stroke:rgb(0%,0%,0%);stroke-opacity:1;stroke-miterlimit:10;" d="M 194.285156 128.890625 L 174.285156 128.890625 L 174.285156 138.890625 L 194.285156 138.890625 L 194.285156 158.890625 L 204.285156 158.890625 L 204.285156 138.890625 L 224.285156 138.890625 L 224.285156 128.890625 L 204.285156 128.890625 L 204.285156 108.890625 L 194.285156 108.890625 L 194.285156 128.890625 "/>
<path style="fill-rule:nonzero;fill:rgb(50%,0%,50%);fill-opacity:1;stroke-width:1;stroke-linecap:butt;stroke-linejoin:round;stroke:rgb(0%,0%,0%);stroke-opacity:1;stroke-miterlimit:10;" d="M 148.78125 54.296875 L 128.78125 54.296875 L 128.78125 64.296875 L 148.78125 64.296875 L 148.78125 84.296875 L 158.78125 84.296875 L 158.78125 64.296875 L 178.78125 64.296875 L 178.78125 54.296875 L 158.78125 54.296875 L 158.78125 34.296875 L 148.78125 34.296875 L 148.78125 54.296875 "/>
</g>
</svg>
