<?xml version="1.0" encoding="UTF-8"?>
<svg xmlns="http://www.w3.org/2000/svg" xmlns:xlink="http://www.w3.org/1999/xlink" width="517pt" height="517pt" viewBox="0 0 517 517" version="1.1">
<g id="surface2606">
<rect x="0" y="0" width="517" height="517" style="fill:rgb(90%,90%,90%);fill-opacity:1;stroke:none;"/>
<path style="fill:none;stroke-width:5;stroke-linecap:butt;stroke-linejoin:round;stroke:rgb(100%,0%,0%);stroke-opacity:1;stroke-miterlimit:10;" d="M 261 261 L 517 261 L 517 517 L 261 517 Z M 261 261 "/>
<path style="fill-rule:nonzero;fill:rgb(90%,65%,0%);fill-opacity:1;stroke-width:1;stroke-linecap:butt;stroke-linejoin:round;stroke:rgb(0%,0%,0%);stroke-opacity:1;stroke-miterlimit:10;" d="M 464.871094 321.703125 C 464.871094 338.273438 451.4375 351.703125 434.871094 351.703125 C 418.300781 351.703125 404.871094 338.273438 404.871094 321.703125 C 404.871094 305.132812 418.300781 291.703125 434.871094 291.703125 C 451.4375 291.703125 464.871094 305.132812 464.871094 321.703125 "/>
<path style="fill-rule:nonzero;fill:rgb(35%,70%,90%);fill-opacity:1;stroke-width:1;stroke-linecap:butt;stroke-linejoin:round;stroke:rgb(0%,0%,0%);stroke-opacity:1;stroke-miterlimit:10;" d="M 163.875 165.980469 C 163.875 182.546875 150.441406 195.980469 133.875 195.980469 C 117.304688 195.980469 103.875 182.546875 103.875 165.980469 C 103.875 149.410156 117.304688 135.980469 133.875 135.980469 C 150.441406 135.980469 163.875 149.410156 163.875 165.980469 "/>
<path style="fill-rule:nonzero;fill:rgb(90%,65%,0%);fill-opacity:1;stroke-width:1;stroke-linecap:butt;stroke-linejoin:round;stroke:rgb(0%,0%,0%);stroke-opacity:1;stroke-miterlimit:10;" d="M 97 147.953125 C 97 164.523438 83.566406 177.953125 67 177.953125 C 50.429688 177.953125 37 164.523438 37 147.953125 C 37 131.382812 50.429688 117.953125 67 117.953125 C 83.566406 117.953125 97 131.382812 97 147.953125 "/>
<path style="fill-rule:nonzero;fill:rgb(90%,65%,0%);fill-opacity:1;stroke-width:1;stroke-linecap:butt;stroke-linejoin:round;stroke:rgb(0%,0%,0%);stroke-opacity:1;stroke-miterlimit:10;" d="M 353.21875 139.558594 C 353.21875 156.125 339.789062 169.558594 323.21875 169.558594 C 306.652344 169.558594 293.21875 156.125 293.21875 139.558594 C 293.21875 122.988281 306.652344 109.558594 323.21875 109.558594 C 339.789062 109.558594 353.21875 122.988281 353.21875 139.558594 "/>
<path style="fill-rule:nonzero;fill:rgb(90%,65%,0%);fill-opacity:1;stroke-width:1;stroke-linecap:butt;stroke-linejoin:round;stroke:rgb(0%,0%,0%);stroke-opacity:1;stroke-miterlimit:10;" d="M 175.203125 323.101562 C 175.203125 339.671875 161.773438 353.101562 145.203125 353.101562 C 128.632812 353.101562 115.203125 339.671875 115.203125 323.101562 C 115.203125 306.535156 128.632812 293.101562 145.203125 293.101562 C 161.773438 293.101562 175.203125 306.535156 175.203125 323.101562 "/>
</g>
</svg>
