<?xml version="1.0" encoding="UTF-8"?>
<svg xmlns="http://www.w3.org/2000/svg" xmlns:xlink="http://www.w3.org/1999/xlink" width="517pt" height="517pt" viewBox="0 0 517 517" version="1.1">
<g id="surface2956">
<rect x="0" y="0" width="517" height="517" style="fill:rgb(90%,90%,90%);fill-opacity:1;stroke:none;"/>
<path style="fill:none;stroke-width:5;stroke-linecap:butt;stroke-linejoin:round;stroke:rgb(100%,0%,0%);stroke-opacity:1;stroke-miterlimit:10;" d="M 5 261 L 261 261 L 261 517 L 5 517 Z M 5 261 "/>
<path style="fill-rule:nonzero;fill:rgb(100%,7%,57%);fill-opacity:1;stroke-width:1;stroke-linecap:butt;stroke-linejoin:round;stroke:rgb(0%,0%,0%);stroke-opacity:1;stroke-miterlimit:10;" d="M 87.796875 422.542969 C 87.796875 439.109375 74.363281 452.542969 57.796875 452.542969 C 41.226562 452.542969 27.796875 439.109375 27.796875 422.542969 C 27.796875 405.972656 41.226562 392.542969 57.796875 392.542969 C 74.363281 392.542969 87.796875 405.972656 87.796875 422.542969 "/>
<path style="fill-rule:nonzero;fill:rgb(67%,100%,18%);fill-opacity:1;stroke-width:1;stroke-linecap:butt;stroke-linejoin:round;stroke:rgb(0%,0%,0%);stroke-opacity:1;stroke-miterlimit:10;" d="M 325.222656 126.996094 C 325.222656 143.5625 311.789062 156.996094 295.222656 156.996094 C 278.652344 156.996094 265.222656 143.5625 265.222656 126.996094 C 265.222656 110.425781 278.652344 96.996094 295.222656 96.996094 C 311.789062 96.996094 325.222656 110.425781 325.222656 126.996094 "/>
<path style="fill-rule:nonzero;fill:rgb(67%,100%,18%);fill-opacity:1;stroke-width:1;stroke-linecap:butt;stroke-linejoin:round;stroke:rgb(0%,0%,0%);stroke-opacity:1;stroke-miterlimit:10;" d="M 224.851562 170.449219 C 224.851562 187.015625 211.421875 200.449219 194.851562 200.449219 C 178.28125 200.449219 164.851562 187.015625 164.851562 170.449219 C 164.851562 153.878906 178.28125 140.449219 194.851562 140.449219 C 211.421875 140.449219 224.851562 153.878906 224.851562 170.449219 "/>
<path style="fill-rule:nonzero;fill:rgb(67%,100%,18%);fill-opacity:1;stroke-width:1;stroke-linecap:butt;stroke-linejoin:round;stroke:rgb(0%,0%,0%);stroke-opacity:1;stroke-miterlimit:10;" d="M 88.695312 51.84375 C 88.695312 68.414062 75.265625 81.84375 58.695312 81.84375 C 42.128906 81.84375 28.695312 68.414062 28.695312 51.84375 C 28.695312 35.277344 42.128906 21.84375 58.695312 21.84375 C 75.265625 21.84375 88.695312 35.277344 88.695312 51.84375 "/>
<path style="fill-rule:nonzero;fill:rgb(53%,27%,7%);fill-opacity:1;stroke-width:1;stroke-linecap:butt;stroke-linejoin:round;stroke:rgb(0%,0%,0%);stroke-opacity:1;stroke-miterlimit:10;" d="M 361.34375 402.503906 C 361.34375 419.070312 347.910156 432.503906 331.34375 432.503906 C 314.773438 432.503906 301.34375 419.070312 301.34375 402.503906 C 301.34375 385.933594 314.773438 372.503906 331.34375 372.503906 C 347.910156 372.503906 361.34375 385.933594 361.34375 402.503906 "/>
</g>
</svg>
