<?xml version="1.0" encoding="UTF-8"?>
<svg xmlns="http://www.w3.org/2000/svg" xmlns:xlink="http://www.w3.org/1999/xlink" width="517pt" height="517pt" viewBox="0 0 517 517" version="1.1">
<g id="surface2586">
<rect x="0" y="0" width="517" height="517" style="fill:rgb(90%,90%,90%);fill-opacity:1;stroke:none;"/>
<path style="fill:none;stroke-width:5;stroke-linecap:butt;stroke-linejoin:round;stroke:rgb(100%,0%,0%);stroke-opacity:1;stroke-miterlimit:10;" d="M 261 261 L 517 261 L 517 517 L 261 517 Z M 261 261 "/>
<path style="fill-rule:nonzero;fill:rgb(90%,65%,0%);fill-opacity:1;stroke-width:1;stroke-linecap:butt;stroke-linejoin:round;stroke:rgb(0%,0%,0%);stroke-opacity:1;stroke-miterlimit:10;" d="M 468.753906 407.398438 C 468.753906 423.964844 455.320312 437.398438 438.753906 437.398438 C 422.183594 437.398438 408.753906 423.964844 408.753906 407.398438 C 408.753906 390.828125 422.183594 377.398438 438.753906 377.398438 C 455.320312 377.398438 468.753906 390.828125 468.753906 407.398438 "/>
<path style="fill-rule:nonzero;fill:rgb(35%,70%,90%);fill-opacity:1;stroke-width:1;stroke-linecap:butt;stroke-linejoin:round;stroke:rgb(0%,0%,0%);stroke-opacity:1;stroke-miterlimit:10;" d="M 196.289062 386.578125 C 196.289062 403.148438 182.859375 416.578125 166.289062 416.578125 C 149.722656 416.578125 136.289062 403.148438 136.289062 386.578125 C 136.289062 370.011719 149.722656 356.578125 166.289062 356.578125 C 182.859375 356.578125 196.289062 370.011719 196.289062 386.578125 "/>
<path style="fill-rule:nonzero;fill:rgb(35%,70%,90%);fill-opacity:1;stroke-width:1;stroke-linecap:butt;stroke-linejoin:round;stroke:rgb(0%,0%,0%);stroke-opacity:1;stroke-miterlimit:10;" d="M 240.957031 301.683594 C 240.957031 318.25 227.523438 331.683594 210.957031 331.683594 C 194.386719 331.683594 180.957031 318.25 180.957031 301.683594 C 180.957031 285.113281 194.386719 271.683594 210.957031 271.683594 C 227.523438 271.683594 240.957031 285.113281 240.957031 301.683594 "/>
<path style="fill-rule:nonzero;fill:rgb(35%,70%,90%);fill-opacity:1;stroke-width:1;stroke-linecap:butt;stroke-linejoin:round;stroke:rgb(0%,0%,0%);stroke-opacity:1;stroke-miterlimit:10;" d="M 500.488281 86.898438 C 500.488281 103.464844 487.058594 116.898438 470.488281 116.898438 C 453.921875 116.898438 440.488281 103.464844 440.488281 86.898438 C 440.488281 70.328125 453.921875 56.898438 470.488281 56.898438 C 487.058594 56.898438 500.488281 70.328125 500.488281 86.898438 "/>
<path style="fill-rule:nonzero;fill:rgb(90%,65%,0%);fill-opacity:1;stroke-width:1;stroke-linecap:butt;stroke-linejoin:round;stroke:rgb(0%,0%,0%);stroke-opacity:1;stroke-miterlimit:10;" d="M 108.585938 35.1875 C 108.585938 51.753906 95.152344 65.1875 78.585938 65.1875 C 62.015625 65.1875 48.585938 51.753906 48.585938 35.1875 C 48.585938 18.617188 62.015625 5.1875 78.585938 5.1875 C 95.152344 5.1875 108.585938 18.617188 108.585938 35.1875 "/>
</g>
</svg>
