<?xml version="1.0" encoding="UTF-8"?>
<svg xmlns="http://www.w3.org/2000/svg" xmlns:xlink="http://www.w3.org/1999/xlink" width="517pt" height="517pt" viewBox="0 0 517 517" version="1.1">
<g id="surface2686">
<rect x="0" y="0" width="517" height="517" style="fill:rgb(90%,90%,90%);fill-opacity:1;stroke:none;"/>
<path style="fill:none;stroke-width:5;stroke-linecap:butt;stroke-linejoin:round;stroke:rgb(100%,0%,0%);stroke-opacity:1;stroke-miterlimit:10;" d="M 261 261 L 517 261 L 517 517 L 261 517 Z M 261 261 "/>
<path style="fill-rule:nonzero;fill:rgb(67%,100%,18%);fill-opacity:1;stroke-width:1;stroke-linecap:butt;stroke-linejoin:round;stroke:rgb(0%,0%,0%);stroke-opacity:1;stroke-miterlimit:10;" d="M 417.574219 385.621094 L 397.574219 385.621094 L 397.574219 395.621094 L 417.574219 395.621094 L 417.574219 415.621094 L 427.574219 415.621094 L 427.574219 395.621094 L 447.574219 395.621094 L 447.574219 385.621094 L 427.574219 385.621094 L 427.574219 365.621094 L 417.574219 365.621094 L 417.574219 385.621094 "/>
<path style="fill-rule:nonzero;fill:rgb(50%,0%,50%);fill-opacity:1;stroke-width:1;stroke-linecap:butt;stroke-linejoin:round;stroke:rgb(0%,0%,0%);stroke-opacity:1;stroke-miterlimit:10;" d="M 44.65625 395.132812 L 24.65625 395.132812 L 24.65625 405.132812 L 44.65625 405.132812 L 44.65625 425.132812 L 54.65625 425.132812 L 54.65625 405.132812 L 74.65625 405.132812 L 74.65625 395.132812 L 54.65625 395.132812 L 54.65625 375.132812 L 44.65625 375.132812 L 44.65625 395.132812 "/>
<path style="fill-rule:nonzero;fill:rgb(67%,100%,18%);fill-opacity:1;stroke-width:1;stroke-linecap:butt;stroke-linejoin:round;stroke:rgb(0%,0%,0%);stroke-opacity:1;stroke-miterlimit:10;" d="M 30.0625 54.058594 L 10.0625 54.058594 L 10.0625 64.058594 L 30.0625 64.058594 L 30.0625 84.058594 L 40.0625 84.058594 L 40.0625 64.058594 L 60.0625 64.058594 L 60.0625 54.058594 L 40.0625 54.058594 L 40.0625 34.058594 L 30.0625 34.058594 L 30.0625 54.058594 "/>
<path style="fill-rule:nonzero;fill:rgb(67%,100%,18%);fill-opacity:1;stroke-width:1;stroke-linecap:butt;stroke-linejoin:round;stroke:rgb(0%,0%,0%);stroke-opacity:1;stroke-miterlimit:10;" d="M 162.273438 198.019531 L 142.273438 198.019531 L 142.273438 208.019531 L 162.273438 208.019531 L 162.273438 228.019531 L 172.273438 228.019531 L 172.273438 208.019531 L 192.273438 208.019531 L 192.273438 198.019531 L 172.273438 198.019531 L 172.273438 178.019531 L 162.273438 178.019531 L 162.273438 198.019531 "/>
<path style="fill-rule:nonzero;fill:rgb(67%,100%,18%);fill-opacity:1;stroke-width:1;stroke-linecap:butt;stroke-linejoin:round;stroke:rgb(0%,0%,0%);stroke-opacity:1;stroke-miterlimit:10;" d="M 126.480469 141.601562 L 106.480469 141.601562 L 106.480469 151.601562 L 126.480469 151.601562 L 126.480469 171.601562 L 136.480469 171.601562 L 136.480469 151.601562 L 156.480469 151.601562 L 156.480469 141.601562 L 136.480469 141.601562 L 136.480469 121.601562 L 126.480469 121.601562 L 126.480469 141.601562 "/>
</g>
</svg>
