<?xml version="1.0" encoding="UTF-8"?>
<svg xmlns="http://www.w3.org/2000/svg" xmlns:xlink="http://www.w3.org/1999/xlink" width="517pt" height="517pt" viewBox="0 0 517 517" version="1.1">
<g id="surface2701">
<rect x="0" y="0" width="517" height="517" style="fill:rgb(90%,90%,90%);fill-opacity:1;stroke:none;"/>
<path style="fill:none;stroke-width:5;stroke-linecap:butt;stroke-linejoin:round;stroke:rgb(100%,0%,0%);stroke-opacity:1;stroke-miterlimit:10;" d="M 261 261 L 517 261 L 517 517 L 261 517 Z M 261 261 "/>
<path style="fill-rule:nonzero;fill:rgb(100%,0%,0%);fill-opacity:1;stroke-width:1;stroke-linecap:butt;stroke-linejoin:round;stroke:rgb(0%,0%,0%);stroke-opacity:1;stroke-miterlimit:10;" d="M 423.011719 427.515625 L 403.011719 427.515625 L 403.011719 437.515625 L 423.011719 437.515625 L 423.011719 457.515625 L 433.011719 457.515625 L 433.011719 437.515625 L 453.011719 437.515625 L 453.011719 427.515625 L 433.011719 427.515625 L 433.011719 407.515625 L 423.011719 407.515625 L 423.011719 427.515625 "/>
<path style="fill-rule:nonzero;fill:rgb(50%,0%,50%);fill-opacity:1;stroke-width:1;stroke-linecap:butt;stroke-linejoin:round;stroke:rgb(0%,0%,0%);stroke-opacity:1;stroke-miterlimit:10;" d="M 189.175781 110.042969 L 169.175781 110.042969 L 169.175781 120.042969 L 189.175781 120.042969 L 189.175781 140.042969 L 199.175781 140.042969 L 199.175781 120.042969 L 219.175781 120.042969 L 219.175781 110.042969 L 199.175781 110.042969 L 199.175781 90.042969 L 189.175781 90.042969 L 189.175781 110.042969 "/>
<path style="fill-rule:nonzero;fill:rgb(50%,0%,50%);fill-opacity:1;stroke-width:1;stroke-linecap:butt;stroke-linejoin:round;stroke:rgb(0%,0%,0%);stroke-opacity:1;stroke-miterlimit:10;" d="M 39.792969 297.523438 L 19.792969 297.523438 L 19.792969 307.523438 L 39.792969 307.523438 L 39.792969 327.523438 L 49.792969 327.523438 L 49.792969 307.523438 L 69.792969 307.523438 L 69.792969 297.523438 L 49.792969 297.523438 L 49.792969 277.523438 L 39.792969 277.523438 L 39.792969 297.523438 "/>
<path style="fill-rule:nonzero;fill:rgb(50%,0%,50%);fill-opacity:1;stroke-width:1;stroke-linecap:butt;stroke-linejoin:round;stroke:rgb(0%,0%,0%);stroke-opacity:1;stroke-miterlimit:10;" d="M 77.421875 390.742188 L 57.421875 390.742188 L 57.421875 400.742188 L 77.421875 400.742188 L 77.421875 420.742188 L 87.421875 420.742188 L 87.421875 400.742188 L 107.421875 400.742188 L 107.421875 390.742188 L 87.421875 390.742188 L 87.421875 370.742188 L 77.421875 370.742188 L 77.421875 390.742188 "/>
<path style="fill-rule:nonzero;fill:rgb(67%,100%,18%);fill-opacity:1;stroke-width:1;stroke-linecap:butt;stroke-linejoin:round;stroke:rgb(0%,0%,0%);stroke-opacity:1;stroke-miterlimit:10;" d="M 431.121094 199.570312 L 411.121094 199.570312 L 411.121094 209.570312 L 431.121094 209.570312 L 431.121094 229.570312 L 441.121094 229.570312 L 441.121094 209.570312 L 461.121094 209.570312 L 461.121094 199.570312 L 441.121094 199.570312 L 441.121094 179.570312 L 431.121094 179.570312 L 431.121094 199.570312 "/>
</g>
</svg>
