<?xml version="1.0" encoding="UTF-8"?>
<svg xmlns="http://www.w3.org/2000/svg" xmlns:xlink="http://www.w3.org/1999/xlink" width="517pt" height="517pt" viewBox="0 0 517 517" version="1.1">
<g id="surface216">
<rect x="0" y="0" width="517" height="517" style="fill:rgb(90%,90%,90%);fill-opacity:1;stroke:none;"/>
<path style="fill:none;stroke-width:5;stroke-linecap:butt;stroke-linejoin:round;stroke:rgb(100%,0%,0%);stroke-opacity:1;stroke-miterlimit:10;" d="M 5 5 L 261 5 L 261 261 L 5 261 Z M 5 5 "/>
<path style="fill-rule:nonzero;fill:rgb(100%,7%,57%);fill-opacity:1;stroke-width:1;stroke-linecap:butt;stroke-linejoin:round;stroke:rgb(0%,0%,0%);stroke-opacity:1;stroke-miterlimit:10;" d="M 185.992188 102.847656 C 185.992188 119.414062 172.558594 132.847656 155.992188 132.847656 C 139.421875 132.847656 125.992188 119.414062 125.992188 102.847656 C 125.992188 86.277344 139.421875 72.847656 155.992188 72.847656 C 172.558594 72.847656 185.992188 86.277344 185.992188 102.847656 "/>
<path style="fill-rule:nonzero;fill:rgb(0%,0%,0%);fill-opacity:1;stroke-width:1;stroke-linecap:butt;stroke-linejoin:round;stroke:rgb(0%,0%,0%);stroke-opacity:1;stroke-miterlimit:10;" d="M 163.820312 465.214844 C 163.820312 481.785156 150.386719 495.214844 133.820312 495.214844 C 117.25 495.214844 103.820312 481.785156 103.820312 465.214844 C 103.820312 448.648438 117.25 435.214844 133.820312 435.214844 C 150.386719 435.214844 163.820312 448.648438 163.820312 465.214844 "/>
<path style="fill-rule:nonzero;fill:rgb(100%,7%,57%);fill-opacity:1;stroke-width:1;stroke-linecap:butt;stroke-linejoin:round;stroke:rgb(0%,0%,0%);stroke-opacity:1;stroke-miterlimit:10;" d="M 488.699219 118.542969 C 488.699219 135.113281 475.269531 148.542969 458.699219 148.542969 C 442.128906 148.542969 428.699219 135.113281 428.699219 118.542969 C 428.699219 101.976562 442.128906 88.542969 458.699219 88.542969 C 475.269531 88.542969 488.699219 101.976562 488.699219 118.542969 "/>
<path style="fill-rule:nonzero;fill:rgb(100%,7%,57%);fill-opacity:1;stroke-width:1;stroke-linecap:butt;stroke-linejoin:round;stroke:rgb(0%,0%,0%);stroke-opacity:1;stroke-miterlimit:10;" d="M 459.757812 208.703125 C 459.757812 225.269531 446.328125 238.703125 429.757812 238.703125 C 413.191406 238.703125 399.757812 225.269531 399.757812 208.703125 C 399.757812 192.132812 413.191406 178.703125 429.757812 178.703125 C 446.328125 178.703125 459.757812 192.132812 459.757812 208.703125 "/>
</g>
</svg>
