<?xml version="1.0" encoding="UTF-8"?>
<svg xmlns="http://www.w3.org/2000/svg" xmlns:xlink="http://www.w3.org/1999/xlink" width="517pt" height="517pt" viewBox="0 0 517 517" version="1.1">
<g id="surface2636">
<rect x="0" y="0" width="517" height="517" style="fill:rgb(90%,90%,90%);fill-opacity:1;stroke:none;"/>
<path style="fill:none;stroke-width:5;stroke-linecap:butt;stroke-linejoin:round;stroke:rgb(100%,0%,0%);stroke-opacity:1;stroke-miterlimit:10;" d="M 261 261 L 517 261 L 517 517 L 261 517 Z M 261 261 "/>
<path style="fill-rule:nonzero;fill:rgb(53%,27%,7%);fill-opacity:1;stroke-width:1;stroke-linecap:butt;stroke-linejoin:round;stroke:rgb(0%,0%,0%);stroke-opacity:1;stroke-miterlimit:10;" d="M 429.59375 355.203125 C 429.59375 371.769531 416.164062 385.203125 399.59375 385.203125 C 383.023438 385.203125 369.59375 371.769531 369.59375 355.203125 C 369.59375 338.632812 383.023438 325.203125 399.59375 325.203125 C 416.164062 325.203125 429.59375 338.632812 429.59375 355.203125 "/>
<path style="fill-rule:nonzero;fill:rgb(35%,70%,90%);fill-opacity:1;stroke-width:1;stroke-linecap:butt;stroke-linejoin:round;stroke:rgb(0%,0%,0%);stroke-opacity:1;stroke-miterlimit:10;" d="M 468.589844 50.210938 C 468.589844 66.78125 455.160156 80.210938 438.589844 80.210938 C 422.019531 80.210938 408.589844 66.78125 408.589844 50.210938 C 408.589844 33.644531 422.019531 20.210938 438.589844 20.210938 C 455.160156 20.210938 468.589844 33.644531 468.589844 50.210938 "/>
<path style="fill-rule:nonzero;fill:rgb(35%,70%,90%);fill-opacity:1;stroke-width:1;stroke-linecap:butt;stroke-linejoin:round;stroke:rgb(0%,0%,0%);stroke-opacity:1;stroke-miterlimit:10;" d="M 96.589844 57.351562 C 96.589844 73.917969 83.160156 87.351562 66.589844 87.351562 C 50.023438 87.351562 36.589844 73.917969 36.589844 57.351562 C 36.589844 40.78125 50.023438 27.351562 66.589844 27.351562 C 83.160156 27.351562 96.589844 40.78125 96.589844 57.351562 "/>
<path style="fill-rule:nonzero;fill:rgb(35%,70%,90%);fill-opacity:1;stroke-width:1;stroke-linecap:butt;stroke-linejoin:round;stroke:rgb(0%,0%,0%);stroke-opacity:1;stroke-miterlimit:10;" d="M 240.703125 112.722656 C 240.703125 129.292969 227.269531 142.722656 210.703125 142.722656 C 194.132812 142.722656 180.703125 129.292969 180.703125 112.722656 C 180.703125 96.15625 194.132812 82.722656 210.703125 82.722656 C 227.269531 82.722656 240.703125 96.15625 240.703125 112.722656 "/>
<path style="fill-rule:nonzero;fill:rgb(90%,65%,0%);fill-opacity:1;stroke-width:1;stroke-linecap:butt;stroke-linejoin:round;stroke:rgb(0%,0%,0%);stroke-opacity:1;stroke-miterlimit:10;" d="M 169.613281 353.546875 C 169.613281 370.117188 156.179688 383.546875 139.613281 383.546875 C 123.042969 383.546875 109.613281 370.117188 109.613281 353.546875 C 109.613281 336.980469 123.042969 323.546875 139.613281 323.546875 C 156.179688 323.546875 169.613281 336.980469 169.613281 353.546875 "/>
</g>
</svg>
