<?xml version="1.0" encoding="UTF-8"?>
<svg xmlns="http://www.w3.org/2000/svg" xmlns:xlink="http://www.w3.org/1999/xlink" width="517pt" height="517pt" viewBox="0 0 517 517" version="1.1">
<g id="surface2676">
<rect x="0" y="0" width="517" height="517" style="fill:rgb(90%,90%,90%);fill-opacity:1;stroke:none;"/>
<path style="fill:none;stroke-width:5;stroke-linecap:butt;stroke-linejoin:round;stroke:rgb(100%,0%,0%);stroke-opacity:1;stroke-miterlimit:10;" d="M 261 261 L 517 261 L 517 517 L 261 517 Z M 261 261 "/>
<path style="fill-rule:nonzero;fill:rgb(67%,100%,18%);fill-opacity:1;stroke-width:1;stroke-linecap:butt;stroke-linejoin:round;stroke:rgb(0%,0%,0%);stroke-opacity:1;stroke-miterlimit:10;" d="M 438.828125 351.371094 L 418.828125 351.371094 L 418.828125 361.371094 L 438.828125 361.371094 L 438.828125 381.371094 L 448.828125 381.371094 L 448.828125 361.371094 L 468.828125 361.371094 L 468.828125 351.371094 L 448.828125 351.371094 L 448.828125 331.371094 L 438.828125 331.371094 L 438.828125 351.371094 "/>
<path style="fill-rule:nonzero;fill:rgb(50%,0%,50%);fill-opacity:1;stroke-width:1;stroke-linecap:butt;stroke-linejoin:round;stroke:rgb(0%,0%,0%);stroke-opacity:1;stroke-miterlimit:10;" d="M 199.472656 174.800781 L 179.472656 174.800781 L 179.472656 184.800781 L 199.472656 184.800781 L 199.472656 204.800781 L 209.472656 204.800781 L 209.472656 184.800781 L 229.472656 184.800781 L 229.472656 174.800781 L 209.472656 174.800781 L 209.472656 154.800781 L 199.472656 154.800781 L 199.472656 174.800781 "/>
<path style="fill-rule:nonzero;fill:rgb(50%,0%,50%);fill-opacity:1;stroke-width:1;stroke-linecap:butt;stroke-linejoin:round;stroke:rgb(0%,0%,0%);stroke-opacity:1;stroke-miterlimit:10;" d="M 211.171875 70.386719 L 191.171875 70.386719 L 191.171875 80.386719 L 211.171875 80.386719 L 211.171875 100.386719 L 221.171875 100.386719 L 221.171875 80.386719 L 241.171875 80.386719 L 241.171875 70.386719 L 221.171875 70.386719 L 221.171875 50.386719 L 211.171875 50.386719 L 211.171875 70.386719 "/>
<path style="fill-rule:nonzero;fill:rgb(50%,0%,50%);fill-opacity:1;stroke-width:1;stroke-linecap:butt;stroke-linejoin:round;stroke:rgb(0%,0%,0%);stroke-opacity:1;stroke-miterlimit:10;" d="M 46.273438 350.191406 L 26.273438 350.191406 L 26.273438 360.191406 L 46.273438 360.191406 L 46.273438 380.191406 L 56.273438 380.191406 L 56.273438 360.191406 L 76.273438 360.191406 L 76.273438 350.191406 L 56.273438 350.191406 L 56.273438 330.191406 L 46.273438 330.191406 L 46.273438 350.191406 "/>
<path style="fill-rule:nonzero;fill:rgb(67%,100%,18%);fill-opacity:1;stroke-width:1;stroke-linecap:butt;stroke-linejoin:round;stroke:rgb(0%,0%,0%);stroke-opacity:1;stroke-miterlimit:10;" d="M 54.085938 468.308594 L 34.085938 468.308594 L 34.085938 478.308594 L 54.085938 478.308594 L 54.085938 498.308594 L 64.085938 498.308594 L 64.085938 478.308594 L 84.085938 478.308594 L 84.085938 468.308594 L 64.085938 468.308594 L 64.085938 448.308594 L 54.085938 448.308594 L 54.085938 468.308594 "/>
</g>
</svg>
