<?xml version="1.0" encoding="UTF-8"?>
<svg xmlns="http://www.w3.org/2000/svg" xmlns:xlink="http://www.w3.org/1999/xlink" width="517pt" height="517pt" viewBox="0 0 517 517" version="1.1">
<g id="surface2981">
<rect x="0" y="0" width="517" height="517" style="fill:rgb(90%,90%,90%);fill-opacity:1;stroke:none;"/>
<path style="fill:none;stroke-width:5;stroke-linecap:butt;stroke-linejoin:round;stroke:rgb(100%,0%,0%);stroke-opacity:1;stroke-miterlimit:10;" d="M 5 261 L 261 261 L 261 517 L 5 517 Z M 5 261 "/>
<path style="fill-rule:nonzero;fill:rgb(50%,0%,50%);fill-opacity:1;stroke-width:1;stroke-linecap:butt;stroke-linejoin:round;stroke:rgb(0%,0%,0%);stroke-opacity:1;stroke-miterlimit:10;" d="M 66.113281 316.726562 L 46.113281 316.726562 L 46.113281 326.726562 L 66.113281 326.726562 L 66.113281 346.726562 L 76.113281 346.726562 L 76.113281 326.726562 L 96.113281 326.726562 L 96.113281 316.726562 L 76.113281 316.726562 L 76.113281 296.726562 L 66.113281 296.726562 L 66.113281 316.726562 "/>
<path style="fill-rule:nonzero;fill:rgb(0%,0%,0%);fill-opacity:1;stroke-width:1;stroke-linecap:butt;stroke-linejoin:round;stroke:rgb(0%,0%,0%);stroke-opacity:1;stroke-miterlimit:10;" d="M 178.878906 164.675781 L 158.878906 164.675781 L 158.878906 174.675781 L 178.878906 174.675781 L 178.878906 194.675781 L 188.878906 194.675781 L 188.878906 174.675781 L 208.878906 174.675781 L 208.878906 164.675781 L 188.878906 164.675781 L 188.878906 144.675781 L 178.878906 144.675781 L 178.878906 164.675781 "/>
<path style="fill-rule:nonzero;fill:rgb(0%,0%,0%);fill-opacity:1;stroke-width:1;stroke-linecap:butt;stroke-linejoin:round;stroke:rgb(0%,0%,0%);stroke-opacity:1;stroke-miterlimit:10;" d="M 215.054688 65.386719 L 195.054688 65.386719 L 195.054688 75.386719 L 215.054688 75.386719 L 215.054688 95.386719 L 225.054688 95.386719 L 225.054688 75.386719 L 245.054688 75.386719 L 245.054688 65.386719 L 225.054688 65.386719 L 225.054688 45.386719 L 215.054688 45.386719 L 215.054688 65.386719 "/>
<path style="fill-rule:nonzero;fill:rgb(0%,0%,0%);fill-opacity:1;stroke-width:1;stroke-linecap:butt;stroke-linejoin:round;stroke:rgb(0%,0%,0%);stroke-opacity:1;stroke-miterlimit:10;" d="M 301.078125 405.726562 L 281.078125 405.726562 L 281.078125 415.726562 L 301.078125 415.726562 L 301.078125 435.726562 L 311.078125 435.726562 L 311.078125 415.726562 L 331.078125 415.726562 L 331.078125 405.726562 L 311.078125 405.726562 L 311.078125 385.726562 L 301.078125 385.726562 L 301.078125 405.726562 "/>
<path style="fill-rule:nonzero;fill:rgb(50%,0%,50%);fill-opacity:1;stroke-width:1;stroke-linecap:butt;stroke-linejoin:round;stroke:rgb(0%,0%,0%);stroke-opacity:1;stroke-miterlimit:10;" d="M 342.199219 32.34375 L 322.199219 32.34375 L 322.199219 42.34375 L 342.199219 42.34375 L 342.199219 62.34375 L 352.199219 62.34375 L 352.199219 42.34375 L 372.199219 42.34375 L 372.199219 32.34375 L 352.199219 32.34375 L 352.199219 12.34375 L 342.199219 12.34375 L 342.199219 32.34375 "/>
</g>
</svg>
