<?xml version="1.0" encoding="UTF-8"?>
<svg xmlns="http://www.w3.org/2000/svg" xmlns:xlink="http://www.w3.org/1999/xlink" width="517pt" height="517pt" viewBox="0 0 517 517" version="1.1">
<g id="surface2331">
<rect x="0" y="0" width="517" height="517" style="fill:rgb(90%,90%,90%);fill-opacity:1;stroke:none;"/>
<path style="fill:none;stroke-width:5;stroke-linecap:butt;stroke-linejoin:round;stroke:rgb(100%,0%,0%);stroke-opacity:1;stroke-miterlimit:10;" d="M 261 261 L 517 261 L 517 517 L 261 517 Z M 261 261 "/>
<path style="fill-rule:nonzero;fill:rgb(100%,0%,0%);fill-opacity:1;stroke-width:1;stroke-linecap:butt;stroke-linejoin:round;stroke:rgb(0%,0%,0%);stroke-opacity:1;stroke-miterlimit:10;" d="M 336.640625 340.394531 L 316.640625 340.394531 L 316.640625 350.394531 L 336.640625 350.394531 L 336.640625 370.394531 L 346.640625 370.394531 L 346.640625 350.394531 L 366.640625 350.394531 L 366.640625 340.394531 L 346.640625 340.394531 L 346.640625 320.394531 L 336.640625 320.394531 L 336.640625 340.394531 "/>
<path style="fill-rule:nonzero;fill:rgb(67%,100%,18%);fill-opacity:1;stroke-width:1;stroke-linecap:butt;stroke-linejoin:round;stroke:rgb(0%,0%,0%);stroke-opacity:1;stroke-miterlimit:10;" d="M 157.085938 76.269531 L 137.085938 76.269531 L 137.085938 86.269531 L 157.085938 86.269531 L 157.085938 106.269531 L 167.085938 106.269531 L 167.085938 86.269531 L 187.085938 86.269531 L 187.085938 76.269531 L 167.085938 76.269531 L 167.085938 56.269531 L 157.085938 56.269531 L 157.085938 76.269531 "/>
<path style="fill-rule:nonzero;fill:rgb(67%,100%,18%);fill-opacity:1;stroke-width:1;stroke-linecap:butt;stroke-linejoin:round;stroke:rgb(0%,0%,0%);stroke-opacity:1;stroke-miterlimit:10;" d="M 122.058594 133.269531 L 102.058594 133.269531 L 102.058594 143.269531 L 122.058594 143.269531 L 122.058594 163.269531 L 132.058594 163.269531 L 132.058594 143.269531 L 152.058594 143.269531 L 152.058594 133.269531 L 132.058594 133.269531 L 132.058594 113.269531 L 122.058594 113.269531 L 122.058594 133.269531 "/>
<path style="fill-rule:nonzero;fill:rgb(67%,100%,18%);fill-opacity:1;stroke-width:1;stroke-linecap:butt;stroke-linejoin:round;stroke:rgb(0%,0%,0%);stroke-opacity:1;stroke-miterlimit:10;" d="M 349.0625 203.910156 L 329.0625 203.910156 L 329.0625 213.910156 L 349.0625 213.910156 L 349.0625 233.910156 L 359.0625 233.910156 L 359.0625 213.910156 L 379.0625 213.910156 L 379.0625 203.910156 L 359.0625 203.910156 L 359.0625 183.910156 L 349.0625 183.910156 L 349.0625 203.910156 "/>
<path style="fill-rule:nonzero;fill:rgb(67%,100%,18%);fill-opacity:1;stroke-width:1;stroke-linecap:butt;stroke-linejoin:round;stroke:rgb(0%,0%,0%);stroke-opacity:1;stroke-miterlimit:10;" d="M 434.546875 208.582031 L 414.546875 208.582031 L 414.546875 218.582031 L 434.546875 218.582031 L 434.546875 238.582031 L 444.546875 238.582031 L 444.546875 218.582031 L 464.546875 218.582031 L 464.546875 208.582031 L 444.546875 208.582031 L 444.546875 188.582031 L 434.546875 188.582031 L 434.546875 208.582031 "/>
</g>
</svg>
