<?xml version="1.0" encoding="UTF-8"?>
<svg xmlns="http://www.w3.org/2000/svg" xmlns:xlink="http://www.w3.org/1999/xlink" width="517pt" height="517pt" viewBox="0 0 517 517" version="1.1">
<g id="surface5286">
<rect x="0" y="0" width="517" height="517" style="fill:rgb(90%,90%,90%);fill-opacity:1;stroke:none;"/>
<path style="fill-rule:nonzero;fill:rgb(67%,100%,18%);fill-opacity:1;stroke-width:1;stroke-linecap:butt;stroke-linejoin:miter;stroke:rgb(0%,0%,0%);stroke-opacity:1;stroke-miterlimit:10;" d="M 412.128906 144.058594 C 412.128906 160.625 398.699219 174.058594 382.128906 174.058594 C 365.5625 174.058594 352.128906 160.625 352.128906 144.058594 C 352.128906 127.488281 365.5625 114.058594 382.128906 114.058594 C 398.699219 114.058594 412.128906 127.488281 412.128906 144.058594 "/>
<path style="fill-rule:nonzero;fill:rgb(67%,100%,18%);fill-opacity:1;stroke-width:1;stroke-linecap:butt;stroke-linejoin:miter;stroke:rgb(0%,0%,0%);stroke-opacity:1;stroke-miterlimit:10;" d="M 369.828125 89.578125 C 369.828125 106.144531 356.394531 119.578125 339.828125 119.578125 C 323.257812 119.578125 309.828125 106.144531 309.828125 89.578125 C 309.828125 73.007812 323.257812 59.578125 339.828125 59.578125 C 356.394531 59.578125 369.828125 73.007812 369.828125 89.578125 "/>
<path style="fill-rule:nonzero;fill:rgb(67%,100%,18%);fill-opacity:1;stroke-width:1;stroke-linecap:butt;stroke-linejoin:miter;stroke:rgb(0%,0%,0%);stroke-opacity:1;stroke-miterlimit:10;" d="M 360.65625 349.691406 C 360.65625 366.257812 347.226562 379.691406 330.65625 379.691406 C 314.089844 379.691406 300.65625 366.257812 300.65625 349.691406 C 300.65625 333.121094 314.089844 319.691406 330.65625 319.691406 C 347.226562 319.691406 360.65625 333.121094 360.65625 349.691406 "/>
<path style="fill-rule:nonzero;fill:rgb(67%,100%,18%);fill-opacity:1;stroke-width:1;stroke-linecap:butt;stroke-linejoin:miter;stroke:rgb(0%,0%,0%);stroke-opacity:1;stroke-miterlimit:10;" d="M 424.503906 356.300781 C 424.503906 372.871094 411.070312 386.300781 394.503906 386.300781 C 377.933594 386.300781 364.503906 372.871094 364.503906 356.300781 C 364.503906 339.730469 377.933594 326.300781 394.503906 326.300781 C 411.070312 326.300781 424.503906 339.730469 424.503906 356.300781 "/>
<path style="fill-rule:nonzero;fill:rgb(67%,100%,18%);fill-opacity:1;stroke-width:1;stroke-linecap:butt;stroke-linejoin:miter;stroke:rgb(0%,0%,0%);stroke-opacity:1;stroke-miterlimit:10;" d="M 361.074219 451.597656 C 361.074219 468.164062 347.644531 481.597656 331.074219 481.597656 C 314.507812 481.597656 301.074219 468.164062 301.074219 451.597656 C 301.074219 435.027344 314.507812 421.597656 331.074219 421.597656 C 347.644531 421.597656 361.074219 435.027344 361.074219 451.597656 "/>
<path style="fill-rule:nonzero;fill:rgb(67%,100%,18%);fill-opacity:1;stroke-width:1;stroke-linecap:butt;stroke-linejoin:miter;stroke:rgb(0%,0%,0%);stroke-opacity:1;stroke-miterlimit:10;" d="M 502.175781 470.726562 C 502.175781 487.296875 488.746094 500.726562 472.175781 500.726562 C 455.609375 500.726562 442.175781 487.296875 442.175781 470.726562 C 442.175781 454.160156 455.609375 440.726562 472.175781 440.726562 C 488.746094 440.726562 502.175781 454.160156 502.175781 470.726562 "/>
<path style="fill-rule:nonzero;fill:rgb(67%,100%,18%);fill-opacity:1;stroke-width:1;stroke-linecap:butt;stroke-linejoin:miter;stroke:rgb(0%,0%,0%);stroke-opacity:1;stroke-miterlimit:10;" d="M 84.941406 139.089844 C 84.941406 155.65625 71.511719 169.089844 54.941406 169.089844 C 38.371094 169.089844 24.941406 155.65625 24.941406 139.089844 C 24.941406 122.519531 38.371094 109.089844 54.941406 109.089844 C 71.511719 109.089844 84.941406 122.519531 84.941406 139.089844 "/>
<path style="fill-rule:nonzero;fill:rgb(67%,100%,18%);fill-opacity:1;stroke-width:1;stroke-linecap:butt;stroke-linejoin:miter;stroke:rgb(0%,0%,0%);stroke-opacity:1;stroke-miterlimit:10;" d="M 197.894531 61.097656 C 197.894531 77.664062 184.460938 91.097656 167.894531 91.097656 C 151.324219 91.097656 137.894531 77.664062 137.894531 61.097656 C 137.894531 44.527344 151.324219 31.097656 167.894531 31.097656 C 184.460938 31.097656 197.894531 44.527344 197.894531 61.097656 "/>
</g>
</svg>
