<?xml version="1.0" encoding="UTF-8"?>
<svg xmlns="http://www.w3.org/2000/svg" xmlns:xlink="http://www.w3.org/1999/xlink" width="517pt" height="517pt" viewBox="0 0 517 517" version="1.1">
<g id="surface2356">
<rect x="0" y="0" width="517" height="517" style="fill:rgb(90%,90%,90%);fill-opacity:1;stroke:none;"/>
<path style="fill:none;stroke-width:5;stroke-linecap:butt;stroke-linejoin:round;stroke:rgb(100%,0%,0%);stroke-opacity:1;stroke-miterlimit:10;" d="M 261 261 L 517 261 L 517 517 L 261 517 Z M 261 261 "/>
<path style="fill-rule:nonzero;fill:rgb(100%,0%,0%);fill-opacity:1;stroke-width:1;stroke-linecap:butt;stroke-linejoin:round;stroke:rgb(0%,0%,0%);stroke-opacity:1;stroke-miterlimit:10;" d="M 371.941406 450.246094 L 351.941406 450.246094 L 351.941406 460.246094 L 371.941406 460.246094 L 371.941406 480.246094 L 381.941406 480.246094 L 381.941406 460.246094 L 401.941406 460.246094 L 401.941406 450.246094 L 381.941406 450.246094 L 381.941406 430.246094 L 371.941406 430.246094 L 371.941406 450.246094 "/>
<path style="fill-rule:nonzero;fill:rgb(67%,100%,18%);fill-opacity:1;stroke-width:1;stroke-linecap:butt;stroke-linejoin:round;stroke:rgb(0%,0%,0%);stroke-opacity:1;stroke-miterlimit:10;" d="M 120.042969 397.417969 L 100.042969 397.417969 L 100.042969 407.417969 L 120.042969 407.417969 L 120.042969 427.417969 L 130.042969 427.417969 L 130.042969 407.417969 L 150.042969 407.417969 L 150.042969 397.417969 L 130.042969 397.417969 L 130.042969 377.417969 L 120.042969 377.417969 L 120.042969 397.417969 "/>
<path style="fill-rule:nonzero;fill:rgb(67%,100%,18%);fill-opacity:1;stroke-width:1;stroke-linecap:butt;stroke-linejoin:round;stroke:rgb(0%,0%,0%);stroke-opacity:1;stroke-miterlimit:10;" d="M 172.316406 330.664062 L 152.316406 330.664062 L 152.316406 340.664062 L 172.316406 340.664062 L 172.316406 360.664062 L 182.316406 360.664062 L 182.316406 340.664062 L 202.316406 340.664062 L 202.316406 330.664062 L 182.316406 330.664062 L 182.316406 310.664062 L 172.316406 310.664062 L 172.316406 330.664062 "/>
<path style="fill-rule:nonzero;fill:rgb(67%,100%,18%);fill-opacity:1;stroke-width:1;stroke-linecap:butt;stroke-linejoin:round;stroke:rgb(0%,0%,0%);stroke-opacity:1;stroke-miterlimit:10;" d="M 32.035156 137.554688 L 12.035156 137.554688 L 12.035156 147.554688 L 32.035156 147.554688 L 32.035156 167.554688 L 42.035156 167.554688 L 42.035156 147.554688 L 62.035156 147.554688 L 62.035156 137.554688 L 42.035156 137.554688 L 42.035156 117.554688 L 32.035156 117.554688 L 32.035156 137.554688 "/>
<path style="fill-rule:nonzero;fill:rgb(100%,0%,0%);fill-opacity:1;stroke-width:1;stroke-linecap:butt;stroke-linejoin:round;stroke:rgb(0%,0%,0%);stroke-opacity:1;stroke-miterlimit:10;" d="M 358.519531 54.335938 L 338.519531 54.335938 L 338.519531 64.335938 L 358.519531 64.335938 L 358.519531 84.335938 L 368.519531 84.335938 L 368.519531 64.335938 L 388.519531 64.335938 L 388.519531 54.335938 L 368.519531 54.335938 L 368.519531 34.335938 L 358.519531 34.335938 L 358.519531 54.335938 "/>
</g>
</svg>
