<?xml version="1.0" encoding="UTF-8"?>
<svg xmlns="http://www.w3.org/2000/svg" xmlns:xlink="http://www.w3.org/1999/xlink" width="517pt" height="517pt" viewBox="0 0 517 517" version="1.1">
<g id="surface2566">
<rect x="0" y="0" width="517" height="517" style="fill:rgb(90%,90%,90%);fill-opacity:1;stroke:none;"/>
<path style="fill:none;stroke-width:5;stroke-linecap:butt;stroke-linejoin:round;stroke:rgb(100%,0%,0%);stroke-opacity:1;stroke-miterlimit:10;" d="M 261 261 L 517 261 L 517 517 L 261 517 Z M 261 261 "/>
<path style="fill-rule:nonzero;fill:rgb(90%,65%,0%);fill-opacity:1;stroke-width:1;stroke-linecap:butt;stroke-linejoin:round;stroke:rgb(0%,0%,0%);stroke-opacity:1;stroke-miterlimit:10;" d="M 480.855469 359.582031 C 480.855469 376.152344 467.421875 389.582031 450.855469 389.582031 C 434.285156 389.582031 420.855469 376.152344 420.855469 359.582031 C 420.855469 343.011719 434.285156 329.582031 450.855469 329.582031 C 467.421875 329.582031 480.855469 343.011719 480.855469 359.582031 "/>
<path style="fill-rule:nonzero;fill:rgb(35%,70%,90%);fill-opacity:1;stroke-width:1;stroke-linecap:butt;stroke-linejoin:round;stroke:rgb(0%,0%,0%);stroke-opacity:1;stroke-miterlimit:10;" d="M 166.933594 377.210938 C 166.933594 393.777344 153.503906 407.210938 136.933594 407.210938 C 120.367188 407.210938 106.933594 393.777344 106.933594 377.210938 C 106.933594 360.640625 120.367188 347.210938 136.933594 347.210938 C 153.503906 347.210938 166.933594 360.640625 166.933594 377.210938 "/>
<path style="fill-rule:nonzero;fill:rgb(35%,70%,90%);fill-opacity:1;stroke-width:1;stroke-linecap:butt;stroke-linejoin:round;stroke:rgb(0%,0%,0%);stroke-opacity:1;stroke-miterlimit:10;" d="M 73.242188 176.609375 C 73.242188 193.179688 59.808594 206.609375 43.242188 206.609375 C 26.671875 206.609375 13.242188 193.179688 13.242188 176.609375 C 13.242188 160.042969 26.671875 146.609375 43.242188 146.609375 C 59.808594 146.609375 73.242188 160.042969 73.242188 176.609375 "/>
<path style="fill-rule:nonzero;fill:rgb(35%,70%,90%);fill-opacity:1;stroke-width:1;stroke-linecap:butt;stroke-linejoin:round;stroke:rgb(0%,0%,0%);stroke-opacity:1;stroke-miterlimit:10;" d="M 460.726562 189.347656 C 460.726562 205.917969 447.292969 219.347656 430.726562 219.347656 C 414.15625 219.347656 400.726562 205.917969 400.726562 189.347656 C 400.726562 172.78125 414.15625 159.347656 430.726562 159.347656 C 447.292969 159.347656 460.726562 172.78125 460.726562 189.347656 "/>
<path style="fill-rule:nonzero;fill:rgb(35%,70%,90%);fill-opacity:1;stroke-width:1;stroke-linecap:butt;stroke-linejoin:round;stroke:rgb(0%,0%,0%);stroke-opacity:1;stroke-miterlimit:10;" d="M 372.839844 147.398438 C 372.839844 163.96875 359.40625 177.398438 342.839844 177.398438 C 326.269531 177.398438 312.839844 163.96875 312.839844 147.398438 C 312.839844 130.832031 326.269531 117.398438 342.839844 117.398438 C 359.40625 117.398438 372.839844 130.832031 372.839844 147.398438 "/>
</g>
</svg>
