<?xml version="1.0" encoding="UTF-8"?>
<svg xmlns="http://www.w3.org/2000/svg" xmlns:xlink="http://www.w3.org/1999/xlink" width="517pt" height="517pt" viewBox="0 0 517 517" version="1.1">
<g id="surface2366">
<rect x="0" y="0" width="517" height="517" style="fill:rgb(90%,90%,90%);fill-opacity:1;stroke:none;"/>
<path style="fill:none;stroke-width:5;stroke-linecap:butt;stroke-linejoin:round;stroke:rgb(100%,0%,0%);stroke-opacity:1;stroke-miterlimit:10;" d="M 261 261 L 517 261 L 517 517 L 261 517 Z M 261 261 "/>
<path style="fill-rule:nonzero;fill:rgb(100%,0%,0%);fill-opacity:1;stroke-width:1;stroke-linecap:butt;stroke-linejoin:round;stroke:rgb(0%,0%,0%);stroke-opacity:1;stroke-miterlimit:10;" d="M 412.542969 303.664062 L 392.542969 303.664062 L 392.542969 313.664062 L 412.542969 313.664062 L 412.542969 333.664062 L 422.542969 333.664062 L 422.542969 313.664062 L 442.542969 313.664062 L 442.542969 303.664062 L 422.542969 303.664062 L 422.542969 283.664062 L 412.542969 283.664062 L 412.542969 303.664062 "/>
<path style="fill-rule:nonzero;fill:rgb(67%,100%,18%);fill-opacity:1;stroke-width:1;stroke-linecap:butt;stroke-linejoin:round;stroke:rgb(0%,0%,0%);stroke-opacity:1;stroke-miterlimit:10;" d="M 364.550781 195.644531 L 344.550781 195.644531 L 344.550781 205.644531 L 364.550781 205.644531 L 364.550781 225.644531 L 374.550781 225.644531 L 374.550781 205.644531 L 394.550781 205.644531 L 394.550781 195.644531 L 374.550781 195.644531 L 374.550781 175.644531 L 364.550781 175.644531 L 364.550781 195.644531 "/>
<path style="fill-rule:nonzero;fill:rgb(100%,0%,0%);fill-opacity:1;stroke-width:1;stroke-linecap:butt;stroke-linejoin:round;stroke:rgb(0%,0%,0%);stroke-opacity:1;stroke-miterlimit:10;" d="M 173.476562 382.683594 L 153.476562 382.683594 L 153.476562 392.683594 L 173.476562 392.683594 L 173.476562 412.683594 L 183.476562 412.683594 L 183.476562 392.683594 L 203.476562 392.683594 L 203.476562 382.683594 L 183.476562 382.683594 L 183.476562 362.683594 L 173.476562 362.683594 L 173.476562 382.683594 "/>
<path style="fill-rule:nonzero;fill:rgb(100%,0%,0%);fill-opacity:1;stroke-width:1;stroke-linecap:butt;stroke-linejoin:round;stroke:rgb(0%,0%,0%);stroke-opacity:1;stroke-miterlimit:10;" d="M 208.167969 442.285156 L 188.167969 442.285156 L 188.167969 452.285156 L 208.167969 452.285156 L 208.167969 472.285156 L 218.167969 472.285156 L 218.167969 452.285156 L 238.167969 452.285156 L 238.167969 442.285156 L 218.167969 442.285156 L 218.167969 422.285156 L 208.167969 422.285156 L 208.167969 442.285156 "/>
<path style="fill-rule:nonzero;fill:rgb(100%,0%,0%);fill-opacity:1;stroke-width:1;stroke-linecap:butt;stroke-linejoin:round;stroke:rgb(0%,0%,0%);stroke-opacity:1;stroke-miterlimit:10;" d="M 141.433594 289.671875 L 121.433594 289.671875 L 121.433594 299.671875 L 141.433594 299.671875 L 141.433594 319.671875 L 151.433594 319.671875 L 151.433594 299.671875 L 171.433594 299.671875 L 171.433594 289.671875 L 151.433594 289.671875 L 151.433594 269.671875 L 141.433594 269.671875 L 141.433594 289.671875 "/>
</g>
</svg>
