<?xml version="1.0" encoding="UTF-8"?>
<svg xmlns="http://www.w3.org/2000/svg" xmlns:xlink="http://www.w3.org/1999/xlink" width="517pt" height="517pt" viewBox="0 0 517 517" version="1.1">
<g id="surface2561">
<rect x="0" y="0" width="517" height="517" style="fill:rgb(90%,90%,90%);fill-opacity:1;stroke:none;"/>
<path style="fill:none;stroke-width:5;stroke-linecap:butt;stroke-linejoin:round;stroke:rgb(100%,0%,0%);stroke-opacity:1;stroke-miterlimit:10;" d="M 261 261 L 517 261 L 517 517 L 261 517 Z M 261 261 "/>
<path style="fill-rule:nonzero;fill:rgb(90%,65%,0%);fill-opacity:1;stroke-width:1;stroke-linecap:butt;stroke-linejoin:round;stroke:rgb(0%,0%,0%);stroke-opacity:1;stroke-miterlimit:10;" d="M 338.316406 296.351562 C 338.316406 312.917969 324.886719 326.351562 308.316406 326.351562 C 291.75 326.351562 278.316406 312.917969 278.316406 296.351562 C 278.316406 279.78125 291.75 266.351562 308.316406 266.351562 C 324.886719 266.351562 338.316406 279.78125 338.316406 296.351562 "/>
<path style="fill-rule:nonzero;fill:rgb(35%,70%,90%);fill-opacity:1;stroke-width:1;stroke-linecap:butt;stroke-linejoin:round;stroke:rgb(0%,0%,0%);stroke-opacity:1;stroke-miterlimit:10;" d="M 338.179688 219.949219 C 338.179688 236.519531 324.75 249.949219 308.179688 249.949219 C 291.609375 249.949219 278.179688 236.519531 278.179688 219.949219 C 278.179688 203.382812 291.609375 189.949219 308.179688 189.949219 C 324.75 189.949219 338.179688 203.382812 338.179688 219.949219 "/>
<path style="fill-rule:nonzero;fill:rgb(35%,70%,90%);fill-opacity:1;stroke-width:1;stroke-linecap:butt;stroke-linejoin:round;stroke:rgb(0%,0%,0%);stroke-opacity:1;stroke-miterlimit:10;" d="M 488.367188 137.980469 C 488.367188 154.550781 474.933594 167.980469 458.367188 167.980469 C 441.796875 167.980469 428.367188 154.550781 428.367188 137.980469 C 428.367188 121.414062 441.796875 107.980469 458.367188 107.980469 C 474.933594 107.980469 488.367188 121.414062 488.367188 137.980469 "/>
<path style="fill-rule:nonzero;fill:rgb(35%,70%,90%);fill-opacity:1;stroke-width:1;stroke-linecap:butt;stroke-linejoin:round;stroke:rgb(0%,0%,0%);stroke-opacity:1;stroke-miterlimit:10;" d="M 212.625 43.171875 C 212.625 59.742188 199.195312 73.171875 182.625 73.171875 C 166.058594 73.171875 152.625 59.742188 152.625 43.171875 C 152.625 26.605469 166.058594 13.171875 182.625 13.171875 C 199.195312 13.171875 212.625 26.605469 212.625 43.171875 "/>
<path style="fill-rule:nonzero;fill:rgb(35%,70%,90%);fill-opacity:1;stroke-width:1;stroke-linecap:butt;stroke-linejoin:round;stroke:rgb(0%,0%,0%);stroke-opacity:1;stroke-miterlimit:10;" d="M 130.421875 84.46875 C 130.421875 101.039062 116.992188 114.46875 100.421875 114.46875 C 83.855469 114.46875 70.421875 101.039062 70.421875 84.46875 C 70.421875 67.902344 83.855469 54.46875 100.421875 54.46875 C 116.992188 54.46875 130.421875 67.902344 130.421875 84.46875 "/>
</g>
</svg>
