<?xml version="1.0" encoding="UTF-8"?>
<svg xmlns="http://www.w3.org/2000/svg" xmlns:xlink="http://www.w3.org/1999/xlink" width="517pt" height="517pt" viewBox="0 0 517 517" version="1.1">
<g id="surface2346">
<rect x="0" y="0" width="517" height="517" style="fill:rgb(90%,90%,90%);fill-opacity:1;stroke:none;"/>
<path style="fill:none;stroke-width:5;stroke-linecap:butt;stroke-linejoin:round;stroke:rgb(100%,0%,0%);stroke-opacity:1;stroke-miterlimit:10;" d="M 261 261 L 517 261 L 517 517 L 261 517 Z M 261 261 "/>
<path style="fill-rule:nonzero;fill:rgb(100%,0%,0%);fill-opacity:1;stroke-width:1;stroke-linecap:butt;stroke-linejoin:round;stroke:rgb(0%,0%,0%);stroke-opacity:1;stroke-miterlimit:10;" d="M 398.828125 452.480469 L 378.828125 452.480469 L 378.828125 462.480469 L 398.828125 462.480469 L 398.828125 482.480469 L 408.828125 482.480469 L 408.828125 462.480469 L 428.828125 462.480469 L 428.828125 452.480469 L 408.828125 452.480469 L 408.828125 432.480469 L 398.828125 432.480469 L 398.828125 452.480469 "/>
<path style="fill-rule:nonzero;fill:rgb(67%,100%,18%);fill-opacity:1;stroke-width:1;stroke-linecap:butt;stroke-linejoin:round;stroke:rgb(0%,0%,0%);stroke-opacity:1;stroke-miterlimit:10;" d="M 417.921875 65.683594 L 397.921875 65.683594 L 397.921875 75.683594 L 417.921875 75.683594 L 417.921875 95.683594 L 427.921875 95.683594 L 427.921875 75.683594 L 447.921875 75.683594 L 447.921875 65.683594 L 427.921875 65.683594 L 427.921875 45.683594 L 417.921875 45.683594 L 417.921875 65.683594 "/>
<path style="fill-rule:nonzero;fill:rgb(67%,100%,18%);fill-opacity:1;stroke-width:1;stroke-linecap:butt;stroke-linejoin:round;stroke:rgb(0%,0%,0%);stroke-opacity:1;stroke-miterlimit:10;" d="M 78.148438 184.355469 L 58.148438 184.355469 L 58.148438 194.355469 L 78.148438 194.355469 L 78.148438 214.355469 L 88.148438 214.355469 L 88.148438 194.355469 L 108.148438 194.355469 L 108.148438 184.355469 L 88.148438 184.355469 L 88.148438 164.355469 L 78.148438 164.355469 L 78.148438 184.355469 "/>
<path style="fill-rule:nonzero;fill:rgb(67%,100%,18%);fill-opacity:1;stroke-width:1;stroke-linecap:butt;stroke-linejoin:round;stroke:rgb(0%,0%,0%);stroke-opacity:1;stroke-miterlimit:10;" d="M 167.144531 332.28125 L 147.144531 332.28125 L 147.144531 342.28125 L 167.144531 342.28125 L 167.144531 362.28125 L 177.144531 362.28125 L 177.144531 342.28125 L 197.144531 342.28125 L 197.144531 332.28125 L 177.144531 332.28125 L 177.144531 312.28125 L 167.144531 312.28125 L 167.144531 332.28125 "/>
<path style="fill-rule:nonzero;fill:rgb(100%,0%,0%);fill-opacity:1;stroke-width:1;stroke-linecap:butt;stroke-linejoin:round;stroke:rgb(0%,0%,0%);stroke-opacity:1;stroke-miterlimit:10;" d="M 185.863281 390.277344 L 165.863281 390.277344 L 165.863281 400.277344 L 185.863281 400.277344 L 185.863281 420.277344 L 195.863281 420.277344 L 195.863281 400.277344 L 215.863281 400.277344 L 215.863281 390.277344 L 195.863281 390.277344 L 195.863281 370.277344 L 185.863281 370.277344 L 185.863281 390.277344 "/>
</g>
</svg>
