<?xml version="1.0" encoding="UTF-8"?>
<svg xmlns="http://www.w3.org/2000/svg" xmlns:xlink="http://www.w3.org/1999/xlink" width="517pt" height="517pt" viewBox="0 0 517 517" version="1.1">
<g id="surface2321">
<rect x="0" y="0" width="517" height="517" style="fill:rgb(90%,90%,90%);fill-opacity:1;stroke:none;"/>
<path style="fill:none;stroke-width:5;stroke-linecap:butt;stroke-linejoin:round;stroke:rgb(100%,0%,0%);stroke-opacity:1;stroke-miterlimit:10;" d="M 261 261 L 517 261 L 517 517 L 261 517 Z M 261 261 "/>
<path style="fill-rule:nonzero;fill:rgb(100%,0%,0%);fill-opacity:1;stroke-width:1;stroke-linecap:butt;stroke-linejoin:round;stroke:rgb(0%,0%,0%);stroke-opacity:1;stroke-miterlimit:10;" d="M 402.75 383.113281 L 382.75 383.113281 L 382.75 393.113281 L 402.75 393.113281 L 402.75 413.113281 L 412.75 413.113281 L 412.75 393.113281 L 432.75 393.113281 L 432.75 383.113281 L 412.75 383.113281 L 412.75 363.113281 L 402.75 363.113281 L 402.75 383.113281 "/>
<path style="fill-rule:nonzero;fill:rgb(67%,100%,18%);fill-opacity:1;stroke-width:1;stroke-linecap:butt;stroke-linejoin:round;stroke:rgb(0%,0%,0%);stroke-opacity:1;stroke-miterlimit:10;" d="M 347.324219 51.867188 L 327.324219 51.867188 L 327.324219 61.867188 L 347.324219 61.867188 L 347.324219 81.867188 L 357.324219 81.867188 L 357.324219 61.867188 L 377.324219 61.867188 L 377.324219 51.867188 L 357.324219 51.867188 L 357.324219 31.867188 L 347.324219 31.867188 L 347.324219 51.867188 "/>
<path style="fill-rule:nonzero;fill:rgb(67%,100%,18%);fill-opacity:1;stroke-width:1;stroke-linecap:butt;stroke-linejoin:round;stroke:rgb(0%,0%,0%);stroke-opacity:1;stroke-miterlimit:10;" d="M 37.980469 134.699219 L 17.980469 134.699219 L 17.980469 144.699219 L 37.980469 144.699219 L 37.980469 164.699219 L 47.980469 164.699219 L 47.980469 144.699219 L 67.980469 144.699219 L 67.980469 134.699219 L 47.980469 134.699219 L 47.980469 114.699219 L 37.980469 114.699219 L 37.980469 134.699219 "/>
<path style="fill-rule:nonzero;fill:rgb(67%,100%,18%);fill-opacity:1;stroke-width:1;stroke-linecap:butt;stroke-linejoin:round;stroke:rgb(0%,0%,0%);stroke-opacity:1;stroke-miterlimit:10;" d="M 97.492188 413.75 L 77.492188 413.75 L 77.492188 423.75 L 97.492188 423.75 L 97.492188 443.75 L 107.492188 443.75 L 107.492188 423.75 L 127.492188 423.75 L 127.492188 413.75 L 107.492188 413.75 L 107.492188 393.75 L 97.492188 393.75 L 97.492188 413.75 "/>
<path style="fill-rule:nonzero;fill:rgb(67%,100%,18%);fill-opacity:1;stroke-width:1;stroke-linecap:butt;stroke-linejoin:round;stroke:rgb(0%,0%,0%);stroke-opacity:1;stroke-miterlimit:10;" d="M 168.03125 428.25 L 148.03125 428.25 L 148.03125 438.25 L 168.03125 438.25 L 168.03125 458.25 L 178.03125 458.25 L 178.03125 438.25 L 198.03125 438.25 L 198.03125 428.25 L 178.03125 428.25 L 178.03125 408.25 L 168.03125 408.25 L 168.03125 428.25 "/>
</g>
</svg>
