<?xml version="1.0" encoding="UTF-8"?>
<svg xmlns="http://www.w3.org/2000/svg" xmlns:xlink="http://www.w3.org/1999/xlink" width="517pt" height="517pt" viewBox="0 0 517 517" version="1.1">
<g id="surface2896">
<rect x="0" y="0" width="517" height="517" style="fill:rgb(90%,90%,90%);fill-opacity:1;stroke:none;"/>
<path style="fill:none;stroke-width:5;stroke-linecap:butt;stroke-linejoin:round;stroke:rgb(100%,0%,0%);stroke-opacity:1;stroke-miterlimit:10;" d="M 5 261 L 261 261 L 261 517 L 5 517 Z M 5 261 "/>
<path style="fill-rule:nonzero;fill:rgb(53%,27%,7%);fill-opacity:1;stroke-width:1;stroke-linecap:butt;stroke-linejoin:round;stroke:rgb(0%,0%,0%);stroke-opacity:1;stroke-miterlimit:10;" d="M 114.761719 463.40625 C 114.761719 479.976562 101.328125 493.40625 84.761719 493.40625 C 68.191406 493.40625 54.761719 479.976562 54.761719 463.40625 C 54.761719 446.839844 68.191406 433.40625 84.761719 433.40625 C 101.328125 433.40625 114.761719 446.839844 114.761719 463.40625 "/>
<path style="fill-rule:nonzero;fill:rgb(67%,100%,18%);fill-opacity:1;stroke-width:1;stroke-linecap:butt;stroke-linejoin:round;stroke:rgb(0%,0%,0%);stroke-opacity:1;stroke-miterlimit:10;" d="M 172.320312 57.800781 C 172.320312 74.371094 158.890625 87.800781 142.320312 87.800781 C 125.75 87.800781 112.320312 74.371094 112.320312 57.800781 C 112.320312 41.234375 125.75 27.800781 142.320312 27.800781 C 158.890625 27.800781 172.320312 41.234375 172.320312 57.800781 "/>
<path style="fill-rule:nonzero;fill:rgb(67%,100%,18%);fill-opacity:1;stroke-width:1;stroke-linecap:butt;stroke-linejoin:round;stroke:rgb(0%,0%,0%);stroke-opacity:1;stroke-miterlimit:10;" d="M 104.164062 177.515625 C 104.164062 194.085938 90.730469 207.515625 74.164062 207.515625 C 57.59375 207.515625 44.164062 194.085938 44.164062 177.515625 C 44.164062 160.949219 57.59375 147.515625 74.164062 147.515625 C 90.730469 147.515625 104.164062 160.949219 104.164062 177.515625 "/>
<path style="fill-rule:nonzero;fill:rgb(67%,100%,18%);fill-opacity:1;stroke-width:1;stroke-linecap:butt;stroke-linejoin:round;stroke:rgb(0%,0%,0%);stroke-opacity:1;stroke-miterlimit:10;" d="M 453.5 321.332031 C 453.5 337.902344 440.066406 351.332031 423.5 351.332031 C 406.929688 351.332031 393.5 337.902344 393.5 321.332031 C 393.5 304.765625 406.929688 291.332031 423.5 291.332031 C 440.066406 291.332031 453.5 304.765625 453.5 321.332031 "/>
<path style="fill-rule:nonzero;fill:rgb(67%,100%,18%);fill-opacity:1;stroke-width:1;stroke-linecap:butt;stroke-linejoin:round;stroke:rgb(0%,0%,0%);stroke-opacity:1;stroke-miterlimit:10;" d="M 354.125 95.097656 C 354.125 111.667969 340.695312 125.097656 324.125 125.097656 C 307.558594 125.097656 294.125 111.667969 294.125 95.097656 C 294.125 78.53125 307.558594 65.097656 324.125 65.097656 C 340.695312 65.097656 354.125 78.53125 354.125 95.097656 "/>
</g>
</svg>
