<?xml version="1.0" encoding="UTF-8"?>
<svg xmlns="http://www.w3.org/2000/svg" xmlns:xlink="http://www.w3.org/1999/xlink" width="517pt" height="517pt" viewBox="0 0 517 517" version="1.1">
<g id="surface2391">
<rect x="0" y="0" width="517" height="517" style="fill:rgb(90%,90%,90%);fill-opacity:1;stroke:none;"/>
<path style="fill:none;stroke-width:5;stroke-linecap:butt;stroke-linejoin:round;stroke:rgb(100%,0%,0%);stroke-opacity:1;stroke-miterlimit:10;" d="M 261 261 L 517 261 L 517 517 L 261 517 Z M 261 261 "/>
<path style="fill-rule:nonzero;fill:rgb(67%,100%,18%);fill-opacity:1;stroke-width:1;stroke-linecap:butt;stroke-linejoin:round;stroke:rgb(0%,0%,0%);stroke-opacity:1;stroke-miterlimit:10;" d="M 387.777344 468.601562 L 367.777344 468.601562 L 367.777344 478.601562 L 387.777344 478.601562 L 387.777344 498.601562 L 397.777344 498.601562 L 397.777344 478.601562 L 417.777344 478.601562 L 417.777344 468.601562 L 397.777344 468.601562 L 397.777344 448.601562 L 387.777344 448.601562 L 387.777344 468.601562 "/>
<path style="fill-rule:nonzero;fill:rgb(67%,100%,18%);fill-opacity:1;stroke-width:1;stroke-linecap:butt;stroke-linejoin:round;stroke:rgb(0%,0%,0%);stroke-opacity:1;stroke-miterlimit:10;" d="M 158.964844 62.90625 L 138.964844 62.90625 L 138.964844 72.90625 L 158.964844 72.90625 L 158.964844 92.90625 L 168.964844 92.90625 L 168.964844 72.90625 L 188.964844 72.90625 L 188.964844 62.90625 L 168.964844 62.90625 L 168.964844 42.90625 L 158.964844 42.90625 L 158.964844 62.90625 "/>
<path style="fill-rule:nonzero;fill:rgb(100%,0%,0%);fill-opacity:1;stroke-width:1;stroke-linecap:butt;stroke-linejoin:round;stroke:rgb(0%,0%,0%);stroke-opacity:1;stroke-miterlimit:10;" d="M 213.367188 310.484375 L 193.367188 310.484375 L 193.367188 320.484375 L 213.367188 320.484375 L 213.367188 340.484375 L 223.367188 340.484375 L 223.367188 320.484375 L 243.367188 320.484375 L 243.367188 310.484375 L 223.367188 310.484375 L 223.367188 290.484375 L 213.367188 290.484375 L 213.367188 310.484375 "/>
<path style="fill-rule:nonzero;fill:rgb(100%,0%,0%);fill-opacity:1;stroke-width:1;stroke-linecap:butt;stroke-linejoin:round;stroke:rgb(0%,0%,0%);stroke-opacity:1;stroke-miterlimit:10;" d="M 99.335938 361.515625 L 79.335938 361.515625 L 79.335938 371.515625 L 99.335938 371.515625 L 99.335938 391.515625 L 109.335938 391.515625 L 109.335938 371.515625 L 129.335938 371.515625 L 129.335938 361.515625 L 109.335938 361.515625 L 109.335938 341.515625 L 99.335938 341.515625 L 99.335938 361.515625 "/>
<path style="fill-rule:nonzero;fill:rgb(100%,0%,0%);fill-opacity:1;stroke-width:1;stroke-linecap:butt;stroke-linejoin:round;stroke:rgb(0%,0%,0%);stroke-opacity:1;stroke-miterlimit:10;" d="M 142.570312 446.402344 L 122.570312 446.402344 L 122.570312 456.402344 L 142.570312 456.402344 L 142.570312 476.402344 L 152.570312 476.402344 L 152.570312 456.402344 L 172.570312 456.402344 L 172.570312 446.402344 L 152.570312 446.402344 L 152.570312 426.402344 L 142.570312 426.402344 L 142.570312 446.402344 "/>
</g>
</svg>
