<?xml version="1.0" encoding="UTF-8"?>
<svg xmlns="http://www.w3.org/2000/svg" xmlns:xlink="http://www.w3.org/1999/xlink" width="517pt" height="517pt" viewBox="0 0 517 517" version="1.1">
<g id="surface2386">
<rect x="0" y="0" width="517" height="517" style="fill:rgb(90%,90%,90%);fill-opacity:1;stroke:none;"/>
<path style="fill:none;stroke-width:5;stroke-linecap:butt;stroke-linejoin:round;stroke:rgb(100%,0%,0%);stroke-opacity:1;stroke-miterlimit:10;" d="M 261 261 L 517 261 L 517 517 L 261 517 Z M 261 261 "/>
<path style="fill-rule:nonzero;fill:rgb(67%,100%,18%);fill-opacity:1;stroke-width:1;stroke-linecap:butt;stroke-linejoin:round;stroke:rgb(0%,0%,0%);stroke-opacity:1;stroke-miterlimit:10;" d="M 306.515625 317.511719 L 286.515625 317.511719 L 286.515625 327.511719 L 306.515625 327.511719 L 306.515625 347.511719 L 316.515625 347.511719 L 316.515625 327.511719 L 336.515625 327.511719 L 336.515625 317.511719 L 316.515625 317.511719 L 316.515625 297.511719 L 306.515625 297.511719 L 306.515625 317.511719 "/>
<path style="fill-rule:nonzero;fill:rgb(67%,100%,18%);fill-opacity:1;stroke-width:1;stroke-linecap:butt;stroke-linejoin:round;stroke:rgb(0%,0%,0%);stroke-opacity:1;stroke-miterlimit:10;" d="M 158.460938 418.417969 L 138.460938 418.417969 L 138.460938 428.417969 L 158.460938 428.417969 L 158.460938 448.417969 L 168.460938 448.417969 L 168.460938 428.417969 L 188.460938 428.417969 L 188.460938 418.417969 L 168.460938 418.417969 L 168.460938 398.417969 L 158.460938 398.417969 L 158.460938 418.417969 "/>
<path style="fill-rule:nonzero;fill:rgb(67%,100%,18%);fill-opacity:1;stroke-width:1;stroke-linecap:butt;stroke-linejoin:round;stroke:rgb(0%,0%,0%);stroke-opacity:1;stroke-miterlimit:10;" d="M 167.746094 148.140625 L 147.746094 148.140625 L 147.746094 158.140625 L 167.746094 158.140625 L 167.746094 178.140625 L 177.746094 178.140625 L 177.746094 158.140625 L 197.746094 158.140625 L 197.746094 148.140625 L 177.746094 148.140625 L 177.746094 128.140625 L 167.746094 128.140625 L 167.746094 148.140625 "/>
<path style="fill-rule:nonzero;fill:rgb(67%,100%,18%);fill-opacity:1;stroke-width:1;stroke-linecap:butt;stroke-linejoin:round;stroke:rgb(0%,0%,0%);stroke-opacity:1;stroke-miterlimit:10;" d="M 428.324219 121.910156 L 408.324219 121.910156 L 408.324219 131.910156 L 428.324219 131.910156 L 428.324219 151.910156 L 438.324219 151.910156 L 438.324219 131.910156 L 458.324219 131.910156 L 458.324219 121.910156 L 438.324219 121.910156 L 438.324219 101.910156 L 428.324219 101.910156 L 428.324219 121.910156 "/>
<path style="fill-rule:nonzero;fill:rgb(67%,100%,18%);fill-opacity:1;stroke-width:1;stroke-linecap:butt;stroke-linejoin:round;stroke:rgb(0%,0%,0%);stroke-opacity:1;stroke-miterlimit:10;" d="M 461.308594 176.441406 L 441.308594 176.441406 L 441.308594 186.441406 L 461.308594 186.441406 L 461.308594 206.441406 L 471.308594 206.441406 L 471.308594 186.441406 L 491.308594 186.441406 L 491.308594 176.441406 L 471.308594 176.441406 L 471.308594 156.441406 L 461.308594 156.441406 L 461.308594 176.441406 "/>
</g>
</svg>
