<?xml version="1.0" encoding="UTF-8"?>
<svg xmlns="http://www.w3.org/2000/svg" xmlns:xlink="http://www.w3.org/1999/xlink" width="517pt" height="517pt" viewBox="0 0 517 517" version="1.1">
<g id="surface2966">
<rect x="0" y="0" width="517" height="517" style="fill:rgb(90%,90%,90%);fill-opacity:1;stroke:none;"/>
<path style="fill:none;stroke-width:5;stroke-linecap:butt;stroke-linejoin:round;stroke:rgb(100%,0%,0%);stroke-opacity:1;stroke-miterlimit:10;" d="M 5 261 L 261 261 L 261 517 L 5 517 Z M 5 261 "/>
<path style="fill-rule:nonzero;fill:rgb(50%,0%,50%);fill-opacity:1;stroke-width:1;stroke-linecap:butt;stroke-linejoin:round;stroke:rgb(0%,0%,0%);stroke-opacity:1;stroke-miterlimit:10;" d="M 66.5 392.9375 L 46.5 392.9375 L 46.5 402.9375 L 66.5 402.9375 L 66.5 422.9375 L 76.5 422.9375 L 76.5 402.9375 L 96.5 402.9375 L 96.5 392.9375 L 76.5 392.9375 L 76.5 372.9375 L 66.5 372.9375 L 66.5 392.9375 "/>
<path style="fill-rule:nonzero;fill:rgb(0%,0%,0%);fill-opacity:1;stroke-width:1;stroke-linecap:butt;stroke-linejoin:round;stroke:rgb(0%,0%,0%);stroke-opacity:1;stroke-miterlimit:10;" d="M 380.792969 394.320312 L 360.792969 394.320312 L 360.792969 404.320312 L 380.792969 404.320312 L 380.792969 424.320312 L 390.792969 424.320312 L 390.792969 404.320312 L 410.792969 404.320312 L 410.792969 394.320312 L 390.792969 394.320312 L 390.792969 374.320312 L 380.792969 374.320312 L 380.792969 394.320312 "/>
<path style="fill-rule:nonzero;fill:rgb(0%,0%,0%);fill-opacity:1;stroke-width:1;stroke-linecap:butt;stroke-linejoin:round;stroke:rgb(0%,0%,0%);stroke-opacity:1;stroke-miterlimit:10;" d="M 298.976562 291.855469 L 278.976562 291.855469 L 278.976562 301.855469 L 298.976562 301.855469 L 298.976562 321.855469 L 308.976562 321.855469 L 308.976562 301.855469 L 328.976562 301.855469 L 328.976562 291.855469 L 308.976562 291.855469 L 308.976562 271.855469 L 298.976562 271.855469 L 298.976562 291.855469 "/>
<path style="fill-rule:nonzero;fill:rgb(0%,0%,0%);fill-opacity:1;stroke-width:1;stroke-linecap:butt;stroke-linejoin:round;stroke:rgb(0%,0%,0%);stroke-opacity:1;stroke-miterlimit:10;" d="M 318.949219 104.128906 L 298.949219 104.128906 L 298.949219 114.128906 L 318.949219 114.128906 L 318.949219 134.128906 L 328.949219 134.128906 L 328.949219 114.128906 L 348.949219 114.128906 L 348.949219 104.128906 L 328.949219 104.128906 L 328.949219 84.128906 L 318.949219 84.128906 L 318.949219 104.128906 "/>
<path style="fill-rule:nonzero;fill:rgb(0%,0%,0%);fill-opacity:1;stroke-width:1;stroke-linecap:butt;stroke-linejoin:round;stroke:rgb(0%,0%,0%);stroke-opacity:1;stroke-miterlimit:10;" d="M 379.535156 135.78125 L 359.535156 135.78125 L 359.535156 145.78125 L 379.535156 145.78125 L 379.535156 165.78125 L 389.535156 165.78125 L 389.535156 145.78125 L 409.535156 145.78125 L 409.535156 135.78125 L 389.535156 135.78125 L 389.535156 115.78125 L 379.535156 115.78125 L 379.535156 135.78125 "/>
</g>
</svg>
