<?xml version="1.0" encoding="UTF-8"?>
<svg xmlns="http://www.w3.org/2000/svg" xmlns:xlink="http://www.w3.org/1999/xlink" width="517pt" height="517pt" viewBox="0 0 517 517" version="1.1">
<g id="surface2661">
<rect x="0" y="0" width="517" height="517" style="fill:rgb(90%,90%,90%);fill-opacity:1;stroke:none;"/>
<path style="fill:none;stroke-width:5;stroke-linecap:butt;stroke-linejoin:round;stroke:rgb(100%,0%,0%);stroke-opacity:1;stroke-miterlimit:10;" d="M 261 261 L 517 261 L 517 517 L 261 517 Z M 261 261 "/>
<path style="fill-rule:nonzero;fill:rgb(67%,100%,18%);fill-opacity:1;stroke-width:1;stroke-linecap:butt;stroke-linejoin:round;stroke:rgb(0%,0%,0%);stroke-opacity:1;stroke-miterlimit:10;" d="M 302.164062 332.308594 L 282.164062 332.308594 L 282.164062 342.308594 L 302.164062 342.308594 L 302.164062 362.308594 L 312.164062 362.308594 L 312.164062 342.308594 L 332.164062 342.308594 L 332.164062 332.308594 L 312.164062 332.308594 L 312.164062 312.308594 L 302.164062 312.308594 L 302.164062 332.308594 "/>
<path style="fill-rule:nonzero;fill:rgb(50%,0%,50%);fill-opacity:1;stroke-width:1;stroke-linecap:butt;stroke-linejoin:round;stroke:rgb(0%,0%,0%);stroke-opacity:1;stroke-miterlimit:10;" d="M 186.230469 394.382812 L 166.230469 394.382812 L 166.230469 404.382812 L 186.230469 404.382812 L 186.230469 424.382812 L 196.230469 424.382812 L 196.230469 404.382812 L 216.230469 404.382812 L 216.230469 394.382812 L 196.230469 394.382812 L 196.230469 374.382812 L 186.230469 374.382812 L 186.230469 394.382812 "/>
<path style="fill-rule:nonzero;fill:rgb(50%,0%,50%);fill-opacity:1;stroke-width:1;stroke-linecap:butt;stroke-linejoin:round;stroke:rgb(0%,0%,0%);stroke-opacity:1;stroke-miterlimit:10;" d="M 121.40625 374.566406 L 101.40625 374.566406 L 101.40625 384.566406 L 121.40625 384.566406 L 121.40625 404.566406 L 131.40625 404.566406 L 131.40625 384.566406 L 151.40625 384.566406 L 151.40625 374.566406 L 131.40625 374.566406 L 131.40625 354.566406 L 121.40625 354.566406 L 121.40625 374.566406 "/>
<path style="fill-rule:nonzero;fill:rgb(50%,0%,50%);fill-opacity:1;stroke-width:1;stroke-linecap:butt;stroke-linejoin:round;stroke:rgb(0%,0%,0%);stroke-opacity:1;stroke-miterlimit:10;" d="M 32.417969 84.992188 L 12.417969 84.992188 L 12.417969 94.992188 L 32.417969 94.992188 L 32.417969 114.992188 L 42.417969 114.992188 L 42.417969 94.992188 L 62.417969 94.992188 L 62.417969 84.992188 L 42.417969 84.992188 L 42.417969 64.992188 L 32.417969 64.992188 L 32.417969 84.992188 "/>
<path style="fill-rule:nonzero;fill:rgb(67%,100%,18%);fill-opacity:1;stroke-width:1;stroke-linecap:butt;stroke-linejoin:round;stroke:rgb(0%,0%,0%);stroke-opacity:1;stroke-miterlimit:10;" d="M 84.453125 120.980469 L 64.453125 120.980469 L 64.453125 130.980469 L 84.453125 130.980469 L 84.453125 150.980469 L 94.453125 150.980469 L 94.453125 130.980469 L 114.453125 130.980469 L 114.453125 120.980469 L 94.453125 120.980469 L 94.453125 100.980469 L 84.453125 100.980469 L 84.453125 120.980469 "/>
</g>
</svg>
