<?xml version="1.0" encoding="UTF-8"?>
<svg xmlns="http://www.w3.org/2000/svg" xmlns:xlink="http://www.w3.org/1999/xlink" width="517pt" height="517pt" viewBox="0 0 517 517" version="1.1">
<g id="surface2891">
<rect x="0" y="0" width="517" height="517" style="fill:rgb(90%,90%,90%);fill-opacity:1;stroke:none;"/>
<path style="fill:none;stroke-width:5;stroke-linecap:butt;stroke-linejoin:round;stroke:rgb(100%,0%,0%);stroke-opacity:1;stroke-miterlimit:10;" d="M 5 261 L 261 261 L 261 517 L 5 517 Z M 5 261 "/>
<path style="fill-rule:nonzero;fill:rgb(53%,27%,7%);fill-opacity:1;stroke-width:1;stroke-linecap:butt;stroke-linejoin:round;stroke:rgb(0%,0%,0%);stroke-opacity:1;stroke-miterlimit:10;" d="M 66.457031 305.941406 C 66.457031 322.511719 53.027344 335.941406 36.457031 335.941406 C 19.890625 335.941406 6.457031 322.511719 6.457031 305.941406 C 6.457031 289.371094 19.890625 275.941406 36.457031 275.941406 C 53.027344 275.941406 66.457031 289.371094 66.457031 305.941406 "/>
<path style="fill-rule:nonzero;fill:rgb(67%,100%,18%);fill-opacity:1;stroke-width:1;stroke-linecap:butt;stroke-linejoin:round;stroke:rgb(0%,0%,0%);stroke-opacity:1;stroke-miterlimit:10;" d="M 453.808594 338.359375 C 453.808594 354.929688 440.378906 368.359375 423.808594 368.359375 C 407.242188 368.359375 393.808594 354.929688 393.808594 338.359375 C 393.808594 321.792969 407.242188 308.359375 423.808594 308.359375 C 440.378906 308.359375 453.808594 321.792969 453.808594 338.359375 "/>
<path style="fill-rule:nonzero;fill:rgb(67%,100%,18%);fill-opacity:1;stroke-width:1;stroke-linecap:butt;stroke-linejoin:round;stroke:rgb(0%,0%,0%);stroke-opacity:1;stroke-miterlimit:10;" d="M 75.6875 207.039062 C 75.6875 223.609375 62.257812 237.039062 45.6875 237.039062 C 29.121094 237.039062 15.6875 223.609375 15.6875 207.039062 C 15.6875 190.472656 29.121094 177.039062 45.6875 177.039062 C 62.257812 177.039062 75.6875 190.472656 75.6875 207.039062 "/>
<path style="fill-rule:nonzero;fill:rgb(67%,100%,18%);fill-opacity:1;stroke-width:1;stroke-linecap:butt;stroke-linejoin:round;stroke:rgb(0%,0%,0%);stroke-opacity:1;stroke-miterlimit:10;" d="M 137.640625 54.816406 C 137.640625 71.386719 124.207031 84.816406 107.640625 84.816406 C 91.070312 84.816406 77.640625 71.386719 77.640625 54.816406 C 77.640625 38.25 91.070312 24.816406 107.640625 24.816406 C 124.207031 24.816406 137.640625 38.25 137.640625 54.816406 "/>
<path style="fill-rule:nonzero;fill:rgb(67%,100%,18%);fill-opacity:1;stroke-width:1;stroke-linecap:butt;stroke-linejoin:round;stroke:rgb(0%,0%,0%);stroke-opacity:1;stroke-miterlimit:10;" d="M 425.183594 87.335938 C 425.183594 103.90625 411.75 117.335938 395.183594 117.335938 C 378.613281 117.335938 365.183594 103.90625 365.183594 87.335938 C 365.183594 70.765625 378.613281 57.335938 395.183594 57.335938 C 411.75 57.335938 425.183594 70.765625 425.183594 87.335938 "/>
</g>
</svg>
