<?xml version="1.0" encoding="UTF-8"?>
<svg xmlns="http://www.w3.org/2000/svg" xmlns:xlink="http://www.w3.org/1999/xlink" width="517pt" height="517pt" viewBox="0 0 517 517" version="1.1">
<g id="surface2326">
<rect x="0" y="0" width="517" height="517" style="fill:rgb(90%,90%,90%);fill-opacity:1;stroke:none;"/>
<path style="fill:none;stroke-width:5;stroke-linecap:butt;stroke-linejoin:round;stroke:rgb(100%,0%,0%);stroke-opacity:1;stroke-miterlimit:10;" d="M 261 261 L 517 261 L 517 517 L 261 517 Z M 261 261 "/>
<path style="fill-rule:nonzero;fill:rgb(100%,0%,0%);fill-opacity:1;stroke-width:1;stroke-linecap:butt;stroke-linejoin:round;stroke:rgb(0%,0%,0%);stroke-opacity:1;stroke-miterlimit:10;" d="M 443.6875 429.511719 L 423.6875 429.511719 L 423.6875 439.511719 L 443.6875 439.511719 L 443.6875 459.511719 L 453.6875 459.511719 L 453.6875 439.511719 L 473.6875 439.511719 L 473.6875 429.511719 L 453.6875 429.511719 L 453.6875 409.511719 L 443.6875 409.511719 L 443.6875 429.511719 "/>
<path style="fill-rule:nonzero;fill:rgb(67%,100%,18%);fill-opacity:1;stroke-width:1;stroke-linecap:butt;stroke-linejoin:round;stroke:rgb(0%,0%,0%);stroke-opacity:1;stroke-miterlimit:10;" d="M 35.453125 200.519531 L 15.453125 200.519531 L 15.453125 210.519531 L 35.453125 210.519531 L 35.453125 230.519531 L 45.453125 230.519531 L 45.453125 210.519531 L 65.453125 210.519531 L 65.453125 200.519531 L 45.453125 200.519531 L 45.453125 180.519531 L 35.453125 180.519531 L 35.453125 200.519531 "/>
<path style="fill-rule:nonzero;fill:rgb(67%,100%,18%);fill-opacity:1;stroke-width:1;stroke-linecap:butt;stroke-linejoin:round;stroke:rgb(0%,0%,0%);stroke-opacity:1;stroke-miterlimit:10;" d="M 296.902344 124.222656 L 276.902344 124.222656 L 276.902344 134.222656 L 296.902344 134.222656 L 296.902344 154.222656 L 306.902344 154.222656 L 306.902344 134.222656 L 326.902344 134.222656 L 326.902344 124.222656 L 306.902344 124.222656 L 306.902344 104.222656 L 296.902344 104.222656 L 296.902344 124.222656 "/>
<path style="fill-rule:nonzero;fill:rgb(67%,100%,18%);fill-opacity:1;stroke-width:1;stroke-linecap:butt;stroke-linejoin:round;stroke:rgb(0%,0%,0%);stroke-opacity:1;stroke-miterlimit:10;" d="M 164.320312 349.089844 L 144.320312 349.089844 L 144.320312 359.089844 L 164.320312 359.089844 L 164.320312 379.089844 L 174.320312 379.089844 L 174.320312 359.089844 L 194.320312 359.089844 L 194.320312 349.089844 L 174.320312 349.089844 L 174.320312 329.089844 L 164.320312 329.089844 L 164.320312 349.089844 "/>
<path style="fill-rule:nonzero;fill:rgb(67%,100%,18%);fill-opacity:1;stroke-width:1;stroke-linecap:butt;stroke-linejoin:round;stroke:rgb(0%,0%,0%);stroke-opacity:1;stroke-miterlimit:10;" d="M 204.875 436.28125 L 184.875 436.28125 L 184.875 446.28125 L 204.875 446.28125 L 204.875 466.28125 L 214.875 466.28125 L 214.875 446.28125 L 234.875 446.28125 L 234.875 436.28125 L 214.875 436.28125 L 214.875 416.28125 L 204.875 416.28125 L 204.875 436.28125 "/>
</g>
</svg>
