<?xml version="1.0" encoding="UTF-8"?>
<svg xmlns="http://www.w3.org/2000/svg" xmlns:xlink="http://www.w3.org/1999/xlink" width="517pt" height="517pt" viewBox="0 0 517 517" version="1.1">
<g id="surface2336">
<rect x="0" y="0" width="517" height="517" style="fill:rgb(90%,90%,90%);fill-opacity:1;stroke:none;"/>
<path style="fill:none;stroke-width:5;stroke-linecap:butt;stroke-linejoin:round;stroke:rgb(100%,0%,0%);stroke-opacity:1;stroke-miterlimit:10;" d="M 261 261 L 517 261 L 517 517 L 261 517 Z M 261 261 "/>
<path style="fill-rule:nonzero;fill:rgb(100%,0%,0%);fill-opacity:1;stroke-width:1;stroke-linecap:butt;stroke-linejoin:round;stroke:rgb(0%,0%,0%);stroke-opacity:1;stroke-miterlimit:10;" d="M 334.226562 363.128906 L 314.226562 363.128906 L 314.226562 373.128906 L 334.226562 373.128906 L 334.226562 393.128906 L 344.226562 393.128906 L 344.226562 373.128906 L 364.226562 373.128906 L 364.226562 363.128906 L 344.226562 363.128906 L 344.226562 343.128906 L 334.226562 343.128906 L 334.226562 363.128906 "/>
<path style="fill-rule:nonzero;fill:rgb(67%,100%,18%);fill-opacity:1;stroke-width:1;stroke-linecap:butt;stroke-linejoin:round;stroke:rgb(0%,0%,0%);stroke-opacity:1;stroke-miterlimit:10;" d="M 115.386719 400.859375 L 95.386719 400.859375 L 95.386719 410.859375 L 115.386719 410.859375 L 115.386719 430.859375 L 125.386719 430.859375 L 125.386719 410.859375 L 145.386719 410.859375 L 145.386719 400.859375 L 125.386719 400.859375 L 125.386719 380.859375 L 115.386719 380.859375 L 115.386719 400.859375 "/>
<path style="fill-rule:nonzero;fill:rgb(67%,100%,18%);fill-opacity:1;stroke-width:1;stroke-linecap:butt;stroke-linejoin:round;stroke:rgb(0%,0%,0%);stroke-opacity:1;stroke-miterlimit:10;" d="M 174.28125 338.492188 L 154.28125 338.492188 L 154.28125 348.492188 L 174.28125 348.492188 L 174.28125 368.492188 L 184.28125 368.492188 L 184.28125 348.492188 L 204.28125 348.492188 L 204.28125 338.492188 L 184.28125 338.492188 L 184.28125 318.492188 L 174.28125 318.492188 L 174.28125 338.492188 "/>
<path style="fill-rule:nonzero;fill:rgb(67%,100%,18%);fill-opacity:1;stroke-width:1;stroke-linecap:butt;stroke-linejoin:round;stroke:rgb(0%,0%,0%);stroke-opacity:1;stroke-miterlimit:10;" d="M 163.066406 171.71875 L 143.066406 171.71875 L 143.066406 181.71875 L 163.066406 181.71875 L 163.066406 201.71875 L 173.066406 201.71875 L 173.066406 181.71875 L 193.066406 181.71875 L 193.066406 171.71875 L 173.066406 171.71875 L 173.066406 151.71875 L 163.066406 151.71875 L 163.066406 171.71875 "/>
<path style="fill-rule:nonzero;fill:rgb(67%,100%,18%);fill-opacity:1;stroke-width:1;stroke-linecap:butt;stroke-linejoin:round;stroke:rgb(0%,0%,0%);stroke-opacity:1;stroke-miterlimit:10;" d="M 76.433594 147.132812 L 56.433594 147.132812 L 56.433594 157.132812 L 76.433594 157.132812 L 76.433594 177.132812 L 86.433594 177.132812 L 86.433594 157.132812 L 106.433594 157.132812 L 106.433594 147.132812 L 86.433594 147.132812 L 86.433594 127.132812 L 76.433594 127.132812 L 76.433594 147.132812 "/>
</g>
</svg>
