<?xml version="1.0" encoding="UTF-8"?>
<svg xmlns="http://www.w3.org/2000/svg" xmlns:xlink="http://www.w3.org/1999/xlink" width="517pt" height="517pt" viewBox="0 0 517 517" version="1.1">
<g id="surface236">
<rect x="0" y="0" width="517" height="517" style="fill:rgb(90%,90%,90%);fill-opacity:1;stroke:none;"/>
<path style="fill:none;stroke-width:5;stroke-linecap:butt;stroke-linejoin:round;stroke:rgb(100%,0%,0%);stroke-opacity:1;stroke-miterlimit:10;" d="M 5 5 L 261 5 L 261 261 L 5 261 Z M 5 5 "/>
<path style="fill-rule:nonzero;fill:rgb(0%,0%,0%);fill-opacity:1;stroke-width:1;stroke-linecap:butt;stroke-linejoin:round;stroke:rgb(0%,0%,0%);stroke-opacity:1;stroke-miterlimit:10;" d="M 83.214844 52.152344 C 83.214844 68.71875 69.785156 82.152344 53.214844 82.152344 C 36.648438 82.152344 23.214844 68.71875 23.214844 52.152344 C 23.214844 35.582031 36.648438 22.152344 53.214844 22.152344 C 69.785156 22.152344 83.214844 35.582031 83.214844 52.152344 "/>
<path style="fill-rule:nonzero;fill:rgb(0%,0%,0%);fill-opacity:1;stroke-width:1;stroke-linecap:butt;stroke-linejoin:round;stroke:rgb(0%,0%,0%);stroke-opacity:1;stroke-miterlimit:10;" d="M 492.671875 173.113281 C 492.671875 189.683594 479.242188 203.113281 462.671875 203.113281 C 446.105469 203.113281 432.671875 189.683594 432.671875 173.113281 C 432.671875 156.546875 446.105469 143.113281 462.671875 143.113281 C 479.242188 143.113281 492.671875 156.546875 492.671875 173.113281 "/>
<path style="fill-rule:nonzero;fill:rgb(0%,0%,0%);fill-opacity:1;stroke-width:1;stroke-linecap:butt;stroke-linejoin:round;stroke:rgb(0%,0%,0%);stroke-opacity:1;stroke-miterlimit:10;" d="M 210.46875 417.253906 C 210.46875 433.820312 197.039062 447.253906 180.46875 447.253906 C 163.898438 447.253906 150.46875 433.820312 150.46875 417.253906 C 150.46875 400.683594 163.898438 387.253906 180.46875 387.253906 C 197.039062 387.253906 210.46875 400.683594 210.46875 417.253906 "/>
<path style="fill-rule:nonzero;fill:rgb(100%,7%,57%);fill-opacity:1;stroke-width:1;stroke-linecap:butt;stroke-linejoin:round;stroke:rgb(0%,0%,0%);stroke-opacity:1;stroke-miterlimit:10;" d="M 147.8125 350.964844 C 147.8125 367.53125 134.382812 380.964844 117.8125 380.964844 C 101.246094 380.964844 87.8125 367.53125 87.8125 350.964844 C 87.8125 334.394531 101.246094 320.964844 117.8125 320.964844 C 134.382812 320.964844 147.8125 334.394531 147.8125 350.964844 "/>
</g>
</svg>
