<?xml version="1.0" encoding="UTF-8"?>
<svg xmlns="http://www.w3.org/2000/svg" xmlns:xlink="http://www.w3.org/1999/xlink" width="517pt" height="517pt" viewBox="0 0 517 517" version="1.1">
<g id="surface211">
<rect x="0" y="0" width="517" height="517" style="fill:rgb(90%,90%,90%);fill-opacity:1;stroke:none;"/>
<path style="fill:none;stroke-width:5;stroke-linecap:butt;stroke-linejoin:round;stroke:rgb(100%,0%,0%);stroke-opacity:1;stroke-miterlimit:10;" d="M 5 5 L 261 5 L 261 261 L 5 261 Z M 5 5 "/>
<path style="fill-rule:nonzero;fill:rgb(100%,7%,57%);fill-opacity:1;stroke-width:1;stroke-linecap:butt;stroke-linejoin:round;stroke:rgb(0%,0%,0%);stroke-opacity:1;stroke-miterlimit:10;" d="M 187.101562 114.195312 C 187.101562 130.761719 173.671875 144.195312 157.101562 144.195312 C 140.535156 144.195312 127.101562 130.761719 127.101562 114.195312 C 127.101562 97.625 140.535156 84.195312 157.101562 84.195312 C 173.671875 84.195312 187.101562 97.625 187.101562 114.195312 "/>
<path style="fill-rule:nonzero;fill:rgb(0%,0%,0%);fill-opacity:1;stroke-width:1;stroke-linecap:butt;stroke-linejoin:round;stroke:rgb(0%,0%,0%);stroke-opacity:1;stroke-miterlimit:10;" d="M 187.007812 322.136719 C 187.007812 338.707031 173.578125 352.136719 157.007812 352.136719 C 140.441406 352.136719 127.007812 338.707031 127.007812 322.136719 C 127.007812 305.570312 140.441406 292.136719 157.007812 292.136719 C 173.578125 292.136719 187.007812 305.570312 187.007812 322.136719 "/>
<path style="fill-rule:nonzero;fill:rgb(100%,7%,57%);fill-opacity:1;stroke-width:1;stroke-linecap:butt;stroke-linejoin:round;stroke:rgb(0%,0%,0%);stroke-opacity:1;stroke-miterlimit:10;" d="M 93.691406 455.445312 C 93.691406 472.015625 80.261719 485.445312 63.691406 485.445312 C 47.125 485.445312 33.691406 472.015625 33.691406 455.445312 C 33.691406 438.878906 47.125 425.445312 63.691406 425.445312 C 80.261719 425.445312 93.691406 438.878906 93.691406 455.445312 "/>
<path style="fill-rule:nonzero;fill:rgb(100%,7%,57%);fill-opacity:1;stroke-width:1;stroke-linecap:butt;stroke-linejoin:round;stroke:rgb(0%,0%,0%);stroke-opacity:1;stroke-miterlimit:10;" d="M 376.53125 147.082031 C 376.53125 163.648438 363.097656 177.082031 346.53125 177.082031 C 329.960938 177.082031 316.53125 163.648438 316.53125 147.082031 C 316.53125 130.511719 329.960938 117.082031 346.53125 117.082031 C 363.097656 117.082031 376.53125 130.511719 376.53125 147.082031 "/>
</g>
</svg>
