<?xml version="1.0" encoding="UTF-8"?>
<svg xmlns="http://www.w3.org/2000/svg" xmlns:xlink="http://www.w3.org/1999/xlink" width="517pt" height="517pt" viewBox="0 0 517 517" version="1.1">
<g id="surface2671">
<rect x="0" y="0" width="517" height="517" style="fill:rgb(90%,90%,90%);fill-opacity:1;stroke:none;"/>
<path style="fill:none;stroke-width:5;stroke-linecap:butt;stroke-linejoin:round;stroke:rgb(100%,0%,0%);stroke-opacity:1;stroke-miterlimit:10;" d="M 261 261 L 517 261 L 517 517 L 261 517 Z M 261 261 "/>
<path style="fill-rule:nonzero;fill:rgb(67%,100%,18%);fill-opacity:1;stroke-width:1;stroke-linecap:butt;stroke-linejoin:round;stroke:rgb(0%,0%,0%);stroke-opacity:1;stroke-miterlimit:10;" d="M 386.601562 344.898438 L 366.601562 344.898438 L 366.601562 354.898438 L 386.601562 354.898438 L 386.601562 374.898438 L 396.601562 374.898438 L 396.601562 354.898438 L 416.601562 354.898438 L 416.601562 344.898438 L 396.601562 344.898438 L 396.601562 324.898438 L 386.601562 324.898438 L 386.601562 344.898438 "/>
<path style="fill-rule:nonzero;fill:rgb(50%,0%,50%);fill-opacity:1;stroke-width:1;stroke-linecap:butt;stroke-linejoin:round;stroke:rgb(0%,0%,0%);stroke-opacity:1;stroke-miterlimit:10;" d="M 70.199219 39.308594 L 50.199219 39.308594 L 50.199219 49.308594 L 70.199219 49.308594 L 70.199219 69.308594 L 80.199219 69.308594 L 80.199219 49.308594 L 100.199219 49.308594 L 100.199219 39.308594 L 80.199219 39.308594 L 80.199219 19.308594 L 70.199219 19.308594 L 70.199219 39.308594 "/>
<path style="fill-rule:nonzero;fill:rgb(50%,0%,50%);fill-opacity:1;stroke-width:1;stroke-linecap:butt;stroke-linejoin:round;stroke:rgb(0%,0%,0%);stroke-opacity:1;stroke-miterlimit:10;" d="M 360.988281 155.347656 L 340.988281 155.347656 L 340.988281 165.347656 L 360.988281 165.347656 L 360.988281 185.347656 L 370.988281 185.347656 L 370.988281 165.347656 L 390.988281 165.347656 L 390.988281 155.347656 L 370.988281 155.347656 L 370.988281 135.347656 L 360.988281 135.347656 L 360.988281 155.347656 "/>
<path style="fill-rule:nonzero;fill:rgb(50%,0%,50%);fill-opacity:1;stroke-width:1;stroke-linecap:butt;stroke-linejoin:round;stroke:rgb(0%,0%,0%);stroke-opacity:1;stroke-miterlimit:10;" d="M 420.667969 137.078125 L 400.667969 137.078125 L 400.667969 147.078125 L 420.667969 147.078125 L 420.667969 167.078125 L 430.667969 167.078125 L 430.667969 147.078125 L 450.667969 147.078125 L 450.667969 137.078125 L 430.667969 137.078125 L 430.667969 117.078125 L 420.667969 117.078125 L 420.667969 137.078125 "/>
<path style="fill-rule:nonzero;fill:rgb(67%,100%,18%);fill-opacity:1;stroke-width:1;stroke-linecap:butt;stroke-linejoin:round;stroke:rgb(0%,0%,0%);stroke-opacity:1;stroke-miterlimit:10;" d="M 67.234375 470.445312 L 47.234375 470.445312 L 47.234375 480.445312 L 67.234375 480.445312 L 67.234375 500.445312 L 77.234375 500.445312 L 77.234375 480.445312 L 97.234375 480.445312 L 97.234375 470.445312 L 77.234375 470.445312 L 77.234375 450.445312 L 67.234375 450.445312 L 67.234375 470.445312 "/>
</g>
</svg>
