<?xml version="1.0" encoding="UTF-8"?>
<svg xmlns="http://www.w3.org/2000/svg" xmlns:xlink="http://www.w3.org/1999/xlink" width="517pt" height="517pt" viewBox="0 0 517 517" version="1.1">
<g id="surface2996">
<rect x="0" y="0" width="517" height="517" style="fill:rgb(90%,90%,90%);fill-opacity:1;stroke:none;"/>
<path style="fill:none;stroke-width:5;stroke-linecap:butt;stroke-linejoin:round;stroke:rgb(100%,0%,0%);stroke-opacity:1;stroke-miterlimit:10;" d="M 5 261 L 261 261 L 261 517 L 5 517 Z M 5 261 "/>
<path style="fill-rule:nonzero;fill:rgb(50%,0%,50%);fill-opacity:1;stroke-width:1;stroke-linecap:butt;stroke-linejoin:round;stroke:rgb(0%,0%,0%);stroke-opacity:1;stroke-miterlimit:10;" d="M 38.886719 456.03125 L 18.886719 456.03125 L 18.886719 466.03125 L 38.886719 466.03125 L 38.886719 486.03125 L 48.886719 486.03125 L 48.886719 466.03125 L 68.886719 466.03125 L 68.886719 456.03125 L 48.886719 456.03125 L 48.886719 436.03125 L 38.886719 436.03125 L 38.886719 456.03125 "/>
<path style="fill-rule:nonzero;fill:rgb(0%,0%,0%);fill-opacity:1;stroke-width:1;stroke-linecap:butt;stroke-linejoin:round;stroke:rgb(0%,0%,0%);stroke-opacity:1;stroke-miterlimit:10;" d="M 302.347656 58.929688 L 282.347656 58.929688 L 282.347656 68.929688 L 302.347656 68.929688 L 302.347656 88.929688 L 312.347656 88.929688 L 312.347656 68.929688 L 332.347656 68.929688 L 332.347656 58.929688 L 312.347656 58.929688 L 312.347656 38.929688 L 302.347656 38.929688 L 302.347656 58.929688 "/>
<path style="fill-rule:nonzero;fill:rgb(0%,0%,0%);fill-opacity:1;stroke-width:1;stroke-linecap:butt;stroke-linejoin:round;stroke:rgb(0%,0%,0%);stroke-opacity:1;stroke-miterlimit:10;" d="M 48.21875 119.070312 L 28.21875 119.070312 L 28.21875 129.070312 L 48.21875 129.070312 L 48.21875 149.070312 L 58.21875 149.070312 L 58.21875 129.070312 L 78.21875 129.070312 L 78.21875 119.070312 L 58.21875 119.070312 L 58.21875 99.070312 L 48.21875 99.070312 L 48.21875 119.070312 "/>
<path style="fill-rule:nonzero;fill:rgb(0%,0%,0%);fill-opacity:1;stroke-width:1;stroke-linecap:butt;stroke-linejoin:round;stroke:rgb(0%,0%,0%);stroke-opacity:1;stroke-miterlimit:10;" d="M 177.691406 172.597656 L 157.691406 172.597656 L 157.691406 182.597656 L 177.691406 182.597656 L 177.691406 202.597656 L 187.691406 202.597656 L 187.691406 182.597656 L 207.691406 182.597656 L 207.691406 172.597656 L 187.691406 172.597656 L 187.691406 152.597656 L 177.691406 152.597656 L 177.691406 172.597656 "/>
<path style="fill-rule:nonzero;fill:rgb(50%,0%,50%);fill-opacity:1;stroke-width:1;stroke-linecap:butt;stroke-linejoin:round;stroke:rgb(0%,0%,0%);stroke-opacity:1;stroke-miterlimit:10;" d="M 416.84375 453.601562 L 396.84375 453.601562 L 396.84375 463.601562 L 416.84375 463.601562 L 416.84375 483.601562 L 426.84375 483.601562 L 426.84375 463.601562 L 446.84375 463.601562 L 446.84375 453.601562 L 426.84375 453.601562 L 426.84375 433.601562 L 416.84375 433.601562 L 416.84375 453.601562 "/>
</g>
</svg>
