<?xml version="1.0" encoding="UTF-8"?>
<svg xmlns="http://www.w3.org/2000/svg" xmlns:xlink="http://www.w3.org/1999/xlink" width="517pt" height="517pt" viewBox="0 0 517 517" version="1.1">
<g id="surface3006">
<rect x="0" y="0" width="517" height="517" style="fill:rgb(90%,90%,90%);fill-opacity:1;stroke:none;"/>
<path style="fill:none;stroke-width:5;stroke-linecap:butt;stroke-linejoin:round;stroke:rgb(100%,0%,0%);stroke-opacity:1;stroke-miterlimit:10;" d="M 5 261 L 261 261 L 261 517 L 5 517 Z M 5 261 "/>
<path style="fill-rule:nonzero;fill:rgb(50%,0%,50%);fill-opacity:1;stroke-width:1;stroke-linecap:butt;stroke-linejoin:round;stroke:rgb(0%,0%,0%);stroke-opacity:1;stroke-miterlimit:10;" d="M 106.042969 396.710938 L 86.042969 396.710938 L 86.042969 406.710938 L 106.042969 406.710938 L 106.042969 426.710938 L 116.042969 426.710938 L 116.042969 406.710938 L 136.042969 406.710938 L 136.042969 396.710938 L 116.042969 396.710938 L 116.042969 376.710938 L 106.042969 376.710938 L 106.042969 396.710938 "/>
<path style="fill-rule:nonzero;fill:rgb(0%,0%,0%);fill-opacity:1;stroke-width:1;stroke-linecap:butt;stroke-linejoin:round;stroke:rgb(0%,0%,0%);stroke-opacity:1;stroke-miterlimit:10;" d="M 392.035156 194.578125 L 372.035156 194.578125 L 372.035156 204.578125 L 392.035156 204.578125 L 392.035156 224.578125 L 402.035156 224.578125 L 402.035156 204.578125 L 422.035156 204.578125 L 422.035156 194.578125 L 402.035156 194.578125 L 402.035156 174.578125 L 392.035156 174.578125 L 392.035156 194.578125 "/>
<path style="fill-rule:nonzero;fill:rgb(50%,0%,50%);fill-opacity:1;stroke-width:1;stroke-linecap:butt;stroke-linejoin:round;stroke:rgb(0%,0%,0%);stroke-opacity:1;stroke-miterlimit:10;" d="M 54.675781 211.207031 L 34.675781 211.207031 L 34.675781 221.207031 L 54.675781 221.207031 L 54.675781 241.207031 L 64.675781 241.207031 L 64.675781 221.207031 L 84.675781 221.207031 L 84.675781 211.207031 L 64.675781 211.207031 L 64.675781 191.207031 L 54.675781 191.207031 L 54.675781 211.207031 "/>
<path style="fill-rule:nonzero;fill:rgb(50%,0%,50%);fill-opacity:1;stroke-width:1;stroke-linecap:butt;stroke-linejoin:round;stroke:rgb(0%,0%,0%);stroke-opacity:1;stroke-miterlimit:10;" d="M 102.574219 100.285156 L 82.574219 100.285156 L 82.574219 110.285156 L 102.574219 110.285156 L 102.574219 130.285156 L 112.574219 130.285156 L 112.574219 110.285156 L 132.574219 110.285156 L 132.574219 100.285156 L 112.574219 100.285156 L 112.574219 80.285156 L 102.574219 80.285156 L 102.574219 100.285156 "/>
<path style="fill-rule:nonzero;fill:rgb(50%,0%,50%);fill-opacity:1;stroke-width:1;stroke-linecap:butt;stroke-linejoin:round;stroke:rgb(0%,0%,0%);stroke-opacity:1;stroke-miterlimit:10;" d="M 398.335938 348.648438 L 378.335938 348.648438 L 378.335938 358.648438 L 398.335938 358.648438 L 398.335938 378.648438 L 408.335938 378.648438 L 408.335938 358.648438 L 428.335938 358.648438 L 428.335938 348.648438 L 408.335938 348.648438 L 408.335938 328.648438 L 398.335938 328.648438 L 398.335938 348.648438 "/>
</g>
</svg>
