<?xml version="1.0" encoding="UTF-8"?>
<svg xmlns="http://www.w3.org/2000/svg" xmlns:xlink="http://www.w3.org/1999/xlink" width="517pt" height="517pt" viewBox="0 0 517 517" version="1.1">
<g id="surface2941">
<rect x="0" y="0" width="517" height="517" style="fill:rgb(90%,90%,90%);fill-opacity:1;stroke:none;"/>
<path style="fill:none;stroke-width:5;stroke-linecap:butt;stroke-linejoin:round;stroke:rgb(100%,0%,0%);stroke-opacity:1;stroke-miterlimit:10;" d="M 5 261 L 261 261 L 261 517 L 5 517 Z M 5 261 "/>
<path style="fill-rule:nonzero;fill:rgb(100%,7%,57%);fill-opacity:1;stroke-width:1;stroke-linecap:butt;stroke-linejoin:round;stroke:rgb(0%,0%,0%);stroke-opacity:1;stroke-miterlimit:10;" d="M 94.859375 304.9375 C 94.859375 321.507812 81.429688 334.9375 64.859375 334.9375 C 48.292969 334.9375 34.859375 321.507812 34.859375 304.9375 C 34.859375 288.371094 48.292969 274.9375 64.859375 274.9375 C 81.429688 274.9375 94.859375 288.371094 94.859375 304.9375 "/>
<path style="fill-rule:nonzero;fill:rgb(67%,100%,18%);fill-opacity:1;stroke-width:1;stroke-linecap:butt;stroke-linejoin:round;stroke:rgb(0%,0%,0%);stroke-opacity:1;stroke-miterlimit:10;" d="M 352.714844 302.558594 C 352.714844 319.125 339.285156 332.558594 322.714844 332.558594 C 306.144531 332.558594 292.714844 319.125 292.714844 302.558594 C 292.714844 285.988281 306.144531 272.558594 322.714844 272.558594 C 339.285156 272.558594 352.714844 285.988281 352.714844 302.558594 "/>
<path style="fill-rule:nonzero;fill:rgb(67%,100%,18%);fill-opacity:1;stroke-width:1;stroke-linecap:butt;stroke-linejoin:round;stroke:rgb(0%,0%,0%);stroke-opacity:1;stroke-miterlimit:10;" d="M 471.535156 121.054688 C 471.535156 137.621094 458.105469 151.054688 441.535156 151.054688 C 424.96875 151.054688 411.535156 137.621094 411.535156 121.054688 C 411.535156 104.484375 424.96875 91.054688 441.535156 91.054688 C 458.105469 91.054688 471.535156 104.484375 471.535156 121.054688 "/>
<path style="fill-rule:nonzero;fill:rgb(67%,100%,18%);fill-opacity:1;stroke-width:1;stroke-linecap:butt;stroke-linejoin:round;stroke:rgb(0%,0%,0%);stroke-opacity:1;stroke-miterlimit:10;" d="M 377.039062 168.445312 C 377.039062 185.011719 363.609375 198.445312 347.039062 198.445312 C 330.472656 198.445312 317.039062 185.011719 317.039062 168.445312 C 317.039062 151.875 330.472656 138.445312 347.039062 138.445312 C 363.609375 138.445312 377.039062 151.875 377.039062 168.445312 "/>
<path style="fill-rule:nonzero;fill:rgb(53%,27%,7%);fill-opacity:1;stroke-width:1;stroke-linecap:butt;stroke-linejoin:round;stroke:rgb(0%,0%,0%);stroke-opacity:1;stroke-miterlimit:10;" d="M 387.773438 90.441406 C 387.773438 107.011719 374.34375 120.441406 357.773438 120.441406 C 341.203125 120.441406 327.773438 107.011719 327.773438 90.441406 C 327.773438 73.875 341.203125 60.441406 357.773438 60.441406 C 374.34375 60.441406 387.773438 73.875 387.773438 90.441406 "/>
</g>
</svg>
