<?xml version="1.0" encoding="UTF-8"?>
<svg xmlns="http://www.w3.org/2000/svg" xmlns:xlink="http://www.w3.org/1999/xlink" width="517pt" height="517pt" viewBox="0 0 517 517" version="1.1">
<g id="surface2656">
<rect x="0" y="0" width="517" height="517" style="fill:rgb(90%,90%,90%);fill-opacity:1;stroke:none;"/>
<path style="fill:none;stroke-width:5;stroke-linecap:butt;stroke-linejoin:round;stroke:rgb(100%,0%,0%);stroke-opacity:1;stroke-miterlimit:10;" d="M 261 261 L 517 261 L 517 517 L 261 517 Z M 261 261 "/>
<path style="fill-rule:nonzero;fill:rgb(67%,100%,18%);fill-opacity:1;stroke-width:1;stroke-linecap:butt;stroke-linejoin:round;stroke:rgb(0%,0%,0%);stroke-opacity:1;stroke-miterlimit:10;" d="M 422.148438 318.039062 L 402.148438 318.039062 L 402.148438 328.039062 L 422.148438 328.039062 L 422.148438 348.039062 L 432.148438 348.039062 L 432.148438 328.039062 L 452.148438 328.039062 L 452.148438 318.039062 L 432.148438 318.039062 L 432.148438 298.039062 L 422.148438 298.039062 L 422.148438 318.039062 "/>
<path style="fill-rule:nonzero;fill:rgb(50%,0%,50%);fill-opacity:1;stroke-width:1;stroke-linecap:butt;stroke-linejoin:round;stroke:rgb(0%,0%,0%);stroke-opacity:1;stroke-miterlimit:10;" d="M 286.351562 167.300781 L 266.351562 167.300781 L 266.351562 177.300781 L 286.351562 177.300781 L 286.351562 197.300781 L 296.351562 197.300781 L 296.351562 177.300781 L 316.351562 177.300781 L 316.351562 167.300781 L 296.351562 167.300781 L 296.351562 147.300781 L 286.351562 147.300781 L 286.351562 167.300781 "/>
<path style="fill-rule:nonzero;fill:rgb(50%,0%,50%);fill-opacity:1;stroke-width:1;stroke-linecap:butt;stroke-linejoin:round;stroke:rgb(0%,0%,0%);stroke-opacity:1;stroke-miterlimit:10;" d="M 412.820312 188.828125 L 392.820312 188.828125 L 392.820312 198.828125 L 412.820312 198.828125 L 412.820312 218.828125 L 422.820312 218.828125 L 422.820312 198.828125 L 442.820312 198.828125 L 442.820312 188.828125 L 422.820312 188.828125 L 422.820312 168.828125 L 412.820312 168.828125 L 412.820312 188.828125 "/>
<path style="fill-rule:nonzero;fill:rgb(50%,0%,50%);fill-opacity:1;stroke-width:1;stroke-linecap:butt;stroke-linejoin:round;stroke:rgb(0%,0%,0%);stroke-opacity:1;stroke-miterlimit:10;" d="M 182.433594 334.929688 L 162.433594 334.929688 L 162.433594 344.929688 L 182.433594 344.929688 L 182.433594 364.929688 L 192.433594 364.929688 L 192.433594 344.929688 L 212.433594 344.929688 L 212.433594 334.929688 L 192.433594 334.929688 L 192.433594 314.929688 L 182.433594 314.929688 L 182.433594 334.929688 "/>
<path style="fill-rule:nonzero;fill:rgb(50%,0%,50%);fill-opacity:1;stroke-width:1;stroke-linecap:butt;stroke-linejoin:round;stroke:rgb(0%,0%,0%);stroke-opacity:1;stroke-miterlimit:10;" d="M 133.992188 455.988281 L 113.992188 455.988281 L 113.992188 465.988281 L 133.992188 465.988281 L 133.992188 485.988281 L 143.992188 485.988281 L 143.992188 465.988281 L 163.992188 465.988281 L 163.992188 455.988281 L 143.992188 455.988281 L 143.992188 435.988281 L 133.992188 435.988281 L 133.992188 455.988281 "/>
</g>
</svg>
