<?xml version="1.0" encoding="UTF-8"?>
<svg xmlns="http://www.w3.org/2000/svg" xmlns:xlink="http://www.w3.org/1999/xlink" width="517pt" height="517pt" viewBox="0 0 517 517" version="1.1">
<g id="surface2696">
<rect x="0" y="0" width="517" height="517" style="fill:rgb(90%,90%,90%);fill-opacity:1;stroke:none;"/>
<path style="fill:none;stroke-width:5;stroke-linecap:butt;stroke-linejoin:round;stroke:rgb(100%,0%,0%);stroke-opacity:1;stroke-miterlimit:10;" d="M 261 261 L 517 261 L 517 517 L 261 517 Z M 261 261 "/>
<path style="fill-rule:nonzero;fill:rgb(67%,100%,18%);fill-opacity:1;stroke-width:1;stroke-linecap:butt;stroke-linejoin:round;stroke:rgb(0%,0%,0%);stroke-opacity:1;stroke-miterlimit:10;" d="M 451.925781 456.832031 L 431.925781 456.832031 L 431.925781 466.832031 L 451.925781 466.832031 L 451.925781 486.832031 L 461.925781 486.832031 L 461.925781 466.832031 L 481.925781 466.832031 L 481.925781 456.832031 L 461.925781 456.832031 L 461.925781 436.832031 L 451.925781 436.832031 L 451.925781 456.832031 "/>
<path style="fill-rule:nonzero;fill:rgb(50%,0%,50%);fill-opacity:1;stroke-width:1;stroke-linecap:butt;stroke-linejoin:round;stroke:rgb(0%,0%,0%);stroke-opacity:1;stroke-miterlimit:10;" d="M 48.902344 120.964844 L 28.902344 120.964844 L 28.902344 130.964844 L 48.902344 130.964844 L 48.902344 150.964844 L 58.902344 150.964844 L 58.902344 130.964844 L 78.902344 130.964844 L 78.902344 120.964844 L 58.902344 120.964844 L 58.902344 100.964844 L 48.902344 100.964844 L 48.902344 120.964844 "/>
<path style="fill-rule:nonzero;fill:rgb(67%,100%,18%);fill-opacity:1;stroke-width:1;stroke-linecap:butt;stroke-linejoin:round;stroke:rgb(0%,0%,0%);stroke-opacity:1;stroke-miterlimit:10;" d="M 76.847656 194.105469 L 56.847656 194.105469 L 56.847656 204.105469 L 76.847656 204.105469 L 76.847656 224.105469 L 86.847656 224.105469 L 86.847656 204.105469 L 106.847656 204.105469 L 106.847656 194.105469 L 86.847656 194.105469 L 86.847656 174.105469 L 76.847656 174.105469 L 76.847656 194.105469 "/>
<path style="fill-rule:nonzero;fill:rgb(67%,100%,18%);fill-opacity:1;stroke-width:1;stroke-linecap:butt;stroke-linejoin:round;stroke:rgb(0%,0%,0%);stroke-opacity:1;stroke-miterlimit:10;" d="M 155.320312 292.722656 L 135.320312 292.722656 L 135.320312 302.722656 L 155.320312 302.722656 L 155.320312 322.722656 L 165.320312 322.722656 L 165.320312 302.722656 L 185.320312 302.722656 L 185.320312 292.722656 L 165.320312 292.722656 L 165.320312 272.722656 L 155.320312 272.722656 L 155.320312 292.722656 "/>
<path style="fill-rule:nonzero;fill:rgb(67%,100%,18%);fill-opacity:1;stroke-width:1;stroke-linecap:butt;stroke-linejoin:round;stroke:rgb(0%,0%,0%);stroke-opacity:1;stroke-miterlimit:10;" d="M 403.550781 171.707031 L 383.550781 171.707031 L 383.550781 181.707031 L 403.550781 181.707031 L 403.550781 201.707031 L 413.550781 201.707031 L 413.550781 181.707031 L 433.550781 181.707031 L 433.550781 171.707031 L 413.550781 171.707031 L 413.550781 151.707031 L 403.550781 151.707031 L 403.550781 171.707031 "/>
</g>
</svg>
