<?xml version="1.0" encoding="UTF-8"?>
<svg xmlns="http://www.w3.org/2000/svg" xmlns:xlink="http://www.w3.org/1999/xlink" width="517pt" height="517pt" viewBox="0 0 517 517" version="1.1">
<g id="surface2596">
<rect x="0" y="0" width="517" height="517" style="fill:rgb(90%,90%,90%);fill-opacity:1;stroke:none;"/>
<path style="fill:none;stroke-width:5;stroke-linecap:butt;stroke-linejoin:round;stroke:rgb(100%,0%,0%);stroke-opacity:1;stroke-miterlimit:10;" d="M 261 261 L 517 261 L 517 517 L 261 517 Z M 261 261 "/>
<path style="fill-rule:nonzero;fill:rgb(90%,65%,0%);fill-opacity:1;stroke-width:1;stroke-linecap:butt;stroke-linejoin:round;stroke:rgb(0%,0%,0%);stroke-opacity:1;stroke-miterlimit:10;" d="M 365.558594 409.878906 C 365.558594 426.449219 352.128906 439.878906 335.558594 439.878906 C 318.992188 439.878906 305.558594 426.449219 305.558594 409.878906 C 305.558594 393.308594 318.992188 379.878906 335.558594 379.878906 C 352.128906 379.878906 365.558594 393.308594 365.558594 409.878906 "/>
<path style="fill-rule:nonzero;fill:rgb(35%,70%,90%);fill-opacity:1;stroke-width:1;stroke-linecap:butt;stroke-linejoin:round;stroke:rgb(0%,0%,0%);stroke-opacity:1;stroke-miterlimit:10;" d="M 488.066406 122.648438 C 488.066406 139.21875 474.632812 152.648438 458.066406 152.648438 C 441.496094 152.648438 428.066406 139.21875 428.066406 122.648438 C 428.066406 106.082031 441.496094 92.648438 458.066406 92.648438 C 474.632812 92.648438 488.066406 106.082031 488.066406 122.648438 "/>
<path style="fill-rule:nonzero;fill:rgb(35%,70%,90%);fill-opacity:1;stroke-width:1;stroke-linecap:butt;stroke-linejoin:round;stroke:rgb(0%,0%,0%);stroke-opacity:1;stroke-miterlimit:10;" d="M 416.488281 55.492188 C 416.488281 72.0625 403.058594 85.492188 386.488281 85.492188 C 369.921875 85.492188 356.488281 72.0625 356.488281 55.492188 C 356.488281 38.925781 369.921875 25.492188 386.488281 25.492188 C 403.058594 25.492188 416.488281 38.925781 416.488281 55.492188 "/>
<path style="fill-rule:nonzero;fill:rgb(35%,70%,90%);fill-opacity:1;stroke-width:1;stroke-linecap:butt;stroke-linejoin:round;stroke:rgb(0%,0%,0%);stroke-opacity:1;stroke-miterlimit:10;" d="M 116.378906 338.875 C 116.378906 355.441406 102.949219 368.875 86.378906 368.875 C 69.808594 368.875 56.378906 355.441406 56.378906 338.875 C 56.378906 322.304688 69.808594 308.875 86.378906 308.875 C 102.949219 308.875 116.378906 322.304688 116.378906 338.875 "/>
<path style="fill-rule:nonzero;fill:rgb(90%,65%,0%);fill-opacity:1;stroke-width:1;stroke-linecap:butt;stroke-linejoin:round;stroke:rgb(0%,0%,0%);stroke-opacity:1;stroke-miterlimit:10;" d="M 86.214844 60.179688 C 86.214844 76.75 72.78125 90.179688 56.214844 90.179688 C 39.644531 90.179688 26.214844 76.75 26.214844 60.179688 C 26.214844 43.613281 39.644531 30.179688 56.214844 30.179688 C 72.78125 30.179688 86.214844 43.613281 86.214844 60.179688 "/>
</g>
</svg>
