<?xml version="1.0" encoding="UTF-8"?>
<svg xmlns="http://www.w3.org/2000/svg" xmlns:xlink="http://www.w3.org/1999/xlink" width="517pt" height="517pt" viewBox="0 0 517 517" version="1.1">
<g id="surface2976">
<rect x="0" y="0" width="517" height="517" style="fill:rgb(90%,90%,90%);fill-opacity:1;stroke:none;"/>
<path style="fill:none;stroke-width:5;stroke-linecap:butt;stroke-linejoin:round;stroke:rgb(100%,0%,0%);stroke-opacity:1;stroke-miterlimit:10;" d="M 5 261 L 261 261 L 261 517 L 5 517 Z M 5 261 "/>
<path style="fill-rule:nonzero;fill:rgb(50%,0%,50%);fill-opacity:1;stroke-width:1;stroke-linecap:butt;stroke-linejoin:round;stroke:rgb(0%,0%,0%);stroke-opacity:1;stroke-miterlimit:10;" d="M 34.710938 356.410156 L 14.710938 356.410156 L 14.710938 366.410156 L 34.710938 366.410156 L 34.710938 386.410156 L 44.710938 386.410156 L 44.710938 366.410156 L 64.710938 366.410156 L 64.710938 356.410156 L 44.710938 356.410156 L 44.710938 336.410156 L 34.710938 336.410156 L 34.710938 356.410156 "/>
<path style="fill-rule:nonzero;fill:rgb(0%,0%,0%);fill-opacity:1;stroke-width:1;stroke-linecap:butt;stroke-linejoin:round;stroke:rgb(0%,0%,0%);stroke-opacity:1;stroke-miterlimit:10;" d="M 430.160156 394.625 L 410.160156 394.625 L 410.160156 404.625 L 430.160156 404.625 L 430.160156 424.625 L 440.160156 424.625 L 440.160156 404.625 L 460.160156 404.625 L 460.160156 394.625 L 440.160156 394.625 L 440.160156 374.625 L 430.160156 374.625 L 430.160156 394.625 "/>
<path style="fill-rule:nonzero;fill:rgb(0%,0%,0%);fill-opacity:1;stroke-width:1;stroke-linecap:butt;stroke-linejoin:round;stroke:rgb(0%,0%,0%);stroke-opacity:1;stroke-miterlimit:10;" d="M 375.21875 161.632812 L 355.21875 161.632812 L 355.21875 171.632812 L 375.21875 171.632812 L 375.21875 191.632812 L 385.21875 191.632812 L 385.21875 171.632812 L 405.21875 171.632812 L 405.21875 161.632812 L 385.21875 161.632812 L 385.21875 141.632812 L 375.21875 141.632812 L 375.21875 161.632812 "/>
<path style="fill-rule:nonzero;fill:rgb(0%,0%,0%);fill-opacity:1;stroke-width:1;stroke-linecap:butt;stroke-linejoin:round;stroke:rgb(0%,0%,0%);stroke-opacity:1;stroke-miterlimit:10;" d="M 419.65625 47.011719 L 399.65625 47.011719 L 399.65625 57.011719 L 419.65625 57.011719 L 419.65625 77.011719 L 429.65625 77.011719 L 429.65625 57.011719 L 449.65625 57.011719 L 449.65625 47.011719 L 429.65625 47.011719 L 429.65625 27.011719 L 419.65625 27.011719 L 419.65625 47.011719 "/>
<path style="fill-rule:nonzero;fill:rgb(0%,0%,0%);fill-opacity:1;stroke-width:1;stroke-linecap:butt;stroke-linejoin:round;stroke:rgb(0%,0%,0%);stroke-opacity:1;stroke-miterlimit:10;" d="M 312.148438 188.089844 L 292.148438 188.089844 L 292.148438 198.089844 L 312.148438 198.089844 L 312.148438 218.089844 L 322.148438 218.089844 L 322.148438 198.089844 L 342.148438 198.089844 L 342.148438 188.089844 L 322.148438 188.089844 L 322.148438 168.089844 L 312.148438 168.089844 L 312.148438 188.089844 "/>
</g>
</svg>
