<?xml version="1.0" encoding="UTF-8"?>
<svg xmlns="http://www.w3.org/2000/svg" xmlns:xlink="http://www.w3.org/1999/xlink" width="517pt" height="517pt" viewBox="0 0 517 517" version="1.1">
<g id="surface2946">
<rect x="0" y="0" width="517" height="517" style="fill:rgb(90%,90%,90%);fill-opacity:1;stroke:none;"/>
<path style="fill:none;stroke-width:5;stroke-linecap:butt;stroke-linejoin:round;stroke:rgb(100%,0%,0%);stroke-opacity:1;stroke-miterlimit:10;" d="M 5 261 L 261 261 L 261 517 L 5 517 Z M 5 261 "/>
<path style="fill-rule:nonzero;fill:rgb(100%,7%,57%);fill-opacity:1;stroke-width:1;stroke-linecap:butt;stroke-linejoin:round;stroke:rgb(0%,0%,0%);stroke-opacity:1;stroke-miterlimit:10;" d="M 228.71875 335.996094 C 228.71875 352.566406 215.285156 365.996094 198.71875 365.996094 C 182.148438 365.996094 168.71875 352.566406 168.71875 335.996094 C 168.71875 319.429688 182.148438 305.996094 198.71875 305.996094 C 215.285156 305.996094 228.71875 319.429688 228.71875 335.996094 "/>
<path style="fill-rule:nonzero;fill:rgb(67%,100%,18%);fill-opacity:1;stroke-width:1;stroke-linecap:butt;stroke-linejoin:round;stroke:rgb(0%,0%,0%);stroke-opacity:1;stroke-miterlimit:10;" d="M 158.75 105.804688 C 158.75 122.375 145.316406 135.804688 128.75 135.804688 C 112.179688 135.804688 98.75 122.375 98.75 105.804688 C 98.75 89.238281 112.179688 75.804688 128.75 75.804688 C 145.316406 75.804688 158.75 89.238281 158.75 105.804688 "/>
<path style="fill-rule:nonzero;fill:rgb(67%,100%,18%);fill-opacity:1;stroke-width:1;stroke-linecap:butt;stroke-linejoin:round;stroke:rgb(0%,0%,0%);stroke-opacity:1;stroke-miterlimit:10;" d="M 213.796875 75.449219 C 213.796875 92.019531 200.367188 105.449219 183.796875 105.449219 C 167.230469 105.449219 153.796875 92.019531 153.796875 75.449219 C 153.796875 58.882812 167.230469 45.449219 183.796875 45.449219 C 200.367188 45.449219 213.796875 58.882812 213.796875 75.449219 "/>
<path style="fill-rule:nonzero;fill:rgb(67%,100%,18%);fill-opacity:1;stroke-width:1;stroke-linecap:butt;stroke-linejoin:round;stroke:rgb(0%,0%,0%);stroke-opacity:1;stroke-miterlimit:10;" d="M 501.859375 310.441406 C 501.859375 327.011719 488.425781 340.441406 471.859375 340.441406 C 455.289062 340.441406 441.859375 327.011719 441.859375 310.441406 C 441.859375 293.875 455.289062 280.441406 471.859375 280.441406 C 488.425781 280.441406 501.859375 293.875 501.859375 310.441406 "/>
<path style="fill-rule:nonzero;fill:rgb(67%,100%,18%);fill-opacity:1;stroke-width:1;stroke-linecap:butt;stroke-linejoin:round;stroke:rgb(0%,0%,0%);stroke-opacity:1;stroke-miterlimit:10;" d="M 380.746094 368.867188 C 380.746094 385.433594 367.3125 398.867188 350.746094 398.867188 C 334.175781 398.867188 320.746094 385.433594 320.746094 368.867188 C 320.746094 352.296875 334.175781 338.867188 350.746094 338.867188 C 367.3125 338.867188 380.746094 352.296875 380.746094 368.867188 "/>
</g>
</svg>
