<?xml version="1.0" encoding="UTF-8"?>
<svg xmlns="http://www.w3.org/2000/svg" xmlns:xlink="http://www.w3.org/1999/xlink" width="517pt" height="517pt" viewBox="0 0 517 517" version="1.1">
<g id="surface2666">
<rect x="0" y="0" width="517" height="517" style="fill:rgb(90%,90%,90%);fill-opacity:1;stroke:none;"/>
<path style="fill:none;stroke-width:5;stroke-linecap:butt;stroke-linejoin:round;stroke:rgb(100%,0%,0%);stroke-opacity:1;stroke-miterlimit:10;" d="M 261 261 L 517 261 L 517 517 L 261 517 Z M 261 261 "/>
<path style="fill-rule:nonzero;fill:rgb(67%,100%,18%);fill-opacity:1;stroke-width:1;stroke-linecap:butt;stroke-linejoin:round;stroke:rgb(0%,0%,0%);stroke-opacity:1;stroke-miterlimit:10;" d="M 319.496094 373.199219 L 299.496094 373.199219 L 299.496094 383.199219 L 319.496094 383.199219 L 319.496094 403.199219 L 329.496094 403.199219 L 329.496094 383.199219 L 349.496094 383.199219 L 349.496094 373.199219 L 329.496094 373.199219 L 329.496094 353.199219 L 319.496094 353.199219 L 319.496094 373.199219 "/>
<path style="fill-rule:nonzero;fill:rgb(50%,0%,50%);fill-opacity:1;stroke-width:1;stroke-linecap:butt;stroke-linejoin:round;stroke:rgb(0%,0%,0%);stroke-opacity:1;stroke-miterlimit:10;" d="M 97.59375 80.847656 L 77.59375 80.847656 L 77.59375 90.847656 L 97.59375 90.847656 L 97.59375 110.847656 L 107.59375 110.847656 L 107.59375 90.847656 L 127.59375 90.847656 L 127.59375 80.847656 L 107.59375 80.847656 L 107.59375 60.847656 L 97.59375 60.847656 L 97.59375 80.847656 "/>
<path style="fill-rule:nonzero;fill:rgb(50%,0%,50%);fill-opacity:1;stroke-width:1;stroke-linecap:butt;stroke-linejoin:round;stroke:rgb(0%,0%,0%);stroke-opacity:1;stroke-miterlimit:10;" d="M 213.214844 149.753906 L 193.214844 149.753906 L 193.214844 159.753906 L 213.214844 159.753906 L 213.214844 179.753906 L 223.214844 179.753906 L 223.214844 159.753906 L 243.214844 159.753906 L 243.214844 149.753906 L 223.214844 149.753906 L 223.214844 129.753906 L 213.214844 129.753906 L 213.214844 149.753906 "/>
<path style="fill-rule:nonzero;fill:rgb(50%,0%,50%);fill-opacity:1;stroke-width:1;stroke-linecap:butt;stroke-linejoin:round;stroke:rgb(0%,0%,0%);stroke-opacity:1;stroke-miterlimit:10;" d="M 52.8125 316.507812 L 32.8125 316.507812 L 32.8125 326.507812 L 52.8125 326.507812 L 52.8125 346.507812 L 62.8125 346.507812 L 62.8125 326.507812 L 82.8125 326.507812 L 82.8125 316.507812 L 62.8125 316.507812 L 62.8125 296.507812 L 52.8125 296.507812 L 52.8125 316.507812 "/>
<path style="fill-rule:nonzero;fill:rgb(67%,100%,18%);fill-opacity:1;stroke-width:1;stroke-linecap:butt;stroke-linejoin:round;stroke:rgb(0%,0%,0%);stroke-opacity:1;stroke-miterlimit:10;" d="M 119.980469 374.796875 L 99.980469 374.796875 L 99.980469 384.796875 L 119.980469 384.796875 L 119.980469 404.796875 L 129.980469 404.796875 L 129.980469 384.796875 L 149.980469 384.796875 L 149.980469 374.796875 L 129.980469 374.796875 L 129.980469 354.796875 L 119.980469 354.796875 L 119.980469 374.796875 "/>
</g>
</svg>
