<?xml version="1.0" encoding="UTF-8"?>
<svg xmlns="http://www.w3.org/2000/svg" xmlns:xlink="http://www.w3.org/1999/xlink" width="517pt" height="517pt" viewBox="0 0 517 517" version="1.1">
<g id="surface176">
<rect x="0" y="0" width="517" height="517" style="fill:rgb(90%,90%,90%);fill-opacity:1;stroke:none;"/>
<path style="fill:none;stroke-width:5;stroke-linecap:butt;stroke-linejoin:round;stroke:rgb(100%,0%,0%);stroke-opacity:1;stroke-miterlimit:10;" d="M 5 5 L 261 5 L 261 261 L 5 261 Z M 5 5 "/>
<path style="fill-rule:nonzero;fill:rgb(100%,7%,57%);fill-opacity:1;stroke-width:1;stroke-linecap:butt;stroke-linejoin:round;stroke:rgb(0%,0%,0%);stroke-opacity:1;stroke-miterlimit:10;" d="M 250.046875 141.867188 C 250.046875 158.4375 236.617188 171.867188 220.046875 171.867188 C 203.480469 171.867188 190.046875 158.4375 190.046875 141.867188 C 190.046875 125.300781 203.480469 111.867188 220.046875 111.867188 C 236.617188 111.867188 250.046875 125.300781 250.046875 141.867188 "/>
<path style="fill-rule:nonzero;fill:rgb(0%,0%,0%);fill-opacity:1;stroke-width:1;stroke-linecap:butt;stroke-linejoin:round;stroke:rgb(0%,0%,0%);stroke-opacity:1;stroke-miterlimit:10;" d="M 469.535156 143.894531 C 469.535156 160.464844 456.105469 173.894531 439.535156 173.894531 C 422.96875 173.894531 409.535156 160.464844 409.535156 143.894531 C 409.535156 127.328125 422.96875 113.894531 439.535156 113.894531 C 456.105469 113.894531 469.535156 127.328125 469.535156 143.894531 "/>
<path style="fill-rule:nonzero;fill:rgb(0%,0%,0%);fill-opacity:1;stroke-width:1;stroke-linecap:butt;stroke-linejoin:round;stroke:rgb(0%,0%,0%);stroke-opacity:1;stroke-miterlimit:10;" d="M 348.773438 444.773438 C 348.773438 461.339844 335.34375 474.773438 318.773438 474.773438 C 302.207031 474.773438 288.773438 461.339844 288.773438 444.773438 C 288.773438 428.203125 302.207031 414.773438 318.773438 414.773438 C 335.34375 414.773438 348.773438 428.203125 348.773438 444.773438 "/>
<path style="fill-rule:nonzero;fill:rgb(0%,0%,0%);fill-opacity:1;stroke-width:1;stroke-linecap:butt;stroke-linejoin:round;stroke:rgb(0%,0%,0%);stroke-opacity:1;stroke-miterlimit:10;" d="M 446.101562 422.25 C 446.101562 438.820312 432.671875 452.25 416.101562 452.25 C 399.535156 452.25 386.101562 438.820312 386.101562 422.25 C 386.101562 405.679688 399.535156 392.25 416.101562 392.25 C 432.671875 392.25 446.101562 405.679688 446.101562 422.25 "/>
</g>
</svg>
