<?xml version="1.0" encoding="UTF-8"?>
<svg xmlns="http://www.w3.org/2000/svg" xmlns:xlink="http://www.w3.org/1999/xlink" width="517pt" height="517pt" viewBox="0 0 517 517" version="1.1">
<g id="surface206">
<rect x="0" y="0" width="517" height="517" style="fill:rgb(90%,90%,90%);fill-opacity:1;stroke:none;"/>
<path style="fill:none;stroke-width:5;stroke-linecap:butt;stroke-linejoin:round;stroke:rgb(100%,0%,0%);stroke-opacity:1;stroke-miterlimit:10;" d="M 5 5 L 261 5 L 261 261 L 5 261 Z M 5 5 "/>
<path style="fill-rule:nonzero;fill:rgb(100%,7%,57%);fill-opacity:1;stroke-width:1;stroke-linecap:butt;stroke-linejoin:round;stroke:rgb(0%,0%,0%);stroke-opacity:1;stroke-miterlimit:10;" d="M 181.421875 216.253906 C 181.421875 232.820312 167.992188 246.253906 151.421875 246.253906 C 134.855469 246.253906 121.421875 232.820312 121.421875 216.253906 C 121.421875 199.683594 134.855469 186.253906 151.421875 186.253906 C 167.992188 186.253906 181.421875 199.683594 181.421875 216.253906 "/>
<path style="fill-rule:nonzero;fill:rgb(0%,0%,0%);fill-opacity:1;stroke-width:1;stroke-linecap:butt;stroke-linejoin:round;stroke:rgb(0%,0%,0%);stroke-opacity:1;stroke-miterlimit:10;" d="M 445.242188 61.285156 C 445.242188 77.851562 431.8125 91.285156 415.242188 91.285156 C 398.675781 91.285156 385.242188 77.851562 385.242188 61.285156 C 385.242188 44.714844 398.675781 31.285156 415.242188 31.285156 C 431.8125 31.285156 445.242188 44.714844 445.242188 61.285156 "/>
<path style="fill-rule:nonzero;fill:rgb(100%,7%,57%);fill-opacity:1;stroke-width:1;stroke-linecap:butt;stroke-linejoin:round;stroke:rgb(0%,0%,0%);stroke-opacity:1;stroke-miterlimit:10;" d="M 492.792969 157.152344 C 492.792969 173.722656 479.363281 187.152344 462.792969 187.152344 C 446.226562 187.152344 432.792969 173.722656 432.792969 157.152344 C 432.792969 140.585938 446.226562 127.152344 462.792969 127.152344 C 479.363281 127.152344 492.792969 140.585938 492.792969 157.152344 "/>
<path style="fill-rule:nonzero;fill:rgb(100%,7%,57%);fill-opacity:1;stroke-width:1;stroke-linecap:butt;stroke-linejoin:round;stroke:rgb(0%,0%,0%);stroke-opacity:1;stroke-miterlimit:10;" d="M 424.078125 340.3125 C 424.078125 356.878906 410.648438 370.3125 394.078125 370.3125 C 377.511719 370.3125 364.078125 356.878906 364.078125 340.3125 C 364.078125 323.742188 377.511719 310.3125 394.078125 310.3125 C 410.648438 310.3125 424.078125 323.742188 424.078125 340.3125 "/>
</g>
</svg>
