<?xml version="1.0" encoding="UTF-8"?>
<svg xmlns="http://www.w3.org/2000/svg" xmlns:xlink="http://www.w3.org/1999/xlink" width="517pt" height="517pt" viewBox="0 0 517 517" version="1.1">
<g id="surface2951">
<rect x="0" y="0" width="517" height="517" style="fill:rgb(90%,90%,90%);fill-opacity:1;stroke:none;"/>
<path style="fill:none;stroke-width:5;stroke-linecap:butt;stroke-linejoin:round;stroke:rgb(100%,0%,0%);stroke-opacity:1;stroke-miterlimit:10;" d="M 5 261 L 261 261 L 261 517 L 5 517 Z M 5 261 "/>
<path style="fill-rule:nonzero;fill:rgb(100%,7%,57%);fill-opacity:1;stroke-width:1;stroke-linecap:butt;stroke-linejoin:round;stroke:rgb(0%,0%,0%);stroke-opacity:1;stroke-miterlimit:10;" d="M 228.519531 444.160156 C 228.519531 460.726562 215.089844 474.160156 198.519531 474.160156 C 181.953125 474.160156 168.519531 460.726562 168.519531 444.160156 C 168.519531 427.589844 181.953125 414.160156 198.519531 414.160156 C 215.089844 414.160156 228.519531 427.589844 228.519531 444.160156 "/>
<path style="fill-rule:nonzero;fill:rgb(67%,100%,18%);fill-opacity:1;stroke-width:1;stroke-linecap:butt;stroke-linejoin:round;stroke:rgb(0%,0%,0%);stroke-opacity:1;stroke-miterlimit:10;" d="M 400.308594 57.007812 C 400.308594 73.574219 386.875 87.007812 370.308594 87.007812 C 353.738281 87.007812 340.308594 73.574219 340.308594 57.007812 C 340.308594 40.4375 353.738281 27.007812 370.308594 27.007812 C 386.875 27.007812 400.308594 40.4375 400.308594 57.007812 "/>
<path style="fill-rule:nonzero;fill:rgb(53%,27%,7%);fill-opacity:1;stroke-width:1;stroke-linecap:butt;stroke-linejoin:round;stroke:rgb(0%,0%,0%);stroke-opacity:1;stroke-miterlimit:10;" d="M 403.953125 209.820312 C 403.953125 226.390625 390.519531 239.820312 373.953125 239.820312 C 357.382812 239.820312 343.953125 226.390625 343.953125 209.820312 C 343.953125 193.253906 357.382812 179.820312 373.953125 179.820312 C 390.519531 179.820312 403.953125 193.253906 403.953125 209.820312 "/>
<path style="fill-rule:nonzero;fill:rgb(53%,27%,7%);fill-opacity:1;stroke-width:1;stroke-linecap:butt;stroke-linejoin:round;stroke:rgb(0%,0%,0%);stroke-opacity:1;stroke-miterlimit:10;" d="M 473.597656 434.074219 C 473.597656 450.644531 460.164062 464.074219 443.597656 464.074219 C 427.027344 464.074219 413.597656 450.644531 413.597656 434.074219 C 413.597656 417.507812 427.027344 404.074219 443.597656 404.074219 C 460.164062 404.074219 473.597656 417.507812 473.597656 434.074219 "/>
<path style="fill-rule:nonzero;fill:rgb(53%,27%,7%);fill-opacity:1;stroke-width:1;stroke-linecap:butt;stroke-linejoin:round;stroke:rgb(0%,0%,0%);stroke-opacity:1;stroke-miterlimit:10;" d="M 76.574219 197.304688 C 76.574219 213.875 63.140625 227.304688 46.574219 227.304688 C 30.003906 227.304688 16.574219 213.875 16.574219 197.304688 C 16.574219 180.738281 30.003906 167.304688 46.574219 167.304688 C 63.140625 167.304688 76.574219 180.738281 76.574219 197.304688 "/>
</g>
</svg>
