<?xml version="1.0" encoding="UTF-8"?>
<svg xmlns="http://www.w3.org/2000/svg" xmlns:xlink="http://www.w3.org/1999/xlink" width="517pt" height="517pt" viewBox="0 0 517 517" version="1.1">
<g id="surface2341">
<rect x="0" y="0" width="517" height="517" style="fill:rgb(90%,90%,90%);fill-opacity:1;stroke:none;"/>
<path style="fill:none;stroke-width:5;stroke-linecap:butt;stroke-linejoin:round;stroke:rgb(100%,0%,0%);stroke-opacity:1;stroke-miterlimit:10;" d="M 261 261 L 517 261 L 517 517 L 261 517 Z M 261 261 "/>
<path style="fill-rule:nonzero;fill:rgb(100%,0%,0%);fill-opacity:1;stroke-width:1;stroke-linecap:butt;stroke-linejoin:round;stroke:rgb(0%,0%,0%);stroke-opacity:1;stroke-miterlimit:10;" d="M 374.519531 320.671875 L 354.519531 320.671875 L 354.519531 330.671875 L 374.519531 330.671875 L 374.519531 350.671875 L 384.519531 350.671875 L 384.519531 330.671875 L 404.519531 330.671875 L 404.519531 320.671875 L 384.519531 320.671875 L 384.519531 300.671875 L 374.519531 300.671875 L 374.519531 320.671875 "/>
<path style="fill-rule:nonzero;fill:rgb(67%,100%,18%);fill-opacity:1;stroke-width:1;stroke-linecap:butt;stroke-linejoin:round;stroke:rgb(0%,0%,0%);stroke-opacity:1;stroke-miterlimit:10;" d="M 103.742188 152.714844 L 83.742188 152.714844 L 83.742188 162.714844 L 103.742188 162.714844 L 103.742188 182.714844 L 113.742188 182.714844 L 113.742188 162.714844 L 133.742188 162.714844 L 133.742188 152.714844 L 113.742188 152.714844 L 113.742188 132.714844 L 103.742188 132.714844 L 103.742188 152.714844 "/>
<path style="fill-rule:nonzero;fill:rgb(67%,100%,18%);fill-opacity:1;stroke-width:1;stroke-linecap:butt;stroke-linejoin:round;stroke:rgb(0%,0%,0%);stroke-opacity:1;stroke-miterlimit:10;" d="M 106.992188 33.539062 L 86.992188 33.539062 L 86.992188 43.539062 L 106.992188 43.539062 L 106.992188 63.539062 L 116.992188 63.539062 L 116.992188 43.539062 L 136.992188 43.539062 L 136.992188 33.539062 L 116.992188 33.539062 L 116.992188 13.539062 L 106.992188 13.539062 L 106.992188 33.539062 "/>
<path style="fill-rule:nonzero;fill:rgb(67%,100%,18%);fill-opacity:1;stroke-width:1;stroke-linecap:butt;stroke-linejoin:round;stroke:rgb(0%,0%,0%);stroke-opacity:1;stroke-miterlimit:10;" d="M 181.300781 381.234375 L 161.300781 381.234375 L 161.300781 391.234375 L 181.300781 391.234375 L 181.300781 411.234375 L 191.300781 411.234375 L 191.300781 391.234375 L 211.300781 391.234375 L 211.300781 381.234375 L 191.300781 381.234375 L 191.300781 361.234375 L 181.300781 361.234375 L 181.300781 381.234375 "/>
<path style="fill-rule:nonzero;fill:rgb(100%,0%,0%);fill-opacity:1;stroke-width:1;stroke-linecap:butt;stroke-linejoin:round;stroke:rgb(0%,0%,0%);stroke-opacity:1;stroke-miterlimit:10;" d="M 44.921875 343.769531 L 24.921875 343.769531 L 24.921875 353.769531 L 44.921875 353.769531 L 44.921875 373.769531 L 54.921875 373.769531 L 54.921875 353.769531 L 74.921875 353.769531 L 74.921875 343.769531 L 54.921875 343.769531 L 54.921875 323.769531 L 44.921875 323.769531 L 44.921875 343.769531 "/>
</g>
</svg>
