<?xml version="1.0" encoding="UTF-8"?>
<svg xmlns="http://www.w3.org/2000/svg" xmlns:xlink="http://www.w3.org/1999/xlink" width="517pt" height="517pt" viewBox="0 0 517 517" version="1.1">
<g id="surface201">
<rect x="0" y="0" width="517" height="517" style="fill:rgb(90%,90%,90%);fill-opacity:1;stroke:none;"/>
<path style="fill:none;stroke-width:5;stroke-linecap:butt;stroke-linejoin:round;stroke:rgb(100%,0%,0%);stroke-opacity:1;stroke-miterlimit:10;" d="M 5 5 L 261 5 L 261 261 L 5 261 Z M 5 5 "/>
<path style="fill-rule:nonzero;fill:rgb(100%,7%,57%);fill-opacity:1;stroke-width:1;stroke-linecap:butt;stroke-linejoin:round;stroke:rgb(0%,0%,0%);stroke-opacity:1;stroke-miterlimit:10;" d="M 81.402344 152.398438 C 81.402344 168.96875 67.96875 182.398438 51.402344 182.398438 C 34.832031 182.398438 21.402344 168.96875 21.402344 152.398438 C 21.402344 135.832031 34.832031 122.398438 51.402344 122.398438 C 67.96875 122.398438 81.402344 135.832031 81.402344 152.398438 "/>
<path style="fill-rule:nonzero;fill:rgb(0%,0%,0%);fill-opacity:1;stroke-width:1;stroke-linecap:butt;stroke-linejoin:round;stroke:rgb(0%,0%,0%);stroke-opacity:1;stroke-miterlimit:10;" d="M 118.75 364.367188 C 118.75 380.9375 105.320312 394.367188 88.75 394.367188 C 72.183594 394.367188 58.75 380.9375 58.75 364.367188 C 58.75 347.800781 72.183594 334.367188 88.75 334.367188 C 105.320312 334.367188 118.75 347.800781 118.75 364.367188 "/>
<path style="fill-rule:nonzero;fill:rgb(100%,7%,57%);fill-opacity:1;stroke-width:1;stroke-linecap:butt;stroke-linejoin:round;stroke:rgb(0%,0%,0%);stroke-opacity:1;stroke-miterlimit:10;" d="M 81.894531 299.699219 C 81.894531 316.265625 68.460938 329.699219 51.894531 329.699219 C 35.324219 329.699219 21.894531 316.265625 21.894531 299.699219 C 21.894531 283.128906 35.324219 269.699219 51.894531 269.699219 C 68.460938 269.699219 81.894531 283.128906 81.894531 299.699219 "/>
<path style="fill-rule:nonzero;fill:rgb(100%,7%,57%);fill-opacity:1;stroke-width:1;stroke-linecap:butt;stroke-linejoin:round;stroke:rgb(0%,0%,0%);stroke-opacity:1;stroke-miterlimit:10;" d="M 447.164062 38.253906 C 447.164062 54.824219 433.734375 68.253906 417.164062 68.253906 C 400.597656 68.253906 387.164062 54.824219 387.164062 38.253906 C 387.164062 21.6875 400.597656 8.253906 417.164062 8.253906 C 433.734375 8.253906 447.164062 21.6875 447.164062 38.253906 "/>
</g>
</svg>
