<?xml version="1.0" encoding="UTF-8"?>
<svg xmlns="http://www.w3.org/2000/svg" xmlns:xlink="http://www.w3.org/1999/xlink" width="517pt" height="517pt" viewBox="0 0 517 517" version="1.1">
<g id="surface2906">
<rect x="0" y="0" width="517" height="517" style="fill:rgb(90%,90%,90%);fill-opacity:1;stroke:none;"/>
<path style="fill:none;stroke-width:5;stroke-linecap:butt;stroke-linejoin:round;stroke:rgb(100%,0%,0%);stroke-opacity:1;stroke-miterlimit:10;" d="M 5 261 L 261 261 L 261 517 L 5 517 Z M 5 261 "/>
<path style="fill-rule:nonzero;fill:rgb(53%,27%,7%);fill-opacity:1;stroke-width:1;stroke-linecap:butt;stroke-linejoin:round;stroke:rgb(0%,0%,0%);stroke-opacity:1;stroke-miterlimit:10;" d="M 196.691406 352.261719 C 196.691406 368.832031 183.261719 382.261719 166.691406 382.261719 C 150.125 382.261719 136.691406 368.832031 136.691406 352.261719 C 136.691406 335.695312 150.125 322.261719 166.691406 322.261719 C 183.261719 322.261719 196.691406 335.695312 196.691406 352.261719 "/>
<path style="fill-rule:nonzero;fill:rgb(67%,100%,18%);fill-opacity:1;stroke-width:1;stroke-linecap:butt;stroke-linejoin:round;stroke:rgb(0%,0%,0%);stroke-opacity:1;stroke-miterlimit:10;" d="M 329.738281 42.023438 C 329.738281 58.589844 316.304688 72.023438 299.738281 72.023438 C 283.167969 72.023438 269.738281 58.589844 269.738281 42.023438 C 269.738281 25.453125 283.167969 12.023438 299.738281 12.023438 C 316.304688 12.023438 329.738281 25.453125 329.738281 42.023438 "/>
<path style="fill-rule:nonzero;fill:rgb(67%,100%,18%);fill-opacity:1;stroke-width:1;stroke-linecap:butt;stroke-linejoin:round;stroke:rgb(0%,0%,0%);stroke-opacity:1;stroke-miterlimit:10;" d="M 438.519531 168.492188 C 438.519531 185.0625 425.085938 198.492188 408.519531 198.492188 C 391.949219 198.492188 378.519531 185.0625 378.519531 168.492188 C 378.519531 151.921875 391.949219 138.492188 408.519531 138.492188 C 425.085938 138.492188 438.519531 151.921875 438.519531 168.492188 "/>
<path style="fill-rule:nonzero;fill:rgb(67%,100%,18%);fill-opacity:1;stroke-width:1;stroke-linecap:butt;stroke-linejoin:round;stroke:rgb(0%,0%,0%);stroke-opacity:1;stroke-miterlimit:10;" d="M 410.472656 375.722656 C 410.472656 392.292969 397.039062 405.722656 380.472656 405.722656 C 363.902344 405.722656 350.472656 392.292969 350.472656 375.722656 C 350.472656 359.15625 363.902344 345.722656 380.472656 345.722656 C 397.039062 345.722656 410.472656 359.15625 410.472656 375.722656 "/>
<path style="fill-rule:nonzero;fill:rgb(53%,27%,7%);fill-opacity:1;stroke-width:1;stroke-linecap:butt;stroke-linejoin:round;stroke:rgb(0%,0%,0%);stroke-opacity:1;stroke-miterlimit:10;" d="M 438.453125 311.203125 C 438.453125 327.773438 425.019531 341.203125 408.453125 341.203125 C 391.882812 341.203125 378.453125 327.773438 378.453125 311.203125 C 378.453125 294.632812 391.882812 281.203125 408.453125 281.203125 C 425.019531 281.203125 438.453125 294.632812 438.453125 311.203125 "/>
</g>
</svg>
