<?xml version="1.0" encoding="UTF-8"?>
<svg xmlns="http://www.w3.org/2000/svg" xmlns:xlink="http://www.w3.org/1999/xlink" width="517pt" height="517pt" viewBox="0 0 517 517" version="1.1">
<g id="surface2691">
<rect x="0" y="0" width="517" height="517" style="fill:rgb(90%,90%,90%);fill-opacity:1;stroke:none;"/>
<path style="fill:none;stroke-width:5;stroke-linecap:butt;stroke-linejoin:round;stroke:rgb(100%,0%,0%);stroke-opacity:1;stroke-miterlimit:10;" d="M 261 261 L 517 261 L 517 517 L 261 517 Z M 261 261 "/>
<path style="fill-rule:nonzero;fill:rgb(67%,100%,18%);fill-opacity:1;stroke-width:1;stroke-linecap:butt;stroke-linejoin:round;stroke:rgb(0%,0%,0%);stroke-opacity:1;stroke-miterlimit:10;" d="M 437.003906 407.089844 L 417.003906 407.089844 L 417.003906 417.089844 L 437.003906 417.089844 L 437.003906 437.089844 L 447.003906 437.089844 L 447.003906 417.089844 L 467.003906 417.089844 L 467.003906 407.089844 L 447.003906 407.089844 L 447.003906 387.089844 L 437.003906 387.089844 L 437.003906 407.089844 "/>
<path style="fill-rule:nonzero;fill:rgb(50%,0%,50%);fill-opacity:1;stroke-width:1;stroke-linecap:butt;stroke-linejoin:round;stroke:rgb(0%,0%,0%);stroke-opacity:1;stroke-miterlimit:10;" d="M 141.636719 78.828125 L 121.636719 78.828125 L 121.636719 88.828125 L 141.636719 88.828125 L 141.636719 108.828125 L 151.636719 108.828125 L 151.636719 88.828125 L 171.636719 88.828125 L 171.636719 78.828125 L 151.636719 78.828125 L 151.636719 58.828125 L 141.636719 58.828125 L 141.636719 78.828125 "/>
<path style="fill-rule:nonzero;fill:rgb(67%,100%,18%);fill-opacity:1;stroke-width:1;stroke-linecap:butt;stroke-linejoin:round;stroke:rgb(0%,0%,0%);stroke-opacity:1;stroke-miterlimit:10;" d="M 202.722656 166.59375 L 182.722656 166.59375 L 182.722656 176.59375 L 202.722656 176.59375 L 202.722656 196.59375 L 212.722656 196.59375 L 212.722656 176.59375 L 232.722656 176.59375 L 232.722656 166.59375 L 212.722656 166.59375 L 212.722656 146.59375 L 202.722656 146.59375 L 202.722656 166.59375 "/>
<path style="fill-rule:nonzero;fill:rgb(67%,100%,18%);fill-opacity:1;stroke-width:1;stroke-linecap:butt;stroke-linejoin:round;stroke:rgb(0%,0%,0%);stroke-opacity:1;stroke-miterlimit:10;" d="M 127.285156 320.152344 L 107.285156 320.152344 L 107.285156 330.152344 L 127.285156 330.152344 L 127.285156 350.152344 L 137.285156 350.152344 L 137.285156 330.152344 L 157.285156 330.152344 L 157.285156 320.152344 L 137.285156 320.152344 L 137.285156 300.152344 L 127.285156 300.152344 L 127.285156 320.152344 "/>
<path style="fill-rule:nonzero;fill:rgb(67%,100%,18%);fill-opacity:1;stroke-width:1;stroke-linecap:butt;stroke-linejoin:round;stroke:rgb(0%,0%,0%);stroke-opacity:1;stroke-miterlimit:10;" d="M 202.433594 316.6875 L 182.433594 316.6875 L 182.433594 326.6875 L 202.433594 326.6875 L 202.433594 346.6875 L 212.433594 346.6875 L 212.433594 326.6875 L 232.433594 326.6875 L 232.433594 316.6875 L 212.433594 316.6875 L 212.433594 296.6875 L 202.433594 296.6875 L 202.433594 316.6875 "/>
</g>
</svg>
