<?xml version="1.0" encoding="UTF-8"?>
<svg xmlns="http://www.w3.org/2000/svg" xmlns:xlink="http://www.w3.org/1999/xlink" width="517pt" height="517pt" viewBox="0 0 517 517" version="1.1">
<g id="surface5336">
<rect x="0" y="0" width="517" height="517" style="fill:rgb(90%,90%,90%);fill-opacity:1;stroke:none;"/>
<path style="fill-rule:nonzero;fill:rgb(0%,0%,0%);fill-opacity:1;stroke-width:1;stroke-linecap:butt;stroke-linejoin:miter;stroke:rgb(0%,0%,0%);stroke-opacity:1;stroke-miterlimit:10;" d="M 362.179688 371.742188 C 362.179688 388.308594 348.75 401.742188 332.179688 401.742188 C 315.613281 401.742188 302.179688 388.308594 302.179688 371.742188 C 302.179688 355.171875 315.613281 341.742188 332.179688 341.742188 C 348.75 341.742188 362.179688 355.171875 362.179688 371.742188 "/>
<path style="fill-rule:nonzero;fill:rgb(67%,100%,18%);fill-opacity:1;stroke-width:1;stroke-linecap:butt;stroke-linejoin:miter;stroke:rgb(0%,0%,0%);stroke-opacity:1;stroke-miterlimit:10;" d="M 490.949219 299.640625 C 490.949219 316.210938 477.519531 329.640625 460.949219 329.640625 C 444.382812 329.640625 430.949219 316.210938 430.949219 299.640625 C 430.949219 283.074219 444.382812 269.640625 460.949219 269.640625 C 477.519531 269.640625 490.949219 283.074219 490.949219 299.640625 "/>
<path style="fill-rule:nonzero;fill:rgb(67%,100%,18%);fill-opacity:1;stroke-width:1;stroke-linecap:butt;stroke-linejoin:miter;stroke:rgb(0%,0%,0%);stroke-opacity:1;stroke-miterlimit:10;" d="M 502.804688 74.308594 C 502.804688 90.875 489.375 104.308594 472.804688 104.308594 C 456.234375 104.308594 442.804688 90.875 442.804688 74.308594 C 442.804688 57.738281 456.234375 44.308594 472.804688 44.308594 C 489.375 44.308594 502.804688 57.738281 502.804688 74.308594 "/>
<path style="fill-rule:nonzero;fill:rgb(67%,100%,18%);fill-opacity:1;stroke-width:1;stroke-linecap:butt;stroke-linejoin:miter;stroke:rgb(0%,0%,0%);stroke-opacity:1;stroke-miterlimit:10;" d="M 326.039062 61.472656 C 326.039062 78.039062 312.605469 91.472656 296.039062 91.472656 C 279.46875 91.472656 266.039062 78.039062 266.039062 61.472656 C 266.039062 44.902344 279.46875 31.472656 296.039062 31.472656 C 312.605469 31.472656 326.039062 44.902344 326.039062 61.472656 "/>
<path style="fill-rule:nonzero;fill:rgb(67%,100%,18%);fill-opacity:1;stroke-width:1;stroke-linecap:butt;stroke-linejoin:miter;stroke:rgb(0%,0%,0%);stroke-opacity:1;stroke-miterlimit:10;" d="M 446.515625 124.40625 C 446.515625 140.976562 433.085938 154.40625 416.515625 154.40625 C 399.949219 154.40625 386.515625 140.976562 386.515625 124.40625 C 386.515625 107.839844 399.949219 94.40625 416.515625 94.40625 C 433.085938 94.40625 446.515625 107.839844 446.515625 124.40625 "/>
<path style="fill-rule:nonzero;fill:rgb(67%,100%,18%);fill-opacity:1;stroke-width:1;stroke-linecap:butt;stroke-linejoin:miter;stroke:rgb(0%,0%,0%);stroke-opacity:1;stroke-miterlimit:10;" d="M 341.65625 170.617188 C 341.65625 187.183594 328.222656 200.617188 311.65625 200.617188 C 295.085938 200.617188 281.65625 187.183594 281.65625 170.617188 C 281.65625 154.046875 295.085938 140.617188 311.65625 140.617188 C 328.222656 140.617188 341.65625 154.046875 341.65625 170.617188 "/>
<path style="fill-rule:nonzero;fill:rgb(67%,100%,18%);fill-opacity:1;stroke-width:1;stroke-linecap:butt;stroke-linejoin:miter;stroke:rgb(0%,0%,0%);stroke-opacity:1;stroke-miterlimit:10;" d="M 463.625 197.21875 C 463.625 213.789062 450.195312 227.21875 433.625 227.21875 C 417.058594 227.21875 403.625 213.789062 403.625 197.21875 C 403.625 180.652344 417.058594 167.21875 433.625 167.21875 C 450.195312 167.21875 463.625 180.652344 463.625 197.21875 "/>
<path style="fill-rule:nonzero;fill:rgb(67%,100%,18%);fill-opacity:1;stroke-width:1;stroke-linecap:butt;stroke-linejoin:miter;stroke:rgb(0%,0%,0%);stroke-opacity:1;stroke-miterlimit:10;" d="M 146.347656 57.621094 C 146.347656 74.191406 132.914062 87.621094 116.347656 87.621094 C 99.777344 87.621094 86.347656 74.191406 86.347656 57.621094 C 86.347656 41.050781 99.777344 27.621094 116.347656 27.621094 C 132.914062 27.621094 146.347656 41.050781 146.347656 57.621094 "/>
</g>
</svg>
