<?xml version="1.0" encoding="UTF-8"?>
<svg xmlns="http://www.w3.org/2000/svg" xmlns:xlink="http://www.w3.org/1999/xlink" width="517pt" height="517pt" viewBox="0 0 517 517" version="1.1">
<g id="surface5326">
<rect x="0" y="0" width="517" height="517" style="fill:rgb(90%,90%,90%);fill-opacity:1;stroke:none;"/>
<path style="fill-rule:nonzero;fill:rgb(67%,100%,18%);fill-opacity:1;stroke-width:1;stroke-linecap:butt;stroke-linejoin:miter;stroke:rgb(0%,0%,0%);stroke-opacity:1;stroke-miterlimit:10;" d="M 218.546875 332.089844 C 218.546875 348.660156 205.117188 362.089844 188.546875 362.089844 C 171.980469 362.089844 158.546875 348.660156 158.546875 332.089844 C 158.546875 315.523438 171.980469 302.089844 188.546875 302.089844 C 205.117188 302.089844 218.546875 315.523438 218.546875 332.089844 "/>
<path style="fill-rule:nonzero;fill:rgb(67%,100%,18%);fill-opacity:1;stroke-width:1;stroke-linecap:butt;stroke-linejoin:miter;stroke:rgb(0%,0%,0%);stroke-opacity:1;stroke-miterlimit:10;" d="M 492.417969 394.472656 C 492.417969 411.042969 478.988281 424.472656 462.417969 424.472656 C 445.851562 424.472656 432.417969 411.042969 432.417969 394.472656 C 432.417969 377.902344 445.851562 364.472656 462.417969 364.472656 C 478.988281 364.472656 492.417969 377.902344 492.417969 394.472656 "/>
<path style="fill-rule:nonzero;fill:rgb(67%,100%,18%);fill-opacity:1;stroke-width:1;stroke-linecap:butt;stroke-linejoin:miter;stroke:rgb(0%,0%,0%);stroke-opacity:1;stroke-miterlimit:10;" d="M 349.835938 400.222656 C 349.835938 416.789062 336.402344 430.222656 319.835938 430.222656 C 303.265625 430.222656 289.835938 416.789062 289.835938 400.222656 C 289.835938 383.652344 303.265625 370.222656 319.835938 370.222656 C 336.402344 370.222656 349.835938 383.652344 349.835938 400.222656 "/>
<path style="fill-rule:nonzero;fill:rgb(67%,100%,18%);fill-opacity:1;stroke-width:1;stroke-linecap:butt;stroke-linejoin:miter;stroke:rgb(0%,0%,0%);stroke-opacity:1;stroke-miterlimit:10;" d="M 431.941406 298.75 C 431.941406 315.316406 418.511719 328.75 401.941406 328.75 C 385.371094 328.75 371.941406 315.316406 371.941406 298.75 C 371.941406 282.179688 385.371094 268.75 401.941406 268.75 C 418.511719 268.75 431.941406 282.179688 431.941406 298.75 "/>
<path style="fill-rule:nonzero;fill:rgb(67%,100%,18%);fill-opacity:1;stroke-width:1;stroke-linecap:butt;stroke-linejoin:miter;stroke:rgb(0%,0%,0%);stroke-opacity:1;stroke-miterlimit:10;" d="M 373.6875 458.332031 C 373.6875 474.898438 360.253906 488.332031 343.6875 488.332031 C 327.117188 488.332031 313.6875 474.898438 313.6875 458.332031 C 313.6875 441.761719 327.117188 428.332031 343.6875 428.332031 C 360.253906 428.332031 373.6875 441.761719 373.6875 458.332031 "/>
<path style="fill-rule:nonzero;fill:rgb(67%,100%,18%);fill-opacity:1;stroke-width:1;stroke-linecap:butt;stroke-linejoin:miter;stroke:rgb(0%,0%,0%);stroke-opacity:1;stroke-miterlimit:10;" d="M 350.726562 303.1875 C 350.726562 319.757812 337.292969 333.1875 320.726562 333.1875 C 304.15625 333.1875 290.726562 319.757812 290.726562 303.1875 C 290.726562 286.621094 304.15625 273.1875 320.726562 273.1875 C 337.292969 273.1875 350.726562 286.621094 350.726562 303.1875 "/>
<path style="fill-rule:nonzero;fill:rgb(67%,100%,18%);fill-opacity:1;stroke-width:1;stroke-linecap:butt;stroke-linejoin:miter;stroke:rgb(0%,0%,0%);stroke-opacity:1;stroke-miterlimit:10;" d="M 401.472656 368.613281 C 401.472656 385.179688 388.042969 398.613281 371.472656 398.613281 C 354.90625 398.613281 341.472656 385.179688 341.472656 368.613281 C 341.472656 352.042969 354.90625 338.613281 371.472656 338.613281 C 388.042969 338.613281 401.472656 352.042969 401.472656 368.613281 "/>
<path style="fill-rule:nonzero;fill:rgb(67%,100%,18%);fill-opacity:1;stroke-width:1;stroke-linecap:butt;stroke-linejoin:miter;stroke:rgb(0%,0%,0%);stroke-opacity:1;stroke-miterlimit:10;" d="M 244.800781 88.570312 C 244.800781 105.140625 231.371094 118.570312 214.800781 118.570312 C 198.234375 118.570312 184.800781 105.140625 184.800781 88.570312 C 184.800781 72.003906 198.234375 58.570312 214.800781 58.570312 C 231.371094 58.570312 244.800781 72.003906 244.800781 88.570312 "/>
</g>
</svg>
