<?xml version="1.0" encoding="UTF-8"?>
<svg xmlns="http://www.w3.org/2000/svg" xmlns:xlink="http://www.w3.org/1999/xlink" width="517pt" height="517pt" viewBox="0 0 517 517" version="1.1">
<g id="surface3001">
<rect x="0" y="0" width="517" height="517" style="fill:rgb(90%,90%,90%);fill-opacity:1;stroke:none;"/>
<path style="fill:none;stroke-width:5;stroke-linecap:butt;stroke-linejoin:round;stroke:rgb(100%,0%,0%);stroke-opacity:1;stroke-miterlimit:10;" d="M 5 261 L 261 261 L 261 517 L 5 517 Z M 5 261 "/>
<path style="fill-rule:nonzero;fill:rgb(50%,0%,50%);fill-opacity:1;stroke-width:1;stroke-linecap:butt;stroke-linejoin:round;stroke:rgb(0%,0%,0%);stroke-opacity:1;stroke-miterlimit:10;" d="M 123.40625 401.222656 L 103.40625 401.222656 L 103.40625 411.222656 L 123.40625 411.222656 L 123.40625 431.222656 L 133.40625 431.222656 L 133.40625 411.222656 L 153.40625 411.222656 L 153.40625 401.222656 L 133.40625 401.222656 L 133.40625 381.222656 L 123.40625 381.222656 L 123.40625 401.222656 "/>
<path style="fill-rule:nonzero;fill:rgb(0%,0%,0%);fill-opacity:1;stroke-width:1;stroke-linecap:butt;stroke-linejoin:round;stroke:rgb(0%,0%,0%);stroke-opacity:1;stroke-miterlimit:10;" d="M 63.089844 84.527344 L 43.089844 84.527344 L 43.089844 94.527344 L 63.089844 94.527344 L 63.089844 114.527344 L 73.089844 114.527344 L 73.089844 94.527344 L 93.089844 94.527344 L 93.089844 84.527344 L 73.089844 84.527344 L 73.089844 64.527344 L 63.089844 64.527344 L 63.089844 84.527344 "/>
<path style="fill-rule:nonzero;fill:rgb(50%,0%,50%);fill-opacity:1;stroke-width:1;stroke-linecap:butt;stroke-linejoin:round;stroke:rgb(0%,0%,0%);stroke-opacity:1;stroke-miterlimit:10;" d="M 444.4375 377.398438 L 424.4375 377.398438 L 424.4375 387.398438 L 444.4375 387.398438 L 444.4375 407.398438 L 454.4375 407.398438 L 454.4375 387.398438 L 474.4375 387.398438 L 474.4375 377.398438 L 454.4375 377.398438 L 454.4375 357.398438 L 444.4375 357.398438 L 444.4375 377.398438 "/>
<path style="fill-rule:nonzero;fill:rgb(50%,0%,50%);fill-opacity:1;stroke-width:1;stroke-linecap:butt;stroke-linejoin:round;stroke:rgb(0%,0%,0%);stroke-opacity:1;stroke-miterlimit:10;" d="M 299.457031 355.292969 L 279.457031 355.292969 L 279.457031 365.292969 L 299.457031 365.292969 L 299.457031 385.292969 L 309.457031 385.292969 L 309.457031 365.292969 L 329.457031 365.292969 L 329.457031 355.292969 L 309.457031 355.292969 L 309.457031 335.292969 L 299.457031 335.292969 L 299.457031 355.292969 "/>
<path style="fill-rule:nonzero;fill:rgb(50%,0%,50%);fill-opacity:1;stroke-width:1;stroke-linecap:butt;stroke-linejoin:round;stroke:rgb(0%,0%,0%);stroke-opacity:1;stroke-miterlimit:10;" d="M 443.84375 309.457031 L 423.84375 309.457031 L 423.84375 319.457031 L 443.84375 319.457031 L 443.84375 339.457031 L 453.84375 339.457031 L 453.84375 319.457031 L 473.84375 319.457031 L 473.84375 309.457031 L 453.84375 309.457031 L 453.84375 289.457031 L 443.84375 289.457031 L 443.84375 309.457031 "/>
</g>
</svg>
