<?xml version="1.0" encoding="UTF-8"?>
<svg xmlns="http://www.w3.org/2000/svg" xmlns:xlink="http://www.w3.org/1999/xlink" width="517pt" height="517pt" viewBox="0 0 517 517" version="1.1">
<g id="surface226">
<rect x="0" y="0" width="517" height="517" style="fill:rgb(90%,90%,90%);fill-opacity:1;stroke:none;"/>
<path style="fill:none;stroke-width:5;stroke-linecap:butt;stroke-linejoin:round;stroke:rgb(100%,0%,0%);stroke-opacity:1;stroke-miterlimit:10;" d="M 5 5 L 261 5 L 261 261 L 5 261 Z M 5 5 "/>
<path style="fill-rule:nonzero;fill:rgb(0%,0%,0%);fill-opacity:1;stroke-width:1;stroke-linecap:butt;stroke-linejoin:round;stroke:rgb(0%,0%,0%);stroke-opacity:1;stroke-miterlimit:10;" d="M 68.640625 101.871094 C 68.640625 118.441406 55.207031 131.871094 38.640625 131.871094 C 22.070312 131.871094 8.640625 118.441406 8.640625 101.871094 C 8.640625 85.304688 22.070312 71.871094 38.640625 71.871094 C 55.207031 71.871094 68.640625 85.304688 68.640625 101.871094 "/>
<path style="fill-rule:nonzero;fill:rgb(0%,0%,0%);fill-opacity:1;stroke-width:1;stroke-linecap:butt;stroke-linejoin:round;stroke:rgb(0%,0%,0%);stroke-opacity:1;stroke-miterlimit:10;" d="M 158.226562 346.027344 C 158.226562 362.597656 144.796875 376.027344 128.226562 376.027344 C 111.660156 376.027344 98.226562 362.597656 98.226562 346.027344 C 98.226562 329.460938 111.660156 316.027344 128.226562 316.027344 C 144.796875 316.027344 158.226562 329.460938 158.226562 346.027344 "/>
<path style="fill-rule:nonzero;fill:rgb(0%,0%,0%);fill-opacity:1;stroke-width:1;stroke-linecap:butt;stroke-linejoin:round;stroke:rgb(0%,0%,0%);stroke-opacity:1;stroke-miterlimit:10;" d="M 86.929688 441.308594 C 86.929688 457.875 73.5 471.308594 56.929688 471.308594 C 40.363281 471.308594 26.929688 457.875 26.929688 441.308594 C 26.929688 424.738281 40.363281 411.308594 56.929688 411.308594 C 73.5 411.308594 86.929688 424.738281 86.929688 441.308594 "/>
<path style="fill-rule:nonzero;fill:rgb(0%,0%,0%);fill-opacity:1;stroke-width:1;stroke-linecap:butt;stroke-linejoin:round;stroke:rgb(0%,0%,0%);stroke-opacity:1;stroke-miterlimit:10;" d="M 394.625 158.054688 C 394.625 174.621094 381.195312 188.054688 364.625 188.054688 C 348.058594 188.054688 334.625 174.621094 334.625 158.054688 C 334.625 141.484375 348.058594 128.054688 364.625 128.054688 C 381.195312 128.054688 394.625 141.484375 394.625 158.054688 "/>
</g>
</svg>
