<?xml version="1.0" encoding="UTF-8"?>
<svg xmlns="http://www.w3.org/2000/svg" xmlns:xlink="http://www.w3.org/1999/xlink" width="517pt" height="517pt" viewBox="0 0 517 517" version="1.1">
<g id="surface3026">
<rect x="0" y="0" width="517" height="517" style="fill:rgb(90%,90%,90%);fill-opacity:1;stroke:none;"/>
<path style="fill:none;stroke-width:5;stroke-linecap:butt;stroke-linejoin:round;stroke:rgb(100%,0%,0%);stroke-opacity:1;stroke-miterlimit:10;" d="M 5 261 L 261 261 L 261 517 L 5 517 Z M 5 261 "/>
<path style="fill-rule:nonzero;fill:rgb(0%,0%,0%);fill-opacity:1;stroke-width:1;stroke-linecap:butt;stroke-linejoin:round;stroke:rgb(0%,0%,0%);stroke-opacity:1;stroke-miterlimit:10;" d="M 73.695312 349.339844 L 53.695312 349.339844 L 53.695312 359.339844 L 73.695312 359.339844 L 73.695312 379.339844 L 83.695312 379.339844 L 83.695312 359.339844 L 103.695312 359.339844 L 103.695312 349.339844 L 83.695312 349.339844 L 83.695312 329.339844 L 73.695312 329.339844 L 73.695312 349.339844 "/>
<path style="fill-rule:nonzero;fill:rgb(0%,0%,0%);fill-opacity:1;stroke-width:1;stroke-linecap:butt;stroke-linejoin:round;stroke:rgb(0%,0%,0%);stroke-opacity:1;stroke-miterlimit:10;" d="M 345.46875 468.0625 L 325.46875 468.0625 L 325.46875 478.0625 L 345.46875 478.0625 L 345.46875 498.0625 L 355.46875 498.0625 L 355.46875 478.0625 L 375.46875 478.0625 L 375.46875 468.0625 L 355.46875 468.0625 L 355.46875 448.0625 L 345.46875 448.0625 L 345.46875 468.0625 "/>
<path style="fill-rule:nonzero;fill:rgb(0%,0%,0%);fill-opacity:1;stroke-width:1;stroke-linecap:butt;stroke-linejoin:round;stroke:rgb(0%,0%,0%);stroke-opacity:1;stroke-miterlimit:10;" d="M 348.75 350.753906 L 328.75 350.753906 L 328.75 360.753906 L 348.75 360.753906 L 348.75 380.753906 L 358.75 380.753906 L 358.75 360.753906 L 378.75 360.753906 L 378.75 350.753906 L 358.75 350.753906 L 358.75 330.753906 L 348.75 330.753906 L 348.75 350.753906 "/>
<path style="fill-rule:nonzero;fill:rgb(0%,0%,0%);fill-opacity:1;stroke-width:1;stroke-linecap:butt;stroke-linejoin:round;stroke:rgb(0%,0%,0%);stroke-opacity:1;stroke-miterlimit:10;" d="M 470.5625 187.632812 L 450.5625 187.632812 L 450.5625 197.632812 L 470.5625 197.632812 L 470.5625 217.632812 L 480.5625 217.632812 L 480.5625 197.632812 L 500.5625 197.632812 L 500.5625 187.632812 L 480.5625 187.632812 L 480.5625 167.632812 L 470.5625 167.632812 L 470.5625 187.632812 "/>
<path style="fill-rule:nonzero;fill:rgb(0%,0%,0%);fill-opacity:1;stroke-width:1;stroke-linecap:butt;stroke-linejoin:round;stroke:rgb(0%,0%,0%);stroke-opacity:1;stroke-miterlimit:10;" d="M 309.34375 81.332031 L 289.34375 81.332031 L 289.34375 91.332031 L 309.34375 91.332031 L 309.34375 111.332031 L 319.34375 111.332031 L 319.34375 91.332031 L 339.34375 91.332031 L 339.34375 81.332031 L 319.34375 81.332031 L 319.34375 61.332031 L 309.34375 61.332031 L 309.34375 81.332031 "/>
</g>
</svg>
