<?xml version="1.0" encoding="UTF-8"?>
<svg xmlns="http://www.w3.org/2000/svg" xmlns:xlink="http://www.w3.org/1999/xlink" width="517pt" height="517pt" viewBox="0 0 517 517" version="1.1">
<g id="surface2351">
<rect x="0" y="0" width="517" height="517" style="fill:rgb(90%,90%,90%);fill-opacity:1;stroke:none;"/>
<path style="fill:none;stroke-width:5;stroke-linecap:butt;stroke-linejoin:round;stroke:rgb(100%,0%,0%);stroke-opacity:1;stroke-miterlimit:10;" d="M 261 261 L 517 261 L 517 517 L 261 517 Z M 261 261 "/>
<path style="fill-rule:nonzero;fill:rgb(100%,0%,0%);fill-opacity:1;stroke-width:1;stroke-linecap:butt;stroke-linejoin:round;stroke:rgb(0%,0%,0%);stroke-opacity:1;stroke-miterlimit:10;" d="M 300.261719 444.867188 L 280.261719 444.867188 L 280.261719 454.867188 L 300.261719 454.867188 L 300.261719 474.867188 L 310.261719 474.867188 L 310.261719 454.867188 L 330.261719 454.867188 L 330.261719 444.867188 L 310.261719 444.867188 L 310.261719 424.867188 L 300.261719 424.867188 L 300.261719 444.867188 "/>
<path style="fill-rule:nonzero;fill:rgb(67%,100%,18%);fill-opacity:1;stroke-width:1;stroke-linecap:butt;stroke-linejoin:round;stroke:rgb(0%,0%,0%);stroke-opacity:1;stroke-miterlimit:10;" d="M 377.613281 187.066406 L 357.613281 187.066406 L 357.613281 197.066406 L 377.613281 197.066406 L 377.613281 217.066406 L 387.613281 217.066406 L 387.613281 197.066406 L 407.613281 197.066406 L 407.613281 187.066406 L 387.613281 187.066406 L 387.613281 167.066406 L 377.613281 167.066406 L 377.613281 187.066406 "/>
<path style="fill-rule:nonzero;fill:rgb(67%,100%,18%);fill-opacity:1;stroke-width:1;stroke-linecap:butt;stroke-linejoin:round;stroke:rgb(0%,0%,0%);stroke-opacity:1;stroke-miterlimit:10;" d="M 51.464844 45.664062 L 31.464844 45.664062 L 31.464844 55.664062 L 51.464844 55.664062 L 51.464844 75.664062 L 61.464844 75.664062 L 61.464844 55.664062 L 81.464844 55.664062 L 81.464844 45.664062 L 61.464844 45.664062 L 61.464844 25.664062 L 51.464844 25.664062 L 51.464844 45.664062 "/>
<path style="fill-rule:nonzero;fill:rgb(67%,100%,18%);fill-opacity:1;stroke-width:1;stroke-linecap:butt;stroke-linejoin:round;stroke:rgb(0%,0%,0%);stroke-opacity:1;stroke-miterlimit:10;" d="M 174.371094 89.269531 L 154.371094 89.269531 L 154.371094 99.269531 L 174.371094 99.269531 L 174.371094 119.269531 L 184.371094 119.269531 L 184.371094 99.269531 L 204.371094 99.269531 L 204.371094 89.269531 L 184.371094 89.269531 L 184.371094 69.269531 L 174.371094 69.269531 L 174.371094 89.269531 "/>
<path style="fill-rule:nonzero;fill:rgb(100%,0%,0%);fill-opacity:1;stroke-width:1;stroke-linecap:butt;stroke-linejoin:round;stroke:rgb(0%,0%,0%);stroke-opacity:1;stroke-miterlimit:10;" d="M 96.777344 124.28125 L 76.777344 124.28125 L 76.777344 134.28125 L 96.777344 134.28125 L 96.777344 154.28125 L 106.777344 154.28125 L 106.777344 134.28125 L 126.777344 134.28125 L 126.777344 124.28125 L 106.777344 124.28125 L 106.777344 104.28125 L 96.777344 104.28125 L 96.777344 124.28125 "/>
</g>
</svg>
