<?xml version="1.0" encoding="UTF-8"?>
<svg xmlns="http://www.w3.org/2000/svg" xmlns:xlink="http://www.w3.org/1999/xlink" width="517pt" height="517pt" viewBox="0 0 517 517" version="1.1">
<g id="surface2376">
<rect x="0" y="0" width="517" height="517" style="fill:rgb(90%,90%,90%);fill-opacity:1;stroke:none;"/>
<path style="fill:none;stroke-width:5;stroke-linecap:butt;stroke-linejoin:round;stroke:rgb(100%,0%,0%);stroke-opacity:1;stroke-miterlimit:10;" d="M 261 261 L 517 261 L 517 517 L 261 517 Z M 261 261 "/>
<path style="fill-rule:nonzero;fill:rgb(100%,0%,0%);fill-opacity:1;stroke-width:1;stroke-linecap:butt;stroke-linejoin:round;stroke:rgb(0%,0%,0%);stroke-opacity:1;stroke-miterlimit:10;" d="M 467.511719 339.496094 L 447.511719 339.496094 L 447.511719 349.496094 L 467.511719 349.496094 L 467.511719 369.496094 L 477.511719 369.496094 L 477.511719 349.496094 L 497.511719 349.496094 L 497.511719 339.496094 L 477.511719 339.496094 L 477.511719 319.496094 L 467.511719 319.496094 L 467.511719 339.496094 "/>
<path style="fill-rule:nonzero;fill:rgb(67%,100%,18%);fill-opacity:1;stroke-width:1;stroke-linecap:butt;stroke-linejoin:round;stroke:rgb(0%,0%,0%);stroke-opacity:1;stroke-miterlimit:10;" d="M 114.320312 210.558594 L 94.320312 210.558594 L 94.320312 220.558594 L 114.320312 220.558594 L 114.320312 240.558594 L 124.320312 240.558594 L 124.320312 220.558594 L 144.320312 220.558594 L 144.320312 210.558594 L 124.320312 210.558594 L 124.320312 190.558594 L 114.320312 190.558594 L 114.320312 210.558594 "/>
<path style="fill-rule:nonzero;fill:rgb(100%,0%,0%);fill-opacity:1;stroke-width:1;stroke-linecap:butt;stroke-linejoin:round;stroke:rgb(0%,0%,0%);stroke-opacity:1;stroke-miterlimit:10;" d="M 134.542969 368.273438 L 114.542969 368.273438 L 114.542969 378.273438 L 134.542969 378.273438 L 134.542969 398.273438 L 144.542969 398.273438 L 144.542969 378.273438 L 164.542969 378.273438 L 164.542969 368.273438 L 144.542969 368.273438 L 144.542969 348.273438 L 134.542969 348.273438 L 134.542969 368.273438 "/>
<path style="fill-rule:nonzero;fill:rgb(100%,0%,0%);fill-opacity:1;stroke-width:1;stroke-linecap:butt;stroke-linejoin:round;stroke:rgb(0%,0%,0%);stroke-opacity:1;stroke-miterlimit:10;" d="M 69.359375 319.476562 L 49.359375 319.476562 L 49.359375 329.476562 L 69.359375 329.476562 L 69.359375 349.476562 L 79.359375 349.476562 L 79.359375 329.476562 L 99.359375 329.476562 L 99.359375 319.476562 L 79.359375 319.476562 L 79.359375 299.476562 L 69.359375 299.476562 L 69.359375 319.476562 "/>
<path style="fill-rule:nonzero;fill:rgb(100%,0%,0%);fill-opacity:1;stroke-width:1;stroke-linecap:butt;stroke-linejoin:round;stroke:rgb(0%,0%,0%);stroke-opacity:1;stroke-miterlimit:10;" d="M 451.832031 177.804688 L 431.832031 177.804688 L 431.832031 187.804688 L 451.832031 187.804688 L 451.832031 207.804688 L 461.832031 207.804688 L 461.832031 187.804688 L 481.832031 187.804688 L 481.832031 177.804688 L 461.832031 177.804688 L 461.832031 157.804688 L 451.832031 157.804688 L 451.832031 177.804688 "/>
</g>
</svg>
