<?xml version="1.0" encoding="UTF-8"?>
<svg xmlns="http://www.w3.org/2000/svg" xmlns:xlink="http://www.w3.org/1999/xlink" width="517pt" height="517pt" viewBox="0 0 517 517" version="1.1">
<g id="surface2711">
<rect x="0" y="0" width="517" height="517" style="fill:rgb(90%,90%,90%);fill-opacity:1;stroke:none;"/>
<path style="fill:none;stroke-width:5;stroke-linecap:butt;stroke-linejoin:round;stroke:rgb(100%,0%,0%);stroke-opacity:1;stroke-miterlimit:10;" d="M 261 261 L 517 261 L 517 517 L 261 517 Z M 261 261 "/>
<path style="fill-rule:nonzero;fill:rgb(100%,0%,0%);fill-opacity:1;stroke-width:1;stroke-linecap:butt;stroke-linejoin:round;stroke:rgb(0%,0%,0%);stroke-opacity:1;stroke-miterlimit:10;" d="M 384.617188 320.519531 L 364.617188 320.519531 L 364.617188 330.519531 L 384.617188 330.519531 L 384.617188 350.519531 L 394.617188 350.519531 L 394.617188 330.519531 L 414.617188 330.519531 L 414.617188 320.519531 L 394.617188 320.519531 L 394.617188 300.519531 L 384.617188 300.519531 L 384.617188 320.519531 "/>
<path style="fill-rule:nonzero;fill:rgb(50%,0%,50%);fill-opacity:1;stroke-width:1;stroke-linecap:butt;stroke-linejoin:round;stroke:rgb(0%,0%,0%);stroke-opacity:1;stroke-miterlimit:10;" d="M 60.101562 158.410156 L 40.101562 158.410156 L 40.101562 168.410156 L 60.101562 168.410156 L 60.101562 188.410156 L 70.101562 188.410156 L 70.101562 168.410156 L 90.101562 168.410156 L 90.101562 158.410156 L 70.101562 158.410156 L 70.101562 138.410156 L 60.101562 138.410156 L 60.101562 158.410156 "/>
<path style="fill-rule:nonzero;fill:rgb(67%,100%,18%);fill-opacity:1;stroke-width:1;stroke-linecap:butt;stroke-linejoin:round;stroke:rgb(0%,0%,0%);stroke-opacity:1;stroke-miterlimit:10;" d="M 176.988281 190.347656 L 156.988281 190.347656 L 156.988281 200.347656 L 176.988281 200.347656 L 176.988281 220.347656 L 186.988281 220.347656 L 186.988281 200.347656 L 206.988281 200.347656 L 206.988281 190.347656 L 186.988281 190.347656 L 186.988281 170.347656 L 176.988281 170.347656 L 176.988281 190.347656 "/>
<path style="fill-rule:nonzero;fill:rgb(67%,100%,18%);fill-opacity:1;stroke-width:1;stroke-linecap:butt;stroke-linejoin:round;stroke:rgb(0%,0%,0%);stroke-opacity:1;stroke-miterlimit:10;" d="M 146.71875 354.386719 L 126.71875 354.386719 L 126.71875 364.386719 L 146.71875 364.386719 L 146.71875 384.386719 L 156.71875 384.386719 L 156.71875 364.386719 L 176.71875 364.386719 L 176.71875 354.386719 L 156.71875 354.386719 L 156.71875 334.386719 L 146.71875 334.386719 L 146.71875 354.386719 "/>
<path style="fill-rule:nonzero;fill:rgb(67%,100%,18%);fill-opacity:1;stroke-width:1;stroke-linecap:butt;stroke-linejoin:round;stroke:rgb(0%,0%,0%);stroke-opacity:1;stroke-miterlimit:10;" d="M 66.046875 441.554688 L 46.046875 441.554688 L 46.046875 451.554688 L 66.046875 451.554688 L 66.046875 471.554688 L 76.046875 471.554688 L 76.046875 451.554688 L 96.046875 451.554688 L 96.046875 441.554688 L 76.046875 441.554688 L 76.046875 421.554688 L 66.046875 421.554688 L 66.046875 441.554688 "/>
</g>
</svg>
