<?xml version="1.0" encoding="UTF-8"?>
<svg xmlns="http://www.w3.org/2000/svg" xmlns:xlink="http://www.w3.org/1999/xlink" width="517pt" height="517pt" viewBox="0 0 517 517" version="1.1">
<g id="surface171">
<rect x="0" y="0" width="517" height="517" style="fill:rgb(90%,90%,90%);fill-opacity:1;stroke:none;"/>
<path style="fill:none;stroke-width:5;stroke-linecap:butt;stroke-linejoin:round;stroke:rgb(100%,0%,0%);stroke-opacity:1;stroke-miterlimit:10;" d="M 5 5 L 261 5 L 261 261 L 5 261 Z M 5 5 "/>
<path style="fill-rule:nonzero;fill:rgb(100%,7%,57%);fill-opacity:1;stroke-width:1;stroke-linecap:butt;stroke-linejoin:round;stroke:rgb(0%,0%,0%);stroke-opacity:1;stroke-miterlimit:10;" d="M 228.761719 186.144531 C 228.761719 202.710938 215.332031 216.144531 198.761719 216.144531 C 182.195312 216.144531 168.761719 202.710938 168.761719 186.144531 C 168.761719 169.574219 182.195312 156.144531 198.761719 156.144531 C 215.332031 156.144531 228.761719 169.574219 228.761719 186.144531 "/>
<path style="fill-rule:nonzero;fill:rgb(0%,0%,0%);fill-opacity:1;stroke-width:1;stroke-linecap:butt;stroke-linejoin:round;stroke:rgb(0%,0%,0%);stroke-opacity:1;stroke-miterlimit:10;" d="M 69.214844 332.417969 C 69.214844 348.988281 55.785156 362.417969 39.214844 362.417969 C 22.648438 362.417969 9.214844 348.988281 9.214844 332.417969 C 9.214844 315.851562 22.648438 302.417969 39.214844 302.417969 C 55.785156 302.417969 69.214844 315.851562 69.214844 332.417969 "/>
<path style="fill-rule:nonzero;fill:rgb(0%,0%,0%);fill-opacity:1;stroke-width:1;stroke-linecap:butt;stroke-linejoin:round;stroke:rgb(0%,0%,0%);stroke-opacity:1;stroke-miterlimit:10;" d="M 231.214844 391.128906 C 231.214844 407.699219 217.78125 421.128906 201.214844 421.128906 C 184.644531 421.128906 171.214844 407.699219 171.214844 391.128906 C 171.214844 374.5625 184.644531 361.128906 201.214844 361.128906 C 217.78125 361.128906 231.214844 374.5625 231.214844 391.128906 "/>
<path style="fill-rule:nonzero;fill:rgb(0%,0%,0%);fill-opacity:1;stroke-width:1;stroke-linecap:butt;stroke-linejoin:round;stroke:rgb(0%,0%,0%);stroke-opacity:1;stroke-miterlimit:10;" d="M 413.6875 451.53125 C 413.6875 468.097656 400.257812 481.53125 383.6875 481.53125 C 367.121094 481.53125 353.6875 468.097656 353.6875 451.53125 C 353.6875 434.960938 367.121094 421.53125 383.6875 421.53125 C 400.257812 421.53125 413.6875 434.960938 413.6875 451.53125 "/>
</g>
</svg>
