<?xml version="1.0" encoding="UTF-8"?>
<svg xmlns="http://www.w3.org/2000/svg" xmlns:xlink="http://www.w3.org/1999/xlink" width="517pt" height="517pt" viewBox="0 0 517 517" version="1.1">
<g id="surface2631">
<rect x="0" y="0" width="517" height="517" style="fill:rgb(90%,90%,90%);fill-opacity:1;stroke:none;"/>
<path style="fill:none;stroke-width:5;stroke-linecap:butt;stroke-linejoin:round;stroke:rgb(100%,0%,0%);stroke-opacity:1;stroke-miterlimit:10;" d="M 261 261 L 517 261 L 517 517 L 261 517 Z M 261 261 "/>
<path style="fill-rule:nonzero;fill:rgb(53%,27%,7%);fill-opacity:1;stroke-width:1;stroke-linecap:butt;stroke-linejoin:round;stroke:rgb(0%,0%,0%);stroke-opacity:1;stroke-miterlimit:10;" d="M 368.457031 443.230469 C 368.457031 459.796875 355.027344 473.230469 338.457031 473.230469 C 321.890625 473.230469 308.457031 459.796875 308.457031 443.230469 C 308.457031 426.660156 321.890625 413.230469 338.457031 413.230469 C 355.027344 413.230469 368.457031 426.660156 368.457031 443.230469 "/>
<path style="fill-rule:nonzero;fill:rgb(35%,70%,90%);fill-opacity:1;stroke-width:1;stroke-linecap:butt;stroke-linejoin:round;stroke:rgb(0%,0%,0%);stroke-opacity:1;stroke-miterlimit:10;" d="M 153.226562 469.773438 C 153.226562 486.34375 139.792969 499.773438 123.226562 499.773438 C 106.65625 499.773438 93.226562 486.34375 93.226562 469.773438 C 93.226562 453.207031 106.65625 439.773438 123.226562 439.773438 C 139.792969 439.773438 153.226562 453.207031 153.226562 469.773438 "/>
<path style="fill-rule:nonzero;fill:rgb(90%,65%,0%);fill-opacity:1;stroke-width:1;stroke-linecap:butt;stroke-linejoin:round;stroke:rgb(0%,0%,0%);stroke-opacity:1;stroke-miterlimit:10;" d="M 144.476562 367.015625 C 144.476562 383.582031 131.046875 397.015625 114.476562 397.015625 C 97.910156 397.015625 84.476562 383.582031 84.476562 367.015625 C 84.476562 350.445312 97.910156 337.015625 114.476562 337.015625 C 131.046875 337.015625 144.476562 350.445312 144.476562 367.015625 "/>
<path style="fill-rule:nonzero;fill:rgb(90%,65%,0%);fill-opacity:1;stroke-width:1;stroke-linecap:butt;stroke-linejoin:round;stroke:rgb(0%,0%,0%);stroke-opacity:1;stroke-miterlimit:10;" d="M 352.289062 122.304688 C 352.289062 138.875 338.859375 152.304688 322.289062 152.304688 C 305.722656 152.304688 292.289062 138.875 292.289062 122.304688 C 292.289062 105.734375 305.722656 92.304688 322.289062 92.304688 C 338.859375 92.304688 352.289062 105.734375 352.289062 122.304688 "/>
<path style="fill-rule:nonzero;fill:rgb(90%,65%,0%);fill-opacity:1;stroke-width:1;stroke-linecap:butt;stroke-linejoin:round;stroke:rgb(0%,0%,0%);stroke-opacity:1;stroke-miterlimit:10;" d="M 158.324219 146.199219 C 158.324219 162.769531 144.890625 176.199219 128.324219 176.199219 C 111.753906 176.199219 98.324219 162.769531 98.324219 146.199219 C 98.324219 129.632812 111.753906 116.199219 128.324219 116.199219 C 144.890625 116.199219 158.324219 129.632812 158.324219 146.199219 "/>
</g>
</svg>
