<?xml version="1.0" encoding="UTF-8"?>
<svg xmlns="http://www.w3.org/2000/svg" xmlns:xlink="http://www.w3.org/1999/xlink" width="517pt" height="517pt" viewBox="0 0 517 517" version="1.1">
<g id="surface2991">
<rect x="0" y="0" width="517" height="517" style="fill:rgb(90%,90%,90%);fill-opacity:1;stroke:none;"/>
<path style="fill:none;stroke-width:5;stroke-linecap:butt;stroke-linejoin:round;stroke:rgb(100%,0%,0%);stroke-opacity:1;stroke-miterlimit:10;" d="M 5 261 L 261 261 L 261 517 L 5 517 Z M 5 261 "/>
<path style="fill-rule:nonzero;fill:rgb(50%,0%,50%);fill-opacity:1;stroke-width:1;stroke-linecap:butt;stroke-linejoin:round;stroke:rgb(0%,0%,0%);stroke-opacity:1;stroke-miterlimit:10;" d="M 83.578125 344.949219 L 63.578125 344.949219 L 63.578125 354.949219 L 83.578125 354.949219 L 83.578125 374.949219 L 93.578125 374.949219 L 93.578125 354.949219 L 113.578125 354.949219 L 113.578125 344.949219 L 93.578125 344.949219 L 93.578125 324.949219 L 83.578125 324.949219 L 83.578125 344.949219 "/>
<path style="fill-rule:nonzero;fill:rgb(0%,0%,0%);fill-opacity:1;stroke-width:1;stroke-linecap:butt;stroke-linejoin:round;stroke:rgb(0%,0%,0%);stroke-opacity:1;stroke-miterlimit:10;" d="M 361.222656 409.710938 L 341.222656 409.710938 L 341.222656 419.710938 L 361.222656 419.710938 L 361.222656 439.710938 L 371.222656 439.710938 L 371.222656 419.710938 L 391.222656 419.710938 L 391.222656 409.710938 L 371.222656 409.710938 L 371.222656 389.710938 L 361.222656 389.710938 L 361.222656 409.710938 "/>
<path style="fill-rule:nonzero;fill:rgb(0%,0%,0%);fill-opacity:1;stroke-width:1;stroke-linecap:butt;stroke-linejoin:round;stroke:rgb(0%,0%,0%);stroke-opacity:1;stroke-miterlimit:10;" d="M 469.917969 399.308594 L 449.917969 399.308594 L 449.917969 409.308594 L 469.917969 409.308594 L 469.917969 429.308594 L 479.917969 429.308594 L 479.917969 409.308594 L 499.917969 409.308594 L 499.917969 399.308594 L 479.917969 399.308594 L 479.917969 379.308594 L 469.917969 379.308594 L 469.917969 399.308594 "/>
<path style="fill-rule:nonzero;fill:rgb(0%,0%,0%);fill-opacity:1;stroke-width:1;stroke-linecap:butt;stroke-linejoin:round;stroke:rgb(0%,0%,0%);stroke-opacity:1;stroke-miterlimit:10;" d="M 50.046875 52.898438 L 30.046875 52.898438 L 30.046875 62.898438 L 50.046875 62.898438 L 50.046875 82.898438 L 60.046875 82.898438 L 60.046875 62.898438 L 80.046875 62.898438 L 80.046875 52.898438 L 60.046875 52.898438 L 60.046875 32.898438 L 50.046875 32.898438 L 50.046875 52.898438 "/>
<path style="fill-rule:nonzero;fill:rgb(50%,0%,50%);fill-opacity:1;stroke-width:1;stroke-linecap:butt;stroke-linejoin:round;stroke:rgb(0%,0%,0%);stroke-opacity:1;stroke-miterlimit:10;" d="M 436.992188 40.238281 L 416.992188 40.238281 L 416.992188 50.238281 L 436.992188 50.238281 L 436.992188 70.238281 L 446.992188 70.238281 L 446.992188 50.238281 L 466.992188 50.238281 L 466.992188 40.238281 L 446.992188 40.238281 L 446.992188 20.238281 L 436.992188 20.238281 L 436.992188 40.238281 "/>
</g>
</svg>
