<?xml version="1.0" encoding="UTF-8"?>
<svg xmlns="http://www.w3.org/2000/svg" xmlns:xlink="http://www.w3.org/1999/xlink" width="517pt" height="517pt" viewBox="0 0 517 517" version="1.1">
<g id="surface166">
<rect x="0" y="0" width="517" height="517" style="fill:rgb(90%,90%,90%);fill-opacity:1;stroke:none;"/>
<path style="fill:none;stroke-width:5;stroke-linecap:butt;stroke-linejoin:round;stroke:rgb(100%,0%,0%);stroke-opacity:1;stroke-miterlimit:10;" d="M 5 5 L 261 5 L 261 261 L 5 261 Z M 5 5 "/>
<path style="fill-rule:nonzero;fill:rgb(100%,7%,57%);fill-opacity:1;stroke-width:1;stroke-linecap:butt;stroke-linejoin:round;stroke:rgb(0%,0%,0%);stroke-opacity:1;stroke-miterlimit:10;" d="M 78.210938 136.980469 C 78.210938 153.550781 64.78125 166.980469 48.210938 166.980469 C 31.644531 166.980469 18.210938 153.550781 18.210938 136.980469 C 18.210938 120.414062 31.644531 106.980469 48.210938 106.980469 C 64.78125 106.980469 78.210938 120.414062 78.210938 136.980469 "/>
<path style="fill-rule:nonzero;fill:rgb(0%,0%,0%);fill-opacity:1;stroke-width:1;stroke-linecap:butt;stroke-linejoin:round;stroke:rgb(0%,0%,0%);stroke-opacity:1;stroke-miterlimit:10;" d="M 183.847656 353.261719 C 183.847656 369.832031 170.417969 383.261719 153.847656 383.261719 C 137.28125 383.261719 123.847656 369.832031 123.847656 353.261719 C 123.847656 336.695312 137.28125 323.261719 153.847656 323.261719 C 170.417969 323.261719 183.847656 336.695312 183.847656 353.261719 "/>
<path style="fill-rule:nonzero;fill:rgb(0%,0%,0%);fill-opacity:1;stroke-width:1;stroke-linecap:butt;stroke-linejoin:round;stroke:rgb(0%,0%,0%);stroke-opacity:1;stroke-miterlimit:10;" d="M 451.730469 414.339844 C 451.730469 430.90625 438.300781 444.339844 421.730469 444.339844 C 405.164062 444.339844 391.730469 430.90625 391.730469 414.339844 C 391.730469 397.769531 405.164062 384.339844 421.730469 384.339844 C 438.300781 384.339844 451.730469 397.769531 451.730469 414.339844 "/>
<path style="fill-rule:nonzero;fill:rgb(0%,0%,0%);fill-opacity:1;stroke-width:1;stroke-linecap:butt;stroke-linejoin:round;stroke:rgb(0%,0%,0%);stroke-opacity:1;stroke-miterlimit:10;" d="M 373.492188 361.882812 C 373.492188 378.453125 360.0625 391.882812 343.492188 391.882812 C 326.925781 391.882812 313.492188 378.453125 313.492188 361.882812 C 313.492188 345.316406 326.925781 331.882812 343.492188 331.882812 C 360.0625 331.882812 373.492188 345.316406 373.492188 361.882812 "/>
</g>
</svg>
