<?xml version="1.0" encoding="UTF-8"?>
<svg xmlns="http://www.w3.org/2000/svg" xmlns:xlink="http://www.w3.org/1999/xlink" width="517pt" height="517pt" viewBox="0 0 517 517" version="1.1">
<g id="surface2971">
<rect x="0" y="0" width="517" height="517" style="fill:rgb(90%,90%,90%);fill-opacity:1;stroke:none;"/>
<path style="fill:none;stroke-width:5;stroke-linecap:butt;stroke-linejoin:round;stroke:rgb(100%,0%,0%);stroke-opacity:1;stroke-miterlimit:10;" d="M 5 261 L 261 261 L 261 517 L 5 517 Z M 5 261 "/>
<path style="fill-rule:nonzero;fill:rgb(50%,0%,50%);fill-opacity:1;stroke-width:1;stroke-linecap:butt;stroke-linejoin:round;stroke:rgb(0%,0%,0%);stroke-opacity:1;stroke-miterlimit:10;" d="M 30.824219 384.023438 L 10.824219 384.023438 L 10.824219 394.023438 L 30.824219 394.023438 L 30.824219 414.023438 L 40.824219 414.023438 L 40.824219 394.023438 L 60.824219 394.023438 L 60.824219 384.023438 L 40.824219 384.023438 L 40.824219 364.023438 L 30.824219 364.023438 L 30.824219 384.023438 "/>
<path style="fill-rule:nonzero;fill:rgb(0%,0%,0%);fill-opacity:1;stroke-width:1;stroke-linecap:butt;stroke-linejoin:round;stroke:rgb(0%,0%,0%);stroke-opacity:1;stroke-miterlimit:10;" d="M 379.085938 307.703125 L 359.085938 307.703125 L 359.085938 317.703125 L 379.085938 317.703125 L 379.085938 337.703125 L 389.085938 337.703125 L 389.085938 317.703125 L 409.085938 317.703125 L 409.085938 307.703125 L 389.085938 307.703125 L 389.085938 287.703125 L 379.085938 287.703125 L 379.085938 307.703125 "/>
<path style="fill-rule:nonzero;fill:rgb(0%,0%,0%);fill-opacity:1;stroke-width:1;stroke-linecap:butt;stroke-linejoin:round;stroke:rgb(0%,0%,0%);stroke-opacity:1;stroke-miterlimit:10;" d="M 428.386719 138.644531 L 408.386719 138.644531 L 408.386719 148.644531 L 428.386719 148.644531 L 428.386719 168.644531 L 438.386719 168.644531 L 438.386719 148.644531 L 458.386719 148.644531 L 458.386719 138.644531 L 438.386719 138.644531 L 438.386719 118.644531 L 428.386719 118.644531 L 428.386719 138.644531 "/>
<path style="fill-rule:nonzero;fill:rgb(0%,0%,0%);fill-opacity:1;stroke-width:1;stroke-linecap:butt;stroke-linejoin:round;stroke:rgb(0%,0%,0%);stroke-opacity:1;stroke-miterlimit:10;" d="M 191.882812 35.375 L 171.882812 35.375 L 171.882812 45.375 L 191.882812 45.375 L 191.882812 65.375 L 201.882812 65.375 L 201.882812 45.375 L 221.882812 45.375 L 221.882812 35.375 L 201.882812 35.375 L 201.882812 15.375 L 191.882812 15.375 L 191.882812 35.375 "/>
<path style="fill-rule:nonzero;fill:rgb(0%,0%,0%);fill-opacity:1;stroke-width:1;stroke-linecap:butt;stroke-linejoin:round;stroke:rgb(0%,0%,0%);stroke-opacity:1;stroke-miterlimit:10;" d="M 64.0625 173.230469 L 44.0625 173.230469 L 44.0625 183.230469 L 64.0625 183.230469 L 64.0625 203.230469 L 74.0625 203.230469 L 74.0625 183.230469 L 94.0625 183.230469 L 94.0625 173.230469 L 74.0625 173.230469 L 74.0625 153.230469 L 64.0625 153.230469 L 64.0625 173.230469 "/>
</g>
</svg>
