<?xml version="1.0" encoding="UTF-8"?>
<svg xmlns="http://www.w3.org/2000/svg" xmlns:xlink="http://www.w3.org/1999/xlink" width="517pt" height="517pt" viewBox="0 0 517 517" version="1.1">
<g id="surface2916">
<rect x="0" y="0" width="517" height="517" style="fill:rgb(90%,90%,90%);fill-opacity:1;stroke:none;"/>
<path style="fill:none;stroke-width:5;stroke-linecap:butt;stroke-linejoin:round;stroke:rgb(100%,0%,0%);stroke-opacity:1;stroke-miterlimit:10;" d="M 5 261 L 261 261 L 261 517 L 5 517 Z M 5 261 "/>
<path style="fill-rule:nonzero;fill:rgb(53%,27%,7%);fill-opacity:1;stroke-width:1;stroke-linecap:butt;stroke-linejoin:round;stroke:rgb(0%,0%,0%);stroke-opacity:1;stroke-miterlimit:10;" d="M 93.910156 324.273438 C 93.910156 340.84375 80.476562 354.273438 63.910156 354.273438 C 47.339844 354.273438 33.910156 340.84375 33.910156 324.273438 C 33.910156 307.703125 47.339844 294.273438 63.910156 294.273438 C 80.476562 294.273438 93.910156 307.703125 93.910156 324.273438 "/>
<path style="fill-rule:nonzero;fill:rgb(67%,100%,18%);fill-opacity:1;stroke-width:1;stroke-linecap:butt;stroke-linejoin:round;stroke:rgb(0%,0%,0%);stroke-opacity:1;stroke-miterlimit:10;" d="M 440.601562 69.316406 C 440.601562 85.882812 427.167969 99.316406 410.601562 99.316406 C 394.03125 99.316406 380.601562 85.882812 380.601562 69.316406 C 380.601562 52.746094 394.03125 39.316406 410.601562 39.316406 C 427.167969 39.316406 440.601562 52.746094 440.601562 69.316406 "/>
<path style="fill-rule:nonzero;fill:rgb(67%,100%,18%);fill-opacity:1;stroke-width:1;stroke-linecap:butt;stroke-linejoin:round;stroke:rgb(0%,0%,0%);stroke-opacity:1;stroke-miterlimit:10;" d="M 326.363281 43.078125 C 326.363281 59.648438 312.933594 73.078125 296.363281 73.078125 C 279.796875 73.078125 266.363281 59.648438 266.363281 43.078125 C 266.363281 26.511719 279.796875 13.078125 296.363281 13.078125 C 312.933594 13.078125 326.363281 26.511719 326.363281 43.078125 "/>
<path style="fill-rule:nonzero;fill:rgb(67%,100%,18%);fill-opacity:1;stroke-width:1;stroke-linecap:butt;stroke-linejoin:round;stroke:rgb(0%,0%,0%);stroke-opacity:1;stroke-miterlimit:10;" d="M 250.6875 37.847656 C 250.6875 54.417969 237.257812 67.847656 220.6875 67.847656 C 204.121094 67.847656 190.6875 54.417969 190.6875 37.847656 C 190.6875 21.28125 204.121094 7.847656 220.6875 7.847656 C 237.257812 7.847656 250.6875 21.28125 250.6875 37.847656 "/>
<path style="fill-rule:nonzero;fill:rgb(53%,27%,7%);fill-opacity:1;stroke-width:1;stroke-linecap:butt;stroke-linejoin:round;stroke:rgb(0%,0%,0%);stroke-opacity:1;stroke-miterlimit:10;" d="M 492.5625 318.921875 C 492.5625 335.488281 479.128906 348.921875 462.5625 348.921875 C 445.992188 348.921875 432.5625 335.488281 432.5625 318.921875 C 432.5625 302.351562 445.992188 288.921875 462.5625 288.921875 C 479.128906 288.921875 492.5625 302.351562 492.5625 318.921875 "/>
</g>
</svg>
