<?xml version="1.0" encoding="UTF-8"?>
<svg xmlns="http://www.w3.org/2000/svg" xmlns:xlink="http://www.w3.org/1999/xlink" width="517pt" height="517pt" viewBox="0 0 517 517" version="1.1">
<g id="surface3676">
<rect x="0" y="0" width="517" height="517" style="fill:rgb(90%,90%,90%);fill-opacity:1;stroke:none;"/>
<path style="fill:none;stroke-width:5;stroke-linecap:butt;stroke-linejoin:round;stroke:rgb(100%,0%,0%);stroke-opacity:1;stroke-miterlimit:10;" d="M 5 5 L 261 5 L 261 261 L 5 261 Z M 5 5 "/>
<path style="fill-rule:nonzero;fill:rgb(35%,70%,90%);fill-opacity:1;stroke-width:1;stroke-linecap:butt;stroke-linejoin:round;stroke:rgb(0%,0%,0%);stroke-opacity:1;stroke-miterlimit:10;" d="M 131.917969 162.136719 L 111.917969 162.136719 L 111.917969 172.136719 L 131.917969 172.136719 L 131.917969 192.136719 L 141.917969 192.136719 L 141.917969 172.136719 L 161.917969 172.136719 L 161.917969 162.136719 L 141.917969 162.136719 L 141.917969 142.136719 L 131.917969 142.136719 L 131.917969 162.136719 "/>
<path style="fill-rule:nonzero;fill:rgb(35%,70%,90%);fill-opacity:1;stroke-width:1;stroke-linecap:butt;stroke-linejoin:round;stroke:rgb(0%,0%,0%);stroke-opacity:1;stroke-miterlimit:10;" d="M 460.015625 50.421875 L 440.015625 50.421875 L 440.015625 60.421875 L 460.015625 60.421875 L 460.015625 80.421875 L 470.015625 80.421875 L 470.015625 60.421875 L 490.015625 60.421875 L 490.015625 50.421875 L 470.015625 50.421875 L 470.015625 30.421875 L 460.015625 30.421875 L 460.015625 50.421875 "/>
<path style="fill-rule:nonzero;fill:rgb(35%,70%,90%);fill-opacity:1;stroke-width:1;stroke-linecap:butt;stroke-linejoin:round;stroke:rgb(0%,0%,0%);stroke-opacity:1;stroke-miterlimit:10;" d="M 392.679688 331.320312 L 372.679688 331.320312 L 372.679688 341.320312 L 392.679688 341.320312 L 392.679688 361.320312 L 402.679688 361.320312 L 402.679688 341.320312 L 422.679688 341.320312 L 422.679688 331.320312 L 402.679688 331.320312 L 402.679688 311.320312 L 392.679688 311.320312 L 392.679688 331.320312 "/>
<path style="fill-rule:nonzero;fill:rgb(35%,70%,90%);fill-opacity:1;stroke-width:1;stroke-linecap:butt;stroke-linejoin:round;stroke:rgb(0%,0%,0%);stroke-opacity:1;stroke-miterlimit:10;" d="M 333.46875 363.273438 L 313.46875 363.273438 L 313.46875 373.273438 L 333.46875 373.273438 L 333.46875 393.273438 L 343.46875 393.273438 L 343.46875 373.273438 L 363.46875 373.273438 L 363.46875 363.273438 L 343.46875 363.273438 L 343.46875 343.273438 L 333.46875 343.273438 L 333.46875 363.273438 "/>
<path style="fill-rule:nonzero;fill:rgb(35%,70%,90%);fill-opacity:1;stroke-width:1;stroke-linecap:butt;stroke-linejoin:round;stroke:rgb(0%,0%,0%);stroke-opacity:1;stroke-miterlimit:10;" d="M 466.792969 322.382812 L 446.792969 322.382812 L 446.792969 332.382812 L 466.792969 332.382812 L 466.792969 352.382812 L 476.792969 352.382812 L 476.792969 332.382812 L 496.792969 332.382812 L 496.792969 322.382812 L 476.792969 322.382812 L 476.792969 302.382812 L 466.792969 302.382812 L 466.792969 322.382812 "/>
<path style="fill-rule:nonzero;fill:rgb(100%,100%,0%);fill-opacity:1;stroke-width:1;stroke-linecap:butt;stroke-linejoin:round;stroke:rgb(0%,0%,0%);stroke-opacity:1;stroke-miterlimit:10;" d="M 471.234375 440.949219 L 451.234375 440.949219 L 451.234375 450.949219 L 471.234375 450.949219 L 471.234375 470.949219 L 481.234375 470.949219 L 481.234375 450.949219 L 501.234375 450.949219 L 501.234375 440.949219 L 481.234375 440.949219 L 481.234375 420.949219 L 471.234375 420.949219 L 471.234375 440.949219 "/>
</g>
</svg>
