<?xml version="1.0" encoding="UTF-8"?>
<svg xmlns="http://www.w3.org/2000/svg" xmlns:xlink="http://www.w3.org/1999/xlink" width="517pt" height="517pt" viewBox="0 0 517 517" version="1.1">
<g id="surface3531">
<rect x="0" y="0" width="517" height="517" style="fill:rgb(90%,90%,90%);fill-opacity:1;stroke:none;"/>
<path style="fill:none;stroke-width:5;stroke-linecap:butt;stroke-linejoin:round;stroke:rgb(100%,0%,0%);stroke-opacity:1;stroke-miterlimit:10;" d="M 5 5 L 261 5 L 261 261 L 5 261 Z M 5 5 "/>
<path style="fill-rule:nonzero;fill:rgb(100%,0%,0%);fill-opacity:1;stroke-width:1;stroke-linecap:butt;stroke-linejoin:round;stroke:rgb(0%,0%,0%);stroke-opacity:1;stroke-miterlimit:10;" d="M 250.132812 86.367188 C 250.132812 102.9375 236.703125 116.367188 220.132812 116.367188 C 203.566406 116.367188 190.132812 102.9375 190.132812 86.367188 C 190.132812 69.800781 203.566406 56.367188 220.132812 56.367188 C 236.703125 56.367188 250.132812 69.800781 250.132812 86.367188 "/>
<path style="fill-rule:nonzero;fill:rgb(25%,88%,82%);fill-opacity:1;stroke-width:1;stroke-linecap:butt;stroke-linejoin:round;stroke:rgb(0%,0%,0%);stroke-opacity:1;stroke-miterlimit:10;" d="M 357.175781 176.339844 C 357.175781 192.90625 343.746094 206.339844 327.175781 206.339844 C 310.609375 206.339844 297.175781 192.90625 297.175781 176.339844 C 297.175781 159.769531 310.609375 146.339844 327.175781 146.339844 C 343.746094 146.339844 357.175781 159.769531 357.175781 176.339844 "/>
<path style="fill-rule:nonzero;fill:rgb(25%,88%,82%);fill-opacity:1;stroke-width:1;stroke-linecap:butt;stroke-linejoin:round;stroke:rgb(0%,0%,0%);stroke-opacity:1;stroke-miterlimit:10;" d="M 134.800781 301.535156 C 134.800781 318.101562 121.371094 331.535156 104.800781 331.535156 C 88.234375 331.535156 74.800781 318.101562 74.800781 301.535156 C 74.800781 284.964844 88.234375 271.535156 104.800781 271.535156 C 121.371094 271.535156 134.800781 284.964844 134.800781 301.535156 "/>
<path style="fill-rule:nonzero;fill:rgb(25%,88%,82%);fill-opacity:1;stroke-width:1;stroke-linecap:butt;stroke-linejoin:round;stroke:rgb(0%,0%,0%);stroke-opacity:1;stroke-miterlimit:10;" d="M 124.0625 378.722656 C 124.0625 395.289062 110.628906 408.722656 94.0625 408.722656 C 77.492188 408.722656 64.0625 395.289062 64.0625 378.722656 C 64.0625 362.152344 77.492188 348.722656 94.0625 348.722656 C 110.628906 348.722656 124.0625 362.152344 124.0625 378.722656 "/>
<path style="fill-rule:nonzero;fill:rgb(25%,88%,82%);fill-opacity:1;stroke-width:1;stroke-linecap:butt;stroke-linejoin:round;stroke:rgb(0%,0%,0%);stroke-opacity:1;stroke-miterlimit:10;" d="M 240.265625 436.339844 C 240.265625 452.910156 226.835938 466.339844 210.265625 466.339844 C 193.699219 466.339844 180.265625 452.910156 180.265625 436.339844 C 180.265625 419.773438 193.699219 406.339844 210.265625 406.339844 C 226.835938 406.339844 240.265625 419.773438 240.265625 436.339844 "/>
<path style="fill-rule:nonzero;fill:rgb(25%,88%,82%);fill-opacity:1;stroke-width:1;stroke-linecap:butt;stroke-linejoin:round;stroke:rgb(0%,0%,0%);stroke-opacity:1;stroke-miterlimit:10;" d="M 194.621094 363.277344 C 194.621094 379.847656 181.1875 393.277344 164.621094 393.277344 C 148.050781 393.277344 134.621094 379.847656 134.621094 363.277344 C 134.621094 346.710938 148.050781 333.277344 164.621094 333.277344 C 181.1875 333.277344 194.621094 346.710938 194.621094 363.277344 "/>
</g>
</svg>
