<?xml version="1.0" encoding="UTF-8"?>
<svg xmlns="http://www.w3.org/2000/svg" xmlns:xlink="http://www.w3.org/1999/xlink" width="517pt" height="517pt" viewBox="0 0 517 517" version="1.1">
<g id="surface3846">
<rect x="0" y="0" width="517" height="517" style="fill:rgb(90%,90%,90%);fill-opacity:1;stroke:none;"/>
<path style="fill:none;stroke-width:5;stroke-linecap:butt;stroke-linejoin:round;stroke:rgb(100%,0%,0%);stroke-opacity:1;stroke-miterlimit:10;" d="M 5 5 L 261 5 L 261 261 L 5 261 Z M 5 5 "/>
<path style="fill-rule:nonzero;fill:rgb(100%,7%,57%);fill-opacity:1;stroke-width:1;stroke-linecap:butt;stroke-linejoin:round;stroke:rgb(0%,0%,0%);stroke-opacity:1;stroke-miterlimit:10;" d="M 249.328125 152.875 C 249.328125 169.441406 235.894531 182.875 219.328125 182.875 C 202.757812 182.875 189.328125 169.441406 189.328125 152.875 C 189.328125 136.304688 202.757812 122.875 219.328125 122.875 C 235.894531 122.875 249.328125 136.304688 249.328125 152.875 "/>
<path style="fill-rule:nonzero;fill:rgb(100%,100%,0%);fill-opacity:1;stroke-width:1;stroke-linecap:butt;stroke-linejoin:round;stroke:rgb(0%,0%,0%);stroke-opacity:1;stroke-miterlimit:10;" d="M 350.511719 118.617188 C 350.511719 135.183594 337.078125 148.617188 320.511719 148.617188 C 303.941406 148.617188 290.511719 135.183594 290.511719 118.617188 C 290.511719 102.046875 303.941406 88.617188 320.511719 88.617188 C 337.078125 88.617188 350.511719 102.046875 350.511719 118.617188 "/>
<path style="fill-rule:nonzero;fill:rgb(100%,100%,0%);fill-opacity:1;stroke-width:1;stroke-linecap:butt;stroke-linejoin:round;stroke:rgb(0%,0%,0%);stroke-opacity:1;stroke-miterlimit:10;" d="M 121.546875 400.261719 C 121.546875 416.832031 108.113281 430.261719 91.546875 430.261719 C 74.976562 430.261719 61.546875 416.832031 61.546875 400.261719 C 61.546875 383.695312 74.976562 370.261719 91.546875 370.261719 C 108.113281 370.261719 121.546875 383.695312 121.546875 400.261719 "/>
<path style="fill-rule:nonzero;fill:rgb(100%,100%,0%);fill-opacity:1;stroke-width:1;stroke-linecap:butt;stroke-linejoin:round;stroke:rgb(0%,0%,0%);stroke-opacity:1;stroke-miterlimit:10;" d="M 220.308594 454.652344 C 220.308594 471.21875 206.875 484.652344 190.308594 484.652344 C 173.738281 484.652344 160.308594 471.21875 160.308594 454.652344 C 160.308594 438.082031 173.738281 424.652344 190.308594 424.652344 C 206.875 424.652344 220.308594 438.082031 220.308594 454.652344 "/>
<path style="fill-rule:nonzero;fill:rgb(100%,100%,0%);fill-opacity:1;stroke-width:1;stroke-linecap:butt;stroke-linejoin:round;stroke:rgb(0%,0%,0%);stroke-opacity:1;stroke-miterlimit:10;" d="M 119.625 325.417969 C 119.625 341.984375 106.195312 355.417969 89.625 355.417969 C 73.058594 355.417969 59.625 341.984375 59.625 325.417969 C 59.625 308.847656 73.058594 295.417969 89.625 295.417969 C 106.195312 295.417969 119.625 308.847656 119.625 325.417969 "/>
<path style="fill-rule:nonzero;fill:rgb(100%,100%,0%);fill-opacity:1;stroke-width:1;stroke-linecap:butt;stroke-linejoin:round;stroke:rgb(0%,0%,0%);stroke-opacity:1;stroke-miterlimit:10;" d="M 466.496094 402.867188 C 466.496094 419.4375 453.066406 432.867188 436.496094 432.867188 C 419.929688 432.867188 406.496094 419.4375 406.496094 402.867188 C 406.496094 386.300781 419.929688 372.867188 436.496094 372.867188 C 453.066406 372.867188 466.496094 386.300781 466.496094 402.867188 "/>
</g>
</svg>
