<?xml version="1.0" encoding="UTF-8"?>
<svg xmlns="http://www.w3.org/2000/svg" xmlns:xlink="http://www.w3.org/1999/xlink" width="517pt" height="517pt" viewBox="0 0 517 517" version="1.1">
<g id="surface3901">
<rect x="0" y="0" width="517" height="517" style="fill:rgb(90%,90%,90%);fill-opacity:1;stroke:none;"/>
<path style="fill:none;stroke-width:5;stroke-linecap:butt;stroke-linejoin:round;stroke:rgb(100%,0%,0%);stroke-opacity:1;stroke-miterlimit:10;" d="M 5 5 L 261 5 L 261 261 L 5 261 Z M 5 5 "/>
<path style="fill-rule:nonzero;fill:rgb(25%,88%,82%);fill-opacity:1;stroke-width:1;stroke-linecap:butt;stroke-linejoin:round;stroke:rgb(0%,0%,0%);stroke-opacity:1;stroke-miterlimit:10;" d="M 171.519531 178.367188 C 171.519531 194.9375 158.089844 208.367188 141.519531 208.367188 C 124.953125 208.367188 111.519531 194.9375 111.519531 178.367188 C 111.519531 161.800781 124.953125 148.367188 141.519531 148.367188 C 158.089844 148.367188 171.519531 161.800781 171.519531 178.367188 "/>
<path style="fill-rule:nonzero;fill:rgb(100%,100%,0%);fill-opacity:1;stroke-width:1;stroke-linecap:butt;stroke-linejoin:round;stroke:rgb(0%,0%,0%);stroke-opacity:1;stroke-miterlimit:10;" d="M 404.328125 364.21875 C 404.328125 380.785156 390.894531 394.21875 374.328125 394.21875 C 357.757812 394.21875 344.328125 380.785156 344.328125 364.21875 C 344.328125 347.648438 357.757812 334.21875 374.328125 334.21875 C 390.894531 334.21875 404.328125 347.648438 404.328125 364.21875 "/>
<path style="fill-rule:nonzero;fill:rgb(100%,100%,0%);fill-opacity:1;stroke-width:1;stroke-linecap:butt;stroke-linejoin:round;stroke:rgb(0%,0%,0%);stroke-opacity:1;stroke-miterlimit:10;" d="M 337.617188 404.488281 C 337.617188 421.058594 324.1875 434.488281 307.617188 434.488281 C 291.046875 434.488281 277.617188 421.058594 277.617188 404.488281 C 277.617188 387.921875 291.046875 374.488281 307.617188 374.488281 C 324.1875 374.488281 337.617188 387.921875 337.617188 404.488281 "/>
<path style="fill-rule:nonzero;fill:rgb(100%,100%,0%);fill-opacity:1;stroke-width:1;stroke-linecap:butt;stroke-linejoin:round;stroke:rgb(0%,0%,0%);stroke-opacity:1;stroke-miterlimit:10;" d="M 175.859375 424.625 C 175.859375 441.191406 162.425781 454.625 145.859375 454.625 C 129.289062 454.625 115.859375 441.191406 115.859375 424.625 C 115.859375 408.054688 129.289062 394.625 145.859375 394.625 C 162.425781 394.625 175.859375 408.054688 175.859375 424.625 "/>
<path style="fill-rule:nonzero;fill:rgb(100%,100%,0%);fill-opacity:1;stroke-width:1;stroke-linecap:butt;stroke-linejoin:round;stroke:rgb(0%,0%,0%);stroke-opacity:1;stroke-miterlimit:10;" d="M 74.433594 430.558594 C 74.433594 447.125 61.003906 460.558594 44.433594 460.558594 C 27.867188 460.558594 14.433594 447.125 14.433594 430.558594 C 14.433594 413.988281 27.867188 400.558594 44.433594 400.558594 C 61.003906 400.558594 74.433594 413.988281 74.433594 430.558594 "/>
<path style="fill-rule:nonzero;fill:rgb(100%,7%,57%);fill-opacity:1;stroke-width:1;stroke-linecap:butt;stroke-linejoin:round;stroke:rgb(0%,0%,0%);stroke-opacity:1;stroke-miterlimit:10;" d="M 79.816406 312.046875 C 79.816406 328.617188 66.382812 342.046875 49.816406 342.046875 C 33.246094 342.046875 19.816406 328.617188 19.816406 312.046875 C 19.816406 295.476562 33.246094 282.046875 49.816406 282.046875 C 66.382812 282.046875 79.816406 295.476562 79.816406 312.046875 "/>
</g>
</svg>
