<?xml version="1.0" encoding="UTF-8"?>
<svg xmlns="http://www.w3.org/2000/svg" xmlns:xlink="http://www.w3.org/1999/xlink" width="517pt" height="517pt" viewBox="0 0 517 517" version="1.1">
<g id="surface8456">
<rect x="0" y="0" width="517" height="517" style="fill:rgb(90%,90%,90%);fill-opacity:1;stroke:none;"/>
<path style="fill:none;stroke-width:5;stroke-linecap:butt;stroke-linejoin:round;stroke:rgb(100%,0%,0%);stroke-opacity:1;stroke-miterlimit:10;" d="M 5 261 L 261 261 L 261 517 L 5 517 Z M 5 261 "/>
<path style="fill-rule:nonzero;fill:rgb(100%,100%,0%);fill-opacity:1;stroke-width:1;stroke-linecap:butt;stroke-linejoin:round;stroke:rgb(0%,0%,0%);stroke-opacity:1;stroke-miterlimit:10;" d="M 85.050781 364.867188 C 85.050781 381.433594 71.617188 394.867188 55.050781 394.867188 C 38.480469 394.867188 25.050781 381.433594 25.050781 364.867188 C 25.050781 348.296875 38.480469 334.867188 55.050781 334.867188 C 71.617188 334.867188 85.050781 348.296875 85.050781 364.867188 "/>
<path style="fill-rule:nonzero;fill:rgb(0%,0%,0%);fill-opacity:1;stroke-width:1;stroke-linecap:butt;stroke-linejoin:round;stroke:rgb(0%,0%,0%);stroke-opacity:1;stroke-miterlimit:10;" d="M 187.835938 107.046875 C 187.835938 123.617188 174.402344 137.046875 157.835938 137.046875 C 141.265625 137.046875 127.835938 123.617188 127.835938 107.046875 C 127.835938 90.480469 141.265625 77.046875 157.835938 77.046875 C 174.402344 77.046875 187.835938 90.480469 187.835938 107.046875 "/>
<path style="fill-rule:nonzero;fill:rgb(0%,0%,0%);fill-opacity:1;stroke-width:1;stroke-linecap:butt;stroke-linejoin:round;stroke:rgb(0%,0%,0%);stroke-opacity:1;stroke-miterlimit:10;" d="M 95.730469 111.75 C 95.730469 128.320312 82.300781 141.75 65.730469 141.75 C 49.164062 141.75 35.730469 128.320312 35.730469 111.75 C 35.730469 95.179688 49.164062 81.75 65.730469 81.75 C 82.300781 81.75 95.730469 95.179688 95.730469 111.75 "/>
<path style="fill-rule:nonzero;fill:rgb(0%,0%,0%);fill-opacity:1;stroke-width:1;stroke-linecap:butt;stroke-linejoin:round;stroke:rgb(0%,0%,0%);stroke-opacity:1;stroke-miterlimit:10;" d="M 362.191406 328.175781 C 362.191406 344.746094 348.757812 358.175781 332.191406 358.175781 C 315.621094 358.175781 302.191406 344.746094 302.191406 328.175781 C 302.191406 311.609375 315.621094 298.175781 332.191406 298.175781 C 348.757812 298.175781 362.191406 311.609375 362.191406 328.175781 "/>
<path style="fill-rule:nonzero;fill:rgb(0%,0%,0%);fill-opacity:1;stroke-width:1;stroke-linecap:butt;stroke-linejoin:round;stroke:rgb(0%,0%,0%);stroke-opacity:1;stroke-miterlimit:10;" d="M 335.03125 455.214844 C 335.03125 471.785156 321.597656 485.214844 305.03125 485.214844 C 288.460938 485.214844 275.03125 471.785156 275.03125 455.214844 C 275.03125 438.648438 288.460938 425.214844 305.03125 425.214844 C 321.597656 425.214844 335.03125 438.648438 335.03125 455.214844 "/>
</g>
</svg>
