<?xml version="1.0" encoding="UTF-8"?>
<svg xmlns="http://www.w3.org/2000/svg" xmlns:xlink="http://www.w3.org/1999/xlink" width="517pt" height="517pt" viewBox="0 0 517 517" version="1.1">
<g id="surface3646">
<rect x="0" y="0" width="517" height="517" style="fill:rgb(90%,90%,90%);fill-opacity:1;stroke:none;"/>
<path style="fill:none;stroke-width:5;stroke-linecap:butt;stroke-linejoin:round;stroke:rgb(100%,0%,0%);stroke-opacity:1;stroke-miterlimit:10;" d="M 5 5 L 261 5 L 261 261 L 5 261 Z M 5 5 "/>
<path style="fill-rule:nonzero;fill:rgb(100%,100%,0%);fill-opacity:1;stroke-width:1;stroke-linecap:butt;stroke-linejoin:round;stroke:rgb(0%,0%,0%);stroke-opacity:1;stroke-miterlimit:10;" d="M 71.375 154.828125 L 51.375 154.828125 L 51.375 164.828125 L 71.375 164.828125 L 71.375 184.828125 L 81.375 184.828125 L 81.375 164.828125 L 101.375 164.828125 L 101.375 154.828125 L 81.375 154.828125 L 81.375 134.828125 L 71.375 134.828125 L 71.375 154.828125 "/>
<path style="fill-rule:nonzero;fill:rgb(35%,70%,90%);fill-opacity:1;stroke-width:1;stroke-linecap:butt;stroke-linejoin:round;stroke:rgb(0%,0%,0%);stroke-opacity:1;stroke-miterlimit:10;" d="M 93.445312 324.054688 L 73.445312 324.054688 L 73.445312 334.054688 L 93.445312 334.054688 L 93.445312 354.054688 L 103.445312 354.054688 L 103.445312 334.054688 L 123.445312 334.054688 L 123.445312 324.054688 L 103.445312 324.054688 L 103.445312 304.054688 L 93.445312 304.054688 L 93.445312 324.054688 "/>
<path style="fill-rule:nonzero;fill:rgb(100%,100%,0%);fill-opacity:1;stroke-width:1;stroke-linecap:butt;stroke-linejoin:round;stroke:rgb(0%,0%,0%);stroke-opacity:1;stroke-miterlimit:10;" d="M 82.628906 421.78125 L 62.628906 421.78125 L 62.628906 431.78125 L 82.628906 431.78125 L 82.628906 451.78125 L 92.628906 451.78125 L 92.628906 431.78125 L 112.628906 431.78125 L 112.628906 421.78125 L 92.628906 421.78125 L 92.628906 401.78125 L 82.628906 401.78125 L 82.628906 421.78125 "/>
<path style="fill-rule:nonzero;fill:rgb(100%,100%,0%);fill-opacity:1;stroke-width:1;stroke-linecap:butt;stroke-linejoin:round;stroke:rgb(0%,0%,0%);stroke-opacity:1;stroke-miterlimit:10;" d="M 455.015625 68.558594 L 435.015625 68.558594 L 435.015625 78.558594 L 455.015625 78.558594 L 455.015625 98.558594 L 465.015625 98.558594 L 465.015625 78.558594 L 485.015625 78.558594 L 485.015625 68.558594 L 465.015625 68.558594 L 465.015625 48.558594 L 455.015625 48.558594 L 455.015625 68.558594 "/>
<path style="fill-rule:nonzero;fill:rgb(100%,100%,0%);fill-opacity:1;stroke-width:1;stroke-linecap:butt;stroke-linejoin:round;stroke:rgb(0%,0%,0%);stroke-opacity:1;stroke-miterlimit:10;" d="M 295.71875 163.136719 L 275.71875 163.136719 L 275.71875 173.136719 L 295.71875 173.136719 L 295.71875 193.136719 L 305.71875 193.136719 L 305.71875 173.136719 L 325.71875 173.136719 L 325.71875 163.136719 L 305.71875 163.136719 L 305.71875 143.136719 L 295.71875 143.136719 L 295.71875 163.136719 "/>
<path style="fill-rule:nonzero;fill:rgb(100%,100%,0%);fill-opacity:1;stroke-width:1;stroke-linecap:butt;stroke-linejoin:round;stroke:rgb(0%,0%,0%);stroke-opacity:1;stroke-miterlimit:10;" d="M 331.445312 364.949219 L 311.445312 364.949219 L 311.445312 374.949219 L 331.445312 374.949219 L 331.445312 394.949219 L 341.445312 394.949219 L 341.445312 374.949219 L 361.445312 374.949219 L 361.445312 364.949219 L 341.445312 364.949219 L 341.445312 344.949219 L 331.445312 344.949219 L 331.445312 364.949219 "/>
</g>
</svg>
