<?xml version="1.0" encoding="UTF-8"?>
<svg xmlns="http://www.w3.org/2000/svg" xmlns:xlink="http://www.w3.org/1999/xlink" width="517pt" height="517pt" viewBox="0 0 517 517" version="1.1">
<g id="surface8356">
<rect x="0" y="0" width="517" height="517" style="fill:rgb(90%,90%,90%);fill-opacity:1;stroke:none;"/>
<path style="fill:none;stroke-width:5;stroke-linecap:butt;stroke-linejoin:round;stroke:rgb(100%,0%,0%);stroke-opacity:1;stroke-miterlimit:10;" d="M 5 5 L 261 5 L 261 261 L 5 261 Z M 5 5 "/>
<path style="fill-rule:nonzero;fill:rgb(0%,0%,0%);fill-opacity:1;stroke-width:1;stroke-linecap:butt;stroke-linejoin:round;stroke:rgb(0%,0%,0%);stroke-opacity:1;stroke-miterlimit:10;" d="M 136.25 90.613281 C 136.25 107.179688 122.820312 120.613281 106.25 120.613281 C 89.683594 120.613281 76.25 107.179688 76.25 90.613281 C 76.25 74.042969 89.683594 60.613281 106.25 60.613281 C 122.820312 60.613281 136.25 74.042969 136.25 90.613281 "/>
<path style="fill-rule:nonzero;fill:rgb(35%,70%,90%);fill-opacity:1;stroke-width:1;stroke-linecap:butt;stroke-linejoin:round;stroke:rgb(0%,0%,0%);stroke-opacity:1;stroke-miterlimit:10;" d="M 494.648438 392.410156 C 494.648438 408.980469 481.21875 422.410156 464.648438 422.410156 C 448.082031 422.410156 434.648438 408.980469 434.648438 392.410156 C 434.648438 375.84375 448.082031 362.410156 464.648438 362.410156 C 481.21875 362.410156 494.648438 375.84375 494.648438 392.410156 "/>
<path style="fill-rule:nonzero;fill:rgb(35%,70%,90%);fill-opacity:1;stroke-width:1;stroke-linecap:butt;stroke-linejoin:round;stroke:rgb(0%,0%,0%);stroke-opacity:1;stroke-miterlimit:10;" d="M 390.335938 211.683594 C 390.335938 228.25 376.902344 241.683594 360.335938 241.683594 C 343.765625 241.683594 330.335938 228.25 330.335938 211.683594 C 330.335938 195.113281 343.765625 181.683594 360.335938 181.683594 C 376.902344 181.683594 390.335938 195.113281 390.335938 211.683594 "/>
<path style="fill-rule:nonzero;fill:rgb(35%,70%,90%);fill-opacity:1;stroke-width:1;stroke-linecap:butt;stroke-linejoin:round;stroke:rgb(0%,0%,0%);stroke-opacity:1;stroke-miterlimit:10;" d="M 211.28125 351.125 C 211.28125 367.691406 197.847656 381.125 181.28125 381.125 C 164.710938 381.125 151.28125 367.691406 151.28125 351.125 C 151.28125 334.554688 164.710938 321.125 181.28125 321.125 C 197.847656 321.125 211.28125 334.554688 211.28125 351.125 "/>
<path style="fill-rule:nonzero;fill:rgb(35%,70%,90%);fill-opacity:1;stroke-width:1;stroke-linecap:butt;stroke-linejoin:round;stroke:rgb(0%,0%,0%);stroke-opacity:1;stroke-miterlimit:10;" d="M 96.527344 407.136719 C 96.527344 423.703125 83.09375 437.136719 66.527344 437.136719 C 49.957031 437.136719 36.527344 423.703125 36.527344 407.136719 C 36.527344 390.566406 49.957031 377.136719 66.527344 377.136719 C 83.09375 377.136719 96.527344 390.566406 96.527344 407.136719 "/>
</g>
</svg>
