<?xml version="1.0" encoding="UTF-8"?>
<svg xmlns="http://www.w3.org/2000/svg" xmlns:xlink="http://www.w3.org/1999/xlink" width="517pt" height="517pt" viewBox="0 0 517 517" version="1.1">
<g id="surface3666">
<rect x="0" y="0" width="517" height="517" style="fill:rgb(90%,90%,90%);fill-opacity:1;stroke:none;"/>
<path style="fill:none;stroke-width:5;stroke-linecap:butt;stroke-linejoin:round;stroke:rgb(100%,0%,0%);stroke-opacity:1;stroke-miterlimit:10;" d="M 5 5 L 261 5 L 261 261 L 5 261 Z M 5 5 "/>
<path style="fill-rule:nonzero;fill:rgb(35%,70%,90%);fill-opacity:1;stroke-width:1;stroke-linecap:butt;stroke-linejoin:round;stroke:rgb(0%,0%,0%);stroke-opacity:1;stroke-miterlimit:10;" d="M 134.605469 141.179688 L 114.605469 141.179688 L 114.605469 151.179688 L 134.605469 151.179688 L 134.605469 171.179688 L 144.605469 171.179688 L 144.605469 151.179688 L 164.605469 151.179688 L 164.605469 141.179688 L 144.605469 141.179688 L 144.605469 121.179688 L 134.605469 121.179688 L 134.605469 141.179688 "/>
<path style="fill-rule:nonzero;fill:rgb(35%,70%,90%);fill-opacity:1;stroke-width:1;stroke-linecap:butt;stroke-linejoin:round;stroke:rgb(0%,0%,0%);stroke-opacity:1;stroke-miterlimit:10;" d="M 305.921875 189.15625 L 285.921875 189.15625 L 285.921875 199.15625 L 305.921875 199.15625 L 305.921875 219.15625 L 315.921875 219.15625 L 315.921875 199.15625 L 335.921875 199.15625 L 335.921875 189.15625 L 315.921875 189.15625 L 315.921875 169.15625 L 305.921875 169.15625 L 305.921875 189.15625 "/>
<path style="fill-rule:nonzero;fill:rgb(35%,70%,90%);fill-opacity:1;stroke-width:1;stroke-linecap:butt;stroke-linejoin:round;stroke:rgb(0%,0%,0%);stroke-opacity:1;stroke-miterlimit:10;" d="M 393.3125 407.3125 L 373.3125 407.3125 L 373.3125 417.3125 L 393.3125 417.3125 L 393.3125 437.3125 L 403.3125 437.3125 L 403.3125 417.3125 L 423.3125 417.3125 L 423.3125 407.3125 L 403.3125 407.3125 L 403.3125 387.3125 L 393.3125 387.3125 L 393.3125 407.3125 "/>
<path style="fill-rule:nonzero;fill:rgb(35%,70%,90%);fill-opacity:1;stroke-width:1;stroke-linecap:butt;stroke-linejoin:round;stroke:rgb(0%,0%,0%);stroke-opacity:1;stroke-miterlimit:10;" d="M 455.3125 287.421875 L 435.3125 287.421875 L 435.3125 297.421875 L 455.3125 297.421875 L 455.3125 317.421875 L 465.3125 317.421875 L 465.3125 297.421875 L 485.3125 297.421875 L 485.3125 287.421875 L 465.3125 287.421875 L 465.3125 267.421875 L 455.3125 267.421875 L 455.3125 287.421875 "/>
<path style="fill-rule:nonzero;fill:rgb(35%,70%,90%);fill-opacity:1;stroke-width:1;stroke-linecap:butt;stroke-linejoin:round;stroke:rgb(0%,0%,0%);stroke-opacity:1;stroke-miterlimit:10;" d="M 215.9375 455.523438 L 195.9375 455.523438 L 195.9375 465.523438 L 215.9375 465.523438 L 215.9375 485.523438 L 225.9375 485.523438 L 225.9375 465.523438 L 245.9375 465.523438 L 245.9375 455.523438 L 225.9375 455.523438 L 225.9375 435.523438 L 215.9375 435.523438 L 215.9375 455.523438 "/>
<path style="fill-rule:nonzero;fill:rgb(35%,70%,90%);fill-opacity:1;stroke-width:1;stroke-linecap:butt;stroke-linejoin:round;stroke:rgb(0%,0%,0%);stroke-opacity:1;stroke-miterlimit:10;" d="M 126.632812 342.023438 L 106.632812 342.023438 L 106.632812 352.023438 L 126.632812 352.023438 L 126.632812 372.023438 L 136.632812 372.023438 L 136.632812 352.023438 L 156.632812 352.023438 L 156.632812 342.023438 L 136.632812 342.023438 L 136.632812 322.023438 L 126.632812 322.023438 L 126.632812 342.023438 "/>
</g>
</svg>
