<?xml version="1.0" encoding="UTF-8"?>
<svg xmlns="http://www.w3.org/2000/svg" xmlns:xlink="http://www.w3.org/1999/xlink" width="517pt" height="517pt" viewBox="0 0 517 517" version="1.1">
<g id="surface3571">
<rect x="0" y="0" width="517" height="517" style="fill:rgb(90%,90%,90%);fill-opacity:1;stroke:none;"/>
<path style="fill:none;stroke-width:5;stroke-linecap:butt;stroke-linejoin:round;stroke:rgb(100%,0%,0%);stroke-opacity:1;stroke-miterlimit:10;" d="M 5 5 L 261 5 L 261 261 L 5 261 Z M 5 5 "/>
<path style="fill-rule:nonzero;fill:rgb(100%,0%,0%);fill-opacity:1;stroke-width:1;stroke-linecap:butt;stroke-linejoin:round;stroke:rgb(0%,0%,0%);stroke-opacity:1;stroke-miterlimit:10;" d="M 143.816406 77.15625 C 143.816406 93.722656 130.386719 107.15625 113.816406 107.15625 C 97.25 107.15625 83.816406 93.722656 83.816406 77.15625 C 83.816406 60.585938 97.25 47.15625 113.816406 47.15625 C 130.386719 47.15625 143.816406 60.585938 143.816406 77.15625 "/>
<path style="fill-rule:nonzero;fill:rgb(25%,88%,82%);fill-opacity:1;stroke-width:1;stroke-linecap:butt;stroke-linejoin:round;stroke:rgb(0%,0%,0%);stroke-opacity:1;stroke-miterlimit:10;" d="M 501.648438 202.027344 C 501.648438 218.597656 488.21875 232.027344 471.648438 232.027344 C 455.082031 232.027344 441.648438 218.597656 441.648438 202.027344 C 441.648438 185.460938 455.082031 172.027344 471.648438 172.027344 C 488.21875 172.027344 501.648438 185.460938 501.648438 202.027344 "/>
<path style="fill-rule:nonzero;fill:rgb(100%,0%,0%);fill-opacity:1;stroke-width:1;stroke-linecap:butt;stroke-linejoin:round;stroke:rgb(0%,0%,0%);stroke-opacity:1;stroke-miterlimit:10;" d="M 504.96875 306.773438 C 504.96875 323.34375 491.535156 336.773438 474.96875 336.773438 C 458.398438 336.773438 444.96875 323.34375 444.96875 306.773438 C 444.96875 290.203125 458.398438 276.773438 474.96875 276.773438 C 491.535156 276.773438 504.96875 290.203125 504.96875 306.773438 "/>
<path style="fill-rule:nonzero;fill:rgb(100%,0%,0%);fill-opacity:1;stroke-width:1;stroke-linecap:butt;stroke-linejoin:round;stroke:rgb(0%,0%,0%);stroke-opacity:1;stroke-miterlimit:10;" d="M 444.324219 463.664062 C 444.324219 480.230469 430.890625 493.664062 414.324219 493.664062 C 397.753906 493.664062 384.324219 480.230469 384.324219 463.664062 C 384.324219 447.09375 397.753906 433.664062 414.324219 433.664062 C 430.890625 433.664062 444.324219 447.09375 444.324219 463.664062 "/>
<path style="fill-rule:nonzero;fill:rgb(100%,0%,0%);fill-opacity:1;stroke-width:1;stroke-linecap:butt;stroke-linejoin:round;stroke:rgb(0%,0%,0%);stroke-opacity:1;stroke-miterlimit:10;" d="M 436.242188 401.304688 C 436.242188 417.875 422.8125 431.304688 406.242188 431.304688 C 389.675781 431.304688 376.242188 417.875 376.242188 401.304688 C 376.242188 384.738281 389.675781 371.304688 406.242188 371.304688 C 422.8125 371.304688 436.242188 384.738281 436.242188 401.304688 "/>
<path style="fill-rule:nonzero;fill:rgb(100%,0%,0%);fill-opacity:1;stroke-width:1;stroke-linecap:butt;stroke-linejoin:round;stroke:rgb(0%,0%,0%);stroke-opacity:1;stroke-miterlimit:10;" d="M 143.082031 390.097656 C 143.082031 406.667969 129.652344 420.097656 113.082031 420.097656 C 96.515625 420.097656 83.082031 406.667969 83.082031 390.097656 C 83.082031 373.53125 96.515625 360.097656 113.082031 360.097656 C 129.652344 360.097656 143.082031 373.53125 143.082031 390.097656 "/>
</g>
</svg>
