<?xml version="1.0" encoding="UTF-8"?>
<svg xmlns="http://www.w3.org/2000/svg" xmlns:xlink="http://www.w3.org/1999/xlink" width="517pt" height="517pt" viewBox="0 0 517 517" version="1.1">
<g id="surface8486">
<rect x="0" y="0" width="517" height="517" style="fill:rgb(90%,90%,90%);fill-opacity:1;stroke:none;"/>
<path style="fill:none;stroke-width:5;stroke-linecap:butt;stroke-linejoin:round;stroke:rgb(100%,0%,0%);stroke-opacity:1;stroke-miterlimit:10;" d="M 261 5 L 517 5 L 517 261 L 261 261 Z M 261 5 "/>
<path style="fill-rule:nonzero;fill:rgb(0%,0%,0%);fill-opacity:1;stroke-width:1;stroke-linecap:butt;stroke-linejoin:round;stroke:rgb(0%,0%,0%);stroke-opacity:1;stroke-miterlimit:10;" d="M 382.601562 212.773438 C 382.601562 229.339844 369.171875 242.773438 352.601562 242.773438 C 336.03125 242.773438 322.601562 229.339844 322.601562 212.773438 C 322.601562 196.203125 336.03125 182.773438 352.601562 182.773438 C 369.171875 182.773438 382.601562 196.203125 382.601562 212.773438 "/>
<path style="fill-rule:nonzero;fill:rgb(100%,100%,0%);fill-opacity:1;stroke-width:1;stroke-linecap:butt;stroke-linejoin:round;stroke:rgb(0%,0%,0%);stroke-opacity:1;stroke-miterlimit:10;" d="M 242.671875 455.015625 C 242.671875 471.585938 229.242188 485.015625 212.671875 485.015625 C 196.105469 485.015625 182.671875 471.585938 182.671875 455.015625 C 182.671875 438.449219 196.105469 425.015625 212.671875 425.015625 C 229.242188 425.015625 242.671875 438.449219 242.671875 455.015625 "/>
<path style="fill-rule:nonzero;fill:rgb(100%,100%,0%);fill-opacity:1;stroke-width:1;stroke-linecap:butt;stroke-linejoin:round;stroke:rgb(0%,0%,0%);stroke-opacity:1;stroke-miterlimit:10;" d="M 161.878906 44.515625 C 161.878906 61.085938 148.445312 74.515625 131.878906 74.515625 C 115.308594 74.515625 101.878906 61.085938 101.878906 44.515625 C 101.878906 27.949219 115.308594 14.515625 131.878906 14.515625 C 148.445312 14.515625 161.878906 27.949219 161.878906 44.515625 "/>
<path style="fill-rule:nonzero;fill:rgb(100%,100%,0%);fill-opacity:1;stroke-width:1;stroke-linecap:butt;stroke-linejoin:round;stroke:rgb(0%,0%,0%);stroke-opacity:1;stroke-miterlimit:10;" d="M 193.964844 198.890625 C 193.964844 215.457031 180.53125 228.890625 163.964844 228.890625 C 147.394531 228.890625 133.964844 215.457031 133.964844 198.890625 C 133.964844 182.320312 147.394531 168.890625 163.964844 168.890625 C 180.53125 168.890625 193.964844 182.320312 193.964844 198.890625 "/>
<path style="fill-rule:nonzero;fill:rgb(100%,100%,0%);fill-opacity:1;stroke-width:1;stroke-linecap:butt;stroke-linejoin:round;stroke:rgb(0%,0%,0%);stroke-opacity:1;stroke-miterlimit:10;" d="M 100.234375 124.714844 C 100.234375 141.28125 86.804688 154.714844 70.234375 154.714844 C 53.667969 154.714844 40.234375 141.28125 40.234375 124.714844 C 40.234375 108.144531 53.667969 94.714844 70.234375 94.714844 C 86.804688 94.714844 100.234375 108.144531 100.234375 124.714844 "/>
</g>
</svg>
