<?xml version="1.0" encoding="UTF-8"?>
<svg xmlns="http://www.w3.org/2000/svg" xmlns:xlink="http://www.w3.org/1999/xlink" width="517pt" height="517pt" viewBox="0 0 517 517" version="1.1">
<g id="surface8506">
<rect x="0" y="0" width="517" height="517" style="fill:rgb(90%,90%,90%);fill-opacity:1;stroke:none;"/>
<path style="fill:none;stroke-width:5;stroke-linecap:butt;stroke-linejoin:round;stroke:rgb(100%,0%,0%);stroke-opacity:1;stroke-miterlimit:10;" d="M 261 5 L 517 5 L 517 261 L 261 261 Z M 261 5 "/>
<path style="fill-rule:nonzero;fill:rgb(50%,0%,50%);fill-opacity:1;stroke-width:1;stroke-linecap:butt;stroke-linejoin:round;stroke:rgb(0%,0%,0%);stroke-opacity:1;stroke-miterlimit:10;" d="M 346.929688 110.234375 C 346.929688 126.804688 333.496094 140.234375 316.929688 140.234375 C 300.359375 140.234375 286.929688 126.804688 286.929688 110.234375 C 286.929688 93.667969 300.359375 80.234375 316.929688 80.234375 C 333.496094 80.234375 346.929688 93.667969 346.929688 110.234375 "/>
<path style="fill-rule:nonzero;fill:rgb(0%,0%,0%);fill-opacity:1;stroke-width:1;stroke-linecap:butt;stroke-linejoin:round;stroke:rgb(0%,0%,0%);stroke-opacity:1;stroke-miterlimit:10;" d="M 335.273438 471.375 C 335.273438 487.945312 321.84375 501.375 305.273438 501.375 C 288.707031 501.375 275.273438 487.945312 275.273438 471.375 C 275.273438 454.808594 288.707031 441.375 305.273438 441.375 C 321.84375 441.375 335.273438 454.808594 335.273438 471.375 "/>
<path style="fill-rule:nonzero;fill:rgb(0%,0%,0%);fill-opacity:1;stroke-width:1;stroke-linecap:butt;stroke-linejoin:round;stroke:rgb(0%,0%,0%);stroke-opacity:1;stroke-miterlimit:10;" d="M 179.089844 194.382812 C 179.089844 210.949219 165.65625 224.382812 149.089844 224.382812 C 132.519531 224.382812 119.089844 210.949219 119.089844 194.382812 C 119.089844 177.8125 132.519531 164.382812 149.089844 164.382812 C 165.65625 164.382812 179.089844 177.8125 179.089844 194.382812 "/>
<path style="fill-rule:nonzero;fill:rgb(0%,0%,0%);fill-opacity:1;stroke-width:1;stroke-linecap:butt;stroke-linejoin:round;stroke:rgb(0%,0%,0%);stroke-opacity:1;stroke-miterlimit:10;" d="M 208.8125 71.570312 C 208.8125 88.136719 195.382812 101.570312 178.8125 101.570312 C 162.242188 101.570312 148.8125 88.136719 148.8125 71.570312 C 148.8125 55 162.242188 41.570312 178.8125 41.570312 C 195.382812 41.570312 208.8125 55 208.8125 71.570312 "/>
<path style="fill-rule:nonzero;fill:rgb(0%,0%,0%);fill-opacity:1;stroke-width:1;stroke-linecap:butt;stroke-linejoin:round;stroke:rgb(0%,0%,0%);stroke-opacity:1;stroke-miterlimit:10;" d="M 173.613281 319.042969 C 173.613281 335.613281 160.183594 349.042969 143.613281 349.042969 C 127.046875 349.042969 113.613281 335.613281 113.613281 319.042969 C 113.613281 302.472656 127.046875 289.042969 143.613281 289.042969 C 160.183594 289.042969 173.613281 302.472656 173.613281 319.042969 "/>
<path style="fill-rule:nonzero;fill:rgb(0%,0%,0%);fill-opacity:1;stroke-width:1;stroke-linecap:butt;stroke-linejoin:round;stroke:rgb(0%,0%,0%);stroke-opacity:1;stroke-miterlimit:10;" d="M 83.789062 316.925781 C 83.789062 333.496094 70.359375 346.925781 53.789062 346.925781 C 37.21875 346.925781 23.789062 333.496094 23.789062 316.925781 C 23.789062 300.359375 37.21875 286.925781 53.789062 286.925781 C 70.359375 286.925781 83.789062 300.359375 83.789062 316.925781 "/>
</g>
</svg>
