<?xml version="1.0" encoding="UTF-8"?>
<svg xmlns="http://www.w3.org/2000/svg" xmlns:xlink="http://www.w3.org/1999/xlink" width="517pt" height="517pt" viewBox="0 0 517 517" version="1.1">
<g id="surface5406">
<rect x="0" y="0" width="517" height="517" style="fill:rgb(90%,90%,90%);fill-opacity:1;stroke:none;"/>
<path style="fill-rule:nonzero;fill:rgb(0%,0%,0%);fill-opacity:1;stroke-width:1;stroke-linecap:butt;stroke-linejoin:miter;stroke:rgb(0%,0%,0%);stroke-opacity:1;stroke-miterlimit:10;" d="M 436.886719 166.945312 C 436.886719 183.515625 423.453125 196.945312 406.886719 196.945312 C 390.316406 196.945312 376.886719 183.515625 376.886719 166.945312 C 376.886719 150.378906 390.316406 136.945312 406.886719 136.945312 C 423.453125 136.945312 436.886719 150.378906 436.886719 166.945312 "/>
<path style="fill-rule:nonzero;fill:rgb(0%,0%,0%);fill-opacity:1;stroke-width:1;stroke-linecap:butt;stroke-linejoin:miter;stroke:rgb(0%,0%,0%);stroke-opacity:1;stroke-miterlimit:10;" d="M 335.175781 144.570312 C 335.175781 161.140625 321.746094 174.570312 305.175781 174.570312 C 288.609375 174.570312 275.175781 161.140625 275.175781 144.570312 C 275.175781 128.003906 288.609375 114.570312 305.175781 114.570312 C 321.746094 114.570312 335.175781 128.003906 335.175781 144.570312 "/>
<path style="fill-rule:nonzero;fill:rgb(0%,0%,0%);fill-opacity:1;stroke-width:1;stroke-linecap:butt;stroke-linejoin:miter;stroke:rgb(0%,0%,0%);stroke-opacity:1;stroke-miterlimit:10;" d="M 417.90625 381.9375 C 417.90625 398.507812 404.476562 411.9375 387.90625 411.9375 C 371.339844 411.9375 357.90625 398.507812 357.90625 381.9375 C 357.90625 365.371094 371.339844 351.9375 387.90625 351.9375 C 404.476562 351.9375 417.90625 365.371094 417.90625 381.9375 "/>
<path style="fill-rule:nonzero;fill:rgb(0%,0%,0%);fill-opacity:1;stroke-width:1;stroke-linecap:butt;stroke-linejoin:miter;stroke:rgb(0%,0%,0%);stroke-opacity:1;stroke-miterlimit:10;" d="M 242.164062 157.777344 C 242.164062 174.347656 228.734375 187.777344 212.164062 187.777344 C 195.59375 187.777344 182.164062 174.347656 182.164062 157.777344 C 182.164062 141.210938 195.59375 127.777344 212.164062 127.777344 C 228.734375 127.777344 242.164062 141.210938 242.164062 157.777344 "/>
<path style="fill-rule:nonzero;fill:rgb(0%,0%,0%);fill-opacity:1;stroke-width:1;stroke-linecap:butt;stroke-linejoin:miter;stroke:rgb(0%,0%,0%);stroke-opacity:1;stroke-miterlimit:10;" d="M 167.320312 109.1875 C 167.320312 125.753906 153.890625 139.1875 137.320312 139.1875 C 120.753906 139.1875 107.320312 125.753906 107.320312 109.1875 C 107.320312 92.617188 120.753906 79.1875 137.320312 79.1875 C 153.890625 79.1875 167.320312 92.617188 167.320312 109.1875 "/>
<path style="fill-rule:nonzero;fill:rgb(0%,0%,0%);fill-opacity:1;stroke-width:1;stroke-linecap:butt;stroke-linejoin:miter;stroke:rgb(0%,0%,0%);stroke-opacity:1;stroke-miterlimit:10;" d="M 95.082031 139.722656 C 95.082031 156.292969 81.648438 169.722656 65.082031 169.722656 C 48.511719 169.722656 35.082031 156.292969 35.082031 139.722656 C 35.082031 123.152344 48.511719 109.722656 65.082031 109.722656 C 81.648438 109.722656 95.082031 123.152344 95.082031 139.722656 "/>
<path style="fill-rule:nonzero;fill:rgb(0%,0%,0%);fill-opacity:1;stroke-width:1;stroke-linecap:butt;stroke-linejoin:miter;stroke:rgb(0%,0%,0%);stroke-opacity:1;stroke-miterlimit:10;" d="M 181.0625 184.453125 C 181.0625 201.019531 167.632812 214.453125 151.0625 214.453125 C 134.492188 214.453125 121.0625 201.019531 121.0625 184.453125 C 121.0625 167.882812 134.492188 154.453125 151.0625 154.453125 C 167.632812 154.453125 181.0625 167.882812 181.0625 184.453125 "/>
<path style="fill-rule:nonzero;fill:rgb(0%,0%,0%);fill-opacity:1;stroke-width:1;stroke-linecap:butt;stroke-linejoin:miter;stroke:rgb(0%,0%,0%);stroke-opacity:1;stroke-miterlimit:10;" d="M 116.257812 67.25 C 116.257812 83.820312 102.828125 97.25 86.257812 97.25 C 69.691406 97.25 56.257812 83.820312 56.257812 67.25 C 56.257812 50.683594 69.691406 37.25 86.257812 37.25 C 102.828125 37.25 116.257812 50.683594 116.257812 67.25 "/>
</g>
</svg>
