<?xml version="1.0" encoding="UTF-8"?>
<svg xmlns="http://www.w3.org/2000/svg" xmlns:xlink="http://www.w3.org/1999/xlink" width="517pt" height="517pt" viewBox="0 0 517 517" version="1.1">
<g id="surface3881">
<rect x="0" y="0" width="517" height="517" style="fill:rgb(90%,90%,90%);fill-opacity:1;stroke:none;"/>
<path style="fill:none;stroke-width:5;stroke-linecap:butt;stroke-linejoin:round;stroke:rgb(100%,0%,0%);stroke-opacity:1;stroke-miterlimit:10;" d="M 5 5 L 261 5 L 261 261 L 5 261 Z M 5 5 "/>
<path style="fill-rule:nonzero;fill:rgb(100%,7%,57%);fill-opacity:1;stroke-width:1;stroke-linecap:butt;stroke-linejoin:round;stroke:rgb(0%,0%,0%);stroke-opacity:1;stroke-miterlimit:10;" d="M 154.042969 194.832031 C 154.042969 211.402344 140.609375 224.832031 124.042969 224.832031 C 107.472656 224.832031 94.042969 211.402344 94.042969 194.832031 C 94.042969 178.265625 107.472656 164.832031 124.042969 164.832031 C 140.609375 164.832031 154.042969 178.265625 154.042969 194.832031 "/>
<path style="fill-rule:nonzero;fill:rgb(100%,100%,0%);fill-opacity:1;stroke-width:1;stroke-linecap:butt;stroke-linejoin:round;stroke:rgb(0%,0%,0%);stroke-opacity:1;stroke-miterlimit:10;" d="M 354.710938 319.546875 C 354.710938 336.113281 341.28125 349.546875 324.710938 349.546875 C 308.144531 349.546875 294.710938 336.113281 294.710938 319.546875 C 294.710938 302.976562 308.144531 289.546875 324.710938 289.546875 C 341.28125 289.546875 354.710938 302.976562 354.710938 319.546875 "/>
<path style="fill-rule:nonzero;fill:rgb(100%,7%,57%);fill-opacity:1;stroke-width:1;stroke-linecap:butt;stroke-linejoin:round;stroke:rgb(0%,0%,0%);stroke-opacity:1;stroke-miterlimit:10;" d="M 505.324219 391.5 C 505.324219 408.066406 491.894531 421.5 475.324219 421.5 C 458.757812 421.5 445.324219 408.066406 445.324219 391.5 C 445.324219 374.929688 458.757812 361.5 475.324219 361.5 C 491.894531 361.5 505.324219 374.929688 505.324219 391.5 "/>
<path style="fill-rule:nonzero;fill:rgb(100%,7%,57%);fill-opacity:1;stroke-width:1;stroke-linecap:butt;stroke-linejoin:round;stroke:rgb(0%,0%,0%);stroke-opacity:1;stroke-miterlimit:10;" d="M 183.09375 414.066406 C 183.09375 430.636719 169.664062 444.066406 153.09375 444.066406 C 136.527344 444.066406 123.09375 430.636719 123.09375 414.066406 C 123.09375 397.5 136.527344 384.066406 153.09375 384.066406 C 169.664062 384.066406 183.09375 397.5 183.09375 414.066406 "/>
<path style="fill-rule:nonzero;fill:rgb(100%,7%,57%);fill-opacity:1;stroke-width:1;stroke-linecap:butt;stroke-linejoin:round;stroke:rgb(0%,0%,0%);stroke-opacity:1;stroke-miterlimit:10;" d="M 87.53125 446.992188 C 87.53125 463.558594 74.097656 476.992188 57.53125 476.992188 C 40.960938 476.992188 27.53125 463.558594 27.53125 446.992188 C 27.53125 430.421875 40.960938 416.992188 57.53125 416.992188 C 74.097656 416.992188 87.53125 430.421875 87.53125 446.992188 "/>
<path style="fill-rule:nonzero;fill:rgb(100%,7%,57%);fill-opacity:1;stroke-width:1;stroke-linecap:butt;stroke-linejoin:round;stroke:rgb(0%,0%,0%);stroke-opacity:1;stroke-miterlimit:10;" d="M 227.976562 349.230469 C 227.976562 365.800781 214.542969 379.230469 197.976562 379.230469 C 181.40625 379.230469 167.976562 365.800781 167.976562 349.230469 C 167.976562 332.664062 181.40625 319.230469 197.976562 319.230469 C 214.542969 319.230469 227.976562 332.664062 227.976562 349.230469 "/>
</g>
</svg>
