<?xml version="1.0" encoding="UTF-8"?>
<svg xmlns="http://www.w3.org/2000/svg" xmlns:xlink="http://www.w3.org/1999/xlink" width="517pt" height="517pt" viewBox="0 0 517 517" version="1.1">
<g id="surface3221">
<rect x="0" y="0" width="517" height="517" style="fill:rgb(90%,90%,90%);fill-opacity:1;stroke:none;"/>
<path style="fill:none;stroke-width:5;stroke-linecap:butt;stroke-linejoin:round;stroke:rgb(100%,0%,0%);stroke-opacity:1;stroke-miterlimit:10;" d="M 261 261 L 517 261 L 517 517 L 261 517 Z M 261 261 "/>
<path style="fill-rule:nonzero;fill:rgb(25%,88%,82%);fill-opacity:1;stroke-width:1;stroke-linecap:butt;stroke-linejoin:round;stroke:rgb(0%,0%,0%);stroke-opacity:1;stroke-miterlimit:10;" d="M 448.347656 385.421875 C 448.347656 401.988281 434.914062 415.421875 418.347656 415.421875 C 401.777344 415.421875 388.347656 401.988281 388.347656 385.421875 C 388.347656 368.851562 401.777344 355.421875 418.347656 355.421875 C 434.914062 355.421875 448.347656 368.851562 448.347656 385.421875 "/>
<path style="fill-rule:nonzero;fill:rgb(100%,7%,57%);fill-opacity:1;stroke-width:1;stroke-linecap:butt;stroke-linejoin:round;stroke:rgb(0%,0%,0%);stroke-opacity:1;stroke-miterlimit:10;" d="M 410.976562 50.101562 C 410.976562 66.671875 397.542969 80.101562 380.976562 80.101562 C 364.40625 80.101562 350.976562 66.671875 350.976562 50.101562 C 350.976562 33.535156 364.40625 20.101562 380.976562 20.101562 C 397.542969 20.101562 410.976562 33.535156 410.976562 50.101562 "/>
<path style="fill-rule:nonzero;fill:rgb(100%,7%,57%);fill-opacity:1;stroke-width:1;stroke-linecap:butt;stroke-linejoin:round;stroke:rgb(0%,0%,0%);stroke-opacity:1;stroke-miterlimit:10;" d="M 159.839844 397.472656 C 159.839844 414.042969 146.410156 427.472656 129.839844 427.472656 C 113.273438 427.472656 99.839844 414.042969 99.839844 397.472656 C 99.839844 380.90625 113.273438 367.472656 129.839844 367.472656 C 146.410156 367.472656 159.839844 380.90625 159.839844 397.472656 "/>
<path style="fill-rule:nonzero;fill:rgb(100%,7%,57%);fill-opacity:1;stroke-width:1;stroke-linecap:butt;stroke-linejoin:round;stroke:rgb(0%,0%,0%);stroke-opacity:1;stroke-miterlimit:10;" d="M 207.792969 307.171875 C 207.792969 323.738281 194.363281 337.171875 177.792969 337.171875 C 161.226562 337.171875 147.792969 323.738281 147.792969 307.171875 C 147.792969 290.601562 161.226562 277.171875 177.792969 277.171875 C 194.363281 277.171875 207.792969 290.601562 207.792969 307.171875 "/>
<path style="fill-rule:nonzero;fill:rgb(25%,88%,82%);fill-opacity:1;stroke-width:1;stroke-linecap:butt;stroke-linejoin:round;stroke:rgb(0%,0%,0%);stroke-opacity:1;stroke-miterlimit:10;" d="M 97.929688 429.210938 C 97.929688 445.78125 84.496094 459.210938 67.929688 459.210938 C 51.359375 459.210938 37.929688 445.78125 37.929688 429.210938 C 37.929688 412.640625 51.359375 399.210938 67.929688 399.210938 C 84.496094 399.210938 97.929688 412.640625 97.929688 429.210938 "/>
</g>
</svg>
