<?xml version="1.0" encoding="UTF-8"?>
<svg xmlns="http://www.w3.org/2000/svg" xmlns:xlink="http://www.w3.org/1999/xlink" width="517pt" height="517pt" viewBox="0 0 517 517" version="1.1">
<g id="surface8646">
<rect x="0" y="0" width="517" height="517" style="fill:rgb(90%,90%,90%);fill-opacity:1;stroke:none;"/>
<path style="fill:none;stroke-width:5;stroke-linecap:butt;stroke-linejoin:round;stroke:rgb(100%,0%,0%);stroke-opacity:1;stroke-miterlimit:10;" d="M 5 5 L 261 5 L 261 261 L 5 261 Z M 5 5 "/>
<path style="fill-rule:nonzero;fill:rgb(50%,0%,50%);fill-opacity:1;stroke-width:1;stroke-linecap:butt;stroke-linejoin:round;stroke:rgb(0%,0%,0%);stroke-opacity:1;stroke-miterlimit:10;" d="M 112.707031 54.160156 C 112.707031 70.726562 99.277344 84.160156 82.707031 84.160156 C 66.140625 84.160156 52.707031 70.726562 52.707031 54.160156 C 52.707031 37.589844 66.140625 24.160156 82.707031 24.160156 C 99.277344 24.160156 112.707031 37.589844 112.707031 54.160156 "/>
<path style="fill-rule:nonzero;fill:rgb(90%,65%,0%);fill-opacity:1;stroke-width:1;stroke-linecap:butt;stroke-linejoin:round;stroke:rgb(0%,0%,0%);stroke-opacity:1;stroke-miterlimit:10;" d="M 466.03125 48.914062 C 466.03125 65.484375 452.597656 78.914062 436.03125 78.914062 C 419.460938 78.914062 406.03125 65.484375 406.03125 48.914062 C 406.03125 32.347656 419.460938 18.914062 436.03125 18.914062 C 452.597656 18.914062 466.03125 32.347656 466.03125 48.914062 "/>
<path style="fill-rule:nonzero;fill:rgb(90%,65%,0%);fill-opacity:1;stroke-width:1;stroke-linecap:butt;stroke-linejoin:round;stroke:rgb(0%,0%,0%);stroke-opacity:1;stroke-miterlimit:10;" d="M 325.332031 42.960938 C 325.332031 59.527344 311.902344 72.960938 295.332031 72.960938 C 278.765625 72.960938 265.332031 59.527344 265.332031 42.960938 C 265.332031 26.390625 278.765625 12.960938 295.332031 12.960938 C 311.902344 12.960938 325.332031 26.390625 325.332031 42.960938 "/>
<path style="fill-rule:nonzero;fill:rgb(90%,65%,0%);fill-opacity:1;stroke-width:1;stroke-linecap:butt;stroke-linejoin:round;stroke:rgb(0%,0%,0%);stroke-opacity:1;stroke-miterlimit:10;" d="M 138.265625 335.289062 C 138.265625 351.855469 124.835938 365.289062 108.265625 365.289062 C 91.699219 365.289062 78.265625 351.855469 78.265625 335.289062 C 78.265625 318.71875 91.699219 305.289062 108.265625 305.289062 C 124.835938 305.289062 138.265625 318.71875 138.265625 335.289062 "/>
<path style="fill-rule:nonzero;fill:rgb(90%,65%,0%);fill-opacity:1;stroke-width:1;stroke-linecap:butt;stroke-linejoin:round;stroke:rgb(0%,0%,0%);stroke-opacity:1;stroke-miterlimit:10;" d="M 114.980469 458.488281 C 114.980469 475.054688 101.550781 488.488281 84.980469 488.488281 C 68.414062 488.488281 54.980469 475.054688 54.980469 458.488281 C 54.980469 441.917969 68.414062 428.488281 84.980469 428.488281 C 101.550781 428.488281 114.980469 441.917969 114.980469 458.488281 "/>
</g>
</svg>
