<?xml version="1.0" encoding="UTF-8"?>
<svg xmlns="http://www.w3.org/2000/svg" xmlns:xlink="http://www.w3.org/1999/xlink" width="517pt" height="517pt" viewBox="0 0 517 517" version="1.1">
<g id="surface3536">
<rect x="0" y="0" width="517" height="517" style="fill:rgb(90%,90%,90%);fill-opacity:1;stroke:none;"/>
<path style="fill:none;stroke-width:5;stroke-linecap:butt;stroke-linejoin:round;stroke:rgb(100%,0%,0%);stroke-opacity:1;stroke-miterlimit:10;" d="M 5 5 L 261 5 L 261 261 L 5 261 Z M 5 5 "/>
<path style="fill-rule:nonzero;fill:rgb(100%,0%,0%);fill-opacity:1;stroke-width:1;stroke-linecap:butt;stroke-linejoin:round;stroke:rgb(0%,0%,0%);stroke-opacity:1;stroke-miterlimit:10;" d="M 109.742188 170.078125 C 109.742188 186.648438 96.3125 200.078125 79.742188 200.078125 C 63.175781 200.078125 49.742188 186.648438 49.742188 170.078125 C 49.742188 153.511719 63.175781 140.078125 79.742188 140.078125 C 96.3125 140.078125 109.742188 153.511719 109.742188 170.078125 "/>
<path style="fill-rule:nonzero;fill:rgb(25%,88%,82%);fill-opacity:1;stroke-width:1;stroke-linecap:butt;stroke-linejoin:round;stroke:rgb(0%,0%,0%);stroke-opacity:1;stroke-miterlimit:10;" d="M 367.9375 300.273438 C 367.9375 316.839844 354.503906 330.273438 337.9375 330.273438 C 321.367188 330.273438 307.9375 316.839844 307.9375 300.273438 C 307.9375 283.703125 321.367188 270.273438 337.9375 270.273438 C 354.503906 270.273438 367.9375 283.703125 367.9375 300.273438 "/>
<path style="fill-rule:nonzero;fill:rgb(25%,88%,82%);fill-opacity:1;stroke-width:1;stroke-linecap:butt;stroke-linejoin:round;stroke:rgb(0%,0%,0%);stroke-opacity:1;stroke-miterlimit:10;" d="M 457.472656 204.804688 C 457.472656 221.375 444.042969 234.804688 427.472656 234.804688 C 410.90625 234.804688 397.472656 221.375 397.472656 204.804688 C 397.472656 188.238281 410.90625 174.804688 427.472656 174.804688 C 444.042969 174.804688 457.472656 188.238281 457.472656 204.804688 "/>
<path style="fill-rule:nonzero;fill:rgb(25%,88%,82%);fill-opacity:1;stroke-width:1;stroke-linecap:butt;stroke-linejoin:round;stroke:rgb(0%,0%,0%);stroke-opacity:1;stroke-miterlimit:10;" d="M 134.328125 471.851562 C 134.328125 488.421875 120.894531 501.851562 104.328125 501.851562 C 87.757812 501.851562 74.328125 488.421875 74.328125 471.851562 C 74.328125 455.285156 87.757812 441.851562 104.328125 441.851562 C 120.894531 441.851562 134.328125 455.285156 134.328125 471.851562 "/>
<path style="fill-rule:nonzero;fill:rgb(25%,88%,82%);fill-opacity:1;stroke-width:1;stroke-linecap:butt;stroke-linejoin:round;stroke:rgb(0%,0%,0%);stroke-opacity:1;stroke-miterlimit:10;" d="M 228.757812 318.007812 C 228.757812 334.578125 215.324219 348.007812 198.757812 348.007812 C 182.1875 348.007812 168.757812 334.578125 168.757812 318.007812 C 168.757812 301.441406 182.1875 288.007812 198.757812 288.007812 C 215.324219 288.007812 228.757812 301.441406 228.757812 318.007812 "/>
<path style="fill-rule:nonzero;fill:rgb(25%,88%,82%);fill-opacity:1;stroke-width:1;stroke-linecap:butt;stroke-linejoin:round;stroke:rgb(0%,0%,0%);stroke-opacity:1;stroke-miterlimit:10;" d="M 73.761719 429.363281 C 73.761719 445.929688 60.328125 459.363281 43.761719 459.363281 C 27.191406 459.363281 13.761719 445.929688 13.761719 429.363281 C 13.761719 412.792969 27.191406 399.363281 43.761719 399.363281 C 60.328125 399.363281 73.761719 412.792969 73.761719 429.363281 "/>
</g>
</svg>
