<?xml version="1.0" encoding="UTF-8"?>
<svg xmlns="http://www.w3.org/2000/svg" xmlns:xlink="http://www.w3.org/1999/xlink" width="517pt" height="517pt" viewBox="0 0 517 517" version="1.1">
<g id="surface3601">
<rect x="0" y="0" width="517" height="517" style="fill:rgb(90%,90%,90%);fill-opacity:1;stroke:none;"/>
<path style="fill:none;stroke-width:5;stroke-linecap:butt;stroke-linejoin:round;stroke:rgb(100%,0%,0%);stroke-opacity:1;stroke-miterlimit:10;" d="M 5 5 L 261 5 L 261 261 L 5 261 Z M 5 5 "/>
<path style="fill-rule:nonzero;fill:rgb(100%,100%,0%);fill-opacity:1;stroke-width:1;stroke-linecap:butt;stroke-linejoin:round;stroke:rgb(0%,0%,0%);stroke-opacity:1;stroke-miterlimit:10;" d="M 207.285156 55.222656 L 187.285156 55.222656 L 187.285156 65.222656 L 207.285156 65.222656 L 207.285156 85.222656 L 217.285156 85.222656 L 217.285156 65.222656 L 237.285156 65.222656 L 237.285156 55.222656 L 217.285156 55.222656 L 217.285156 35.222656 L 207.285156 35.222656 L 207.285156 55.222656 "/>
<path style="fill-rule:nonzero;fill:rgb(35%,70%,90%);fill-opacity:1;stroke-width:1;stroke-linecap:butt;stroke-linejoin:round;stroke:rgb(0%,0%,0%);stroke-opacity:1;stroke-miterlimit:10;" d="M 318.9375 381.679688 L 298.9375 381.679688 L 298.9375 391.679688 L 318.9375 391.679688 L 318.9375 411.679688 L 328.9375 411.679688 L 328.9375 391.679688 L 348.9375 391.679688 L 348.9375 381.679688 L 328.9375 381.679688 L 328.9375 361.679688 L 318.9375 361.679688 L 318.9375 381.679688 "/>
<path style="fill-rule:nonzero;fill:rgb(35%,70%,90%);fill-opacity:1;stroke-width:1;stroke-linecap:butt;stroke-linejoin:round;stroke:rgb(0%,0%,0%);stroke-opacity:1;stroke-miterlimit:10;" d="M 426.566406 431.074219 L 406.566406 431.074219 L 406.566406 441.074219 L 426.566406 441.074219 L 426.566406 461.074219 L 436.566406 461.074219 L 436.566406 441.074219 L 456.566406 441.074219 L 456.566406 431.074219 L 436.566406 431.074219 L 436.566406 411.074219 L 426.566406 411.074219 L 426.566406 431.074219 "/>
<path style="fill-rule:nonzero;fill:rgb(35%,70%,90%);fill-opacity:1;stroke-width:1;stroke-linecap:butt;stroke-linejoin:round;stroke:rgb(0%,0%,0%);stroke-opacity:1;stroke-miterlimit:10;" d="M 413.777344 42.917969 L 393.777344 42.917969 L 393.777344 52.917969 L 413.777344 52.917969 L 413.777344 72.917969 L 423.777344 72.917969 L 423.777344 52.917969 L 443.777344 52.917969 L 443.777344 42.917969 L 423.777344 42.917969 L 423.777344 22.917969 L 413.777344 22.917969 L 413.777344 42.917969 "/>
<path style="fill-rule:nonzero;fill:rgb(35%,70%,90%);fill-opacity:1;stroke-width:1;stroke-linecap:butt;stroke-linejoin:round;stroke:rgb(0%,0%,0%);stroke-opacity:1;stroke-miterlimit:10;" d="M 468.875 125.792969 L 448.875 125.792969 L 448.875 135.792969 L 468.875 135.792969 L 468.875 155.792969 L 478.875 155.792969 L 478.875 135.792969 L 498.875 135.792969 L 498.875 125.792969 L 478.875 125.792969 L 478.875 105.792969 L 468.875 105.792969 L 468.875 125.792969 "/>
<path style="fill-rule:nonzero;fill:rgb(35%,70%,90%);fill-opacity:1;stroke-width:1;stroke-linecap:butt;stroke-linejoin:round;stroke:rgb(0%,0%,0%);stroke-opacity:1;stroke-miterlimit:10;" d="M 204.863281 361.164062 L 184.863281 361.164062 L 184.863281 371.164062 L 204.863281 371.164062 L 204.863281 391.164062 L 214.863281 391.164062 L 214.863281 371.164062 L 234.863281 371.164062 L 234.863281 361.164062 L 214.863281 361.164062 L 214.863281 341.164062 L 204.863281 341.164062 L 204.863281 361.164062 "/>
</g>
</svg>
