<?xml version="1.0" encoding="UTF-8"?>
<svg xmlns="http://www.w3.org/2000/svg" xmlns:xlink="http://www.w3.org/1999/xlink" width="517pt" height="517pt" viewBox="0 0 517 517" version="1.1">
<g id="surface8996">
<rect x="0" y="0" width="517" height="517" style="fill:rgb(90%,90%,90%);fill-opacity:1;stroke:none;"/>
<path style="fill:none;stroke-width:5;stroke-linecap:butt;stroke-linejoin:round;stroke:rgb(100%,0%,0%);stroke-opacity:1;stroke-miterlimit:10;" d="M 5 5 L 261 5 L 261 261 L 5 261 Z M 5 5 "/>
<path style="fill-rule:nonzero;fill:rgb(100%,100%,0%);fill-opacity:1;stroke-width:1;stroke-linecap:butt;stroke-linejoin:round;stroke:rgb(0%,0%,0%);stroke-opacity:1;stroke-miterlimit:10;" d="M 209.324219 155.15625 L 189.324219 155.15625 L 189.324219 165.15625 L 209.324219 165.15625 L 209.324219 185.15625 L 219.324219 185.15625 L 219.324219 165.15625 L 239.324219 165.15625 L 239.324219 155.15625 L 219.324219 155.15625 L 219.324219 135.15625 L 209.324219 135.15625 L 209.324219 155.15625 "/>
<path style="fill-rule:nonzero;fill:rgb(50%,0%,50%);fill-opacity:1;stroke-width:1;stroke-linecap:butt;stroke-linejoin:round;stroke:rgb(0%,0%,0%);stroke-opacity:1;stroke-miterlimit:10;" d="M 51.339844 338.597656 L 31.339844 338.597656 L 31.339844 348.597656 L 51.339844 348.597656 L 51.339844 368.597656 L 61.339844 368.597656 L 61.339844 348.597656 L 81.339844 348.597656 L 81.339844 338.597656 L 61.339844 338.597656 L 61.339844 318.597656 L 51.339844 318.597656 L 51.339844 338.597656 "/>
<path style="fill-rule:nonzero;fill:rgb(50%,0%,50%);fill-opacity:1;stroke-width:1;stroke-linecap:butt;stroke-linejoin:round;stroke:rgb(0%,0%,0%);stroke-opacity:1;stroke-miterlimit:10;" d="M 121.070312 349.914062 L 101.070312 349.914062 L 101.070312 359.914062 L 121.070312 359.914062 L 121.070312 379.914062 L 131.070312 379.914062 L 131.070312 359.914062 L 151.070312 359.914062 L 151.070312 349.914062 L 131.070312 349.914062 L 131.070312 329.914062 L 121.070312 329.914062 L 121.070312 349.914062 "/>
<path style="fill-rule:nonzero;fill:rgb(50%,0%,50%);fill-opacity:1;stroke-width:1;stroke-linecap:butt;stroke-linejoin:round;stroke:rgb(0%,0%,0%);stroke-opacity:1;stroke-miterlimit:10;" d="M 368.691406 155.320312 L 348.691406 155.320312 L 348.691406 165.320312 L 368.691406 165.320312 L 368.691406 185.320312 L 378.691406 185.320312 L 378.691406 165.320312 L 398.691406 165.320312 L 398.691406 155.320312 L 378.691406 155.320312 L 378.691406 135.320312 L 368.691406 135.320312 L 368.691406 155.320312 "/>
<path style="fill-rule:nonzero;fill:rgb(50%,0%,50%);fill-opacity:1;stroke-width:1;stroke-linecap:butt;stroke-linejoin:round;stroke:rgb(0%,0%,0%);stroke-opacity:1;stroke-miterlimit:10;" d="M 437.011719 286.054688 L 417.011719 286.054688 L 417.011719 296.054688 L 437.011719 296.054688 L 437.011719 316.054688 L 447.011719 316.054688 L 447.011719 296.054688 L 467.011719 296.054688 L 467.011719 286.054688 L 447.011719 286.054688 L 447.011719 266.054688 L 437.011719 266.054688 L 437.011719 286.054688 "/>
</g>
</svg>
