<?xml version="1.0" encoding="UTF-8"?>
<svg xmlns="http://www.w3.org/2000/svg" xmlns:xlink="http://www.w3.org/1999/xlink" width="517pt" height="517pt" viewBox="0 0 517 517" version="1.1">
<g id="surface8936">
<rect x="0" y="0" width="517" height="517" style="fill:rgb(90%,90%,90%);fill-opacity:1;stroke:none;"/>
<path style="fill:none;stroke-width:5;stroke-linecap:butt;stroke-linejoin:round;stroke:rgb(100%,0%,0%);stroke-opacity:1;stroke-miterlimit:10;" d="M 261 261 L 517 261 L 517 517 L 261 517 Z M 261 261 "/>
<path style="fill-rule:nonzero;fill:rgb(0%,0%,0%);fill-opacity:1;stroke-width:1;stroke-linecap:butt;stroke-linejoin:round;stroke:rgb(0%,0%,0%);stroke-opacity:1;stroke-miterlimit:10;" d="M 457.589844 352.144531 C 457.589844 368.710938 444.160156 382.144531 427.589844 382.144531 C 411.023438 382.144531 397.589844 368.710938 397.589844 352.144531 C 397.589844 335.574219 411.023438 322.144531 427.589844 322.144531 C 444.160156 322.144531 457.589844 335.574219 457.589844 352.144531 "/>
<path style="fill-rule:nonzero;fill:rgb(100%,100%,0%);fill-opacity:1;stroke-width:1;stroke-linecap:butt;stroke-linejoin:round;stroke:rgb(0%,0%,0%);stroke-opacity:1;stroke-miterlimit:10;" d="M 190.074219 126.023438 C 190.074219 142.589844 176.640625 156.023438 160.074219 156.023438 C 143.503906 156.023438 130.074219 142.589844 130.074219 126.023438 C 130.074219 109.453125 143.503906 96.023438 160.074219 96.023438 C 176.640625 96.023438 190.074219 109.453125 190.074219 126.023438 "/>
<path style="fill-rule:nonzero;fill:rgb(100%,100%,0%);fill-opacity:1;stroke-width:1;stroke-linecap:butt;stroke-linejoin:round;stroke:rgb(0%,0%,0%);stroke-opacity:1;stroke-miterlimit:10;" d="M 122.480469 199.699219 C 122.480469 216.265625 109.050781 229.699219 92.480469 229.699219 C 75.914062 229.699219 62.480469 216.265625 62.480469 199.699219 C 62.480469 183.128906 75.914062 169.699219 92.480469 169.699219 C 109.050781 169.699219 122.480469 183.128906 122.480469 199.699219 "/>
<path style="fill-rule:nonzero;fill:rgb(100%,100%,0%);fill-opacity:1;stroke-width:1;stroke-linecap:butt;stroke-linejoin:round;stroke:rgb(0%,0%,0%);stroke-opacity:1;stroke-miterlimit:10;" d="M 361.546875 58.636719 C 361.546875 75.203125 348.117188 88.636719 331.546875 88.636719 C 314.980469 88.636719 301.546875 75.203125 301.546875 58.636719 C 301.546875 42.066406 314.980469 28.636719 331.546875 28.636719 C 348.117188 28.636719 361.546875 42.066406 361.546875 58.636719 "/>
<path style="fill-rule:nonzero;fill:rgb(100%,100%,0%);fill-opacity:1;stroke-width:1;stroke-linecap:butt;stroke-linejoin:round;stroke:rgb(0%,0%,0%);stroke-opacity:1;stroke-miterlimit:10;" d="M 245 370.304688 C 245 386.875 231.566406 400.304688 215 400.304688 C 198.429688 400.304688 185 386.875 185 370.304688 C 185 353.738281 198.429688 340.304688 215 340.304688 C 231.566406 340.304688 245 353.738281 245 370.304688 "/>
</g>
</svg>
