<?xml version="1.0" encoding="UTF-8"?>
<svg xmlns="http://www.w3.org/2000/svg" xmlns:xlink="http://www.w3.org/1999/xlink" width="517pt" height="517pt" viewBox="0 0 517 517" version="1.1">
<g id="surface8496">
<rect x="0" y="0" width="517" height="517" style="fill:rgb(90%,90%,90%);fill-opacity:1;stroke:none;"/>
<path style="fill:none;stroke-width:5;stroke-linecap:butt;stroke-linejoin:round;stroke:rgb(100%,0%,0%);stroke-opacity:1;stroke-miterlimit:10;" d="M 261 5 L 517 5 L 517 261 L 261 261 Z M 261 5 "/>
<path style="fill-rule:nonzero;fill:rgb(0%,0%,0%);fill-opacity:1;stroke-width:1;stroke-linecap:butt;stroke-linejoin:round;stroke:rgb(0%,0%,0%);stroke-opacity:1;stroke-miterlimit:10;" d="M 363.578125 201.777344 C 363.578125 218.347656 350.144531 231.777344 333.578125 231.777344 C 317.007812 231.777344 303.578125 218.347656 303.578125 201.777344 C 303.578125 185.210938 317.007812 171.777344 333.578125 171.777344 C 350.144531 171.777344 363.578125 185.210938 363.578125 201.777344 "/>
<path style="fill-rule:nonzero;fill:rgb(0%,0%,0%);fill-opacity:1;stroke-width:1;stroke-linecap:butt;stroke-linejoin:round;stroke:rgb(0%,0%,0%);stroke-opacity:1;stroke-miterlimit:10;" d="M 131.308594 293.5 C 131.308594 310.066406 117.878906 323.5 101.308594 323.5 C 84.742188 323.5 71.308594 310.066406 71.308594 293.5 C 71.308594 276.929688 84.742188 263.5 101.308594 263.5 C 117.878906 263.5 131.308594 276.929688 131.308594 293.5 "/>
<path style="fill-rule:nonzero;fill:rgb(0%,0%,0%);fill-opacity:1;stroke-width:1;stroke-linecap:butt;stroke-linejoin:round;stroke:rgb(0%,0%,0%);stroke-opacity:1;stroke-miterlimit:10;" d="M 207.332031 465.171875 C 207.332031 481.738281 193.902344 495.171875 177.332031 495.171875 C 160.765625 495.171875 147.332031 481.738281 147.332031 465.171875 C 147.332031 448.601562 160.765625 435.171875 177.332031 435.171875 C 193.902344 435.171875 207.332031 448.601562 207.332031 465.171875 "/>
<path style="fill-rule:nonzero;fill:rgb(0%,0%,0%);fill-opacity:1;stroke-width:1;stroke-linecap:butt;stroke-linejoin:round;stroke:rgb(0%,0%,0%);stroke-opacity:1;stroke-miterlimit:10;" d="M 202.609375 176.265625 C 202.609375 192.832031 189.179688 206.265625 172.609375 206.265625 C 156.042969 206.265625 142.609375 192.832031 142.609375 176.265625 C 142.609375 159.695312 156.042969 146.265625 172.609375 146.265625 C 189.179688 146.265625 202.609375 159.695312 202.609375 176.265625 "/>
<path style="fill-rule:nonzero;fill:rgb(0%,0%,0%);fill-opacity:1;stroke-width:1;stroke-linecap:butt;stroke-linejoin:round;stroke:rgb(0%,0%,0%);stroke-opacity:1;stroke-miterlimit:10;" d="M 123.285156 75.496094 C 123.285156 92.066406 109.851562 105.496094 93.285156 105.496094 C 76.714844 105.496094 63.285156 92.066406 63.285156 75.496094 C 63.285156 58.929688 76.714844 45.496094 93.285156 45.496094 C 109.851562 45.496094 123.285156 58.929688 123.285156 75.496094 "/>
<path style="fill-rule:nonzero;fill:rgb(0%,0%,0%);fill-opacity:1;stroke-width:1;stroke-linecap:butt;stroke-linejoin:round;stroke:rgb(0%,0%,0%);stroke-opacity:1;stroke-miterlimit:10;" d="M 238.957031 126.855469 C 238.957031 143.421875 225.527344 156.855469 208.957031 156.855469 C 192.386719 156.855469 178.957031 143.421875 178.957031 126.855469 C 178.957031 110.285156 192.386719 96.855469 208.957031 96.855469 C 225.527344 96.855469 238.957031 110.285156 238.957031 126.855469 "/>
</g>
</svg>
