<?xml version="1.0" encoding="UTF-8"?>
<svg xmlns="http://www.w3.org/2000/svg" xmlns:xlink="http://www.w3.org/1999/xlink" width="517pt" height="517pt" viewBox="0 0 517 517" version="1.1">
<g id="surface3851">
<rect x="0" y="0" width="517" height="517" style="fill:rgb(90%,90%,90%);fill-opacity:1;stroke:none;"/>
<path style="fill:none;stroke-width:5;stroke-linecap:butt;stroke-linejoin:round;stroke:rgb(100%,0%,0%);stroke-opacity:1;stroke-miterlimit:10;" d="M 5 5 L 261 5 L 261 261 L 5 261 Z M 5 5 "/>
<path style="fill-rule:nonzero;fill:rgb(100%,7%,57%);fill-opacity:1;stroke-width:1;stroke-linecap:butt;stroke-linejoin:round;stroke:rgb(0%,0%,0%);stroke-opacity:1;stroke-miterlimit:10;" d="M 127.457031 103.257812 C 127.457031 119.824219 114.027344 133.257812 97.457031 133.257812 C 80.890625 133.257812 67.457031 119.824219 67.457031 103.257812 C 67.457031 86.6875 80.890625 73.257812 97.457031 73.257812 C 114.027344 73.257812 127.457031 86.6875 127.457031 103.257812 "/>
<path style="fill-rule:nonzero;fill:rgb(100%,100%,0%);fill-opacity:1;stroke-width:1;stroke-linecap:butt;stroke-linejoin:round;stroke:rgb(0%,0%,0%);stroke-opacity:1;stroke-miterlimit:10;" d="M 335.519531 305.644531 C 335.519531 322.214844 322.089844 335.644531 305.519531 335.644531 C 288.953125 335.644531 275.519531 322.214844 275.519531 305.644531 C 275.519531 289.078125 288.953125 275.644531 305.519531 275.644531 C 322.089844 275.644531 335.519531 289.078125 335.519531 305.644531 "/>
<path style="fill-rule:nonzero;fill:rgb(100%,100%,0%);fill-opacity:1;stroke-width:1;stroke-linecap:butt;stroke-linejoin:round;stroke:rgb(0%,0%,0%);stroke-opacity:1;stroke-miterlimit:10;" d="M 438.285156 92.410156 C 438.285156 108.980469 424.855469 122.410156 408.285156 122.410156 C 391.71875 122.410156 378.285156 108.980469 378.285156 92.410156 C 378.285156 75.84375 391.71875 62.410156 408.285156 62.410156 C 424.855469 62.410156 438.285156 75.84375 438.285156 92.410156 "/>
<path style="fill-rule:nonzero;fill:rgb(100%,100%,0%);fill-opacity:1;stroke-width:1;stroke-linecap:butt;stroke-linejoin:round;stroke:rgb(0%,0%,0%);stroke-opacity:1;stroke-miterlimit:10;" d="M 422.726562 201.90625 C 422.726562 218.472656 409.296875 231.90625 392.726562 231.90625 C 376.160156 231.90625 362.726562 218.472656 362.726562 201.90625 C 362.726562 185.335938 376.160156 171.90625 392.726562 171.90625 C 409.296875 171.90625 422.726562 185.335938 422.726562 201.90625 "/>
<path style="fill-rule:nonzero;fill:rgb(100%,100%,0%);fill-opacity:1;stroke-width:1;stroke-linecap:butt;stroke-linejoin:round;stroke:rgb(0%,0%,0%);stroke-opacity:1;stroke-miterlimit:10;" d="M 484.328125 52.351562 C 484.328125 68.917969 470.898438 82.351562 454.328125 82.351562 C 437.761719 82.351562 424.328125 68.917969 424.328125 52.351562 C 424.328125 35.78125 437.761719 22.351562 454.328125 22.351562 C 470.898438 22.351562 484.328125 35.78125 484.328125 52.351562 "/>
<path style="fill-rule:nonzero;fill:rgb(100%,100%,0%);fill-opacity:1;stroke-width:1;stroke-linecap:butt;stroke-linejoin:round;stroke:rgb(0%,0%,0%);stroke-opacity:1;stroke-miterlimit:10;" d="M 326.320312 171.257812 C 326.320312 187.824219 312.886719 201.257812 296.320312 201.257812 C 279.75 201.257812 266.320312 187.824219 266.320312 171.257812 C 266.320312 154.6875 279.75 141.257812 296.320312 141.257812 C 312.886719 141.257812 326.320312 154.6875 326.320312 171.257812 "/>
</g>
</svg>
