<?xml version="1.0" encoding="UTF-8"?>
<svg xmlns="http://www.w3.org/2000/svg" xmlns:xlink="http://www.w3.org/1999/xlink" width="517pt" height="517pt" viewBox="0 0 517 517" version="1.1">
<g id="surface3301">
<rect x="0" y="0" width="517" height="517" style="fill:rgb(90%,90%,90%);fill-opacity:1;stroke:none;"/>
<path style="fill:none;stroke-width:5;stroke-linecap:butt;stroke-linejoin:round;stroke:rgb(100%,0%,0%);stroke-opacity:1;stroke-miterlimit:10;" d="M 261 261 L 517 261 L 517 517 L 261 517 Z M 261 261 "/>
<path style="fill-rule:nonzero;fill:rgb(90%,65%,0%);fill-opacity:1;stroke-width:1;stroke-linecap:butt;stroke-linejoin:round;stroke:rgb(0%,0%,0%);stroke-opacity:1;stroke-miterlimit:10;" d="M 430.972656 430.40625 L 410.972656 430.40625 L 410.972656 440.40625 L 430.972656 440.40625 L 430.972656 460.40625 L 440.972656 460.40625 L 440.972656 440.40625 L 460.972656 440.40625 L 460.972656 430.40625 L 440.972656 430.40625 L 440.972656 410.40625 L 430.972656 410.40625 L 430.972656 430.40625 "/>
<path style="fill-rule:nonzero;fill:rgb(35%,70%,90%);fill-opacity:1;stroke-width:1;stroke-linecap:butt;stroke-linejoin:round;stroke:rgb(0%,0%,0%);stroke-opacity:1;stroke-miterlimit:10;" d="M 213.535156 208.054688 L 193.535156 208.054688 L 193.535156 218.054688 L 213.535156 218.054688 L 213.535156 238.054688 L 223.535156 238.054688 L 223.535156 218.054688 L 243.535156 218.054688 L 243.535156 208.054688 L 223.535156 208.054688 L 223.535156 188.054688 L 213.535156 188.054688 L 213.535156 208.054688 "/>
<path style="fill-rule:nonzero;fill:rgb(35%,70%,90%);fill-opacity:1;stroke-width:1;stroke-linecap:butt;stroke-linejoin:round;stroke:rgb(0%,0%,0%);stroke-opacity:1;stroke-miterlimit:10;" d="M 375.707031 38.894531 L 355.707031 38.894531 L 355.707031 48.894531 L 375.707031 48.894531 L 375.707031 68.894531 L 385.707031 68.894531 L 385.707031 48.894531 L 405.707031 48.894531 L 405.707031 38.894531 L 385.707031 38.894531 L 385.707031 18.894531 L 375.707031 18.894531 L 375.707031 38.894531 "/>
<path style="fill-rule:nonzero;fill:rgb(35%,70%,90%);fill-opacity:1;stroke-width:1;stroke-linecap:butt;stroke-linejoin:round;stroke:rgb(0%,0%,0%);stroke-opacity:1;stroke-miterlimit:10;" d="M 295.964844 200.253906 L 275.964844 200.253906 L 275.964844 210.253906 L 295.964844 210.253906 L 295.964844 230.253906 L 305.964844 230.253906 L 305.964844 210.253906 L 325.964844 210.253906 L 325.964844 200.253906 L 305.964844 200.253906 L 305.964844 180.253906 L 295.964844 180.253906 L 295.964844 200.253906 "/>
<path style="fill-rule:nonzero;fill:rgb(90%,65%,0%);fill-opacity:1;stroke-width:1;stroke-linecap:butt;stroke-linejoin:round;stroke:rgb(0%,0%,0%);stroke-opacity:1;stroke-miterlimit:10;" d="M 391.660156 145.875 L 371.660156 145.875 L 371.660156 155.875 L 391.660156 155.875 L 391.660156 175.875 L 401.660156 175.875 L 401.660156 155.875 L 421.660156 155.875 L 421.660156 145.875 L 401.660156 145.875 L 401.660156 125.875 L 391.660156 125.875 L 391.660156 145.875 "/>
</g>
</svg>
