<?xml version="1.0" encoding="UTF-8"?>
<svg xmlns="http://www.w3.org/2000/svg" xmlns:xlink="http://www.w3.org/1999/xlink" width="517pt" height="517pt" viewBox="0 0 517 517" version="1.1">
<g id="surface3251">
<rect x="0" y="0" width="517" height="517" style="fill:rgb(90%,90%,90%);fill-opacity:1;stroke:none;"/>
<path style="fill:none;stroke-width:5;stroke-linecap:butt;stroke-linejoin:round;stroke:rgb(100%,0%,0%);stroke-opacity:1;stroke-miterlimit:10;" d="M 261 261 L 517 261 L 517 517 L 261 517 Z M 261 261 "/>
<path style="fill-rule:nonzero;fill:rgb(25%,88%,82%);fill-opacity:1;stroke-width:1;stroke-linecap:butt;stroke-linejoin:round;stroke:rgb(0%,0%,0%);stroke-opacity:1;stroke-miterlimit:10;" d="M 333.921875 352.101562 C 333.921875 368.671875 320.492188 382.101562 303.921875 382.101562 C 287.355469 382.101562 273.921875 368.671875 273.921875 352.101562 C 273.921875 335.535156 287.355469 322.101562 303.921875 322.101562 C 320.492188 322.101562 333.921875 335.535156 333.921875 352.101562 "/>
<path style="fill-rule:nonzero;fill:rgb(100%,7%,57%);fill-opacity:1;stroke-width:1;stroke-linecap:butt;stroke-linejoin:round;stroke:rgb(0%,0%,0%);stroke-opacity:1;stroke-miterlimit:10;" d="M 183.972656 116.128906 C 183.972656 132.699219 170.539062 146.128906 153.972656 146.128906 C 137.402344 146.128906 123.972656 132.699219 123.972656 116.128906 C 123.972656 99.5625 137.402344 86.128906 153.972656 86.128906 C 170.539062 86.128906 183.972656 99.5625 183.972656 116.128906 "/>
<path style="fill-rule:nonzero;fill:rgb(25%,88%,82%);fill-opacity:1;stroke-width:1;stroke-linecap:butt;stroke-linejoin:round;stroke:rgb(0%,0%,0%);stroke-opacity:1;stroke-miterlimit:10;" d="M 195.726562 400.660156 C 195.726562 417.230469 182.296875 430.660156 165.726562 430.660156 C 149.160156 430.660156 135.726562 417.230469 135.726562 400.660156 C 135.726562 384.09375 149.160156 370.660156 165.726562 370.660156 C 182.296875 370.660156 195.726562 384.09375 195.726562 400.660156 "/>
<path style="fill-rule:nonzero;fill:rgb(25%,88%,82%);fill-opacity:1;stroke-width:1;stroke-linecap:butt;stroke-linejoin:round;stroke:rgb(0%,0%,0%);stroke-opacity:1;stroke-miterlimit:10;" d="M 108.78125 367.765625 C 108.78125 384.335938 95.347656 397.765625 78.78125 397.765625 C 62.210938 397.765625 48.78125 384.335938 48.78125 367.765625 C 48.78125 351.195312 62.210938 337.765625 78.78125 337.765625 C 95.347656 337.765625 108.78125 351.195312 108.78125 367.765625 "/>
<path style="fill-rule:nonzero;fill:rgb(25%,88%,82%);fill-opacity:1;stroke-width:1;stroke-linecap:butt;stroke-linejoin:round;stroke:rgb(0%,0%,0%);stroke-opacity:1;stroke-miterlimit:10;" d="M 124.636719 456.679688 C 124.636719 473.25 111.207031 486.679688 94.636719 486.679688 C 78.070312 486.679688 64.636719 473.25 64.636719 456.679688 C 64.636719 440.113281 78.070312 426.679688 94.636719 426.679688 C 111.207031 426.679688 124.636719 440.113281 124.636719 456.679688 "/>
</g>
</svg>
