<?xml version="1.0" encoding="UTF-8"?>
<svg xmlns="http://www.w3.org/2000/svg" xmlns:xlink="http://www.w3.org/1999/xlink" width="517pt" height="517pt" viewBox="0 0 517 517" version="1.1">
<g id="surface5396">
<rect x="0" y="0" width="517" height="517" style="fill:rgb(90%,90%,90%);fill-opacity:1;stroke:none;"/>
<path style="fill-rule:nonzero;fill:rgb(100%,100%,0%);fill-opacity:1;stroke-width:1;stroke-linecap:butt;stroke-linejoin:miter;stroke:rgb(0%,0%,0%);stroke-opacity:1;stroke-miterlimit:10;" d="M 223.957031 291.527344 C 223.957031 308.097656 210.523438 321.527344 193.957031 321.527344 C 177.386719 321.527344 163.957031 308.097656 163.957031 291.527344 C 163.957031 274.960938 177.386719 261.527344 193.957031 261.527344 C 210.523438 261.527344 223.957031 274.960938 223.957031 291.527344 "/>
<path style="fill-rule:nonzero;fill:rgb(100%,100%,0%);fill-opacity:1;stroke-width:1;stroke-linecap:butt;stroke-linejoin:miter;stroke:rgb(0%,0%,0%);stroke-opacity:1;stroke-miterlimit:10;" d="M 124.140625 411.910156 C 124.140625 428.480469 110.707031 441.910156 94.140625 441.910156 C 77.570312 441.910156 64.140625 428.480469 64.140625 411.910156 C 64.140625 395.34375 77.570312 381.910156 94.140625 381.910156 C 110.707031 381.910156 124.140625 395.34375 124.140625 411.910156 "/>
<path style="fill-rule:nonzero;fill:rgb(100%,100%,0%);fill-opacity:1;stroke-width:1;stroke-linecap:butt;stroke-linejoin:miter;stroke:rgb(0%,0%,0%);stroke-opacity:1;stroke-miterlimit:10;" d="M 481.765625 36.210938 C 481.765625 52.78125 468.335938 66.210938 451.765625 66.210938 C 435.199219 66.210938 421.765625 52.78125 421.765625 36.210938 C 421.765625 19.640625 435.199219 6.210938 451.765625 6.210938 C 468.335938 6.210938 481.765625 19.640625 481.765625 36.210938 "/>
<path style="fill-rule:nonzero;fill:rgb(0%,0%,0%);fill-opacity:1;stroke-width:1;stroke-linecap:butt;stroke-linejoin:miter;stroke:rgb(0%,0%,0%);stroke-opacity:1;stroke-miterlimit:10;" d="M 331.035156 152.5625 C 331.035156 169.128906 317.601562 182.5625 301.035156 182.5625 C 284.464844 182.5625 271.035156 169.128906 271.035156 152.5625 C 271.035156 135.992188 284.464844 122.5625 301.035156 122.5625 C 317.601562 122.5625 331.035156 135.992188 331.035156 152.5625 "/>
<path style="fill-rule:nonzero;fill:rgb(0%,0%,0%);fill-opacity:1;stroke-width:1;stroke-linecap:butt;stroke-linejoin:miter;stroke:rgb(0%,0%,0%);stroke-opacity:1;stroke-miterlimit:10;" d="M 392.972656 180.03125 C 392.972656 196.597656 379.539062 210.03125 362.972656 210.03125 C 346.402344 210.03125 332.972656 196.597656 332.972656 180.03125 C 332.972656 163.460938 346.402344 150.03125 362.972656 150.03125 C 379.539062 150.03125 392.972656 163.460938 392.972656 180.03125 "/>
<path style="fill-rule:nonzero;fill:rgb(0%,0%,0%);fill-opacity:1;stroke-width:1;stroke-linecap:butt;stroke-linejoin:miter;stroke:rgb(0%,0%,0%);stroke-opacity:1;stroke-miterlimit:10;" d="M 364.511719 84.992188 C 364.511719 101.5625 351.078125 114.992188 334.511719 114.992188 C 317.941406 114.992188 304.511719 101.5625 304.511719 84.992188 C 304.511719 68.421875 317.941406 54.992188 334.511719 54.992188 C 351.078125 54.992188 364.511719 68.421875 364.511719 84.992188 "/>
<path style="fill-rule:nonzero;fill:rgb(0%,0%,0%);fill-opacity:1;stroke-width:1;stroke-linecap:butt;stroke-linejoin:miter;stroke:rgb(0%,0%,0%);stroke-opacity:1;stroke-miterlimit:10;" d="M 490.339844 144.308594 C 490.339844 160.878906 476.90625 174.308594 460.339844 174.308594 C 443.769531 174.308594 430.339844 160.878906 430.339844 144.308594 C 430.339844 127.742188 443.769531 114.308594 460.339844 114.308594 C 476.90625 114.308594 490.339844 127.742188 490.339844 144.308594 "/>
<path style="fill-rule:nonzero;fill:rgb(0%,0%,0%);fill-opacity:1;stroke-width:1;stroke-linecap:butt;stroke-linejoin:miter;stroke:rgb(0%,0%,0%);stroke-opacity:1;stroke-miterlimit:10;" d="M 419.894531 110.929688 C 419.894531 127.496094 406.464844 140.929688 389.894531 140.929688 C 373.328125 140.929688 359.894531 127.496094 359.894531 110.929688 C 359.894531 94.359375 373.328125 80.929688 389.894531 80.929688 C 406.464844 80.929688 419.894531 94.359375 419.894531 110.929688 "/>
</g>
</svg>
