<?xml version="1.0" encoding="UTF-8"?>
<svg xmlns="http://www.w3.org/2000/svg" xmlns:xlink="http://www.w3.org/1999/xlink" width="517pt" height="517pt" viewBox="0 0 517 517" version="1.1">
<g id="surface3866">
<rect x="0" y="0" width="517" height="517" style="fill:rgb(90%,90%,90%);fill-opacity:1;stroke:none;"/>
<path style="fill:none;stroke-width:5;stroke-linecap:butt;stroke-linejoin:round;stroke:rgb(100%,0%,0%);stroke-opacity:1;stroke-miterlimit:10;" d="M 5 5 L 261 5 L 261 261 L 5 261 Z M 5 5 "/>
<path style="fill-rule:nonzero;fill:rgb(100%,7%,57%);fill-opacity:1;stroke-width:1;stroke-linecap:butt;stroke-linejoin:round;stroke:rgb(0%,0%,0%);stroke-opacity:1;stroke-miterlimit:10;" d="M 241.820312 57.496094 C 241.820312 74.0625 228.390625 87.496094 211.820312 87.496094 C 195.253906 87.496094 181.820312 74.0625 181.820312 57.496094 C 181.820312 40.925781 195.253906 27.496094 211.820312 27.496094 C 228.390625 27.496094 241.820312 40.925781 241.820312 57.496094 "/>
<path style="fill-rule:nonzero;fill:rgb(100%,100%,0%);fill-opacity:1;stroke-width:1;stroke-linecap:butt;stroke-linejoin:round;stroke:rgb(0%,0%,0%);stroke-opacity:1;stroke-miterlimit:10;" d="M 205.78125 364.703125 C 205.78125 381.269531 192.347656 394.703125 175.78125 394.703125 C 159.210938 394.703125 145.78125 381.269531 145.78125 364.703125 C 145.78125 348.132812 159.210938 334.703125 175.78125 334.703125 C 192.347656 334.703125 205.78125 348.132812 205.78125 364.703125 "/>
<path style="fill-rule:nonzero;fill:rgb(100%,100%,0%);fill-opacity:1;stroke-width:1;stroke-linecap:butt;stroke-linejoin:round;stroke:rgb(0%,0%,0%);stroke-opacity:1;stroke-miterlimit:10;" d="M 187.390625 439.410156 C 187.390625 455.976562 173.957031 469.410156 157.390625 469.410156 C 140.820312 469.410156 127.390625 455.976562 127.390625 439.410156 C 127.390625 422.839844 140.820312 409.410156 157.390625 409.410156 C 173.957031 409.410156 187.390625 422.839844 187.390625 439.410156 "/>
<path style="fill-rule:nonzero;fill:rgb(100%,100%,0%);fill-opacity:1;stroke-width:1;stroke-linecap:butt;stroke-linejoin:round;stroke:rgb(0%,0%,0%);stroke-opacity:1;stroke-miterlimit:10;" d="M 472.148438 308.296875 C 472.148438 324.863281 458.714844 338.296875 442.148438 338.296875 C 425.578125 338.296875 412.148438 324.863281 412.148438 308.296875 C 412.148438 291.726562 425.578125 278.296875 442.148438 278.296875 C 458.714844 278.296875 472.148438 291.726562 472.148438 308.296875 "/>
<path style="fill-rule:nonzero;fill:rgb(100%,100%,0%);fill-opacity:1;stroke-width:1;stroke-linecap:butt;stroke-linejoin:round;stroke:rgb(0%,0%,0%);stroke-opacity:1;stroke-miterlimit:10;" d="M 409.679688 117.109375 C 409.679688 133.675781 396.246094 147.109375 379.679688 147.109375 C 363.109375 147.109375 349.679688 133.675781 349.679688 117.109375 C 349.679688 100.539062 363.109375 87.109375 379.679688 87.109375 C 396.246094 87.109375 409.679688 100.539062 409.679688 117.109375 "/>
<path style="fill-rule:nonzero;fill:rgb(100%,7%,57%);fill-opacity:1;stroke-width:1;stroke-linecap:butt;stroke-linejoin:round;stroke:rgb(0%,0%,0%);stroke-opacity:1;stroke-miterlimit:10;" d="M 492.34375 59.222656 C 492.34375 75.792969 478.910156 89.222656 462.34375 89.222656 C 445.773438 89.222656 432.34375 75.792969 432.34375 59.222656 C 432.34375 42.65625 445.773438 29.222656 462.34375 29.222656 C 478.910156 29.222656 492.34375 42.65625 492.34375 59.222656 "/>
</g>
</svg>
