<?xml version="1.0" encoding="UTF-8"?>
<svg xmlns="http://www.w3.org/2000/svg" xmlns:xlink="http://www.w3.org/1999/xlink" width="517pt" height="517pt" viewBox="0 0 517 517" version="1.1">
<g id="surface3211">
<rect x="0" y="0" width="517" height="517" style="fill:rgb(90%,90%,90%);fill-opacity:1;stroke:none;"/>
<path style="fill:none;stroke-width:5;stroke-linecap:butt;stroke-linejoin:round;stroke:rgb(100%,0%,0%);stroke-opacity:1;stroke-miterlimit:10;" d="M 261 261 L 517 261 L 517 517 L 261 517 Z M 261 261 "/>
<path style="fill-rule:nonzero;fill:rgb(25%,88%,82%);fill-opacity:1;stroke-width:1;stroke-linecap:butt;stroke-linejoin:round;stroke:rgb(0%,0%,0%);stroke-opacity:1;stroke-miterlimit:10;" d="M 330.402344 468.429688 C 330.402344 485 316.96875 498.429688 300.402344 498.429688 C 283.832031 498.429688 270.402344 485 270.402344 468.429688 C 270.402344 451.863281 283.832031 438.429688 300.402344 438.429688 C 316.96875 438.429688 330.402344 451.863281 330.402344 468.429688 "/>
<path style="fill-rule:nonzero;fill:rgb(100%,7%,57%);fill-opacity:1;stroke-width:1;stroke-linecap:butt;stroke-linejoin:round;stroke:rgb(0%,0%,0%);stroke-opacity:1;stroke-miterlimit:10;" d="M 430.023438 131.128906 C 430.023438 147.699219 416.59375 161.128906 400.023438 161.128906 C 383.457031 161.128906 370.023438 147.699219 370.023438 131.128906 C 370.023438 114.5625 383.457031 101.128906 400.023438 101.128906 C 416.59375 101.128906 430.023438 114.5625 430.023438 131.128906 "/>
<path style="fill-rule:nonzero;fill:rgb(100%,7%,57%);fill-opacity:1;stroke-width:1;stroke-linecap:butt;stroke-linejoin:round;stroke:rgb(0%,0%,0%);stroke-opacity:1;stroke-miterlimit:10;" d="M 376.695312 59.117188 C 376.695312 75.6875 363.265625 89.117188 346.695312 89.117188 C 330.125 89.117188 316.695312 75.6875 316.695312 59.117188 C 316.695312 42.550781 330.125 29.117188 346.695312 29.117188 C 363.265625 29.117188 376.695312 42.550781 376.695312 59.117188 "/>
<path style="fill-rule:nonzero;fill:rgb(100%,7%,57%);fill-opacity:1;stroke-width:1;stroke-linecap:butt;stroke-linejoin:round;stroke:rgb(0%,0%,0%);stroke-opacity:1;stroke-miterlimit:10;" d="M 72.058594 146.011719 C 72.058594 162.578125 58.625 176.011719 42.058594 176.011719 C 25.488281 176.011719 12.058594 162.578125 12.058594 146.011719 C 12.058594 129.441406 25.488281 116.011719 42.058594 116.011719 C 58.625 116.011719 72.058594 129.441406 72.058594 146.011719 "/>
<path style="fill-rule:nonzero;fill:rgb(100%,7%,57%);fill-opacity:1;stroke-width:1;stroke-linecap:butt;stroke-linejoin:round;stroke:rgb(0%,0%,0%);stroke-opacity:1;stroke-miterlimit:10;" d="M 142.066406 201.753906 C 142.066406 218.324219 128.636719 231.753906 112.066406 231.753906 C 95.5 231.753906 82.066406 218.324219 82.066406 201.753906 C 82.066406 185.183594 95.5 171.753906 112.066406 171.753906 C 128.636719 171.753906 142.066406 185.183594 142.066406 201.753906 "/>
</g>
</svg>
