<?xml version="1.0" encoding="UTF-8"?>
<svg xmlns="http://www.w3.org/2000/svg" xmlns:xlink="http://www.w3.org/1999/xlink" width="517pt" height="517pt" viewBox="0 0 517 517" version="1.1">
<g id="surface8616">
<rect x="0" y="0" width="517" height="517" style="fill:rgb(90%,90%,90%);fill-opacity:1;stroke:none;"/>
<path style="fill:none;stroke-width:5;stroke-linecap:butt;stroke-linejoin:round;stroke:rgb(100%,0%,0%);stroke-opacity:1;stroke-miterlimit:10;" d="M 261 261 L 517 261 L 517 517 L 261 517 Z M 261 261 "/>
<path style="fill-rule:nonzero;fill:rgb(90%,65%,0%);fill-opacity:1;stroke-width:1;stroke-linecap:butt;stroke-linejoin:round;stroke:rgb(0%,0%,0%);stroke-opacity:1;stroke-miterlimit:10;" d="M 403.195312 335.898438 C 403.195312 352.46875 389.761719 365.898438 373.195312 365.898438 C 356.625 365.898438 343.195312 352.46875 343.195312 335.898438 C 343.195312 319.332031 356.625 305.898438 373.195312 305.898438 C 389.761719 305.898438 403.195312 319.332031 403.195312 335.898438 "/>
<path style="fill-rule:nonzero;fill:rgb(50%,0%,50%);fill-opacity:1;stroke-width:1;stroke-linecap:butt;stroke-linejoin:round;stroke:rgb(0%,0%,0%);stroke-opacity:1;stroke-miterlimit:10;" d="M 218.9375 392.382812 C 218.9375 408.949219 205.503906 422.382812 188.9375 422.382812 C 172.367188 422.382812 158.9375 408.949219 158.9375 392.382812 C 158.9375 375.8125 172.367188 362.382812 188.9375 362.382812 C 205.503906 362.382812 218.9375 375.8125 218.9375 392.382812 "/>
<path style="fill-rule:nonzero;fill:rgb(50%,0%,50%);fill-opacity:1;stroke-width:1;stroke-linecap:butt;stroke-linejoin:round;stroke:rgb(0%,0%,0%);stroke-opacity:1;stroke-miterlimit:10;" d="M 159.660156 421.078125 C 159.660156 437.648438 146.230469 451.078125 129.660156 451.078125 C 113.09375 451.078125 99.660156 437.648438 99.660156 421.078125 C 99.660156 404.507812 113.09375 391.078125 129.660156 391.078125 C 146.230469 391.078125 159.660156 404.507812 159.660156 421.078125 "/>
<path style="fill-rule:nonzero;fill:rgb(50%,0%,50%);fill-opacity:1;stroke-width:1;stroke-linecap:butt;stroke-linejoin:round;stroke:rgb(0%,0%,0%);stroke-opacity:1;stroke-miterlimit:10;" d="M 354.300781 174.539062 C 354.300781 191.105469 340.871094 204.539062 324.300781 204.539062 C 307.734375 204.539062 294.300781 191.105469 294.300781 174.539062 C 294.300781 157.96875 307.734375 144.539062 324.300781 144.539062 C 340.871094 144.539062 354.300781 157.96875 354.300781 174.539062 "/>
<path style="fill-rule:nonzero;fill:rgb(50%,0%,50%);fill-opacity:1;stroke-width:1;stroke-linecap:butt;stroke-linejoin:round;stroke:rgb(0%,0%,0%);stroke-opacity:1;stroke-miterlimit:10;" d="M 419.058594 48.242188 C 419.058594 64.808594 405.628906 78.242188 389.058594 78.242188 C 372.492188 78.242188 359.058594 64.808594 359.058594 48.242188 C 359.058594 31.671875 372.492188 18.242188 389.058594 18.242188 C 405.628906 18.242188 419.058594 31.671875 419.058594 48.242188 "/>
</g>
</svg>
