<?xml version="1.0" encoding="UTF-8"?>
<svg xmlns="http://www.w3.org/2000/svg" xmlns:xlink="http://www.w3.org/1999/xlink" width="517pt" height="517pt" viewBox="0 0 517 517" version="1.1">
<g id="surface3276">
<rect x="0" y="0" width="517" height="517" style="fill:rgb(90%,90%,90%);fill-opacity:1;stroke:none;"/>
<path style="fill:none;stroke-width:5;stroke-linecap:butt;stroke-linejoin:round;stroke:rgb(100%,0%,0%);stroke-opacity:1;stroke-miterlimit:10;" d="M 261 261 L 517 261 L 517 517 L 261 517 Z M 261 261 "/>
<path style="fill-rule:nonzero;fill:rgb(100%,7%,57%);fill-opacity:1;stroke-width:1;stroke-linecap:butt;stroke-linejoin:round;stroke:rgb(0%,0%,0%);stroke-opacity:1;stroke-miterlimit:10;" d="M 464.324219 331.945312 C 464.324219 348.515625 450.894531 361.945312 434.324219 361.945312 C 417.757812 361.945312 404.324219 348.515625 404.324219 331.945312 C 404.324219 315.378906 417.757812 301.945312 434.324219 301.945312 C 450.894531 301.945312 464.324219 315.378906 464.324219 331.945312 "/>
<path style="fill-rule:nonzero;fill:rgb(100%,7%,57%);fill-opacity:1;stroke-width:1;stroke-linecap:butt;stroke-linejoin:round;stroke:rgb(0%,0%,0%);stroke-opacity:1;stroke-miterlimit:10;" d="M 395.519531 209.441406 C 395.519531 226.011719 382.085938 239.441406 365.519531 239.441406 C 348.949219 239.441406 335.519531 226.011719 335.519531 209.441406 C 335.519531 192.871094 348.949219 179.441406 365.519531 179.441406 C 382.085938 179.441406 395.519531 192.871094 395.519531 209.441406 "/>
<path style="fill-rule:nonzero;fill:rgb(100%,7%,57%);fill-opacity:1;stroke-width:1;stroke-linecap:butt;stroke-linejoin:round;stroke:rgb(0%,0%,0%);stroke-opacity:1;stroke-miterlimit:10;" d="M 148.152344 97.957031 C 148.152344 114.523438 134.71875 127.957031 118.152344 127.957031 C 101.582031 127.957031 88.152344 114.523438 88.152344 97.957031 C 88.152344 81.386719 101.582031 67.957031 118.152344 67.957031 C 134.71875 67.957031 148.152344 81.386719 148.152344 97.957031 "/>
<path style="fill-rule:nonzero;fill:rgb(100%,7%,57%);fill-opacity:1;stroke-width:1;stroke-linecap:butt;stroke-linejoin:round;stroke:rgb(0%,0%,0%);stroke-opacity:1;stroke-miterlimit:10;" d="M 116.617188 150.117188 C 116.617188 166.6875 103.1875 180.117188 86.617188 180.117188 C 70.050781 180.117188 56.617188 166.6875 56.617188 150.117188 C 56.617188 133.550781 70.050781 120.117188 86.617188 120.117188 C 103.1875 120.117188 116.617188 133.550781 116.617188 150.117188 "/>
<path style="fill-rule:nonzero;fill:rgb(25%,88%,82%);fill-opacity:1;stroke-width:1;stroke-linecap:butt;stroke-linejoin:round;stroke:rgb(0%,0%,0%);stroke-opacity:1;stroke-miterlimit:10;" d="M 239.246094 83.617188 C 239.246094 100.183594 225.816406 113.617188 209.246094 113.617188 C 192.679688 113.617188 179.246094 100.183594 179.246094 83.617188 C 179.246094 67.046875 192.679688 53.617188 209.246094 53.617188 C 225.816406 53.617188 239.246094 67.046875 239.246094 83.617188 "/>
</g>
</svg>
