<?xml version="1.0" encoding="UTF-8"?>
<svg xmlns="http://www.w3.org/2000/svg" xmlns:xlink="http://www.w3.org/1999/xlink" width="517pt" height="517pt" viewBox="0 0 517 517" version="1.1">
<g id="surface8796">
<rect x="0" y="0" width="517" height="517" style="fill:rgb(90%,90%,90%);fill-opacity:1;stroke:none;"/>
<path style="fill:none;stroke-width:5;stroke-linecap:butt;stroke-linejoin:round;stroke:rgb(100%,0%,0%);stroke-opacity:1;stroke-miterlimit:10;" d="M 5 261 L 261 261 L 261 517 L 5 517 Z M 5 261 "/>
<path style="fill-rule:nonzero;fill:rgb(90%,65%,0%);fill-opacity:1;stroke-width:1;stroke-linecap:butt;stroke-linejoin:round;stroke:rgb(0%,0%,0%);stroke-opacity:1;stroke-miterlimit:10;" d="M 240.539062 421.234375 C 240.539062 437.804688 227.105469 451.234375 210.539062 451.234375 C 193.96875 451.234375 180.539062 437.804688 180.539062 421.234375 C 180.539062 404.667969 193.96875 391.234375 210.539062 391.234375 C 227.105469 391.234375 240.539062 404.667969 240.539062 421.234375 "/>
<path style="fill-rule:nonzero;fill:rgb(90%,65%,0%);fill-opacity:1;stroke-width:1;stroke-linecap:butt;stroke-linejoin:round;stroke:rgb(0%,0%,0%);stroke-opacity:1;stroke-miterlimit:10;" d="M 355.246094 396.230469 C 355.246094 412.796875 341.8125 426.230469 325.246094 426.230469 C 308.675781 426.230469 295.246094 412.796875 295.246094 396.230469 C 295.246094 379.660156 308.675781 366.230469 325.246094 366.230469 C 341.8125 366.230469 355.246094 379.660156 355.246094 396.230469 "/>
<path style="fill-rule:nonzero;fill:rgb(90%,65%,0%);fill-opacity:1;stroke-width:1;stroke-linecap:butt;stroke-linejoin:round;stroke:rgb(0%,0%,0%);stroke-opacity:1;stroke-miterlimit:10;" d="M 92.277344 167.757812 C 92.277344 184.324219 78.84375 197.757812 62.277344 197.757812 C 45.707031 197.757812 32.277344 184.324219 32.277344 167.757812 C 32.277344 151.1875 45.707031 137.757812 62.277344 137.757812 C 78.84375 137.757812 92.277344 151.1875 92.277344 167.757812 "/>
<path style="fill-rule:nonzero;fill:rgb(90%,65%,0%);fill-opacity:1;stroke-width:1;stroke-linecap:butt;stroke-linejoin:round;stroke:rgb(0%,0%,0%);stroke-opacity:1;stroke-miterlimit:10;" d="M 195.589844 62.433594 C 195.589844 79.003906 182.15625 92.433594 165.589844 92.433594 C 149.019531 92.433594 135.589844 79.003906 135.589844 62.433594 C 135.589844 45.867188 149.019531 32.433594 165.589844 32.433594 C 182.15625 32.433594 195.589844 45.867188 195.589844 62.433594 "/>
<path style="fill-rule:nonzero;fill:rgb(90%,65%,0%);fill-opacity:1;stroke-width:1;stroke-linecap:butt;stroke-linejoin:round;stroke:rgb(0%,0%,0%);stroke-opacity:1;stroke-miterlimit:10;" d="M 245.625 133.265625 C 245.625 149.835938 232.195312 163.265625 215.625 163.265625 C 199.058594 163.265625 185.625 149.835938 185.625 133.265625 C 185.625 116.699219 199.058594 103.265625 215.625 103.265625 C 232.195312 103.265625 245.625 116.699219 245.625 133.265625 "/>
<path style="fill-rule:nonzero;fill:rgb(90%,65%,0%);fill-opacity:1;stroke-width:1;stroke-linecap:butt;stroke-linejoin:round;stroke:rgb(0%,0%,0%);stroke-opacity:1;stroke-miterlimit:10;" d="M 182.113281 155.816406 C 182.113281 172.386719 168.683594 185.816406 152.113281 185.816406 C 135.546875 185.816406 122.113281 172.386719 122.113281 155.816406 C 122.113281 139.25 135.546875 125.816406 152.113281 125.816406 C 168.683594 125.816406 182.113281 139.25 182.113281 155.816406 "/>
</g>
</svg>
