<?xml version="1.0" encoding="UTF-8"?>
<svg xmlns="http://www.w3.org/2000/svg" xmlns:xlink="http://www.w3.org/1999/xlink" width="517pt" height="517pt" viewBox="0 0 517 517" version="1.1">
<g id="surface3351">
<rect x="0" y="0" width="517" height="517" style="fill:rgb(90%,90%,90%);fill-opacity:1;stroke:none;"/>
<path style="fill:none;stroke-width:5;stroke-linecap:butt;stroke-linejoin:round;stroke:rgb(100%,0%,0%);stroke-opacity:1;stroke-miterlimit:10;" d="M 261 261 L 517 261 L 517 517 L 261 517 Z M 261 261 "/>
<path style="fill-rule:nonzero;fill:rgb(35%,70%,90%);fill-opacity:1;stroke-width:1;stroke-linecap:butt;stroke-linejoin:round;stroke:rgb(0%,0%,0%);stroke-opacity:1;stroke-miterlimit:10;" d="M 362.683594 345.707031 L 342.683594 345.707031 L 342.683594 355.707031 L 362.683594 355.707031 L 362.683594 375.707031 L 372.683594 375.707031 L 372.683594 355.707031 L 392.683594 355.707031 L 392.683594 345.707031 L 372.683594 345.707031 L 372.683594 325.707031 L 362.683594 325.707031 L 362.683594 345.707031 "/>
<path style="fill-rule:nonzero;fill:rgb(35%,70%,90%);fill-opacity:1;stroke-width:1;stroke-linecap:butt;stroke-linejoin:round;stroke:rgb(0%,0%,0%);stroke-opacity:1;stroke-miterlimit:10;" d="M 48.011719 195.484375 L 28.011719 195.484375 L 28.011719 205.484375 L 48.011719 205.484375 L 48.011719 225.484375 L 58.011719 225.484375 L 58.011719 205.484375 L 78.011719 205.484375 L 78.011719 195.484375 L 58.011719 195.484375 L 58.011719 175.484375 L 48.011719 175.484375 L 48.011719 195.484375 "/>
<path style="fill-rule:nonzero;fill:rgb(90%,65%,0%);fill-opacity:1;stroke-width:1;stroke-linecap:butt;stroke-linejoin:round;stroke:rgb(0%,0%,0%);stroke-opacity:1;stroke-miterlimit:10;" d="M 34.886719 117.804688 L 14.886719 117.804688 L 14.886719 127.804688 L 34.886719 127.804688 L 34.886719 147.804688 L 44.886719 147.804688 L 44.886719 127.804688 L 64.886719 127.804688 L 64.886719 117.804688 L 44.886719 117.804688 L 44.886719 97.804688 L 34.886719 97.804688 L 34.886719 117.804688 "/>
<path style="fill-rule:nonzero;fill:rgb(90%,65%,0%);fill-opacity:1;stroke-width:1;stroke-linecap:butt;stroke-linejoin:round;stroke:rgb(0%,0%,0%);stroke-opacity:1;stroke-miterlimit:10;" d="M 201.304688 422.21875 L 181.304688 422.21875 L 181.304688 432.21875 L 201.304688 432.21875 L 201.304688 452.21875 L 211.304688 452.21875 L 211.304688 432.21875 L 231.304688 432.21875 L 231.304688 422.21875 L 211.304688 422.21875 L 211.304688 402.21875 L 201.304688 402.21875 L 201.304688 422.21875 "/>
<path style="fill-rule:nonzero;fill:rgb(90%,65%,0%);fill-opacity:1;stroke-width:1;stroke-linecap:butt;stroke-linejoin:round;stroke:rgb(0%,0%,0%);stroke-opacity:1;stroke-miterlimit:10;" d="M 86.707031 416.695312 L 66.707031 416.695312 L 66.707031 426.695312 L 86.707031 426.695312 L 86.707031 446.695312 L 96.707031 446.695312 L 96.707031 426.695312 L 116.707031 426.695312 L 116.707031 416.695312 L 96.707031 416.695312 L 96.707031 396.695312 L 86.707031 396.695312 L 86.707031 416.695312 "/>
</g>
</svg>
