<?xml version="1.0" encoding="UTF-8"?>
<svg xmlns="http://www.w3.org/2000/svg" xmlns:xlink="http://www.w3.org/1999/xlink" width="517pt" height="517pt" viewBox="0 0 517 517" version="1.1">
<g id="surface3326">
<rect x="0" y="0" width="517" height="517" style="fill:rgb(90%,90%,90%);fill-opacity:1;stroke:none;"/>
<path style="fill:none;stroke-width:5;stroke-linecap:butt;stroke-linejoin:round;stroke:rgb(100%,0%,0%);stroke-opacity:1;stroke-miterlimit:10;" d="M 261 261 L 517 261 L 517 517 L 261 517 Z M 261 261 "/>
<path style="fill-rule:nonzero;fill:rgb(90%,65%,0%);fill-opacity:1;stroke-width:1;stroke-linecap:butt;stroke-linejoin:round;stroke:rgb(0%,0%,0%);stroke-opacity:1;stroke-miterlimit:10;" d="M 390.507812 311.964844 L 370.507812 311.964844 L 370.507812 321.964844 L 390.507812 321.964844 L 390.507812 341.964844 L 400.507812 341.964844 L 400.507812 321.964844 L 420.507812 321.964844 L 420.507812 311.964844 L 400.507812 311.964844 L 400.507812 291.964844 L 390.507812 291.964844 L 390.507812 311.964844 "/>
<path style="fill-rule:nonzero;fill:rgb(35%,70%,90%);fill-opacity:1;stroke-width:1;stroke-linecap:butt;stroke-linejoin:round;stroke:rgb(0%,0%,0%);stroke-opacity:1;stroke-miterlimit:10;" d="M 45.363281 439.949219 L 25.363281 439.949219 L 25.363281 449.949219 L 45.363281 449.949219 L 45.363281 469.949219 L 55.363281 469.949219 L 55.363281 449.949219 L 75.363281 449.949219 L 75.363281 439.949219 L 55.363281 439.949219 L 55.363281 419.949219 L 45.363281 419.949219 L 45.363281 439.949219 "/>
<path style="fill-rule:nonzero;fill:rgb(90%,65%,0%);fill-opacity:1;stroke-width:1;stroke-linecap:butt;stroke-linejoin:round;stroke:rgb(0%,0%,0%);stroke-opacity:1;stroke-miterlimit:10;" d="M 199.570312 429.339844 L 179.570312 429.339844 L 179.570312 439.339844 L 199.570312 439.339844 L 199.570312 459.339844 L 209.570312 459.339844 L 209.570312 439.339844 L 229.570312 439.339844 L 229.570312 429.339844 L 209.570312 429.339844 L 209.570312 409.339844 L 199.570312 409.339844 L 199.570312 429.339844 "/>
<path style="fill-rule:nonzero;fill:rgb(90%,65%,0%);fill-opacity:1;stroke-width:1;stroke-linecap:butt;stroke-linejoin:round;stroke:rgb(0%,0%,0%);stroke-opacity:1;stroke-miterlimit:10;" d="M 55.875 176.074219 L 35.875 176.074219 L 35.875 186.074219 L 55.875 186.074219 L 55.875 206.074219 L 65.875 206.074219 L 65.875 186.074219 L 85.875 186.074219 L 85.875 176.074219 L 65.875 176.074219 L 65.875 156.074219 L 55.875 156.074219 L 55.875 176.074219 "/>
<path style="fill-rule:nonzero;fill:rgb(90%,65%,0%);fill-opacity:1;stroke-width:1;stroke-linecap:butt;stroke-linejoin:round;stroke:rgb(0%,0%,0%);stroke-opacity:1;stroke-miterlimit:10;" d="M 130.390625 149.78125 L 110.390625 149.78125 L 110.390625 159.78125 L 130.390625 159.78125 L 130.390625 179.78125 L 140.390625 179.78125 L 140.390625 159.78125 L 160.390625 159.78125 L 160.390625 149.78125 L 140.390625 149.78125 L 140.390625 129.78125 L 130.390625 129.78125 L 130.390625 149.78125 "/>
</g>
</svg>
