<?xml version="1.0" encoding="UTF-8"?>
<svg xmlns="http://www.w3.org/2000/svg" xmlns:xlink="http://www.w3.org/1999/xlink" width="517pt" height="517pt" viewBox="0 0 517 517" version="1.1">
<g id="surface3206">
<rect x="0" y="0" width="517" height="517" style="fill:rgb(90%,90%,90%);fill-opacity:1;stroke:none;"/>
<path style="fill:none;stroke-width:5;stroke-linecap:butt;stroke-linejoin:round;stroke:rgb(100%,0%,0%);stroke-opacity:1;stroke-miterlimit:10;" d="M 261 261 L 517 261 L 517 517 L 261 517 Z M 261 261 "/>
<path style="fill-rule:nonzero;fill:rgb(25%,88%,82%);fill-opacity:1;stroke-width:1;stroke-linecap:butt;stroke-linejoin:round;stroke:rgb(0%,0%,0%);stroke-opacity:1;stroke-miterlimit:10;" d="M 465.371094 407.265625 C 465.371094 423.832031 451.941406 437.265625 435.371094 437.265625 C 418.800781 437.265625 405.371094 423.832031 405.371094 407.265625 C 405.371094 390.695312 418.800781 377.265625 435.371094 377.265625 C 451.941406 377.265625 465.371094 390.695312 465.371094 407.265625 "/>
<path style="fill-rule:nonzero;fill:rgb(100%,7%,57%);fill-opacity:1;stroke-width:1;stroke-linecap:butt;stroke-linejoin:round;stroke:rgb(0%,0%,0%);stroke-opacity:1;stroke-miterlimit:10;" d="M 471.640625 123.96875 C 471.640625 140.539062 458.207031 153.96875 441.640625 153.96875 C 425.070312 153.96875 411.640625 140.539062 411.640625 123.96875 C 411.640625 107.402344 425.070312 93.96875 441.640625 93.96875 C 458.207031 93.96875 471.640625 107.402344 471.640625 123.96875 "/>
<path style="fill-rule:nonzero;fill:rgb(100%,7%,57%);fill-opacity:1;stroke-width:1;stroke-linecap:butt;stroke-linejoin:round;stroke:rgb(0%,0%,0%);stroke-opacity:1;stroke-miterlimit:10;" d="M 216.464844 410.910156 C 216.464844 427.476562 203.035156 440.910156 186.464844 440.910156 C 169.898438 440.910156 156.464844 427.476562 156.464844 410.910156 C 156.464844 394.339844 169.898438 380.910156 186.464844 380.910156 C 203.035156 380.910156 216.464844 394.339844 216.464844 410.910156 "/>
<path style="fill-rule:nonzero;fill:rgb(100%,7%,57%);fill-opacity:1;stroke-width:1;stroke-linecap:butt;stroke-linejoin:round;stroke:rgb(0%,0%,0%);stroke-opacity:1;stroke-miterlimit:10;" d="M 201.242188 314.785156 C 201.242188 331.351562 187.8125 344.785156 171.242188 344.785156 C 154.675781 344.785156 141.242188 331.351562 141.242188 314.785156 C 141.242188 298.214844 154.675781 284.785156 171.242188 284.785156 C 187.8125 284.785156 201.242188 298.214844 201.242188 314.785156 "/>
<path style="fill-rule:nonzero;fill:rgb(100%,7%,57%);fill-opacity:1;stroke-width:1;stroke-linecap:butt;stroke-linejoin:round;stroke:rgb(0%,0%,0%);stroke-opacity:1;stroke-miterlimit:10;" d="M 73.769531 386.820312 C 73.769531 403.390625 60.339844 416.820312 43.769531 416.820312 C 27.199219 416.820312 13.769531 403.390625 13.769531 386.820312 C 13.769531 370.25 27.199219 356.820312 43.769531 356.820312 C 60.339844 356.820312 73.769531 370.25 73.769531 386.820312 "/>
</g>
</svg>
