<?xml version="1.0" encoding="UTF-8"?>
<svg xmlns="http://www.w3.org/2000/svg" xmlns:xlink="http://www.w3.org/1999/xlink" width="517pt" height="517pt" viewBox="0 0 517 517" version="1.1">
<g id="surface8686">
<rect x="0" y="0" width="517" height="517" style="fill:rgb(90%,90%,90%);fill-opacity:1;stroke:none;"/>
<path style="fill:none;stroke-width:5;stroke-linecap:butt;stroke-linejoin:round;stroke:rgb(100%,0%,0%);stroke-opacity:1;stroke-miterlimit:10;" d="M 5 5 L 261 5 L 261 261 L 5 261 Z M 5 5 "/>
<path style="fill-rule:nonzero;fill:rgb(100%,0%,0%);fill-opacity:1;stroke-width:1;stroke-linecap:butt;stroke-linejoin:round;stroke:rgb(0%,0%,0%);stroke-opacity:1;stroke-miterlimit:10;" d="M 109.855469 188.941406 C 109.855469 205.511719 96.421875 218.941406 79.855469 218.941406 C 63.285156 218.941406 49.855469 205.511719 49.855469 188.941406 C 49.855469 172.375 63.285156 158.941406 79.855469 158.941406 C 96.421875 158.941406 109.855469 172.375 109.855469 188.941406 "/>
<path style="fill-rule:nonzero;fill:rgb(50%,0%,50%);fill-opacity:1;stroke-width:1;stroke-linecap:butt;stroke-linejoin:round;stroke:rgb(0%,0%,0%);stroke-opacity:1;stroke-miterlimit:10;" d="M 368.9375 171.21875 C 368.9375 187.789062 355.503906 201.21875 338.9375 201.21875 C 322.367188 201.21875 308.9375 187.789062 308.9375 171.21875 C 308.9375 154.652344 322.367188 141.21875 338.9375 141.21875 C 355.503906 141.21875 368.9375 154.652344 368.9375 171.21875 "/>
<path style="fill-rule:nonzero;fill:rgb(50%,0%,50%);fill-opacity:1;stroke-width:1;stroke-linecap:butt;stroke-linejoin:round;stroke:rgb(0%,0%,0%);stroke-opacity:1;stroke-miterlimit:10;" d="M 503.1875 115.703125 C 503.1875 132.273438 489.753906 145.703125 473.1875 145.703125 C 456.617188 145.703125 443.1875 132.273438 443.1875 115.703125 C 443.1875 99.136719 456.617188 85.703125 473.1875 85.703125 C 489.753906 85.703125 503.1875 99.136719 503.1875 115.703125 "/>
<path style="fill-rule:nonzero;fill:rgb(50%,0%,50%);fill-opacity:1;stroke-width:1;stroke-linecap:butt;stroke-linejoin:round;stroke:rgb(0%,0%,0%);stroke-opacity:1;stroke-miterlimit:10;" d="M 124.433594 303.984375 C 124.433594 320.550781 111.003906 333.984375 94.433594 333.984375 C 77.867188 333.984375 64.433594 320.550781 64.433594 303.984375 C 64.433594 287.414062 77.867188 273.984375 94.433594 273.984375 C 111.003906 273.984375 124.433594 287.414062 124.433594 303.984375 "/>
<path style="fill-rule:nonzero;fill:rgb(50%,0%,50%);fill-opacity:1;stroke-width:1;stroke-linecap:butt;stroke-linejoin:round;stroke:rgb(0%,0%,0%);stroke-opacity:1;stroke-miterlimit:10;" d="M 131.929688 421.53125 C 131.929688 438.101562 118.5 451.53125 101.929688 451.53125 C 85.359375 451.53125 71.929688 438.101562 71.929688 421.53125 C 71.929688 404.964844 85.359375 391.53125 101.929688 391.53125 C 118.5 391.53125 131.929688 404.964844 131.929688 421.53125 "/>
</g>
</svg>
