<?xml version="1.0" encoding="UTF-8"?>
<svg xmlns="http://www.w3.org/2000/svg" xmlns:xlink="http://www.w3.org/1999/xlink" width="517pt" height="517pt" viewBox="0 0 517 517" version="1.1">
<g id="surface8886">
<rect x="0" y="0" width="517" height="517" style="fill:rgb(90%,90%,90%);fill-opacity:1;stroke:none;"/>
<path style="fill:none;stroke-width:5;stroke-linecap:butt;stroke-linejoin:round;stroke:rgb(100%,0%,0%);stroke-opacity:1;stroke-miterlimit:10;" d="M 261 261 L 517 261 L 517 517 L 261 517 Z M 261 261 "/>
<path style="fill-rule:nonzero;fill:rgb(67%,100%,18%);fill-opacity:1;stroke-width:1;stroke-linecap:butt;stroke-linejoin:round;stroke:rgb(0%,0%,0%);stroke-opacity:1;stroke-miterlimit:10;" d="M 411.8125 333.015625 C 411.8125 349.585938 398.382812 363.015625 381.8125 363.015625 C 365.246094 363.015625 351.8125 349.585938 351.8125 333.015625 C 351.8125 316.449219 365.246094 303.015625 381.8125 303.015625 C 398.382812 303.015625 411.8125 316.449219 411.8125 333.015625 "/>
<path style="fill-rule:nonzero;fill:rgb(100%,100%,0%);fill-opacity:1;stroke-width:1;stroke-linecap:butt;stroke-linejoin:round;stroke:rgb(0%,0%,0%);stroke-opacity:1;stroke-miterlimit:10;" d="M 93.476562 111.296875 C 93.476562 127.867188 80.042969 141.296875 63.476562 141.296875 C 46.90625 141.296875 33.476562 127.867188 33.476562 111.296875 C 33.476562 94.730469 46.90625 81.296875 63.476562 81.296875 C 80.042969 81.296875 93.476562 94.730469 93.476562 111.296875 "/>
<path style="fill-rule:nonzero;fill:rgb(100%,100%,0%);fill-opacity:1;stroke-width:1;stroke-linecap:butt;stroke-linejoin:round;stroke:rgb(0%,0%,0%);stroke-opacity:1;stroke-miterlimit:10;" d="M 400.0625 141.105469 C 400.0625 157.675781 386.632812 171.105469 370.0625 171.105469 C 353.496094 171.105469 340.0625 157.675781 340.0625 141.105469 C 340.0625 124.539062 353.496094 111.105469 370.0625 111.105469 C 386.632812 111.105469 400.0625 124.539062 400.0625 141.105469 "/>
<path style="fill-rule:nonzero;fill:rgb(100%,100%,0%);fill-opacity:1;stroke-width:1;stroke-linecap:butt;stroke-linejoin:round;stroke:rgb(0%,0%,0%);stroke-opacity:1;stroke-miterlimit:10;" d="M 423.984375 58.332031 C 423.984375 74.902344 410.550781 88.332031 393.984375 88.332031 C 377.414062 88.332031 363.984375 74.902344 363.984375 58.332031 C 363.984375 41.761719 377.414062 28.332031 393.984375 28.332031 C 410.550781 28.332031 423.984375 41.761719 423.984375 58.332031 "/>
<path style="fill-rule:nonzero;fill:rgb(100%,100%,0%);fill-opacity:1;stroke-width:1;stroke-linecap:butt;stroke-linejoin:round;stroke:rgb(0%,0%,0%);stroke-opacity:1;stroke-miterlimit:10;" d="M 229.96875 320.074219 C 229.96875 336.640625 216.535156 350.074219 199.96875 350.074219 C 183.398438 350.074219 169.96875 336.640625 169.96875 320.074219 C 169.96875 303.503906 183.398438 290.074219 199.96875 290.074219 C 216.535156 290.074219 229.96875 303.503906 229.96875 320.074219 "/>
</g>
</svg>
