<?xml version="1.0" encoding="UTF-8"?>
<svg xmlns="http://www.w3.org/2000/svg" xmlns:xlink="http://www.w3.org/1999/xlink" width="517pt" height="517pt" viewBox="0 0 517 517" version="1.1">
<g id="surface8746">
<rect x="0" y="0" width="517" height="517" style="fill:rgb(90%,90%,90%);fill-opacity:1;stroke:none;"/>
<path style="fill:none;stroke-width:5;stroke-linecap:butt;stroke-linejoin:round;stroke:rgb(100%,0%,0%);stroke-opacity:1;stroke-miterlimit:10;" d="M 5 261 L 261 261 L 261 517 L 5 517 Z M 5 261 "/>
<path style="fill-rule:nonzero;fill:rgb(67%,100%,18%);fill-opacity:1;stroke-width:1;stroke-linecap:butt;stroke-linejoin:round;stroke:rgb(0%,0%,0%);stroke-opacity:1;stroke-miterlimit:10;" d="M 96.859375 401.085938 C 96.859375 417.65625 83.425781 431.085938 66.859375 431.085938 C 50.289062 431.085938 36.859375 417.65625 36.859375 401.085938 C 36.859375 384.519531 50.289062 371.085938 66.859375 371.085938 C 83.425781 371.085938 96.859375 384.519531 96.859375 401.085938 "/>
<path style="fill-rule:nonzero;fill:rgb(90%,65%,0%);fill-opacity:1;stroke-width:1;stroke-linecap:butt;stroke-linejoin:round;stroke:rgb(0%,0%,0%);stroke-opacity:1;stroke-miterlimit:10;" d="M 352.078125 117.667969 C 352.078125 134.238281 338.648438 147.667969 322.078125 147.667969 C 305.511719 147.667969 292.078125 134.238281 292.078125 117.667969 C 292.078125 101.097656 305.511719 87.667969 322.078125 87.667969 C 338.648438 87.667969 352.078125 101.097656 352.078125 117.667969 "/>
<path style="fill-rule:nonzero;fill:rgb(90%,65%,0%);fill-opacity:1;stroke-width:1;stroke-linecap:butt;stroke-linejoin:round;stroke:rgb(0%,0%,0%);stroke-opacity:1;stroke-miterlimit:10;" d="M 427.308594 155.605469 C 427.308594 172.171875 413.878906 185.605469 397.308594 185.605469 C 380.742188 185.605469 367.308594 172.171875 367.308594 155.605469 C 367.308594 139.035156 380.742188 125.605469 397.308594 125.605469 C 413.878906 125.605469 427.308594 139.035156 427.308594 155.605469 "/>
<path style="fill-rule:nonzero;fill:rgb(90%,65%,0%);fill-opacity:1;stroke-width:1;stroke-linecap:butt;stroke-linejoin:round;stroke:rgb(0%,0%,0%);stroke-opacity:1;stroke-miterlimit:10;" d="M 210.382812 61.101562 C 210.382812 77.671875 196.953125 91.101562 180.382812 91.101562 C 163.816406 91.101562 150.382812 77.671875 150.382812 61.101562 C 150.382812 44.535156 163.816406 31.101562 180.382812 31.101562 C 196.953125 31.101562 210.382812 44.535156 210.382812 61.101562 "/>
<path style="fill-rule:nonzero;fill:rgb(90%,65%,0%);fill-opacity:1;stroke-width:1;stroke-linecap:butt;stroke-linejoin:round;stroke:rgb(0%,0%,0%);stroke-opacity:1;stroke-miterlimit:10;" d="M 199.820312 139.210938 C 199.820312 155.777344 186.390625 169.210938 169.820312 169.210938 C 153.253906 169.210938 139.820312 155.777344 139.820312 139.210938 C 139.820312 122.640625 153.253906 109.210938 169.820312 109.210938 C 186.390625 109.210938 199.820312 122.640625 199.820312 139.210938 "/>
<path style="fill-rule:nonzero;fill:rgb(90%,65%,0%);fill-opacity:1;stroke-width:1;stroke-linecap:butt;stroke-linejoin:round;stroke:rgb(0%,0%,0%);stroke-opacity:1;stroke-miterlimit:10;" d="M 86.742188 86.988281 C 86.742188 103.558594 73.308594 116.988281 56.742188 116.988281 C 40.171875 116.988281 26.742188 103.558594 26.742188 86.988281 C 26.742188 70.421875 40.171875 56.988281 56.742188 56.988281 C 73.308594 56.988281 86.742188 70.421875 86.742188 86.988281 "/>
</g>
</svg>
