<?xml version="1.0" encoding="UTF-8"?>
<svg xmlns="http://www.w3.org/2000/svg" xmlns:xlink="http://www.w3.org/1999/xlink" width="517pt" height="517pt" viewBox="0 0 517 517" version="1.1">
<g id="surface8436">
<rect x="0" y="0" width="517" height="517" style="fill:rgb(90%,90%,90%);fill-opacity:1;stroke:none;"/>
<path style="fill:none;stroke-width:5;stroke-linecap:butt;stroke-linejoin:round;stroke:rgb(100%,0%,0%);stroke-opacity:1;stroke-miterlimit:10;" d="M 5 261 L 261 261 L 261 517 L 5 517 Z M 5 261 "/>
<path style="fill-rule:nonzero;fill:rgb(100%,100%,0%);fill-opacity:1;stroke-width:1;stroke-linecap:butt;stroke-linejoin:round;stroke:rgb(0%,0%,0%);stroke-opacity:1;stroke-miterlimit:10;" d="M 215.871094 462.777344 C 215.871094 479.347656 202.441406 492.777344 185.871094 492.777344 C 169.304688 492.777344 155.871094 479.347656 155.871094 462.777344 C 155.871094 446.210938 169.304688 432.777344 185.871094 432.777344 C 202.441406 432.777344 215.871094 446.210938 215.871094 462.777344 "/>
<path style="fill-rule:nonzero;fill:rgb(0%,0%,0%);fill-opacity:1;stroke-width:1;stroke-linecap:butt;stroke-linejoin:round;stroke:rgb(0%,0%,0%);stroke-opacity:1;stroke-miterlimit:10;" d="M 358.628906 445.84375 C 358.628906 462.410156 345.199219 475.84375 328.628906 475.84375 C 312.0625 475.84375 298.628906 462.410156 298.628906 445.84375 C 298.628906 429.273438 312.0625 415.84375 328.628906 415.84375 C 345.199219 415.84375 358.628906 429.273438 358.628906 445.84375 "/>
<path style="fill-rule:nonzero;fill:rgb(0%,0%,0%);fill-opacity:1;stroke-width:1;stroke-linecap:butt;stroke-linejoin:round;stroke:rgb(0%,0%,0%);stroke-opacity:1;stroke-miterlimit:10;" d="M 158.484375 51.640625 C 158.484375 68.210938 145.054688 81.640625 128.484375 81.640625 C 111.917969 81.640625 98.484375 68.210938 98.484375 51.640625 C 98.484375 35.070312 111.917969 21.640625 128.484375 21.640625 C 145.054688 21.640625 158.484375 35.070312 158.484375 51.640625 "/>
<path style="fill-rule:nonzero;fill:rgb(0%,0%,0%);fill-opacity:1;stroke-width:1;stroke-linecap:butt;stroke-linejoin:round;stroke:rgb(0%,0%,0%);stroke-opacity:1;stroke-miterlimit:10;" d="M 351.867188 121.4375 C 351.867188 138.003906 338.4375 151.4375 321.867188 151.4375 C 305.300781 151.4375 291.867188 138.003906 291.867188 121.4375 C 291.867188 104.867188 305.300781 91.4375 321.867188 91.4375 C 338.4375 91.4375 351.867188 104.867188 351.867188 121.4375 "/>
<path style="fill-rule:nonzero;fill:rgb(0%,0%,0%);fill-opacity:1;stroke-width:1;stroke-linecap:butt;stroke-linejoin:round;stroke:rgb(0%,0%,0%);stroke-opacity:1;stroke-miterlimit:10;" d="M 475.964844 56.941406 C 475.964844 73.511719 462.535156 86.941406 445.964844 86.941406 C 429.398438 86.941406 415.964844 73.511719 415.964844 56.941406 C 415.964844 40.375 429.398438 26.941406 445.964844 26.941406 C 462.535156 26.941406 475.964844 40.375 475.964844 56.941406 "/>
</g>
</svg>
