<?xml version="1.0" encoding="UTF-8"?>
<svg xmlns="http://www.w3.org/2000/svg" xmlns:xlink="http://www.w3.org/1999/xlink" width="517pt" height="517pt" viewBox="0 0 517 517" version="1.1">
<g id="surface8906">
<rect x="0" y="0" width="517" height="517" style="fill:rgb(90%,90%,90%);fill-opacity:1;stroke:none;"/>
<path style="fill:none;stroke-width:5;stroke-linecap:butt;stroke-linejoin:round;stroke:rgb(100%,0%,0%);stroke-opacity:1;stroke-miterlimit:10;" d="M 261 261 L 517 261 L 517 517 L 261 517 Z M 261 261 "/>
<path style="fill-rule:nonzero;fill:rgb(0%,0%,0%);fill-opacity:1;stroke-width:1;stroke-linecap:butt;stroke-linejoin:round;stroke:rgb(0%,0%,0%);stroke-opacity:1;stroke-miterlimit:10;" d="M 493.578125 335.53125 C 493.578125 352.101562 480.148438 365.53125 463.578125 365.53125 C 447.011719 365.53125 433.578125 352.101562 433.578125 335.53125 C 433.578125 318.960938 447.011719 305.53125 463.578125 305.53125 C 480.148438 305.53125 493.578125 318.960938 493.578125 335.53125 "/>
<path style="fill-rule:nonzero;fill:rgb(67%,100%,18%);fill-opacity:1;stroke-width:1;stroke-linecap:butt;stroke-linejoin:round;stroke:rgb(0%,0%,0%);stroke-opacity:1;stroke-miterlimit:10;" d="M 237.691406 437.917969 C 237.691406 454.484375 224.261719 467.917969 207.691406 467.917969 C 191.125 467.917969 177.691406 454.484375 177.691406 437.917969 C 177.691406 421.347656 191.125 407.917969 207.691406 407.917969 C 224.261719 407.917969 237.691406 421.347656 237.691406 437.917969 "/>
<path style="fill-rule:nonzero;fill:rgb(67%,100%,18%);fill-opacity:1;stroke-width:1;stroke-linecap:butt;stroke-linejoin:round;stroke:rgb(0%,0%,0%);stroke-opacity:1;stroke-miterlimit:10;" d="M 249.703125 336.179688 C 249.703125 352.746094 236.273438 366.179688 219.703125 366.179688 C 203.136719 366.179688 189.703125 352.746094 189.703125 336.179688 C 189.703125 319.609375 203.136719 306.179688 219.703125 306.179688 C 236.273438 306.179688 249.703125 319.609375 249.703125 336.179688 "/>
<path style="fill-rule:nonzero;fill:rgb(67%,100%,18%);fill-opacity:1;stroke-width:1;stroke-linecap:butt;stroke-linejoin:round;stroke:rgb(0%,0%,0%);stroke-opacity:1;stroke-miterlimit:10;" d="M 101.773438 215.59375 C 101.773438 232.164062 88.34375 245.59375 71.773438 245.59375 C 55.207031 245.59375 41.773438 232.164062 41.773438 215.59375 C 41.773438 199.027344 55.207031 185.59375 71.773438 185.59375 C 88.34375 185.59375 101.773438 199.027344 101.773438 215.59375 "/>
<path style="fill-rule:nonzero;fill:rgb(67%,100%,18%);fill-opacity:1;stroke-width:1;stroke-linecap:butt;stroke-linejoin:round;stroke:rgb(0%,0%,0%);stroke-opacity:1;stroke-miterlimit:10;" d="M 123.65625 153.132812 C 123.65625 169.703125 110.226562 183.132812 93.65625 183.132812 C 77.089844 183.132812 63.65625 169.703125 63.65625 153.132812 C 63.65625 136.566406 77.089844 123.132812 93.65625 123.132812 C 110.226562 123.132812 123.65625 136.566406 123.65625 153.132812 "/>
<path style="fill-rule:nonzero;fill:rgb(67%,100%,18%);fill-opacity:1;stroke-width:1;stroke-linecap:butt;stroke-linejoin:round;stroke:rgb(0%,0%,0%);stroke-opacity:1;stroke-miterlimit:10;" d="M 198.753906 190.070312 C 198.753906 206.640625 185.320312 220.070312 168.753906 220.070312 C 152.183594 220.070312 138.753906 206.640625 138.753906 190.070312 C 138.753906 173.5 152.183594 160.070312 168.753906 160.070312 C 185.320312 160.070312 198.753906 173.5 198.753906 190.070312 "/>
</g>
</svg>
