<?xml version="1.0" encoding="UTF-8"?>
<svg xmlns="http://www.w3.org/2000/svg" xmlns:xlink="http://www.w3.org/1999/xlink" width="517pt" height="517pt" viewBox="0 0 517 517" version="1.1">
<g id="surface3331">
<rect x="0" y="0" width="517" height="517" style="fill:rgb(90%,90%,90%);fill-opacity:1;stroke:none;"/>
<path style="fill:none;stroke-width:5;stroke-linecap:butt;stroke-linejoin:round;stroke:rgb(100%,0%,0%);stroke-opacity:1;stroke-miterlimit:10;" d="M 261 261 L 517 261 L 517 517 L 261 517 Z M 261 261 "/>
<path style="fill-rule:nonzero;fill:rgb(90%,65%,0%);fill-opacity:1;stroke-width:1;stroke-linecap:butt;stroke-linejoin:round;stroke:rgb(0%,0%,0%);stroke-opacity:1;stroke-miterlimit:10;" d="M 413.980469 431.929688 L 393.980469 431.929688 L 393.980469 441.929688 L 413.980469 441.929688 L 413.980469 461.929688 L 423.980469 461.929688 L 423.980469 441.929688 L 443.980469 441.929688 L 443.980469 431.929688 L 423.980469 431.929688 L 423.980469 411.929688 L 413.980469 411.929688 L 413.980469 431.929688 "/>
<path style="fill-rule:nonzero;fill:rgb(35%,70%,90%);fill-opacity:1;stroke-width:1;stroke-linecap:butt;stroke-linejoin:round;stroke:rgb(0%,0%,0%);stroke-opacity:1;stroke-miterlimit:10;" d="M 289.433594 81.800781 L 269.433594 81.800781 L 269.433594 91.800781 L 289.433594 91.800781 L 289.433594 111.800781 L 299.433594 111.800781 L 299.433594 91.800781 L 319.433594 91.800781 L 319.433594 81.800781 L 299.433594 81.800781 L 299.433594 61.800781 L 289.433594 61.800781 L 289.433594 81.800781 "/>
<path style="fill-rule:nonzero;fill:rgb(90%,65%,0%);fill-opacity:1;stroke-width:1;stroke-linecap:butt;stroke-linejoin:round;stroke:rgb(0%,0%,0%);stroke-opacity:1;stroke-miterlimit:10;" d="M 409.183594 185.882812 L 389.183594 185.882812 L 389.183594 195.882812 L 409.183594 195.882812 L 409.183594 215.882812 L 419.183594 215.882812 L 419.183594 195.882812 L 439.183594 195.882812 L 439.183594 185.882812 L 419.183594 185.882812 L 419.183594 165.882812 L 409.183594 165.882812 L 409.183594 185.882812 "/>
<path style="fill-rule:nonzero;fill:rgb(90%,65%,0%);fill-opacity:1;stroke-width:1;stroke-linecap:butt;stroke-linejoin:round;stroke:rgb(0%,0%,0%);stroke-opacity:1;stroke-miterlimit:10;" d="M 49.992188 30.503906 L 29.992188 30.503906 L 29.992188 40.503906 L 49.992188 40.503906 L 49.992188 60.503906 L 59.992188 60.503906 L 59.992188 40.503906 L 79.992188 40.503906 L 79.992188 30.503906 L 59.992188 30.503906 L 59.992188 10.503906 L 49.992188 10.503906 L 49.992188 30.503906 "/>
<path style="fill-rule:nonzero;fill:rgb(90%,65%,0%);fill-opacity:1;stroke-width:1;stroke-linecap:butt;stroke-linejoin:round;stroke:rgb(0%,0%,0%);stroke-opacity:1;stroke-miterlimit:10;" d="M 143.324219 416.382812 L 123.324219 416.382812 L 123.324219 426.382812 L 143.324219 426.382812 L 143.324219 446.382812 L 153.324219 446.382812 L 153.324219 426.382812 L 173.324219 426.382812 L 173.324219 416.382812 L 153.324219 416.382812 L 153.324219 396.382812 L 143.324219 396.382812 L 143.324219 416.382812 "/>
</g>
</svg>
