<?xml version="1.0" encoding="UTF-8"?>
<svg xmlns="http://www.w3.org/2000/svg" xmlns:xlink="http://www.w3.org/1999/xlink" width="517pt" height="517pt" viewBox="0 0 517 517" version="1.1">
<g id="surface3201">
<rect x="0" y="0" width="517" height="517" style="fill:rgb(90%,90%,90%);fill-opacity:1;stroke:none;"/>
<path style="fill:none;stroke-width:5;stroke-linecap:butt;stroke-linejoin:round;stroke:rgb(100%,0%,0%);stroke-opacity:1;stroke-miterlimit:10;" d="M 261 261 L 517 261 L 517 517 L 261 517 Z M 261 261 "/>
<path style="fill-rule:nonzero;fill:rgb(25%,88%,82%);fill-opacity:1;stroke-width:1;stroke-linecap:butt;stroke-linejoin:round;stroke:rgb(0%,0%,0%);stroke-opacity:1;stroke-miterlimit:10;" d="M 389.421875 452.1875 C 389.421875 468.753906 375.988281 482.1875 359.421875 482.1875 C 342.851562 482.1875 329.421875 468.753906 329.421875 452.1875 C 329.421875 435.617188 342.851562 422.1875 359.421875 422.1875 C 375.988281 422.1875 389.421875 435.617188 389.421875 452.1875 "/>
<path style="fill-rule:nonzero;fill:rgb(100%,7%,57%);fill-opacity:1;stroke-width:1;stroke-linecap:butt;stroke-linejoin:round;stroke:rgb(0%,0%,0%);stroke-opacity:1;stroke-miterlimit:10;" d="M 342.058594 183.125 C 342.058594 199.691406 328.628906 213.125 312.058594 213.125 C 295.488281 213.125 282.058594 199.691406 282.058594 183.125 C 282.058594 166.554688 295.488281 153.125 312.058594 153.125 C 328.628906 153.125 342.058594 166.554688 342.058594 183.125 "/>
<path style="fill-rule:nonzero;fill:rgb(100%,7%,57%);fill-opacity:1;stroke-width:1;stroke-linecap:butt;stroke-linejoin:round;stroke:rgb(0%,0%,0%);stroke-opacity:1;stroke-miterlimit:10;" d="M 501.519531 111.214844 C 501.519531 127.785156 488.085938 141.214844 471.519531 141.214844 C 454.949219 141.214844 441.519531 127.785156 441.519531 111.214844 C 441.519531 94.648438 454.949219 81.214844 471.519531 81.214844 C 488.085938 81.214844 501.519531 94.648438 501.519531 111.214844 "/>
<path style="fill-rule:nonzero;fill:rgb(100%,7%,57%);fill-opacity:1;stroke-width:1;stroke-linecap:butt;stroke-linejoin:round;stroke:rgb(0%,0%,0%);stroke-opacity:1;stroke-miterlimit:10;" d="M 166.527344 86.753906 C 166.527344 103.324219 153.097656 116.753906 136.527344 116.753906 C 119.960938 116.753906 106.527344 103.324219 106.527344 86.753906 C 106.527344 70.1875 119.960938 56.753906 136.527344 56.753906 C 153.097656 56.753906 166.527344 70.1875 166.527344 86.753906 "/>
<path style="fill-rule:nonzero;fill:rgb(100%,7%,57%);fill-opacity:1;stroke-width:1;stroke-linecap:butt;stroke-linejoin:round;stroke:rgb(0%,0%,0%);stroke-opacity:1;stroke-miterlimit:10;" d="M 104.253906 329.03125 C 104.253906 345.597656 90.820312 359.03125 74.253906 359.03125 C 57.683594 359.03125 44.253906 345.597656 44.253906 329.03125 C 44.253906 312.460938 57.683594 299.03125 74.253906 299.03125 C 90.820312 299.03125 104.253906 312.460938 104.253906 329.03125 "/>
</g>
</svg>
