<?xml version="1.0" encoding="UTF-8"?>
<svg xmlns="http://www.w3.org/2000/svg" xmlns:xlink="http://www.w3.org/1999/xlink" width="517pt" height="517pt" viewBox="0 0 517 517" version="1.1">
<g id="surface8336">
<rect x="0" y="0" width="517" height="517" style="fill:rgb(90%,90%,90%);fill-opacity:1;stroke:none;"/>
<path style="fill:none;stroke-width:5;stroke-linecap:butt;stroke-linejoin:round;stroke:rgb(100%,0%,0%);stroke-opacity:1;stroke-miterlimit:10;" d="M 5 5 L 261 5 L 261 261 L 5 261 Z M 5 5 "/>
<path style="fill-rule:nonzero;fill:rgb(67%,100%,18%);fill-opacity:1;stroke-width:1;stroke-linecap:butt;stroke-linejoin:round;stroke:rgb(0%,0%,0%);stroke-opacity:1;stroke-miterlimit:10;" d="M 147.675781 168.597656 C 147.675781 185.167969 134.242188 198.597656 117.675781 198.597656 C 101.105469 198.597656 87.675781 185.167969 87.675781 168.597656 C 87.675781 152.03125 101.105469 138.597656 117.675781 138.597656 C 134.242188 138.597656 147.675781 152.03125 147.675781 168.597656 "/>
<path style="fill-rule:nonzero;fill:rgb(67%,100%,18%);fill-opacity:1;stroke-width:1;stroke-linecap:butt;stroke-linejoin:round;stroke:rgb(0%,0%,0%);stroke-opacity:1;stroke-miterlimit:10;" d="M 169.222656 385.328125 C 169.222656 401.898438 155.789062 415.328125 139.222656 415.328125 C 122.652344 415.328125 109.222656 401.898438 109.222656 385.328125 C 109.222656 368.761719 122.652344 355.328125 139.222656 355.328125 C 155.789062 355.328125 169.222656 368.761719 169.222656 385.328125 "/>
<path style="fill-rule:nonzero;fill:rgb(67%,100%,18%);fill-opacity:1;stroke-width:1;stroke-linecap:butt;stroke-linejoin:round;stroke:rgb(0%,0%,0%);stroke-opacity:1;stroke-miterlimit:10;" d="M 178.988281 299.425781 C 178.988281 315.996094 165.554688 329.425781 148.988281 329.425781 C 132.417969 329.425781 118.988281 315.996094 118.988281 299.425781 C 118.988281 282.859375 132.417969 269.425781 148.988281 269.425781 C 165.554688 269.425781 178.988281 282.859375 178.988281 299.425781 "/>
<path style="fill-rule:nonzero;fill:rgb(67%,100%,18%);fill-opacity:1;stroke-width:1;stroke-linecap:butt;stroke-linejoin:round;stroke:rgb(0%,0%,0%);stroke-opacity:1;stroke-miterlimit:10;" d="M 328.207031 134.453125 C 328.207031 151.019531 314.773438 164.453125 298.207031 164.453125 C 281.636719 164.453125 268.207031 151.019531 268.207031 134.453125 C 268.207031 117.882812 281.636719 104.453125 298.207031 104.453125 C 314.773438 104.453125 328.207031 117.882812 328.207031 134.453125 "/>
<path style="fill-rule:nonzero;fill:rgb(67%,100%,18%);fill-opacity:1;stroke-width:1;stroke-linecap:butt;stroke-linejoin:round;stroke:rgb(0%,0%,0%);stroke-opacity:1;stroke-miterlimit:10;" d="M 431.894531 154.84375 C 431.894531 171.414062 418.464844 184.84375 401.894531 184.84375 C 385.328125 184.84375 371.894531 171.414062 371.894531 154.84375 C 371.894531 138.277344 385.328125 124.84375 401.894531 124.84375 C 418.464844 124.84375 431.894531 138.277344 431.894531 154.84375 "/>
<path style="fill-rule:nonzero;fill:rgb(67%,100%,18%);fill-opacity:1;stroke-width:1;stroke-linecap:butt;stroke-linejoin:round;stroke:rgb(0%,0%,0%);stroke-opacity:1;stroke-miterlimit:10;" d="M 494.136719 217.761719 C 494.136719 234.332031 480.703125 247.761719 464.136719 247.761719 C 447.566406 247.761719 434.136719 234.332031 434.136719 217.761719 C 434.136719 201.195312 447.566406 187.761719 464.136719 187.761719 C 480.703125 187.761719 494.136719 201.195312 494.136719 217.761719 "/>
</g>
</svg>
