<?xml version="1.0" encoding="UTF-8"?>
<svg xmlns="http://www.w3.org/2000/svg" xmlns:xlink="http://www.w3.org/1999/xlink" width="517pt" height="517pt" viewBox="0 0 517 517" version="1.1">
<g id="surface8606">
<rect x="0" y="0" width="517" height="517" style="fill:rgb(90%,90%,90%);fill-opacity:1;stroke:none;"/>
<path style="fill:none;stroke-width:5;stroke-linecap:butt;stroke-linejoin:round;stroke:rgb(100%,0%,0%);stroke-opacity:1;stroke-miterlimit:10;" d="M 261 261 L 517 261 L 517 517 L 261 517 Z M 261 261 "/>
<path style="fill-rule:nonzero;fill:rgb(90%,65%,0%);fill-opacity:1;stroke-width:1;stroke-linecap:butt;stroke-linejoin:round;stroke:rgb(0%,0%,0%);stroke-opacity:1;stroke-miterlimit:10;" d="M 350.546875 400.648438 C 350.546875 417.214844 337.117188 430.648438 320.546875 430.648438 C 303.980469 430.648438 290.546875 417.214844 290.546875 400.648438 C 290.546875 384.078125 303.980469 370.648438 320.546875 370.648438 C 337.117188 370.648438 350.546875 384.078125 350.546875 400.648438 "/>
<path style="fill-rule:nonzero;fill:rgb(100%,100%,0%);fill-opacity:1;stroke-width:1;stroke-linecap:butt;stroke-linejoin:round;stroke:rgb(0%,0%,0%);stroke-opacity:1;stroke-miterlimit:10;" d="M 487.402344 55.070312 C 487.402344 71.640625 473.96875 85.070312 457.402344 85.070312 C 440.832031 85.070312 427.402344 71.640625 427.402344 55.070312 C 427.402344 38.503906 440.832031 25.070312 457.402344 25.070312 C 473.96875 25.070312 487.402344 38.503906 487.402344 55.070312 "/>
<path style="fill-rule:nonzero;fill:rgb(100%,100%,0%);fill-opacity:1;stroke-width:1;stroke-linecap:butt;stroke-linejoin:round;stroke:rgb(0%,0%,0%);stroke-opacity:1;stroke-miterlimit:10;" d="M 419.933594 54.066406 C 419.933594 70.636719 406.503906 84.066406 389.933594 84.066406 C 373.367188 84.066406 359.933594 70.636719 359.933594 54.066406 C 359.933594 37.5 373.367188 24.066406 389.933594 24.066406 C 406.503906 24.066406 419.933594 37.5 419.933594 54.066406 "/>
<path style="fill-rule:nonzero;fill:rgb(100%,100%,0%);fill-opacity:1;stroke-width:1;stroke-linecap:butt;stroke-linejoin:round;stroke:rgb(0%,0%,0%);stroke-opacity:1;stroke-miterlimit:10;" d="M 145.898438 197.355469 C 145.898438 213.925781 132.46875 227.355469 115.898438 227.355469 C 99.332031 227.355469 85.898438 213.925781 85.898438 197.355469 C 85.898438 180.785156 99.332031 167.355469 115.898438 167.355469 C 132.46875 167.355469 145.898438 180.785156 145.898438 197.355469 "/>
<path style="fill-rule:nonzero;fill:rgb(100%,100%,0%);fill-opacity:1;stroke-width:1;stroke-linecap:butt;stroke-linejoin:round;stroke:rgb(0%,0%,0%);stroke-opacity:1;stroke-miterlimit:10;" d="M 214.699219 36.6875 C 214.699219 53.253906 201.269531 66.6875 184.699219 66.6875 C 168.132812 66.6875 154.699219 53.253906 154.699219 36.6875 C 154.699219 20.117188 168.132812 6.6875 184.699219 6.6875 C 201.269531 6.6875 214.699219 20.117188 214.699219 36.6875 "/>
</g>
</svg>
