<?xml version="1.0" encoding="UTF-8"?>
<svg xmlns="http://www.w3.org/2000/svg" xmlns:xlink="http://www.w3.org/1999/xlink" width="517pt" height="517pt" viewBox="0 0 517 517" version="1.1">
<g id="surface3271">
<rect x="0" y="0" width="517" height="517" style="fill:rgb(90%,90%,90%);fill-opacity:1;stroke:none;"/>
<path style="fill:none;stroke-width:5;stroke-linecap:butt;stroke-linejoin:round;stroke:rgb(100%,0%,0%);stroke-opacity:1;stroke-miterlimit:10;" d="M 261 261 L 517 261 L 517 517 L 261 517 Z M 261 261 "/>
<path style="fill-rule:nonzero;fill:rgb(100%,7%,57%);fill-opacity:1;stroke-width:1;stroke-linecap:butt;stroke-linejoin:round;stroke:rgb(0%,0%,0%);stroke-opacity:1;stroke-miterlimit:10;" d="M 376.644531 475.335938 C 376.644531 491.90625 363.214844 505.335938 346.644531 505.335938 C 330.078125 505.335938 316.644531 491.90625 316.644531 475.335938 C 316.644531 458.769531 330.078125 445.335938 346.644531 445.335938 C 363.214844 445.335938 376.644531 458.769531 376.644531 475.335938 "/>
<path style="fill-rule:nonzero;fill:rgb(100%,7%,57%);fill-opacity:1;stroke-width:1;stroke-linecap:butt;stroke-linejoin:round;stroke:rgb(0%,0%,0%);stroke-opacity:1;stroke-miterlimit:10;" d="M 376.347656 101.144531 C 376.347656 117.714844 362.914062 131.144531 346.347656 131.144531 C 329.777344 131.144531 316.347656 117.714844 316.347656 101.144531 C 316.347656 84.578125 329.777344 71.144531 346.347656 71.144531 C 362.914062 71.144531 376.347656 84.578125 376.347656 101.144531 "/>
<path style="fill-rule:nonzero;fill:rgb(25%,88%,82%);fill-opacity:1;stroke-width:1;stroke-linecap:butt;stroke-linejoin:round;stroke:rgb(0%,0%,0%);stroke-opacity:1;stroke-miterlimit:10;" d="M 206.933594 73.832031 C 206.933594 90.402344 193.5 103.832031 176.933594 103.832031 C 160.363281 103.832031 146.933594 90.402344 146.933594 73.832031 C 146.933594 57.265625 160.363281 43.832031 176.933594 43.832031 C 193.5 43.832031 206.933594 57.265625 206.933594 73.832031 "/>
<path style="fill-rule:nonzero;fill:rgb(25%,88%,82%);fill-opacity:1;stroke-width:1;stroke-linecap:butt;stroke-linejoin:round;stroke:rgb(0%,0%,0%);stroke-opacity:1;stroke-miterlimit:10;" d="M 127.121094 74.722656 C 127.121094 91.292969 113.691406 104.722656 97.121094 104.722656 C 80.554688 104.722656 67.121094 91.292969 67.121094 74.722656 C 67.121094 58.15625 80.554688 44.722656 97.121094 44.722656 C 113.691406 44.722656 127.121094 58.15625 127.121094 74.722656 "/>
<path style="fill-rule:nonzero;fill:rgb(25%,88%,82%);fill-opacity:1;stroke-width:1;stroke-linecap:butt;stroke-linejoin:round;stroke:rgb(0%,0%,0%);stroke-opacity:1;stroke-miterlimit:10;" d="M 103.949219 384.304688 C 103.949219 400.875 90.519531 414.304688 73.949219 414.304688 C 57.382812 414.304688 43.949219 400.875 43.949219 384.304688 C 43.949219 367.734375 57.382812 354.304688 73.949219 354.304688 C 90.519531 354.304688 103.949219 367.734375 103.949219 384.304688 "/>
</g>
</svg>
