<?xml version="1.0" encoding="UTF-8"?>
<svg xmlns="http://www.w3.org/2000/svg" xmlns:xlink="http://www.w3.org/1999/xlink" width="517pt" height="517pt" viewBox="0 0 517 517" version="1.1">
<g id="surface3346">
<rect x="0" y="0" width="517" height="517" style="fill:rgb(90%,90%,90%);fill-opacity:1;stroke:none;"/>
<path style="fill:none;stroke-width:5;stroke-linecap:butt;stroke-linejoin:round;stroke:rgb(100%,0%,0%);stroke-opacity:1;stroke-miterlimit:10;" d="M 261 261 L 517 261 L 517 517 L 261 517 Z M 261 261 "/>
<path style="fill-rule:nonzero;fill:rgb(35%,70%,90%);fill-opacity:1;stroke-width:1;stroke-linecap:butt;stroke-linejoin:round;stroke:rgb(0%,0%,0%);stroke-opacity:1;stroke-miterlimit:10;" d="M 352.851562 359.324219 L 332.851562 359.324219 L 332.851562 369.324219 L 352.851562 369.324219 L 352.851562 389.324219 L 362.851562 389.324219 L 362.851562 369.324219 L 382.851562 369.324219 L 382.851562 359.324219 L 362.851562 359.324219 L 362.851562 339.324219 L 352.851562 339.324219 L 352.851562 359.324219 "/>
<path style="fill-rule:nonzero;fill:rgb(35%,70%,90%);fill-opacity:1;stroke-width:1;stroke-linecap:butt;stroke-linejoin:round;stroke:rgb(0%,0%,0%);stroke-opacity:1;stroke-miterlimit:10;" d="M 124.769531 148.261719 L 104.769531 148.261719 L 104.769531 158.261719 L 124.769531 158.261719 L 124.769531 178.261719 L 134.769531 178.261719 L 134.769531 158.261719 L 154.769531 158.261719 L 154.769531 148.261719 L 134.769531 148.261719 L 134.769531 128.261719 L 124.769531 128.261719 L 124.769531 148.261719 "/>
<path style="fill-rule:nonzero;fill:rgb(35%,70%,90%);fill-opacity:1;stroke-width:1;stroke-linecap:butt;stroke-linejoin:round;stroke:rgb(0%,0%,0%);stroke-opacity:1;stroke-miterlimit:10;" d="M 291.675781 121.851562 L 271.675781 121.851562 L 271.675781 131.851562 L 291.675781 131.851562 L 291.675781 151.851562 L 301.675781 151.851562 L 301.675781 131.851562 L 321.675781 131.851562 L 321.675781 121.851562 L 301.675781 121.851562 L 301.675781 101.851562 L 291.675781 101.851562 L 291.675781 121.851562 "/>
<path style="fill-rule:nonzero;fill:rgb(35%,70%,90%);fill-opacity:1;stroke-width:1;stroke-linecap:butt;stroke-linejoin:round;stroke:rgb(0%,0%,0%);stroke-opacity:1;stroke-miterlimit:10;" d="M 351.421875 101.96875 L 331.421875 101.96875 L 331.421875 111.96875 L 351.421875 111.96875 L 351.421875 131.96875 L 361.421875 131.96875 L 361.421875 111.96875 L 381.421875 111.96875 L 381.421875 101.96875 L 361.421875 101.96875 L 361.421875 81.96875 L 351.421875 81.96875 L 351.421875 101.96875 "/>
<path style="fill-rule:nonzero;fill:rgb(35%,70%,90%);fill-opacity:1;stroke-width:1;stroke-linecap:butt;stroke-linejoin:round;stroke:rgb(0%,0%,0%);stroke-opacity:1;stroke-miterlimit:10;" d="M 448.023438 97.035156 L 428.023438 97.035156 L 428.023438 107.035156 L 448.023438 107.035156 L 448.023438 127.035156 L 458.023438 127.035156 L 458.023438 107.035156 L 478.023438 107.035156 L 478.023438 97.035156 L 458.023438 97.035156 L 458.023438 77.035156 L 448.023438 77.035156 L 448.023438 97.035156 "/>
</g>
</svg>
