<?xml version="1.0" encoding="UTF-8"?>
<svg xmlns="http://www.w3.org/2000/svg" xmlns:xlink="http://www.w3.org/1999/xlink" width="517pt" height="517pt" viewBox="0 0 517 517" version="1.1">
<g id="surface3336">
<rect x="0" y="0" width="517" height="517" style="fill:rgb(90%,90%,90%);fill-opacity:1;stroke:none;"/>
<path style="fill:none;stroke-width:5;stroke-linecap:butt;stroke-linejoin:round;stroke:rgb(100%,0%,0%);stroke-opacity:1;stroke-miterlimit:10;" d="M 261 261 L 517 261 L 517 517 L 261 517 Z M 261 261 "/>
<path style="fill-rule:nonzero;fill:rgb(90%,65%,0%);fill-opacity:1;stroke-width:1;stroke-linecap:butt;stroke-linejoin:round;stroke:rgb(0%,0%,0%);stroke-opacity:1;stroke-miterlimit:10;" d="M 312.597656 370.96875 L 292.597656 370.96875 L 292.597656 380.96875 L 312.597656 380.96875 L 312.597656 400.96875 L 322.597656 400.96875 L 322.597656 380.96875 L 342.597656 380.96875 L 342.597656 370.96875 L 322.597656 370.96875 L 322.597656 350.96875 L 312.597656 350.96875 L 312.597656 370.96875 "/>
<path style="fill-rule:nonzero;fill:rgb(35%,70%,90%);fill-opacity:1;stroke-width:1;stroke-linecap:butt;stroke-linejoin:round;stroke:rgb(0%,0%,0%);stroke-opacity:1;stroke-miterlimit:10;" d="M 189.957031 141.832031 L 169.957031 141.832031 L 169.957031 151.832031 L 189.957031 151.832031 L 189.957031 171.832031 L 199.957031 171.832031 L 199.957031 151.832031 L 219.957031 151.832031 L 219.957031 141.832031 L 199.957031 141.832031 L 199.957031 121.832031 L 189.957031 121.832031 L 189.957031 141.832031 "/>
<path style="fill-rule:nonzero;fill:rgb(90%,65%,0%);fill-opacity:1;stroke-width:1;stroke-linecap:butt;stroke-linejoin:round;stroke:rgb(0%,0%,0%);stroke-opacity:1;stroke-miterlimit:10;" d="M 182.066406 61.410156 L 162.066406 61.410156 L 162.066406 71.410156 L 182.066406 71.410156 L 182.066406 91.410156 L 192.066406 91.410156 L 192.066406 71.410156 L 212.066406 71.410156 L 212.066406 61.410156 L 192.066406 61.410156 L 192.066406 41.410156 L 182.066406 41.410156 L 182.066406 61.410156 "/>
<path style="fill-rule:nonzero;fill:rgb(90%,65%,0%);fill-opacity:1;stroke-width:1;stroke-linecap:butt;stroke-linejoin:round;stroke:rgb(0%,0%,0%);stroke-opacity:1;stroke-miterlimit:10;" d="M 412.132812 152.214844 L 392.132812 152.214844 L 392.132812 162.214844 L 412.132812 162.214844 L 412.132812 182.214844 L 422.132812 182.214844 L 422.132812 162.214844 L 442.132812 162.214844 L 442.132812 152.214844 L 422.132812 152.214844 L 422.132812 132.214844 L 412.132812 132.214844 L 412.132812 152.214844 "/>
<path style="fill-rule:nonzero;fill:rgb(90%,65%,0%);fill-opacity:1;stroke-width:1;stroke-linecap:butt;stroke-linejoin:round;stroke:rgb(0%,0%,0%);stroke-opacity:1;stroke-miterlimit:10;" d="M 444.972656 215.691406 L 424.972656 215.691406 L 424.972656 225.691406 L 444.972656 225.691406 L 444.972656 245.691406 L 454.972656 245.691406 L 454.972656 225.691406 L 474.972656 225.691406 L 474.972656 215.691406 L 454.972656 215.691406 L 454.972656 195.691406 L 444.972656 195.691406 L 444.972656 215.691406 "/>
</g>
</svg>
