<?xml version="1.0" encoding="UTF-8"?>
<svg xmlns="http://www.w3.org/2000/svg" xmlns:xlink="http://www.w3.org/1999/xlink" width="517pt" height="517pt" viewBox="0 0 517 517" version="1.1">
<g id="surface9006">
<rect x="0" y="0" width="517" height="517" style="fill:rgb(90%,90%,90%);fill-opacity:1;stroke:none;"/>
<path style="fill:none;stroke-width:5;stroke-linecap:butt;stroke-linejoin:round;stroke:rgb(100%,0%,0%);stroke-opacity:1;stroke-miterlimit:10;" d="M 5 5 L 261 5 L 261 261 L 5 261 Z M 5 5 "/>
<path style="fill-rule:nonzero;fill:rgb(100%,100%,0%);fill-opacity:1;stroke-width:1;stroke-linecap:butt;stroke-linejoin:round;stroke:rgb(0%,0%,0%);stroke-opacity:1;stroke-miterlimit:10;" d="M 102.222656 95.039062 L 82.222656 95.039062 L 82.222656 105.039062 L 102.222656 105.039062 L 102.222656 125.039062 L 112.222656 125.039062 L 112.222656 105.039062 L 132.222656 105.039062 L 132.222656 95.039062 L 112.222656 95.039062 L 112.222656 75.039062 L 102.222656 75.039062 L 102.222656 95.039062 "/>
<path style="fill-rule:nonzero;fill:rgb(35%,70%,90%);fill-opacity:1;stroke-width:1;stroke-linecap:butt;stroke-linejoin:round;stroke:rgb(0%,0%,0%);stroke-opacity:1;stroke-miterlimit:10;" d="M 211.066406 437.070312 L 191.066406 437.070312 L 191.066406 447.070312 L 211.066406 447.070312 L 211.066406 467.070312 L 221.066406 467.070312 L 221.066406 447.070312 L 241.066406 447.070312 L 241.066406 437.070312 L 221.066406 437.070312 L 221.066406 417.070312 L 211.066406 417.070312 L 211.066406 437.070312 "/>
<path style="fill-rule:nonzero;fill:rgb(35%,70%,90%);fill-opacity:1;stroke-width:1;stroke-linecap:butt;stroke-linejoin:round;stroke:rgb(0%,0%,0%);stroke-opacity:1;stroke-miterlimit:10;" d="M 449.9375 38.457031 L 429.9375 38.457031 L 429.9375 48.457031 L 449.9375 48.457031 L 449.9375 68.457031 L 459.9375 68.457031 L 459.9375 48.457031 L 479.9375 48.457031 L 479.9375 38.457031 L 459.9375 38.457031 L 459.9375 18.457031 L 449.9375 18.457031 L 449.9375 38.457031 "/>
<path style="fill-rule:nonzero;fill:rgb(35%,70%,90%);fill-opacity:1;stroke-width:1;stroke-linecap:butt;stroke-linejoin:round;stroke:rgb(0%,0%,0%);stroke-opacity:1;stroke-miterlimit:10;" d="M 386.605469 33.367188 L 366.605469 33.367188 L 366.605469 43.367188 L 386.605469 43.367188 L 386.605469 63.367188 L 396.605469 63.367188 L 396.605469 43.367188 L 416.605469 43.367188 L 416.605469 33.367188 L 396.605469 33.367188 L 396.605469 13.367188 L 386.605469 13.367188 L 386.605469 33.367188 "/>
<path style="fill-rule:nonzero;fill:rgb(35%,70%,90%);fill-opacity:1;stroke-width:1;stroke-linecap:butt;stroke-linejoin:round;stroke:rgb(0%,0%,0%);stroke-opacity:1;stroke-miterlimit:10;" d="M 295.871094 424.78125 L 275.871094 424.78125 L 275.871094 434.78125 L 295.871094 434.78125 L 295.871094 454.78125 L 305.871094 454.78125 L 305.871094 434.78125 L 325.871094 434.78125 L 325.871094 424.78125 L 305.871094 424.78125 L 305.871094 404.78125 L 295.871094 404.78125 L 295.871094 424.78125 "/>
</g>
</svg>
