<?xml version="1.0" encoding="UTF-8"?>
<svg xmlns="http://www.w3.org/2000/svg" xmlns:xlink="http://www.w3.org/1999/xlink" width="517pt" height="517pt" viewBox="0 0 517 517" version="1.1">
<g id="surface8946">
<rect x="0" y="0" width="517" height="517" style="fill:rgb(90%,90%,90%);fill-opacity:1;stroke:none;"/>
<path style="fill:none;stroke-width:5;stroke-linecap:butt;stroke-linejoin:round;stroke:rgb(100%,0%,0%);stroke-opacity:1;stroke-miterlimit:10;" d="M 261 261 L 517 261 L 517 517 L 261 517 Z M 261 261 "/>
<path style="fill-rule:nonzero;fill:rgb(67%,100%,18%);fill-opacity:1;stroke-width:1;stroke-linecap:butt;stroke-linejoin:round;stroke:rgb(0%,0%,0%);stroke-opacity:1;stroke-miterlimit:10;" d="M 488.277344 391.792969 C 488.277344 408.359375 474.84375 421.792969 458.277344 421.792969 C 441.707031 421.792969 428.277344 408.359375 428.277344 391.792969 C 428.277344 375.222656 441.707031 361.792969 458.277344 361.792969 C 474.84375 361.792969 488.277344 375.222656 488.277344 391.792969 "/>
<path style="fill-rule:nonzero;fill:rgb(100%,100%,0%);fill-opacity:1;stroke-width:1;stroke-linecap:butt;stroke-linejoin:round;stroke:rgb(0%,0%,0%);stroke-opacity:1;stroke-miterlimit:10;" d="M 405.429688 36.804688 C 405.429688 53.375 392 66.804688 375.429688 66.804688 C 358.859375 66.804688 345.429688 53.375 345.429688 36.804688 C 345.429688 20.234375 358.859375 6.804688 375.429688 6.804688 C 392 6.804688 405.429688 20.234375 405.429688 36.804688 "/>
<path style="fill-rule:nonzero;fill:rgb(100%,100%,0%);fill-opacity:1;stroke-width:1;stroke-linecap:butt;stroke-linejoin:round;stroke:rgb(0%,0%,0%);stroke-opacity:1;stroke-miterlimit:10;" d="M 414.308594 107.457031 C 414.308594 124.023438 400.875 137.457031 384.308594 137.457031 C 367.738281 137.457031 354.308594 124.023438 354.308594 107.457031 C 354.308594 90.886719 367.738281 77.457031 384.308594 77.457031 C 400.875 77.457031 414.308594 90.886719 414.308594 107.457031 "/>
<path style="fill-rule:nonzero;fill:rgb(100%,100%,0%);fill-opacity:1;stroke-width:1;stroke-linecap:butt;stroke-linejoin:round;stroke:rgb(0%,0%,0%);stroke-opacity:1;stroke-miterlimit:10;" d="M 75.351562 429.851562 C 75.351562 446.417969 61.917969 459.851562 45.351562 459.851562 C 28.78125 459.851562 15.351562 446.417969 15.351562 429.851562 C 15.351562 413.28125 28.78125 399.851562 45.351562 399.851562 C 61.917969 399.851562 75.351562 413.28125 75.351562 429.851562 "/>
<path style="fill-rule:nonzero;fill:rgb(100%,100%,0%);fill-opacity:1;stroke-width:1;stroke-linecap:butt;stroke-linejoin:round;stroke:rgb(0%,0%,0%);stroke-opacity:1;stroke-miterlimit:10;" d="M 81.335938 297.257812 C 81.335938 313.824219 67.90625 327.257812 51.335938 327.257812 C 34.765625 327.257812 21.335938 313.824219 21.335938 297.257812 C 21.335938 280.6875 34.765625 267.257812 51.335938 267.257812 C 67.90625 267.257812 81.335938 280.6875 81.335938 297.257812 "/>
<path style="fill-rule:nonzero;fill:rgb(100%,100%,0%);fill-opacity:1;stroke-width:1;stroke-linecap:butt;stroke-linejoin:round;stroke:rgb(0%,0%,0%);stroke-opacity:1;stroke-miterlimit:10;" d="M 231.136719 358.972656 C 231.136719 375.542969 217.707031 388.972656 201.136719 388.972656 C 184.570312 388.972656 171.136719 375.542969 171.136719 358.972656 C 171.136719 342.40625 184.570312 328.972656 201.136719 328.972656 C 217.707031 328.972656 231.136719 342.40625 231.136719 358.972656 "/>
</g>
</svg>
