<?xml version="1.0" encoding="UTF-8"?>
<svg xmlns="http://www.w3.org/2000/svg" xmlns:xlink="http://www.w3.org/1999/xlink" width="517pt" height="517pt" viewBox="0 0 517 517" version="1.1">
<g id="surface301">
<rect x="0" y="0" width="517" height="517" style="fill:rgb(90%,90%,90%);fill-opacity:1;stroke:none;"/>
<path style="fill:none;stroke-width:5;stroke-linecap:butt;stroke-linejoin:round;stroke:rgb(100%,0%,0%);stroke-opacity:1;stroke-miterlimit:10;" d="M 5 5 L 261 5 L 261 261 L 5 261 Z M 5 5 "/>
<path style="fill-rule:nonzero;fill:rgb(53%,27%,7%);fill-opacity:1;stroke-width:1;stroke-linecap:butt;stroke-linejoin:round;stroke:rgb(0%,0%,0%);stroke-opacity:1;stroke-miterlimit:10;" d="M 68.640625 78.203125 C 68.640625 63.800781 44.640625 63.800781 44.640625 78.203125 C 44.640625 92.601562 68.640625 95 68.640625 107 C 68.640625 95 92.640625 92.601562 92.640625 78.203125 C 92.640625 63.800781 68.640625 63.800781 68.640625 78.203125 "/>
<path style="fill-rule:nonzero;fill:rgb(50%,0%,50%);fill-opacity:1;stroke-width:1;stroke-linecap:butt;stroke-linejoin:round;stroke:rgb(0%,0%,0%);stroke-opacity:1;stroke-miterlimit:10;" d="M 406.40625 110.339844 C 406.40625 95.9375 382.40625 95.9375 382.40625 110.339844 C 382.40625 124.738281 406.40625 127.140625 406.40625 139.140625 C 406.40625 127.140625 430.40625 124.738281 430.40625 110.339844 C 430.40625 95.9375 406.40625 95.9375 406.40625 110.339844 "/>
<path style="fill-rule:nonzero;fill:rgb(50%,0%,50%);fill-opacity:1;stroke-width:1;stroke-linecap:butt;stroke-linejoin:round;stroke:rgb(0%,0%,0%);stroke-opacity:1;stroke-miterlimit:10;" d="M 330.925781 393.394531 C 330.925781 378.996094 306.925781 378.996094 306.925781 393.394531 C 306.925781 407.796875 330.925781 410.195312 330.925781 422.195312 C 330.925781 410.195312 354.925781 407.796875 354.925781 393.394531 C 354.925781 378.996094 330.925781 378.996094 330.925781 393.394531 "/>
<path style="fill-rule:nonzero;fill:rgb(67%,100%,18%);fill-opacity:1;stroke-width:1;stroke-linecap:butt;stroke-linejoin:round;stroke:rgb(0%,0%,0%);stroke-opacity:1;stroke-miterlimit:10;" d="M 387.511719 315.933594 C 387.511719 301.535156 363.511719 301.535156 363.511719 315.933594 C 363.511719 330.335938 387.511719 332.734375 387.511719 344.734375 C 387.511719 332.734375 411.511719 330.335938 411.511719 315.933594 C 411.511719 301.535156 387.511719 301.535156 387.511719 315.933594 "/>
</g>
</svg>
