<?xml version="1.0" encoding="UTF-8"?>
<svg xmlns="http://www.w3.org/2000/svg" xmlns:xlink="http://www.w3.org/1999/xlink" width="517pt" height="517pt" viewBox="0 0 517 517" version="1.1">
<g id="surface8986">
<rect x="0" y="0" width="517" height="517" style="fill:rgb(90%,90%,90%);fill-opacity:1;stroke:none;"/>
<path style="fill:none;stroke-width:5;stroke-linecap:butt;stroke-linejoin:round;stroke:rgb(100%,0%,0%);stroke-opacity:1;stroke-miterlimit:10;" d="M 5 5 L 261 5 L 261 261 L 5 261 Z M 5 5 "/>
<path style="fill-rule:nonzero;fill:rgb(100%,100%,0%);fill-opacity:1;stroke-width:1;stroke-linecap:butt;stroke-linejoin:round;stroke:rgb(0%,0%,0%);stroke-opacity:1;stroke-miterlimit:10;" d="M 178.859375 182.066406 L 158.859375 182.066406 L 158.859375 192.066406 L 178.859375 192.066406 L 178.859375 212.066406 L 188.859375 212.066406 L 188.859375 192.066406 L 208.859375 192.066406 L 208.859375 182.066406 L 188.859375 182.066406 L 188.859375 162.066406 L 178.859375 162.066406 L 178.859375 182.066406 "/>
<path style="fill-rule:nonzero;fill:rgb(35%,70%,90%);fill-opacity:1;stroke-width:1;stroke-linecap:butt;stroke-linejoin:round;stroke:rgb(0%,0%,0%);stroke-opacity:1;stroke-miterlimit:10;" d="M 173.40625 448.503906 L 153.40625 448.503906 L 153.40625 458.503906 L 173.40625 458.503906 L 173.40625 478.503906 L 183.40625 478.503906 L 183.40625 458.503906 L 203.40625 458.503906 L 203.40625 448.503906 L 183.40625 448.503906 L 183.40625 428.503906 L 173.40625 428.503906 L 173.40625 448.503906 "/>
<path style="fill-rule:nonzero;fill:rgb(35%,70%,90%);fill-opacity:1;stroke-width:1;stroke-linecap:butt;stroke-linejoin:round;stroke:rgb(0%,0%,0%);stroke-opacity:1;stroke-miterlimit:10;" d="M 70.496094 417.035156 L 50.496094 417.035156 L 50.496094 427.035156 L 70.496094 427.035156 L 70.496094 447.035156 L 80.496094 447.035156 L 80.496094 427.035156 L 100.496094 427.035156 L 100.496094 417.035156 L 80.496094 417.035156 L 80.496094 397.035156 L 70.496094 397.035156 L 70.496094 417.035156 "/>
<path style="fill-rule:nonzero;fill:rgb(35%,70%,90%);fill-opacity:1;stroke-width:1;stroke-linecap:butt;stroke-linejoin:round;stroke:rgb(0%,0%,0%);stroke-opacity:1;stroke-miterlimit:10;" d="M 293.339844 360.410156 L 273.339844 360.410156 L 273.339844 370.410156 L 293.339844 370.410156 L 293.339844 390.410156 L 303.339844 390.410156 L 303.339844 370.410156 L 323.339844 370.410156 L 323.339844 360.410156 L 303.339844 360.410156 L 303.339844 340.410156 L 293.339844 340.410156 L 293.339844 360.410156 "/>
<path style="fill-rule:nonzero;fill:rgb(35%,70%,90%);fill-opacity:1;stroke-width:1;stroke-linecap:butt;stroke-linejoin:round;stroke:rgb(0%,0%,0%);stroke-opacity:1;stroke-miterlimit:10;" d="M 420.902344 324.160156 L 400.902344 324.160156 L 400.902344 334.160156 L 420.902344 334.160156 L 420.902344 354.160156 L 430.902344 354.160156 L 430.902344 334.160156 L 450.902344 334.160156 L 450.902344 324.160156 L 430.902344 324.160156 L 430.902344 304.160156 L 420.902344 304.160156 L 420.902344 324.160156 "/>
<path style="fill-rule:nonzero;fill:rgb(35%,70%,90%);fill-opacity:1;stroke-width:1;stroke-linecap:butt;stroke-linejoin:round;stroke:rgb(0%,0%,0%);stroke-opacity:1;stroke-miterlimit:10;" d="M 437.242188 406.179688 L 417.242188 406.179688 L 417.242188 416.179688 L 437.242188 416.179688 L 437.242188 436.179688 L 447.242188 436.179688 L 447.242188 416.179688 L 467.242188 416.179688 L 467.242188 406.179688 L 447.242188 406.179688 L 447.242188 386.179688 L 437.242188 386.179688 L 437.242188 406.179688 "/>
</g>
</svg>
