<?xml version="1.0" encoding="UTF-8"?>
<svg xmlns="http://www.w3.org/2000/svg" xmlns:xlink="http://www.w3.org/1999/xlink" width="517pt" height="517pt" viewBox="0 0 517 517" version="1.1">
<g id="surface3391">
<rect x="0" y="0" width="517" height="517" style="fill:rgb(90%,90%,90%);fill-opacity:1;stroke:none;"/>
<path style="fill:none;stroke-width:5;stroke-linecap:butt;stroke-linejoin:round;stroke:rgb(100%,0%,0%);stroke-opacity:1;stroke-miterlimit:10;" d="M 5 5 L 261 5 L 261 261 L 5 261 Z M 5 5 "/>
<path style="fill-rule:nonzero;fill:rgb(100%,100%,0%);fill-opacity:1;stroke-width:1;stroke-linecap:butt;stroke-linejoin:round;stroke:rgb(0%,0%,0%);stroke-opacity:1;stroke-miterlimit:10;" d="M 156.703125 141.402344 L 130.722656 186.402344 L 182.683594 186.402344 L 156.703125 141.402344 "/>
<path style="fill-rule:nonzero;fill:rgb(25%,88%,82%);fill-opacity:1;stroke-width:1;stroke-linecap:butt;stroke-linejoin:round;stroke:rgb(0%,0%,0%);stroke-opacity:1;stroke-miterlimit:10;" d="M 220.140625 439.207031 L 194.160156 484.207031 L 246.121094 484.207031 L 220.140625 439.207031 "/>
<path style="fill-rule:nonzero;fill:rgb(25%,88%,82%);fill-opacity:1;stroke-width:1;stroke-linecap:butt;stroke-linejoin:round;stroke:rgb(0%,0%,0%);stroke-opacity:1;stroke-miterlimit:10;" d="M 146.902344 386.75 L 120.921875 431.75 L 172.882812 431.75 L 146.902344 386.75 "/>
<path style="fill-rule:nonzero;fill:rgb(25%,88%,82%);fill-opacity:1;stroke-width:1;stroke-linecap:butt;stroke-linejoin:round;stroke:rgb(0%,0%,0%);stroke-opacity:1;stroke-miterlimit:10;" d="M 475.570312 47.054688 L 449.589844 92.054688 L 501.554688 92.054688 L 475.570312 47.054688 "/>
<path style="fill-rule:nonzero;fill:rgb(25%,88%,82%);fill-opacity:1;stroke-width:1;stroke-linecap:butt;stroke-linejoin:round;stroke:rgb(0%,0%,0%);stroke-opacity:1;stroke-miterlimit:10;" d="M 423.96875 179.445312 L 397.988281 224.445312 L 449.949219 224.445312 L 423.96875 179.445312 "/>
<path style="fill-rule:nonzero;fill:rgb(100%,100%,0%);fill-opacity:1;stroke-width:1;stroke-linecap:butt;stroke-linejoin:round;stroke:rgb(0%,0%,0%);stroke-opacity:1;stroke-miterlimit:10;" d="M 322.78125 331.171875 L 296.800781 376.171875 L 348.765625 376.171875 L 322.78125 331.171875 "/>
</g>
</svg>
