<?xml version="1.0" encoding="UTF-8"?>
<svg xmlns="http://www.w3.org/2000/svg" xmlns:xlink="http://www.w3.org/1999/xlink" width="517pt" height="517pt" viewBox="0 0 517 517" version="1.1">
<g id="surface3891">
<rect x="0" y="0" width="517" height="517" style="fill:rgb(90%,90%,90%);fill-opacity:1;stroke:none;"/>
<path style="fill:none;stroke-width:5;stroke-linecap:butt;stroke-linejoin:round;stroke:rgb(100%,0%,0%);stroke-opacity:1;stroke-miterlimit:10;" d="M 5 5 L 261 5 L 261 261 L 5 261 Z M 5 5 "/>
<path style="fill-rule:nonzero;fill:rgb(100%,7%,57%);fill-opacity:1;stroke-width:1;stroke-linecap:butt;stroke-linejoin:round;stroke:rgb(0%,0%,0%);stroke-opacity:1;stroke-miterlimit:10;" d="M 96.046875 110.671875 C 96.046875 127.238281 82.617188 140.671875 66.046875 140.671875 C 49.480469 140.671875 36.046875 127.238281 36.046875 110.671875 C 36.046875 94.101562 49.480469 80.671875 66.046875 80.671875 C 82.617188 80.671875 96.046875 94.101562 96.046875 110.671875 "/>
<path style="fill-rule:nonzero;fill:rgb(100%,100%,0%);fill-opacity:1;stroke-width:1;stroke-linecap:butt;stroke-linejoin:round;stroke:rgb(0%,0%,0%);stroke-opacity:1;stroke-miterlimit:10;" d="M 176.882812 401.480469 C 176.882812 418.046875 163.453125 431.480469 146.882812 431.480469 C 130.316406 431.480469 116.882812 418.046875 116.882812 401.480469 C 116.882812 384.910156 130.316406 371.480469 146.882812 371.480469 C 163.453125 371.480469 176.882812 384.910156 176.882812 401.480469 "/>
<path style="fill-rule:nonzero;fill:rgb(100%,7%,57%);fill-opacity:1;stroke-width:1;stroke-linecap:butt;stroke-linejoin:round;stroke:rgb(0%,0%,0%);stroke-opacity:1;stroke-miterlimit:10;" d="M 68.222656 433.710938 C 68.222656 450.277344 54.789062 463.710938 38.222656 463.710938 C 21.652344 463.710938 8.222656 450.277344 8.222656 433.710938 C 8.222656 417.140625 21.652344 403.710938 38.222656 403.710938 C 54.789062 403.710938 68.222656 417.140625 68.222656 433.710938 "/>
<path style="fill-rule:nonzero;fill:rgb(100%,7%,57%);fill-opacity:1;stroke-width:1;stroke-linecap:butt;stroke-linejoin:round;stroke:rgb(0%,0%,0%);stroke-opacity:1;stroke-miterlimit:10;" d="M 377.996094 164.792969 C 377.996094 181.363281 364.5625 194.792969 347.996094 194.792969 C 331.425781 194.792969 317.996094 181.363281 317.996094 164.792969 C 317.996094 148.222656 331.425781 134.792969 347.996094 134.792969 C 364.5625 134.792969 377.996094 148.222656 377.996094 164.792969 "/>
<path style="fill-rule:nonzero;fill:rgb(100%,7%,57%);fill-opacity:1;stroke-width:1;stroke-linecap:butt;stroke-linejoin:round;stroke:rgb(0%,0%,0%);stroke-opacity:1;stroke-miterlimit:10;" d="M 408.585938 113.164062 C 408.585938 129.734375 395.15625 143.164062 378.585938 143.164062 C 362.019531 143.164062 348.585938 129.734375 348.585938 113.164062 C 348.585938 96.59375 362.019531 83.164062 378.585938 83.164062 C 395.15625 83.164062 408.585938 96.59375 408.585938 113.164062 "/>
<path style="fill-rule:nonzero;fill:rgb(100%,7%,57%);fill-opacity:1;stroke-width:1;stroke-linecap:butt;stroke-linejoin:round;stroke:rgb(0%,0%,0%);stroke-opacity:1;stroke-miterlimit:10;" d="M 479.898438 347.921875 C 479.898438 364.488281 466.46875 377.921875 449.898438 377.921875 C 433.332031 377.921875 419.898438 364.488281 419.898438 347.921875 C 419.898438 331.351562 433.332031 317.921875 449.898438 317.921875 C 466.46875 317.921875 479.898438 331.351562 479.898438 347.921875 "/>
</g>
</svg>
