<?xml version="1.0" encoding="UTF-8"?>
<svg xmlns="http://www.w3.org/2000/svg" xmlns:xlink="http://www.w3.org/1999/xlink" width="517pt" height="517pt" viewBox="0 0 517 517" version="1.1">
<g id="surface3631">
<rect x="0" y="0" width="517" height="517" style="fill:rgb(90%,90%,90%);fill-opacity:1;stroke:none;"/>
<path style="fill:none;stroke-width:5;stroke-linecap:butt;stroke-linejoin:round;stroke:rgb(100%,0%,0%);stroke-opacity:1;stroke-miterlimit:10;" d="M 5 5 L 261 5 L 261 261 L 5 261 Z M 5 5 "/>
<path style="fill-rule:nonzero;fill:rgb(100%,100%,0%);fill-opacity:1;stroke-width:1;stroke-linecap:butt;stroke-linejoin:round;stroke:rgb(0%,0%,0%);stroke-opacity:1;stroke-miterlimit:10;" d="M 76.992188 59.785156 L 56.992188 59.785156 L 56.992188 69.785156 L 76.992188 69.785156 L 76.992188 89.785156 L 86.992188 89.785156 L 86.992188 69.785156 L 106.992188 69.785156 L 106.992188 59.785156 L 86.992188 59.785156 L 86.992188 39.785156 L 76.992188 39.785156 L 76.992188 59.785156 "/>
<path style="fill-rule:nonzero;fill:rgb(35%,70%,90%);fill-opacity:1;stroke-width:1;stroke-linecap:butt;stroke-linejoin:round;stroke:rgb(0%,0%,0%);stroke-opacity:1;stroke-miterlimit:10;" d="M 337.957031 406.234375 L 317.957031 406.234375 L 317.957031 416.234375 L 337.957031 416.234375 L 337.957031 436.234375 L 347.957031 436.234375 L 347.957031 416.234375 L 367.957031 416.234375 L 367.957031 406.234375 L 347.957031 406.234375 L 347.957031 386.234375 L 337.957031 386.234375 L 337.957031 406.234375 "/>
<path style="fill-rule:nonzero;fill:rgb(35%,70%,90%);fill-opacity:1;stroke-width:1;stroke-linecap:butt;stroke-linejoin:round;stroke:rgb(0%,0%,0%);stroke-opacity:1;stroke-miterlimit:10;" d="M 393.632812 301.832031 L 373.632812 301.832031 L 373.632812 311.832031 L 393.632812 311.832031 L 393.632812 331.832031 L 403.632812 331.832031 L 403.632812 311.832031 L 423.632812 311.832031 L 423.632812 301.832031 L 403.632812 301.832031 L 403.632812 281.832031 L 393.632812 281.832031 L 393.632812 301.832031 "/>
<path style="fill-rule:nonzero;fill:rgb(35%,70%,90%);fill-opacity:1;stroke-width:1;stroke-linecap:butt;stroke-linejoin:round;stroke:rgb(0%,0%,0%);stroke-opacity:1;stroke-miterlimit:10;" d="M 389.890625 107.867188 L 369.890625 107.867188 L 369.890625 117.867188 L 389.890625 117.867188 L 389.890625 137.867188 L 399.890625 137.867188 L 399.890625 117.867188 L 419.890625 117.867188 L 419.890625 107.867188 L 399.890625 107.867188 L 399.890625 87.867188 L 389.890625 87.867188 L 389.890625 107.867188 "/>
<path style="fill-rule:nonzero;fill:rgb(35%,70%,90%);fill-opacity:1;stroke-width:1;stroke-linecap:butt;stroke-linejoin:round;stroke:rgb(0%,0%,0%);stroke-opacity:1;stroke-miterlimit:10;" d="M 358.644531 197.882812 L 338.644531 197.882812 L 338.644531 207.882812 L 358.644531 207.882812 L 358.644531 227.882812 L 368.644531 227.882812 L 368.644531 207.882812 L 388.644531 207.882812 L 388.644531 197.882812 L 368.644531 197.882812 L 368.644531 177.882812 L 358.644531 177.882812 L 358.644531 197.882812 "/>
<path style="fill-rule:nonzero;fill:rgb(100%,100%,0%);fill-opacity:1;stroke-width:1;stroke-linecap:butt;stroke-linejoin:round;stroke:rgb(0%,0%,0%);stroke-opacity:1;stroke-miterlimit:10;" d="M 460.355469 184.78125 L 440.355469 184.78125 L 440.355469 194.78125 L 460.355469 194.78125 L 460.355469 214.78125 L 470.355469 214.78125 L 470.355469 194.78125 L 490.355469 194.78125 L 490.355469 184.78125 L 470.355469 184.78125 L 470.355469 164.78125 L 460.355469 164.78125 L 460.355469 184.78125 "/>
</g>
</svg>
