<?xml version="1.0" encoding="UTF-8"?>
<svg xmlns="http://www.w3.org/2000/svg" xmlns:xlink="http://www.w3.org/1999/xlink" width="517pt" height="517pt" viewBox="0 0 517 517" version="1.1">
<g id="surface8516">
<rect x="0" y="0" width="517" height="517" style="fill:rgb(90%,90%,90%);fill-opacity:1;stroke:none;"/>
<path style="fill:none;stroke-width:5;stroke-linecap:butt;stroke-linejoin:round;stroke:rgb(100%,0%,0%);stroke-opacity:1;stroke-miterlimit:10;" d="M 261 5 L 517 5 L 517 261 L 261 261 Z M 261 5 "/>
<path style="fill-rule:nonzero;fill:rgb(50%,0%,50%);fill-opacity:1;stroke-width:1;stroke-linecap:butt;stroke-linejoin:round;stroke:rgb(0%,0%,0%);stroke-opacity:1;stroke-miterlimit:10;" d="M 458.855469 202.417969 C 458.855469 218.988281 445.425781 232.417969 428.855469 232.417969 C 412.285156 232.417969 398.855469 218.988281 398.855469 202.417969 C 398.855469 185.851562 412.285156 172.417969 428.855469 172.417969 C 445.425781 172.417969 458.855469 185.851562 458.855469 202.417969 "/>
<path style="fill-rule:nonzero;fill:rgb(100%,100%,0%);fill-opacity:1;stroke-width:1;stroke-linecap:butt;stroke-linejoin:round;stroke:rgb(0%,0%,0%);stroke-opacity:1;stroke-miterlimit:10;" d="M 172.976562 408.582031 C 172.976562 425.148438 159.546875 438.582031 142.976562 438.582031 C 126.40625 438.582031 112.976562 425.148438 112.976562 408.582031 C 112.976562 392.011719 126.40625 378.582031 142.976562 378.582031 C 159.546875 378.582031 172.976562 392.011719 172.976562 408.582031 "/>
<path style="fill-rule:nonzero;fill:rgb(100%,100%,0%);fill-opacity:1;stroke-width:1;stroke-linecap:butt;stroke-linejoin:round;stroke:rgb(0%,0%,0%);stroke-opacity:1;stroke-miterlimit:10;" d="M 487.902344 411.984375 C 487.902344 428.554688 474.46875 441.984375 457.902344 441.984375 C 441.332031 441.984375 427.902344 428.554688 427.902344 411.984375 C 427.902344 395.417969 441.332031 381.984375 457.902344 381.984375 C 474.46875 381.984375 487.902344 395.417969 487.902344 411.984375 "/>
<path style="fill-rule:nonzero;fill:rgb(100%,100%,0%);fill-opacity:1;stroke-width:1;stroke-linecap:butt;stroke-linejoin:round;stroke:rgb(0%,0%,0%);stroke-opacity:1;stroke-miterlimit:10;" d="M 414.039062 299.890625 C 414.039062 316.460938 400.609375 329.890625 384.039062 329.890625 C 367.46875 329.890625 354.039062 316.460938 354.039062 299.890625 C 354.039062 283.324219 367.46875 269.890625 384.039062 269.890625 C 400.609375 269.890625 414.039062 283.324219 414.039062 299.890625 "/>
<path style="fill-rule:nonzero;fill:rgb(100%,100%,0%);fill-opacity:1;stroke-width:1;stroke-linecap:butt;stroke-linejoin:round;stroke:rgb(0%,0%,0%);stroke-opacity:1;stroke-miterlimit:10;" d="M 396.503906 377.152344 C 396.503906 393.722656 383.070312 407.152344 366.503906 407.152344 C 349.933594 407.152344 336.503906 393.722656 336.503906 377.152344 C 336.503906 360.582031 349.933594 347.152344 366.503906 347.152344 C 383.070312 347.152344 396.503906 360.582031 396.503906 377.152344 "/>
</g>
</svg>
