<?xml version="1.0" encoding="UTF-8"?>
<svg xmlns="http://www.w3.org/2000/svg" xmlns:xlink="http://www.w3.org/1999/xlink" width="517pt" height="517pt" viewBox="0 0 517 517" version="1.1">
<g id="surface3306">
<rect x="0" y="0" width="517" height="517" style="fill:rgb(90%,90%,90%);fill-opacity:1;stroke:none;"/>
<path style="fill:none;stroke-width:5;stroke-linecap:butt;stroke-linejoin:round;stroke:rgb(100%,0%,0%);stroke-opacity:1;stroke-miterlimit:10;" d="M 261 261 L 517 261 L 517 517 L 261 517 Z M 261 261 "/>
<path style="fill-rule:nonzero;fill:rgb(90%,65%,0%);fill-opacity:1;stroke-width:1;stroke-linecap:butt;stroke-linejoin:round;stroke:rgb(0%,0%,0%);stroke-opacity:1;stroke-miterlimit:10;" d="M 464.429688 331.644531 L 444.429688 331.644531 L 444.429688 341.644531 L 464.429688 341.644531 L 464.429688 361.644531 L 474.429688 361.644531 L 474.429688 341.644531 L 494.429688 341.644531 L 494.429688 331.644531 L 474.429688 331.644531 L 474.429688 311.644531 L 464.429688 311.644531 L 464.429688 331.644531 "/>
<path style="fill-rule:nonzero;fill:rgb(35%,70%,90%);fill-opacity:1;stroke-width:1;stroke-linecap:butt;stroke-linejoin:round;stroke:rgb(0%,0%,0%);stroke-opacity:1;stroke-miterlimit:10;" d="M 164.699219 292.097656 L 144.699219 292.097656 L 144.699219 302.097656 L 164.699219 302.097656 L 164.699219 322.097656 L 174.699219 322.097656 L 174.699219 302.097656 L 194.699219 302.097656 L 194.699219 292.097656 L 174.699219 292.097656 L 174.699219 272.097656 L 164.699219 272.097656 L 164.699219 292.097656 "/>
<path style="fill-rule:nonzero;fill:rgb(35%,70%,90%);fill-opacity:1;stroke-width:1;stroke-linecap:butt;stroke-linejoin:round;stroke:rgb(0%,0%,0%);stroke-opacity:1;stroke-miterlimit:10;" d="M 123.890625 365.808594 L 103.890625 365.808594 L 103.890625 375.808594 L 123.890625 375.808594 L 123.890625 395.808594 L 133.890625 395.808594 L 133.890625 375.808594 L 153.890625 375.808594 L 153.890625 365.808594 L 133.890625 365.808594 L 133.890625 345.808594 L 123.890625 345.808594 L 123.890625 365.808594 "/>
<path style="fill-rule:nonzero;fill:rgb(35%,70%,90%);fill-opacity:1;stroke-width:1;stroke-linecap:butt;stroke-linejoin:round;stroke:rgb(0%,0%,0%);stroke-opacity:1;stroke-miterlimit:10;" d="M 439.289062 59.984375 L 419.289062 59.984375 L 419.289062 69.984375 L 439.289062 69.984375 L 439.289062 89.984375 L 449.289062 89.984375 L 449.289062 69.984375 L 469.289062 69.984375 L 469.289062 59.984375 L 449.289062 59.984375 L 449.289062 39.984375 L 439.289062 39.984375 L 439.289062 59.984375 "/>
<path style="fill-rule:nonzero;fill:rgb(90%,65%,0%);fill-opacity:1;stroke-width:1;stroke-linecap:butt;stroke-linejoin:round;stroke:rgb(0%,0%,0%);stroke-opacity:1;stroke-miterlimit:10;" d="M 364.179688 53.074219 L 344.179688 53.074219 L 344.179688 63.074219 L 364.179688 63.074219 L 364.179688 83.074219 L 374.179688 83.074219 L 374.179688 63.074219 L 394.179688 63.074219 L 394.179688 53.074219 L 374.179688 53.074219 L 374.179688 33.074219 L 364.179688 33.074219 L 364.179688 53.074219 "/>
</g>
</svg>
