<?xml version="1.0" encoding="UTF-8"?>
<svg xmlns="http://www.w3.org/2000/svg" xmlns:xlink="http://www.w3.org/1999/xlink" width="517pt" height="517pt" viewBox="0 0 517 517" version="1.1">
<g id="surface3556">
<rect x="0" y="0" width="517" height="517" style="fill:rgb(90%,90%,90%);fill-opacity:1;stroke:none;"/>
<path style="fill:none;stroke-width:5;stroke-linecap:butt;stroke-linejoin:round;stroke:rgb(100%,0%,0%);stroke-opacity:1;stroke-miterlimit:10;" d="M 5 5 L 261 5 L 261 261 L 5 261 Z M 5 5 "/>
<path style="fill-rule:nonzero;fill:rgb(100%,0%,0%);fill-opacity:1;stroke-width:1;stroke-linecap:butt;stroke-linejoin:round;stroke:rgb(0%,0%,0%);stroke-opacity:1;stroke-miterlimit:10;" d="M 182.300781 70.339844 C 182.300781 86.90625 168.871094 100.339844 152.300781 100.339844 C 135.734375 100.339844 122.300781 86.90625 122.300781 70.339844 C 122.300781 53.769531 135.734375 40.339844 152.300781 40.339844 C 168.871094 40.339844 182.300781 53.769531 182.300781 70.339844 "/>
<path style="fill-rule:nonzero;fill:rgb(25%,88%,82%);fill-opacity:1;stroke-width:1;stroke-linecap:butt;stroke-linejoin:round;stroke:rgb(0%,0%,0%);stroke-opacity:1;stroke-miterlimit:10;" d="M 330.527344 435.03125 C 330.527344 451.601562 317.097656 465.03125 300.527344 465.03125 C 283.960938 465.03125 270.527344 451.601562 270.527344 435.03125 C 270.527344 418.464844 283.960938 405.03125 300.527344 405.03125 C 317.097656 405.03125 330.527344 418.464844 330.527344 435.03125 "/>
<path style="fill-rule:nonzero;fill:rgb(25%,88%,82%);fill-opacity:1;stroke-width:1;stroke-linecap:butt;stroke-linejoin:round;stroke:rgb(0%,0%,0%);stroke-opacity:1;stroke-miterlimit:10;" d="M 388.226562 390.472656 C 388.226562 407.039062 374.792969 420.472656 358.226562 420.472656 C 341.65625 420.472656 328.226562 407.039062 328.226562 390.472656 C 328.226562 373.902344 341.65625 360.472656 358.226562 360.472656 C 374.792969 360.472656 388.226562 373.902344 388.226562 390.472656 "/>
<path style="fill-rule:nonzero;fill:rgb(25%,88%,82%);fill-opacity:1;stroke-width:1;stroke-linecap:butt;stroke-linejoin:round;stroke:rgb(0%,0%,0%);stroke-opacity:1;stroke-miterlimit:10;" d="M 170.539062 311.507812 C 170.539062 328.074219 157.105469 341.507812 140.539062 341.507812 C 123.96875 341.507812 110.539062 328.074219 110.539062 311.507812 C 110.539062 294.9375 123.96875 281.507812 140.539062 281.507812 C 157.105469 281.507812 170.539062 294.9375 170.539062 311.507812 "/>
<path style="fill-rule:nonzero;fill:rgb(25%,88%,82%);fill-opacity:1;stroke-width:1;stroke-linecap:butt;stroke-linejoin:round;stroke:rgb(0%,0%,0%);stroke-opacity:1;stroke-miterlimit:10;" d="M 147.402344 448.101562 C 147.402344 464.667969 133.96875 478.101562 117.402344 478.101562 C 100.832031 478.101562 87.402344 464.667969 87.402344 448.101562 C 87.402344 431.53125 100.832031 418.101562 117.402344 418.101562 C 133.96875 418.101562 147.402344 431.53125 147.402344 448.101562 "/>
<path style="fill-rule:nonzero;fill:rgb(100%,0%,0%);fill-opacity:1;stroke-width:1;stroke-linecap:butt;stroke-linejoin:round;stroke:rgb(0%,0%,0%);stroke-opacity:1;stroke-miterlimit:10;" d="M 206.316406 416.375 C 206.316406 432.941406 192.886719 446.375 176.316406 446.375 C 159.75 446.375 146.316406 432.941406 146.316406 416.375 C 146.316406 399.804688 159.75 386.375 176.316406 386.375 C 192.886719 386.375 206.316406 399.804688 206.316406 416.375 "/>
</g>
</svg>
