<?xml version="1.0" encoding="UTF-8"?>
<svg xmlns="http://www.w3.org/2000/svg" xmlns:xlink="http://www.w3.org/1999/xlink" width="517pt" height="517pt" viewBox="0 0 517 517" version="1.1">
<g id="surface3906">
<rect x="0" y="0" width="517" height="517" style="fill:rgb(90%,90%,90%);fill-opacity:1;stroke:none;"/>
<path style="fill:none;stroke-width:5;stroke-linecap:butt;stroke-linejoin:round;stroke:rgb(100%,0%,0%);stroke-opacity:1;stroke-miterlimit:10;" d="M 5 5 L 261 5 L 261 261 L 5 261 Z M 5 5 "/>
<path style="fill-rule:nonzero;fill:rgb(25%,88%,82%);fill-opacity:1;stroke-width:1;stroke-linecap:butt;stroke-linejoin:round;stroke:rgb(0%,0%,0%);stroke-opacity:1;stroke-miterlimit:10;" d="M 188.308594 60 C 188.308594 76.566406 174.875 90 158.308594 90 C 141.738281 90 128.308594 76.566406 128.308594 60 C 128.308594 43.429688 141.738281 30 158.308594 30 C 174.875 30 188.308594 43.429688 188.308594 60 "/>
<path style="fill-rule:nonzero;fill:rgb(100%,100%,0%);fill-opacity:1;stroke-width:1;stroke-linecap:butt;stroke-linejoin:round;stroke:rgb(0%,0%,0%);stroke-opacity:1;stroke-miterlimit:10;" d="M 172.167969 309.375 C 172.167969 325.941406 158.734375 339.375 142.167969 339.375 C 125.597656 339.375 112.167969 325.941406 112.167969 309.375 C 112.167969 292.804688 125.597656 279.375 142.167969 279.375 C 158.734375 279.375 172.167969 292.804688 172.167969 309.375 "/>
<path style="fill-rule:nonzero;fill:rgb(100%,100%,0%);fill-opacity:1;stroke-width:1;stroke-linecap:butt;stroke-linejoin:round;stroke:rgb(0%,0%,0%);stroke-opacity:1;stroke-miterlimit:10;" d="M 458.671875 431.953125 C 458.671875 448.523438 445.242188 461.953125 428.671875 461.953125 C 412.105469 461.953125 398.671875 448.523438 398.671875 431.953125 C 398.671875 415.382812 412.105469 401.953125 428.671875 401.953125 C 445.242188 401.953125 458.671875 415.382812 458.671875 431.953125 "/>
<path style="fill-rule:nonzero;fill:rgb(100%,100%,0%);fill-opacity:1;stroke-width:1;stroke-linecap:butt;stroke-linejoin:round;stroke:rgb(0%,0%,0%);stroke-opacity:1;stroke-miterlimit:10;" d="M 450.304688 363.792969 C 450.304688 380.363281 436.875 393.792969 420.304688 393.792969 C 403.738281 393.792969 390.304688 380.363281 390.304688 363.792969 C 390.304688 347.226562 403.738281 333.792969 420.304688 333.792969 C 436.875 333.792969 450.304688 347.226562 450.304688 363.792969 "/>
<path style="fill-rule:nonzero;fill:rgb(100%,100%,0%);fill-opacity:1;stroke-width:1;stroke-linecap:butt;stroke-linejoin:round;stroke:rgb(0%,0%,0%);stroke-opacity:1;stroke-miterlimit:10;" d="M 375.199219 321.894531 C 375.199219 338.464844 361.769531 351.894531 345.199219 351.894531 C 328.632812 351.894531 315.199219 338.464844 315.199219 321.894531 C 315.199219 305.324219 328.632812 291.894531 345.199219 291.894531 C 361.769531 291.894531 375.199219 305.324219 375.199219 321.894531 "/>
<path style="fill-rule:nonzero;fill:rgb(100%,100%,0%);fill-opacity:1;stroke-width:1;stroke-linecap:butt;stroke-linejoin:round;stroke:rgb(0%,0%,0%);stroke-opacity:1;stroke-miterlimit:10;" d="M 353.34375 473.90625 C 353.34375 490.472656 339.914062 503.90625 323.34375 503.90625 C 306.777344 503.90625 293.34375 490.472656 293.34375 473.90625 C 293.34375 457.335938 306.777344 443.90625 323.34375 443.90625 C 339.914062 443.90625 353.34375 457.335938 353.34375 473.90625 "/>
</g>
</svg>
