<?xml version="1.0" encoding="UTF-8"?>
<svg xmlns="http://www.w3.org/2000/svg" xmlns:xlink="http://www.w3.org/1999/xlink" width="517pt" height="517pt" viewBox="0 0 517 517" version="1.1">
<g id="surface8666">
<rect x="0" y="0" width="517" height="517" style="fill:rgb(90%,90%,90%);fill-opacity:1;stroke:none;"/>
<path style="fill:none;stroke-width:5;stroke-linecap:butt;stroke-linejoin:round;stroke:rgb(100%,0%,0%);stroke-opacity:1;stroke-miterlimit:10;" d="M 5 5 L 261 5 L 261 261 L 5 261 Z M 5 5 "/>
<path style="fill-rule:nonzero;fill:rgb(100%,0%,0%);fill-opacity:1;stroke-width:1;stroke-linecap:butt;stroke-linejoin:round;stroke:rgb(0%,0%,0%);stroke-opacity:1;stroke-miterlimit:10;" d="M 92.351562 62.574219 C 92.351562 79.144531 78.921875 92.574219 62.351562 92.574219 C 45.785156 92.574219 32.351562 79.144531 32.351562 62.574219 C 32.351562 46.007812 45.785156 32.574219 62.351562 32.574219 C 78.921875 32.574219 92.351562 46.007812 92.351562 62.574219 "/>
<path style="fill-rule:nonzero;fill:rgb(50%,0%,50%);fill-opacity:1;stroke-width:1;stroke-linecap:butt;stroke-linejoin:round;stroke:rgb(0%,0%,0%);stroke-opacity:1;stroke-miterlimit:10;" d="M 389.160156 294.585938 C 389.160156 311.15625 375.730469 324.585938 359.160156 324.585938 C 342.59375 324.585938 329.160156 311.15625 329.160156 294.585938 C 329.160156 278.019531 342.59375 264.585938 359.160156 264.585938 C 375.730469 264.585938 389.160156 278.019531 389.160156 294.585938 "/>
<path style="fill-rule:nonzero;fill:rgb(50%,0%,50%);fill-opacity:1;stroke-width:1;stroke-linecap:butt;stroke-linejoin:round;stroke:rgb(0%,0%,0%);stroke-opacity:1;stroke-miterlimit:10;" d="M 431.289062 71.285156 C 431.289062 87.851562 417.855469 101.285156 401.289062 101.285156 C 384.71875 101.285156 371.289062 87.851562 371.289062 71.285156 C 371.289062 54.714844 384.71875 41.285156 401.289062 41.285156 C 417.855469 41.285156 431.289062 54.714844 431.289062 71.285156 "/>
<path style="fill-rule:nonzero;fill:rgb(50%,0%,50%);fill-opacity:1;stroke-width:1;stroke-linecap:butt;stroke-linejoin:round;stroke:rgb(0%,0%,0%);stroke-opacity:1;stroke-miterlimit:10;" d="M 218.984375 358.523438 C 218.984375 375.09375 205.554688 388.523438 188.984375 388.523438 C 172.417969 388.523438 158.984375 375.09375 158.984375 358.523438 C 158.984375 341.957031 172.417969 328.523438 188.984375 328.523438 C 205.554688 328.523438 218.984375 341.957031 218.984375 358.523438 "/>
<path style="fill-rule:nonzero;fill:rgb(50%,0%,50%);fill-opacity:1;stroke-width:1;stroke-linecap:butt;stroke-linejoin:round;stroke:rgb(0%,0%,0%);stroke-opacity:1;stroke-miterlimit:10;" d="M 127.398438 310.542969 C 127.398438 327.109375 113.96875 340.542969 97.398438 340.542969 C 80.832031 340.542969 67.398438 327.109375 67.398438 310.542969 C 67.398438 293.972656 80.832031 280.542969 97.398438 280.542969 C 113.96875 280.542969 127.398438 293.972656 127.398438 310.542969 "/>
<path style="fill-rule:nonzero;fill:rgb(50%,0%,50%);fill-opacity:1;stroke-width:1;stroke-linecap:butt;stroke-linejoin:round;stroke:rgb(0%,0%,0%);stroke-opacity:1;stroke-miterlimit:10;" d="M 128.636719 442.5 C 128.636719 459.070312 115.207031 472.5 98.636719 472.5 C 82.070312 472.5 68.636719 459.070312 68.636719 442.5 C 68.636719 425.933594 82.070312 412.5 98.636719 412.5 C 115.207031 412.5 128.636719 425.933594 128.636719 442.5 "/>
</g>
</svg>
