<?xml version="1.0" encoding="UTF-8"?>
<svg xmlns="http://www.w3.org/2000/svg" xmlns:xlink="http://www.w3.org/1999/xlink" width="517pt" height="517pt" viewBox="0 0 517 517" version="1.1">
<g id="surface296">
<rect x="0" y="0" width="517" height="517" style="fill:rgb(90%,90%,90%);fill-opacity:1;stroke:none;"/>
<path style="fill:none;stroke-width:5;stroke-linecap:butt;stroke-linejoin:round;stroke:rgb(100%,0%,0%);stroke-opacity:1;stroke-miterlimit:10;" d="M 5 5 L 261 5 L 261 261 L 5 261 Z M 5 5 "/>
<path style="fill-rule:nonzero;fill:rgb(67%,100%,18%);fill-opacity:1;stroke-width:1;stroke-linecap:butt;stroke-linejoin:round;stroke:rgb(0%,0%,0%);stroke-opacity:1;stroke-miterlimit:10;" d="M 128.664062 79.289062 C 128.664062 64.890625 104.664062 64.890625 104.664062 79.289062 C 104.664062 93.6875 128.664062 96.089844 128.664062 108.089844 C 128.664062 96.089844 152.664062 93.6875 152.664062 79.289062 C 152.664062 64.890625 128.664062 64.890625 128.664062 79.289062 "/>
<path style="fill-rule:nonzero;fill:rgb(50%,0%,50%);fill-opacity:1;stroke-width:1;stroke-linecap:butt;stroke-linejoin:round;stroke:rgb(0%,0%,0%);stroke-opacity:1;stroke-miterlimit:10;" d="M 441.308594 91.328125 C 441.308594 76.925781 417.308594 76.925781 417.308594 91.328125 C 417.308594 105.726562 441.308594 108.125 441.308594 120.125 C 441.308594 108.125 465.308594 105.726562 465.308594 91.328125 C 465.308594 76.925781 441.308594 76.925781 441.308594 91.328125 "/>
<path style="fill-rule:nonzero;fill:rgb(67%,100%,18%);fill-opacity:1;stroke-width:1;stroke-linecap:butt;stroke-linejoin:round;stroke:rgb(0%,0%,0%);stroke-opacity:1;stroke-miterlimit:10;" d="M 359.949219 54.921875 C 359.949219 40.519531 335.949219 40.519531 335.949219 54.921875 C 335.949219 69.320312 359.949219 71.71875 359.949219 83.71875 C 359.949219 71.71875 383.949219 69.320312 383.949219 54.921875 C 383.949219 40.519531 359.949219 40.519531 359.949219 54.921875 "/>
<path style="fill-rule:nonzero;fill:rgb(67%,100%,18%);fill-opacity:1;stroke-width:1;stroke-linecap:butt;stroke-linejoin:round;stroke:rgb(0%,0%,0%);stroke-opacity:1;stroke-miterlimit:10;" d="M 353.460938 313.675781 C 353.460938 299.273438 329.460938 299.273438 329.460938 313.675781 C 329.460938 328.074219 353.460938 330.472656 353.460938 342.472656 C 353.460938 330.472656 377.460938 328.074219 377.460938 313.675781 C 377.460938 299.273438 353.460938 299.273438 353.460938 313.675781 "/>
</g>
</svg>
