<?xml version="1.0" encoding="UTF-8"?>
<svg xmlns="http://www.w3.org/2000/svg" xmlns:xlink="http://www.w3.org/1999/xlink" width="517pt" height="517pt" viewBox="0 0 517 517" version="1.1">
<g id="surface8826">
<rect x="0" y="0" width="517" height="517" style="fill:rgb(90%,90%,90%);fill-opacity:1;stroke:none;"/>
<path style="fill:none;stroke-width:5;stroke-linecap:butt;stroke-linejoin:round;stroke:rgb(100%,0%,0%);stroke-opacity:1;stroke-miterlimit:10;" d="M 261 5 L 517 5 L 517 261 L 261 261 Z M 261 5 "/>
<path style="fill-rule:nonzero;fill:rgb(35%,70%,90%);fill-opacity:1;stroke-width:1;stroke-linecap:butt;stroke-linejoin:round;stroke:rgb(0%,0%,0%);stroke-opacity:1;stroke-miterlimit:10;" d="M 416.789062 85.386719 C 416.789062 101.957031 403.359375 115.386719 386.789062 115.386719 C 370.21875 115.386719 356.789062 101.957031 356.789062 85.386719 C 356.789062 68.820312 370.21875 55.386719 386.789062 55.386719 C 403.359375 55.386719 416.789062 68.820312 416.789062 85.386719 "/>
<path style="fill-rule:nonzero;fill:rgb(100%,0%,0%);fill-opacity:1;stroke-width:1;stroke-linecap:butt;stroke-linejoin:round;stroke:rgb(0%,0%,0%);stroke-opacity:1;stroke-miterlimit:10;" d="M 177.597656 141.765625 C 177.597656 158.335938 164.167969 171.765625 147.597656 171.765625 C 131.03125 171.765625 117.597656 158.335938 117.597656 141.765625 C 117.597656 125.199219 131.03125 111.765625 147.597656 111.765625 C 164.167969 111.765625 177.597656 125.199219 177.597656 141.765625 "/>
<path style="fill-rule:nonzero;fill:rgb(100%,0%,0%);fill-opacity:1;stroke-width:1;stroke-linecap:butt;stroke-linejoin:round;stroke:rgb(0%,0%,0%);stroke-opacity:1;stroke-miterlimit:10;" d="M 228.71875 66.679688 C 228.71875 83.25 215.285156 96.679688 198.71875 96.679688 C 182.148438 96.679688 168.71875 83.25 168.71875 66.679688 C 168.71875 50.113281 182.148438 36.679688 198.71875 36.679688 C 215.285156 36.679688 228.71875 50.113281 228.71875 66.679688 "/>
<path style="fill-rule:nonzero;fill:rgb(100%,0%,0%);fill-opacity:1;stroke-width:1;stroke-linecap:butt;stroke-linejoin:round;stroke:rgb(0%,0%,0%);stroke-opacity:1;stroke-miterlimit:10;" d="M 490.777344 464.832031 C 490.777344 481.402344 477.34375 494.832031 460.777344 494.832031 C 444.207031 494.832031 430.777344 481.402344 430.777344 464.832031 C 430.777344 448.265625 444.207031 434.832031 460.777344 434.832031 C 477.34375 434.832031 490.777344 448.265625 490.777344 464.832031 "/>
<path style="fill-rule:nonzero;fill:rgb(100%,0%,0%);fill-opacity:1;stroke-width:1;stroke-linecap:butt;stroke-linejoin:round;stroke:rgb(0%,0%,0%);stroke-opacity:1;stroke-miterlimit:10;" d="M 456.679688 362.894531 C 456.679688 379.460938 443.246094 392.894531 426.679688 392.894531 C 410.109375 392.894531 396.679688 379.460938 396.679688 362.894531 C 396.679688 346.324219 410.109375 332.894531 426.679688 332.894531 C 443.246094 332.894531 456.679688 346.324219 456.679688 362.894531 "/>
<path style="fill-rule:nonzero;fill:rgb(100%,0%,0%);fill-opacity:1;stroke-width:1;stroke-linecap:butt;stroke-linejoin:round;stroke:rgb(0%,0%,0%);stroke-opacity:1;stroke-miterlimit:10;" d="M 415.398438 456.246094 C 415.398438 472.816406 401.96875 486.246094 385.398438 486.246094 C 368.832031 486.246094 355.398438 472.816406 355.398438 456.246094 C 355.398438 439.679688 368.832031 426.246094 385.398438 426.246094 C 401.96875 426.246094 415.398438 439.679688 415.398438 456.246094 "/>
</g>
</svg>
