<?xml version="1.0" encoding="UTF-8"?>
<svg xmlns="http://www.w3.org/2000/svg" xmlns:xlink="http://www.w3.org/1999/xlink" width="517pt" height="517pt" viewBox="0 0 517 517" version="1.1">
<g id="surface256">
<rect x="0" y="0" width="517" height="517" style="fill:rgb(90%,90%,90%);fill-opacity:1;stroke:none;"/>
<path style="fill:none;stroke-width:5;stroke-linecap:butt;stroke-linejoin:round;stroke:rgb(100%,0%,0%);stroke-opacity:1;stroke-miterlimit:10;" d="M 5 5 L 261 5 L 261 261 L 5 261 Z M 5 5 "/>
<path style="fill-rule:nonzero;fill:rgb(67%,100%,18%);fill-opacity:1;stroke-width:1;stroke-linecap:butt;stroke-linejoin:round;stroke:rgb(0%,0%,0%);stroke-opacity:1;stroke-miterlimit:10;" d="M 112.570312 107.058594 C 112.570312 92.65625 88.570312 92.65625 88.570312 107.058594 C 88.570312 121.457031 112.570312 123.859375 112.570312 135.859375 C 112.570312 123.859375 136.570312 121.457031 136.570312 107.058594 C 136.570312 92.65625 112.570312 92.65625 112.570312 107.058594 "/>
<path style="fill-rule:nonzero;fill:rgb(50%,0%,50%);fill-opacity:1;stroke-width:1;stroke-linecap:butt;stroke-linejoin:round;stroke:rgb(0%,0%,0%);stroke-opacity:1;stroke-miterlimit:10;" d="M 386.160156 352.195312 C 386.160156 337.792969 362.160156 337.792969 362.160156 352.195312 C 362.160156 366.59375 386.160156 368.996094 386.160156 380.996094 C 386.160156 368.996094 410.160156 366.59375 410.160156 352.195312 C 410.160156 337.792969 386.160156 337.792969 386.160156 352.195312 "/>
<path style="fill-rule:nonzero;fill:rgb(50%,0%,50%);fill-opacity:1;stroke-width:1;stroke-linecap:butt;stroke-linejoin:round;stroke:rgb(0%,0%,0%);stroke-opacity:1;stroke-miterlimit:10;" d="M 442.894531 447.296875 C 442.894531 432.894531 418.894531 432.894531 418.894531 447.296875 C 418.894531 461.695312 442.894531 464.097656 442.894531 476.097656 C 442.894531 464.097656 466.894531 461.695312 466.894531 447.296875 C 466.894531 432.894531 442.894531 432.894531 442.894531 447.296875 "/>
<path style="fill-rule:nonzero;fill:rgb(50%,0%,50%);fill-opacity:1;stroke-width:1;stroke-linecap:butt;stroke-linejoin:round;stroke:rgb(0%,0%,0%);stroke-opacity:1;stroke-miterlimit:10;" d="M 346.984375 138.980469 C 346.984375 124.582031 322.984375 124.582031 322.984375 138.980469 C 322.984375 153.378906 346.984375 155.78125 346.984375 167.78125 C 346.984375 155.78125 370.984375 153.378906 370.984375 138.980469 C 370.984375 124.582031 346.984375 124.582031 346.984375 138.980469 "/>
</g>
</svg>
