<?xml version="1.0" encoding="UTF-8"?>
<svg xmlns="http://www.w3.org/2000/svg" xmlns:xlink="http://www.w3.org/1999/xlink" width="517pt" height="517pt" viewBox="0 0 517 517" version="1.1">
<g id="surface8846">
<rect x="0" y="0" width="517" height="517" style="fill:rgb(90%,90%,90%);fill-opacity:1;stroke:none;"/>
<path style="fill:none;stroke-width:5;stroke-linecap:butt;stroke-linejoin:round;stroke:rgb(100%,0%,0%);stroke-opacity:1;stroke-miterlimit:10;" d="M 261 5 L 517 5 L 517 261 L 261 261 Z M 261 5 "/>
<path style="fill-rule:nonzero;fill:rgb(35%,70%,90%);fill-opacity:1;stroke-width:1;stroke-linecap:butt;stroke-linejoin:round;stroke:rgb(0%,0%,0%);stroke-opacity:1;stroke-miterlimit:10;" d="M 439.058594 138.078125 C 439.058594 154.648438 425.628906 168.078125 409.058594 168.078125 C 392.492188 168.078125 379.058594 154.648438 379.058594 138.078125 C 379.058594 121.511719 392.492188 108.078125 409.058594 108.078125 C 425.628906 108.078125 439.058594 121.511719 439.058594 138.078125 "/>
<path style="fill-rule:nonzero;fill:rgb(100%,0%,0%);fill-opacity:1;stroke-width:1;stroke-linecap:butt;stroke-linejoin:round;stroke:rgb(0%,0%,0%);stroke-opacity:1;stroke-miterlimit:10;" d="M 102.300781 173.742188 C 102.300781 190.3125 88.871094 203.742188 72.300781 203.742188 C 55.734375 203.742188 42.300781 190.3125 42.300781 173.742188 C 42.300781 157.175781 55.734375 143.742188 72.300781 143.742188 C 88.871094 143.742188 102.300781 157.175781 102.300781 173.742188 "/>
<path style="fill-rule:nonzero;fill:rgb(100%,0%,0%);fill-opacity:1;stroke-width:1;stroke-linecap:butt;stroke-linejoin:round;stroke:rgb(0%,0%,0%);stroke-opacity:1;stroke-miterlimit:10;" d="M 90.078125 73.257812 C 90.078125 89.828125 76.648438 103.257812 60.078125 103.257812 C 43.511719 103.257812 30.078125 89.828125 30.078125 73.257812 C 30.078125 56.691406 43.511719 43.257812 60.078125 43.257812 C 76.648438 43.257812 90.078125 56.691406 90.078125 73.257812 "/>
<path style="fill-rule:nonzero;fill:rgb(100%,0%,0%);fill-opacity:1;stroke-width:1;stroke-linecap:butt;stroke-linejoin:round;stroke:rgb(0%,0%,0%);stroke-opacity:1;stroke-miterlimit:10;" d="M 444.28125 327.214844 C 444.28125 343.785156 430.847656 357.214844 414.28125 357.214844 C 397.710938 357.214844 384.28125 343.785156 384.28125 327.214844 C 384.28125 310.644531 397.710938 297.214844 414.28125 297.214844 C 430.847656 297.214844 444.28125 310.644531 444.28125 327.214844 "/>
<path style="fill-rule:nonzero;fill:rgb(100%,0%,0%);fill-opacity:1;stroke-width:1;stroke-linecap:butt;stroke-linejoin:round;stroke:rgb(0%,0%,0%);stroke-opacity:1;stroke-miterlimit:10;" d="M 421.066406 411.097656 C 421.066406 427.664062 407.632812 441.097656 391.066406 441.097656 C 374.496094 441.097656 361.066406 427.664062 361.066406 411.097656 C 361.066406 394.527344 374.496094 381.097656 391.066406 381.097656 C 407.632812 381.097656 421.066406 394.527344 421.066406 411.097656 "/>
</g>
</svg>
