<?xml version="1.0" encoding="UTF-8"?>
<svg xmlns="http://www.w3.org/2000/svg" xmlns:xlink="http://www.w3.org/1999/xlink" width="517pt" height="517pt" viewBox="0 0 517 517" version="1.1">
<g id="surface3596">
<rect x="0" y="0" width="517" height="517" style="fill:rgb(90%,90%,90%);fill-opacity:1;stroke:none;"/>
<path style="fill:none;stroke-width:5;stroke-linecap:butt;stroke-linejoin:round;stroke:rgb(100%,0%,0%);stroke-opacity:1;stroke-miterlimit:10;" d="M 5 5 L 261 5 L 261 261 L 5 261 Z M 5 5 "/>
<path style="fill-rule:nonzero;fill:rgb(25%,88%,82%);fill-opacity:1;stroke-width:1;stroke-linecap:butt;stroke-linejoin:round;stroke:rgb(0%,0%,0%);stroke-opacity:1;stroke-miterlimit:10;" d="M 240.925781 75.910156 C 240.925781 92.476562 227.496094 105.910156 210.925781 105.910156 C 194.359375 105.910156 180.925781 92.476562 180.925781 75.910156 C 180.925781 59.339844 194.359375 45.910156 210.925781 45.910156 C 227.496094 45.910156 240.925781 59.339844 240.925781 75.910156 "/>
<path style="fill-rule:nonzero;fill:rgb(25%,88%,82%);fill-opacity:1;stroke-width:1;stroke-linecap:butt;stroke-linejoin:round;stroke:rgb(0%,0%,0%);stroke-opacity:1;stroke-miterlimit:10;" d="M 414.964844 449.390625 C 414.964844 465.957031 401.53125 479.390625 384.964844 479.390625 C 368.394531 479.390625 354.964844 465.957031 354.964844 449.390625 C 354.964844 432.820312 368.394531 419.390625 384.964844 419.390625 C 401.53125 419.390625 414.964844 432.820312 414.964844 449.390625 "/>
<path style="fill-rule:nonzero;fill:rgb(25%,88%,82%);fill-opacity:1;stroke-width:1;stroke-linecap:butt;stroke-linejoin:round;stroke:rgb(0%,0%,0%);stroke-opacity:1;stroke-miterlimit:10;" d="M 119.972656 466.558594 C 119.972656 483.125 106.542969 496.558594 89.972656 496.558594 C 73.40625 496.558594 59.972656 483.125 59.972656 466.558594 C 59.972656 449.988281 73.40625 436.558594 89.972656 436.558594 C 106.542969 436.558594 119.972656 449.988281 119.972656 466.558594 "/>
<path style="fill-rule:nonzero;fill:rgb(25%,88%,82%);fill-opacity:1;stroke-width:1;stroke-linecap:butt;stroke-linejoin:round;stroke:rgb(0%,0%,0%);stroke-opacity:1;stroke-miterlimit:10;" d="M 193.496094 356.9375 C 193.496094 373.503906 180.066406 386.9375 163.496094 386.9375 C 146.929688 386.9375 133.496094 373.503906 133.496094 356.9375 C 133.496094 340.367188 146.929688 326.9375 163.496094 326.9375 C 180.066406 326.9375 193.496094 340.367188 193.496094 356.9375 "/>
<path style="fill-rule:nonzero;fill:rgb(25%,88%,82%);fill-opacity:1;stroke-width:1;stroke-linecap:butt;stroke-linejoin:round;stroke:rgb(0%,0%,0%);stroke-opacity:1;stroke-miterlimit:10;" d="M 112.234375 307.210938 C 112.234375 323.78125 98.804688 337.210938 82.234375 337.210938 C 65.664062 337.210938 52.234375 323.78125 52.234375 307.210938 C 52.234375 290.644531 65.664062 277.210938 82.234375 277.210938 C 98.804688 277.210938 112.234375 290.644531 112.234375 307.210938 "/>
<path style="fill-rule:nonzero;fill:rgb(100%,0%,0%);fill-opacity:1;stroke-width:1;stroke-linecap:butt;stroke-linejoin:round;stroke:rgb(0%,0%,0%);stroke-opacity:1;stroke-miterlimit:10;" d="M 351.273438 62.035156 C 351.273438 78.601562 337.84375 92.035156 321.273438 92.035156 C 304.707031 92.035156 291.273438 78.601562 291.273438 62.035156 C 291.273438 45.464844 304.707031 32.035156 321.273438 32.035156 C 337.84375 32.035156 351.273438 45.464844 351.273438 62.035156 "/>
</g>
</svg>
