<?xml version="1.0" encoding="UTF-8"?>
<svg xmlns="http://www.w3.org/2000/svg" xmlns:xlink="http://www.w3.org/1999/xlink" width="517pt" height="517pt" viewBox="0 0 517 517" version="1.1">
<g id="surface8916">
<rect x="0" y="0" width="517" height="517" style="fill:rgb(90%,90%,90%);fill-opacity:1;stroke:none;"/>
<path style="fill:none;stroke-width:5;stroke-linecap:butt;stroke-linejoin:round;stroke:rgb(100%,0%,0%);stroke-opacity:1;stroke-miterlimit:10;" d="M 261 261 L 517 261 L 517 517 L 261 517 Z M 261 261 "/>
<path style="fill-rule:nonzero;fill:rgb(0%,0%,0%);fill-opacity:1;stroke-width:1;stroke-linecap:butt;stroke-linejoin:round;stroke:rgb(0%,0%,0%);stroke-opacity:1;stroke-miterlimit:10;" d="M 372.941406 443.953125 C 372.941406 460.519531 359.511719 473.953125 342.941406 473.953125 C 326.375 473.953125 312.941406 460.519531 312.941406 443.953125 C 312.941406 427.382812 326.375 413.953125 342.941406 413.953125 C 359.511719 413.953125 372.941406 427.382812 372.941406 443.953125 "/>
<path style="fill-rule:nonzero;fill:rgb(100%,100%,0%);fill-opacity:1;stroke-width:1;stroke-linecap:butt;stroke-linejoin:round;stroke:rgb(0%,0%,0%);stroke-opacity:1;stroke-miterlimit:10;" d="M 486.609375 157.773438 C 486.609375 174.34375 473.179688 187.773438 456.609375 187.773438 C 440.042969 187.773438 426.609375 174.34375 426.609375 157.773438 C 426.609375 141.207031 440.042969 127.773438 456.609375 127.773438 C 473.179688 127.773438 486.609375 141.207031 486.609375 157.773438 "/>
<path style="fill-rule:nonzero;fill:rgb(100%,100%,0%);fill-opacity:1;stroke-width:1;stroke-linecap:butt;stroke-linejoin:round;stroke:rgb(0%,0%,0%);stroke-opacity:1;stroke-miterlimit:10;" d="M 409.375 67.0625 C 409.375 83.628906 395.945312 97.0625 379.375 97.0625 C 362.808594 97.0625 349.375 83.628906 349.375 67.0625 C 349.375 50.492188 362.808594 37.0625 379.375 37.0625 C 395.945312 37.0625 409.375 50.492188 409.375 67.0625 "/>
<path style="fill-rule:nonzero;fill:rgb(100%,100%,0%);fill-opacity:1;stroke-width:1;stroke-linecap:butt;stroke-linejoin:round;stroke:rgb(0%,0%,0%);stroke-opacity:1;stroke-miterlimit:10;" d="M 143.292969 389.914062 C 143.292969 406.484375 129.859375 419.914062 113.292969 419.914062 C 96.722656 419.914062 83.292969 406.484375 83.292969 389.914062 C 83.292969 373.347656 96.722656 359.914062 113.292969 359.914062 C 129.859375 359.914062 143.292969 373.347656 143.292969 389.914062 "/>
<path style="fill-rule:nonzero;fill:rgb(100%,100%,0%);fill-opacity:1;stroke-width:1;stroke-linecap:butt;stroke-linejoin:round;stroke:rgb(0%,0%,0%);stroke-opacity:1;stroke-miterlimit:10;" d="M 164.089844 292.394531 C 164.089844 308.960938 150.65625 322.394531 134.089844 322.394531 C 117.519531 322.394531 104.089844 308.960938 104.089844 292.394531 C 104.089844 275.824219 117.519531 262.394531 134.089844 262.394531 C 150.65625 262.394531 164.089844 275.824219 164.089844 292.394531 "/>
</g>
</svg>
