<?xml version="1.0" encoding="UTF-8"?>
<svg xmlns="http://www.w3.org/2000/svg" xmlns:xlink="http://www.w3.org/1999/xlink" width="517pt" height="517pt" viewBox="0 0 517 517" version="1.1">
<g id="surface3551">
<rect x="0" y="0" width="517" height="517" style="fill:rgb(90%,90%,90%);fill-opacity:1;stroke:none;"/>
<path style="fill:none;stroke-width:5;stroke-linecap:butt;stroke-linejoin:round;stroke:rgb(100%,0%,0%);stroke-opacity:1;stroke-miterlimit:10;" d="M 5 5 L 261 5 L 261 261 L 5 261 Z M 5 5 "/>
<path style="fill-rule:nonzero;fill:rgb(100%,0%,0%);fill-opacity:1;stroke-width:1;stroke-linecap:butt;stroke-linejoin:round;stroke:rgb(0%,0%,0%);stroke-opacity:1;stroke-miterlimit:10;" d="M 140.636719 67.996094 C 140.636719 84.5625 127.203125 97.996094 110.636719 97.996094 C 94.066406 97.996094 80.636719 84.5625 80.636719 67.996094 C 80.636719 51.425781 94.066406 37.996094 110.636719 37.996094 C 127.203125 37.996094 140.636719 51.425781 140.636719 67.996094 "/>
<path style="fill-rule:nonzero;fill:rgb(25%,88%,82%);fill-opacity:1;stroke-width:1;stroke-linecap:butt;stroke-linejoin:round;stroke:rgb(0%,0%,0%);stroke-opacity:1;stroke-miterlimit:10;" d="M 437.09375 384.304688 C 437.09375 400.871094 423.664062 414.304688 407.09375 414.304688 C 390.527344 414.304688 377.09375 400.871094 377.09375 384.304688 C 377.09375 367.734375 390.527344 354.304688 407.09375 354.304688 C 423.664062 354.304688 437.09375 367.734375 437.09375 384.304688 "/>
<path style="fill-rule:nonzero;fill:rgb(25%,88%,82%);fill-opacity:1;stroke-width:1;stroke-linecap:butt;stroke-linejoin:round;stroke:rgb(0%,0%,0%);stroke-opacity:1;stroke-miterlimit:10;" d="M 338.535156 209.804688 C 338.535156 226.375 325.105469 239.804688 308.535156 239.804688 C 291.964844 239.804688 278.535156 226.375 278.535156 209.804688 C 278.535156 193.238281 291.964844 179.804688 308.535156 179.804688 C 325.105469 179.804688 338.535156 193.238281 338.535156 209.804688 "/>
<path style="fill-rule:nonzero;fill:rgb(25%,88%,82%);fill-opacity:1;stroke-width:1;stroke-linecap:butt;stroke-linejoin:round;stroke:rgb(0%,0%,0%);stroke-opacity:1;stroke-miterlimit:10;" d="M 161.148438 436.84375 C 161.148438 453.414062 147.71875 466.84375 131.148438 466.84375 C 114.582031 466.84375 101.148438 453.414062 101.148438 436.84375 C 101.148438 420.277344 114.582031 406.84375 131.148438 406.84375 C 147.71875 406.84375 161.148438 420.277344 161.148438 436.84375 "/>
<path style="fill-rule:nonzero;fill:rgb(25%,88%,82%);fill-opacity:1;stroke-width:1;stroke-linecap:butt;stroke-linejoin:round;stroke:rgb(0%,0%,0%);stroke-opacity:1;stroke-miterlimit:10;" d="M 163.050781 302.03125 C 163.050781 318.597656 149.621094 332.03125 133.050781 332.03125 C 116.480469 332.03125 103.050781 318.597656 103.050781 302.03125 C 103.050781 285.460938 116.480469 272.03125 133.050781 272.03125 C 149.621094 272.03125 163.050781 285.460938 163.050781 302.03125 "/>
<path style="fill-rule:nonzero;fill:rgb(100%,0%,0%);fill-opacity:1;stroke-width:1;stroke-linecap:butt;stroke-linejoin:round;stroke:rgb(0%,0%,0%);stroke-opacity:1;stroke-miterlimit:10;" d="M 135.726562 367.453125 C 135.726562 384.019531 122.296875 397.453125 105.726562 397.453125 C 89.160156 397.453125 75.726562 384.019531 75.726562 367.453125 C 75.726562 350.882812 89.160156 337.453125 105.726562 337.453125 C 122.296875 337.453125 135.726562 350.882812 135.726562 367.453125 "/>
</g>
</svg>
