<?xml version="1.0" encoding="UTF-8"?>
<svg xmlns="http://www.w3.org/2000/svg" xmlns:xlink="http://www.w3.org/1999/xlink" width="517pt" height="517pt" viewBox="0 0 517 517" version="1.1">
<g id="surface3871">
<rect x="0" y="0" width="517" height="517" style="fill:rgb(90%,90%,90%);fill-opacity:1;stroke:none;"/>
<path style="fill:none;stroke-width:5;stroke-linecap:butt;stroke-linejoin:round;stroke:rgb(100%,0%,0%);stroke-opacity:1;stroke-miterlimit:10;" d="M 5 5 L 261 5 L 261 261 L 5 261 Z M 5 5 "/>
<path style="fill-rule:nonzero;fill:rgb(100%,7%,57%);fill-opacity:1;stroke-width:1;stroke-linecap:butt;stroke-linejoin:round;stroke:rgb(0%,0%,0%);stroke-opacity:1;stroke-miterlimit:10;" d="M 117.65625 121.082031 C 117.65625 137.648438 104.222656 151.082031 87.65625 151.082031 C 71.085938 151.082031 57.65625 137.648438 57.65625 121.082031 C 57.65625 104.511719 71.085938 91.082031 87.65625 91.082031 C 104.222656 91.082031 117.65625 104.511719 117.65625 121.082031 "/>
<path style="fill-rule:nonzero;fill:rgb(100%,100%,0%);fill-opacity:1;stroke-width:1;stroke-linecap:butt;stroke-linejoin:round;stroke:rgb(0%,0%,0%);stroke-opacity:1;stroke-miterlimit:10;" d="M 401.34375 174.992188 C 401.34375 191.5625 387.914062 204.992188 371.34375 204.992188 C 354.777344 204.992188 341.34375 191.5625 341.34375 174.992188 C 341.34375 158.421875 354.777344 144.992188 371.34375 144.992188 C 387.914062 144.992188 401.34375 158.421875 401.34375 174.992188 "/>
<path style="fill-rule:nonzero;fill:rgb(100%,100%,0%);fill-opacity:1;stroke-width:1;stroke-linecap:butt;stroke-linejoin:round;stroke:rgb(0%,0%,0%);stroke-opacity:1;stroke-miterlimit:10;" d="M 119.046875 366.46875 C 119.046875 383.035156 105.617188 396.46875 89.046875 396.46875 C 72.480469 396.46875 59.046875 383.035156 59.046875 366.46875 C 59.046875 349.898438 72.480469 336.46875 89.046875 336.46875 C 105.617188 336.46875 119.046875 349.898438 119.046875 366.46875 "/>
<path style="fill-rule:nonzero;fill:rgb(100%,100%,0%);fill-opacity:1;stroke-width:1;stroke-linecap:butt;stroke-linejoin:round;stroke:rgb(0%,0%,0%);stroke-opacity:1;stroke-miterlimit:10;" d="M 121.585938 460.589844 C 121.585938 477.15625 108.152344 490.589844 91.585938 490.589844 C 75.015625 490.589844 61.585938 477.15625 61.585938 460.589844 C 61.585938 444.019531 75.015625 430.589844 91.585938 430.589844 C 108.152344 430.589844 121.585938 444.019531 121.585938 460.589844 "/>
<path style="fill-rule:nonzero;fill:rgb(100%,100%,0%);fill-opacity:1;stroke-width:1;stroke-linecap:butt;stroke-linejoin:round;stroke:rgb(0%,0%,0%);stroke-opacity:1;stroke-miterlimit:10;" d="M 236.195312 320.089844 C 236.195312 336.65625 222.765625 350.089844 206.195312 350.089844 C 189.628906 350.089844 176.195312 336.65625 176.195312 320.089844 C 176.195312 303.519531 189.628906 290.089844 206.195312 290.089844 C 222.765625 290.089844 236.195312 303.519531 236.195312 320.089844 "/>
<path style="fill-rule:nonzero;fill:rgb(100%,7%,57%);fill-opacity:1;stroke-width:1;stroke-linecap:butt;stroke-linejoin:round;stroke:rgb(0%,0%,0%);stroke-opacity:1;stroke-miterlimit:10;" d="M 437.5625 424.039062 C 437.5625 440.609375 424.132812 454.039062 407.5625 454.039062 C 390.996094 454.039062 377.5625 440.609375 377.5625 424.039062 C 377.5625 407.472656 390.996094 394.039062 407.5625 394.039062 C 424.132812 394.039062 437.5625 407.472656 437.5625 424.039062 "/>
</g>
</svg>
