<?xml version="1.0" encoding="UTF-8"?>
<svg xmlns="http://www.w3.org/2000/svg" xmlns:xlink="http://www.w3.org/1999/xlink" width="517pt" height="517pt" viewBox="0 0 517 517" version="1.1">
<g id="surface3616">
<rect x="0" y="0" width="517" height="517" style="fill:rgb(90%,90%,90%);fill-opacity:1;stroke:none;"/>
<path style="fill:none;stroke-width:5;stroke-linecap:butt;stroke-linejoin:round;stroke:rgb(100%,0%,0%);stroke-opacity:1;stroke-miterlimit:10;" d="M 5 5 L 261 5 L 261 261 L 5 261 Z M 5 5 "/>
<path style="fill-rule:nonzero;fill:rgb(100%,100%,0%);fill-opacity:1;stroke-width:1;stroke-linecap:butt;stroke-linejoin:round;stroke:rgb(0%,0%,0%);stroke-opacity:1;stroke-miterlimit:10;" d="M 54.390625 30.132812 L 34.390625 30.132812 L 34.390625 40.132812 L 54.390625 40.132812 L 54.390625 60.132812 L 64.390625 60.132812 L 64.390625 40.132812 L 84.390625 40.132812 L 84.390625 30.132812 L 64.390625 30.132812 L 64.390625 10.132812 L 54.390625 10.132812 L 54.390625 30.132812 "/>
<path style="fill-rule:nonzero;fill:rgb(35%,70%,90%);fill-opacity:1;stroke-width:1;stroke-linecap:butt;stroke-linejoin:round;stroke:rgb(0%,0%,0%);stroke-opacity:1;stroke-miterlimit:10;" d="M 138.609375 357.992188 L 118.609375 357.992188 L 118.609375 367.992188 L 138.609375 367.992188 L 138.609375 387.992188 L 148.609375 387.992188 L 148.609375 367.992188 L 168.609375 367.992188 L 168.609375 357.992188 L 148.609375 357.992188 L 148.609375 337.992188 L 138.609375 337.992188 L 138.609375 357.992188 "/>
<path style="fill-rule:nonzero;fill:rgb(35%,70%,90%);fill-opacity:1;stroke-width:1;stroke-linecap:butt;stroke-linejoin:round;stroke:rgb(0%,0%,0%);stroke-opacity:1;stroke-miterlimit:10;" d="M 101.511719 421.703125 L 81.511719 421.703125 L 81.511719 431.703125 L 101.511719 431.703125 L 101.511719 451.703125 L 111.511719 451.703125 L 111.511719 431.703125 L 131.511719 431.703125 L 131.511719 421.703125 L 111.511719 421.703125 L 111.511719 401.703125 L 101.511719 401.703125 L 101.511719 421.703125 "/>
<path style="fill-rule:nonzero;fill:rgb(35%,70%,90%);fill-opacity:1;stroke-width:1;stroke-linecap:butt;stroke-linejoin:round;stroke:rgb(0%,0%,0%);stroke-opacity:1;stroke-miterlimit:10;" d="M 400.160156 425.9375 L 380.160156 425.9375 L 380.160156 435.9375 L 400.160156 435.9375 L 400.160156 455.9375 L 410.160156 455.9375 L 410.160156 435.9375 L 430.160156 435.9375 L 430.160156 425.9375 L 410.160156 425.9375 L 410.160156 405.9375 L 400.160156 405.9375 L 400.160156 425.9375 "/>
<path style="fill-rule:nonzero;fill:rgb(35%,70%,90%);fill-opacity:1;stroke-width:1;stroke-linecap:butt;stroke-linejoin:round;stroke:rgb(0%,0%,0%);stroke-opacity:1;stroke-miterlimit:10;" d="M 455.671875 463.617188 L 435.671875 463.617188 L 435.671875 473.617188 L 455.671875 473.617188 L 455.671875 493.617188 L 465.671875 493.617188 L 465.671875 473.617188 L 485.671875 473.617188 L 485.671875 463.617188 L 465.671875 463.617188 L 465.671875 443.617188 L 455.671875 443.617188 L 455.671875 463.617188 "/>
<path style="fill-rule:nonzero;fill:rgb(35%,70%,90%);fill-opacity:1;stroke-width:1;stroke-linecap:butt;stroke-linejoin:round;stroke:rgb(0%,0%,0%);stroke-opacity:1;stroke-miterlimit:10;" d="M 397.339844 142.898438 L 377.339844 142.898438 L 377.339844 152.898438 L 397.339844 152.898438 L 397.339844 172.898438 L 407.339844 172.898438 L 407.339844 152.898438 L 427.339844 152.898438 L 427.339844 142.898438 L 407.339844 142.898438 L 407.339844 122.898438 L 397.339844 122.898438 L 397.339844 142.898438 "/>
</g>
</svg>
