<?xml version="1.0" encoding="UTF-8"?>
<svg xmlns="http://www.w3.org/2000/svg" xmlns:xlink="http://www.w3.org/1999/xlink" width="517pt" height="517pt" viewBox="0 0 517 517" version="1.1">
<g id="surface3266">
<rect x="0" y="0" width="517" height="517" style="fill:rgb(90%,90%,90%);fill-opacity:1;stroke:none;"/>
<path style="fill:none;stroke-width:5;stroke-linecap:butt;stroke-linejoin:round;stroke:rgb(100%,0%,0%);stroke-opacity:1;stroke-miterlimit:10;" d="M 261 261 L 517 261 L 517 517 L 261 517 Z M 261 261 "/>
<path style="fill-rule:nonzero;fill:rgb(100%,7%,57%);fill-opacity:1;stroke-width:1;stroke-linecap:butt;stroke-linejoin:round;stroke:rgb(0%,0%,0%);stroke-opacity:1;stroke-miterlimit:10;" d="M 404.097656 304.738281 C 404.097656 321.304688 390.664062 334.738281 374.097656 334.738281 C 357.527344 334.738281 344.097656 321.304688 344.097656 304.738281 C 344.097656 288.167969 357.527344 274.738281 374.097656 274.738281 C 390.664062 274.738281 404.097656 288.167969 404.097656 304.738281 "/>
<path style="fill-rule:nonzero;fill:rgb(100%,7%,57%);fill-opacity:1;stroke-width:1;stroke-linecap:butt;stroke-linejoin:round;stroke:rgb(0%,0%,0%);stroke-opacity:1;stroke-miterlimit:10;" d="M 212.019531 409.660156 C 212.019531 426.226562 198.585938 439.660156 182.019531 439.660156 C 165.449219 439.660156 152.019531 426.226562 152.019531 409.660156 C 152.019531 393.089844 165.449219 379.660156 182.019531 379.660156 C 198.585938 379.660156 212.019531 393.089844 212.019531 409.660156 "/>
<path style="fill-rule:nonzero;fill:rgb(100%,7%,57%);fill-opacity:1;stroke-width:1;stroke-linecap:butt;stroke-linejoin:round;stroke:rgb(0%,0%,0%);stroke-opacity:1;stroke-miterlimit:10;" d="M 179.835938 114.601562 C 179.835938 131.171875 166.402344 144.601562 149.835938 144.601562 C 133.265625 144.601562 119.835938 131.171875 119.835938 114.601562 C 119.835938 98.035156 133.265625 84.601562 149.835938 84.601562 C 166.402344 84.601562 179.835938 98.035156 179.835938 114.601562 "/>
<path style="fill-rule:nonzero;fill:rgb(100%,7%,57%);fill-opacity:1;stroke-width:1;stroke-linecap:butt;stroke-linejoin:round;stroke:rgb(0%,0%,0%);stroke-opacity:1;stroke-miterlimit:10;" d="M 98.484375 194.203125 C 98.484375 210.773438 85.050781 224.203125 68.484375 224.203125 C 51.914062 224.203125 38.484375 210.773438 38.484375 194.203125 C 38.484375 177.636719 51.914062 164.203125 68.484375 164.203125 C 85.050781 164.203125 98.484375 177.636719 98.484375 194.203125 "/>
<path style="fill-rule:nonzero;fill:rgb(100%,7%,57%);fill-opacity:1;stroke-width:1;stroke-linecap:butt;stroke-linejoin:round;stroke:rgb(0%,0%,0%);stroke-opacity:1;stroke-miterlimit:10;" d="M 165.40625 37.335938 C 165.40625 53.90625 151.972656 67.335938 135.40625 67.335938 C 118.835938 67.335938 105.40625 53.90625 105.40625 37.335938 C 105.40625 20.769531 118.835938 7.335938 135.40625 7.335938 C 151.972656 7.335938 165.40625 20.769531 165.40625 37.335938 "/>
</g>
</svg>
