<?xml version="1.0" encoding="UTF-8"?>
<svg xmlns="http://www.w3.org/2000/svg" xmlns:xlink="http://www.w3.org/1999/xlink" width="517pt" height="517pt" viewBox="0 0 517 517" version="1.1">
<g id="surface3546">
<rect x="0" y="0" width="517" height="517" style="fill:rgb(90%,90%,90%);fill-opacity:1;stroke:none;"/>
<path style="fill:none;stroke-width:5;stroke-linecap:butt;stroke-linejoin:round;stroke:rgb(100%,0%,0%);stroke-opacity:1;stroke-miterlimit:10;" d="M 5 5 L 261 5 L 261 261 L 5 261 Z M 5 5 "/>
<path style="fill-rule:nonzero;fill:rgb(100%,0%,0%);fill-opacity:1;stroke-width:1;stroke-linecap:butt;stroke-linejoin:round;stroke:rgb(0%,0%,0%);stroke-opacity:1;stroke-miterlimit:10;" d="M 145.175781 78.992188 C 145.175781 95.558594 131.746094 108.992188 115.175781 108.992188 C 98.609375 108.992188 85.175781 95.558594 85.175781 78.992188 C 85.175781 62.421875 98.609375 48.992188 115.175781 48.992188 C 131.746094 48.992188 145.175781 62.421875 145.175781 78.992188 "/>
<path style="fill-rule:nonzero;fill:rgb(25%,88%,82%);fill-opacity:1;stroke-width:1;stroke-linecap:butt;stroke-linejoin:round;stroke:rgb(0%,0%,0%);stroke-opacity:1;stroke-miterlimit:10;" d="M 429.453125 308.796875 C 429.453125 325.367188 416.023438 338.796875 399.453125 338.796875 C 382.886719 338.796875 369.453125 325.367188 369.453125 308.796875 C 369.453125 292.230469 382.886719 278.796875 399.453125 278.796875 C 416.023438 278.796875 429.453125 292.230469 429.453125 308.796875 "/>
<path style="fill-rule:nonzero;fill:rgb(25%,88%,82%);fill-opacity:1;stroke-width:1;stroke-linecap:butt;stroke-linejoin:round;stroke:rgb(0%,0%,0%);stroke-opacity:1;stroke-miterlimit:10;" d="M 350.722656 411.535156 C 350.722656 428.101562 337.289062 441.535156 320.722656 441.535156 C 304.152344 441.535156 290.722656 428.101562 290.722656 411.535156 C 290.722656 394.964844 304.152344 381.535156 320.722656 381.535156 C 337.289062 381.535156 350.722656 394.964844 350.722656 411.535156 "/>
<path style="fill-rule:nonzero;fill:rgb(25%,88%,82%);fill-opacity:1;stroke-width:1;stroke-linecap:butt;stroke-linejoin:round;stroke:rgb(0%,0%,0%);stroke-opacity:1;stroke-miterlimit:10;" d="M 81.652344 410.46875 C 81.652344 427.039062 68.21875 440.46875 51.652344 440.46875 C 35.082031 440.46875 21.652344 427.039062 21.652344 410.46875 C 21.652344 393.898438 35.082031 380.46875 51.652344 380.46875 C 68.21875 380.46875 81.652344 393.898438 81.652344 410.46875 "/>
<path style="fill-rule:nonzero;fill:rgb(25%,88%,82%);fill-opacity:1;stroke-width:1;stroke-linecap:butt;stroke-linejoin:round;stroke:rgb(0%,0%,0%);stroke-opacity:1;stroke-miterlimit:10;" d="M 132.492188 446.109375 C 132.492188 462.679688 119.058594 476.109375 102.492188 476.109375 C 85.921875 476.109375 72.492188 462.679688 72.492188 446.109375 C 72.492188 429.542969 85.921875 416.109375 102.492188 416.109375 C 119.058594 416.109375 132.492188 429.542969 132.492188 446.109375 "/>
<path style="fill-rule:nonzero;fill:rgb(100%,0%,0%);fill-opacity:1;stroke-width:1;stroke-linecap:butt;stroke-linejoin:round;stroke:rgb(0%,0%,0%);stroke-opacity:1;stroke-miterlimit:10;" d="M 196.996094 354.925781 C 196.996094 371.492188 183.5625 384.925781 166.996094 384.925781 C 150.425781 384.925781 136.996094 371.492188 136.996094 354.925781 C 136.996094 338.355469 150.425781 324.925781 166.996094 324.925781 C 183.5625 324.925781 196.996094 338.355469 196.996094 354.925781 "/>
</g>
</svg>
