<?xml version="1.0" encoding="UTF-8"?>
<svg xmlns="http://www.w3.org/2000/svg" xmlns:xlink="http://www.w3.org/1999/xlink" width="517pt" height="517pt" viewBox="0 0 517 517" version="1.1">
<g id="surface8656">
<rect x="0" y="0" width="517" height="517" style="fill:rgb(90%,90%,90%);fill-opacity:1;stroke:none;"/>
<path style="fill:none;stroke-width:5;stroke-linecap:butt;stroke-linejoin:round;stroke:rgb(100%,0%,0%);stroke-opacity:1;stroke-miterlimit:10;" d="M 5 5 L 261 5 L 261 261 L 5 261 Z M 5 5 "/>
<path style="fill-rule:nonzero;fill:rgb(50%,0%,50%);fill-opacity:1;stroke-width:1;stroke-linecap:butt;stroke-linejoin:round;stroke:rgb(0%,0%,0%);stroke-opacity:1;stroke-miterlimit:10;" d="M 241.527344 209.378906 C 241.527344 225.949219 228.09375 239.378906 211.527344 239.378906 C 194.957031 239.378906 181.527344 225.949219 181.527344 209.378906 C 181.527344 192.8125 194.957031 179.378906 211.527344 179.378906 C 228.09375 179.378906 241.527344 192.8125 241.527344 209.378906 "/>
<path style="fill-rule:nonzero;fill:rgb(50%,0%,50%);fill-opacity:1;stroke-width:1;stroke-linecap:butt;stroke-linejoin:round;stroke:rgb(0%,0%,0%);stroke-opacity:1;stroke-miterlimit:10;" d="M 442.613281 82.777344 C 442.613281 99.34375 429.183594 112.777344 412.613281 112.777344 C 396.046875 112.777344 382.613281 99.34375 382.613281 82.777344 C 382.613281 66.207031 396.046875 52.777344 412.613281 52.777344 C 429.183594 52.777344 442.613281 66.207031 442.613281 82.777344 "/>
<path style="fill-rule:nonzero;fill:rgb(50%,0%,50%);fill-opacity:1;stroke-width:1;stroke-linecap:butt;stroke-linejoin:round;stroke:rgb(0%,0%,0%);stroke-opacity:1;stroke-miterlimit:10;" d="M 416.847656 163.796875 C 416.847656 180.363281 403.414062 193.796875 386.847656 193.796875 C 370.277344 193.796875 356.847656 180.363281 356.847656 163.796875 C 356.847656 147.226562 370.277344 133.796875 386.847656 133.796875 C 403.414062 133.796875 416.847656 147.226562 416.847656 163.796875 "/>
<path style="fill-rule:nonzero;fill:rgb(50%,0%,50%);fill-opacity:1;stroke-width:1;stroke-linecap:butt;stroke-linejoin:round;stroke:rgb(0%,0%,0%);stroke-opacity:1;stroke-miterlimit:10;" d="M 458.644531 384.738281 C 458.644531 401.304688 445.210938 414.738281 428.644531 414.738281 C 412.074219 414.738281 398.644531 401.304688 398.644531 384.738281 C 398.644531 368.167969 412.074219 354.738281 428.644531 354.738281 C 445.210938 354.738281 458.644531 368.167969 458.644531 384.738281 "/>
<path style="fill-rule:nonzero;fill:rgb(50%,0%,50%);fill-opacity:1;stroke-width:1;stroke-linecap:butt;stroke-linejoin:round;stroke:rgb(0%,0%,0%);stroke-opacity:1;stroke-miterlimit:10;" d="M 424.542969 447.394531 C 424.542969 463.964844 411.113281 477.394531 394.542969 477.394531 C 377.976562 477.394531 364.542969 463.964844 364.542969 447.394531 C 364.542969 430.828125 377.976562 417.394531 394.542969 417.394531 C 411.113281 417.394531 424.542969 430.828125 424.542969 447.394531 "/>
<path style="fill-rule:nonzero;fill:rgb(50%,0%,50%);fill-opacity:1;stroke-width:1;stroke-linecap:butt;stroke-linejoin:round;stroke:rgb(0%,0%,0%);stroke-opacity:1;stroke-miterlimit:10;" d="M 111.597656 396.054688 C 111.597656 412.625 98.167969 426.054688 81.597656 426.054688 C 65.03125 426.054688 51.597656 412.625 51.597656 396.054688 C 51.597656 379.488281 65.03125 366.054688 81.597656 366.054688 C 98.167969 366.054688 111.597656 379.488281 111.597656 396.054688 "/>
</g>
</svg>
