<?xml version="1.0" encoding="UTF-8"?>
<svg xmlns="http://www.w3.org/2000/svg" xmlns:xlink="http://www.w3.org/1999/xlink" width="517pt" height="517pt" viewBox="0 0 517 517" version="1.1">
<g id="surface8396">
<rect x="0" y="0" width="517" height="517" style="fill:rgb(90%,90%,90%);fill-opacity:1;stroke:none;"/>
<path style="fill:none;stroke-width:5;stroke-linecap:butt;stroke-linejoin:round;stroke:rgb(100%,0%,0%);stroke-opacity:1;stroke-miterlimit:10;" d="M 5 5 L 261 5 L 261 261 L 5 261 Z M 5 5 "/>
<path style="fill-rule:nonzero;fill:rgb(67%,100%,18%);fill-opacity:1;stroke-width:1;stroke-linecap:butt;stroke-linejoin:round;stroke:rgb(0%,0%,0%);stroke-opacity:1;stroke-miterlimit:10;" d="M 203.503906 169.882812 C 203.503906 186.453125 190.070312 199.882812 173.503906 199.882812 C 156.933594 199.882812 143.503906 186.453125 143.503906 169.882812 C 143.503906 153.316406 156.933594 139.882812 173.503906 139.882812 C 190.070312 139.882812 203.503906 153.316406 203.503906 169.882812 "/>
<path style="fill-rule:nonzero;fill:rgb(67%,100%,18%);fill-opacity:1;stroke-width:1;stroke-linecap:butt;stroke-linejoin:round;stroke:rgb(0%,0%,0%);stroke-opacity:1;stroke-miterlimit:10;" d="M 453.265625 321.910156 C 453.265625 338.476562 439.832031 351.910156 423.265625 351.910156 C 406.695312 351.910156 393.265625 338.476562 393.265625 321.910156 C 393.265625 305.339844 406.695312 291.910156 423.265625 291.910156 C 439.832031 291.910156 453.265625 305.339844 453.265625 321.910156 "/>
<path style="fill-rule:nonzero;fill:rgb(67%,100%,18%);fill-opacity:1;stroke-width:1;stroke-linecap:butt;stroke-linejoin:round;stroke:rgb(0%,0%,0%);stroke-opacity:1;stroke-miterlimit:10;" d="M 406.496094 390.558594 C 406.496094 407.128906 393.0625 420.558594 376.496094 420.558594 C 359.925781 420.558594 346.496094 407.128906 346.496094 390.558594 C 346.496094 373.992188 359.925781 360.558594 376.496094 360.558594 C 393.0625 360.558594 406.496094 373.992188 406.496094 390.558594 "/>
<path style="fill-rule:nonzero;fill:rgb(67%,100%,18%);fill-opacity:1;stroke-width:1;stroke-linecap:butt;stroke-linejoin:round;stroke:rgb(0%,0%,0%);stroke-opacity:1;stroke-miterlimit:10;" d="M 116.386719 358.691406 C 116.386719 375.261719 102.957031 388.691406 86.386719 388.691406 C 69.816406 388.691406 56.386719 375.261719 56.386719 358.691406 C 56.386719 342.125 69.816406 328.691406 86.386719 328.691406 C 102.957031 328.691406 116.386719 342.125 116.386719 358.691406 "/>
<path style="fill-rule:nonzero;fill:rgb(67%,100%,18%);fill-opacity:1;stroke-width:1;stroke-linecap:butt;stroke-linejoin:round;stroke:rgb(0%,0%,0%);stroke-opacity:1;stroke-miterlimit:10;" d="M 223.148438 433.347656 C 223.148438 449.914062 209.71875 463.347656 193.148438 463.347656 C 176.582031 463.347656 163.148438 449.914062 163.148438 433.347656 C 163.148438 416.777344 176.582031 403.347656 193.148438 403.347656 C 209.71875 403.347656 223.148438 416.777344 223.148438 433.347656 "/>
<path style="fill-rule:nonzero;fill:rgb(67%,100%,18%);fill-opacity:1;stroke-width:1;stroke-linecap:butt;stroke-linejoin:round;stroke:rgb(0%,0%,0%);stroke-opacity:1;stroke-miterlimit:10;" d="M 239.121094 364.347656 C 239.121094 380.914062 225.691406 394.347656 209.121094 394.347656 C 192.554688 394.347656 179.121094 380.914062 179.121094 364.347656 C 179.121094 347.777344 192.554688 334.347656 209.121094 334.347656 C 225.691406 334.347656 239.121094 347.777344 239.121094 364.347656 "/>
</g>
</svg>
