<?xml version="1.0" encoding="UTF-8"?>
<svg xmlns="http://www.w3.org/2000/svg" xmlns:xlink="http://www.w3.org/1999/xlink" width="517pt" height="517pt" viewBox="0 0 517 517" version="1.1">
<g id="surface8876">
<rect x="0" y="0" width="517" height="517" style="fill:rgb(90%,90%,90%);fill-opacity:1;stroke:none;"/>
<path style="fill:none;stroke-width:5;stroke-linecap:butt;stroke-linejoin:round;stroke:rgb(100%,0%,0%);stroke-opacity:1;stroke-miterlimit:10;" d="M 261 5 L 517 5 L 517 261 L 261 261 Z M 261 5 "/>
<path style="fill-rule:nonzero;fill:rgb(100%,0%,0%);fill-opacity:1;stroke-width:1;stroke-linecap:butt;stroke-linejoin:round;stroke:rgb(0%,0%,0%);stroke-opacity:1;stroke-miterlimit:10;" d="M 387.933594 172.332031 C 387.933594 188.902344 374.5 202.332031 357.933594 202.332031 C 341.363281 202.332031 327.933594 188.902344 327.933594 172.332031 C 327.933594 155.765625 341.363281 142.332031 357.933594 142.332031 C 374.5 142.332031 387.933594 155.765625 387.933594 172.332031 "/>
<path style="fill-rule:nonzero;fill:rgb(100%,0%,0%);fill-opacity:1;stroke-width:1;stroke-linecap:butt;stroke-linejoin:round;stroke:rgb(0%,0%,0%);stroke-opacity:1;stroke-miterlimit:10;" d="M 146.035156 321.960938 C 146.035156 338.53125 132.605469 351.960938 116.035156 351.960938 C 99.46875 351.960938 86.035156 338.53125 86.035156 321.960938 C 86.035156 305.394531 99.46875 291.960938 116.035156 291.960938 C 132.605469 291.960938 146.035156 305.394531 146.035156 321.960938 "/>
<path style="fill-rule:nonzero;fill:rgb(100%,0%,0%);fill-opacity:1;stroke-width:1;stroke-linecap:butt;stroke-linejoin:round;stroke:rgb(0%,0%,0%);stroke-opacity:1;stroke-miterlimit:10;" d="M 92.71875 200.777344 C 92.71875 217.347656 79.285156 230.777344 62.71875 230.777344 C 46.148438 230.777344 32.71875 217.347656 32.71875 200.777344 C 32.71875 184.210938 46.148438 170.777344 62.71875 170.777344 C 79.285156 170.777344 92.71875 184.210938 92.71875 200.777344 "/>
<path style="fill-rule:nonzero;fill:rgb(100%,0%,0%);fill-opacity:1;stroke-width:1;stroke-linecap:butt;stroke-linejoin:round;stroke:rgb(0%,0%,0%);stroke-opacity:1;stroke-miterlimit:10;" d="M 177.296875 121.875 C 177.296875 138.441406 163.867188 151.875 147.296875 151.875 C 130.730469 151.875 117.296875 138.441406 117.296875 121.875 C 117.296875 105.304688 130.730469 91.875 147.296875 91.875 C 163.867188 91.875 177.296875 105.304688 177.296875 121.875 "/>
<path style="fill-rule:nonzero;fill:rgb(100%,0%,0%);fill-opacity:1;stroke-width:1;stroke-linecap:butt;stroke-linejoin:round;stroke:rgb(0%,0%,0%);stroke-opacity:1;stroke-miterlimit:10;" d="M 81.355469 133.488281 C 81.355469 150.058594 67.921875 163.488281 51.355469 163.488281 C 34.785156 163.488281 21.355469 150.058594 21.355469 133.488281 C 21.355469 116.917969 34.785156 103.488281 51.355469 103.488281 C 67.921875 103.488281 81.355469 116.917969 81.355469 133.488281 "/>
<path style="fill-rule:nonzero;fill:rgb(100%,0%,0%);fill-opacity:1;stroke-width:1;stroke-linecap:butt;stroke-linejoin:round;stroke:rgb(0%,0%,0%);stroke-opacity:1;stroke-miterlimit:10;" d="M 191.621094 220.222656 C 191.621094 236.792969 178.191406 250.222656 161.621094 250.222656 C 145.054688 250.222656 131.621094 236.792969 131.621094 220.222656 C 131.621094 203.65625 145.054688 190.222656 161.621094 190.222656 C 178.191406 190.222656 191.621094 203.65625 191.621094 220.222656 "/>
</g>
</svg>
