<?xml version="1.0" encoding="UTF-8"?>
<svg xmlns="http://www.w3.org/2000/svg" xmlns:xlink="http://www.w3.org/1999/xlink" width="517pt" height="517pt" viewBox="0 0 517 517" version="1.1">
<g id="surface8706">
<rect x="0" y="0" width="517" height="517" style="fill:rgb(90%,90%,90%);fill-opacity:1;stroke:none;"/>
<path style="fill:none;stroke-width:5;stroke-linecap:butt;stroke-linejoin:round;stroke:rgb(100%,0%,0%);stroke-opacity:1;stroke-miterlimit:10;" d="M 5 5 L 261 5 L 261 261 L 5 261 Z M 5 5 "/>
<path style="fill-rule:nonzero;fill:rgb(50%,0%,50%);fill-opacity:1;stroke-width:1;stroke-linecap:butt;stroke-linejoin:round;stroke:rgb(0%,0%,0%);stroke-opacity:1;stroke-miterlimit:10;" d="M 181.378906 161.886719 C 181.378906 178.457031 167.949219 191.886719 151.378906 191.886719 C 134.8125 191.886719 121.378906 178.457031 121.378906 161.886719 C 121.378906 145.320312 134.8125 131.886719 151.378906 131.886719 C 167.949219 131.886719 181.378906 145.320312 181.378906 161.886719 "/>
<path style="fill-rule:nonzero;fill:rgb(90%,65%,0%);fill-opacity:1;stroke-width:1;stroke-linecap:butt;stroke-linejoin:round;stroke:rgb(0%,0%,0%);stroke-opacity:1;stroke-miterlimit:10;" d="M 333.195312 158.03125 C 333.195312 174.597656 319.761719 188.03125 303.195312 188.03125 C 286.625 188.03125 273.195312 174.597656 273.195312 158.03125 C 273.195312 141.460938 286.625 128.03125 303.195312 128.03125 C 319.761719 128.03125 333.195312 141.460938 333.195312 158.03125 "/>
<path style="fill-rule:nonzero;fill:rgb(90%,65%,0%);fill-opacity:1;stroke-width:1;stroke-linecap:butt;stroke-linejoin:round;stroke:rgb(0%,0%,0%);stroke-opacity:1;stroke-miterlimit:10;" d="M 491.78125 139.773438 C 491.78125 156.339844 478.351562 169.773438 461.78125 169.773438 C 445.214844 169.773438 431.78125 156.339844 431.78125 139.773438 C 431.78125 123.203125 445.214844 109.773438 461.78125 109.773438 C 478.351562 109.773438 491.78125 123.203125 491.78125 139.773438 "/>
<path style="fill-rule:nonzero;fill:rgb(90%,65%,0%);fill-opacity:1;stroke-width:1;stroke-linecap:butt;stroke-linejoin:round;stroke:rgb(0%,0%,0%);stroke-opacity:1;stroke-miterlimit:10;" d="M 246.140625 308.175781 C 246.140625 324.746094 232.707031 338.175781 216.140625 338.175781 C 199.570312 338.175781 186.140625 324.746094 186.140625 308.175781 C 186.140625 291.609375 199.570312 278.175781 216.140625 278.175781 C 232.707031 278.175781 246.140625 291.609375 246.140625 308.175781 "/>
<path style="fill-rule:nonzero;fill:rgb(90%,65%,0%);fill-opacity:1;stroke-width:1;stroke-linecap:butt;stroke-linejoin:round;stroke:rgb(0%,0%,0%);stroke-opacity:1;stroke-miterlimit:10;" d="M 194.265625 438.988281 C 194.265625 455.558594 180.835938 468.988281 164.265625 468.988281 C 147.695312 468.988281 134.265625 455.558594 134.265625 438.988281 C 134.265625 422.417969 147.695312 408.988281 164.265625 408.988281 C 180.835938 408.988281 194.265625 422.417969 194.265625 438.988281 "/>
<path style="fill-rule:nonzero;fill:rgb(90%,65%,0%);fill-opacity:1;stroke-width:1;stroke-linecap:butt;stroke-linejoin:round;stroke:rgb(0%,0%,0%);stroke-opacity:1;stroke-miterlimit:10;" d="M 101.253906 292.796875 C 101.253906 309.367188 87.820312 322.796875 71.253906 322.796875 C 54.683594 322.796875 41.253906 309.367188 41.253906 292.796875 C 41.253906 276.230469 54.683594 262.796875 71.253906 262.796875 C 87.820312 262.796875 101.253906 276.230469 101.253906 292.796875 "/>
</g>
</svg>
