<?xml version="1.0" encoding="UTF-8"?>
<svg xmlns="http://www.w3.org/2000/svg" xmlns:xlink="http://www.w3.org/1999/xlink" width="517pt" height="517pt" viewBox="0 0 517 517" version="1.1">
<g id="surface8466">
<rect x="0" y="0" width="517" height="517" style="fill:rgb(90%,90%,90%);fill-opacity:1;stroke:none;"/>
<path style="fill:none;stroke-width:5;stroke-linecap:butt;stroke-linejoin:round;stroke:rgb(100%,0%,0%);stroke-opacity:1;stroke-miterlimit:10;" d="M 5 261 L 261 261 L 261 517 L 5 517 Z M 5 261 "/>
<path style="fill-rule:nonzero;fill:rgb(35%,70%,90%);fill-opacity:1;stroke-width:1;stroke-linecap:butt;stroke-linejoin:round;stroke:rgb(0%,0%,0%);stroke-opacity:1;stroke-miterlimit:10;" d="M 207.144531 306.121094 C 207.144531 322.691406 193.710938 336.121094 177.144531 336.121094 C 160.574219 336.121094 147.144531 322.691406 147.144531 306.121094 C 147.144531 289.554688 160.574219 276.121094 177.144531 276.121094 C 193.710938 276.121094 207.144531 289.554688 207.144531 306.121094 "/>
<path style="fill-rule:nonzero;fill:rgb(0%,0%,0%);fill-opacity:1;stroke-width:1;stroke-linecap:butt;stroke-linejoin:round;stroke:rgb(0%,0%,0%);stroke-opacity:1;stroke-miterlimit:10;" d="M 482.992188 128.285156 C 482.992188 144.855469 469.558594 158.285156 452.992188 158.285156 C 436.421875 158.285156 422.992188 144.855469 422.992188 128.285156 C 422.992188 111.71875 436.421875 98.285156 452.992188 98.285156 C 469.558594 98.285156 482.992188 111.71875 482.992188 128.285156 "/>
<path style="fill-rule:nonzero;fill:rgb(0%,0%,0%);fill-opacity:1;stroke-width:1;stroke-linecap:butt;stroke-linejoin:round;stroke:rgb(0%,0%,0%);stroke-opacity:1;stroke-miterlimit:10;" d="M 467.078125 54.066406 C 467.078125 70.632812 453.648438 84.066406 437.078125 84.066406 C 420.507812 84.066406 407.078125 70.632812 407.078125 54.066406 C 407.078125 37.496094 420.507812 24.066406 437.078125 24.066406 C 453.648438 24.066406 467.078125 37.496094 467.078125 54.066406 "/>
<path style="fill-rule:nonzero;fill:rgb(0%,0%,0%);fill-opacity:1;stroke-width:1;stroke-linecap:butt;stroke-linejoin:round;stroke:rgb(0%,0%,0%);stroke-opacity:1;stroke-miterlimit:10;" d="M 480.8125 305.882812 C 480.8125 322.449219 467.378906 335.882812 450.8125 335.882812 C 434.242188 335.882812 420.8125 322.449219 420.8125 305.882812 C 420.8125 289.3125 434.242188 275.882812 450.8125 275.882812 C 467.378906 275.882812 480.8125 289.3125 480.8125 305.882812 "/>
<path style="fill-rule:nonzero;fill:rgb(0%,0%,0%);fill-opacity:1;stroke-width:1;stroke-linecap:butt;stroke-linejoin:round;stroke:rgb(0%,0%,0%);stroke-opacity:1;stroke-miterlimit:10;" d="M 368.25 435.796875 C 368.25 452.367188 354.816406 465.796875 338.25 465.796875 C 321.679688 465.796875 308.25 452.367188 308.25 435.796875 C 308.25 419.226562 321.679688 405.796875 338.25 405.796875 C 354.816406 405.796875 368.25 419.226562 368.25 435.796875 "/>
<path style="fill-rule:nonzero;fill:rgb(0%,0%,0%);fill-opacity:1;stroke-width:1;stroke-linecap:butt;stroke-linejoin:round;stroke:rgb(0%,0%,0%);stroke-opacity:1;stroke-miterlimit:10;" d="M 438.847656 408.53125 C 438.847656 425.101562 425.414062 438.53125 408.847656 438.53125 C 392.277344 438.53125 378.847656 425.101562 378.847656 408.53125 C 378.847656 391.960938 392.277344 378.53125 408.847656 378.53125 C 425.414062 378.53125 438.847656 391.960938 438.847656 408.53125 "/>
</g>
</svg>
