<?xml version="1.0" encoding="UTF-8"?>
<svg xmlns="http://www.w3.org/2000/svg" xmlns:xlink="http://www.w3.org/1999/xlink" width="517pt" height="517pt" viewBox="0 0 517 517" version="1.1">
<g id="surface5416">
<rect x="0" y="0" width="517" height="517" style="fill:rgb(90%,90%,90%);fill-opacity:1;stroke:none;"/>
<path style="fill-rule:nonzero;fill:rgb(100%,100%,0%);fill-opacity:1;stroke-width:1;stroke-linecap:butt;stroke-linejoin:miter;stroke:rgb(0%,0%,0%);stroke-opacity:1;stroke-miterlimit:10;" d="M 114.75 403.476562 C 114.75 420.042969 101.316406 433.476562 84.75 433.476562 C 68.179688 433.476562 54.75 420.042969 54.75 403.476562 C 54.75 386.90625 68.179688 373.476562 84.75 373.476562 C 101.316406 373.476562 114.75 386.90625 114.75 403.476562 "/>
<path style="fill-rule:nonzero;fill:rgb(0%,0%,0%);fill-opacity:1;stroke-width:1;stroke-linecap:butt;stroke-linejoin:miter;stroke:rgb(0%,0%,0%);stroke-opacity:1;stroke-miterlimit:10;" d="M 419.878906 183.203125 C 419.878906 199.769531 406.449219 213.203125 389.878906 213.203125 C 373.308594 213.203125 359.878906 199.769531 359.878906 183.203125 C 359.878906 166.632812 373.308594 153.203125 389.878906 153.203125 C 406.449219 153.203125 419.878906 166.632812 419.878906 183.203125 "/>
<path style="fill-rule:nonzero;fill:rgb(0%,0%,0%);fill-opacity:1;stroke-width:1;stroke-linecap:butt;stroke-linejoin:miter;stroke:rgb(0%,0%,0%);stroke-opacity:1;stroke-miterlimit:10;" d="M 369.636719 84.261719 C 369.636719 100.828125 356.207031 114.261719 339.636719 114.261719 C 323.070312 114.261719 309.636719 100.828125 309.636719 84.261719 C 309.636719 67.691406 323.070312 54.261719 339.636719 54.261719 C 356.207031 54.261719 369.636719 67.691406 369.636719 84.261719 "/>
<path style="fill-rule:nonzero;fill:rgb(0%,0%,0%);fill-opacity:1;stroke-width:1;stroke-linecap:butt;stroke-linejoin:miter;stroke:rgb(0%,0%,0%);stroke-opacity:1;stroke-miterlimit:10;" d="M 332.839844 176.972656 C 332.839844 193.539062 319.40625 206.972656 302.839844 206.972656 C 286.269531 206.972656 272.839844 193.539062 272.839844 176.972656 C 272.839844 160.402344 286.269531 146.972656 302.839844 146.972656 C 319.40625 146.972656 332.839844 160.402344 332.839844 176.972656 "/>
<path style="fill-rule:nonzero;fill:rgb(0%,0%,0%);fill-opacity:1;stroke-width:1;stroke-linecap:butt;stroke-linejoin:miter;stroke:rgb(0%,0%,0%);stroke-opacity:1;stroke-miterlimit:10;" d="M 450.246094 55.753906 C 450.246094 72.320312 436.8125 85.753906 420.246094 85.753906 C 403.675781 85.753906 390.246094 72.320312 390.246094 55.753906 C 390.246094 39.183594 403.675781 25.753906 420.246094 25.753906 C 436.8125 25.753906 450.246094 39.183594 450.246094 55.753906 "/>
<path style="fill-rule:nonzero;fill:rgb(0%,0%,0%);fill-opacity:1;stroke-width:1;stroke-linecap:butt;stroke-linejoin:miter;stroke:rgb(0%,0%,0%);stroke-opacity:1;stroke-miterlimit:10;" d="M 504.359375 174.09375 C 504.359375 190.664062 490.925781 204.09375 474.359375 204.09375 C 457.789062 204.09375 444.359375 190.664062 444.359375 174.09375 C 444.359375 157.523438 457.789062 144.09375 474.359375 144.09375 C 490.925781 144.09375 504.359375 157.523438 504.359375 174.09375 "/>
<path style="fill-rule:nonzero;fill:rgb(0%,0%,0%);fill-opacity:1;stroke-width:1;stroke-linecap:butt;stroke-linejoin:miter;stroke:rgb(0%,0%,0%);stroke-opacity:1;stroke-miterlimit:10;" d="M 211.628906 132.691406 C 211.628906 149.261719 198.195312 162.691406 181.628906 162.691406 C 165.058594 162.691406 151.628906 149.261719 151.628906 132.691406 C 151.628906 116.125 165.058594 102.691406 181.628906 102.691406 C 198.195312 102.691406 211.628906 116.125 211.628906 132.691406 "/>
<path style="fill-rule:nonzero;fill:rgb(0%,0%,0%);fill-opacity:1;stroke-width:1;stroke-linecap:butt;stroke-linejoin:miter;stroke:rgb(0%,0%,0%);stroke-opacity:1;stroke-miterlimit:10;" d="M 77.519531 194.851562 C 77.519531 211.421875 64.089844 224.851562 47.519531 224.851562 C 30.953125 224.851562 17.519531 211.421875 17.519531 194.851562 C 17.519531 178.285156 30.953125 164.851562 47.519531 164.851562 C 64.089844 164.851562 77.519531 178.285156 77.519531 194.851562 "/>
</g>
</svg>
