<?xml version="1.0" encoding="UTF-8"?>
<svg xmlns="http://www.w3.org/2000/svg" xmlns:xlink="http://www.w3.org/1999/xlink" width="517pt" height="517pt" viewBox="0 0 517 517" version="1.1">
<g id="surface271">
<rect x="0" y="0" width="517" height="517" style="fill:rgb(90%,90%,90%);fill-opacity:1;stroke:none;"/>
<path style="fill:none;stroke-width:5;stroke-linecap:butt;stroke-linejoin:round;stroke:rgb(100%,0%,0%);stroke-opacity:1;stroke-miterlimit:10;" d="M 5 5 L 261 5 L 261 261 L 5 261 Z M 5 5 "/>
<path style="fill-rule:nonzero;fill:rgb(67%,100%,18%);fill-opacity:1;stroke-width:1;stroke-linecap:butt;stroke-linejoin:round;stroke:rgb(0%,0%,0%);stroke-opacity:1;stroke-miterlimit:10;" d="M 195.570312 118.855469 C 195.570312 104.457031 171.570312 104.457031 171.570312 118.855469 C 171.570312 133.253906 195.570312 135.65625 195.570312 147.65625 C 195.570312 135.65625 219.570312 133.253906 219.570312 118.855469 C 219.570312 104.457031 195.570312 104.457031 195.570312 118.855469 "/>
<path style="fill-rule:nonzero;fill:rgb(50%,0%,50%);fill-opacity:1;stroke-width:1;stroke-linecap:butt;stroke-linejoin:round;stroke:rgb(0%,0%,0%);stroke-opacity:1;stroke-miterlimit:10;" d="M 447.683594 319.679688 C 447.683594 305.28125 423.683594 305.28125 423.683594 319.679688 C 423.683594 334.082031 447.683594 336.480469 447.683594 348.480469 C 447.683594 336.480469 471.683594 334.082031 471.683594 319.679688 C 471.683594 305.28125 447.683594 305.28125 447.683594 319.679688 "/>
<path style="fill-rule:nonzero;fill:rgb(50%,0%,50%);fill-opacity:1;stroke-width:1;stroke-linecap:butt;stroke-linejoin:round;stroke:rgb(0%,0%,0%);stroke-opacity:1;stroke-miterlimit:10;" d="M 467.878906 439.078125 C 467.878906 424.675781 443.878906 424.675781 443.878906 439.078125 C 443.878906 453.476562 467.878906 455.875 467.878906 467.875 C 467.878906 455.875 491.878906 453.476562 491.878906 439.078125 C 491.878906 424.675781 467.878906 424.675781 467.878906 439.078125 "/>
<path style="fill-rule:nonzero;fill:rgb(67%,100%,18%);fill-opacity:1;stroke-width:1;stroke-linecap:butt;stroke-linejoin:round;stroke:rgb(0%,0%,0%);stroke-opacity:1;stroke-miterlimit:10;" d="M 461.824219 163.175781 C 461.824219 148.777344 437.824219 148.777344 437.824219 163.175781 C 437.824219 177.578125 461.824219 179.976562 461.824219 191.976562 C 461.824219 179.976562 485.824219 177.578125 485.824219 163.175781 C 485.824219 148.777344 461.824219 148.777344 461.824219 163.175781 "/>
</g>
</svg>
