<?xml version="1.0" encoding="UTF-8"?>
<svg xmlns="http://www.w3.org/2000/svg" xmlns:xlink="http://www.w3.org/1999/xlink" width="517pt" height="517pt" viewBox="0 0 517 517" version="1.1">
<g id="surface8836">
<rect x="0" y="0" width="517" height="517" style="fill:rgb(90%,90%,90%);fill-opacity:1;stroke:none;"/>
<path style="fill:none;stroke-width:5;stroke-linecap:butt;stroke-linejoin:round;stroke:rgb(100%,0%,0%);stroke-opacity:1;stroke-miterlimit:10;" d="M 261 5 L 517 5 L 517 261 L 261 261 Z M 261 5 "/>
<path style="fill-rule:nonzero;fill:rgb(35%,70%,90%);fill-opacity:1;stroke-width:1;stroke-linecap:butt;stroke-linejoin:round;stroke:rgb(0%,0%,0%);stroke-opacity:1;stroke-miterlimit:10;" d="M 463.757812 65.636719 C 463.757812 82.207031 450.324219 95.636719 433.757812 95.636719 C 417.1875 95.636719 403.757812 82.207031 403.757812 65.636719 C 403.757812 49.070312 417.1875 35.636719 433.757812 35.636719 C 450.324219 35.636719 463.757812 49.070312 463.757812 65.636719 "/>
<path style="fill-rule:nonzero;fill:rgb(0%,0%,0%);fill-opacity:1;stroke-width:1;stroke-linecap:butt;stroke-linejoin:round;stroke:rgb(0%,0%,0%);stroke-opacity:1;stroke-miterlimit:10;" d="M 97.132812 366.96875 C 97.132812 383.535156 83.699219 396.96875 67.132812 396.96875 C 50.5625 396.96875 37.132812 383.535156 37.132812 366.96875 C 37.132812 350.398438 50.5625 336.96875 67.132812 336.96875 C 83.699219 336.96875 97.132812 350.398438 97.132812 366.96875 "/>
<path style="fill-rule:nonzero;fill:rgb(0%,0%,0%);fill-opacity:1;stroke-width:1;stroke-linecap:butt;stroke-linejoin:round;stroke:rgb(0%,0%,0%);stroke-opacity:1;stroke-miterlimit:10;" d="M 140.367188 314.960938 C 140.367188 331.53125 126.933594 344.960938 110.367188 344.960938 C 93.796875 344.960938 80.367188 331.53125 80.367188 314.960938 C 80.367188 298.394531 93.796875 284.960938 110.367188 284.960938 C 126.933594 284.960938 140.367188 298.394531 140.367188 314.960938 "/>
<path style="fill-rule:nonzero;fill:rgb(0%,0%,0%);fill-opacity:1;stroke-width:1;stroke-linecap:butt;stroke-linejoin:round;stroke:rgb(0%,0%,0%);stroke-opacity:1;stroke-miterlimit:10;" d="M 103.34375 55.019531 C 103.34375 71.585938 89.914062 85.019531 73.34375 85.019531 C 56.773438 85.019531 43.34375 71.585938 43.34375 55.019531 C 43.34375 38.449219 56.773438 25.019531 73.34375 25.019531 C 89.914062 25.019531 103.34375 38.449219 103.34375 55.019531 "/>
<path style="fill-rule:nonzero;fill:rgb(0%,0%,0%);fill-opacity:1;stroke-width:1;stroke-linecap:butt;stroke-linejoin:round;stroke:rgb(0%,0%,0%);stroke-opacity:1;stroke-miterlimit:10;" d="M 195.910156 55.207031 C 195.910156 71.777344 182.480469 85.207031 165.910156 85.207031 C 149.34375 85.207031 135.910156 71.777344 135.910156 55.207031 C 135.910156 38.640625 149.34375 25.207031 165.910156 25.207031 C 182.480469 25.207031 195.910156 38.640625 195.910156 55.207031 "/>
</g>
</svg>
