<?xml version="1.0" encoding="UTF-8"?>
<svg xmlns="http://www.w3.org/2000/svg" xmlns:xlink="http://www.w3.org/1999/xlink" width="517pt" height="517pt" viewBox="0 0 517 517" version="1.1">
<g id="surface3246">
<rect x="0" y="0" width="517" height="517" style="fill:rgb(90%,90%,90%);fill-opacity:1;stroke:none;"/>
<path style="fill:none;stroke-width:5;stroke-linecap:butt;stroke-linejoin:round;stroke:rgb(100%,0%,0%);stroke-opacity:1;stroke-miterlimit:10;" d="M 261 261 L 517 261 L 517 517 L 261 517 Z M 261 261 "/>
<path style="fill-rule:nonzero;fill:rgb(25%,88%,82%);fill-opacity:1;stroke-width:1;stroke-linecap:butt;stroke-linejoin:round;stroke:rgb(0%,0%,0%);stroke-opacity:1;stroke-miterlimit:10;" d="M 348.636719 340.0625 C 348.636719 356.632812 335.203125 370.0625 318.636719 370.0625 C 302.066406 370.0625 288.636719 356.632812 288.636719 340.0625 C 288.636719 323.496094 302.066406 310.0625 318.636719 310.0625 C 335.203125 310.0625 348.636719 323.496094 348.636719 340.0625 "/>
<path style="fill-rule:nonzero;fill:rgb(100%,7%,57%);fill-opacity:1;stroke-width:1;stroke-linecap:butt;stroke-linejoin:round;stroke:rgb(0%,0%,0%);stroke-opacity:1;stroke-miterlimit:10;" d="M 423.308594 206.707031 C 423.308594 223.277344 409.878906 236.707031 393.308594 236.707031 C 376.742188 236.707031 363.308594 223.277344 363.308594 206.707031 C 363.308594 190.136719 376.742188 176.707031 393.308594 176.707031 C 409.878906 176.707031 423.308594 190.136719 423.308594 206.707031 "/>
<path style="fill-rule:nonzero;fill:rgb(25%,88%,82%);fill-opacity:1;stroke-width:1;stroke-linecap:butt;stroke-linejoin:round;stroke:rgb(0%,0%,0%);stroke-opacity:1;stroke-miterlimit:10;" d="M 114.425781 345.460938 C 114.425781 362.027344 100.992188 375.460938 84.425781 375.460938 C 67.855469 375.460938 54.425781 362.027344 54.425781 345.460938 C 54.425781 328.890625 67.855469 315.460938 84.425781 315.460938 C 100.992188 315.460938 114.425781 328.890625 114.425781 345.460938 "/>
<path style="fill-rule:nonzero;fill:rgb(25%,88%,82%);fill-opacity:1;stroke-width:1;stroke-linecap:butt;stroke-linejoin:round;stroke:rgb(0%,0%,0%);stroke-opacity:1;stroke-miterlimit:10;" d="M 224.316406 439.863281 C 224.316406 456.433594 210.886719 469.863281 194.316406 469.863281 C 177.75 469.863281 164.316406 456.433594 164.316406 439.863281 C 164.316406 423.296875 177.75 409.863281 194.316406 409.863281 C 210.886719 409.863281 224.316406 423.296875 224.316406 439.863281 "/>
<path style="fill-rule:nonzero;fill:rgb(25%,88%,82%);fill-opacity:1;stroke-width:1;stroke-linecap:butt;stroke-linejoin:round;stroke:rgb(0%,0%,0%);stroke-opacity:1;stroke-miterlimit:10;" d="M 222.984375 57.066406 C 222.984375 73.636719 209.554688 87.066406 192.984375 87.066406 C 176.414062 87.066406 162.984375 73.636719 162.984375 57.066406 C 162.984375 40.5 176.414062 27.066406 192.984375 27.066406 C 209.554688 27.066406 222.984375 40.5 222.984375 57.066406 "/>
</g>
</svg>
