<?xml version="1.0" encoding="UTF-8"?>
<svg xmlns="http://www.w3.org/2000/svg" xmlns:xlink="http://www.w3.org/1999/xlink" width="517pt" height="517pt" viewBox="0 0 517 517" version="1.1">
<g id="surface266">
<rect x="0" y="0" width="517" height="517" style="fill:rgb(90%,90%,90%);fill-opacity:1;stroke:none;"/>
<path style="fill:none;stroke-width:5;stroke-linecap:butt;stroke-linejoin:round;stroke:rgb(100%,0%,0%);stroke-opacity:1;stroke-miterlimit:10;" d="M 5 5 L 261 5 L 261 261 L 5 261 Z M 5 5 "/>
<path style="fill-rule:nonzero;fill:rgb(67%,100%,18%);fill-opacity:1;stroke-width:1;stroke-linecap:butt;stroke-linejoin:round;stroke:rgb(0%,0%,0%);stroke-opacity:1;stroke-miterlimit:10;" d="M 85.601562 45.625 C 85.601562 31.226562 61.601562 31.226562 61.601562 45.625 C 61.601562 60.023438 85.601562 62.425781 85.601562 74.425781 C 85.601562 62.425781 109.601562 60.023438 109.601562 45.625 C 109.601562 31.226562 85.601562 31.226562 85.601562 45.625 "/>
<path style="fill-rule:nonzero;fill:rgb(50%,0%,50%);fill-opacity:1;stroke-width:1;stroke-linecap:butt;stroke-linejoin:round;stroke:rgb(0%,0%,0%);stroke-opacity:1;stroke-miterlimit:10;" d="M 134.394531 310.839844 C 134.394531 296.441406 110.394531 296.441406 110.394531 310.839844 C 110.394531 325.242188 134.394531 327.640625 134.394531 339.640625 C 134.394531 327.640625 158.394531 325.242188 158.394531 310.839844 C 158.394531 296.441406 134.394531 296.441406 134.394531 310.839844 "/>
<path style="fill-rule:nonzero;fill:rgb(50%,0%,50%);fill-opacity:1;stroke-width:1;stroke-linecap:butt;stroke-linejoin:round;stroke:rgb(0%,0%,0%);stroke-opacity:1;stroke-miterlimit:10;" d="M 422.851562 330.785156 C 422.851562 316.386719 398.851562 316.386719 398.851562 330.785156 C 398.851562 345.1875 422.851562 347.585938 422.851562 359.585938 C 422.851562 347.585938 446.851562 345.1875 446.851562 330.785156 C 446.851562 316.386719 422.851562 316.386719 422.851562 330.785156 "/>
<path style="fill-rule:nonzero;fill:rgb(67%,100%,18%);fill-opacity:1;stroke-width:1;stroke-linecap:butt;stroke-linejoin:round;stroke:rgb(0%,0%,0%);stroke-opacity:1;stroke-miterlimit:10;" d="M 435.65625 152.214844 C 435.65625 137.8125 411.65625 137.8125 411.65625 152.214844 C 411.65625 166.613281 435.65625 169.011719 435.65625 181.011719 C 435.65625 169.011719 459.65625 166.613281 459.65625 152.214844 C 459.65625 137.8125 435.65625 137.8125 435.65625 152.214844 "/>
</g>
</svg>
