<?xml version="1.0" encoding="UTF-8"?>
<svg xmlns="http://www.w3.org/2000/svg" xmlns:xlink="http://www.w3.org/1999/xlink" width="517pt" height="517pt" viewBox="0 0 517 517" version="1.1">
<g id="surface3916">
<rect x="0" y="0" width="517" height="517" style="fill:rgb(90%,90%,90%);fill-opacity:1;stroke:none;"/>
<path style="fill:none;stroke-width:5;stroke-linecap:butt;stroke-linejoin:round;stroke:rgb(100%,0%,0%);stroke-opacity:1;stroke-miterlimit:10;" d="M 5 5 L 261 5 L 261 261 L 5 261 Z M 5 5 "/>
<path style="fill-rule:nonzero;fill:rgb(25%,88%,82%);fill-opacity:1;stroke-width:1;stroke-linecap:butt;stroke-linejoin:round;stroke:rgb(0%,0%,0%);stroke-opacity:1;stroke-miterlimit:10;" d="M 65.386719 151.511719 C 65.386719 168.082031 51.953125 181.511719 35.386719 181.511719 C 18.816406 181.511719 5.386719 168.082031 5.386719 151.511719 C 5.386719 134.945312 18.816406 121.511719 35.386719 121.511719 C 51.953125 121.511719 65.386719 134.945312 65.386719 151.511719 "/>
<path style="fill-rule:nonzero;fill:rgb(100%,100%,0%);fill-opacity:1;stroke-width:1;stroke-linecap:butt;stroke-linejoin:round;stroke:rgb(0%,0%,0%);stroke-opacity:1;stroke-miterlimit:10;" d="M 494.710938 168.632812 C 494.710938 185.203125 481.28125 198.632812 464.710938 198.632812 C 448.144531 198.632812 434.710938 185.203125 434.710938 168.632812 C 434.710938 152.066406 448.144531 138.632812 464.710938 138.632812 C 481.28125 138.632812 494.710938 152.066406 494.710938 168.632812 "/>
<path style="fill-rule:nonzero;fill:rgb(100%,100%,0%);fill-opacity:1;stroke-width:1;stroke-linecap:butt;stroke-linejoin:round;stroke:rgb(0%,0%,0%);stroke-opacity:1;stroke-miterlimit:10;" d="M 370.113281 125.914062 C 370.113281 142.480469 356.683594 155.914062 340.113281 155.914062 C 323.546875 155.914062 310.113281 142.480469 310.113281 125.914062 C 310.113281 109.34375 323.546875 95.914062 340.113281 95.914062 C 356.683594 95.914062 370.113281 109.34375 370.113281 125.914062 "/>
<path style="fill-rule:nonzero;fill:rgb(100%,100%,0%);fill-opacity:1;stroke-width:1;stroke-linecap:butt;stroke-linejoin:round;stroke:rgb(0%,0%,0%);stroke-opacity:1;stroke-miterlimit:10;" d="M 208 424.371094 C 208 440.941406 194.570312 454.371094 178 454.371094 C 161.429688 454.371094 148 440.941406 148 424.371094 C 148 407.804688 161.429688 394.371094 178 394.371094 C 194.570312 394.371094 208 407.804688 208 424.371094 "/>
<path style="fill-rule:nonzero;fill:rgb(100%,100%,0%);fill-opacity:1;stroke-width:1;stroke-linecap:butt;stroke-linejoin:round;stroke:rgb(0%,0%,0%);stroke-opacity:1;stroke-miterlimit:10;" d="M 169.125 332.453125 C 169.125 349.019531 155.695312 362.453125 139.125 362.453125 C 122.558594 362.453125 109.125 349.019531 109.125 332.453125 C 109.125 315.882812 122.558594 302.453125 139.125 302.453125 C 155.695312 302.453125 169.125 315.882812 169.125 332.453125 "/>
<path style="fill-rule:nonzero;fill:rgb(100%,7%,57%);fill-opacity:1;stroke-width:1;stroke-linecap:butt;stroke-linejoin:round;stroke:rgb(0%,0%,0%);stroke-opacity:1;stroke-miterlimit:10;" d="M 117.257812 428.273438 C 117.257812 444.84375 103.824219 458.273438 87.257812 458.273438 C 70.6875 458.273438 57.257812 444.84375 57.257812 428.273438 C 57.257812 411.707031 70.6875 398.273438 87.257812 398.273438 C 103.824219 398.273438 117.257812 411.707031 117.257812 428.273438 "/>
</g>
</svg>
