<?xml version="1.0" encoding="UTF-8"?>
<svg xmlns="http://www.w3.org/2000/svg" xmlns:xlink="http://www.w3.org/1999/xlink" width="517pt" height="517pt" viewBox="0 0 517 517" version="1.1">
<g id="surface3641">
<rect x="0" y="0" width="517" height="517" style="fill:rgb(90%,90%,90%);fill-opacity:1;stroke:none;"/>
<path style="fill:none;stroke-width:5;stroke-linecap:butt;stroke-linejoin:round;stroke:rgb(100%,0%,0%);stroke-opacity:1;stroke-miterlimit:10;" d="M 5 5 L 261 5 L 261 261 L 5 261 Z M 5 5 "/>
<path style="fill-rule:nonzero;fill:rgb(100%,100%,0%);fill-opacity:1;stroke-width:1;stroke-linecap:butt;stroke-linejoin:round;stroke:rgb(0%,0%,0%);stroke-opacity:1;stroke-miterlimit:10;" d="M 185.925781 60.378906 L 165.925781 60.378906 L 165.925781 70.378906 L 185.925781 70.378906 L 185.925781 90.378906 L 195.925781 90.378906 L 195.925781 70.378906 L 215.925781 70.378906 L 215.925781 60.378906 L 195.925781 60.378906 L 195.925781 40.378906 L 185.925781 40.378906 L 185.925781 60.378906 "/>
<path style="fill-rule:nonzero;fill:rgb(35%,70%,90%);fill-opacity:1;stroke-width:1;stroke-linecap:butt;stroke-linejoin:round;stroke:rgb(0%,0%,0%);stroke-opacity:1;stroke-miterlimit:10;" d="M 436.78125 90.589844 L 416.78125 90.589844 L 416.78125 100.589844 L 436.78125 100.589844 L 436.78125 120.589844 L 446.78125 120.589844 L 446.78125 100.589844 L 466.78125 100.589844 L 466.78125 90.589844 L 446.78125 90.589844 L 446.78125 70.589844 L 436.78125 70.589844 L 436.78125 90.589844 "/>
<path style="fill-rule:nonzero;fill:rgb(100%,100%,0%);fill-opacity:1;stroke-width:1;stroke-linecap:butt;stroke-linejoin:round;stroke:rgb(0%,0%,0%);stroke-opacity:1;stroke-miterlimit:10;" d="M 417.398438 439.664062 L 397.398438 439.664062 L 397.398438 449.664062 L 417.398438 449.664062 L 417.398438 469.664062 L 427.398438 469.664062 L 427.398438 449.664062 L 447.398438 449.664062 L 447.398438 439.664062 L 427.398438 439.664062 L 427.398438 419.664062 L 417.398438 419.664062 L 417.398438 439.664062 "/>
<path style="fill-rule:nonzero;fill:rgb(100%,100%,0%);fill-opacity:1;stroke-width:1;stroke-linecap:butt;stroke-linejoin:round;stroke:rgb(0%,0%,0%);stroke-opacity:1;stroke-miterlimit:10;" d="M 87.886719 377.011719 L 67.886719 377.011719 L 67.886719 387.011719 L 87.886719 387.011719 L 87.886719 407.011719 L 97.886719 407.011719 L 97.886719 387.011719 L 117.886719 387.011719 L 117.886719 377.011719 L 97.886719 377.011719 L 97.886719 357.011719 L 87.886719 357.011719 L 87.886719 377.011719 "/>
<path style="fill-rule:nonzero;fill:rgb(100%,100%,0%);fill-opacity:1;stroke-width:1;stroke-linecap:butt;stroke-linejoin:round;stroke:rgb(0%,0%,0%);stroke-opacity:1;stroke-miterlimit:10;" d="M 62.074219 456.027344 L 42.074219 456.027344 L 42.074219 466.027344 L 62.074219 466.027344 L 62.074219 486.027344 L 72.074219 486.027344 L 72.074219 466.027344 L 92.074219 466.027344 L 92.074219 456.027344 L 72.074219 456.027344 L 72.074219 436.027344 L 62.074219 436.027344 L 62.074219 456.027344 "/>
<path style="fill-rule:nonzero;fill:rgb(100%,100%,0%);fill-opacity:1;stroke-width:1;stroke-linecap:butt;stroke-linejoin:round;stroke:rgb(0%,0%,0%);stroke-opacity:1;stroke-miterlimit:10;" d="M 174.527344 345.242188 L 154.527344 345.242188 L 154.527344 355.242188 L 174.527344 355.242188 L 174.527344 375.242188 L 184.527344 375.242188 L 184.527344 355.242188 L 204.527344 355.242188 L 204.527344 345.242188 L 184.527344 345.242188 L 184.527344 325.242188 L 174.527344 325.242188 L 174.527344 345.242188 "/>
</g>
</svg>
