<?xml version="1.0" encoding="UTF-8"?>
<svg xmlns="http://www.w3.org/2000/svg" xmlns:xlink="http://www.w3.org/1999/xlink" width="517pt" height="517pt" viewBox="0 0 517 517" version="1.1">
<g id="surface291">
<rect x="0" y="0" width="517" height="517" style="fill:rgb(90%,90%,90%);fill-opacity:1;stroke:none;"/>
<path style="fill:none;stroke-width:5;stroke-linecap:butt;stroke-linejoin:round;stroke:rgb(100%,0%,0%);stroke-opacity:1;stroke-miterlimit:10;" d="M 5 5 L 261 5 L 261 261 L 5 261 Z M 5 5 "/>
<path style="fill-rule:nonzero;fill:rgb(67%,100%,18%);fill-opacity:1;stroke-width:1;stroke-linecap:butt;stroke-linejoin:round;stroke:rgb(0%,0%,0%);stroke-opacity:1;stroke-miterlimit:10;" d="M 69.371094 127.980469 C 69.371094 113.578125 45.371094 113.578125 45.371094 127.980469 C 45.371094 142.378906 69.371094 144.777344 69.371094 156.777344 C 69.371094 144.777344 93.371094 142.378906 93.371094 127.980469 C 93.371094 113.578125 69.371094 113.578125 69.371094 127.980469 "/>
<path style="fill-rule:nonzero;fill:rgb(50%,0%,50%);fill-opacity:1;stroke-width:1;stroke-linecap:butt;stroke-linejoin:round;stroke:rgb(0%,0%,0%);stroke-opacity:1;stroke-miterlimit:10;" d="M 129.851562 410.121094 C 129.851562 395.722656 105.851562 395.722656 105.851562 410.121094 C 105.851562 424.523438 129.851562 426.921875 129.851562 438.921875 C 129.851562 426.921875 153.851562 424.523438 153.851562 410.121094 C 153.851562 395.722656 129.851562 395.722656 129.851562 410.121094 "/>
<path style="fill-rule:nonzero;fill:rgb(67%,100%,18%);fill-opacity:1;stroke-width:1;stroke-linecap:butt;stroke-linejoin:round;stroke:rgb(0%,0%,0%);stroke-opacity:1;stroke-miterlimit:10;" d="M 70.371094 327.257812 C 70.371094 312.859375 46.371094 312.859375 46.371094 327.257812 C 46.371094 341.660156 70.371094 344.058594 70.371094 356.058594 C 70.371094 344.058594 94.371094 341.660156 94.371094 327.257812 C 94.371094 312.859375 70.371094 312.859375 70.371094 327.257812 "/>
<path style="fill-rule:nonzero;fill:rgb(67%,100%,18%);fill-opacity:1;stroke-width:1;stroke-linecap:butt;stroke-linejoin:round;stroke:rgb(0%,0%,0%);stroke-opacity:1;stroke-miterlimit:10;" d="M 402.894531 167.691406 C 402.894531 153.292969 378.894531 153.292969 378.894531 167.691406 C 378.894531 182.09375 402.894531 184.492188 402.894531 196.492188 C 402.894531 184.492188 426.894531 182.09375 426.894531 167.691406 C 426.894531 153.292969 402.894531 153.292969 402.894531 167.691406 "/>
</g>
</svg>
