<?xml version="1.0" encoding="UTF-8"?>
<svg xmlns="http://www.w3.org/2000/svg" xmlns:xlink="http://www.w3.org/1999/xlink" width="517pt" height="517pt" viewBox="0 0 517 517" version="1.1">
<g id="surface3656">
<rect x="0" y="0" width="517" height="517" style="fill:rgb(90%,90%,90%);fill-opacity:1;stroke:none;"/>
<path style="fill:none;stroke-width:5;stroke-linecap:butt;stroke-linejoin:round;stroke:rgb(100%,0%,0%);stroke-opacity:1;stroke-miterlimit:10;" d="M 5 5 L 261 5 L 261 261 L 5 261 Z M 5 5 "/>
<path style="fill-rule:nonzero;fill:rgb(100%,100%,0%);fill-opacity:1;stroke-width:1;stroke-linecap:butt;stroke-linejoin:round;stroke:rgb(0%,0%,0%);stroke-opacity:1;stroke-miterlimit:10;" d="M 102.695312 187.867188 L 82.695312 187.867188 L 82.695312 197.867188 L 102.695312 197.867188 L 102.695312 217.867188 L 112.695312 217.867188 L 112.695312 197.867188 L 132.695312 197.867188 L 132.695312 187.867188 L 112.695312 187.867188 L 112.695312 167.867188 L 102.695312 167.867188 L 102.695312 187.867188 "/>
<path style="fill-rule:nonzero;fill:rgb(35%,70%,90%);fill-opacity:1;stroke-width:1;stroke-linecap:butt;stroke-linejoin:round;stroke:rgb(0%,0%,0%);stroke-opacity:1;stroke-miterlimit:10;" d="M 446.246094 433.445312 L 426.246094 433.445312 L 426.246094 443.445312 L 446.246094 443.445312 L 446.246094 463.445312 L 456.246094 463.445312 L 456.246094 443.445312 L 476.246094 443.445312 L 476.246094 433.445312 L 456.246094 433.445312 L 456.246094 413.445312 L 446.246094 413.445312 L 446.246094 433.445312 "/>
<path style="fill-rule:nonzero;fill:rgb(100%,100%,0%);fill-opacity:1;stroke-width:1;stroke-linecap:butt;stroke-linejoin:round;stroke:rgb(0%,0%,0%);stroke-opacity:1;stroke-miterlimit:10;" d="M 299.148438 345.203125 L 279.148438 345.203125 L 279.148438 355.203125 L 299.148438 355.203125 L 299.148438 375.203125 L 309.148438 375.203125 L 309.148438 355.203125 L 329.148438 355.203125 L 329.148438 345.203125 L 309.148438 345.203125 L 309.148438 325.203125 L 299.148438 325.203125 L 299.148438 345.203125 "/>
<path style="fill-rule:nonzero;fill:rgb(100%,100%,0%);fill-opacity:1;stroke-width:1;stroke-linecap:butt;stroke-linejoin:round;stroke:rgb(0%,0%,0%);stroke-opacity:1;stroke-miterlimit:10;" d="M 148.609375 337.382812 L 128.609375 337.382812 L 128.609375 347.382812 L 148.609375 347.382812 L 148.609375 367.382812 L 158.609375 367.382812 L 158.609375 347.382812 L 178.609375 347.382812 L 178.609375 337.382812 L 158.609375 337.382812 L 158.609375 317.382812 L 148.609375 317.382812 L 148.609375 337.382812 "/>
<path style="fill-rule:nonzero;fill:rgb(100%,100%,0%);fill-opacity:1;stroke-width:1;stroke-linecap:butt;stroke-linejoin:round;stroke:rgb(0%,0%,0%);stroke-opacity:1;stroke-miterlimit:10;" d="M 309.222656 213.035156 L 289.222656 213.035156 L 289.222656 223.035156 L 309.222656 223.035156 L 309.222656 243.035156 L 319.222656 243.035156 L 319.222656 223.035156 L 339.222656 223.035156 L 339.222656 213.035156 L 319.222656 213.035156 L 319.222656 193.035156 L 309.222656 193.035156 L 309.222656 213.035156 "/>
<path style="fill-rule:nonzero;fill:rgb(100%,100%,0%);fill-opacity:1;stroke-width:1;stroke-linecap:butt;stroke-linejoin:round;stroke:rgb(0%,0%,0%);stroke-opacity:1;stroke-miterlimit:10;" d="M 363.609375 158.890625 L 343.609375 158.890625 L 343.609375 168.890625 L 363.609375 168.890625 L 363.609375 188.890625 L 373.609375 188.890625 L 373.609375 168.890625 L 393.609375 168.890625 L 393.609375 158.890625 L 373.609375 158.890625 L 373.609375 138.890625 L 363.609375 138.890625 L 363.609375 158.890625 "/>
</g>
</svg>
