<?xml version="1.0" encoding="UTF-8"?>
<svg xmlns="http://www.w3.org/2000/svg" xmlns:xlink="http://www.w3.org/1999/xlink" width="517pt" height="517pt" viewBox="0 0 517 517" version="1.1">
<g id="surface3586">
<rect x="0" y="0" width="517" height="517" style="fill:rgb(90%,90%,90%);fill-opacity:1;stroke:none;"/>
<path style="fill:none;stroke-width:5;stroke-linecap:butt;stroke-linejoin:round;stroke:rgb(100%,0%,0%);stroke-opacity:1;stroke-miterlimit:10;" d="M 5 5 L 261 5 L 261 261 L 5 261 Z M 5 5 "/>
<path style="fill-rule:nonzero;fill:rgb(25%,88%,82%);fill-opacity:1;stroke-width:1;stroke-linecap:butt;stroke-linejoin:round;stroke:rgb(0%,0%,0%);stroke-opacity:1;stroke-miterlimit:10;" d="M 176.132812 71.046875 C 176.132812 87.613281 162.703125 101.046875 146.132812 101.046875 C 129.566406 101.046875 116.132812 87.613281 116.132812 71.046875 C 116.132812 54.476562 129.566406 41.046875 146.132812 41.046875 C 162.703125 41.046875 176.132812 54.476562 176.132812 71.046875 "/>
<path style="fill-rule:nonzero;fill:rgb(25%,88%,82%);fill-opacity:1;stroke-width:1;stroke-linecap:butt;stroke-linejoin:round;stroke:rgb(0%,0%,0%);stroke-opacity:1;stroke-miterlimit:10;" d="M 347.460938 447.109375 C 347.460938 463.675781 334.03125 477.109375 317.460938 477.109375 C 300.894531 477.109375 287.460938 463.675781 287.460938 447.109375 C 287.460938 430.539062 300.894531 417.109375 317.460938 417.109375 C 334.03125 417.109375 347.460938 430.539062 347.460938 447.109375 "/>
<path style="fill-rule:nonzero;fill:rgb(25%,88%,82%);fill-opacity:1;stroke-width:1;stroke-linecap:butt;stroke-linejoin:round;stroke:rgb(0%,0%,0%);stroke-opacity:1;stroke-miterlimit:10;" d="M 455.300781 406.65625 C 455.300781 423.222656 441.867188 436.65625 425.300781 436.65625 C 408.730469 436.65625 395.300781 423.222656 395.300781 406.65625 C 395.300781 390.085938 408.730469 376.65625 425.300781 376.65625 C 441.867188 376.65625 455.300781 390.085938 455.300781 406.65625 "/>
<path style="fill-rule:nonzero;fill:rgb(25%,88%,82%);fill-opacity:1;stroke-width:1;stroke-linecap:butt;stroke-linejoin:round;stroke:rgb(0%,0%,0%);stroke-opacity:1;stroke-miterlimit:10;" d="M 409.253906 133.378906 C 409.253906 149.949219 395.824219 163.378906 379.253906 163.378906 C 362.6875 163.378906 349.253906 149.949219 349.253906 133.378906 C 349.253906 116.8125 362.6875 103.378906 379.253906 103.378906 C 395.824219 103.378906 409.253906 116.8125 409.253906 133.378906 "/>
<path style="fill-rule:nonzero;fill:rgb(25%,88%,82%);fill-opacity:1;stroke-width:1;stroke-linecap:butt;stroke-linejoin:round;stroke:rgb(0%,0%,0%);stroke-opacity:1;stroke-miterlimit:10;" d="M 238.394531 448.410156 C 238.394531 464.976562 224.964844 478.410156 208.394531 478.410156 C 191.828125 478.410156 178.394531 464.976562 178.394531 448.410156 C 178.394531 431.839844 191.828125 418.410156 208.394531 418.410156 C 224.964844 418.410156 238.394531 431.839844 238.394531 448.410156 "/>
<path style="fill-rule:nonzero;fill:rgb(25%,88%,82%);fill-opacity:1;stroke-width:1;stroke-linecap:butt;stroke-linejoin:round;stroke:rgb(0%,0%,0%);stroke-opacity:1;stroke-miterlimit:10;" d="M 165.519531 431.160156 C 165.519531 447.730469 152.089844 461.160156 135.519531 461.160156 C 118.949219 461.160156 105.519531 447.730469 105.519531 431.160156 C 105.519531 414.59375 118.949219 401.160156 135.519531 401.160156 C 152.089844 401.160156 165.519531 414.59375 165.519531 431.160156 "/>
</g>
</svg>
