<?xml version="1.0" encoding="UTF-8"?>
<svg xmlns="http://www.w3.org/2000/svg" xmlns:xlink="http://www.w3.org/1999/xlink" width="517pt" height="517pt" viewBox="0 0 517 517" version="1.1">
<g id="surface3661">
<rect x="0" y="0" width="517" height="517" style="fill:rgb(90%,90%,90%);fill-opacity:1;stroke:none;"/>
<path style="fill:none;stroke-width:5;stroke-linecap:butt;stroke-linejoin:round;stroke:rgb(100%,0%,0%);stroke-opacity:1;stroke-miterlimit:10;" d="M 5 5 L 261 5 L 261 261 L 5 261 Z M 5 5 "/>
<path style="fill-rule:nonzero;fill:rgb(35%,70%,90%);fill-opacity:1;stroke-width:1;stroke-linecap:butt;stroke-linejoin:round;stroke:rgb(0%,0%,0%);stroke-opacity:1;stroke-miterlimit:10;" d="M 57.960938 58.394531 L 37.960938 58.394531 L 37.960938 68.394531 L 57.960938 68.394531 L 57.960938 88.394531 L 67.960938 88.394531 L 67.960938 68.394531 L 87.960938 68.394531 L 87.960938 58.394531 L 67.960938 58.394531 L 67.960938 38.394531 L 57.960938 38.394531 L 57.960938 58.394531 "/>
<path style="fill-rule:nonzero;fill:rgb(35%,70%,90%);fill-opacity:1;stroke-width:1;stroke-linecap:butt;stroke-linejoin:round;stroke:rgb(0%,0%,0%);stroke-opacity:1;stroke-miterlimit:10;" d="M 442.675781 293.078125 L 422.675781 293.078125 L 422.675781 303.078125 L 442.675781 303.078125 L 442.675781 323.078125 L 452.675781 323.078125 L 452.675781 303.078125 L 472.675781 303.078125 L 472.675781 293.078125 L 452.675781 293.078125 L 452.675781 273.078125 L 442.675781 273.078125 L 442.675781 293.078125 "/>
<path style="fill-rule:nonzero;fill:rgb(35%,70%,90%);fill-opacity:1;stroke-width:1;stroke-linecap:butt;stroke-linejoin:round;stroke:rgb(0%,0%,0%);stroke-opacity:1;stroke-miterlimit:10;" d="M 319.9375 138.050781 L 299.9375 138.050781 L 299.9375 148.050781 L 319.9375 148.050781 L 319.9375 168.050781 L 329.9375 168.050781 L 329.9375 148.050781 L 349.9375 148.050781 L 349.9375 138.050781 L 329.9375 138.050781 L 329.9375 118.050781 L 319.9375 118.050781 L 319.9375 138.050781 "/>
<path style="fill-rule:nonzero;fill:rgb(35%,70%,90%);fill-opacity:1;stroke-width:1;stroke-linecap:butt;stroke-linejoin:round;stroke:rgb(0%,0%,0%);stroke-opacity:1;stroke-miterlimit:10;" d="M 461.316406 173.253906 L 441.316406 173.253906 L 441.316406 183.253906 L 461.316406 183.253906 L 461.316406 203.253906 L 471.316406 203.253906 L 471.316406 183.253906 L 491.316406 183.253906 L 491.316406 173.253906 L 471.316406 173.253906 L 471.316406 153.253906 L 461.316406 153.253906 L 461.316406 173.253906 "/>
<path style="fill-rule:nonzero;fill:rgb(35%,70%,90%);fill-opacity:1;stroke-width:1;stroke-linecap:butt;stroke-linejoin:round;stroke:rgb(0%,0%,0%);stroke-opacity:1;stroke-miterlimit:10;" d="M 433.191406 73.265625 L 413.191406 73.265625 L 413.191406 83.265625 L 433.191406 83.265625 L 433.191406 103.265625 L 443.191406 103.265625 L 443.191406 83.265625 L 463.191406 83.265625 L 463.191406 73.265625 L 443.191406 73.265625 L 443.191406 53.265625 L 433.191406 53.265625 L 433.191406 73.265625 "/>
<path style="fill-rule:nonzero;fill:rgb(100%,100%,0%);fill-opacity:1;stroke-width:1;stroke-linecap:butt;stroke-linejoin:round;stroke:rgb(0%,0%,0%);stroke-opacity:1;stroke-miterlimit:10;" d="M 198.390625 379.414062 L 178.390625 379.414062 L 178.390625 389.414062 L 198.390625 389.414062 L 198.390625 409.414062 L 208.390625 409.414062 L 208.390625 389.414062 L 228.390625 389.414062 L 228.390625 379.414062 L 208.390625 379.414062 L 208.390625 359.414062 L 198.390625 359.414062 L 198.390625 379.414062 "/>
</g>
</svg>
