<?xml version="1.0" encoding="UTF-8"?>
<svg xmlns="http://www.w3.org/2000/svg" xmlns:xlink="http://www.w3.org/1999/xlink" width="517pt" height="517pt" viewBox="0 0 517 517" version="1.1">
<g id="surface251">
<rect x="0" y="0" width="517" height="517" style="fill:rgb(90%,90%,90%);fill-opacity:1;stroke:none;"/>
<path style="fill:none;stroke-width:5;stroke-linecap:butt;stroke-linejoin:round;stroke:rgb(100%,0%,0%);stroke-opacity:1;stroke-miterlimit:10;" d="M 5 5 L 261 5 L 261 261 L 5 261 Z M 5 5 "/>
<path style="fill-rule:nonzero;fill:rgb(67%,100%,18%);fill-opacity:1;stroke-width:1;stroke-linecap:butt;stroke-linejoin:round;stroke:rgb(0%,0%,0%);stroke-opacity:1;stroke-miterlimit:10;" d="M 116.964844 42.074219 C 116.964844 27.675781 92.964844 27.675781 92.964844 42.074219 C 92.964844 56.476562 116.964844 58.875 116.964844 70.875 C 116.964844 58.875 140.964844 56.476562 140.964844 42.074219 C 140.964844 27.675781 116.964844 27.675781 116.964844 42.074219 "/>
<path style="fill-rule:nonzero;fill:rgb(50%,0%,50%);fill-opacity:1;stroke-width:1;stroke-linecap:butt;stroke-linejoin:round;stroke:rgb(0%,0%,0%);stroke-opacity:1;stroke-miterlimit:10;" d="M 373.410156 297.324219 C 373.410156 282.925781 349.410156 282.925781 349.410156 297.324219 C 349.410156 311.726562 373.410156 314.125 373.410156 326.125 C 373.410156 314.125 397.410156 311.726562 397.410156 297.324219 C 397.410156 282.925781 373.410156 282.925781 373.410156 297.324219 "/>
<path style="fill-rule:nonzero;fill:rgb(50%,0%,50%);fill-opacity:1;stroke-width:1;stroke-linecap:butt;stroke-linejoin:round;stroke:rgb(0%,0%,0%);stroke-opacity:1;stroke-miterlimit:10;" d="M 299.929688 151.808594 C 299.929688 137.410156 275.929688 137.410156 275.929688 151.808594 C 275.929688 166.207031 299.929688 168.609375 299.929688 180.609375 C 299.929688 168.609375 323.929688 166.207031 323.929688 151.808594 C 323.929688 137.410156 299.929688 137.410156 299.929688 151.808594 "/>
<path style="fill-rule:nonzero;fill:rgb(50%,0%,50%);fill-opacity:1;stroke-width:1;stroke-linecap:butt;stroke-linejoin:round;stroke:rgb(0%,0%,0%);stroke-opacity:1;stroke-miterlimit:10;" d="M 390.433594 134.984375 C 390.433594 120.585938 366.433594 120.585938 366.433594 134.984375 C 366.433594 149.386719 390.433594 151.785156 390.433594 163.785156 C 390.433594 151.785156 414.433594 149.386719 414.433594 134.984375 C 414.433594 120.585938 390.433594 120.585938 390.433594 134.984375 "/>
</g>
</svg>
