<?xml version="1.0" encoding="UTF-8"?>
<svg xmlns="http://www.w3.org/2000/svg" xmlns:xlink="http://www.w3.org/1999/xlink" width="517pt" height="517pt" viewBox="0 0 517 517" version="1.1">
<g id="surface8426">
<rect x="0" y="0" width="517" height="517" style="fill:rgb(90%,90%,90%);fill-opacity:1;stroke:none;"/>
<path style="fill:none;stroke-width:5;stroke-linecap:butt;stroke-linejoin:round;stroke:rgb(100%,0%,0%);stroke-opacity:1;stroke-miterlimit:10;" d="M 5 261 L 261 261 L 261 517 L 5 517 Z M 5 261 "/>
<path style="fill-rule:nonzero;fill:rgb(100%,100%,0%);fill-opacity:1;stroke-width:1;stroke-linecap:butt;stroke-linejoin:round;stroke:rgb(0%,0%,0%);stroke-opacity:1;stroke-miterlimit:10;" d="M 142.417969 400.824219 C 142.417969 417.394531 128.984375 430.824219 112.417969 430.824219 C 95.847656 430.824219 82.417969 417.394531 82.417969 400.824219 C 82.417969 384.253906 95.847656 370.824219 112.417969 370.824219 C 128.984375 370.824219 142.417969 384.253906 142.417969 400.824219 "/>
<path style="fill-rule:nonzero;fill:rgb(35%,70%,90%);fill-opacity:1;stroke-width:1;stroke-linecap:butt;stroke-linejoin:round;stroke:rgb(0%,0%,0%);stroke-opacity:1;stroke-miterlimit:10;" d="M 225.609375 205.121094 C 225.609375 221.6875 212.175781 235.121094 195.609375 235.121094 C 179.039062 235.121094 165.609375 221.6875 165.609375 205.121094 C 165.609375 188.550781 179.039062 175.121094 195.609375 175.121094 C 212.175781 175.121094 225.609375 188.550781 225.609375 205.121094 "/>
<path style="fill-rule:nonzero;fill:rgb(35%,70%,90%);fill-opacity:1;stroke-width:1;stroke-linecap:butt;stroke-linejoin:round;stroke:rgb(0%,0%,0%);stroke-opacity:1;stroke-miterlimit:10;" d="M 232.332031 120.667969 C 232.332031 137.234375 218.898438 150.667969 202.332031 150.667969 C 185.761719 150.667969 172.332031 137.234375 172.332031 120.667969 C 172.332031 104.097656 185.761719 90.667969 202.332031 90.667969 C 218.898438 90.667969 232.332031 104.097656 232.332031 120.667969 "/>
<path style="fill-rule:nonzero;fill:rgb(35%,70%,90%);fill-opacity:1;stroke-width:1;stroke-linecap:butt;stroke-linejoin:round;stroke:rgb(0%,0%,0%);stroke-opacity:1;stroke-miterlimit:10;" d="M 339.027344 202.957031 C 339.027344 219.527344 325.59375 232.957031 309.027344 232.957031 C 292.457031 232.957031 279.027344 219.527344 279.027344 202.957031 C 279.027344 186.390625 292.457031 172.957031 309.027344 172.957031 C 325.59375 172.957031 339.027344 186.390625 339.027344 202.957031 "/>
<path style="fill-rule:nonzero;fill:rgb(35%,70%,90%);fill-opacity:1;stroke-width:1;stroke-linecap:butt;stroke-linejoin:round;stroke:rgb(0%,0%,0%);stroke-opacity:1;stroke-miterlimit:10;" d="M 437.199219 199.59375 C 437.199219 216.164062 423.765625 229.59375 407.199219 229.59375 C 390.628906 229.59375 377.199219 216.164062 377.199219 199.59375 C 377.199219 183.027344 390.628906 169.59375 407.199219 169.59375 C 423.765625 169.59375 437.199219 183.027344 437.199219 199.59375 "/>
<path style="fill-rule:nonzero;fill:rgb(35%,70%,90%);fill-opacity:1;stroke-width:1;stroke-linecap:butt;stroke-linejoin:round;stroke:rgb(0%,0%,0%);stroke-opacity:1;stroke-miterlimit:10;" d="M 326 371.292969 C 326 387.863281 312.570312 401.292969 296 401.292969 C 279.433594 401.292969 266 387.863281 266 371.292969 C 266 354.726562 279.433594 341.292969 296 341.292969 C 312.570312 341.292969 326 354.726562 326 371.292969 "/>
</g>
</svg>
