<?xml version="1.0" encoding="UTF-8"?>
<svg xmlns="http://www.w3.org/2000/svg" xmlns:xlink="http://www.w3.org/1999/xlink" width="517pt" height="517pt" viewBox="0 0 517 517" version="1.1">
<g id="surface8586">
<rect x="0" y="0" width="517" height="517" style="fill:rgb(90%,90%,90%);fill-opacity:1;stroke:none;"/>
<path style="fill:none;stroke-width:5;stroke-linecap:butt;stroke-linejoin:round;stroke:rgb(100%,0%,0%);stroke-opacity:1;stroke-miterlimit:10;" d="M 261 261 L 517 261 L 517 517 L 261 517 Z M 261 261 "/>
<path style="fill-rule:nonzero;fill:rgb(90%,65%,0%);fill-opacity:1;stroke-width:1;stroke-linecap:butt;stroke-linejoin:round;stroke:rgb(0%,0%,0%);stroke-opacity:1;stroke-miterlimit:10;" d="M 372.101562 364.980469 C 372.101562 381.546875 358.667969 394.980469 342.101562 394.980469 C 325.53125 394.980469 312.101562 381.546875 312.101562 364.980469 C 312.101562 348.410156 325.53125 334.980469 342.101562 334.980469 C 358.667969 334.980469 372.101562 348.410156 372.101562 364.980469 "/>
<path style="fill-rule:nonzero;fill:rgb(100%,100%,0%);fill-opacity:1;stroke-width:1;stroke-linecap:butt;stroke-linejoin:round;stroke:rgb(0%,0%,0%);stroke-opacity:1;stroke-miterlimit:10;" d="M 68.574219 130.796875 C 68.574219 147.367188 55.144531 160.796875 38.574219 160.796875 C 22.007812 160.796875 8.574219 147.367188 8.574219 130.796875 C 8.574219 114.226562 22.007812 100.796875 38.574219 100.796875 C 55.144531 100.796875 68.574219 114.226562 68.574219 130.796875 "/>
<path style="fill-rule:nonzero;fill:rgb(100%,100%,0%);fill-opacity:1;stroke-width:1;stroke-linecap:butt;stroke-linejoin:round;stroke:rgb(0%,0%,0%);stroke-opacity:1;stroke-miterlimit:10;" d="M 247.117188 198.375 C 247.117188 214.945312 233.6875 228.375 217.117188 228.375 C 200.550781 228.375 187.117188 214.945312 187.117188 198.375 C 187.117188 181.808594 200.550781 168.375 217.117188 168.375 C 233.6875 168.375 247.117188 181.808594 247.117188 198.375 "/>
<path style="fill-rule:nonzero;fill:rgb(100%,100%,0%);fill-opacity:1;stroke-width:1;stroke-linecap:butt;stroke-linejoin:round;stroke:rgb(0%,0%,0%);stroke-opacity:1;stroke-miterlimit:10;" d="M 131.84375 462.195312 C 131.84375 478.761719 118.414062 492.195312 101.84375 492.195312 C 85.277344 492.195312 71.84375 478.761719 71.84375 462.195312 C 71.84375 445.625 85.277344 432.195312 101.84375 432.195312 C 118.414062 432.195312 131.84375 445.625 131.84375 462.195312 "/>
<path style="fill-rule:nonzero;fill:rgb(100%,100%,0%);fill-opacity:1;stroke-width:1;stroke-linecap:butt;stroke-linejoin:round;stroke:rgb(0%,0%,0%);stroke-opacity:1;stroke-miterlimit:10;" d="M 181.6875 336.132812 C 181.6875 352.699219 168.257812 366.132812 151.6875 366.132812 C 135.121094 366.132812 121.6875 352.699219 121.6875 336.132812 C 121.6875 319.5625 135.121094 306.132812 151.6875 306.132812 C 168.257812 306.132812 181.6875 319.5625 181.6875 336.132812 "/>
<path style="fill-rule:nonzero;fill:rgb(100%,100%,0%);fill-opacity:1;stroke-width:1;stroke-linecap:butt;stroke-linejoin:round;stroke:rgb(0%,0%,0%);stroke-opacity:1;stroke-miterlimit:10;" d="M 385.84375 104.988281 C 385.84375 121.558594 372.414062 134.988281 355.84375 134.988281 C 339.277344 134.988281 325.84375 121.558594 325.84375 104.988281 C 325.84375 88.421875 339.277344 74.988281 355.84375 74.988281 C 372.414062 74.988281 385.84375 88.421875 385.84375 104.988281 "/>
</g>
</svg>
