<?xml version="1.0" encoding="UTF-8"?>
<svg xmlns="http://www.w3.org/2000/svg" xmlns:xlink="http://www.w3.org/1999/xlink" width="517pt" height="517pt" viewBox="0 0 517 517" version="1.1">
<g id="surface8766">
<rect x="0" y="0" width="517" height="517" style="fill:rgb(90%,90%,90%);fill-opacity:1;stroke:none;"/>
<path style="fill:none;stroke-width:5;stroke-linecap:butt;stroke-linejoin:round;stroke:rgb(100%,0%,0%);stroke-opacity:1;stroke-miterlimit:10;" d="M 5 261 L 261 261 L 261 517 L 5 517 Z M 5 261 "/>
<path style="fill-rule:nonzero;fill:rgb(67%,100%,18%);fill-opacity:1;stroke-width:1;stroke-linecap:butt;stroke-linejoin:round;stroke:rgb(0%,0%,0%);stroke-opacity:1;stroke-miterlimit:10;" d="M 115.679688 355.207031 C 115.679688 371.777344 102.25 385.207031 85.679688 385.207031 C 69.113281 385.207031 55.679688 371.777344 55.679688 355.207031 C 55.679688 338.636719 69.113281 325.207031 85.679688 325.207031 C 102.25 325.207031 115.679688 338.636719 115.679688 355.207031 "/>
<path style="fill-rule:nonzero;fill:rgb(90%,65%,0%);fill-opacity:1;stroke-width:1;stroke-linecap:butt;stroke-linejoin:round;stroke:rgb(0%,0%,0%);stroke-opacity:1;stroke-miterlimit:10;" d="M 114.992188 41.011719 C 114.992188 57.578125 101.5625 71.011719 84.992188 71.011719 C 68.425781 71.011719 54.992188 57.578125 54.992188 41.011719 C 54.992188 24.441406 68.425781 11.011719 84.992188 11.011719 C 101.5625 11.011719 114.992188 24.441406 114.992188 41.011719 "/>
<path style="fill-rule:nonzero;fill:rgb(90%,65%,0%);fill-opacity:1;stroke-width:1;stroke-linecap:butt;stroke-linejoin:round;stroke:rgb(0%,0%,0%);stroke-opacity:1;stroke-miterlimit:10;" d="M 409.261719 106.574219 C 409.261719 123.140625 395.832031 136.574219 379.261719 136.574219 C 362.695312 136.574219 349.261719 123.140625 349.261719 106.574219 C 349.261719 90.003906 362.695312 76.574219 379.261719 76.574219 C 395.832031 76.574219 409.261719 90.003906 409.261719 106.574219 "/>
<path style="fill-rule:nonzero;fill:rgb(90%,65%,0%);fill-opacity:1;stroke-width:1;stroke-linecap:butt;stroke-linejoin:round;stroke:rgb(0%,0%,0%);stroke-opacity:1;stroke-miterlimit:10;" d="M 488.601562 105.898438 C 488.601562 122.46875 475.167969 135.898438 458.601562 135.898438 C 442.03125 135.898438 428.601562 122.46875 428.601562 105.898438 C 428.601562 89.332031 442.03125 75.898438 458.601562 75.898438 C 475.167969 75.898438 488.601562 89.332031 488.601562 105.898438 "/>
<path style="fill-rule:nonzero;fill:rgb(90%,65%,0%);fill-opacity:1;stroke-width:1;stroke-linecap:butt;stroke-linejoin:round;stroke:rgb(0%,0%,0%);stroke-opacity:1;stroke-miterlimit:10;" d="M 346.164062 184.59375 C 346.164062 201.164062 332.734375 214.59375 316.164062 214.59375 C 299.597656 214.59375 286.164062 201.164062 286.164062 184.59375 C 286.164062 168.027344 299.597656 154.59375 316.164062 154.59375 C 332.734375 154.59375 346.164062 168.027344 346.164062 184.59375 "/>
</g>
</svg>
