<?xml version="1.0" encoding="UTF-8"?>
<svg xmlns="http://www.w3.org/2000/svg" xmlns:xlink="http://www.w3.org/1999/xlink" width="517pt" height="517pt" viewBox="0 0 517 517" version="1.1">
<g id="surface3321">
<rect x="0" y="0" width="517" height="517" style="fill:rgb(90%,90%,90%);fill-opacity:1;stroke:none;"/>
<path style="fill:none;stroke-width:5;stroke-linecap:butt;stroke-linejoin:round;stroke:rgb(100%,0%,0%);stroke-opacity:1;stroke-miterlimit:10;" d="M 261 261 L 517 261 L 517 517 L 261 517 Z M 261 261 "/>
<path style="fill-rule:nonzero;fill:rgb(90%,65%,0%);fill-opacity:1;stroke-width:1;stroke-linecap:butt;stroke-linejoin:round;stroke:rgb(0%,0%,0%);stroke-opacity:1;stroke-miterlimit:10;" d="M 318.992188 355.695312 L 298.992188 355.695312 L 298.992188 365.695312 L 318.992188 365.695312 L 318.992188 385.695312 L 328.992188 385.695312 L 328.992188 365.695312 L 348.992188 365.695312 L 348.992188 355.695312 L 328.992188 355.695312 L 328.992188 335.695312 L 318.992188 335.695312 L 318.992188 355.695312 "/>
<path style="fill-rule:nonzero;fill:rgb(35%,70%,90%);fill-opacity:1;stroke-width:1;stroke-linecap:butt;stroke-linejoin:round;stroke:rgb(0%,0%,0%);stroke-opacity:1;stroke-miterlimit:10;" d="M 180.328125 110.710938 L 160.328125 110.710938 L 160.328125 120.710938 L 180.328125 120.710938 L 180.328125 140.710938 L 190.328125 140.710938 L 190.328125 120.710938 L 210.328125 120.710938 L 210.328125 110.710938 L 190.328125 110.710938 L 190.328125 90.710938 L 180.328125 90.710938 L 180.328125 110.710938 "/>
<path style="fill-rule:nonzero;fill:rgb(90%,65%,0%);fill-opacity:1;stroke-width:1;stroke-linecap:butt;stroke-linejoin:round;stroke:rgb(0%,0%,0%);stroke-opacity:1;stroke-miterlimit:10;" d="M 139.6875 35.960938 L 119.6875 35.960938 L 119.6875 45.960938 L 139.6875 45.960938 L 139.6875 65.960938 L 149.6875 65.960938 L 149.6875 45.960938 L 169.6875 45.960938 L 169.6875 35.960938 L 149.6875 35.960938 L 149.6875 15.960938 L 139.6875 15.960938 L 139.6875 35.960938 "/>
<path style="fill-rule:nonzero;fill:rgb(90%,65%,0%);fill-opacity:1;stroke-width:1;stroke-linecap:butt;stroke-linejoin:round;stroke:rgb(0%,0%,0%);stroke-opacity:1;stroke-miterlimit:10;" d="M 299.539062 111.984375 L 279.539062 111.984375 L 279.539062 121.984375 L 299.539062 121.984375 L 299.539062 141.984375 L 309.539062 141.984375 L 309.539062 121.984375 L 329.539062 121.984375 L 329.539062 111.984375 L 309.539062 111.984375 L 309.539062 91.984375 L 299.539062 91.984375 L 299.539062 111.984375 "/>
<path style="fill-rule:nonzero;fill:rgb(90%,65%,0%);fill-opacity:1;stroke-width:1;stroke-linecap:butt;stroke-linejoin:round;stroke:rgb(0%,0%,0%);stroke-opacity:1;stroke-miterlimit:10;" d="M 361.496094 130.039062 L 341.496094 130.039062 L 341.496094 140.039062 L 361.496094 140.039062 L 361.496094 160.039062 L 371.496094 160.039062 L 371.496094 140.039062 L 391.496094 140.039062 L 391.496094 130.039062 L 371.496094 130.039062 L 371.496094 110.039062 L 361.496094 110.039062 L 361.496094 130.039062 "/>
</g>
</svg>
