<?xml version="1.0" encoding="UTF-8"?>
<svg xmlns="http://www.w3.org/2000/svg" xmlns:xlink="http://www.w3.org/1999/xlink" width="517pt" height="517pt" viewBox="0 0 517 517" version="1.1">
<g id="surface3576">
<rect x="0" y="0" width="517" height="517" style="fill:rgb(90%,90%,90%);fill-opacity:1;stroke:none;"/>
<path style="fill:none;stroke-width:5;stroke-linecap:butt;stroke-linejoin:round;stroke:rgb(100%,0%,0%);stroke-opacity:1;stroke-miterlimit:10;" d="M 5 5 L 261 5 L 261 261 L 5 261 Z M 5 5 "/>
<path style="fill-rule:nonzero;fill:rgb(100%,0%,0%);fill-opacity:1;stroke-width:1;stroke-linecap:butt;stroke-linejoin:round;stroke:rgb(0%,0%,0%);stroke-opacity:1;stroke-miterlimit:10;" d="M 84.855469 62.632812 C 84.855469 79.199219 71.425781 92.632812 54.855469 92.632812 C 38.289062 92.632812 24.855469 79.199219 24.855469 62.632812 C 24.855469 46.0625 38.289062 32.632812 54.855469 32.632812 C 71.425781 32.632812 84.855469 46.0625 84.855469 62.632812 "/>
<path style="fill-rule:nonzero;fill:rgb(25%,88%,82%);fill-opacity:1;stroke-width:1;stroke-linecap:butt;stroke-linejoin:round;stroke:rgb(0%,0%,0%);stroke-opacity:1;stroke-miterlimit:10;" d="M 355.46875 463.253906 C 355.46875 479.824219 342.039062 493.253906 325.46875 493.253906 C 308.902344 493.253906 295.46875 479.824219 295.46875 463.253906 C 295.46875 446.6875 308.902344 433.253906 325.46875 433.253906 C 342.039062 433.253906 355.46875 446.6875 355.46875 463.253906 "/>
<path style="fill-rule:nonzero;fill:rgb(100%,0%,0%);fill-opacity:1;stroke-width:1;stroke-linecap:butt;stroke-linejoin:round;stroke:rgb(0%,0%,0%);stroke-opacity:1;stroke-miterlimit:10;" d="M 488.484375 53.710938 C 488.484375 70.277344 475.054688 83.710938 458.484375 83.710938 C 441.917969 83.710938 428.484375 70.277344 428.484375 53.710938 C 428.484375 37.140625 441.917969 23.710938 458.484375 23.710938 C 475.054688 23.710938 488.484375 37.140625 488.484375 53.710938 "/>
<path style="fill-rule:nonzero;fill:rgb(100%,0%,0%);fill-opacity:1;stroke-width:1;stroke-linecap:butt;stroke-linejoin:round;stroke:rgb(0%,0%,0%);stroke-opacity:1;stroke-miterlimit:10;" d="M 442.007812 153.609375 C 442.007812 170.179688 428.574219 183.609375 412.007812 183.609375 C 395.4375 183.609375 382.007812 170.179688 382.007812 153.609375 C 382.007812 137.039062 395.4375 123.609375 412.007812 123.609375 C 428.574219 123.609375 442.007812 137.039062 442.007812 153.609375 "/>
<path style="fill-rule:nonzero;fill:rgb(100%,0%,0%);fill-opacity:1;stroke-width:1;stroke-linecap:butt;stroke-linejoin:round;stroke:rgb(0%,0%,0%);stroke-opacity:1;stroke-miterlimit:10;" d="M 334.136719 90.609375 C 334.136719 107.179688 320.707031 120.609375 304.136719 120.609375 C 287.570312 120.609375 274.136719 107.179688 274.136719 90.609375 C 274.136719 74.039062 287.570312 60.609375 304.136719 60.609375 C 320.707031 60.609375 334.136719 74.039062 334.136719 90.609375 "/>
<path style="fill-rule:nonzero;fill:rgb(100%,0%,0%);fill-opacity:1;stroke-width:1;stroke-linecap:butt;stroke-linejoin:round;stroke:rgb(0%,0%,0%);stroke-opacity:1;stroke-miterlimit:10;" d="M 481.886719 210.351562 C 481.886719 226.917969 468.453125 240.351562 451.886719 240.351562 C 435.316406 240.351562 421.886719 226.917969 421.886719 210.351562 C 421.886719 193.78125 435.316406 180.351562 451.886719 180.351562 C 468.453125 180.351562 481.886719 193.78125 481.886719 210.351562 "/>
</g>
</svg>
