<?xml version="1.0" encoding="UTF-8"?>
<svg xmlns="http://www.w3.org/2000/svg" xmlns:xlink="http://www.w3.org/1999/xlink" width="517pt" height="517pt" viewBox="0 0 517 517" version="1.1">
<g id="surface8896">
<rect x="0" y="0" width="517" height="517" style="fill:rgb(90%,90%,90%);fill-opacity:1;stroke:none;"/>
<path style="fill:none;stroke-width:5;stroke-linecap:butt;stroke-linejoin:round;stroke:rgb(100%,0%,0%);stroke-opacity:1;stroke-miterlimit:10;" d="M 261 261 L 517 261 L 517 517 L 261 517 Z M 261 261 "/>
<path style="fill-rule:nonzero;fill:rgb(67%,100%,18%);fill-opacity:1;stroke-width:1;stroke-linecap:butt;stroke-linejoin:round;stroke:rgb(0%,0%,0%);stroke-opacity:1;stroke-miterlimit:10;" d="M 385.074219 458.28125 C 385.074219 474.847656 371.640625 488.28125 355.074219 488.28125 C 338.503906 488.28125 325.074219 474.847656 325.074219 458.28125 C 325.074219 441.710938 338.503906 428.28125 355.074219 428.28125 C 371.640625 428.28125 385.074219 441.710938 385.074219 458.28125 "/>
<path style="fill-rule:nonzero;fill:rgb(67%,100%,18%);fill-opacity:1;stroke-width:1;stroke-linecap:butt;stroke-linejoin:round;stroke:rgb(0%,0%,0%);stroke-opacity:1;stroke-miterlimit:10;" d="M 354.355469 81.175781 C 354.355469 97.746094 340.925781 111.175781 324.355469 111.175781 C 307.789062 111.175781 294.355469 97.746094 294.355469 81.175781 C 294.355469 64.609375 307.789062 51.175781 324.355469 51.175781 C 340.925781 51.175781 354.355469 64.609375 354.355469 81.175781 "/>
<path style="fill-rule:nonzero;fill:rgb(67%,100%,18%);fill-opacity:1;stroke-width:1;stroke-linecap:butt;stroke-linejoin:round;stroke:rgb(0%,0%,0%);stroke-opacity:1;stroke-miterlimit:10;" d="M 210.949219 328.988281 C 210.949219 345.558594 197.515625 358.988281 180.949219 358.988281 C 164.378906 358.988281 150.949219 345.558594 150.949219 328.988281 C 150.949219 312.417969 164.378906 298.988281 180.949219 298.988281 C 197.515625 298.988281 210.949219 312.417969 210.949219 328.988281 "/>
<path style="fill-rule:nonzero;fill:rgb(67%,100%,18%);fill-opacity:1;stroke-width:1;stroke-linecap:butt;stroke-linejoin:round;stroke:rgb(0%,0%,0%);stroke-opacity:1;stroke-miterlimit:10;" d="M 140.015625 398.921875 C 140.015625 415.492188 126.585938 428.921875 110.015625 428.921875 C 93.449219 428.921875 80.015625 415.492188 80.015625 398.921875 C 80.015625 382.355469 93.449219 368.921875 110.015625 368.921875 C 126.585938 368.921875 140.015625 382.355469 140.015625 398.921875 "/>
<path style="fill-rule:nonzero;fill:rgb(67%,100%,18%);fill-opacity:1;stroke-width:1;stroke-linecap:butt;stroke-linejoin:round;stroke:rgb(0%,0%,0%);stroke-opacity:1;stroke-miterlimit:10;" d="M 96.40625 450.890625 C 96.40625 467.460938 82.972656 480.890625 66.40625 480.890625 C 49.835938 480.890625 36.40625 467.460938 36.40625 450.890625 C 36.40625 434.320312 49.835938 420.890625 66.40625 420.890625 C 82.972656 420.890625 96.40625 434.320312 96.40625 450.890625 "/>
<path style="fill-rule:nonzero;fill:rgb(67%,100%,18%);fill-opacity:1;stroke-width:1;stroke-linecap:butt;stroke-linejoin:round;stroke:rgb(0%,0%,0%);stroke-opacity:1;stroke-miterlimit:10;" d="M 228.773438 392.730469 C 228.773438 409.300781 215.339844 422.730469 198.773438 422.730469 C 182.203125 422.730469 168.773438 409.300781 168.773438 392.730469 C 168.773438 376.164062 182.203125 362.730469 198.773438 362.730469 C 215.339844 362.730469 228.773438 376.164062 228.773438 392.730469 "/>
</g>
</svg>
