<?xml version="1.0" encoding="UTF-8"?>
<svg xmlns="http://www.w3.org/2000/svg" xmlns:xlink="http://www.w3.org/1999/xlink" width="517pt" height="517pt" viewBox="0 0 517 517" version="1.1">
<g id="surface3611">
<rect x="0" y="0" width="517" height="517" style="fill:rgb(90%,90%,90%);fill-opacity:1;stroke:none;"/>
<path style="fill:none;stroke-width:5;stroke-linecap:butt;stroke-linejoin:round;stroke:rgb(100%,0%,0%);stroke-opacity:1;stroke-miterlimit:10;" d="M 5 5 L 261 5 L 261 261 L 5 261 Z M 5 5 "/>
<path style="fill-rule:nonzero;fill:rgb(100%,100%,0%);fill-opacity:1;stroke-width:1;stroke-linecap:butt;stroke-linejoin:round;stroke:rgb(0%,0%,0%);stroke-opacity:1;stroke-miterlimit:10;" d="M 155.433594 115.265625 L 135.433594 115.265625 L 135.433594 125.265625 L 155.433594 125.265625 L 155.433594 145.265625 L 165.433594 145.265625 L 165.433594 125.265625 L 185.433594 125.265625 L 185.433594 115.265625 L 165.433594 115.265625 L 165.433594 95.265625 L 155.433594 95.265625 L 155.433594 115.265625 "/>
<path style="fill-rule:nonzero;fill:rgb(35%,70%,90%);fill-opacity:1;stroke-width:1;stroke-linecap:butt;stroke-linejoin:round;stroke:rgb(0%,0%,0%);stroke-opacity:1;stroke-miterlimit:10;" d="M 95.851562 460.1875 L 75.851562 460.1875 L 75.851562 470.1875 L 95.851562 470.1875 L 95.851562 490.1875 L 105.851562 490.1875 L 105.851562 470.1875 L 125.851562 470.1875 L 125.851562 460.1875 L 105.851562 460.1875 L 105.851562 440.1875 L 95.851562 440.1875 L 95.851562 460.1875 "/>
<path style="fill-rule:nonzero;fill:rgb(35%,70%,90%);fill-opacity:1;stroke-width:1;stroke-linecap:butt;stroke-linejoin:round;stroke:rgb(0%,0%,0%);stroke-opacity:1;stroke-miterlimit:10;" d="M 422.628906 141.222656 L 402.628906 141.222656 L 402.628906 151.222656 L 422.628906 151.222656 L 422.628906 171.222656 L 432.628906 171.222656 L 432.628906 151.222656 L 452.628906 151.222656 L 452.628906 141.222656 L 432.628906 141.222656 L 432.628906 121.222656 L 422.628906 121.222656 L 422.628906 141.222656 "/>
<path style="fill-rule:nonzero;fill:rgb(35%,70%,90%);fill-opacity:1;stroke-width:1;stroke-linecap:butt;stroke-linejoin:round;stroke:rgb(0%,0%,0%);stroke-opacity:1;stroke-miterlimit:10;" d="M 307.269531 212.316406 L 287.269531 212.316406 L 287.269531 222.316406 L 307.269531 222.316406 L 307.269531 242.316406 L 317.269531 242.316406 L 317.269531 222.316406 L 337.269531 222.316406 L 337.269531 212.316406 L 317.269531 212.316406 L 317.269531 192.316406 L 307.269531 192.316406 L 307.269531 212.316406 "/>
<path style="fill-rule:nonzero;fill:rgb(35%,70%,90%);fill-opacity:1;stroke-width:1;stroke-linecap:butt;stroke-linejoin:round;stroke:rgb(0%,0%,0%);stroke-opacity:1;stroke-miterlimit:10;" d="M 329.007812 128.792969 L 309.007812 128.792969 L 309.007812 138.792969 L 329.007812 138.792969 L 329.007812 158.792969 L 339.007812 158.792969 L 339.007812 138.792969 L 359.007812 138.792969 L 359.007812 128.792969 L 339.007812 128.792969 L 339.007812 108.792969 L 329.007812 108.792969 L 329.007812 128.792969 "/>
<path style="fill-rule:nonzero;fill:rgb(35%,70%,90%);fill-opacity:1;stroke-width:1;stroke-linecap:butt;stroke-linejoin:round;stroke:rgb(0%,0%,0%);stroke-opacity:1;stroke-miterlimit:10;" d="M 380.96875 32.105469 L 360.96875 32.105469 L 360.96875 42.105469 L 380.96875 42.105469 L 380.96875 62.105469 L 390.96875 62.105469 L 390.96875 42.105469 L 410.96875 42.105469 L 410.96875 32.105469 L 390.96875 32.105469 L 390.96875 12.105469 L 380.96875 12.105469 L 380.96875 32.105469 "/>
</g>
</svg>
