<?xml version="1.0" encoding="UTF-8"?>
<svg xmlns="http://www.w3.org/2000/svg" xmlns:xlink="http://www.w3.org/1999/xlink" width="517pt" height="517pt" viewBox="0 0 517 517" version="1.1">
<g id="surface8726">
<rect x="0" y="0" width="517" height="517" style="fill:rgb(90%,90%,90%);fill-opacity:1;stroke:none;"/>
<path style="fill:none;stroke-width:5;stroke-linecap:butt;stroke-linejoin:round;stroke:rgb(100%,0%,0%);stroke-opacity:1;stroke-miterlimit:10;" d="M 5 261 L 261 261 L 261 517 L 5 517 Z M 5 261 "/>
<path style="fill-rule:nonzero;fill:rgb(90%,65%,0%);fill-opacity:1;stroke-width:1;stroke-linecap:butt;stroke-linejoin:round;stroke:rgb(0%,0%,0%);stroke-opacity:1;stroke-miterlimit:10;" d="M 241.097656 370.875 C 241.097656 387.441406 227.664062 400.875 211.097656 400.875 C 194.527344 400.875 181.097656 387.441406 181.097656 370.875 C 181.097656 354.304688 194.527344 340.875 211.097656 340.875 C 227.664062 340.875 241.097656 354.304688 241.097656 370.875 "/>
<path style="fill-rule:nonzero;fill:rgb(100%,0%,0%);fill-opacity:1;stroke-width:1;stroke-linecap:butt;stroke-linejoin:round;stroke:rgb(0%,0%,0%);stroke-opacity:1;stroke-miterlimit:10;" d="M 432.996094 337.96875 C 432.996094 354.539062 419.566406 367.96875 402.996094 367.96875 C 386.429688 367.96875 372.996094 354.539062 372.996094 337.96875 C 372.996094 321.402344 386.429688 307.96875 402.996094 307.96875 C 419.566406 307.96875 432.996094 321.402344 432.996094 337.96875 "/>
<path style="fill-rule:nonzero;fill:rgb(100%,0%,0%);fill-opacity:1;stroke-width:1;stroke-linecap:butt;stroke-linejoin:round;stroke:rgb(0%,0%,0%);stroke-opacity:1;stroke-miterlimit:10;" d="M 185.851562 211.800781 C 185.851562 228.371094 172.417969 241.800781 155.851562 241.800781 C 139.28125 241.800781 125.851562 228.371094 125.851562 211.800781 C 125.851562 195.234375 139.28125 181.800781 155.851562 181.800781 C 172.417969 181.800781 185.851562 195.234375 185.851562 211.800781 "/>
<path style="fill-rule:nonzero;fill:rgb(100%,0%,0%);fill-opacity:1;stroke-width:1;stroke-linecap:butt;stroke-linejoin:round;stroke:rgb(0%,0%,0%);stroke-opacity:1;stroke-miterlimit:10;" d="M 234.855469 145.300781 C 234.855469 161.871094 221.421875 175.300781 204.855469 175.300781 C 188.285156 175.300781 174.855469 161.871094 174.855469 145.300781 C 174.855469 128.730469 188.285156 115.300781 204.855469 115.300781 C 221.421875 115.300781 234.855469 128.730469 234.855469 145.300781 "/>
<path style="fill-rule:nonzero;fill:rgb(100%,0%,0%);fill-opacity:1;stroke-width:1;stroke-linecap:butt;stroke-linejoin:round;stroke:rgb(0%,0%,0%);stroke-opacity:1;stroke-miterlimit:10;" d="M 194.46875 88.171875 C 194.46875 104.738281 181.035156 118.171875 164.46875 118.171875 C 147.898438 118.171875 134.46875 104.738281 134.46875 88.171875 C 134.46875 71.601562 147.898438 58.171875 164.46875 58.171875 C 181.035156 58.171875 194.46875 71.601562 194.46875 88.171875 "/>
</g>
</svg>
