<?xml version="1.0" encoding="UTF-8"?>
<svg xmlns="http://www.w3.org/2000/svg" xmlns:xlink="http://www.w3.org/1999/xlink" width="517pt" height="517pt" viewBox="0 0 517 517" version="1.1">
<g id="surface3861">
<rect x="0" y="0" width="517" height="517" style="fill:rgb(90%,90%,90%);fill-opacity:1;stroke:none;"/>
<path style="fill:none;stroke-width:5;stroke-linecap:butt;stroke-linejoin:round;stroke:rgb(100%,0%,0%);stroke-opacity:1;stroke-miterlimit:10;" d="M 5 5 L 261 5 L 261 261 L 5 261 Z M 5 5 "/>
<path style="fill-rule:nonzero;fill:rgb(100%,7%,57%);fill-opacity:1;stroke-width:1;stroke-linecap:butt;stroke-linejoin:round;stroke:rgb(0%,0%,0%);stroke-opacity:1;stroke-miterlimit:10;" d="M 214.988281 158.800781 C 214.988281 175.371094 201.558594 188.800781 184.988281 188.800781 C 168.421875 188.800781 154.988281 175.371094 154.988281 158.800781 C 154.988281 142.234375 168.421875 128.800781 184.988281 128.800781 C 201.558594 128.800781 214.988281 142.234375 214.988281 158.800781 "/>
<path style="fill-rule:nonzero;fill:rgb(100%,100%,0%);fill-opacity:1;stroke-width:1;stroke-linecap:butt;stroke-linejoin:round;stroke:rgb(0%,0%,0%);stroke-opacity:1;stroke-miterlimit:10;" d="M 489.554688 36.613281 C 489.554688 53.183594 476.121094 66.613281 459.554688 66.613281 C 442.984375 66.613281 429.554688 53.183594 429.554688 36.613281 C 429.554688 20.046875 442.984375 6.613281 459.554688 6.613281 C 476.121094 6.613281 489.554688 20.046875 489.554688 36.613281 "/>
<path style="fill-rule:nonzero;fill:rgb(100%,100%,0%);fill-opacity:1;stroke-width:1;stroke-linecap:butt;stroke-linejoin:round;stroke:rgb(0%,0%,0%);stroke-opacity:1;stroke-miterlimit:10;" d="M 185.863281 405.832031 C 185.863281 422.398438 172.433594 435.832031 155.863281 435.832031 C 139.296875 435.832031 125.863281 422.398438 125.863281 405.832031 C 125.863281 389.261719 139.296875 375.832031 155.863281 375.832031 C 172.433594 375.832031 185.863281 389.261719 185.863281 405.832031 "/>
<path style="fill-rule:nonzero;fill:rgb(100%,100%,0%);fill-opacity:1;stroke-width:1;stroke-linecap:butt;stroke-linejoin:round;stroke:rgb(0%,0%,0%);stroke-opacity:1;stroke-miterlimit:10;" d="M 68.257812 462.429688 C 68.257812 479 54.824219 492.429688 38.257812 492.429688 C 21.6875 492.429688 8.257812 479 8.257812 462.429688 C 8.257812 445.863281 21.6875 432.429688 38.257812 432.429688 C 54.824219 432.429688 68.257812 445.863281 68.257812 462.429688 "/>
<path style="fill-rule:nonzero;fill:rgb(100%,100%,0%);fill-opacity:1;stroke-width:1;stroke-linecap:butt;stroke-linejoin:round;stroke:rgb(0%,0%,0%);stroke-opacity:1;stroke-miterlimit:10;" d="M 143.285156 473.3125 C 143.285156 489.878906 129.851562 503.3125 113.285156 503.3125 C 96.714844 503.3125 83.285156 489.878906 83.285156 473.3125 C 83.285156 456.742188 96.714844 443.3125 113.285156 443.3125 C 129.851562 443.3125 143.285156 456.742188 143.285156 473.3125 "/>
<path style="fill-rule:nonzero;fill:rgb(100%,7%,57%);fill-opacity:1;stroke-width:1;stroke-linecap:butt;stroke-linejoin:round;stroke:rgb(0%,0%,0%);stroke-opacity:1;stroke-miterlimit:10;" d="M 246.132812 404.960938 C 246.132812 421.527344 232.703125 434.960938 216.132812 434.960938 C 199.566406 434.960938 186.132812 421.527344 186.132812 404.960938 C 186.132812 388.390625 199.566406 374.960938 216.132812 374.960938 C 232.703125 374.960938 246.132812 388.390625 246.132812 404.960938 "/>
</g>
</svg>
