<?xml version="1.0" encoding="UTF-8"?>
<svg xmlns="http://www.w3.org/2000/svg" xmlns:xlink="http://www.w3.org/1999/xlink" width="517pt" height="517pt" viewBox="0 0 517 517" version="1.1">
<g id="surface8576">
<rect x="0" y="0" width="517" height="517" style="fill:rgb(90%,90%,90%);fill-opacity:1;stroke:none;"/>
<path style="fill:none;stroke-width:5;stroke-linecap:butt;stroke-linejoin:round;stroke:rgb(100%,0%,0%);stroke-opacity:1;stroke-miterlimit:10;" d="M 261 261 L 517 261 L 517 517 L 261 517 Z M 261 261 "/>
<path style="fill-rule:nonzero;fill:rgb(100%,100%,0%);fill-opacity:1;stroke-width:1;stroke-linecap:butt;stroke-linejoin:round;stroke:rgb(0%,0%,0%);stroke-opacity:1;stroke-miterlimit:10;" d="M 396.355469 464.503906 C 396.355469 481.074219 382.925781 494.503906 366.355469 494.503906 C 349.789062 494.503906 336.355469 481.074219 336.355469 464.503906 C 336.355469 447.9375 349.789062 434.503906 366.355469 434.503906 C 382.925781 434.503906 396.355469 447.9375 396.355469 464.503906 "/>
<path style="fill-rule:nonzero;fill:rgb(100%,100%,0%);fill-opacity:1;stroke-width:1;stroke-linecap:butt;stroke-linejoin:round;stroke:rgb(0%,0%,0%);stroke-opacity:1;stroke-miterlimit:10;" d="M 205.101562 150.78125 C 205.101562 167.347656 191.671875 180.78125 175.101562 180.78125 C 158.53125 180.78125 145.101562 167.347656 145.101562 150.78125 C 145.101562 134.210938 158.53125 120.78125 175.101562 120.78125 C 191.671875 120.78125 205.101562 134.210938 205.101562 150.78125 "/>
<path style="fill-rule:nonzero;fill:rgb(100%,100%,0%);fill-opacity:1;stroke-width:1;stroke-linecap:butt;stroke-linejoin:round;stroke:rgb(0%,0%,0%);stroke-opacity:1;stroke-miterlimit:10;" d="M 155.261719 46.988281 C 155.261719 63.554688 141.832031 76.988281 125.261719 76.988281 C 108.691406 76.988281 95.261719 63.554688 95.261719 46.988281 C 95.261719 30.417969 108.691406 16.988281 125.261719 16.988281 C 141.832031 16.988281 155.261719 30.417969 155.261719 46.988281 "/>
<path style="fill-rule:nonzero;fill:rgb(100%,100%,0%);fill-opacity:1;stroke-width:1;stroke-linecap:butt;stroke-linejoin:round;stroke:rgb(0%,0%,0%);stroke-opacity:1;stroke-miterlimit:10;" d="M 71.121094 334.34375 C 71.121094 350.910156 57.691406 364.34375 41.121094 364.34375 C 24.554688 364.34375 11.121094 350.910156 11.121094 334.34375 C 11.121094 317.773438 24.554688 304.34375 41.121094 304.34375 C 57.691406 304.34375 71.121094 317.773438 71.121094 334.34375 "/>
<path style="fill-rule:nonzero;fill:rgb(100%,100%,0%);fill-opacity:1;stroke-width:1;stroke-linecap:butt;stroke-linejoin:round;stroke:rgb(0%,0%,0%);stroke-opacity:1;stroke-miterlimit:10;" d="M 476.734375 175.503906 C 476.734375 192.070312 463.300781 205.503906 446.734375 205.503906 C 430.164062 205.503906 416.734375 192.070312 416.734375 175.503906 C 416.734375 158.933594 430.164062 145.503906 446.734375 145.503906 C 463.300781 145.503906 476.734375 158.933594 476.734375 175.503906 "/>
<path style="fill-rule:nonzero;fill:rgb(100%,100%,0%);fill-opacity:1;stroke-width:1;stroke-linecap:butt;stroke-linejoin:round;stroke:rgb(0%,0%,0%);stroke-opacity:1;stroke-miterlimit:10;" d="M 444.929688 56.011719 C 444.929688 72.582031 431.496094 86.011719 414.929688 86.011719 C 398.359375 86.011719 384.929688 72.582031 384.929688 56.011719 C 384.929688 39.445312 398.359375 26.011719 414.929688 26.011719 C 431.496094 26.011719 444.929688 39.445312 444.929688 56.011719 "/>
</g>
</svg>
