<?xml version="1.0" encoding="UTF-8"?>
<svg xmlns="http://www.w3.org/2000/svg" xmlns:xlink="http://www.w3.org/1999/xlink" width="517pt" height="517pt" viewBox="0 0 517 517" version="1.1">
<g id="surface8566">
<rect x="0" y="0" width="517" height="517" style="fill:rgb(90%,90%,90%);fill-opacity:1;stroke:none;"/>
<path style="fill:none;stroke-width:5;stroke-linecap:butt;stroke-linejoin:round;stroke:rgb(100%,0%,0%);stroke-opacity:1;stroke-miterlimit:10;" d="M 261 261 L 517 261 L 517 517 L 261 517 Z M 261 261 "/>
<path style="fill-rule:nonzero;fill:rgb(100%,100%,0%);fill-opacity:1;stroke-width:1;stroke-linecap:butt;stroke-linejoin:round;stroke:rgb(0%,0%,0%);stroke-opacity:1;stroke-miterlimit:10;" d="M 393.34375 454.941406 C 393.34375 471.507812 379.910156 484.941406 363.34375 484.941406 C 346.773438 484.941406 333.34375 471.507812 333.34375 454.941406 C 333.34375 438.371094 346.773438 424.941406 363.34375 424.941406 C 379.910156 424.941406 393.34375 438.371094 393.34375 454.941406 "/>
<path style="fill-rule:nonzero;fill:rgb(50%,0%,50%);fill-opacity:1;stroke-width:1;stroke-linecap:butt;stroke-linejoin:round;stroke:rgb(0%,0%,0%);stroke-opacity:1;stroke-miterlimit:10;" d="M 125.484375 322.757812 C 125.484375 339.328125 112.050781 352.757812 95.484375 352.757812 C 78.914062 352.757812 65.484375 339.328125 65.484375 322.757812 C 65.484375 306.191406 78.914062 292.757812 95.484375 292.757812 C 112.050781 292.757812 125.484375 306.191406 125.484375 322.757812 "/>
<path style="fill-rule:nonzero;fill:rgb(50%,0%,50%);fill-opacity:1;stroke-width:1;stroke-linecap:butt;stroke-linejoin:round;stroke:rgb(0%,0%,0%);stroke-opacity:1;stroke-miterlimit:10;" d="M 324.855469 107.617188 C 324.855469 124.1875 311.425781 137.617188 294.855469 137.617188 C 278.289062 137.617188 264.855469 124.1875 264.855469 107.617188 C 264.855469 91.050781 278.289062 77.617188 294.855469 77.617188 C 311.425781 77.617188 324.855469 91.050781 324.855469 107.617188 "/>
<path style="fill-rule:nonzero;fill:rgb(50%,0%,50%);fill-opacity:1;stroke-width:1;stroke-linecap:butt;stroke-linejoin:round;stroke:rgb(0%,0%,0%);stroke-opacity:1;stroke-miterlimit:10;" d="M 503.59375 93.953125 C 503.59375 110.519531 490.164062 123.953125 473.59375 123.953125 C 457.023438 123.953125 443.59375 110.519531 443.59375 93.953125 C 443.59375 77.382812 457.023438 63.953125 473.59375 63.953125 C 490.164062 63.953125 503.59375 77.382812 503.59375 93.953125 "/>
<path style="fill-rule:nonzero;fill:rgb(50%,0%,50%);fill-opacity:1;stroke-width:1;stroke-linecap:butt;stroke-linejoin:round;stroke:rgb(0%,0%,0%);stroke-opacity:1;stroke-miterlimit:10;" d="M 77.433594 145.667969 C 77.433594 162.238281 64.003906 175.667969 47.433594 175.667969 C 30.863281 175.667969 17.433594 162.238281 17.433594 145.667969 C 17.433594 129.101562 30.863281 115.667969 47.433594 115.667969 C 64.003906 115.667969 77.433594 129.101562 77.433594 145.667969 "/>
</g>
</svg>
