<?xml version="1.0" encoding="UTF-8"?>
<svg xmlns="http://www.w3.org/2000/svg" xmlns:xlink="http://www.w3.org/1999/xlink" width="517pt" height="517pt" viewBox="0 0 517 517" version="1.1">
<g id="surface3286">
<rect x="0" y="0" width="517" height="517" style="fill:rgb(90%,90%,90%);fill-opacity:1;stroke:none;"/>
<path style="fill:none;stroke-width:5;stroke-linecap:butt;stroke-linejoin:round;stroke:rgb(100%,0%,0%);stroke-opacity:1;stroke-miterlimit:10;" d="M 261 261 L 517 261 L 517 517 L 261 517 Z M 261 261 "/>
<path style="fill-rule:nonzero;fill:rgb(90%,65%,0%);fill-opacity:1;stroke-width:1;stroke-linecap:butt;stroke-linejoin:round;stroke:rgb(0%,0%,0%);stroke-opacity:1;stroke-miterlimit:10;" d="M 354.851562 395.996094 L 334.851562 395.996094 L 334.851562 405.996094 L 354.851562 405.996094 L 354.851562 425.996094 L 364.851562 425.996094 L 364.851562 405.996094 L 384.851562 405.996094 L 384.851562 395.996094 L 364.851562 395.996094 L 364.851562 375.996094 L 354.851562 375.996094 L 354.851562 395.996094 "/>
<path style="fill-rule:nonzero;fill:rgb(35%,70%,90%);fill-opacity:1;stroke-width:1;stroke-linecap:butt;stroke-linejoin:round;stroke:rgb(0%,0%,0%);stroke-opacity:1;stroke-miterlimit:10;" d="M 61.375 77.582031 L 41.375 77.582031 L 41.375 87.582031 L 61.375 87.582031 L 61.375 107.582031 L 71.375 107.582031 L 71.375 87.582031 L 91.375 87.582031 L 91.375 77.582031 L 71.375 77.582031 L 71.375 57.582031 L 61.375 57.582031 L 61.375 77.582031 "/>
<path style="fill-rule:nonzero;fill:rgb(35%,70%,90%);fill-opacity:1;stroke-width:1;stroke-linecap:butt;stroke-linejoin:round;stroke:rgb(0%,0%,0%);stroke-opacity:1;stroke-miterlimit:10;" d="M 401.230469 30.019531 L 381.230469 30.019531 L 381.230469 40.019531 L 401.230469 40.019531 L 401.230469 60.019531 L 411.230469 60.019531 L 411.230469 40.019531 L 431.230469 40.019531 L 431.230469 30.019531 L 411.230469 30.019531 L 411.230469 10.019531 L 401.230469 10.019531 L 401.230469 30.019531 "/>
<path style="fill-rule:nonzero;fill:rgb(35%,70%,90%);fill-opacity:1;stroke-width:1;stroke-linecap:butt;stroke-linejoin:round;stroke:rgb(0%,0%,0%);stroke-opacity:1;stroke-miterlimit:10;" d="M 36.214844 403.152344 L 16.214844 403.152344 L 16.214844 413.152344 L 36.214844 413.152344 L 36.214844 433.152344 L 46.214844 433.152344 L 46.214844 413.152344 L 66.214844 413.152344 L 66.214844 403.152344 L 46.214844 403.152344 L 46.214844 383.152344 L 36.214844 383.152344 L 36.214844 403.152344 "/>
<path style="fill-rule:nonzero;fill:rgb(35%,70%,90%);fill-opacity:1;stroke-width:1;stroke-linecap:butt;stroke-linejoin:round;stroke:rgb(0%,0%,0%);stroke-opacity:1;stroke-miterlimit:10;" d="M 115.484375 439.554688 L 95.484375 439.554688 L 95.484375 449.554688 L 115.484375 449.554688 L 115.484375 469.554688 L 125.484375 469.554688 L 125.484375 449.554688 L 145.484375 449.554688 L 145.484375 439.554688 L 125.484375 439.554688 L 125.484375 419.554688 L 115.484375 419.554688 L 115.484375 439.554688 "/>
</g>
</svg>
