<?xml version="1.0" encoding="UTF-8"?>
<svg xmlns="http://www.w3.org/2000/svg" xmlns:xlink="http://www.w3.org/1999/xlink" width="517pt" height="517pt" viewBox="0 0 517 517" version="1.1">
<g id="surface8546">
<rect x="0" y="0" width="517" height="517" style="fill:rgb(90%,90%,90%);fill-opacity:1;stroke:none;"/>
<path style="fill:none;stroke-width:5;stroke-linecap:butt;stroke-linejoin:round;stroke:rgb(100%,0%,0%);stroke-opacity:1;stroke-miterlimit:10;" d="M 261 5 L 517 5 L 517 261 L 261 261 Z M 261 5 "/>
<path style="fill-rule:nonzero;fill:rgb(0%,0%,0%);fill-opacity:1;stroke-width:1;stroke-linecap:butt;stroke-linejoin:round;stroke:rgb(0%,0%,0%);stroke-opacity:1;stroke-miterlimit:10;" d="M 492.015625 42.480469 C 492.015625 59.046875 478.582031 72.480469 462.015625 72.480469 C 445.445312 72.480469 432.015625 59.046875 432.015625 42.480469 C 432.015625 25.910156 445.445312 12.480469 462.015625 12.480469 C 478.582031 12.480469 492.015625 25.910156 492.015625 42.480469 "/>
<path style="fill-rule:nonzero;fill:rgb(100%,100%,0%);fill-opacity:1;stroke-width:1;stroke-linecap:butt;stroke-linejoin:round;stroke:rgb(0%,0%,0%);stroke-opacity:1;stroke-miterlimit:10;" d="M 157.496094 209.535156 C 157.496094 226.105469 144.0625 239.535156 127.496094 239.535156 C 110.925781 239.535156 97.496094 226.105469 97.496094 209.535156 C 97.496094 192.96875 110.925781 179.535156 127.496094 179.535156 C 144.0625 179.535156 157.496094 192.96875 157.496094 209.535156 "/>
<path style="fill-rule:nonzero;fill:rgb(100%,100%,0%);fill-opacity:1;stroke-width:1;stroke-linecap:butt;stroke-linejoin:round;stroke:rgb(0%,0%,0%);stroke-opacity:1;stroke-miterlimit:10;" d="M 366.855469 443.53125 C 366.855469 460.097656 353.425781 473.53125 336.855469 473.53125 C 320.289062 473.53125 306.855469 460.097656 306.855469 443.53125 C 306.855469 426.960938 320.289062 413.53125 336.855469 413.53125 C 353.425781 413.53125 366.855469 426.960938 366.855469 443.53125 "/>
<path style="fill-rule:nonzero;fill:rgb(100%,100%,0%);fill-opacity:1;stroke-width:1;stroke-linecap:butt;stroke-linejoin:round;stroke:rgb(0%,0%,0%);stroke-opacity:1;stroke-miterlimit:10;" d="M 415.417969 304.265625 C 415.417969 320.832031 401.984375 334.265625 385.417969 334.265625 C 368.847656 334.265625 355.417969 320.832031 355.417969 304.265625 C 355.417969 287.695312 368.847656 274.265625 385.417969 274.265625 C 401.984375 274.265625 415.417969 287.695312 415.417969 304.265625 "/>
<path style="fill-rule:nonzero;fill:rgb(100%,100%,0%);fill-opacity:1;stroke-width:1;stroke-linecap:butt;stroke-linejoin:round;stroke:rgb(0%,0%,0%);stroke-opacity:1;stroke-miterlimit:10;" d="M 450.261719 382.988281 C 450.261719 399.558594 436.828125 412.988281 420.261719 412.988281 C 403.691406 412.988281 390.261719 399.558594 390.261719 382.988281 C 390.261719 366.421875 403.691406 352.988281 420.261719 352.988281 C 436.828125 352.988281 450.261719 366.421875 450.261719 382.988281 "/>
<path style="fill-rule:nonzero;fill:rgb(100%,100%,0%);fill-opacity:1;stroke-width:1;stroke-linecap:butt;stroke-linejoin:round;stroke:rgb(0%,0%,0%);stroke-opacity:1;stroke-miterlimit:10;" d="M 478.699219 306.140625 C 478.699219 322.710938 465.269531 336.140625 448.699219 336.140625 C 432.132812 336.140625 418.699219 322.710938 418.699219 306.140625 C 418.699219 289.570312 432.132812 276.140625 448.699219 276.140625 C 465.269531 276.140625 478.699219 289.570312 478.699219 306.140625 "/>
</g>
</svg>
