<?xml version="1.0" encoding="UTF-8"?>
<svg xmlns="http://www.w3.org/2000/svg" xmlns:xlink="http://www.w3.org/1999/xlink" width="517pt" height="517pt" viewBox="0 0 517 517" version="1.1">
<g id="surface8786">
<rect x="0" y="0" width="517" height="517" style="fill:rgb(90%,90%,90%);fill-opacity:1;stroke:none;"/>
<path style="fill:none;stroke-width:5;stroke-linecap:butt;stroke-linejoin:round;stroke:rgb(100%,0%,0%);stroke-opacity:1;stroke-miterlimit:10;" d="M 5 261 L 261 261 L 261 517 L 5 517 Z M 5 261 "/>
<path style="fill-rule:nonzero;fill:rgb(90%,65%,0%);fill-opacity:1;stroke-width:1;stroke-linecap:butt;stroke-linejoin:round;stroke:rgb(0%,0%,0%);stroke-opacity:1;stroke-miterlimit:10;" d="M 144.039062 408.265625 C 144.039062 424.832031 130.609375 438.265625 114.039062 438.265625 C 97.472656 438.265625 84.039062 424.832031 84.039062 408.265625 C 84.039062 391.695312 97.472656 378.265625 114.039062 378.265625 C 130.609375 378.265625 144.039062 391.695312 144.039062 408.265625 "/>
<path style="fill-rule:nonzero;fill:rgb(100%,0%,0%);fill-opacity:1;stroke-width:1;stroke-linecap:butt;stroke-linejoin:round;stroke:rgb(0%,0%,0%);stroke-opacity:1;stroke-miterlimit:10;" d="M 458.242188 365.0625 C 458.242188 381.632812 444.8125 395.0625 428.242188 395.0625 C 411.671875 395.0625 398.242188 381.632812 398.242188 365.0625 C 398.242188 348.492188 411.671875 335.0625 428.242188 335.0625 C 444.8125 335.0625 458.242188 348.492188 458.242188 365.0625 "/>
<path style="fill-rule:nonzero;fill:rgb(100%,0%,0%);fill-opacity:1;stroke-width:1;stroke-linecap:butt;stroke-linejoin:round;stroke:rgb(0%,0%,0%);stroke-opacity:1;stroke-miterlimit:10;" d="M 179.21875 55.601562 C 179.21875 72.167969 165.789062 85.601562 149.21875 85.601562 C 132.648438 85.601562 119.21875 72.167969 119.21875 55.601562 C 119.21875 39.03125 132.648438 25.601562 149.21875 25.601562 C 165.789062 25.601562 179.21875 39.03125 179.21875 55.601562 "/>
<path style="fill-rule:nonzero;fill:rgb(100%,0%,0%);fill-opacity:1;stroke-width:1;stroke-linecap:butt;stroke-linejoin:round;stroke:rgb(0%,0%,0%);stroke-opacity:1;stroke-miterlimit:10;" d="M 140.046875 151.726562 C 140.046875 168.296875 126.617188 181.726562 110.046875 181.726562 C 93.480469 181.726562 80.046875 168.296875 80.046875 151.726562 C 80.046875 135.15625 93.480469 121.726562 110.046875 121.726562 C 126.617188 121.726562 140.046875 135.15625 140.046875 151.726562 "/>
<path style="fill-rule:nonzero;fill:rgb(100%,0%,0%);fill-opacity:1;stroke-width:1;stroke-linecap:butt;stroke-linejoin:round;stroke:rgb(0%,0%,0%);stroke-opacity:1;stroke-miterlimit:10;" d="M 321.277344 135.472656 C 321.277344 152.042969 307.84375 165.472656 291.277344 165.472656 C 274.707031 165.472656 261.277344 152.042969 261.277344 135.472656 C 261.277344 118.90625 274.707031 105.472656 291.277344 105.472656 C 307.84375 105.472656 321.277344 118.90625 321.277344 135.472656 "/>
<path style="fill-rule:nonzero;fill:rgb(100%,0%,0%);fill-opacity:1;stroke-width:1;stroke-linecap:butt;stroke-linejoin:round;stroke:rgb(0%,0%,0%);stroke-opacity:1;stroke-miterlimit:10;" d="M 334.765625 208.683594 C 334.765625 225.253906 321.332031 238.683594 304.765625 238.683594 C 288.195312 238.683594 274.765625 225.253906 274.765625 208.683594 C 274.765625 192.113281 288.195312 178.683594 304.765625 178.683594 C 321.332031 178.683594 334.765625 192.113281 334.765625 208.683594 "/>
</g>
</svg>
