<?xml version="1.0" encoding="UTF-8"?>
<svg xmlns="http://www.w3.org/2000/svg" xmlns:xlink="http://www.w3.org/1999/xlink" width="517pt" height="517pt" viewBox="0 0 517 517" version="1.1">
<g id="surface8716">
<rect x="0" y="0" width="517" height="517" style="fill:rgb(90%,90%,90%);fill-opacity:1;stroke:none;"/>
<path style="fill:none;stroke-width:5;stroke-linecap:butt;stroke-linejoin:round;stroke:rgb(100%,0%,0%);stroke-opacity:1;stroke-miterlimit:10;" d="M 5 5 L 261 5 L 261 261 L 5 261 Z M 5 5 "/>
<path style="fill-rule:nonzero;fill:rgb(50%,0%,50%);fill-opacity:1;stroke-width:1;stroke-linecap:butt;stroke-linejoin:round;stroke:rgb(0%,0%,0%);stroke-opacity:1;stroke-miterlimit:10;" d="M 101.25 49.875 C 101.25 66.441406 87.820312 79.875 71.25 79.875 C 54.683594 79.875 41.25 66.441406 41.25 49.875 C 41.25 33.304688 54.683594 19.875 71.25 19.875 C 87.820312 19.875 101.25 33.304688 101.25 49.875 "/>
<path style="fill-rule:nonzero;fill:rgb(50%,0%,50%);fill-opacity:1;stroke-width:1;stroke-linecap:butt;stroke-linejoin:round;stroke:rgb(0%,0%,0%);stroke-opacity:1;stroke-miterlimit:10;" d="M 155.917969 293.570312 C 155.917969 310.140625 142.484375 323.570312 125.917969 323.570312 C 109.347656 323.570312 95.917969 310.140625 95.917969 293.570312 C 95.917969 277 109.347656 263.570312 125.917969 263.570312 C 142.484375 263.570312 155.917969 277 155.917969 293.570312 "/>
<path style="fill-rule:nonzero;fill:rgb(50%,0%,50%);fill-opacity:1;stroke-width:1;stroke-linecap:butt;stroke-linejoin:round;stroke:rgb(0%,0%,0%);stroke-opacity:1;stroke-miterlimit:10;" d="M 353.472656 427.359375 C 353.472656 443.925781 340.042969 457.359375 323.472656 457.359375 C 306.90625 457.359375 293.472656 443.925781 293.472656 427.359375 C 293.472656 410.789062 306.90625 397.359375 323.472656 397.359375 C 340.042969 397.359375 353.472656 410.789062 353.472656 427.359375 "/>
<path style="fill-rule:nonzero;fill:rgb(50%,0%,50%);fill-opacity:1;stroke-width:1;stroke-linecap:butt;stroke-linejoin:round;stroke:rgb(0%,0%,0%);stroke-opacity:1;stroke-miterlimit:10;" d="M 358.910156 303.648438 C 358.910156 320.214844 345.480469 333.648438 328.910156 333.648438 C 312.34375 333.648438 298.910156 320.214844 298.910156 303.648438 C 298.910156 287.078125 312.34375 273.648438 328.910156 273.648438 C 345.480469 273.648438 358.910156 287.078125 358.910156 303.648438 "/>
<path style="fill-rule:nonzero;fill:rgb(50%,0%,50%);fill-opacity:1;stroke-width:1;stroke-linecap:butt;stroke-linejoin:round;stroke:rgb(0%,0%,0%);stroke-opacity:1;stroke-miterlimit:10;" d="M 426.320312 379.550781 C 426.320312 396.121094 412.886719 409.550781 396.320312 409.550781 C 379.75 409.550781 366.320312 396.121094 366.320312 379.550781 C 366.320312 362.984375 379.75 349.550781 396.320312 349.550781 C 412.886719 349.550781 426.320312 362.984375 426.320312 379.550781 "/>
<path style="fill-rule:nonzero;fill:rgb(50%,0%,50%);fill-opacity:1;stroke-width:1;stroke-linecap:butt;stroke-linejoin:round;stroke:rgb(0%,0%,0%);stroke-opacity:1;stroke-miterlimit:10;" d="M 488.351562 184.195312 C 488.351562 200.761719 474.921875 214.195312 458.351562 214.195312 C 441.785156 214.195312 428.351562 200.761719 428.351562 184.195312 C 428.351562 167.625 441.785156 154.195312 458.351562 154.195312 C 474.921875 154.195312 488.351562 167.625 488.351562 184.195312 "/>
</g>
</svg>
