<?xml version="1.0" encoding="UTF-8"?>
<svg xmlns="http://www.w3.org/2000/svg" xmlns:xlink="http://www.w3.org/1999/xlink" width="517pt" height="517pt" viewBox="0 0 517 517" version="1.1">
<g id="surface8776">
<rect x="0" y="0" width="517" height="517" style="fill:rgb(90%,90%,90%);fill-opacity:1;stroke:none;"/>
<path style="fill:none;stroke-width:5;stroke-linecap:butt;stroke-linejoin:round;stroke:rgb(100%,0%,0%);stroke-opacity:1;stroke-miterlimit:10;" d="M 5 261 L 261 261 L 261 517 L 5 517 Z M 5 261 "/>
<path style="fill-rule:nonzero;fill:rgb(67%,100%,18%);fill-opacity:1;stroke-width:1;stroke-linecap:butt;stroke-linejoin:round;stroke:rgb(0%,0%,0%);stroke-opacity:1;stroke-miterlimit:10;" d="M 146.511719 292.992188 C 146.511719 309.558594 133.078125 322.992188 116.511719 322.992188 C 99.941406 322.992188 86.511719 309.558594 86.511719 292.992188 C 86.511719 276.421875 99.941406 262.992188 116.511719 262.992188 C 133.078125 262.992188 146.511719 276.421875 146.511719 292.992188 "/>
<path style="fill-rule:nonzero;fill:rgb(100%,0%,0%);fill-opacity:1;stroke-width:1;stroke-linecap:butt;stroke-linejoin:round;stroke:rgb(0%,0%,0%);stroke-opacity:1;stroke-miterlimit:10;" d="M 494.117188 92.5 C 494.117188 109.070312 480.6875 122.5 464.117188 122.5 C 447.550781 122.5 434.117188 109.070312 434.117188 92.5 C 434.117188 75.933594 447.550781 62.5 464.117188 62.5 C 480.6875 62.5 494.117188 75.933594 494.117188 92.5 "/>
<path style="fill-rule:nonzero;fill:rgb(100%,0%,0%);fill-opacity:1;stroke-width:1;stroke-linecap:butt;stroke-linejoin:round;stroke:rgb(0%,0%,0%);stroke-opacity:1;stroke-miterlimit:10;" d="M 322.511719 37.742188 C 322.511719 54.308594 309.078125 67.742188 292.511719 67.742188 C 275.941406 67.742188 262.511719 54.308594 262.511719 37.742188 C 262.511719 21.171875 275.941406 7.742188 292.511719 7.742188 C 309.078125 7.742188 322.511719 21.171875 322.511719 37.742188 "/>
<path style="fill-rule:nonzero;fill:rgb(100%,0%,0%);fill-opacity:1;stroke-width:1;stroke-linecap:butt;stroke-linejoin:round;stroke:rgb(0%,0%,0%);stroke-opacity:1;stroke-miterlimit:10;" d="M 65.0625 217.488281 C 65.0625 234.058594 51.632812 247.488281 35.0625 247.488281 C 18.496094 247.488281 5.0625 234.058594 5.0625 217.488281 C 5.0625 200.917969 18.496094 187.488281 35.0625 187.488281 C 51.632812 187.488281 65.0625 200.917969 65.0625 217.488281 "/>
<path style="fill-rule:nonzero;fill:rgb(100%,0%,0%);fill-opacity:1;stroke-width:1;stroke-linecap:butt;stroke-linejoin:round;stroke:rgb(0%,0%,0%);stroke-opacity:1;stroke-miterlimit:10;" d="M 120.636719 166.070312 C 120.636719 182.636719 107.207031 196.070312 90.636719 196.070312 C 74.066406 196.070312 60.636719 182.636719 60.636719 166.070312 C 60.636719 149.5 74.066406 136.070312 90.636719 136.070312 C 107.207031 136.070312 120.636719 149.5 120.636719 166.070312 "/>
</g>
</svg>
