<?xml version="1.0" encoding="UTF-8"?>
<svg xmlns="http://www.w3.org/2000/svg" xmlns:xlink="http://www.w3.org/1999/xlink" width="517pt" height="517pt" viewBox="0 0 517 517" version="1.1">
<g id="surface311">
<rect x="0" y="0" width="517" height="517" style="fill:rgb(90%,90%,90%);fill-opacity:1;stroke:none;"/>
<path style="fill:none;stroke-width:5;stroke-linecap:butt;stroke-linejoin:round;stroke:rgb(100%,0%,0%);stroke-opacity:1;stroke-miterlimit:10;" d="M 5 5 L 261 5 L 261 261 L 5 261 Z M 5 5 "/>
<path style="fill-rule:nonzero;fill:rgb(53%,27%,7%);fill-opacity:1;stroke-width:1;stroke-linecap:butt;stroke-linejoin:round;stroke:rgb(0%,0%,0%);stroke-opacity:1;stroke-miterlimit:10;" d="M 204.539062 192.570312 C 204.539062 178.171875 180.539062 178.171875 180.539062 192.570312 C 180.539062 206.972656 204.539062 209.371094 204.539062 221.371094 C 204.539062 209.371094 228.539062 206.972656 228.539062 192.570312 C 228.539062 178.171875 204.539062 178.171875 204.539062 192.570312 "/>
<path style="fill-rule:nonzero;fill:rgb(50%,0%,50%);fill-opacity:1;stroke-width:1;stroke-linecap:butt;stroke-linejoin:round;stroke:rgb(0%,0%,0%);stroke-opacity:1;stroke-miterlimit:10;" d="M 160.023438 335.078125 C 160.023438 320.679688 136.023438 320.679688 136.023438 335.078125 C 136.023438 349.480469 160.023438 351.878906 160.023438 363.878906 C 160.023438 351.878906 184.023438 349.480469 184.023438 335.078125 C 184.023438 320.679688 160.023438 320.679688 160.023438 335.078125 "/>
<path style="fill-rule:nonzero;fill:rgb(67%,100%,18%);fill-opacity:1;stroke-width:1;stroke-linecap:butt;stroke-linejoin:round;stroke:rgb(0%,0%,0%);stroke-opacity:1;stroke-miterlimit:10;" d="M 91.070312 402.871094 C 91.070312 388.46875 67.070312 388.46875 67.070312 402.871094 C 67.070312 417.269531 91.070312 419.671875 91.070312 431.671875 C 91.070312 419.671875 115.070312 417.269531 115.070312 402.871094 C 115.070312 388.46875 91.070312 388.46875 91.070312 402.871094 "/>
<path style="fill-rule:nonzero;fill:rgb(67%,100%,18%);fill-opacity:1;stroke-width:1;stroke-linecap:butt;stroke-linejoin:round;stroke:rgb(0%,0%,0%);stroke-opacity:1;stroke-miterlimit:10;" d="M 469.820312 116.777344 C 469.820312 102.375 445.820312 102.375 445.820312 116.777344 C 445.820312 131.175781 469.820312 133.574219 469.820312 145.574219 C 469.820312 133.574219 493.820312 131.175781 493.820312 116.777344 C 493.820312 102.375 469.820312 102.375 469.820312 116.777344 "/>
</g>
</svg>
