<?xml version="1.0" encoding="UTF-8"?>
<svg xmlns="http://www.w3.org/2000/svg" xmlns:xlink="http://www.w3.org/1999/xlink" width="517pt" height="517pt" viewBox="0 0 517 517" version="1.1">
<g id="surface3876">
<rect x="0" y="0" width="517" height="517" style="fill:rgb(90%,90%,90%);fill-opacity:1;stroke:none;"/>
<path style="fill:none;stroke-width:5;stroke-linecap:butt;stroke-linejoin:round;stroke:rgb(100%,0%,0%);stroke-opacity:1;stroke-miterlimit:10;" d="M 5 5 L 261 5 L 261 261 L 5 261 Z M 5 5 "/>
<path style="fill-rule:nonzero;fill:rgb(100%,7%,57%);fill-opacity:1;stroke-width:1;stroke-linecap:butt;stroke-linejoin:round;stroke:rgb(0%,0%,0%);stroke-opacity:1;stroke-miterlimit:10;" d="M 229.3125 107.128906 C 229.3125 123.699219 215.882812 137.128906 199.3125 137.128906 C 182.746094 137.128906 169.3125 123.699219 169.3125 107.128906 C 169.3125 90.5625 182.746094 77.128906 199.3125 77.128906 C 215.882812 77.128906 229.3125 90.5625 229.3125 107.128906 "/>
<path style="fill-rule:nonzero;fill:rgb(100%,100%,0%);fill-opacity:1;stroke-width:1;stroke-linecap:butt;stroke-linejoin:round;stroke:rgb(0%,0%,0%);stroke-opacity:1;stroke-miterlimit:10;" d="M 427.855469 371.171875 C 427.855469 387.742188 414.425781 401.171875 397.855469 401.171875 C 381.289062 401.171875 367.855469 387.742188 367.855469 371.171875 C 367.855469 354.605469 381.289062 341.171875 397.855469 341.171875 C 414.425781 341.171875 427.855469 354.605469 427.855469 371.171875 "/>
<path style="fill-rule:nonzero;fill:rgb(100%,100%,0%);fill-opacity:1;stroke-width:1;stroke-linecap:butt;stroke-linejoin:round;stroke:rgb(0%,0%,0%);stroke-opacity:1;stroke-miterlimit:10;" d="M 341.027344 107.121094 C 341.027344 123.691406 327.597656 137.121094 311.027344 137.121094 C 294.460938 137.121094 281.027344 123.691406 281.027344 107.121094 C 281.027344 90.554688 294.460938 77.121094 311.027344 77.121094 C 327.597656 77.121094 341.027344 90.554688 341.027344 107.121094 "/>
<path style="fill-rule:nonzero;fill:rgb(100%,100%,0%);fill-opacity:1;stroke-width:1;stroke-linecap:butt;stroke-linejoin:round;stroke:rgb(0%,0%,0%);stroke-opacity:1;stroke-miterlimit:10;" d="M 408.074219 95.183594 C 408.074219 111.753906 394.644531 125.183594 378.074219 125.183594 C 361.507812 125.183594 348.074219 111.753906 348.074219 95.183594 C 348.074219 78.613281 361.507812 65.183594 378.074219 65.183594 C 394.644531 65.183594 408.074219 78.613281 408.074219 95.183594 "/>
<path style="fill-rule:nonzero;fill:rgb(100%,100%,0%);fill-opacity:1;stroke-width:1;stroke-linecap:butt;stroke-linejoin:round;stroke:rgb(0%,0%,0%);stroke-opacity:1;stroke-miterlimit:10;" d="M 161.621094 291.976562 C 161.621094 308.542969 148.191406 321.976562 131.621094 321.976562 C 115.054688 321.976562 101.621094 308.542969 101.621094 291.976562 C 101.621094 275.40625 115.054688 261.976562 131.621094 261.976562 C 148.191406 261.976562 161.621094 275.40625 161.621094 291.976562 "/>
<path style="fill-rule:nonzero;fill:rgb(100%,7%,57%);fill-opacity:1;stroke-width:1;stroke-linecap:butt;stroke-linejoin:round;stroke:rgb(0%,0%,0%);stroke-opacity:1;stroke-miterlimit:10;" d="M 248.1875 370.621094 C 248.1875 387.1875 234.753906 400.621094 218.1875 400.621094 C 201.617188 400.621094 188.1875 387.1875 188.1875 370.621094 C 188.1875 354.050781 201.617188 340.621094 218.1875 340.621094 C 234.753906 340.621094 248.1875 354.050781 248.1875 370.621094 "/>
</g>
</svg>
