<?xml version="1.0" encoding="UTF-8"?>
<svg xmlns="http://www.w3.org/2000/svg" xmlns:xlink="http://www.w3.org/1999/xlink" width="517pt" height="517pt" viewBox="0 0 517 517" version="1.1">
<g id="surface8966">
<rect x="0" y="0" width="517" height="517" style="fill:rgb(90%,90%,90%);fill-opacity:1;stroke:none;"/>
<path style="fill:none;stroke-width:5;stroke-linecap:butt;stroke-linejoin:round;stroke:rgb(100%,0%,0%);stroke-opacity:1;stroke-miterlimit:10;" d="M 5 5 L 261 5 L 261 261 L 5 261 Z M 5 5 "/>
<path style="fill-rule:nonzero;fill:rgb(35%,70%,90%);fill-opacity:1;stroke-width:1;stroke-linecap:butt;stroke-linejoin:round;stroke:rgb(0%,0%,0%);stroke-opacity:1;stroke-miterlimit:10;" d="M 41.699219 110.308594 L 21.699219 110.308594 L 21.699219 120.308594 L 41.699219 120.308594 L 41.699219 140.308594 L 51.699219 140.308594 L 51.699219 120.308594 L 71.699219 120.308594 L 71.699219 110.308594 L 51.699219 110.308594 L 51.699219 90.308594 L 41.699219 90.308594 L 41.699219 110.308594 "/>
<path style="fill-rule:nonzero;fill:rgb(50%,0%,50%);fill-opacity:1;stroke-width:1;stroke-linecap:butt;stroke-linejoin:round;stroke:rgb(0%,0%,0%);stroke-opacity:1;stroke-miterlimit:10;" d="M 419.8125 43.605469 L 399.8125 43.605469 L 399.8125 53.605469 L 419.8125 53.605469 L 419.8125 73.605469 L 429.8125 73.605469 L 429.8125 53.605469 L 449.8125 53.605469 L 449.8125 43.605469 L 429.8125 43.605469 L 429.8125 23.605469 L 419.8125 23.605469 L 419.8125 43.605469 "/>
<path style="fill-rule:nonzero;fill:rgb(50%,0%,50%);fill-opacity:1;stroke-width:1;stroke-linecap:butt;stroke-linejoin:round;stroke:rgb(0%,0%,0%);stroke-opacity:1;stroke-miterlimit:10;" d="M 299.128906 188.921875 L 279.128906 188.921875 L 279.128906 198.921875 L 299.128906 198.921875 L 299.128906 218.921875 L 309.128906 218.921875 L 309.128906 198.921875 L 329.128906 198.921875 L 329.128906 188.921875 L 309.128906 188.921875 L 309.128906 168.921875 L 299.128906 168.921875 L 299.128906 188.921875 "/>
<path style="fill-rule:nonzero;fill:rgb(50%,0%,50%);fill-opacity:1;stroke-width:1;stroke-linecap:butt;stroke-linejoin:round;stroke:rgb(0%,0%,0%);stroke-opacity:1;stroke-miterlimit:10;" d="M 385.65625 466.324219 L 365.65625 466.324219 L 365.65625 476.324219 L 385.65625 476.324219 L 385.65625 496.324219 L 395.65625 496.324219 L 395.65625 476.324219 L 415.65625 476.324219 L 415.65625 466.324219 L 395.65625 466.324219 L 395.65625 446.324219 L 385.65625 446.324219 L 385.65625 466.324219 "/>
<path style="fill-rule:nonzero;fill:rgb(50%,0%,50%);fill-opacity:1;stroke-width:1;stroke-linecap:butt;stroke-linejoin:round;stroke:rgb(0%,0%,0%);stroke-opacity:1;stroke-miterlimit:10;" d="M 178.585938 370.65625 L 158.585938 370.65625 L 158.585938 380.65625 L 178.585938 380.65625 L 178.585938 400.65625 L 188.585938 400.65625 L 188.585938 380.65625 L 208.585938 380.65625 L 208.585938 370.65625 L 188.585938 370.65625 L 188.585938 350.65625 L 178.585938 350.65625 L 178.585938 370.65625 "/>
</g>
</svg>
