<?xml version="1.0" encoding="UTF-8"?>
<svg xmlns="http://www.w3.org/2000/svg" xmlns:xlink="http://www.w3.org/1999/xlink" width="517pt" height="517pt" viewBox="0 0 517 517" version="1.1">
<g id="surface8376">
<rect x="0" y="0" width="517" height="517" style="fill:rgb(90%,90%,90%);fill-opacity:1;stroke:none;"/>
<path style="fill:none;stroke-width:5;stroke-linecap:butt;stroke-linejoin:round;stroke:rgb(100%,0%,0%);stroke-opacity:1;stroke-miterlimit:10;" d="M 5 5 L 261 5 L 261 261 L 5 261 Z M 5 5 "/>
<path style="fill-rule:nonzero;fill:rgb(0%,0%,0%);fill-opacity:1;stroke-width:1;stroke-linecap:butt;stroke-linejoin:round;stroke:rgb(0%,0%,0%);stroke-opacity:1;stroke-miterlimit:10;" d="M 205.828125 72.8125 C 205.828125 89.382812 192.394531 102.8125 175.828125 102.8125 C 159.257812 102.8125 145.828125 89.382812 145.828125 72.8125 C 145.828125 56.246094 159.257812 42.8125 175.828125 42.8125 C 192.394531 42.8125 205.828125 56.246094 205.828125 72.8125 "/>
<path style="fill-rule:nonzero;fill:rgb(35%,70%,90%);fill-opacity:1;stroke-width:1;stroke-linecap:butt;stroke-linejoin:round;stroke:rgb(0%,0%,0%);stroke-opacity:1;stroke-miterlimit:10;" d="M 397.386719 72.351562 C 397.386719 88.921875 383.953125 102.351562 367.386719 102.351562 C 350.816406 102.351562 337.386719 88.921875 337.386719 72.351562 C 337.386719 55.78125 350.816406 42.351562 367.386719 42.351562 C 383.953125 42.351562 397.386719 55.78125 397.386719 72.351562 "/>
<path style="fill-rule:nonzero;fill:rgb(35%,70%,90%);fill-opacity:1;stroke-width:1;stroke-linecap:butt;stroke-linejoin:round;stroke:rgb(0%,0%,0%);stroke-opacity:1;stroke-miterlimit:10;" d="M 431.929688 202.816406 C 431.929688 219.386719 418.496094 232.816406 401.929688 232.816406 C 385.359375 232.816406 371.929688 219.386719 371.929688 202.816406 C 371.929688 186.246094 385.359375 172.816406 401.929688 172.816406 C 418.496094 172.816406 431.929688 186.246094 431.929688 202.816406 "/>
<path style="fill-rule:nonzero;fill:rgb(35%,70%,90%);fill-opacity:1;stroke-width:1;stroke-linecap:butt;stroke-linejoin:round;stroke:rgb(0%,0%,0%);stroke-opacity:1;stroke-miterlimit:10;" d="M 81.175781 348.347656 C 81.175781 364.914062 67.746094 378.347656 51.175781 378.347656 C 34.609375 378.347656 21.175781 364.914062 21.175781 348.347656 C 21.175781 331.777344 34.609375 318.347656 51.175781 318.347656 C 67.746094 318.347656 81.175781 331.777344 81.175781 348.347656 "/>
<path style="fill-rule:nonzero;fill:rgb(35%,70%,90%);fill-opacity:1;stroke-width:1;stroke-linecap:butt;stroke-linejoin:round;stroke:rgb(0%,0%,0%);stroke-opacity:1;stroke-miterlimit:10;" d="M 126.988281 402.152344 C 126.988281 418.71875 113.554688 432.152344 96.988281 432.152344 C 80.417969 432.152344 66.988281 418.71875 66.988281 402.152344 C 66.988281 385.582031 80.417969 372.152344 96.988281 372.152344 C 113.554688 372.152344 126.988281 385.582031 126.988281 402.152344 "/>
</g>
</svg>
