<?xml version="1.0" encoding="UTF-8"?>
<svg xmlns="http://www.w3.org/2000/svg" xmlns:xlink="http://www.w3.org/1999/xlink" width="517pt" height="517pt" viewBox="0 0 517 517" version="1.1">
<g id="surface8756">
<rect x="0" y="0" width="517" height="517" style="fill:rgb(90%,90%,90%);fill-opacity:1;stroke:none;"/>
<path style="fill:none;stroke-width:5;stroke-linecap:butt;stroke-linejoin:round;stroke:rgb(100%,0%,0%);stroke-opacity:1;stroke-miterlimit:10;" d="M 5 261 L 261 261 L 261 517 L 5 517 Z M 5 261 "/>
<path style="fill-rule:nonzero;fill:rgb(67%,100%,18%);fill-opacity:1;stroke-width:1;stroke-linecap:butt;stroke-linejoin:round;stroke:rgb(0%,0%,0%);stroke-opacity:1;stroke-miterlimit:10;" d="M 150.617188 471.621094 C 150.617188 488.1875 137.183594 501.621094 120.617188 501.621094 C 104.046875 501.621094 90.617188 488.1875 90.617188 471.621094 C 90.617188 455.050781 104.046875 441.621094 120.617188 441.621094 C 137.183594 441.621094 150.617188 455.050781 150.617188 471.621094 "/>
<path style="fill-rule:nonzero;fill:rgb(100%,0%,0%);fill-opacity:1;stroke-width:1;stroke-linecap:butt;stroke-linejoin:round;stroke:rgb(0%,0%,0%);stroke-opacity:1;stroke-miterlimit:10;" d="M 406.789062 396.933594 C 406.789062 413.503906 393.359375 426.933594 376.789062 426.933594 C 360.222656 426.933594 346.789062 413.503906 346.789062 396.933594 C 346.789062 380.367188 360.222656 366.933594 376.789062 366.933594 C 393.359375 366.933594 406.789062 380.367188 406.789062 396.933594 "/>
<path style="fill-rule:nonzero;fill:rgb(100%,0%,0%);fill-opacity:1;stroke-width:1;stroke-linecap:butt;stroke-linejoin:round;stroke:rgb(0%,0%,0%);stroke-opacity:1;stroke-miterlimit:10;" d="M 433.40625 295.582031 C 433.40625 312.148438 419.972656 325.582031 403.40625 325.582031 C 386.835938 325.582031 373.40625 312.148438 373.40625 295.582031 C 373.40625 279.011719 386.835938 265.582031 403.40625 265.582031 C 419.972656 265.582031 433.40625 279.011719 433.40625 295.582031 "/>
<path style="fill-rule:nonzero;fill:rgb(100%,0%,0%);fill-opacity:1;stroke-width:1;stroke-linecap:butt;stroke-linejoin:round;stroke:rgb(0%,0%,0%);stroke-opacity:1;stroke-miterlimit:10;" d="M 484.269531 184.65625 C 484.269531 201.226562 470.839844 214.65625 454.269531 214.65625 C 437.699219 214.65625 424.269531 201.226562 424.269531 184.65625 C 424.269531 168.089844 437.699219 154.65625 454.269531 154.65625 C 470.839844 154.65625 484.269531 168.089844 484.269531 184.65625 "/>
<path style="fill-rule:nonzero;fill:rgb(100%,0%,0%);fill-opacity:1;stroke-width:1;stroke-linecap:butt;stroke-linejoin:round;stroke:rgb(0%,0%,0%);stroke-opacity:1;stroke-miterlimit:10;" d="M 470.484375 91.996094 C 470.484375 108.5625 457.054688 121.996094 440.484375 121.996094 C 423.917969 121.996094 410.484375 108.5625 410.484375 91.996094 C 410.484375 75.425781 423.917969 61.996094 440.484375 61.996094 C 457.054688 61.996094 470.484375 75.425781 470.484375 91.996094 "/>
</g>
</svg>
