<?xml version="1.0" encoding="UTF-8"?>
<svg xmlns="http://www.w3.org/2000/svg" xmlns:xlink="http://www.w3.org/1999/xlink" width="517pt" height="517pt" viewBox="0 0 517 517" version="1.1">
<g id="surface8526">
<rect x="0" y="0" width="517" height="517" style="fill:rgb(90%,90%,90%);fill-opacity:1;stroke:none;"/>
<path style="fill:none;stroke-width:5;stroke-linecap:butt;stroke-linejoin:round;stroke:rgb(100%,0%,0%);stroke-opacity:1;stroke-miterlimit:10;" d="M 261 5 L 517 5 L 517 261 L 261 261 Z M 261 5 "/>
<path style="fill-rule:nonzero;fill:rgb(50%,0%,50%);fill-opacity:1;stroke-width:1;stroke-linecap:butt;stroke-linejoin:round;stroke:rgb(0%,0%,0%);stroke-opacity:1;stroke-miterlimit:10;" d="M 439.730469 149.105469 C 439.730469 165.671875 426.300781 179.105469 409.730469 179.105469 C 393.160156 179.105469 379.730469 165.671875 379.730469 149.105469 C 379.730469 132.535156 393.160156 119.105469 409.730469 119.105469 C 426.300781 119.105469 439.730469 132.535156 439.730469 149.105469 "/>
<path style="fill-rule:nonzero;fill:rgb(0%,0%,0%);fill-opacity:1;stroke-width:1;stroke-linecap:butt;stroke-linejoin:round;stroke:rgb(0%,0%,0%);stroke-opacity:1;stroke-miterlimit:10;" d="M 92.046875 441.902344 C 92.046875 458.472656 78.617188 471.902344 62.046875 471.902344 C 45.480469 471.902344 32.046875 458.472656 32.046875 441.902344 C 32.046875 425.335938 45.480469 411.902344 62.046875 411.902344 C 78.617188 411.902344 92.046875 425.335938 92.046875 441.902344 "/>
<path style="fill-rule:nonzero;fill:rgb(0%,0%,0%);fill-opacity:1;stroke-width:1;stroke-linecap:butt;stroke-linejoin:round;stroke:rgb(0%,0%,0%);stroke-opacity:1;stroke-miterlimit:10;" d="M 439.226562 414.667969 C 439.226562 431.234375 425.792969 444.667969 409.226562 444.667969 C 392.65625 444.667969 379.226562 431.234375 379.226562 414.667969 C 379.226562 398.097656 392.65625 384.667969 409.226562 384.667969 C 425.792969 384.667969 439.226562 398.097656 439.226562 414.667969 "/>
<path style="fill-rule:nonzero;fill:rgb(0%,0%,0%);fill-opacity:1;stroke-width:1;stroke-linecap:butt;stroke-linejoin:round;stroke:rgb(0%,0%,0%);stroke-opacity:1;stroke-miterlimit:10;" d="M 387.914062 475.632812 C 387.914062 492.203125 374.480469 505.632812 357.914062 505.632812 C 341.34375 505.632812 327.914062 492.203125 327.914062 475.632812 C 327.914062 459.066406 341.34375 445.632812 357.914062 445.632812 C 374.480469 445.632812 387.914062 459.066406 387.914062 475.632812 "/>
<path style="fill-rule:nonzero;fill:rgb(0%,0%,0%);fill-opacity:1;stroke-width:1;stroke-linecap:butt;stroke-linejoin:round;stroke:rgb(0%,0%,0%);stroke-opacity:1;stroke-miterlimit:10;" d="M 67.292969 94.007812 C 67.292969 110.574219 53.863281 124.007812 37.292969 124.007812 C 20.726562 124.007812 7.292969 110.574219 7.292969 94.007812 C 7.292969 77.4375 20.726562 64.007812 37.292969 64.007812 C 53.863281 64.007812 67.292969 77.4375 67.292969 94.007812 "/>
</g>
</svg>
