<?xml version="1.0" encoding="UTF-8"?>
<svg xmlns="http://www.w3.org/2000/svg" xmlns:xlink="http://www.w3.org/1999/xlink" width="517pt" height="517pt" viewBox="0 0 517 517" version="1.1">
<g id="surface3856">
<rect x="0" y="0" width="517" height="517" style="fill:rgb(90%,90%,90%);fill-opacity:1;stroke:none;"/>
<path style="fill:none;stroke-width:5;stroke-linecap:butt;stroke-linejoin:round;stroke:rgb(100%,0%,0%);stroke-opacity:1;stroke-miterlimit:10;" d="M 5 5 L 261 5 L 261 261 L 5 261 Z M 5 5 "/>
<path style="fill-rule:nonzero;fill:rgb(100%,7%,57%);fill-opacity:1;stroke-width:1;stroke-linecap:butt;stroke-linejoin:round;stroke:rgb(0%,0%,0%);stroke-opacity:1;stroke-miterlimit:10;" d="M 224.121094 76.765625 C 224.121094 93.335938 210.691406 106.765625 194.121094 106.765625 C 177.554688 106.765625 164.121094 93.335938 164.121094 76.765625 C 164.121094 60.199219 177.554688 46.765625 194.121094 46.765625 C 210.691406 46.765625 224.121094 60.199219 224.121094 76.765625 "/>
<path style="fill-rule:nonzero;fill:rgb(100%,100%,0%);fill-opacity:1;stroke-width:1;stroke-linecap:butt;stroke-linejoin:round;stroke:rgb(0%,0%,0%);stroke-opacity:1;stroke-miterlimit:10;" d="M 433.425781 168.984375 C 433.425781 185.550781 419.996094 198.984375 403.425781 198.984375 C 386.859375 198.984375 373.425781 185.550781 373.425781 168.984375 C 373.425781 152.414062 386.859375 138.984375 403.425781 138.984375 C 419.996094 138.984375 433.425781 152.414062 433.425781 168.984375 "/>
<path style="fill-rule:nonzero;fill:rgb(100%,100%,0%);fill-opacity:1;stroke-width:1;stroke-linecap:butt;stroke-linejoin:round;stroke:rgb(0%,0%,0%);stroke-opacity:1;stroke-miterlimit:10;" d="M 421.835938 291.042969 C 421.835938 307.609375 408.40625 321.042969 391.835938 321.042969 C 375.269531 321.042969 361.835938 307.609375 361.835938 291.042969 C 361.835938 274.472656 375.269531 261.042969 391.835938 261.042969 C 408.40625 261.042969 421.835938 274.472656 421.835938 291.042969 "/>
<path style="fill-rule:nonzero;fill:rgb(100%,100%,0%);fill-opacity:1;stroke-width:1;stroke-linecap:butt;stroke-linejoin:round;stroke:rgb(0%,0%,0%);stroke-opacity:1;stroke-miterlimit:10;" d="M 156.867188 314.003906 C 156.867188 330.574219 143.4375 344.003906 126.867188 344.003906 C 110.300781 344.003906 96.867188 330.574219 96.867188 314.003906 C 96.867188 297.4375 110.300781 284.003906 126.867188 284.003906 C 143.4375 284.003906 156.867188 297.4375 156.867188 314.003906 "/>
<path style="fill-rule:nonzero;fill:rgb(100%,100%,0%);fill-opacity:1;stroke-width:1;stroke-linecap:butt;stroke-linejoin:round;stroke:rgb(0%,0%,0%);stroke-opacity:1;stroke-miterlimit:10;" d="M 86.558594 444.332031 C 86.558594 460.898438 73.128906 474.332031 56.558594 474.332031 C 39.992188 474.332031 26.558594 460.898438 26.558594 444.332031 C 26.558594 427.761719 39.992188 414.332031 56.558594 414.332031 C 73.128906 414.332031 86.558594 427.761719 86.558594 444.332031 "/>
<path style="fill-rule:nonzero;fill:rgb(100%,100%,0%);fill-opacity:1;stroke-width:1;stroke-linecap:butt;stroke-linejoin:round;stroke:rgb(0%,0%,0%);stroke-opacity:1;stroke-miterlimit:10;" d="M 188.015625 439.691406 C 188.015625 456.261719 174.585938 469.691406 158.015625 469.691406 C 141.449219 469.691406 128.015625 456.261719 128.015625 439.691406 C 128.015625 423.125 141.449219 409.691406 158.015625 409.691406 C 174.585938 409.691406 188.015625 423.125 188.015625 439.691406 "/>
</g>
</svg>
