<?xml version="1.0" encoding="UTF-8"?>
<svg xmlns="http://www.w3.org/2000/svg" xmlns:xlink="http://www.w3.org/1999/xlink" width="517pt" height="517pt" viewBox="0 0 517 517" version="1.1">
<g id="surface3261">
<rect x="0" y="0" width="517" height="517" style="fill:rgb(90%,90%,90%);fill-opacity:1;stroke:none;"/>
<path style="fill:none;stroke-width:5;stroke-linecap:butt;stroke-linejoin:round;stroke:rgb(100%,0%,0%);stroke-opacity:1;stroke-miterlimit:10;" d="M 261 261 L 517 261 L 517 517 L 261 517 Z M 261 261 "/>
<path style="fill-rule:nonzero;fill:rgb(100%,7%,57%);fill-opacity:1;stroke-width:1;stroke-linecap:butt;stroke-linejoin:round;stroke:rgb(0%,0%,0%);stroke-opacity:1;stroke-miterlimit:10;" d="M 345.421875 376.664062 C 345.421875 393.230469 331.992188 406.664062 315.421875 406.664062 C 298.855469 406.664062 285.421875 393.230469 285.421875 376.664062 C 285.421875 360.09375 298.855469 346.664062 315.421875 346.664062 C 331.992188 346.664062 345.421875 360.09375 345.421875 376.664062 "/>
<path style="fill-rule:nonzero;fill:rgb(100%,7%,57%);fill-opacity:1;stroke-width:1;stroke-linecap:butt;stroke-linejoin:round;stroke:rgb(0%,0%,0%);stroke-opacity:1;stroke-miterlimit:10;" d="M 111.996094 72.09375 C 111.996094 88.664062 98.5625 102.09375 81.996094 102.09375 C 65.425781 102.09375 51.996094 88.664062 51.996094 72.09375 C 51.996094 55.527344 65.425781 42.09375 81.996094 42.09375 C 98.5625 42.09375 111.996094 55.527344 111.996094 72.09375 "/>
<path style="fill-rule:nonzero;fill:rgb(100%,7%,57%);fill-opacity:1;stroke-width:1;stroke-linecap:butt;stroke-linejoin:round;stroke:rgb(0%,0%,0%);stroke-opacity:1;stroke-miterlimit:10;" d="M 119.671875 150.535156 C 119.671875 167.101562 106.242188 180.535156 89.671875 180.535156 C 73.105469 180.535156 59.671875 167.101562 59.671875 150.535156 C 59.671875 133.964844 73.105469 120.535156 89.671875 120.535156 C 106.242188 120.535156 119.671875 133.964844 119.671875 150.535156 "/>
<path style="fill-rule:nonzero;fill:rgb(100%,7%,57%);fill-opacity:1;stroke-width:1;stroke-linecap:butt;stroke-linejoin:round;stroke:rgb(0%,0%,0%);stroke-opacity:1;stroke-miterlimit:10;" d="M 368.265625 57.132812 C 368.265625 73.703125 354.835938 87.132812 338.265625 87.132812 C 321.699219 87.132812 308.265625 73.703125 308.265625 57.132812 C 308.265625 40.566406 321.699219 27.132812 338.265625 27.132812 C 354.835938 27.132812 368.265625 40.566406 368.265625 57.132812 "/>
<path style="fill-rule:nonzero;fill:rgb(25%,88%,82%);fill-opacity:1;stroke-width:1;stroke-linecap:butt;stroke-linejoin:round;stroke:rgb(0%,0%,0%);stroke-opacity:1;stroke-miterlimit:10;" d="M 125.171875 294.03125 C 125.171875 310.597656 111.738281 324.03125 95.171875 324.03125 C 78.601562 324.03125 65.171875 310.597656 65.171875 294.03125 C 65.171875 277.460938 78.601562 264.03125 95.171875 264.03125 C 111.738281 264.03125 125.171875 277.460938 125.171875 294.03125 "/>
</g>
</svg>
