<?xml version="1.0" encoding="UTF-8"?>
<svg xmlns="http://www.w3.org/2000/svg" xmlns:xlink="http://www.w3.org/1999/xlink" width="517pt" height="517pt" viewBox="0 0 517 517" version="1.1">
<g id="surface9026">
<rect x="0" y="0" width="517" height="517" style="fill:rgb(90%,90%,90%);fill-opacity:1;stroke:none;"/>
<path style="fill:none;stroke-width:5;stroke-linecap:butt;stroke-linejoin:round;stroke:rgb(100%,0%,0%);stroke-opacity:1;stroke-miterlimit:10;" d="M 5 5 L 261 5 L 261 261 L 5 261 Z M 5 5 "/>
<path style="fill-rule:nonzero;fill:rgb(35%,70%,90%);fill-opacity:1;stroke-width:1;stroke-linecap:butt;stroke-linejoin:round;stroke:rgb(0%,0%,0%);stroke-opacity:1;stroke-miterlimit:10;" d="M 89.257812 91.117188 L 69.257812 91.117188 L 69.257812 101.117188 L 89.257812 101.117188 L 89.257812 121.117188 L 99.257812 121.117188 L 99.257812 101.117188 L 119.257812 101.117188 L 119.257812 91.117188 L 99.257812 91.117188 L 99.257812 71.117188 L 89.257812 71.117188 L 89.257812 91.117188 "/>
<path style="fill-rule:nonzero;fill:rgb(50%,0%,50%);fill-opacity:1;stroke-width:1;stroke-linecap:butt;stroke-linejoin:round;stroke:rgb(0%,0%,0%);stroke-opacity:1;stroke-miterlimit:10;" d="M 311.320312 360.523438 L 291.320312 360.523438 L 291.320312 370.523438 L 311.320312 370.523438 L 311.320312 390.523438 L 321.320312 390.523438 L 321.320312 370.523438 L 341.320312 370.523438 L 341.320312 360.523438 L 321.320312 360.523438 L 321.320312 340.523438 L 311.320312 340.523438 L 311.320312 360.523438 "/>
<path style="fill-rule:nonzero;fill:rgb(50%,0%,50%);fill-opacity:1;stroke-width:1;stroke-linecap:butt;stroke-linejoin:round;stroke:rgb(0%,0%,0%);stroke-opacity:1;stroke-miterlimit:10;" d="M 365.617188 333.710938 L 345.617188 333.710938 L 345.617188 343.710938 L 365.617188 343.710938 L 365.617188 363.710938 L 375.617188 363.710938 L 375.617188 343.710938 L 395.617188 343.710938 L 395.617188 333.710938 L 375.617188 333.710938 L 375.617188 313.710938 L 365.617188 313.710938 L 365.617188 333.710938 "/>
<path style="fill-rule:nonzero;fill:rgb(50%,0%,50%);fill-opacity:1;stroke-width:1;stroke-linecap:butt;stroke-linejoin:round;stroke:rgb(0%,0%,0%);stroke-opacity:1;stroke-miterlimit:10;" d="M 70.777344 320.789062 L 50.777344 320.789062 L 50.777344 330.789062 L 70.777344 330.789062 L 70.777344 350.789062 L 80.777344 350.789062 L 80.777344 330.789062 L 100.777344 330.789062 L 100.777344 320.789062 L 80.777344 320.789062 L 80.777344 300.789062 L 70.777344 300.789062 L 70.777344 320.789062 "/>
<path style="fill-rule:nonzero;fill:rgb(50%,0%,50%);fill-opacity:1;stroke-width:1;stroke-linecap:butt;stroke-linejoin:round;stroke:rgb(0%,0%,0%);stroke-opacity:1;stroke-miterlimit:10;" d="M 371.585938 214.183594 L 351.585938 214.183594 L 351.585938 224.183594 L 371.585938 224.183594 L 371.585938 244.183594 L 381.585938 244.183594 L 381.585938 224.183594 L 401.585938 224.183594 L 401.585938 214.183594 L 381.585938 214.183594 L 381.585938 194.183594 L 371.585938 194.183594 L 371.585938 214.183594 "/>
<path style="fill-rule:nonzero;fill:rgb(50%,0%,50%);fill-opacity:1;stroke-width:1;stroke-linecap:butt;stroke-linejoin:round;stroke:rgb(0%,0%,0%);stroke-opacity:1;stroke-miterlimit:10;" d="M 456.203125 215.058594 L 436.203125 215.058594 L 436.203125 225.058594 L 456.203125 225.058594 L 456.203125 245.058594 L 466.203125 245.058594 L 466.203125 225.058594 L 486.203125 225.058594 L 486.203125 215.058594 L 466.203125 215.058594 L 466.203125 195.058594 L 456.203125 195.058594 L 456.203125 215.058594 "/>
</g>
</svg>
