<?xml version="1.0" encoding="UTF-8"?>
<svg xmlns="http://www.w3.org/2000/svg" xmlns:xlink="http://www.w3.org/1999/xlink" width="517pt" height="517pt" viewBox="0 0 517 517" version="1.1">
<g id="surface3626">
<rect x="0" y="0" width="517" height="517" style="fill:rgb(90%,90%,90%);fill-opacity:1;stroke:none;"/>
<path style="fill:none;stroke-width:5;stroke-linecap:butt;stroke-linejoin:round;stroke:rgb(100%,0%,0%);stroke-opacity:1;stroke-miterlimit:10;" d="M 5 5 L 261 5 L 261 261 L 5 261 Z M 5 5 "/>
<path style="fill-rule:nonzero;fill:rgb(100%,100%,0%);fill-opacity:1;stroke-width:1;stroke-linecap:butt;stroke-linejoin:round;stroke:rgb(0%,0%,0%);stroke-opacity:1;stroke-miterlimit:10;" d="M 168.738281 123.953125 L 148.738281 123.953125 L 148.738281 133.953125 L 168.738281 133.953125 L 168.738281 153.953125 L 178.738281 153.953125 L 178.738281 133.953125 L 198.738281 133.953125 L 198.738281 123.953125 L 178.738281 123.953125 L 178.738281 103.953125 L 168.738281 103.953125 L 168.738281 123.953125 "/>
<path style="fill-rule:nonzero;fill:rgb(35%,70%,90%);fill-opacity:1;stroke-width:1;stroke-linecap:butt;stroke-linejoin:round;stroke:rgb(0%,0%,0%);stroke-opacity:1;stroke-miterlimit:10;" d="M 210.210938 365.402344 L 190.210938 365.402344 L 190.210938 375.402344 L 210.210938 375.402344 L 210.210938 395.402344 L 220.210938 395.402344 L 220.210938 375.402344 L 240.210938 375.402344 L 240.210938 365.402344 L 220.210938 365.402344 L 220.210938 345.402344 L 210.210938 345.402344 L 210.210938 365.402344 "/>
<path style="fill-rule:nonzero;fill:rgb(35%,70%,90%);fill-opacity:1;stroke-width:1;stroke-linecap:butt;stroke-linejoin:round;stroke:rgb(0%,0%,0%);stroke-opacity:1;stroke-miterlimit:10;" d="M 151.738281 452.769531 L 131.738281 452.769531 L 131.738281 462.769531 L 151.738281 462.769531 L 151.738281 482.769531 L 161.738281 482.769531 L 161.738281 462.769531 L 181.738281 462.769531 L 181.738281 452.769531 L 161.738281 452.769531 L 161.738281 432.769531 L 151.738281 432.769531 L 151.738281 452.769531 "/>
<path style="fill-rule:nonzero;fill:rgb(35%,70%,90%);fill-opacity:1;stroke-width:1;stroke-linecap:butt;stroke-linejoin:round;stroke:rgb(0%,0%,0%);stroke-opacity:1;stroke-miterlimit:10;" d="M 394.433594 403.800781 L 374.433594 403.800781 L 374.433594 413.800781 L 394.433594 413.800781 L 394.433594 433.800781 L 404.433594 433.800781 L 404.433594 413.800781 L 424.433594 413.800781 L 424.433594 403.800781 L 404.433594 403.800781 L 404.433594 383.800781 L 394.433594 383.800781 L 394.433594 403.800781 "/>
<path style="fill-rule:nonzero;fill:rgb(35%,70%,90%);fill-opacity:1;stroke-width:1;stroke-linecap:butt;stroke-linejoin:round;stroke:rgb(0%,0%,0%);stroke-opacity:1;stroke-miterlimit:10;" d="M 466.871094 432.488281 L 446.871094 432.488281 L 446.871094 442.488281 L 466.871094 442.488281 L 466.871094 462.488281 L 476.871094 462.488281 L 476.871094 442.488281 L 496.871094 442.488281 L 496.871094 432.488281 L 476.871094 432.488281 L 476.871094 412.488281 L 466.871094 412.488281 L 466.871094 432.488281 "/>
<path style="fill-rule:nonzero;fill:rgb(100%,100%,0%);fill-opacity:1;stroke-width:1;stroke-linecap:butt;stroke-linejoin:round;stroke:rgb(0%,0%,0%);stroke-opacity:1;stroke-miterlimit:10;" d="M 406.867188 321.632812 L 386.867188 321.632812 L 386.867188 331.632812 L 406.867188 331.632812 L 406.867188 351.632812 L 416.867188 351.632812 L 416.867188 331.632812 L 436.867188 331.632812 L 436.867188 321.632812 L 416.867188 321.632812 L 416.867188 301.632812 L 406.867188 301.632812 L 406.867188 321.632812 "/>
</g>
</svg>
