<?xml version="1.0" encoding="UTF-8"?>
<svg xmlns="http://www.w3.org/2000/svg" xmlns:xlink="http://www.w3.org/1999/xlink" width="517pt" height="517pt" viewBox="0 0 517 517" version="1.1">
<g id="surface3226">
<rect x="0" y="0" width="517" height="517" style="fill:rgb(90%,90%,90%);fill-opacity:1;stroke:none;"/>
<path style="fill:none;stroke-width:5;stroke-linecap:butt;stroke-linejoin:round;stroke:rgb(100%,0%,0%);stroke-opacity:1;stroke-miterlimit:10;" d="M 261 261 L 517 261 L 517 517 L 261 517 Z M 261 261 "/>
<path style="fill-rule:nonzero;fill:rgb(25%,88%,82%);fill-opacity:1;stroke-width:1;stroke-linecap:butt;stroke-linejoin:round;stroke:rgb(0%,0%,0%);stroke-opacity:1;stroke-miterlimit:10;" d="M 355.792969 363.140625 C 355.792969 379.707031 342.359375 393.140625 325.792969 393.140625 C 309.222656 393.140625 295.792969 379.707031 295.792969 363.140625 C 295.792969 346.570312 309.222656 333.140625 325.792969 333.140625 C 342.359375 333.140625 355.792969 346.570312 355.792969 363.140625 "/>
<path style="fill-rule:nonzero;fill:rgb(100%,7%,57%);fill-opacity:1;stroke-width:1;stroke-linecap:butt;stroke-linejoin:round;stroke:rgb(0%,0%,0%);stroke-opacity:1;stroke-miterlimit:10;" d="M 207.769531 145.921875 C 207.769531 162.492188 194.339844 175.921875 177.769531 175.921875 C 161.203125 175.921875 147.769531 162.492188 147.769531 145.921875 C 147.769531 129.351562 161.203125 115.921875 177.769531 115.921875 C 194.339844 115.921875 207.769531 129.351562 207.769531 145.921875 "/>
<path style="fill-rule:nonzero;fill:rgb(100%,7%,57%);fill-opacity:1;stroke-width:1;stroke-linecap:butt;stroke-linejoin:round;stroke:rgb(0%,0%,0%);stroke-opacity:1;stroke-miterlimit:10;" d="M 358.851562 85.828125 C 358.851562 102.398438 345.421875 115.828125 328.851562 115.828125 C 312.285156 115.828125 298.851562 102.398438 298.851562 85.828125 C 298.851562 69.261719 312.285156 55.828125 328.851562 55.828125 C 345.421875 55.828125 358.851562 69.261719 358.851562 85.828125 "/>
<path style="fill-rule:nonzero;fill:rgb(100%,7%,57%);fill-opacity:1;stroke-width:1;stroke-linecap:butt;stroke-linejoin:round;stroke:rgb(0%,0%,0%);stroke-opacity:1;stroke-miterlimit:10;" d="M 491.5625 190.023438 C 491.5625 206.59375 478.132812 220.023438 461.5625 220.023438 C 444.996094 220.023438 431.5625 206.59375 431.5625 190.023438 C 431.5625 173.457031 444.996094 160.023438 461.5625 160.023438 C 478.132812 160.023438 491.5625 173.457031 491.5625 190.023438 "/>
<path style="fill-rule:nonzero;fill:rgb(25%,88%,82%);fill-opacity:1;stroke-width:1;stroke-linecap:butt;stroke-linejoin:round;stroke:rgb(0%,0%,0%);stroke-opacity:1;stroke-miterlimit:10;" d="M 381.402344 187.511719 C 381.402344 204.082031 367.972656 217.511719 351.402344 217.511719 C 334.835938 217.511719 321.402344 204.082031 321.402344 187.511719 C 321.402344 170.945312 334.835938 157.511719 351.402344 157.511719 C 367.972656 157.511719 381.402344 170.945312 381.402344 187.511719 "/>
</g>
</svg>
