<?xml version="1.0" encoding="UTF-8"?>
<svg xmlns="http://www.w3.org/2000/svg" xmlns:xlink="http://www.w3.org/1999/xlink" width="517pt" height="517pt" viewBox="0 0 517 517" version="1.1">
<g id="surface8696">
<rect x="0" y="0" width="517" height="517" style="fill:rgb(90%,90%,90%);fill-opacity:1;stroke:none;"/>
<path style="fill:none;stroke-width:5;stroke-linecap:butt;stroke-linejoin:round;stroke:rgb(100%,0%,0%);stroke-opacity:1;stroke-miterlimit:10;" d="M 5 5 L 261 5 L 261 261 L 5 261 Z M 5 5 "/>
<path style="fill-rule:nonzero;fill:rgb(100%,0%,0%);fill-opacity:1;stroke-width:1;stroke-linecap:butt;stroke-linejoin:round;stroke:rgb(0%,0%,0%);stroke-opacity:1;stroke-miterlimit:10;" d="M 183.203125 163.9375 C 183.203125 180.507812 169.769531 193.9375 153.203125 193.9375 C 136.632812 193.9375 123.203125 180.507812 123.203125 163.9375 C 123.203125 147.371094 136.632812 133.9375 153.203125 133.9375 C 169.769531 133.9375 183.203125 147.371094 183.203125 163.9375 "/>
<path style="fill-rule:nonzero;fill:rgb(90%,65%,0%);fill-opacity:1;stroke-width:1;stroke-linecap:butt;stroke-linejoin:round;stroke:rgb(0%,0%,0%);stroke-opacity:1;stroke-miterlimit:10;" d="M 328.042969 139.015625 C 328.042969 155.585938 314.613281 169.015625 298.042969 169.015625 C 281.476562 169.015625 268.042969 155.585938 268.042969 139.015625 C 268.042969 122.445312 281.476562 109.015625 298.042969 109.015625 C 314.613281 109.015625 328.042969 122.445312 328.042969 139.015625 "/>
<path style="fill-rule:nonzero;fill:rgb(90%,65%,0%);fill-opacity:1;stroke-width:1;stroke-linecap:butt;stroke-linejoin:round;stroke:rgb(0%,0%,0%);stroke-opacity:1;stroke-miterlimit:10;" d="M 137.519531 422.816406 C 137.519531 439.386719 124.089844 452.816406 107.519531 452.816406 C 90.953125 452.816406 77.519531 439.386719 77.519531 422.816406 C 77.519531 406.25 90.953125 392.816406 107.519531 392.816406 C 124.089844 392.816406 137.519531 406.25 137.519531 422.816406 "/>
<path style="fill-rule:nonzero;fill:rgb(90%,65%,0%);fill-opacity:1;stroke-width:1;stroke-linecap:butt;stroke-linejoin:round;stroke:rgb(0%,0%,0%);stroke-opacity:1;stroke-miterlimit:10;" d="M 186.574219 467.410156 C 186.574219 483.976562 173.140625 497.410156 156.574219 497.410156 C 140.003906 497.410156 126.574219 483.976562 126.574219 467.410156 C 126.574219 450.839844 140.003906 437.410156 156.574219 437.410156 C 173.140625 437.410156 186.574219 450.839844 186.574219 467.410156 "/>
<path style="fill-rule:nonzero;fill:rgb(90%,65%,0%);fill-opacity:1;stroke-width:1;stroke-linecap:butt;stroke-linejoin:round;stroke:rgb(0%,0%,0%);stroke-opacity:1;stroke-miterlimit:10;" d="M 99.6875 295.960938 C 99.6875 312.53125 86.253906 325.960938 69.6875 325.960938 C 53.117188 325.960938 39.6875 312.53125 39.6875 295.960938 C 39.6875 279.390625 53.117188 265.960938 69.6875 265.960938 C 86.253906 265.960938 99.6875 279.390625 99.6875 295.960938 "/>
</g>
</svg>
