<?xml version="1.0" encoding="UTF-8"?>
<svg xmlns="http://www.w3.org/2000/svg" xmlns:xlink="http://www.w3.org/1999/xlink" width="517pt" height="517pt" viewBox="0 0 517 517" version="1.1">
<g id="surface8536">
<rect x="0" y="0" width="517" height="517" style="fill:rgb(90%,90%,90%);fill-opacity:1;stroke:none;"/>
<path style="fill:none;stroke-width:5;stroke-linecap:butt;stroke-linejoin:round;stroke:rgb(100%,0%,0%);stroke-opacity:1;stroke-miterlimit:10;" d="M 261 5 L 517 5 L 517 261 L 261 261 Z M 261 5 "/>
<path style="fill-rule:nonzero;fill:rgb(50%,0%,50%);fill-opacity:1;stroke-width:1;stroke-linecap:butt;stroke-linejoin:round;stroke:rgb(0%,0%,0%);stroke-opacity:1;stroke-miterlimit:10;" d="M 493.5 104.996094 C 493.5 121.566406 480.066406 134.996094 463.5 134.996094 C 446.929688 134.996094 433.5 121.566406 433.5 104.996094 C 433.5 88.429688 446.929688 74.996094 463.5 74.996094 C 480.066406 74.996094 493.5 88.429688 493.5 104.996094 "/>
<path style="fill-rule:nonzero;fill:rgb(100%,100%,0%);fill-opacity:1;stroke-width:1;stroke-linecap:butt;stroke-linejoin:round;stroke:rgb(0%,0%,0%);stroke-opacity:1;stroke-miterlimit:10;" d="M 72.738281 309.144531 C 72.738281 325.714844 59.304688 339.144531 42.738281 339.144531 C 26.167969 339.144531 12.738281 325.714844 12.738281 309.144531 C 12.738281 292.578125 26.167969 279.144531 42.738281 279.144531 C 59.304688 279.144531 72.738281 292.578125 72.738281 309.144531 "/>
<path style="fill-rule:nonzero;fill:rgb(100%,100%,0%);fill-opacity:1;stroke-width:1;stroke-linecap:butt;stroke-linejoin:round;stroke:rgb(0%,0%,0%);stroke-opacity:1;stroke-miterlimit:10;" d="M 472.46875 340.957031 C 472.46875 357.523438 459.039062 370.957031 442.46875 370.957031 C 425.902344 370.957031 412.46875 357.523438 412.46875 340.957031 C 412.46875 324.386719 425.902344 310.957031 442.46875 310.957031 C 459.039062 310.957031 472.46875 324.386719 472.46875 340.957031 "/>
<path style="fill-rule:nonzero;fill:rgb(100%,100%,0%);fill-opacity:1;stroke-width:1;stroke-linecap:butt;stroke-linejoin:round;stroke:rgb(0%,0%,0%);stroke-opacity:1;stroke-miterlimit:10;" d="M 330.542969 411.964844 C 330.542969 428.535156 317.109375 441.964844 300.542969 441.964844 C 283.972656 441.964844 270.542969 428.535156 270.542969 411.964844 C 270.542969 395.394531 283.972656 381.964844 300.542969 381.964844 C 317.109375 381.964844 330.542969 395.394531 330.542969 411.964844 "/>
<path style="fill-rule:nonzero;fill:rgb(100%,100%,0%);fill-opacity:1;stroke-width:1;stroke-linecap:butt;stroke-linejoin:round;stroke:rgb(0%,0%,0%);stroke-opacity:1;stroke-miterlimit:10;" d="M 464.738281 450.71875 C 464.738281 467.285156 451.304688 480.71875 434.738281 480.71875 C 418.167969 480.71875 404.738281 467.285156 404.738281 450.71875 C 404.738281 434.148438 418.167969 420.71875 434.738281 420.71875 C 451.304688 420.71875 464.738281 434.148438 464.738281 450.71875 "/>
</g>
</svg>
