<?xml version="1.0" encoding="UTF-8"?>
<svg xmlns="http://www.w3.org/2000/svg" xmlns:xlink="http://www.w3.org/1999/xlink" width="517pt" height="517pt" viewBox="0 0 517 517" version="1.1">
<g id="surface8446">
<rect x="0" y="0" width="517" height="517" style="fill:rgb(90%,90%,90%);fill-opacity:1;stroke:none;"/>
<path style="fill:none;stroke-width:5;stroke-linecap:butt;stroke-linejoin:round;stroke:rgb(100%,0%,0%);stroke-opacity:1;stroke-miterlimit:10;" d="M 5 261 L 261 261 L 261 517 L 5 517 Z M 5 261 "/>
<path style="fill-rule:nonzero;fill:rgb(100%,100%,0%);fill-opacity:1;stroke-width:1;stroke-linecap:butt;stroke-linejoin:round;stroke:rgb(0%,0%,0%);stroke-opacity:1;stroke-miterlimit:10;" d="M 70.316406 303.859375 C 70.316406 320.425781 56.882812 333.859375 40.316406 333.859375 C 23.746094 333.859375 10.316406 320.425781 10.316406 303.859375 C 10.316406 287.289062 23.746094 273.859375 40.316406 273.859375 C 56.882812 273.859375 70.316406 287.289062 70.316406 303.859375 "/>
<path style="fill-rule:nonzero;fill:rgb(35%,70%,90%);fill-opacity:1;stroke-width:1;stroke-linecap:butt;stroke-linejoin:round;stroke:rgb(0%,0%,0%);stroke-opacity:1;stroke-miterlimit:10;" d="M 484.4375 438.535156 C 484.4375 455.101562 471.003906 468.535156 454.4375 468.535156 C 437.867188 468.535156 424.4375 455.101562 424.4375 438.535156 C 424.4375 421.964844 437.867188 408.535156 454.4375 408.535156 C 471.003906 408.535156 484.4375 421.964844 484.4375 438.535156 "/>
<path style="fill-rule:nonzero;fill:rgb(35%,70%,90%);fill-opacity:1;stroke-width:1;stroke-linecap:butt;stroke-linejoin:round;stroke:rgb(0%,0%,0%);stroke-opacity:1;stroke-miterlimit:10;" d="M 326.578125 316.832031 C 326.578125 333.398438 313.144531 346.832031 296.578125 346.832031 C 280.007812 346.832031 266.578125 333.398438 266.578125 316.832031 C 266.578125 300.261719 280.007812 286.832031 296.578125 286.832031 C 313.144531 286.832031 326.578125 300.261719 326.578125 316.832031 "/>
<path style="fill-rule:nonzero;fill:rgb(35%,70%,90%);fill-opacity:1;stroke-width:1;stroke-linecap:butt;stroke-linejoin:round;stroke:rgb(0%,0%,0%);stroke-opacity:1;stroke-miterlimit:10;" d="M 200.886719 63.578125 C 200.886719 80.144531 187.453125 93.578125 170.886719 93.578125 C 154.316406 93.578125 140.886719 80.144531 140.886719 63.578125 C 140.886719 47.007812 154.316406 33.578125 170.886719 33.578125 C 187.453125 33.578125 200.886719 47.007812 200.886719 63.578125 "/>
<path style="fill-rule:nonzero;fill:rgb(35%,70%,90%);fill-opacity:1;stroke-width:1;stroke-linecap:butt;stroke-linejoin:round;stroke:rgb(0%,0%,0%);stroke-opacity:1;stroke-miterlimit:10;" d="M 456.757812 104.128906 C 456.757812 120.699219 443.328125 134.128906 426.757812 134.128906 C 410.191406 134.128906 396.757812 120.699219 396.757812 104.128906 C 396.757812 87.5625 410.191406 74.128906 426.757812 74.128906 C 443.328125 74.128906 456.757812 87.5625 456.757812 104.128906 "/>
</g>
</svg>
