<?xml version="1.0" encoding="UTF-8"?>
<svg xmlns="http://www.w3.org/2000/svg" xmlns:xlink="http://www.w3.org/1999/xlink" width="517pt" height="517pt" viewBox="0 0 517 517" version="1.1">
<g id="surface9036">
<rect x="0" y="0" width="517" height="517" style="fill:rgb(90%,90%,90%);fill-opacity:1;stroke:none;"/>
<path style="fill:none;stroke-width:5;stroke-linecap:butt;stroke-linejoin:round;stroke:rgb(100%,0%,0%);stroke-opacity:1;stroke-miterlimit:10;" d="M 5 5 L 261 5 L 261 261 L 5 261 Z M 5 5 "/>
<path style="fill-rule:nonzero;fill:rgb(35%,70%,90%);fill-opacity:1;stroke-width:1;stroke-linecap:butt;stroke-linejoin:round;stroke:rgb(0%,0%,0%);stroke-opacity:1;stroke-miterlimit:10;" d="M 107.804688 194.613281 L 87.804688 194.613281 L 87.804688 204.613281 L 107.804688 204.613281 L 107.804688 224.613281 L 117.804688 224.613281 L 117.804688 204.613281 L 137.804688 204.613281 L 137.804688 194.613281 L 117.804688 194.613281 L 117.804688 174.613281 L 107.804688 174.613281 L 107.804688 194.613281 "/>
<path style="fill-rule:nonzero;fill:rgb(35%,70%,90%);fill-opacity:1;stroke-width:1;stroke-linecap:butt;stroke-linejoin:round;stroke:rgb(0%,0%,0%);stroke-opacity:1;stroke-miterlimit:10;" d="M 431.960938 342.191406 L 411.960938 342.191406 L 411.960938 352.191406 L 431.960938 352.191406 L 431.960938 372.191406 L 441.960938 372.191406 L 441.960938 352.191406 L 461.960938 352.191406 L 461.960938 342.191406 L 441.960938 342.191406 L 441.960938 322.191406 L 431.960938 322.191406 L 431.960938 342.191406 "/>
<path style="fill-rule:nonzero;fill:rgb(35%,70%,90%);fill-opacity:1;stroke-width:1;stroke-linecap:butt;stroke-linejoin:round;stroke:rgb(0%,0%,0%);stroke-opacity:1;stroke-miterlimit:10;" d="M 416.878906 450.738281 L 396.878906 450.738281 L 396.878906 460.738281 L 416.878906 460.738281 L 416.878906 480.738281 L 426.878906 480.738281 L 426.878906 460.738281 L 446.878906 460.738281 L 446.878906 450.738281 L 426.878906 450.738281 L 426.878906 430.738281 L 416.878906 430.738281 L 416.878906 450.738281 "/>
<path style="fill-rule:nonzero;fill:rgb(35%,70%,90%);fill-opacity:1;stroke-width:1;stroke-linecap:butt;stroke-linejoin:round;stroke:rgb(0%,0%,0%);stroke-opacity:1;stroke-miterlimit:10;" d="M 32.804688 381.914062 L 12.804688 381.914062 L 12.804688 391.914062 L 32.804688 391.914062 L 32.804688 411.914062 L 42.804688 411.914062 L 42.804688 391.914062 L 62.804688 391.914062 L 62.804688 381.914062 L 42.804688 381.914062 L 42.804688 361.914062 L 32.804688 361.914062 L 32.804688 381.914062 "/>
<path style="fill-rule:nonzero;fill:rgb(35%,70%,90%);fill-opacity:1;stroke-width:1;stroke-linecap:butt;stroke-linejoin:round;stroke:rgb(0%,0%,0%);stroke-opacity:1;stroke-miterlimit:10;" d="M 185.453125 316.429688 L 165.453125 316.429688 L 165.453125 326.429688 L 185.453125 326.429688 L 185.453125 346.429688 L 195.453125 346.429688 L 195.453125 326.429688 L 215.453125 326.429688 L 215.453125 316.429688 L 195.453125 316.429688 L 195.453125 296.429688 L 185.453125 296.429688 L 185.453125 316.429688 "/>
<path style="fill-rule:nonzero;fill:rgb(35%,70%,90%);fill-opacity:1;stroke-width:1;stroke-linecap:butt;stroke-linejoin:round;stroke:rgb(0%,0%,0%);stroke-opacity:1;stroke-miterlimit:10;" d="M 85.25 468.800781 L 65.25 468.800781 L 65.25 478.800781 L 85.25 478.800781 L 85.25 498.800781 L 95.25 498.800781 L 95.25 478.800781 L 115.25 478.800781 L 115.25 468.800781 L 95.25 468.800781 L 95.25 448.800781 L 85.25 448.800781 L 85.25 468.800781 "/>
</g>
</svg>
