<?xml version="1.0" encoding="UTF-8"?>
<svg xmlns="http://www.w3.org/2000/svg" xmlns:xlink="http://www.w3.org/1999/xlink" width="517pt" height="517pt" viewBox="0 0 517 517" version="1.1">
<g id="surface281">
<rect x="0" y="0" width="517" height="517" style="fill:rgb(90%,90%,90%);fill-opacity:1;stroke:none;"/>
<path style="fill:none;stroke-width:5;stroke-linecap:butt;stroke-linejoin:round;stroke:rgb(100%,0%,0%);stroke-opacity:1;stroke-miterlimit:10;" d="M 5 5 L 261 5 L 261 261 L 5 261 Z M 5 5 "/>
<path style="fill-rule:nonzero;fill:rgb(67%,100%,18%);fill-opacity:1;stroke-width:1;stroke-linecap:butt;stroke-linejoin:round;stroke:rgb(0%,0%,0%);stroke-opacity:1;stroke-miterlimit:10;" d="M 74.183594 203.777344 C 74.183594 189.378906 50.183594 189.378906 50.183594 203.777344 C 50.183594 218.179688 74.183594 220.578125 74.183594 232.578125 C 74.183594 220.578125 98.183594 218.179688 98.183594 203.777344 C 98.183594 189.378906 74.183594 189.378906 74.183594 203.777344 "/>
<path style="fill-rule:nonzero;fill:rgb(50%,0%,50%);fill-opacity:1;stroke-width:1;stroke-linecap:butt;stroke-linejoin:round;stroke:rgb(0%,0%,0%);stroke-opacity:1;stroke-miterlimit:10;" d="M 74.578125 455.777344 C 74.578125 441.375 50.578125 441.375 50.578125 455.777344 C 50.578125 470.175781 74.578125 472.578125 74.578125 484.578125 C 74.578125 472.578125 98.578125 470.175781 98.578125 455.777344 C 98.578125 441.375 74.578125 441.375 74.578125 455.777344 "/>
<path style="fill-rule:nonzero;fill:rgb(67%,100%,18%);fill-opacity:1;stroke-width:1;stroke-linecap:butt;stroke-linejoin:round;stroke:rgb(0%,0%,0%);stroke-opacity:1;stroke-miterlimit:10;" d="M 303.40625 279.226562 C 303.40625 264.828125 279.40625 264.828125 279.40625 279.226562 C 279.40625 293.628906 303.40625 296.027344 303.40625 308.027344 C 303.40625 296.027344 327.40625 293.628906 327.40625 279.226562 C 327.40625 264.828125 303.40625 264.828125 303.40625 279.226562 "/>
<path style="fill-rule:nonzero;fill:rgb(67%,100%,18%);fill-opacity:1;stroke-width:1;stroke-linecap:butt;stroke-linejoin:round;stroke:rgb(0%,0%,0%);stroke-opacity:1;stroke-miterlimit:10;" d="M 443.597656 310.964844 C 443.597656 296.566406 419.597656 296.566406 419.597656 310.964844 C 419.597656 325.363281 443.597656 327.765625 443.597656 339.765625 C 443.597656 327.765625 467.597656 325.363281 467.597656 310.964844 C 467.597656 296.566406 443.597656 296.566406 443.597656 310.964844 "/>
</g>
</svg>
