<?xml version="1.0" encoding="UTF-8"?>
<svg xmlns="http://www.w3.org/2000/svg" xmlns:xlink="http://www.w3.org/1999/xlink" width="517pt" height="517pt" viewBox="0 0 517 517" version="1.1">
<g id="surface8476">
<rect x="0" y="0" width="517" height="517" style="fill:rgb(90%,90%,90%);fill-opacity:1;stroke:none;"/>
<path style="fill:none;stroke-width:5;stroke-linecap:butt;stroke-linejoin:round;stroke:rgb(100%,0%,0%);stroke-opacity:1;stroke-miterlimit:10;" d="M 5 261 L 261 261 L 261 517 L 5 517 Z M 5 261 "/>
<path style="fill-rule:nonzero;fill:rgb(35%,70%,90%);fill-opacity:1;stroke-width:1;stroke-linecap:butt;stroke-linejoin:round;stroke:rgb(0%,0%,0%);stroke-opacity:1;stroke-miterlimit:10;" d="M 225.546875 392.765625 C 225.546875 409.332031 212.113281 422.765625 195.546875 422.765625 C 178.976562 422.765625 165.546875 409.332031 165.546875 392.765625 C 165.546875 376.195312 178.976562 362.765625 195.546875 362.765625 C 212.113281 362.765625 225.546875 376.195312 225.546875 392.765625 "/>
<path style="fill-rule:nonzero;fill:rgb(35%,70%,90%);fill-opacity:1;stroke-width:1;stroke-linecap:butt;stroke-linejoin:round;stroke:rgb(0%,0%,0%);stroke-opacity:1;stroke-miterlimit:10;" d="M 333.980469 315.890625 C 333.980469 332.457031 320.550781 345.890625 303.980469 345.890625 C 287.414062 345.890625 273.980469 332.457031 273.980469 315.890625 C 273.980469 299.320312 287.414062 285.890625 303.980469 285.890625 C 320.550781 285.890625 333.980469 299.320312 333.980469 315.890625 "/>
<path style="fill-rule:nonzero;fill:rgb(35%,70%,90%);fill-opacity:1;stroke-width:1;stroke-linecap:butt;stroke-linejoin:round;stroke:rgb(0%,0%,0%);stroke-opacity:1;stroke-miterlimit:10;" d="M 369.304688 428.453125 C 369.304688 445.023438 355.875 458.453125 339.304688 458.453125 C 322.738281 458.453125 309.304688 445.023438 309.304688 428.453125 C 309.304688 411.882812 322.738281 398.453125 339.304688 398.453125 C 355.875 398.453125 369.304688 411.882812 369.304688 428.453125 "/>
<path style="fill-rule:nonzero;fill:rgb(35%,70%,90%);fill-opacity:1;stroke-width:1;stroke-linecap:butt;stroke-linejoin:round;stroke:rgb(0%,0%,0%);stroke-opacity:1;stroke-miterlimit:10;" d="M 202.460938 71.21875 C 202.460938 87.789062 189.03125 101.21875 172.460938 101.21875 C 155.894531 101.21875 142.460938 87.789062 142.460938 71.21875 C 142.460938 54.652344 155.894531 41.21875 172.460938 41.21875 C 189.03125 41.21875 202.460938 54.652344 202.460938 71.21875 "/>
<path style="fill-rule:nonzero;fill:rgb(35%,70%,90%);fill-opacity:1;stroke-width:1;stroke-linecap:butt;stroke-linejoin:round;stroke:rgb(0%,0%,0%);stroke-opacity:1;stroke-miterlimit:10;" d="M 233.070312 139.128906 C 233.070312 155.699219 219.640625 169.128906 203.070312 169.128906 C 186.503906 169.128906 173.070312 155.699219 173.070312 139.128906 C 173.070312 122.5625 186.503906 109.128906 203.070312 109.128906 C 219.640625 109.128906 233.070312 122.5625 233.070312 139.128906 "/>
<path style="fill-rule:nonzero;fill:rgb(35%,70%,90%);fill-opacity:1;stroke-width:1;stroke-linecap:butt;stroke-linejoin:round;stroke:rgb(0%,0%,0%);stroke-opacity:1;stroke-miterlimit:10;" d="M 136.007812 187.792969 C 136.007812 204.363281 122.578125 217.792969 106.007812 217.792969 C 89.441406 217.792969 76.007812 204.363281 76.007812 187.792969 C 76.007812 171.226562 89.441406 157.792969 106.007812 157.792969 C 122.578125 157.792969 136.007812 171.226562 136.007812 187.792969 "/>
</g>
</svg>
