<?xml version="1.0" encoding="UTF-8"?>
<svg xmlns="http://www.w3.org/2000/svg" xmlns:xlink="http://www.w3.org/1999/xlink" width="517pt" height="517pt" viewBox="0 0 517 517" version="1.1">
<g id="surface8416">
<rect x="0" y="0" width="517" height="517" style="fill:rgb(90%,90%,90%);fill-opacity:1;stroke:none;"/>
<path style="fill:none;stroke-width:5;stroke-linecap:butt;stroke-linejoin:round;stroke:rgb(100%,0%,0%);stroke-opacity:1;stroke-miterlimit:10;" d="M 5 261 L 261 261 L 261 517 L 5 517 Z M 5 261 "/>
<path style="fill-rule:nonzero;fill:rgb(35%,70%,90%);fill-opacity:1;stroke-width:1;stroke-linecap:butt;stroke-linejoin:round;stroke:rgb(0%,0%,0%);stroke-opacity:1;stroke-miterlimit:10;" d="M 208.253906 396.910156 C 208.253906 413.476562 194.820312 426.910156 178.253906 426.910156 C 161.683594 426.910156 148.253906 413.476562 148.253906 396.910156 C 148.253906 380.339844 161.683594 366.910156 178.253906 366.910156 C 194.820312 366.910156 208.253906 380.339844 208.253906 396.910156 "/>
<path style="fill-rule:nonzero;fill:rgb(35%,70%,90%);fill-opacity:1;stroke-width:1;stroke-linecap:butt;stroke-linejoin:round;stroke:rgb(0%,0%,0%);stroke-opacity:1;stroke-miterlimit:10;" d="M 464.96875 345.546875 C 464.96875 362.117188 451.539062 375.546875 434.96875 375.546875 C 418.402344 375.546875 404.96875 362.117188 404.96875 345.546875 C 404.96875 328.980469 418.402344 315.546875 434.96875 315.546875 C 451.539062 315.546875 464.96875 328.980469 464.96875 345.546875 "/>
<path style="fill-rule:nonzero;fill:rgb(35%,70%,90%);fill-opacity:1;stroke-width:1;stroke-linecap:butt;stroke-linejoin:round;stroke:rgb(0%,0%,0%);stroke-opacity:1;stroke-miterlimit:10;" d="M 391.945312 330.148438 C 391.945312 346.71875 378.511719 360.148438 361.945312 360.148438 C 345.375 360.148438 331.945312 346.71875 331.945312 330.148438 C 331.945312 313.582031 345.375 300.148438 361.945312 300.148438 C 378.511719 300.148438 391.945312 313.582031 391.945312 330.148438 "/>
<path style="fill-rule:nonzero;fill:rgb(35%,70%,90%);fill-opacity:1;stroke-width:1;stroke-linecap:butt;stroke-linejoin:round;stroke:rgb(0%,0%,0%);stroke-opacity:1;stroke-miterlimit:10;" d="M 106.539062 106.214844 C 106.539062 122.785156 93.109375 136.214844 76.539062 136.214844 C 59.96875 136.214844 46.539062 122.785156 46.539062 106.214844 C 46.539062 89.644531 59.96875 76.214844 76.539062 76.214844 C 93.109375 76.214844 106.539062 89.644531 106.539062 106.214844 "/>
<path style="fill-rule:nonzero;fill:rgb(35%,70%,90%);fill-opacity:1;stroke-width:1;stroke-linecap:butt;stroke-linejoin:round;stroke:rgb(0%,0%,0%);stroke-opacity:1;stroke-miterlimit:10;" d="M 144.214844 194.085938 C 144.214844 210.652344 130.78125 224.085938 114.214844 224.085938 C 97.644531 224.085938 84.214844 210.652344 84.214844 194.085938 C 84.214844 177.515625 97.644531 164.085938 114.214844 164.085938 C 130.78125 164.085938 144.214844 177.515625 144.214844 194.085938 "/>
<path style="fill-rule:nonzero;fill:rgb(35%,70%,90%);fill-opacity:1;stroke-width:1;stroke-linecap:butt;stroke-linejoin:round;stroke:rgb(0%,0%,0%);stroke-opacity:1;stroke-miterlimit:10;" d="M 228.035156 114.550781 C 228.035156 131.121094 214.601562 144.550781 198.035156 144.550781 C 181.464844 144.550781 168.035156 131.121094 168.035156 114.550781 C 168.035156 97.984375 181.464844 84.550781 198.035156 84.550781 C 214.601562 84.550781 228.035156 97.984375 228.035156 114.550781 "/>
</g>
</svg>
