<?xml version="1.0" encoding="UTF-8"?>
<svg xmlns="http://www.w3.org/2000/svg" xmlns:xlink="http://www.w3.org/1999/xlink" width="517pt" height="517pt" viewBox="0 0 517 517" version="1.1">
<g id="surface3281">
<rect x="0" y="0" width="517" height="517" style="fill:rgb(90%,90%,90%);fill-opacity:1;stroke:none;"/>
<path style="fill:none;stroke-width:5;stroke-linecap:butt;stroke-linejoin:round;stroke:rgb(100%,0%,0%);stroke-opacity:1;stroke-miterlimit:10;" d="M 261 261 L 517 261 L 517 517 L 261 517 Z M 261 261 "/>
<path style="fill-rule:nonzero;fill:rgb(90%,65%,0%);fill-opacity:1;stroke-width:1;stroke-linecap:butt;stroke-linejoin:round;stroke:rgb(0%,0%,0%);stroke-opacity:1;stroke-miterlimit:10;" d="M 396.125 340.871094 L 376.125 340.871094 L 376.125 350.871094 L 396.125 350.871094 L 396.125 370.871094 L 406.125 370.871094 L 406.125 350.871094 L 426.125 350.871094 L 426.125 340.871094 L 406.125 340.871094 L 406.125 320.871094 L 396.125 320.871094 L 396.125 340.871094 "/>
<path style="fill-rule:nonzero;fill:rgb(35%,70%,90%);fill-opacity:1;stroke-width:1;stroke-linecap:butt;stroke-linejoin:round;stroke:rgb(0%,0%,0%);stroke-opacity:1;stroke-miterlimit:10;" d="M 204.777344 354.765625 L 184.777344 354.765625 L 184.777344 364.765625 L 204.777344 364.765625 L 204.777344 384.765625 L 214.777344 384.765625 L 214.777344 364.765625 L 234.777344 364.765625 L 234.777344 354.765625 L 214.777344 354.765625 L 214.777344 334.765625 L 204.777344 334.765625 L 204.777344 354.765625 "/>
<path style="fill-rule:nonzero;fill:rgb(35%,70%,90%);fill-opacity:1;stroke-width:1;stroke-linecap:butt;stroke-linejoin:round;stroke:rgb(0%,0%,0%);stroke-opacity:1;stroke-miterlimit:10;" d="M 34.382812 173.800781 L 14.382812 173.800781 L 14.382812 183.800781 L 34.382812 183.800781 L 34.382812 203.800781 L 44.382812 203.800781 L 44.382812 183.800781 L 64.382812 183.800781 L 64.382812 173.800781 L 44.382812 173.800781 L 44.382812 153.800781 L 34.382812 153.800781 L 34.382812 173.800781 "/>
<path style="fill-rule:nonzero;fill:rgb(35%,70%,90%);fill-opacity:1;stroke-width:1;stroke-linecap:butt;stroke-linejoin:round;stroke:rgb(0%,0%,0%);stroke-opacity:1;stroke-miterlimit:10;" d="M 148.550781 162.511719 L 128.550781 162.511719 L 128.550781 172.511719 L 148.550781 172.511719 L 148.550781 192.511719 L 158.550781 192.511719 L 158.550781 172.511719 L 178.550781 172.511719 L 178.550781 162.511719 L 158.550781 162.511719 L 158.550781 142.511719 L 148.550781 142.511719 L 148.550781 162.511719 "/>
<path style="fill-rule:nonzero;fill:rgb(35%,70%,90%);fill-opacity:1;stroke-width:1;stroke-linecap:butt;stroke-linejoin:round;stroke:rgb(0%,0%,0%);stroke-opacity:1;stroke-miterlimit:10;" d="M 453.734375 163.820312 L 433.734375 163.820312 L 433.734375 173.820312 L 453.734375 173.820312 L 453.734375 193.820312 L 463.734375 193.820312 L 463.734375 173.820312 L 483.734375 173.820312 L 483.734375 163.820312 L 463.734375 163.820312 L 463.734375 143.820312 L 453.734375 143.820312 L 453.734375 163.820312 "/>
</g>
</svg>
