<?xml version="1.0" encoding="UTF-8"?>
<svg xmlns="http://www.w3.org/2000/svg" xmlns:xlink="http://www.w3.org/1999/xlink" width="517pt" height="517pt" viewBox="0 0 517 517" version="1.1">
<g id="surface5386">
<rect x="0" y="0" width="517" height="517" style="fill:rgb(90%,90%,90%);fill-opacity:1;stroke:none;"/>
<path style="fill-rule:nonzero;fill:rgb(100%,100%,0%);fill-opacity:1;stroke-width:1;stroke-linecap:butt;stroke-linejoin:miter;stroke:rgb(0%,0%,0%);stroke-opacity:1;stroke-miterlimit:10;" d="M 451.734375 206.421875 C 451.734375 222.988281 438.304688 236.421875 421.734375 236.421875 C 405.167969 236.421875 391.734375 222.988281 391.734375 206.421875 C 391.734375 189.851562 405.167969 176.421875 421.734375 176.421875 C 438.304688 176.421875 451.734375 189.851562 451.734375 206.421875 "/>
<path style="fill-rule:nonzero;fill:rgb(100%,100%,0%);fill-opacity:1;stroke-width:1;stroke-linecap:butt;stroke-linejoin:miter;stroke:rgb(0%,0%,0%);stroke-opacity:1;stroke-miterlimit:10;" d="M 322.378906 220.566406 C 322.378906 237.136719 308.945312 250.566406 292.378906 250.566406 C 275.808594 250.566406 262.378906 237.136719 262.378906 220.566406 C 262.378906 204 275.808594 190.566406 292.378906 190.566406 C 308.945312 190.566406 322.378906 204 322.378906 220.566406 "/>
<path style="fill-rule:nonzero;fill:rgb(0%,0%,0%);fill-opacity:1;stroke-width:1;stroke-linecap:butt;stroke-linejoin:miter;stroke:rgb(0%,0%,0%);stroke-opacity:1;stroke-miterlimit:10;" d="M 130.257812 43.238281 C 130.257812 59.804688 116.828125 73.238281 100.257812 73.238281 C 83.6875 73.238281 70.257812 59.804688 70.257812 43.238281 C 70.257812 26.667969 83.6875 13.238281 100.257812 13.238281 C 116.828125 13.238281 130.257812 26.667969 130.257812 43.238281 "/>
<path style="fill-rule:nonzero;fill:rgb(0%,0%,0%);fill-opacity:1;stroke-width:1;stroke-linecap:butt;stroke-linejoin:miter;stroke:rgb(0%,0%,0%);stroke-opacity:1;stroke-miterlimit:10;" d="M 74.597656 111.515625 C 74.597656 128.085938 61.167969 141.515625 44.597656 141.515625 C 28.027344 141.515625 14.597656 128.085938 14.597656 111.515625 C 14.597656 94.949219 28.027344 81.515625 44.597656 81.515625 C 61.167969 81.515625 74.597656 94.949219 74.597656 111.515625 "/>
<path style="fill-rule:nonzero;fill:rgb(0%,0%,0%);fill-opacity:1;stroke-width:1;stroke-linecap:butt;stroke-linejoin:miter;stroke:rgb(0%,0%,0%);stroke-opacity:1;stroke-miterlimit:10;" d="M 192.402344 199.863281 C 192.402344 216.433594 178.972656 229.863281 162.402344 229.863281 C 145.832031 229.863281 132.402344 216.433594 132.402344 199.863281 C 132.402344 183.296875 145.832031 169.863281 162.402344 169.863281 C 178.972656 169.863281 192.402344 183.296875 192.402344 199.863281 "/>
<path style="fill-rule:nonzero;fill:rgb(0%,0%,0%);fill-opacity:1;stroke-width:1;stroke-linecap:butt;stroke-linejoin:miter;stroke:rgb(0%,0%,0%);stroke-opacity:1;stroke-miterlimit:10;" d="M 156.125 122.308594 C 156.125 138.875 142.691406 152.308594 126.125 152.308594 C 109.554688 152.308594 96.125 138.875 96.125 122.308594 C 96.125 105.738281 109.554688 92.308594 126.125 92.308594 C 142.691406 92.308594 156.125 105.738281 156.125 122.308594 "/>
<path style="fill-rule:nonzero;fill:rgb(0%,0%,0%);fill-opacity:1;stroke-width:1;stroke-linecap:butt;stroke-linejoin:miter;stroke:rgb(0%,0%,0%);stroke-opacity:1;stroke-miterlimit:10;" d="M 111.285156 173.246094 C 111.285156 189.816406 97.851562 203.246094 81.285156 203.246094 C 64.714844 203.246094 51.285156 189.816406 51.285156 173.246094 C 51.285156 156.679688 64.714844 143.246094 81.285156 143.246094 C 97.851562 143.246094 111.285156 156.679688 111.285156 173.246094 "/>
<path style="fill-rule:nonzero;fill:rgb(0%,0%,0%);fill-opacity:1;stroke-width:1;stroke-linecap:butt;stroke-linejoin:miter;stroke:rgb(0%,0%,0%);stroke-opacity:1;stroke-miterlimit:10;" d="M 223.519531 141.488281 C 223.519531 158.058594 210.085938 171.488281 193.519531 171.488281 C 176.949219 171.488281 163.519531 158.058594 163.519531 141.488281 C 163.519531 124.921875 176.949219 111.488281 193.519531 111.488281 C 210.085938 111.488281 223.519531 124.921875 223.519531 141.488281 "/>
</g>
</svg>
