<?xml version="1.0" encoding="UTF-8"?>
<svg xmlns="http://www.w3.org/2000/svg" xmlns:xlink="http://www.w3.org/1999/xlink" width="517pt" height="517pt" viewBox="0 0 517 517" version="1.1">
<g id="surface8856">
<rect x="0" y="0" width="517" height="517" style="fill:rgb(90%,90%,90%);fill-opacity:1;stroke:none;"/>
<path style="fill:none;stroke-width:5;stroke-linecap:butt;stroke-linejoin:round;stroke:rgb(100%,0%,0%);stroke-opacity:1;stroke-miterlimit:10;" d="M 261 5 L 517 5 L 517 261 L 261 261 Z M 261 5 "/>
<path style="fill-rule:nonzero;fill:rgb(35%,70%,90%);fill-opacity:1;stroke-width:1;stroke-linecap:butt;stroke-linejoin:round;stroke:rgb(0%,0%,0%);stroke-opacity:1;stroke-miterlimit:10;" d="M 443.074219 128.234375 C 443.074219 144.804688 429.644531 158.234375 413.074219 158.234375 C 396.507812 158.234375 383.074219 144.804688 383.074219 128.234375 C 383.074219 111.667969 396.507812 98.234375 413.074219 98.234375 C 429.644531 98.234375 443.074219 111.667969 443.074219 128.234375 "/>
<path style="fill-rule:nonzero;fill:rgb(0%,0%,0%);fill-opacity:1;stroke-width:1;stroke-linecap:butt;stroke-linejoin:round;stroke:rgb(0%,0%,0%);stroke-opacity:1;stroke-miterlimit:10;" d="M 105.34375 381.335938 C 105.34375 397.90625 91.914062 411.335938 75.34375 411.335938 C 58.777344 411.335938 45.34375 397.90625 45.34375 381.335938 C 45.34375 364.769531 58.777344 351.335938 75.34375 351.335938 C 91.914062 351.335938 105.34375 364.769531 105.34375 381.335938 "/>
<path style="fill-rule:nonzero;fill:rgb(0%,0%,0%);fill-opacity:1;stroke-width:1;stroke-linecap:butt;stroke-linejoin:round;stroke:rgb(0%,0%,0%);stroke-opacity:1;stroke-miterlimit:10;" d="M 238.554688 390.875 C 238.554688 407.445312 225.121094 420.875 208.554688 420.875 C 191.984375 420.875 178.554688 407.445312 178.554688 390.875 C 178.554688 374.308594 191.984375 360.875 208.554688 360.875 C 225.121094 360.875 238.554688 374.308594 238.554688 390.875 "/>
<path style="fill-rule:nonzero;fill:rgb(0%,0%,0%);fill-opacity:1;stroke-width:1;stroke-linecap:butt;stroke-linejoin:round;stroke:rgb(0%,0%,0%);stroke-opacity:1;stroke-miterlimit:10;" d="M 347.441406 332.464844 C 347.441406 349.03125 334.007812 362.464844 317.441406 362.464844 C 300.871094 362.464844 287.441406 349.03125 287.441406 332.464844 C 287.441406 315.894531 300.871094 302.464844 317.441406 302.464844 C 334.007812 302.464844 347.441406 315.894531 347.441406 332.464844 "/>
<path style="fill-rule:nonzero;fill:rgb(0%,0%,0%);fill-opacity:1;stroke-width:1;stroke-linecap:butt;stroke-linejoin:round;stroke:rgb(0%,0%,0%);stroke-opacity:1;stroke-miterlimit:10;" d="M 446.019531 418.535156 C 446.019531 435.105469 432.589844 448.535156 416.019531 448.535156 C 399.453125 448.535156 386.019531 435.105469 386.019531 418.535156 C 386.019531 401.96875 399.453125 388.535156 416.019531 388.535156 C 432.589844 388.535156 446.019531 401.96875 446.019531 418.535156 "/>
</g>
</svg>
