<?xml version="1.0" encoding="UTF-8"?>
<svg xmlns="http://www.w3.org/2000/svg" xmlns:xlink="http://www.w3.org/1999/xlink" width="517pt" height="517pt" viewBox="0 0 517 517" version="1.1">
<g id="surface3561">
<rect x="0" y="0" width="517" height="517" style="fill:rgb(90%,90%,90%);fill-opacity:1;stroke:none;"/>
<path style="fill:none;stroke-width:5;stroke-linecap:butt;stroke-linejoin:round;stroke:rgb(100%,0%,0%);stroke-opacity:1;stroke-miterlimit:10;" d="M 5 5 L 261 5 L 261 261 L 5 261 Z M 5 5 "/>
<path style="fill-rule:nonzero;fill:rgb(100%,0%,0%);fill-opacity:1;stroke-width:1;stroke-linecap:butt;stroke-linejoin:round;stroke:rgb(0%,0%,0%);stroke-opacity:1;stroke-miterlimit:10;" d="M 163.894531 180.789062 C 163.894531 197.359375 150.460938 210.789062 133.894531 210.789062 C 117.324219 210.789062 103.894531 197.359375 103.894531 180.789062 C 103.894531 164.222656 117.324219 150.789062 133.894531 150.789062 C 150.460938 150.789062 163.894531 164.222656 163.894531 180.789062 "/>
<path style="fill-rule:nonzero;fill:rgb(25%,88%,82%);fill-opacity:1;stroke-width:1;stroke-linecap:butt;stroke-linejoin:round;stroke:rgb(0%,0%,0%);stroke-opacity:1;stroke-miterlimit:10;" d="M 443.953125 55.109375 C 443.953125 71.675781 430.519531 85.109375 413.953125 85.109375 C 397.382812 85.109375 383.953125 71.675781 383.953125 55.109375 C 383.953125 38.539062 397.382812 25.109375 413.953125 25.109375 C 430.519531 25.109375 443.953125 38.539062 443.953125 55.109375 "/>
<path style="fill-rule:nonzero;fill:rgb(100%,0%,0%);fill-opacity:1;stroke-width:1;stroke-linecap:butt;stroke-linejoin:round;stroke:rgb(0%,0%,0%);stroke-opacity:1;stroke-miterlimit:10;" d="M 488.347656 457.183594 C 488.347656 473.75 474.917969 487.183594 458.347656 487.183594 C 441.78125 487.183594 428.347656 473.75 428.347656 457.183594 C 428.347656 440.613281 441.78125 427.183594 458.347656 427.183594 C 474.917969 427.183594 488.347656 440.613281 488.347656 457.183594 "/>
<path style="fill-rule:nonzero;fill:rgb(100%,0%,0%);fill-opacity:1;stroke-width:1;stroke-linecap:butt;stroke-linejoin:round;stroke:rgb(0%,0%,0%);stroke-opacity:1;stroke-miterlimit:10;" d="M 441.6875 379.488281 C 441.6875 396.054688 428.253906 409.488281 411.6875 409.488281 C 395.117188 409.488281 381.6875 396.054688 381.6875 379.488281 C 381.6875 362.917969 395.117188 349.488281 411.6875 349.488281 C 428.253906 349.488281 441.6875 362.917969 441.6875 379.488281 "/>
<path style="fill-rule:nonzero;fill:rgb(100%,0%,0%);fill-opacity:1;stroke-width:1;stroke-linecap:butt;stroke-linejoin:round;stroke:rgb(0%,0%,0%);stroke-opacity:1;stroke-miterlimit:10;" d="M 354.859375 428.753906 C 354.859375 445.320312 341.425781 458.753906 324.859375 458.753906 C 308.289062 458.753906 294.859375 445.320312 294.859375 428.753906 C 294.859375 412.183594 308.289062 398.753906 324.859375 398.753906 C 341.425781 398.753906 354.859375 412.183594 354.859375 428.753906 "/>
<path style="fill-rule:nonzero;fill:rgb(100%,0%,0%);fill-opacity:1;stroke-width:1;stroke-linecap:butt;stroke-linejoin:round;stroke:rgb(0%,0%,0%);stroke-opacity:1;stroke-miterlimit:10;" d="M 401.464844 466.984375 C 401.464844 483.550781 388.03125 496.984375 371.464844 496.984375 C 354.894531 496.984375 341.464844 483.550781 341.464844 466.984375 C 341.464844 450.414062 354.894531 436.984375 371.464844 436.984375 C 388.03125 436.984375 401.464844 450.414062 401.464844 466.984375 "/>
</g>
</svg>
