<?xml version="1.0" encoding="UTF-8"?>
<svg xmlns="http://www.w3.org/2000/svg" xmlns:xlink="http://www.w3.org/1999/xlink" width="517pt" height="517pt" viewBox="0 0 517 517" version="1.1">
<g id="surface8676">
<rect x="0" y="0" width="517" height="517" style="fill:rgb(90%,90%,90%);fill-opacity:1;stroke:none;"/>
<path style="fill:none;stroke-width:5;stroke-linecap:butt;stroke-linejoin:round;stroke:rgb(100%,0%,0%);stroke-opacity:1;stroke-miterlimit:10;" d="M 5 5 L 261 5 L 261 261 L 5 261 Z M 5 5 "/>
<path style="fill-rule:nonzero;fill:rgb(100%,0%,0%);fill-opacity:1;stroke-width:1;stroke-linecap:butt;stroke-linejoin:round;stroke:rgb(0%,0%,0%);stroke-opacity:1;stroke-miterlimit:10;" d="M 156.847656 132.074219 C 156.847656 148.640625 143.417969 162.074219 126.847656 162.074219 C 110.28125 162.074219 96.847656 148.640625 96.847656 132.074219 C 96.847656 115.503906 110.28125 102.074219 126.847656 102.074219 C 143.417969 102.074219 156.847656 115.503906 156.847656 132.074219 "/>
<path style="fill-rule:nonzero;fill:rgb(90%,65%,0%);fill-opacity:1;stroke-width:1;stroke-linecap:butt;stroke-linejoin:round;stroke:rgb(0%,0%,0%);stroke-opacity:1;stroke-miterlimit:10;" d="M 362.839844 87.886719 C 362.839844 104.457031 349.410156 117.886719 332.839844 117.886719 C 316.273438 117.886719 302.839844 104.457031 302.839844 87.886719 C 302.839844 71.320312 316.273438 57.886719 332.839844 57.886719 C 349.410156 57.886719 362.839844 71.320312 362.839844 87.886719 "/>
<path style="fill-rule:nonzero;fill:rgb(90%,65%,0%);fill-opacity:1;stroke-width:1;stroke-linecap:butt;stroke-linejoin:round;stroke:rgb(0%,0%,0%);stroke-opacity:1;stroke-miterlimit:10;" d="M 472.59375 399.074219 C 472.59375 415.640625 459.164062 429.074219 442.59375 429.074219 C 426.027344 429.074219 412.59375 415.640625 412.59375 399.074219 C 412.59375 382.503906 426.027344 369.074219 442.59375 369.074219 C 459.164062 369.074219 472.59375 382.503906 472.59375 399.074219 "/>
<path style="fill-rule:nonzero;fill:rgb(90%,65%,0%);fill-opacity:1;stroke-width:1;stroke-linecap:butt;stroke-linejoin:round;stroke:rgb(0%,0%,0%);stroke-opacity:1;stroke-miterlimit:10;" d="M 475.410156 313.164062 C 475.410156 329.730469 461.976562 343.164062 445.410156 343.164062 C 428.839844 343.164062 415.410156 329.730469 415.410156 313.164062 C 415.410156 296.59375 428.839844 283.164062 445.410156 283.164062 C 461.976562 283.164062 475.410156 296.59375 475.410156 313.164062 "/>
<path style="fill-rule:nonzero;fill:rgb(90%,65%,0%);fill-opacity:1;stroke-width:1;stroke-linecap:butt;stroke-linejoin:round;stroke:rgb(0%,0%,0%);stroke-opacity:1;stroke-miterlimit:10;" d="M 394.667969 346.816406 C 394.667969 363.386719 381.234375 376.816406 364.667969 376.816406 C 348.097656 376.816406 334.667969 363.386719 334.667969 346.816406 C 334.667969 330.25 348.097656 316.816406 364.667969 316.816406 C 381.234375 316.816406 394.667969 330.25 394.667969 346.816406 "/>
</g>
</svg>
