<?xml version="1.0" encoding="UTF-8"?>
<svg xmlns="http://www.w3.org/2000/svg" xmlns:xlink="http://www.w3.org/1999/xlink" width="517pt" height="517pt" viewBox="0 0 517 517" version="1.1">
<g id="surface241">
<rect x="0" y="0" width="517" height="517" style="fill:rgb(90%,90%,90%);fill-opacity:1;stroke:none;"/>
<path style="fill:none;stroke-width:5;stroke-linecap:butt;stroke-linejoin:round;stroke:rgb(100%,0%,0%);stroke-opacity:1;stroke-miterlimit:10;" d="M 5 5 L 261 5 L 261 261 L 5 261 Z M 5 5 "/>
<path style="fill-rule:nonzero;fill:rgb(67%,100%,18%);fill-opacity:1;stroke-width:1;stroke-linecap:butt;stroke-linejoin:round;stroke:rgb(0%,0%,0%);stroke-opacity:1;stroke-miterlimit:10;" d="M 192.1875 102.835938 C 192.1875 88.433594 168.1875 88.433594 168.1875 102.835938 C 168.1875 117.234375 192.1875 119.636719 192.1875 131.636719 C 192.1875 119.636719 216.1875 117.234375 216.1875 102.835938 C 216.1875 88.433594 192.1875 88.433594 192.1875 102.835938 "/>
<path style="fill-rule:nonzero;fill:rgb(50%,0%,50%);fill-opacity:1;stroke-width:1;stroke-linecap:butt;stroke-linejoin:round;stroke:rgb(0%,0%,0%);stroke-opacity:1;stroke-miterlimit:10;" d="M 118.449219 374.917969 C 118.449219 360.519531 94.449219 360.519531 94.449219 374.917969 C 94.449219 389.320312 118.449219 391.71875 118.449219 403.71875 C 118.449219 391.71875 142.449219 389.320312 142.449219 374.917969 C 142.449219 360.519531 118.449219 360.519531 118.449219 374.917969 "/>
<path style="fill-rule:nonzero;fill:rgb(50%,0%,50%);fill-opacity:1;stroke-width:1;stroke-linecap:butt;stroke-linejoin:round;stroke:rgb(0%,0%,0%);stroke-opacity:1;stroke-miterlimit:10;" d="M 393.265625 153.40625 C 393.265625 139.007812 369.265625 139.007812 369.265625 153.40625 C 369.265625 167.808594 393.265625 170.207031 393.265625 182.207031 C 393.265625 170.207031 417.265625 167.808594 417.265625 153.40625 C 417.265625 139.007812 393.265625 139.007812 393.265625 153.40625 "/>
<path style="fill-rule:nonzero;fill:rgb(50%,0%,50%);fill-opacity:1;stroke-width:1;stroke-linecap:butt;stroke-linejoin:round;stroke:rgb(0%,0%,0%);stroke-opacity:1;stroke-miterlimit:10;" d="M 469.171875 158.789062 C 469.171875 144.390625 445.171875 144.390625 445.171875 158.789062 C 445.171875 173.191406 469.171875 175.589844 469.171875 187.589844 C 469.171875 175.589844 493.171875 173.191406 493.171875 158.789062 C 493.171875 144.390625 469.171875 144.390625 469.171875 158.789062 "/>
</g>
</svg>
