<?xml version="1.0" encoding="UTF-8"?>
<svg xmlns="http://www.w3.org/2000/svg" xmlns:xlink="http://www.w3.org/1999/xlink" width="517pt" height="517pt" viewBox="0 0 517 517" version="1.1">
<g id="surface8326">
<rect x="0" y="0" width="517" height="517" style="fill:rgb(90%,90%,90%);fill-opacity:1;stroke:none;"/>
<path style="fill:none;stroke-width:5;stroke-linecap:butt;stroke-linejoin:round;stroke:rgb(100%,0%,0%);stroke-opacity:1;stroke-miterlimit:10;" d="M 5 5 L 261 5 L 261 261 L 5 261 Z M 5 5 "/>
<path style="fill-rule:nonzero;fill:rgb(67%,100%,18%);fill-opacity:1;stroke-width:1;stroke-linecap:butt;stroke-linejoin:round;stroke:rgb(0%,0%,0%);stroke-opacity:1;stroke-miterlimit:10;" d="M 183.464844 130.246094 C 183.464844 146.816406 170.035156 160.246094 153.464844 160.246094 C 136.898438 160.246094 123.464844 146.816406 123.464844 130.246094 C 123.464844 113.679688 136.898438 100.246094 153.464844 100.246094 C 170.035156 100.246094 183.464844 113.679688 183.464844 130.246094 "/>
<path style="fill-rule:nonzero;fill:rgb(35%,70%,90%);fill-opacity:1;stroke-width:1;stroke-linecap:butt;stroke-linejoin:round;stroke:rgb(0%,0%,0%);stroke-opacity:1;stroke-miterlimit:10;" d="M 208.519531 319.679688 C 208.519531 336.25 195.089844 349.679688 178.519531 349.679688 C 161.953125 349.679688 148.519531 336.25 148.519531 319.679688 C 148.519531 303.113281 161.953125 289.679688 178.519531 289.679688 C 195.089844 289.679688 208.519531 303.113281 208.519531 319.679688 "/>
<path style="fill-rule:nonzero;fill:rgb(35%,70%,90%);fill-opacity:1;stroke-width:1;stroke-linecap:butt;stroke-linejoin:round;stroke:rgb(0%,0%,0%);stroke-opacity:1;stroke-miterlimit:10;" d="M 463.652344 218.449219 C 463.652344 235.019531 450.222656 248.449219 433.652344 248.449219 C 417.085938 248.449219 403.652344 235.019531 403.652344 218.449219 C 403.652344 201.882812 417.085938 188.449219 433.652344 188.449219 C 450.222656 188.449219 463.652344 201.882812 463.652344 218.449219 "/>
<path style="fill-rule:nonzero;fill:rgb(35%,70%,90%);fill-opacity:1;stroke-width:1;stroke-linecap:butt;stroke-linejoin:round;stroke:rgb(0%,0%,0%);stroke-opacity:1;stroke-miterlimit:10;" d="M 416.230469 121.351562 C 416.230469 137.917969 402.800781 151.351562 386.230469 151.351562 C 369.664062 151.351562 356.230469 137.917969 356.230469 121.351562 C 356.230469 104.78125 369.664062 91.351562 386.230469 91.351562 C 402.800781 91.351562 416.230469 104.78125 416.230469 121.351562 "/>
<path style="fill-rule:nonzero;fill:rgb(35%,70%,90%);fill-opacity:1;stroke-width:1;stroke-linecap:butt;stroke-linejoin:round;stroke:rgb(0%,0%,0%);stroke-opacity:1;stroke-miterlimit:10;" d="M 359.359375 191.082031 C 359.359375 207.652344 345.925781 221.082031 329.359375 221.082031 C 312.789062 221.082031 299.359375 207.652344 299.359375 191.082031 C 299.359375 174.515625 312.789062 161.082031 329.359375 161.082031 C 345.925781 161.082031 359.359375 174.515625 359.359375 191.082031 "/>
</g>
</svg>
