<?xml version="1.0" encoding="UTF-8"?>
<svg xmlns="http://www.w3.org/2000/svg" xmlns:xlink="http://www.w3.org/1999/xlink" width="517pt" height="517pt" viewBox="0 0 517 517" version="1.1">
<g id="surface5436">
<rect x="0" y="0" width="517" height="517" style="fill:rgb(90%,90%,90%);fill-opacity:1;stroke:none;"/>
<path style="fill-rule:nonzero;fill:rgb(100%,100%,0%);fill-opacity:1;stroke-width:1;stroke-linecap:butt;stroke-linejoin:miter;stroke:rgb(0%,0%,0%);stroke-opacity:1;stroke-miterlimit:10;" d="M 117.972656 476.433594 C 117.972656 493.003906 104.539062 506.433594 87.972656 506.433594 C 71.402344 506.433594 57.972656 493.003906 57.972656 476.433594 C 57.972656 459.867188 71.402344 446.433594 87.972656 446.433594 C 104.539062 446.433594 117.972656 459.867188 117.972656 476.433594 "/>
<path style="fill-rule:nonzero;fill:rgb(100%,100%,0%);fill-opacity:1;stroke-width:1;stroke-linecap:butt;stroke-linejoin:miter;stroke:rgb(0%,0%,0%);stroke-opacity:1;stroke-miterlimit:10;" d="M 212.851562 427.28125 C 212.851562 443.847656 199.421875 457.28125 182.851562 457.28125 C 166.28125 457.28125 152.851562 443.847656 152.851562 427.28125 C 152.851562 410.710938 166.28125 397.28125 182.851562 397.28125 C 199.421875 397.28125 212.851562 410.710938 212.851562 427.28125 "/>
<path style="fill-rule:nonzero;fill:rgb(100%,100%,0%);fill-opacity:1;stroke-width:1;stroke-linecap:butt;stroke-linejoin:miter;stroke:rgb(0%,0%,0%);stroke-opacity:1;stroke-miterlimit:10;" d="M 473.421875 111.355469 C 473.421875 127.925781 459.992188 141.355469 443.421875 141.355469 C 426.855469 141.355469 413.421875 127.925781 413.421875 111.355469 C 413.421875 94.789062 426.855469 81.355469 443.421875 81.355469 C 459.992188 81.355469 473.421875 94.789062 473.421875 111.355469 "/>
<path style="fill-rule:nonzero;fill:rgb(0%,0%,0%);fill-opacity:1;stroke-width:1;stroke-linecap:butt;stroke-linejoin:miter;stroke:rgb(0%,0%,0%);stroke-opacity:1;stroke-miterlimit:10;" d="M 79.921875 38.429688 C 79.921875 55 66.488281 68.429688 49.921875 68.429688 C 33.351562 68.429688 19.921875 55 19.921875 38.429688 C 19.921875 21.863281 33.351562 8.429688 49.921875 8.429688 C 66.488281 8.429688 79.921875 21.863281 79.921875 38.429688 "/>
<path style="fill-rule:nonzero;fill:rgb(0%,0%,0%);fill-opacity:1;stroke-width:1;stroke-linecap:butt;stroke-linejoin:miter;stroke:rgb(0%,0%,0%);stroke-opacity:1;stroke-miterlimit:10;" d="M 125.753906 154.167969 C 125.753906 170.738281 112.324219 184.167969 95.753906 184.167969 C 79.1875 184.167969 65.753906 170.738281 65.753906 154.167969 C 65.753906 137.601562 79.1875 124.167969 95.753906 124.167969 C 112.324219 124.167969 125.753906 137.601562 125.753906 154.167969 "/>
<path style="fill-rule:nonzero;fill:rgb(0%,0%,0%);fill-opacity:1;stroke-width:1;stroke-linecap:butt;stroke-linejoin:miter;stroke:rgb(0%,0%,0%);stroke-opacity:1;stroke-miterlimit:10;" d="M 172.789062 84.464844 C 172.789062 101.035156 159.359375 114.464844 142.789062 114.464844 C 126.222656 114.464844 112.789062 101.035156 112.789062 84.464844 C 112.789062 67.898438 126.222656 54.464844 142.789062 54.464844 C 159.359375 54.464844 172.789062 67.898438 172.789062 84.464844 "/>
<path style="fill-rule:nonzero;fill:rgb(0%,0%,0%);fill-opacity:1;stroke-width:1;stroke-linecap:butt;stroke-linejoin:miter;stroke:rgb(0%,0%,0%);stroke-opacity:1;stroke-miterlimit:10;" d="M 211.660156 205.707031 C 211.660156 222.273438 198.226562 235.707031 181.660156 235.707031 C 165.089844 235.707031 151.660156 222.273438 151.660156 205.707031 C 151.660156 189.136719 165.089844 175.707031 181.660156 175.707031 C 198.226562 175.707031 211.660156 189.136719 211.660156 205.707031 "/>
<path style="fill-rule:nonzero;fill:rgb(0%,0%,0%);fill-opacity:1;stroke-width:1;stroke-linecap:butt;stroke-linejoin:miter;stroke:rgb(0%,0%,0%);stroke-opacity:1;stroke-miterlimit:10;" d="M 220.03125 123.199219 C 220.03125 139.769531 206.601562 153.199219 190.03125 153.199219 C 173.464844 153.199219 160.03125 139.769531 160.03125 123.199219 C 160.03125 106.632812 173.464844 93.199219 190.03125 93.199219 C 206.601562 93.199219 220.03125 106.632812 220.03125 123.199219 "/>
</g>
</svg>
