<?xml version="1.0" encoding="UTF-8"?>
<svg xmlns="http://www.w3.org/2000/svg" xmlns:xlink="http://www.w3.org/1999/xlink" width="517pt" height="517pt" viewBox="0 0 517 517" version="1.1">
<g id="surface3236">
<rect x="0" y="0" width="517" height="517" style="fill:rgb(90%,90%,90%);fill-opacity:1;stroke:none;"/>
<path style="fill:none;stroke-width:5;stroke-linecap:butt;stroke-linejoin:round;stroke:rgb(100%,0%,0%);stroke-opacity:1;stroke-miterlimit:10;" d="M 261 261 L 517 261 L 517 517 L 261 517 Z M 261 261 "/>
<path style="fill-rule:nonzero;fill:rgb(25%,88%,82%);fill-opacity:1;stroke-width:1;stroke-linecap:butt;stroke-linejoin:round;stroke:rgb(0%,0%,0%);stroke-opacity:1;stroke-miterlimit:10;" d="M 399.371094 382.359375 C 399.371094 398.929688 385.9375 412.359375 369.371094 412.359375 C 352.800781 412.359375 339.371094 398.929688 339.371094 382.359375 C 339.371094 365.792969 352.800781 352.359375 369.371094 352.359375 C 385.9375 352.359375 399.371094 365.792969 399.371094 382.359375 "/>
<path style="fill-rule:nonzero;fill:rgb(100%,7%,57%);fill-opacity:1;stroke-width:1;stroke-linecap:butt;stroke-linejoin:round;stroke:rgb(0%,0%,0%);stroke-opacity:1;stroke-miterlimit:10;" d="M 194.78125 449.800781 C 194.78125 466.371094 181.347656 479.800781 164.78125 479.800781 C 148.210938 479.800781 134.78125 466.371094 134.78125 449.800781 C 134.78125 433.230469 148.210938 419.800781 164.78125 419.800781 C 181.347656 419.800781 194.78125 433.230469 194.78125 449.800781 "/>
<path style="fill-rule:nonzero;fill:rgb(100%,7%,57%);fill-opacity:1;stroke-width:1;stroke-linecap:butt;stroke-linejoin:round;stroke:rgb(0%,0%,0%);stroke-opacity:1;stroke-miterlimit:10;" d="M 158.960938 312.0625 C 158.960938 328.628906 145.527344 342.0625 128.960938 342.0625 C 112.390625 342.0625 98.960938 328.628906 98.960938 312.0625 C 98.960938 295.492188 112.390625 282.0625 128.960938 282.0625 C 145.527344 282.0625 158.960938 295.492188 158.960938 312.0625 "/>
<path style="fill-rule:nonzero;fill:rgb(100%,7%,57%);fill-opacity:1;stroke-width:1;stroke-linecap:butt;stroke-linejoin:round;stroke:rgb(0%,0%,0%);stroke-opacity:1;stroke-miterlimit:10;" d="M 359.53125 57.472656 C 359.53125 74.042969 346.097656 87.472656 329.53125 87.472656 C 312.960938 87.472656 299.53125 74.042969 299.53125 57.472656 C 299.53125 40.90625 312.960938 27.472656 329.53125 27.472656 C 346.097656 27.472656 359.53125 40.90625 359.53125 57.472656 "/>
<path style="fill-rule:nonzero;fill:rgb(25%,88%,82%);fill-opacity:1;stroke-width:1;stroke-linecap:butt;stroke-linejoin:round;stroke:rgb(0%,0%,0%);stroke-opacity:1;stroke-miterlimit:10;" d="M 379.652344 183.746094 C 379.652344 200.3125 366.222656 213.746094 349.652344 213.746094 C 333.082031 213.746094 319.652344 200.3125 319.652344 183.746094 C 319.652344 167.175781 333.082031 153.746094 349.652344 153.746094 C 366.222656 153.746094 379.652344 167.175781 379.652344 183.746094 "/>
</g>
</svg>
