<?xml version="1.0" encoding="UTF-8"?>
<svg xmlns="http://www.w3.org/2000/svg" xmlns:xlink="http://www.w3.org/1999/xlink" width="517pt" height="517pt" viewBox="0 0 517 517" version="1.1">
<g id="surface3606">
<rect x="0" y="0" width="517" height="517" style="fill:rgb(90%,90%,90%);fill-opacity:1;stroke:none;"/>
<path style="fill:none;stroke-width:5;stroke-linecap:butt;stroke-linejoin:round;stroke:rgb(100%,0%,0%);stroke-opacity:1;stroke-miterlimit:10;" d="M 5 5 L 261 5 L 261 261 L 5 261 Z M 5 5 "/>
<path style="fill-rule:nonzero;fill:rgb(100%,100%,0%);fill-opacity:1;stroke-width:1;stroke-linecap:butt;stroke-linejoin:round;stroke:rgb(0%,0%,0%);stroke-opacity:1;stroke-miterlimit:10;" d="M 164.464844 115.90625 L 144.464844 115.90625 L 144.464844 125.90625 L 164.464844 125.90625 L 164.464844 145.90625 L 174.464844 145.90625 L 174.464844 125.90625 L 194.464844 125.90625 L 194.464844 115.90625 L 174.464844 115.90625 L 174.464844 95.90625 L 164.464844 95.90625 L 164.464844 115.90625 "/>
<path style="fill-rule:nonzero;fill:rgb(35%,70%,90%);fill-opacity:1;stroke-width:1;stroke-linecap:butt;stroke-linejoin:round;stroke:rgb(0%,0%,0%);stroke-opacity:1;stroke-miterlimit:10;" d="M 394.609375 189.910156 L 374.609375 189.910156 L 374.609375 199.910156 L 394.609375 199.910156 L 394.609375 219.910156 L 404.609375 219.910156 L 404.609375 199.910156 L 424.609375 199.910156 L 424.609375 189.910156 L 404.609375 189.910156 L 404.609375 169.910156 L 394.609375 169.910156 L 394.609375 189.910156 "/>
<path style="fill-rule:nonzero;fill:rgb(35%,70%,90%);fill-opacity:1;stroke-width:1;stroke-linecap:butt;stroke-linejoin:round;stroke:rgb(0%,0%,0%);stroke-opacity:1;stroke-miterlimit:10;" d="M 35.582031 463.28125 L 15.582031 463.28125 L 15.582031 473.28125 L 35.582031 473.28125 L 35.582031 493.28125 L 45.582031 493.28125 L 45.582031 473.28125 L 65.582031 473.28125 L 65.582031 463.28125 L 45.582031 463.28125 L 45.582031 443.28125 L 35.582031 443.28125 L 35.582031 463.28125 "/>
<path style="fill-rule:nonzero;fill:rgb(35%,70%,90%);fill-opacity:1;stroke-width:1;stroke-linecap:butt;stroke-linejoin:round;stroke:rgb(0%,0%,0%);stroke-opacity:1;stroke-miterlimit:10;" d="M 448.371094 449.726562 L 428.371094 449.726562 L 428.371094 459.726562 L 448.371094 459.726562 L 448.371094 479.726562 L 458.371094 479.726562 L 458.371094 459.726562 L 478.371094 459.726562 L 478.371094 449.726562 L 458.371094 449.726562 L 458.371094 429.726562 L 448.371094 429.726562 L 448.371094 449.726562 "/>
<path style="fill-rule:nonzero;fill:rgb(35%,70%,90%);fill-opacity:1;stroke-width:1;stroke-linecap:butt;stroke-linejoin:round;stroke:rgb(0%,0%,0%);stroke-opacity:1;stroke-miterlimit:10;" d="M 373.144531 367.125 L 353.144531 367.125 L 353.144531 377.125 L 373.144531 377.125 L 373.144531 397.125 L 383.144531 397.125 L 383.144531 377.125 L 403.144531 377.125 L 403.144531 367.125 L 383.144531 367.125 L 383.144531 347.125 L 373.144531 347.125 L 373.144531 367.125 "/>
<path style="fill-rule:nonzero;fill:rgb(35%,70%,90%);fill-opacity:1;stroke-width:1;stroke-linecap:butt;stroke-linejoin:round;stroke:rgb(0%,0%,0%);stroke-opacity:1;stroke-miterlimit:10;" d="M 384.511719 450.472656 L 364.511719 450.472656 L 364.511719 460.472656 L 384.511719 460.472656 L 384.511719 480.472656 L 394.511719 480.472656 L 394.511719 460.472656 L 414.511719 460.472656 L 414.511719 450.472656 L 394.511719 450.472656 L 394.511719 430.472656 L 384.511719 430.472656 L 384.511719 450.472656 "/>
</g>
</svg>
