<?xml version="1.0" encoding="UTF-8"?>
<svg xmlns="http://www.w3.org/2000/svg" xmlns:xlink="http://www.w3.org/1999/xlink" width="517pt" height="517pt" viewBox="0 0 517 517" version="1.1">
<g id="surface3671">
<rect x="0" y="0" width="517" height="517" style="fill:rgb(90%,90%,90%);fill-opacity:1;stroke:none;"/>
<path style="fill:none;stroke-width:5;stroke-linecap:butt;stroke-linejoin:round;stroke:rgb(100%,0%,0%);stroke-opacity:1;stroke-miterlimit:10;" d="M 5 5 L 261 5 L 261 261 L 5 261 Z M 5 5 "/>
<path style="fill-rule:nonzero;fill:rgb(35%,70%,90%);fill-opacity:1;stroke-width:1;stroke-linecap:butt;stroke-linejoin:round;stroke:rgb(0%,0%,0%);stroke-opacity:1;stroke-miterlimit:10;" d="M 138.984375 185.503906 L 118.984375 185.503906 L 118.984375 195.503906 L 138.984375 195.503906 L 138.984375 215.503906 L 148.984375 215.503906 L 148.984375 195.503906 L 168.984375 195.503906 L 168.984375 185.503906 L 148.984375 185.503906 L 148.984375 165.503906 L 138.984375 165.503906 L 138.984375 185.503906 "/>
<path style="fill-rule:nonzero;fill:rgb(35%,70%,90%);fill-opacity:1;stroke-width:1;stroke-linecap:butt;stroke-linejoin:round;stroke:rgb(0%,0%,0%);stroke-opacity:1;stroke-miterlimit:10;" d="M 131.417969 438.9375 L 111.417969 438.9375 L 111.417969 448.9375 L 131.417969 448.9375 L 131.417969 468.9375 L 141.417969 468.9375 L 141.417969 448.9375 L 161.417969 448.9375 L 161.417969 438.9375 L 141.417969 438.9375 L 141.417969 418.9375 L 131.417969 418.9375 L 131.417969 438.9375 "/>
<path style="fill-rule:nonzero;fill:rgb(100%,100%,0%);fill-opacity:1;stroke-width:1;stroke-linecap:butt;stroke-linejoin:round;stroke:rgb(0%,0%,0%);stroke-opacity:1;stroke-miterlimit:10;" d="M 372.574219 196.632812 L 352.574219 196.632812 L 352.574219 206.632812 L 372.574219 206.632812 L 372.574219 226.632812 L 382.574219 226.632812 L 382.574219 206.632812 L 402.574219 206.632812 L 402.574219 196.632812 L 382.574219 196.632812 L 382.574219 176.632812 L 372.574219 176.632812 L 372.574219 196.632812 "/>
<path style="fill-rule:nonzero;fill:rgb(100%,100%,0%);fill-opacity:1;stroke-width:1;stroke-linecap:butt;stroke-linejoin:round;stroke:rgb(0%,0%,0%);stroke-opacity:1;stroke-miterlimit:10;" d="M 464.230469 154.738281 L 444.230469 154.738281 L 444.230469 164.738281 L 464.230469 164.738281 L 464.230469 184.738281 L 474.230469 184.738281 L 474.230469 164.738281 L 494.230469 164.738281 L 494.230469 154.738281 L 474.230469 154.738281 L 474.230469 134.738281 L 464.230469 134.738281 L 464.230469 154.738281 "/>
<path style="fill-rule:nonzero;fill:rgb(100%,100%,0%);fill-opacity:1;stroke-width:1;stroke-linecap:butt;stroke-linejoin:round;stroke:rgb(0%,0%,0%);stroke-opacity:1;stroke-miterlimit:10;" d="M 313.484375 51.957031 L 293.484375 51.957031 L 293.484375 61.957031 L 313.484375 61.957031 L 313.484375 81.957031 L 323.484375 81.957031 L 323.484375 61.957031 L 343.484375 61.957031 L 343.484375 51.957031 L 323.484375 51.957031 L 323.484375 31.957031 L 313.484375 31.957031 L 313.484375 51.957031 "/>
<path style="fill-rule:nonzero;fill:rgb(100%,100%,0%);fill-opacity:1;stroke-width:1;stroke-linecap:butt;stroke-linejoin:round;stroke:rgb(0%,0%,0%);stroke-opacity:1;stroke-miterlimit:10;" d="M 383.847656 71.039062 L 363.847656 71.039062 L 363.847656 81.039062 L 383.847656 81.039062 L 383.847656 101.039062 L 393.847656 101.039062 L 393.847656 81.039062 L 413.847656 81.039062 L 413.847656 71.039062 L 393.847656 71.039062 L 393.847656 51.039062 L 383.847656 51.039062 L 383.847656 71.039062 "/>
</g>
</svg>
