<?xml version="1.0" encoding="UTF-8"?>
<svg xmlns="http://www.w3.org/2000/svg" xmlns:xlink="http://www.w3.org/1999/xlink" width="517pt" height="517pt" viewBox="0 0 517 517" version="1.1">
<g id="surface3341">
<rect x="0" y="0" width="517" height="517" style="fill:rgb(90%,90%,90%);fill-opacity:1;stroke:none;"/>
<path style="fill:none;stroke-width:5;stroke-linecap:butt;stroke-linejoin:round;stroke:rgb(100%,0%,0%);stroke-opacity:1;stroke-miterlimit:10;" d="M 261 261 L 517 261 L 517 517 L 261 517 Z M 261 261 "/>
<path style="fill-rule:nonzero;fill:rgb(35%,70%,90%);fill-opacity:1;stroke-width:1;stroke-linecap:butt;stroke-linejoin:round;stroke:rgb(0%,0%,0%);stroke-opacity:1;stroke-miterlimit:10;" d="M 424.164062 424.386719 L 404.164062 424.386719 L 404.164062 434.386719 L 424.164062 434.386719 L 424.164062 454.386719 L 434.164062 454.386719 L 434.164062 434.386719 L 454.164062 434.386719 L 454.164062 424.386719 L 434.164062 424.386719 L 434.164062 404.386719 L 424.164062 404.386719 L 424.164062 424.386719 "/>
<path style="fill-rule:nonzero;fill:rgb(35%,70%,90%);fill-opacity:1;stroke-width:1;stroke-linecap:butt;stroke-linejoin:round;stroke:rgb(0%,0%,0%);stroke-opacity:1;stroke-miterlimit:10;" d="M 117.472656 384.878906 L 97.472656 384.878906 L 97.472656 394.878906 L 117.472656 394.878906 L 117.472656 414.878906 L 127.472656 414.878906 L 127.472656 394.878906 L 147.472656 394.878906 L 147.472656 384.878906 L 127.472656 384.878906 L 127.472656 364.878906 L 117.472656 364.878906 L 117.472656 384.878906 "/>
<path style="fill-rule:nonzero;fill:rgb(35%,70%,90%);fill-opacity:1;stroke-width:1;stroke-linecap:butt;stroke-linejoin:round;stroke:rgb(0%,0%,0%);stroke-opacity:1;stroke-miterlimit:10;" d="M 167.21875 345.367188 L 147.21875 345.367188 L 147.21875 355.367188 L 167.21875 355.367188 L 167.21875 375.367188 L 177.21875 375.367188 L 177.21875 355.367188 L 197.21875 355.367188 L 197.21875 345.367188 L 177.21875 345.367188 L 177.21875 325.367188 L 167.21875 325.367188 L 167.21875 345.367188 "/>
<path style="fill-rule:nonzero;fill:rgb(35%,70%,90%);fill-opacity:1;stroke-width:1;stroke-linecap:butt;stroke-linejoin:round;stroke:rgb(0%,0%,0%);stroke-opacity:1;stroke-miterlimit:10;" d="M 152.988281 67.546875 L 132.988281 67.546875 L 132.988281 77.546875 L 152.988281 77.546875 L 152.988281 97.546875 L 162.988281 97.546875 L 162.988281 77.546875 L 182.988281 77.546875 L 182.988281 67.546875 L 162.988281 67.546875 L 162.988281 47.546875 L 152.988281 47.546875 L 152.988281 67.546875 "/>
<path style="fill-rule:nonzero;fill:rgb(90%,65%,0%);fill-opacity:1;stroke-width:1;stroke-linecap:butt;stroke-linejoin:round;stroke:rgb(0%,0%,0%);stroke-opacity:1;stroke-miterlimit:10;" d="M 91.171875 134.660156 L 71.171875 134.660156 L 71.171875 144.660156 L 91.171875 144.660156 L 91.171875 164.660156 L 101.171875 164.660156 L 101.171875 144.660156 L 121.171875 144.660156 L 121.171875 134.660156 L 101.171875 134.660156 L 101.171875 114.660156 L 91.171875 114.660156 L 91.171875 134.660156 "/>
</g>
</svg>
