<?xml version="1.0" encoding="UTF-8"?>
<svg xmlns="http://www.w3.org/2000/svg" xmlns:xlink="http://www.w3.org/1999/xlink" width="517pt" height="517pt" viewBox="0 0 517 517" version="1.1">
<g id="surface3241">
<rect x="0" y="0" width="517" height="517" style="fill:rgb(90%,90%,90%);fill-opacity:1;stroke:none;"/>
<path style="fill:none;stroke-width:5;stroke-linecap:butt;stroke-linejoin:round;stroke:rgb(100%,0%,0%);stroke-opacity:1;stroke-miterlimit:10;" d="M 261 261 L 517 261 L 517 517 L 261 517 Z M 261 261 "/>
<path style="fill-rule:nonzero;fill:rgb(25%,88%,82%);fill-opacity:1;stroke-width:1;stroke-linecap:butt;stroke-linejoin:round;stroke:rgb(0%,0%,0%);stroke-opacity:1;stroke-miterlimit:10;" d="M 336.277344 423.285156 C 336.277344 439.855469 322.847656 453.285156 306.277344 453.285156 C 289.710938 453.285156 276.277344 439.855469 276.277344 423.285156 C 276.277344 406.71875 289.710938 393.285156 306.277344 393.285156 C 322.847656 393.285156 336.277344 406.71875 336.277344 423.285156 "/>
<path style="fill-rule:nonzero;fill:rgb(100%,7%,57%);fill-opacity:1;stroke-width:1;stroke-linecap:butt;stroke-linejoin:round;stroke:rgb(0%,0%,0%);stroke-opacity:1;stroke-miterlimit:10;" d="M 406.089844 165.390625 C 406.089844 181.957031 392.65625 195.390625 376.089844 195.390625 C 359.519531 195.390625 346.089844 181.957031 346.089844 165.390625 C 346.089844 148.820312 359.519531 135.390625 376.089844 135.390625 C 392.65625 135.390625 406.089844 148.820312 406.089844 165.390625 "/>
<path style="fill-rule:nonzero;fill:rgb(25%,88%,82%);fill-opacity:1;stroke-width:1;stroke-linecap:butt;stroke-linejoin:round;stroke:rgb(0%,0%,0%);stroke-opacity:1;stroke-miterlimit:10;" d="M 135.972656 112.757812 C 135.972656 129.328125 122.539062 142.757812 105.972656 142.757812 C 89.402344 142.757812 75.972656 129.328125 75.972656 112.757812 C 75.972656 96.191406 89.402344 82.757812 105.972656 82.757812 C 122.539062 82.757812 135.972656 96.191406 135.972656 112.757812 "/>
<path style="fill-rule:nonzero;fill:rgb(25%,88%,82%);fill-opacity:1;stroke-width:1;stroke-linecap:butt;stroke-linejoin:round;stroke:rgb(0%,0%,0%);stroke-opacity:1;stroke-miterlimit:10;" d="M 107.585938 182.269531 C 107.585938 198.839844 94.15625 212.269531 77.585938 212.269531 C 61.019531 212.269531 47.585938 198.839844 47.585938 182.269531 C 47.585938 165.703125 61.019531 152.269531 77.585938 152.269531 C 94.15625 152.269531 107.585938 165.703125 107.585938 182.269531 "/>
<path style="fill-rule:nonzero;fill:rgb(25%,88%,82%);fill-opacity:1;stroke-width:1;stroke-linecap:butt;stroke-linejoin:round;stroke:rgb(0%,0%,0%);stroke-opacity:1;stroke-miterlimit:10;" d="M 159.164062 37.242188 C 159.164062 53.808594 145.730469 67.242188 129.164062 67.242188 C 112.59375 67.242188 99.164062 53.808594 99.164062 37.242188 C 99.164062 20.671875 112.59375 7.242188 129.164062 7.242188 C 145.730469 7.242188 159.164062 20.671875 159.164062 37.242188 "/>
</g>
</svg>
