<?xml version="1.0" encoding="UTF-8"?>
<svg xmlns="http://www.w3.org/2000/svg" xmlns:xlink="http://www.w3.org/1999/xlink" width="517pt" height="517pt" viewBox="0 0 517 517" version="1.1">
<g id="surface8926">
<rect x="0" y="0" width="517" height="517" style="fill:rgb(90%,90%,90%);fill-opacity:1;stroke:none;"/>
<path style="fill:none;stroke-width:5;stroke-linecap:butt;stroke-linejoin:round;stroke:rgb(100%,0%,0%);stroke-opacity:1;stroke-miterlimit:10;" d="M 261 261 L 517 261 L 517 517 L 261 517 Z M 261 261 "/>
<path style="fill-rule:nonzero;fill:rgb(0%,0%,0%);fill-opacity:1;stroke-width:1;stroke-linecap:butt;stroke-linejoin:round;stroke:rgb(0%,0%,0%);stroke-opacity:1;stroke-miterlimit:10;" d="M 402.164062 452.875 C 402.164062 469.445312 388.734375 482.875 372.164062 482.875 C 355.597656 482.875 342.164062 469.445312 342.164062 452.875 C 342.164062 436.308594 355.597656 422.875 372.164062 422.875 C 388.734375 422.875 402.164062 436.308594 402.164062 452.875 "/>
<path style="fill-rule:nonzero;fill:rgb(67%,100%,18%);fill-opacity:1;stroke-width:1;stroke-linecap:butt;stroke-linejoin:round;stroke:rgb(0%,0%,0%);stroke-opacity:1;stroke-miterlimit:10;" d="M 100.828125 202.308594 C 100.828125 218.878906 87.398438 232.308594 70.828125 232.308594 C 54.261719 232.308594 40.828125 218.878906 40.828125 202.308594 C 40.828125 185.742188 54.261719 172.308594 70.828125 172.308594 C 87.398438 172.308594 100.828125 185.742188 100.828125 202.308594 "/>
<path style="fill-rule:nonzero;fill:rgb(67%,100%,18%);fill-opacity:1;stroke-width:1;stroke-linecap:butt;stroke-linejoin:round;stroke:rgb(0%,0%,0%);stroke-opacity:1;stroke-miterlimit:10;" d="M 83.984375 142.925781 C 83.984375 159.496094 70.554688 172.925781 53.984375 172.925781 C 37.414062 172.925781 23.984375 159.496094 23.984375 142.925781 C 23.984375 126.359375 37.414062 112.925781 53.984375 112.925781 C 70.554688 112.925781 83.984375 126.359375 83.984375 142.925781 "/>
<path style="fill-rule:nonzero;fill:rgb(67%,100%,18%);fill-opacity:1;stroke-width:1;stroke-linecap:butt;stroke-linejoin:round;stroke:rgb(0%,0%,0%);stroke-opacity:1;stroke-miterlimit:10;" d="M 439.714844 69.890625 C 439.714844 86.457031 426.28125 99.890625 409.714844 99.890625 C 393.144531 99.890625 379.714844 86.457031 379.714844 69.890625 C 379.714844 53.320312 393.144531 39.890625 409.714844 39.890625 C 426.28125 39.890625 439.714844 53.320312 439.714844 69.890625 "/>
<path style="fill-rule:nonzero;fill:rgb(67%,100%,18%);fill-opacity:1;stroke-width:1;stroke-linecap:butt;stroke-linejoin:round;stroke:rgb(0%,0%,0%);stroke-opacity:1;stroke-miterlimit:10;" d="M 362.367188 168.4375 C 362.367188 185.007812 348.9375 198.4375 332.367188 198.4375 C 315.800781 198.4375 302.367188 185.007812 302.367188 168.4375 C 302.367188 151.871094 315.800781 138.4375 332.367188 138.4375 C 348.9375 138.4375 362.367188 151.871094 362.367188 168.4375 "/>
</g>
</svg>
