<?xml version="1.0" encoding="UTF-8"?>
<svg xmlns="http://www.w3.org/2000/svg" xmlns:xlink="http://www.w3.org/1999/xlink" width="517pt" height="517pt" viewBox="0 0 517 517" version="1.1">
<g id="surface3581">
<rect x="0" y="0" width="517" height="517" style="fill:rgb(90%,90%,90%);fill-opacity:1;stroke:none;"/>
<path style="fill:none;stroke-width:5;stroke-linecap:butt;stroke-linejoin:round;stroke:rgb(100%,0%,0%);stroke-opacity:1;stroke-miterlimit:10;" d="M 5 5 L 261 5 L 261 261 L 5 261 Z M 5 5 "/>
<path style="fill-rule:nonzero;fill:rgb(25%,88%,82%);fill-opacity:1;stroke-width:1;stroke-linecap:butt;stroke-linejoin:round;stroke:rgb(0%,0%,0%);stroke-opacity:1;stroke-miterlimit:10;" d="M 125.023438 77.382812 C 125.023438 93.953125 111.589844 107.382812 95.023438 107.382812 C 78.453125 107.382812 65.023438 93.953125 65.023438 77.382812 C 65.023438 60.816406 78.453125 47.382812 95.023438 47.382812 C 111.589844 47.382812 125.023438 60.816406 125.023438 77.382812 "/>
<path style="fill-rule:nonzero;fill:rgb(25%,88%,82%);fill-opacity:1;stroke-width:1;stroke-linecap:butt;stroke-linejoin:round;stroke:rgb(0%,0%,0%);stroke-opacity:1;stroke-miterlimit:10;" d="M 398.457031 74.101562 C 398.457031 90.671875 385.023438 104.101562 368.457031 104.101562 C 351.886719 104.101562 338.457031 90.671875 338.457031 74.101562 C 338.457031 57.53125 351.886719 44.101562 368.457031 44.101562 C 385.023438 44.101562 398.457031 57.53125 398.457031 74.101562 "/>
<path style="fill-rule:nonzero;fill:rgb(25%,88%,82%);fill-opacity:1;stroke-width:1;stroke-linecap:butt;stroke-linejoin:round;stroke:rgb(0%,0%,0%);stroke-opacity:1;stroke-miterlimit:10;" d="M 340.714844 190.78125 C 340.714844 207.347656 327.28125 220.78125 310.714844 220.78125 C 294.144531 220.78125 280.714844 207.347656 280.714844 190.78125 C 280.714844 174.210938 294.144531 160.78125 310.714844 160.78125 C 327.28125 160.78125 340.714844 174.210938 340.714844 190.78125 "/>
<path style="fill-rule:nonzero;fill:rgb(25%,88%,82%);fill-opacity:1;stroke-width:1;stroke-linecap:butt;stroke-linejoin:round;stroke:rgb(0%,0%,0%);stroke-opacity:1;stroke-miterlimit:10;" d="M 418.484375 364.34375 C 418.484375 380.914062 405.054688 394.34375 388.484375 394.34375 C 371.914062 394.34375 358.484375 380.914062 358.484375 364.34375 C 358.484375 347.777344 371.914062 334.34375 388.484375 334.34375 C 405.054688 334.34375 418.484375 347.777344 418.484375 364.34375 "/>
<path style="fill-rule:nonzero;fill:rgb(25%,88%,82%);fill-opacity:1;stroke-width:1;stroke-linecap:butt;stroke-linejoin:round;stroke:rgb(0%,0%,0%);stroke-opacity:1;stroke-miterlimit:10;" d="M 463.269531 454.207031 C 463.269531 470.773438 449.839844 484.207031 433.269531 484.207031 C 416.703125 484.207031 403.269531 470.773438 403.269531 454.207031 C 403.269531 437.636719 416.703125 424.207031 433.269531 424.207031 C 449.839844 424.207031 463.269531 437.636719 463.269531 454.207031 "/>
<path style="fill-rule:nonzero;fill:rgb(100%,0%,0%);fill-opacity:1;stroke-width:1;stroke-linecap:butt;stroke-linejoin:round;stroke:rgb(0%,0%,0%);stroke-opacity:1;stroke-miterlimit:10;" d="M 335.890625 369.289062 C 335.890625 385.855469 322.460938 399.289062 305.890625 399.289062 C 289.324219 399.289062 275.890625 385.855469 275.890625 369.289062 C 275.890625 352.71875 289.324219 339.289062 305.890625 339.289062 C 322.460938 339.289062 335.890625 352.71875 335.890625 369.289062 "/>
</g>
</svg>
