<?xml version="1.0" encoding="UTF-8"?>
<svg xmlns="http://www.w3.org/2000/svg" xmlns:xlink="http://www.w3.org/1999/xlink" width="517pt" height="517pt" viewBox="0 0 517 517" version="1.1">
<g id="surface8956">
<rect x="0" y="0" width="517" height="517" style="fill:rgb(90%,90%,90%);fill-opacity:1;stroke:none;"/>
<path style="fill:none;stroke-width:5;stroke-linecap:butt;stroke-linejoin:round;stroke:rgb(100%,0%,0%);stroke-opacity:1;stroke-miterlimit:10;" d="M 261 261 L 517 261 L 517 517 L 261 517 Z M 261 261 "/>
<path style="fill-rule:nonzero;fill:rgb(67%,100%,18%);fill-opacity:1;stroke-width:1;stroke-linecap:butt;stroke-linejoin:round;stroke:rgb(0%,0%,0%);stroke-opacity:1;stroke-miterlimit:10;" d="M 357.480469 343.136719 C 357.480469 359.703125 344.046875 373.136719 327.480469 373.136719 C 310.910156 373.136719 297.480469 359.703125 297.480469 343.136719 C 297.480469 326.566406 310.910156 313.136719 327.480469 313.136719 C 344.046875 313.136719 357.480469 326.566406 357.480469 343.136719 "/>
<path style="fill-rule:nonzero;fill:rgb(67%,100%,18%);fill-opacity:1;stroke-width:1;stroke-linecap:butt;stroke-linejoin:round;stroke:rgb(0%,0%,0%);stroke-opacity:1;stroke-miterlimit:10;" d="M 83.523438 61.660156 C 83.523438 78.230469 70.09375 91.660156 53.523438 91.660156 C 36.957031 91.660156 23.523438 78.230469 23.523438 61.660156 C 23.523438 45.089844 36.957031 31.660156 53.523438 31.660156 C 70.09375 31.660156 83.523438 45.089844 83.523438 61.660156 "/>
<path style="fill-rule:nonzero;fill:rgb(67%,100%,18%);fill-opacity:1;stroke-width:1;stroke-linecap:butt;stroke-linejoin:round;stroke:rgb(0%,0%,0%);stroke-opacity:1;stroke-miterlimit:10;" d="M 245.257812 94.589844 C 245.257812 111.15625 231.824219 124.589844 215.257812 124.589844 C 198.6875 124.589844 185.257812 111.15625 185.257812 94.589844 C 185.257812 78.019531 198.6875 64.589844 215.257812 64.589844 C 231.824219 64.589844 245.257812 78.019531 245.257812 94.589844 "/>
<path style="fill-rule:nonzero;fill:rgb(67%,100%,18%);fill-opacity:1;stroke-width:1;stroke-linecap:butt;stroke-linejoin:round;stroke:rgb(0%,0%,0%);stroke-opacity:1;stroke-miterlimit:10;" d="M 135.785156 403.664062 C 135.785156 420.230469 122.351562 433.664062 105.785156 433.664062 C 89.214844 433.664062 75.785156 420.230469 75.785156 403.664062 C 75.785156 387.09375 89.214844 373.664062 105.785156 373.664062 C 122.351562 373.664062 135.785156 387.09375 135.785156 403.664062 "/>
<path style="fill-rule:nonzero;fill:rgb(67%,100%,18%);fill-opacity:1;stroke-width:1;stroke-linecap:butt;stroke-linejoin:round;stroke:rgb(0%,0%,0%);stroke-opacity:1;stroke-miterlimit:10;" d="M 201.160156 303.5625 C 201.160156 320.128906 187.730469 333.5625 171.160156 333.5625 C 154.59375 333.5625 141.160156 320.128906 141.160156 303.5625 C 141.160156 286.992188 154.59375 273.5625 171.160156 273.5625 C 187.730469 273.5625 201.160156 286.992188 201.160156 303.5625 "/>
<path style="fill-rule:nonzero;fill:rgb(67%,100%,18%);fill-opacity:1;stroke-width:1;stroke-linecap:butt;stroke-linejoin:round;stroke:rgb(0%,0%,0%);stroke-opacity:1;stroke-miterlimit:10;" d="M 201.472656 384.679688 C 201.472656 401.25 188.042969 414.679688 171.472656 414.679688 C 154.902344 414.679688 141.472656 401.25 141.472656 384.679688 C 141.472656 368.109375 154.902344 354.679688 171.472656 354.679688 C 188.042969 354.679688 201.472656 368.109375 201.472656 384.679688 "/>
</g>
</svg>
