<?xml version="1.0" encoding="UTF-8"?>
<svg xmlns="http://www.w3.org/2000/svg" xmlns:xlink="http://www.w3.org/1999/xlink" width="517pt" height="517pt" viewBox="0 0 517 517" version="1.1">
<g id="surface3231">
<rect x="0" y="0" width="517" height="517" style="fill:rgb(90%,90%,90%);fill-opacity:1;stroke:none;"/>
<path style="fill:none;stroke-width:5;stroke-linecap:butt;stroke-linejoin:round;stroke:rgb(100%,0%,0%);stroke-opacity:1;stroke-miterlimit:10;" d="M 261 261 L 517 261 L 517 517 L 261 517 Z M 261 261 "/>
<path style="fill-rule:nonzero;fill:rgb(25%,88%,82%);fill-opacity:1;stroke-width:1;stroke-linecap:butt;stroke-linejoin:round;stroke:rgb(0%,0%,0%);stroke-opacity:1;stroke-miterlimit:10;" d="M 394.214844 370.628906 C 394.214844 387.195312 380.78125 400.628906 364.214844 400.628906 C 347.644531 400.628906 334.214844 387.195312 334.214844 370.628906 C 334.214844 354.058594 347.644531 340.628906 364.214844 340.628906 C 380.78125 340.628906 394.214844 354.058594 394.214844 370.628906 "/>
<path style="fill-rule:nonzero;fill:rgb(100%,7%,57%);fill-opacity:1;stroke-width:1;stroke-linecap:butt;stroke-linejoin:round;stroke:rgb(0%,0%,0%);stroke-opacity:1;stroke-miterlimit:10;" d="M 110.933594 119.183594 C 110.933594 135.753906 97.5 149.183594 80.933594 149.183594 C 64.363281 149.183594 50.933594 135.753906 50.933594 119.183594 C 50.933594 102.617188 64.363281 89.183594 80.933594 89.183594 C 97.5 89.183594 110.933594 102.617188 110.933594 119.183594 "/>
<path style="fill-rule:nonzero;fill:rgb(100%,7%,57%);fill-opacity:1;stroke-width:1;stroke-linecap:butt;stroke-linejoin:round;stroke:rgb(0%,0%,0%);stroke-opacity:1;stroke-miterlimit:10;" d="M 102.679688 328.371094 C 102.679688 344.9375 89.25 358.371094 72.679688 358.371094 C 56.113281 358.371094 42.679688 344.9375 42.679688 328.371094 C 42.679688 311.800781 56.113281 298.371094 72.679688 298.371094 C 89.25 298.371094 102.679688 311.800781 102.679688 328.371094 "/>
<path style="fill-rule:nonzero;fill:rgb(100%,7%,57%);fill-opacity:1;stroke-width:1;stroke-linecap:butt;stroke-linejoin:round;stroke:rgb(0%,0%,0%);stroke-opacity:1;stroke-miterlimit:10;" d="M 245.457031 351.066406 C 245.457031 367.632812 232.023438 381.066406 215.457031 381.066406 C 198.886719 381.066406 185.457031 367.632812 185.457031 351.066406 C 185.457031 334.496094 198.886719 321.066406 215.457031 321.066406 C 232.023438 321.066406 245.457031 334.496094 245.457031 351.066406 "/>
<path style="fill-rule:nonzero;fill:rgb(25%,88%,82%);fill-opacity:1;stroke-width:1;stroke-linecap:butt;stroke-linejoin:round;stroke:rgb(0%,0%,0%);stroke-opacity:1;stroke-miterlimit:10;" d="M 455.371094 171.792969 C 455.371094 188.359375 441.941406 201.792969 425.371094 201.792969 C 408.804688 201.792969 395.371094 188.359375 395.371094 171.792969 C 395.371094 155.222656 408.804688 141.792969 425.371094 141.792969 C 441.941406 141.792969 455.371094 155.222656 455.371094 171.792969 "/>
</g>
</svg>
