<?xml version="1.0" encoding="UTF-8"?>
<svg xmlns="http://www.w3.org/2000/svg" xmlns:xlink="http://www.w3.org/1999/xlink" width="517pt" height="517pt" viewBox="0 0 517 517" version="1.1">
<g id="surface3621">
<rect x="0" y="0" width="517" height="517" style="fill:rgb(90%,90%,90%);fill-opacity:1;stroke:none;"/>
<path style="fill:none;stroke-width:5;stroke-linecap:butt;stroke-linejoin:round;stroke:rgb(100%,0%,0%);stroke-opacity:1;stroke-miterlimit:10;" d="M 5 5 L 261 5 L 261 261 L 5 261 Z M 5 5 "/>
<path style="fill-rule:nonzero;fill:rgb(100%,100%,0%);fill-opacity:1;stroke-width:1;stroke-linecap:butt;stroke-linejoin:round;stroke:rgb(0%,0%,0%);stroke-opacity:1;stroke-miterlimit:10;" d="M 120.683594 142.550781 L 100.683594 142.550781 L 100.683594 152.550781 L 120.683594 152.550781 L 120.683594 172.550781 L 130.683594 172.550781 L 130.683594 152.550781 L 150.683594 152.550781 L 150.683594 142.550781 L 130.683594 142.550781 L 130.683594 122.550781 L 120.683594 122.550781 L 120.683594 142.550781 "/>
<path style="fill-rule:nonzero;fill:rgb(35%,70%,90%);fill-opacity:1;stroke-width:1;stroke-linecap:butt;stroke-linejoin:round;stroke:rgb(0%,0%,0%);stroke-opacity:1;stroke-miterlimit:10;" d="M 83.1875 436.605469 L 63.1875 436.605469 L 63.1875 446.605469 L 83.1875 446.605469 L 83.1875 466.605469 L 93.1875 466.605469 L 93.1875 446.605469 L 113.1875 446.605469 L 113.1875 436.605469 L 93.1875 436.605469 L 93.1875 416.605469 L 83.1875 416.605469 L 83.1875 436.605469 "/>
<path style="fill-rule:nonzero;fill:rgb(35%,70%,90%);fill-opacity:1;stroke-width:1;stroke-linecap:butt;stroke-linejoin:round;stroke:rgb(0%,0%,0%);stroke-opacity:1;stroke-miterlimit:10;" d="M 169.414062 350.066406 L 149.414062 350.066406 L 149.414062 360.066406 L 169.414062 360.066406 L 169.414062 380.066406 L 179.414062 380.066406 L 179.414062 360.066406 L 199.414062 360.066406 L 199.414062 350.066406 L 179.414062 350.066406 L 179.414062 330.066406 L 169.414062 330.066406 L 169.414062 350.066406 "/>
<path style="fill-rule:nonzero;fill:rgb(35%,70%,90%);fill-opacity:1;stroke-width:1;stroke-linecap:butt;stroke-linejoin:round;stroke:rgb(0%,0%,0%);stroke-opacity:1;stroke-miterlimit:10;" d="M 362.292969 137.128906 L 342.292969 137.128906 L 342.292969 147.128906 L 362.292969 147.128906 L 362.292969 167.128906 L 372.292969 167.128906 L 372.292969 147.128906 L 392.292969 147.128906 L 392.292969 137.128906 L 372.292969 137.128906 L 372.292969 117.128906 L 362.292969 117.128906 L 362.292969 137.128906 "/>
<path style="fill-rule:nonzero;fill:rgb(35%,70%,90%);fill-opacity:1;stroke-width:1;stroke-linecap:butt;stroke-linejoin:round;stroke:rgb(0%,0%,0%);stroke-opacity:1;stroke-miterlimit:10;" d="M 437.996094 101.53125 L 417.996094 101.53125 L 417.996094 111.53125 L 437.996094 111.53125 L 437.996094 131.53125 L 447.996094 131.53125 L 447.996094 111.53125 L 467.996094 111.53125 L 467.996094 101.53125 L 447.996094 101.53125 L 447.996094 81.53125 L 437.996094 81.53125 L 437.996094 101.53125 "/>
<path style="fill-rule:nonzero;fill:rgb(100%,100%,0%);fill-opacity:1;stroke-width:1;stroke-linecap:butt;stroke-linejoin:round;stroke:rgb(0%,0%,0%);stroke-opacity:1;stroke-miterlimit:10;" d="M 299.121094 159.210938 L 279.121094 159.210938 L 279.121094 169.210938 L 299.121094 169.210938 L 299.121094 189.210938 L 309.121094 189.210938 L 309.121094 169.210938 L 329.121094 169.210938 L 329.121094 159.210938 L 309.121094 159.210938 L 309.121094 139.210938 L 299.121094 139.210938 L 299.121094 159.210938 "/>
</g>
</svg>
