<?xml version="1.0" encoding="UTF-8"?>
<svg xmlns="http://www.w3.org/2000/svg" xmlns:xlink="http://www.w3.org/1999/xlink" width="517pt" height="517pt" viewBox="0 0 517 517" version="1.1">
<g id="surface316">
<rect x="0" y="0" width="517" height="517" style="fill:rgb(90%,90%,90%);fill-opacity:1;stroke:none;"/>
<path style="fill:none;stroke-width:5;stroke-linecap:butt;stroke-linejoin:round;stroke:rgb(100%,0%,0%);stroke-opacity:1;stroke-miterlimit:10;" d="M 5 5 L 261 5 L 261 261 L 5 261 Z M 5 5 "/>
<path style="fill-rule:nonzero;fill:rgb(53%,27%,7%);fill-opacity:1;stroke-width:1;stroke-linecap:butt;stroke-linejoin:round;stroke:rgb(0%,0%,0%);stroke-opacity:1;stroke-miterlimit:10;" d="M 103.492188 148.351562 C 103.492188 133.953125 79.492188 133.953125 79.492188 148.351562 C 79.492188 162.753906 103.492188 165.152344 103.492188 177.152344 C 103.492188 165.152344 127.492188 162.753906 127.492188 148.351562 C 127.492188 133.953125 103.492188 133.953125 103.492188 148.351562 "/>
<path style="fill-rule:nonzero;fill:rgb(50%,0%,50%);fill-opacity:1;stroke-width:1;stroke-linecap:butt;stroke-linejoin:round;stroke:rgb(0%,0%,0%);stroke-opacity:1;stroke-miterlimit:10;" d="M 349.082031 297.539062 C 349.082031 283.136719 325.082031 283.136719 325.082031 297.539062 C 325.082031 311.9375 349.082031 314.339844 349.082031 326.339844 C 349.082031 314.339844 373.082031 311.9375 373.082031 297.539062 C 373.082031 283.136719 349.082031 283.136719 349.082031 297.539062 "/>
<path style="fill-rule:nonzero;fill:rgb(50%,0%,50%);fill-opacity:1;stroke-width:1;stroke-linecap:butt;stroke-linejoin:round;stroke:rgb(0%,0%,0%);stroke-opacity:1;stroke-miterlimit:10;" d="M 35.886719 442.015625 C 35.886719 427.617188 11.886719 427.617188 11.886719 442.015625 C 11.886719 456.417969 35.886719 458.816406 35.886719 470.816406 C 35.886719 458.816406 59.886719 456.417969 59.886719 442.015625 C 59.886719 427.617188 35.886719 427.617188 35.886719 442.015625 "/>
<path style="fill-rule:nonzero;fill:rgb(67%,100%,18%);fill-opacity:1;stroke-width:1;stroke-linecap:butt;stroke-linejoin:round;stroke:rgb(0%,0%,0%);stroke-opacity:1;stroke-miterlimit:10;" d="M 132.082031 445.199219 C 132.082031 430.796875 108.082031 430.796875 108.082031 445.199219 C 108.082031 459.597656 132.082031 462 132.082031 474 C 132.082031 462 156.082031 459.597656 156.082031 445.199219 C 156.082031 430.796875 132.082031 430.796875 132.082031 445.199219 "/>
</g>
</svg>
