<?xml version="1.0" encoding="UTF-8"?>
<svg xmlns="http://www.w3.org/2000/svg" xmlns:xlink="http://www.w3.org/1999/xlink" width="517pt" height="517pt" viewBox="0 0 517 517" version="1.1">
<g id="surface8636">
<rect x="0" y="0" width="517" height="517" style="fill:rgb(90%,90%,90%);fill-opacity:1;stroke:none;"/>
<path style="fill:none;stroke-width:5;stroke-linecap:butt;stroke-linejoin:round;stroke:rgb(100%,0%,0%);stroke-opacity:1;stroke-miterlimit:10;" d="M 261 261 L 517 261 L 517 517 L 261 517 Z M 261 261 "/>
<path style="fill-rule:nonzero;fill:rgb(100%,100%,0%);fill-opacity:1;stroke-width:1;stroke-linecap:butt;stroke-linejoin:round;stroke:rgb(0%,0%,0%);stroke-opacity:1;stroke-miterlimit:10;" d="M 394.078125 440.875 C 394.078125 457.445312 380.648438 470.875 364.078125 470.875 C 347.511719 470.875 334.078125 457.445312 334.078125 440.875 C 334.078125 424.308594 347.511719 410.875 364.078125 410.875 C 380.648438 410.875 394.078125 424.308594 394.078125 440.875 "/>
<path style="fill-rule:nonzero;fill:rgb(100%,100%,0%);fill-opacity:1;stroke-width:1;stroke-linecap:butt;stroke-linejoin:round;stroke:rgb(0%,0%,0%);stroke-opacity:1;stroke-miterlimit:10;" d="M 90.179688 88.828125 C 90.179688 105.398438 76.746094 118.828125 60.179688 118.828125 C 43.609375 118.828125 30.179688 105.398438 30.179688 88.828125 C 30.179688 72.261719 43.609375 58.828125 60.179688 58.828125 C 76.746094 58.828125 90.179688 72.261719 90.179688 88.828125 "/>
<path style="fill-rule:nonzero;fill:rgb(100%,100%,0%);fill-opacity:1;stroke-width:1;stroke-linecap:butt;stroke-linejoin:round;stroke:rgb(0%,0%,0%);stroke-opacity:1;stroke-miterlimit:10;" d="M 165.535156 62.726562 C 165.535156 79.296875 152.105469 92.726562 135.535156 92.726562 C 118.96875 92.726562 105.535156 79.296875 105.535156 62.726562 C 105.535156 46.160156 118.96875 32.726562 135.535156 32.726562 C 152.105469 32.726562 165.535156 46.160156 165.535156 62.726562 "/>
<path style="fill-rule:nonzero;fill:rgb(100%,100%,0%);fill-opacity:1;stroke-width:1;stroke-linecap:butt;stroke-linejoin:round;stroke:rgb(0%,0%,0%);stroke-opacity:1;stroke-miterlimit:10;" d="M 450.335938 49.976562 C 450.335938 66.542969 436.902344 79.976562 420.335938 79.976562 C 403.765625 79.976562 390.335938 66.542969 390.335938 49.976562 C 390.335938 33.40625 403.765625 19.976562 420.335938 19.976562 C 436.902344 19.976562 450.335938 33.40625 450.335938 49.976562 "/>
<path style="fill-rule:nonzero;fill:rgb(100%,100%,0%);fill-opacity:1;stroke-width:1;stroke-linecap:butt;stroke-linejoin:round;stroke:rgb(0%,0%,0%);stroke-opacity:1;stroke-miterlimit:10;" d="M 325.15625 189.390625 C 325.15625 205.960938 311.722656 219.390625 295.15625 219.390625 C 278.585938 219.390625 265.15625 205.960938 265.15625 189.390625 C 265.15625 172.820312 278.585938 159.390625 295.15625 159.390625 C 311.722656 159.390625 325.15625 172.820312 325.15625 189.390625 "/>
<path style="fill-rule:nonzero;fill:rgb(100%,100%,0%);fill-opacity:1;stroke-width:1;stroke-linecap:butt;stroke-linejoin:round;stroke:rgb(0%,0%,0%);stroke-opacity:1;stroke-miterlimit:10;" d="M 366.523438 104.328125 C 366.523438 120.898438 353.09375 134.328125 336.523438 134.328125 C 319.957031 134.328125 306.523438 120.898438 306.523438 104.328125 C 306.523438 87.757812 319.957031 74.328125 336.523438 74.328125 C 353.09375 74.328125 366.523438 87.757812 366.523438 104.328125 "/>
</g>
</svg>
