<?xml version="1.0" encoding="UTF-8"?>
<svg xmlns="http://www.w3.org/2000/svg" xmlns:xlink="http://www.w3.org/1999/xlink" width="517pt" height="517pt" viewBox="0 0 517 517" version="1.1">
<g id="surface3591">
<rect x="0" y="0" width="517" height="517" style="fill:rgb(90%,90%,90%);fill-opacity:1;stroke:none;"/>
<path style="fill:none;stroke-width:5;stroke-linecap:butt;stroke-linejoin:round;stroke:rgb(100%,0%,0%);stroke-opacity:1;stroke-miterlimit:10;" d="M 5 5 L 261 5 L 261 261 L 5 261 Z M 5 5 "/>
<path style="fill-rule:nonzero;fill:rgb(25%,88%,82%);fill-opacity:1;stroke-width:1;stroke-linecap:butt;stroke-linejoin:round;stroke:rgb(0%,0%,0%);stroke-opacity:1;stroke-miterlimit:10;" d="M 143.394531 141.128906 C 143.394531 157.695312 129.960938 171.128906 113.394531 171.128906 C 96.824219 171.128906 83.394531 157.695312 83.394531 141.128906 C 83.394531 124.558594 96.824219 111.128906 113.394531 111.128906 C 129.960938 111.128906 143.394531 124.558594 143.394531 141.128906 "/>
<path style="fill-rule:nonzero;fill:rgb(25%,88%,82%);fill-opacity:1;stroke-width:1;stroke-linecap:butt;stroke-linejoin:round;stroke:rgb(0%,0%,0%);stroke-opacity:1;stroke-miterlimit:10;" d="M 162.347656 364.582031 C 162.347656 381.148438 148.917969 394.582031 132.347656 394.582031 C 115.78125 394.582031 102.347656 381.148438 102.347656 364.582031 C 102.347656 348.011719 115.78125 334.582031 132.347656 334.582031 C 148.917969 334.582031 162.347656 348.011719 162.347656 364.582031 "/>
<path style="fill-rule:nonzero;fill:rgb(100%,0%,0%);fill-opacity:1;stroke-width:1;stroke-linecap:butt;stroke-linejoin:round;stroke:rgb(0%,0%,0%);stroke-opacity:1;stroke-miterlimit:10;" d="M 483.15625 40.210938 C 483.15625 56.777344 469.726562 70.210938 453.15625 70.210938 C 436.589844 70.210938 423.15625 56.777344 423.15625 40.210938 C 423.15625 23.640625 436.589844 10.210938 453.15625 10.210938 C 469.726562 10.210938 483.15625 23.640625 483.15625 40.210938 "/>
<path style="fill-rule:nonzero;fill:rgb(100%,0%,0%);fill-opacity:1;stroke-width:1;stroke-linecap:butt;stroke-linejoin:round;stroke:rgb(0%,0%,0%);stroke-opacity:1;stroke-miterlimit:10;" d="M 434.421875 337.460938 C 434.421875 354.03125 420.992188 367.460938 404.421875 367.460938 C 387.855469 367.460938 374.421875 354.03125 374.421875 337.460938 C 374.421875 320.894531 387.855469 307.460938 404.421875 307.460938 C 420.992188 307.460938 434.421875 320.894531 434.421875 337.460938 "/>
<path style="fill-rule:nonzero;fill:rgb(100%,0%,0%);fill-opacity:1;stroke-width:1;stroke-linecap:butt;stroke-linejoin:round;stroke:rgb(0%,0%,0%);stroke-opacity:1;stroke-miterlimit:10;" d="M 356.0625 395.558594 C 356.0625 412.125 342.628906 425.558594 326.0625 425.558594 C 309.492188 425.558594 296.0625 412.125 296.0625 395.558594 C 296.0625 378.988281 309.492188 365.558594 326.0625 365.558594 C 342.628906 365.558594 356.0625 378.988281 356.0625 395.558594 "/>
<path style="fill-rule:nonzero;fill:rgb(100%,0%,0%);fill-opacity:1;stroke-width:1;stroke-linecap:butt;stroke-linejoin:round;stroke:rgb(0%,0%,0%);stroke-opacity:1;stroke-miterlimit:10;" d="M 331.042969 455.019531 C 331.042969 471.585938 317.609375 485.019531 301.042969 485.019531 C 284.472656 485.019531 271.042969 471.585938 271.042969 455.019531 C 271.042969 438.449219 284.472656 425.019531 301.042969 425.019531 C 317.609375 425.019531 331.042969 438.449219 331.042969 455.019531 "/>
</g>
</svg>
