<?xml version="1.0" encoding="UTF-8"?>
<svg xmlns="http://www.w3.org/2000/svg" xmlns:xlink="http://www.w3.org/1999/xlink" width="517pt" height="517pt" viewBox="0 0 517 517" version="1.1">
<g id="surface3291">
<rect x="0" y="0" width="517" height="517" style="fill:rgb(90%,90%,90%);fill-opacity:1;stroke:none;"/>
<path style="fill:none;stroke-width:5;stroke-linecap:butt;stroke-linejoin:round;stroke:rgb(100%,0%,0%);stroke-opacity:1;stroke-miterlimit:10;" d="M 261 261 L 517 261 L 517 517 L 261 517 Z M 261 261 "/>
<path style="fill-rule:nonzero;fill:rgb(90%,65%,0%);fill-opacity:1;stroke-width:1;stroke-linecap:butt;stroke-linejoin:round;stroke:rgb(0%,0%,0%);stroke-opacity:1;stroke-miterlimit:10;" d="M 373.195312 430.039062 L 353.195312 430.039062 L 353.195312 440.039062 L 373.195312 440.039062 L 373.195312 460.039062 L 383.195312 460.039062 L 383.195312 440.039062 L 403.195312 440.039062 L 403.195312 430.039062 L 383.195312 430.039062 L 383.195312 410.039062 L 373.195312 410.039062 L 373.195312 430.039062 "/>
<path style="fill-rule:nonzero;fill:rgb(35%,70%,90%);fill-opacity:1;stroke-width:1;stroke-linecap:butt;stroke-linejoin:round;stroke:rgb(0%,0%,0%);stroke-opacity:1;stroke-miterlimit:10;" d="M 64.332031 197.777344 L 44.332031 197.777344 L 44.332031 207.777344 L 64.332031 207.777344 L 64.332031 227.777344 L 74.332031 227.777344 L 74.332031 207.777344 L 94.332031 207.777344 L 94.332031 197.777344 L 74.332031 197.777344 L 74.332031 177.777344 L 64.332031 177.777344 L 64.332031 197.777344 "/>
<path style="fill-rule:nonzero;fill:rgb(35%,70%,90%);fill-opacity:1;stroke-width:1;stroke-linecap:butt;stroke-linejoin:round;stroke:rgb(0%,0%,0%);stroke-opacity:1;stroke-miterlimit:10;" d="M 45.410156 391.695312 L 25.410156 391.695312 L 25.410156 401.695312 L 45.410156 401.695312 L 45.410156 421.695312 L 55.410156 421.695312 L 55.410156 401.695312 L 75.410156 401.695312 L 75.410156 391.695312 L 55.410156 391.695312 L 55.410156 371.695312 L 45.410156 371.695312 L 45.410156 391.695312 "/>
<path style="fill-rule:nonzero;fill:rgb(35%,70%,90%);fill-opacity:1;stroke-width:1;stroke-linecap:butt;stroke-linejoin:round;stroke:rgb(0%,0%,0%);stroke-opacity:1;stroke-miterlimit:10;" d="M 61.902344 306.273438 L 41.902344 306.273438 L 41.902344 316.273438 L 61.902344 316.273438 L 61.902344 336.273438 L 71.902344 336.273438 L 71.902344 316.273438 L 91.902344 316.273438 L 91.902344 306.273438 L 71.902344 306.273438 L 71.902344 286.273438 L 61.902344 286.273438 L 61.902344 306.273438 "/>
<path style="fill-rule:nonzero;fill:rgb(35%,70%,90%);fill-opacity:1;stroke-width:1;stroke-linecap:butt;stroke-linejoin:round;stroke:rgb(0%,0%,0%);stroke-opacity:1;stroke-miterlimit:10;" d="M 466.289062 58.597656 L 446.289062 58.597656 L 446.289062 68.597656 L 466.289062 68.597656 L 466.289062 88.597656 L 476.289062 88.597656 L 476.289062 68.597656 L 496.289062 68.597656 L 496.289062 58.597656 L 476.289062 58.597656 L 476.289062 38.597656 L 466.289062 38.597656 L 466.289062 58.597656 "/>
</g>
</svg>
