<?xml version="1.0" encoding="UTF-8"?>
<svg xmlns="http://www.w3.org/2000/svg" xmlns:xlink="http://www.w3.org/1999/xlink" width="517pt" height="517pt" viewBox="0 0 517 517" version="1.1">
<g id="surface3896">
<rect x="0" y="0" width="517" height="517" style="fill:rgb(90%,90%,90%);fill-opacity:1;stroke:none;"/>
<path style="fill:none;stroke-width:5;stroke-linecap:butt;stroke-linejoin:round;stroke:rgb(100%,0%,0%);stroke-opacity:1;stroke-miterlimit:10;" d="M 5 5 L 261 5 L 261 261 L 5 261 Z M 5 5 "/>
<path style="fill-rule:nonzero;fill:rgb(100%,7%,57%);fill-opacity:1;stroke-width:1;stroke-linecap:butt;stroke-linejoin:round;stroke:rgb(0%,0%,0%);stroke-opacity:1;stroke-miterlimit:10;" d="M 169.570312 83.777344 C 169.570312 100.347656 156.140625 113.777344 139.570312 113.777344 C 123.003906 113.777344 109.570312 100.347656 109.570312 83.777344 C 109.570312 67.210938 123.003906 53.777344 139.570312 53.777344 C 156.140625 53.777344 169.570312 67.210938 169.570312 83.777344 "/>
<path style="fill-rule:nonzero;fill:rgb(100%,100%,0%);fill-opacity:1;stroke-width:1;stroke-linecap:butt;stroke-linejoin:round;stroke:rgb(0%,0%,0%);stroke-opacity:1;stroke-miterlimit:10;" d="M 375.660156 326.699219 C 375.660156 343.269531 362.226562 356.699219 345.660156 356.699219 C 329.089844 356.699219 315.660156 343.269531 315.660156 326.699219 C 315.660156 310.132812 329.089844 296.699219 345.660156 296.699219 C 362.226562 296.699219 375.660156 310.132812 375.660156 326.699219 "/>
<path style="fill-rule:nonzero;fill:rgb(100%,7%,57%);fill-opacity:1;stroke-width:1;stroke-linecap:butt;stroke-linejoin:round;stroke:rgb(0%,0%,0%);stroke-opacity:1;stroke-miterlimit:10;" d="M 387.492188 398.300781 C 387.492188 414.871094 374.058594 428.300781 357.492188 428.300781 C 340.921875 428.300781 327.492188 414.871094 327.492188 398.300781 C 327.492188 381.730469 340.921875 368.300781 357.492188 368.300781 C 374.058594 368.300781 387.492188 381.730469 387.492188 398.300781 "/>
<path style="fill-rule:nonzero;fill:rgb(100%,7%,57%);fill-opacity:1;stroke-width:1;stroke-linecap:butt;stroke-linejoin:round;stroke:rgb(0%,0%,0%);stroke-opacity:1;stroke-miterlimit:10;" d="M 358.335938 52.683594 C 358.335938 69.25 344.902344 82.683594 328.335938 82.683594 C 311.765625 82.683594 298.335938 69.25 298.335938 52.683594 C 298.335938 36.113281 311.765625 22.683594 328.335938 22.683594 C 344.902344 22.683594 358.335938 36.113281 358.335938 52.683594 "/>
<path style="fill-rule:nonzero;fill:rgb(100%,7%,57%);fill-opacity:1;stroke-width:1;stroke-linecap:butt;stroke-linejoin:round;stroke:rgb(0%,0%,0%);stroke-opacity:1;stroke-miterlimit:10;" d="M 431.878906 64.371094 C 431.878906 80.941406 418.449219 94.371094 401.878906 94.371094 C 385.3125 94.371094 371.878906 80.941406 371.878906 64.371094 C 371.878906 47.804688 385.3125 34.371094 401.878906 34.371094 C 418.449219 34.371094 431.878906 47.804688 431.878906 64.371094 "/>
<path style="fill-rule:nonzero;fill:rgb(100%,7%,57%);fill-opacity:1;stroke-width:1;stroke-linecap:butt;stroke-linejoin:round;stroke:rgb(0%,0%,0%);stroke-opacity:1;stroke-miterlimit:10;" d="M 138.835938 460.570312 C 138.835938 477.140625 125.402344 490.570312 108.835938 490.570312 C 92.265625 490.570312 78.835938 477.140625 78.835938 460.570312 C 78.835938 444 92.265625 430.570312 108.835938 430.570312 C 125.402344 430.570312 138.835938 444 138.835938 460.570312 "/>
</g>
</svg>
