<?xml version="1.0" encoding="UTF-8"?>
<svg xmlns="http://www.w3.org/2000/svg" xmlns:xlink="http://www.w3.org/1999/xlink" width="517pt" height="517pt" viewBox="0 0 517 517" version="1.1">
<g id="surface3296">
<rect x="0" y="0" width="517" height="517" style="fill:rgb(90%,90%,90%);fill-opacity:1;stroke:none;"/>
<path style="fill:none;stroke-width:5;stroke-linecap:butt;stroke-linejoin:round;stroke:rgb(100%,0%,0%);stroke-opacity:1;stroke-miterlimit:10;" d="M 261 261 L 517 261 L 517 517 L 261 517 Z M 261 261 "/>
<path style="fill-rule:nonzero;fill:rgb(90%,65%,0%);fill-opacity:1;stroke-width:1;stroke-linecap:butt;stroke-linejoin:round;stroke:rgb(0%,0%,0%);stroke-opacity:1;stroke-miterlimit:10;" d="M 465.875 447.382812 L 445.875 447.382812 L 445.875 457.382812 L 465.875 457.382812 L 465.875 477.382812 L 475.875 477.382812 L 475.875 457.382812 L 495.875 457.382812 L 495.875 447.382812 L 475.875 447.382812 L 475.875 427.382812 L 465.875 427.382812 L 465.875 447.382812 "/>
<path style="fill-rule:nonzero;fill:rgb(35%,70%,90%);fill-opacity:1;stroke-width:1;stroke-linecap:butt;stroke-linejoin:round;stroke:rgb(0%,0%,0%);stroke-opacity:1;stroke-miterlimit:10;" d="M 210.15625 132.308594 L 190.15625 132.308594 L 190.15625 142.308594 L 210.15625 142.308594 L 210.15625 162.308594 L 220.15625 162.308594 L 220.15625 142.308594 L 240.15625 142.308594 L 240.15625 132.308594 L 220.15625 132.308594 L 220.15625 112.308594 L 210.15625 112.308594 L 210.15625 132.308594 "/>
<path style="fill-rule:nonzero;fill:rgb(35%,70%,90%);fill-opacity:1;stroke-width:1;stroke-linecap:butt;stroke-linejoin:round;stroke:rgb(0%,0%,0%);stroke-opacity:1;stroke-miterlimit:10;" d="M 32.097656 110.675781 L 12.097656 110.675781 L 12.097656 120.675781 L 32.097656 120.675781 L 32.097656 140.675781 L 42.097656 140.675781 L 42.097656 120.675781 L 62.097656 120.675781 L 62.097656 110.675781 L 42.097656 110.675781 L 42.097656 90.675781 L 32.097656 90.675781 L 32.097656 110.675781 "/>
<path style="fill-rule:nonzero;fill:rgb(35%,70%,90%);fill-opacity:1;stroke-width:1;stroke-linecap:butt;stroke-linejoin:round;stroke:rgb(0%,0%,0%);stroke-opacity:1;stroke-miterlimit:10;" d="M 147.371094 470.050781 L 127.371094 470.050781 L 127.371094 480.050781 L 147.371094 480.050781 L 147.371094 500.050781 L 157.371094 500.050781 L 157.371094 480.050781 L 177.371094 480.050781 L 177.371094 470.050781 L 157.371094 470.050781 L 157.371094 450.050781 L 147.371094 450.050781 L 147.371094 470.050781 "/>
<path style="fill-rule:nonzero;fill:rgb(35%,70%,90%);fill-opacity:1;stroke-width:1;stroke-linecap:butt;stroke-linejoin:round;stroke:rgb(0%,0%,0%);stroke-opacity:1;stroke-miterlimit:10;" d="M 408.339844 126.054688 L 388.339844 126.054688 L 388.339844 136.054688 L 408.339844 136.054688 L 408.339844 156.054688 L 418.339844 156.054688 L 418.339844 136.054688 L 438.339844 136.054688 L 438.339844 126.054688 L 418.339844 126.054688 L 418.339844 106.054688 L 408.339844 106.054688 L 408.339844 126.054688 "/>
</g>
</svg>
