<?xml version="1.0" encoding="UTF-8"?>
<svg xmlns="http://www.w3.org/2000/svg" xmlns:xlink="http://www.w3.org/1999/xlink" width="517pt" height="517pt" viewBox="0 0 517 517" version="1.1">
<g id="surface3636">
<rect x="0" y="0" width="517" height="517" style="fill:rgb(90%,90%,90%);fill-opacity:1;stroke:none;"/>
<path style="fill:none;stroke-width:5;stroke-linecap:butt;stroke-linejoin:round;stroke:rgb(100%,0%,0%);stroke-opacity:1;stroke-miterlimit:10;" d="M 5 5 L 261 5 L 261 261 L 5 261 Z M 5 5 "/>
<path style="fill-rule:nonzero;fill:rgb(100%,100%,0%);fill-opacity:1;stroke-width:1;stroke-linecap:butt;stroke-linejoin:round;stroke:rgb(0%,0%,0%);stroke-opacity:1;stroke-miterlimit:10;" d="M 145.347656 50.257812 L 125.347656 50.257812 L 125.347656 60.257812 L 145.347656 60.257812 L 145.347656 80.257812 L 155.347656 80.257812 L 155.347656 60.257812 L 175.347656 60.257812 L 175.347656 50.257812 L 155.347656 50.257812 L 155.347656 30.257812 L 145.347656 30.257812 L 145.347656 50.257812 "/>
<path style="fill-rule:nonzero;fill:rgb(35%,70%,90%);fill-opacity:1;stroke-width:1;stroke-linecap:butt;stroke-linejoin:round;stroke:rgb(0%,0%,0%);stroke-opacity:1;stroke-miterlimit:10;" d="M 444.039062 172.847656 L 424.039062 172.847656 L 424.039062 182.847656 L 444.039062 182.847656 L 444.039062 202.847656 L 454.039062 202.847656 L 454.039062 182.847656 L 474.039062 182.847656 L 474.039062 172.847656 L 454.039062 172.847656 L 454.039062 152.847656 L 444.039062 152.847656 L 444.039062 172.847656 "/>
<path style="fill-rule:nonzero;fill:rgb(35%,70%,90%);fill-opacity:1;stroke-width:1;stroke-linecap:butt;stroke-linejoin:round;stroke:rgb(0%,0%,0%);stroke-opacity:1;stroke-miterlimit:10;" d="M 458.308594 93.632812 L 438.308594 93.632812 L 438.308594 103.632812 L 458.308594 103.632812 L 458.308594 123.632812 L 468.308594 123.632812 L 468.308594 103.632812 L 488.308594 103.632812 L 488.308594 93.632812 L 468.308594 93.632812 L 468.308594 73.632812 L 458.308594 73.632812 L 458.308594 93.632812 "/>
<path style="fill-rule:nonzero;fill:rgb(35%,70%,90%);fill-opacity:1;stroke-width:1;stroke-linecap:butt;stroke-linejoin:round;stroke:rgb(0%,0%,0%);stroke-opacity:1;stroke-miterlimit:10;" d="M 440.570312 395.886719 L 420.570312 395.886719 L 420.570312 405.886719 L 440.570312 405.886719 L 440.570312 425.886719 L 450.570312 425.886719 L 450.570312 405.886719 L 470.570312 405.886719 L 470.570312 395.886719 L 450.570312 395.886719 L 450.570312 375.886719 L 440.570312 375.886719 L 440.570312 395.886719 "/>
<path style="fill-rule:nonzero;fill:rgb(35%,70%,90%);fill-opacity:1;stroke-width:1;stroke-linecap:butt;stroke-linejoin:round;stroke:rgb(0%,0%,0%);stroke-opacity:1;stroke-miterlimit:10;" d="M 309.605469 361.164062 L 289.605469 361.164062 L 289.605469 371.164062 L 309.605469 371.164062 L 309.605469 391.164062 L 319.605469 391.164062 L 319.605469 371.164062 L 339.605469 371.164062 L 339.605469 361.164062 L 319.605469 361.164062 L 319.605469 341.164062 L 309.605469 341.164062 L 309.605469 361.164062 "/>
<path style="fill-rule:nonzero;fill:rgb(100%,100%,0%);fill-opacity:1;stroke-width:1;stroke-linecap:butt;stroke-linejoin:round;stroke:rgb(0%,0%,0%);stroke-opacity:1;stroke-miterlimit:10;" d="M 196.875 369.785156 L 176.875 369.785156 L 176.875 379.785156 L 196.875 379.785156 L 196.875 399.785156 L 206.875 399.785156 L 206.875 379.785156 L 226.875 379.785156 L 226.875 369.785156 L 206.875 369.785156 L 206.875 349.785156 L 196.875 349.785156 L 196.875 369.785156 "/>
</g>
</svg>
