<?xml version="1.0" encoding="UTF-8"?>
<svg xmlns="http://www.w3.org/2000/svg" xmlns:xlink="http://www.w3.org/1999/xlink" width="517pt" height="517pt" viewBox="0 0 517 517" version="1.1">
<g id="surface8806">
<rect x="0" y="0" width="517" height="517" style="fill:rgb(90%,90%,90%);fill-opacity:1;stroke:none;"/>
<path style="fill:none;stroke-width:5;stroke-linecap:butt;stroke-linejoin:round;stroke:rgb(100%,0%,0%);stroke-opacity:1;stroke-miterlimit:10;" d="M 261 5 L 517 5 L 517 261 L 261 261 Z M 261 5 "/>
<path style="fill-rule:nonzero;fill:rgb(100%,0%,0%);fill-opacity:1;stroke-width:1;stroke-linecap:butt;stroke-linejoin:round;stroke:rgb(0%,0%,0%);stroke-opacity:1;stroke-miterlimit:10;" d="M 378.105469 78.933594 C 378.105469 95.503906 364.675781 108.933594 348.105469 108.933594 C 331.539062 108.933594 318.105469 95.503906 318.105469 78.933594 C 318.105469 62.367188 331.539062 48.933594 348.105469 48.933594 C 364.675781 48.933594 378.105469 62.367188 378.105469 78.933594 "/>
<path style="fill-rule:nonzero;fill:rgb(0%,0%,0%);fill-opacity:1;stroke-width:1;stroke-linecap:butt;stroke-linejoin:round;stroke:rgb(0%,0%,0%);stroke-opacity:1;stroke-miterlimit:10;" d="M 145.945312 322.308594 C 145.945312 338.878906 132.511719 352.308594 115.945312 352.308594 C 99.375 352.308594 85.945312 338.878906 85.945312 322.308594 C 85.945312 305.742188 99.375 292.308594 115.945312 292.308594 C 132.511719 292.308594 145.945312 305.742188 145.945312 322.308594 "/>
<path style="fill-rule:nonzero;fill:rgb(0%,0%,0%);fill-opacity:1;stroke-width:1;stroke-linecap:butt;stroke-linejoin:round;stroke:rgb(0%,0%,0%);stroke-opacity:1;stroke-miterlimit:10;" d="M 212.730469 407.703125 C 212.730469 424.269531 199.300781 437.703125 182.730469 437.703125 C 166.164062 437.703125 152.730469 424.269531 152.730469 407.703125 C 152.730469 391.132812 166.164062 377.703125 182.730469 377.703125 C 199.300781 377.703125 212.730469 391.132812 212.730469 407.703125 "/>
<path style="fill-rule:nonzero;fill:rgb(0%,0%,0%);fill-opacity:1;stroke-width:1;stroke-linecap:butt;stroke-linejoin:round;stroke:rgb(0%,0%,0%);stroke-opacity:1;stroke-miterlimit:10;" d="M 333.398438 360.675781 C 333.398438 377.242188 319.96875 390.675781 303.398438 390.675781 C 286.832031 390.675781 273.398438 377.242188 273.398438 360.675781 C 273.398438 344.105469 286.832031 330.675781 303.398438 330.675781 C 319.96875 330.675781 333.398438 344.105469 333.398438 360.675781 "/>
<path style="fill-rule:nonzero;fill:rgb(0%,0%,0%);fill-opacity:1;stroke-width:1;stroke-linecap:butt;stroke-linejoin:round;stroke:rgb(0%,0%,0%);stroke-opacity:1;stroke-miterlimit:10;" d="M 490.40625 472.566406 C 490.40625 489.136719 476.972656 502.566406 460.40625 502.566406 C 443.835938 502.566406 430.40625 489.136719 430.40625 472.566406 C 430.40625 456 443.835938 442.566406 460.40625 442.566406 C 476.972656 442.566406 490.40625 456 490.40625 472.566406 "/>
</g>
</svg>
