<?xml version="1.0" encoding="UTF-8"?>
<svg xmlns="http://www.w3.org/2000/svg" xmlns:xlink="http://www.w3.org/1999/xlink" width="517pt" height="517pt" viewBox="0 0 517 517" version="1.1">
<g id="surface8386">
<rect x="0" y="0" width="517" height="517" style="fill:rgb(90%,90%,90%);fill-opacity:1;stroke:none;"/>
<path style="fill:none;stroke-width:5;stroke-linecap:butt;stroke-linejoin:round;stroke:rgb(100%,0%,0%);stroke-opacity:1;stroke-miterlimit:10;" d="M 5 5 L 261 5 L 261 261 L 5 261 Z M 5 5 "/>
<path style="fill-rule:nonzero;fill:rgb(67%,100%,18%);fill-opacity:1;stroke-width:1;stroke-linecap:butt;stroke-linejoin:round;stroke:rgb(0%,0%,0%);stroke-opacity:1;stroke-miterlimit:10;" d="M 143.628906 78.738281 C 143.628906 95.308594 130.199219 108.738281 113.628906 108.738281 C 97.0625 108.738281 83.628906 95.308594 83.628906 78.738281 C 83.628906 62.171875 97.0625 48.738281 113.628906 48.738281 C 130.199219 48.738281 143.628906 62.171875 143.628906 78.738281 "/>
<path style="fill-rule:nonzero;fill:rgb(35%,70%,90%);fill-opacity:1;stroke-width:1;stroke-linecap:butt;stroke-linejoin:round;stroke:rgb(0%,0%,0%);stroke-opacity:1;stroke-miterlimit:10;" d="M 325.722656 125.003906 C 325.722656 141.570312 312.289062 155.003906 295.722656 155.003906 C 279.152344 155.003906 265.722656 141.570312 265.722656 125.003906 C 265.722656 108.433594 279.152344 95.003906 295.722656 95.003906 C 312.289062 95.003906 325.722656 108.433594 325.722656 125.003906 "/>
<path style="fill-rule:nonzero;fill:rgb(35%,70%,90%);fill-opacity:1;stroke-width:1;stroke-linecap:butt;stroke-linejoin:round;stroke:rgb(0%,0%,0%);stroke-opacity:1;stroke-miterlimit:10;" d="M 495.664062 218.550781 C 495.664062 235.121094 482.230469 248.550781 465.664062 248.550781 C 449.09375 248.550781 435.664062 235.121094 435.664062 218.550781 C 435.664062 201.984375 449.09375 188.550781 465.664062 188.550781 C 482.230469 188.550781 495.664062 201.984375 495.664062 218.550781 "/>
<path style="fill-rule:nonzero;fill:rgb(35%,70%,90%);fill-opacity:1;stroke-width:1;stroke-linecap:butt;stroke-linejoin:round;stroke:rgb(0%,0%,0%);stroke-opacity:1;stroke-miterlimit:10;" d="M 126.148438 426.253906 C 126.148438 442.824219 112.71875 456.253906 96.148438 456.253906 C 79.582031 456.253906 66.148438 442.824219 66.148438 426.253906 C 66.148438 409.6875 79.582031 396.253906 96.148438 396.253906 C 112.71875 396.253906 126.148438 409.6875 126.148438 426.253906 "/>
<path style="fill-rule:nonzero;fill:rgb(35%,70%,90%);fill-opacity:1;stroke-width:1;stroke-linecap:butt;stroke-linejoin:round;stroke:rgb(0%,0%,0%);stroke-opacity:1;stroke-miterlimit:10;" d="M 228.46875 330.617188 C 228.46875 347.1875 215.039062 360.617188 198.46875 360.617188 C 181.898438 360.617188 168.46875 347.1875 168.46875 330.617188 C 168.46875 314.050781 181.898438 300.617188 198.46875 300.617188 C 215.039062 300.617188 228.46875 314.050781 228.46875 330.617188 "/>
<path style="fill-rule:nonzero;fill:rgb(35%,70%,90%);fill-opacity:1;stroke-width:1;stroke-linecap:butt;stroke-linejoin:round;stroke:rgb(0%,0%,0%);stroke-opacity:1;stroke-miterlimit:10;" d="M 431.988281 379.410156 C 431.988281 395.980469 418.558594 409.410156 401.988281 409.410156 C 385.421875 409.410156 371.988281 395.980469 371.988281 379.410156 C 371.988281 362.84375 385.421875 349.410156 401.988281 349.410156 C 418.558594 349.410156 431.988281 362.84375 431.988281 379.410156 "/>
</g>
</svg>
