<?xml version="1.0" encoding="UTF-8"?>
<svg xmlns="http://www.w3.org/2000/svg" xmlns:xlink="http://www.w3.org/1999/xlink" width="517pt" height="517pt" viewBox="0 0 517 517" version="1.1">
<g id="surface3841">
<rect x="0" y="0" width="517" height="517" style="fill:rgb(90%,90%,90%);fill-opacity:1;stroke:none;"/>
<path style="fill:none;stroke-width:5;stroke-linecap:butt;stroke-linejoin:round;stroke:rgb(100%,0%,0%);stroke-opacity:1;stroke-miterlimit:10;" d="M 5 5 L 261 5 L 261 261 L 5 261 Z M 5 5 "/>
<path style="fill-rule:nonzero;fill:rgb(100%,7%,57%);fill-opacity:1;stroke-width:1;stroke-linecap:butt;stroke-linejoin:round;stroke:rgb(0%,0%,0%);stroke-opacity:1;stroke-miterlimit:10;" d="M 82.679688 218.425781 C 82.679688 234.996094 69.25 248.425781 52.679688 248.425781 C 36.113281 248.425781 22.679688 234.996094 22.679688 218.425781 C 22.679688 201.859375 36.113281 188.425781 52.679688 188.425781 C 69.25 188.425781 82.679688 201.859375 82.679688 218.425781 "/>
<path style="fill-rule:nonzero;fill:rgb(100%,100%,0%);fill-opacity:1;stroke-width:1;stroke-linecap:butt;stroke-linejoin:round;stroke:rgb(0%,0%,0%);stroke-opacity:1;stroke-miterlimit:10;" d="M 350.058594 424.097656 C 350.058594 440.667969 336.628906 454.097656 320.058594 454.097656 C 303.492188 454.097656 290.058594 440.667969 290.058594 424.097656 C 290.058594 407.527344 303.492188 394.097656 320.058594 394.097656 C 336.628906 394.097656 350.058594 407.527344 350.058594 424.097656 "/>
<path style="fill-rule:nonzero;fill:rgb(100%,100%,0%);fill-opacity:1;stroke-width:1;stroke-linecap:butt;stroke-linejoin:round;stroke:rgb(0%,0%,0%);stroke-opacity:1;stroke-miterlimit:10;" d="M 387.589844 328.601562 C 387.589844 345.171875 374.160156 358.601562 357.589844 358.601562 C 341.023438 358.601562 327.589844 345.171875 327.589844 328.601562 C 327.589844 312.03125 341.023438 298.601562 357.589844 298.601562 C 374.160156 298.601562 387.589844 312.03125 387.589844 328.601562 "/>
<path style="fill-rule:nonzero;fill:rgb(100%,100%,0%);fill-opacity:1;stroke-width:1;stroke-linecap:butt;stroke-linejoin:round;stroke:rgb(0%,0%,0%);stroke-opacity:1;stroke-miterlimit:10;" d="M 247.007812 449.957031 C 247.007812 466.527344 233.578125 479.957031 217.007812 479.957031 C 200.441406 479.957031 187.007812 466.527344 187.007812 449.957031 C 187.007812 433.390625 200.441406 419.957031 217.007812 419.957031 C 233.578125 419.957031 247.007812 433.390625 247.007812 449.957031 "/>
<path style="fill-rule:nonzero;fill:rgb(100%,100%,0%);fill-opacity:1;stroke-width:1;stroke-linecap:butt;stroke-linejoin:round;stroke:rgb(0%,0%,0%);stroke-opacity:1;stroke-miterlimit:10;" d="M 196.804688 307.304688 C 196.804688 323.875 183.375 337.304688 166.804688 337.304688 C 150.238281 337.304688 136.804688 323.875 136.804688 307.304688 C 136.804688 290.738281 150.238281 277.304688 166.804688 277.304688 C 183.375 277.304688 196.804688 290.738281 196.804688 307.304688 "/>
<path style="fill-rule:nonzero;fill:rgb(100%,100%,0%);fill-opacity:1;stroke-width:1;stroke-linecap:butt;stroke-linejoin:round;stroke:rgb(0%,0%,0%);stroke-opacity:1;stroke-miterlimit:10;" d="M 399.4375 196.269531 C 399.4375 212.839844 386.007812 226.269531 369.4375 226.269531 C 352.871094 226.269531 339.4375 212.839844 339.4375 196.269531 C 339.4375 179.703125 352.871094 166.269531 369.4375 166.269531 C 386.007812 166.269531 399.4375 179.703125 399.4375 196.269531 "/>
</g>
</svg>
