<?xml version="1.0" encoding="UTF-8"?>
<svg xmlns="http://www.w3.org/2000/svg" xmlns:xlink="http://www.w3.org/1999/xlink" width="517pt" height="517pt" viewBox="0 0 517 517" version="1.1">
<g id="surface5376">
<rect x="0" y="0" width="517" height="517" style="fill:rgb(90%,90%,90%);fill-opacity:1;stroke:none;"/>
<path style="fill-rule:nonzero;fill:rgb(100%,100%,0%);fill-opacity:1;stroke-width:1;stroke-linecap:butt;stroke-linejoin:miter;stroke:rgb(0%,0%,0%);stroke-opacity:1;stroke-miterlimit:10;" d="M 470.699219 214.445312 C 470.699219 231.015625 457.265625 244.445312 440.699219 244.445312 C 424.128906 244.445312 410.699219 231.015625 410.699219 214.445312 C 410.699219 197.878906 424.128906 184.445312 440.699219 184.445312 C 457.265625 184.445312 470.699219 197.878906 470.699219 214.445312 "/>
<path style="fill-rule:nonzero;fill:rgb(0%,0%,0%);fill-opacity:1;stroke-width:1;stroke-linecap:butt;stroke-linejoin:miter;stroke:rgb(0%,0%,0%);stroke-opacity:1;stroke-miterlimit:10;" d="M 87.851562 134.890625 C 87.851562 151.460938 74.417969 164.890625 57.851562 164.890625 C 41.28125 164.890625 27.851562 151.460938 27.851562 134.890625 C 27.851562 118.324219 41.28125 104.890625 57.851562 104.890625 C 74.417969 104.890625 87.851562 118.324219 87.851562 134.890625 "/>
<path style="fill-rule:nonzero;fill:rgb(0%,0%,0%);fill-opacity:1;stroke-width:1;stroke-linecap:butt;stroke-linejoin:miter;stroke:rgb(0%,0%,0%);stroke-opacity:1;stroke-miterlimit:10;" d="M 106.199219 436.15625 C 106.199219 452.726562 92.769531 466.15625 76.199219 466.15625 C 59.632812 466.15625 46.199219 452.726562 46.199219 436.15625 C 46.199219 419.589844 59.632812 406.15625 76.199219 406.15625 C 92.769531 406.15625 106.199219 419.589844 106.199219 436.15625 "/>
<path style="fill-rule:nonzero;fill:rgb(0%,0%,0%);fill-opacity:1;stroke-width:1;stroke-linecap:butt;stroke-linejoin:miter;stroke:rgb(0%,0%,0%);stroke-opacity:1;stroke-miterlimit:10;" d="M 80.433594 308.394531 C 80.433594 324.960938 67.003906 338.394531 50.433594 338.394531 C 33.867188 338.394531 20.433594 324.960938 20.433594 308.394531 C 20.433594 291.824219 33.867188 278.394531 50.433594 278.394531 C 67.003906 278.394531 80.433594 291.824219 80.433594 308.394531 "/>
<path style="fill-rule:nonzero;fill:rgb(0%,0%,0%);fill-opacity:1;stroke-width:1;stroke-linecap:butt;stroke-linejoin:miter;stroke:rgb(0%,0%,0%);stroke-opacity:1;stroke-miterlimit:10;" d="M 226.609375 382.304688 C 226.609375 398.875 213.179688 412.304688 196.609375 412.304688 C 180.042969 412.304688 166.609375 398.875 166.609375 382.304688 C 166.609375 365.738281 180.042969 352.304688 196.609375 352.304688 C 213.179688 352.304688 226.609375 365.738281 226.609375 382.304688 "/>
<path style="fill-rule:nonzero;fill:rgb(0%,0%,0%);fill-opacity:1;stroke-width:1;stroke-linecap:butt;stroke-linejoin:miter;stroke:rgb(0%,0%,0%);stroke-opacity:1;stroke-miterlimit:10;" d="M 158.449219 315.53125 C 158.449219 332.101562 145.019531 345.53125 128.449219 345.53125 C 111.878906 345.53125 98.449219 332.101562 98.449219 315.53125 C 98.449219 298.960938 111.878906 285.53125 128.449219 285.53125 C 145.019531 285.53125 158.449219 298.960938 158.449219 315.53125 "/>
<path style="fill-rule:nonzero;fill:rgb(0%,0%,0%);fill-opacity:1;stroke-width:1;stroke-linecap:butt;stroke-linejoin:miter;stroke:rgb(0%,0%,0%);stroke-opacity:1;stroke-miterlimit:10;" d="M 146.582031 384.292969 C 146.582031 400.859375 133.152344 414.292969 116.582031 414.292969 C 100.011719 414.292969 86.582031 400.859375 86.582031 384.292969 C 86.582031 367.722656 100.011719 354.292969 116.582031 354.292969 C 133.152344 354.292969 146.582031 367.722656 146.582031 384.292969 "/>
<path style="fill-rule:nonzero;fill:rgb(0%,0%,0%);fill-opacity:1;stroke-width:1;stroke-linecap:butt;stroke-linejoin:miter;stroke:rgb(0%,0%,0%);stroke-opacity:1;stroke-miterlimit:10;" d="M 244.035156 308.765625 C 244.035156 325.332031 230.601562 338.765625 214.035156 338.765625 C 197.464844 338.765625 184.035156 325.332031 184.035156 308.765625 C 184.035156 292.195312 197.464844 278.765625 214.035156 278.765625 C 230.601562 278.765625 244.035156 292.195312 244.035156 308.765625 "/>
</g>
</svg>
