<?xml version="1.0" encoding="UTF-8"?>
<svg xmlns="http://www.w3.org/2000/svg" xmlns:xlink="http://www.w3.org/1999/xlink" width="517pt" height="517pt" viewBox="0 0 517 517" version="1.1">
<g id="surface3886">
<rect x="0" y="0" width="517" height="517" style="fill:rgb(90%,90%,90%);fill-opacity:1;stroke:none;"/>
<path style="fill:none;stroke-width:5;stroke-linecap:butt;stroke-linejoin:round;stroke:rgb(100%,0%,0%);stroke-opacity:1;stroke-miterlimit:10;" d="M 5 5 L 261 5 L 261 261 L 5 261 Z M 5 5 "/>
<path style="fill-rule:nonzero;fill:rgb(100%,7%,57%);fill-opacity:1;stroke-width:1;stroke-linecap:butt;stroke-linejoin:round;stroke:rgb(0%,0%,0%);stroke-opacity:1;stroke-miterlimit:10;" d="M 122.746094 152.140625 C 122.746094 168.707031 109.316406 182.140625 92.746094 182.140625 C 76.175781 182.140625 62.746094 168.707031 62.746094 152.140625 C 62.746094 135.570312 76.175781 122.140625 92.746094 122.140625 C 109.316406 122.140625 122.746094 135.570312 122.746094 152.140625 "/>
<path style="fill-rule:nonzero;fill:rgb(100%,100%,0%);fill-opacity:1;stroke-width:1;stroke-linecap:butt;stroke-linejoin:round;stroke:rgb(0%,0%,0%);stroke-opacity:1;stroke-miterlimit:10;" d="M 350.824219 309.488281 C 350.824219 326.058594 337.390625 339.488281 320.824219 339.488281 C 304.253906 339.488281 290.824219 326.058594 290.824219 309.488281 C 290.824219 292.921875 304.253906 279.488281 320.824219 279.488281 C 337.390625 279.488281 350.824219 292.921875 350.824219 309.488281 "/>
<path style="fill-rule:nonzero;fill:rgb(100%,7%,57%);fill-opacity:1;stroke-width:1;stroke-linecap:butt;stroke-linejoin:round;stroke:rgb(0%,0%,0%);stroke-opacity:1;stroke-miterlimit:10;" d="M 496.125 397.472656 C 496.125 414.039062 482.691406 427.472656 466.125 427.472656 C 449.554688 427.472656 436.125 414.039062 436.125 397.472656 C 436.125 380.902344 449.554688 367.472656 466.125 367.472656 C 482.691406 367.472656 496.125 380.902344 496.125 397.472656 "/>
<path style="fill-rule:nonzero;fill:rgb(100%,7%,57%);fill-opacity:1;stroke-width:1;stroke-linecap:butt;stroke-linejoin:round;stroke:rgb(0%,0%,0%);stroke-opacity:1;stroke-miterlimit:10;" d="M 374.289062 43.3125 C 374.289062 59.878906 360.855469 73.3125 344.289062 73.3125 C 327.71875 73.3125 314.289062 59.878906 314.289062 43.3125 C 314.289062 26.742188 327.71875 13.3125 344.289062 13.3125 C 360.855469 13.3125 374.289062 26.742188 374.289062 43.3125 "/>
<path style="fill-rule:nonzero;fill:rgb(100%,7%,57%);fill-opacity:1;stroke-width:1;stroke-linecap:butt;stroke-linejoin:round;stroke:rgb(0%,0%,0%);stroke-opacity:1;stroke-miterlimit:10;" d="M 178.804688 364.910156 C 178.804688 381.476562 165.375 394.910156 148.804688 394.910156 C 132.238281 394.910156 118.804688 381.476562 118.804688 364.910156 C 118.804688 348.339844 132.238281 334.910156 148.804688 334.910156 C 165.375 334.910156 178.804688 348.339844 178.804688 364.910156 "/>
<path style="fill-rule:nonzero;fill:rgb(100%,7%,57%);fill-opacity:1;stroke-width:1;stroke-linecap:butt;stroke-linejoin:round;stroke:rgb(0%,0%,0%);stroke-opacity:1;stroke-miterlimit:10;" d="M 83.160156 297.59375 C 83.160156 314.160156 69.726562 327.59375 53.160156 327.59375 C 36.589844 327.59375 23.160156 314.160156 23.160156 297.59375 C 23.160156 281.023438 36.589844 267.59375 53.160156 267.59375 C 69.726562 267.59375 83.160156 281.023438 83.160156 297.59375 "/>
</g>
</svg>
