<?xml version="1.0" encoding="UTF-8"?>
<svg xmlns="http://www.w3.org/2000/svg" xmlns:xlink="http://www.w3.org/1999/xlink" width="517pt" height="517pt" viewBox="0 0 517 517" version="1.1">
<g id="surface8596">
<rect x="0" y="0" width="517" height="517" style="fill:rgb(90%,90%,90%);fill-opacity:1;stroke:none;"/>
<path style="fill:none;stroke-width:5;stroke-linecap:butt;stroke-linejoin:round;stroke:rgb(100%,0%,0%);stroke-opacity:1;stroke-miterlimit:10;" d="M 261 261 L 517 261 L 517 517 L 261 517 Z M 261 261 "/>
<path style="fill-rule:nonzero;fill:rgb(90%,65%,0%);fill-opacity:1;stroke-width:1;stroke-linecap:butt;stroke-linejoin:round;stroke:rgb(0%,0%,0%);stroke-opacity:1;stroke-miterlimit:10;" d="M 371.246094 421.164062 C 371.246094 437.730469 357.816406 451.164062 341.246094 451.164062 C 324.679688 451.164062 311.246094 437.730469 311.246094 421.164062 C 311.246094 404.59375 324.679688 391.164062 341.246094 391.164062 C 357.816406 391.164062 371.246094 404.59375 371.246094 421.164062 "/>
<path style="fill-rule:nonzero;fill:rgb(50%,0%,50%);fill-opacity:1;stroke-width:1;stroke-linecap:butt;stroke-linejoin:round;stroke:rgb(0%,0%,0%);stroke-opacity:1;stroke-miterlimit:10;" d="M 168.890625 416.957031 C 168.890625 433.523438 155.457031 446.957031 138.890625 446.957031 C 122.320312 446.957031 108.890625 433.523438 108.890625 416.957031 C 108.890625 400.386719 122.320312 386.957031 138.890625 386.957031 C 155.457031 386.957031 168.890625 400.386719 168.890625 416.957031 "/>
<path style="fill-rule:nonzero;fill:rgb(50%,0%,50%);fill-opacity:1;stroke-width:1;stroke-linecap:butt;stroke-linejoin:round;stroke:rgb(0%,0%,0%);stroke-opacity:1;stroke-miterlimit:10;" d="M 84.664062 374.808594 C 84.664062 391.375 71.230469 404.808594 54.664062 404.808594 C 38.09375 404.808594 24.664062 391.375 24.664062 374.808594 C 24.664062 358.238281 38.09375 344.808594 54.664062 344.808594 C 71.230469 344.808594 84.664062 358.238281 84.664062 374.808594 "/>
<path style="fill-rule:nonzero;fill:rgb(50%,0%,50%);fill-opacity:1;stroke-width:1;stroke-linecap:butt;stroke-linejoin:round;stroke:rgb(0%,0%,0%);stroke-opacity:1;stroke-miterlimit:10;" d="M 245.089844 119.238281 C 245.089844 135.808594 231.660156 149.238281 215.089844 149.238281 C 198.523438 149.238281 185.089844 135.808594 185.089844 119.238281 C 185.089844 102.671875 198.523438 89.238281 215.089844 89.238281 C 231.660156 89.238281 245.089844 102.671875 245.089844 119.238281 "/>
<path style="fill-rule:nonzero;fill:rgb(50%,0%,50%);fill-opacity:1;stroke-width:1;stroke-linecap:butt;stroke-linejoin:round;stroke:rgb(0%,0%,0%);stroke-opacity:1;stroke-miterlimit:10;" d="M 165.007812 200.601562 C 165.007812 217.167969 151.574219 230.601562 135.007812 230.601562 C 118.4375 230.601562 105.007812 217.167969 105.007812 200.601562 C 105.007812 184.03125 118.4375 170.601562 135.007812 170.601562 C 151.574219 170.601562 165.007812 184.03125 165.007812 200.601562 "/>
</g>
</svg>
