<?xml version="1.0" encoding="UTF-8"?>
<svg xmlns="http://www.w3.org/2000/svg" xmlns:xlink="http://www.w3.org/1999/xlink" width="517pt" height="517pt" viewBox="0 0 517 517" version="1.1">
<g id="surface3541">
<rect x="0" y="0" width="517" height="517" style="fill:rgb(90%,90%,90%);fill-opacity:1;stroke:none;"/>
<path style="fill:none;stroke-width:5;stroke-linecap:butt;stroke-linejoin:round;stroke:rgb(100%,0%,0%);stroke-opacity:1;stroke-miterlimit:10;" d="M 5 5 L 261 5 L 261 261 L 5 261 Z M 5 5 "/>
<path style="fill-rule:nonzero;fill:rgb(100%,0%,0%);fill-opacity:1;stroke-width:1;stroke-linecap:butt;stroke-linejoin:round;stroke:rgb(0%,0%,0%);stroke-opacity:1;stroke-miterlimit:10;" d="M 107.753906 168.804688 C 107.753906 185.375 94.324219 198.804688 77.753906 198.804688 C 61.183594 198.804688 47.753906 185.375 47.753906 168.804688 C 47.753906 152.238281 61.183594 138.804688 77.753906 138.804688 C 94.324219 138.804688 107.753906 152.238281 107.753906 168.804688 "/>
<path style="fill-rule:nonzero;fill:rgb(25%,88%,82%);fill-opacity:1;stroke-width:1;stroke-linecap:butt;stroke-linejoin:round;stroke:rgb(0%,0%,0%);stroke-opacity:1;stroke-miterlimit:10;" d="M 384.058594 177.015625 C 384.058594 193.585938 370.628906 207.015625 354.058594 207.015625 C 337.492188 207.015625 324.058594 193.585938 324.058594 177.015625 C 324.058594 160.449219 337.492188 147.015625 354.058594 147.015625 C 370.628906 147.015625 384.058594 160.449219 384.058594 177.015625 "/>
<path style="fill-rule:nonzero;fill:rgb(25%,88%,82%);fill-opacity:1;stroke-width:1;stroke-linecap:butt;stroke-linejoin:round;stroke:rgb(0%,0%,0%);stroke-opacity:1;stroke-miterlimit:10;" d="M 437.785156 115.015625 C 437.785156 131.585938 424.355469 145.015625 407.785156 145.015625 C 391.21875 145.015625 377.785156 131.585938 377.785156 115.015625 C 377.785156 98.445312 391.21875 85.015625 407.785156 85.015625 C 424.355469 85.015625 437.785156 98.445312 437.785156 115.015625 "/>
<path style="fill-rule:nonzero;fill:rgb(25%,88%,82%);fill-opacity:1;stroke-width:1;stroke-linecap:butt;stroke-linejoin:round;stroke:rgb(0%,0%,0%);stroke-opacity:1;stroke-miterlimit:10;" d="M 229.015625 356.914062 C 229.015625 373.480469 215.582031 386.914062 199.015625 386.914062 C 182.445312 386.914062 169.015625 373.480469 169.015625 356.914062 C 169.015625 340.34375 182.445312 326.914062 199.015625 326.914062 C 215.582031 326.914062 229.015625 340.34375 229.015625 356.914062 "/>
<path style="fill-rule:nonzero;fill:rgb(25%,88%,82%);fill-opacity:1;stroke-width:1;stroke-linecap:butt;stroke-linejoin:round;stroke:rgb(0%,0%,0%);stroke-opacity:1;stroke-miterlimit:10;" d="M 386.070312 406.386719 C 386.070312 422.953125 372.640625 436.386719 356.070312 436.386719 C 339.5 436.386719 326.070312 422.953125 326.070312 406.386719 C 326.070312 389.816406 339.5 376.386719 356.070312 376.386719 C 372.640625 376.386719 386.070312 389.816406 386.070312 406.386719 "/>
<path style="fill-rule:nonzero;fill:rgb(100%,0%,0%);fill-opacity:1;stroke-width:1;stroke-linecap:butt;stroke-linejoin:round;stroke:rgb(0%,0%,0%);stroke-opacity:1;stroke-miterlimit:10;" d="M 471.339844 463.320312 C 471.339844 479.890625 457.910156 493.320312 441.339844 493.320312 C 424.773438 493.320312 411.339844 479.890625 411.339844 463.320312 C 411.339844 446.753906 424.773438 433.320312 441.339844 433.320312 C 457.910156 433.320312 471.339844 446.753906 471.339844 463.320312 "/>
</g>
</svg>
