<?xml version="1.0" encoding="UTF-8"?>
<svg xmlns="http://www.w3.org/2000/svg" xmlns:xlink="http://www.w3.org/1999/xlink" width="517pt" height="517pt" viewBox="0 0 517 517" version="1.1">
<g id="surface8736">
<rect x="0" y="0" width="517" height="517" style="fill:rgb(90%,90%,90%);fill-opacity:1;stroke:none;"/>
<path style="fill:none;stroke-width:5;stroke-linecap:butt;stroke-linejoin:round;stroke:rgb(100%,0%,0%);stroke-opacity:1;stroke-miterlimit:10;" d="M 5 261 L 261 261 L 261 517 L 5 517 Z M 5 261 "/>
<path style="fill-rule:nonzero;fill:rgb(90%,65%,0%);fill-opacity:1;stroke-width:1;stroke-linecap:butt;stroke-linejoin:round;stroke:rgb(0%,0%,0%);stroke-opacity:1;stroke-miterlimit:10;" d="M 95.777344 305.1875 C 95.777344 321.753906 82.347656 335.1875 65.777344 335.1875 C 49.210938 335.1875 35.777344 321.753906 35.777344 305.1875 C 35.777344 288.617188 49.210938 275.1875 65.777344 275.1875 C 82.347656 275.1875 95.777344 288.617188 95.777344 305.1875 "/>
<path style="fill-rule:nonzero;fill:rgb(90%,65%,0%);fill-opacity:1;stroke-width:1;stroke-linecap:butt;stroke-linejoin:round;stroke:rgb(0%,0%,0%);stroke-opacity:1;stroke-miterlimit:10;" d="M 350.335938 172.808594 C 350.335938 189.375 336.90625 202.808594 320.335938 202.808594 C 303.769531 202.808594 290.335938 189.375 290.335938 172.808594 C 290.335938 156.238281 303.769531 142.808594 320.335938 142.808594 C 336.90625 142.808594 350.335938 156.238281 350.335938 172.808594 "/>
<path style="fill-rule:nonzero;fill:rgb(90%,65%,0%);fill-opacity:1;stroke-width:1;stroke-linecap:butt;stroke-linejoin:round;stroke:rgb(0%,0%,0%);stroke-opacity:1;stroke-miterlimit:10;" d="M 79.085938 178.296875 C 79.085938 194.867188 65.652344 208.296875 49.085938 208.296875 C 32.515625 208.296875 19.085938 194.867188 19.085938 178.296875 C 19.085938 161.730469 32.515625 148.296875 49.085938 148.296875 C 65.652344 148.296875 79.085938 161.730469 79.085938 178.296875 "/>
<path style="fill-rule:nonzero;fill:rgb(90%,65%,0%);fill-opacity:1;stroke-width:1;stroke-linecap:butt;stroke-linejoin:round;stroke:rgb(0%,0%,0%);stroke-opacity:1;stroke-miterlimit:10;" d="M 361.9375 329.222656 C 361.9375 345.789062 348.507812 359.222656 331.9375 359.222656 C 315.371094 359.222656 301.9375 345.789062 301.9375 329.222656 C 301.9375 312.652344 315.371094 299.222656 331.9375 299.222656 C 348.507812 299.222656 361.9375 312.652344 361.9375 329.222656 "/>
<path style="fill-rule:nonzero;fill:rgb(90%,65%,0%);fill-opacity:1;stroke-width:1;stroke-linecap:butt;stroke-linejoin:round;stroke:rgb(0%,0%,0%);stroke-opacity:1;stroke-miterlimit:10;" d="M 369.710938 422.449219 C 369.710938 439.019531 356.28125 452.449219 339.710938 452.449219 C 323.144531 452.449219 309.710938 439.019531 309.710938 422.449219 C 309.710938 405.882812 323.144531 392.449219 339.710938 392.449219 C 356.28125 392.449219 369.710938 405.882812 369.710938 422.449219 "/>
<path style="fill-rule:nonzero;fill:rgb(90%,65%,0%);fill-opacity:1;stroke-width:1;stroke-linecap:butt;stroke-linejoin:round;stroke:rgb(0%,0%,0%);stroke-opacity:1;stroke-miterlimit:10;" d="M 423.210938 330.691406 C 423.210938 347.257812 409.78125 360.691406 393.210938 360.691406 C 376.644531 360.691406 363.210938 347.257812 363.210938 330.691406 C 363.210938 314.121094 376.644531 300.691406 393.210938 300.691406 C 409.78125 300.691406 423.210938 314.121094 423.210938 330.691406 "/>
</g>
</svg>
