<?xml version="1.0" encoding="UTF-8"?>
<svg xmlns="http://www.w3.org/2000/svg" xmlns:xlink="http://www.w3.org/1999/xlink" width="517pt" height="517pt" viewBox="0 0 517 517" version="1.1">
<g id="surface8346">
<rect x="0" y="0" width="517" height="517" style="fill:rgb(90%,90%,90%);fill-opacity:1;stroke:none;"/>
<path style="fill:none;stroke-width:5;stroke-linecap:butt;stroke-linejoin:round;stroke:rgb(100%,0%,0%);stroke-opacity:1;stroke-miterlimit:10;" d="M 5 5 L 261 5 L 261 261 L 5 261 Z M 5 5 "/>
<path style="fill-rule:nonzero;fill:rgb(0%,0%,0%);fill-opacity:1;stroke-width:1;stroke-linecap:butt;stroke-linejoin:round;stroke:rgb(0%,0%,0%);stroke-opacity:1;stroke-miterlimit:10;" d="M 226.066406 107.441406 C 226.066406 124.007812 212.632812 137.441406 196.066406 137.441406 C 179.496094 137.441406 166.066406 124.007812 166.066406 107.441406 C 166.066406 90.871094 179.496094 77.441406 196.066406 77.441406 C 212.632812 77.441406 226.066406 90.871094 226.066406 107.441406 "/>
<path style="fill-rule:nonzero;fill:rgb(67%,100%,18%);fill-opacity:1;stroke-width:1;stroke-linecap:butt;stroke-linejoin:round;stroke:rgb(0%,0%,0%);stroke-opacity:1;stroke-miterlimit:10;" d="M 164.429688 433.644531 C 164.429688 450.214844 150.996094 463.644531 134.429688 463.644531 C 117.859375 463.644531 104.429688 450.214844 104.429688 433.644531 C 104.429688 417.078125 117.859375 403.644531 134.429688 403.644531 C 150.996094 403.644531 164.429688 417.078125 164.429688 433.644531 "/>
<path style="fill-rule:nonzero;fill:rgb(67%,100%,18%);fill-opacity:1;stroke-width:1;stroke-linecap:butt;stroke-linejoin:round;stroke:rgb(0%,0%,0%);stroke-opacity:1;stroke-miterlimit:10;" d="M 91.628906 457.402344 C 91.628906 473.972656 78.195312 487.402344 61.628906 487.402344 C 45.058594 487.402344 31.628906 473.972656 31.628906 457.402344 C 31.628906 440.835938 45.058594 427.402344 61.628906 427.402344 C 78.195312 427.402344 91.628906 440.835938 91.628906 457.402344 "/>
<path style="fill-rule:nonzero;fill:rgb(67%,100%,18%);fill-opacity:1;stroke-width:1;stroke-linecap:butt;stroke-linejoin:round;stroke:rgb(0%,0%,0%);stroke-opacity:1;stroke-miterlimit:10;" d="M 485.085938 388.375 C 485.085938 404.945312 471.65625 418.375 455.085938 418.375 C 438.519531 418.375 425.085938 404.945312 425.085938 388.375 C 425.085938 371.808594 438.519531 358.375 455.085938 358.375 C 471.65625 358.375 485.085938 371.808594 485.085938 388.375 "/>
<path style="fill-rule:nonzero;fill:rgb(67%,100%,18%);fill-opacity:1;stroke-width:1;stroke-linecap:butt;stroke-linejoin:round;stroke:rgb(0%,0%,0%);stroke-opacity:1;stroke-miterlimit:10;" d="M 419.382812 125.875 C 419.382812 142.441406 405.953125 155.875 389.382812 155.875 C 372.816406 155.875 359.382812 142.441406 359.382812 125.875 C 359.382812 109.304688 372.816406 95.875 389.382812 95.875 C 405.953125 95.875 419.382812 109.304688 419.382812 125.875 "/>
<path style="fill-rule:nonzero;fill:rgb(67%,100%,18%);fill-opacity:1;stroke-width:1;stroke-linecap:butt;stroke-linejoin:round;stroke:rgb(0%,0%,0%);stroke-opacity:1;stroke-miterlimit:10;" d="M 388.242188 178.222656 C 388.242188 194.792969 374.8125 208.222656 358.242188 208.222656 C 341.675781 208.222656 328.242188 194.792969 328.242188 178.222656 C 328.242188 161.65625 341.675781 148.222656 358.242188 148.222656 C 374.8125 148.222656 388.242188 161.65625 388.242188 178.222656 "/>
</g>
</svg>
