<?xml version="1.0" encoding="UTF-8"?>
<svg xmlns="http://www.w3.org/2000/svg" xmlns:xlink="http://www.w3.org/1999/xlink" width="517pt" height="517pt" viewBox="0 0 517 517" version="1.1">
<g id="surface3256">
<rect x="0" y="0" width="517" height="517" style="fill:rgb(90%,90%,90%);fill-opacity:1;stroke:none;"/>
<path style="fill:none;stroke-width:5;stroke-linecap:butt;stroke-linejoin:round;stroke:rgb(100%,0%,0%);stroke-opacity:1;stroke-miterlimit:10;" d="M 261 261 L 517 261 L 517 517 L 261 517 Z M 261 261 "/>
<path style="fill-rule:nonzero;fill:rgb(25%,88%,82%);fill-opacity:1;stroke-width:1;stroke-linecap:butt;stroke-linejoin:round;stroke:rgb(0%,0%,0%);stroke-opacity:1;stroke-miterlimit:10;" d="M 327.035156 300.664062 C 327.035156 317.230469 313.605469 330.664062 297.035156 330.664062 C 280.46875 330.664062 267.035156 317.230469 267.035156 300.664062 C 267.035156 284.09375 280.46875 270.664062 297.035156 270.664062 C 313.605469 270.664062 327.035156 284.09375 327.035156 300.664062 "/>
<path style="fill-rule:nonzero;fill:rgb(100%,7%,57%);fill-opacity:1;stroke-width:1;stroke-linecap:butt;stroke-linejoin:round;stroke:rgb(0%,0%,0%);stroke-opacity:1;stroke-miterlimit:10;" d="M 377.957031 83.855469 C 377.957031 100.425781 364.527344 113.855469 347.957031 113.855469 C 331.386719 113.855469 317.957031 100.425781 317.957031 83.855469 C 317.957031 67.289062 331.386719 53.855469 347.957031 53.855469 C 364.527344 53.855469 377.957031 67.289062 377.957031 83.855469 "/>
<path style="fill-rule:nonzero;fill:rgb(25%,88%,82%);fill-opacity:1;stroke-width:1;stroke-linecap:butt;stroke-linejoin:round;stroke:rgb(0%,0%,0%);stroke-opacity:1;stroke-miterlimit:10;" d="M 370.277344 165.566406 C 370.277344 182.132812 356.84375 195.566406 340.277344 195.566406 C 323.707031 195.566406 310.277344 182.132812 310.277344 165.566406 C 310.277344 148.996094 323.707031 135.566406 340.277344 135.566406 C 356.84375 135.566406 370.277344 148.996094 370.277344 165.566406 "/>
<path style="fill-rule:nonzero;fill:rgb(25%,88%,82%);fill-opacity:1;stroke-width:1;stroke-linecap:butt;stroke-linejoin:round;stroke:rgb(0%,0%,0%);stroke-opacity:1;stroke-miterlimit:10;" d="M 112.402344 420.429688 C 112.402344 437 98.96875 450.429688 82.402344 450.429688 C 65.832031 450.429688 52.402344 437 52.402344 420.429688 C 52.402344 403.863281 65.832031 390.429688 82.402344 390.429688 C 98.96875 390.429688 112.402344 403.863281 112.402344 420.429688 "/>
<path style="fill-rule:nonzero;fill:rgb(25%,88%,82%);fill-opacity:1;stroke-width:1;stroke-linecap:butt;stroke-linejoin:round;stroke:rgb(0%,0%,0%);stroke-opacity:1;stroke-miterlimit:10;" d="M 166.207031 460.628906 C 166.207031 477.199219 152.773438 490.628906 136.207031 490.628906 C 119.636719 490.628906 106.207031 477.199219 106.207031 460.628906 C 106.207031 444.058594 119.636719 430.628906 136.207031 430.628906 C 152.773438 430.628906 166.207031 444.058594 166.207031 460.628906 "/>
</g>
</svg>
