<?xml version="1.0" encoding="UTF-8"?>
<svg xmlns="http://www.w3.org/2000/svg" xmlns:xlink="http://www.w3.org/1999/xlink" width="517pt" height="517pt" viewBox="0 0 517 517" version="1.1">
<g id="surface286">
<rect x="0" y="0" width="517" height="517" style="fill:rgb(90%,90%,90%);fill-opacity:1;stroke:none;"/>
<path style="fill:none;stroke-width:5;stroke-linecap:butt;stroke-linejoin:round;stroke:rgb(100%,0%,0%);stroke-opacity:1;stroke-miterlimit:10;" d="M 5 5 L 261 5 L 261 261 L 5 261 Z M 5 5 "/>
<path style="fill-rule:nonzero;fill:rgb(67%,100%,18%);fill-opacity:1;stroke-width:1;stroke-linecap:butt;stroke-linejoin:round;stroke:rgb(0%,0%,0%);stroke-opacity:1;stroke-miterlimit:10;" d="M 202.253906 169.011719 C 202.253906 154.613281 178.253906 154.613281 178.253906 169.011719 C 178.253906 183.410156 202.253906 185.8125 202.253906 197.8125 C 202.253906 185.8125 226.253906 183.410156 226.253906 169.011719 C 226.253906 154.613281 202.253906 154.613281 202.253906 169.011719 "/>
<path style="fill-rule:nonzero;fill:rgb(50%,0%,50%);fill-opacity:1;stroke-width:1;stroke-linecap:butt;stroke-linejoin:round;stroke:rgb(0%,0%,0%);stroke-opacity:1;stroke-miterlimit:10;" d="M 57.867188 307.671875 C 57.867188 293.269531 33.867188 293.269531 33.867188 307.671875 C 33.867188 322.070312 57.867188 324.472656 57.867188 336.472656 C 57.867188 324.472656 81.867188 322.070312 81.867188 307.671875 C 81.867188 293.269531 57.867188 293.269531 57.867188 307.671875 "/>
<path style="fill-rule:nonzero;fill:rgb(67%,100%,18%);fill-opacity:1;stroke-width:1;stroke-linecap:butt;stroke-linejoin:round;stroke:rgb(0%,0%,0%);stroke-opacity:1;stroke-miterlimit:10;" d="M 355.152344 118.679688 C 355.152344 104.277344 331.152344 104.277344 331.152344 118.679688 C 331.152344 133.078125 355.152344 135.480469 355.152344 147.480469 C 355.152344 135.480469 379.152344 133.078125 379.152344 118.679688 C 379.152344 104.277344 355.152344 104.277344 355.152344 118.679688 "/>
<path style="fill-rule:nonzero;fill:rgb(67%,100%,18%);fill-opacity:1;stroke-width:1;stroke-linecap:butt;stroke-linejoin:round;stroke:rgb(0%,0%,0%);stroke-opacity:1;stroke-miterlimit:10;" d="M 339.507812 294.511719 C 339.507812 280.113281 315.507812 280.113281 315.507812 294.511719 C 315.507812 308.914062 339.507812 311.3125 339.507812 323.3125 C 339.507812 311.3125 363.507812 308.914062 363.507812 294.511719 C 363.507812 280.113281 339.507812 280.113281 339.507812 294.511719 "/>
</g>
</svg>
