<?xml version="1.0" encoding="UTF-8"?>
<svg xmlns="http://www.w3.org/2000/svg" xmlns:xlink="http://www.w3.org/1999/xlink" width="517pt" height="517pt" viewBox="0 0 517 517" version="1.1">
<g id="surface3651">
<rect x="0" y="0" width="517" height="517" style="fill:rgb(90%,90%,90%);fill-opacity:1;stroke:none;"/>
<path style="fill:none;stroke-width:5;stroke-linecap:butt;stroke-linejoin:round;stroke:rgb(100%,0%,0%);stroke-opacity:1;stroke-miterlimit:10;" d="M 5 5 L 261 5 L 261 261 L 5 261 Z M 5 5 "/>
<path style="fill-rule:nonzero;fill:rgb(100%,100%,0%);fill-opacity:1;stroke-width:1;stroke-linecap:butt;stroke-linejoin:round;stroke:rgb(0%,0%,0%);stroke-opacity:1;stroke-miterlimit:10;" d="M 163.5 109.128906 L 143.5 109.128906 L 143.5 119.128906 L 163.5 119.128906 L 163.5 139.128906 L 173.5 139.128906 L 173.5 119.128906 L 193.5 119.128906 L 193.5 109.128906 L 173.5 109.128906 L 173.5 89.128906 L 163.5 89.128906 L 163.5 109.128906 "/>
<path style="fill-rule:nonzero;fill:rgb(35%,70%,90%);fill-opacity:1;stroke-width:1;stroke-linecap:butt;stroke-linejoin:round;stroke:rgb(0%,0%,0%);stroke-opacity:1;stroke-miterlimit:10;" d="M 134.511719 290.539062 L 114.511719 290.539062 L 114.511719 300.539062 L 134.511719 300.539062 L 134.511719 320.539062 L 144.511719 320.539062 L 144.511719 300.539062 L 164.511719 300.539062 L 164.511719 290.539062 L 144.511719 290.539062 L 144.511719 270.539062 L 134.511719 270.539062 L 134.511719 290.539062 "/>
<path style="fill-rule:nonzero;fill:rgb(100%,100%,0%);fill-opacity:1;stroke-width:1;stroke-linecap:butt;stroke-linejoin:round;stroke:rgb(0%,0%,0%);stroke-opacity:1;stroke-miterlimit:10;" d="M 346.4375 411.625 L 326.4375 411.625 L 326.4375 421.625 L 346.4375 421.625 L 346.4375 441.625 L 356.4375 441.625 L 356.4375 421.625 L 376.4375 421.625 L 376.4375 411.625 L 356.4375 411.625 L 356.4375 391.625 L 346.4375 391.625 L 346.4375 411.625 "/>
<path style="fill-rule:nonzero;fill:rgb(100%,100%,0%);fill-opacity:1;stroke-width:1;stroke-linecap:butt;stroke-linejoin:round;stroke:rgb(0%,0%,0%);stroke-opacity:1;stroke-miterlimit:10;" d="M 431.023438 347.285156 L 411.023438 347.285156 L 411.023438 357.285156 L 431.023438 357.285156 L 431.023438 377.285156 L 441.023438 377.285156 L 441.023438 357.285156 L 461.023438 357.285156 L 461.023438 347.285156 L 441.023438 347.285156 L 441.023438 327.285156 L 431.023438 327.285156 L 431.023438 347.285156 "/>
<path style="fill-rule:nonzero;fill:rgb(100%,100%,0%);fill-opacity:1;stroke-width:1;stroke-linecap:butt;stroke-linejoin:round;stroke:rgb(0%,0%,0%);stroke-opacity:1;stroke-miterlimit:10;" d="M 377.234375 315.25 L 357.234375 315.25 L 357.234375 325.25 L 377.234375 325.25 L 377.234375 345.25 L 387.234375 345.25 L 387.234375 325.25 L 407.234375 325.25 L 407.234375 315.25 L 387.234375 315.25 L 387.234375 295.25 L 377.234375 295.25 L 377.234375 315.25 "/>
<path style="fill-rule:nonzero;fill:rgb(100%,100%,0%);fill-opacity:1;stroke-width:1;stroke-linecap:butt;stroke-linejoin:round;stroke:rgb(0%,0%,0%);stroke-opacity:1;stroke-miterlimit:10;" d="M 462.53125 409.78125 L 442.53125 409.78125 L 442.53125 419.78125 L 462.53125 419.78125 L 462.53125 439.78125 L 472.53125 439.78125 L 472.53125 419.78125 L 492.53125 419.78125 L 492.53125 409.78125 L 472.53125 409.78125 L 472.53125 389.78125 L 462.53125 389.78125 L 462.53125 409.78125 "/>
</g>
</svg>
