<?xml version="1.0" encoding="UTF-8"?>
<svg xmlns="http://www.w3.org/2000/svg" xmlns:xlink="http://www.w3.org/1999/xlink" width="517pt" height="517pt" viewBox="0 0 517 517" version="1.1">
<g id="surface8366">
<rect x="0" y="0" width="517" height="517" style="fill:rgb(90%,90%,90%);fill-opacity:1;stroke:none;"/>
<path style="fill:none;stroke-width:5;stroke-linecap:butt;stroke-linejoin:round;stroke:rgb(100%,0%,0%);stroke-opacity:1;stroke-miterlimit:10;" d="M 5 5 L 261 5 L 261 261 L 5 261 Z M 5 5 "/>
<path style="fill-rule:nonzero;fill:rgb(0%,0%,0%);fill-opacity:1;stroke-width:1;stroke-linecap:butt;stroke-linejoin:round;stroke:rgb(0%,0%,0%);stroke-opacity:1;stroke-miterlimit:10;" d="M 249 89.296875 C 249 105.863281 235.566406 119.296875 219 119.296875 C 202.429688 119.296875 189 105.863281 189 89.296875 C 189 72.726562 202.429688 59.296875 219 59.296875 C 235.566406 59.296875 249 72.726562 249 89.296875 "/>
<path style="fill-rule:nonzero;fill:rgb(67%,100%,18%);fill-opacity:1;stroke-width:1;stroke-linecap:butt;stroke-linejoin:round;stroke:rgb(0%,0%,0%);stroke-opacity:1;stroke-miterlimit:10;" d="M 452.320312 358.375 C 452.320312 374.941406 438.886719 388.375 422.320312 388.375 C 405.75 388.375 392.320312 374.941406 392.320312 358.375 C 392.320312 341.804688 405.75 328.375 422.320312 328.375 C 438.886719 328.375 452.320312 341.804688 452.320312 358.375 "/>
<path style="fill-rule:nonzero;fill:rgb(67%,100%,18%);fill-opacity:1;stroke-width:1;stroke-linecap:butt;stroke-linejoin:round;stroke:rgb(0%,0%,0%);stroke-opacity:1;stroke-miterlimit:10;" d="M 321.632812 307.515625 C 321.632812 324.082031 308.203125 337.515625 291.632812 337.515625 C 275.066406 337.515625 261.632812 324.082031 261.632812 307.515625 C 261.632812 290.945312 275.066406 277.515625 291.632812 277.515625 C 308.203125 277.515625 321.632812 290.945312 321.632812 307.515625 "/>
<path style="fill-rule:nonzero;fill:rgb(67%,100%,18%);fill-opacity:1;stroke-width:1;stroke-linecap:butt;stroke-linejoin:round;stroke:rgb(0%,0%,0%);stroke-opacity:1;stroke-miterlimit:10;" d="M 98.34375 455.628906 C 98.34375 472.195312 84.910156 485.628906 68.34375 485.628906 C 51.773438 485.628906 38.34375 472.195312 38.34375 455.628906 C 38.34375 439.058594 51.773438 425.628906 68.34375 425.628906 C 84.910156 425.628906 98.34375 439.058594 98.34375 455.628906 "/>
<path style="fill-rule:nonzero;fill:rgb(67%,100%,18%);fill-opacity:1;stroke-width:1;stroke-linecap:butt;stroke-linejoin:round;stroke:rgb(0%,0%,0%);stroke-opacity:1;stroke-miterlimit:10;" d="M 348.738281 109.519531 C 348.738281 126.089844 335.308594 139.519531 318.738281 139.519531 C 302.171875 139.519531 288.738281 126.089844 288.738281 109.519531 C 288.738281 92.953125 302.171875 79.519531 318.738281 79.519531 C 335.308594 79.519531 348.738281 92.953125 348.738281 109.519531 "/>
</g>
</svg>
