<?xml version="1.0" encoding="UTF-8"?>
<svg xmlns="http://www.w3.org/2000/svg" xmlns:xlink="http://www.w3.org/1999/xlink" width="517pt" height="517pt" viewBox="0 0 517 517" version="1.1">
<g id="surface8556">
<rect x="0" y="0" width="517" height="517" style="fill:rgb(90%,90%,90%);fill-opacity:1;stroke:none;"/>
<path style="fill:none;stroke-width:5;stroke-linecap:butt;stroke-linejoin:round;stroke:rgb(100%,0%,0%);stroke-opacity:1;stroke-miterlimit:10;" d="M 261 5 L 517 5 L 517 261 L 261 261 Z M 261 5 "/>
<path style="fill-rule:nonzero;fill:rgb(0%,0%,0%);fill-opacity:1;stroke-width:1;stroke-linecap:butt;stroke-linejoin:round;stroke:rgb(0%,0%,0%);stroke-opacity:1;stroke-miterlimit:10;" d="M 369.964844 180.6875 C 369.964844 197.253906 356.53125 210.6875 339.964844 210.6875 C 323.394531 210.6875 309.964844 197.253906 309.964844 180.6875 C 309.964844 164.117188 323.394531 150.6875 339.964844 150.6875 C 356.53125 150.6875 369.964844 164.117188 369.964844 180.6875 "/>
<path style="fill-rule:nonzero;fill:rgb(0%,0%,0%);fill-opacity:1;stroke-width:1;stroke-linecap:butt;stroke-linejoin:round;stroke:rgb(0%,0%,0%);stroke-opacity:1;stroke-miterlimit:10;" d="M 94.757812 147.824219 C 94.757812 164.394531 81.328125 177.824219 64.757812 177.824219 C 48.191406 177.824219 34.757812 164.394531 34.757812 147.824219 C 34.757812 131.257812 48.191406 117.824219 64.757812 117.824219 C 81.328125 117.824219 94.757812 131.257812 94.757812 147.824219 "/>
<path style="fill-rule:nonzero;fill:rgb(0%,0%,0%);fill-opacity:1;stroke-width:1;stroke-linecap:butt;stroke-linejoin:round;stroke:rgb(0%,0%,0%);stroke-opacity:1;stroke-miterlimit:10;" d="M 167.148438 51.90625 C 167.148438 68.472656 153.71875 81.90625 137.148438 81.90625 C 120.582031 81.90625 107.148438 68.472656 107.148438 51.90625 C 107.148438 35.335938 120.582031 21.90625 137.148438 21.90625 C 153.71875 21.90625 167.148438 35.335938 167.148438 51.90625 "/>
<path style="fill-rule:nonzero;fill:rgb(0%,0%,0%);fill-opacity:1;stroke-width:1;stroke-linecap:butt;stroke-linejoin:round;stroke:rgb(0%,0%,0%);stroke-opacity:1;stroke-miterlimit:10;" d="M 135.78125 386.238281 C 135.78125 402.804688 122.351562 416.238281 105.78125 416.238281 C 89.214844 416.238281 75.78125 402.804688 75.78125 386.238281 C 75.78125 369.667969 89.214844 356.238281 105.78125 356.238281 C 122.351562 356.238281 135.78125 369.667969 135.78125 386.238281 "/>
<path style="fill-rule:nonzero;fill:rgb(0%,0%,0%);fill-opacity:1;stroke-width:1;stroke-linecap:butt;stroke-linejoin:round;stroke:rgb(0%,0%,0%);stroke-opacity:1;stroke-miterlimit:10;" d="M 142.703125 309.644531 C 142.703125 326.214844 129.273438 339.644531 112.703125 339.644531 C 96.132812 339.644531 82.703125 326.214844 82.703125 309.644531 C 82.703125 293.078125 96.132812 279.644531 112.703125 279.644531 C 129.273438 279.644531 142.703125 293.078125 142.703125 309.644531 "/>
<path style="fill-rule:nonzero;fill:rgb(0%,0%,0%);fill-opacity:1;stroke-width:1;stroke-linecap:butt;stroke-linejoin:round;stroke:rgb(0%,0%,0%);stroke-opacity:1;stroke-miterlimit:10;" d="M 393.777344 359.886719 C 393.777344 376.453125 380.34375 389.886719 363.777344 389.886719 C 347.207031 389.886719 333.777344 376.453125 333.777344 359.886719 C 333.777344 343.316406 347.207031 329.886719 363.777344 329.886719 C 380.34375 329.886719 393.777344 343.316406 393.777344 359.886719 "/>
</g>
</svg>
