<?xml version="1.0" encoding="UTF-8"?>
<svg xmlns="http://www.w3.org/2000/svg" xmlns:xlink="http://www.w3.org/1999/xlink" width="517pt" height="517pt" viewBox="0 0 517 517" version="1.1">
<g id="surface3911">
<rect x="0" y="0" width="517" height="517" style="fill:rgb(90%,90%,90%);fill-opacity:1;stroke:none;"/>
<path style="fill:none;stroke-width:5;stroke-linecap:butt;stroke-linejoin:round;stroke:rgb(100%,0%,0%);stroke-opacity:1;stroke-miterlimit:10;" d="M 5 5 L 261 5 L 261 261 L 5 261 Z M 5 5 "/>
<path style="fill-rule:nonzero;fill:rgb(25%,88%,82%);fill-opacity:1;stroke-width:1;stroke-linecap:butt;stroke-linejoin:round;stroke:rgb(0%,0%,0%);stroke-opacity:1;stroke-miterlimit:10;" d="M 122.878906 101.429688 C 122.878906 118 109.445312 131.429688 92.878906 131.429688 C 76.308594 131.429688 62.878906 118 62.878906 101.429688 C 62.878906 84.863281 76.308594 71.429688 92.878906 71.429688 C 109.445312 71.429688 122.878906 84.863281 122.878906 101.429688 "/>
<path style="fill-rule:nonzero;fill:rgb(100%,100%,0%);fill-opacity:1;stroke-width:1;stroke-linecap:butt;stroke-linejoin:round;stroke:rgb(0%,0%,0%);stroke-opacity:1;stroke-miterlimit:10;" d="M 85.308594 332.675781 C 85.308594 349.242188 71.878906 362.675781 55.308594 362.675781 C 38.742188 362.675781 25.308594 349.242188 25.308594 332.675781 C 25.308594 316.105469 38.742188 302.675781 55.308594 302.675781 C 71.878906 302.675781 85.308594 316.105469 85.308594 332.675781 "/>
<path style="fill-rule:nonzero;fill:rgb(100%,7%,57%);fill-opacity:1;stroke-width:1;stroke-linecap:butt;stroke-linejoin:round;stroke:rgb(0%,0%,0%);stroke-opacity:1;stroke-miterlimit:10;" d="M 149.15625 381.472656 C 149.15625 398.042969 135.726562 411.472656 119.15625 411.472656 C 102.589844 411.472656 89.15625 398.042969 89.15625 381.472656 C 89.15625 364.902344 102.589844 351.472656 119.15625 351.472656 C 135.726562 351.472656 149.15625 364.902344 149.15625 381.472656 "/>
<path style="fill-rule:nonzero;fill:rgb(100%,7%,57%);fill-opacity:1;stroke-width:1;stroke-linecap:butt;stroke-linejoin:round;stroke:rgb(0%,0%,0%);stroke-opacity:1;stroke-miterlimit:10;" d="M 325.140625 173.132812 C 325.140625 189.703125 311.710938 203.132812 295.140625 203.132812 C 278.574219 203.132812 265.140625 189.703125 265.140625 173.132812 C 265.140625 156.566406 278.574219 143.132812 295.140625 143.132812 C 311.710938 143.132812 325.140625 156.566406 325.140625 173.132812 "/>
<path style="fill-rule:nonzero;fill:rgb(100%,7%,57%);fill-opacity:1;stroke-width:1;stroke-linecap:butt;stroke-linejoin:round;stroke:rgb(0%,0%,0%);stroke-opacity:1;stroke-miterlimit:10;" d="M 415.796875 206.292969 C 415.796875 222.859375 402.367188 236.292969 385.796875 236.292969 C 369.230469 236.292969 355.796875 222.859375 355.796875 206.292969 C 355.796875 189.722656 369.230469 176.292969 385.796875 176.292969 C 402.367188 176.292969 415.796875 189.722656 415.796875 206.292969 "/>
<path style="fill-rule:nonzero;fill:rgb(100%,7%,57%);fill-opacity:1;stroke-width:1;stroke-linecap:butt;stroke-linejoin:round;stroke:rgb(0%,0%,0%);stroke-opacity:1;stroke-miterlimit:10;" d="M 442.210938 101.621094 C 442.210938 118.1875 428.777344 131.621094 412.210938 131.621094 C 395.640625 131.621094 382.210938 118.1875 382.210938 101.621094 C 382.210938 85.050781 395.640625 71.621094 412.210938 71.621094 C 428.777344 71.621094 442.210938 85.050781 442.210938 101.621094 "/>
</g>
</svg>
