<?xml version="1.0" encoding="UTF-8"?>
<svg xmlns="http://www.w3.org/2000/svg" xmlns:xlink="http://www.w3.org/1999/xlink" width="517pt" height="517pt" viewBox="0 0 517 517" version="1.1">
<g id="surface3316">
<rect x="0" y="0" width="517" height="517" style="fill:rgb(90%,90%,90%);fill-opacity:1;stroke:none;"/>
<path style="fill:none;stroke-width:5;stroke-linecap:butt;stroke-linejoin:round;stroke:rgb(100%,0%,0%);stroke-opacity:1;stroke-miterlimit:10;" d="M 261 261 L 517 261 L 517 517 L 261 517 Z M 261 261 "/>
<path style="fill-rule:nonzero;fill:rgb(90%,65%,0%);fill-opacity:1;stroke-width:1;stroke-linecap:butt;stroke-linejoin:round;stroke:rgb(0%,0%,0%);stroke-opacity:1;stroke-miterlimit:10;" d="M 406.457031 337.09375 L 386.457031 337.09375 L 386.457031 347.09375 L 406.457031 347.09375 L 406.457031 367.09375 L 416.457031 367.09375 L 416.457031 347.09375 L 436.457031 347.09375 L 436.457031 337.09375 L 416.457031 337.09375 L 416.457031 317.09375 L 406.457031 317.09375 L 406.457031 337.09375 "/>
<path style="fill-rule:nonzero;fill:rgb(35%,70%,90%);fill-opacity:1;stroke-width:1;stroke-linecap:butt;stroke-linejoin:round;stroke:rgb(0%,0%,0%);stroke-opacity:1;stroke-miterlimit:10;" d="M 371.28125 157.726562 L 351.28125 157.726562 L 351.28125 167.726562 L 371.28125 167.726562 L 371.28125 187.726562 L 381.28125 187.726562 L 381.28125 167.726562 L 401.28125 167.726562 L 401.28125 157.726562 L 381.28125 157.726562 L 381.28125 137.726562 L 371.28125 137.726562 L 371.28125 157.726562 "/>
<path style="fill-rule:nonzero;fill:rgb(35%,70%,90%);fill-opacity:1;stroke-width:1;stroke-linecap:butt;stroke-linejoin:round;stroke:rgb(0%,0%,0%);stroke-opacity:1;stroke-miterlimit:10;" d="M 458.753906 206.652344 L 438.753906 206.652344 L 438.753906 216.652344 L 458.753906 216.652344 L 458.753906 236.652344 L 468.753906 236.652344 L 468.753906 216.652344 L 488.753906 216.652344 L 488.753906 206.652344 L 468.753906 206.652344 L 468.753906 186.652344 L 458.753906 186.652344 L 458.753906 206.652344 "/>
<path style="fill-rule:nonzero;fill:rgb(35%,70%,90%);fill-opacity:1;stroke-width:1;stroke-linecap:butt;stroke-linejoin:round;stroke:rgb(0%,0%,0%);stroke-opacity:1;stroke-miterlimit:10;" d="M 78.328125 399.875 L 58.328125 399.875 L 58.328125 409.875 L 78.328125 409.875 L 78.328125 429.875 L 88.328125 429.875 L 88.328125 409.875 L 108.328125 409.875 L 108.328125 399.875 L 88.328125 399.875 L 88.328125 379.875 L 78.328125 379.875 L 78.328125 399.875 "/>
<path style="fill-rule:nonzero;fill:rgb(90%,65%,0%);fill-opacity:1;stroke-width:1;stroke-linecap:butt;stroke-linejoin:round;stroke:rgb(0%,0%,0%);stroke-opacity:1;stroke-miterlimit:10;" d="M 46.035156 147.054688 L 26.035156 147.054688 L 26.035156 157.054688 L 46.035156 157.054688 L 46.035156 177.054688 L 56.035156 177.054688 L 56.035156 157.054688 L 76.035156 157.054688 L 76.035156 147.054688 L 56.035156 147.054688 L 56.035156 127.054688 L 46.035156 127.054688 L 46.035156 147.054688 "/>
</g>
</svg>
