<?xml version="1.0" encoding="UTF-8"?>
<svg xmlns="http://www.w3.org/2000/svg" xmlns:xlink="http://www.w3.org/1999/xlink" width="517pt" height="517pt" viewBox="0 0 517 517" version="1.1">
<g id="surface8626">
<rect x="0" y="0" width="517" height="517" style="fill:rgb(90%,90%,90%);fill-opacity:1;stroke:none;"/>
<path style="fill:none;stroke-width:5;stroke-linecap:butt;stroke-linejoin:round;stroke:rgb(100%,0%,0%);stroke-opacity:1;stroke-miterlimit:10;" d="M 261 261 L 517 261 L 517 517 L 261 517 Z M 261 261 "/>
<path style="fill-rule:nonzero;fill:rgb(100%,100%,0%);fill-opacity:1;stroke-width:1;stroke-linecap:butt;stroke-linejoin:round;stroke:rgb(0%,0%,0%);stroke-opacity:1;stroke-miterlimit:10;" d="M 395.035156 447.210938 C 395.035156 463.78125 381.605469 477.210938 365.035156 477.210938 C 348.46875 477.210938 335.035156 463.78125 335.035156 447.210938 C 335.035156 430.644531 348.46875 417.210938 365.035156 417.210938 C 381.605469 417.210938 395.035156 430.644531 395.035156 447.210938 "/>
<path style="fill-rule:nonzero;fill:rgb(50%,0%,50%);fill-opacity:1;stroke-width:1;stroke-linecap:butt;stroke-linejoin:round;stroke:rgb(0%,0%,0%);stroke-opacity:1;stroke-miterlimit:10;" d="M 173.132812 196.113281 C 173.132812 212.683594 159.703125 226.113281 143.132812 226.113281 C 126.566406 226.113281 113.132812 212.683594 113.132812 196.113281 C 113.132812 179.546875 126.566406 166.113281 143.132812 166.113281 C 159.703125 166.113281 173.132812 179.546875 173.132812 196.113281 "/>
<path style="fill-rule:nonzero;fill:rgb(50%,0%,50%);fill-opacity:1;stroke-width:1;stroke-linecap:butt;stroke-linejoin:round;stroke:rgb(0%,0%,0%);stroke-opacity:1;stroke-miterlimit:10;" d="M 250.726562 72.261719 C 250.726562 88.832031 237.296875 102.261719 220.726562 102.261719 C 204.160156 102.261719 190.726562 88.832031 190.726562 72.261719 C 190.726562 55.695312 204.160156 42.261719 220.726562 42.261719 C 237.296875 42.261719 250.726562 55.695312 250.726562 72.261719 "/>
<path style="fill-rule:nonzero;fill:rgb(50%,0%,50%);fill-opacity:1;stroke-width:1;stroke-linecap:butt;stroke-linejoin:round;stroke:rgb(0%,0%,0%);stroke-opacity:1;stroke-miterlimit:10;" d="M 120.425781 421.707031 C 120.425781 438.277344 106.992188 451.707031 90.425781 451.707031 C 73.855469 451.707031 60.425781 438.277344 60.425781 421.707031 C 60.425781 405.140625 73.855469 391.707031 90.425781 391.707031 C 106.992188 391.707031 120.425781 405.140625 120.425781 421.707031 "/>
<path style="fill-rule:nonzero;fill:rgb(50%,0%,50%);fill-opacity:1;stroke-width:1;stroke-linecap:butt;stroke-linejoin:round;stroke:rgb(0%,0%,0%);stroke-opacity:1;stroke-miterlimit:10;" d="M 231.65625 311.667969 C 231.65625 328.234375 218.226562 341.667969 201.65625 341.667969 C 185.085938 341.667969 171.65625 328.234375 171.65625 311.667969 C 171.65625 295.097656 185.085938 281.667969 201.65625 281.667969 C 218.226562 281.667969 231.65625 295.097656 231.65625 311.667969 "/>
<path style="fill-rule:nonzero;fill:rgb(50%,0%,50%);fill-opacity:1;stroke-width:1;stroke-linecap:butt;stroke-linejoin:round;stroke:rgb(0%,0%,0%);stroke-opacity:1;stroke-miterlimit:10;" d="M 75.574219 316.1875 C 75.574219 332.757812 62.144531 346.1875 45.574219 346.1875 C 29.007812 346.1875 15.574219 332.757812 15.574219 316.1875 C 15.574219 299.621094 29.007812 286.1875 45.574219 286.1875 C 62.144531 286.1875 75.574219 299.621094 75.574219 316.1875 "/>
</g>
</svg>
