<?xml version="1.0" encoding="UTF-8"?>
<svg xmlns="http://www.w3.org/2000/svg" xmlns:xlink="http://www.w3.org/1999/xlink" width="517pt" height="517pt" viewBox="0 0 517 517" version="1.1">
<g id="surface3356">
<rect x="0" y="0" width="517" height="517" style="fill:rgb(90%,90%,90%);fill-opacity:1;stroke:none;"/>
<path style="fill:none;stroke-width:5;stroke-linecap:butt;stroke-linejoin:round;stroke:rgb(100%,0%,0%);stroke-opacity:1;stroke-miterlimit:10;" d="M 261 261 L 517 261 L 517 517 L 261 517 Z M 261 261 "/>
<path style="fill-rule:nonzero;fill:rgb(35%,70%,90%);fill-opacity:1;stroke-width:1;stroke-linecap:butt;stroke-linejoin:round;stroke:rgb(0%,0%,0%);stroke-opacity:1;stroke-miterlimit:10;" d="M 358.730469 363.429688 L 338.730469 363.429688 L 338.730469 373.429688 L 358.730469 373.429688 L 358.730469 393.429688 L 368.730469 393.429688 L 368.730469 373.429688 L 388.730469 373.429688 L 388.730469 363.429688 L 368.730469 363.429688 L 368.730469 343.429688 L 358.730469 343.429688 L 358.730469 363.429688 "/>
<path style="fill-rule:nonzero;fill:rgb(35%,70%,90%);fill-opacity:1;stroke-width:1;stroke-linecap:butt;stroke-linejoin:round;stroke:rgb(0%,0%,0%);stroke-opacity:1;stroke-miterlimit:10;" d="M 385.84375 92.140625 L 365.84375 92.140625 L 365.84375 102.140625 L 385.84375 102.140625 L 385.84375 122.140625 L 395.84375 122.140625 L 395.84375 102.140625 L 415.84375 102.140625 L 415.84375 92.140625 L 395.84375 92.140625 L 395.84375 72.140625 L 385.84375 72.140625 L 385.84375 92.140625 "/>
<path style="fill-rule:nonzero;fill:rgb(35%,70%,90%);fill-opacity:1;stroke-width:1;stroke-linecap:butt;stroke-linejoin:round;stroke:rgb(0%,0%,0%);stroke-opacity:1;stroke-miterlimit:10;" d="M 366.023438 212.71875 L 346.023438 212.71875 L 346.023438 222.71875 L 366.023438 222.71875 L 366.023438 242.71875 L 376.023438 242.71875 L 376.023438 222.71875 L 396.023438 222.71875 L 396.023438 212.71875 L 376.023438 212.71875 L 376.023438 192.71875 L 366.023438 192.71875 L 366.023438 212.71875 "/>
<path style="fill-rule:nonzero;fill:rgb(35%,70%,90%);fill-opacity:1;stroke-width:1;stroke-linecap:butt;stroke-linejoin:round;stroke:rgb(0%,0%,0%);stroke-opacity:1;stroke-miterlimit:10;" d="M 164.390625 468.863281 L 144.390625 468.863281 L 144.390625 478.863281 L 164.390625 478.863281 L 164.390625 498.863281 L 174.390625 498.863281 L 174.390625 478.863281 L 194.390625 478.863281 L 194.390625 468.863281 L 174.390625 468.863281 L 174.390625 448.863281 L 164.390625 448.863281 L 164.390625 468.863281 "/>
<path style="fill-rule:nonzero;fill:rgb(90%,65%,0%);fill-opacity:1;stroke-width:1;stroke-linecap:butt;stroke-linejoin:round;stroke:rgb(0%,0%,0%);stroke-opacity:1;stroke-miterlimit:10;" d="M 126.769531 389.628906 L 106.769531 389.628906 L 106.769531 399.628906 L 126.769531 399.628906 L 126.769531 419.628906 L 136.769531 419.628906 L 136.769531 399.628906 L 156.769531 399.628906 L 156.769531 389.628906 L 136.769531 389.628906 L 136.769531 369.628906 L 126.769531 369.628906 L 126.769531 389.628906 "/>
</g>
</svg>
