<?xml version="1.0" encoding="UTF-8"?>
<svg xmlns="http://www.w3.org/2000/svg" xmlns:xlink="http://www.w3.org/1999/xlink" width="517pt" height="517pt" viewBox="0 0 517 517" version="1.1">
<g id="surface3566">
<rect x="0" y="0" width="517" height="517" style="fill:rgb(90%,90%,90%);fill-opacity:1;stroke:none;"/>
<path style="fill:none;stroke-width:5;stroke-linecap:butt;stroke-linejoin:round;stroke:rgb(100%,0%,0%);stroke-opacity:1;stroke-miterlimit:10;" d="M 5 5 L 261 5 L 261 261 L 5 261 Z M 5 5 "/>
<path style="fill-rule:nonzero;fill:rgb(100%,0%,0%);fill-opacity:1;stroke-width:1;stroke-linecap:butt;stroke-linejoin:round;stroke:rgb(0%,0%,0%);stroke-opacity:1;stroke-miterlimit:10;" d="M 91.851562 143.9375 C 91.851562 160.503906 78.417969 173.9375 61.851562 173.9375 C 45.28125 173.9375 31.851562 160.503906 31.851562 143.9375 C 31.851562 127.367188 45.28125 113.9375 61.851562 113.9375 C 78.417969 113.9375 91.851562 127.367188 91.851562 143.9375 "/>
<path style="fill-rule:nonzero;fill:rgb(25%,88%,82%);fill-opacity:1;stroke-width:1;stroke-linecap:butt;stroke-linejoin:round;stroke:rgb(0%,0%,0%);stroke-opacity:1;stroke-miterlimit:10;" d="M 401.949219 446.085938 C 401.949219 462.65625 388.515625 476.085938 371.949219 476.085938 C 355.378906 476.085938 341.949219 462.65625 341.949219 446.085938 C 341.949219 429.515625 355.378906 416.085938 371.949219 416.085938 C 388.515625 416.085938 401.949219 429.515625 401.949219 446.085938 "/>
<path style="fill-rule:nonzero;fill:rgb(100%,0%,0%);fill-opacity:1;stroke-width:1;stroke-linecap:butt;stroke-linejoin:round;stroke:rgb(0%,0%,0%);stroke-opacity:1;stroke-miterlimit:10;" d="M 421.226562 389.125 C 421.226562 405.691406 407.796875 419.125 391.226562 419.125 C 374.660156 419.125 361.226562 405.691406 361.226562 389.125 C 361.226562 372.554688 374.660156 359.125 391.226562 359.125 C 407.796875 359.125 421.226562 372.554688 421.226562 389.125 "/>
<path style="fill-rule:nonzero;fill:rgb(100%,0%,0%);fill-opacity:1;stroke-width:1;stroke-linecap:butt;stroke-linejoin:round;stroke:rgb(0%,0%,0%);stroke-opacity:1;stroke-miterlimit:10;" d="M 186.753906 426.886719 C 186.753906 443.457031 173.324219 456.886719 156.753906 456.886719 C 140.183594 456.886719 126.753906 443.457031 126.753906 426.886719 C 126.753906 410.316406 140.183594 396.886719 156.753906 396.886719 C 173.324219 396.886719 186.753906 410.316406 186.753906 426.886719 "/>
<path style="fill-rule:nonzero;fill:rgb(100%,0%,0%);fill-opacity:1;stroke-width:1;stroke-linecap:butt;stroke-linejoin:round;stroke:rgb(0%,0%,0%);stroke-opacity:1;stroke-miterlimit:10;" d="M 85.648438 372.800781 C 85.648438 389.367188 72.21875 402.800781 55.648438 402.800781 C 39.082031 402.800781 25.648438 389.367188 25.648438 372.800781 C 25.648438 356.230469 39.082031 342.800781 55.648438 342.800781 C 72.21875 342.800781 85.648438 356.230469 85.648438 372.800781 "/>
<path style="fill-rule:nonzero;fill:rgb(100%,0%,0%);fill-opacity:1;stroke-width:1;stroke-linecap:butt;stroke-linejoin:round;stroke:rgb(0%,0%,0%);stroke-opacity:1;stroke-miterlimit:10;" d="M 152.332031 328.636719 C 152.332031 345.207031 138.898438 358.636719 122.332031 358.636719 C 105.761719 358.636719 92.332031 345.207031 92.332031 328.636719 C 92.332031 312.066406 105.761719 298.636719 122.332031 298.636719 C 138.898438 298.636719 152.332031 312.066406 152.332031 328.636719 "/>
</g>
</svg>
