<?xml version="1.0" encoding="UTF-8"?>
<svg xmlns="http://www.w3.org/2000/svg" xmlns:xlink="http://www.w3.org/1999/xlink" width="517pt" height="517pt" viewBox="0 0 517 517" version="1.1">
<g id="surface3216">
<rect x="0" y="0" width="517" height="517" style="fill:rgb(90%,90%,90%);fill-opacity:1;stroke:none;"/>
<path style="fill:none;stroke-width:5;stroke-linecap:butt;stroke-linejoin:round;stroke:rgb(100%,0%,0%);stroke-opacity:1;stroke-miterlimit:10;" d="M 261 261 L 517 261 L 517 517 L 261 517 Z M 261 261 "/>
<path style="fill-rule:nonzero;fill:rgb(25%,88%,82%);fill-opacity:1;stroke-width:1;stroke-linecap:butt;stroke-linejoin:round;stroke:rgb(0%,0%,0%);stroke-opacity:1;stroke-miterlimit:10;" d="M 355.910156 430.820312 C 355.910156 447.386719 342.480469 460.820312 325.910156 460.820312 C 309.34375 460.820312 295.910156 447.386719 295.910156 430.820312 C 295.910156 414.25 309.34375 400.820312 325.910156 400.820312 C 342.480469 400.820312 355.910156 414.25 355.910156 430.820312 "/>
<path style="fill-rule:nonzero;fill:rgb(100%,7%,57%);fill-opacity:1;stroke-width:1;stroke-linecap:butt;stroke-linejoin:round;stroke:rgb(0%,0%,0%);stroke-opacity:1;stroke-miterlimit:10;" d="M 123.761719 70.832031 C 123.761719 87.402344 110.328125 100.832031 93.761719 100.832031 C 77.191406 100.832031 63.761719 87.402344 63.761719 70.832031 C 63.761719 54.265625 77.191406 40.832031 93.761719 40.832031 C 110.328125 40.832031 123.761719 54.265625 123.761719 70.832031 "/>
<path style="fill-rule:nonzero;fill:rgb(100%,7%,57%);fill-opacity:1;stroke-width:1;stroke-linecap:butt;stroke-linejoin:round;stroke:rgb(0%,0%,0%);stroke-opacity:1;stroke-miterlimit:10;" d="M 495.648438 174.515625 C 495.648438 191.085938 482.21875 204.515625 465.648438 204.515625 C 449.082031 204.515625 435.648438 191.085938 435.648438 174.515625 C 435.648438 157.949219 449.082031 144.515625 465.648438 144.515625 C 482.21875 144.515625 495.648438 157.949219 495.648438 174.515625 "/>
<path style="fill-rule:nonzero;fill:rgb(100%,7%,57%);fill-opacity:1;stroke-width:1;stroke-linecap:butt;stroke-linejoin:round;stroke:rgb(0%,0%,0%);stroke-opacity:1;stroke-miterlimit:10;" d="M 108.75 409.585938 C 108.75 426.15625 95.316406 439.585938 78.75 439.585938 C 62.179688 439.585938 48.75 426.15625 48.75 409.585938 C 48.75 393.019531 62.179688 379.585938 78.75 379.585938 C 95.316406 379.585938 108.75 393.019531 108.75 409.585938 "/>
<path style="fill-rule:nonzero;fill:rgb(100%,7%,57%);fill-opacity:1;stroke-width:1;stroke-linecap:butt;stroke-linejoin:round;stroke:rgb(0%,0%,0%);stroke-opacity:1;stroke-miterlimit:10;" d="M 111.070312 323.707031 C 111.070312 340.273438 97.640625 353.707031 81.070312 353.707031 C 64.503906 353.707031 51.070312 340.273438 51.070312 323.707031 C 51.070312 307.136719 64.503906 293.707031 81.070312 293.707031 C 97.640625 293.707031 111.070312 307.136719 111.070312 323.707031 "/>
</g>
</svg>
