<?xml version="1.0" encoding="UTF-8"?>
<svg xmlns="http://www.w3.org/2000/svg" xmlns:xlink="http://www.w3.org/1999/xlink" width="517pt" height="517pt" viewBox="0 0 517 517" version="1.1">
<g id="surface9016">
<rect x="0" y="0" width="517" height="517" style="fill:rgb(90%,90%,90%);fill-opacity:1;stroke:none;"/>
<path style="fill:none;stroke-width:5;stroke-linecap:butt;stroke-linejoin:round;stroke:rgb(100%,0%,0%);stroke-opacity:1;stroke-miterlimit:10;" d="M 5 5 L 261 5 L 261 261 L 5 261 Z M 5 5 "/>
<path style="fill-rule:nonzero;fill:rgb(100%,100%,0%);fill-opacity:1;stroke-width:1;stroke-linecap:butt;stroke-linejoin:round;stroke:rgb(0%,0%,0%);stroke-opacity:1;stroke-miterlimit:10;" d="M 98.523438 195.089844 L 78.523438 195.089844 L 78.523438 205.089844 L 98.523438 205.089844 L 98.523438 225.089844 L 108.523438 225.089844 L 108.523438 205.089844 L 128.523438 205.089844 L 128.523438 195.089844 L 108.523438 195.089844 L 108.523438 175.089844 L 98.523438 175.089844 L 98.523438 195.089844 "/>
<path style="fill-rule:nonzero;fill:rgb(50%,0%,50%);fill-opacity:1;stroke-width:1;stroke-linecap:butt;stroke-linejoin:round;stroke:rgb(0%,0%,0%);stroke-opacity:1;stroke-miterlimit:10;" d="M 96.605469 423.679688 L 76.605469 423.679688 L 76.605469 433.679688 L 96.605469 433.679688 L 96.605469 453.679688 L 106.605469 453.679688 L 106.605469 433.679688 L 126.605469 433.679688 L 126.605469 423.679688 L 106.605469 423.679688 L 106.605469 403.679688 L 96.605469 403.679688 L 96.605469 423.679688 "/>
<path style="fill-rule:nonzero;fill:rgb(50%,0%,50%);fill-opacity:1;stroke-width:1;stroke-linecap:butt;stroke-linejoin:round;stroke:rgb(0%,0%,0%);stroke-opacity:1;stroke-miterlimit:10;" d="M 342.878906 122.511719 L 322.878906 122.511719 L 322.878906 132.511719 L 342.878906 132.511719 L 342.878906 152.511719 L 352.878906 152.511719 L 352.878906 132.511719 L 372.878906 132.511719 L 372.878906 122.511719 L 352.878906 122.511719 L 352.878906 102.511719 L 342.878906 102.511719 L 342.878906 122.511719 "/>
<path style="fill-rule:nonzero;fill:rgb(50%,0%,50%);fill-opacity:1;stroke-width:1;stroke-linecap:butt;stroke-linejoin:round;stroke:rgb(0%,0%,0%);stroke-opacity:1;stroke-miterlimit:10;" d="M 410.992188 149.144531 L 390.992188 149.144531 L 390.992188 159.144531 L 410.992188 159.144531 L 410.992188 179.144531 L 420.992188 179.144531 L 420.992188 159.144531 L 440.992188 159.144531 L 440.992188 149.144531 L 420.992188 149.144531 L 420.992188 129.144531 L 410.992188 129.144531 L 410.992188 149.144531 "/>
<path style="fill-rule:nonzero;fill:rgb(50%,0%,50%);fill-opacity:1;stroke-width:1;stroke-linecap:butt;stroke-linejoin:round;stroke:rgb(0%,0%,0%);stroke-opacity:1;stroke-miterlimit:10;" d="M 428.917969 60.757812 L 408.917969 60.757812 L 408.917969 70.757812 L 428.917969 70.757812 L 428.917969 90.757812 L 438.917969 90.757812 L 438.917969 70.757812 L 458.917969 70.757812 L 458.917969 60.757812 L 438.917969 60.757812 L 438.917969 40.757812 L 428.917969 40.757812 L 428.917969 60.757812 "/>
</g>
</svg>
