<?xml version="1.0" encoding="UTF-8"?>
<svg xmlns="http://www.w3.org/2000/svg" xmlns:xlink="http://www.w3.org/1999/xlink" width="517pt" height="517pt" viewBox="0 0 517 517" version="1.1">
<g id="surface8816">
<rect x="0" y="0" width="517" height="517" style="fill:rgb(90%,90%,90%);fill-opacity:1;stroke:none;"/>
<path style="fill:none;stroke-width:5;stroke-linecap:butt;stroke-linejoin:round;stroke:rgb(100%,0%,0%);stroke-opacity:1;stroke-miterlimit:10;" d="M 261 5 L 517 5 L 517 261 L 261 261 Z M 261 5 "/>
<path style="fill-rule:nonzero;fill:rgb(100%,0%,0%);fill-opacity:1;stroke-width:1;stroke-linecap:butt;stroke-linejoin:round;stroke:rgb(0%,0%,0%);stroke-opacity:1;stroke-miterlimit:10;" d="M 365.464844 120.449219 C 365.464844 137.019531 352.035156 150.449219 335.464844 150.449219 C 318.898438 150.449219 305.464844 137.019531 305.464844 120.449219 C 305.464844 103.882812 318.898438 90.449219 335.464844 90.449219 C 352.035156 90.449219 365.464844 103.882812 365.464844 120.449219 "/>
<path style="fill-rule:nonzero;fill:rgb(100%,0%,0%);fill-opacity:1;stroke-width:1;stroke-linecap:butt;stroke-linejoin:round;stroke:rgb(0%,0%,0%);stroke-opacity:1;stroke-miterlimit:10;" d="M 139.761719 301.878906 C 139.761719 318.449219 126.328125 331.878906 109.761719 331.878906 C 93.191406 331.878906 79.761719 318.449219 79.761719 301.878906 C 79.761719 285.308594 93.191406 271.878906 109.761719 271.878906 C 126.328125 271.878906 139.761719 285.308594 139.761719 301.878906 "/>
<path style="fill-rule:nonzero;fill:rgb(100%,0%,0%);fill-opacity:1;stroke-width:1;stroke-linecap:butt;stroke-linejoin:round;stroke:rgb(0%,0%,0%);stroke-opacity:1;stroke-miterlimit:10;" d="M 234.355469 451.183594 C 234.355469 467.753906 220.925781 481.183594 204.355469 481.183594 C 187.789062 481.183594 174.355469 467.753906 174.355469 451.183594 C 174.355469 434.613281 187.789062 421.183594 204.355469 421.183594 C 220.925781 421.183594 234.355469 434.613281 234.355469 451.183594 "/>
<path style="fill-rule:nonzero;fill:rgb(100%,0%,0%);fill-opacity:1;stroke-width:1;stroke-linecap:butt;stroke-linejoin:round;stroke:rgb(0%,0%,0%);stroke-opacity:1;stroke-miterlimit:10;" d="M 73.109375 212.117188 C 73.109375 228.6875 59.675781 242.117188 43.109375 242.117188 C 26.539062 242.117188 13.109375 228.6875 13.109375 212.117188 C 13.109375 195.550781 26.539062 182.117188 43.109375 182.117188 C 59.675781 182.117188 73.109375 195.550781 73.109375 212.117188 "/>
<path style="fill-rule:nonzero;fill:rgb(100%,0%,0%);fill-opacity:1;stroke-width:1;stroke-linecap:butt;stroke-linejoin:round;stroke:rgb(0%,0%,0%);stroke-opacity:1;stroke-miterlimit:10;" d="M 180.65625 198.121094 C 180.65625 214.691406 167.226562 228.121094 150.65625 228.121094 C 134.089844 228.121094 120.65625 214.691406 120.65625 198.121094 C 120.65625 181.554688 134.089844 168.121094 150.65625 168.121094 C 167.226562 168.121094 180.65625 181.554688 180.65625 198.121094 "/>
<path style="fill-rule:nonzero;fill:rgb(100%,0%,0%);fill-opacity:1;stroke-width:1;stroke-linecap:butt;stroke-linejoin:round;stroke:rgb(0%,0%,0%);stroke-opacity:1;stroke-miterlimit:10;" d="M 235.914062 102.992188 C 235.914062 119.558594 222.480469 132.992188 205.914062 132.992188 C 189.34375 132.992188 175.914062 119.558594 175.914062 102.992188 C 175.914062 86.421875 189.34375 72.992188 205.914062 72.992188 C 222.480469 72.992188 235.914062 86.421875 235.914062 102.992188 "/>
</g>
</svg>
