<?xml version="1.0" encoding="UTF-8"?>
<svg xmlns="http://www.w3.org/2000/svg" xmlns:xlink="http://www.w3.org/1999/xlink" width="517pt" height="517pt" viewBox="0 0 517 517" version="1.1">
<g id="surface3526">
<rect x="0" y="0" width="517" height="517" style="fill:rgb(90%,90%,90%);fill-opacity:1;stroke:none;"/>
<path style="fill:none;stroke-width:5;stroke-linecap:butt;stroke-linejoin:round;stroke:rgb(100%,0%,0%);stroke-opacity:1;stroke-miterlimit:10;" d="M 5 5 L 261 5 L 261 261 L 5 261 Z M 5 5 "/>
<path style="fill-rule:nonzero;fill:rgb(100%,0%,0%);fill-opacity:1;stroke-width:1;stroke-linecap:butt;stroke-linejoin:round;stroke:rgb(0%,0%,0%);stroke-opacity:1;stroke-miterlimit:10;" d="M 89.015625 180.390625 C 89.015625 196.960938 75.582031 210.390625 59.015625 210.390625 C 42.445312 210.390625 29.015625 196.960938 29.015625 180.390625 C 29.015625 163.824219 42.445312 150.390625 59.015625 150.390625 C 75.582031 150.390625 89.015625 163.824219 89.015625 180.390625 "/>
<path style="fill-rule:nonzero;fill:rgb(25%,88%,82%);fill-opacity:1;stroke-width:1;stroke-linecap:butt;stroke-linejoin:round;stroke:rgb(0%,0%,0%);stroke-opacity:1;stroke-miterlimit:10;" d="M 145.140625 339.785156 C 145.140625 356.355469 131.707031 369.785156 115.140625 369.785156 C 98.570312 369.785156 85.140625 356.355469 85.140625 339.785156 C 85.140625 323.21875 98.570312 309.785156 115.140625 309.785156 C 131.707031 309.785156 145.140625 323.21875 145.140625 339.785156 "/>
<path style="fill-rule:nonzero;fill:rgb(25%,88%,82%);fill-opacity:1;stroke-width:1;stroke-linecap:butt;stroke-linejoin:round;stroke:rgb(0%,0%,0%);stroke-opacity:1;stroke-miterlimit:10;" d="M 223 422.601562 C 223 439.171875 209.570312 452.601562 193 452.601562 C 176.433594 452.601562 163 439.171875 163 422.601562 C 163 406.035156 176.433594 392.601562 193 392.601562 C 209.570312 392.601562 223 406.035156 223 422.601562 "/>
<path style="fill-rule:nonzero;fill:rgb(25%,88%,82%);fill-opacity:1;stroke-width:1;stroke-linecap:butt;stroke-linejoin:round;stroke:rgb(0%,0%,0%);stroke-opacity:1;stroke-miterlimit:10;" d="M 349.238281 106.433594 C 349.238281 123.003906 335.804688 136.433594 319.238281 136.433594 C 302.667969 136.433594 289.238281 123.003906 289.238281 106.433594 C 289.238281 89.867188 302.667969 76.433594 319.238281 76.433594 C 335.804688 76.433594 349.238281 89.867188 349.238281 106.433594 "/>
<path style="fill-rule:nonzero;fill:rgb(25%,88%,82%);fill-opacity:1;stroke-width:1;stroke-linecap:butt;stroke-linejoin:round;stroke:rgb(0%,0%,0%);stroke-opacity:1;stroke-miterlimit:10;" d="M 337.085938 184.078125 C 337.085938 200.648438 323.652344 214.078125 307.085938 214.078125 C 290.515625 214.078125 277.085938 200.648438 277.085938 184.078125 C 277.085938 167.511719 290.515625 154.078125 307.085938 154.078125 C 323.652344 154.078125 337.085938 167.511719 337.085938 184.078125 "/>
<path style="fill-rule:nonzero;fill:rgb(25%,88%,82%);fill-opacity:1;stroke-width:1;stroke-linecap:butt;stroke-linejoin:round;stroke:rgb(0%,0%,0%);stroke-opacity:1;stroke-miterlimit:10;" d="M 435.957031 47.972656 C 435.957031 64.539062 422.523438 77.972656 405.957031 77.972656 C 389.386719 77.972656 375.957031 64.539062 375.957031 47.972656 C 375.957031 31.402344 389.386719 17.972656 405.957031 17.972656 C 422.523438 17.972656 435.957031 31.402344 435.957031 47.972656 "/>
</g>
</svg>
