<?xml version="1.0" encoding="UTF-8"?>
<svg xmlns="http://www.w3.org/2000/svg" xmlns:xlink="http://www.w3.org/1999/xlink" width="517pt" height="517pt" viewBox="0 0 517 517" version="1.1">
<g id="surface8976">
<rect x="0" y="0" width="517" height="517" style="fill:rgb(90%,90%,90%);fill-opacity:1;stroke:none;"/>
<path style="fill:none;stroke-width:5;stroke-linecap:butt;stroke-linejoin:round;stroke:rgb(100%,0%,0%);stroke-opacity:1;stroke-miterlimit:10;" d="M 5 5 L 261 5 L 261 261 L 5 261 Z M 5 5 "/>
<path style="fill-rule:nonzero;fill:rgb(35%,70%,90%);fill-opacity:1;stroke-width:1;stroke-linecap:butt;stroke-linejoin:round;stroke:rgb(0%,0%,0%);stroke-opacity:1;stroke-miterlimit:10;" d="M 80.914062 42.984375 L 60.914062 42.984375 L 60.914062 52.984375 L 80.914062 52.984375 L 80.914062 72.984375 L 90.914062 72.984375 L 90.914062 52.984375 L 110.914062 52.984375 L 110.914062 42.984375 L 90.914062 42.984375 L 90.914062 22.984375 L 80.914062 22.984375 L 80.914062 42.984375 "/>
<path style="fill-rule:nonzero;fill:rgb(35%,70%,90%);fill-opacity:1;stroke-width:1;stroke-linecap:butt;stroke-linejoin:round;stroke:rgb(0%,0%,0%);stroke-opacity:1;stroke-miterlimit:10;" d="M 93.890625 328.875 L 73.890625 328.875 L 73.890625 338.875 L 93.890625 338.875 L 93.890625 358.875 L 103.890625 358.875 L 103.890625 338.875 L 123.890625 338.875 L 123.890625 328.875 L 103.890625 328.875 L 103.890625 308.875 L 93.890625 308.875 L 93.890625 328.875 "/>
<path style="fill-rule:nonzero;fill:rgb(35%,70%,90%);fill-opacity:1;stroke-width:1;stroke-linecap:butt;stroke-linejoin:round;stroke:rgb(0%,0%,0%);stroke-opacity:1;stroke-miterlimit:10;" d="M 420.242188 454.296875 L 400.242188 454.296875 L 400.242188 464.296875 L 420.242188 464.296875 L 420.242188 484.296875 L 430.242188 484.296875 L 430.242188 464.296875 L 450.242188 464.296875 L 450.242188 454.296875 L 430.242188 454.296875 L 430.242188 434.296875 L 420.242188 434.296875 L 420.242188 454.296875 "/>
<path style="fill-rule:nonzero;fill:rgb(35%,70%,90%);fill-opacity:1;stroke-width:1;stroke-linecap:butt;stroke-linejoin:round;stroke:rgb(0%,0%,0%);stroke-opacity:1;stroke-miterlimit:10;" d="M 389.011719 185.128906 L 369.011719 185.128906 L 369.011719 195.128906 L 389.011719 195.128906 L 389.011719 215.128906 L 399.011719 215.128906 L 399.011719 195.128906 L 419.011719 195.128906 L 419.011719 185.128906 L 399.011719 185.128906 L 399.011719 165.128906 L 389.011719 165.128906 L 389.011719 185.128906 "/>
<path style="fill-rule:nonzero;fill:rgb(35%,70%,90%);fill-opacity:1;stroke-width:1;stroke-linecap:butt;stroke-linejoin:round;stroke:rgb(0%,0%,0%);stroke-opacity:1;stroke-miterlimit:10;" d="M 333.644531 123.339844 L 313.644531 123.339844 L 313.644531 133.339844 L 333.644531 133.339844 L 333.644531 153.339844 L 343.644531 153.339844 L 343.644531 133.339844 L 363.644531 133.339844 L 363.644531 123.339844 L 343.644531 123.339844 L 343.644531 103.339844 L 333.644531 103.339844 L 333.644531 123.339844 "/>
<path style="fill-rule:nonzero;fill:rgb(35%,70%,90%);fill-opacity:1;stroke-width:1;stroke-linecap:butt;stroke-linejoin:round;stroke:rgb(0%,0%,0%);stroke-opacity:1;stroke-miterlimit:10;" d="M 438.351562 49.402344 L 418.351562 49.402344 L 418.351562 59.402344 L 438.351562 59.402344 L 438.351562 79.402344 L 448.351562 79.402344 L 448.351562 59.402344 L 468.351562 59.402344 L 468.351562 49.402344 L 448.351562 49.402344 L 448.351562 29.402344 L 438.351562 29.402344 L 438.351562 49.402344 "/>
</g>
</svg>
