<?xml version="1.0" encoding="UTF-8"?>
<svg xmlns="http://www.w3.org/2000/svg" xmlns:xlink="http://www.w3.org/1999/xlink" width="517pt" height="517pt" viewBox="0 0 517 517" version="1.1">
<g id="surface8866">
<rect x="0" y="0" width="517" height="517" style="fill:rgb(90%,90%,90%);fill-opacity:1;stroke:none;"/>
<path style="fill:none;stroke-width:5;stroke-linecap:butt;stroke-linejoin:round;stroke:rgb(100%,0%,0%);stroke-opacity:1;stroke-miterlimit:10;" d="M 261 5 L 517 5 L 517 261 L 261 261 Z M 261 5 "/>
<path style="fill-rule:nonzero;fill:rgb(100%,0%,0%);fill-opacity:1;stroke-width:1;stroke-linecap:butt;stroke-linejoin:round;stroke:rgb(0%,0%,0%);stroke-opacity:1;stroke-miterlimit:10;" d="M 499.847656 169.246094 C 499.847656 185.816406 486.414062 199.246094 469.847656 199.246094 C 453.277344 199.246094 439.847656 185.816406 439.847656 169.246094 C 439.847656 152.679688 453.277344 139.246094 469.847656 139.246094 C 486.414062 139.246094 499.847656 152.679688 499.847656 169.246094 "/>
<path style="fill-rule:nonzero;fill:rgb(0%,0%,0%);fill-opacity:1;stroke-width:1;stroke-linecap:butt;stroke-linejoin:round;stroke:rgb(0%,0%,0%);stroke-opacity:1;stroke-miterlimit:10;" d="M 414.503906 450.113281 C 414.503906 466.683594 401.074219 480.113281 384.503906 480.113281 C 367.9375 480.113281 354.503906 466.683594 354.503906 450.113281 C 354.503906 433.546875 367.9375 420.113281 384.503906 420.113281 C 401.074219 420.113281 414.503906 433.546875 414.503906 450.113281 "/>
<path style="fill-rule:nonzero;fill:rgb(0%,0%,0%);fill-opacity:1;stroke-width:1;stroke-linecap:butt;stroke-linejoin:round;stroke:rgb(0%,0%,0%);stroke-opacity:1;stroke-miterlimit:10;" d="M 491.894531 401.917969 C 491.894531 418.488281 478.460938 431.917969 461.894531 431.917969 C 445.324219 431.917969 431.894531 418.488281 431.894531 401.917969 C 431.894531 385.351562 445.324219 371.917969 461.894531 371.917969 C 478.460938 371.917969 491.894531 385.351562 491.894531 401.917969 "/>
<path style="fill-rule:nonzero;fill:rgb(0%,0%,0%);fill-opacity:1;stroke-width:1;stroke-linecap:butt;stroke-linejoin:round;stroke:rgb(0%,0%,0%);stroke-opacity:1;stroke-miterlimit:10;" d="M 101.953125 372.726562 C 101.953125 389.296875 88.519531 402.726562 71.953125 402.726562 C 55.382812 402.726562 41.953125 389.296875 41.953125 372.726562 C 41.953125 356.160156 55.382812 342.726562 71.953125 342.726562 C 88.519531 342.726562 101.953125 356.160156 101.953125 372.726562 "/>
<path style="fill-rule:nonzero;fill:rgb(0%,0%,0%);fill-opacity:1;stroke-width:1;stroke-linecap:butt;stroke-linejoin:round;stroke:rgb(0%,0%,0%);stroke-opacity:1;stroke-miterlimit:10;" d="M 226.398438 206.425781 C 226.398438 222.992188 212.96875 236.425781 196.398438 236.425781 C 179.832031 236.425781 166.398438 222.992188 166.398438 206.425781 C 166.398438 189.855469 179.832031 176.425781 196.398438 176.425781 C 212.96875 176.425781 226.398438 189.855469 226.398438 206.425781 "/>
<path style="fill-rule:nonzero;fill:rgb(0%,0%,0%);fill-opacity:1;stroke-width:1;stroke-linecap:butt;stroke-linejoin:round;stroke:rgb(0%,0%,0%);stroke-opacity:1;stroke-miterlimit:10;" d="M 216.875 59.828125 C 216.875 76.398438 203.445312 89.828125 186.875 89.828125 C 170.304688 89.828125 156.875 76.398438 156.875 59.828125 C 156.875 43.257812 170.304688 29.828125 186.875 29.828125 C 203.445312 29.828125 216.875 43.257812 216.875 59.828125 "/>
</g>
</svg>
