<?xml version="1.0" encoding="UTF-8"?>
<svg xmlns="http://www.w3.org/2000/svg" xmlns:xlink="http://www.w3.org/1999/xlink" width="517pt" height="517pt" viewBox="0 0 517 517" version="1.1">
<g id="surface276">
<rect x="0" y="0" width="517" height="517" style="fill:rgb(90%,90%,90%);fill-opacity:1;stroke:none;"/>
<path style="fill:none;stroke-width:5;stroke-linecap:butt;stroke-linejoin:round;stroke:rgb(100%,0%,0%);stroke-opacity:1;stroke-miterlimit:10;" d="M 5 5 L 261 5 L 261 261 L 5 261 Z M 5 5 "/>
<path style="fill-rule:nonzero;fill:rgb(67%,100%,18%);fill-opacity:1;stroke-width:1;stroke-linecap:butt;stroke-linejoin:round;stroke:rgb(0%,0%,0%);stroke-opacity:1;stroke-miterlimit:10;" d="M 35.320312 127.292969 C 35.320312 112.890625 11.320312 112.890625 11.320312 127.292969 C 11.320312 141.691406 35.320312 144.089844 35.320312 156.089844 C 35.320312 144.089844 59.320312 141.691406 59.320312 127.292969 C 59.320312 112.890625 35.320312 112.890625 35.320312 127.292969 "/>
<path style="fill-rule:nonzero;fill:rgb(50%,0%,50%);fill-opacity:1;stroke-width:1;stroke-linecap:butt;stroke-linejoin:round;stroke:rgb(0%,0%,0%);stroke-opacity:1;stroke-miterlimit:10;" d="M 352.582031 376.949219 C 352.582031 362.550781 328.582031 362.550781 328.582031 376.949219 C 328.582031 391.347656 352.582031 393.75 352.582031 405.75 C 352.582031 393.75 376.582031 391.347656 376.582031 376.949219 C 376.582031 362.550781 352.582031 362.550781 352.582031 376.949219 "/>
<path style="fill-rule:nonzero;fill:rgb(50%,0%,50%);fill-opacity:1;stroke-width:1;stroke-linecap:butt;stroke-linejoin:round;stroke:rgb(0%,0%,0%);stroke-opacity:1;stroke-miterlimit:10;" d="M 405.460938 324.238281 C 405.460938 309.835938 381.460938 309.835938 381.460938 324.238281 C 381.460938 338.636719 405.460938 341.039062 405.460938 353.039062 C 405.460938 341.039062 429.460938 338.636719 429.460938 324.238281 C 429.460938 309.835938 405.460938 309.835938 405.460938 324.238281 "/>
<path style="fill-rule:nonzero;fill:rgb(67%,100%,18%);fill-opacity:1;stroke-width:1;stroke-linecap:butt;stroke-linejoin:round;stroke:rgb(0%,0%,0%);stroke-opacity:1;stroke-miterlimit:10;" d="M 197.101562 309.980469 C 197.101562 295.582031 173.101562 295.582031 173.101562 309.980469 C 173.101562 324.382812 197.101562 326.78125 197.101562 338.78125 C 197.101562 326.78125 221.101562 324.382812 221.101562 309.980469 C 221.101562 295.582031 197.101562 295.582031 197.101562 309.980469 "/>
</g>
</svg>
