<?xml version="1.0" encoding="UTF-8"?>
<svg xmlns="http://www.w3.org/2000/svg" xmlns:xlink="http://www.w3.org/1999/xlink" width="517pt" height="517pt" viewBox="0 0 517 517" version="1.1">
<g id="surface5426">
<rect x="0" y="0" width="517" height="517" style="fill:rgb(90%,90%,90%);fill-opacity:1;stroke:none;"/>
<path style="fill-rule:nonzero;fill:rgb(100%,100%,0%);fill-opacity:1;stroke-width:1;stroke-linecap:butt;stroke-linejoin:miter;stroke:rgb(0%,0%,0%);stroke-opacity:1;stroke-miterlimit:10;" d="M 376.085938 180.5625 C 376.085938 197.132812 362.65625 210.5625 346.085938 210.5625 C 329.519531 210.5625 316.085938 197.132812 316.085938 180.5625 C 316.085938 163.996094 329.519531 150.5625 346.085938 150.5625 C 362.65625 150.5625 376.085938 163.996094 376.085938 180.5625 "/>
<path style="fill-rule:nonzero;fill:rgb(100%,100%,0%);fill-opacity:1;stroke-width:1;stroke-linecap:butt;stroke-linejoin:miter;stroke:rgb(0%,0%,0%);stroke-opacity:1;stroke-miterlimit:10;" d="M 246.402344 418.617188 C 246.402344 435.1875 232.972656 448.617188 216.402344 448.617188 C 199.835938 448.617188 186.402344 435.1875 186.402344 418.617188 C 186.402344 402.050781 199.835938 388.617188 216.402344 388.617188 C 232.972656 388.617188 246.402344 402.050781 246.402344 418.617188 "/>
<path style="fill-rule:nonzero;fill:rgb(0%,0%,0%);fill-opacity:1;stroke-width:1;stroke-linecap:butt;stroke-linejoin:miter;stroke:rgb(0%,0%,0%);stroke-opacity:1;stroke-miterlimit:10;" d="M 166.175781 452.671875 C 166.175781 469.238281 152.746094 482.671875 136.175781 482.671875 C 119.609375 482.671875 106.175781 469.238281 106.175781 452.671875 C 106.175781 436.101562 119.609375 422.671875 136.175781 422.671875 C 152.746094 422.671875 166.175781 436.101562 166.175781 452.671875 "/>
<path style="fill-rule:nonzero;fill:rgb(0%,0%,0%);fill-opacity:1;stroke-width:1;stroke-linecap:butt;stroke-linejoin:miter;stroke:rgb(0%,0%,0%);stroke-opacity:1;stroke-miterlimit:10;" d="M 250.398438 320.304688 C 250.398438 336.875 236.964844 350.304688 220.398438 350.304688 C 203.828125 350.304688 190.398438 336.875 190.398438 320.304688 C 190.398438 303.738281 203.828125 290.304688 220.398438 290.304688 C 236.964844 290.304688 250.398438 303.738281 250.398438 320.304688 "/>
<path style="fill-rule:nonzero;fill:rgb(0%,0%,0%);fill-opacity:1;stroke-width:1;stroke-linecap:butt;stroke-linejoin:miter;stroke:rgb(0%,0%,0%);stroke-opacity:1;stroke-miterlimit:10;" d="M 163.839844 355.925781 C 163.839844 372.496094 150.410156 385.925781 133.839844 385.925781 C 117.273438 385.925781 103.839844 372.496094 103.839844 355.925781 C 103.839844 339.355469 117.273438 325.925781 133.839844 325.925781 C 150.410156 325.925781 163.839844 339.355469 163.839844 355.925781 "/>
<path style="fill-rule:nonzero;fill:rgb(0%,0%,0%);fill-opacity:1;stroke-width:1;stroke-linecap:butt;stroke-linejoin:miter;stroke:rgb(0%,0%,0%);stroke-opacity:1;stroke-miterlimit:10;" d="M 76.996094 476.367188 C 76.996094 492.9375 63.566406 506.367188 46.996094 506.367188 C 30.425781 506.367188 16.996094 492.9375 16.996094 476.367188 C 16.996094 459.800781 30.425781 446.367188 46.996094 446.367188 C 63.566406 446.367188 76.996094 459.800781 76.996094 476.367188 "/>
<path style="fill-rule:nonzero;fill:rgb(0%,0%,0%);fill-opacity:1;stroke-width:1;stroke-linecap:butt;stroke-linejoin:miter;stroke:rgb(0%,0%,0%);stroke-opacity:1;stroke-miterlimit:10;" d="M 102.835938 323.222656 C 102.835938 339.789062 89.402344 353.222656 72.835938 353.222656 C 56.265625 353.222656 42.835938 339.789062 42.835938 323.222656 C 42.835938 306.652344 56.265625 293.222656 72.835938 293.222656 C 89.402344 293.222656 102.835938 306.652344 102.835938 323.222656 "/>
<path style="fill-rule:nonzero;fill:rgb(0%,0%,0%);fill-opacity:1;stroke-width:1;stroke-linecap:butt;stroke-linejoin:miter;stroke:rgb(0%,0%,0%);stroke-opacity:1;stroke-miterlimit:10;" d="M 228.964844 115.132812 C 228.964844 131.703125 215.535156 145.132812 198.964844 145.132812 C 182.398438 145.132812 168.964844 131.703125 168.964844 115.132812 C 168.964844 98.5625 182.398438 85.132812 198.964844 85.132812 C 215.535156 85.132812 228.964844 98.5625 228.964844 115.132812 "/>
</g>
</svg>
