<?xml version="1.0" encoding="UTF-8"?>
<svg xmlns="http://www.w3.org/2000/svg" xmlns:xlink="http://www.w3.org/1999/xlink" width="517pt" height="517pt" viewBox="0 0 517 517" version="1.1">
<g id="surface261">
<rect x="0" y="0" width="517" height="517" style="fill:rgb(90%,90%,90%);fill-opacity:1;stroke:none;"/>
<path style="fill:none;stroke-width:5;stroke-linecap:butt;stroke-linejoin:round;stroke:rgb(100%,0%,0%);stroke-opacity:1;stroke-miterlimit:10;" d="M 5 5 L 261 5 L 261 261 L 5 261 Z M 5 5 "/>
<path style="fill-rule:nonzero;fill:rgb(67%,100%,18%);fill-opacity:1;stroke-width:1;stroke-linecap:butt;stroke-linejoin:round;stroke:rgb(0%,0%,0%);stroke-opacity:1;stroke-miterlimit:10;" d="M 107.359375 180.210938 C 107.359375 165.8125 83.359375 165.8125 83.359375 180.210938 C 83.359375 194.613281 107.359375 197.011719 107.359375 209.011719 C 107.359375 197.011719 131.359375 194.613281 131.359375 180.210938 C 131.359375 165.8125 107.359375 165.8125 107.359375 180.210938 "/>
<path style="fill-rule:nonzero;fill:rgb(50%,0%,50%);fill-opacity:1;stroke-width:1;stroke-linecap:butt;stroke-linejoin:round;stroke:rgb(0%,0%,0%);stroke-opacity:1;stroke-miterlimit:10;" d="M 421.402344 77.59375 C 421.402344 63.191406 397.402344 63.191406 397.402344 77.59375 C 397.402344 91.992188 421.402344 94.394531 421.402344 106.394531 C 421.402344 94.394531 445.402344 91.992188 445.402344 77.59375 C 445.402344 63.191406 421.402344 63.191406 421.402344 77.59375 "/>
<path style="fill-rule:nonzero;fill:rgb(50%,0%,50%);fill-opacity:1;stroke-width:1;stroke-linecap:butt;stroke-linejoin:round;stroke:rgb(0%,0%,0%);stroke-opacity:1;stroke-miterlimit:10;" d="M 307.785156 204.195312 C 307.785156 189.796875 283.785156 189.796875 283.785156 204.195312 C 283.785156 218.597656 307.785156 220.996094 307.785156 232.996094 C 307.785156 220.996094 331.785156 218.597656 331.785156 204.195312 C 331.785156 189.796875 307.785156 189.796875 307.785156 204.195312 "/>
<path style="fill-rule:nonzero;fill:rgb(67%,100%,18%);fill-opacity:1;stroke-width:1;stroke-linecap:butt;stroke-linejoin:round;stroke:rgb(0%,0%,0%);stroke-opacity:1;stroke-miterlimit:10;" d="M 327.042969 337.949219 C 327.042969 323.546875 303.042969 323.546875 303.042969 337.949219 C 303.042969 352.347656 327.042969 354.75 327.042969 366.75 C 327.042969 354.75 351.042969 352.347656 351.042969 337.949219 C 351.042969 323.546875 327.042969 323.546875 327.042969 337.949219 "/>
</g>
</svg>
