<?xml version="1.0" encoding="UTF-8"?>
<svg xmlns="http://www.w3.org/2000/svg" xmlns:xlink="http://www.w3.org/1999/xlink" width="517pt" height="517pt" viewBox="0 0 517 517" version="1.1">
<g id="surface306">
<rect x="0" y="0" width="517" height="517" style="fill:rgb(90%,90%,90%);fill-opacity:1;stroke:none;"/>
<path style="fill:none;stroke-width:5;stroke-linecap:butt;stroke-linejoin:round;stroke:rgb(100%,0%,0%);stroke-opacity:1;stroke-miterlimit:10;" d="M 5 5 L 261 5 L 261 261 L 5 261 Z M 5 5 "/>
<path style="fill-rule:nonzero;fill:rgb(53%,27%,7%);fill-opacity:1;stroke-width:1;stroke-linecap:butt;stroke-linejoin:round;stroke:rgb(0%,0%,0%);stroke-opacity:1;stroke-miterlimit:10;" d="M 122.445312 115.75 C 122.445312 101.347656 98.445312 101.347656 98.445312 115.75 C 98.445312 130.148438 122.445312 132.546875 122.445312 144.546875 C 122.445312 132.546875 146.445312 130.148438 146.445312 115.75 C 146.445312 101.347656 122.445312 101.347656 122.445312 115.75 "/>
<path style="fill-rule:nonzero;fill:rgb(50%,0%,50%);fill-opacity:1;stroke-width:1;stroke-linecap:butt;stroke-linejoin:round;stroke:rgb(0%,0%,0%);stroke-opacity:1;stroke-miterlimit:10;" d="M 388.132812 422.636719 C 388.132812 408.234375 364.132812 408.234375 364.132812 422.636719 C 364.132812 437.035156 388.132812 439.4375 388.132812 451.4375 C 388.132812 439.4375 412.132812 437.035156 412.132812 422.636719 C 412.132812 408.234375 388.132812 408.234375 388.132812 422.636719 "/>
<path style="fill-rule:nonzero;fill:rgb(50%,0%,50%);fill-opacity:1;stroke-width:1;stroke-linecap:butt;stroke-linejoin:round;stroke:rgb(0%,0%,0%);stroke-opacity:1;stroke-miterlimit:10;" d="M 394.046875 297.1875 C 394.046875 282.789062 370.046875 282.789062 370.046875 297.1875 C 370.046875 311.589844 394.046875 313.988281 394.046875 325.988281 C 394.046875 313.988281 418.046875 311.589844 418.046875 297.1875 C 418.046875 282.789062 394.046875 282.789062 394.046875 297.1875 "/>
<path style="fill-rule:nonzero;fill:rgb(50%,0%,50%);fill-opacity:1;stroke-width:1;stroke-linecap:butt;stroke-linejoin:round;stroke:rgb(0%,0%,0%);stroke-opacity:1;stroke-miterlimit:10;" d="M 342.589844 79.367188 C 342.589844 64.96875 318.589844 64.96875 318.589844 79.367188 C 318.589844 93.765625 342.589844 96.167969 342.589844 108.167969 C 342.589844 96.167969 366.589844 93.765625 366.589844 79.367188 C 366.589844 64.96875 342.589844 64.96875 342.589844 79.367188 "/>
</g>
</svg>
