<?xml version="1.0" encoding="UTF-8"?>
<svg xmlns="http://www.w3.org/2000/svg" xmlns:xlink="http://www.w3.org/1999/xlink" width="517pt" height="517pt" viewBox="0 0 517 517" version="1.1">
<g id="surface3311">
<rect x="0" y="0" width="517" height="517" style="fill:rgb(90%,90%,90%);fill-opacity:1;stroke:none;"/>
<path style="fill:none;stroke-width:5;stroke-linecap:butt;stroke-linejoin:round;stroke:rgb(100%,0%,0%);stroke-opacity:1;stroke-miterlimit:10;" d="M 261 261 L 517 261 L 517 517 L 261 517 Z M 261 261 "/>
<path style="fill-rule:nonzero;fill:rgb(90%,65%,0%);fill-opacity:1;stroke-width:1;stroke-linecap:butt;stroke-linejoin:round;stroke:rgb(0%,0%,0%);stroke-opacity:1;stroke-miterlimit:10;" d="M 376.71875 313.003906 L 356.71875 313.003906 L 356.71875 323.003906 L 376.71875 323.003906 L 376.71875 343.003906 L 386.71875 343.003906 L 386.71875 323.003906 L 406.71875 323.003906 L 406.71875 313.003906 L 386.71875 313.003906 L 386.71875 293.003906 L 376.71875 293.003906 L 376.71875 313.003906 "/>
<path style="fill-rule:nonzero;fill:rgb(35%,70%,90%);fill-opacity:1;stroke-width:1;stroke-linecap:butt;stroke-linejoin:round;stroke:rgb(0%,0%,0%);stroke-opacity:1;stroke-miterlimit:10;" d="M 387.679688 193.039062 L 367.679688 193.039062 L 367.679688 203.039062 L 387.679688 203.039062 L 387.679688 223.039062 L 397.679688 223.039062 L 397.679688 203.039062 L 417.679688 203.039062 L 417.679688 193.039062 L 397.679688 193.039062 L 397.679688 173.039062 L 387.679688 173.039062 L 387.679688 193.039062 "/>
<path style="fill-rule:nonzero;fill:rgb(35%,70%,90%);fill-opacity:1;stroke-width:1;stroke-linecap:butt;stroke-linejoin:round;stroke:rgb(0%,0%,0%);stroke-opacity:1;stroke-miterlimit:10;" d="M 72.914062 83.328125 L 52.914062 83.328125 L 52.914062 93.328125 L 72.914062 93.328125 L 72.914062 113.328125 L 82.914062 113.328125 L 82.914062 93.328125 L 102.914062 93.328125 L 102.914062 83.328125 L 82.914062 83.328125 L 82.914062 63.328125 L 72.914062 63.328125 L 72.914062 83.328125 "/>
<path style="fill-rule:nonzero;fill:rgb(35%,70%,90%);fill-opacity:1;stroke-width:1;stroke-linecap:butt;stroke-linejoin:round;stroke:rgb(0%,0%,0%);stroke-opacity:1;stroke-miterlimit:10;" d="M 148.128906 136.039062 L 128.128906 136.039062 L 128.128906 146.039062 L 148.128906 146.039062 L 148.128906 166.039062 L 158.128906 166.039062 L 158.128906 146.039062 L 178.128906 146.039062 L 178.128906 136.039062 L 158.128906 136.039062 L 158.128906 116.039062 L 148.128906 116.039062 L 148.128906 136.039062 "/>
<path style="fill-rule:nonzero;fill:rgb(90%,65%,0%);fill-opacity:1;stroke-width:1;stroke-linecap:butt;stroke-linejoin:round;stroke:rgb(0%,0%,0%);stroke-opacity:1;stroke-miterlimit:10;" d="M 159.570312 35.800781 L 139.570312 35.800781 L 139.570312 45.800781 L 159.570312 45.800781 L 159.570312 65.800781 L 169.570312 65.800781 L 169.570312 45.800781 L 189.570312 45.800781 L 189.570312 35.800781 L 169.570312 35.800781 L 169.570312 15.800781 L 159.570312 15.800781 L 159.570312 35.800781 "/>
</g>
</svg>
