<?xml version="1.0" encoding="UTF-8"?>
<svg xmlns="http://www.w3.org/2000/svg" xmlns:xlink="http://www.w3.org/1999/xlink" width="517pt" height="517pt" viewBox="0 0 517 517" version="1.1">
<g id="surface3521">
<rect x="0" y="0" width="517" height="517" style="fill:rgb(90%,90%,90%);fill-opacity:1;stroke:none;"/>
<path style="fill:none;stroke-width:5;stroke-linecap:butt;stroke-linejoin:round;stroke:rgb(100%,0%,0%);stroke-opacity:1;stroke-miterlimit:10;" d="M 5 5 L 261 5 L 261 261 L 5 261 Z M 5 5 "/>
<path style="fill-rule:nonzero;fill:rgb(100%,0%,0%);fill-opacity:1;stroke-width:1;stroke-linecap:butt;stroke-linejoin:round;stroke:rgb(0%,0%,0%);stroke-opacity:1;stroke-miterlimit:10;" d="M 112.03125 173.21875 C 112.03125 189.789062 98.601562 203.21875 82.03125 203.21875 C 65.464844 203.21875 52.03125 189.789062 52.03125 173.21875 C 52.03125 156.652344 65.464844 143.21875 82.03125 143.21875 C 98.601562 143.21875 112.03125 156.652344 112.03125 173.21875 "/>
<path style="fill-rule:nonzero;fill:rgb(25%,88%,82%);fill-opacity:1;stroke-width:1;stroke-linecap:butt;stroke-linejoin:round;stroke:rgb(0%,0%,0%);stroke-opacity:1;stroke-miterlimit:10;" d="M 494.027344 149.652344 C 494.027344 166.21875 480.597656 179.652344 464.027344 179.652344 C 447.460938 179.652344 434.027344 166.21875 434.027344 149.652344 C 434.027344 133.082031 447.460938 119.652344 464.027344 119.652344 C 480.597656 119.652344 494.027344 133.082031 494.027344 149.652344 "/>
<path style="fill-rule:nonzero;fill:rgb(25%,88%,82%);fill-opacity:1;stroke-width:1;stroke-linecap:butt;stroke-linejoin:round;stroke:rgb(0%,0%,0%);stroke-opacity:1;stroke-miterlimit:10;" d="M 404.46875 136.472656 C 404.46875 153.042969 391.039062 166.472656 374.46875 166.472656 C 357.902344 166.472656 344.46875 153.042969 344.46875 136.472656 C 344.46875 119.902344 357.902344 106.472656 374.46875 106.472656 C 391.039062 106.472656 404.46875 119.902344 404.46875 136.472656 "/>
<path style="fill-rule:nonzero;fill:rgb(25%,88%,82%);fill-opacity:1;stroke-width:1;stroke-linecap:butt;stroke-linejoin:round;stroke:rgb(0%,0%,0%);stroke-opacity:1;stroke-miterlimit:10;" d="M 123.777344 465.277344 C 123.777344 481.84375 110.347656 495.277344 93.777344 495.277344 C 77.210938 495.277344 63.777344 481.84375 63.777344 465.277344 C 63.777344 448.707031 77.210938 435.277344 93.777344 435.277344 C 110.347656 435.277344 123.777344 448.707031 123.777344 465.277344 "/>
<path style="fill-rule:nonzero;fill:rgb(25%,88%,82%);fill-opacity:1;stroke-width:1;stroke-linecap:butt;stroke-linejoin:round;stroke:rgb(0%,0%,0%);stroke-opacity:1;stroke-miterlimit:10;" d="M 70.441406 334.804688 C 70.441406 351.375 57.007812 364.804688 40.441406 364.804688 C 23.871094 364.804688 10.441406 351.375 10.441406 334.804688 C 10.441406 318.238281 23.871094 304.804688 40.441406 304.804688 C 57.007812 304.804688 70.441406 318.238281 70.441406 334.804688 "/>
<path style="fill-rule:nonzero;fill:rgb(25%,88%,82%);fill-opacity:1;stroke-width:1;stroke-linecap:butt;stroke-linejoin:round;stroke:rgb(0%,0%,0%);stroke-opacity:1;stroke-miterlimit:10;" d="M 219.691406 449.878906 C 219.691406 466.449219 206.261719 479.878906 189.691406 479.878906 C 173.125 479.878906 159.691406 466.449219 159.691406 449.878906 C 159.691406 433.3125 173.125 419.878906 189.691406 419.878906 C 206.261719 419.878906 219.691406 433.3125 219.691406 449.878906 "/>
</g>
</svg>
