<?xml version="1.0" encoding="UTF-8"?>
<svg xmlns="http://www.w3.org/2000/svg" xmlns:xlink="http://www.w3.org/1999/xlink" width="517pt" height="517pt" viewBox="0 0 517 517" version="1.1">
<g id="surface8406">
<rect x="0" y="0" width="517" height="517" style="fill:rgb(90%,90%,90%);fill-opacity:1;stroke:none;"/>
<path style="fill:none;stroke-width:5;stroke-linecap:butt;stroke-linejoin:round;stroke:rgb(100%,0%,0%);stroke-opacity:1;stroke-miterlimit:10;" d="M 5 261 L 261 261 L 261 517 L 5 517 Z M 5 261 "/>
<path style="fill-rule:nonzero;fill:rgb(35%,70%,90%);fill-opacity:1;stroke-width:1;stroke-linecap:butt;stroke-linejoin:round;stroke:rgb(0%,0%,0%);stroke-opacity:1;stroke-miterlimit:10;" d="M 104.265625 419.113281 C 104.265625 435.679688 90.832031 449.113281 74.265625 449.113281 C 57.695312 449.113281 44.265625 435.679688 44.265625 419.113281 C 44.265625 402.542969 57.695312 389.113281 74.265625 389.113281 C 90.832031 389.113281 104.265625 402.542969 104.265625 419.113281 "/>
<path style="fill-rule:nonzero;fill:rgb(0%,0%,0%);fill-opacity:1;stroke-width:1;stroke-linecap:butt;stroke-linejoin:round;stroke:rgb(0%,0%,0%);stroke-opacity:1;stroke-miterlimit:10;" d="M 106.054688 211.828125 C 106.054688 228.398438 92.621094 241.828125 76.054688 241.828125 C 59.484375 241.828125 46.054688 228.398438 46.054688 211.828125 C 46.054688 195.261719 59.484375 181.828125 76.054688 181.828125 C 92.621094 181.828125 106.054688 195.261719 106.054688 211.828125 "/>
<path style="fill-rule:nonzero;fill:rgb(0%,0%,0%);fill-opacity:1;stroke-width:1;stroke-linecap:butt;stroke-linejoin:round;stroke:rgb(0%,0%,0%);stroke-opacity:1;stroke-miterlimit:10;" d="M 247.46875 40.433594 C 247.46875 57 234.039062 70.433594 217.46875 70.433594 C 200.902344 70.433594 187.46875 57 187.46875 40.433594 C 187.46875 23.863281 200.902344 10.433594 217.46875 10.433594 C 234.039062 10.433594 247.46875 23.863281 247.46875 40.433594 "/>
<path style="fill-rule:nonzero;fill:rgb(0%,0%,0%);fill-opacity:1;stroke-width:1;stroke-linecap:butt;stroke-linejoin:round;stroke:rgb(0%,0%,0%);stroke-opacity:1;stroke-miterlimit:10;" d="M 493.621094 105.21875 C 493.621094 121.785156 480.191406 135.21875 463.621094 135.21875 C 447.054688 135.21875 433.621094 121.785156 433.621094 105.21875 C 433.621094 88.648438 447.054688 75.21875 463.621094 75.21875 C 480.191406 75.21875 493.621094 88.648438 493.621094 105.21875 "/>
<path style="fill-rule:nonzero;fill:rgb(0%,0%,0%);fill-opacity:1;stroke-width:1;stroke-linecap:butt;stroke-linejoin:round;stroke:rgb(0%,0%,0%);stroke-opacity:1;stroke-miterlimit:10;" d="M 418.007812 346.730469 C 418.007812 363.296875 404.578125 376.730469 388.007812 376.730469 C 371.441406 376.730469 358.007812 363.296875 358.007812 346.730469 C 358.007812 330.160156 371.441406 316.730469 388.007812 316.730469 C 404.578125 316.730469 418.007812 330.160156 418.007812 346.730469 "/>
</g>
</svg>
