<?xml version="1.0" encoding="UTF-8"?>
<svg xmlns="http://www.w3.org/2000/svg" xmlns:xlink="http://www.w3.org/1999/xlink" width="517pt" height="517pt" viewBox="0 0 517 517" version="1.1">
<g id="surface246">
<rect x="0" y="0" width="517" height="517" style="fill:rgb(90%,90%,90%);fill-opacity:1;stroke:none;"/>
<path style="fill:none;stroke-width:5;stroke-linecap:butt;stroke-linejoin:round;stroke:rgb(100%,0%,0%);stroke-opacity:1;stroke-miterlimit:10;" d="M 5 5 L 261 5 L 261 261 L 5 261 Z M 5 5 "/>
<path style="fill-rule:nonzero;fill:rgb(67%,100%,18%);fill-opacity:1;stroke-width:1;stroke-linecap:butt;stroke-linejoin:round;stroke:rgb(0%,0%,0%);stroke-opacity:1;stroke-miterlimit:10;" d="M 129.582031 113.339844 C 129.582031 98.941406 105.582031 98.941406 105.582031 113.339844 C 105.582031 127.742188 129.582031 130.140625 129.582031 142.140625 C 129.582031 130.140625 153.582031 127.742188 153.582031 113.339844 C 153.582031 98.941406 129.582031 98.941406 129.582031 113.339844 "/>
<path style="fill-rule:nonzero;fill:rgb(50%,0%,50%);fill-opacity:1;stroke-width:1;stroke-linecap:butt;stroke-linejoin:round;stroke:rgb(0%,0%,0%);stroke-opacity:1;stroke-miterlimit:10;" d="M 70.03125 441.289062 C 70.03125 426.890625 46.03125 426.890625 46.03125 441.289062 C 46.03125 455.691406 70.03125 458.089844 70.03125 470.089844 C 70.03125 458.089844 94.03125 455.691406 94.03125 441.289062 C 94.03125 426.890625 70.03125 426.890625 70.03125 441.289062 "/>
<path style="fill-rule:nonzero;fill:rgb(50%,0%,50%);fill-opacity:1;stroke-width:1;stroke-linecap:butt;stroke-linejoin:round;stroke:rgb(0%,0%,0%);stroke-opacity:1;stroke-miterlimit:10;" d="M 86.40625 301.792969 C 86.40625 287.390625 62.40625 287.390625 62.40625 301.792969 C 62.40625 316.191406 86.40625 318.589844 86.40625 330.589844 C 86.40625 318.589844 110.40625 316.191406 110.40625 301.792969 C 110.40625 287.390625 86.40625 287.390625 86.40625 301.792969 "/>
<path style="fill-rule:nonzero;fill:rgb(50%,0%,50%);fill-opacity:1;stroke-width:1;stroke-linecap:butt;stroke-linejoin:round;stroke:rgb(0%,0%,0%);stroke-opacity:1;stroke-miterlimit:10;" d="M 468.265625 418.644531 C 468.265625 404.246094 444.265625 404.246094 444.265625 418.644531 C 444.265625 433.046875 468.265625 435.445312 468.265625 447.445312 C 468.265625 435.445312 492.265625 433.046875 492.265625 418.644531 C 492.265625 404.246094 468.265625 404.246094 468.265625 418.644531 "/>
</g>
</svg>
