<?xml version="1.0" encoding="UTF-8"?>
<svg xmlns="http://www.w3.org/2000/svg" xmlns:xlink="http://www.w3.org/1999/xlink" width="517pt" height="517pt" viewBox="0 0 517 517" version="1.1">
<g id="surface5366">
<rect x="0" y="0" width="517" height="517" style="fill:rgb(90%,90%,90%);fill-opacity:1;stroke:none;"/>
<path style="fill-rule:nonzero;fill:rgb(0%,0%,0%);fill-opacity:1;stroke-width:1;stroke-linecap:butt;stroke-linejoin:miter;stroke:rgb(0%,0%,0%);stroke-opacity:1;stroke-miterlimit:10;" d="M 230.96875 204.351562 C 230.96875 220.921875 217.535156 234.351562 200.96875 234.351562 C 184.398438 234.351562 170.96875 220.921875 170.96875 204.351562 C 170.96875 187.785156 184.398438 174.351562 200.96875 174.351562 C 217.535156 174.351562 230.96875 187.785156 230.96875 204.351562 "/>
<path style="fill-rule:nonzero;fill:rgb(0%,0%,0%);fill-opacity:1;stroke-width:1;stroke-linecap:butt;stroke-linejoin:miter;stroke:rgb(0%,0%,0%);stroke-opacity:1;stroke-miterlimit:10;" d="M 98.832031 75.09375 C 98.832031 91.660156 85.398438 105.09375 68.832031 105.09375 C 52.261719 105.09375 38.832031 91.660156 38.832031 75.09375 C 38.832031 58.523438 52.261719 45.09375 68.832031 45.09375 C 85.398438 45.09375 98.832031 58.523438 98.832031 75.09375 "/>
<path style="fill-rule:nonzero;fill:rgb(0%,0%,0%);fill-opacity:1;stroke-width:1;stroke-linecap:butt;stroke-linejoin:miter;stroke:rgb(0%,0%,0%);stroke-opacity:1;stroke-miterlimit:10;" d="M 325.359375 313.070312 C 325.359375 329.636719 311.929688 343.070312 295.359375 343.070312 C 278.792969 343.070312 265.359375 329.636719 265.359375 313.070312 C 265.359375 296.5 278.792969 283.070312 295.359375 283.070312 C 311.929688 283.070312 325.359375 296.5 325.359375 313.070312 "/>
<path style="fill-rule:nonzero;fill:rgb(0%,0%,0%);fill-opacity:1;stroke-width:1;stroke-linecap:butt;stroke-linejoin:miter;stroke:rgb(0%,0%,0%);stroke-opacity:1;stroke-miterlimit:10;" d="M 436.644531 382.089844 C 436.644531 398.660156 423.214844 412.089844 406.644531 412.089844 C 390.078125 412.089844 376.644531 398.660156 376.644531 382.089844 C 376.644531 365.523438 390.078125 352.089844 406.644531 352.089844 C 423.214844 352.089844 436.644531 365.523438 436.644531 382.089844 "/>
<path style="fill-rule:nonzero;fill:rgb(0%,0%,0%);fill-opacity:1;stroke-width:1;stroke-linecap:butt;stroke-linejoin:miter;stroke:rgb(0%,0%,0%);stroke-opacity:1;stroke-miterlimit:10;" d="M 473.007812 292.277344 C 473.007812 308.84375 459.578125 322.277344 443.007812 322.277344 C 426.441406 322.277344 413.007812 308.84375 413.007812 292.277344 C 413.007812 275.707031 426.441406 262.277344 443.007812 262.277344 C 459.578125 262.277344 473.007812 275.707031 473.007812 292.277344 "/>
<path style="fill-rule:nonzero;fill:rgb(0%,0%,0%);fill-opacity:1;stroke-width:1;stroke-linecap:butt;stroke-linejoin:miter;stroke:rgb(0%,0%,0%);stroke-opacity:1;stroke-miterlimit:10;" d="M 462.652344 469.179688 C 462.652344 485.75 449.21875 499.179688 432.652344 499.179688 C 416.082031 499.179688 402.652344 485.75 402.652344 469.179688 C 402.652344 452.613281 416.082031 439.179688 432.652344 439.179688 C 449.21875 439.179688 462.652344 452.613281 462.652344 469.179688 "/>
<path style="fill-rule:nonzero;fill:rgb(0%,0%,0%);fill-opacity:1;stroke-width:1;stroke-linecap:butt;stroke-linejoin:miter;stroke:rgb(0%,0%,0%);stroke-opacity:1;stroke-miterlimit:10;" d="M 490.140625 411.757812 C 490.140625 428.328125 476.707031 441.757812 460.140625 441.757812 C 443.570312 441.757812 430.140625 428.328125 430.140625 411.757812 C 430.140625 395.191406 443.570312 381.757812 460.140625 381.757812 C 476.707031 381.757812 490.140625 395.191406 490.140625 411.757812 "/>
<path style="fill-rule:nonzero;fill:rgb(0%,0%,0%);fill-opacity:1;stroke-width:1;stroke-linecap:butt;stroke-linejoin:miter;stroke:rgb(0%,0%,0%);stroke-opacity:1;stroke-miterlimit:10;" d="M 466.871094 177.921875 C 466.871094 194.488281 453.441406 207.921875 436.871094 207.921875 C 420.304688 207.921875 406.871094 194.488281 406.871094 177.921875 C 406.871094 161.351562 420.304688 147.921875 436.871094 147.921875 C 453.441406 147.921875 466.871094 161.351562 466.871094 177.921875 "/>
</g>
</svg>
