<?xml version="1.0" encoding="UTF-8"?>
<svg xmlns="http://www.w3.org/2000/svg" xmlns:xlink="http://www.w3.org/1999/xlink" width="517pt" height="517pt" viewBox="0 0 517 517" version="1.1">
<g id="surface3456">
<rect x="0" y="0" width="517" height="517" style="fill:rgb(90%,90%,90%);fill-opacity:1;stroke:none;"/>
<path style="fill:none;stroke-width:5;stroke-linecap:butt;stroke-linejoin:round;stroke:rgb(100%,0%,0%);stroke-opacity:1;stroke-miterlimit:10;" d="M 5 5 L 261 5 L 261 261 L 5 261 Z M 5 5 "/>
<path style="fill-rule:nonzero;fill:rgb(90%,65%,0%);fill-opacity:1;stroke-width:1;stroke-linecap:butt;stroke-linejoin:round;stroke:rgb(0%,0%,0%);stroke-opacity:1;stroke-miterlimit:10;" d="M 169.257812 97.429688 L 169.257812 139.855469 L 211.683594 139.855469 L 211.683594 97.429688 L 169.257812 97.429688 "/>
<path style="fill-rule:nonzero;fill:rgb(100%,100%,0%);fill-opacity:1;stroke-width:1;stroke-linecap:butt;stroke-linejoin:round;stroke:rgb(0%,0%,0%);stroke-opacity:1;stroke-miterlimit:10;" d="M 272.15625 291.859375 L 272.15625 334.285156 L 314.582031 334.285156 L 314.582031 291.859375 L 272.15625 291.859375 "/>
<path style="fill-rule:nonzero;fill:rgb(100%,100%,0%);fill-opacity:1;stroke-width:1;stroke-linecap:butt;stroke-linejoin:round;stroke:rgb(0%,0%,0%);stroke-opacity:1;stroke-miterlimit:10;" d="M 425.546875 295.058594 L 425.546875 337.484375 L 467.972656 337.484375 L 467.972656 295.058594 L 425.546875 295.058594 "/>
<path style="fill-rule:nonzero;fill:rgb(100%,100%,0%);fill-opacity:1;stroke-width:1;stroke-linecap:butt;stroke-linejoin:round;stroke:rgb(0%,0%,0%);stroke-opacity:1;stroke-miterlimit:10;" d="M 163.550781 334.664062 L 163.550781 377.089844 L 205.980469 377.089844 L 205.980469 334.664062 L 163.550781 334.664062 "/>
<path style="fill-rule:nonzero;fill:rgb(100%,100%,0%);fill-opacity:1;stroke-width:1;stroke-linecap:butt;stroke-linejoin:round;stroke:rgb(0%,0%,0%);stroke-opacity:1;stroke-miterlimit:10;" d="M 33.953125 323.953125 L 33.953125 366.378906 L 76.378906 366.378906 L 76.378906 323.953125 L 33.953125 323.953125 "/>
<path style="fill-rule:nonzero;fill:rgb(100%,100%,0%);fill-opacity:1;stroke-width:1;stroke-linecap:butt;stroke-linejoin:round;stroke:rgb(0%,0%,0%);stroke-opacity:1;stroke-miterlimit:10;" d="M 40.230469 440.808594 L 40.230469 483.234375 L 82.65625 483.234375 L 82.65625 440.808594 L 40.230469 440.808594 "/>
</g>
</svg>
