<?xml version="1.0" encoding="UTF-8"?>
<svg xmlns="http://www.w3.org/2000/svg" xmlns:xlink="http://www.w3.org/1999/xlink" width="517pt" height="517pt" viewBox="0 0 517 517" version="1.1">
<g id="surface4516">
<rect x="0" y="0" width="517" height="517" style="fill:rgb(90%,90%,90%);fill-opacity:1;stroke:none;"/>
<path style="fill:none;stroke-width:5;stroke-linecap:butt;stroke-linejoin:round;stroke:rgb(100%,0%,0%);stroke-opacity:1;stroke-miterlimit:10;" d="M 5 261 L 261 261 L 261 517 L 5 517 Z M 5 261 "/>
<path style="fill-rule:nonzero;fill:rgb(50%,0%,50%);fill-opacity:1;stroke-width:1;stroke-linecap:butt;stroke-linejoin:round;stroke:rgb(0%,0%,0%);stroke-opacity:1;stroke-miterlimit:10;" d="M 88.484375 368.539062 C 88.484375 354.136719 64.484375 354.136719 64.484375 368.539062 C 64.484375 382.9375 88.484375 385.339844 88.484375 397.339844 C 88.484375 385.339844 112.484375 382.9375 112.484375 368.539062 C 112.484375 354.136719 88.484375 354.136719 88.484375 368.539062 "/>
<path style="fill-rule:nonzero;fill:rgb(90%,65%,0%);fill-opacity:1;stroke-width:1;stroke-linecap:butt;stroke-linejoin:round;stroke:rgb(0%,0%,0%);stroke-opacity:1;stroke-miterlimit:10;" d="M 443.726562 82.992188 C 443.726562 68.589844 419.726562 68.589844 419.726562 82.992188 C 419.726562 97.390625 443.726562 99.789062 443.726562 111.789062 C 443.726562 99.789062 467.726562 97.390625 467.726562 82.992188 C 467.726562 68.589844 443.726562 68.589844 443.726562 82.992188 "/>
<path style="fill-rule:nonzero;fill:rgb(90%,65%,0%);fill-opacity:1;stroke-width:1;stroke-linecap:butt;stroke-linejoin:round;stroke:rgb(0%,0%,0%);stroke-opacity:1;stroke-miterlimit:10;" d="M 175.171875 95.253906 C 175.171875 80.851562 151.171875 80.851562 151.171875 95.253906 C 151.171875 109.652344 175.171875 112.054688 175.171875 124.054688 C 175.171875 112.054688 199.171875 109.652344 199.171875 95.253906 C 199.171875 80.851562 175.171875 80.851562 175.171875 95.253906 "/>
<path style="fill-rule:nonzero;fill:rgb(90%,65%,0%);fill-opacity:1;stroke-width:1;stroke-linecap:butt;stroke-linejoin:round;stroke:rgb(0%,0%,0%);stroke-opacity:1;stroke-miterlimit:10;" d="M 47.347656 39.570312 C 47.347656 25.171875 23.347656 25.171875 23.347656 39.570312 C 23.347656 53.972656 47.347656 56.371094 47.347656 68.371094 C 47.347656 56.371094 71.347656 53.972656 71.347656 39.570312 C 71.347656 25.171875 47.347656 25.171875 47.347656 39.570312 "/>
<path style="fill-rule:nonzero;fill:rgb(90%,65%,0%);fill-opacity:1;stroke-width:1;stroke-linecap:butt;stroke-linejoin:round;stroke:rgb(0%,0%,0%);stroke-opacity:1;stroke-miterlimit:10;" d="M 184.105469 25.605469 C 184.105469 11.203125 160.105469 11.203125 160.105469 25.605469 C 160.105469 40.003906 184.105469 42.402344 184.105469 54.402344 C 184.105469 42.402344 208.105469 40.003906 208.105469 25.605469 C 208.105469 11.203125 184.105469 11.203125 184.105469 25.605469 "/>
<path style="fill-rule:nonzero;fill:rgb(50%,0%,50%);fill-opacity:1;stroke-width:1;stroke-linecap:butt;stroke-linejoin:round;stroke:rgb(0%,0%,0%);stroke-opacity:1;stroke-miterlimit:10;" d="M 158.644531 181.546875 C 158.644531 167.148438 134.644531 167.148438 134.644531 181.546875 C 134.644531 195.945312 158.644531 198.347656 158.644531 210.347656 C 158.644531 198.347656 182.644531 195.945312 182.644531 181.546875 C 182.644531 167.148438 158.644531 167.148438 158.644531 181.546875 "/>
</g>
</svg>
