<?xml version="1.0" encoding="UTF-8"?>
<svg xmlns="http://www.w3.org/2000/svg" xmlns:xlink="http://www.w3.org/1999/xlink" width="517pt" height="517pt" viewBox="0 0 517 517" version="1.1">
<g id="surface4596">
<rect x="0" y="0" width="517" height="517" style="fill:rgb(90%,90%,90%);fill-opacity:1;stroke:none;"/>
<path style="fill:none;stroke-width:5;stroke-linecap:butt;stroke-linejoin:round;stroke:rgb(100%,0%,0%);stroke-opacity:1;stroke-miterlimit:10;" d="M 5 261 L 261 261 L 261 517 L 5 517 Z M 5 261 "/>
<path style="fill-rule:nonzero;fill:rgb(53%,27%,7%);fill-opacity:1;stroke-width:1;stroke-linecap:butt;stroke-linejoin:round;stroke:rgb(0%,0%,0%);stroke-opacity:1;stroke-miterlimit:10;" d="M 115.183594 456.054688 C 115.183594 441.65625 91.183594 441.65625 91.183594 456.054688 C 91.183594 470.457031 115.183594 472.855469 115.183594 484.855469 C 115.183594 472.855469 139.183594 470.457031 139.183594 456.054688 C 139.183594 441.65625 115.183594 441.65625 115.183594 456.054688 "/>
<path style="fill-rule:nonzero;fill:rgb(100%,100%,0%);fill-opacity:1;stroke-width:1;stroke-linecap:butt;stroke-linejoin:round;stroke:rgb(0%,0%,0%);stroke-opacity:1;stroke-miterlimit:10;" d="M 357.398438 172.011719 C 357.398438 157.613281 333.398438 157.613281 333.398438 172.011719 C 333.398438 186.414062 357.398438 188.8125 357.398438 200.8125 C 357.398438 188.8125 381.398438 186.414062 381.398438 172.011719 C 381.398438 157.613281 357.398438 157.613281 357.398438 172.011719 "/>
<path style="fill-rule:nonzero;fill:rgb(100%,100%,0%);fill-opacity:1;stroke-width:1;stroke-linecap:butt;stroke-linejoin:round;stroke:rgb(0%,0%,0%);stroke-opacity:1;stroke-miterlimit:10;" d="M 416.648438 141.113281 C 416.648438 126.714844 392.648438 126.714844 392.648438 141.113281 C 392.648438 155.515625 416.648438 157.914062 416.648438 169.914062 C 416.648438 157.914062 440.648438 155.515625 440.648438 141.113281 C 440.648438 126.714844 416.648438 126.714844 416.648438 141.113281 "/>
<path style="fill-rule:nonzero;fill:rgb(100%,100%,0%);fill-opacity:1;stroke-width:1;stroke-linecap:butt;stroke-linejoin:round;stroke:rgb(0%,0%,0%);stroke-opacity:1;stroke-miterlimit:10;" d="M 457.578125 356.933594 C 457.578125 342.53125 433.578125 342.53125 433.578125 356.933594 C 433.578125 371.332031 457.578125 373.730469 457.578125 385.730469 C 457.578125 373.730469 481.578125 371.332031 481.578125 356.933594 C 481.578125 342.53125 457.578125 342.53125 457.578125 356.933594 "/>
<path style="fill-rule:nonzero;fill:rgb(100%,100%,0%);fill-opacity:1;stroke-width:1;stroke-linecap:butt;stroke-linejoin:round;stroke:rgb(0%,0%,0%);stroke-opacity:1;stroke-miterlimit:10;" d="M 39.15625 157.613281 C 39.15625 143.210938 15.15625 143.210938 15.15625 157.613281 C 15.15625 172.011719 39.15625 174.414062 39.15625 186.414062 C 39.15625 174.414062 63.15625 172.011719 63.15625 157.613281 C 63.15625 143.210938 39.15625 143.210938 39.15625 157.613281 "/>
<path style="fill-rule:nonzero;fill:rgb(53%,27%,7%);fill-opacity:1;stroke-width:1;stroke-linecap:butt;stroke-linejoin:round;stroke:rgb(0%,0%,0%);stroke-opacity:1;stroke-miterlimit:10;" d="M 71.660156 86.585938 C 71.660156 72.183594 47.660156 72.183594 47.660156 86.585938 C 47.660156 100.984375 71.660156 103.386719 71.660156 115.386719 C 71.660156 103.386719 95.660156 100.984375 95.660156 86.585938 C 95.660156 72.183594 71.660156 72.183594 71.660156 86.585938 "/>
</g>
</svg>
