<?xml version="1.0" encoding="UTF-8"?>
<svg xmlns="http://www.w3.org/2000/svg" xmlns:xlink="http://www.w3.org/1999/xlink" width="517pt" height="517pt" viewBox="0 0 517 517" version="1.1">
<g id="surface9446">
<rect x="0" y="0" width="517" height="517" style="fill:rgb(90%,90%,90%);fill-opacity:1;stroke:none;"/>
<path style="fill:none;stroke-width:5;stroke-linecap:butt;stroke-linejoin:round;stroke:rgb(100%,0%,0%);stroke-opacity:1;stroke-miterlimit:10;" d="M 261 5 L 517 5 L 517 261 L 261 261 Z M 261 5 "/>
<path style="fill-rule:nonzero;fill:rgb(67%,100%,18%);fill-opacity:1;stroke-width:1;stroke-linecap:butt;stroke-linejoin:round;stroke:rgb(0%,0%,0%);stroke-opacity:1;stroke-miterlimit:10;" d="M 433.96875 170.488281 L 413.96875 170.488281 L 413.96875 180.488281 L 433.96875 180.488281 L 433.96875 200.488281 L 443.96875 200.488281 L 443.96875 180.488281 L 463.96875 180.488281 L 463.96875 170.488281 L 443.96875 170.488281 L 443.96875 150.488281 L 433.96875 150.488281 L 433.96875 170.488281 "/>
<path style="fill-rule:nonzero;fill:rgb(50%,0%,50%);fill-opacity:1;stroke-width:1;stroke-linecap:butt;stroke-linejoin:round;stroke:rgb(0%,0%,0%);stroke-opacity:1;stroke-miterlimit:10;" d="M 96.796875 48.164062 L 76.796875 48.164062 L 76.796875 58.164062 L 96.796875 58.164062 L 96.796875 78.164062 L 106.796875 78.164062 L 106.796875 58.164062 L 126.796875 58.164062 L 126.796875 48.164062 L 106.796875 48.164062 L 106.796875 28.164062 L 96.796875 28.164062 L 96.796875 48.164062 "/>
<path style="fill-rule:nonzero;fill:rgb(50%,0%,50%);fill-opacity:1;stroke-width:1;stroke-linecap:butt;stroke-linejoin:round;stroke:rgb(0%,0%,0%);stroke-opacity:1;stroke-miterlimit:10;" d="M 55.066406 181.402344 L 35.066406 181.402344 L 35.066406 191.402344 L 55.066406 191.402344 L 55.066406 211.402344 L 65.066406 211.402344 L 65.066406 191.402344 L 85.066406 191.402344 L 85.066406 181.402344 L 65.066406 181.402344 L 65.066406 161.402344 L 55.066406 161.402344 L 55.066406 181.402344 "/>
<path style="fill-rule:nonzero;fill:rgb(50%,0%,50%);fill-opacity:1;stroke-width:1;stroke-linecap:butt;stroke-linejoin:round;stroke:rgb(0%,0%,0%);stroke-opacity:1;stroke-miterlimit:10;" d="M 159.085938 383.273438 L 139.085938 383.273438 L 139.085938 393.273438 L 159.085938 393.273438 L 159.085938 413.273438 L 169.085938 413.273438 L 169.085938 393.273438 L 189.085938 393.273438 L 189.085938 383.273438 L 169.085938 383.273438 L 169.085938 363.273438 L 159.085938 363.273438 L 159.085938 383.273438 "/>
<path style="fill-rule:nonzero;fill:rgb(50%,0%,50%);fill-opacity:1;stroke-width:1;stroke-linecap:butt;stroke-linejoin:round;stroke:rgb(0%,0%,0%);stroke-opacity:1;stroke-miterlimit:10;" d="M 201.242188 452.949219 L 181.242188 452.949219 L 181.242188 462.949219 L 201.242188 462.949219 L 201.242188 482.949219 L 211.242188 482.949219 L 211.242188 462.949219 L 231.242188 462.949219 L 231.242188 452.949219 L 211.242188 452.949219 L 211.242188 432.949219 L 201.242188 432.949219 L 201.242188 452.949219 "/>
</g>
</svg>
