<?xml version="1.0" encoding="UTF-8"?>
<svg xmlns="http://www.w3.org/2000/svg" xmlns:xlink="http://www.w3.org/1999/xlink" width="517pt" height="517pt" viewBox="0 0 517 517" version="1.1">
<g id="surface4491">
<rect x="0" y="0" width="517" height="517" style="fill:rgb(90%,90%,90%);fill-opacity:1;stroke:none;"/>
<path style="fill:none;stroke-width:5;stroke-linecap:butt;stroke-linejoin:round;stroke:rgb(100%,0%,0%);stroke-opacity:1;stroke-miterlimit:10;" d="M 5 261 L 261 261 L 261 517 L 5 517 Z M 5 261 "/>
<path style="fill-rule:nonzero;fill:rgb(50%,0%,50%);fill-opacity:1;stroke-width:1;stroke-linecap:butt;stroke-linejoin:round;stroke:rgb(0%,0%,0%);stroke-opacity:1;stroke-miterlimit:10;" d="M 63.453125 403.636719 C 63.453125 389.234375 39.453125 389.234375 39.453125 403.636719 C 39.453125 418.035156 63.453125 420.4375 63.453125 432.4375 C 63.453125 420.4375 87.453125 418.035156 87.453125 403.636719 C 87.453125 389.234375 63.453125 389.234375 63.453125 403.636719 "/>
<path style="fill-rule:nonzero;fill:rgb(90%,65%,0%);fill-opacity:1;stroke-width:1;stroke-linecap:butt;stroke-linejoin:round;stroke:rgb(0%,0%,0%);stroke-opacity:1;stroke-miterlimit:10;" d="M 319.363281 119.257812 C 319.363281 104.859375 295.363281 104.859375 295.363281 119.257812 C 295.363281 133.65625 319.363281 136.058594 319.363281 148.058594 C 319.363281 136.058594 343.363281 133.65625 343.363281 119.257812 C 343.363281 104.859375 319.363281 104.859375 319.363281 119.257812 "/>
<path style="fill-rule:nonzero;fill:rgb(90%,65%,0%);fill-opacity:1;stroke-width:1;stroke-linecap:butt;stroke-linejoin:round;stroke:rgb(0%,0%,0%);stroke-opacity:1;stroke-miterlimit:10;" d="M 140.507812 42.308594 C 140.507812 27.90625 116.507812 27.90625 116.507812 42.308594 C 116.507812 56.707031 140.507812 59.109375 140.507812 71.109375 C 140.507812 59.109375 164.507812 56.707031 164.507812 42.308594 C 164.507812 27.90625 140.507812 27.90625 140.507812 42.308594 "/>
<path style="fill-rule:nonzero;fill:rgb(90%,65%,0%);fill-opacity:1;stroke-width:1;stroke-linecap:butt;stroke-linejoin:round;stroke:rgb(0%,0%,0%);stroke-opacity:1;stroke-miterlimit:10;" d="M 86.273438 110.84375 C 86.273438 96.445312 62.273438 96.445312 62.273438 110.84375 C 62.273438 125.246094 86.273438 127.644531 86.273438 139.644531 C 86.273438 127.644531 110.273438 125.246094 110.273438 110.84375 C 110.273438 96.445312 86.273438 96.445312 86.273438 110.84375 "/>
<path style="fill-rule:nonzero;fill:rgb(90%,65%,0%);fill-opacity:1;stroke-width:1;stroke-linecap:butt;stroke-linejoin:round;stroke:rgb(0%,0%,0%);stroke-opacity:1;stroke-miterlimit:10;" d="M 104.242188 182.230469 C 104.242188 167.828125 80.242188 167.828125 80.242188 182.230469 C 80.242188 196.628906 104.242188 199.027344 104.242188 211.027344 C 104.242188 199.027344 128.242188 196.628906 128.242188 182.230469 C 128.242188 167.828125 104.242188 167.828125 104.242188 182.230469 "/>
<path style="fill-rule:nonzero;fill:rgb(90%,65%,0%);fill-opacity:1;stroke-width:1;stroke-linecap:butt;stroke-linejoin:round;stroke:rgb(0%,0%,0%);stroke-opacity:1;stroke-miterlimit:10;" d="M 169.4375 99.476562 C 169.4375 85.074219 145.4375 85.074219 145.4375 99.476562 C 145.4375 113.875 169.4375 116.273438 169.4375 128.273438 C 169.4375 116.273438 193.4375 113.875 193.4375 99.476562 C 193.4375 85.074219 169.4375 85.074219 169.4375 99.476562 "/>
</g>
</svg>
