<?xml version="1.0" encoding="UTF-8"?>
<svg xmlns="http://www.w3.org/2000/svg" xmlns:xlink="http://www.w3.org/1999/xlink" width="517pt" height="517pt" viewBox="0 0 517 517" version="1.1">
<g id="surface9186">
<rect x="0" y="0" width="517" height="517" style="fill:rgb(90%,90%,90%);fill-opacity:1;stroke:none;"/>
<path style="fill:none;stroke-width:5;stroke-linecap:butt;stroke-linejoin:round;stroke:rgb(100%,0%,0%);stroke-opacity:1;stroke-miterlimit:10;" d="M 261 5 L 517 5 L 517 261 L 261 261 Z M 261 5 "/>
<path style="fill-rule:nonzero;fill:rgb(100%,100%,0%);fill-opacity:1;stroke-width:1;stroke-linecap:butt;stroke-linejoin:round;stroke:rgb(0%,0%,0%);stroke-opacity:1;stroke-miterlimit:10;" d="M 367.527344 153.078125 L 347.527344 153.078125 L 347.527344 163.078125 L 367.527344 163.078125 L 367.527344 183.078125 L 377.527344 183.078125 L 377.527344 163.078125 L 397.527344 163.078125 L 397.527344 153.078125 L 377.527344 153.078125 L 377.527344 133.078125 L 367.527344 133.078125 L 367.527344 153.078125 "/>
<path style="fill-rule:nonzero;fill:rgb(100%,0%,0%);fill-opacity:1;stroke-width:1;stroke-linecap:butt;stroke-linejoin:round;stroke:rgb(0%,0%,0%);stroke-opacity:1;stroke-miterlimit:10;" d="M 157.894531 103.988281 L 137.894531 103.988281 L 137.894531 113.988281 L 157.894531 113.988281 L 157.894531 133.988281 L 167.894531 133.988281 L 167.894531 113.988281 L 187.894531 113.988281 L 187.894531 103.988281 L 167.894531 103.988281 L 167.894531 83.988281 L 157.894531 83.988281 L 157.894531 103.988281 "/>
<path style="fill-rule:nonzero;fill:rgb(100%,0%,0%);fill-opacity:1;stroke-width:1;stroke-linecap:butt;stroke-linejoin:round;stroke:rgb(0%,0%,0%);stroke-opacity:1;stroke-miterlimit:10;" d="M 368.097656 363.003906 L 348.097656 363.003906 L 348.097656 373.003906 L 368.097656 373.003906 L 368.097656 393.003906 L 378.097656 393.003906 L 378.097656 373.003906 L 398.097656 373.003906 L 398.097656 363.003906 L 378.097656 363.003906 L 378.097656 343.003906 L 368.097656 343.003906 L 368.097656 363.003906 "/>
<path style="fill-rule:nonzero;fill:rgb(100%,0%,0%);fill-opacity:1;stroke-width:1;stroke-linecap:butt;stroke-linejoin:round;stroke:rgb(0%,0%,0%);stroke-opacity:1;stroke-miterlimit:10;" d="M 456.273438 328.234375 L 436.273438 328.234375 L 436.273438 338.234375 L 456.273438 338.234375 L 456.273438 358.234375 L 466.273438 358.234375 L 466.273438 338.234375 L 486.273438 338.234375 L 486.273438 328.234375 L 466.273438 328.234375 L 466.273438 308.234375 L 456.273438 308.234375 L 456.273438 328.234375 "/>
<path style="fill-rule:nonzero;fill:rgb(100%,0%,0%);fill-opacity:1;stroke-width:1;stroke-linecap:butt;stroke-linejoin:round;stroke:rgb(0%,0%,0%);stroke-opacity:1;stroke-miterlimit:10;" d="M 305.042969 291.101562 L 285.042969 291.101562 L 285.042969 301.101562 L 305.042969 301.101562 L 305.042969 321.101562 L 315.042969 321.101562 L 315.042969 301.101562 L 335.042969 301.101562 L 335.042969 291.101562 L 315.042969 291.101562 L 315.042969 271.101562 L 305.042969 271.101562 L 305.042969 291.101562 "/>
<path style="fill-rule:nonzero;fill:rgb(100%,0%,0%);fill-opacity:1;stroke-width:1;stroke-linecap:butt;stroke-linejoin:round;stroke:rgb(0%,0%,0%);stroke-opacity:1;stroke-miterlimit:10;" d="M 131.9375 442.929688 L 111.9375 442.929688 L 111.9375 452.929688 L 131.9375 452.929688 L 131.9375 472.929688 L 141.9375 472.929688 L 141.9375 452.929688 L 161.9375 452.929688 L 161.9375 442.929688 L 141.9375 442.929688 L 141.9375 422.929688 L 131.9375 422.929688 L 131.9375 442.929688 "/>
</g>
</svg>
