<?xml version="1.0" encoding="UTF-8"?>
<svg xmlns="http://www.w3.org/2000/svg" xmlns:xlink="http://www.w3.org/1999/xlink" width="517pt" height="517pt" viewBox="0 0 517 517" version="1.1">
<g id="surface3926">
<rect x="0" y="0" width="517" height="517" style="fill:rgb(90%,90%,90%);fill-opacity:1;stroke:none;"/>
<path style="fill:none;stroke-width:5;stroke-linecap:butt;stroke-linejoin:round;stroke:rgb(100%,0%,0%);stroke-opacity:1;stroke-miterlimit:10;" d="M 5 5 L 261 5 L 261 261 L 5 261 Z M 5 5 "/>
<path style="fill-rule:nonzero;fill:rgb(0%,0%,0%);fill-opacity:1;stroke-width:1;stroke-linecap:butt;stroke-linejoin:round;stroke:rgb(0%,0%,0%);stroke-opacity:1;stroke-miterlimit:10;" d="M 147.140625 43.882812 L 127.140625 43.882812 L 127.140625 53.882812 L 147.140625 53.882812 L 147.140625 73.882812 L 157.140625 73.882812 L 157.140625 53.882812 L 177.140625 53.882812 L 177.140625 43.882812 L 157.140625 43.882812 L 157.140625 23.882812 L 147.140625 23.882812 L 147.140625 43.882812 "/>
<path style="fill-rule:nonzero;fill:rgb(50%,0%,50%);fill-opacity:1;stroke-width:1;stroke-linecap:butt;stroke-linejoin:round;stroke:rgb(0%,0%,0%);stroke-opacity:1;stroke-miterlimit:10;" d="M 336.25 115.660156 L 316.25 115.660156 L 316.25 125.660156 L 336.25 125.660156 L 336.25 145.660156 L 346.25 145.660156 L 346.25 125.660156 L 366.25 125.660156 L 366.25 115.660156 L 346.25 115.660156 L 346.25 95.660156 L 336.25 95.660156 L 336.25 115.660156 "/>
<path style="fill-rule:nonzero;fill:rgb(50%,0%,50%);fill-opacity:1;stroke-width:1;stroke-linecap:butt;stroke-linejoin:round;stroke:rgb(0%,0%,0%);stroke-opacity:1;stroke-miterlimit:10;" d="M 370.371094 309.886719 L 350.371094 309.886719 L 350.371094 319.886719 L 370.371094 319.886719 L 370.371094 339.886719 L 380.371094 339.886719 L 380.371094 319.886719 L 400.371094 319.886719 L 400.371094 309.886719 L 380.371094 309.886719 L 380.371094 289.886719 L 370.371094 289.886719 L 370.371094 309.886719 "/>
<path style="fill-rule:nonzero;fill:rgb(50%,0%,50%);fill-opacity:1;stroke-width:1;stroke-linecap:butt;stroke-linejoin:round;stroke:rgb(0%,0%,0%);stroke-opacity:1;stroke-miterlimit:10;" d="M 287.859375 343.25 L 267.859375 343.25 L 267.859375 353.25 L 287.859375 353.25 L 287.859375 373.25 L 297.859375 373.25 L 297.859375 353.25 L 317.859375 353.25 L 317.859375 343.25 L 297.859375 343.25 L 297.859375 323.25 L 287.859375 323.25 L 287.859375 343.25 "/>
<path style="fill-rule:nonzero;fill:rgb(50%,0%,50%);fill-opacity:1;stroke-width:1;stroke-linecap:butt;stroke-linejoin:round;stroke:rgb(0%,0%,0%);stroke-opacity:1;stroke-miterlimit:10;" d="M 308.640625 455.800781 L 288.640625 455.800781 L 288.640625 465.800781 L 308.640625 465.800781 L 308.640625 485.800781 L 318.640625 485.800781 L 318.640625 465.800781 L 338.640625 465.800781 L 338.640625 455.800781 L 318.640625 455.800781 L 318.640625 435.800781 L 308.640625 435.800781 L 308.640625 455.800781 "/>
<path style="fill-rule:nonzero;fill:rgb(50%,0%,50%);fill-opacity:1;stroke-width:1;stroke-linecap:butt;stroke-linejoin:round;stroke:rgb(0%,0%,0%);stroke-opacity:1;stroke-miterlimit:10;" d="M 468.660156 383.0625 L 448.660156 383.0625 L 448.660156 393.0625 L 468.660156 393.0625 L 468.660156 413.0625 L 478.660156 413.0625 L 478.660156 393.0625 L 498.660156 393.0625 L 498.660156 383.0625 L 478.660156 383.0625 L 478.660156 363.0625 L 468.660156 363.0625 L 468.660156 383.0625 "/>
</g>
</svg>
