<?xml version="1.0" encoding="UTF-8"?>
<svg xmlns="http://www.w3.org/2000/svg" xmlns:xlink="http://www.w3.org/1999/xlink" width="517pt" height="517pt" viewBox="0 0 517 517" version="1.1">
<g id="surface4186">
<rect x="0" y="0" width="517" height="517" style="fill:rgb(90%,90%,90%);fill-opacity:1;stroke:none;"/>
<path style="fill:none;stroke-width:5;stroke-linecap:butt;stroke-linejoin:round;stroke:rgb(100%,0%,0%);stroke-opacity:1;stroke-miterlimit:10;" d="M 261 5 L 517 5 L 517 261 L 261 261 Z M 261 5 "/>
<path style="fill-rule:nonzero;fill:rgb(35%,70%,90%);fill-opacity:1;stroke-width:1;stroke-linecap:butt;stroke-linejoin:round;stroke:rgb(0%,0%,0%);stroke-opacity:1;stroke-miterlimit:10;" d="M 391.675781 77.492188 C 391.675781 94.058594 378.246094 107.492188 361.675781 107.492188 C 345.109375 107.492188 331.675781 94.058594 331.675781 77.492188 C 331.675781 60.921875 345.109375 47.492188 361.675781 47.492188 C 378.246094 47.492188 391.675781 60.921875 391.675781 77.492188 "/>
<path style="fill-rule:nonzero;fill:rgb(100%,0%,0%);fill-opacity:1;stroke-width:1;stroke-linecap:butt;stroke-linejoin:round;stroke:rgb(0%,0%,0%);stroke-opacity:1;stroke-miterlimit:10;" d="M 184.765625 462.101562 C 184.765625 478.671875 171.332031 492.101562 154.765625 492.101562 C 138.195312 492.101562 124.765625 478.671875 124.765625 462.101562 C 124.765625 445.535156 138.195312 432.101562 154.765625 432.101562 C 171.332031 432.101562 184.765625 445.535156 184.765625 462.101562 "/>
<path style="fill-rule:nonzero;fill:rgb(100%,0%,0%);fill-opacity:1;stroke-width:1;stroke-linecap:butt;stroke-linejoin:round;stroke:rgb(0%,0%,0%);stroke-opacity:1;stroke-miterlimit:10;" d="M 373.292969 317.03125 C 373.292969 333.601562 359.863281 347.03125 343.292969 347.03125 C 326.726562 347.03125 313.292969 333.601562 313.292969 317.03125 C 313.292969 300.464844 326.726562 287.03125 343.292969 287.03125 C 359.863281 287.03125 373.292969 300.464844 373.292969 317.03125 "/>
<path style="fill-rule:nonzero;fill:rgb(100%,0%,0%);fill-opacity:1;stroke-width:1;stroke-linecap:butt;stroke-linejoin:round;stroke:rgb(0%,0%,0%);stroke-opacity:1;stroke-miterlimit:10;" d="M 495.167969 326.410156 C 495.167969 342.976562 481.738281 356.410156 465.167969 356.410156 C 448.601562 356.410156 435.167969 342.976562 435.167969 326.410156 C 435.167969 309.839844 448.601562 296.410156 465.167969 296.410156 C 481.738281 296.410156 495.167969 309.839844 495.167969 326.410156 "/>
<path style="fill-rule:nonzero;fill:rgb(100%,0%,0%);fill-opacity:1;stroke-width:1;stroke-linecap:butt;stroke-linejoin:round;stroke:rgb(0%,0%,0%);stroke-opacity:1;stroke-miterlimit:10;" d="M 448.675781 366.847656 C 448.675781 383.414062 435.242188 396.847656 418.675781 396.847656 C 402.105469 396.847656 388.675781 383.414062 388.675781 366.847656 C 388.675781 350.277344 402.105469 336.847656 418.675781 336.847656 C 435.242188 336.847656 448.675781 350.277344 448.675781 366.847656 "/>
<path style="fill-rule:nonzero;fill:rgb(35%,70%,90%);fill-opacity:1;stroke-width:1;stroke-linecap:butt;stroke-linejoin:round;stroke:rgb(0%,0%,0%);stroke-opacity:1;stroke-miterlimit:10;" d="M 431.335938 456.570312 C 431.335938 473.140625 417.902344 486.570312 401.335938 486.570312 C 384.765625 486.570312 371.335938 473.140625 371.335938 456.570312 C 371.335938 440.003906 384.765625 426.570312 401.335938 426.570312 C 417.902344 426.570312 431.335938 440.003906 431.335938 456.570312 "/>
</g>
</svg>
