<?xml version="1.0" encoding="UTF-8"?>
<svg xmlns="http://www.w3.org/2000/svg" xmlns:xlink="http://www.w3.org/1999/xlink" width="517pt" height="517pt" viewBox="0 0 517 517" version="1.1">
<g id="surface4531">
<rect x="0" y="0" width="517" height="517" style="fill:rgb(90%,90%,90%);fill-opacity:1;stroke:none;"/>
<path style="fill:none;stroke-width:5;stroke-linecap:butt;stroke-linejoin:round;stroke:rgb(100%,0%,0%);stroke-opacity:1;stroke-miterlimit:10;" d="M 5 261 L 261 261 L 261 517 L 5 517 Z M 5 261 "/>
<path style="fill-rule:nonzero;fill:rgb(50%,0%,50%);fill-opacity:1;stroke-width:1;stroke-linecap:butt;stroke-linejoin:round;stroke:rgb(0%,0%,0%);stroke-opacity:1;stroke-miterlimit:10;" d="M 207.855469 291.277344 C 207.855469 276.875 183.855469 276.875 183.855469 291.277344 C 183.855469 305.675781 207.855469 308.078125 207.855469 320.078125 C 207.855469 308.078125 231.855469 305.675781 231.855469 291.277344 C 231.855469 276.875 207.855469 276.875 207.855469 291.277344 "/>
<path style="fill-rule:nonzero;fill:rgb(90%,65%,0%);fill-opacity:1;stroke-width:1;stroke-linecap:butt;stroke-linejoin:round;stroke:rgb(0%,0%,0%);stroke-opacity:1;stroke-miterlimit:10;" d="M 92.472656 184.140625 C 92.472656 169.738281 68.472656 169.738281 68.472656 184.140625 C 68.472656 198.539062 92.472656 200.941406 92.472656 212.941406 C 92.472656 200.941406 116.472656 198.539062 116.472656 184.140625 C 116.472656 169.738281 92.472656 169.738281 92.472656 184.140625 "/>
<path style="fill-rule:nonzero;fill:rgb(50%,0%,50%);fill-opacity:1;stroke-width:1;stroke-linecap:butt;stroke-linejoin:round;stroke:rgb(0%,0%,0%);stroke-opacity:1;stroke-miterlimit:10;" d="M 179.390625 73.234375 C 179.390625 58.832031 155.390625 58.832031 155.390625 73.234375 C 155.390625 87.632812 179.390625 90.03125 179.390625 102.03125 C 179.390625 90.03125 203.390625 87.632812 203.390625 73.234375 C 203.390625 58.832031 179.390625 58.832031 179.390625 73.234375 "/>
<path style="fill-rule:nonzero;fill:rgb(50%,0%,50%);fill-opacity:1;stroke-width:1;stroke-linecap:butt;stroke-linejoin:round;stroke:rgb(0%,0%,0%);stroke-opacity:1;stroke-miterlimit:10;" d="M 446.902344 459.902344 C 446.902344 445.5 422.902344 445.5 422.902344 459.902344 C 422.902344 474.300781 446.902344 476.703125 446.902344 488.703125 C 446.902344 476.703125 470.902344 474.300781 470.902344 459.902344 C 470.902344 445.5 446.902344 445.5 446.902344 459.902344 "/>
<path style="fill-rule:nonzero;fill:rgb(50%,0%,50%);fill-opacity:1;stroke-width:1;stroke-linecap:butt;stroke-linejoin:round;stroke:rgb(0%,0%,0%);stroke-opacity:1;stroke-miterlimit:10;" d="M 405.058594 34.570312 C 405.058594 20.171875 381.058594 20.171875 381.058594 34.570312 C 381.058594 48.96875 405.058594 51.371094 405.058594 63.371094 C 405.058594 51.371094 429.058594 48.96875 429.058594 34.570312 C 429.058594 20.171875 405.058594 20.171875 405.058594 34.570312 "/>
<path style="fill-rule:nonzero;fill:rgb(50%,0%,50%);fill-opacity:1;stroke-width:1;stroke-linecap:butt;stroke-linejoin:round;stroke:rgb(0%,0%,0%);stroke-opacity:1;stroke-miterlimit:10;" d="M 382.777344 191.84375 C 382.777344 177.441406 358.777344 177.441406 358.777344 191.84375 C 358.777344 206.242188 382.777344 208.644531 382.777344 220.644531 C 382.777344 208.644531 406.777344 206.242188 406.777344 191.84375 C 406.777344 177.441406 382.777344 177.441406 382.777344 191.84375 "/>
</g>
</svg>
