<?xml version="1.0" encoding="UTF-8"?>
<svg xmlns="http://www.w3.org/2000/svg" xmlns:xlink="http://www.w3.org/1999/xlink" width="517pt" height="517pt" viewBox="0 0 517 517" version="1.1">
<g id="surface4201">
<rect x="0" y="0" width="517" height="517" style="fill:rgb(90%,90%,90%);fill-opacity:1;stroke:none;"/>
<path style="fill:none;stroke-width:5;stroke-linecap:butt;stroke-linejoin:round;stroke:rgb(100%,0%,0%);stroke-opacity:1;stroke-miterlimit:10;" d="M 261 5 L 517 5 L 517 261 L 261 261 Z M 261 5 "/>
<path style="fill-rule:nonzero;fill:rgb(35%,70%,90%);fill-opacity:1;stroke-width:1;stroke-linecap:butt;stroke-linejoin:round;stroke:rgb(0%,0%,0%);stroke-opacity:1;stroke-miterlimit:10;" d="M 415.660156 43.636719 C 415.660156 60.203125 402.226562 73.636719 385.660156 73.636719 C 369.089844 73.636719 355.660156 60.203125 355.660156 43.636719 C 355.660156 27.066406 369.089844 13.636719 385.660156 13.636719 C 402.226562 13.636719 415.660156 27.066406 415.660156 43.636719 "/>
<path style="fill-rule:nonzero;fill:rgb(100%,0%,0%);fill-opacity:1;stroke-width:1;stroke-linecap:butt;stroke-linejoin:round;stroke:rgb(0%,0%,0%);stroke-opacity:1;stroke-miterlimit:10;" d="M 381.449219 332.800781 C 381.449219 349.367188 368.019531 362.800781 351.449219 362.800781 C 334.882812 362.800781 321.449219 349.367188 321.449219 332.800781 C 321.449219 316.230469 334.882812 302.800781 351.449219 302.800781 C 368.019531 302.800781 381.449219 316.230469 381.449219 332.800781 "/>
<path style="fill-rule:nonzero;fill:rgb(35%,70%,90%);fill-opacity:1;stroke-width:1;stroke-linecap:butt;stroke-linejoin:round;stroke:rgb(0%,0%,0%);stroke-opacity:1;stroke-miterlimit:10;" d="M 473.90625 460.816406 C 473.90625 477.386719 460.472656 490.816406 443.90625 490.816406 C 427.335938 490.816406 413.90625 477.386719 413.90625 460.816406 C 413.90625 444.246094 427.335938 430.816406 443.90625 430.816406 C 460.472656 430.816406 473.90625 444.246094 473.90625 460.816406 "/>
<path style="fill-rule:nonzero;fill:rgb(35%,70%,90%);fill-opacity:1;stroke-width:1;stroke-linecap:butt;stroke-linejoin:round;stroke:rgb(0%,0%,0%);stroke-opacity:1;stroke-miterlimit:10;" d="M 227.140625 397.945312 C 227.140625 414.511719 213.710938 427.945312 197.140625 427.945312 C 180.574219 427.945312 167.140625 414.511719 167.140625 397.945312 C 167.140625 381.375 180.574219 367.945312 197.140625 367.945312 C 213.710938 367.945312 227.140625 381.375 227.140625 397.945312 "/>
<path style="fill-rule:nonzero;fill:rgb(35%,70%,90%);fill-opacity:1;stroke-width:1;stroke-linecap:butt;stroke-linejoin:round;stroke:rgb(0%,0%,0%);stroke-opacity:1;stroke-miterlimit:10;" d="M 168.324219 377.324219 C 168.324219 393.894531 154.890625 407.324219 138.324219 407.324219 C 121.753906 407.324219 108.324219 393.894531 108.324219 377.324219 C 108.324219 360.753906 121.753906 347.324219 138.324219 347.324219 C 154.890625 347.324219 168.324219 360.753906 168.324219 377.324219 "/>
<path style="fill-rule:nonzero;fill:rgb(35%,70%,90%);fill-opacity:1;stroke-width:1;stroke-linecap:butt;stroke-linejoin:round;stroke:rgb(0%,0%,0%);stroke-opacity:1;stroke-miterlimit:10;" d="M 121.539062 456.667969 C 121.539062 473.238281 108.109375 486.667969 91.539062 486.667969 C 74.972656 486.667969 61.539062 473.238281 61.539062 456.667969 C 61.539062 440.101562 74.972656 426.667969 91.539062 426.667969 C 108.109375 426.667969 121.539062 440.101562 121.539062 456.667969 "/>
</g>
</svg>
