<?xml version="1.0" encoding="UTF-8"?>
<svg xmlns="http://www.w3.org/2000/svg" xmlns:xlink="http://www.w3.org/1999/xlink" width="517pt" height="517pt" viewBox="0 0 517 517" version="1.1">
<g id="surface9516">
<rect x="0" y="0" width="517" height="517" style="fill:rgb(90%,90%,90%);fill-opacity:1;stroke:none;"/>
<path style="fill:none;stroke-width:5;stroke-linecap:butt;stroke-linejoin:round;stroke:rgb(100%,0%,0%);stroke-opacity:1;stroke-miterlimit:10;" d="M 261 5 L 517 5 L 517 261 L 261 261 Z M 261 5 "/>
<path style="fill-rule:nonzero;fill:rgb(67%,100%,18%);fill-opacity:1;stroke-width:1;stroke-linecap:butt;stroke-linejoin:round;stroke:rgb(0%,0%,0%);stroke-opacity:1;stroke-miterlimit:10;" d="M 321.769531 98.238281 L 301.769531 98.238281 L 301.769531 108.238281 L 321.769531 108.238281 L 321.769531 128.238281 L 331.769531 128.238281 L 331.769531 108.238281 L 351.769531 108.238281 L 351.769531 98.238281 L 331.769531 98.238281 L 331.769531 78.238281 L 321.769531 78.238281 L 321.769531 98.238281 "/>
<path style="fill-rule:nonzero;fill:rgb(67%,100%,18%);fill-opacity:1;stroke-width:1;stroke-linecap:butt;stroke-linejoin:round;stroke:rgb(0%,0%,0%);stroke-opacity:1;stroke-miterlimit:10;" d="M 175.53125 448.601562 L 155.53125 448.601562 L 155.53125 458.601562 L 175.53125 458.601562 L 175.53125 478.601562 L 185.53125 478.601562 L 185.53125 458.601562 L 205.53125 458.601562 L 205.53125 448.601562 L 185.53125 448.601562 L 185.53125 428.601562 L 175.53125 428.601562 L 175.53125 448.601562 "/>
<path style="fill-rule:nonzero;fill:rgb(67%,100%,18%);fill-opacity:1;stroke-width:1;stroke-linecap:butt;stroke-linejoin:round;stroke:rgb(0%,0%,0%);stroke-opacity:1;stroke-miterlimit:10;" d="M 90.058594 471.695312 L 70.058594 471.695312 L 70.058594 481.695312 L 90.058594 481.695312 L 90.058594 501.695312 L 100.058594 501.695312 L 100.058594 481.695312 L 120.058594 481.695312 L 120.058594 471.695312 L 100.058594 471.695312 L 100.058594 451.695312 L 90.058594 451.695312 L 90.058594 471.695312 "/>
<path style="fill-rule:nonzero;fill:rgb(67%,100%,18%);fill-opacity:1;stroke-width:1;stroke-linecap:butt;stroke-linejoin:round;stroke:rgb(0%,0%,0%);stroke-opacity:1;stroke-miterlimit:10;" d="M 380.039062 452.402344 L 360.039062 452.402344 L 360.039062 462.402344 L 380.039062 462.402344 L 380.039062 482.402344 L 390.039062 482.402344 L 390.039062 462.402344 L 410.039062 462.402344 L 410.039062 452.402344 L 390.039062 452.402344 L 390.039062 432.402344 L 380.039062 432.402344 L 380.039062 452.402344 "/>
<path style="fill-rule:nonzero;fill:rgb(67%,100%,18%);fill-opacity:1;stroke-width:1;stroke-linecap:butt;stroke-linejoin:round;stroke:rgb(0%,0%,0%);stroke-opacity:1;stroke-miterlimit:10;" d="M 293.839844 461.769531 L 273.839844 461.769531 L 273.839844 471.769531 L 293.839844 471.769531 L 293.839844 491.769531 L 303.839844 491.769531 L 303.839844 471.769531 L 323.839844 471.769531 L 323.839844 461.769531 L 303.839844 461.769531 L 303.839844 441.769531 L 293.839844 441.769531 L 293.839844 461.769531 "/>
<path style="fill-rule:nonzero;fill:rgb(67%,100%,18%);fill-opacity:1;stroke-width:1;stroke-linecap:butt;stroke-linejoin:round;stroke:rgb(0%,0%,0%);stroke-opacity:1;stroke-miterlimit:10;" d="M 123.378906 173.507812 L 103.378906 173.507812 L 103.378906 183.507812 L 123.378906 183.507812 L 123.378906 203.507812 L 133.378906 203.507812 L 133.378906 183.507812 L 153.378906 183.507812 L 153.378906 173.507812 L 133.378906 173.507812 L 133.378906 153.507812 L 123.378906 153.507812 L 123.378906 173.507812 "/>
</g>
</svg>
