<?xml version="1.0" encoding="UTF-8"?>
<svg xmlns="http://www.w3.org/2000/svg" xmlns:xlink="http://www.w3.org/1999/xlink" width="517pt" height="517pt" viewBox="0 0 517 517" version="1.1">
<g id="surface4616">
<rect x="0" y="0" width="517" height="517" style="fill:rgb(90%,90%,90%);fill-opacity:1;stroke:none;"/>
<path style="fill:none;stroke-width:5;stroke-linecap:butt;stroke-linejoin:round;stroke:rgb(100%,0%,0%);stroke-opacity:1;stroke-miterlimit:10;" d="M 5 261 L 261 261 L 261 517 L 5 517 Z M 5 261 "/>
<path style="fill-rule:nonzero;fill:rgb(53%,27%,7%);fill-opacity:1;stroke-width:1;stroke-linecap:butt;stroke-linejoin:round;stroke:rgb(0%,0%,0%);stroke-opacity:1;stroke-miterlimit:10;" d="M 216.597656 297.949219 C 216.597656 283.550781 192.597656 283.550781 192.597656 297.949219 C 192.597656 312.351562 216.597656 314.75 216.597656 326.75 C 216.597656 314.75 240.597656 312.351562 240.597656 297.949219 C 240.597656 283.550781 216.597656 283.550781 216.597656 297.949219 "/>
<path style="fill-rule:nonzero;fill:rgb(100%,100%,0%);fill-opacity:1;stroke-width:1;stroke-linecap:butt;stroke-linejoin:round;stroke:rgb(0%,0%,0%);stroke-opacity:1;stroke-miterlimit:10;" d="M 330.265625 350.585938 C 330.265625 336.1875 306.265625 336.1875 306.265625 350.585938 C 306.265625 364.984375 330.265625 367.386719 330.265625 379.386719 C 330.265625 367.386719 354.265625 364.984375 354.265625 350.585938 C 354.265625 336.1875 330.265625 336.1875 330.265625 350.585938 "/>
<path style="fill-rule:nonzero;fill:rgb(53%,27%,7%);fill-opacity:1;stroke-width:1;stroke-linecap:butt;stroke-linejoin:round;stroke:rgb(0%,0%,0%);stroke-opacity:1;stroke-miterlimit:10;" d="M 389.824219 425.15625 C 389.824219 410.757812 365.824219 410.757812 365.824219 425.15625 C 365.824219 439.558594 389.824219 441.957031 389.824219 453.957031 C 389.824219 441.957031 413.824219 439.558594 413.824219 425.15625 C 413.824219 410.757812 389.824219 410.757812 389.824219 425.15625 "/>
<path style="fill-rule:nonzero;fill:rgb(53%,27%,7%);fill-opacity:1;stroke-width:1;stroke-linecap:butt;stroke-linejoin:round;stroke:rgb(0%,0%,0%);stroke-opacity:1;stroke-miterlimit:10;" d="M 386.625 71.808594 C 386.625 57.410156 362.625 57.410156 362.625 71.808594 C 362.625 86.210938 386.625 88.609375 386.625 100.609375 C 386.625 88.609375 410.625 86.210938 410.625 71.808594 C 410.625 57.410156 386.625 57.410156 386.625 71.808594 "/>
<path style="fill-rule:nonzero;fill:rgb(53%,27%,7%);fill-opacity:1;stroke-width:1;stroke-linecap:butt;stroke-linejoin:round;stroke:rgb(0%,0%,0%);stroke-opacity:1;stroke-miterlimit:10;" d="M 428.066406 151.671875 C 428.066406 137.273438 404.066406 137.273438 404.066406 151.671875 C 404.066406 166.070312 428.066406 168.472656 428.066406 180.472656 C 428.066406 168.472656 452.066406 166.070312 452.066406 151.671875 C 452.066406 137.273438 428.066406 137.273438 428.066406 151.671875 "/>
<path style="fill-rule:nonzero;fill:rgb(53%,27%,7%);fill-opacity:1;stroke-width:1;stroke-linecap:butt;stroke-linejoin:round;stroke:rgb(0%,0%,0%);stroke-opacity:1;stroke-miterlimit:10;" d="M 39.988281 36.101562 C 39.988281 21.699219 15.988281 21.699219 15.988281 36.101562 C 15.988281 50.5 39.988281 52.898438 39.988281 64.898438 C 39.988281 52.898438 63.988281 50.5 63.988281 36.101562 C 63.988281 21.699219 39.988281 21.699219 39.988281 36.101562 "/>
</g>
</svg>
