<?xml version="1.0" encoding="UTF-8"?>
<svg xmlns="http://www.w3.org/2000/svg" xmlns:xlink="http://www.w3.org/1999/xlink" width="517pt" height="517pt" viewBox="0 0 517 517" version="1.1">
<g id="surface4626">
<rect x="0" y="0" width="517" height="517" style="fill:rgb(90%,90%,90%);fill-opacity:1;stroke:none;"/>
<path style="fill:none;stroke-width:5;stroke-linecap:butt;stroke-linejoin:round;stroke:rgb(100%,0%,0%);stroke-opacity:1;stroke-miterlimit:10;" d="M 5 261 L 261 261 L 261 517 L 5 517 Z M 5 261 "/>
<path style="fill-rule:nonzero;fill:rgb(100%,0%,0%);fill-opacity:1;stroke-width:1;stroke-linecap:butt;stroke-linejoin:round;stroke:rgb(0%,0%,0%);stroke-opacity:1;stroke-miterlimit:10;" d="M 166.011719 375.941406 C 166.011719 361.542969 142.011719 361.542969 142.011719 375.941406 C 142.011719 390.34375 166.011719 392.742188 166.011719 404.742188 C 166.011719 392.742188 190.011719 390.34375 190.011719 375.941406 C 190.011719 361.542969 166.011719 361.542969 166.011719 375.941406 "/>
<path style="fill-rule:nonzero;fill:rgb(100%,100%,0%);fill-opacity:1;stroke-width:1;stroke-linecap:butt;stroke-linejoin:round;stroke:rgb(0%,0%,0%);stroke-opacity:1;stroke-miterlimit:10;" d="M 359.972656 356.148438 C 359.972656 341.746094 335.972656 341.746094 335.972656 356.148438 C 335.972656 370.546875 359.972656 372.949219 359.972656 384.949219 C 359.972656 372.949219 383.972656 370.546875 383.972656 356.148438 C 383.972656 341.746094 359.972656 341.746094 359.972656 356.148438 "/>
<path style="fill-rule:nonzero;fill:rgb(100%,100%,0%);fill-opacity:1;stroke-width:1;stroke-linecap:butt;stroke-linejoin:round;stroke:rgb(0%,0%,0%);stroke-opacity:1;stroke-miterlimit:10;" d="M 472.460938 451.226562 C 472.460938 436.824219 448.460938 436.824219 448.460938 451.226562 C 448.460938 465.625 472.460938 468.027344 472.460938 480.027344 C 472.460938 468.027344 496.460938 465.625 496.460938 451.226562 C 496.460938 436.824219 472.460938 436.824219 472.460938 451.226562 "/>
<path style="fill-rule:nonzero;fill:rgb(100%,100%,0%);fill-opacity:1;stroke-width:1;stroke-linecap:butt;stroke-linejoin:round;stroke:rgb(0%,0%,0%);stroke-opacity:1;stroke-miterlimit:10;" d="M 185.257812 203.734375 C 185.257812 189.335938 161.257812 189.335938 161.257812 203.734375 C 161.257812 218.136719 185.257812 220.535156 185.257812 232.535156 C 185.257812 220.535156 209.257812 218.136719 209.257812 203.734375 C 209.257812 189.335938 185.257812 189.335938 185.257812 203.734375 "/>
<path style="fill-rule:nonzero;fill:rgb(100%,100%,0%);fill-opacity:1;stroke-width:1;stroke-linecap:butt;stroke-linejoin:round;stroke:rgb(0%,0%,0%);stroke-opacity:1;stroke-miterlimit:10;" d="M 97.511719 129.632812 C 97.511719 115.234375 73.511719 115.234375 73.511719 129.632812 C 73.511719 144.035156 97.511719 146.433594 97.511719 158.433594 C 97.511719 146.433594 121.511719 144.035156 121.511719 129.632812 C 121.511719 115.234375 97.511719 115.234375 97.511719 129.632812 "/>
<path style="fill-rule:nonzero;fill:rgb(100%,100%,0%);fill-opacity:1;stroke-width:1;stroke-linecap:butt;stroke-linejoin:round;stroke:rgb(0%,0%,0%);stroke-opacity:1;stroke-miterlimit:10;" d="M 207.503906 28.8125 C 207.503906 14.414062 183.503906 14.414062 183.503906 28.8125 C 183.503906 43.210938 207.503906 45.613281 207.503906 57.613281 C 207.503906 45.613281 231.503906 43.210938 231.503906 28.8125 C 231.503906 14.414062 207.503906 14.414062 207.503906 28.8125 "/>
</g>
</svg>
