<?xml version="1.0" encoding="UTF-8"?>
<svg xmlns="http://www.w3.org/2000/svg" xmlns:xlink="http://www.w3.org/1999/xlink" width="517pt" height="517pt" viewBox="0 0 517 517" version="1.1">
<g id="surface9196">
<rect x="0" y="0" width="517" height="517" style="fill:rgb(90%,90%,90%);fill-opacity:1;stroke:none;"/>
<path style="fill:none;stroke-width:5;stroke-linecap:butt;stroke-linejoin:round;stroke:rgb(100%,0%,0%);stroke-opacity:1;stroke-miterlimit:10;" d="M 261 5 L 517 5 L 517 261 L 261 261 Z M 261 5 "/>
<path style="fill-rule:nonzero;fill:rgb(100%,100%,0%);fill-opacity:1;stroke-width:1;stroke-linecap:butt;stroke-linejoin:round;stroke:rgb(0%,0%,0%);stroke-opacity:1;stroke-miterlimit:10;" d="M 316.332031 92.929688 L 296.332031 92.929688 L 296.332031 102.929688 L 316.332031 102.929688 L 316.332031 122.929688 L 326.332031 122.929688 L 326.332031 102.929688 L 346.332031 102.929688 L 346.332031 92.929688 L 326.332031 92.929688 L 326.332031 72.929688 L 316.332031 72.929688 L 316.332031 92.929688 "/>
<path style="fill-rule:nonzero;fill:rgb(100%,100%,0%);fill-opacity:1;stroke-width:1;stroke-linecap:butt;stroke-linejoin:round;stroke:rgb(0%,0%,0%);stroke-opacity:1;stroke-miterlimit:10;" d="M 115.589844 199.53125 L 95.589844 199.53125 L 95.589844 209.53125 L 115.589844 209.53125 L 115.589844 229.53125 L 125.589844 229.53125 L 125.589844 209.53125 L 145.589844 209.53125 L 145.589844 199.53125 L 125.589844 199.53125 L 125.589844 179.53125 L 115.589844 179.53125 L 115.589844 199.53125 "/>
<path style="fill-rule:nonzero;fill:rgb(100%,100%,0%);fill-opacity:1;stroke-width:1;stroke-linecap:butt;stroke-linejoin:round;stroke:rgb(0%,0%,0%);stroke-opacity:1;stroke-miterlimit:10;" d="M 174.277344 85.652344 L 154.277344 85.652344 L 154.277344 95.652344 L 174.277344 95.652344 L 174.277344 115.652344 L 184.277344 115.652344 L 184.277344 95.652344 L 204.277344 95.652344 L 204.277344 85.652344 L 184.277344 85.652344 L 184.277344 65.652344 L 174.277344 65.652344 L 174.277344 85.652344 "/>
<path style="fill-rule:nonzero;fill:rgb(100%,100%,0%);fill-opacity:1;stroke-width:1;stroke-linecap:butt;stroke-linejoin:round;stroke:rgb(0%,0%,0%);stroke-opacity:1;stroke-miterlimit:10;" d="M 458 421.039062 L 438 421.039062 L 438 431.039062 L 458 431.039062 L 458 451.039062 L 468 451.039062 L 468 431.039062 L 488 431.039062 L 488 421.039062 L 468 421.039062 L 468 401.039062 L 458 401.039062 L 458 421.039062 "/>
<path style="fill-rule:nonzero;fill:rgb(100%,100%,0%);fill-opacity:1;stroke-width:1;stroke-linecap:butt;stroke-linejoin:round;stroke:rgb(0%,0%,0%);stroke-opacity:1;stroke-miterlimit:10;" d="M 308.382812 455.21875 L 288.382812 455.21875 L 288.382812 465.21875 L 308.382812 465.21875 L 308.382812 485.21875 L 318.382812 485.21875 L 318.382812 465.21875 L 338.382812 465.21875 L 338.382812 455.21875 L 318.382812 455.21875 L 318.382812 435.21875 L 308.382812 435.21875 L 308.382812 455.21875 "/>
<path style="fill-rule:nonzero;fill:rgb(100%,100%,0%);fill-opacity:1;stroke-width:1;stroke-linecap:butt;stroke-linejoin:round;stroke:rgb(0%,0%,0%);stroke-opacity:1;stroke-miterlimit:10;" d="M 382.476562 309.378906 L 362.476562 309.378906 L 362.476562 319.378906 L 382.476562 319.378906 L 382.476562 339.378906 L 392.476562 339.378906 L 392.476562 319.378906 L 412.476562 319.378906 L 412.476562 309.378906 L 392.476562 309.378906 L 392.476562 289.378906 L 382.476562 289.378906 L 382.476562 309.378906 "/>
</g>
</svg>
