<?xml version="1.0" encoding="UTF-8"?>
<svg xmlns="http://www.w3.org/2000/svg" xmlns:xlink="http://www.w3.org/1999/xlink" width="517pt" height="517pt" viewBox="0 0 517 517" version="1.1">
<g id="surface4161">
<rect x="0" y="0" width="517" height="517" style="fill:rgb(90%,90%,90%);fill-opacity:1;stroke:none;"/>
<path style="fill:none;stroke-width:5;stroke-linecap:butt;stroke-linejoin:round;stroke:rgb(100%,0%,0%);stroke-opacity:1;stroke-miterlimit:10;" d="M 261 5 L 517 5 L 517 261 L 261 261 Z M 261 5 "/>
<path style="fill-rule:nonzero;fill:rgb(35%,70%,90%);fill-opacity:1;stroke-width:1;stroke-linecap:butt;stroke-linejoin:round;stroke:rgb(0%,0%,0%);stroke-opacity:1;stroke-miterlimit:10;" d="M 505.011719 131.308594 C 505.011719 147.875 491.582031 161.308594 475.011719 161.308594 C 458.445312 161.308594 445.011719 147.875 445.011719 131.308594 C 445.011719 114.738281 458.445312 101.308594 475.011719 101.308594 C 491.582031 101.308594 505.011719 114.738281 505.011719 131.308594 "/>
<path style="fill-rule:nonzero;fill:rgb(100%,0%,0%);fill-opacity:1;stroke-width:1;stroke-linecap:butt;stroke-linejoin:round;stroke:rgb(0%,0%,0%);stroke-opacity:1;stroke-miterlimit:10;" d="M 340.195312 397.421875 C 340.195312 413.992188 326.761719 427.421875 310.195312 427.421875 C 293.625 427.421875 280.195312 413.992188 280.195312 397.421875 C 280.195312 380.851562 293.625 367.421875 310.195312 367.421875 C 326.761719 367.421875 340.195312 380.851562 340.195312 397.421875 "/>
<path style="fill-rule:nonzero;fill:rgb(100%,0%,0%);fill-opacity:1;stroke-width:1;stroke-linecap:butt;stroke-linejoin:round;stroke:rgb(0%,0%,0%);stroke-opacity:1;stroke-miterlimit:10;" d="M 154.832031 179.023438 C 154.832031 195.589844 141.402344 209.023438 124.832031 209.023438 C 108.265625 209.023438 94.832031 195.589844 94.832031 179.023438 C 94.832031 162.453125 108.265625 149.023438 124.832031 149.023438 C 141.402344 149.023438 154.832031 162.453125 154.832031 179.023438 "/>
<path style="fill-rule:nonzero;fill:rgb(100%,0%,0%);fill-opacity:1;stroke-width:1;stroke-linecap:butt;stroke-linejoin:round;stroke:rgb(0%,0%,0%);stroke-opacity:1;stroke-miterlimit:10;" d="M 168.675781 97.585938 C 168.675781 114.152344 155.242188 127.585938 138.675781 127.585938 C 122.105469 127.585938 108.675781 114.152344 108.675781 97.585938 C 108.675781 81.015625 122.105469 67.585938 138.675781 67.585938 C 155.242188 67.585938 168.675781 81.015625 168.675781 97.585938 "/>
<path style="fill-rule:nonzero;fill:rgb(100%,0%,0%);fill-opacity:1;stroke-width:1;stroke-linecap:butt;stroke-linejoin:round;stroke:rgb(0%,0%,0%);stroke-opacity:1;stroke-miterlimit:10;" d="M 247.925781 86.363281 C 247.925781 102.929688 234.496094 116.363281 217.925781 116.363281 C 201.355469 116.363281 187.925781 102.929688 187.925781 86.363281 C 187.925781 69.792969 201.355469 56.363281 217.925781 56.363281 C 234.496094 56.363281 247.925781 69.792969 247.925781 86.363281 "/>
<path style="fill-rule:nonzero;fill:rgb(100%,0%,0%);fill-opacity:1;stroke-width:1;stroke-linecap:butt;stroke-linejoin:round;stroke:rgb(0%,0%,0%);stroke-opacity:1;stroke-miterlimit:10;" d="M 68.21875 99.867188 C 68.21875 116.433594 54.785156 129.867188 38.21875 129.867188 C 21.648438 129.867188 8.21875 116.433594 8.21875 99.867188 C 8.21875 83.296875 21.648438 69.867188 38.21875 69.867188 C 54.785156 69.867188 68.21875 83.296875 68.21875 99.867188 "/>
</g>
</svg>
