<?xml version="1.0" encoding="UTF-8"?>
<svg xmlns="http://www.w3.org/2000/svg" xmlns:xlink="http://www.w3.org/1999/xlink" width="517pt" height="517pt" viewBox="0 0 517 517" version="1.1">
<g id="surface346">
<rect x="0" y="0" width="517" height="517" style="fill:rgb(90%,90%,90%);fill-opacity:1;stroke:none;"/>
<path style="fill:none;stroke-width:5;stroke-linecap:butt;stroke-linejoin:round;stroke:rgb(100%,0%,0%);stroke-opacity:1;stroke-miterlimit:10;" d="M 5 5 L 261 5 L 261 261 L 5 261 Z M 5 5 "/>
<path style="fill-rule:nonzero;fill:rgb(0%,0%,0%);fill-opacity:1;stroke-width:1;stroke-linecap:butt;stroke-linejoin:round;stroke:rgb(0%,0%,0%);stroke-opacity:1;stroke-miterlimit:10;" d="M 116.347656 116.886719 L 96.347656 116.886719 L 96.347656 126.886719 L 116.347656 126.886719 L 116.347656 146.886719 L 126.347656 146.886719 L 126.347656 126.886719 L 146.347656 126.886719 L 146.347656 116.886719 L 126.347656 116.886719 L 126.347656 96.886719 L 116.347656 96.886719 L 116.347656 116.886719 "/>
<path style="fill-rule:nonzero;fill:rgb(100%,100%,0%);fill-opacity:1;stroke-width:1;stroke-linecap:butt;stroke-linejoin:round;stroke:rgb(0%,0%,0%);stroke-opacity:1;stroke-miterlimit:10;" d="M 408.300781 158.046875 L 388.300781 158.046875 L 388.300781 168.046875 L 408.300781 168.046875 L 408.300781 188.046875 L 418.300781 188.046875 L 418.300781 168.046875 L 438.300781 168.046875 L 438.300781 158.046875 L 418.300781 158.046875 L 418.300781 138.046875 L 408.300781 138.046875 L 408.300781 158.046875 "/>
<path style="fill-rule:nonzero;fill:rgb(100%,100%,0%);fill-opacity:1;stroke-width:1;stroke-linecap:butt;stroke-linejoin:round;stroke:rgb(0%,0%,0%);stroke-opacity:1;stroke-miterlimit:10;" d="M 344.546875 140.917969 L 324.546875 140.917969 L 324.546875 150.917969 L 344.546875 150.917969 L 344.546875 170.917969 L 354.546875 170.917969 L 354.546875 150.917969 L 374.546875 150.917969 L 374.546875 140.917969 L 354.546875 140.917969 L 354.546875 120.917969 L 344.546875 120.917969 L 344.546875 140.917969 "/>
<path style="fill-rule:nonzero;fill:rgb(0%,0%,0%);fill-opacity:1;stroke-width:1;stroke-linecap:butt;stroke-linejoin:round;stroke:rgb(0%,0%,0%);stroke-opacity:1;stroke-miterlimit:10;" d="M 374.804688 377.632812 L 354.804688 377.632812 L 354.804688 387.632812 L 374.804688 387.632812 L 374.804688 407.632812 L 384.804688 407.632812 L 384.804688 387.632812 L 404.804688 387.632812 L 404.804688 377.632812 L 384.804688 377.632812 L 384.804688 357.632812 L 374.804688 357.632812 L 374.804688 377.632812 "/>
</g>
</svg>
