<?xml version="1.0" encoding="UTF-8"?>
<svg xmlns="http://www.w3.org/2000/svg" xmlns:xlink="http://www.w3.org/1999/xlink" width="517pt" height="517pt" viewBox="0 0 517 517" version="1.1">
<g id="surface4601">
<rect x="0" y="0" width="517" height="517" style="fill:rgb(90%,90%,90%);fill-opacity:1;stroke:none;"/>
<path style="fill:none;stroke-width:5;stroke-linecap:butt;stroke-linejoin:round;stroke:rgb(100%,0%,0%);stroke-opacity:1;stroke-miterlimit:10;" d="M 5 261 L 261 261 L 261 517 L 5 517 Z M 5 261 "/>
<path style="fill-rule:nonzero;fill:rgb(53%,27%,7%);fill-opacity:1;stroke-width:1;stroke-linecap:butt;stroke-linejoin:round;stroke:rgb(0%,0%,0%);stroke-opacity:1;stroke-miterlimit:10;" d="M 60.261719 431.230469 C 60.261719 416.832031 36.261719 416.832031 36.261719 431.230469 C 36.261719 445.632812 60.261719 448.03125 60.261719 460.03125 C 60.261719 448.03125 84.261719 445.632812 84.261719 431.230469 C 84.261719 416.832031 60.261719 416.832031 60.261719 431.230469 "/>
<path style="fill-rule:nonzero;fill:rgb(100%,100%,0%);fill-opacity:1;stroke-width:1;stroke-linecap:butt;stroke-linejoin:round;stroke:rgb(0%,0%,0%);stroke-opacity:1;stroke-miterlimit:10;" d="M 50.34375 23.488281 C 50.34375 9.089844 26.34375 9.089844 26.34375 23.488281 C 26.34375 37.886719 50.34375 40.289062 50.34375 52.289062 C 50.34375 40.289062 74.34375 37.886719 74.34375 23.488281 C 74.34375 9.089844 50.34375 9.089844 50.34375 23.488281 "/>
<path style="fill-rule:nonzero;fill:rgb(53%,27%,7%);fill-opacity:1;stroke-width:1;stroke-linecap:butt;stroke-linejoin:round;stroke:rgb(0%,0%,0%);stroke-opacity:1;stroke-miterlimit:10;" d="M 93.429688 198.164062 C 93.429688 183.761719 69.429688 183.761719 69.429688 198.164062 C 69.429688 212.5625 93.429688 214.964844 93.429688 226.964844 C 93.429688 214.964844 117.429688 212.5625 117.429688 198.164062 C 117.429688 183.761719 93.429688 183.761719 93.429688 198.164062 "/>
<path style="fill-rule:nonzero;fill:rgb(53%,27%,7%);fill-opacity:1;stroke-width:1;stroke-linecap:butt;stroke-linejoin:round;stroke:rgb(0%,0%,0%);stroke-opacity:1;stroke-miterlimit:10;" d="M 452.339844 186.304688 C 452.339844 171.90625 428.339844 171.90625 428.339844 186.304688 C 428.339844 200.707031 452.339844 203.105469 452.339844 215.105469 C 452.339844 203.105469 476.339844 200.707031 476.339844 186.304688 C 476.339844 171.90625 452.339844 171.90625 452.339844 186.304688 "/>
<path style="fill-rule:nonzero;fill:rgb(53%,27%,7%);fill-opacity:1;stroke-width:1;stroke-linecap:butt;stroke-linejoin:round;stroke:rgb(0%,0%,0%);stroke-opacity:1;stroke-miterlimit:10;" d="M 346.441406 56.828125 C 346.441406 42.429688 322.441406 42.429688 322.441406 56.828125 C 322.441406 71.226562 346.441406 73.628906 346.441406 85.628906 C 346.441406 73.628906 370.441406 71.226562 370.441406 56.828125 C 370.441406 42.429688 346.441406 42.429688 346.441406 56.828125 "/>
<path style="fill-rule:nonzero;fill:rgb(53%,27%,7%);fill-opacity:1;stroke-width:1;stroke-linecap:butt;stroke-linejoin:round;stroke:rgb(0%,0%,0%);stroke-opacity:1;stroke-miterlimit:10;" d="M 444.1875 335.445312 C 444.1875 321.042969 420.1875 321.042969 420.1875 335.445312 C 420.1875 349.84375 444.1875 352.242188 444.1875 364.242188 C 444.1875 352.242188 468.1875 349.84375 468.1875 335.445312 C 468.1875 321.042969 444.1875 321.042969 444.1875 335.445312 "/>
</g>
</svg>
