<?xml version="1.0" encoding="UTF-8"?>
<svg xmlns="http://www.w3.org/2000/svg" xmlns:xlink="http://www.w3.org/1999/xlink" width="517pt" height="517pt" viewBox="0 0 517 517" version="1.1">
<g id="surface9416">
<rect x="0" y="0" width="517" height="517" style="fill:rgb(90%,90%,90%);fill-opacity:1;stroke:none;"/>
<path style="fill:none;stroke-width:5;stroke-linecap:butt;stroke-linejoin:round;stroke:rgb(100%,0%,0%);stroke-opacity:1;stroke-miterlimit:10;" d="M 5 261 L 261 261 L 261 517 L 5 517 Z M 5 261 "/>
<path style="fill-rule:nonzero;fill:rgb(0%,0%,0%);fill-opacity:1;stroke-width:1;stroke-linecap:butt;stroke-linejoin:round;stroke:rgb(0%,0%,0%);stroke-opacity:1;stroke-miterlimit:10;" d="M 74.441406 456.558594 L 54.441406 456.558594 L 54.441406 466.558594 L 74.441406 466.558594 L 74.441406 486.558594 L 84.441406 486.558594 L 84.441406 466.558594 L 104.441406 466.558594 L 104.441406 456.558594 L 84.441406 456.558594 L 84.441406 436.558594 L 74.441406 436.558594 L 74.441406 456.558594 "/>
<path style="fill-rule:nonzero;fill:rgb(100%,100%,0%);fill-opacity:1;stroke-width:1;stroke-linecap:butt;stroke-linejoin:round;stroke:rgb(0%,0%,0%);stroke-opacity:1;stroke-miterlimit:10;" d="M 45 150.042969 L 25 150.042969 L 25 160.042969 L 45 160.042969 L 45 180.042969 L 55 180.042969 L 55 160.042969 L 75 160.042969 L 75 150.042969 L 55 150.042969 L 55 130.042969 L 45 130.042969 L 45 150.042969 "/>
<path style="fill-rule:nonzero;fill:rgb(100%,100%,0%);fill-opacity:1;stroke-width:1;stroke-linecap:butt;stroke-linejoin:round;stroke:rgb(0%,0%,0%);stroke-opacity:1;stroke-miterlimit:10;" d="M 187.0625 206.015625 L 167.0625 206.015625 L 167.0625 216.015625 L 187.0625 216.015625 L 187.0625 236.015625 L 197.0625 236.015625 L 197.0625 216.015625 L 217.0625 216.015625 L 217.0625 206.015625 L 197.0625 206.015625 L 197.0625 186.015625 L 187.0625 186.015625 L 187.0625 206.015625 "/>
<path style="fill-rule:nonzero;fill:rgb(100%,100%,0%);fill-opacity:1;stroke-width:1;stroke-linecap:butt;stroke-linejoin:round;stroke:rgb(0%,0%,0%);stroke-opacity:1;stroke-miterlimit:10;" d="M 389.058594 381.003906 L 369.058594 381.003906 L 369.058594 391.003906 L 389.058594 391.003906 L 389.058594 411.003906 L 399.058594 411.003906 L 399.058594 391.003906 L 419.058594 391.003906 L 419.058594 381.003906 L 399.058594 381.003906 L 399.058594 361.003906 L 389.058594 361.003906 L 389.058594 381.003906 "/>
<path style="fill-rule:nonzero;fill:rgb(100%,100%,0%);fill-opacity:1;stroke-width:1;stroke-linecap:butt;stroke-linejoin:round;stroke:rgb(0%,0%,0%);stroke-opacity:1;stroke-miterlimit:10;" d="M 426.757812 293.417969 L 406.757812 293.417969 L 406.757812 303.417969 L 426.757812 303.417969 L 426.757812 323.417969 L 436.757812 323.417969 L 436.757812 303.417969 L 456.757812 303.417969 L 456.757812 293.417969 L 436.757812 293.417969 L 436.757812 273.417969 L 426.757812 273.417969 L 426.757812 293.417969 "/>
</g>
</svg>
