<?xml version="1.0" encoding="UTF-8"?>
<svg xmlns="http://www.w3.org/2000/svg" xmlns:xlink="http://www.w3.org/1999/xlink" width="517pt" height="517pt" viewBox="0 0 517 517" version="1.1">
<g id="surface4206">
<rect x="0" y="0" width="517" height="517" style="fill:rgb(90%,90%,90%);fill-opacity:1;stroke:none;"/>
<path style="fill:none;stroke-width:5;stroke-linecap:butt;stroke-linejoin:round;stroke:rgb(100%,0%,0%);stroke-opacity:1;stroke-miterlimit:10;" d="M 261 5 L 517 5 L 517 261 L 261 261 Z M 261 5 "/>
<path style="fill-rule:nonzero;fill:rgb(35%,70%,90%);fill-opacity:1;stroke-width:1;stroke-linecap:butt;stroke-linejoin:round;stroke:rgb(0%,0%,0%);stroke-opacity:1;stroke-miterlimit:10;" d="M 446.863281 182.242188 C 446.863281 198.8125 433.429688 212.242188 416.863281 212.242188 C 400.292969 212.242188 386.863281 198.8125 386.863281 182.242188 C 386.863281 165.671875 400.292969 152.242188 416.863281 152.242188 C 433.429688 152.242188 446.863281 165.671875 446.863281 182.242188 "/>
<path style="fill-rule:nonzero;fill:rgb(100%,0%,0%);fill-opacity:1;stroke-width:1;stroke-linecap:butt;stroke-linejoin:round;stroke:rgb(0%,0%,0%);stroke-opacity:1;stroke-miterlimit:10;" d="M 73.433594 87.660156 C 73.433594 104.230469 60 117.660156 43.433594 117.660156 C 26.863281 117.660156 13.433594 104.230469 13.433594 87.660156 C 13.433594 71.09375 26.863281 57.660156 43.433594 57.660156 C 60 57.660156 73.433594 71.09375 73.433594 87.660156 "/>
<path style="fill-rule:nonzero;fill:rgb(35%,70%,90%);fill-opacity:1;stroke-width:1;stroke-linecap:butt;stroke-linejoin:round;stroke:rgb(0%,0%,0%);stroke-opacity:1;stroke-miterlimit:10;" d="M 465.757812 398.113281 C 465.757812 414.683594 452.328125 428.113281 435.757812 428.113281 C 419.191406 428.113281 405.757812 414.683594 405.757812 398.113281 C 405.757812 381.542969 419.191406 368.113281 435.757812 368.113281 C 452.328125 368.113281 465.757812 381.542969 465.757812 398.113281 "/>
<path style="fill-rule:nonzero;fill:rgb(35%,70%,90%);fill-opacity:1;stroke-width:1;stroke-linecap:butt;stroke-linejoin:round;stroke:rgb(0%,0%,0%);stroke-opacity:1;stroke-miterlimit:10;" d="M 366.378906 473.703125 C 366.378906 490.269531 352.945312 503.703125 336.378906 503.703125 C 319.808594 503.703125 306.378906 490.269531 306.378906 473.703125 C 306.378906 457.132812 319.808594 443.703125 336.378906 443.703125 C 352.945312 443.703125 366.378906 457.132812 366.378906 473.703125 "/>
<path style="fill-rule:nonzero;fill:rgb(35%,70%,90%);fill-opacity:1;stroke-width:1;stroke-linecap:butt;stroke-linejoin:round;stroke:rgb(0%,0%,0%);stroke-opacity:1;stroke-miterlimit:10;" d="M 334.875 350.765625 C 334.875 367.335938 321.441406 380.765625 304.875 380.765625 C 288.304688 380.765625 274.875 367.335938 274.875 350.765625 C 274.875 334.199219 288.304688 320.765625 304.875 320.765625 C 321.441406 320.765625 334.875 334.199219 334.875 350.765625 "/>
<path style="fill-rule:nonzero;fill:rgb(35%,70%,90%);fill-opacity:1;stroke-width:1;stroke-linecap:butt;stroke-linejoin:round;stroke:rgb(0%,0%,0%);stroke-opacity:1;stroke-miterlimit:10;" d="M 431.65625 459.605469 C 431.65625 476.171875 418.226562 489.605469 401.65625 489.605469 C 385.089844 489.605469 371.65625 476.171875 371.65625 459.605469 C 371.65625 443.035156 385.089844 429.605469 401.65625 429.605469 C 418.226562 429.605469 431.65625 443.035156 431.65625 459.605469 "/>
</g>
</svg>
