<?xml version="1.0" encoding="UTF-8"?>
<svg xmlns="http://www.w3.org/2000/svg" xmlns:xlink="http://www.w3.org/1999/xlink" width="517pt" height="517pt" viewBox="0 0 517 517" version="1.1">
<g id="surface9466">
<rect x="0" y="0" width="517" height="517" style="fill:rgb(90%,90%,90%);fill-opacity:1;stroke:none;"/>
<path style="fill:none;stroke-width:5;stroke-linecap:butt;stroke-linejoin:round;stroke:rgb(100%,0%,0%);stroke-opacity:1;stroke-miterlimit:10;" d="M 261 5 L 517 5 L 517 261 L 261 261 Z M 261 5 "/>
<path style="fill-rule:nonzero;fill:rgb(100%,100%,0%);fill-opacity:1;stroke-width:1;stroke-linecap:butt;stroke-linejoin:round;stroke:rgb(0%,0%,0%);stroke-opacity:1;stroke-miterlimit:10;" d="M 373.359375 38.109375 L 353.359375 38.109375 L 353.359375 48.109375 L 373.359375 48.109375 L 373.359375 68.109375 L 383.359375 68.109375 L 383.359375 48.109375 L 403.359375 48.109375 L 403.359375 38.109375 L 383.359375 38.109375 L 383.359375 18.109375 L 373.359375 18.109375 L 373.359375 38.109375 "/>
<path style="fill-rule:nonzero;fill:rgb(67%,100%,18%);fill-opacity:1;stroke-width:1;stroke-linecap:butt;stroke-linejoin:round;stroke:rgb(0%,0%,0%);stroke-opacity:1;stroke-miterlimit:10;" d="M 99.316406 51.1875 L 79.316406 51.1875 L 79.316406 61.1875 L 99.316406 61.1875 L 99.316406 81.1875 L 109.316406 81.1875 L 109.316406 61.1875 L 129.316406 61.1875 L 129.316406 51.1875 L 109.316406 51.1875 L 109.316406 31.1875 L 99.316406 31.1875 L 99.316406 51.1875 "/>
<path style="fill-rule:nonzero;fill:rgb(67%,100%,18%);fill-opacity:1;stroke-width:1;stroke-linecap:butt;stroke-linejoin:round;stroke:rgb(0%,0%,0%);stroke-opacity:1;stroke-miterlimit:10;" d="M 155.328125 355.722656 L 135.328125 355.722656 L 135.328125 365.722656 L 155.328125 365.722656 L 155.328125 385.722656 L 165.328125 385.722656 L 165.328125 365.722656 L 185.328125 365.722656 L 185.328125 355.722656 L 165.328125 355.722656 L 165.328125 335.722656 L 155.328125 335.722656 L 155.328125 355.722656 "/>
<path style="fill-rule:nonzero;fill:rgb(67%,100%,18%);fill-opacity:1;stroke-width:1;stroke-linecap:butt;stroke-linejoin:round;stroke:rgb(0%,0%,0%);stroke-opacity:1;stroke-miterlimit:10;" d="M 215.136719 444.050781 L 195.136719 444.050781 L 195.136719 454.050781 L 215.136719 454.050781 L 215.136719 474.050781 L 225.136719 474.050781 L 225.136719 454.050781 L 245.136719 454.050781 L 245.136719 444.050781 L 225.136719 444.050781 L 225.136719 424.050781 L 215.136719 424.050781 L 215.136719 444.050781 "/>
<path style="fill-rule:nonzero;fill:rgb(67%,100%,18%);fill-opacity:1;stroke-width:1;stroke-linecap:butt;stroke-linejoin:round;stroke:rgb(0%,0%,0%);stroke-opacity:1;stroke-miterlimit:10;" d="M 320.363281 301.253906 L 300.363281 301.253906 L 300.363281 311.253906 L 320.363281 311.253906 L 320.363281 331.253906 L 330.363281 331.253906 L 330.363281 311.253906 L 350.363281 311.253906 L 350.363281 301.253906 L 330.363281 301.253906 L 330.363281 281.253906 L 320.363281 281.253906 L 320.363281 301.253906 "/>
<path style="fill-rule:nonzero;fill:rgb(67%,100%,18%);fill-opacity:1;stroke-width:1;stroke-linecap:butt;stroke-linejoin:round;stroke:rgb(0%,0%,0%);stroke-opacity:1;stroke-miterlimit:10;" d="M 428.304688 314.066406 L 408.304688 314.066406 L 408.304688 324.066406 L 428.304688 324.066406 L 428.304688 344.066406 L 438.304688 344.066406 L 438.304688 324.066406 L 458.304688 324.066406 L 458.304688 314.066406 L 438.304688 314.066406 L 438.304688 294.066406 L 428.304688 294.066406 L 428.304688 314.066406 "/>
</g>
</svg>
