<?xml version="1.0" encoding="UTF-8"?>
<svg xmlns="http://www.w3.org/2000/svg" xmlns:xlink="http://www.w3.org/1999/xlink" width="517pt" height="517pt" viewBox="0 0 517 517" version="1.1">
<g id="surface5466">
<rect x="0" y="0" width="517" height="517" style="fill:rgb(90%,90%,90%);fill-opacity:1;stroke:none;"/>
<path style="fill-rule:nonzero;fill:rgb(50%,0%,50%);fill-opacity:1;stroke-width:1;stroke-linecap:butt;stroke-linejoin:miter;stroke:rgb(0%,0%,0%);stroke-opacity:1;stroke-miterlimit:10;" d="M 181.460938 316.96875 C 181.460938 333.539062 168.03125 346.96875 151.460938 346.96875 C 134.894531 346.96875 121.460938 333.539062 121.460938 316.96875 C 121.460938 300.402344 134.894531 286.96875 151.460938 286.96875 C 168.03125 286.96875 181.460938 300.402344 181.460938 316.96875 "/>
<path style="fill-rule:nonzero;fill:rgb(50%,0%,50%);fill-opacity:1;stroke-width:1;stroke-linecap:butt;stroke-linejoin:miter;stroke:rgb(0%,0%,0%);stroke-opacity:1;stroke-miterlimit:10;" d="M 476.84375 175.945312 C 476.84375 192.515625 463.410156 205.945312 446.84375 205.945312 C 430.273438 205.945312 416.84375 192.515625 416.84375 175.945312 C 416.84375 159.378906 430.273438 145.945312 446.84375 145.945312 C 463.410156 145.945312 476.84375 159.378906 476.84375 175.945312 "/>
<path style="fill-rule:nonzero;fill:rgb(100%,100%,0%);fill-opacity:1;stroke-width:1;stroke-linecap:butt;stroke-linejoin:miter;stroke:rgb(0%,0%,0%);stroke-opacity:1;stroke-miterlimit:10;" d="M 336.253906 170.511719 C 336.253906 187.078125 322.820312 200.511719 306.253906 200.511719 C 289.683594 200.511719 276.253906 187.078125 276.253906 170.511719 C 276.253906 153.941406 289.683594 140.511719 306.253906 140.511719 C 322.820312 140.511719 336.253906 153.941406 336.253906 170.511719 "/>
<path style="fill-rule:nonzero;fill:rgb(100%,100%,0%);fill-opacity:1;stroke-width:1;stroke-linecap:butt;stroke-linejoin:miter;stroke:rgb(0%,0%,0%);stroke-opacity:1;stroke-miterlimit:10;" d="M 453.226562 72.792969 C 453.226562 89.363281 439.796875 102.792969 423.226562 102.792969 C 406.660156 102.792969 393.226562 89.363281 393.226562 72.792969 C 393.226562 56.226562 406.660156 42.792969 423.226562 42.792969 C 439.796875 42.792969 453.226562 56.226562 453.226562 72.792969 "/>
<path style="fill-rule:nonzero;fill:rgb(100%,100%,0%);fill-opacity:1;stroke-width:1;stroke-linecap:butt;stroke-linejoin:miter;stroke:rgb(0%,0%,0%);stroke-opacity:1;stroke-miterlimit:10;" d="M 394.027344 37.40625 C 394.027344 53.976562 380.597656 67.40625 364.027344 67.40625 C 347.460938 67.40625 334.027344 53.976562 334.027344 37.40625 C 334.027344 20.839844 347.460938 7.40625 364.027344 7.40625 C 380.597656 7.40625 394.027344 20.839844 394.027344 37.40625 "/>
<path style="fill-rule:nonzero;fill:rgb(100%,100%,0%);fill-opacity:1;stroke-width:1;stroke-linecap:butt;stroke-linejoin:miter;stroke:rgb(0%,0%,0%);stroke-opacity:1;stroke-miterlimit:10;" d="M 427.269531 129.25 C 427.269531 145.820312 413.839844 159.25 397.269531 159.25 C 380.703125 159.25 367.269531 145.820312 367.269531 129.25 C 367.269531 112.679688 380.703125 99.25 397.269531 99.25 C 413.839844 99.25 427.269531 112.679688 427.269531 129.25 "/>
<path style="fill-rule:nonzero;fill:rgb(100%,100%,0%);fill-opacity:1;stroke-width:1;stroke-linecap:butt;stroke-linejoin:miter;stroke:rgb(0%,0%,0%);stroke-opacity:1;stroke-miterlimit:10;" d="M 128.730469 182.671875 C 128.730469 199.238281 115.300781 212.671875 98.730469 212.671875 C 82.164062 212.671875 68.730469 199.238281 68.730469 182.671875 C 68.730469 166.101562 82.164062 152.671875 98.730469 152.671875 C 115.300781 152.671875 128.730469 166.101562 128.730469 182.671875 "/>
<path style="fill-rule:nonzero;fill:rgb(100%,100%,0%);fill-opacity:1;stroke-width:1;stroke-linecap:butt;stroke-linejoin:miter;stroke:rgb(0%,0%,0%);stroke-opacity:1;stroke-miterlimit:10;" d="M 199.238281 90.820312 C 199.238281 107.390625 185.804688 120.820312 169.238281 120.820312 C 152.667969 120.820312 139.238281 107.390625 139.238281 90.820312 C 139.238281 74.253906 152.667969 60.820312 169.238281 60.820312 C 185.804688 60.820312 199.238281 74.253906 199.238281 90.820312 "/>
</g>
</svg>
