<?xml version="1.0" encoding="UTF-8"?>
<svg xmlns="http://www.w3.org/2000/svg" xmlns:xlink="http://www.w3.org/1999/xlink" width="517pt" height="517pt" viewBox="0 0 517 517" version="1.1">
<g id="surface5506">
<rect x="0" y="0" width="517" height="517" style="fill:rgb(90%,90%,90%);fill-opacity:1;stroke:none;"/>
<path style="fill-rule:nonzero;fill:rgb(50%,0%,50%);fill-opacity:1;stroke-width:1;stroke-linecap:butt;stroke-linejoin:miter;stroke:rgb(0%,0%,0%);stroke-opacity:1;stroke-miterlimit:10;" d="M 101.625 343.382812 C 101.625 359.949219 88.191406 373.382812 71.625 373.382812 C 55.054688 373.382812 41.625 359.949219 41.625 343.382812 C 41.625 326.8125 55.054688 313.382812 71.625 313.382812 C 88.191406 313.382812 101.625 326.8125 101.625 343.382812 "/>
<path style="fill-rule:nonzero;fill:rgb(50%,0%,50%);fill-opacity:1;stroke-width:1;stroke-linecap:butt;stroke-linejoin:miter;stroke:rgb(0%,0%,0%);stroke-opacity:1;stroke-miterlimit:10;" d="M 362.84375 160.484375 C 362.84375 177.050781 349.410156 190.484375 332.84375 190.484375 C 316.273438 190.484375 302.84375 177.050781 302.84375 160.484375 C 302.84375 143.914062 316.273438 130.484375 332.84375 130.484375 C 349.410156 130.484375 362.84375 143.914062 362.84375 160.484375 "/>
<path style="fill-rule:nonzero;fill:rgb(100%,100%,0%);fill-opacity:1;stroke-width:1;stroke-linecap:butt;stroke-linejoin:miter;stroke:rgb(0%,0%,0%);stroke-opacity:1;stroke-miterlimit:10;" d="M 500.8125 198.785156 C 500.8125 215.355469 487.378906 228.785156 470.8125 228.785156 C 454.242188 228.785156 440.8125 215.355469 440.8125 198.785156 C 440.8125 182.21875 454.242188 168.785156 470.8125 168.785156 C 487.378906 168.785156 500.8125 182.21875 500.8125 198.785156 "/>
<path style="fill-rule:nonzero;fill:rgb(100%,100%,0%);fill-opacity:1;stroke-width:1;stroke-linecap:butt;stroke-linejoin:miter;stroke:rgb(0%,0%,0%);stroke-opacity:1;stroke-miterlimit:10;" d="M 358.414062 79.476562 C 358.414062 96.046875 344.984375 109.476562 328.414062 109.476562 C 311.847656 109.476562 298.414062 96.046875 298.414062 79.476562 C 298.414062 62.910156 311.847656 49.476562 328.414062 49.476562 C 344.984375 49.476562 358.414062 62.910156 358.414062 79.476562 "/>
<path style="fill-rule:nonzero;fill:rgb(100%,100%,0%);fill-opacity:1;stroke-width:1;stroke-linecap:butt;stroke-linejoin:miter;stroke:rgb(0%,0%,0%);stroke-opacity:1;stroke-miterlimit:10;" d="M 494.53125 82.640625 C 494.53125 99.207031 481.097656 112.640625 464.53125 112.640625 C 447.960938 112.640625 434.53125 99.207031 434.53125 82.640625 C 434.53125 66.070312 447.960938 52.640625 464.53125 52.640625 C 481.097656 52.640625 494.53125 66.070312 494.53125 82.640625 "/>
<path style="fill-rule:nonzero;fill:rgb(100%,100%,0%);fill-opacity:1;stroke-width:1;stroke-linecap:butt;stroke-linejoin:miter;stroke:rgb(0%,0%,0%);stroke-opacity:1;stroke-miterlimit:10;" d="M 415.75 111.085938 C 415.75 127.65625 402.316406 141.085938 385.75 141.085938 C 369.179688 141.085938 355.75 127.65625 355.75 111.085938 C 355.75 94.515625 369.179688 81.085938 385.75 81.085938 C 402.316406 81.085938 415.75 94.515625 415.75 111.085938 "/>
<path style="fill-rule:nonzero;fill:rgb(100%,100%,0%);fill-opacity:1;stroke-width:1;stroke-linecap:butt;stroke-linejoin:miter;stroke:rgb(0%,0%,0%);stroke-opacity:1;stroke-miterlimit:10;" d="M 431.5 183.894531 C 431.5 200.460938 418.066406 213.894531 401.5 213.894531 C 384.929688 213.894531 371.5 200.460938 371.5 183.894531 C 371.5 167.324219 384.929688 153.894531 401.5 153.894531 C 418.066406 153.894531 431.5 167.324219 431.5 183.894531 "/>
<path style="fill-rule:nonzero;fill:rgb(100%,100%,0%);fill-opacity:1;stroke-width:1;stroke-linecap:butt;stroke-linejoin:miter;stroke:rgb(0%,0%,0%);stroke-opacity:1;stroke-miterlimit:10;" d="M 339.601562 215.851562 C 339.601562 232.417969 326.167969 245.851562 309.601562 245.851562 C 293.03125 245.851562 279.601562 232.417969 279.601562 215.851562 C 279.601562 199.28125 293.03125 185.851562 309.601562 185.851562 C 326.167969 185.851562 339.601562 199.28125 339.601562 215.851562 "/>
</g>
</svg>
