<?xml version="1.0" encoding="UTF-8"?>
<svg xmlns="http://www.w3.org/2000/svg" xmlns:xlink="http://www.w3.org/1999/xlink" width="517pt" height="517pt" viewBox="0 0 517 517" version="1.1">
<g id="surface9486">
<rect x="0" y="0" width="517" height="517" style="fill:rgb(90%,90%,90%);fill-opacity:1;stroke:none;"/>
<path style="fill:none;stroke-width:5;stroke-linecap:butt;stroke-linejoin:round;stroke:rgb(100%,0%,0%);stroke-opacity:1;stroke-miterlimit:10;" d="M 261 5 L 517 5 L 517 261 L 261 261 Z M 261 5 "/>
<path style="fill-rule:nonzero;fill:rgb(100%,100%,0%);fill-opacity:1;stroke-width:1;stroke-linecap:butt;stroke-linejoin:round;stroke:rgb(0%,0%,0%);stroke-opacity:1;stroke-miterlimit:10;" d="M 337.726562 109.253906 L 317.726562 109.253906 L 317.726562 119.253906 L 337.726562 119.253906 L 337.726562 139.253906 L 347.726562 139.253906 L 347.726562 119.253906 L 367.726562 119.253906 L 367.726562 109.253906 L 347.726562 109.253906 L 347.726562 89.253906 L 337.726562 89.253906 L 337.726562 109.253906 "/>
<path style="fill-rule:nonzero;fill:rgb(67%,100%,18%);fill-opacity:1;stroke-width:1;stroke-linecap:butt;stroke-linejoin:round;stroke:rgb(0%,0%,0%);stroke-opacity:1;stroke-miterlimit:10;" d="M 102.523438 384.703125 L 82.523438 384.703125 L 82.523438 394.703125 L 102.523438 394.703125 L 102.523438 414.703125 L 112.523438 414.703125 L 112.523438 394.703125 L 132.523438 394.703125 L 132.523438 384.703125 L 112.523438 384.703125 L 112.523438 364.703125 L 102.523438 364.703125 L 102.523438 384.703125 "/>
<path style="fill-rule:nonzero;fill:rgb(67%,100%,18%);fill-opacity:1;stroke-width:1;stroke-linecap:butt;stroke-linejoin:round;stroke:rgb(0%,0%,0%);stroke-opacity:1;stroke-miterlimit:10;" d="M 163.449219 322.964844 L 143.449219 322.964844 L 143.449219 332.964844 L 163.449219 332.964844 L 163.449219 352.964844 L 173.449219 352.964844 L 173.449219 332.964844 L 193.449219 332.964844 L 193.449219 322.964844 L 173.449219 322.964844 L 173.449219 302.964844 L 163.449219 302.964844 L 163.449219 322.964844 "/>
<path style="fill-rule:nonzero;fill:rgb(67%,100%,18%);fill-opacity:1;stroke-width:1;stroke-linecap:butt;stroke-linejoin:round;stroke:rgb(0%,0%,0%);stroke-opacity:1;stroke-miterlimit:10;" d="M 310.574219 423.855469 L 290.574219 423.855469 L 290.574219 433.855469 L 310.574219 433.855469 L 310.574219 453.855469 L 320.574219 453.855469 L 320.574219 433.855469 L 340.574219 433.855469 L 340.574219 423.855469 L 320.574219 423.855469 L 320.574219 403.855469 L 310.574219 403.855469 L 310.574219 423.855469 "/>
<path style="fill-rule:nonzero;fill:rgb(67%,100%,18%);fill-opacity:1;stroke-width:1;stroke-linecap:butt;stroke-linejoin:round;stroke:rgb(0%,0%,0%);stroke-opacity:1;stroke-miterlimit:10;" d="M 141.292969 91.292969 L 121.292969 91.292969 L 121.292969 101.292969 L 141.292969 101.292969 L 141.292969 121.292969 L 151.292969 121.292969 L 151.292969 101.292969 L 171.292969 101.292969 L 171.292969 91.292969 L 151.292969 91.292969 L 151.292969 71.292969 L 141.292969 71.292969 L 141.292969 91.292969 "/>
</g>
</svg>
