<?xml version="1.0" encoding="UTF-8"?>
<svg xmlns="http://www.w3.org/2000/svg" xmlns:xlink="http://www.w3.org/1999/xlink" width="517pt" height="517pt" viewBox="0 0 517 517" version="1.1">
<g id="surface4216">
<rect x="0" y="0" width="517" height="517" style="fill:rgb(90%,90%,90%);fill-opacity:1;stroke:none;"/>
<path style="fill:none;stroke-width:5;stroke-linecap:butt;stroke-linejoin:round;stroke:rgb(100%,0%,0%);stroke-opacity:1;stroke-miterlimit:10;" d="M 261 5 L 517 5 L 517 261 L 261 261 Z M 261 5 "/>
<path style="fill-rule:nonzero;fill:rgb(35%,70%,90%);fill-opacity:1;stroke-width:1;stroke-linecap:butt;stroke-linejoin:round;stroke:rgb(0%,0%,0%);stroke-opacity:1;stroke-miterlimit:10;" d="M 440.078125 122.285156 C 440.078125 138.851562 426.644531 152.285156 410.078125 152.285156 C 393.507812 152.285156 380.078125 138.851562 380.078125 122.285156 C 380.078125 105.714844 393.507812 92.285156 410.078125 92.285156 C 426.644531 92.285156 440.078125 105.714844 440.078125 122.285156 "/>
<path style="fill-rule:nonzero;fill:rgb(100%,0%,0%);fill-opacity:1;stroke-width:1;stroke-linecap:butt;stroke-linejoin:round;stroke:rgb(0%,0%,0%);stroke-opacity:1;stroke-miterlimit:10;" d="M 164.195312 367.542969 C 164.195312 384.109375 150.761719 397.542969 134.195312 397.542969 C 117.625 397.542969 104.195312 384.109375 104.195312 367.542969 C 104.195312 350.972656 117.625 337.542969 134.195312 337.542969 C 150.761719 337.542969 164.195312 350.972656 164.195312 367.542969 "/>
<path style="fill-rule:nonzero;fill:rgb(35%,70%,90%);fill-opacity:1;stroke-width:1;stroke-linecap:butt;stroke-linejoin:round;stroke:rgb(0%,0%,0%);stroke-opacity:1;stroke-miterlimit:10;" d="M 82.636719 405.511719 C 82.636719 422.082031 69.207031 435.511719 52.636719 435.511719 C 36.070312 435.511719 22.636719 422.082031 22.636719 405.511719 C 22.636719 388.945312 36.070312 375.511719 52.636719 375.511719 C 69.207031 375.511719 82.636719 388.945312 82.636719 405.511719 "/>
<path style="fill-rule:nonzero;fill:rgb(35%,70%,90%);fill-opacity:1;stroke-width:1;stroke-linecap:butt;stroke-linejoin:round;stroke:rgb(0%,0%,0%);stroke-opacity:1;stroke-miterlimit:10;" d="M 225.933594 159.753906 C 225.933594 176.324219 212.5 189.753906 195.933594 189.753906 C 179.363281 189.753906 165.933594 176.324219 165.933594 159.753906 C 165.933594 143.1875 179.363281 129.753906 195.933594 129.753906 C 212.5 129.753906 225.933594 143.1875 225.933594 159.753906 "/>
<path style="fill-rule:nonzero;fill:rgb(35%,70%,90%);fill-opacity:1;stroke-width:1;stroke-linecap:butt;stroke-linejoin:round;stroke:rgb(0%,0%,0%);stroke-opacity:1;stroke-miterlimit:10;" d="M 194.359375 79.109375 C 194.359375 95.675781 180.925781 109.109375 164.359375 109.109375 C 147.789062 109.109375 134.359375 95.675781 134.359375 79.109375 C 134.359375 62.539062 147.789062 49.109375 164.359375 49.109375 C 180.925781 49.109375 194.359375 62.539062 194.359375 79.109375 "/>
<path style="fill-rule:nonzero;fill:rgb(35%,70%,90%);fill-opacity:1;stroke-width:1;stroke-linecap:butt;stroke-linejoin:round;stroke:rgb(0%,0%,0%);stroke-opacity:1;stroke-miterlimit:10;" d="M 77.976562 124.742188 C 77.976562 141.308594 64.546875 154.742188 47.976562 154.742188 C 31.410156 154.742188 17.976562 141.308594 17.976562 124.742188 C 17.976562 108.171875 31.410156 94.742188 47.976562 94.742188 C 64.546875 94.742188 77.976562 108.171875 77.976562 124.742188 "/>
</g>
</svg>
