<?xml version="1.0" encoding="UTF-8"?>
<svg xmlns="http://www.w3.org/2000/svg" xmlns:xlink="http://www.w3.org/1999/xlink" width="517pt" height="517pt" viewBox="0 0 517 517" version="1.1">
<g id="surface4221">
<rect x="0" y="0" width="517" height="517" style="fill:rgb(90%,90%,90%);fill-opacity:1;stroke:none;"/>
<path style="fill:none;stroke-width:5;stroke-linecap:butt;stroke-linejoin:round;stroke:rgb(100%,0%,0%);stroke-opacity:1;stroke-miterlimit:10;" d="M 261 5 L 517 5 L 517 261 L 261 261 Z M 261 5 "/>
<path style="fill-rule:nonzero;fill:rgb(100%,0%,0%);fill-opacity:1;stroke-width:1;stroke-linecap:butt;stroke-linejoin:round;stroke:rgb(0%,0%,0%);stroke-opacity:1;stroke-miterlimit:10;" d="M 452.875 158.175781 C 452.875 174.742188 439.441406 188.175781 422.875 188.175781 C 406.304688 188.175781 392.875 174.742188 392.875 158.175781 C 392.875 141.605469 406.304688 128.175781 422.875 128.175781 C 439.441406 128.175781 452.875 141.605469 452.875 158.175781 "/>
<path style="fill-rule:nonzero;fill:rgb(100%,0%,0%);fill-opacity:1;stroke-width:1;stroke-linecap:butt;stroke-linejoin:round;stroke:rgb(0%,0%,0%);stroke-opacity:1;stroke-miterlimit:10;" d="M 506.445312 297.964844 C 506.445312 314.535156 493.015625 327.964844 476.445312 327.964844 C 459.878906 327.964844 446.445312 314.535156 446.445312 297.964844 C 446.445312 281.398438 459.878906 267.964844 476.445312 267.964844 C 493.015625 267.964844 506.445312 281.398438 506.445312 297.964844 "/>
<path style="fill-rule:nonzero;fill:rgb(100%,0%,0%);fill-opacity:1;stroke-width:1;stroke-linecap:butt;stroke-linejoin:round;stroke:rgb(0%,0%,0%);stroke-opacity:1;stroke-miterlimit:10;" d="M 489.289062 368.65625 C 489.289062 385.222656 475.855469 398.65625 459.289062 398.65625 C 442.71875 398.65625 429.289062 385.222656 429.289062 368.65625 C 429.289062 352.085938 442.71875 338.65625 459.289062 338.65625 C 475.855469 338.65625 489.289062 352.085938 489.289062 368.65625 "/>
<path style="fill-rule:nonzero;fill:rgb(100%,0%,0%);fill-opacity:1;stroke-width:1;stroke-linecap:butt;stroke-linejoin:round;stroke:rgb(0%,0%,0%);stroke-opacity:1;stroke-miterlimit:10;" d="M 219.199219 103.058594 C 219.199219 119.628906 205.769531 133.058594 189.199219 133.058594 C 172.632812 133.058594 159.199219 119.628906 159.199219 103.058594 C 159.199219 86.492188 172.632812 73.058594 189.199219 73.058594 C 205.769531 73.058594 219.199219 86.492188 219.199219 103.058594 "/>
<path style="fill-rule:nonzero;fill:rgb(100%,0%,0%);fill-opacity:1;stroke-width:1;stroke-linecap:butt;stroke-linejoin:round;stroke:rgb(0%,0%,0%);stroke-opacity:1;stroke-miterlimit:10;" d="M 200.835938 436.589844 C 200.835938 453.15625 187.40625 466.589844 170.835938 466.589844 C 154.265625 466.589844 140.835938 453.15625 140.835938 436.589844 C 140.835938 420.019531 154.265625 406.589844 170.835938 406.589844 C 187.40625 406.589844 200.835938 420.019531 200.835938 436.589844 "/>
<path style="fill-rule:nonzero;fill:rgb(35%,70%,90%);fill-opacity:1;stroke-width:1;stroke-linecap:butt;stroke-linejoin:round;stroke:rgb(0%,0%,0%);stroke-opacity:1;stroke-miterlimit:10;" d="M 141.996094 408.472656 C 141.996094 425.042969 128.566406 438.472656 111.996094 438.472656 C 95.429688 438.472656 81.996094 425.042969 81.996094 408.472656 C 81.996094 391.90625 95.429688 378.472656 111.996094 378.472656 C 128.566406 378.472656 141.996094 391.90625 141.996094 408.472656 "/>
</g>
</svg>
