<?xml version="1.0" encoding="UTF-8"?>
<svg xmlns="http://www.w3.org/2000/svg" xmlns:xlink="http://www.w3.org/1999/xlink" width="517pt" height="517pt" viewBox="0 0 517 517" version="1.1">
<g id="surface9236">
<rect x="0" y="0" width="517" height="517" style="fill:rgb(90%,90%,90%);fill-opacity:1;stroke:none;"/>
<path style="fill:none;stroke-width:5;stroke-linecap:butt;stroke-linejoin:round;stroke:rgb(100%,0%,0%);stroke-opacity:1;stroke-miterlimit:10;" d="M 261 261 L 517 261 L 517 517 L 261 517 Z M 261 261 "/>
<path style="fill-rule:nonzero;fill:rgb(100%,0%,0%);fill-opacity:1;stroke-width:1;stroke-linecap:butt;stroke-linejoin:round;stroke:rgb(0%,0%,0%);stroke-opacity:1;stroke-miterlimit:10;" d="M 457.207031 352.113281 L 437.207031 352.113281 L 437.207031 362.113281 L 457.207031 362.113281 L 457.207031 382.113281 L 467.207031 382.113281 L 467.207031 362.113281 L 487.207031 362.113281 L 487.207031 352.113281 L 467.207031 352.113281 L 467.207031 332.113281 L 457.207031 332.113281 L 457.207031 352.113281 "/>
<path style="fill-rule:nonzero;fill:rgb(67%,100%,18%);fill-opacity:1;stroke-width:1;stroke-linecap:butt;stroke-linejoin:round;stroke:rgb(0%,0%,0%);stroke-opacity:1;stroke-miterlimit:10;" d="M 357.753906 42.40625 L 337.753906 42.40625 L 337.753906 52.40625 L 357.753906 52.40625 L 357.753906 72.40625 L 367.753906 72.40625 L 367.753906 52.40625 L 387.753906 52.40625 L 387.753906 42.40625 L 367.753906 42.40625 L 367.753906 22.40625 L 357.753906 22.40625 L 357.753906 42.40625 "/>
<path style="fill-rule:nonzero;fill:rgb(67%,100%,18%);fill-opacity:1;stroke-width:1;stroke-linecap:butt;stroke-linejoin:round;stroke:rgb(0%,0%,0%);stroke-opacity:1;stroke-miterlimit:10;" d="M 109.691406 333.921875 L 89.691406 333.921875 L 89.691406 343.921875 L 109.691406 343.921875 L 109.691406 363.921875 L 119.691406 363.921875 L 119.691406 343.921875 L 139.691406 343.921875 L 139.691406 333.921875 L 119.691406 333.921875 L 119.691406 313.921875 L 109.691406 313.921875 L 109.691406 333.921875 "/>
<path style="fill-rule:nonzero;fill:rgb(67%,100%,18%);fill-opacity:1;stroke-width:1;stroke-linecap:butt;stroke-linejoin:round;stroke:rgb(0%,0%,0%);stroke-opacity:1;stroke-miterlimit:10;" d="M 120.296875 152.664062 L 100.296875 152.664062 L 100.296875 162.664062 L 120.296875 162.664062 L 120.296875 182.664062 L 130.296875 182.664062 L 130.296875 162.664062 L 150.296875 162.664062 L 150.296875 152.664062 L 130.296875 152.664062 L 130.296875 132.664062 L 120.296875 132.664062 L 120.296875 152.664062 "/>
<path style="fill-rule:nonzero;fill:rgb(67%,100%,18%);fill-opacity:1;stroke-width:1;stroke-linecap:butt;stroke-linejoin:round;stroke:rgb(0%,0%,0%);stroke-opacity:1;stroke-miterlimit:10;" d="M 94.679688 49.996094 L 74.679688 49.996094 L 74.679688 59.996094 L 94.679688 59.996094 L 94.679688 79.996094 L 104.679688 79.996094 L 104.679688 59.996094 L 124.679688 59.996094 L 124.679688 49.996094 L 104.679688 49.996094 L 104.679688 29.996094 L 94.679688 29.996094 L 94.679688 49.996094 "/>
</g>
</svg>
