<?xml version="1.0" encoding="UTF-8"?>
<svg xmlns="http://www.w3.org/2000/svg" xmlns:xlink="http://www.w3.org/1999/xlink" width="517pt" height="517pt" viewBox="0 0 517 517" version="1.1">
<g id="surface3961">
<rect x="0" y="0" width="517" height="517" style="fill:rgb(90%,90%,90%);fill-opacity:1;stroke:none;"/>
<path style="fill:none;stroke-width:5;stroke-linecap:butt;stroke-linejoin:round;stroke:rgb(100%,0%,0%);stroke-opacity:1;stroke-miterlimit:10;" d="M 5 5 L 261 5 L 261 261 L 5 261 Z M 5 5 "/>
<path style="fill-rule:nonzero;fill:rgb(0%,0%,0%);fill-opacity:1;stroke-width:1;stroke-linecap:butt;stroke-linejoin:round;stroke:rgb(0%,0%,0%);stroke-opacity:1;stroke-miterlimit:10;" d="M 38.296875 163.976562 L 18.296875 163.976562 L 18.296875 173.976562 L 38.296875 173.976562 L 38.296875 193.976562 L 48.296875 193.976562 L 48.296875 173.976562 L 68.296875 173.976562 L 68.296875 163.976562 L 48.296875 163.976562 L 48.296875 143.976562 L 38.296875 143.976562 L 38.296875 163.976562 "/>
<path style="fill-rule:nonzero;fill:rgb(50%,0%,50%);fill-opacity:1;stroke-width:1;stroke-linecap:butt;stroke-linejoin:round;stroke:rgb(0%,0%,0%);stroke-opacity:1;stroke-miterlimit:10;" d="M 362.855469 171.261719 L 342.855469 171.261719 L 342.855469 181.261719 L 362.855469 181.261719 L 362.855469 201.261719 L 372.855469 201.261719 L 372.855469 181.261719 L 392.855469 181.261719 L 392.855469 171.261719 L 372.855469 171.261719 L 372.855469 151.261719 L 362.855469 151.261719 L 362.855469 171.261719 "/>
<path style="fill-rule:nonzero;fill:rgb(0%,0%,0%);fill-opacity:1;stroke-width:1;stroke-linecap:butt;stroke-linejoin:round;stroke:rgb(0%,0%,0%);stroke-opacity:1;stroke-miterlimit:10;" d="M 324.179688 80.246094 L 304.179688 80.246094 L 304.179688 90.246094 L 324.179688 90.246094 L 324.179688 110.246094 L 334.179688 110.246094 L 334.179688 90.246094 L 354.179688 90.246094 L 354.179688 80.246094 L 334.179688 80.246094 L 334.179688 60.246094 L 324.179688 60.246094 L 324.179688 80.246094 "/>
<path style="fill-rule:nonzero;fill:rgb(0%,0%,0%);fill-opacity:1;stroke-width:1;stroke-linecap:butt;stroke-linejoin:round;stroke:rgb(0%,0%,0%);stroke-opacity:1;stroke-miterlimit:10;" d="M 40.960938 368.832031 L 20.960938 368.832031 L 20.960938 378.832031 L 40.960938 378.832031 L 40.960938 398.832031 L 50.960938 398.832031 L 50.960938 378.832031 L 70.960938 378.832031 L 70.960938 368.832031 L 50.960938 368.832031 L 50.960938 348.832031 L 40.960938 348.832031 L 40.960938 368.832031 "/>
<path style="fill-rule:nonzero;fill:rgb(0%,0%,0%);fill-opacity:1;stroke-width:1;stroke-linecap:butt;stroke-linejoin:round;stroke:rgb(0%,0%,0%);stroke-opacity:1;stroke-miterlimit:10;" d="M 95.683594 467.164062 L 75.683594 467.164062 L 75.683594 477.164062 L 95.683594 477.164062 L 95.683594 497.164062 L 105.683594 497.164062 L 105.683594 477.164062 L 125.683594 477.164062 L 125.683594 467.164062 L 105.683594 467.164062 L 105.683594 447.164062 L 95.683594 447.164062 L 95.683594 467.164062 "/>
<path style="fill-rule:nonzero;fill:rgb(0%,0%,0%);fill-opacity:1;stroke-width:1;stroke-linecap:butt;stroke-linejoin:round;stroke:rgb(0%,0%,0%);stroke-opacity:1;stroke-miterlimit:10;" d="M 147.242188 309.847656 L 127.242188 309.847656 L 127.242188 319.847656 L 147.242188 319.847656 L 147.242188 339.847656 L 157.242188 339.847656 L 157.242188 319.847656 L 177.242188 319.847656 L 177.242188 309.847656 L 157.242188 309.847656 L 157.242188 289.847656 L 147.242188 289.847656 L 147.242188 309.847656 "/>
</g>
</svg>
