<?xml version="1.0" encoding="UTF-8"?>
<svg xmlns="http://www.w3.org/2000/svg" xmlns:xlink="http://www.w3.org/1999/xlink" width="517pt" height="517pt" viewBox="0 0 517 517" version="1.1">
<g id="surface9086">
<rect x="0" y="0" width="517" height="517" style="fill:rgb(90%,90%,90%);fill-opacity:1;stroke:none;"/>
<path style="fill:none;stroke-width:5;stroke-linecap:butt;stroke-linejoin:round;stroke:rgb(100%,0%,0%);stroke-opacity:1;stroke-miterlimit:10;" d="M 5 261 L 261 261 L 261 517 L 5 517 Z M 5 261 "/>
<path style="fill-rule:nonzero;fill:rgb(50%,0%,50%);fill-opacity:1;stroke-width:1;stroke-linecap:butt;stroke-linejoin:round;stroke:rgb(0%,0%,0%);stroke-opacity:1;stroke-miterlimit:10;" d="M 146.222656 351.476562 L 126.222656 351.476562 L 126.222656 361.476562 L 146.222656 361.476562 L 146.222656 381.476562 L 156.222656 381.476562 L 156.222656 361.476562 L 176.222656 361.476562 L 176.222656 351.476562 L 156.222656 351.476562 L 156.222656 331.476562 L 146.222656 331.476562 L 146.222656 351.476562 "/>
<path style="fill-rule:nonzero;fill:rgb(0%,0%,0%);fill-opacity:1;stroke-width:1;stroke-linecap:butt;stroke-linejoin:round;stroke:rgb(0%,0%,0%);stroke-opacity:1;stroke-miterlimit:10;" d="M 322.589844 108.777344 L 302.589844 108.777344 L 302.589844 118.777344 L 322.589844 118.777344 L 322.589844 138.777344 L 332.589844 138.777344 L 332.589844 118.777344 L 352.589844 118.777344 L 352.589844 108.777344 L 332.589844 108.777344 L 332.589844 88.777344 L 322.589844 88.777344 L 322.589844 108.777344 "/>
<path style="fill-rule:nonzero;fill:rgb(0%,0%,0%);fill-opacity:1;stroke-width:1;stroke-linecap:butt;stroke-linejoin:round;stroke:rgb(0%,0%,0%);stroke-opacity:1;stroke-miterlimit:10;" d="M 381.566406 408.445312 L 361.566406 408.445312 L 361.566406 418.445312 L 381.566406 418.445312 L 381.566406 438.445312 L 391.566406 438.445312 L 391.566406 418.445312 L 411.566406 418.445312 L 411.566406 408.445312 L 391.566406 408.445312 L 391.566406 388.445312 L 381.566406 388.445312 L 381.566406 408.445312 "/>
<path style="fill-rule:nonzero;fill:rgb(0%,0%,0%);fill-opacity:1;stroke-width:1;stroke-linecap:butt;stroke-linejoin:round;stroke:rgb(0%,0%,0%);stroke-opacity:1;stroke-miterlimit:10;" d="M 425.644531 351.039062 L 405.644531 351.039062 L 405.644531 361.039062 L 425.644531 361.039062 L 425.644531 381.039062 L 435.644531 381.039062 L 435.644531 361.039062 L 455.644531 361.039062 L 455.644531 351.039062 L 435.644531 351.039062 L 435.644531 331.039062 L 425.644531 331.039062 L 425.644531 351.039062 "/>
<path style="fill-rule:nonzero;fill:rgb(0%,0%,0%);fill-opacity:1;stroke-width:1;stroke-linecap:butt;stroke-linejoin:round;stroke:rgb(0%,0%,0%);stroke-opacity:1;stroke-miterlimit:10;" d="M 117.1875 180.449219 L 97.1875 180.449219 L 97.1875 190.449219 L 117.1875 190.449219 L 117.1875 210.449219 L 127.1875 210.449219 L 127.1875 190.449219 L 147.1875 190.449219 L 147.1875 180.449219 L 127.1875 180.449219 L 127.1875 160.449219 L 117.1875 160.449219 L 117.1875 180.449219 "/>
</g>
</svg>
