<?xml version="1.0" encoding="UTF-8"?>
<svg xmlns="http://www.w3.org/2000/svg" xmlns:xlink="http://www.w3.org/1999/xlink" width="517pt" height="517pt" viewBox="0 0 517 517" version="1.1">
<g id="surface4176">
<rect x="0" y="0" width="517" height="517" style="fill:rgb(90%,90%,90%);fill-opacity:1;stroke:none;"/>
<path style="fill:none;stroke-width:5;stroke-linecap:butt;stroke-linejoin:round;stroke:rgb(100%,0%,0%);stroke-opacity:1;stroke-miterlimit:10;" d="M 261 5 L 517 5 L 517 261 L 261 261 Z M 261 5 "/>
<path style="fill-rule:nonzero;fill:rgb(35%,70%,90%);fill-opacity:1;stroke-width:1;stroke-linecap:butt;stroke-linejoin:round;stroke:rgb(0%,0%,0%);stroke-opacity:1;stroke-miterlimit:10;" d="M 355.746094 156.0625 C 355.746094 172.628906 342.3125 186.0625 325.746094 186.0625 C 309.175781 186.0625 295.746094 172.628906 295.746094 156.0625 C 295.746094 139.492188 309.175781 126.0625 325.746094 126.0625 C 342.3125 126.0625 355.746094 139.492188 355.746094 156.0625 "/>
<path style="fill-rule:nonzero;fill:rgb(100%,0%,0%);fill-opacity:1;stroke-width:1;stroke-linecap:butt;stroke-linejoin:round;stroke:rgb(0%,0%,0%);stroke-opacity:1;stroke-miterlimit:10;" d="M 436.105469 449.792969 C 436.105469 466.359375 422.671875 479.792969 406.105469 479.792969 C 389.535156 479.792969 376.105469 466.359375 376.105469 449.792969 C 376.105469 433.222656 389.535156 419.792969 406.105469 419.792969 C 422.671875 419.792969 436.105469 433.222656 436.105469 449.792969 "/>
<path style="fill-rule:nonzero;fill:rgb(100%,0%,0%);fill-opacity:1;stroke-width:1;stroke-linecap:butt;stroke-linejoin:round;stroke:rgb(0%,0%,0%);stroke-opacity:1;stroke-miterlimit:10;" d="M 466.832031 380.292969 C 466.832031 396.859375 453.402344 410.292969 436.832031 410.292969 C 420.265625 410.292969 406.832031 396.859375 406.832031 380.292969 C 406.832031 363.722656 420.265625 350.292969 436.832031 350.292969 C 453.402344 350.292969 466.832031 363.722656 466.832031 380.292969 "/>
<path style="fill-rule:nonzero;fill:rgb(100%,0%,0%);fill-opacity:1;stroke-width:1;stroke-linecap:butt;stroke-linejoin:round;stroke:rgb(0%,0%,0%);stroke-opacity:1;stroke-miterlimit:10;" d="M 180.460938 36.71875 C 180.460938 53.285156 167.027344 66.71875 150.460938 66.71875 C 133.890625 66.71875 120.460938 53.285156 120.460938 36.71875 C 120.460938 20.148438 133.890625 6.71875 150.460938 6.71875 C 167.027344 6.71875 180.460938 20.148438 180.460938 36.71875 "/>
<path style="fill-rule:nonzero;fill:rgb(100%,0%,0%);fill-opacity:1;stroke-width:1;stroke-linecap:butt;stroke-linejoin:round;stroke:rgb(0%,0%,0%);stroke-opacity:1;stroke-miterlimit:10;" d="M 155.148438 132.160156 C 155.148438 148.730469 141.714844 162.160156 125.148438 162.160156 C 108.578125 162.160156 95.148438 148.730469 95.148438 132.160156 C 95.148438 115.59375 108.578125 102.160156 125.148438 102.160156 C 141.714844 102.160156 155.148438 115.59375 155.148438 132.160156 "/>
<path style="fill-rule:nonzero;fill:rgb(100%,0%,0%);fill-opacity:1;stroke-width:1;stroke-linecap:butt;stroke-linejoin:round;stroke:rgb(0%,0%,0%);stroke-opacity:1;stroke-miterlimit:10;" d="M 178.074219 335.257812 C 178.074219 351.828125 164.644531 365.257812 148.074219 365.257812 C 131.507812 365.257812 118.074219 351.828125 118.074219 335.257812 C 118.074219 318.691406 131.507812 305.257812 148.074219 305.257812 C 164.644531 305.257812 178.074219 318.691406 178.074219 335.257812 "/>
</g>
</svg>
