<?xml version="1.0" encoding="UTF-8"?>
<svg xmlns="http://www.w3.org/2000/svg" xmlns:xlink="http://www.w3.org/1999/xlink" width="517pt" height="517pt" viewBox="0 0 517 517" version="1.1">
<g id="surface3956">
<rect x="0" y="0" width="517" height="517" style="fill:rgb(90%,90%,90%);fill-opacity:1;stroke:none;"/>
<path style="fill:none;stroke-width:5;stroke-linecap:butt;stroke-linejoin:round;stroke:rgb(100%,0%,0%);stroke-opacity:1;stroke-miterlimit:10;" d="M 5 5 L 261 5 L 261 261 L 5 261 Z M 5 5 "/>
<path style="fill-rule:nonzero;fill:rgb(0%,0%,0%);fill-opacity:1;stroke-width:1;stroke-linecap:butt;stroke-linejoin:round;stroke:rgb(0%,0%,0%);stroke-opacity:1;stroke-miterlimit:10;" d="M 203.117188 141.574219 L 183.117188 141.574219 L 183.117188 151.574219 L 203.117188 151.574219 L 203.117188 171.574219 L 213.117188 171.574219 L 213.117188 151.574219 L 233.117188 151.574219 L 233.117188 141.574219 L 213.117188 141.574219 L 213.117188 121.574219 L 203.117188 121.574219 L 203.117188 141.574219 "/>
<path style="fill-rule:nonzero;fill:rgb(50%,0%,50%);fill-opacity:1;stroke-width:1;stroke-linecap:butt;stroke-linejoin:round;stroke:rgb(0%,0%,0%);stroke-opacity:1;stroke-miterlimit:10;" d="M 137.496094 433.710938 L 117.496094 433.710938 L 117.496094 443.710938 L 137.496094 443.710938 L 137.496094 463.710938 L 147.496094 463.710938 L 147.496094 443.710938 L 167.496094 443.710938 L 167.496094 433.710938 L 147.496094 433.710938 L 147.496094 413.710938 L 137.496094 413.710938 L 137.496094 433.710938 "/>
<path style="fill-rule:nonzero;fill:rgb(50%,0%,50%);fill-opacity:1;stroke-width:1;stroke-linecap:butt;stroke-linejoin:round;stroke:rgb(0%,0%,0%);stroke-opacity:1;stroke-miterlimit:10;" d="M 471.867188 296.347656 L 451.867188 296.347656 L 451.867188 306.347656 L 471.867188 306.347656 L 471.867188 326.347656 L 481.867188 326.347656 L 481.867188 306.347656 L 501.867188 306.347656 L 501.867188 296.347656 L 481.867188 296.347656 L 481.867188 276.347656 L 471.867188 276.347656 L 471.867188 296.347656 "/>
<path style="fill-rule:nonzero;fill:rgb(50%,0%,50%);fill-opacity:1;stroke-width:1;stroke-linecap:butt;stroke-linejoin:round;stroke:rgb(0%,0%,0%);stroke-opacity:1;stroke-miterlimit:10;" d="M 442.457031 367.863281 L 422.457031 367.863281 L 422.457031 377.863281 L 442.457031 377.863281 L 442.457031 397.863281 L 452.457031 397.863281 L 452.457031 377.863281 L 472.457031 377.863281 L 472.457031 367.863281 L 452.457031 367.863281 L 452.457031 347.863281 L 442.457031 347.863281 L 442.457031 367.863281 "/>
<path style="fill-rule:nonzero;fill:rgb(50%,0%,50%);fill-opacity:1;stroke-width:1;stroke-linecap:butt;stroke-linejoin:round;stroke:rgb(0%,0%,0%);stroke-opacity:1;stroke-miterlimit:10;" d="M 438.332031 193.339844 L 418.332031 193.339844 L 418.332031 203.339844 L 438.332031 203.339844 L 438.332031 223.339844 L 448.332031 223.339844 L 448.332031 203.339844 L 468.332031 203.339844 L 468.332031 193.339844 L 448.332031 193.339844 L 448.332031 173.339844 L 438.332031 173.339844 L 438.332031 193.339844 "/>
<path style="fill-rule:nonzero;fill:rgb(0%,0%,0%);fill-opacity:1;stroke-width:1;stroke-linecap:butt;stroke-linejoin:round;stroke:rgb(0%,0%,0%);stroke-opacity:1;stroke-miterlimit:10;" d="M 382.039062 159.261719 L 362.039062 159.261719 L 362.039062 169.261719 L 382.039062 169.261719 L 382.039062 189.261719 L 392.039062 189.261719 L 392.039062 169.261719 L 412.039062 169.261719 L 412.039062 159.261719 L 392.039062 159.261719 L 392.039062 139.261719 L 382.039062 139.261719 L 382.039062 159.261719 "/>
</g>
</svg>
