<?xml version="1.0" encoding="UTF-8"?>
<svg xmlns="http://www.w3.org/2000/svg" xmlns:xlink="http://www.w3.org/1999/xlink" width="517pt" height="517pt" viewBox="0 0 517 517" version="1.1">
<g id="surface9366">
<rect x="0" y="0" width="517" height="517" style="fill:rgb(90%,90%,90%);fill-opacity:1;stroke:none;"/>
<path style="fill:none;stroke-width:5;stroke-linecap:butt;stroke-linejoin:round;stroke:rgb(100%,0%,0%);stroke-opacity:1;stroke-miterlimit:10;" d="M 5 261 L 261 261 L 261 517 L 5 517 Z M 5 261 "/>
<path style="fill-rule:nonzero;fill:rgb(100%,0%,0%);fill-opacity:1;stroke-width:1;stroke-linecap:butt;stroke-linejoin:round;stroke:rgb(0%,0%,0%);stroke-opacity:1;stroke-miterlimit:10;" d="M 113.851562 463.609375 L 93.851562 463.609375 L 93.851562 473.609375 L 113.851562 473.609375 L 113.851562 493.609375 L 123.851562 493.609375 L 123.851562 473.609375 L 143.851562 473.609375 L 143.851562 463.609375 L 123.851562 463.609375 L 123.851562 443.609375 L 113.851562 443.609375 L 113.851562 463.609375 "/>
<path style="fill-rule:nonzero;fill:rgb(100%,100%,0%);fill-opacity:1;stroke-width:1;stroke-linecap:butt;stroke-linejoin:round;stroke:rgb(0%,0%,0%);stroke-opacity:1;stroke-miterlimit:10;" d="M 311.402344 202.945312 L 291.402344 202.945312 L 291.402344 212.945312 L 311.402344 212.945312 L 311.402344 232.945312 L 321.402344 232.945312 L 321.402344 212.945312 L 341.402344 212.945312 L 341.402344 202.945312 L 321.402344 202.945312 L 321.402344 182.945312 L 311.402344 182.945312 L 311.402344 202.945312 "/>
<path style="fill-rule:nonzero;fill:rgb(100%,100%,0%);fill-opacity:1;stroke-width:1;stroke-linecap:butt;stroke-linejoin:round;stroke:rgb(0%,0%,0%);stroke-opacity:1;stroke-miterlimit:10;" d="M 195.484375 149.996094 L 175.484375 149.996094 L 175.484375 159.996094 L 195.484375 159.996094 L 195.484375 179.996094 L 205.484375 179.996094 L 205.484375 159.996094 L 225.484375 159.996094 L 225.484375 149.996094 L 205.484375 149.996094 L 205.484375 129.996094 L 195.484375 129.996094 L 195.484375 149.996094 "/>
<path style="fill-rule:nonzero;fill:rgb(100%,100%,0%);fill-opacity:1;stroke-width:1;stroke-linecap:butt;stroke-linejoin:round;stroke:rgb(0%,0%,0%);stroke-opacity:1;stroke-miterlimit:10;" d="M 188.476562 210.984375 L 168.476562 210.984375 L 168.476562 220.984375 L 188.476562 220.984375 L 188.476562 240.984375 L 198.476562 240.984375 L 198.476562 220.984375 L 218.476562 220.984375 L 218.476562 210.984375 L 198.476562 210.984375 L 198.476562 190.984375 L 188.476562 190.984375 L 188.476562 210.984375 "/>
<path style="fill-rule:nonzero;fill:rgb(100%,100%,0%);fill-opacity:1;stroke-width:1;stroke-linecap:butt;stroke-linejoin:round;stroke:rgb(0%,0%,0%);stroke-opacity:1;stroke-miterlimit:10;" d="M 45.847656 112.101562 L 25.847656 112.101562 L 25.847656 122.101562 L 45.847656 122.101562 L 45.847656 142.101562 L 55.847656 142.101562 L 55.847656 122.101562 L 75.847656 122.101562 L 75.847656 112.101562 L 55.847656 112.101562 L 55.847656 92.101562 L 45.847656 92.101562 L 45.847656 112.101562 "/>
</g>
</svg>
