<?xml version="1.0" encoding="UTF-8"?>
<svg xmlns="http://www.w3.org/2000/svg" xmlns:xlink="http://www.w3.org/1999/xlink" width="517pt" height="517pt" viewBox="0 0 517 517" version="1.1">
<g id="surface4276">
<rect x="0" y="0" width="517" height="517" style="fill:rgb(90%,90%,90%);fill-opacity:1;stroke:none;"/>
<path style="fill:none;stroke-width:5;stroke-linecap:butt;stroke-linejoin:round;stroke:rgb(100%,0%,0%);stroke-opacity:1;stroke-miterlimit:10;" d="M 261 5 L 517 5 L 517 261 L 261 261 Z M 261 5 "/>
<path style="fill-rule:nonzero;fill:rgb(25%,88%,82%);fill-opacity:1;stroke-width:1;stroke-linecap:butt;stroke-linejoin:round;stroke:rgb(0%,0%,0%);stroke-opacity:1;stroke-miterlimit:10;" d="M 444.09375 118.578125 L 424.09375 118.578125 L 424.09375 128.578125 L 444.09375 128.578125 L 444.09375 148.578125 L 454.09375 148.578125 L 454.09375 128.578125 L 474.09375 128.578125 L 474.09375 118.578125 L 454.09375 118.578125 L 454.09375 98.578125 L 444.09375 98.578125 L 444.09375 118.578125 "/>
<path style="fill-rule:nonzero;fill:rgb(90%,65%,0%);fill-opacity:1;stroke-width:1;stroke-linecap:butt;stroke-linejoin:round;stroke:rgb(0%,0%,0%);stroke-opacity:1;stroke-miterlimit:10;" d="M 155.007812 64.617188 L 135.007812 64.617188 L 135.007812 74.617188 L 155.007812 74.617188 L 155.007812 94.617188 L 165.007812 94.617188 L 165.007812 74.617188 L 185.007812 74.617188 L 185.007812 64.617188 L 165.007812 64.617188 L 165.007812 44.617188 L 155.007812 44.617188 L 155.007812 64.617188 "/>
<path style="fill-rule:nonzero;fill:rgb(90%,65%,0%);fill-opacity:1;stroke-width:1;stroke-linecap:butt;stroke-linejoin:round;stroke:rgb(0%,0%,0%);stroke-opacity:1;stroke-miterlimit:10;" d="M 36.980469 88.050781 L 16.980469 88.050781 L 16.980469 98.050781 L 36.980469 98.050781 L 36.980469 118.050781 L 46.980469 118.050781 L 46.980469 98.050781 L 66.980469 98.050781 L 66.980469 88.050781 L 46.980469 88.050781 L 46.980469 68.050781 L 36.980469 68.050781 L 36.980469 88.050781 "/>
<path style="fill-rule:nonzero;fill:rgb(90%,65%,0%);fill-opacity:1;stroke-width:1;stroke-linecap:butt;stroke-linejoin:round;stroke:rgb(0%,0%,0%);stroke-opacity:1;stroke-miterlimit:10;" d="M 124.160156 427.214844 L 104.160156 427.214844 L 104.160156 437.214844 L 124.160156 437.214844 L 124.160156 457.214844 L 134.160156 457.214844 L 134.160156 437.214844 L 154.160156 437.214844 L 154.160156 427.214844 L 134.160156 427.214844 L 134.160156 407.214844 L 124.160156 407.214844 L 124.160156 427.214844 "/>
<path style="fill-rule:nonzero;fill:rgb(90%,65%,0%);fill-opacity:1;stroke-width:1;stroke-linecap:butt;stroke-linejoin:round;stroke:rgb(0%,0%,0%);stroke-opacity:1;stroke-miterlimit:10;" d="M 32.265625 327.5625 L 12.265625 327.5625 L 12.265625 337.5625 L 32.265625 337.5625 L 32.265625 357.5625 L 42.265625 357.5625 L 42.265625 337.5625 L 62.265625 337.5625 L 62.265625 327.5625 L 42.265625 327.5625 L 42.265625 307.5625 L 32.265625 307.5625 L 32.265625 327.5625 "/>
<path style="fill-rule:nonzero;fill:rgb(25%,88%,82%);fill-opacity:1;stroke-width:1;stroke-linecap:butt;stroke-linejoin:round;stroke:rgb(0%,0%,0%);stroke-opacity:1;stroke-miterlimit:10;" d="M 31.074219 455.664062 L 11.074219 455.664062 L 11.074219 465.664062 L 31.074219 465.664062 L 31.074219 485.664062 L 41.074219 485.664062 L 41.074219 465.664062 L 61.074219 465.664062 L 61.074219 455.664062 L 41.074219 455.664062 L 41.074219 435.664062 L 31.074219 435.664062 L 31.074219 455.664062 "/>
</g>
</svg>
