<?xml version="1.0" encoding="UTF-8"?>
<svg xmlns="http://www.w3.org/2000/svg" xmlns:xlink="http://www.w3.org/1999/xlink" width="517pt" height="517pt" viewBox="0 0 517 517" version="1.1">
<g id="surface9306">
<rect x="0" y="0" width="517" height="517" style="fill:rgb(90%,90%,90%);fill-opacity:1;stroke:none;"/>
<path style="fill:none;stroke-width:5;stroke-linecap:butt;stroke-linejoin:round;stroke:rgb(100%,0%,0%);stroke-opacity:1;stroke-miterlimit:10;" d="M 5 5 L 261 5 L 261 261 L 5 261 Z M 5 5 "/>
<path style="fill-rule:nonzero;fill:rgb(67%,100%,18%);fill-opacity:1;stroke-width:1;stroke-linecap:butt;stroke-linejoin:round;stroke:rgb(0%,0%,0%);stroke-opacity:1;stroke-miterlimit:10;" d="M 83.949219 204.777344 L 63.949219 204.777344 L 63.949219 214.777344 L 83.949219 214.777344 L 83.949219 234.777344 L 93.949219 234.777344 L 93.949219 214.777344 L 113.949219 214.777344 L 113.949219 204.777344 L 93.949219 204.777344 L 93.949219 184.777344 L 83.949219 184.777344 L 83.949219 204.777344 "/>
<path style="fill-rule:nonzero;fill:rgb(90%,65%,0%);fill-opacity:1;stroke-width:1;stroke-linecap:butt;stroke-linejoin:round;stroke:rgb(0%,0%,0%);stroke-opacity:1;stroke-miterlimit:10;" d="M 304.792969 94.65625 L 284.792969 94.65625 L 284.792969 104.65625 L 304.792969 104.65625 L 304.792969 124.65625 L 314.792969 124.65625 L 314.792969 104.65625 L 334.792969 104.65625 L 334.792969 94.65625 L 314.792969 94.65625 L 314.792969 74.65625 L 304.792969 74.65625 L 304.792969 94.65625 "/>
<path style="fill-rule:nonzero;fill:rgb(90%,65%,0%);fill-opacity:1;stroke-width:1;stroke-linecap:butt;stroke-linejoin:round;stroke:rgb(0%,0%,0%);stroke-opacity:1;stroke-miterlimit:10;" d="M 430.9375 113.671875 L 410.9375 113.671875 L 410.9375 123.671875 L 430.9375 123.671875 L 430.9375 143.671875 L 440.9375 143.671875 L 440.9375 123.671875 L 460.9375 123.671875 L 460.9375 113.671875 L 440.9375 113.671875 L 440.9375 93.671875 L 430.9375 93.671875 L 430.9375 113.671875 "/>
<path style="fill-rule:nonzero;fill:rgb(90%,65%,0%);fill-opacity:1;stroke-width:1;stroke-linecap:butt;stroke-linejoin:round;stroke:rgb(0%,0%,0%);stroke-opacity:1;stroke-miterlimit:10;" d="M 174.183594 300.15625 L 154.183594 300.15625 L 154.183594 310.15625 L 174.183594 310.15625 L 174.183594 330.15625 L 184.183594 330.15625 L 184.183594 310.15625 L 204.183594 310.15625 L 204.183594 300.15625 L 184.183594 300.15625 L 184.183594 280.15625 L 174.183594 280.15625 L 174.183594 300.15625 "/>
<path style="fill-rule:nonzero;fill:rgb(90%,65%,0%);fill-opacity:1;stroke-width:1;stroke-linecap:butt;stroke-linejoin:round;stroke:rgb(0%,0%,0%);stroke-opacity:1;stroke-miterlimit:10;" d="M 179.09375 382.457031 L 159.09375 382.457031 L 159.09375 392.457031 L 179.09375 392.457031 L 179.09375 412.457031 L 189.09375 412.457031 L 189.09375 392.457031 L 209.09375 392.457031 L 209.09375 382.457031 L 189.09375 382.457031 L 189.09375 362.457031 L 179.09375 362.457031 L 179.09375 382.457031 "/>
<path style="fill-rule:nonzero;fill:rgb(90%,65%,0%);fill-opacity:1;stroke-width:1;stroke-linecap:butt;stroke-linejoin:round;stroke:rgb(0%,0%,0%);stroke-opacity:1;stroke-miterlimit:10;" d="M 68.894531 292.105469 L 48.894531 292.105469 L 48.894531 302.105469 L 68.894531 302.105469 L 68.894531 322.105469 L 78.894531 322.105469 L 78.894531 302.105469 L 98.894531 302.105469 L 98.894531 292.105469 L 78.894531 292.105469 L 78.894531 272.105469 L 68.894531 272.105469 L 68.894531 292.105469 "/>
</g>
</svg>
