<?xml version="1.0" encoding="UTF-8"?>
<svg xmlns="http://www.w3.org/2000/svg" xmlns:xlink="http://www.w3.org/1999/xlink" width="517pt" height="517pt" viewBox="0 0 517 517" version="1.1">
<g id="surface381">
<rect x="0" y="0" width="517" height="517" style="fill:rgb(90%,90%,90%);fill-opacity:1;stroke:none;"/>
<path style="fill:none;stroke-width:5;stroke-linecap:butt;stroke-linejoin:round;stroke:rgb(100%,0%,0%);stroke-opacity:1;stroke-miterlimit:10;" d="M 5 5 L 261 5 L 261 261 L 5 261 Z M 5 5 "/>
<path style="fill-rule:nonzero;fill:rgb(25%,88%,82%);fill-opacity:1;stroke-width:1;stroke-linecap:butt;stroke-linejoin:round;stroke:rgb(0%,0%,0%);stroke-opacity:1;stroke-miterlimit:10;" d="M 97.976562 33.355469 L 77.976562 33.355469 L 77.976562 43.355469 L 97.976562 43.355469 L 97.976562 63.355469 L 107.976562 63.355469 L 107.976562 43.355469 L 127.976562 43.355469 L 127.976562 33.355469 L 107.976562 33.355469 L 107.976562 13.355469 L 97.976562 13.355469 L 97.976562 33.355469 "/>
<path style="fill-rule:nonzero;fill:rgb(100%,100%,0%);fill-opacity:1;stroke-width:1;stroke-linecap:butt;stroke-linejoin:round;stroke:rgb(0%,0%,0%);stroke-opacity:1;stroke-miterlimit:10;" d="M 440.40625 68.140625 L 420.40625 68.140625 L 420.40625 78.140625 L 440.40625 78.140625 L 440.40625 98.140625 L 450.40625 98.140625 L 450.40625 78.140625 L 470.40625 78.140625 L 470.40625 68.140625 L 450.40625 68.140625 L 450.40625 48.140625 L 440.40625 48.140625 L 440.40625 68.140625 "/>
<path style="fill-rule:nonzero;fill:rgb(100%,100%,0%);fill-opacity:1;stroke-width:1;stroke-linecap:butt;stroke-linejoin:round;stroke:rgb(0%,0%,0%);stroke-opacity:1;stroke-miterlimit:10;" d="M 370.949219 310.09375 L 350.949219 310.09375 L 350.949219 320.09375 L 370.949219 320.09375 L 370.949219 340.09375 L 380.949219 340.09375 L 380.949219 320.09375 L 400.949219 320.09375 L 400.949219 310.09375 L 380.949219 310.09375 L 380.949219 290.09375 L 370.949219 290.09375 L 370.949219 310.09375 "/>
<path style="fill-rule:nonzero;fill:rgb(0%,0%,0%);fill-opacity:1;stroke-width:1;stroke-linecap:butt;stroke-linejoin:round;stroke:rgb(0%,0%,0%);stroke-opacity:1;stroke-miterlimit:10;" d="M 187.964844 458.25 L 167.964844 458.25 L 167.964844 468.25 L 187.964844 468.25 L 187.964844 488.25 L 197.964844 488.25 L 197.964844 468.25 L 217.964844 468.25 L 217.964844 458.25 L 197.964844 458.25 L 197.964844 438.25 L 187.964844 438.25 L 187.964844 458.25 "/>
</g>
</svg>
