<?xml version="1.0" encoding="UTF-8"?>
<svg xmlns="http://www.w3.org/2000/svg" xmlns:xlink="http://www.w3.org/1999/xlink" width="517pt" height="517pt" viewBox="0 0 517 517" version="1.1">
<g id="surface9076">
<rect x="0" y="0" width="517" height="517" style="fill:rgb(90%,90%,90%);fill-opacity:1;stroke:none;"/>
<path style="fill:none;stroke-width:5;stroke-linecap:butt;stroke-linejoin:round;stroke:rgb(100%,0%,0%);stroke-opacity:1;stroke-miterlimit:10;" d="M 5 261 L 261 261 L 261 517 L 5 517 Z M 5 261 "/>
<path style="fill-rule:nonzero;fill:rgb(50%,0%,50%);fill-opacity:1;stroke-width:1;stroke-linecap:butt;stroke-linejoin:round;stroke:rgb(0%,0%,0%);stroke-opacity:1;stroke-miterlimit:10;" d="M 169.429688 431.804688 L 149.429688 431.804688 L 149.429688 441.804688 L 169.429688 441.804688 L 169.429688 461.804688 L 179.429688 461.804688 L 179.429688 441.804688 L 199.429688 441.804688 L 199.429688 431.804688 L 179.429688 431.804688 L 179.429688 411.804688 L 169.429688 411.804688 L 169.429688 431.804688 "/>
<path style="fill-rule:nonzero;fill:rgb(90%,65%,0%);fill-opacity:1;stroke-width:1;stroke-linecap:butt;stroke-linejoin:round;stroke:rgb(0%,0%,0%);stroke-opacity:1;stroke-miterlimit:10;" d="M 200.101562 134.6875 L 180.101562 134.6875 L 180.101562 144.6875 L 200.101562 144.6875 L 200.101562 164.6875 L 210.101562 164.6875 L 210.101562 144.6875 L 230.101562 144.6875 L 230.101562 134.6875 L 210.101562 134.6875 L 210.101562 114.6875 L 200.101562 114.6875 L 200.101562 134.6875 "/>
<path style="fill-rule:nonzero;fill:rgb(90%,65%,0%);fill-opacity:1;stroke-width:1;stroke-linecap:butt;stroke-linejoin:round;stroke:rgb(0%,0%,0%);stroke-opacity:1;stroke-miterlimit:10;" d="M 85.109375 207.175781 L 65.109375 207.175781 L 65.109375 217.175781 L 85.109375 217.175781 L 85.109375 237.175781 L 95.109375 237.175781 L 95.109375 217.175781 L 115.109375 217.175781 L 115.109375 207.175781 L 95.109375 207.175781 L 95.109375 187.175781 L 85.109375 187.175781 L 85.109375 207.175781 "/>
<path style="fill-rule:nonzero;fill:rgb(90%,65%,0%);fill-opacity:1;stroke-width:1;stroke-linecap:butt;stroke-linejoin:round;stroke:rgb(0%,0%,0%);stroke-opacity:1;stroke-miterlimit:10;" d="M 417.234375 203.773438 L 397.234375 203.773438 L 397.234375 213.773438 L 417.234375 213.773438 L 417.234375 233.773438 L 427.234375 233.773438 L 427.234375 213.773438 L 447.234375 213.773438 L 447.234375 203.773438 L 427.234375 203.773438 L 427.234375 183.773438 L 417.234375 183.773438 L 417.234375 203.773438 "/>
<path style="fill-rule:nonzero;fill:rgb(90%,65%,0%);fill-opacity:1;stroke-width:1;stroke-linecap:butt;stroke-linejoin:round;stroke:rgb(0%,0%,0%);stroke-opacity:1;stroke-miterlimit:10;" d="M 359.289062 41.605469 L 339.289062 41.605469 L 339.289062 51.605469 L 359.289062 51.605469 L 359.289062 71.605469 L 369.289062 71.605469 L 369.289062 51.605469 L 389.289062 51.605469 L 389.289062 41.605469 L 369.289062 41.605469 L 369.289062 21.605469 L 359.289062 21.605469 L 359.289062 41.605469 "/>
</g>
</svg>
