<?xml version="1.0" encoding="UTF-8"?>
<svg xmlns="http://www.w3.org/2000/svg" xmlns:xlink="http://www.w3.org/1999/xlink" width="517pt" height="517pt" viewBox="0 0 517 517" version="1.1">
<g id="surface9376">
<rect x="0" y="0" width="517" height="517" style="fill:rgb(90%,90%,90%);fill-opacity:1;stroke:none;"/>
<path style="fill:none;stroke-width:5;stroke-linecap:butt;stroke-linejoin:round;stroke:rgb(100%,0%,0%);stroke-opacity:1;stroke-miterlimit:10;" d="M 5 261 L 261 261 L 261 517 L 5 517 Z M 5 261 "/>
<path style="fill-rule:nonzero;fill:rgb(100%,0%,0%);fill-opacity:1;stroke-width:1;stroke-linecap:butt;stroke-linejoin:round;stroke:rgb(0%,0%,0%);stroke-opacity:1;stroke-miterlimit:10;" d="M 91.09375 393.632812 L 71.09375 393.632812 L 71.09375 403.632812 L 91.09375 403.632812 L 91.09375 423.632812 L 101.09375 423.632812 L 101.09375 403.632812 L 121.09375 403.632812 L 121.09375 393.632812 L 101.09375 393.632812 L 101.09375 373.632812 L 91.09375 373.632812 L 91.09375 393.632812 "/>
<path style="fill-rule:nonzero;fill:rgb(100%,0%,0%);fill-opacity:1;stroke-width:1;stroke-linecap:butt;stroke-linejoin:round;stroke:rgb(0%,0%,0%);stroke-opacity:1;stroke-miterlimit:10;" d="M 33.5625 163.046875 L 13.5625 163.046875 L 13.5625 173.046875 L 33.5625 173.046875 L 33.5625 193.046875 L 43.5625 193.046875 L 43.5625 173.046875 L 63.5625 173.046875 L 63.5625 163.046875 L 43.5625 163.046875 L 43.5625 143.046875 L 33.5625 143.046875 L 33.5625 163.046875 "/>
<path style="fill-rule:nonzero;fill:rgb(100%,0%,0%);fill-opacity:1;stroke-width:1;stroke-linecap:butt;stroke-linejoin:round;stroke:rgb(0%,0%,0%);stroke-opacity:1;stroke-miterlimit:10;" d="M 130 75.402344 L 110 75.402344 L 110 85.402344 L 130 85.402344 L 130 105.402344 L 140 105.402344 L 140 85.402344 L 160 85.402344 L 160 75.402344 L 140 75.402344 L 140 55.402344 L 130 55.402344 L 130 75.402344 "/>
<path style="fill-rule:nonzero;fill:rgb(100%,0%,0%);fill-opacity:1;stroke-width:1;stroke-linecap:butt;stroke-linejoin:round;stroke:rgb(0%,0%,0%);stroke-opacity:1;stroke-miterlimit:10;" d="M 443.4375 193.183594 L 423.4375 193.183594 L 423.4375 203.183594 L 443.4375 203.183594 L 443.4375 223.183594 L 453.4375 223.183594 L 453.4375 203.183594 L 473.4375 203.183594 L 473.4375 193.183594 L 453.4375 193.183594 L 453.4375 173.183594 L 443.4375 173.183594 L 443.4375 193.183594 "/>
<path style="fill-rule:nonzero;fill:rgb(100%,0%,0%);fill-opacity:1;stroke-width:1;stroke-linecap:butt;stroke-linejoin:round;stroke:rgb(0%,0%,0%);stroke-opacity:1;stroke-miterlimit:10;" d="M 343.046875 164.960938 L 323.046875 164.960938 L 323.046875 174.960938 L 343.046875 174.960938 L 343.046875 194.960938 L 353.046875 194.960938 L 353.046875 174.960938 L 373.046875 174.960938 L 373.046875 164.960938 L 353.046875 164.960938 L 353.046875 144.960938 L 343.046875 144.960938 L 343.046875 164.960938 "/>
<path style="fill-rule:nonzero;fill:rgb(100%,0%,0%);fill-opacity:1;stroke-width:1;stroke-linecap:butt;stroke-linejoin:round;stroke:rgb(0%,0%,0%);stroke-opacity:1;stroke-miterlimit:10;" d="M 456.210938 65.648438 L 436.210938 65.648438 L 436.210938 75.648438 L 456.210938 75.648438 L 456.210938 95.648438 L 466.210938 95.648438 L 466.210938 75.648438 L 486.210938 75.648438 L 486.210938 65.648438 L 466.210938 65.648438 L 466.210938 45.648438 L 456.210938 45.648438 L 456.210938 65.648438 "/>
</g>
</svg>
