<?xml version="1.0" encoding="UTF-8"?>
<svg xmlns="http://www.w3.org/2000/svg" xmlns:xlink="http://www.w3.org/1999/xlink" width="517pt" height="517pt" viewBox="0 0 517 517" version="1.1">
<g id="surface3946">
<rect x="0" y="0" width="517" height="517" style="fill:rgb(90%,90%,90%);fill-opacity:1;stroke:none;"/>
<path style="fill:none;stroke-width:5;stroke-linecap:butt;stroke-linejoin:round;stroke:rgb(100%,0%,0%);stroke-opacity:1;stroke-miterlimit:10;" d="M 5 5 L 261 5 L 261 261 L 5 261 Z M 5 5 "/>
<path style="fill-rule:nonzero;fill:rgb(0%,0%,0%);fill-opacity:1;stroke-width:1;stroke-linecap:butt;stroke-linejoin:round;stroke:rgb(0%,0%,0%);stroke-opacity:1;stroke-miterlimit:10;" d="M 210.800781 98.9375 L 190.800781 98.9375 L 190.800781 108.9375 L 210.800781 108.9375 L 210.800781 128.9375 L 220.800781 128.9375 L 220.800781 108.9375 L 240.800781 108.9375 L 240.800781 98.9375 L 220.800781 98.9375 L 220.800781 78.9375 L 210.800781 78.9375 L 210.800781 98.9375 "/>
<path style="fill-rule:nonzero;fill:rgb(50%,0%,50%);fill-opacity:1;stroke-width:1;stroke-linecap:butt;stroke-linejoin:round;stroke:rgb(0%,0%,0%);stroke-opacity:1;stroke-miterlimit:10;" d="M 460.929688 420.871094 L 440.929688 420.871094 L 440.929688 430.871094 L 460.929688 430.871094 L 460.929688 450.871094 L 470.929688 450.871094 L 470.929688 430.871094 L 490.929688 430.871094 L 490.929688 420.871094 L 470.929688 420.871094 L 470.929688 400.871094 L 460.929688 400.871094 L 460.929688 420.871094 "/>
<path style="fill-rule:nonzero;fill:rgb(50%,0%,50%);fill-opacity:1;stroke-width:1;stroke-linecap:butt;stroke-linejoin:round;stroke:rgb(0%,0%,0%);stroke-opacity:1;stroke-miterlimit:10;" d="M 424.644531 303.175781 L 404.644531 303.175781 L 404.644531 313.175781 L 424.644531 313.175781 L 424.644531 333.175781 L 434.644531 333.175781 L 434.644531 313.175781 L 454.644531 313.175781 L 454.644531 303.175781 L 434.644531 303.175781 L 434.644531 283.175781 L 424.644531 283.175781 L 424.644531 303.175781 "/>
<path style="fill-rule:nonzero;fill:rgb(50%,0%,50%);fill-opacity:1;stroke-width:1;stroke-linecap:butt;stroke-linejoin:round;stroke:rgb(0%,0%,0%);stroke-opacity:1;stroke-miterlimit:10;" d="M 176.410156 372.359375 L 156.410156 372.359375 L 156.410156 382.359375 L 176.410156 382.359375 L 176.410156 402.359375 L 186.410156 402.359375 L 186.410156 382.359375 L 206.410156 382.359375 L 206.410156 372.359375 L 186.410156 372.359375 L 186.410156 352.359375 L 176.410156 352.359375 L 176.410156 372.359375 "/>
<path style="fill-rule:nonzero;fill:rgb(50%,0%,50%);fill-opacity:1;stroke-width:1;stroke-linecap:butt;stroke-linejoin:round;stroke:rgb(0%,0%,0%);stroke-opacity:1;stroke-miterlimit:10;" d="M 387.125 203.429688 L 367.125 203.429688 L 367.125 213.429688 L 387.125 213.429688 L 387.125 233.429688 L 397.125 233.429688 L 397.125 213.429688 L 417.125 213.429688 L 417.125 203.429688 L 397.125 203.429688 L 397.125 183.429688 L 387.125 183.429688 L 387.125 203.429688 "/>
<path style="fill-rule:nonzero;fill:rgb(0%,0%,0%);fill-opacity:1;stroke-width:1;stroke-linecap:butt;stroke-linejoin:round;stroke:rgb(0%,0%,0%);stroke-opacity:1;stroke-miterlimit:10;" d="M 350.242188 125.574219 L 330.242188 125.574219 L 330.242188 135.574219 L 350.242188 135.574219 L 350.242188 155.574219 L 360.242188 155.574219 L 360.242188 135.574219 L 380.242188 135.574219 L 380.242188 125.574219 L 360.242188 125.574219 L 360.242188 105.574219 L 350.242188 105.574219 L 350.242188 125.574219 "/>
</g>
</svg>
