<?xml version="1.0" encoding="UTF-8"?>
<svg xmlns="http://www.w3.org/2000/svg" xmlns:xlink="http://www.w3.org/1999/xlink" width="517pt" height="517pt" viewBox="0 0 517 517" version="1.1">
<g id="surface4296">
<rect x="0" y="0" width="517" height="517" style="fill:rgb(90%,90%,90%);fill-opacity:1;stroke:none;"/>
<path style="fill:none;stroke-width:5;stroke-linecap:butt;stroke-linejoin:round;stroke:rgb(100%,0%,0%);stroke-opacity:1;stroke-miterlimit:10;" d="M 261 5 L 517 5 L 517 261 L 261 261 Z M 261 5 "/>
<path style="fill-rule:nonzero;fill:rgb(25%,88%,82%);fill-opacity:1;stroke-width:1;stroke-linecap:butt;stroke-linejoin:round;stroke:rgb(0%,0%,0%);stroke-opacity:1;stroke-miterlimit:10;" d="M 377.75 36.183594 L 357.75 36.183594 L 357.75 46.183594 L 377.75 46.183594 L 377.75 66.183594 L 387.75 66.183594 L 387.75 46.183594 L 407.75 46.183594 L 407.75 36.183594 L 387.75 36.183594 L 387.75 16.183594 L 377.75 16.183594 L 377.75 36.183594 "/>
<path style="fill-rule:nonzero;fill:rgb(90%,65%,0%);fill-opacity:1;stroke-width:1;stroke-linecap:butt;stroke-linejoin:round;stroke:rgb(0%,0%,0%);stroke-opacity:1;stroke-miterlimit:10;" d="M 131.914062 401.027344 L 111.914062 401.027344 L 111.914062 411.027344 L 131.914062 411.027344 L 131.914062 431.027344 L 141.914062 431.027344 L 141.914062 411.027344 L 161.914062 411.027344 L 161.914062 401.027344 L 141.914062 401.027344 L 141.914062 381.027344 L 131.914062 381.027344 L 131.914062 401.027344 "/>
<path style="fill-rule:nonzero;fill:rgb(25%,88%,82%);fill-opacity:1;stroke-width:1;stroke-linecap:butt;stroke-linejoin:round;stroke:rgb(0%,0%,0%);stroke-opacity:1;stroke-miterlimit:10;" d="M 397.164062 288.722656 L 377.164062 288.722656 L 377.164062 298.722656 L 397.164062 298.722656 L 397.164062 318.722656 L 407.164062 318.722656 L 407.164062 298.722656 L 427.164062 298.722656 L 427.164062 288.722656 L 407.164062 288.722656 L 407.164062 268.722656 L 397.164062 268.722656 L 397.164062 288.722656 "/>
<path style="fill-rule:nonzero;fill:rgb(25%,88%,82%);fill-opacity:1;stroke-width:1;stroke-linecap:butt;stroke-linejoin:round;stroke:rgb(0%,0%,0%);stroke-opacity:1;stroke-miterlimit:10;" d="M 432.171875 458.816406 L 412.171875 458.816406 L 412.171875 468.816406 L 432.171875 468.816406 L 432.171875 488.816406 L 442.171875 488.816406 L 442.171875 468.816406 L 462.171875 468.816406 L 462.171875 458.816406 L 442.171875 458.816406 L 442.171875 438.816406 L 432.171875 438.816406 L 432.171875 458.816406 "/>
<path style="fill-rule:nonzero;fill:rgb(25%,88%,82%);fill-opacity:1;stroke-width:1;stroke-linecap:butt;stroke-linejoin:round;stroke:rgb(0%,0%,0%);stroke-opacity:1;stroke-miterlimit:10;" d="M 332.191406 295.390625 L 312.191406 295.390625 L 312.191406 305.390625 L 332.191406 305.390625 L 332.191406 325.390625 L 342.191406 325.390625 L 342.191406 305.390625 L 362.191406 305.390625 L 362.191406 295.390625 L 342.191406 295.390625 L 342.191406 275.390625 L 332.191406 275.390625 L 332.191406 295.390625 "/>
<path style="fill-rule:nonzero;fill:rgb(25%,88%,82%);fill-opacity:1;stroke-width:1;stroke-linecap:butt;stroke-linejoin:round;stroke:rgb(0%,0%,0%);stroke-opacity:1;stroke-miterlimit:10;" d="M 294.171875 383.535156 L 274.171875 383.535156 L 274.171875 393.535156 L 294.171875 393.535156 L 294.171875 413.535156 L 304.171875 413.535156 L 304.171875 393.535156 L 324.171875 393.535156 L 324.171875 383.535156 L 304.171875 383.535156 L 304.171875 363.535156 L 294.171875 363.535156 L 294.171875 383.535156 "/>
</g>
</svg>
