<?xml version="1.0" encoding="UTF-8"?>
<svg xmlns="http://www.w3.org/2000/svg" xmlns:xlink="http://www.w3.org/1999/xlink" width="517pt" height="517pt" viewBox="0 0 517 517" version="1.1">
<g id="surface4576">
<rect x="0" y="0" width="517" height="517" style="fill:rgb(90%,90%,90%);fill-opacity:1;stroke:none;"/>
<path style="fill:none;stroke-width:5;stroke-linecap:butt;stroke-linejoin:round;stroke:rgb(100%,0%,0%);stroke-opacity:1;stroke-miterlimit:10;" d="M 5 261 L 261 261 L 261 517 L 5 517 Z M 5 261 "/>
<path style="fill-rule:nonzero;fill:rgb(53%,27%,7%);fill-opacity:1;stroke-width:1;stroke-linecap:butt;stroke-linejoin:round;stroke:rgb(0%,0%,0%);stroke-opacity:1;stroke-miterlimit:10;" d="M 164.464844 438.253906 C 164.464844 423.851562 140.464844 423.851562 140.464844 438.253906 C 140.464844 452.652344 164.464844 455.050781 164.464844 467.050781 C 164.464844 455.050781 188.464844 452.652344 188.464844 438.253906 C 188.464844 423.851562 164.464844 423.851562 164.464844 438.253906 "/>
<path style="fill-rule:nonzero;fill:rgb(100%,100%,0%);fill-opacity:1;stroke-width:1;stroke-linecap:butt;stroke-linejoin:round;stroke:rgb(0%,0%,0%);stroke-opacity:1;stroke-miterlimit:10;" d="M 460.113281 163.253906 C 460.113281 148.851562 436.113281 148.851562 436.113281 163.253906 C 436.113281 177.652344 460.113281 180.054688 460.113281 192.054688 C 460.113281 180.054688 484.113281 177.652344 484.113281 163.253906 C 484.113281 148.851562 460.113281 148.851562 460.113281 163.253906 "/>
<path style="fill-rule:nonzero;fill:rgb(100%,100%,0%);fill-opacity:1;stroke-width:1;stroke-linecap:butt;stroke-linejoin:round;stroke:rgb(0%,0%,0%);stroke-opacity:1;stroke-miterlimit:10;" d="M 348.507812 102.699219 C 348.507812 88.300781 324.507812 88.300781 324.507812 102.699219 C 324.507812 117.101562 348.507812 119.5 348.507812 131.5 C 348.507812 119.5 372.507812 117.101562 372.507812 102.699219 C 372.507812 88.300781 348.507812 88.300781 348.507812 102.699219 "/>
<path style="fill-rule:nonzero;fill:rgb(100%,100%,0%);fill-opacity:1;stroke-width:1;stroke-linecap:butt;stroke-linejoin:round;stroke:rgb(0%,0%,0%);stroke-opacity:1;stroke-miterlimit:10;" d="M 66.570312 165.785156 C 66.570312 151.386719 42.570312 151.386719 42.570312 165.785156 C 42.570312 180.183594 66.570312 182.585938 66.570312 194.585938 C 66.570312 182.585938 90.570312 180.183594 90.570312 165.785156 C 90.570312 151.386719 66.570312 151.386719 66.570312 165.785156 "/>
<path style="fill-rule:nonzero;fill:rgb(100%,100%,0%);fill-opacity:1;stroke-width:1;stroke-linecap:butt;stroke-linejoin:round;stroke:rgb(0%,0%,0%);stroke-opacity:1;stroke-miterlimit:10;" d="M 63.882812 38.285156 C 63.882812 23.886719 39.882812 23.886719 39.882812 38.285156 C 39.882812 52.6875 63.882812 55.085938 63.882812 67.085938 C 63.882812 55.085938 87.882812 52.6875 87.882812 38.285156 C 87.882812 23.886719 63.882812 23.886719 63.882812 38.285156 "/>
<path style="fill-rule:nonzero;fill:rgb(100%,100%,0%);fill-opacity:1;stroke-width:1;stroke-linecap:butt;stroke-linejoin:round;stroke:rgb(0%,0%,0%);stroke-opacity:1;stroke-miterlimit:10;" d="M 132.367188 194.148438 C 132.367188 179.75 108.367188 179.75 108.367188 194.148438 C 108.367188 208.546875 132.367188 210.949219 132.367188 222.949219 C 132.367188 210.949219 156.367188 208.546875 156.367188 194.148438 C 156.367188 179.75 132.367188 179.75 132.367188 194.148438 "/>
</g>
</svg>
