<?xml version="1.0" encoding="UTF-8"?>
<svg xmlns="http://www.w3.org/2000/svg" xmlns:xlink="http://www.w3.org/1999/xlink" width="517pt" height="517pt" viewBox="0 0 517 517" version="1.1">
<g id="surface4286">
<rect x="0" y="0" width="517" height="517" style="fill:rgb(90%,90%,90%);fill-opacity:1;stroke:none;"/>
<path style="fill:none;stroke-width:5;stroke-linecap:butt;stroke-linejoin:round;stroke:rgb(100%,0%,0%);stroke-opacity:1;stroke-miterlimit:10;" d="M 261 5 L 517 5 L 517 261 L 261 261 Z M 261 5 "/>
<path style="fill-rule:nonzero;fill:rgb(25%,88%,82%);fill-opacity:1;stroke-width:1;stroke-linecap:butt;stroke-linejoin:round;stroke:rgb(0%,0%,0%);stroke-opacity:1;stroke-miterlimit:10;" d="M 405.105469 95.65625 L 385.105469 95.65625 L 385.105469 105.65625 L 405.105469 105.65625 L 405.105469 125.65625 L 415.105469 125.65625 L 415.105469 105.65625 L 435.105469 105.65625 L 435.105469 95.65625 L 415.105469 95.65625 L 415.105469 75.65625 L 405.105469 75.65625 L 405.105469 95.65625 "/>
<path style="fill-rule:nonzero;fill:rgb(90%,65%,0%);fill-opacity:1;stroke-width:1;stroke-linecap:butt;stroke-linejoin:round;stroke:rgb(0%,0%,0%);stroke-opacity:1;stroke-miterlimit:10;" d="M 49.476562 101.320312 L 29.476562 101.320312 L 29.476562 111.320312 L 49.476562 111.320312 L 49.476562 131.320312 L 59.476562 131.320312 L 59.476562 111.320312 L 79.476562 111.320312 L 79.476562 101.320312 L 59.476562 101.320312 L 59.476562 81.320312 L 49.476562 81.320312 L 49.476562 101.320312 "/>
<path style="fill-rule:nonzero;fill:rgb(25%,88%,82%);fill-opacity:1;stroke-width:1;stroke-linecap:butt;stroke-linejoin:round;stroke:rgb(0%,0%,0%);stroke-opacity:1;stroke-miterlimit:10;" d="M 150.113281 60.324219 L 130.113281 60.324219 L 130.113281 70.324219 L 150.113281 70.324219 L 150.113281 90.324219 L 160.113281 90.324219 L 160.113281 70.324219 L 180.113281 70.324219 L 180.113281 60.324219 L 160.113281 60.324219 L 160.113281 40.324219 L 150.113281 40.324219 L 150.113281 60.324219 "/>
<path style="fill-rule:nonzero;fill:rgb(25%,88%,82%);fill-opacity:1;stroke-width:1;stroke-linecap:butt;stroke-linejoin:round;stroke:rgb(0%,0%,0%);stroke-opacity:1;stroke-miterlimit:10;" d="M 371.71875 416.683594 L 351.71875 416.683594 L 351.71875 426.683594 L 371.71875 426.683594 L 371.71875 446.683594 L 381.71875 446.683594 L 381.71875 426.683594 L 401.71875 426.683594 L 401.71875 416.683594 L 381.71875 416.683594 L 381.71875 396.683594 L 371.71875 396.683594 L 371.71875 416.683594 "/>
<path style="fill-rule:nonzero;fill:rgb(25%,88%,82%);fill-opacity:1;stroke-width:1;stroke-linecap:butt;stroke-linejoin:round;stroke:rgb(0%,0%,0%);stroke-opacity:1;stroke-miterlimit:10;" d="M 411.445312 363.664062 L 391.445312 363.664062 L 391.445312 373.664062 L 411.445312 373.664062 L 411.445312 393.664062 L 421.445312 393.664062 L 421.445312 373.664062 L 441.445312 373.664062 L 441.445312 363.664062 L 421.445312 363.664062 L 421.445312 343.664062 L 411.445312 343.664062 L 411.445312 363.664062 "/>
<path style="fill-rule:nonzero;fill:rgb(25%,88%,82%);fill-opacity:1;stroke-width:1;stroke-linecap:butt;stroke-linejoin:round;stroke:rgb(0%,0%,0%);stroke-opacity:1;stroke-miterlimit:10;" d="M 199.6875 315.183594 L 179.6875 315.183594 L 179.6875 325.183594 L 199.6875 325.183594 L 199.6875 345.183594 L 209.6875 345.183594 L 209.6875 325.183594 L 229.6875 325.183594 L 229.6875 315.183594 L 209.6875 315.183594 L 209.6875 295.183594 L 199.6875 295.183594 L 199.6875 315.183594 "/>
</g>
</svg>
