<?xml version="1.0" encoding="UTF-8"?>
<svg xmlns="http://www.w3.org/2000/svg" xmlns:xlink="http://www.w3.org/1999/xlink" width="517pt" height="517pt" viewBox="0 0 517 517" version="1.1">
<g id="surface321">
<rect x="0" y="0" width="517" height="517" style="fill:rgb(90%,90%,90%);fill-opacity:1;stroke:none;"/>
<path style="fill:none;stroke-width:5;stroke-linecap:butt;stroke-linejoin:round;stroke:rgb(100%,0%,0%);stroke-opacity:1;stroke-miterlimit:10;" d="M 5 5 L 261 5 L 261 261 L 5 261 Z M 5 5 "/>
<path style="fill-rule:nonzero;fill:rgb(0%,0%,0%);fill-opacity:1;stroke-width:1;stroke-linecap:butt;stroke-linejoin:round;stroke:rgb(0%,0%,0%);stroke-opacity:1;stroke-miterlimit:10;" d="M 163.984375 95.078125 L 143.984375 95.078125 L 143.984375 105.078125 L 163.984375 105.078125 L 163.984375 125.078125 L 173.984375 125.078125 L 173.984375 105.078125 L 193.984375 105.078125 L 193.984375 95.078125 L 173.984375 95.078125 L 173.984375 75.078125 L 163.984375 75.078125 L 163.984375 95.078125 "/>
<path style="fill-rule:nonzero;fill:rgb(100%,100%,0%);fill-opacity:1;stroke-width:1;stroke-linecap:butt;stroke-linejoin:round;stroke:rgb(0%,0%,0%);stroke-opacity:1;stroke-miterlimit:10;" d="M 363.863281 409.238281 L 343.863281 409.238281 L 343.863281 419.238281 L 363.863281 419.238281 L 363.863281 439.238281 L 373.863281 439.238281 L 373.863281 419.238281 L 393.863281 419.238281 L 393.863281 409.238281 L 373.863281 409.238281 L 373.863281 389.238281 L 363.863281 389.238281 L 363.863281 409.238281 "/>
<path style="fill-rule:nonzero;fill:rgb(100%,100%,0%);fill-opacity:1;stroke-width:1;stroke-linecap:butt;stroke-linejoin:round;stroke:rgb(0%,0%,0%);stroke-opacity:1;stroke-miterlimit:10;" d="M 286.476562 331.519531 L 266.476562 331.519531 L 266.476562 341.519531 L 286.476562 341.519531 L 286.476562 361.519531 L 296.476562 361.519531 L 296.476562 341.519531 L 316.476562 341.519531 L 316.476562 331.519531 L 296.476562 331.519531 L 296.476562 311.519531 L 286.476562 311.519531 L 286.476562 331.519531 "/>
<path style="fill-rule:nonzero;fill:rgb(100%,100%,0%);fill-opacity:1;stroke-width:1;stroke-linecap:butt;stroke-linejoin:round;stroke:rgb(0%,0%,0%);stroke-opacity:1;stroke-miterlimit:10;" d="M 199.347656 296.761719 L 179.347656 296.761719 L 179.347656 306.761719 L 199.347656 306.761719 L 199.347656 326.761719 L 209.347656 326.761719 L 209.347656 306.761719 L 229.347656 306.761719 L 229.347656 296.761719 L 209.347656 296.761719 L 209.347656 276.761719 L 199.347656 276.761719 L 199.347656 296.761719 "/>
</g>
</svg>
