<?xml version="1.0" encoding="UTF-8"?>
<svg xmlns="http://www.w3.org/2000/svg" xmlns:xlink="http://www.w3.org/1999/xlink" width="517pt" height="517pt" viewBox="0 0 517 517" version="1.1">
<g id="surface9356">
<rect x="0" y="0" width="517" height="517" style="fill:rgb(90%,90%,90%);fill-opacity:1;stroke:none;"/>
<path style="fill:none;stroke-width:5;stroke-linecap:butt;stroke-linejoin:round;stroke:rgb(100%,0%,0%);stroke-opacity:1;stroke-miterlimit:10;" d="M 5 5 L 261 5 L 261 261 L 5 261 Z M 5 5 "/>
<path style="fill-rule:nonzero;fill:rgb(90%,65%,0%);fill-opacity:1;stroke-width:1;stroke-linecap:butt;stroke-linejoin:round;stroke:rgb(0%,0%,0%);stroke-opacity:1;stroke-miterlimit:10;" d="M 41.761719 210.351562 L 21.761719 210.351562 L 21.761719 220.351562 L 41.761719 220.351562 L 41.761719 240.351562 L 51.761719 240.351562 L 51.761719 220.351562 L 71.761719 220.351562 L 71.761719 210.351562 L 51.761719 210.351562 L 51.761719 190.351562 L 41.761719 190.351562 L 41.761719 210.351562 "/>
<path style="fill-rule:nonzero;fill:rgb(90%,65%,0%);fill-opacity:1;stroke-width:1;stroke-linecap:butt;stroke-linejoin:round;stroke:rgb(0%,0%,0%);stroke-opacity:1;stroke-miterlimit:10;" d="M 113.84375 336.59375 L 93.84375 336.59375 L 93.84375 346.59375 L 113.84375 346.59375 L 113.84375 366.59375 L 123.84375 366.59375 L 123.84375 346.59375 L 143.84375 346.59375 L 143.84375 336.59375 L 123.84375 336.59375 L 123.84375 316.59375 L 113.84375 316.59375 L 113.84375 336.59375 "/>
<path style="fill-rule:nonzero;fill:rgb(90%,65%,0%);fill-opacity:1;stroke-width:1;stroke-linecap:butt;stroke-linejoin:round;stroke:rgb(0%,0%,0%);stroke-opacity:1;stroke-miterlimit:10;" d="M 31.300781 373.925781 L 11.300781 373.925781 L 11.300781 383.925781 L 31.300781 383.925781 L 31.300781 403.925781 L 41.300781 403.925781 L 41.300781 383.925781 L 61.300781 383.925781 L 61.300781 373.925781 L 41.300781 373.925781 L 41.300781 353.925781 L 31.300781 353.925781 L 31.300781 373.925781 "/>
<path style="fill-rule:nonzero;fill:rgb(90%,65%,0%);fill-opacity:1;stroke-width:1;stroke-linecap:butt;stroke-linejoin:round;stroke:rgb(0%,0%,0%);stroke-opacity:1;stroke-miterlimit:10;" d="M 336.078125 376.609375 L 316.078125 376.609375 L 316.078125 386.609375 L 336.078125 386.609375 L 336.078125 406.609375 L 346.078125 406.609375 L 346.078125 386.609375 L 366.078125 386.609375 L 366.078125 376.609375 L 346.078125 376.609375 L 346.078125 356.609375 L 336.078125 356.609375 L 336.078125 376.609375 "/>
<path style="fill-rule:nonzero;fill:rgb(90%,65%,0%);fill-opacity:1;stroke-width:1;stroke-linecap:butt;stroke-linejoin:round;stroke:rgb(0%,0%,0%);stroke-opacity:1;stroke-miterlimit:10;" d="M 389.503906 434.785156 L 369.503906 434.785156 L 369.503906 444.785156 L 389.503906 444.785156 L 389.503906 464.785156 L 399.503906 464.785156 L 399.503906 444.785156 L 419.503906 444.785156 L 419.503906 434.785156 L 399.503906 434.785156 L 399.503906 414.785156 L 389.503906 414.785156 L 389.503906 434.785156 "/>
<path style="fill-rule:nonzero;fill:rgb(90%,65%,0%);fill-opacity:1;stroke-width:1;stroke-linecap:butt;stroke-linejoin:round;stroke:rgb(0%,0%,0%);stroke-opacity:1;stroke-miterlimit:10;" d="M 458.195312 425.921875 L 438.195312 425.921875 L 438.195312 435.921875 L 458.195312 435.921875 L 458.195312 455.921875 L 468.195312 455.921875 L 468.195312 435.921875 L 488.195312 435.921875 L 488.195312 425.921875 L 468.195312 425.921875 L 468.195312 405.921875 L 458.195312 405.921875 L 458.195312 425.921875 "/>
</g>
</svg>
