<?xml version="1.0" encoding="UTF-8"?>
<svg xmlns="http://www.w3.org/2000/svg" xmlns:xlink="http://www.w3.org/1999/xlink" width="517pt" height="517pt" viewBox="0 0 517 517" version="1.1">
<g id="surface4191">
<rect x="0" y="0" width="517" height="517" style="fill:rgb(90%,90%,90%);fill-opacity:1;stroke:none;"/>
<path style="fill:none;stroke-width:5;stroke-linecap:butt;stroke-linejoin:round;stroke:rgb(100%,0%,0%);stroke-opacity:1;stroke-miterlimit:10;" d="M 261 5 L 517 5 L 517 261 L 261 261 Z M 261 5 "/>
<path style="fill-rule:nonzero;fill:rgb(35%,70%,90%);fill-opacity:1;stroke-width:1;stroke-linecap:butt;stroke-linejoin:round;stroke:rgb(0%,0%,0%);stroke-opacity:1;stroke-miterlimit:10;" d="M 404.054688 208.621094 C 404.054688 225.1875 390.621094 238.621094 374.054688 238.621094 C 357.484375 238.621094 344.054688 225.1875 344.054688 208.621094 C 344.054688 192.050781 357.484375 178.621094 374.054688 178.621094 C 390.621094 178.621094 404.054688 192.050781 404.054688 208.621094 "/>
<path style="fill-rule:nonzero;fill:rgb(100%,0%,0%);fill-opacity:1;stroke-width:1;stroke-linecap:butt;stroke-linejoin:round;stroke:rgb(0%,0%,0%);stroke-opacity:1;stroke-miterlimit:10;" d="M 93.757812 450.003906 C 93.757812 466.574219 80.328125 480.003906 63.757812 480.003906 C 47.191406 480.003906 33.757812 466.574219 33.757812 450.003906 C 33.757812 433.4375 47.191406 420.003906 63.757812 420.003906 C 80.328125 420.003906 93.757812 433.4375 93.757812 450.003906 "/>
<path style="fill-rule:nonzero;fill:rgb(100%,0%,0%);fill-opacity:1;stroke-width:1;stroke-linecap:butt;stroke-linejoin:round;stroke:rgb(0%,0%,0%);stroke-opacity:1;stroke-miterlimit:10;" d="M 247.136719 423.863281 C 247.136719 440.433594 233.707031 453.863281 217.136719 453.863281 C 200.570312 453.863281 187.136719 440.433594 187.136719 423.863281 C 187.136719 407.296875 200.570312 393.863281 217.136719 393.863281 C 233.707031 393.863281 247.136719 407.296875 247.136719 423.863281 "/>
<path style="fill-rule:nonzero;fill:rgb(100%,0%,0%);fill-opacity:1;stroke-width:1;stroke-linecap:butt;stroke-linejoin:round;stroke:rgb(0%,0%,0%);stroke-opacity:1;stroke-miterlimit:10;" d="M 430.859375 340.992188 C 430.859375 357.558594 417.425781 370.992188 400.859375 370.992188 C 384.289062 370.992188 370.859375 357.558594 370.859375 340.992188 C 370.859375 324.421875 384.289062 310.992188 400.859375 310.992188 C 417.425781 310.992188 430.859375 324.421875 430.859375 340.992188 "/>
<path style="fill-rule:nonzero;fill:rgb(100%,0%,0%);fill-opacity:1;stroke-width:1;stroke-linecap:butt;stroke-linejoin:round;stroke:rgb(0%,0%,0%);stroke-opacity:1;stroke-miterlimit:10;" d="M 348.355469 444.507812 C 348.355469 461.074219 334.925781 474.507812 318.355469 474.507812 C 301.785156 474.507812 288.355469 461.074219 288.355469 444.507812 C 288.355469 427.9375 301.785156 414.507812 318.355469 414.507812 C 334.925781 414.507812 348.355469 427.9375 348.355469 444.507812 "/>
<path style="fill-rule:nonzero;fill:rgb(35%,70%,90%);fill-opacity:1;stroke-width:1;stroke-linecap:butt;stroke-linejoin:round;stroke:rgb(0%,0%,0%);stroke-opacity:1;stroke-miterlimit:10;" d="M 445.980469 439.070312 C 445.980469 455.640625 432.550781 469.070312 415.980469 469.070312 C 399.414062 469.070312 385.980469 455.640625 385.980469 439.070312 C 385.980469 422.503906 399.414062 409.070312 415.980469 409.070312 C 432.550781 409.070312 445.980469 422.503906 445.980469 439.070312 "/>
</g>
</svg>
