<?xml version="1.0" encoding="UTF-8"?>
<svg xmlns="http://www.w3.org/2000/svg" xmlns:xlink="http://www.w3.org/1999/xlink" width="517pt" height="517pt" viewBox="0 0 517 517" version="1.1">
<g id="surface3966">
<rect x="0" y="0" width="517" height="517" style="fill:rgb(90%,90%,90%);fill-opacity:1;stroke:none;"/>
<path style="fill:none;stroke-width:5;stroke-linecap:butt;stroke-linejoin:round;stroke:rgb(100%,0%,0%);stroke-opacity:1;stroke-miterlimit:10;" d="M 5 5 L 261 5 L 261 261 L 5 261 Z M 5 5 "/>
<path style="fill-rule:nonzero;fill:rgb(0%,0%,0%);fill-opacity:1;stroke-width:1;stroke-linecap:butt;stroke-linejoin:round;stroke:rgb(0%,0%,0%);stroke-opacity:1;stroke-miterlimit:10;" d="M 145.148438 188.957031 L 125.148438 188.957031 L 125.148438 198.957031 L 145.148438 198.957031 L 145.148438 218.957031 L 155.148438 218.957031 L 155.148438 198.957031 L 175.148438 198.957031 L 175.148438 188.957031 L 155.148438 188.957031 L 155.148438 168.957031 L 145.148438 168.957031 L 145.148438 188.957031 "/>
<path style="fill-rule:nonzero;fill:rgb(50%,0%,50%);fill-opacity:1;stroke-width:1;stroke-linecap:butt;stroke-linejoin:round;stroke:rgb(0%,0%,0%);stroke-opacity:1;stroke-miterlimit:10;" d="M 438.574219 68.886719 L 418.574219 68.886719 L 418.574219 78.886719 L 438.574219 78.886719 L 438.574219 98.886719 L 448.574219 98.886719 L 448.574219 78.886719 L 468.574219 78.886719 L 468.574219 68.886719 L 448.574219 68.886719 L 448.574219 48.886719 L 438.574219 48.886719 L 438.574219 68.886719 "/>
<path style="fill-rule:nonzero;fill:rgb(0%,0%,0%);fill-opacity:1;stroke-width:1;stroke-linecap:butt;stroke-linejoin:round;stroke:rgb(0%,0%,0%);stroke-opacity:1;stroke-miterlimit:10;" d="M 396.773438 434.261719 L 376.773438 434.261719 L 376.773438 444.261719 L 396.773438 444.261719 L 396.773438 464.261719 L 406.773438 464.261719 L 406.773438 444.261719 L 426.773438 444.261719 L 426.773438 434.261719 L 406.773438 434.261719 L 406.773438 414.261719 L 396.773438 414.261719 L 396.773438 434.261719 "/>
<path style="fill-rule:nonzero;fill:rgb(0%,0%,0%);fill-opacity:1;stroke-width:1;stroke-linecap:butt;stroke-linejoin:round;stroke:rgb(0%,0%,0%);stroke-opacity:1;stroke-miterlimit:10;" d="M 325.453125 400.335938 L 305.453125 400.335938 L 305.453125 410.335938 L 325.453125 410.335938 L 325.453125 430.335938 L 335.453125 430.335938 L 335.453125 410.335938 L 355.453125 410.335938 L 355.453125 400.335938 L 335.453125 400.335938 L 335.453125 380.335938 L 325.453125 380.335938 L 325.453125 400.335938 "/>
<path style="fill-rule:nonzero;fill:rgb(0%,0%,0%);fill-opacity:1;stroke-width:1;stroke-linecap:butt;stroke-linejoin:round;stroke:rgb(0%,0%,0%);stroke-opacity:1;stroke-miterlimit:10;" d="M 40.738281 377.691406 L 20.738281 377.691406 L 20.738281 387.691406 L 40.738281 387.691406 L 40.738281 407.691406 L 50.738281 407.691406 L 50.738281 387.691406 L 70.738281 387.691406 L 70.738281 377.691406 L 50.738281 377.691406 L 50.738281 357.691406 L 40.738281 357.691406 L 40.738281 377.691406 "/>
<path style="fill-rule:nonzero;fill:rgb(0%,0%,0%);fill-opacity:1;stroke-width:1;stroke-linecap:butt;stroke-linejoin:round;stroke:rgb(0%,0%,0%);stroke-opacity:1;stroke-miterlimit:10;" d="M 73.496094 458.140625 L 53.496094 458.140625 L 53.496094 468.140625 L 73.496094 468.140625 L 73.496094 488.140625 L 83.496094 488.140625 L 83.496094 468.140625 L 103.496094 468.140625 L 103.496094 458.140625 L 83.496094 458.140625 L 83.496094 438.140625 L 73.496094 438.140625 L 73.496094 458.140625 "/>
</g>
</svg>
