<?xml version="1.0" encoding="UTF-8"?>
<svg xmlns="http://www.w3.org/2000/svg" xmlns:xlink="http://www.w3.org/1999/xlink" width="517pt" height="517pt" viewBox="0 0 517 517" version="1.1">
<g id="surface4551">
<rect x="0" y="0" width="517" height="517" style="fill:rgb(90%,90%,90%);fill-opacity:1;stroke:none;"/>
<path style="fill:none;stroke-width:5;stroke-linecap:butt;stroke-linejoin:round;stroke:rgb(100%,0%,0%);stroke-opacity:1;stroke-miterlimit:10;" d="M 5 261 L 261 261 L 261 517 L 5 517 Z M 5 261 "/>
<path style="fill-rule:nonzero;fill:rgb(100%,100%,0%);fill-opacity:1;stroke-width:1;stroke-linecap:butt;stroke-linejoin:round;stroke:rgb(0%,0%,0%);stroke-opacity:1;stroke-miterlimit:10;" d="M 172.773438 370.714844 C 172.773438 356.316406 148.773438 356.316406 148.773438 370.714844 C 148.773438 385.117188 172.773438 387.515625 172.773438 399.515625 C 172.773438 387.515625 196.773438 385.117188 196.773438 370.714844 C 196.773438 356.316406 172.773438 356.316406 172.773438 370.714844 "/>
<path style="fill-rule:nonzero;fill:rgb(90%,65%,0%);fill-opacity:1;stroke-width:1;stroke-linecap:butt;stroke-linejoin:round;stroke:rgb(0%,0%,0%);stroke-opacity:1;stroke-miterlimit:10;" d="M 308.277344 455.789062 C 308.277344 441.390625 284.277344 441.390625 284.277344 455.789062 C 284.277344 470.191406 308.277344 472.589844 308.277344 484.589844 C 308.277344 472.589844 332.277344 470.191406 332.277344 455.789062 C 332.277344 441.390625 308.277344 441.390625 308.277344 455.789062 "/>
<path style="fill-rule:nonzero;fill:rgb(50%,0%,50%);fill-opacity:1;stroke-width:1;stroke-linecap:butt;stroke-linejoin:round;stroke:rgb(0%,0%,0%);stroke-opacity:1;stroke-miterlimit:10;" d="M 361.007812 315.8125 C 361.007812 301.414062 337.007812 301.414062 337.007812 315.8125 C 337.007812 330.214844 361.007812 332.613281 361.007812 344.613281 C 361.007812 332.613281 385.007812 330.214844 385.007812 315.8125 C 385.007812 301.414062 361.007812 301.414062 361.007812 315.8125 "/>
<path style="fill-rule:nonzero;fill:rgb(50%,0%,50%);fill-opacity:1;stroke-width:1;stroke-linecap:butt;stroke-linejoin:round;stroke:rgb(0%,0%,0%);stroke-opacity:1;stroke-miterlimit:10;" d="M 294.3125 119.394531 C 294.3125 104.992188 270.3125 104.992188 270.3125 119.394531 C 270.3125 133.792969 294.3125 136.191406 294.3125 148.191406 C 294.3125 136.191406 318.3125 133.792969 318.3125 119.394531 C 318.3125 104.992188 294.3125 104.992188 294.3125 119.394531 "/>
<path style="fill-rule:nonzero;fill:rgb(50%,0%,50%);fill-opacity:1;stroke-width:1;stroke-linecap:butt;stroke-linejoin:round;stroke:rgb(0%,0%,0%);stroke-opacity:1;stroke-miterlimit:10;" d="M 161.578125 63.011719 C 161.578125 48.613281 137.578125 48.613281 137.578125 63.011719 C 137.578125 77.410156 161.578125 79.8125 161.578125 91.8125 C 161.578125 79.8125 185.578125 77.410156 185.578125 63.011719 C 185.578125 48.613281 161.578125 48.613281 161.578125 63.011719 "/>
<path style="fill-rule:nonzero;fill:rgb(50%,0%,50%);fill-opacity:1;stroke-width:1;stroke-linecap:butt;stroke-linejoin:round;stroke:rgb(0%,0%,0%);stroke-opacity:1;stroke-miterlimit:10;" d="M 101.867188 44.820312 C 101.867188 30.417969 77.867188 30.417969 77.867188 44.820312 C 77.867188 59.21875 101.867188 61.617188 101.867188 73.617188 C 101.867188 61.617188 125.867188 59.21875 125.867188 44.820312 C 125.867188 30.417969 101.867188 30.417969 101.867188 44.820312 "/>
</g>
</svg>
