<?xml version="1.0" encoding="UTF-8"?>
<svg xmlns="http://www.w3.org/2000/svg" xmlns:xlink="http://www.w3.org/1999/xlink" width="517pt" height="517pt" viewBox="0 0 517 517" version="1.1">
<g id="surface3986">
<rect x="0" y="0" width="517" height="517" style="fill:rgb(90%,90%,90%);fill-opacity:1;stroke:none;"/>
<path style="fill:none;stroke-width:5;stroke-linecap:butt;stroke-linejoin:round;stroke:rgb(100%,0%,0%);stroke-opacity:1;stroke-miterlimit:10;" d="M 5 5 L 261 5 L 261 261 L 5 261 Z M 5 5 "/>
<path style="fill-rule:nonzero;fill:rgb(67%,100%,18%);fill-opacity:1;stroke-width:1;stroke-linecap:butt;stroke-linejoin:round;stroke:rgb(0%,0%,0%);stroke-opacity:1;stroke-miterlimit:10;" d="M 80.960938 100.957031 L 60.960938 100.957031 L 60.960938 110.957031 L 80.960938 110.957031 L 80.960938 130.957031 L 90.960938 130.957031 L 90.960938 110.957031 L 110.960938 110.957031 L 110.960938 100.957031 L 90.960938 100.957031 L 90.960938 80.957031 L 80.960938 80.957031 L 80.960938 100.957031 "/>
<path style="fill-rule:nonzero;fill:rgb(50%,0%,50%);fill-opacity:1;stroke-width:1;stroke-linecap:butt;stroke-linejoin:round;stroke:rgb(0%,0%,0%);stroke-opacity:1;stroke-miterlimit:10;" d="M 46.542969 400.023438 L 26.542969 400.023438 L 26.542969 410.023438 L 46.542969 410.023438 L 46.542969 430.023438 L 56.542969 430.023438 L 56.542969 410.023438 L 76.542969 410.023438 L 76.542969 400.023438 L 56.542969 400.023438 L 56.542969 380.023438 L 46.542969 380.023438 L 46.542969 400.023438 "/>
<path style="fill-rule:nonzero;fill:rgb(50%,0%,50%);fill-opacity:1;stroke-width:1;stroke-linecap:butt;stroke-linejoin:round;stroke:rgb(0%,0%,0%);stroke-opacity:1;stroke-miterlimit:10;" d="M 33.703125 315.792969 L 13.703125 315.792969 L 13.703125 325.792969 L 33.703125 325.792969 L 33.703125 345.792969 L 43.703125 345.792969 L 43.703125 325.792969 L 63.703125 325.792969 L 63.703125 315.792969 L 43.703125 315.792969 L 43.703125 295.792969 L 33.703125 295.792969 L 33.703125 315.792969 "/>
<path style="fill-rule:nonzero;fill:rgb(50%,0%,50%);fill-opacity:1;stroke-width:1;stroke-linecap:butt;stroke-linejoin:round;stroke:rgb(0%,0%,0%);stroke-opacity:1;stroke-miterlimit:10;" d="M 387.523438 119.105469 L 367.523438 119.105469 L 367.523438 129.105469 L 387.523438 129.105469 L 387.523438 149.105469 L 397.523438 149.105469 L 397.523438 129.105469 L 417.523438 129.105469 L 417.523438 119.105469 L 397.523438 119.105469 L 397.523438 99.105469 L 387.523438 99.105469 L 387.523438 119.105469 "/>
<path style="fill-rule:nonzero;fill:rgb(50%,0%,50%);fill-opacity:1;stroke-width:1;stroke-linecap:butt;stroke-linejoin:round;stroke:rgb(0%,0%,0%);stroke-opacity:1;stroke-miterlimit:10;" d="M 381.738281 210.675781 L 361.738281 210.675781 L 361.738281 220.675781 L 381.738281 220.675781 L 381.738281 240.675781 L 391.738281 240.675781 L 391.738281 220.675781 L 411.738281 220.675781 L 411.738281 210.675781 L 391.738281 210.675781 L 391.738281 190.675781 L 381.738281 190.675781 L 381.738281 210.675781 "/>
<path style="fill-rule:nonzero;fill:rgb(50%,0%,50%);fill-opacity:1;stroke-width:1;stroke-linecap:butt;stroke-linejoin:round;stroke:rgb(0%,0%,0%);stroke-opacity:1;stroke-miterlimit:10;" d="M 302.882812 360.289062 L 282.882812 360.289062 L 282.882812 370.289062 L 302.882812 370.289062 L 302.882812 390.289062 L 312.882812 390.289062 L 312.882812 370.289062 L 332.882812 370.289062 L 332.882812 360.289062 L 312.882812 360.289062 L 312.882812 340.289062 L 302.882812 340.289062 L 302.882812 360.289062 "/>
</g>
</svg>
