<?xml version="1.0" encoding="UTF-8"?>
<svg xmlns="http://www.w3.org/2000/svg" xmlns:xlink="http://www.w3.org/1999/xlink" width="517pt" height="517pt" viewBox="0 0 517 517" version="1.1">
<g id="surface9526">
<rect x="0" y="0" width="517" height="517" style="fill:rgb(90%,90%,90%);fill-opacity:1;stroke:none;"/>
<path style="fill:none;stroke-width:5;stroke-linecap:butt;stroke-linejoin:round;stroke:rgb(100%,0%,0%);stroke-opacity:1;stroke-miterlimit:10;" d="M 261 261 L 517 261 L 517 517 L 261 517 Z M 261 261 "/>
<path style="fill-rule:nonzero;fill:rgb(35%,70%,90%);fill-opacity:1;stroke-width:1;stroke-linecap:butt;stroke-linejoin:round;stroke:rgb(0%,0%,0%);stroke-opacity:1;stroke-miterlimit:10;" d="M 315.9375 375.613281 L 295.9375 375.613281 L 295.9375 385.613281 L 315.9375 385.613281 L 315.9375 405.613281 L 325.9375 405.613281 L 325.9375 385.613281 L 345.9375 385.613281 L 345.9375 375.613281 L 325.9375 375.613281 L 325.9375 355.613281 L 315.9375 355.613281 L 315.9375 375.613281 "/>
<path style="fill-rule:nonzero;fill:rgb(90%,65%,0%);fill-opacity:1;stroke-width:1;stroke-linecap:butt;stroke-linejoin:round;stroke:rgb(0%,0%,0%);stroke-opacity:1;stroke-miterlimit:10;" d="M 95.515625 290.753906 L 75.515625 290.753906 L 75.515625 300.753906 L 95.515625 300.753906 L 95.515625 320.753906 L 105.515625 320.753906 L 105.515625 300.753906 L 125.515625 300.753906 L 125.515625 290.753906 L 105.515625 290.753906 L 105.515625 270.753906 L 95.515625 270.753906 L 95.515625 290.753906 "/>
<path style="fill-rule:nonzero;fill:rgb(90%,65%,0%);fill-opacity:1;stroke-width:1;stroke-linecap:butt;stroke-linejoin:round;stroke:rgb(0%,0%,0%);stroke-opacity:1;stroke-miterlimit:10;" d="M 349.132812 144.722656 L 329.132812 144.722656 L 329.132812 154.722656 L 349.132812 154.722656 L 349.132812 174.722656 L 359.132812 174.722656 L 359.132812 154.722656 L 379.132812 154.722656 L 379.132812 144.722656 L 359.132812 144.722656 L 359.132812 124.722656 L 349.132812 124.722656 L 349.132812 144.722656 "/>
<path style="fill-rule:nonzero;fill:rgb(90%,65%,0%);fill-opacity:1;stroke-width:1;stroke-linecap:butt;stroke-linejoin:round;stroke:rgb(0%,0%,0%);stroke-opacity:1;stroke-miterlimit:10;" d="M 297.929688 60.90625 L 277.929688 60.90625 L 277.929688 70.90625 L 297.929688 70.90625 L 297.929688 90.90625 L 307.929688 90.90625 L 307.929688 70.90625 L 327.929688 70.90625 L 327.929688 60.90625 L 307.929688 60.90625 L 307.929688 40.90625 L 297.929688 40.90625 L 297.929688 60.90625 "/>
<path style="fill-rule:nonzero;fill:rgb(90%,65%,0%);fill-opacity:1;stroke-width:1;stroke-linecap:butt;stroke-linejoin:round;stroke:rgb(0%,0%,0%);stroke-opacity:1;stroke-miterlimit:10;" d="M 92.03125 155.011719 L 72.03125 155.011719 L 72.03125 165.011719 L 92.03125 165.011719 L 92.03125 185.011719 L 102.03125 185.011719 L 102.03125 165.011719 L 122.03125 165.011719 L 122.03125 155.011719 L 102.03125 155.011719 L 102.03125 135.011719 L 92.03125 135.011719 L 92.03125 155.011719 "/>
</g>
</svg>
