<?xml version="1.0" encoding="UTF-8"?>
<svg xmlns="http://www.w3.org/2000/svg" xmlns:xlink="http://www.w3.org/1999/xlink" width="517pt" height="517pt" viewBox="0 0 517 517" version="1.1">
<g id="surface4541">
<rect x="0" y="0" width="517" height="517" style="fill:rgb(90%,90%,90%);fill-opacity:1;stroke:none;"/>
<path style="fill:none;stroke-width:5;stroke-linecap:butt;stroke-linejoin:round;stroke:rgb(100%,0%,0%);stroke-opacity:1;stroke-miterlimit:10;" d="M 5 261 L 261 261 L 261 517 L 5 517 Z M 5 261 "/>
<path style="fill-rule:nonzero;fill:rgb(100%,100%,0%);fill-opacity:1;stroke-width:1;stroke-linecap:butt;stroke-linejoin:round;stroke:rgb(0%,0%,0%);stroke-opacity:1;stroke-miterlimit:10;" d="M 202.082031 327.953125 C 202.082031 313.554688 178.082031 313.554688 178.082031 327.953125 C 178.082031 342.351562 202.082031 344.753906 202.082031 356.753906 C 202.082031 344.753906 226.082031 342.351562 226.082031 327.953125 C 226.082031 313.554688 202.082031 313.554688 202.082031 327.953125 "/>
<path style="fill-rule:nonzero;fill:rgb(90%,65%,0%);fill-opacity:1;stroke-width:1;stroke-linecap:butt;stroke-linejoin:round;stroke:rgb(0%,0%,0%);stroke-opacity:1;stroke-miterlimit:10;" d="M 366.113281 137.140625 C 366.113281 122.742188 342.113281 122.742188 342.113281 137.140625 C 342.113281 151.542969 366.113281 153.941406 366.113281 165.941406 C 366.113281 153.941406 390.113281 151.542969 390.113281 137.140625 C 390.113281 122.742188 366.113281 122.742188 366.113281 137.140625 "/>
<path style="fill-rule:nonzero;fill:rgb(90%,65%,0%);fill-opacity:1;stroke-width:1;stroke-linecap:butt;stroke-linejoin:round;stroke:rgb(0%,0%,0%);stroke-opacity:1;stroke-miterlimit:10;" d="M 383.035156 308.945312 C 383.035156 294.542969 359.035156 294.542969 359.035156 308.945312 C 359.035156 323.34375 383.035156 325.746094 383.035156 337.746094 C 383.035156 325.746094 407.035156 323.34375 407.035156 308.945312 C 407.035156 294.542969 383.035156 294.542969 383.035156 308.945312 "/>
<path style="fill-rule:nonzero;fill:rgb(90%,65%,0%);fill-opacity:1;stroke-width:1;stroke-linecap:butt;stroke-linejoin:round;stroke:rgb(0%,0%,0%);stroke-opacity:1;stroke-miterlimit:10;" d="M 445.085938 351.851562 C 445.085938 337.449219 421.085938 337.449219 421.085938 351.851562 C 421.085938 366.25 445.085938 368.652344 445.085938 380.652344 C 445.085938 368.652344 469.085938 366.25 469.085938 351.851562 C 469.085938 337.449219 445.085938 337.449219 445.085938 351.851562 "/>
<path style="fill-rule:nonzero;fill:rgb(90%,65%,0%);fill-opacity:1;stroke-width:1;stroke-linecap:butt;stroke-linejoin:round;stroke:rgb(0%,0%,0%);stroke-opacity:1;stroke-miterlimit:10;" d="M 411.070312 444.328125 C 411.070312 429.929688 387.070312 429.929688 387.070312 444.328125 C 387.070312 458.730469 411.070312 461.128906 411.070312 473.128906 C 411.070312 461.128906 435.070312 458.730469 435.070312 444.328125 C 435.070312 429.929688 411.070312 429.929688 411.070312 444.328125 "/>
<path style="fill-rule:nonzero;fill:rgb(50%,0%,50%);fill-opacity:1;stroke-width:1;stroke-linecap:butt;stroke-linejoin:round;stroke:rgb(0%,0%,0%);stroke-opacity:1;stroke-miterlimit:10;" d="M 458.6875 287.683594 C 458.6875 273.285156 434.6875 273.285156 434.6875 287.683594 C 434.6875 302.085938 458.6875 304.484375 458.6875 316.484375 C 458.6875 304.484375 482.6875 302.085938 482.6875 287.683594 C 482.6875 273.285156 458.6875 273.285156 458.6875 287.683594 "/>
</g>
</svg>
