<?xml version="1.0" encoding="UTF-8"?>
<svg xmlns="http://www.w3.org/2000/svg" xmlns:xlink="http://www.w3.org/1999/xlink" width="517pt" height="517pt" viewBox="0 0 517 517" version="1.1">
<g id="surface3981">
<rect x="0" y="0" width="517" height="517" style="fill:rgb(90%,90%,90%);fill-opacity:1;stroke:none;"/>
<path style="fill:none;stroke-width:5;stroke-linecap:butt;stroke-linejoin:round;stroke:rgb(100%,0%,0%);stroke-opacity:1;stroke-miterlimit:10;" d="M 5 5 L 261 5 L 261 261 L 5 261 Z M 5 5 "/>
<path style="fill-rule:nonzero;fill:rgb(67%,100%,18%);fill-opacity:1;stroke-width:1;stroke-linecap:butt;stroke-linejoin:round;stroke:rgb(0%,0%,0%);stroke-opacity:1;stroke-miterlimit:10;" d="M 46.710938 192.351562 L 26.710938 192.351562 L 26.710938 202.351562 L 46.710938 202.351562 L 46.710938 222.351562 L 56.710938 222.351562 L 56.710938 202.351562 L 76.710938 202.351562 L 76.710938 192.351562 L 56.710938 192.351562 L 56.710938 172.351562 L 46.710938 172.351562 L 46.710938 192.351562 "/>
<path style="fill-rule:nonzero;fill:rgb(50%,0%,50%);fill-opacity:1;stroke-width:1;stroke-linecap:butt;stroke-linejoin:round;stroke:rgb(0%,0%,0%);stroke-opacity:1;stroke-miterlimit:10;" d="M 69.632812 297.414062 L 49.632812 297.414062 L 49.632812 307.414062 L 69.632812 307.414062 L 69.632812 327.414062 L 79.632812 327.414062 L 79.632812 307.414062 L 99.632812 307.414062 L 99.632812 297.414062 L 79.632812 297.414062 L 79.632812 277.414062 L 69.632812 277.414062 L 69.632812 297.414062 "/>
<path style="fill-rule:nonzero;fill:rgb(50%,0%,50%);fill-opacity:1;stroke-width:1;stroke-linecap:butt;stroke-linejoin:round;stroke:rgb(0%,0%,0%);stroke-opacity:1;stroke-miterlimit:10;" d="M 49.632812 467.257812 L 29.632812 467.257812 L 29.632812 477.257812 L 49.632812 477.257812 L 49.632812 497.257812 L 59.632812 497.257812 L 59.632812 477.257812 L 79.632812 477.257812 L 79.632812 467.257812 L 59.632812 467.257812 L 59.632812 447.257812 L 49.632812 447.257812 L 49.632812 467.257812 "/>
<path style="fill-rule:nonzero;fill:rgb(50%,0%,50%);fill-opacity:1;stroke-width:1;stroke-linecap:butt;stroke-linejoin:round;stroke:rgb(0%,0%,0%);stroke-opacity:1;stroke-miterlimit:10;" d="M 394.796875 32.960938 L 374.796875 32.960938 L 374.796875 42.960938 L 394.796875 42.960938 L 394.796875 62.960938 L 404.796875 62.960938 L 404.796875 42.960938 L 424.796875 42.960938 L 424.796875 32.960938 L 404.796875 32.960938 L 404.796875 12.960938 L 394.796875 12.960938 L 394.796875 32.960938 "/>
<path style="fill-rule:nonzero;fill:rgb(50%,0%,50%);fill-opacity:1;stroke-width:1;stroke-linecap:butt;stroke-linejoin:round;stroke:rgb(0%,0%,0%);stroke-opacity:1;stroke-miterlimit:10;" d="M 388.636719 208.855469 L 368.636719 208.855469 L 368.636719 218.855469 L 388.636719 218.855469 L 388.636719 238.855469 L 398.636719 238.855469 L 398.636719 218.855469 L 418.636719 218.855469 L 418.636719 208.855469 L 398.636719 208.855469 L 398.636719 188.855469 L 388.636719 188.855469 L 388.636719 208.855469 "/>
<path style="fill-rule:nonzero;fill:rgb(0%,0%,0%);fill-opacity:1;stroke-width:1;stroke-linecap:butt;stroke-linejoin:round;stroke:rgb(0%,0%,0%);stroke-opacity:1;stroke-miterlimit:10;" d="M 302.691406 437.148438 L 282.691406 437.148438 L 282.691406 447.148438 L 302.691406 447.148438 L 302.691406 467.148438 L 312.691406 467.148438 L 312.691406 447.148438 L 332.691406 447.148438 L 332.691406 437.148438 L 312.691406 437.148438 L 312.691406 417.148438 L 302.691406 417.148438 L 302.691406 437.148438 "/>
</g>
</svg>
