<?xml version="1.0" encoding="UTF-8"?>
<svg xmlns="http://www.w3.org/2000/svg" xmlns:xlink="http://www.w3.org/1999/xlink" width="517pt" height="517pt" viewBox="0 0 517 517" version="1.1">
<g id="surface9296">
<rect x="0" y="0" width="517" height="517" style="fill:rgb(90%,90%,90%);fill-opacity:1;stroke:none;"/>
<path style="fill:none;stroke-width:5;stroke-linecap:butt;stroke-linejoin:round;stroke:rgb(100%,0%,0%);stroke-opacity:1;stroke-miterlimit:10;" d="M 5 5 L 261 5 L 261 261 L 5 261 Z M 5 5 "/>
<path style="fill-rule:nonzero;fill:rgb(90%,65%,0%);fill-opacity:1;stroke-width:1;stroke-linecap:butt;stroke-linejoin:round;stroke:rgb(0%,0%,0%);stroke-opacity:1;stroke-miterlimit:10;" d="M 183.890625 106.152344 L 163.890625 106.152344 L 163.890625 116.152344 L 183.890625 116.152344 L 183.890625 136.152344 L 193.890625 136.152344 L 193.890625 116.152344 L 213.890625 116.152344 L 213.890625 106.152344 L 193.890625 106.152344 L 193.890625 86.152344 L 183.890625 86.152344 L 183.890625 106.152344 "/>
<path style="fill-rule:nonzero;fill:rgb(90%,65%,0%);fill-opacity:1;stroke-width:1;stroke-linecap:butt;stroke-linejoin:round;stroke:rgb(0%,0%,0%);stroke-opacity:1;stroke-miterlimit:10;" d="M 327.046875 353.472656 L 307.046875 353.472656 L 307.046875 363.472656 L 327.046875 363.472656 L 327.046875 383.472656 L 337.046875 383.472656 L 337.046875 363.472656 L 357.046875 363.472656 L 357.046875 353.472656 L 337.046875 353.472656 L 337.046875 333.472656 L 327.046875 333.472656 L 327.046875 353.472656 "/>
<path style="fill-rule:nonzero;fill:rgb(90%,65%,0%);fill-opacity:1;stroke-width:1;stroke-linecap:butt;stroke-linejoin:round;stroke:rgb(0%,0%,0%);stroke-opacity:1;stroke-miterlimit:10;" d="M 383.761719 443.273438 L 363.761719 443.273438 L 363.761719 453.273438 L 383.761719 453.273438 L 383.761719 473.273438 L 393.761719 473.273438 L 393.761719 453.273438 L 413.761719 453.273438 L 413.761719 443.273438 L 393.761719 443.273438 L 393.761719 423.273438 L 383.761719 423.273438 L 383.761719 443.273438 "/>
<path style="fill-rule:nonzero;fill:rgb(90%,65%,0%);fill-opacity:1;stroke-width:1;stroke-linecap:butt;stroke-linejoin:round;stroke:rgb(0%,0%,0%);stroke-opacity:1;stroke-miterlimit:10;" d="M 316.320312 44.613281 L 296.320312 44.613281 L 296.320312 54.613281 L 316.320312 54.613281 L 316.320312 74.613281 L 326.320312 74.613281 L 326.320312 54.613281 L 346.320312 54.613281 L 346.320312 44.613281 L 326.320312 44.613281 L 326.320312 24.613281 L 316.320312 24.613281 L 316.320312 44.613281 "/>
<path style="fill-rule:nonzero;fill:rgb(90%,65%,0%);fill-opacity:1;stroke-width:1;stroke-linecap:butt;stroke-linejoin:round;stroke:rgb(0%,0%,0%);stroke-opacity:1;stroke-miterlimit:10;" d="M 350.3125 206.453125 L 330.3125 206.453125 L 330.3125 216.453125 L 350.3125 216.453125 L 350.3125 236.453125 L 360.3125 236.453125 L 360.3125 216.453125 L 380.3125 216.453125 L 380.3125 206.453125 L 360.3125 206.453125 L 360.3125 186.453125 L 350.3125 186.453125 L 350.3125 206.453125 "/>
<path style="fill-rule:nonzero;fill:rgb(90%,65%,0%);fill-opacity:1;stroke-width:1;stroke-linecap:butt;stroke-linejoin:round;stroke:rgb(0%,0%,0%);stroke-opacity:1;stroke-miterlimit:10;" d="M 406.128906 69.882812 L 386.128906 69.882812 L 386.128906 79.882812 L 406.128906 79.882812 L 406.128906 99.882812 L 416.128906 99.882812 L 416.128906 79.882812 L 436.128906 79.882812 L 436.128906 69.882812 L 416.128906 69.882812 L 416.128906 49.882812 L 406.128906 49.882812 L 406.128906 69.882812 "/>
</g>
</svg>
