<?xml version="1.0" encoding="UTF-8"?>
<svg xmlns="http://www.w3.org/2000/svg" xmlns:xlink="http://www.w3.org/1999/xlink" width="517pt" height="517pt" viewBox="0 0 517 517" version="1.1">
<g id="surface9336">
<rect x="0" y="0" width="517" height="517" style="fill:rgb(90%,90%,90%);fill-opacity:1;stroke:none;"/>
<path style="fill:none;stroke-width:5;stroke-linecap:butt;stroke-linejoin:round;stroke:rgb(100%,0%,0%);stroke-opacity:1;stroke-miterlimit:10;" d="M 5 5 L 261 5 L 261 261 L 5 261 Z M 5 5 "/>
<path style="fill-rule:nonzero;fill:rgb(67%,100%,18%);fill-opacity:1;stroke-width:1;stroke-linecap:butt;stroke-linejoin:round;stroke:rgb(0%,0%,0%);stroke-opacity:1;stroke-miterlimit:10;" d="M 178.171875 107.140625 L 158.171875 107.140625 L 158.171875 117.140625 L 178.171875 117.140625 L 178.171875 137.140625 L 188.171875 137.140625 L 188.171875 117.140625 L 208.171875 117.140625 L 208.171875 107.140625 L 188.171875 107.140625 L 188.171875 87.140625 L 178.171875 87.140625 L 178.171875 107.140625 "/>
<path style="fill-rule:nonzero;fill:rgb(35%,70%,90%);fill-opacity:1;stroke-width:1;stroke-linecap:butt;stroke-linejoin:round;stroke:rgb(0%,0%,0%);stroke-opacity:1;stroke-miterlimit:10;" d="M 338.347656 88.105469 L 318.347656 88.105469 L 318.347656 98.105469 L 338.347656 98.105469 L 338.347656 118.105469 L 348.347656 118.105469 L 348.347656 98.105469 L 368.347656 98.105469 L 368.347656 88.105469 L 348.347656 88.105469 L 348.347656 68.105469 L 338.347656 68.105469 L 338.347656 88.105469 "/>
<path style="fill-rule:nonzero;fill:rgb(35%,70%,90%);fill-opacity:1;stroke-width:1;stroke-linecap:butt;stroke-linejoin:round;stroke:rgb(0%,0%,0%);stroke-opacity:1;stroke-miterlimit:10;" d="M 369.945312 412.484375 L 349.945312 412.484375 L 349.945312 422.484375 L 369.945312 422.484375 L 369.945312 442.484375 L 379.945312 442.484375 L 379.945312 422.484375 L 399.945312 422.484375 L 399.945312 412.484375 L 379.945312 412.484375 L 379.945312 392.484375 L 369.945312 392.484375 L 369.945312 412.484375 "/>
<path style="fill-rule:nonzero;fill:rgb(35%,70%,90%);fill-opacity:1;stroke-width:1;stroke-linecap:butt;stroke-linejoin:round;stroke:rgb(0%,0%,0%);stroke-opacity:1;stroke-miterlimit:10;" d="M 186.136719 376.082031 L 166.136719 376.082031 L 166.136719 386.082031 L 186.136719 386.082031 L 186.136719 406.082031 L 196.136719 406.082031 L 196.136719 386.082031 L 216.136719 386.082031 L 216.136719 376.082031 L 196.136719 376.082031 L 196.136719 356.082031 L 186.136719 356.082031 L 186.136719 376.082031 "/>
<path style="fill-rule:nonzero;fill:rgb(35%,70%,90%);fill-opacity:1;stroke-width:1;stroke-linecap:butt;stroke-linejoin:round;stroke:rgb(0%,0%,0%);stroke-opacity:1;stroke-miterlimit:10;" d="M 215.425781 434.777344 L 195.425781 434.777344 L 195.425781 444.777344 L 215.425781 444.777344 L 215.425781 464.777344 L 225.425781 464.777344 L 225.425781 444.777344 L 245.425781 444.777344 L 245.425781 434.777344 L 225.425781 434.777344 L 225.425781 414.777344 L 215.425781 414.777344 L 215.425781 434.777344 "/>
</g>
</svg>
