<?xml version="1.0" encoding="UTF-8"?>
<svg xmlns="http://www.w3.org/2000/svg" xmlns:xlink="http://www.w3.org/1999/xlink" width="517pt" height="517pt" viewBox="0 0 517 517" version="1.1">
<g id="surface9506">
<rect x="0" y="0" width="517" height="517" style="fill:rgb(90%,90%,90%);fill-opacity:1;stroke:none;"/>
<path style="fill:none;stroke-width:5;stroke-linecap:butt;stroke-linejoin:round;stroke:rgb(100%,0%,0%);stroke-opacity:1;stroke-miterlimit:10;" d="M 261 5 L 517 5 L 517 261 L 261 261 Z M 261 5 "/>
<path style="fill-rule:nonzero;fill:rgb(67%,100%,18%);fill-opacity:1;stroke-width:1;stroke-linecap:butt;stroke-linejoin:round;stroke:rgb(0%,0%,0%);stroke-opacity:1;stroke-miterlimit:10;" d="M 333.007812 142.605469 L 313.007812 142.605469 L 313.007812 152.605469 L 333.007812 152.605469 L 333.007812 172.605469 L 343.007812 172.605469 L 343.007812 152.605469 L 363.007812 152.605469 L 363.007812 142.605469 L 343.007812 142.605469 L 343.007812 122.605469 L 333.007812 122.605469 L 333.007812 142.605469 "/>
<path style="fill-rule:nonzero;fill:rgb(50%,0%,50%);fill-opacity:1;stroke-width:1;stroke-linecap:butt;stroke-linejoin:round;stroke:rgb(0%,0%,0%);stroke-opacity:1;stroke-miterlimit:10;" d="M 402.941406 426.75 L 382.941406 426.75 L 382.941406 436.75 L 402.941406 436.75 L 402.941406 456.75 L 412.941406 456.75 L 412.941406 436.75 L 432.941406 436.75 L 432.941406 426.75 L 412.941406 426.75 L 412.941406 406.75 L 402.941406 406.75 L 402.941406 426.75 "/>
<path style="fill-rule:nonzero;fill:rgb(50%,0%,50%);fill-opacity:1;stroke-width:1;stroke-linecap:butt;stroke-linejoin:round;stroke:rgb(0%,0%,0%);stroke-opacity:1;stroke-miterlimit:10;" d="M 435.925781 299.339844 L 415.925781 299.339844 L 415.925781 309.339844 L 435.925781 309.339844 L 435.925781 329.339844 L 445.925781 329.339844 L 445.925781 309.339844 L 465.925781 309.339844 L 465.925781 299.339844 L 445.925781 299.339844 L 445.925781 279.339844 L 435.925781 279.339844 L 435.925781 299.339844 "/>
<path style="fill-rule:nonzero;fill:rgb(50%,0%,50%);fill-opacity:1;stroke-width:1;stroke-linecap:butt;stroke-linejoin:round;stroke:rgb(0%,0%,0%);stroke-opacity:1;stroke-miterlimit:10;" d="M 49.226562 208.785156 L 29.226562 208.785156 L 29.226562 218.785156 L 49.226562 218.785156 L 49.226562 238.785156 L 59.226562 238.785156 L 59.226562 218.785156 L 79.226562 218.785156 L 79.226562 208.785156 L 59.226562 208.785156 L 59.226562 188.785156 L 49.226562 188.785156 L 49.226562 208.785156 "/>
<path style="fill-rule:nonzero;fill:rgb(50%,0%,50%);fill-opacity:1;stroke-width:1;stroke-linecap:butt;stroke-linejoin:round;stroke:rgb(0%,0%,0%);stroke-opacity:1;stroke-miterlimit:10;" d="M 124.902344 188.628906 L 104.902344 188.628906 L 104.902344 198.628906 L 124.902344 198.628906 L 124.902344 218.628906 L 134.902344 218.628906 L 134.902344 198.628906 L 154.902344 198.628906 L 154.902344 188.628906 L 134.902344 188.628906 L 134.902344 168.628906 L 124.902344 168.628906 L 124.902344 188.628906 "/>
<path style="fill-rule:nonzero;fill:rgb(50%,0%,50%);fill-opacity:1;stroke-width:1;stroke-linecap:butt;stroke-linejoin:round;stroke:rgb(0%,0%,0%);stroke-opacity:1;stroke-miterlimit:10;" d="M 183.566406 44.980469 L 163.566406 44.980469 L 163.566406 54.980469 L 183.566406 54.980469 L 183.566406 74.980469 L 193.566406 74.980469 L 193.566406 54.980469 L 213.566406 54.980469 L 213.566406 44.980469 L 193.566406 44.980469 L 193.566406 24.980469 L 183.566406 24.980469 L 183.566406 44.980469 "/>
</g>
</svg>
