<?xml version="1.0" encoding="UTF-8"?>
<svg xmlns="http://www.w3.org/2000/svg" xmlns:xlink="http://www.w3.org/1999/xlink" width="517pt" height="517pt" viewBox="0 0 517 517" version="1.1">
<g id="surface4501">
<rect x="0" y="0" width="517" height="517" style="fill:rgb(90%,90%,90%);fill-opacity:1;stroke:none;"/>
<path style="fill:none;stroke-width:5;stroke-linecap:butt;stroke-linejoin:round;stroke:rgb(100%,0%,0%);stroke-opacity:1;stroke-miterlimit:10;" d="M 5 261 L 261 261 L 261 517 L 5 517 Z M 5 261 "/>
<path style="fill-rule:nonzero;fill:rgb(50%,0%,50%);fill-opacity:1;stroke-width:1;stroke-linecap:butt;stroke-linejoin:round;stroke:rgb(0%,0%,0%);stroke-opacity:1;stroke-miterlimit:10;" d="M 148.441406 449.070312 C 148.441406 434.671875 124.441406 434.671875 124.441406 449.070312 C 124.441406 463.472656 148.441406 465.871094 148.441406 477.871094 C 148.441406 465.871094 172.441406 463.472656 172.441406 449.070312 C 172.441406 434.671875 148.441406 434.671875 148.441406 449.070312 "/>
<path style="fill-rule:nonzero;fill:rgb(90%,65%,0%);fill-opacity:1;stroke-width:1;stroke-linecap:butt;stroke-linejoin:round;stroke:rgb(0%,0%,0%);stroke-opacity:1;stroke-miterlimit:10;" d="M 125.210938 73.855469 C 125.210938 59.453125 101.210938 59.453125 101.210938 73.855469 C 101.210938 88.253906 125.210938 90.652344 125.210938 102.652344 C 125.210938 90.652344 149.210938 88.253906 149.210938 73.855469 C 149.210938 59.453125 125.210938 59.453125 125.210938 73.855469 "/>
<path style="fill-rule:nonzero;fill:rgb(90%,65%,0%);fill-opacity:1;stroke-width:1;stroke-linecap:butt;stroke-linejoin:round;stroke:rgb(0%,0%,0%);stroke-opacity:1;stroke-miterlimit:10;" d="M 179.734375 165.363281 C 179.734375 150.964844 155.734375 150.964844 155.734375 165.363281 C 155.734375 179.765625 179.734375 182.164062 179.734375 194.164062 C 179.734375 182.164062 203.734375 179.765625 203.734375 165.363281 C 203.734375 150.964844 179.734375 150.964844 179.734375 165.363281 "/>
<path style="fill-rule:nonzero;fill:rgb(90%,65%,0%);fill-opacity:1;stroke-width:1;stroke-linecap:butt;stroke-linejoin:round;stroke:rgb(0%,0%,0%);stroke-opacity:1;stroke-miterlimit:10;" d="M 387.128906 154.152344 C 387.128906 139.753906 363.128906 139.753906 363.128906 154.152344 C 363.128906 168.550781 387.128906 170.953125 387.128906 182.953125 C 387.128906 170.953125 411.128906 168.550781 411.128906 154.152344 C 411.128906 139.753906 387.128906 139.753906 387.128906 154.152344 "/>
<path style="fill-rule:nonzero;fill:rgb(90%,65%,0%);fill-opacity:1;stroke-width:1;stroke-linecap:butt;stroke-linejoin:round;stroke:rgb(0%,0%,0%);stroke-opacity:1;stroke-miterlimit:10;" d="M 412.8125 372.507812 C 412.8125 358.105469 388.8125 358.105469 388.8125 372.507812 C 388.8125 386.90625 412.8125 389.308594 412.8125 401.308594 C 412.8125 389.308594 436.8125 386.90625 436.8125 372.507812 C 436.8125 358.105469 412.8125 358.105469 412.8125 372.507812 "/>
<path style="fill-rule:nonzero;fill:rgb(50%,0%,50%);fill-opacity:1;stroke-width:1;stroke-linecap:butt;stroke-linejoin:round;stroke:rgb(0%,0%,0%);stroke-opacity:1;stroke-miterlimit:10;" d="M 346.96875 460.800781 C 346.96875 446.402344 322.96875 446.402344 322.96875 460.800781 C 322.96875 475.199219 346.96875 477.601562 346.96875 489.601562 C 346.96875 477.601562 370.96875 475.199219 370.96875 460.800781 C 370.96875 446.402344 346.96875 446.402344 346.96875 460.800781 "/>
</g>
</svg>
