<?xml version="1.0" encoding="UTF-8"?>
<svg xmlns="http://www.w3.org/2000/svg" xmlns:xlink="http://www.w3.org/1999/xlink" width="517pt" height="517pt" viewBox="0 0 517 517" version="1.1">
<g id="surface9156">
<rect x="0" y="0" width="517" height="517" style="fill:rgb(90%,90%,90%);fill-opacity:1;stroke:none;"/>
<path style="fill:none;stroke-width:5;stroke-linecap:butt;stroke-linejoin:round;stroke:rgb(100%,0%,0%);stroke-opacity:1;stroke-miterlimit:10;" d="M 261 5 L 517 5 L 517 261 L 261 261 Z M 261 5 "/>
<path style="fill-rule:nonzero;fill:rgb(90%,65%,0%);fill-opacity:1;stroke-width:1;stroke-linecap:butt;stroke-linejoin:round;stroke:rgb(0%,0%,0%);stroke-opacity:1;stroke-miterlimit:10;" d="M 438.351562 36.917969 L 418.351562 36.917969 L 418.351562 46.917969 L 438.351562 46.917969 L 438.351562 66.917969 L 448.351562 66.917969 L 448.351562 46.917969 L 468.351562 46.917969 L 468.351562 36.917969 L 448.351562 36.917969 L 448.351562 16.917969 L 438.351562 16.917969 L 438.351562 36.917969 "/>
<path style="fill-rule:nonzero;fill:rgb(100%,0%,0%);fill-opacity:1;stroke-width:1;stroke-linecap:butt;stroke-linejoin:round;stroke:rgb(0%,0%,0%);stroke-opacity:1;stroke-miterlimit:10;" d="M 346.585938 357.476562 L 326.585938 357.476562 L 326.585938 367.476562 L 346.585938 367.476562 L 346.585938 387.476562 L 356.585938 387.476562 L 356.585938 367.476562 L 376.585938 367.476562 L 376.585938 357.476562 L 356.585938 357.476562 L 356.585938 337.476562 L 346.585938 337.476562 L 346.585938 357.476562 "/>
<path style="fill-rule:nonzero;fill:rgb(100%,0%,0%);fill-opacity:1;stroke-width:1;stroke-linecap:butt;stroke-linejoin:round;stroke:rgb(0%,0%,0%);stroke-opacity:1;stroke-miterlimit:10;" d="M 124.679688 298.644531 L 104.679688 298.644531 L 104.679688 308.644531 L 124.679688 308.644531 L 124.679688 328.644531 L 134.679688 328.644531 L 134.679688 308.644531 L 154.679688 308.644531 L 154.679688 298.644531 L 134.679688 298.644531 L 134.679688 278.644531 L 124.679688 278.644531 L 124.679688 298.644531 "/>
<path style="fill-rule:nonzero;fill:rgb(100%,0%,0%);fill-opacity:1;stroke-width:1;stroke-linecap:butt;stroke-linejoin:round;stroke:rgb(0%,0%,0%);stroke-opacity:1;stroke-miterlimit:10;" d="M 48.808594 465.589844 L 28.808594 465.589844 L 28.808594 475.589844 L 48.808594 475.589844 L 48.808594 495.589844 L 58.808594 495.589844 L 58.808594 475.589844 L 78.808594 475.589844 L 78.808594 465.589844 L 58.808594 465.589844 L 58.808594 445.589844 L 48.808594 445.589844 L 48.808594 465.589844 "/>
<path style="fill-rule:nonzero;fill:rgb(100%,0%,0%);fill-opacity:1;stroke-width:1;stroke-linecap:butt;stroke-linejoin:round;stroke:rgb(0%,0%,0%);stroke-opacity:1;stroke-miterlimit:10;" d="M 33.058594 291.867188 L 13.058594 291.867188 L 13.058594 301.867188 L 33.058594 301.867188 L 33.058594 321.867188 L 43.058594 321.867188 L 43.058594 301.867188 L 63.058594 301.867188 L 63.058594 291.867188 L 43.058594 291.867188 L 43.058594 271.867188 L 33.058594 271.867188 L 33.058594 291.867188 "/>
</g>
</svg>
