<?xml version="1.0" encoding="UTF-8"?>
<svg xmlns="http://www.w3.org/2000/svg" xmlns:xlink="http://www.w3.org/1999/xlink" width="517pt" height="517pt" viewBox="0 0 517 517" version="1.1">
<g id="surface376">
<rect x="0" y="0" width="517" height="517" style="fill:rgb(90%,90%,90%);fill-opacity:1;stroke:none;"/>
<path style="fill:none;stroke-width:5;stroke-linecap:butt;stroke-linejoin:round;stroke:rgb(100%,0%,0%);stroke-opacity:1;stroke-miterlimit:10;" d="M 5 5 L 261 5 L 261 261 L 5 261 Z M 5 5 "/>
<path style="fill-rule:nonzero;fill:rgb(0%,0%,0%);fill-opacity:1;stroke-width:1;stroke-linecap:butt;stroke-linejoin:round;stroke:rgb(0%,0%,0%);stroke-opacity:1;stroke-miterlimit:10;" d="M 176.921875 214.339844 L 156.921875 214.339844 L 156.921875 224.339844 L 176.921875 224.339844 L 176.921875 244.339844 L 186.921875 244.339844 L 186.921875 224.339844 L 206.921875 224.339844 L 206.921875 214.339844 L 186.921875 214.339844 L 186.921875 194.339844 L 176.921875 194.339844 L 176.921875 214.339844 "/>
<path style="fill-rule:nonzero;fill:rgb(100%,100%,0%);fill-opacity:1;stroke-width:1;stroke-linecap:butt;stroke-linejoin:round;stroke:rgb(0%,0%,0%);stroke-opacity:1;stroke-miterlimit:10;" d="M 110.460938 384.828125 L 90.460938 384.828125 L 90.460938 394.828125 L 110.460938 394.828125 L 110.460938 414.828125 L 120.460938 414.828125 L 120.460938 394.828125 L 140.460938 394.828125 L 140.460938 384.828125 L 120.460938 384.828125 L 120.460938 364.828125 L 110.460938 364.828125 L 110.460938 384.828125 "/>
<path style="fill-rule:nonzero;fill:rgb(0%,0%,0%);fill-opacity:1;stroke-width:1;stroke-linecap:butt;stroke-linejoin:round;stroke:rgb(0%,0%,0%);stroke-opacity:1;stroke-miterlimit:10;" d="M 325.304688 206.292969 L 305.304688 206.292969 L 305.304688 216.292969 L 325.304688 216.292969 L 325.304688 236.292969 L 335.304688 236.292969 L 335.304688 216.292969 L 355.304688 216.292969 L 355.304688 206.292969 L 335.304688 206.292969 L 335.304688 186.292969 L 325.304688 186.292969 L 325.304688 206.292969 "/>
<path style="fill-rule:nonzero;fill:rgb(0%,0%,0%);fill-opacity:1;stroke-width:1;stroke-linecap:butt;stroke-linejoin:round;stroke:rgb(0%,0%,0%);stroke-opacity:1;stroke-miterlimit:10;" d="M 293.632812 48.386719 L 273.632812 48.386719 L 273.632812 58.386719 L 293.632812 58.386719 L 293.632812 78.386719 L 303.632812 78.386719 L 303.632812 58.386719 L 323.632812 58.386719 L 323.632812 48.386719 L 303.632812 48.386719 L 303.632812 28.386719 L 293.632812 28.386719 L 293.632812 48.386719 "/>
</g>
</svg>
