<?xml version="1.0" encoding="UTF-8"?>
<svg xmlns="http://www.w3.org/2000/svg" xmlns:xlink="http://www.w3.org/1999/xlink" width="517pt" height="517pt" viewBox="0 0 517 517" version="1.1">
<g id="surface4236">
<rect x="0" y="0" width="517" height="517" style="fill:rgb(90%,90%,90%);fill-opacity:1;stroke:none;"/>
<path style="fill:none;stroke-width:5;stroke-linecap:butt;stroke-linejoin:round;stroke:rgb(100%,0%,0%);stroke-opacity:1;stroke-miterlimit:10;" d="M 261 5 L 517 5 L 517 261 L 261 261 Z M 261 5 "/>
<path style="fill-rule:nonzero;fill:rgb(100%,0%,0%);fill-opacity:1;stroke-width:1;stroke-linecap:butt;stroke-linejoin:round;stroke:rgb(0%,0%,0%);stroke-opacity:1;stroke-miterlimit:10;" d="M 376.046875 173.128906 C 376.046875 189.695312 362.613281 203.128906 346.046875 203.128906 C 329.476562 203.128906 316.046875 189.695312 316.046875 173.128906 C 316.046875 156.558594 329.476562 143.128906 346.046875 143.128906 C 362.613281 143.128906 376.046875 156.558594 376.046875 173.128906 "/>
<path style="fill-rule:nonzero;fill:rgb(100%,0%,0%);fill-opacity:1;stroke-width:1;stroke-linecap:butt;stroke-linejoin:round;stroke:rgb(0%,0%,0%);stroke-opacity:1;stroke-miterlimit:10;" d="M 93.746094 304.375 C 93.746094 320.941406 80.316406 334.375 63.746094 334.375 C 47.179688 334.375 33.746094 320.941406 33.746094 304.375 C 33.746094 287.804688 47.179688 274.375 63.746094 274.375 C 80.316406 274.375 93.746094 287.804688 93.746094 304.375 "/>
<path style="fill-rule:nonzero;fill:rgb(100%,0%,0%);fill-opacity:1;stroke-width:1;stroke-linecap:butt;stroke-linejoin:round;stroke:rgb(0%,0%,0%);stroke-opacity:1;stroke-miterlimit:10;" d="M 388.363281 335.945312 C 388.363281 352.515625 374.929688 365.945312 358.363281 365.945312 C 341.792969 365.945312 328.363281 352.515625 328.363281 335.945312 C 328.363281 319.378906 341.792969 305.945312 358.363281 305.945312 C 374.929688 305.945312 388.363281 319.378906 388.363281 335.945312 "/>
<path style="fill-rule:nonzero;fill:rgb(100%,0%,0%);fill-opacity:1;stroke-width:1;stroke-linecap:butt;stroke-linejoin:round;stroke:rgb(0%,0%,0%);stroke-opacity:1;stroke-miterlimit:10;" d="M 452.574219 397.597656 C 452.574219 414.164062 439.140625 427.597656 422.574219 427.597656 C 406.003906 427.597656 392.574219 414.164062 392.574219 397.597656 C 392.574219 381.027344 406.003906 367.597656 422.574219 367.597656 C 439.140625 367.597656 452.574219 381.027344 452.574219 397.597656 "/>
<path style="fill-rule:nonzero;fill:rgb(100%,0%,0%);fill-opacity:1;stroke-width:1;stroke-linecap:butt;stroke-linejoin:round;stroke:rgb(0%,0%,0%);stroke-opacity:1;stroke-miterlimit:10;" d="M 334.265625 292.179688 C 334.265625 308.75 320.832031 322.179688 304.265625 322.179688 C 287.695312 322.179688 274.265625 308.75 274.265625 292.179688 C 274.265625 275.613281 287.695312 262.179688 304.265625 262.179688 C 320.832031 262.179688 334.265625 275.613281 334.265625 292.179688 "/>
<path style="fill-rule:nonzero;fill:rgb(35%,70%,90%);fill-opacity:1;stroke-width:1;stroke-linecap:butt;stroke-linejoin:round;stroke:rgb(0%,0%,0%);stroke-opacity:1;stroke-miterlimit:10;" d="M 340.4375 381.804688 C 340.4375 398.371094 327.003906 411.804688 310.4375 411.804688 C 293.867188 411.804688 280.4375 398.371094 280.4375 381.804688 C 280.4375 365.234375 293.867188 351.804688 310.4375 351.804688 C 327.003906 351.804688 340.4375 365.234375 340.4375 381.804688 "/>
</g>
</svg>
