<?xml version="1.0" encoding="UTF-8"?>
<svg xmlns="http://www.w3.org/2000/svg" xmlns:xlink="http://www.w3.org/1999/xlink" width="517pt" height="517pt" viewBox="0 0 517 517" version="1.1">
<g id="surface4566">
<rect x="0" y="0" width="517" height="517" style="fill:rgb(90%,90%,90%);fill-opacity:1;stroke:none;"/>
<path style="fill:none;stroke-width:5;stroke-linecap:butt;stroke-linejoin:round;stroke:rgb(100%,0%,0%);stroke-opacity:1;stroke-miterlimit:10;" d="M 5 261 L 261 261 L 261 517 L 5 517 Z M 5 261 "/>
<path style="fill-rule:nonzero;fill:rgb(53%,27%,7%);fill-opacity:1;stroke-width:1;stroke-linecap:butt;stroke-linejoin:round;stroke:rgb(0%,0%,0%);stroke-opacity:1;stroke-miterlimit:10;" d="M 130.308594 350.980469 C 130.308594 336.582031 106.308594 336.582031 106.308594 350.980469 C 106.308594 365.382812 130.308594 367.78125 130.308594 379.78125 C 130.308594 367.78125 154.308594 365.382812 154.308594 350.980469 C 154.308594 336.582031 130.308594 336.582031 130.308594 350.980469 "/>
<path style="fill-rule:nonzero;fill:rgb(100%,100%,0%);fill-opacity:1;stroke-width:1;stroke-linecap:butt;stroke-linejoin:round;stroke:rgb(0%,0%,0%);stroke-opacity:1;stroke-miterlimit:10;" d="M 415.816406 423.058594 C 415.816406 408.660156 391.816406 408.660156 391.816406 423.058594 C 391.816406 437.457031 415.816406 439.859375 415.816406 451.859375 C 415.816406 439.859375 439.816406 437.457031 439.816406 423.058594 C 439.816406 408.660156 415.816406 408.660156 415.816406 423.058594 "/>
<path style="fill-rule:nonzero;fill:rgb(100%,100%,0%);fill-opacity:1;stroke-width:1;stroke-linecap:butt;stroke-linejoin:round;stroke:rgb(0%,0%,0%);stroke-opacity:1;stroke-miterlimit:10;" d="M 318.148438 358.148438 C 318.148438 343.746094 294.148438 343.746094 294.148438 358.148438 C 294.148438 372.546875 318.148438 374.945312 318.148438 386.945312 C 318.148438 374.945312 342.148438 372.546875 342.148438 358.148438 C 342.148438 343.746094 318.148438 343.746094 318.148438 358.148438 "/>
<path style="fill-rule:nonzero;fill:rgb(100%,100%,0%);fill-opacity:1;stroke-width:1;stroke-linecap:butt;stroke-linejoin:round;stroke:rgb(0%,0%,0%);stroke-opacity:1;stroke-miterlimit:10;" d="M 89.261719 112.101562 C 89.261719 97.699219 65.261719 97.699219 65.261719 112.101562 C 65.261719 126.5 89.261719 128.898438 89.261719 140.898438 C 89.261719 128.898438 113.261719 126.5 113.261719 112.101562 C 113.261719 97.699219 89.261719 97.699219 89.261719 112.101562 "/>
<path style="fill-rule:nonzero;fill:rgb(100%,100%,0%);fill-opacity:1;stroke-width:1;stroke-linecap:butt;stroke-linejoin:round;stroke:rgb(0%,0%,0%);stroke-opacity:1;stroke-miterlimit:10;" d="M 336.410156 139.652344 C 336.410156 125.253906 312.410156 125.253906 312.410156 139.652344 C 312.410156 154.054688 336.410156 156.453125 336.410156 168.453125 C 336.410156 156.453125 360.410156 154.054688 360.410156 139.652344 C 360.410156 125.253906 336.410156 125.253906 336.410156 139.652344 "/>
<path style="fill-rule:nonzero;fill:rgb(100%,100%,0%);fill-opacity:1;stroke-width:1;stroke-linecap:butt;stroke-linejoin:round;stroke:rgb(0%,0%,0%);stroke-opacity:1;stroke-miterlimit:10;" d="M 337.671875 78.121094 C 337.671875 63.722656 313.671875 63.722656 313.671875 78.121094 C 313.671875 92.523438 337.671875 94.921875 337.671875 106.921875 C 337.671875 94.921875 361.671875 92.523438 361.671875 78.121094 C 361.671875 63.722656 337.671875 63.722656 337.671875 78.121094 "/>
</g>
</svg>
