<?xml version="1.0" encoding="UTF-8"?>
<svg xmlns="http://www.w3.org/2000/svg" xmlns:xlink="http://www.w3.org/1999/xlink" width="517pt" height="517pt" viewBox="0 0 517 517" version="1.1">
<g id="surface4271">
<rect x="0" y="0" width="517" height="517" style="fill:rgb(90%,90%,90%);fill-opacity:1;stroke:none;"/>
<path style="fill:none;stroke-width:5;stroke-linecap:butt;stroke-linejoin:round;stroke:rgb(100%,0%,0%);stroke-opacity:1;stroke-miterlimit:10;" d="M 261 5 L 517 5 L 517 261 L 261 261 Z M 261 5 "/>
<path style="fill-rule:nonzero;fill:rgb(25%,88%,82%);fill-opacity:1;stroke-width:1;stroke-linecap:butt;stroke-linejoin:round;stroke:rgb(0%,0%,0%);stroke-opacity:1;stroke-miterlimit:10;" d="M 317.066406 81.6875 L 297.066406 81.6875 L 297.066406 91.6875 L 317.066406 91.6875 L 317.066406 111.6875 L 327.066406 111.6875 L 327.066406 91.6875 L 347.066406 91.6875 L 347.066406 81.6875 L 327.066406 81.6875 L 327.066406 61.6875 L 317.066406 61.6875 L 317.066406 81.6875 "/>
<path style="fill-rule:nonzero;fill:rgb(90%,65%,0%);fill-opacity:1;stroke-width:1;stroke-linecap:butt;stroke-linejoin:round;stroke:rgb(0%,0%,0%);stroke-opacity:1;stroke-miterlimit:10;" d="M 36.554688 115.863281 L 16.554688 115.863281 L 16.554688 125.863281 L 36.554688 125.863281 L 36.554688 145.863281 L 46.554688 145.863281 L 46.554688 125.863281 L 66.554688 125.863281 L 66.554688 115.863281 L 46.554688 115.863281 L 46.554688 95.863281 L 36.554688 95.863281 L 36.554688 115.863281 "/>
<path style="fill-rule:nonzero;fill:rgb(90%,65%,0%);fill-opacity:1;stroke-width:1;stroke-linecap:butt;stroke-linejoin:round;stroke:rgb(0%,0%,0%);stroke-opacity:1;stroke-miterlimit:10;" d="M 103.042969 393.851562 L 83.042969 393.851562 L 83.042969 403.851562 L 103.042969 403.851562 L 103.042969 423.851562 L 113.042969 423.851562 L 113.042969 403.851562 L 133.042969 403.851562 L 133.042969 393.851562 L 113.042969 393.851562 L 113.042969 373.851562 L 103.042969 373.851562 L 103.042969 393.851562 "/>
<path style="fill-rule:nonzero;fill:rgb(90%,65%,0%);fill-opacity:1;stroke-width:1;stroke-linecap:butt;stroke-linejoin:round;stroke:rgb(0%,0%,0%);stroke-opacity:1;stroke-miterlimit:10;" d="M 319.195312 320.019531 L 299.195312 320.019531 L 299.195312 330.019531 L 319.195312 330.019531 L 319.195312 350.019531 L 329.195312 350.019531 L 329.195312 330.019531 L 349.195312 330.019531 L 349.195312 320.019531 L 329.195312 320.019531 L 329.195312 300.019531 L 319.195312 300.019531 L 319.195312 320.019531 "/>
<path style="fill-rule:nonzero;fill:rgb(90%,65%,0%);fill-opacity:1;stroke-width:1;stroke-linecap:butt;stroke-linejoin:round;stroke:rgb(0%,0%,0%);stroke-opacity:1;stroke-miterlimit:10;" d="M 397.46875 343.710938 L 377.46875 343.710938 L 377.46875 353.710938 L 397.46875 353.710938 L 397.46875 373.710938 L 407.46875 373.710938 L 407.46875 353.710938 L 427.46875 353.710938 L 427.46875 343.710938 L 407.46875 343.710938 L 407.46875 323.710938 L 397.46875 323.710938 L 397.46875 343.710938 "/>
<path style="fill-rule:nonzero;fill:rgb(25%,88%,82%);fill-opacity:1;stroke-width:1;stroke-linecap:butt;stroke-linejoin:round;stroke:rgb(0%,0%,0%);stroke-opacity:1;stroke-miterlimit:10;" d="M 321.875 433.589844 L 301.875 433.589844 L 301.875 443.589844 L 321.875 443.589844 L 321.875 463.589844 L 331.875 463.589844 L 331.875 443.589844 L 351.875 443.589844 L 351.875 433.589844 L 331.875 433.589844 L 331.875 413.589844 L 321.875 413.589844 L 321.875 433.589844 "/>
</g>
</svg>
