<?xml version="1.0" encoding="UTF-8"?>
<svg xmlns="http://www.w3.org/2000/svg" xmlns:xlink="http://www.w3.org/1999/xlink" width="517pt" height="517pt" viewBox="0 0 517 517" version="1.1">
<g id="surface3996">
<rect x="0" y="0" width="517" height="517" style="fill:rgb(90%,90%,90%);fill-opacity:1;stroke:none;"/>
<path style="fill:none;stroke-width:5;stroke-linecap:butt;stroke-linejoin:round;stroke:rgb(100%,0%,0%);stroke-opacity:1;stroke-miterlimit:10;" d="M 5 5 L 261 5 L 261 261 L 5 261 Z M 5 5 "/>
<path style="fill-rule:nonzero;fill:rgb(67%,100%,18%);fill-opacity:1;stroke-width:1;stroke-linecap:butt;stroke-linejoin:round;stroke:rgb(0%,0%,0%);stroke-opacity:1;stroke-miterlimit:10;" d="M 164.140625 214.703125 L 144.140625 214.703125 L 144.140625 224.703125 L 164.140625 224.703125 L 164.140625 244.703125 L 174.140625 244.703125 L 174.140625 224.703125 L 194.140625 224.703125 L 194.140625 214.703125 L 174.140625 214.703125 L 174.140625 194.703125 L 164.140625 194.703125 L 164.140625 214.703125 "/>
<path style="fill-rule:nonzero;fill:rgb(50%,0%,50%);fill-opacity:1;stroke-width:1;stroke-linecap:butt;stroke-linejoin:round;stroke:rgb(0%,0%,0%);stroke-opacity:1;stroke-miterlimit:10;" d="M 315.457031 379.722656 L 295.457031 379.722656 L 295.457031 389.722656 L 315.457031 389.722656 L 315.457031 409.722656 L 325.457031 409.722656 L 325.457031 389.722656 L 345.457031 389.722656 L 345.457031 379.722656 L 325.457031 379.722656 L 325.457031 359.722656 L 315.457031 359.722656 L 315.457031 379.722656 "/>
<path style="fill-rule:nonzero;fill:rgb(50%,0%,50%);fill-opacity:1;stroke-width:1;stroke-linecap:butt;stroke-linejoin:round;stroke:rgb(0%,0%,0%);stroke-opacity:1;stroke-miterlimit:10;" d="M 370.28125 308.058594 L 350.28125 308.058594 L 350.28125 318.058594 L 370.28125 318.058594 L 370.28125 338.058594 L 380.28125 338.058594 L 380.28125 318.058594 L 400.28125 318.058594 L 400.28125 308.058594 L 380.28125 308.058594 L 380.28125 288.058594 L 370.28125 288.058594 L 370.28125 308.058594 "/>
<path style="fill-rule:nonzero;fill:rgb(50%,0%,50%);fill-opacity:1;stroke-width:1;stroke-linecap:butt;stroke-linejoin:round;stroke:rgb(0%,0%,0%);stroke-opacity:1;stroke-miterlimit:10;" d="M 55.121094 352.441406 L 35.121094 352.441406 L 35.121094 362.441406 L 55.121094 362.441406 L 55.121094 382.441406 L 65.121094 382.441406 L 65.121094 362.441406 L 85.121094 362.441406 L 85.121094 352.441406 L 65.121094 352.441406 L 65.121094 332.441406 L 55.121094 332.441406 L 55.121094 352.441406 "/>
<path style="fill-rule:nonzero;fill:rgb(50%,0%,50%);fill-opacity:1;stroke-width:1;stroke-linecap:butt;stroke-linejoin:round;stroke:rgb(0%,0%,0%);stroke-opacity:1;stroke-miterlimit:10;" d="M 111.289062 309.96875 L 91.289062 309.96875 L 91.289062 319.96875 L 111.289062 319.96875 L 111.289062 339.96875 L 121.289062 339.96875 L 121.289062 319.96875 L 141.289062 319.96875 L 141.289062 309.96875 L 121.289062 309.96875 L 121.289062 289.96875 L 111.289062 289.96875 L 111.289062 309.96875 "/>
<path style="fill-rule:nonzero;fill:rgb(0%,0%,0%);fill-opacity:1;stroke-width:1;stroke-linecap:butt;stroke-linejoin:round;stroke:rgb(0%,0%,0%);stroke-opacity:1;stroke-miterlimit:10;" d="M 56.25 453.164062 L 36.25 453.164062 L 36.25 463.164062 L 56.25 463.164062 L 56.25 483.164062 L 66.25 483.164062 L 66.25 463.164062 L 86.25 463.164062 L 86.25 453.164062 L 66.25 453.164062 L 66.25 433.164062 L 56.25 433.164062 L 56.25 453.164062 "/>
</g>
</svg>
