<?xml version="1.0" encoding="UTF-8"?>
<svg xmlns="http://www.w3.org/2000/svg" xmlns:xlink="http://www.w3.org/1999/xlink" width="517pt" height="517pt" viewBox="0 0 517 517" version="1.1">
<g id="surface3936">
<rect x="0" y="0" width="517" height="517" style="fill:rgb(90%,90%,90%);fill-opacity:1;stroke:none;"/>
<path style="fill:none;stroke-width:5;stroke-linecap:butt;stroke-linejoin:round;stroke:rgb(100%,0%,0%);stroke-opacity:1;stroke-miterlimit:10;" d="M 5 5 L 261 5 L 261 261 L 5 261 Z M 5 5 "/>
<path style="fill-rule:nonzero;fill:rgb(0%,0%,0%);fill-opacity:1;stroke-width:1;stroke-linecap:butt;stroke-linejoin:round;stroke:rgb(0%,0%,0%);stroke-opacity:1;stroke-miterlimit:10;" d="M 117.265625 181.835938 L 97.265625 181.835938 L 97.265625 191.835938 L 117.265625 191.835938 L 117.265625 211.835938 L 127.265625 211.835938 L 127.265625 191.835938 L 147.265625 191.835938 L 147.265625 181.835938 L 127.265625 181.835938 L 127.265625 161.835938 L 117.265625 161.835938 L 117.265625 181.835938 "/>
<path style="fill-rule:nonzero;fill:rgb(50%,0%,50%);fill-opacity:1;stroke-width:1;stroke-linecap:butt;stroke-linejoin:round;stroke:rgb(0%,0%,0%);stroke-opacity:1;stroke-miterlimit:10;" d="M 61.390625 338.242188 L 41.390625 338.242188 L 41.390625 348.242188 L 61.390625 348.242188 L 61.390625 368.242188 L 71.390625 368.242188 L 71.390625 348.242188 L 91.390625 348.242188 L 91.390625 338.242188 L 71.390625 338.242188 L 71.390625 318.242188 L 61.390625 318.242188 L 61.390625 338.242188 "/>
<path style="fill-rule:nonzero;fill:rgb(50%,0%,50%);fill-opacity:1;stroke-width:1;stroke-linecap:butt;stroke-linejoin:round;stroke:rgb(0%,0%,0%);stroke-opacity:1;stroke-miterlimit:10;" d="M 417.464844 373.289062 L 397.464844 373.289062 L 397.464844 383.289062 L 417.464844 383.289062 L 417.464844 403.289062 L 427.464844 403.289062 L 427.464844 383.289062 L 447.464844 383.289062 L 447.464844 373.289062 L 427.464844 373.289062 L 427.464844 353.289062 L 417.464844 353.289062 L 417.464844 373.289062 "/>
<path style="fill-rule:nonzero;fill:rgb(50%,0%,50%);fill-opacity:1;stroke-width:1;stroke-linecap:butt;stroke-linejoin:round;stroke:rgb(0%,0%,0%);stroke-opacity:1;stroke-miterlimit:10;" d="M 442.292969 300.65625 L 422.292969 300.65625 L 422.292969 310.65625 L 442.292969 310.65625 L 442.292969 330.65625 L 452.292969 330.65625 L 452.292969 310.65625 L 472.292969 310.65625 L 472.292969 300.65625 L 452.292969 300.65625 L 452.292969 280.65625 L 442.292969 280.65625 L 442.292969 300.65625 "/>
<path style="fill-rule:nonzero;fill:rgb(50%,0%,50%);fill-opacity:1;stroke-width:1;stroke-linecap:butt;stroke-linejoin:round;stroke:rgb(0%,0%,0%);stroke-opacity:1;stroke-miterlimit:10;" d="M 288.46875 339.40625 L 268.46875 339.40625 L 268.46875 349.40625 L 288.46875 349.40625 L 288.46875 369.40625 L 298.46875 369.40625 L 298.46875 349.40625 L 318.46875 349.40625 L 318.46875 339.40625 L 298.46875 339.40625 L 298.46875 319.40625 L 288.46875 319.40625 L 288.46875 339.40625 "/>
<path style="fill-rule:nonzero;fill:rgb(50%,0%,50%);fill-opacity:1;stroke-width:1;stroke-linecap:butt;stroke-linejoin:round;stroke:rgb(0%,0%,0%);stroke-opacity:1;stroke-miterlimit:10;" d="M 463.296875 427.738281 L 443.296875 427.738281 L 443.296875 437.738281 L 463.296875 437.738281 L 463.296875 457.738281 L 473.296875 457.738281 L 473.296875 437.738281 L 493.296875 437.738281 L 493.296875 427.738281 L 473.296875 427.738281 L 473.296875 407.738281 L 463.296875 407.738281 L 463.296875 427.738281 "/>
</g>
</svg>
