<?xml version="1.0" encoding="UTF-8"?>
<svg xmlns="http://www.w3.org/2000/svg" xmlns:xlink="http://www.w3.org/1999/xlink" width="517pt" height="517pt" viewBox="0 0 517 517" version="1.1">
<g id="surface4311">
<rect x="0" y="0" width="517" height="517" style="fill:rgb(90%,90%,90%);fill-opacity:1;stroke:none;"/>
<path style="fill:none;stroke-width:5;stroke-linecap:butt;stroke-linejoin:round;stroke:rgb(100%,0%,0%);stroke-opacity:1;stroke-miterlimit:10;" d="M 261 5 L 517 5 L 517 261 L 261 261 Z M 261 5 "/>
<path style="fill-rule:nonzero;fill:rgb(90%,65%,0%);fill-opacity:1;stroke-width:1;stroke-linecap:butt;stroke-linejoin:round;stroke:rgb(0%,0%,0%);stroke-opacity:1;stroke-miterlimit:10;" d="M 349.363281 31.8125 L 329.363281 31.8125 L 329.363281 41.8125 L 349.363281 41.8125 L 349.363281 61.8125 L 359.363281 61.8125 L 359.363281 41.8125 L 379.363281 41.8125 L 379.363281 31.8125 L 359.363281 31.8125 L 359.363281 11.8125 L 349.363281 11.8125 L 349.363281 31.8125 "/>
<path style="fill-rule:nonzero;fill:rgb(90%,65%,0%);fill-opacity:1;stroke-width:1;stroke-linecap:butt;stroke-linejoin:round;stroke:rgb(0%,0%,0%);stroke-opacity:1;stroke-miterlimit:10;" d="M 469.089844 300.613281 L 449.089844 300.613281 L 449.089844 310.613281 L 469.089844 310.613281 L 469.089844 330.613281 L 479.089844 330.613281 L 479.089844 310.613281 L 499.089844 310.613281 L 499.089844 300.613281 L 479.089844 300.613281 L 479.089844 280.613281 L 469.089844 280.613281 L 469.089844 300.613281 "/>
<path style="fill-rule:nonzero;fill:rgb(25%,88%,82%);fill-opacity:1;stroke-width:1;stroke-linecap:butt;stroke-linejoin:round;stroke:rgb(0%,0%,0%);stroke-opacity:1;stroke-miterlimit:10;" d="M 451.746094 417.652344 L 431.746094 417.652344 L 431.746094 427.652344 L 451.746094 427.652344 L 451.746094 447.652344 L 461.746094 447.652344 L 461.746094 427.652344 L 481.746094 427.652344 L 481.746094 417.652344 L 461.746094 417.652344 L 461.746094 397.652344 L 451.746094 397.652344 L 451.746094 417.652344 "/>
<path style="fill-rule:nonzero;fill:rgb(25%,88%,82%);fill-opacity:1;stroke-width:1;stroke-linecap:butt;stroke-linejoin:round;stroke:rgb(0%,0%,0%);stroke-opacity:1;stroke-miterlimit:10;" d="M 56.160156 414.46875 L 36.160156 414.46875 L 36.160156 424.46875 L 56.160156 424.46875 L 56.160156 444.46875 L 66.160156 444.46875 L 66.160156 424.46875 L 86.160156 424.46875 L 86.160156 414.46875 L 66.160156 414.46875 L 66.160156 394.46875 L 56.160156 394.46875 L 56.160156 414.46875 "/>
<path style="fill-rule:nonzero;fill:rgb(25%,88%,82%);fill-opacity:1;stroke-width:1;stroke-linecap:butt;stroke-linejoin:round;stroke:rgb(0%,0%,0%);stroke-opacity:1;stroke-miterlimit:10;" d="M 82.265625 349.199219 L 62.265625 349.199219 L 62.265625 359.199219 L 82.265625 359.199219 L 82.265625 379.199219 L 92.265625 379.199219 L 92.265625 359.199219 L 112.265625 359.199219 L 112.265625 349.199219 L 92.265625 349.199219 L 92.265625 329.199219 L 82.265625 329.199219 L 82.265625 349.199219 "/>
<path style="fill-rule:nonzero;fill:rgb(25%,88%,82%);fill-opacity:1;stroke-width:1;stroke-linecap:butt;stroke-linejoin:round;stroke:rgb(0%,0%,0%);stroke-opacity:1;stroke-miterlimit:10;" d="M 53.71875 52.761719 L 33.71875 52.761719 L 33.71875 62.761719 L 53.71875 62.761719 L 53.71875 82.761719 L 63.71875 82.761719 L 63.71875 62.761719 L 83.71875 62.761719 L 83.71875 52.761719 L 63.71875 52.761719 L 63.71875 32.761719 L 53.71875 32.761719 L 53.71875 52.761719 "/>
</g>
</svg>
