<?xml version="1.0" encoding="UTF-8"?>
<svg xmlns="http://www.w3.org/2000/svg" xmlns:xlink="http://www.w3.org/1999/xlink" width="517pt" height="517pt" viewBox="0 0 517 517" version="1.1">
<g id="surface3951">
<rect x="0" y="0" width="517" height="517" style="fill:rgb(90%,90%,90%);fill-opacity:1;stroke:none;"/>
<path style="fill:none;stroke-width:5;stroke-linecap:butt;stroke-linejoin:round;stroke:rgb(100%,0%,0%);stroke-opacity:1;stroke-miterlimit:10;" d="M 5 5 L 261 5 L 261 261 L 5 261 Z M 5 5 "/>
<path style="fill-rule:nonzero;fill:rgb(0%,0%,0%);fill-opacity:1;stroke-width:1;stroke-linecap:butt;stroke-linejoin:round;stroke:rgb(0%,0%,0%);stroke-opacity:1;stroke-miterlimit:10;" d="M 126.648438 208.578125 L 106.648438 208.578125 L 106.648438 218.578125 L 126.648438 218.578125 L 126.648438 238.578125 L 136.648438 238.578125 L 136.648438 218.578125 L 156.648438 218.578125 L 156.648438 208.578125 L 136.648438 208.578125 L 136.648438 188.578125 L 126.648438 188.578125 L 126.648438 208.578125 "/>
<path style="fill-rule:nonzero;fill:rgb(50%,0%,50%);fill-opacity:1;stroke-width:1;stroke-linecap:butt;stroke-linejoin:round;stroke:rgb(0%,0%,0%);stroke-opacity:1;stroke-miterlimit:10;" d="M 328.15625 194.542969 L 308.15625 194.542969 L 308.15625 204.542969 L 328.15625 204.542969 L 328.15625 224.542969 L 338.15625 224.542969 L 338.15625 204.542969 L 358.15625 204.542969 L 358.15625 194.542969 L 338.15625 194.542969 L 338.15625 174.542969 L 328.15625 174.542969 L 328.15625 194.542969 "/>
<path style="fill-rule:nonzero;fill:rgb(50%,0%,50%);fill-opacity:1;stroke-width:1;stroke-linecap:butt;stroke-linejoin:round;stroke:rgb(0%,0%,0%);stroke-opacity:1;stroke-miterlimit:10;" d="M 394.496094 56.910156 L 374.496094 56.910156 L 374.496094 66.910156 L 394.496094 66.910156 L 394.496094 86.910156 L 404.496094 86.910156 L 404.496094 66.910156 L 424.496094 66.910156 L 424.496094 56.910156 L 404.496094 56.910156 L 404.496094 36.910156 L 394.496094 36.910156 L 394.496094 56.910156 "/>
<path style="fill-rule:nonzero;fill:rgb(50%,0%,50%);fill-opacity:1;stroke-width:1;stroke-linecap:butt;stroke-linejoin:round;stroke:rgb(0%,0%,0%);stroke-opacity:1;stroke-miterlimit:10;" d="M 384.964844 382.601562 L 364.964844 382.601562 L 364.964844 392.601562 L 384.964844 392.601562 L 384.964844 412.601562 L 394.964844 412.601562 L 394.964844 392.601562 L 414.964844 392.601562 L 414.964844 382.601562 L 394.964844 382.601562 L 394.964844 362.601562 L 384.964844 362.601562 L 384.964844 382.601562 "/>
<path style="fill-rule:nonzero;fill:rgb(50%,0%,50%);fill-opacity:1;stroke-width:1;stroke-linecap:butt;stroke-linejoin:round;stroke:rgb(0%,0%,0%);stroke-opacity:1;stroke-miterlimit:10;" d="M 297.355469 379.585938 L 277.355469 379.585938 L 277.355469 389.585938 L 297.355469 389.585938 L 297.355469 409.585938 L 307.355469 409.585938 L 307.355469 389.585938 L 327.355469 389.585938 L 327.355469 379.585938 L 307.355469 379.585938 L 307.355469 359.585938 L 297.355469 359.585938 L 297.355469 379.585938 "/>
<path style="fill-rule:nonzero;fill:rgb(0%,0%,0%);fill-opacity:1;stroke-width:1;stroke-linecap:butt;stroke-linejoin:round;stroke:rgb(0%,0%,0%);stroke-opacity:1;stroke-miterlimit:10;" d="M 371.941406 295.421875 L 351.941406 295.421875 L 351.941406 305.421875 L 371.941406 305.421875 L 371.941406 325.421875 L 381.941406 325.421875 L 381.941406 305.421875 L 401.941406 305.421875 L 401.941406 295.421875 L 381.941406 295.421875 L 381.941406 275.421875 L 371.941406 275.421875 L 371.941406 295.421875 "/>
</g>
</svg>
