<?xml version="1.0" encoding="UTF-8"?>
<svg xmlns="http://www.w3.org/2000/svg" xmlns:xlink="http://www.w3.org/1999/xlink" width="517pt" height="517pt" viewBox="0 0 517 517" version="1.1">
<g id="surface9116">
<rect x="0" y="0" width="517" height="517" style="fill:rgb(90%,90%,90%);fill-opacity:1;stroke:none;"/>
<path style="fill:none;stroke-width:5;stroke-linecap:butt;stroke-linejoin:round;stroke:rgb(100%,0%,0%);stroke-opacity:1;stroke-miterlimit:10;" d="M 5 261 L 261 261 L 261 517 L 5 517 Z M 5 261 "/>
<path style="fill-rule:nonzero;fill:rgb(0%,0%,0%);fill-opacity:1;stroke-width:1;stroke-linecap:butt;stroke-linejoin:round;stroke:rgb(0%,0%,0%);stroke-opacity:1;stroke-miterlimit:10;" d="M 140.316406 296.832031 L 120.316406 296.832031 L 120.316406 306.832031 L 140.316406 306.832031 L 140.316406 326.832031 L 150.316406 326.832031 L 150.316406 306.832031 L 170.316406 306.832031 L 170.316406 296.832031 L 150.316406 296.832031 L 150.316406 276.832031 L 140.316406 276.832031 L 140.316406 296.832031 "/>
<path style="fill-rule:nonzero;fill:rgb(0%,0%,0%);fill-opacity:1;stroke-width:1;stroke-linecap:butt;stroke-linejoin:round;stroke:rgb(0%,0%,0%);stroke-opacity:1;stroke-miterlimit:10;" d="M 391.941406 183.941406 L 371.941406 183.941406 L 371.941406 193.941406 L 391.941406 193.941406 L 391.941406 213.941406 L 401.941406 213.941406 L 401.941406 193.941406 L 421.941406 193.941406 L 421.941406 183.941406 L 401.941406 183.941406 L 401.941406 163.941406 L 391.941406 163.941406 L 391.941406 183.941406 "/>
<path style="fill-rule:nonzero;fill:rgb(0%,0%,0%);fill-opacity:1;stroke-width:1;stroke-linecap:butt;stroke-linejoin:round;stroke:rgb(0%,0%,0%);stroke-opacity:1;stroke-miterlimit:10;" d="M 318.957031 83.046875 L 298.957031 83.046875 L 298.957031 93.046875 L 318.957031 93.046875 L 318.957031 113.046875 L 328.957031 113.046875 L 328.957031 93.046875 L 348.957031 93.046875 L 348.957031 83.046875 L 328.957031 83.046875 L 328.957031 63.046875 L 318.957031 63.046875 L 318.957031 83.046875 "/>
<path style="fill-rule:nonzero;fill:rgb(0%,0%,0%);fill-opacity:1;stroke-width:1;stroke-linecap:butt;stroke-linejoin:round;stroke:rgb(0%,0%,0%);stroke-opacity:1;stroke-miterlimit:10;" d="M 131.957031 125.867188 L 111.957031 125.867188 L 111.957031 135.867188 L 131.957031 135.867188 L 131.957031 155.867188 L 141.957031 155.867188 L 141.957031 135.867188 L 161.957031 135.867188 L 161.957031 125.867188 L 141.957031 125.867188 L 141.957031 105.867188 L 131.957031 105.867188 L 131.957031 125.867188 "/>
<path style="fill-rule:nonzero;fill:rgb(0%,0%,0%);fill-opacity:1;stroke-width:1;stroke-linecap:butt;stroke-linejoin:round;stroke:rgb(0%,0%,0%);stroke-opacity:1;stroke-miterlimit:10;" d="M 428.519531 454.1875 L 408.519531 454.1875 L 408.519531 464.1875 L 428.519531 464.1875 L 428.519531 484.1875 L 438.519531 484.1875 L 438.519531 464.1875 L 458.519531 464.1875 L 458.519531 454.1875 L 438.519531 454.1875 L 438.519531 434.1875 L 428.519531 434.1875 L 428.519531 454.1875 "/>
<path style="fill-rule:nonzero;fill:rgb(0%,0%,0%);fill-opacity:1;stroke-width:1;stroke-linecap:butt;stroke-linejoin:round;stroke:rgb(0%,0%,0%);stroke-opacity:1;stroke-miterlimit:10;" d="M 306.609375 411.003906 L 286.609375 411.003906 L 286.609375 421.003906 L 306.609375 421.003906 L 306.609375 441.003906 L 316.609375 441.003906 L 316.609375 421.003906 L 336.609375 421.003906 L 336.609375 411.003906 L 316.609375 411.003906 L 316.609375 391.003906 L 306.609375 391.003906 L 306.609375 411.003906 "/>
</g>
</svg>
