<?xml version="1.0" encoding="UTF-8"?>
<svg xmlns="http://www.w3.org/2000/svg" xmlns:xlink="http://www.w3.org/1999/xlink" width="517pt" height="517pt" viewBox="0 0 517 517" version="1.1">
<g id="surface9126">
<rect x="0" y="0" width="517" height="517" style="fill:rgb(90%,90%,90%);fill-opacity:1;stroke:none;"/>
<path style="fill:none;stroke-width:5;stroke-linecap:butt;stroke-linejoin:round;stroke:rgb(100%,0%,0%);stroke-opacity:1;stroke-miterlimit:10;" d="M 261 5 L 517 5 L 517 261 L 261 261 Z M 261 5 "/>
<path style="fill-rule:nonzero;fill:rgb(100%,100%,0%);fill-opacity:1;stroke-width:1;stroke-linecap:butt;stroke-linejoin:round;stroke:rgb(0%,0%,0%);stroke-opacity:1;stroke-miterlimit:10;" d="M 468.253906 165.882812 L 448.253906 165.882812 L 448.253906 175.882812 L 468.253906 175.882812 L 468.253906 195.882812 L 478.253906 195.882812 L 478.253906 175.882812 L 498.253906 175.882812 L 498.253906 165.882812 L 478.253906 165.882812 L 478.253906 145.882812 L 468.253906 145.882812 L 468.253906 165.882812 "/>
<path style="fill-rule:nonzero;fill:rgb(100%,0%,0%);fill-opacity:1;stroke-width:1;stroke-linecap:butt;stroke-linejoin:round;stroke:rgb(0%,0%,0%);stroke-opacity:1;stroke-miterlimit:10;" d="M 215.636719 65.644531 L 195.636719 65.644531 L 195.636719 75.644531 L 215.636719 75.644531 L 215.636719 95.644531 L 225.636719 95.644531 L 225.636719 75.644531 L 245.636719 75.644531 L 245.636719 65.644531 L 225.636719 65.644531 L 225.636719 45.644531 L 215.636719 45.644531 L 215.636719 65.644531 "/>
<path style="fill-rule:nonzero;fill:rgb(100%,0%,0%);fill-opacity:1;stroke-width:1;stroke-linecap:butt;stroke-linejoin:round;stroke:rgb(0%,0%,0%);stroke-opacity:1;stroke-miterlimit:10;" d="M 419.5 465.457031 L 399.5 465.457031 L 399.5 475.457031 L 419.5 475.457031 L 419.5 495.457031 L 429.5 495.457031 L 429.5 475.457031 L 449.5 475.457031 L 449.5 465.457031 L 429.5 465.457031 L 429.5 445.457031 L 419.5 445.457031 L 419.5 465.457031 "/>
<path style="fill-rule:nonzero;fill:rgb(100%,0%,0%);fill-opacity:1;stroke-width:1;stroke-linecap:butt;stroke-linejoin:round;stroke:rgb(0%,0%,0%);stroke-opacity:1;stroke-miterlimit:10;" d="M 364.457031 365.042969 L 344.457031 365.042969 L 344.457031 375.042969 L 364.457031 375.042969 L 364.457031 395.042969 L 374.457031 395.042969 L 374.457031 375.042969 L 394.457031 375.042969 L 394.457031 365.042969 L 374.457031 365.042969 L 374.457031 345.042969 L 364.457031 345.042969 L 364.457031 365.042969 "/>
<path style="fill-rule:nonzero;fill:rgb(100%,0%,0%);fill-opacity:1;stroke-width:1;stroke-linecap:butt;stroke-linejoin:round;stroke:rgb(0%,0%,0%);stroke-opacity:1;stroke-miterlimit:10;" d="M 182.289062 462.277344 L 162.289062 462.277344 L 162.289062 472.277344 L 182.289062 472.277344 L 182.289062 492.277344 L 192.289062 492.277344 L 192.289062 472.277344 L 212.289062 472.277344 L 212.289062 462.277344 L 192.289062 462.277344 L 192.289062 442.277344 L 182.289062 442.277344 L 182.289062 462.277344 "/>
</g>
</svg>
