<?xml version="1.0" encoding="UTF-8"?>
<svg xmlns="http://www.w3.org/2000/svg" xmlns:xlink="http://www.w3.org/1999/xlink" width="517pt" height="517pt" viewBox="0 0 517 517" version="1.1">
<g id="surface386">
<rect x="0" y="0" width="517" height="517" style="fill:rgb(90%,90%,90%);fill-opacity:1;stroke:none;"/>
<path style="fill:none;stroke-width:5;stroke-linecap:butt;stroke-linejoin:round;stroke:rgb(100%,0%,0%);stroke-opacity:1;stroke-miterlimit:10;" d="M 5 5 L 261 5 L 261 261 L 5 261 Z M 5 5 "/>
<path style="fill-rule:nonzero;fill:rgb(25%,88%,82%);fill-opacity:1;stroke-width:1;stroke-linecap:butt;stroke-linejoin:round;stroke:rgb(0%,0%,0%);stroke-opacity:1;stroke-miterlimit:10;" d="M 103.855469 99.363281 L 83.855469 99.363281 L 83.855469 109.363281 L 103.855469 109.363281 L 103.855469 129.363281 L 113.855469 129.363281 L 113.855469 109.363281 L 133.855469 109.363281 L 133.855469 99.363281 L 113.855469 99.363281 L 113.855469 79.363281 L 103.855469 79.363281 L 103.855469 99.363281 "/>
<path style="fill-rule:nonzero;fill:rgb(100%,100%,0%);fill-opacity:1;stroke-width:1;stroke-linecap:butt;stroke-linejoin:round;stroke:rgb(0%,0%,0%);stroke-opacity:1;stroke-miterlimit:10;" d="M 342.132812 356.96875 L 322.132812 356.96875 L 322.132812 366.96875 L 342.132812 366.96875 L 342.132812 386.96875 L 352.132812 386.96875 L 352.132812 366.96875 L 372.132812 366.96875 L 372.132812 356.96875 L 352.132812 356.96875 L 352.132812 336.96875 L 342.132812 336.96875 L 342.132812 356.96875 "/>
<path style="fill-rule:nonzero;fill:rgb(100%,100%,0%);fill-opacity:1;stroke-width:1;stroke-linecap:butt;stroke-linejoin:round;stroke:rgb(0%,0%,0%);stroke-opacity:1;stroke-miterlimit:10;" d="M 114.308594 410.347656 L 94.308594 410.347656 L 94.308594 420.347656 L 114.308594 420.347656 L 114.308594 440.347656 L 124.308594 440.347656 L 124.308594 420.347656 L 144.308594 420.347656 L 144.308594 410.347656 L 124.308594 410.347656 L 124.308594 390.347656 L 114.308594 390.347656 L 114.308594 410.347656 "/>
<path style="fill-rule:nonzero;fill:rgb(100%,100%,0%);fill-opacity:1;stroke-width:1;stroke-linecap:butt;stroke-linejoin:round;stroke:rgb(0%,0%,0%);stroke-opacity:1;stroke-miterlimit:10;" d="M 44.851562 295.882812 L 24.851562 295.882812 L 24.851562 305.882812 L 44.851562 305.882812 L 44.851562 325.882812 L 54.851562 325.882812 L 54.851562 305.882812 L 74.851562 305.882812 L 74.851562 295.882812 L 54.851562 295.882812 L 54.851562 275.882812 L 44.851562 275.882812 L 44.851562 295.882812 "/>
</g>
</svg>
