<?xml version="1.0" encoding="UTF-8"?>
<svg xmlns="http://www.w3.org/2000/svg" xmlns:xlink="http://www.w3.org/1999/xlink" width="517pt" height="517pt" viewBox="0 0 517 517" version="1.1">
<g id="surface9546">
<rect x="0" y="0" width="517" height="517" style="fill:rgb(90%,90%,90%);fill-opacity:1;stroke:none;"/>
<path style="fill:none;stroke-width:5;stroke-linecap:butt;stroke-linejoin:round;stroke:rgb(100%,0%,0%);stroke-opacity:1;stroke-miterlimit:10;" d="M 261 261 L 517 261 L 517 517 L 261 517 Z M 261 261 "/>
<path style="fill-rule:nonzero;fill:rgb(100%,100%,0%);fill-opacity:1;stroke-width:1;stroke-linecap:butt;stroke-linejoin:round;stroke:rgb(0%,0%,0%);stroke-opacity:1;stroke-miterlimit:10;" d="M 397.554688 368.683594 L 377.554688 368.683594 L 377.554688 378.683594 L 397.554688 378.683594 L 397.554688 398.683594 L 407.554688 398.683594 L 407.554688 378.683594 L 427.554688 378.683594 L 427.554688 368.683594 L 407.554688 368.683594 L 407.554688 348.683594 L 397.554688 348.683594 L 397.554688 368.683594 "/>
<path style="fill-rule:nonzero;fill:rgb(35%,70%,90%);fill-opacity:1;stroke-width:1;stroke-linecap:butt;stroke-linejoin:round;stroke:rgb(0%,0%,0%);stroke-opacity:1;stroke-miterlimit:10;" d="M 79.300781 155.875 L 59.300781 155.875 L 59.300781 165.875 L 79.300781 165.875 L 79.300781 185.875 L 89.300781 185.875 L 89.300781 165.875 L 109.300781 165.875 L 109.300781 155.875 L 89.300781 155.875 L 89.300781 135.875 L 79.300781 135.875 L 79.300781 155.875 "/>
<path style="fill-rule:nonzero;fill:rgb(35%,70%,90%);fill-opacity:1;stroke-width:1;stroke-linecap:butt;stroke-linejoin:round;stroke:rgb(0%,0%,0%);stroke-opacity:1;stroke-miterlimit:10;" d="M 215.898438 206.007812 L 195.898438 206.007812 L 195.898438 216.007812 L 215.898438 216.007812 L 215.898438 236.007812 L 225.898438 236.007812 L 225.898438 216.007812 L 245.898438 216.007812 L 245.898438 206.007812 L 225.898438 206.007812 L 225.898438 186.007812 L 215.898438 186.007812 L 215.898438 206.007812 "/>
<path style="fill-rule:nonzero;fill:rgb(35%,70%,90%);fill-opacity:1;stroke-width:1;stroke-linecap:butt;stroke-linejoin:round;stroke:rgb(0%,0%,0%);stroke-opacity:1;stroke-miterlimit:10;" d="M 330.914062 210.03125 L 310.914062 210.03125 L 310.914062 220.03125 L 330.914062 220.03125 L 330.914062 240.03125 L 340.914062 240.03125 L 340.914062 220.03125 L 360.914062 220.03125 L 360.914062 210.03125 L 340.914062 210.03125 L 340.914062 190.03125 L 330.914062 190.03125 L 330.914062 210.03125 "/>
<path style="fill-rule:nonzero;fill:rgb(35%,70%,90%);fill-opacity:1;stroke-width:1;stroke-linecap:butt;stroke-linejoin:round;stroke:rgb(0%,0%,0%);stroke-opacity:1;stroke-miterlimit:10;" d="M 149.378906 463.777344 L 129.378906 463.777344 L 129.378906 473.777344 L 149.378906 473.777344 L 149.378906 493.777344 L 159.378906 493.777344 L 159.378906 473.777344 L 179.378906 473.777344 L 179.378906 463.777344 L 159.378906 463.777344 L 159.378906 443.777344 L 149.378906 443.777344 L 149.378906 463.777344 "/>
<path style="fill-rule:nonzero;fill:rgb(35%,70%,90%);fill-opacity:1;stroke-width:1;stroke-linecap:butt;stroke-linejoin:round;stroke:rgb(0%,0%,0%);stroke-opacity:1;stroke-miterlimit:10;" d="M 207.300781 377.265625 L 187.300781 377.265625 L 187.300781 387.265625 L 207.300781 387.265625 L 207.300781 407.265625 L 217.300781 407.265625 L 217.300781 387.265625 L 237.300781 387.265625 L 237.300781 377.265625 L 217.300781 377.265625 L 217.300781 357.265625 L 207.300781 357.265625 L 207.300781 377.265625 "/>
</g>
</svg>
