<?xml version="1.0" encoding="UTF-8"?>
<svg xmlns="http://www.w3.org/2000/svg" xmlns:xlink="http://www.w3.org/1999/xlink" width="517pt" height="517pt" viewBox="0 0 517 517" version="1.1">
<g id="surface3971">
<rect x="0" y="0" width="517" height="517" style="fill:rgb(90%,90%,90%);fill-opacity:1;stroke:none;"/>
<path style="fill:none;stroke-width:5;stroke-linecap:butt;stroke-linejoin:round;stroke:rgb(100%,0%,0%);stroke-opacity:1;stroke-miterlimit:10;" d="M 5 5 L 261 5 L 261 261 L 5 261 Z M 5 5 "/>
<path style="fill-rule:nonzero;fill:rgb(0%,0%,0%);fill-opacity:1;stroke-width:1;stroke-linecap:butt;stroke-linejoin:round;stroke:rgb(0%,0%,0%);stroke-opacity:1;stroke-miterlimit:10;" d="M 160.589844 102.898438 L 140.589844 102.898438 L 140.589844 112.898438 L 160.589844 112.898438 L 160.589844 132.898438 L 170.589844 132.898438 L 170.589844 112.898438 L 190.589844 112.898438 L 190.589844 102.898438 L 170.589844 102.898438 L 170.589844 82.898438 L 160.589844 82.898438 L 160.589844 102.898438 "/>
<path style="fill-rule:nonzero;fill:rgb(50%,0%,50%);fill-opacity:1;stroke-width:1;stroke-linecap:butt;stroke-linejoin:round;stroke:rgb(0%,0%,0%);stroke-opacity:1;stroke-miterlimit:10;" d="M 73.46875 410.253906 L 53.46875 410.253906 L 53.46875 420.253906 L 73.46875 420.253906 L 73.46875 440.253906 L 83.46875 440.253906 L 83.46875 420.253906 L 103.46875 420.253906 L 103.46875 410.253906 L 83.46875 410.253906 L 83.46875 390.253906 L 73.46875 390.253906 L 73.46875 410.253906 "/>
<path style="fill-rule:nonzero;fill:rgb(0%,0%,0%);fill-opacity:1;stroke-width:1;stroke-linecap:butt;stroke-linejoin:round;stroke:rgb(0%,0%,0%);stroke-opacity:1;stroke-miterlimit:10;" d="M 436.6875 114.972656 L 416.6875 114.972656 L 416.6875 124.972656 L 436.6875 124.972656 L 436.6875 144.972656 L 446.6875 144.972656 L 446.6875 124.972656 L 466.6875 124.972656 L 466.6875 114.972656 L 446.6875 114.972656 L 446.6875 94.972656 L 436.6875 94.972656 L 436.6875 114.972656 "/>
<path style="fill-rule:nonzero;fill:rgb(0%,0%,0%);fill-opacity:1;stroke-width:1;stroke-linecap:butt;stroke-linejoin:round;stroke:rgb(0%,0%,0%);stroke-opacity:1;stroke-miterlimit:10;" d="M 328.625 143.589844 L 308.625 143.589844 L 308.625 153.589844 L 328.625 153.589844 L 328.625 173.589844 L 338.625 173.589844 L 338.625 153.589844 L 358.625 153.589844 L 358.625 143.589844 L 338.625 143.589844 L 338.625 123.589844 L 328.625 123.589844 L 328.625 143.589844 "/>
<path style="fill-rule:nonzero;fill:rgb(0%,0%,0%);fill-opacity:1;stroke-width:1;stroke-linecap:butt;stroke-linejoin:round;stroke:rgb(0%,0%,0%);stroke-opacity:1;stroke-miterlimit:10;" d="M 340.242188 35.25 L 320.242188 35.25 L 320.242188 45.25 L 340.242188 45.25 L 340.242188 65.25 L 350.242188 65.25 L 350.242188 45.25 L 370.242188 45.25 L 370.242188 35.25 L 350.242188 35.25 L 350.242188 15.25 L 340.242188 15.25 L 340.242188 35.25 "/>
<path style="fill-rule:nonzero;fill:rgb(0%,0%,0%);fill-opacity:1;stroke-width:1;stroke-linecap:butt;stroke-linejoin:round;stroke:rgb(0%,0%,0%);stroke-opacity:1;stroke-miterlimit:10;" d="M 411.390625 40.632812 L 391.390625 40.632812 L 391.390625 50.632812 L 411.390625 50.632812 L 411.390625 70.632812 L 421.390625 70.632812 L 421.390625 50.632812 L 441.390625 50.632812 L 441.390625 40.632812 L 421.390625 40.632812 L 421.390625 20.632812 L 411.390625 20.632812 L 411.390625 40.632812 "/>
</g>
</svg>
