<?xml version="1.0" encoding="UTF-8"?>
<svg xmlns="http://www.w3.org/2000/svg" xmlns:xlink="http://www.w3.org/1999/xlink" width="517pt" height="517pt" viewBox="0 0 517 517" version="1.1">
<g id="surface4241">
<rect x="0" y="0" width="517" height="517" style="fill:rgb(90%,90%,90%);fill-opacity:1;stroke:none;"/>
<path style="fill:none;stroke-width:5;stroke-linecap:butt;stroke-linejoin:round;stroke:rgb(100%,0%,0%);stroke-opacity:1;stroke-miterlimit:10;" d="M 261 5 L 517 5 L 517 261 L 261 261 Z M 261 5 "/>
<path style="fill-rule:nonzero;fill:rgb(25%,88%,82%);fill-opacity:1;stroke-width:1;stroke-linecap:butt;stroke-linejoin:round;stroke:rgb(0%,0%,0%);stroke-opacity:1;stroke-miterlimit:10;" d="M 446.386719 134.363281 L 426.386719 134.363281 L 426.386719 144.363281 L 446.386719 144.363281 L 446.386719 164.363281 L 456.386719 164.363281 L 456.386719 144.363281 L 476.386719 144.363281 L 476.386719 134.363281 L 456.386719 134.363281 L 456.386719 114.363281 L 446.386719 114.363281 L 446.386719 134.363281 "/>
<path style="fill-rule:nonzero;fill:rgb(90%,65%,0%);fill-opacity:1;stroke-width:1;stroke-linecap:butt;stroke-linejoin:round;stroke:rgb(0%,0%,0%);stroke-opacity:1;stroke-miterlimit:10;" d="M 89.496094 428.367188 L 69.496094 428.367188 L 69.496094 438.367188 L 89.496094 438.367188 L 89.496094 458.367188 L 99.496094 458.367188 L 99.496094 438.367188 L 119.496094 438.367188 L 119.496094 428.367188 L 99.496094 428.367188 L 99.496094 408.367188 L 89.496094 408.367188 L 89.496094 428.367188 "/>
<path style="fill-rule:nonzero;fill:rgb(90%,65%,0%);fill-opacity:1;stroke-width:1;stroke-linecap:butt;stroke-linejoin:round;stroke:rgb(0%,0%,0%);stroke-opacity:1;stroke-miterlimit:10;" d="M 165.734375 469.957031 L 145.734375 469.957031 L 145.734375 479.957031 L 165.734375 479.957031 L 165.734375 499.957031 L 175.734375 499.957031 L 175.734375 479.957031 L 195.734375 479.957031 L 195.734375 469.957031 L 175.734375 469.957031 L 175.734375 449.957031 L 165.734375 449.957031 L 165.734375 469.957031 "/>
<path style="fill-rule:nonzero;fill:rgb(90%,65%,0%);fill-opacity:1;stroke-width:1;stroke-linecap:butt;stroke-linejoin:round;stroke:rgb(0%,0%,0%);stroke-opacity:1;stroke-miterlimit:10;" d="M 338.703125 359.691406 L 318.703125 359.691406 L 318.703125 369.691406 L 338.703125 369.691406 L 338.703125 389.691406 L 348.703125 389.691406 L 348.703125 369.691406 L 368.703125 369.691406 L 368.703125 359.691406 L 348.703125 359.691406 L 348.703125 339.691406 L 338.703125 339.691406 L 338.703125 359.691406 "/>
<path style="fill-rule:nonzero;fill:rgb(90%,65%,0%);fill-opacity:1;stroke-width:1;stroke-linecap:butt;stroke-linejoin:round;stroke:rgb(0%,0%,0%);stroke-opacity:1;stroke-miterlimit:10;" d="M 323.664062 440.441406 L 303.664062 440.441406 L 303.664062 450.441406 L 323.664062 450.441406 L 323.664062 470.441406 L 333.664062 470.441406 L 333.664062 450.441406 L 353.664062 450.441406 L 353.664062 440.441406 L 333.664062 440.441406 L 333.664062 420.441406 L 323.664062 420.441406 L 323.664062 440.441406 "/>
<path style="fill-rule:nonzero;fill:rgb(90%,65%,0%);fill-opacity:1;stroke-width:1;stroke-linecap:butt;stroke-linejoin:round;stroke:rgb(0%,0%,0%);stroke-opacity:1;stroke-miterlimit:10;" d="M 172.058594 87.269531 L 152.058594 87.269531 L 152.058594 97.269531 L 172.058594 97.269531 L 172.058594 117.269531 L 182.058594 117.269531 L 182.058594 97.269531 L 202.058594 97.269531 L 202.058594 87.269531 L 182.058594 87.269531 L 182.058594 67.269531 L 172.058594 67.269531 L 172.058594 87.269531 "/>
</g>
</svg>
