<?xml version="1.0" encoding="UTF-8"?>
<svg xmlns="http://www.w3.org/2000/svg" xmlns:xlink="http://www.w3.org/1999/xlink" width="517pt" height="517pt" viewBox="0 0 517 517" version="1.1">
<g id="surface4166">
<rect x="0" y="0" width="517" height="517" style="fill:rgb(90%,90%,90%);fill-opacity:1;stroke:none;"/>
<path style="fill:none;stroke-width:5;stroke-linecap:butt;stroke-linejoin:round;stroke:rgb(100%,0%,0%);stroke-opacity:1;stroke-miterlimit:10;" d="M 261 5 L 517 5 L 517 261 L 261 261 Z M 261 5 "/>
<path style="fill-rule:nonzero;fill:rgb(35%,70%,90%);fill-opacity:1;stroke-width:1;stroke-linecap:butt;stroke-linejoin:round;stroke:rgb(0%,0%,0%);stroke-opacity:1;stroke-miterlimit:10;" d="M 440.015625 203.351562 C 440.015625 219.917969 426.582031 233.351562 410.015625 233.351562 C 393.445312 233.351562 380.015625 219.917969 380.015625 203.351562 C 380.015625 186.78125 393.445312 173.351562 410.015625 173.351562 C 426.582031 173.351562 440.015625 186.78125 440.015625 203.351562 "/>
<path style="fill-rule:nonzero;fill:rgb(100%,0%,0%);fill-opacity:1;stroke-width:1;stroke-linecap:butt;stroke-linejoin:round;stroke:rgb(0%,0%,0%);stroke-opacity:1;stroke-miterlimit:10;" d="M 364.929688 334.449219 C 364.929688 351.015625 351.496094 364.449219 334.929688 364.449219 C 318.359375 364.449219 304.929688 351.015625 304.929688 334.449219 C 304.929688 317.878906 318.359375 304.449219 334.929688 304.449219 C 351.496094 304.449219 364.929688 317.878906 364.929688 334.449219 "/>
<path style="fill-rule:nonzero;fill:rgb(100%,0%,0%);fill-opacity:1;stroke-width:1;stroke-linecap:butt;stroke-linejoin:round;stroke:rgb(0%,0%,0%);stroke-opacity:1;stroke-miterlimit:10;" d="M 236.890625 390.363281 C 236.890625 406.929688 223.457031 420.363281 206.890625 420.363281 C 190.320312 420.363281 176.890625 406.929688 176.890625 390.363281 C 176.890625 373.792969 190.320312 360.363281 206.890625 360.363281 C 223.457031 360.363281 236.890625 373.792969 236.890625 390.363281 "/>
<path style="fill-rule:nonzero;fill:rgb(100%,0%,0%);fill-opacity:1;stroke-width:1;stroke-linecap:butt;stroke-linejoin:round;stroke:rgb(0%,0%,0%);stroke-opacity:1;stroke-miterlimit:10;" d="M 193.171875 469.390625 C 193.171875 485.960938 179.738281 499.390625 163.171875 499.390625 C 146.601562 499.390625 133.171875 485.960938 133.171875 469.390625 C 133.171875 452.824219 146.601562 439.390625 163.171875 439.390625 C 179.738281 439.390625 193.171875 452.824219 193.171875 469.390625 "/>
<path style="fill-rule:nonzero;fill:rgb(100%,0%,0%);fill-opacity:1;stroke-width:1;stroke-linecap:butt;stroke-linejoin:round;stroke:rgb(0%,0%,0%);stroke-opacity:1;stroke-miterlimit:10;" d="M 73.125 113.292969 C 73.125 129.859375 59.695312 143.292969 43.125 143.292969 C 26.558594 143.292969 13.125 129.859375 13.125 113.292969 C 13.125 96.722656 26.558594 83.292969 43.125 83.292969 C 59.695312 83.292969 73.125 96.722656 73.125 113.292969 "/>
<path style="fill-rule:nonzero;fill:rgb(100%,0%,0%);fill-opacity:1;stroke-width:1;stroke-linecap:butt;stroke-linejoin:round;stroke:rgb(0%,0%,0%);stroke-opacity:1;stroke-miterlimit:10;" d="M 213.847656 108.859375 C 213.847656 125.429688 200.414062 138.859375 183.847656 138.859375 C 167.277344 138.859375 153.847656 125.429688 153.847656 108.859375 C 153.847656 92.289062 167.277344 78.859375 183.847656 78.859375 C 200.414062 78.859375 213.847656 92.289062 213.847656 108.859375 "/>
</g>
</svg>
