<?xml version="1.0" encoding="UTF-8"?>
<svg xmlns="http://www.w3.org/2000/svg" xmlns:xlink="http://www.w3.org/1999/xlink" width="517pt" height="517pt" viewBox="0 0 517 517" version="1.1">
<g id="surface4316">
<rect x="0" y="0" width="517" height="517" style="fill:rgb(90%,90%,90%);fill-opacity:1;stroke:none;"/>
<path style="fill:none;stroke-width:5;stroke-linecap:butt;stroke-linejoin:round;stroke:rgb(100%,0%,0%);stroke-opacity:1;stroke-miterlimit:10;" d="M 261 5 L 517 5 L 517 261 L 261 261 Z M 261 5 "/>
<path style="fill-rule:nonzero;fill:rgb(90%,65%,0%);fill-opacity:1;stroke-width:1;stroke-linecap:butt;stroke-linejoin:round;stroke:rgb(0%,0%,0%);stroke-opacity:1;stroke-miterlimit:10;" d="M 423.589844 92.824219 L 403.589844 92.824219 L 403.589844 102.824219 L 423.589844 102.824219 L 423.589844 122.824219 L 433.589844 122.824219 L 433.589844 102.824219 L 453.589844 102.824219 L 453.589844 92.824219 L 433.589844 92.824219 L 433.589844 72.824219 L 423.589844 72.824219 L 423.589844 92.824219 "/>
<path style="fill-rule:nonzero;fill:rgb(90%,65%,0%);fill-opacity:1;stroke-width:1;stroke-linecap:butt;stroke-linejoin:round;stroke:rgb(0%,0%,0%);stroke-opacity:1;stroke-miterlimit:10;" d="M 322.191406 465.179688 L 302.191406 465.179688 L 302.191406 475.179688 L 322.191406 475.179688 L 322.191406 495.179688 L 332.191406 495.179688 L 332.191406 475.179688 L 352.191406 475.179688 L 352.191406 465.179688 L 332.191406 465.179688 L 332.191406 445.179688 L 322.191406 445.179688 L 322.191406 465.179688 "/>
<path style="fill-rule:nonzero;fill:rgb(90%,65%,0%);fill-opacity:1;stroke-width:1;stroke-linecap:butt;stroke-linejoin:round;stroke:rgb(0%,0%,0%);stroke-opacity:1;stroke-miterlimit:10;" d="M 51.152344 451.632812 L 31.152344 451.632812 L 31.152344 461.632812 L 51.152344 461.632812 L 51.152344 481.632812 L 61.152344 481.632812 L 61.152344 461.632812 L 81.152344 461.632812 L 81.152344 451.632812 L 61.152344 451.632812 L 61.152344 431.632812 L 51.152344 431.632812 L 51.152344 451.632812 "/>
<path style="fill-rule:nonzero;fill:rgb(90%,65%,0%);fill-opacity:1;stroke-width:1;stroke-linecap:butt;stroke-linejoin:round;stroke:rgb(0%,0%,0%);stroke-opacity:1;stroke-miterlimit:10;" d="M 207.636719 292.382812 L 187.636719 292.382812 L 187.636719 302.382812 L 207.636719 302.382812 L 207.636719 322.382812 L 217.636719 322.382812 L 217.636719 302.382812 L 237.636719 302.382812 L 237.636719 292.382812 L 217.636719 292.382812 L 217.636719 272.382812 L 207.636719 272.382812 L 207.636719 292.382812 "/>
<path style="fill-rule:nonzero;fill:rgb(90%,65%,0%);fill-opacity:1;stroke-width:1;stroke-linecap:butt;stroke-linejoin:round;stroke:rgb(0%,0%,0%);stroke-opacity:1;stroke-miterlimit:10;" d="M 116.558594 317.722656 L 96.558594 317.722656 L 96.558594 327.722656 L 116.558594 327.722656 L 116.558594 347.722656 L 126.558594 347.722656 L 126.558594 327.722656 L 146.558594 327.722656 L 146.558594 317.722656 L 126.558594 317.722656 L 126.558594 297.722656 L 116.558594 297.722656 L 116.558594 317.722656 "/>
<path style="fill-rule:nonzero;fill:rgb(25%,88%,82%);fill-opacity:1;stroke-width:1;stroke-linecap:butt;stroke-linejoin:round;stroke:rgb(0%,0%,0%);stroke-opacity:1;stroke-miterlimit:10;" d="M 151.0625 368.941406 L 131.0625 368.941406 L 131.0625 378.941406 L 151.0625 378.941406 L 151.0625 398.941406 L 161.0625 398.941406 L 161.0625 378.941406 L 181.0625 378.941406 L 181.0625 368.941406 L 161.0625 368.941406 L 161.0625 348.941406 L 151.0625 348.941406 L 151.0625 368.941406 "/>
</g>
</svg>
