<?xml version="1.0" encoding="UTF-8"?>
<svg xmlns="http://www.w3.org/2000/svg" xmlns:xlink="http://www.w3.org/1999/xlink" width="517pt" height="517pt" viewBox="0 0 517 517" version="1.1">
<g id="surface9256">
<rect x="0" y="0" width="517" height="517" style="fill:rgb(90%,90%,90%);fill-opacity:1;stroke:none;"/>
<path style="fill:none;stroke-width:5;stroke-linecap:butt;stroke-linejoin:round;stroke:rgb(100%,0%,0%);stroke-opacity:1;stroke-miterlimit:10;" d="M 261 261 L 517 261 L 517 517 L 261 517 Z M 261 261 "/>
<path style="fill-rule:nonzero;fill:rgb(100%,0%,0%);fill-opacity:1;stroke-width:1;stroke-linecap:butt;stroke-linejoin:round;stroke:rgb(0%,0%,0%);stroke-opacity:1;stroke-miterlimit:10;" d="M 447.636719 340.378906 L 427.636719 340.378906 L 427.636719 350.378906 L 447.636719 350.378906 L 447.636719 370.378906 L 457.636719 370.378906 L 457.636719 350.378906 L 477.636719 350.378906 L 477.636719 340.378906 L 457.636719 340.378906 L 457.636719 320.378906 L 447.636719 320.378906 L 447.636719 340.378906 "/>
<path style="fill-rule:nonzero;fill:rgb(67%,100%,18%);fill-opacity:1;stroke-width:1;stroke-linecap:butt;stroke-linejoin:round;stroke:rgb(0%,0%,0%);stroke-opacity:1;stroke-miterlimit:10;" d="M 320.066406 127.351562 L 300.066406 127.351562 L 300.066406 137.351562 L 320.066406 137.351562 L 320.066406 157.351562 L 330.066406 157.351562 L 330.066406 137.351562 L 350.066406 137.351562 L 350.066406 127.351562 L 330.066406 127.351562 L 330.066406 107.351562 L 320.066406 107.351562 L 320.066406 127.351562 "/>
<path style="fill-rule:nonzero;fill:rgb(67%,100%,18%);fill-opacity:1;stroke-width:1;stroke-linecap:butt;stroke-linejoin:round;stroke:rgb(0%,0%,0%);stroke-opacity:1;stroke-miterlimit:10;" d="M 372.414062 180.640625 L 352.414062 180.640625 L 352.414062 190.640625 L 372.414062 190.640625 L 372.414062 210.640625 L 382.414062 210.640625 L 382.414062 190.640625 L 402.414062 190.640625 L 402.414062 180.640625 L 382.414062 180.640625 L 382.414062 160.640625 L 372.414062 160.640625 L 372.414062 180.640625 "/>
<path style="fill-rule:nonzero;fill:rgb(67%,100%,18%);fill-opacity:1;stroke-width:1;stroke-linecap:butt;stroke-linejoin:round;stroke:rgb(0%,0%,0%);stroke-opacity:1;stroke-miterlimit:10;" d="M 145.050781 338.976562 L 125.050781 338.976562 L 125.050781 348.976562 L 145.050781 348.976562 L 145.050781 368.976562 L 155.050781 368.976562 L 155.050781 348.976562 L 175.050781 348.976562 L 175.050781 338.976562 L 155.050781 338.976562 L 155.050781 318.976562 L 145.050781 318.976562 L 145.050781 338.976562 "/>
<path style="fill-rule:nonzero;fill:rgb(67%,100%,18%);fill-opacity:1;stroke-width:1;stroke-linecap:butt;stroke-linejoin:round;stroke:rgb(0%,0%,0%);stroke-opacity:1;stroke-miterlimit:10;" d="M 104.988281 133.734375 L 84.988281 133.734375 L 84.988281 143.734375 L 104.988281 143.734375 L 104.988281 163.734375 L 114.988281 163.734375 L 114.988281 143.734375 L 134.988281 143.734375 L 134.988281 133.734375 L 114.988281 133.734375 L 114.988281 113.734375 L 104.988281 113.734375 L 104.988281 133.734375 "/>
</g>
</svg>
