<?xml version="1.0" encoding="UTF-8"?>
<svg xmlns="http://www.w3.org/2000/svg" xmlns:xlink="http://www.w3.org/1999/xlink" width="517pt" height="517pt" viewBox="0 0 517 517" version="1.1">
<g id="surface4666">
<rect x="0" y="0" width="517" height="517" style="fill:rgb(90%,90%,90%);fill-opacity:1;stroke:none;"/>
<path style="fill:none;stroke-width:5;stroke-linecap:butt;stroke-linejoin:round;stroke:rgb(100%,0%,0%);stroke-opacity:1;stroke-miterlimit:10;" d="M 5 261 L 261 261 L 261 517 L 5 517 Z M 5 261 "/>
<path style="fill-rule:nonzero;fill:rgb(25%,88%,82%);fill-opacity:1;stroke-width:1;stroke-linecap:butt;stroke-linejoin:round;stroke:rgb(0%,0%,0%);stroke-opacity:1;stroke-miterlimit:10;" d="M 83.21875 288.996094 C 83.21875 274.597656 59.21875 274.597656 59.21875 288.996094 C 59.21875 303.398438 83.21875 305.796875 83.21875 317.796875 C 83.21875 305.796875 107.21875 303.398438 107.21875 288.996094 C 107.21875 274.597656 83.21875 274.597656 83.21875 288.996094 "/>
<path style="fill-rule:nonzero;fill:rgb(100%,100%,0%);fill-opacity:1;stroke-width:1;stroke-linecap:butt;stroke-linejoin:round;stroke:rgb(0%,0%,0%);stroke-opacity:1;stroke-miterlimit:10;" d="M 425.605469 187.003906 C 425.605469 172.601562 401.605469 172.601562 401.605469 187.003906 C 401.605469 201.402344 425.605469 203.800781 425.605469 215.800781 C 425.605469 203.800781 449.605469 201.402344 449.605469 187.003906 C 449.605469 172.601562 425.605469 172.601562 425.605469 187.003906 "/>
<path style="fill-rule:nonzero;fill:rgb(100%,100%,0%);fill-opacity:1;stroke-width:1;stroke-linecap:butt;stroke-linejoin:round;stroke:rgb(0%,0%,0%);stroke-opacity:1;stroke-miterlimit:10;" d="M 333.421875 292.542969 C 333.421875 278.140625 309.421875 278.140625 309.421875 292.542969 C 309.421875 306.941406 333.421875 309.34375 333.421875 321.34375 C 333.421875 309.34375 357.421875 306.941406 357.421875 292.542969 C 357.421875 278.140625 333.421875 278.140625 333.421875 292.542969 "/>
<path style="fill-rule:nonzero;fill:rgb(100%,100%,0%);fill-opacity:1;stroke-width:1;stroke-linecap:butt;stroke-linejoin:round;stroke:rgb(0%,0%,0%);stroke-opacity:1;stroke-miterlimit:10;" d="M 327.925781 434.023438 C 327.925781 419.621094 303.925781 419.621094 303.925781 434.023438 C 303.925781 448.421875 327.925781 450.820312 327.925781 462.820312 C 327.925781 450.820312 351.925781 448.421875 351.925781 434.023438 C 351.925781 419.621094 327.925781 419.621094 327.925781 434.023438 "/>
<path style="fill-rule:nonzero;fill:rgb(100%,100%,0%);fill-opacity:1;stroke-width:1;stroke-linecap:butt;stroke-linejoin:round;stroke:rgb(0%,0%,0%);stroke-opacity:1;stroke-miterlimit:10;" d="M 444.925781 437.210938 C 444.925781 422.8125 420.925781 422.8125 420.925781 437.210938 C 420.925781 451.613281 444.925781 454.011719 444.925781 466.011719 C 444.925781 454.011719 468.925781 451.613281 468.925781 437.210938 C 468.925781 422.8125 444.925781 422.8125 444.925781 437.210938 "/>
<path style="fill-rule:nonzero;fill:rgb(25%,88%,82%);fill-opacity:1;stroke-width:1;stroke-linecap:butt;stroke-linejoin:round;stroke:rgb(0%,0%,0%);stroke-opacity:1;stroke-miterlimit:10;" d="M 84.105469 76.886719 C 84.105469 62.484375 60.105469 62.484375 60.105469 76.886719 C 60.105469 91.285156 84.105469 93.683594 84.105469 105.683594 C 84.105469 93.683594 108.105469 91.285156 108.105469 76.886719 C 108.105469 62.484375 84.105469 62.484375 84.105469 76.886719 "/>
</g>
</svg>
