<?xml version="1.0" encoding="UTF-8"?>
<svg xmlns="http://www.w3.org/2000/svg" xmlns:xlink="http://www.w3.org/1999/xlink" width="517pt" height="517pt" viewBox="0 0 517 517" version="1.1">
<g id="surface356">
<rect x="0" y="0" width="517" height="517" style="fill:rgb(90%,90%,90%);fill-opacity:1;stroke:none;"/>
<path style="fill:none;stroke-width:5;stroke-linecap:butt;stroke-linejoin:round;stroke:rgb(100%,0%,0%);stroke-opacity:1;stroke-miterlimit:10;" d="M 5 5 L 261 5 L 261 261 L 5 261 Z M 5 5 "/>
<path style="fill-rule:nonzero;fill:rgb(0%,0%,0%);fill-opacity:1;stroke-width:1;stroke-linecap:butt;stroke-linejoin:round;stroke:rgb(0%,0%,0%);stroke-opacity:1;stroke-miterlimit:10;" d="M 82.160156 79.617188 L 62.160156 79.617188 L 62.160156 89.617188 L 82.160156 89.617188 L 82.160156 109.617188 L 92.160156 109.617188 L 92.160156 89.617188 L 112.160156 89.617188 L 112.160156 79.617188 L 92.160156 79.617188 L 92.160156 59.617188 L 82.160156 59.617188 L 82.160156 79.617188 "/>
<path style="fill-rule:nonzero;fill:rgb(100%,100%,0%);fill-opacity:1;stroke-width:1;stroke-linecap:butt;stroke-linejoin:round;stroke:rgb(0%,0%,0%);stroke-opacity:1;stroke-miterlimit:10;" d="M 190.460938 430.746094 L 170.460938 430.746094 L 170.460938 440.746094 L 190.460938 440.746094 L 190.460938 460.746094 L 200.460938 460.746094 L 200.460938 440.746094 L 220.460938 440.746094 L 220.460938 430.746094 L 200.460938 430.746094 L 200.460938 410.746094 L 190.460938 410.746094 L 190.460938 430.746094 "/>
<path style="fill-rule:nonzero;fill:rgb(100%,100%,0%);fill-opacity:1;stroke-width:1;stroke-linecap:butt;stroke-linejoin:round;stroke:rgb(0%,0%,0%);stroke-opacity:1;stroke-miterlimit:10;" d="M 340.691406 157.449219 L 320.691406 157.449219 L 320.691406 167.449219 L 340.691406 167.449219 L 340.691406 187.449219 L 350.691406 187.449219 L 350.691406 167.449219 L 370.691406 167.449219 L 370.691406 157.449219 L 350.691406 157.449219 L 350.691406 137.449219 L 340.691406 137.449219 L 340.691406 157.449219 "/>
<path style="fill-rule:nonzero;fill:rgb(0%,0%,0%);fill-opacity:1;stroke-width:1;stroke-linecap:butt;stroke-linejoin:round;stroke:rgb(0%,0%,0%);stroke-opacity:1;stroke-miterlimit:10;" d="M 397.214844 132.214844 L 377.214844 132.214844 L 377.214844 142.214844 L 397.214844 142.214844 L 397.214844 162.214844 L 407.214844 162.214844 L 407.214844 142.214844 L 427.214844 142.214844 L 427.214844 132.214844 L 407.214844 132.214844 L 407.214844 112.214844 L 397.214844 112.214844 L 397.214844 132.214844 "/>
</g>
</svg>
