<?xml version="1.0" encoding="UTF-8"?>
<svg xmlns="http://www.w3.org/2000/svg" xmlns:xlink="http://www.w3.org/1999/xlink" width="517pt" height="517pt" viewBox="0 0 517 517" version="1.1">
<g id="surface4671">
<rect x="0" y="0" width="517" height="517" style="fill:rgb(90%,90%,90%);fill-opacity:1;stroke:none;"/>
<path style="fill:none;stroke-width:5;stroke-linecap:butt;stroke-linejoin:round;stroke:rgb(100%,0%,0%);stroke-opacity:1;stroke-miterlimit:10;" d="M 5 261 L 261 261 L 261 517 L 5 517 Z M 5 261 "/>
<path style="fill-rule:nonzero;fill:rgb(25%,88%,82%);fill-opacity:1;stroke-width:1;stroke-linecap:butt;stroke-linejoin:round;stroke:rgb(0%,0%,0%);stroke-opacity:1;stroke-miterlimit:10;" d="M 137.648438 279.441406 C 137.648438 265.039062 113.648438 265.039062 113.648438 279.441406 C 113.648438 293.839844 137.648438 296.238281 137.648438 308.238281 C 137.648438 296.238281 161.648438 293.839844 161.648438 279.441406 C 161.648438 265.039062 137.648438 265.039062 137.648438 279.441406 "/>
<path style="fill-rule:nonzero;fill:rgb(100%,100%,0%);fill-opacity:1;stroke-width:1;stroke-linecap:butt;stroke-linejoin:round;stroke:rgb(0%,0%,0%);stroke-opacity:1;stroke-miterlimit:10;" d="M 44.515625 29.589844 C 44.515625 15.191406 20.515625 15.191406 20.515625 29.589844 C 20.515625 43.992188 44.515625 46.390625 44.515625 58.390625 C 44.515625 46.390625 68.515625 43.992188 68.515625 29.589844 C 68.515625 15.191406 44.515625 15.191406 44.515625 29.589844 "/>
<path style="fill-rule:nonzero;fill:rgb(100%,100%,0%);fill-opacity:1;stroke-width:1;stroke-linecap:butt;stroke-linejoin:round;stroke:rgb(0%,0%,0%);stroke-opacity:1;stroke-miterlimit:10;" d="M 374.265625 107.910156 C 374.265625 93.507812 350.265625 93.507812 350.265625 107.910156 C 350.265625 122.308594 374.265625 124.707031 374.265625 136.707031 C 374.265625 124.707031 398.265625 122.308594 398.265625 107.910156 C 398.265625 93.507812 374.265625 93.507812 374.265625 107.910156 "/>
<path style="fill-rule:nonzero;fill:rgb(100%,100%,0%);fill-opacity:1;stroke-width:1;stroke-linecap:butt;stroke-linejoin:round;stroke:rgb(0%,0%,0%);stroke-opacity:1;stroke-miterlimit:10;" d="M 314.003906 82.0625 C 314.003906 67.660156 290.003906 67.660156 290.003906 82.0625 C 290.003906 96.460938 314.003906 98.859375 314.003906 110.859375 C 314.003906 98.859375 338.003906 96.460938 338.003906 82.0625 C 338.003906 67.660156 314.003906 67.660156 314.003906 82.0625 "/>
<path style="fill-rule:nonzero;fill:rgb(100%,100%,0%);fill-opacity:1;stroke-width:1;stroke-linecap:butt;stroke-linejoin:round;stroke:rgb(0%,0%,0%);stroke-opacity:1;stroke-miterlimit:10;" d="M 373.441406 28.757812 C 373.441406 14.355469 349.441406 14.355469 349.441406 28.757812 C 349.441406 43.15625 373.441406 45.554688 373.441406 57.554688 C 373.441406 45.554688 397.441406 43.15625 397.441406 28.757812 C 397.441406 14.355469 373.441406 14.355469 373.441406 28.757812 "/>
<path style="fill-rule:nonzero;fill:rgb(25%,88%,82%);fill-opacity:1;stroke-width:1;stroke-linecap:butt;stroke-linejoin:round;stroke:rgb(0%,0%,0%);stroke-opacity:1;stroke-miterlimit:10;" d="M 392.054688 401.179688 C 392.054688 386.78125 368.054688 386.78125 368.054688 401.179688 C 368.054688 415.582031 392.054688 417.980469 392.054688 429.980469 C 392.054688 417.980469 416.054688 415.582031 416.054688 401.179688 C 416.054688 386.78125 392.054688 386.78125 392.054688 401.179688 "/>
</g>
</svg>
