<?xml version="1.0" encoding="UTF-8"?>
<svg xmlns="http://www.w3.org/2000/svg" xmlns:xlink="http://www.w3.org/1999/xlink" width="517pt" height="517pt" viewBox="0 0 517 517" version="1.1">
<g id="surface331">
<rect x="0" y="0" width="517" height="517" style="fill:rgb(90%,90%,90%);fill-opacity:1;stroke:none;"/>
<path style="fill:none;stroke-width:5;stroke-linecap:butt;stroke-linejoin:round;stroke:rgb(100%,0%,0%);stroke-opacity:1;stroke-miterlimit:10;" d="M 5 5 L 261 5 L 261 261 L 5 261 Z M 5 5 "/>
<path style="fill-rule:nonzero;fill:rgb(0%,0%,0%);fill-opacity:1;stroke-width:1;stroke-linecap:butt;stroke-linejoin:round;stroke:rgb(0%,0%,0%);stroke-opacity:1;stroke-miterlimit:10;" d="M 136.699219 61.542969 L 116.699219 61.542969 L 116.699219 71.542969 L 136.699219 71.542969 L 136.699219 91.542969 L 146.699219 91.542969 L 146.699219 71.542969 L 166.699219 71.542969 L 166.699219 61.542969 L 146.699219 61.542969 L 146.699219 41.542969 L 136.699219 41.542969 L 136.699219 61.542969 "/>
<path style="fill-rule:nonzero;fill:rgb(100%,100%,0%);fill-opacity:1;stroke-width:1;stroke-linecap:butt;stroke-linejoin:round;stroke:rgb(0%,0%,0%);stroke-opacity:1;stroke-miterlimit:10;" d="M 141.3125 407.394531 L 121.3125 407.394531 L 121.3125 417.394531 L 141.3125 417.394531 L 141.3125 437.394531 L 151.3125 437.394531 L 151.3125 417.394531 L 171.3125 417.394531 L 171.3125 407.394531 L 151.3125 407.394531 L 151.3125 387.394531 L 141.3125 387.394531 L 141.3125 407.394531 "/>
<path style="fill-rule:nonzero;fill:rgb(100%,100%,0%);fill-opacity:1;stroke-width:1;stroke-linecap:butt;stroke-linejoin:round;stroke:rgb(0%,0%,0%);stroke-opacity:1;stroke-miterlimit:10;" d="M 300.960938 289.296875 L 280.960938 289.296875 L 280.960938 299.296875 L 300.960938 299.296875 L 300.960938 319.296875 L 310.960938 319.296875 L 310.960938 299.296875 L 330.960938 299.296875 L 330.960938 289.296875 L 310.960938 289.296875 L 310.960938 269.296875 L 300.960938 269.296875 L 300.960938 289.296875 "/>
<path style="fill-rule:nonzero;fill:rgb(100%,100%,0%);fill-opacity:1;stroke-width:1;stroke-linecap:butt;stroke-linejoin:round;stroke:rgb(0%,0%,0%);stroke-opacity:1;stroke-miterlimit:10;" d="M 412.699219 422.613281 L 392.699219 422.613281 L 392.699219 432.613281 L 412.699219 432.613281 L 412.699219 452.613281 L 422.699219 452.613281 L 422.699219 432.613281 L 442.699219 432.613281 L 442.699219 422.613281 L 422.699219 422.613281 L 422.699219 402.613281 L 412.699219 402.613281 L 412.699219 422.613281 "/>
</g>
</svg>
