<?xml version="1.0" encoding="UTF-8"?>
<svg xmlns="http://www.w3.org/2000/svg" xmlns:xlink="http://www.w3.org/1999/xlink" width="517pt" height="517pt" viewBox="0 0 517 517" version="1.1">
<g id="surface4701">
<rect x="0" y="0" width="517" height="517" style="fill:rgb(90%,90%,90%);fill-opacity:1;stroke:none;"/>
<path style="fill:none;stroke-width:5;stroke-linecap:butt;stroke-linejoin:round;stroke:rgb(100%,0%,0%);stroke-opacity:1;stroke-miterlimit:10;" d="M 5 261 L 261 261 L 261 517 L 5 517 Z M 5 261 "/>
<path style="fill-rule:nonzero;fill:rgb(100%,100%,0%);fill-opacity:1;stroke-width:1;stroke-linecap:butt;stroke-linejoin:round;stroke:rgb(0%,0%,0%);stroke-opacity:1;stroke-miterlimit:10;" d="M 186.527344 366.054688 C 186.527344 351.65625 162.527344 351.65625 162.527344 366.054688 C 162.527344 380.453125 186.527344 382.855469 186.527344 394.855469 C 186.527344 382.855469 210.527344 380.453125 210.527344 366.054688 C 210.527344 351.65625 186.527344 351.65625 186.527344 366.054688 "/>
<path style="fill-rule:nonzero;fill:rgb(100%,100%,0%);fill-opacity:1;stroke-width:1;stroke-linecap:butt;stroke-linejoin:round;stroke:rgb(0%,0%,0%);stroke-opacity:1;stroke-miterlimit:10;" d="M 151.773438 58.8125 C 151.773438 44.410156 127.773438 44.410156 127.773438 58.8125 C 127.773438 73.210938 151.773438 75.609375 151.773438 87.609375 C 151.773438 75.609375 175.773438 73.210938 175.773438 58.8125 C 175.773438 44.410156 151.773438 44.410156 151.773438 58.8125 "/>
<path style="fill-rule:nonzero;fill:rgb(100%,100%,0%);fill-opacity:1;stroke-width:1;stroke-linecap:butt;stroke-linejoin:round;stroke:rgb(0%,0%,0%);stroke-opacity:1;stroke-miterlimit:10;" d="M 119.195312 116.191406 C 119.195312 101.792969 95.195312 101.792969 95.195312 116.191406 C 95.195312 130.589844 119.195312 132.992188 119.195312 144.992188 C 119.195312 132.992188 143.195312 130.589844 143.195312 116.191406 C 143.195312 101.792969 119.195312 101.792969 119.195312 116.191406 "/>
<path style="fill-rule:nonzero;fill:rgb(100%,100%,0%);fill-opacity:1;stroke-width:1;stroke-linecap:butt;stroke-linejoin:round;stroke:rgb(0%,0%,0%);stroke-opacity:1;stroke-miterlimit:10;" d="M 384.261719 352.457031 C 384.261719 338.058594 360.261719 338.058594 360.261719 352.457031 C 360.261719 366.859375 384.261719 369.257812 384.261719 381.257812 C 384.261719 369.257812 408.261719 366.859375 408.261719 352.457031 C 408.261719 338.058594 384.261719 338.058594 384.261719 352.457031 "/>
<path style="fill-rule:nonzero;fill:rgb(100%,100%,0%);fill-opacity:1;stroke-width:1;stroke-linecap:butt;stroke-linejoin:round;stroke:rgb(0%,0%,0%);stroke-opacity:1;stroke-miterlimit:10;" d="M 473.125 195.085938 C 473.125 180.683594 449.125 180.683594 449.125 195.085938 C 449.125 209.484375 473.125 211.886719 473.125 223.886719 C 473.125 211.886719 497.125 209.484375 497.125 195.085938 C 497.125 180.683594 473.125 180.683594 473.125 195.085938 "/>
<path style="fill-rule:nonzero;fill:rgb(25%,88%,82%);fill-opacity:1;stroke-width:1;stroke-linecap:butt;stroke-linejoin:round;stroke:rgb(0%,0%,0%);stroke-opacity:1;stroke-miterlimit:10;" d="M 295.933594 124.164062 C 295.933594 109.761719 271.933594 109.761719 271.933594 124.164062 C 271.933594 138.5625 295.933594 140.960938 295.933594 152.960938 C 295.933594 140.960938 319.933594 138.5625 319.933594 124.164062 C 319.933594 109.761719 295.933594 109.761719 295.933594 124.164062 "/>
</g>
</svg>
