<?xml version="1.0" encoding="UTF-8"?>
<svg xmlns="http://www.w3.org/2000/svg" xmlns:xlink="http://www.w3.org/1999/xlink" width="517pt" height="517pt" viewBox="0 0 517 517" version="1.1">
<g id="surface341">
<rect x="0" y="0" width="517" height="517" style="fill:rgb(90%,90%,90%);fill-opacity:1;stroke:none;"/>
<path style="fill:none;stroke-width:5;stroke-linecap:butt;stroke-linejoin:round;stroke:rgb(100%,0%,0%);stroke-opacity:1;stroke-miterlimit:10;" d="M 5 5 L 261 5 L 261 261 L 5 261 Z M 5 5 "/>
<path style="fill-rule:nonzero;fill:rgb(0%,0%,0%);fill-opacity:1;stroke-width:1;stroke-linecap:butt;stroke-linejoin:round;stroke:rgb(0%,0%,0%);stroke-opacity:1;stroke-miterlimit:10;" d="M 81.5 211.332031 L 61.5 211.332031 L 61.5 221.332031 L 81.5 221.332031 L 81.5 241.332031 L 91.5 241.332031 L 91.5 221.332031 L 111.5 221.332031 L 111.5 211.332031 L 91.5 211.332031 L 91.5 191.332031 L 81.5 191.332031 L 81.5 211.332031 "/>
<path style="fill-rule:nonzero;fill:rgb(100%,100%,0%);fill-opacity:1;stroke-width:1;stroke-linecap:butt;stroke-linejoin:round;stroke:rgb(0%,0%,0%);stroke-opacity:1;stroke-miterlimit:10;" d="M 161.527344 470.304688 L 141.527344 470.304688 L 141.527344 480.304688 L 161.527344 480.304688 L 161.527344 500.304688 L 171.527344 500.304688 L 171.527344 480.304688 L 191.527344 480.304688 L 191.527344 470.304688 L 171.527344 470.304688 L 171.527344 450.304688 L 161.527344 450.304688 L 161.527344 470.304688 "/>
<path style="fill-rule:nonzero;fill:rgb(100%,100%,0%);fill-opacity:1;stroke-width:1;stroke-linecap:butt;stroke-linejoin:round;stroke:rgb(0%,0%,0%);stroke-opacity:1;stroke-miterlimit:10;" d="M 305.769531 121.460938 L 285.769531 121.460938 L 285.769531 131.460938 L 305.769531 131.460938 L 305.769531 151.460938 L 315.769531 151.460938 L 315.769531 131.460938 L 335.769531 131.460938 L 335.769531 121.460938 L 315.769531 121.460938 L 315.769531 101.460938 L 305.769531 101.460938 L 305.769531 121.460938 "/>
<path style="fill-rule:nonzero;fill:rgb(0%,0%,0%);fill-opacity:1;stroke-width:1;stroke-linecap:butt;stroke-linejoin:round;stroke:rgb(0%,0%,0%);stroke-opacity:1;stroke-miterlimit:10;" d="M 409.902344 170.941406 L 389.902344 170.941406 L 389.902344 180.941406 L 409.902344 180.941406 L 409.902344 200.941406 L 419.902344 200.941406 L 419.902344 180.941406 L 439.902344 180.941406 L 439.902344 170.941406 L 419.902344 170.941406 L 419.902344 150.941406 L 409.902344 150.941406 L 409.902344 170.941406 "/>
</g>
</svg>
