<?xml version="1.0" encoding="UTF-8"?>
<svg xmlns="http://www.w3.org/2000/svg" xmlns:xlink="http://www.w3.org/1999/xlink" width="517pt" height="517pt" viewBox="0 0 517 517" version="1.1">
<g id="surface9586">
<rect x="0" y="0" width="517" height="517" style="fill:rgb(90%,90%,90%);fill-opacity:1;stroke:none;"/>
<path style="fill:none;stroke-width:5;stroke-linecap:butt;stroke-linejoin:round;stroke:rgb(100%,0%,0%);stroke-opacity:1;stroke-miterlimit:10;" d="M 261 261 L 517 261 L 517 517 L 261 517 Z M 261 261 "/>
<path style="fill-rule:nonzero;fill:rgb(35%,70%,90%);fill-opacity:1;stroke-width:1;stroke-linecap:butt;stroke-linejoin:round;stroke:rgb(0%,0%,0%);stroke-opacity:1;stroke-miterlimit:10;" d="M 305.183594 319.910156 L 285.183594 319.910156 L 285.183594 329.910156 L 305.183594 329.910156 L 305.183594 349.910156 L 315.183594 349.910156 L 315.183594 329.910156 L 335.183594 329.910156 L 335.183594 319.910156 L 315.183594 319.910156 L 315.183594 299.910156 L 305.183594 299.910156 L 305.183594 319.910156 "/>
<path style="fill-rule:nonzero;fill:rgb(90%,65%,0%);fill-opacity:1;stroke-width:1;stroke-linecap:butt;stroke-linejoin:round;stroke:rgb(0%,0%,0%);stroke-opacity:1;stroke-miterlimit:10;" d="M 90.886719 91.960938 L 70.886719 91.960938 L 70.886719 101.960938 L 90.886719 101.960938 L 90.886719 121.960938 L 100.886719 121.960938 L 100.886719 101.960938 L 120.886719 101.960938 L 120.886719 91.960938 L 100.886719 91.960938 L 100.886719 71.960938 L 90.886719 71.960938 L 90.886719 91.960938 "/>
<path style="fill-rule:nonzero;fill:rgb(90%,65%,0%);fill-opacity:1;stroke-width:1;stroke-linecap:butt;stroke-linejoin:round;stroke:rgb(0%,0%,0%);stroke-opacity:1;stroke-miterlimit:10;" d="M 65.128906 163.417969 L 45.128906 163.417969 L 45.128906 173.417969 L 65.128906 173.417969 L 65.128906 193.417969 L 75.128906 193.417969 L 75.128906 173.417969 L 95.128906 173.417969 L 95.128906 163.417969 L 75.128906 163.417969 L 75.128906 143.417969 L 65.128906 143.417969 L 65.128906 163.417969 "/>
<path style="fill-rule:nonzero;fill:rgb(90%,65%,0%);fill-opacity:1;stroke-width:1;stroke-linecap:butt;stroke-linejoin:round;stroke:rgb(0%,0%,0%);stroke-opacity:1;stroke-miterlimit:10;" d="M 398.546875 139.039062 L 378.546875 139.039062 L 378.546875 149.039062 L 398.546875 149.039062 L 398.546875 169.039062 L 408.546875 169.039062 L 408.546875 149.039062 L 428.546875 149.039062 L 428.546875 139.039062 L 408.546875 139.039062 L 408.546875 119.039062 L 398.546875 119.039062 L 398.546875 139.039062 "/>
<path style="fill-rule:nonzero;fill:rgb(90%,65%,0%);fill-opacity:1;stroke-width:1;stroke-linecap:butt;stroke-linejoin:round;stroke:rgb(0%,0%,0%);stroke-opacity:1;stroke-miterlimit:10;" d="M 64.050781 471.429688 L 44.050781 471.429688 L 44.050781 481.429688 L 64.050781 481.429688 L 64.050781 501.429688 L 74.050781 501.429688 L 74.050781 481.429688 L 94.050781 481.429688 L 94.050781 471.429688 L 74.050781 471.429688 L 74.050781 451.429688 L 64.050781 451.429688 L 64.050781 471.429688 "/>
<path style="fill-rule:nonzero;fill:rgb(90%,65%,0%);fill-opacity:1;stroke-width:1;stroke-linecap:butt;stroke-linejoin:round;stroke:rgb(0%,0%,0%);stroke-opacity:1;stroke-miterlimit:10;" d="M 107.59375 412.0625 L 87.59375 412.0625 L 87.59375 422.0625 L 107.59375 422.0625 L 107.59375 442.0625 L 117.59375 442.0625 L 117.59375 422.0625 L 137.59375 422.0625 L 137.59375 412.0625 L 117.59375 412.0625 L 117.59375 392.0625 L 107.59375 392.0625 L 107.59375 412.0625 "/>
</g>
</svg>
