<?xml version="1.0" encoding="UTF-8"?>
<svg xmlns="http://www.w3.org/2000/svg" xmlns:xlink="http://www.w3.org/1999/xlink" width="517pt" height="517pt" viewBox="0 0 517 517" version="1.1">
<g id="surface4556">
<rect x="0" y="0" width="517" height="517" style="fill:rgb(90%,90%,90%);fill-opacity:1;stroke:none;"/>
<path style="fill:none;stroke-width:5;stroke-linecap:butt;stroke-linejoin:round;stroke:rgb(100%,0%,0%);stroke-opacity:1;stroke-miterlimit:10;" d="M 5 261 L 261 261 L 261 517 L 5 517 Z M 5 261 "/>
<path style="fill-rule:nonzero;fill:rgb(100%,100%,0%);fill-opacity:1;stroke-width:1;stroke-linecap:butt;stroke-linejoin:round;stroke:rgb(0%,0%,0%);stroke-opacity:1;stroke-miterlimit:10;" d="M 106.84375 405.769531 C 106.84375 391.371094 82.84375 391.371094 82.84375 405.769531 C 82.84375 420.171875 106.84375 422.570312 106.84375 434.570312 C 106.84375 422.570312 130.84375 420.171875 130.84375 405.769531 C 130.84375 391.371094 106.84375 391.371094 106.84375 405.769531 "/>
<path style="fill-rule:nonzero;fill:rgb(90%,65%,0%);fill-opacity:1;stroke-width:1;stroke-linecap:butt;stroke-linejoin:round;stroke:rgb(0%,0%,0%);stroke-opacity:1;stroke-miterlimit:10;" d="M 453.675781 308.503906 C 453.675781 294.105469 429.675781 294.105469 429.675781 308.503906 C 429.675781 322.90625 453.675781 325.304688 453.675781 337.304688 C 453.675781 325.304688 477.675781 322.90625 477.675781 308.503906 C 477.675781 294.105469 453.675781 294.105469 453.675781 308.503906 "/>
<path style="fill-rule:nonzero;fill:rgb(90%,65%,0%);fill-opacity:1;stroke-width:1;stroke-linecap:butt;stroke-linejoin:round;stroke:rgb(0%,0%,0%);stroke-opacity:1;stroke-miterlimit:10;" d="M 294.871094 427.585938 C 294.871094 413.183594 270.871094 413.183594 270.871094 427.585938 C 270.871094 441.984375 294.871094 444.382812 294.871094 456.382812 C 294.871094 444.382812 318.871094 441.984375 318.871094 427.585938 C 318.871094 413.183594 294.871094 413.183594 294.871094 427.585938 "/>
<path style="fill-rule:nonzero;fill:rgb(90%,65%,0%);fill-opacity:1;stroke-width:1;stroke-linecap:butt;stroke-linejoin:round;stroke:rgb(0%,0%,0%);stroke-opacity:1;stroke-miterlimit:10;" d="M 444.664062 156.546875 C 444.664062 142.144531 420.664062 142.144531 420.664062 156.546875 C 420.664062 170.945312 444.664062 173.34375 444.664062 185.34375 C 444.664062 173.34375 468.664062 170.945312 468.664062 156.546875 C 468.664062 142.144531 444.664062 142.144531 444.664062 156.546875 "/>
<path style="fill-rule:nonzero;fill:rgb(90%,65%,0%);fill-opacity:1;stroke-width:1;stroke-linecap:butt;stroke-linejoin:round;stroke:rgb(0%,0%,0%);stroke-opacity:1;stroke-miterlimit:10;" d="M 344.160156 24.96875 C 344.160156 10.570312 320.160156 10.570312 320.160156 24.96875 C 320.160156 39.371094 344.160156 41.769531 344.160156 53.769531 C 344.160156 41.769531 368.160156 39.371094 368.160156 24.96875 C 368.160156 10.570312 344.160156 10.570312 344.160156 24.96875 "/>
<path style="fill-rule:nonzero;fill:rgb(50%,0%,50%);fill-opacity:1;stroke-width:1;stroke-linecap:butt;stroke-linejoin:round;stroke:rgb(0%,0%,0%);stroke-opacity:1;stroke-miterlimit:10;" d="M 402.390625 64.207031 C 402.390625 49.808594 378.390625 49.808594 378.390625 64.207031 C 378.390625 78.609375 402.390625 81.007812 402.390625 93.007812 C 402.390625 81.007812 426.390625 78.609375 426.390625 64.207031 C 426.390625 49.808594 402.390625 49.808594 402.390625 64.207031 "/>
</g>
</svg>
