<?xml version="1.0" encoding="UTF-8"?>
<svg xmlns="http://www.w3.org/2000/svg" xmlns:xlink="http://www.w3.org/1999/xlink" width="517pt" height="517pt" viewBox="0 0 517 517" version="1.1">
<g id="surface361">
<rect x="0" y="0" width="517" height="517" style="fill:rgb(90%,90%,90%);fill-opacity:1;stroke:none;"/>
<path style="fill:none;stroke-width:5;stroke-linecap:butt;stroke-linejoin:round;stroke:rgb(100%,0%,0%);stroke-opacity:1;stroke-miterlimit:10;" d="M 5 5 L 261 5 L 261 261 L 5 261 Z M 5 5 "/>
<path style="fill-rule:nonzero;fill:rgb(0%,0%,0%);fill-opacity:1;stroke-width:1;stroke-linecap:butt;stroke-linejoin:round;stroke:rgb(0%,0%,0%);stroke-opacity:1;stroke-miterlimit:10;" d="M 100.90625 72.210938 L 80.90625 72.210938 L 80.90625 82.210938 L 100.90625 82.210938 L 100.90625 102.210938 L 110.90625 102.210938 L 110.90625 82.210938 L 130.90625 82.210938 L 130.90625 72.210938 L 110.90625 72.210938 L 110.90625 52.210938 L 100.90625 52.210938 L 100.90625 72.210938 "/>
<path style="fill-rule:nonzero;fill:rgb(100%,100%,0%);fill-opacity:1;stroke-width:1;stroke-linecap:butt;stroke-linejoin:round;stroke:rgb(0%,0%,0%);stroke-opacity:1;stroke-miterlimit:10;" d="M 467.539062 198.230469 L 447.539062 198.230469 L 447.539062 208.230469 L 467.539062 208.230469 L 467.539062 228.230469 L 477.539062 228.230469 L 477.539062 208.230469 L 497.539062 208.230469 L 497.539062 198.230469 L 477.539062 198.230469 L 477.539062 178.230469 L 467.539062 178.230469 L 467.539062 198.230469 "/>
<path style="fill-rule:nonzero;fill:rgb(0%,0%,0%);fill-opacity:1;stroke-width:1;stroke-linecap:butt;stroke-linejoin:round;stroke:rgb(0%,0%,0%);stroke-opacity:1;stroke-miterlimit:10;" d="M 377.335938 185.195312 L 357.335938 185.195312 L 357.335938 195.195312 L 377.335938 195.195312 L 377.335938 215.195312 L 387.335938 215.195312 L 387.335938 195.195312 L 407.335938 195.195312 L 407.335938 185.195312 L 387.335938 185.195312 L 387.335938 165.195312 L 377.335938 165.195312 L 377.335938 185.195312 "/>
<path style="fill-rule:nonzero;fill:rgb(0%,0%,0%);fill-opacity:1;stroke-width:1;stroke-linecap:butt;stroke-linejoin:round;stroke:rgb(0%,0%,0%);stroke-opacity:1;stroke-miterlimit:10;" d="M 90.898438 455.644531 L 70.898438 455.644531 L 70.898438 465.644531 L 90.898438 465.644531 L 90.898438 485.644531 L 100.898438 485.644531 L 100.898438 465.644531 L 120.898438 465.644531 L 120.898438 455.644531 L 100.898438 455.644531 L 100.898438 435.644531 L 90.898438 435.644531 L 90.898438 455.644531 "/>
</g>
</svg>
