<?xml version="1.0" encoding="UTF-8"?>
<svg xmlns="http://www.w3.org/2000/svg" xmlns:xlink="http://www.w3.org/1999/xlink" width="517pt" height="517pt" viewBox="0 0 517 517" version="1.1">
<g id="surface4621">
<rect x="0" y="0" width="517" height="517" style="fill:rgb(90%,90%,90%);fill-opacity:1;stroke:none;"/>
<path style="fill:none;stroke-width:5;stroke-linecap:butt;stroke-linejoin:round;stroke:rgb(100%,0%,0%);stroke-opacity:1;stroke-miterlimit:10;" d="M 5 261 L 261 261 L 261 517 L 5 517 Z M 5 261 "/>
<path style="fill-rule:nonzero;fill:rgb(100%,0%,0%);fill-opacity:1;stroke-width:1;stroke-linecap:butt;stroke-linejoin:round;stroke:rgb(0%,0%,0%);stroke-opacity:1;stroke-miterlimit:10;" d="M 142.226562 366.910156 C 142.226562 352.511719 118.226562 352.511719 118.226562 366.910156 C 118.226562 381.3125 142.226562 383.710938 142.226562 395.710938 C 142.226562 383.710938 166.226562 381.3125 166.226562 366.910156 C 166.226562 352.511719 142.226562 352.511719 142.226562 366.910156 "/>
<path style="fill-rule:nonzero;fill:rgb(100%,100%,0%);fill-opacity:1;stroke-width:1;stroke-linecap:butt;stroke-linejoin:round;stroke:rgb(0%,0%,0%);stroke-opacity:1;stroke-miterlimit:10;" d="M 79.058594 195.230469 C 79.058594 180.832031 55.058594 180.832031 55.058594 195.230469 C 55.058594 209.632812 79.058594 212.03125 79.058594 224.03125 C 79.058594 212.03125 103.058594 209.632812 103.058594 195.230469 C 103.058594 180.832031 79.058594 180.832031 79.058594 195.230469 "/>
<path style="fill-rule:nonzero;fill:rgb(100%,100%,0%);fill-opacity:1;stroke-width:1;stroke-linecap:butt;stroke-linejoin:round;stroke:rgb(0%,0%,0%);stroke-opacity:1;stroke-miterlimit:10;" d="M 472.472656 191.289062 C 472.472656 176.890625 448.472656 176.890625 448.472656 191.289062 C 448.472656 205.6875 472.472656 208.089844 472.472656 220.089844 C 472.472656 208.089844 496.472656 205.6875 496.472656 191.289062 C 496.472656 176.890625 472.472656 176.890625 472.472656 191.289062 "/>
<path style="fill-rule:nonzero;fill:rgb(100%,100%,0%);fill-opacity:1;stroke-width:1;stroke-linecap:butt;stroke-linejoin:round;stroke:rgb(0%,0%,0%);stroke-opacity:1;stroke-miterlimit:10;" d="M 374.78125 440.4375 C 374.78125 426.035156 350.78125 426.035156 350.78125 440.4375 C 350.78125 454.835938 374.78125 457.234375 374.78125 469.234375 C 374.78125 457.234375 398.78125 454.835938 398.78125 440.4375 C 398.78125 426.035156 374.78125 426.035156 374.78125 440.4375 "/>
<path style="fill-rule:nonzero;fill:rgb(100%,100%,0%);fill-opacity:1;stroke-width:1;stroke-linecap:butt;stroke-linejoin:round;stroke:rgb(0%,0%,0%);stroke-opacity:1;stroke-miterlimit:10;" d="M 300.746094 338.679688 C 300.746094 324.277344 276.746094 324.277344 276.746094 338.679688 C 276.746094 353.078125 300.746094 355.476562 300.746094 367.476562 C 300.746094 355.476562 324.746094 353.078125 324.746094 338.679688 C 324.746094 324.277344 300.746094 324.277344 300.746094 338.679688 "/>
<path style="fill-rule:nonzero;fill:rgb(53%,27%,7%);fill-opacity:1;stroke-width:1;stroke-linecap:butt;stroke-linejoin:round;stroke:rgb(0%,0%,0%);stroke-opacity:1;stroke-miterlimit:10;" d="M 375.25 310.003906 C 375.25 295.605469 351.25 295.605469 351.25 310.003906 C 351.25 324.40625 375.25 326.804688 375.25 338.804688 C 375.25 326.804688 399.25 324.40625 399.25 310.003906 C 399.25 295.605469 375.25 295.605469 375.25 310.003906 "/>
</g>
</svg>
