<?xml version="1.0" encoding="UTF-8"?>
<svg xmlns="http://www.w3.org/2000/svg" xmlns:xlink="http://www.w3.org/1999/xlink" width="517pt" height="517pt" viewBox="0 0 517 517" version="1.1">
<g id="surface9596">
<rect x="0" y="0" width="517" height="517" style="fill:rgb(90%,90%,90%);fill-opacity:1;stroke:none;"/>
<path style="fill:none;stroke-width:5;stroke-linecap:butt;stroke-linejoin:round;stroke:rgb(100%,0%,0%);stroke-opacity:1;stroke-miterlimit:10;" d="M 261 261 L 517 261 L 517 517 L 261 517 Z M 261 261 "/>
<path style="fill-rule:nonzero;fill:rgb(35%,70%,90%);fill-opacity:1;stroke-width:1;stroke-linecap:butt;stroke-linejoin:round;stroke:rgb(0%,0%,0%);stroke-opacity:1;stroke-miterlimit:10;" d="M 404.707031 329.996094 L 384.707031 329.996094 L 384.707031 339.996094 L 404.707031 339.996094 L 404.707031 359.996094 L 414.707031 359.996094 L 414.707031 339.996094 L 434.707031 339.996094 L 434.707031 329.996094 L 414.707031 329.996094 L 414.707031 309.996094 L 404.707031 309.996094 L 404.707031 329.996094 "/>
<path style="fill-rule:nonzero;fill:rgb(35%,70%,90%);fill-opacity:1;stroke-width:1;stroke-linecap:butt;stroke-linejoin:round;stroke:rgb(0%,0%,0%);stroke-opacity:1;stroke-miterlimit:10;" d="M 128.503906 323.894531 L 108.503906 323.894531 L 108.503906 333.894531 L 128.503906 333.894531 L 128.503906 353.894531 L 138.503906 353.894531 L 138.503906 333.894531 L 158.503906 333.894531 L 158.503906 323.894531 L 138.503906 323.894531 L 138.503906 303.894531 L 128.503906 303.894531 L 128.503906 323.894531 "/>
<path style="fill-rule:nonzero;fill:rgb(35%,70%,90%);fill-opacity:1;stroke-width:1;stroke-linecap:butt;stroke-linejoin:round;stroke:rgb(0%,0%,0%);stroke-opacity:1;stroke-miterlimit:10;" d="M 209.074219 457.652344 L 189.074219 457.652344 L 189.074219 467.652344 L 209.074219 467.652344 L 209.074219 487.652344 L 219.074219 487.652344 L 219.074219 467.652344 L 239.074219 467.652344 L 239.074219 457.652344 L 219.074219 457.652344 L 219.074219 437.652344 L 209.074219 437.652344 L 209.074219 457.652344 "/>
<path style="fill-rule:nonzero;fill:rgb(35%,70%,90%);fill-opacity:1;stroke-width:1;stroke-linecap:butt;stroke-linejoin:round;stroke:rgb(0%,0%,0%);stroke-opacity:1;stroke-miterlimit:10;" d="M 333.320312 128.519531 L 313.320312 128.519531 L 313.320312 138.519531 L 333.320312 138.519531 L 333.320312 158.519531 L 343.320312 158.519531 L 343.320312 138.519531 L 363.320312 138.519531 L 363.320312 128.519531 L 343.320312 128.519531 L 343.320312 108.519531 L 333.320312 108.519531 L 333.320312 128.519531 "/>
<path style="fill-rule:nonzero;fill:rgb(35%,70%,90%);fill-opacity:1;stroke-width:1;stroke-linecap:butt;stroke-linejoin:round;stroke:rgb(0%,0%,0%);stroke-opacity:1;stroke-miterlimit:10;" d="M 453.753906 184.113281 L 433.753906 184.113281 L 433.753906 194.113281 L 453.753906 194.113281 L 453.753906 214.113281 L 463.753906 214.113281 L 463.753906 194.113281 L 483.753906 194.113281 L 483.753906 184.113281 L 463.753906 184.113281 L 463.753906 164.113281 L 453.753906 164.113281 L 453.753906 184.113281 "/>
<path style="fill-rule:nonzero;fill:rgb(35%,70%,90%);fill-opacity:1;stroke-width:1;stroke-linecap:butt;stroke-linejoin:round;stroke:rgb(0%,0%,0%);stroke-opacity:1;stroke-miterlimit:10;" d="M 414.871094 32.449219 L 394.871094 32.449219 L 394.871094 42.449219 L 414.871094 42.449219 L 414.871094 62.449219 L 424.871094 62.449219 L 424.871094 42.449219 L 444.871094 42.449219 L 444.871094 32.449219 L 424.871094 32.449219 L 424.871094 12.449219 L 414.871094 12.449219 L 414.871094 32.449219 "/>
</g>
</svg>
