<?xml version="1.0" encoding="UTF-8"?>
<svg xmlns="http://www.w3.org/2000/svg" xmlns:xlink="http://www.w3.org/1999/xlink" width="517pt" height="517pt" viewBox="0 0 517 517" version="1.1">
<g id="surface9386">
<rect x="0" y="0" width="517" height="517" style="fill:rgb(90%,90%,90%);fill-opacity:1;stroke:none;"/>
<path style="fill:none;stroke-width:5;stroke-linecap:butt;stroke-linejoin:round;stroke:rgb(100%,0%,0%);stroke-opacity:1;stroke-miterlimit:10;" d="M 5 261 L 261 261 L 261 517 L 5 517 Z M 5 261 "/>
<path style="fill-rule:nonzero;fill:rgb(0%,0%,0%);fill-opacity:1;stroke-width:1;stroke-linecap:butt;stroke-linejoin:round;stroke:rgb(0%,0%,0%);stroke-opacity:1;stroke-miterlimit:10;" d="M 90.054688 368.902344 L 70.054688 368.902344 L 70.054688 378.902344 L 90.054688 378.902344 L 90.054688 398.902344 L 100.054688 398.902344 L 100.054688 378.902344 L 120.054688 378.902344 L 120.054688 368.902344 L 100.054688 368.902344 L 100.054688 348.902344 L 90.054688 348.902344 L 90.054688 368.902344 "/>
<path style="fill-rule:nonzero;fill:rgb(100%,0%,0%);fill-opacity:1;stroke-width:1;stroke-linecap:butt;stroke-linejoin:round;stroke:rgb(0%,0%,0%);stroke-opacity:1;stroke-miterlimit:10;" d="M 410.671875 450.683594 L 390.671875 450.683594 L 390.671875 460.683594 L 410.671875 460.683594 L 410.671875 480.683594 L 420.671875 480.683594 L 420.671875 460.683594 L 440.671875 460.683594 L 440.671875 450.683594 L 420.671875 450.683594 L 420.671875 430.683594 L 410.671875 430.683594 L 410.671875 450.683594 "/>
<path style="fill-rule:nonzero;fill:rgb(100%,0%,0%);fill-opacity:1;stroke-width:1;stroke-linecap:butt;stroke-linejoin:round;stroke:rgb(0%,0%,0%);stroke-opacity:1;stroke-miterlimit:10;" d="M 449.605469 128.183594 L 429.605469 128.183594 L 429.605469 138.183594 L 449.605469 138.183594 L 449.605469 158.183594 L 459.605469 158.183594 L 459.605469 138.183594 L 479.605469 138.183594 L 479.605469 128.183594 L 459.605469 128.183594 L 459.605469 108.183594 L 449.605469 108.183594 L 449.605469 128.183594 "/>
<path style="fill-rule:nonzero;fill:rgb(100%,0%,0%);fill-opacity:1;stroke-width:1;stroke-linecap:butt;stroke-linejoin:round;stroke:rgb(0%,0%,0%);stroke-opacity:1;stroke-miterlimit:10;" d="M 423.4375 64.898438 L 403.4375 64.898438 L 403.4375 74.898438 L 423.4375 74.898438 L 423.4375 94.898438 L 433.4375 94.898438 L 433.4375 74.898438 L 453.4375 74.898438 L 453.4375 64.898438 L 433.4375 64.898438 L 433.4375 44.898438 L 423.4375 44.898438 L 423.4375 64.898438 "/>
<path style="fill-rule:nonzero;fill:rgb(100%,0%,0%);fill-opacity:1;stroke-width:1;stroke-linecap:butt;stroke-linejoin:round;stroke:rgb(0%,0%,0%);stroke-opacity:1;stroke-miterlimit:10;" d="M 311.976562 97.664062 L 291.976562 97.664062 L 291.976562 107.664062 L 311.976562 107.664062 L 311.976562 127.664062 L 321.976562 127.664062 L 321.976562 107.664062 L 341.976562 107.664062 L 341.976562 97.664062 L 321.976562 97.664062 L 321.976562 77.664062 L 311.976562 77.664062 L 311.976562 97.664062 "/>
<path style="fill-rule:nonzero;fill:rgb(100%,0%,0%);fill-opacity:1;stroke-width:1;stroke-linecap:butt;stroke-linejoin:round;stroke:rgb(0%,0%,0%);stroke-opacity:1;stroke-miterlimit:10;" d="M 448.566406 188.476562 L 428.566406 188.476562 L 428.566406 198.476562 L 448.566406 198.476562 L 448.566406 218.476562 L 458.566406 218.476562 L 458.566406 198.476562 L 478.566406 198.476562 L 478.566406 188.476562 L 458.566406 188.476562 L 458.566406 168.476562 L 448.566406 168.476562 L 448.566406 188.476562 "/>
</g>
</svg>
