<?xml version="1.0" encoding="UTF-8"?>
<svg xmlns="http://www.w3.org/2000/svg" xmlns:xlink="http://www.w3.org/1999/xlink" width="517pt" height="517pt" viewBox="0 0 517 517" version="1.1">
<g id="surface9276">
<rect x="0" y="0" width="517" height="517" style="fill:rgb(90%,90%,90%);fill-opacity:1;stroke:none;"/>
<path style="fill:none;stroke-width:5;stroke-linecap:butt;stroke-linejoin:round;stroke:rgb(100%,0%,0%);stroke-opacity:1;stroke-miterlimit:10;" d="M 261 261 L 517 261 L 517 517 L 261 517 Z M 261 261 "/>
<path style="fill-rule:nonzero;fill:rgb(50%,0%,50%);fill-opacity:1;stroke-width:1;stroke-linecap:butt;stroke-linejoin:round;stroke:rgb(0%,0%,0%);stroke-opacity:1;stroke-miterlimit:10;" d="M 436.09375 323.0625 L 416.09375 323.0625 L 416.09375 333.0625 L 436.09375 333.0625 L 436.09375 353.0625 L 446.09375 353.0625 L 446.09375 333.0625 L 466.09375 333.0625 L 466.09375 323.0625 L 446.09375 323.0625 L 446.09375 303.0625 L 436.09375 303.0625 L 436.09375 323.0625 "/>
<path style="fill-rule:nonzero;fill:rgb(50%,0%,50%);fill-opacity:1;stroke-width:1;stroke-linecap:butt;stroke-linejoin:round;stroke:rgb(0%,0%,0%);stroke-opacity:1;stroke-miterlimit:10;" d="M 185.449219 95.476562 L 165.449219 95.476562 L 165.449219 105.476562 L 185.449219 105.476562 L 185.449219 125.476562 L 195.449219 125.476562 L 195.449219 105.476562 L 215.449219 105.476562 L 215.449219 95.476562 L 195.449219 95.476562 L 195.449219 75.476562 L 185.449219 75.476562 L 185.449219 95.476562 "/>
<path style="fill-rule:nonzero;fill:rgb(50%,0%,50%);fill-opacity:1;stroke-width:1;stroke-linecap:butt;stroke-linejoin:round;stroke:rgb(0%,0%,0%);stroke-opacity:1;stroke-miterlimit:10;" d="M 45.324219 109.6875 L 25.324219 109.6875 L 25.324219 119.6875 L 45.324219 119.6875 L 45.324219 139.6875 L 55.324219 139.6875 L 55.324219 119.6875 L 75.324219 119.6875 L 75.324219 109.6875 L 55.324219 109.6875 L 55.324219 89.6875 L 45.324219 89.6875 L 45.324219 109.6875 "/>
<path style="fill-rule:nonzero;fill:rgb(50%,0%,50%);fill-opacity:1;stroke-width:1;stroke-linecap:butt;stroke-linejoin:round;stroke:rgb(0%,0%,0%);stroke-opacity:1;stroke-miterlimit:10;" d="M 176.796875 364.171875 L 156.796875 364.171875 L 156.796875 374.171875 L 176.796875 374.171875 L 176.796875 394.171875 L 186.796875 394.171875 L 186.796875 374.171875 L 206.796875 374.171875 L 206.796875 364.171875 L 186.796875 364.171875 L 186.796875 344.171875 L 176.796875 344.171875 L 176.796875 364.171875 "/>
<path style="fill-rule:nonzero;fill:rgb(50%,0%,50%);fill-opacity:1;stroke-width:1;stroke-linecap:butt;stroke-linejoin:round;stroke:rgb(0%,0%,0%);stroke-opacity:1;stroke-miterlimit:10;" d="M 104.175781 362.644531 L 84.175781 362.644531 L 84.175781 372.644531 L 104.175781 372.644531 L 104.175781 392.644531 L 114.175781 392.644531 L 114.175781 372.644531 L 134.175781 372.644531 L 134.175781 362.644531 L 114.175781 362.644531 L 114.175781 342.644531 L 104.175781 342.644531 L 104.175781 362.644531 "/>
<path style="fill-rule:nonzero;fill:rgb(50%,0%,50%);fill-opacity:1;stroke-width:1;stroke-linecap:butt;stroke-linejoin:round;stroke:rgb(0%,0%,0%);stroke-opacity:1;stroke-miterlimit:10;" d="M 75.6875 443.707031 L 55.6875 443.707031 L 55.6875 453.707031 L 75.6875 453.707031 L 75.6875 473.707031 L 85.6875 473.707031 L 85.6875 453.707031 L 105.6875 453.707031 L 105.6875 443.707031 L 85.6875 443.707031 L 85.6875 423.707031 L 75.6875 423.707031 L 75.6875 443.707031 "/>
</g>
</svg>
