<?xml version="1.0" encoding="UTF-8"?>
<svg xmlns="http://www.w3.org/2000/svg" xmlns:xlink="http://www.w3.org/1999/xlink" width="517pt" height="517pt" viewBox="0 0 517 517" version="1.1">
<g id="surface366">
<rect x="0" y="0" width="517" height="517" style="fill:rgb(90%,90%,90%);fill-opacity:1;stroke:none;"/>
<path style="fill:none;stroke-width:5;stroke-linecap:butt;stroke-linejoin:round;stroke:rgb(100%,0%,0%);stroke-opacity:1;stroke-miterlimit:10;" d="M 5 5 L 261 5 L 261 261 L 5 261 Z M 5 5 "/>
<path style="fill-rule:nonzero;fill:rgb(0%,0%,0%);fill-opacity:1;stroke-width:1;stroke-linecap:butt;stroke-linejoin:round;stroke:rgb(0%,0%,0%);stroke-opacity:1;stroke-miterlimit:10;" d="M 95.578125 57.460938 L 75.578125 57.460938 L 75.578125 67.460938 L 95.578125 67.460938 L 95.578125 87.460938 L 105.578125 87.460938 L 105.578125 67.460938 L 125.578125 67.460938 L 125.578125 57.460938 L 105.578125 57.460938 L 105.578125 37.460938 L 95.578125 37.460938 L 95.578125 57.460938 "/>
<path style="fill-rule:nonzero;fill:rgb(100%,100%,0%);fill-opacity:1;stroke-width:1;stroke-linecap:butt;stroke-linejoin:round;stroke:rgb(0%,0%,0%);stroke-opacity:1;stroke-miterlimit:10;" d="M 388.117188 431.1875 L 368.117188 431.1875 L 368.117188 441.1875 L 388.117188 441.1875 L 388.117188 461.1875 L 398.117188 461.1875 L 398.117188 441.1875 L 418.117188 441.1875 L 418.117188 431.1875 L 398.117188 431.1875 L 398.117188 411.1875 L 388.117188 411.1875 L 388.117188 431.1875 "/>
<path style="fill-rule:nonzero;fill:rgb(0%,0%,0%);fill-opacity:1;stroke-width:1;stroke-linecap:butt;stroke-linejoin:round;stroke:rgb(0%,0%,0%);stroke-opacity:1;stroke-miterlimit:10;" d="M 208.75 405.742188 L 188.75 405.742188 L 188.75 415.742188 L 208.75 415.742188 L 208.75 435.742188 L 218.75 435.742188 L 218.75 415.742188 L 238.75 415.742188 L 238.75 405.742188 L 218.75 405.742188 L 218.75 385.742188 L 208.75 385.742188 L 208.75 405.742188 "/>
<path style="fill-rule:nonzero;fill:rgb(0%,0%,0%);fill-opacity:1;stroke-width:1;stroke-linecap:butt;stroke-linejoin:round;stroke:rgb(0%,0%,0%);stroke-opacity:1;stroke-miterlimit:10;" d="M 100.914062 343.859375 L 80.914062 343.859375 L 80.914062 353.859375 L 100.914062 353.859375 L 100.914062 373.859375 L 110.914062 373.859375 L 110.914062 353.859375 L 130.914062 353.859375 L 130.914062 343.859375 L 110.914062 343.859375 L 110.914062 323.859375 L 100.914062 323.859375 L 100.914062 343.859375 "/>
</g>
</svg>
