<?xml version="1.0" encoding="UTF-8"?>
<svg xmlns="http://www.w3.org/2000/svg" xmlns:xlink="http://www.w3.org/1999/xlink" width="517pt" height="517pt" viewBox="0 0 517 517" version="1.1">
<g id="surface5516">
<rect x="0" y="0" width="517" height="517" style="fill:rgb(90%,90%,90%);fill-opacity:1;stroke:none;"/>
<path style="fill-rule:nonzero;fill:rgb(50%,0%,50%);fill-opacity:1;stroke-width:1;stroke-linecap:butt;stroke-linejoin:miter;stroke:rgb(0%,0%,0%);stroke-opacity:1;stroke-miterlimit:10;" d="M 482.070312 417.628906 C 482.070312 434.195312 468.636719 447.628906 452.070312 447.628906 C 435.5 447.628906 422.070312 434.195312 422.070312 417.628906 C 422.070312 401.058594 435.5 387.628906 452.070312 387.628906 C 468.636719 387.628906 482.070312 401.058594 482.070312 417.628906 "/>
<path style="fill-rule:nonzero;fill:rgb(50%,0%,50%);fill-opacity:1;stroke-width:1;stroke-linecap:butt;stroke-linejoin:miter;stroke:rgb(0%,0%,0%);stroke-opacity:1;stroke-miterlimit:10;" d="M 491.363281 335.472656 C 491.363281 352.039062 477.933594 365.472656 461.363281 365.472656 C 444.796875 365.472656 431.363281 352.039062 431.363281 335.472656 C 431.363281 318.902344 444.796875 305.472656 461.363281 305.472656 C 477.933594 305.472656 491.363281 318.902344 491.363281 335.472656 "/>
<path style="fill-rule:nonzero;fill:rgb(50%,0%,50%);fill-opacity:1;stroke-width:1;stroke-linecap:butt;stroke-linejoin:miter;stroke:rgb(0%,0%,0%);stroke-opacity:1;stroke-miterlimit:10;" d="M 167.414062 316.019531 C 167.414062 332.589844 153.980469 346.019531 137.414062 346.019531 C 120.84375 346.019531 107.414062 332.589844 107.414062 316.019531 C 107.414062 299.453125 120.84375 286.019531 137.414062 286.019531 C 153.980469 286.019531 167.414062 299.453125 167.414062 316.019531 "/>
<path style="fill-rule:nonzero;fill:rgb(100%,100%,0%);fill-opacity:1;stroke-width:1;stroke-linecap:butt;stroke-linejoin:miter;stroke:rgb(0%,0%,0%);stroke-opacity:1;stroke-miterlimit:10;" d="M 195.613281 416.574219 C 195.613281 433.140625 182.179688 446.574219 165.613281 446.574219 C 149.042969 446.574219 135.613281 433.140625 135.613281 416.574219 C 135.613281 400.003906 149.042969 386.574219 165.613281 386.574219 C 182.179688 386.574219 195.613281 400.003906 195.613281 416.574219 "/>
<path style="fill-rule:nonzero;fill:rgb(100%,100%,0%);fill-opacity:1;stroke-width:1;stroke-linecap:butt;stroke-linejoin:miter;stroke:rgb(0%,0%,0%);stroke-opacity:1;stroke-miterlimit:10;" d="M 175.40625 81.425781 C 175.40625 97.996094 161.976562 111.425781 145.40625 111.425781 C 128.839844 111.425781 115.40625 97.996094 115.40625 81.425781 C 115.40625 64.855469 128.839844 51.425781 145.40625 51.425781 C 161.976562 51.425781 175.40625 64.855469 175.40625 81.425781 "/>
<path style="fill-rule:nonzero;fill:rgb(100%,100%,0%);fill-opacity:1;stroke-width:1;stroke-linecap:butt;stroke-linejoin:miter;stroke:rgb(0%,0%,0%);stroke-opacity:1;stroke-miterlimit:10;" d="M 175.367188 212.957031 C 175.367188 229.527344 161.9375 242.957031 145.367188 242.957031 C 128.800781 242.957031 115.367188 229.527344 115.367188 212.957031 C 115.367188 196.390625 128.800781 182.957031 145.367188 182.957031 C 161.9375 182.957031 175.367188 196.390625 175.367188 212.957031 "/>
<path style="fill-rule:nonzero;fill:rgb(100%,100%,0%);fill-opacity:1;stroke-width:1;stroke-linecap:butt;stroke-linejoin:miter;stroke:rgb(0%,0%,0%);stroke-opacity:1;stroke-miterlimit:10;" d="M 82.921875 188.875 C 82.921875 205.445312 69.488281 218.875 52.921875 218.875 C 36.351562 218.875 22.921875 205.445312 22.921875 188.875 C 22.921875 172.308594 36.351562 158.875 52.921875 158.875 C 69.488281 158.875 82.921875 172.308594 82.921875 188.875 "/>
<path style="fill-rule:nonzero;fill:rgb(100%,100%,0%);fill-opacity:1;stroke-width:1;stroke-linecap:butt;stroke-linejoin:miter;stroke:rgb(0%,0%,0%);stroke-opacity:1;stroke-miterlimit:10;" d="M 90.773438 51.179688 C 90.773438 67.746094 77.339844 81.179688 60.773438 81.179688 C 44.203125 81.179688 30.773438 67.746094 30.773438 51.179688 C 30.773438 34.609375 44.203125 21.179688 60.773438 21.179688 C 77.339844 21.179688 90.773438 34.609375 90.773438 51.179688 "/>
</g>
</svg>
