<?xml version="1.0" encoding="UTF-8"?>
<svg xmlns="http://www.w3.org/2000/svg" xmlns:xlink="http://www.w3.org/1999/xlink" width="517pt" height="517pt" viewBox="0 0 517 517" version="1.1">
<g id="surface3941">
<rect x="0" y="0" width="517" height="517" style="fill:rgb(90%,90%,90%);fill-opacity:1;stroke:none;"/>
<path style="fill:none;stroke-width:5;stroke-linecap:butt;stroke-linejoin:round;stroke:rgb(100%,0%,0%);stroke-opacity:1;stroke-miterlimit:10;" d="M 5 5 L 261 5 L 261 261 L 5 261 Z M 5 5 "/>
<path style="fill-rule:nonzero;fill:rgb(0%,0%,0%);fill-opacity:1;stroke-width:1;stroke-linecap:butt;stroke-linejoin:round;stroke:rgb(0%,0%,0%);stroke-opacity:1;stroke-miterlimit:10;" d="M 72.03125 34.753906 L 52.03125 34.753906 L 52.03125 44.753906 L 72.03125 44.753906 L 72.03125 64.753906 L 82.03125 64.753906 L 82.03125 44.753906 L 102.03125 44.753906 L 102.03125 34.753906 L 82.03125 34.753906 L 82.03125 14.753906 L 72.03125 14.753906 L 72.03125 34.753906 "/>
<path style="fill-rule:nonzero;fill:rgb(50%,0%,50%);fill-opacity:1;stroke-width:1;stroke-linecap:butt;stroke-linejoin:round;stroke:rgb(0%,0%,0%);stroke-opacity:1;stroke-miterlimit:10;" d="M 374.035156 314.351562 L 354.035156 314.351562 L 354.035156 324.351562 L 374.035156 324.351562 L 374.035156 344.351562 L 384.035156 344.351562 L 384.035156 324.351562 L 404.035156 324.351562 L 404.035156 314.351562 L 384.035156 314.351562 L 384.035156 294.351562 L 374.035156 294.351562 L 374.035156 314.351562 "/>
<path style="fill-rule:nonzero;fill:rgb(50%,0%,50%);fill-opacity:1;stroke-width:1;stroke-linecap:butt;stroke-linejoin:round;stroke:rgb(0%,0%,0%);stroke-opacity:1;stroke-miterlimit:10;" d="M 453.671875 173.421875 L 433.671875 173.421875 L 433.671875 183.421875 L 453.671875 183.421875 L 453.671875 203.421875 L 463.671875 203.421875 L 463.671875 183.421875 L 483.671875 183.421875 L 483.671875 173.421875 L 463.671875 173.421875 L 463.671875 153.421875 L 453.671875 153.421875 L 453.671875 173.421875 "/>
<path style="fill-rule:nonzero;fill:rgb(50%,0%,50%);fill-opacity:1;stroke-width:1;stroke-linecap:butt;stroke-linejoin:round;stroke:rgb(0%,0%,0%);stroke-opacity:1;stroke-miterlimit:10;" d="M 450.914062 35.894531 L 430.914062 35.894531 L 430.914062 45.894531 L 450.914062 45.894531 L 450.914062 65.894531 L 460.914062 65.894531 L 460.914062 45.894531 L 480.914062 45.894531 L 480.914062 35.894531 L 460.914062 35.894531 L 460.914062 15.894531 L 450.914062 15.894531 L 450.914062 35.894531 "/>
<path style="fill-rule:nonzero;fill:rgb(50%,0%,50%);fill-opacity:1;stroke-width:1;stroke-linecap:butt;stroke-linejoin:round;stroke:rgb(0%,0%,0%);stroke-opacity:1;stroke-miterlimit:10;" d="M 87.535156 398.699219 L 67.535156 398.699219 L 67.535156 408.699219 L 87.535156 408.699219 L 87.535156 428.699219 L 97.535156 428.699219 L 97.535156 408.699219 L 117.535156 408.699219 L 117.535156 398.699219 L 97.535156 398.699219 L 97.535156 378.699219 L 87.535156 378.699219 L 87.535156 398.699219 "/>
<path style="fill-rule:nonzero;fill:rgb(0%,0%,0%);fill-opacity:1;stroke-width:1;stroke-linecap:butt;stroke-linejoin:round;stroke:rgb(0%,0%,0%);stroke-opacity:1;stroke-miterlimit:10;" d="M 118.503906 337.203125 L 98.503906 337.203125 L 98.503906 347.203125 L 118.503906 347.203125 L 118.503906 367.203125 L 128.503906 367.203125 L 128.503906 347.203125 L 148.503906 347.203125 L 148.503906 337.203125 L 128.503906 337.203125 L 128.503906 317.203125 L 118.503906 317.203125 L 118.503906 337.203125 "/>
</g>
</svg>
