<?xml version="1.0" encoding="UTF-8"?>
<svg xmlns="http://www.w3.org/2000/svg" xmlns:xlink="http://www.w3.org/1999/xlink" width="517pt" height="517pt" viewBox="0 0 517 517" version="1.1">
<g id="surface9166">
<rect x="0" y="0" width="517" height="517" style="fill:rgb(90%,90%,90%);fill-opacity:1;stroke:none;"/>
<path style="fill:none;stroke-width:5;stroke-linecap:butt;stroke-linejoin:round;stroke:rgb(100%,0%,0%);stroke-opacity:1;stroke-miterlimit:10;" d="M 261 5 L 517 5 L 517 261 L 261 261 Z M 261 5 "/>
<path style="fill-rule:nonzero;fill:rgb(90%,65%,0%);fill-opacity:1;stroke-width:1;stroke-linecap:butt;stroke-linejoin:round;stroke:rgb(0%,0%,0%);stroke-opacity:1;stroke-miterlimit:10;" d="M 302.695312 149.070312 L 282.695312 149.070312 L 282.695312 159.070312 L 302.695312 159.070312 L 302.695312 179.070312 L 312.695312 179.070312 L 312.695312 159.070312 L 332.695312 159.070312 L 332.695312 149.070312 L 312.695312 149.070312 L 312.695312 129.070312 L 302.695312 129.070312 L 302.695312 149.070312 "/>
<path style="fill-rule:nonzero;fill:rgb(100%,100%,0%);fill-opacity:1;stroke-width:1;stroke-linecap:butt;stroke-linejoin:round;stroke:rgb(0%,0%,0%);stroke-opacity:1;stroke-miterlimit:10;" d="M 37.5625 409.890625 L 17.5625 409.890625 L 17.5625 419.890625 L 37.5625 419.890625 L 37.5625 439.890625 L 47.5625 439.890625 L 47.5625 419.890625 L 67.5625 419.890625 L 67.5625 409.890625 L 47.5625 409.890625 L 47.5625 389.890625 L 37.5625 389.890625 L 37.5625 409.890625 "/>
<path style="fill-rule:nonzero;fill:rgb(100%,100%,0%);fill-opacity:1;stroke-width:1;stroke-linecap:butt;stroke-linejoin:round;stroke:rgb(0%,0%,0%);stroke-opacity:1;stroke-miterlimit:10;" d="M 116.675781 154.261719 L 96.675781 154.261719 L 96.675781 164.261719 L 116.675781 164.261719 L 116.675781 184.261719 L 126.675781 184.261719 L 126.675781 164.261719 L 146.675781 164.261719 L 146.675781 154.261719 L 126.675781 154.261719 L 126.675781 134.261719 L 116.675781 134.261719 L 116.675781 154.261719 "/>
<path style="fill-rule:nonzero;fill:rgb(100%,100%,0%);fill-opacity:1;stroke-width:1;stroke-linecap:butt;stroke-linejoin:round;stroke:rgb(0%,0%,0%);stroke-opacity:1;stroke-miterlimit:10;" d="M 127.425781 41.207031 L 107.425781 41.207031 L 107.425781 51.207031 L 127.425781 51.207031 L 127.425781 71.207031 L 137.425781 71.207031 L 137.425781 51.207031 L 157.425781 51.207031 L 157.425781 41.207031 L 137.425781 41.207031 L 137.425781 21.207031 L 127.425781 21.207031 L 127.425781 41.207031 "/>
<path style="fill-rule:nonzero;fill:rgb(100%,100%,0%);fill-opacity:1;stroke-width:1;stroke-linecap:butt;stroke-linejoin:round;stroke:rgb(0%,0%,0%);stroke-opacity:1;stroke-miterlimit:10;" d="M 175.109375 200.28125 L 155.109375 200.28125 L 155.109375 210.28125 L 175.109375 210.28125 L 175.109375 230.28125 L 185.109375 230.28125 L 185.109375 210.28125 L 205.109375 210.28125 L 205.109375 200.28125 L 185.109375 200.28125 L 185.109375 180.28125 L 175.109375 180.28125 L 175.109375 200.28125 "/>
</g>
</svg>
