<?xml version="1.0" encoding="UTF-8"?>
<svg xmlns="http://www.w3.org/2000/svg" xmlns:xlink="http://www.w3.org/1999/xlink" width="517pt" height="517pt" viewBox="0 0 517 517" version="1.1">
<g id="surface326">
<rect x="0" y="0" width="517" height="517" style="fill:rgb(90%,90%,90%);fill-opacity:1;stroke:none;"/>
<path style="fill:none;stroke-width:5;stroke-linecap:butt;stroke-linejoin:round;stroke:rgb(100%,0%,0%);stroke-opacity:1;stroke-miterlimit:10;" d="M 5 5 L 261 5 L 261 261 L 5 261 Z M 5 5 "/>
<path style="fill-rule:nonzero;fill:rgb(0%,0%,0%);fill-opacity:1;stroke-width:1;stroke-linecap:butt;stroke-linejoin:round;stroke:rgb(0%,0%,0%);stroke-opacity:1;stroke-miterlimit:10;" d="M 108.574219 34.222656 L 88.574219 34.222656 L 88.574219 44.222656 L 108.574219 44.222656 L 108.574219 64.222656 L 118.574219 64.222656 L 118.574219 44.222656 L 138.574219 44.222656 L 138.574219 34.222656 L 118.574219 34.222656 L 118.574219 14.222656 L 108.574219 14.222656 L 108.574219 34.222656 "/>
<path style="fill-rule:nonzero;fill:rgb(100%,100%,0%);fill-opacity:1;stroke-width:1;stroke-linecap:butt;stroke-linejoin:round;stroke:rgb(0%,0%,0%);stroke-opacity:1;stroke-miterlimit:10;" d="M 452.566406 368.371094 L 432.566406 368.371094 L 432.566406 378.371094 L 452.566406 378.371094 L 452.566406 398.371094 L 462.566406 398.371094 L 462.566406 378.371094 L 482.566406 378.371094 L 482.566406 368.371094 L 462.566406 368.371094 L 462.566406 348.371094 L 452.566406 348.371094 L 452.566406 368.371094 "/>
<path style="fill-rule:nonzero;fill:rgb(100%,100%,0%);fill-opacity:1;stroke-width:1;stroke-linecap:butt;stroke-linejoin:round;stroke:rgb(0%,0%,0%);stroke-opacity:1;stroke-miterlimit:10;" d="M 289.914062 42.109375 L 269.914062 42.109375 L 269.914062 52.109375 L 289.914062 52.109375 L 289.914062 72.109375 L 299.914062 72.109375 L 299.914062 52.109375 L 319.914062 52.109375 L 319.914062 42.109375 L 299.914062 42.109375 L 299.914062 22.109375 L 289.914062 22.109375 L 289.914062 42.109375 "/>
<path style="fill-rule:nonzero;fill:rgb(100%,100%,0%);fill-opacity:1;stroke-width:1;stroke-linecap:butt;stroke-linejoin:round;stroke:rgb(0%,0%,0%);stroke-opacity:1;stroke-miterlimit:10;" d="M 59.949219 328.28125 L 39.949219 328.28125 L 39.949219 338.28125 L 59.949219 338.28125 L 59.949219 358.28125 L 69.949219 358.28125 L 69.949219 338.28125 L 89.949219 338.28125 L 89.949219 328.28125 L 69.949219 328.28125 L 69.949219 308.28125 L 59.949219 308.28125 L 59.949219 328.28125 "/>
</g>
</svg>
