<?xml version="1.0" encoding="UTF-8"?>
<svg xmlns="http://www.w3.org/2000/svg" xmlns:xlink="http://www.w3.org/1999/xlink" width="517pt" height="517pt" viewBox="0 0 517 517" version="1.1">
<g id="surface4716">
<rect x="0" y="0" width="517" height="517" style="fill:rgb(90%,90%,90%);fill-opacity:1;stroke:none;"/>
<path style="fill:none;stroke-width:5;stroke-linecap:butt;stroke-linejoin:round;stroke:rgb(100%,0%,0%);stroke-opacity:1;stroke-miterlimit:10;" d="M 5 261 L 261 261 L 261 517 L 5 517 Z M 5 261 "/>
<path style="fill-rule:nonzero;fill:rgb(100%,100%,0%);fill-opacity:1;stroke-width:1;stroke-linecap:butt;stroke-linejoin:round;stroke:rgb(0%,0%,0%);stroke-opacity:1;stroke-miterlimit:10;" d="M 82.21875 298.421875 C 82.21875 284.023438 58.21875 284.023438 58.21875 298.421875 C 58.21875 312.824219 82.21875 315.222656 82.21875 327.222656 C 82.21875 315.222656 106.21875 312.824219 106.21875 298.421875 C 106.21875 284.023438 82.21875 284.023438 82.21875 298.421875 "/>
<path style="fill-rule:nonzero;fill:rgb(100%,100%,0%);fill-opacity:1;stroke-width:1;stroke-linecap:butt;stroke-linejoin:round;stroke:rgb(0%,0%,0%);stroke-opacity:1;stroke-miterlimit:10;" d="M 111.480469 55.230469 C 111.480469 40.832031 87.480469 40.832031 87.480469 55.230469 C 87.480469 69.632812 111.480469 72.03125 111.480469 84.03125 C 111.480469 72.03125 135.480469 69.632812 135.480469 55.230469 C 135.480469 40.832031 111.480469 40.832031 111.480469 55.230469 "/>
<path style="fill-rule:nonzero;fill:rgb(100%,100%,0%);fill-opacity:1;stroke-width:1;stroke-linecap:butt;stroke-linejoin:round;stroke:rgb(0%,0%,0%);stroke-opacity:1;stroke-miterlimit:10;" d="M 309.230469 401.589844 C 309.230469 387.1875 285.230469 387.1875 285.230469 401.589844 C 285.230469 415.988281 309.230469 418.386719 309.230469 430.386719 C 309.230469 418.386719 333.230469 415.988281 333.230469 401.589844 C 333.230469 387.1875 309.230469 387.1875 309.230469 401.589844 "/>
<path style="fill-rule:nonzero;fill:rgb(100%,100%,0%);fill-opacity:1;stroke-width:1;stroke-linecap:butt;stroke-linejoin:round;stroke:rgb(0%,0%,0%);stroke-opacity:1;stroke-miterlimit:10;" d="M 425.207031 283.195312 C 425.207031 268.792969 401.207031 268.792969 401.207031 283.195312 C 401.207031 297.59375 425.207031 299.992188 425.207031 311.992188 C 425.207031 299.992188 449.207031 297.59375 449.207031 283.195312 C 449.207031 268.792969 425.207031 268.792969 425.207031 283.195312 "/>
<path style="fill-rule:nonzero;fill:rgb(100%,100%,0%);fill-opacity:1;stroke-width:1;stroke-linecap:butt;stroke-linejoin:round;stroke:rgb(0%,0%,0%);stroke-opacity:1;stroke-miterlimit:10;" d="M 441.949219 373.359375 C 441.949219 358.960938 417.949219 358.960938 417.949219 373.359375 C 417.949219 387.761719 441.949219 390.160156 441.949219 402.160156 C 441.949219 390.160156 465.949219 387.761719 465.949219 373.359375 C 465.949219 358.960938 441.949219 358.960938 441.949219 373.359375 "/>
<path style="fill-rule:nonzero;fill:rgb(25%,88%,82%);fill-opacity:1;stroke-width:1;stroke-linecap:butt;stroke-linejoin:round;stroke:rgb(0%,0%,0%);stroke-opacity:1;stroke-miterlimit:10;" d="M 344.597656 311.96875 C 344.597656 297.566406 320.597656 297.566406 320.597656 311.96875 C 320.597656 326.367188 344.597656 328.765625 344.597656 340.765625 C 344.597656 328.765625 368.597656 326.367188 368.597656 311.96875 C 368.597656 297.566406 344.597656 297.566406 344.597656 311.96875 "/>
</g>
</svg>
