<?xml version="1.0" encoding="UTF-8"?>
<svg xmlns="http://www.w3.org/2000/svg" xmlns:xlink="http://www.w3.org/1999/xlink" width="517pt" height="517pt" viewBox="0 0 517 517" version="1.1">
<g id="surface4591">
<rect x="0" y="0" width="517" height="517" style="fill:rgb(90%,90%,90%);fill-opacity:1;stroke:none;"/>
<path style="fill:none;stroke-width:5;stroke-linecap:butt;stroke-linejoin:round;stroke:rgb(100%,0%,0%);stroke-opacity:1;stroke-miterlimit:10;" d="M 5 261 L 261 261 L 261 517 L 5 517 Z M 5 261 "/>
<path style="fill-rule:nonzero;fill:rgb(53%,27%,7%);fill-opacity:1;stroke-width:1;stroke-linecap:butt;stroke-linejoin:round;stroke:rgb(0%,0%,0%);stroke-opacity:1;stroke-miterlimit:10;" d="M 89.917969 334.027344 C 89.917969 319.625 65.917969 319.625 65.917969 334.027344 C 65.917969 348.425781 89.917969 350.828125 89.917969 362.828125 C 89.917969 350.828125 113.917969 348.425781 113.917969 334.027344 C 113.917969 319.625 89.917969 319.625 89.917969 334.027344 "/>
<path style="fill-rule:nonzero;fill:rgb(100%,100%,0%);fill-opacity:1;stroke-width:1;stroke-linecap:butt;stroke-linejoin:round;stroke:rgb(0%,0%,0%);stroke-opacity:1;stroke-miterlimit:10;" d="M 58.59375 143.003906 C 58.59375 128.605469 34.59375 128.605469 34.59375 143.003906 C 34.59375 157.40625 58.59375 159.804688 58.59375 171.804688 C 58.59375 159.804688 82.59375 157.40625 82.59375 143.003906 C 82.59375 128.605469 58.59375 128.605469 58.59375 143.003906 "/>
<path style="fill-rule:nonzero;fill:rgb(100%,100%,0%);fill-opacity:1;stroke-width:1;stroke-linecap:butt;stroke-linejoin:round;stroke:rgb(0%,0%,0%);stroke-opacity:1;stroke-miterlimit:10;" d="M 343.449219 66.300781 C 343.449219 51.902344 319.449219 51.902344 319.449219 66.300781 C 319.449219 80.703125 343.449219 83.101562 343.449219 95.101562 C 343.449219 83.101562 367.449219 80.703125 367.449219 66.300781 C 367.449219 51.902344 343.449219 51.902344 343.449219 66.300781 "/>
<path style="fill-rule:nonzero;fill:rgb(100%,100%,0%);fill-opacity:1;stroke-width:1;stroke-linecap:butt;stroke-linejoin:round;stroke:rgb(0%,0%,0%);stroke-opacity:1;stroke-miterlimit:10;" d="M 443.878906 21.882812 C 443.878906 7.480469 419.878906 7.480469 419.878906 21.882812 C 419.878906 36.28125 443.878906 38.679688 443.878906 50.679688 C 443.878906 38.679688 467.878906 36.28125 467.878906 21.882812 C 467.878906 7.480469 443.878906 7.480469 443.878906 21.882812 "/>
<path style="fill-rule:nonzero;fill:rgb(100%,100%,0%);fill-opacity:1;stroke-width:1;stroke-linecap:butt;stroke-linejoin:round;stroke:rgb(0%,0%,0%);stroke-opacity:1;stroke-miterlimit:10;" d="M 350.285156 380.519531 C 350.285156 366.121094 326.285156 366.121094 326.285156 380.519531 C 326.285156 394.917969 350.285156 397.320312 350.285156 409.320312 C 350.285156 397.320312 374.285156 394.917969 374.285156 380.519531 C 374.285156 366.121094 350.285156 366.121094 350.285156 380.519531 "/>
<path style="fill-rule:nonzero;fill:rgb(53%,27%,7%);fill-opacity:1;stroke-width:1;stroke-linecap:butt;stroke-linejoin:round;stroke:rgb(0%,0%,0%);stroke-opacity:1;stroke-miterlimit:10;" d="M 414.015625 433.761719 C 414.015625 419.363281 390.015625 419.363281 390.015625 433.761719 C 390.015625 448.164062 414.015625 450.5625 414.015625 462.5625 C 414.015625 450.5625 438.015625 448.164062 438.015625 433.761719 C 438.015625 419.363281 414.015625 419.363281 414.015625 433.761719 "/>
</g>
</svg>
