<?xml version="1.0" encoding="UTF-8"?>
<svg xmlns="http://www.w3.org/2000/svg" xmlns:xlink="http://www.w3.org/1999/xlink" width="517pt" height="517pt" viewBox="0 0 517 517" version="1.1">
<g id="surface4266">
<rect x="0" y="0" width="517" height="517" style="fill:rgb(90%,90%,90%);fill-opacity:1;stroke:none;"/>
<path style="fill:none;stroke-width:5;stroke-linecap:butt;stroke-linejoin:round;stroke:rgb(100%,0%,0%);stroke-opacity:1;stroke-miterlimit:10;" d="M 261 5 L 517 5 L 517 261 L 261 261 Z M 261 5 "/>
<path style="fill-rule:nonzero;fill:rgb(25%,88%,82%);fill-opacity:1;stroke-width:1;stroke-linecap:butt;stroke-linejoin:round;stroke:rgb(0%,0%,0%);stroke-opacity:1;stroke-miterlimit:10;" d="M 461.777344 48.882812 L 441.777344 48.882812 L 441.777344 58.882812 L 461.777344 58.882812 L 461.777344 78.882812 L 471.777344 78.882812 L 471.777344 58.882812 L 491.777344 58.882812 L 491.777344 48.882812 L 471.777344 48.882812 L 471.777344 28.882812 L 461.777344 28.882812 L 461.777344 48.882812 "/>
<path style="fill-rule:nonzero;fill:rgb(90%,65%,0%);fill-opacity:1;stroke-width:1;stroke-linecap:butt;stroke-linejoin:round;stroke:rgb(0%,0%,0%);stroke-opacity:1;stroke-miterlimit:10;" d="M 55.550781 44.761719 L 35.550781 44.761719 L 35.550781 54.761719 L 55.550781 54.761719 L 55.550781 74.761719 L 65.550781 74.761719 L 65.550781 54.761719 L 85.550781 54.761719 L 85.550781 44.761719 L 65.550781 44.761719 L 65.550781 24.761719 L 55.550781 24.761719 L 55.550781 44.761719 "/>
<path style="fill-rule:nonzero;fill:rgb(90%,65%,0%);fill-opacity:1;stroke-width:1;stroke-linecap:butt;stroke-linejoin:round;stroke:rgb(0%,0%,0%);stroke-opacity:1;stroke-miterlimit:10;" d="M 126.800781 197.007812 L 106.800781 197.007812 L 106.800781 207.007812 L 126.800781 207.007812 L 126.800781 227.007812 L 136.800781 227.007812 L 136.800781 207.007812 L 156.800781 207.007812 L 156.800781 197.007812 L 136.800781 197.007812 L 136.800781 177.007812 L 126.800781 177.007812 L 126.800781 197.007812 "/>
<path style="fill-rule:nonzero;fill:rgb(90%,65%,0%);fill-opacity:1;stroke-width:1;stroke-linecap:butt;stroke-linejoin:round;stroke:rgb(0%,0%,0%);stroke-opacity:1;stroke-miterlimit:10;" d="M 196.742188 390.464844 L 176.742188 390.464844 L 176.742188 400.464844 L 196.742188 400.464844 L 196.742188 420.464844 L 206.742188 420.464844 L 206.742188 400.464844 L 226.742188 400.464844 L 226.742188 390.464844 L 206.742188 390.464844 L 206.742188 370.464844 L 196.742188 370.464844 L 196.742188 390.464844 "/>
<path style="fill-rule:nonzero;fill:rgb(90%,65%,0%);fill-opacity:1;stroke-width:1;stroke-linecap:butt;stroke-linejoin:round;stroke:rgb(0%,0%,0%);stroke-opacity:1;stroke-miterlimit:10;" d="M 86.949219 306.652344 L 66.949219 306.652344 L 66.949219 316.652344 L 86.949219 316.652344 L 86.949219 336.652344 L 96.949219 336.652344 L 96.949219 316.652344 L 116.949219 316.652344 L 116.949219 306.652344 L 96.949219 306.652344 L 96.949219 286.652344 L 86.949219 286.652344 L 86.949219 306.652344 "/>
<path style="fill-rule:nonzero;fill:rgb(25%,88%,82%);fill-opacity:1;stroke-width:1;stroke-linecap:butt;stroke-linejoin:round;stroke:rgb(0%,0%,0%);stroke-opacity:1;stroke-miterlimit:10;" d="M 164.054688 337.898438 L 144.054688 337.898438 L 144.054688 347.898438 L 164.054688 347.898438 L 164.054688 367.898438 L 174.054688 367.898438 L 174.054688 347.898438 L 194.054688 347.898438 L 194.054688 337.898438 L 174.054688 337.898438 L 174.054688 317.898438 L 164.054688 317.898438 L 164.054688 337.898438 "/>
</g>
</svg>
