<?xml version="1.0" encoding="UTF-8"?>
<svg xmlns="http://www.w3.org/2000/svg" xmlns:xlink="http://www.w3.org/1999/xlink" width="517pt" height="517pt" viewBox="0 0 517 517" version="1.1">
<g id="surface4231">
<rect x="0" y="0" width="517" height="517" style="fill:rgb(90%,90%,90%);fill-opacity:1;stroke:none;"/>
<path style="fill:none;stroke-width:5;stroke-linecap:butt;stroke-linejoin:round;stroke:rgb(100%,0%,0%);stroke-opacity:1;stroke-miterlimit:10;" d="M 261 5 L 517 5 L 517 261 L 261 261 Z M 261 5 "/>
<path style="fill-rule:nonzero;fill:rgb(100%,0%,0%);fill-opacity:1;stroke-width:1;stroke-linecap:butt;stroke-linejoin:round;stroke:rgb(0%,0%,0%);stroke-opacity:1;stroke-miterlimit:10;" d="M 403.304688 131.597656 C 403.304688 148.167969 389.871094 161.597656 373.304688 161.597656 C 356.734375 161.597656 343.304688 148.167969 343.304688 131.597656 C 343.304688 115.03125 356.734375 101.597656 373.304688 101.597656 C 389.871094 101.597656 403.304688 115.03125 403.304688 131.597656 "/>
<path style="fill-rule:nonzero;fill:rgb(100%,0%,0%);fill-opacity:1;stroke-width:1;stroke-linecap:butt;stroke-linejoin:round;stroke:rgb(0%,0%,0%);stroke-opacity:1;stroke-miterlimit:10;" d="M 243.648438 333.523438 C 243.648438 350.09375 230.214844 363.523438 213.648438 363.523438 C 197.078125 363.523438 183.648438 350.09375 183.648438 333.523438 C 183.648438 316.957031 197.078125 303.523438 213.648438 303.523438 C 230.214844 303.523438 243.648438 316.957031 243.648438 333.523438 "/>
<path style="fill-rule:nonzero;fill:rgb(35%,70%,90%);fill-opacity:1;stroke-width:1;stroke-linecap:butt;stroke-linejoin:round;stroke:rgb(0%,0%,0%);stroke-opacity:1;stroke-miterlimit:10;" d="M 155.226562 381.359375 C 155.226562 397.925781 141.796875 411.359375 125.226562 411.359375 C 108.660156 411.359375 95.226562 397.925781 95.226562 381.359375 C 95.226562 364.789062 108.660156 351.359375 125.226562 351.359375 C 141.796875 351.359375 155.226562 364.789062 155.226562 381.359375 "/>
<path style="fill-rule:nonzero;fill:rgb(35%,70%,90%);fill-opacity:1;stroke-width:1;stroke-linecap:butt;stroke-linejoin:round;stroke:rgb(0%,0%,0%);stroke-opacity:1;stroke-miterlimit:10;" d="M 218.070312 64.316406 C 218.070312 80.886719 204.636719 94.316406 188.070312 94.316406 C 171.5 94.316406 158.070312 80.886719 158.070312 64.316406 C 158.070312 47.75 171.5 34.316406 188.070312 34.316406 C 204.636719 34.316406 218.070312 47.75 218.070312 64.316406 "/>
<path style="fill-rule:nonzero;fill:rgb(35%,70%,90%);fill-opacity:1;stroke-width:1;stroke-linecap:butt;stroke-linejoin:round;stroke:rgb(0%,0%,0%);stroke-opacity:1;stroke-miterlimit:10;" d="M 176.976562 213.292969 C 176.976562 229.863281 163.542969 243.292969 146.976562 243.292969 C 130.40625 243.292969 116.976562 229.863281 116.976562 213.292969 C 116.976562 196.726562 130.40625 183.292969 146.976562 183.292969 C 163.542969 183.292969 176.976562 196.726562 176.976562 213.292969 "/>
<path style="fill-rule:nonzero;fill:rgb(35%,70%,90%);fill-opacity:1;stroke-width:1;stroke-linecap:butt;stroke-linejoin:round;stroke:rgb(0%,0%,0%);stroke-opacity:1;stroke-miterlimit:10;" d="M 152.605469 149.007812 C 152.605469 165.578125 139.175781 179.007812 122.605469 179.007812 C 106.039062 179.007812 92.605469 165.578125 92.605469 149.007812 C 92.605469 132.4375 106.039062 119.007812 122.605469 119.007812 C 139.175781 119.007812 152.605469 132.4375 152.605469 149.007812 "/>
</g>
</svg>
