<?xml version="1.0" encoding="UTF-8"?>
<svg xmlns="http://www.w3.org/2000/svg" xmlns:xlink="http://www.w3.org/1999/xlink" width="517pt" height="517pt" viewBox="0 0 517 517" version="1.1">
<g id="surface4711">
<rect x="0" y="0" width="517" height="517" style="fill:rgb(90%,90%,90%);fill-opacity:1;stroke:none;"/>
<path style="fill:none;stroke-width:5;stroke-linecap:butt;stroke-linejoin:round;stroke:rgb(100%,0%,0%);stroke-opacity:1;stroke-miterlimit:10;" d="M 5 261 L 261 261 L 261 517 L 5 517 Z M 5 261 "/>
<path style="fill-rule:nonzero;fill:rgb(100%,100%,0%);fill-opacity:1;stroke-width:1;stroke-linecap:butt;stroke-linejoin:round;stroke:rgb(0%,0%,0%);stroke-opacity:1;stroke-miterlimit:10;" d="M 37.804688 398.460938 C 37.804688 384.058594 13.804688 384.058594 13.804688 398.460938 C 13.804688 412.859375 37.804688 415.261719 37.804688 427.261719 C 37.804688 415.261719 61.804688 412.859375 61.804688 398.460938 C 61.804688 384.058594 37.804688 384.058594 37.804688 398.460938 "/>
<path style="fill-rule:nonzero;fill:rgb(100%,100%,0%);fill-opacity:1;stroke-width:1;stroke-linecap:butt;stroke-linejoin:round;stroke:rgb(0%,0%,0%);stroke-opacity:1;stroke-miterlimit:10;" d="M 431.914062 325.03125 C 431.914062 310.632812 407.914062 310.632812 407.914062 325.03125 C 407.914062 339.429688 431.914062 341.832031 431.914062 353.832031 C 431.914062 341.832031 455.914062 339.429688 455.914062 325.03125 C 455.914062 310.632812 431.914062 310.632812 431.914062 325.03125 "/>
<path style="fill-rule:nonzero;fill:rgb(25%,88%,82%);fill-opacity:1;stroke-width:1;stroke-linecap:butt;stroke-linejoin:round;stroke:rgb(0%,0%,0%);stroke-opacity:1;stroke-miterlimit:10;" d="M 454.3125 147.558594 C 454.3125 133.160156 430.3125 133.160156 430.3125 147.558594 C 430.3125 161.957031 454.3125 164.359375 454.3125 176.359375 C 454.3125 164.359375 478.3125 161.957031 478.3125 147.558594 C 478.3125 133.160156 454.3125 133.160156 454.3125 147.558594 "/>
<path style="fill-rule:nonzero;fill:rgb(25%,88%,82%);fill-opacity:1;stroke-width:1;stroke-linecap:butt;stroke-linejoin:round;stroke:rgb(0%,0%,0%);stroke-opacity:1;stroke-miterlimit:10;" d="M 445.546875 34.398438 C 445.546875 20 421.546875 20 421.546875 34.398438 C 421.546875 48.800781 445.546875 51.199219 445.546875 63.199219 C 445.546875 51.199219 469.546875 48.800781 469.546875 34.398438 C 469.546875 20 445.546875 20 445.546875 34.398438 "/>
<path style="fill-rule:nonzero;fill:rgb(25%,88%,82%);fill-opacity:1;stroke-width:1;stroke-linecap:butt;stroke-linejoin:round;stroke:rgb(0%,0%,0%);stroke-opacity:1;stroke-miterlimit:10;" d="M 330.328125 74.535156 C 330.328125 60.132812 306.328125 60.132812 306.328125 74.535156 C 306.328125 88.933594 330.328125 91.335938 330.328125 103.335938 C 330.328125 91.335938 354.328125 88.933594 354.328125 74.535156 C 354.328125 60.132812 330.328125 60.132812 330.328125 74.535156 "/>
<path style="fill-rule:nonzero;fill:rgb(25%,88%,82%);fill-opacity:1;stroke-width:1;stroke-linecap:butt;stroke-linejoin:round;stroke:rgb(0%,0%,0%);stroke-opacity:1;stroke-miterlimit:10;" d="M 408.125 107.457031 C 408.125 93.058594 384.125 93.058594 384.125 107.457031 C 384.125 121.855469 408.125 124.257812 408.125 136.257812 C 408.125 124.257812 432.125 121.855469 432.125 107.457031 C 432.125 93.058594 408.125 93.058594 408.125 107.457031 "/>
</g>
</svg>
