<?xml version="1.0" encoding="UTF-8"?>
<svg xmlns="http://www.w3.org/2000/svg" xmlns:xlink="http://www.w3.org/1999/xlink" width="517pt" height="517pt" viewBox="0 0 517 517" version="1.1">
<g id="surface3976">
<rect x="0" y="0" width="517" height="517" style="fill:rgb(90%,90%,90%);fill-opacity:1;stroke:none;"/>
<path style="fill:none;stroke-width:5;stroke-linecap:butt;stroke-linejoin:round;stroke:rgb(100%,0%,0%);stroke-opacity:1;stroke-miterlimit:10;" d="M 5 5 L 261 5 L 261 261 L 5 261 Z M 5 5 "/>
<path style="fill-rule:nonzero;fill:rgb(0%,0%,0%);fill-opacity:1;stroke-width:1;stroke-linecap:butt;stroke-linejoin:round;stroke:rgb(0%,0%,0%);stroke-opacity:1;stroke-miterlimit:10;" d="M 115.378906 117.269531 L 95.378906 117.269531 L 95.378906 127.269531 L 115.378906 127.269531 L 115.378906 147.269531 L 125.378906 147.269531 L 125.378906 127.269531 L 145.378906 127.269531 L 145.378906 117.269531 L 125.378906 117.269531 L 125.378906 97.269531 L 115.378906 97.269531 L 115.378906 117.269531 "/>
<path style="fill-rule:nonzero;fill:rgb(50%,0%,50%);fill-opacity:1;stroke-width:1;stroke-linecap:butt;stroke-linejoin:round;stroke:rgb(0%,0%,0%);stroke-opacity:1;stroke-miterlimit:10;" d="M 352.875 120.847656 L 332.875 120.847656 L 332.875 130.847656 L 352.875 130.847656 L 352.875 150.847656 L 362.875 150.847656 L 362.875 130.847656 L 382.875 130.847656 L 382.875 120.847656 L 362.875 120.847656 L 362.875 100.847656 L 352.875 100.847656 L 352.875 120.847656 "/>
<path style="fill-rule:nonzero;fill:rgb(0%,0%,0%);fill-opacity:1;stroke-width:1;stroke-linecap:butt;stroke-linejoin:round;stroke:rgb(0%,0%,0%);stroke-opacity:1;stroke-miterlimit:10;" d="M 444.535156 152.917969 L 424.535156 152.917969 L 424.535156 162.917969 L 444.535156 162.917969 L 444.535156 182.917969 L 454.535156 182.917969 L 454.535156 162.917969 L 474.535156 162.917969 L 474.535156 152.917969 L 454.535156 152.917969 L 454.535156 132.917969 L 444.535156 132.917969 L 444.535156 152.917969 "/>
<path style="fill-rule:nonzero;fill:rgb(0%,0%,0%);fill-opacity:1;stroke-width:1;stroke-linecap:butt;stroke-linejoin:round;stroke:rgb(0%,0%,0%);stroke-opacity:1;stroke-miterlimit:10;" d="M 443.632812 330.988281 L 423.632812 330.988281 L 423.632812 340.988281 L 443.632812 340.988281 L 443.632812 360.988281 L 453.632812 360.988281 L 453.632812 340.988281 L 473.632812 340.988281 L 473.632812 330.988281 L 453.632812 330.988281 L 453.632812 310.988281 L 443.632812 310.988281 L 443.632812 330.988281 "/>
<path style="fill-rule:nonzero;fill:rgb(0%,0%,0%);fill-opacity:1;stroke-width:1;stroke-linecap:butt;stroke-linejoin:round;stroke:rgb(0%,0%,0%);stroke-opacity:1;stroke-miterlimit:10;" d="M 450.230469 390.992188 L 430.230469 390.992188 L 430.230469 400.992188 L 450.230469 400.992188 L 450.230469 420.992188 L 460.230469 420.992188 L 460.230469 400.992188 L 480.230469 400.992188 L 480.230469 390.992188 L 460.230469 390.992188 L 460.230469 370.992188 L 450.230469 370.992188 L 450.230469 390.992188 "/>
<path style="fill-rule:nonzero;fill:rgb(0%,0%,0%);fill-opacity:1;stroke-width:1;stroke-linecap:butt;stroke-linejoin:round;stroke:rgb(0%,0%,0%);stroke-opacity:1;stroke-miterlimit:10;" d="M 30.652344 339.460938 L 10.652344 339.460938 L 10.652344 349.460938 L 30.652344 349.460938 L 30.652344 369.460938 L 40.652344 369.460938 L 40.652344 349.460938 L 60.652344 349.460938 L 60.652344 339.460938 L 40.652344 339.460938 L 40.652344 319.460938 L 30.652344 319.460938 L 30.652344 339.460938 "/>
</g>
</svg>
