<?xml version="1.0" encoding="UTF-8"?>
<svg xmlns="http://www.w3.org/2000/svg" xmlns:xlink="http://www.w3.org/1999/xlink" width="517pt" height="517pt" viewBox="0 0 517 517" version="1.1">
<g id="surface5496">
<rect x="0" y="0" width="517" height="517" style="fill:rgb(90%,90%,90%);fill-opacity:1;stroke:none;"/>
<path style="fill-rule:nonzero;fill:rgb(50%,0%,50%);fill-opacity:1;stroke-width:1;stroke-linecap:butt;stroke-linejoin:miter;stroke:rgb(0%,0%,0%);stroke-opacity:1;stroke-miterlimit:10;" d="M 219.054688 311.238281 C 219.054688 327.804688 205.621094 341.238281 189.054688 341.238281 C 172.484375 341.238281 159.054688 327.804688 159.054688 311.238281 C 159.054688 294.667969 172.484375 281.238281 189.054688 281.238281 C 205.621094 281.238281 219.054688 294.667969 219.054688 311.238281 "/>
<path style="fill-rule:nonzero;fill:rgb(100%,100%,0%);fill-opacity:1;stroke-width:1;stroke-linecap:butt;stroke-linejoin:miter;stroke:rgb(0%,0%,0%);stroke-opacity:1;stroke-miterlimit:10;" d="M 204.554688 472.914062 C 204.554688 489.480469 191.125 502.914062 174.554688 502.914062 C 157.988281 502.914062 144.554688 489.480469 144.554688 472.914062 C 144.554688 456.34375 157.988281 442.914062 174.554688 442.914062 C 191.125 442.914062 204.554688 456.34375 204.554688 472.914062 "/>
<path style="fill-rule:nonzero;fill:rgb(100%,100%,0%);fill-opacity:1;stroke-width:1;stroke-linecap:butt;stroke-linejoin:miter;stroke:rgb(0%,0%,0%);stroke-opacity:1;stroke-miterlimit:10;" d="M 475.03125 170.921875 C 475.03125 187.488281 461.597656 200.921875 445.03125 200.921875 C 428.460938 200.921875 415.03125 187.488281 415.03125 170.921875 C 415.03125 154.351562 428.460938 140.921875 445.03125 140.921875 C 461.597656 140.921875 475.03125 154.351562 475.03125 170.921875 "/>
<path style="fill-rule:nonzero;fill:rgb(100%,100%,0%);fill-opacity:1;stroke-width:1;stroke-linecap:butt;stroke-linejoin:miter;stroke:rgb(0%,0%,0%);stroke-opacity:1;stroke-miterlimit:10;" d="M 332.3125 66.683594 C 332.3125 83.253906 318.882812 96.683594 302.3125 96.683594 C 285.746094 96.683594 272.3125 83.253906 272.3125 66.683594 C 272.3125 50.117188 285.746094 36.683594 302.3125 36.683594 C 318.882812 36.683594 332.3125 50.117188 332.3125 66.683594 "/>
<path style="fill-rule:nonzero;fill:rgb(100%,100%,0%);fill-opacity:1;stroke-width:1;stroke-linecap:butt;stroke-linejoin:miter;stroke:rgb(0%,0%,0%);stroke-opacity:1;stroke-miterlimit:10;" d="M 506.132812 96.613281 C 506.132812 113.183594 492.703125 126.613281 476.132812 126.613281 C 459.566406 126.613281 446.132812 113.183594 446.132812 96.613281 C 446.132812 80.046875 459.566406 66.613281 476.132812 66.613281 C 492.703125 66.613281 506.132812 80.046875 506.132812 96.613281 "/>
<path style="fill-rule:nonzero;fill:rgb(100%,100%,0%);fill-opacity:1;stroke-width:1;stroke-linecap:butt;stroke-linejoin:miter;stroke:rgb(0%,0%,0%);stroke-opacity:1;stroke-miterlimit:10;" d="M 242.5 206.753906 C 242.5 223.324219 229.070312 236.753906 212.5 236.753906 C 195.933594 236.753906 182.5 223.324219 182.5 206.753906 C 182.5 190.183594 195.933594 176.753906 212.5 176.753906 C 229.070312 176.753906 242.5 190.183594 242.5 206.753906 "/>
<path style="fill-rule:nonzero;fill:rgb(100%,100%,0%);fill-opacity:1;stroke-width:1;stroke-linecap:butt;stroke-linejoin:miter;stroke:rgb(0%,0%,0%);stroke-opacity:1;stroke-miterlimit:10;" d="M 157.042969 137.15625 C 157.042969 153.726562 143.609375 167.15625 127.042969 167.15625 C 110.472656 167.15625 97.042969 153.726562 97.042969 137.15625 C 97.042969 120.589844 110.472656 107.15625 127.042969 107.15625 C 143.609375 107.15625 157.042969 120.589844 157.042969 137.15625 "/>
<path style="fill-rule:nonzero;fill:rgb(100%,100%,0%);fill-opacity:1;stroke-width:1;stroke-linecap:butt;stroke-linejoin:miter;stroke:rgb(0%,0%,0%);stroke-opacity:1;stroke-miterlimit:10;" d="M 112.527344 50.878906 C 112.527344 67.445312 99.09375 80.878906 82.527344 80.878906 C 65.957031 80.878906 52.527344 67.445312 52.527344 50.878906 C 52.527344 34.308594 65.957031 20.878906 82.527344 20.878906 C 99.09375 20.878906 112.527344 34.308594 112.527344 50.878906 "/>
</g>
</svg>
