<?xml version="1.0" encoding="UTF-8"?>
<svg xmlns="http://www.w3.org/2000/svg" xmlns:xlink="http://www.w3.org/1999/xlink" width="517pt" height="517pt" viewBox="0 0 517 517" version="1.1">
<g id="surface9456">
<rect x="0" y="0" width="517" height="517" style="fill:rgb(90%,90%,90%);fill-opacity:1;stroke:none;"/>
<path style="fill:none;stroke-width:5;stroke-linecap:butt;stroke-linejoin:round;stroke:rgb(100%,0%,0%);stroke-opacity:1;stroke-miterlimit:10;" d="M 261 5 L 517 5 L 517 261 L 261 261 Z M 261 5 "/>
<path style="fill-rule:nonzero;fill:rgb(67%,100%,18%);fill-opacity:1;stroke-width:1;stroke-linecap:butt;stroke-linejoin:round;stroke:rgb(0%,0%,0%);stroke-opacity:1;stroke-miterlimit:10;" d="M 312.882812 159.242188 L 292.882812 159.242188 L 292.882812 169.242188 L 312.882812 169.242188 L 312.882812 189.242188 L 322.882812 189.242188 L 322.882812 169.242188 L 342.882812 169.242188 L 342.882812 159.242188 L 322.882812 159.242188 L 322.882812 139.242188 L 312.882812 139.242188 L 312.882812 159.242188 "/>
<path style="fill-rule:nonzero;fill:rgb(67%,100%,18%);fill-opacity:1;stroke-width:1;stroke-linecap:butt;stroke-linejoin:round;stroke:rgb(0%,0%,0%);stroke-opacity:1;stroke-miterlimit:10;" d="M 305.628906 317.839844 L 285.628906 317.839844 L 285.628906 327.839844 L 305.628906 327.839844 L 305.628906 347.839844 L 315.628906 347.839844 L 315.628906 327.839844 L 335.628906 327.839844 L 335.628906 317.839844 L 315.628906 317.839844 L 315.628906 297.839844 L 305.628906 297.839844 L 305.628906 317.839844 "/>
<path style="fill-rule:nonzero;fill:rgb(67%,100%,18%);fill-opacity:1;stroke-width:1;stroke-linecap:butt;stroke-linejoin:round;stroke:rgb(0%,0%,0%);stroke-opacity:1;stroke-miterlimit:10;" d="M 351.683594 439.136719 L 331.683594 439.136719 L 331.683594 449.136719 L 351.683594 449.136719 L 351.683594 469.136719 L 361.683594 469.136719 L 361.683594 449.136719 L 381.683594 449.136719 L 381.683594 439.136719 L 361.683594 439.136719 L 361.683594 419.136719 L 351.683594 419.136719 L 351.683594 439.136719 "/>
<path style="fill-rule:nonzero;fill:rgb(67%,100%,18%);fill-opacity:1;stroke-width:1;stroke-linecap:butt;stroke-linejoin:round;stroke:rgb(0%,0%,0%);stroke-opacity:1;stroke-miterlimit:10;" d="M 181.472656 73.320312 L 161.472656 73.320312 L 161.472656 83.320312 L 181.472656 83.320312 L 181.472656 103.320312 L 191.472656 103.320312 L 191.472656 83.320312 L 211.472656 83.320312 L 211.472656 73.320312 L 191.472656 73.320312 L 191.472656 53.320312 L 181.472656 53.320312 L 181.472656 73.320312 "/>
<path style="fill-rule:nonzero;fill:rgb(67%,100%,18%);fill-opacity:1;stroke-width:1;stroke-linecap:butt;stroke-linejoin:round;stroke:rgb(0%,0%,0%);stroke-opacity:1;stroke-miterlimit:10;" d="M 90.195312 61.570312 L 70.195312 61.570312 L 70.195312 71.570312 L 90.195312 71.570312 L 90.195312 91.570312 L 100.195312 91.570312 L 100.195312 71.570312 L 120.195312 71.570312 L 120.195312 61.570312 L 100.195312 61.570312 L 100.195312 41.570312 L 90.195312 41.570312 L 90.195312 61.570312 "/>
<path style="fill-rule:nonzero;fill:rgb(67%,100%,18%);fill-opacity:1;stroke-width:1;stroke-linecap:butt;stroke-linejoin:round;stroke:rgb(0%,0%,0%);stroke-opacity:1;stroke-miterlimit:10;" d="M 168.710938 139.832031 L 148.710938 139.832031 L 148.710938 149.832031 L 168.710938 149.832031 L 168.710938 169.832031 L 178.710938 169.832031 L 178.710938 149.832031 L 198.710938 149.832031 L 198.710938 139.832031 L 178.710938 139.832031 L 178.710938 119.832031 L 168.710938 119.832031 L 168.710938 139.832031 "/>
</g>
</svg>
