<?xml version="1.0" encoding="UTF-8"?>
<svg xmlns="http://www.w3.org/2000/svg" xmlns:xlink="http://www.w3.org/1999/xlink" width="517pt" height="517pt" viewBox="0 0 517 517" version="1.1">
<g id="surface9436">
<rect x="0" y="0" width="517" height="517" style="fill:rgb(90%,90%,90%);fill-opacity:1;stroke:none;"/>
<path style="fill:none;stroke-width:5;stroke-linecap:butt;stroke-linejoin:round;stroke:rgb(100%,0%,0%);stroke-opacity:1;stroke-miterlimit:10;" d="M 5 261 L 261 261 L 261 517 L 5 517 Z M 5 261 "/>
<path style="fill-rule:nonzero;fill:rgb(100%,0%,0%);fill-opacity:1;stroke-width:1;stroke-linecap:butt;stroke-linejoin:round;stroke:rgb(0%,0%,0%);stroke-opacity:1;stroke-miterlimit:10;" d="M 98.765625 339.574219 L 78.765625 339.574219 L 78.765625 349.574219 L 98.765625 349.574219 L 98.765625 369.574219 L 108.765625 369.574219 L 108.765625 349.574219 L 128.765625 349.574219 L 128.765625 339.574219 L 108.765625 339.574219 L 108.765625 319.574219 L 98.765625 319.574219 L 98.765625 339.574219 "/>
<path style="fill-rule:nonzero;fill:rgb(100%,0%,0%);fill-opacity:1;stroke-width:1;stroke-linecap:butt;stroke-linejoin:round;stroke:rgb(0%,0%,0%);stroke-opacity:1;stroke-miterlimit:10;" d="M 305.523438 443.222656 L 285.523438 443.222656 L 285.523438 453.222656 L 305.523438 453.222656 L 305.523438 473.222656 L 315.523438 473.222656 L 315.523438 453.222656 L 335.523438 453.222656 L 335.523438 443.222656 L 315.523438 443.222656 L 315.523438 423.222656 L 305.523438 423.222656 L 305.523438 443.222656 "/>
<path style="fill-rule:nonzero;fill:rgb(100%,0%,0%);fill-opacity:1;stroke-width:1;stroke-linecap:butt;stroke-linejoin:round;stroke:rgb(0%,0%,0%);stroke-opacity:1;stroke-miterlimit:10;" d="M 338.863281 119.921875 L 318.863281 119.921875 L 318.863281 129.921875 L 338.863281 129.921875 L 338.863281 149.921875 L 348.863281 149.921875 L 348.863281 129.921875 L 368.863281 129.921875 L 368.863281 119.921875 L 348.863281 119.921875 L 348.863281 99.921875 L 338.863281 99.921875 L 338.863281 119.921875 "/>
<path style="fill-rule:nonzero;fill:rgb(100%,0%,0%);fill-opacity:1;stroke-width:1;stroke-linecap:butt;stroke-linejoin:round;stroke:rgb(0%,0%,0%);stroke-opacity:1;stroke-miterlimit:10;" d="M 447.703125 140.289062 L 427.703125 140.289062 L 427.703125 150.289062 L 447.703125 150.289062 L 447.703125 170.289062 L 457.703125 170.289062 L 457.703125 150.289062 L 477.703125 150.289062 L 477.703125 140.289062 L 457.703125 140.289062 L 457.703125 120.289062 L 447.703125 120.289062 L 447.703125 140.289062 "/>
<path style="fill-rule:nonzero;fill:rgb(100%,0%,0%);fill-opacity:1;stroke-width:1;stroke-linecap:butt;stroke-linejoin:round;stroke:rgb(0%,0%,0%);stroke-opacity:1;stroke-miterlimit:10;" d="M 422.359375 211.988281 L 402.359375 211.988281 L 402.359375 221.988281 L 422.359375 221.988281 L 422.359375 241.988281 L 432.359375 241.988281 L 432.359375 221.988281 L 452.359375 221.988281 L 452.359375 211.988281 L 432.359375 211.988281 L 432.359375 191.988281 L 422.359375 191.988281 L 422.359375 211.988281 "/>
<path style="fill-rule:nonzero;fill:rgb(100%,0%,0%);fill-opacity:1;stroke-width:1;stroke-linecap:butt;stroke-linejoin:round;stroke:rgb(0%,0%,0%);stroke-opacity:1;stroke-miterlimit:10;" d="M 338.242188 197.007812 L 318.242188 197.007812 L 318.242188 207.007812 L 338.242188 207.007812 L 338.242188 227.007812 L 348.242188 227.007812 L 348.242188 207.007812 L 368.242188 207.007812 L 368.242188 197.007812 L 348.242188 197.007812 L 348.242188 177.007812 L 338.242188 177.007812 L 338.242188 197.007812 "/>
</g>
</svg>
