<?xml version="1.0" encoding="UTF-8"?>
<svg xmlns="http://www.w3.org/2000/svg" xmlns:xlink="http://www.w3.org/1999/xlink" width="517pt" height="517pt" viewBox="0 0 517 517" version="1.1">
<g id="surface4171">
<rect x="0" y="0" width="517" height="517" style="fill:rgb(90%,90%,90%);fill-opacity:1;stroke:none;"/>
<path style="fill:none;stroke-width:5;stroke-linecap:butt;stroke-linejoin:round;stroke:rgb(100%,0%,0%);stroke-opacity:1;stroke-miterlimit:10;" d="M 261 5 L 517 5 L 517 261 L 261 261 Z M 261 5 "/>
<path style="fill-rule:nonzero;fill:rgb(35%,70%,90%);fill-opacity:1;stroke-width:1;stroke-linecap:butt;stroke-linejoin:round;stroke:rgb(0%,0%,0%);stroke-opacity:1;stroke-miterlimit:10;" d="M 331.015625 213.386719 C 331.015625 229.957031 317.582031 243.386719 301.015625 243.386719 C 284.445312 243.386719 271.015625 229.957031 271.015625 213.386719 C 271.015625 196.820312 284.445312 183.386719 301.015625 183.386719 C 317.582031 183.386719 331.015625 196.820312 331.015625 213.386719 "/>
<path style="fill-rule:nonzero;fill:rgb(100%,0%,0%);fill-opacity:1;stroke-width:1;stroke-linecap:butt;stroke-linejoin:round;stroke:rgb(0%,0%,0%);stroke-opacity:1;stroke-miterlimit:10;" d="M 96.714844 404.402344 C 96.714844 420.972656 83.28125 434.402344 66.714844 434.402344 C 50.144531 434.402344 36.714844 420.972656 36.714844 404.402344 C 36.714844 387.835938 50.144531 374.402344 66.714844 374.402344 C 83.28125 374.402344 96.714844 387.835938 96.714844 404.402344 "/>
<path style="fill-rule:nonzero;fill:rgb(100%,0%,0%);fill-opacity:1;stroke-width:1;stroke-linecap:butt;stroke-linejoin:round;stroke:rgb(0%,0%,0%);stroke-opacity:1;stroke-miterlimit:10;" d="M 492.019531 413.242188 C 492.019531 429.808594 478.585938 443.242188 462.019531 443.242188 C 445.449219 443.242188 432.019531 429.808594 432.019531 413.242188 C 432.019531 396.671875 445.449219 383.242188 462.019531 383.242188 C 478.585938 383.242188 492.019531 396.671875 492.019531 413.242188 "/>
<path style="fill-rule:nonzero;fill:rgb(100%,0%,0%);fill-opacity:1;stroke-width:1;stroke-linecap:butt;stroke-linejoin:round;stroke:rgb(0%,0%,0%);stroke-opacity:1;stroke-miterlimit:10;" d="M 406.890625 432.699219 C 406.890625 449.269531 393.460938 462.699219 376.890625 462.699219 C 360.324219 462.699219 346.890625 449.269531 346.890625 432.699219 C 346.890625 416.132812 360.324219 402.699219 376.890625 402.699219 C 393.460938 402.699219 406.890625 416.132812 406.890625 432.699219 "/>
<path style="fill-rule:nonzero;fill:rgb(100%,0%,0%);fill-opacity:1;stroke-width:1;stroke-linecap:butt;stroke-linejoin:round;stroke:rgb(0%,0%,0%);stroke-opacity:1;stroke-miterlimit:10;" d="M 389.601562 316.882812 C 389.601562 333.449219 376.171875 346.882812 359.601562 346.882812 C 343.035156 346.882812 329.601562 333.449219 329.601562 316.882812 C 329.601562 300.3125 343.035156 286.882812 359.601562 286.882812 C 376.171875 286.882812 389.601562 300.3125 389.601562 316.882812 "/>
<path style="fill-rule:nonzero;fill:rgb(100%,0%,0%);fill-opacity:1;stroke-width:1;stroke-linecap:butt;stroke-linejoin:round;stroke:rgb(0%,0%,0%);stroke-opacity:1;stroke-miterlimit:10;" d="M 477.972656 351.671875 C 477.972656 368.242188 464.542969 381.671875 447.972656 381.671875 C 431.40625 381.671875 417.972656 368.242188 417.972656 351.671875 C 417.972656 335.105469 431.40625 321.671875 447.972656 321.671875 C 464.542969 321.671875 477.972656 335.105469 477.972656 351.671875 "/>
</g>
</svg>
