<?xml version="1.0" encoding="UTF-8"?>
<svg xmlns="http://www.w3.org/2000/svg" xmlns:xlink="http://www.w3.org/1999/xlink" width="517pt" height="517pt" viewBox="0 0 517 517" version="1.1">
<g id="surface9266">
<rect x="0" y="0" width="517" height="517" style="fill:rgb(90%,90%,90%);fill-opacity:1;stroke:none;"/>
<path style="fill:none;stroke-width:5;stroke-linecap:butt;stroke-linejoin:round;stroke:rgb(100%,0%,0%);stroke-opacity:1;stroke-miterlimit:10;" d="M 261 261 L 517 261 L 517 517 L 261 517 Z M 261 261 "/>
<path style="fill-rule:nonzero;fill:rgb(50%,0%,50%);fill-opacity:1;stroke-width:1;stroke-linecap:butt;stroke-linejoin:round;stroke:rgb(0%,0%,0%);stroke-opacity:1;stroke-miterlimit:10;" d="M 359.136719 458.6875 L 339.136719 458.6875 L 339.136719 468.6875 L 359.136719 468.6875 L 359.136719 488.6875 L 369.136719 488.6875 L 369.136719 468.6875 L 389.136719 468.6875 L 389.136719 458.6875 L 369.136719 458.6875 L 369.136719 438.6875 L 359.136719 438.6875 L 359.136719 458.6875 "/>
<path style="fill-rule:nonzero;fill:rgb(67%,100%,18%);fill-opacity:1;stroke-width:1;stroke-linecap:butt;stroke-linejoin:round;stroke:rgb(0%,0%,0%);stroke-opacity:1;stroke-miterlimit:10;" d="M 77.984375 135.289062 L 57.984375 135.289062 L 57.984375 145.289062 L 77.984375 145.289062 L 77.984375 165.289062 L 87.984375 165.289062 L 87.984375 145.289062 L 107.984375 145.289062 L 107.984375 135.289062 L 87.984375 135.289062 L 87.984375 115.289062 L 77.984375 115.289062 L 77.984375 135.289062 "/>
<path style="fill-rule:nonzero;fill:rgb(67%,100%,18%);fill-opacity:1;stroke-width:1;stroke-linecap:butt;stroke-linejoin:round;stroke:rgb(0%,0%,0%);stroke-opacity:1;stroke-miterlimit:10;" d="M 372.675781 204.128906 L 352.675781 204.128906 L 352.675781 214.128906 L 372.675781 214.128906 L 372.675781 234.128906 L 382.675781 234.128906 L 382.675781 214.128906 L 402.675781 214.128906 L 402.675781 204.128906 L 382.675781 204.128906 L 382.675781 184.128906 L 372.675781 184.128906 L 372.675781 204.128906 "/>
<path style="fill-rule:nonzero;fill:rgb(67%,100%,18%);fill-opacity:1;stroke-width:1;stroke-linecap:butt;stroke-linejoin:round;stroke:rgb(0%,0%,0%);stroke-opacity:1;stroke-miterlimit:10;" d="M 49.339844 331.695312 L 29.339844 331.695312 L 29.339844 341.695312 L 49.339844 341.695312 L 49.339844 361.695312 L 59.339844 361.695312 L 59.339844 341.695312 L 79.339844 341.695312 L 79.339844 331.695312 L 59.339844 331.695312 L 59.339844 311.695312 L 49.339844 311.695312 L 49.339844 331.695312 "/>
<path style="fill-rule:nonzero;fill:rgb(67%,100%,18%);fill-opacity:1;stroke-width:1;stroke-linecap:butt;stroke-linejoin:round;stroke:rgb(0%,0%,0%);stroke-opacity:1;stroke-miterlimit:10;" d="M 167.136719 377.765625 L 147.136719 377.765625 L 147.136719 387.765625 L 167.136719 387.765625 L 167.136719 407.765625 L 177.136719 407.765625 L 177.136719 387.765625 L 197.136719 387.765625 L 197.136719 377.765625 L 177.136719 377.765625 L 177.136719 357.765625 L 167.136719 357.765625 L 167.136719 377.765625 "/>
<path style="fill-rule:nonzero;fill:rgb(67%,100%,18%);fill-opacity:1;stroke-width:1;stroke-linecap:butt;stroke-linejoin:round;stroke:rgb(0%,0%,0%);stroke-opacity:1;stroke-miterlimit:10;" d="M 94.867188 427.15625 L 74.867188 427.15625 L 74.867188 437.15625 L 94.867188 437.15625 L 94.867188 457.15625 L 104.867188 457.15625 L 104.867188 437.15625 L 124.867188 437.15625 L 124.867188 427.15625 L 104.867188 427.15625 L 104.867188 407.15625 L 94.867188 407.15625 L 94.867188 427.15625 "/>
</g>
</svg>
