<?xml version="1.0" encoding="UTF-8"?>
<svg xmlns="http://www.w3.org/2000/svg" xmlns:xlink="http://www.w3.org/1999/xlink" width="517pt" height="517pt" viewBox="0 0 517 517" version="1.1">
<g id="surface5456">
<rect x="0" y="0" width="517" height="517" style="fill:rgb(90%,90%,90%);fill-opacity:1;stroke:none;"/>
<path style="fill-rule:nonzero;fill:rgb(50%,0%,50%);fill-opacity:1;stroke-width:1;stroke-linecap:butt;stroke-linejoin:miter;stroke:rgb(0%,0%,0%);stroke-opacity:1;stroke-miterlimit:10;" d="M 429.890625 154.558594 C 429.890625 171.125 416.460938 184.558594 399.890625 184.558594 C 383.324219 184.558594 369.890625 171.125 369.890625 154.558594 C 369.890625 137.988281 383.324219 124.558594 399.890625 124.558594 C 416.460938 124.558594 429.890625 137.988281 429.890625 154.558594 "/>
<path style="fill-rule:nonzero;fill:rgb(100%,100%,0%);fill-opacity:1;stroke-width:1;stroke-linecap:butt;stroke-linejoin:miter;stroke:rgb(0%,0%,0%);stroke-opacity:1;stroke-miterlimit:10;" d="M 68.628906 331.484375 C 68.628906 348.054688 55.199219 361.484375 38.628906 361.484375 C 22.0625 361.484375 8.628906 348.054688 8.628906 331.484375 C 8.628906 314.917969 22.0625 301.484375 38.628906 301.484375 C 55.199219 301.484375 68.628906 314.917969 68.628906 331.484375 "/>
<path style="fill-rule:nonzero;fill:rgb(100%,100%,0%);fill-opacity:1;stroke-width:1;stroke-linecap:butt;stroke-linejoin:miter;stroke:rgb(0%,0%,0%);stroke-opacity:1;stroke-miterlimit:10;" d="M 150.160156 331.753906 C 150.160156 348.324219 136.730469 361.753906 120.160156 361.753906 C 103.589844 361.753906 90.160156 348.324219 90.160156 331.753906 C 90.160156 315.1875 103.589844 301.753906 120.160156 301.753906 C 136.730469 301.753906 150.160156 315.1875 150.160156 331.753906 "/>
<path style="fill-rule:nonzero;fill:rgb(100%,100%,0%);fill-opacity:1;stroke-width:1;stroke-linecap:butt;stroke-linejoin:miter;stroke:rgb(0%,0%,0%);stroke-opacity:1;stroke-miterlimit:10;" d="M 87.28125 457.476562 C 87.28125 474.042969 73.851562 487.476562 57.28125 487.476562 C 40.714844 487.476562 27.28125 474.042969 27.28125 457.476562 C 27.28125 440.90625 40.714844 427.476562 57.28125 427.476562 C 73.851562 427.476562 87.28125 440.90625 87.28125 457.476562 "/>
<path style="fill-rule:nonzero;fill:rgb(100%,100%,0%);fill-opacity:1;stroke-width:1;stroke-linecap:butt;stroke-linejoin:miter;stroke:rgb(0%,0%,0%);stroke-opacity:1;stroke-miterlimit:10;" d="M 149.492188 408.46875 C 149.492188 425.039062 136.058594 438.46875 119.492188 438.46875 C 102.921875 438.46875 89.492188 425.039062 89.492188 408.46875 C 89.492188 391.902344 102.921875 378.46875 119.492188 378.46875 C 136.058594 378.46875 149.492188 391.902344 149.492188 408.46875 "/>
<path style="fill-rule:nonzero;fill:rgb(100%,100%,0%);fill-opacity:1;stroke-width:1;stroke-linecap:butt;stroke-linejoin:miter;stroke:rgb(0%,0%,0%);stroke-opacity:1;stroke-miterlimit:10;" d="M 230.503906 453.15625 C 230.503906 469.722656 217.074219 483.15625 200.503906 483.15625 C 183.9375 483.15625 170.503906 469.722656 170.503906 453.15625 C 170.503906 436.585938 183.9375 423.15625 200.503906 423.15625 C 217.074219 423.15625 230.503906 436.585938 230.503906 453.15625 "/>
<path style="fill-rule:nonzero;fill:rgb(100%,100%,0%);fill-opacity:1;stroke-width:1;stroke-linecap:butt;stroke-linejoin:miter;stroke:rgb(0%,0%,0%);stroke-opacity:1;stroke-miterlimit:10;" d="M 210.183594 394.484375 C 210.183594 411.054688 196.753906 424.484375 180.183594 424.484375 C 163.617188 424.484375 150.183594 411.054688 150.183594 394.484375 C 150.183594 377.917969 163.617188 364.484375 180.183594 364.484375 C 196.753906 364.484375 210.183594 377.917969 210.183594 394.484375 "/>
<path style="fill-rule:nonzero;fill:rgb(100%,100%,0%);fill-opacity:1;stroke-width:1;stroke-linecap:butt;stroke-linejoin:miter;stroke:rgb(0%,0%,0%);stroke-opacity:1;stroke-miterlimit:10;" d="M 217.429688 304.363281 C 217.429688 320.933594 204 334.363281 187.429688 334.363281 C 170.863281 334.363281 157.429688 320.933594 157.429688 304.363281 C 157.429688 287.796875 170.863281 274.363281 187.429688 274.363281 C 204 274.363281 217.429688 287.796875 217.429688 304.363281 "/>
</g>
</svg>
