<?xml version="1.0" encoding="UTF-8"?>
<svg xmlns="http://www.w3.org/2000/svg" xmlns:xlink="http://www.w3.org/1999/xlink" width="517pt" height="517pt" viewBox="0 0 517 517" version="1.1">
<g id="surface4661">
<rect x="0" y="0" width="517" height="517" style="fill:rgb(90%,90%,90%);fill-opacity:1;stroke:none;"/>
<path style="fill:none;stroke-width:5;stroke-linecap:butt;stroke-linejoin:round;stroke:rgb(100%,0%,0%);stroke-opacity:1;stroke-miterlimit:10;" d="M 5 261 L 261 261 L 261 517 L 5 517 Z M 5 261 "/>
<path style="fill-rule:nonzero;fill:rgb(25%,88%,82%);fill-opacity:1;stroke-width:1;stroke-linecap:butt;stroke-linejoin:round;stroke:rgb(0%,0%,0%);stroke-opacity:1;stroke-miterlimit:10;" d="M 137.042969 370.839844 C 137.042969 356.441406 113.042969 356.441406 113.042969 370.839844 C 113.042969 385.242188 137.042969 387.640625 137.042969 399.640625 C 137.042969 387.640625 161.042969 385.242188 161.042969 370.839844 C 161.042969 356.441406 137.042969 356.441406 137.042969 370.839844 "/>
<path style="fill-rule:nonzero;fill:rgb(100%,100%,0%);fill-opacity:1;stroke-width:1;stroke-linecap:butt;stroke-linejoin:round;stroke:rgb(0%,0%,0%);stroke-opacity:1;stroke-miterlimit:10;" d="M 94.4375 107.988281 C 94.4375 93.589844 70.4375 93.589844 70.4375 107.988281 C 70.4375 122.386719 94.4375 124.789062 94.4375 136.789062 C 94.4375 124.789062 118.4375 122.386719 118.4375 107.988281 C 118.4375 93.589844 94.4375 93.589844 94.4375 107.988281 "/>
<path style="fill-rule:nonzero;fill:rgb(100%,100%,0%);fill-opacity:1;stroke-width:1;stroke-linecap:butt;stroke-linejoin:round;stroke:rgb(0%,0%,0%);stroke-opacity:1;stroke-miterlimit:10;" d="M 165.28125 173.398438 C 165.28125 159 141.28125 159 141.28125 173.398438 C 141.28125 187.800781 165.28125 190.199219 165.28125 202.199219 C 165.28125 190.199219 189.28125 187.800781 189.28125 173.398438 C 189.28125 159 165.28125 159 165.28125 173.398438 "/>
<path style="fill-rule:nonzero;fill:rgb(100%,100%,0%);fill-opacity:1;stroke-width:1;stroke-linecap:butt;stroke-linejoin:round;stroke:rgb(0%,0%,0%);stroke-opacity:1;stroke-miterlimit:10;" d="M 379.476562 120.636719 C 379.476562 106.238281 355.476562 106.238281 355.476562 120.636719 C 355.476562 135.039062 379.476562 137.4375 379.476562 149.4375 C 379.476562 137.4375 403.476562 135.039062 403.476562 120.636719 C 403.476562 106.238281 379.476562 106.238281 379.476562 120.636719 "/>
<path style="fill-rule:nonzero;fill:rgb(100%,100%,0%);fill-opacity:1;stroke-width:1;stroke-linecap:butt;stroke-linejoin:round;stroke:rgb(0%,0%,0%);stroke-opacity:1;stroke-miterlimit:10;" d="M 355.371094 184.171875 C 355.371094 169.769531 331.371094 169.769531 331.371094 184.171875 C 331.371094 198.570312 355.371094 200.972656 355.371094 212.972656 C 355.371094 200.972656 379.371094 198.570312 379.371094 184.171875 C 379.371094 169.769531 355.371094 169.769531 355.371094 184.171875 "/>
<path style="fill-rule:nonzero;fill:rgb(25%,88%,82%);fill-opacity:1;stroke-width:1;stroke-linecap:butt;stroke-linejoin:round;stroke:rgb(0%,0%,0%);stroke-opacity:1;stroke-miterlimit:10;" d="M 466.710938 171.335938 C 466.710938 156.9375 442.710938 156.9375 442.710938 171.335938 C 442.710938 185.738281 466.710938 188.136719 466.710938 200.136719 C 466.710938 188.136719 490.710938 185.738281 490.710938 171.335938 C 490.710938 156.9375 466.710938 156.9375 466.710938 171.335938 "/>
</g>
</svg>
