<?xml version="1.0" encoding="UTF-8"?>
<svg xmlns="http://www.w3.org/2000/svg" xmlns:xlink="http://www.w3.org/1999/xlink" width="517pt" height="517pt" viewBox="0 0 517 517" version="1.1">
<g id="surface4546">
<rect x="0" y="0" width="517" height="517" style="fill:rgb(90%,90%,90%);fill-opacity:1;stroke:none;"/>
<path style="fill:none;stroke-width:5;stroke-linecap:butt;stroke-linejoin:round;stroke:rgb(100%,0%,0%);stroke-opacity:1;stroke-miterlimit:10;" d="M 5 261 L 261 261 L 261 517 L 5 517 Z M 5 261 "/>
<path style="fill-rule:nonzero;fill:rgb(100%,100%,0%);fill-opacity:1;stroke-width:1;stroke-linecap:butt;stroke-linejoin:round;stroke:rgb(0%,0%,0%);stroke-opacity:1;stroke-miterlimit:10;" d="M 74.734375 421.273438 C 74.734375 406.871094 50.734375 406.871094 50.734375 421.273438 C 50.734375 435.671875 74.734375 438.070312 74.734375 450.070312 C 74.734375 438.070312 98.734375 435.671875 98.734375 421.273438 C 98.734375 406.871094 74.734375 406.871094 74.734375 421.273438 "/>
<path style="fill-rule:nonzero;fill:rgb(90%,65%,0%);fill-opacity:1;stroke-width:1;stroke-linecap:butt;stroke-linejoin:round;stroke:rgb(0%,0%,0%);stroke-opacity:1;stroke-miterlimit:10;" d="M 57.15625 158.90625 C 57.15625 144.503906 33.15625 144.503906 33.15625 158.90625 C 33.15625 173.304688 57.15625 175.703125 57.15625 187.703125 C 57.15625 175.703125 81.15625 173.304688 81.15625 158.90625 C 81.15625 144.503906 57.15625 144.503906 57.15625 158.90625 "/>
<path style="fill-rule:nonzero;fill:rgb(90%,65%,0%);fill-opacity:1;stroke-width:1;stroke-linecap:butt;stroke-linejoin:round;stroke:rgb(0%,0%,0%);stroke-opacity:1;stroke-miterlimit:10;" d="M 74.46875 49.941406 C 74.46875 35.542969 50.46875 35.542969 50.46875 49.941406 C 50.46875 64.34375 74.46875 66.742188 74.46875 78.742188 C 74.46875 66.742188 98.46875 64.34375 98.46875 49.941406 C 98.46875 35.542969 74.46875 35.542969 74.46875 49.941406 "/>
<path style="fill-rule:nonzero;fill:rgb(90%,65%,0%);fill-opacity:1;stroke-width:1;stroke-linecap:butt;stroke-linejoin:round;stroke:rgb(0%,0%,0%);stroke-opacity:1;stroke-miterlimit:10;" d="M 294.84375 434.144531 C 294.84375 419.746094 270.84375 419.746094 270.84375 434.144531 C 270.84375 448.542969 294.84375 450.945312 294.84375 462.945312 C 294.84375 450.945312 318.84375 448.542969 318.84375 434.144531 C 318.84375 419.746094 294.84375 419.746094 294.84375 434.144531 "/>
<path style="fill-rule:nonzero;fill:rgb(90%,65%,0%);fill-opacity:1;stroke-width:1;stroke-linecap:butt;stroke-linejoin:round;stroke:rgb(0%,0%,0%);stroke-opacity:1;stroke-miterlimit:10;" d="M 304.335938 340.660156 C 304.335938 326.257812 280.335938 326.257812 280.335938 340.660156 C 280.335938 355.058594 304.335938 357.457031 304.335938 369.457031 C 304.335938 357.457031 328.335938 355.058594 328.335938 340.660156 C 328.335938 326.257812 304.335938 326.257812 304.335938 340.660156 "/>
<path style="fill-rule:nonzero;fill:rgb(90%,65%,0%);fill-opacity:1;stroke-width:1;stroke-linecap:butt;stroke-linejoin:round;stroke:rgb(0%,0%,0%);stroke-opacity:1;stroke-miterlimit:10;" d="M 378.941406 373.332031 C 378.941406 358.933594 354.941406 358.933594 354.941406 373.332031 C 354.941406 387.734375 378.941406 390.132812 378.941406 402.132812 C 378.941406 390.132812 402.941406 387.734375 402.941406 373.332031 C 402.941406 358.933594 378.941406 358.933594 378.941406 373.332031 "/>
</g>
</svg>
