<?xml version="1.0" encoding="UTF-8"?>
<svg xmlns="http://www.w3.org/2000/svg" xmlns:xlink="http://www.w3.org/1999/xlink" width="517pt" height="517pt" viewBox="0 0 517 517" version="1.1">
<g id="surface4251">
<rect x="0" y="0" width="517" height="517" style="fill:rgb(90%,90%,90%);fill-opacity:1;stroke:none;"/>
<path style="fill:none;stroke-width:5;stroke-linecap:butt;stroke-linejoin:round;stroke:rgb(100%,0%,0%);stroke-opacity:1;stroke-miterlimit:10;" d="M 261 5 L 517 5 L 517 261 L 261 261 Z M 261 5 "/>
<path style="fill-rule:nonzero;fill:rgb(25%,88%,82%);fill-opacity:1;stroke-width:1;stroke-linecap:butt;stroke-linejoin:round;stroke:rgb(0%,0%,0%);stroke-opacity:1;stroke-miterlimit:10;" d="M 424.09375 184.074219 L 404.09375 184.074219 L 404.09375 194.074219 L 424.09375 194.074219 L 424.09375 214.074219 L 434.09375 214.074219 L 434.09375 194.074219 L 454.09375 194.074219 L 454.09375 184.074219 L 434.09375 184.074219 L 434.09375 164.074219 L 424.09375 164.074219 L 424.09375 184.074219 "/>
<path style="fill-rule:nonzero;fill:rgb(90%,65%,0%);fill-opacity:1;stroke-width:1;stroke-linecap:butt;stroke-linejoin:round;stroke:rgb(0%,0%,0%);stroke-opacity:1;stroke-miterlimit:10;" d="M 93.589844 96.269531 L 73.589844 96.269531 L 73.589844 106.269531 L 93.589844 106.269531 L 93.589844 126.269531 L 103.589844 126.269531 L 103.589844 106.269531 L 123.589844 106.269531 L 123.589844 96.269531 L 103.589844 96.269531 L 103.589844 76.269531 L 93.589844 76.269531 L 93.589844 96.269531 "/>
<path style="fill-rule:nonzero;fill:rgb(90%,65%,0%);fill-opacity:1;stroke-width:1;stroke-linecap:butt;stroke-linejoin:round;stroke:rgb(0%,0%,0%);stroke-opacity:1;stroke-miterlimit:10;" d="M 182.484375 457.832031 L 162.484375 457.832031 L 162.484375 467.832031 L 182.484375 467.832031 L 182.484375 487.832031 L 192.484375 487.832031 L 192.484375 467.832031 L 212.484375 467.832031 L 212.484375 457.832031 L 192.484375 457.832031 L 192.484375 437.832031 L 182.484375 437.832031 L 182.484375 457.832031 "/>
<path style="fill-rule:nonzero;fill:rgb(90%,65%,0%);fill-opacity:1;stroke-width:1;stroke-linecap:butt;stroke-linejoin:round;stroke:rgb(0%,0%,0%);stroke-opacity:1;stroke-miterlimit:10;" d="M 52.664062 421.414062 L 32.664062 421.414062 L 32.664062 431.414062 L 52.664062 431.414062 L 52.664062 451.414062 L 62.664062 451.414062 L 62.664062 431.414062 L 82.664062 431.414062 L 82.664062 421.414062 L 62.664062 421.414062 L 62.664062 401.414062 L 52.664062 401.414062 L 52.664062 421.414062 "/>
<path style="fill-rule:nonzero;fill:rgb(90%,65%,0%);fill-opacity:1;stroke-width:1;stroke-linecap:butt;stroke-linejoin:round;stroke:rgb(0%,0%,0%);stroke-opacity:1;stroke-miterlimit:10;" d="M 169.824219 321.84375 L 149.824219 321.84375 L 149.824219 331.84375 L 169.824219 331.84375 L 169.824219 351.84375 L 179.824219 351.84375 L 179.824219 331.84375 L 199.824219 331.84375 L 199.824219 321.84375 L 179.824219 321.84375 L 179.824219 301.84375 L 169.824219 301.84375 L 169.824219 321.84375 "/>
<path style="fill-rule:nonzero;fill:rgb(90%,65%,0%);fill-opacity:1;stroke-width:1;stroke-linecap:butt;stroke-linejoin:round;stroke:rgb(0%,0%,0%);stroke-opacity:1;stroke-miterlimit:10;" d="M 379.964844 371.75 L 359.964844 371.75 L 359.964844 381.75 L 379.964844 381.75 L 379.964844 401.75 L 389.964844 401.75 L 389.964844 381.75 L 409.964844 381.75 L 409.964844 371.75 L 389.964844 371.75 L 389.964844 351.75 L 379.964844 351.75 L 379.964844 371.75 "/>
</g>
</svg>
