<?xml version="1.0" encoding="UTF-8"?>
<svg xmlns="http://www.w3.org/2000/svg" xmlns:xlink="http://www.w3.org/1999/xlink" width="517pt" height="517pt" viewBox="0 0 517 517" version="1.1">
<g id="surface9206">
<rect x="0" y="0" width="517" height="517" style="fill:rgb(90%,90%,90%);fill-opacity:1;stroke:none;"/>
<path style="fill:none;stroke-width:5;stroke-linecap:butt;stroke-linejoin:round;stroke:rgb(100%,0%,0%);stroke-opacity:1;stroke-miterlimit:10;" d="M 261 261 L 517 261 L 517 517 L 261 517 Z M 261 261 "/>
<path style="fill-rule:nonzero;fill:rgb(50%,0%,50%);fill-opacity:1;stroke-width:1;stroke-linecap:butt;stroke-linejoin:round;stroke:rgb(0%,0%,0%);stroke-opacity:1;stroke-miterlimit:10;" d="M 428.023438 373.730469 L 408.023438 373.730469 L 408.023438 383.730469 L 428.023438 383.730469 L 428.023438 403.730469 L 438.023438 403.730469 L 438.023438 383.730469 L 458.023438 383.730469 L 458.023438 373.730469 L 438.023438 373.730469 L 438.023438 353.730469 L 428.023438 353.730469 L 428.023438 373.730469 "/>
<path style="fill-rule:nonzero;fill:rgb(67%,100%,18%);fill-opacity:1;stroke-width:1;stroke-linecap:butt;stroke-linejoin:round;stroke:rgb(0%,0%,0%);stroke-opacity:1;stroke-miterlimit:10;" d="M 186.203125 332.015625 L 166.203125 332.015625 L 166.203125 342.015625 L 186.203125 342.015625 L 186.203125 362.015625 L 196.203125 362.015625 L 196.203125 342.015625 L 216.203125 342.015625 L 216.203125 332.015625 L 196.203125 332.015625 L 196.203125 312.015625 L 186.203125 312.015625 L 186.203125 332.015625 "/>
<path style="fill-rule:nonzero;fill:rgb(67%,100%,18%);fill-opacity:1;stroke-width:1;stroke-linecap:butt;stroke-linejoin:round;stroke:rgb(0%,0%,0%);stroke-opacity:1;stroke-miterlimit:10;" d="M 72.882812 392.632812 L 52.882812 392.632812 L 52.882812 402.632812 L 72.882812 402.632812 L 72.882812 422.632812 L 82.882812 422.632812 L 82.882812 402.632812 L 102.882812 402.632812 L 102.882812 392.632812 L 82.882812 392.632812 L 82.882812 372.632812 L 72.882812 372.632812 L 72.882812 392.632812 "/>
<path style="fill-rule:nonzero;fill:rgb(67%,100%,18%);fill-opacity:1;stroke-width:1;stroke-linecap:butt;stroke-linejoin:round;stroke:rgb(0%,0%,0%);stroke-opacity:1;stroke-miterlimit:10;" d="M 106.597656 127.707031 L 86.597656 127.707031 L 86.597656 137.707031 L 106.597656 137.707031 L 106.597656 157.707031 L 116.597656 157.707031 L 116.597656 137.707031 L 136.597656 137.707031 L 136.597656 127.707031 L 116.597656 127.707031 L 116.597656 107.707031 L 106.597656 107.707031 L 106.597656 127.707031 "/>
<path style="fill-rule:nonzero;fill:rgb(67%,100%,18%);fill-opacity:1;stroke-width:1;stroke-linecap:butt;stroke-linejoin:round;stroke:rgb(0%,0%,0%);stroke-opacity:1;stroke-miterlimit:10;" d="M 79.113281 59.0625 L 59.113281 59.0625 L 59.113281 69.0625 L 79.113281 69.0625 L 79.113281 89.0625 L 89.113281 89.0625 L 89.113281 69.0625 L 109.113281 69.0625 L 109.113281 59.0625 L 89.113281 59.0625 L 89.113281 39.0625 L 79.113281 39.0625 L 79.113281 59.0625 "/>
</g>
</svg>
