<?xml version="1.0" encoding="UTF-8"?>
<svg xmlns="http://www.w3.org/2000/svg" xmlns:xlink="http://www.w3.org/1999/xlink" width="517pt" height="517pt" viewBox="0 0 517 517" version="1.1">
<g id="surface4606">
<rect x="0" y="0" width="517" height="517" style="fill:rgb(90%,90%,90%);fill-opacity:1;stroke:none;"/>
<path style="fill:none;stroke-width:5;stroke-linecap:butt;stroke-linejoin:round;stroke:rgb(100%,0%,0%);stroke-opacity:1;stroke-miterlimit:10;" d="M 5 261 L 261 261 L 261 517 L 5 517 Z M 5 261 "/>
<path style="fill-rule:nonzero;fill:rgb(53%,27%,7%);fill-opacity:1;stroke-width:1;stroke-linecap:butt;stroke-linejoin:round;stroke:rgb(0%,0%,0%);stroke-opacity:1;stroke-miterlimit:10;" d="M 41.792969 379.140625 C 41.792969 364.738281 17.792969 364.738281 17.792969 379.140625 C 17.792969 393.539062 41.792969 395.9375 41.792969 407.9375 C 41.792969 395.9375 65.792969 393.539062 65.792969 379.140625 C 65.792969 364.738281 41.792969 364.738281 41.792969 379.140625 "/>
<path style="fill-rule:nonzero;fill:rgb(100%,100%,0%);fill-opacity:1;stroke-width:1;stroke-linecap:butt;stroke-linejoin:round;stroke:rgb(0%,0%,0%);stroke-opacity:1;stroke-miterlimit:10;" d="M 382.179688 350.171875 C 382.179688 335.773438 358.179688 335.773438 358.179688 350.171875 C 358.179688 364.574219 382.179688 366.972656 382.179688 378.972656 C 382.179688 366.972656 406.179688 364.574219 406.179688 350.171875 C 406.179688 335.773438 382.179688 335.773438 382.179688 350.171875 "/>
<path style="fill-rule:nonzero;fill:rgb(53%,27%,7%);fill-opacity:1;stroke-width:1;stroke-linecap:butt;stroke-linejoin:round;stroke:rgb(0%,0%,0%);stroke-opacity:1;stroke-miterlimit:10;" d="M 410.011719 415.484375 C 410.011719 401.085938 386.011719 401.085938 386.011719 415.484375 C 386.011719 429.886719 410.011719 432.285156 410.011719 444.285156 C 410.011719 432.285156 434.011719 429.886719 434.011719 415.484375 C 434.011719 401.085938 410.011719 401.085938 410.011719 415.484375 "/>
<path style="fill-rule:nonzero;fill:rgb(53%,27%,7%);fill-opacity:1;stroke-width:1;stroke-linecap:butt;stroke-linejoin:round;stroke:rgb(0%,0%,0%);stroke-opacity:1;stroke-miterlimit:10;" d="M 150.890625 134.292969 C 150.890625 119.894531 126.890625 119.894531 126.890625 134.292969 C 126.890625 148.695312 150.890625 151.09375 150.890625 163.09375 C 150.890625 151.09375 174.890625 148.695312 174.890625 134.292969 C 174.890625 119.894531 150.890625 119.894531 150.890625 134.292969 "/>
<path style="fill-rule:nonzero;fill:rgb(53%,27%,7%);fill-opacity:1;stroke-width:1;stroke-linecap:butt;stroke-linejoin:round;stroke:rgb(0%,0%,0%);stroke-opacity:1;stroke-miterlimit:10;" d="M 198.261719 31.464844 C 198.261719 17.066406 174.261719 17.066406 174.261719 31.464844 C 174.261719 45.863281 198.261719 48.265625 198.261719 60.265625 C 198.261719 48.265625 222.261719 45.863281 222.261719 31.464844 C 222.261719 17.066406 198.261719 17.066406 198.261719 31.464844 "/>
<path style="fill-rule:nonzero;fill:rgb(53%,27%,7%);fill-opacity:1;stroke-width:1;stroke-linecap:butt;stroke-linejoin:round;stroke:rgb(0%,0%,0%);stroke-opacity:1;stroke-miterlimit:10;" d="M 79.710938 135.871094 C 79.710938 121.46875 55.710938 121.46875 55.710938 135.871094 C 55.710938 150.269531 79.710938 152.671875 79.710938 164.671875 C 79.710938 152.671875 103.710938 150.269531 103.710938 135.871094 C 103.710938 121.46875 79.710938 121.46875 79.710938 135.871094 "/>
</g>
</svg>
