<?xml version="1.0" encoding="UTF-8"?>
<svg xmlns="http://www.w3.org/2000/svg" xmlns:xlink="http://www.w3.org/1999/xlink" width="517pt" height="517pt" viewBox="0 0 517 517" version="1.1">
<g id="surface9216">
<rect x="0" y="0" width="517" height="517" style="fill:rgb(90%,90%,90%);fill-opacity:1;stroke:none;"/>
<path style="fill:none;stroke-width:5;stroke-linecap:butt;stroke-linejoin:round;stroke:rgb(100%,0%,0%);stroke-opacity:1;stroke-miterlimit:10;" d="M 261 261 L 517 261 L 517 517 L 261 517 Z M 261 261 "/>
<path style="fill-rule:nonzero;fill:rgb(50%,0%,50%);fill-opacity:1;stroke-width:1;stroke-linecap:butt;stroke-linejoin:round;stroke:rgb(0%,0%,0%);stroke-opacity:1;stroke-miterlimit:10;" d="M 383.925781 310.851562 L 363.925781 310.851562 L 363.925781 320.851562 L 383.925781 320.851562 L 383.925781 340.851562 L 393.925781 340.851562 L 393.925781 320.851562 L 413.925781 320.851562 L 413.925781 310.851562 L 393.925781 310.851562 L 393.925781 290.851562 L 383.925781 290.851562 L 383.925781 310.851562 "/>
<path style="fill-rule:nonzero;fill:rgb(50%,0%,50%);fill-opacity:1;stroke-width:1;stroke-linecap:butt;stroke-linejoin:round;stroke:rgb(0%,0%,0%);stroke-opacity:1;stroke-miterlimit:10;" d="M 141.847656 294.066406 L 121.847656 294.066406 L 121.847656 304.066406 L 141.847656 304.066406 L 141.847656 324.066406 L 151.847656 324.066406 L 151.847656 304.066406 L 171.847656 304.066406 L 171.847656 294.066406 L 151.847656 294.066406 L 151.847656 274.066406 L 141.847656 274.066406 L 141.847656 294.066406 "/>
<path style="fill-rule:nonzero;fill:rgb(50%,0%,50%);fill-opacity:1;stroke-width:1;stroke-linecap:butt;stroke-linejoin:round;stroke:rgb(0%,0%,0%);stroke-opacity:1;stroke-miterlimit:10;" d="M 111.40625 122.988281 L 91.40625 122.988281 L 91.40625 132.988281 L 111.40625 132.988281 L 111.40625 152.988281 L 121.40625 152.988281 L 121.40625 132.988281 L 141.40625 132.988281 L 141.40625 122.988281 L 121.40625 122.988281 L 121.40625 102.988281 L 111.40625 102.988281 L 111.40625 122.988281 "/>
<path style="fill-rule:nonzero;fill:rgb(50%,0%,50%);fill-opacity:1;stroke-width:1;stroke-linecap:butt;stroke-linejoin:round;stroke:rgb(0%,0%,0%);stroke-opacity:1;stroke-miterlimit:10;" d="M 214.828125 58.960938 L 194.828125 58.960938 L 194.828125 68.960938 L 214.828125 68.960938 L 214.828125 88.960938 L 224.828125 88.960938 L 224.828125 68.960938 L 244.828125 68.960938 L 244.828125 58.960938 L 224.828125 58.960938 L 224.828125 38.960938 L 214.828125 38.960938 L 214.828125 58.960938 "/>
<path style="fill-rule:nonzero;fill:rgb(50%,0%,50%);fill-opacity:1;stroke-width:1;stroke-linecap:butt;stroke-linejoin:round;stroke:rgb(0%,0%,0%);stroke-opacity:1;stroke-miterlimit:10;" d="M 52.640625 164.089844 L 32.640625 164.089844 L 32.640625 174.089844 L 52.640625 174.089844 L 52.640625 194.089844 L 62.640625 194.089844 L 62.640625 174.089844 L 82.640625 174.089844 L 82.640625 164.089844 L 62.640625 164.089844 L 62.640625 144.089844 L 52.640625 144.089844 L 52.640625 164.089844 "/>
<path style="fill-rule:nonzero;fill:rgb(50%,0%,50%);fill-opacity:1;stroke-width:1;stroke-linecap:butt;stroke-linejoin:round;stroke:rgb(0%,0%,0%);stroke-opacity:1;stroke-miterlimit:10;" d="M 33.816406 78.519531 L 13.816406 78.519531 L 13.816406 88.519531 L 33.816406 88.519531 L 33.816406 108.519531 L 43.816406 108.519531 L 43.816406 88.519531 L 63.816406 88.519531 L 63.816406 78.519531 L 43.816406 78.519531 L 43.816406 58.519531 L 33.816406 58.519531 L 33.816406 78.519531 "/>
</g>
</svg>
