<?xml version="1.0" encoding="UTF-8"?>
<svg xmlns="http://www.w3.org/2000/svg" xmlns:xlink="http://www.w3.org/1999/xlink" width="517pt" height="517pt" viewBox="0 0 517 517" version="1.1">
<g id="surface4561">
<rect x="0" y="0" width="517" height="517" style="fill:rgb(90%,90%,90%);fill-opacity:1;stroke:none;"/>
<path style="fill:none;stroke-width:5;stroke-linecap:butt;stroke-linejoin:round;stroke:rgb(100%,0%,0%);stroke-opacity:1;stroke-miterlimit:10;" d="M 5 261 L 261 261 L 261 517 L 5 517 Z M 5 261 "/>
<path style="fill-rule:nonzero;fill:rgb(53%,27%,7%);fill-opacity:1;stroke-width:1;stroke-linecap:butt;stroke-linejoin:round;stroke:rgb(0%,0%,0%);stroke-opacity:1;stroke-miterlimit:10;" d="M 101.707031 423.273438 C 101.707031 408.871094 77.707031 408.871094 77.707031 423.273438 C 77.707031 437.671875 101.707031 440.070312 101.707031 452.070312 C 101.707031 440.070312 125.707031 437.671875 125.707031 423.273438 C 125.707031 408.871094 101.707031 408.871094 101.707031 423.273438 "/>
<path style="fill-rule:nonzero;fill:rgb(100%,100%,0%);fill-opacity:1;stroke-width:1;stroke-linecap:butt;stroke-linejoin:round;stroke:rgb(0%,0%,0%);stroke-opacity:1;stroke-miterlimit:10;" d="M 114.011719 51.6875 C 114.011719 37.285156 90.011719 37.285156 90.011719 51.6875 C 90.011719 66.085938 114.011719 68.488281 114.011719 80.488281 C 114.011719 68.488281 138.011719 66.085938 138.011719 51.6875 C 138.011719 37.285156 114.011719 37.285156 114.011719 51.6875 "/>
<path style="fill-rule:nonzero;fill:rgb(100%,100%,0%);fill-opacity:1;stroke-width:1;stroke-linecap:butt;stroke-linejoin:round;stroke:rgb(0%,0%,0%);stroke-opacity:1;stroke-miterlimit:10;" d="M 69.117188 173.019531 C 69.117188 158.617188 45.117188 158.617188 45.117188 173.019531 C 45.117188 187.417969 69.117188 189.820312 69.117188 201.820312 C 69.117188 189.820312 93.117188 187.417969 93.117188 173.019531 C 93.117188 158.617188 69.117188 158.617188 69.117188 173.019531 "/>
<path style="fill-rule:nonzero;fill:rgb(100%,100%,0%);fill-opacity:1;stroke-width:1;stroke-linecap:butt;stroke-linejoin:round;stroke:rgb(0%,0%,0%);stroke-opacity:1;stroke-miterlimit:10;" d="M 305.070312 167.453125 C 305.070312 153.054688 281.070312 153.054688 281.070312 167.453125 C 281.070312 181.851562 305.070312 184.253906 305.070312 196.253906 C 305.070312 184.253906 329.070312 181.851562 329.070312 167.453125 C 329.070312 153.054688 305.070312 153.054688 305.070312 167.453125 "/>
<path style="fill-rule:nonzero;fill:rgb(100%,100%,0%);fill-opacity:1;stroke-width:1;stroke-linecap:butt;stroke-linejoin:round;stroke:rgb(0%,0%,0%);stroke-opacity:1;stroke-miterlimit:10;" d="M 371.53125 136.558594 C 371.53125 122.160156 347.53125 122.160156 347.53125 136.558594 C 347.53125 150.960938 371.53125 153.359375 371.53125 165.359375 C 371.53125 153.359375 395.53125 150.960938 395.53125 136.558594 C 395.53125 122.160156 371.53125 122.160156 371.53125 136.558594 "/>
<path style="fill-rule:nonzero;fill:rgb(100%,100%,0%);fill-opacity:1;stroke-width:1;stroke-linecap:butt;stroke-linejoin:round;stroke:rgb(0%,0%,0%);stroke-opacity:1;stroke-miterlimit:10;" d="M 359.164062 437.535156 C 359.164062 423.136719 335.164062 423.136719 335.164062 437.535156 C 335.164062 451.9375 359.164062 454.335938 359.164062 466.335938 C 359.164062 454.335938 383.164062 451.9375 383.164062 437.535156 C 383.164062 423.136719 359.164062 423.136719 359.164062 437.535156 "/>
</g>
</svg>
