<?xml version="1.0" encoding="UTF-8"?>
<svg xmlns="http://www.w3.org/2000/svg" xmlns:xlink="http://www.w3.org/1999/xlink" width="517pt" height="517pt" viewBox="0 0 517 517" version="1.1">
<g id="surface9576">
<rect x="0" y="0" width="517" height="517" style="fill:rgb(90%,90%,90%);fill-opacity:1;stroke:none;"/>
<path style="fill:none;stroke-width:5;stroke-linecap:butt;stroke-linejoin:round;stroke:rgb(100%,0%,0%);stroke-opacity:1;stroke-miterlimit:10;" d="M 261 261 L 517 261 L 517 517 L 261 517 Z M 261 261 "/>
<path style="fill-rule:nonzero;fill:rgb(100%,100%,0%);fill-opacity:1;stroke-width:1;stroke-linecap:butt;stroke-linejoin:round;stroke:rgb(0%,0%,0%);stroke-opacity:1;stroke-miterlimit:10;" d="M 448.382812 431.992188 L 428.382812 431.992188 L 428.382812 441.992188 L 448.382812 441.992188 L 448.382812 461.992188 L 458.382812 461.992188 L 458.382812 441.992188 L 478.382812 441.992188 L 478.382812 431.992188 L 458.382812 431.992188 L 458.382812 411.992188 L 448.382812 411.992188 L 448.382812 431.992188 "/>
<path style="fill-rule:nonzero;fill:rgb(90%,65%,0%);fill-opacity:1;stroke-width:1;stroke-linecap:butt;stroke-linejoin:round;stroke:rgb(0%,0%,0%);stroke-opacity:1;stroke-miterlimit:10;" d="M 408.277344 39.871094 L 388.277344 39.871094 L 388.277344 49.871094 L 408.277344 49.871094 L 408.277344 69.871094 L 418.277344 69.871094 L 418.277344 49.871094 L 438.277344 49.871094 L 438.277344 39.871094 L 418.277344 39.871094 L 418.277344 19.871094 L 408.277344 19.871094 L 408.277344 39.871094 "/>
<path style="fill-rule:nonzero;fill:rgb(90%,65%,0%);fill-opacity:1;stroke-width:1;stroke-linecap:butt;stroke-linejoin:round;stroke:rgb(0%,0%,0%);stroke-opacity:1;stroke-miterlimit:10;" d="M 100.726562 89.164062 L 80.726562 89.164062 L 80.726562 99.164062 L 100.726562 99.164062 L 100.726562 119.164062 L 110.726562 119.164062 L 110.726562 99.164062 L 130.726562 99.164062 L 130.726562 89.164062 L 110.726562 89.164062 L 110.726562 69.164062 L 100.726562 69.164062 L 100.726562 89.164062 "/>
<path style="fill-rule:nonzero;fill:rgb(90%,65%,0%);fill-opacity:1;stroke-width:1;stroke-linecap:butt;stroke-linejoin:round;stroke:rgb(0%,0%,0%);stroke-opacity:1;stroke-miterlimit:10;" d="M 161.949219 291.125 L 141.949219 291.125 L 141.949219 301.125 L 161.949219 301.125 L 161.949219 321.125 L 171.949219 321.125 L 171.949219 301.125 L 191.949219 301.125 L 191.949219 291.125 L 171.949219 291.125 L 171.949219 271.125 L 161.949219 271.125 L 161.949219 291.125 "/>
<path style="fill-rule:nonzero;fill:rgb(90%,65%,0%);fill-opacity:1;stroke-width:1;stroke-linecap:butt;stroke-linejoin:round;stroke:rgb(0%,0%,0%);stroke-opacity:1;stroke-miterlimit:10;" d="M 55.570312 364.738281 L 35.570312 364.738281 L 35.570312 374.738281 L 55.570312 374.738281 L 55.570312 394.738281 L 65.570312 394.738281 L 65.570312 374.738281 L 85.570312 374.738281 L 85.570312 364.738281 L 65.570312 364.738281 L 65.570312 344.738281 L 55.570312 344.738281 L 55.570312 364.738281 "/>
</g>
</svg>
