<?xml version="1.0" encoding="UTF-8"?>
<svg xmlns="http://www.w3.org/2000/svg" xmlns:xlink="http://www.w3.org/1999/xlink" width="517pt" height="517pt" viewBox="0 0 517 517" version="1.1">
<g id="surface9176">
<rect x="0" y="0" width="517" height="517" style="fill:rgb(90%,90%,90%);fill-opacity:1;stroke:none;"/>
<path style="fill:none;stroke-width:5;stroke-linecap:butt;stroke-linejoin:round;stroke:rgb(100%,0%,0%);stroke-opacity:1;stroke-miterlimit:10;" d="M 261 5 L 517 5 L 517 261 L 261 261 Z M 261 5 "/>
<path style="fill-rule:nonzero;fill:rgb(90%,65%,0%);fill-opacity:1;stroke-width:1;stroke-linecap:butt;stroke-linejoin:round;stroke:rgb(0%,0%,0%);stroke-opacity:1;stroke-miterlimit:10;" d="M 431.117188 174.8125 L 411.117188 174.8125 L 411.117188 184.8125 L 431.117188 184.8125 L 431.117188 204.8125 L 441.117188 204.8125 L 441.117188 184.8125 L 461.117188 184.8125 L 461.117188 174.8125 L 441.117188 174.8125 L 441.117188 154.8125 L 431.117188 154.8125 L 431.117188 174.8125 "/>
<path style="fill-rule:nonzero;fill:rgb(100%,0%,0%);fill-opacity:1;stroke-width:1;stroke-linecap:butt;stroke-linejoin:round;stroke:rgb(0%,0%,0%);stroke-opacity:1;stroke-miterlimit:10;" d="M 396.378906 457.003906 L 376.378906 457.003906 L 376.378906 467.003906 L 396.378906 467.003906 L 396.378906 487.003906 L 406.378906 487.003906 L 406.378906 467.003906 L 426.378906 467.003906 L 426.378906 457.003906 L 406.378906 457.003906 L 406.378906 437.003906 L 396.378906 437.003906 L 396.378906 457.003906 "/>
<path style="fill-rule:nonzero;fill:rgb(100%,0%,0%);fill-opacity:1;stroke-width:1;stroke-linecap:butt;stroke-linejoin:round;stroke:rgb(0%,0%,0%);stroke-opacity:1;stroke-miterlimit:10;" d="M 169.363281 151.960938 L 149.363281 151.960938 L 149.363281 161.960938 L 169.363281 161.960938 L 169.363281 181.960938 L 179.363281 181.960938 L 179.363281 161.960938 L 199.363281 161.960938 L 199.363281 151.960938 L 179.363281 151.960938 L 179.363281 131.960938 L 169.363281 131.960938 L 169.363281 151.960938 "/>
<path style="fill-rule:nonzero;fill:rgb(100%,0%,0%);fill-opacity:1;stroke-width:1;stroke-linecap:butt;stroke-linejoin:round;stroke:rgb(0%,0%,0%);stroke-opacity:1;stroke-miterlimit:10;" d="M 88.253906 160.097656 L 68.253906 160.097656 L 68.253906 170.097656 L 88.253906 170.097656 L 88.253906 190.097656 L 98.253906 190.097656 L 98.253906 170.097656 L 118.253906 170.097656 L 118.253906 160.097656 L 98.253906 160.097656 L 98.253906 140.097656 L 88.253906 140.097656 L 88.253906 160.097656 "/>
<path style="fill-rule:nonzero;fill:rgb(100%,0%,0%);fill-opacity:1;stroke-width:1;stroke-linecap:butt;stroke-linejoin:round;stroke:rgb(0%,0%,0%);stroke-opacity:1;stroke-miterlimit:10;" d="M 175.828125 37.070312 L 155.828125 37.070312 L 155.828125 47.070312 L 175.828125 47.070312 L 175.828125 67.070312 L 185.828125 67.070312 L 185.828125 47.070312 L 205.828125 47.070312 L 205.828125 37.070312 L 185.828125 37.070312 L 185.828125 17.070312 L 175.828125 17.070312 L 175.828125 37.070312 "/>
</g>
</svg>
