<?xml version="1.0" encoding="UTF-8"?>
<svg xmlns="http://www.w3.org/2000/svg" xmlns:xlink="http://www.w3.org/1999/xlink" width="517pt" height="517pt" viewBox="0 0 517 517" version="1.1">
<g id="surface4636">
<rect x="0" y="0" width="517" height="517" style="fill:rgb(90%,90%,90%);fill-opacity:1;stroke:none;"/>
<path style="fill:none;stroke-width:5;stroke-linecap:butt;stroke-linejoin:round;stroke:rgb(100%,0%,0%);stroke-opacity:1;stroke-miterlimit:10;" d="M 5 261 L 261 261 L 261 517 L 5 517 Z M 5 261 "/>
<path style="fill-rule:nonzero;fill:rgb(100%,0%,0%);fill-opacity:1;stroke-width:1;stroke-linecap:butt;stroke-linejoin:round;stroke:rgb(0%,0%,0%);stroke-opacity:1;stroke-miterlimit:10;" d="M 182.894531 450.910156 C 182.894531 436.507812 158.894531 436.507812 158.894531 450.910156 C 158.894531 465.308594 182.894531 467.710938 182.894531 479.710938 C 182.894531 467.710938 206.894531 465.308594 206.894531 450.910156 C 206.894531 436.507812 182.894531 436.507812 182.894531 450.910156 "/>
<path style="fill-rule:nonzero;fill:rgb(100%,100%,0%);fill-opacity:1;stroke-width:1;stroke-linecap:butt;stroke-linejoin:round;stroke:rgb(0%,0%,0%);stroke-opacity:1;stroke-miterlimit:10;" d="M 352.679688 140.167969 C 352.679688 125.765625 328.679688 125.765625 328.679688 140.167969 C 328.679688 154.566406 352.679688 156.964844 352.679688 168.964844 C 352.679688 156.964844 376.679688 154.566406 376.679688 140.167969 C 376.679688 125.765625 352.679688 125.765625 352.679688 140.167969 "/>
<path style="fill-rule:nonzero;fill:rgb(100%,100%,0%);fill-opacity:1;stroke-width:1;stroke-linecap:butt;stroke-linejoin:round;stroke:rgb(0%,0%,0%);stroke-opacity:1;stroke-miterlimit:10;" d="M 449.351562 136.484375 C 449.351562 122.085938 425.351562 122.085938 425.351562 136.484375 C 425.351562 150.886719 449.351562 153.285156 449.351562 165.285156 C 449.351562 153.285156 473.351562 150.886719 473.351562 136.484375 C 473.351562 122.085938 449.351562 122.085938 449.351562 136.484375 "/>
<path style="fill-rule:nonzero;fill:rgb(100%,100%,0%);fill-opacity:1;stroke-width:1;stroke-linecap:butt;stroke-linejoin:round;stroke:rgb(0%,0%,0%);stroke-opacity:1;stroke-miterlimit:10;" d="M 300.738281 461.683594 C 300.738281 447.285156 276.738281 447.285156 276.738281 461.683594 C 276.738281 476.082031 300.738281 478.484375 300.738281 490.484375 C 300.738281 478.484375 324.738281 476.082031 324.738281 461.683594 C 324.738281 447.285156 300.738281 447.285156 300.738281 461.683594 "/>
<path style="fill-rule:nonzero;fill:rgb(100%,100%,0%);fill-opacity:1;stroke-width:1;stroke-linecap:butt;stroke-linejoin:round;stroke:rgb(0%,0%,0%);stroke-opacity:1;stroke-miterlimit:10;" d="M 41.449219 167.359375 C 41.449219 152.960938 17.449219 152.960938 17.449219 167.359375 C 17.449219 181.757812 41.449219 184.160156 41.449219 196.160156 C 41.449219 184.160156 65.449219 181.757812 65.449219 167.359375 C 65.449219 152.960938 41.449219 152.960938 41.449219 167.359375 "/>
<path style="fill-rule:nonzero;fill:rgb(53%,27%,7%);fill-opacity:1;stroke-width:1;stroke-linecap:butt;stroke-linejoin:round;stroke:rgb(0%,0%,0%);stroke-opacity:1;stroke-miterlimit:10;" d="M 134.046875 25.488281 C 134.046875 11.089844 110.046875 11.089844 110.046875 25.488281 C 110.046875 39.886719 134.046875 42.289062 134.046875 54.289062 C 134.046875 42.289062 158.046875 39.886719 158.046875 25.488281 C 158.046875 11.089844 134.046875 11.089844 134.046875 25.488281 "/>
</g>
</svg>
