<?xml version="1.0" encoding="UTF-8"?>
<svg xmlns="http://www.w3.org/2000/svg" xmlns:xlink="http://www.w3.org/1999/xlink" width="517pt" height="517pt" viewBox="0 0 517 517" version="1.1">
<g id="surface4571">
<rect x="0" y="0" width="517" height="517" style="fill:rgb(90%,90%,90%);fill-opacity:1;stroke:none;"/>
<path style="fill:none;stroke-width:5;stroke-linecap:butt;stroke-linejoin:round;stroke:rgb(100%,0%,0%);stroke-opacity:1;stroke-miterlimit:10;" d="M 5 261 L 261 261 L 261 517 L 5 517 Z M 5 261 "/>
<path style="fill-rule:nonzero;fill:rgb(53%,27%,7%);fill-opacity:1;stroke-width:1;stroke-linecap:butt;stroke-linejoin:round;stroke:rgb(0%,0%,0%);stroke-opacity:1;stroke-miterlimit:10;" d="M 35.292969 381.054688 C 35.292969 366.652344 11.292969 366.652344 11.292969 381.054688 C 11.292969 395.453125 35.292969 397.851562 35.292969 409.851562 C 35.292969 397.851562 59.292969 395.453125 59.292969 381.054688 C 59.292969 366.652344 35.292969 366.652344 35.292969 381.054688 "/>
<path style="fill-rule:nonzero;fill:rgb(100%,100%,0%);fill-opacity:1;stroke-width:1;stroke-linecap:butt;stroke-linejoin:round;stroke:rgb(0%,0%,0%);stroke-opacity:1;stroke-miterlimit:10;" d="M 115.667969 34.878906 C 115.667969 20.480469 91.667969 20.480469 91.667969 34.878906 C 91.667969 49.28125 115.667969 51.679688 115.667969 63.679688 C 115.667969 51.679688 139.667969 49.28125 139.667969 34.878906 C 139.667969 20.480469 115.667969 20.480469 115.667969 34.878906 "/>
<path style="fill-rule:nonzero;fill:rgb(100%,100%,0%);fill-opacity:1;stroke-width:1;stroke-linecap:butt;stroke-linejoin:round;stroke:rgb(0%,0%,0%);stroke-opacity:1;stroke-miterlimit:10;" d="M 193.550781 130.4375 C 193.550781 116.039062 169.550781 116.039062 169.550781 130.4375 C 169.550781 144.839844 193.550781 147.238281 193.550781 159.238281 C 193.550781 147.238281 217.550781 144.839844 217.550781 130.4375 C 217.550781 116.039062 193.550781 116.039062 193.550781 130.4375 "/>
<path style="fill-rule:nonzero;fill:rgb(100%,100%,0%);fill-opacity:1;stroke-width:1;stroke-linecap:butt;stroke-linejoin:round;stroke:rgb(0%,0%,0%);stroke-opacity:1;stroke-miterlimit:10;" d="M 443.054688 446.140625 C 443.054688 431.742188 419.054688 431.742188 419.054688 446.140625 C 419.054688 460.542969 443.054688 462.941406 443.054688 474.941406 C 443.054688 462.941406 467.054688 460.542969 467.054688 446.140625 C 467.054688 431.742188 443.054688 431.742188 443.054688 446.140625 "/>
<path style="fill-rule:nonzero;fill:rgb(100%,100%,0%);fill-opacity:1;stroke-width:1;stroke-linecap:butt;stroke-linejoin:round;stroke:rgb(0%,0%,0%);stroke-opacity:1;stroke-miterlimit:10;" d="M 328.324219 21.097656 C 328.324219 6.699219 304.324219 6.699219 304.324219 21.097656 C 304.324219 35.5 328.324219 37.898438 328.324219 49.898438 C 328.324219 37.898438 352.324219 35.5 352.324219 21.097656 C 352.324219 6.699219 328.324219 6.699219 328.324219 21.097656 "/>
<path style="fill-rule:nonzero;fill:rgb(100%,100%,0%);fill-opacity:1;stroke-width:1;stroke-linecap:butt;stroke-linejoin:round;stroke:rgb(0%,0%,0%);stroke-opacity:1;stroke-miterlimit:10;" d="M 358.808594 155.117188 C 358.808594 140.71875 334.808594 140.71875 334.808594 155.117188 C 334.808594 169.519531 358.808594 171.917969 358.808594 183.917969 C 358.808594 171.917969 382.808594 169.519531 382.808594 155.117188 C 382.808594 140.71875 358.808594 140.71875 358.808594 155.117188 "/>
</g>
</svg>
