<?xml version="1.0" encoding="UTF-8"?>
<svg xmlns="http://www.w3.org/2000/svg" xmlns:xlink="http://www.w3.org/1999/xlink" width="517pt" height="517pt" viewBox="0 0 517 517" version="1.1">
<g id="surface9426">
<rect x="0" y="0" width="517" height="517" style="fill:rgb(90%,90%,90%);fill-opacity:1;stroke:none;"/>
<path style="fill:none;stroke-width:5;stroke-linecap:butt;stroke-linejoin:round;stroke:rgb(100%,0%,0%);stroke-opacity:1;stroke-miterlimit:10;" d="M 5 261 L 261 261 L 261 517 L 5 517 Z M 5 261 "/>
<path style="fill-rule:nonzero;fill:rgb(100%,0%,0%);fill-opacity:1;stroke-width:1;stroke-linecap:butt;stroke-linejoin:round;stroke:rgb(0%,0%,0%);stroke-opacity:1;stroke-miterlimit:10;" d="M 178.851562 287.527344 L 158.851562 287.527344 L 158.851562 297.527344 L 178.851562 297.527344 L 178.851562 317.527344 L 188.851562 317.527344 L 188.851562 297.527344 L 208.851562 297.527344 L 208.851562 287.527344 L 188.851562 287.527344 L 188.851562 267.527344 L 178.851562 267.527344 L 178.851562 287.527344 "/>
<path style="fill-rule:nonzero;fill:rgb(100%,100%,0%);fill-opacity:1;stroke-width:1;stroke-linecap:butt;stroke-linejoin:round;stroke:rgb(0%,0%,0%);stroke-opacity:1;stroke-miterlimit:10;" d="M 375.121094 121.917969 L 355.121094 121.917969 L 355.121094 131.917969 L 375.121094 131.917969 L 375.121094 151.917969 L 385.121094 151.917969 L 385.121094 131.917969 L 405.121094 131.917969 L 405.121094 121.917969 L 385.121094 121.917969 L 385.121094 101.917969 L 375.121094 101.917969 L 375.121094 121.917969 "/>
<path style="fill-rule:nonzero;fill:rgb(100%,100%,0%);fill-opacity:1;stroke-width:1;stroke-linecap:butt;stroke-linejoin:round;stroke:rgb(0%,0%,0%);stroke-opacity:1;stroke-miterlimit:10;" d="M 294.773438 96.589844 L 274.773438 96.589844 L 274.773438 106.589844 L 294.773438 106.589844 L 294.773438 126.589844 L 304.773438 126.589844 L 304.773438 106.589844 L 324.773438 106.589844 L 324.773438 96.589844 L 304.773438 96.589844 L 304.773438 76.589844 L 294.773438 76.589844 L 294.773438 96.589844 "/>
<path style="fill-rule:nonzero;fill:rgb(100%,100%,0%);fill-opacity:1;stroke-width:1;stroke-linecap:butt;stroke-linejoin:round;stroke:rgb(0%,0%,0%);stroke-opacity:1;stroke-miterlimit:10;" d="M 143.914062 37.285156 L 123.914062 37.285156 L 123.914062 47.285156 L 143.914062 47.285156 L 143.914062 67.285156 L 153.914062 67.285156 L 153.914062 47.285156 L 173.914062 47.285156 L 173.914062 37.285156 L 153.914062 37.285156 L 153.914062 17.285156 L 143.914062 17.285156 L 143.914062 37.285156 "/>
<path style="fill-rule:nonzero;fill:rgb(100%,100%,0%);fill-opacity:1;stroke-width:1;stroke-linecap:butt;stroke-linejoin:round;stroke:rgb(0%,0%,0%);stroke-opacity:1;stroke-miterlimit:10;" d="M 93.882812 183.910156 L 73.882812 183.910156 L 73.882812 193.910156 L 93.882812 193.910156 L 93.882812 213.910156 L 103.882812 213.910156 L 103.882812 193.910156 L 123.882812 193.910156 L 123.882812 183.910156 L 103.882812 183.910156 L 103.882812 163.910156 L 93.882812 163.910156 L 93.882812 183.910156 "/>
<path style="fill-rule:nonzero;fill:rgb(100%,100%,0%);fill-opacity:1;stroke-width:1;stroke-linecap:butt;stroke-linejoin:round;stroke:rgb(0%,0%,0%);stroke-opacity:1;stroke-miterlimit:10;" d="M 51.601562 35.820312 L 31.601562 35.820312 L 31.601562 45.820312 L 51.601562 45.820312 L 51.601562 65.820312 L 61.601562 65.820312 L 61.601562 45.820312 L 81.601562 45.820312 L 81.601562 35.820312 L 61.601562 35.820312 L 61.601562 15.820312 L 51.601562 15.820312 L 51.601562 35.820312 "/>
</g>
</svg>
