<?xml version="1.0" encoding="UTF-8"?>
<svg xmlns="http://www.w3.org/2000/svg" xmlns:xlink="http://www.w3.org/1999/xlink" width="517pt" height="517pt" viewBox="0 0 517 517" version="1.1">
<g id="surface4211">
<rect x="0" y="0" width="517" height="517" style="fill:rgb(90%,90%,90%);fill-opacity:1;stroke:none;"/>
<path style="fill:none;stroke-width:5;stroke-linecap:butt;stroke-linejoin:round;stroke:rgb(100%,0%,0%);stroke-opacity:1;stroke-miterlimit:10;" d="M 261 5 L 517 5 L 517 261 L 261 261 Z M 261 5 "/>
<path style="fill-rule:nonzero;fill:rgb(35%,70%,90%);fill-opacity:1;stroke-width:1;stroke-linecap:butt;stroke-linejoin:round;stroke:rgb(0%,0%,0%);stroke-opacity:1;stroke-miterlimit:10;" d="M 400.261719 45.871094 C 400.261719 62.4375 386.832031 75.871094 370.261719 75.871094 C 353.695312 75.871094 340.261719 62.4375 340.261719 45.871094 C 340.261719 29.300781 353.695312 15.871094 370.261719 15.871094 C 386.832031 15.871094 400.261719 29.300781 400.261719 45.871094 "/>
<path style="fill-rule:nonzero;fill:rgb(100%,0%,0%);fill-opacity:1;stroke-width:1;stroke-linecap:butt;stroke-linejoin:round;stroke:rgb(0%,0%,0%);stroke-opacity:1;stroke-miterlimit:10;" d="M 103.097656 337.222656 C 103.097656 353.789062 89.664062 367.222656 73.097656 367.222656 C 56.527344 367.222656 43.097656 353.789062 43.097656 337.222656 C 43.097656 320.652344 56.527344 307.222656 73.097656 307.222656 C 89.664062 307.222656 103.097656 320.652344 103.097656 337.222656 "/>
<path style="fill-rule:nonzero;fill:rgb(35%,70%,90%);fill-opacity:1;stroke-width:1;stroke-linecap:butt;stroke-linejoin:round;stroke:rgb(0%,0%,0%);stroke-opacity:1;stroke-miterlimit:10;" d="M 417.195312 404.410156 C 417.195312 420.976562 403.765625 434.410156 387.195312 434.410156 C 370.625 434.410156 357.195312 420.976562 357.195312 404.410156 C 357.195312 387.839844 370.625 374.410156 387.195312 374.410156 C 403.765625 374.410156 417.195312 387.839844 417.195312 404.410156 "/>
<path style="fill-rule:nonzero;fill:rgb(35%,70%,90%);fill-opacity:1;stroke-width:1;stroke-linecap:butt;stroke-linejoin:round;stroke:rgb(0%,0%,0%);stroke-opacity:1;stroke-miterlimit:10;" d="M 340.777344 331.183594 C 340.777344 347.75 327.347656 361.183594 310.777344 361.183594 C 294.207031 361.183594 280.777344 347.75 280.777344 331.183594 C 280.777344 314.613281 294.207031 301.183594 310.777344 301.183594 C 327.347656 301.183594 340.777344 314.613281 340.777344 331.183594 "/>
<path style="fill-rule:nonzero;fill:rgb(35%,70%,90%);fill-opacity:1;stroke-width:1;stroke-linecap:butt;stroke-linejoin:round;stroke:rgb(0%,0%,0%);stroke-opacity:1;stroke-miterlimit:10;" d="M 352.542969 457.160156 C 352.542969 473.730469 339.109375 487.160156 322.542969 487.160156 C 305.972656 487.160156 292.542969 473.730469 292.542969 457.160156 C 292.542969 440.59375 305.972656 427.160156 322.542969 427.160156 C 339.109375 427.160156 352.542969 440.59375 352.542969 457.160156 "/>
<path style="fill-rule:nonzero;fill:rgb(35%,70%,90%);fill-opacity:1;stroke-width:1;stroke-linecap:butt;stroke-linejoin:round;stroke:rgb(0%,0%,0%);stroke-opacity:1;stroke-miterlimit:10;" d="M 470.277344 315.351562 C 470.277344 331.917969 456.84375 345.351562 440.277344 345.351562 C 423.707031 345.351562 410.277344 331.917969 410.277344 315.351562 C 410.277344 298.78125 423.707031 285.351562 440.277344 285.351562 C 456.84375 285.351562 470.277344 298.78125 470.277344 315.351562 "/>
</g>
</svg>
