<?xml version="1.0" encoding="UTF-8"?>
<svg xmlns="http://www.w3.org/2000/svg" xmlns:xlink="http://www.w3.org/1999/xlink" width="517pt" height="517pt" viewBox="0 0 517 517" version="1.1">
<g id="surface9286">
<rect x="0" y="0" width="517" height="517" style="fill:rgb(90%,90%,90%);fill-opacity:1;stroke:none;"/>
<path style="fill:none;stroke-width:5;stroke-linecap:butt;stroke-linejoin:round;stroke:rgb(100%,0%,0%);stroke-opacity:1;stroke-miterlimit:10;" d="M 5 5 L 261 5 L 261 261 L 5 261 Z M 5 5 "/>
<path style="fill-rule:nonzero;fill:rgb(90%,65%,0%);fill-opacity:1;stroke-width:1;stroke-linecap:butt;stroke-linejoin:round;stroke:rgb(0%,0%,0%);stroke-opacity:1;stroke-miterlimit:10;" d="M 101.808594 171.730469 L 81.808594 171.730469 L 81.808594 181.730469 L 101.808594 181.730469 L 101.808594 201.730469 L 111.808594 201.730469 L 111.808594 181.730469 L 131.808594 181.730469 L 131.808594 171.730469 L 111.808594 171.730469 L 111.808594 151.730469 L 101.808594 151.730469 L 101.808594 171.730469 "/>
<path style="fill-rule:nonzero;fill:rgb(35%,70%,90%);fill-opacity:1;stroke-width:1;stroke-linecap:butt;stroke-linejoin:round;stroke:rgb(0%,0%,0%);stroke-opacity:1;stroke-miterlimit:10;" d="M 338.101562 335.222656 L 318.101562 335.222656 L 318.101562 345.222656 L 338.101562 345.222656 L 338.101562 365.222656 L 348.101562 365.222656 L 348.101562 345.222656 L 368.101562 345.222656 L 368.101562 335.222656 L 348.101562 335.222656 L 348.101562 315.222656 L 338.101562 315.222656 L 338.101562 335.222656 "/>
<path style="fill-rule:nonzero;fill:rgb(35%,70%,90%);fill-opacity:1;stroke-width:1;stroke-linecap:butt;stroke-linejoin:round;stroke:rgb(0%,0%,0%);stroke-opacity:1;stroke-miterlimit:10;" d="M 398.90625 389.296875 L 378.90625 389.296875 L 378.90625 399.296875 L 398.90625 399.296875 L 398.90625 419.296875 L 408.90625 419.296875 L 408.90625 399.296875 L 428.90625 399.296875 L 428.90625 389.296875 L 408.90625 389.296875 L 408.90625 369.296875 L 398.90625 369.296875 L 398.90625 389.296875 "/>
<path style="fill-rule:nonzero;fill:rgb(35%,70%,90%);fill-opacity:1;stroke-width:1;stroke-linecap:butt;stroke-linejoin:round;stroke:rgb(0%,0%,0%);stroke-opacity:1;stroke-miterlimit:10;" d="M 381.390625 94.238281 L 361.390625 94.238281 L 361.390625 104.238281 L 381.390625 104.238281 L 381.390625 124.238281 L 391.390625 124.238281 L 391.390625 104.238281 L 411.390625 104.238281 L 411.390625 94.238281 L 391.390625 94.238281 L 391.390625 74.238281 L 381.390625 74.238281 L 381.390625 94.238281 "/>
<path style="fill-rule:nonzero;fill:rgb(35%,70%,90%);fill-opacity:1;stroke-width:1;stroke-linecap:butt;stroke-linejoin:round;stroke:rgb(0%,0%,0%);stroke-opacity:1;stroke-miterlimit:10;" d="M 308.289062 151.089844 L 288.289062 151.089844 L 288.289062 161.089844 L 308.289062 161.089844 L 308.289062 181.089844 L 318.289062 181.089844 L 318.289062 161.089844 L 338.289062 161.089844 L 338.289062 151.089844 L 318.289062 151.089844 L 318.289062 131.089844 L 308.289062 131.089844 L 308.289062 151.089844 "/>
</g>
</svg>
