<?xml version="1.0" encoding="UTF-8"?>
<svg xmlns="http://www.w3.org/2000/svg" xmlns:xlink="http://www.w3.org/1999/xlink" width="517pt" height="517pt" viewBox="0 0 517 517" version="1.1">
<g id="surface4686">
<rect x="0" y="0" width="517" height="517" style="fill:rgb(90%,90%,90%);fill-opacity:1;stroke:none;"/>
<path style="fill:none;stroke-width:5;stroke-linecap:butt;stroke-linejoin:round;stroke:rgb(100%,0%,0%);stroke-opacity:1;stroke-miterlimit:10;" d="M 5 261 L 261 261 L 261 517 L 5 517 Z M 5 261 "/>
<path style="fill-rule:nonzero;fill:rgb(25%,88%,82%);fill-opacity:1;stroke-width:1;stroke-linecap:butt;stroke-linejoin:round;stroke:rgb(0%,0%,0%);stroke-opacity:1;stroke-miterlimit:10;" d="M 175.101562 279.5625 C 175.101562 265.164062 151.101562 265.164062 151.101562 279.5625 C 151.101562 293.964844 175.101562 296.363281 175.101562 308.363281 C 175.101562 296.363281 199.101562 293.964844 199.101562 279.5625 C 199.101562 265.164062 175.101562 265.164062 175.101562 279.5625 "/>
<path style="fill-rule:nonzero;fill:rgb(100%,100%,0%);fill-opacity:1;stroke-width:1;stroke-linecap:butt;stroke-linejoin:round;stroke:rgb(0%,0%,0%);stroke-opacity:1;stroke-miterlimit:10;" d="M 113.320312 37.929688 C 113.320312 23.53125 89.320312 23.53125 89.320312 37.929688 C 89.320312 52.332031 113.320312 54.730469 113.320312 66.730469 C 113.320312 54.730469 137.320312 52.332031 137.320312 37.929688 C 137.320312 23.53125 113.320312 23.53125 113.320312 37.929688 "/>
<path style="fill-rule:nonzero;fill:rgb(25%,88%,82%);fill-opacity:1;stroke-width:1;stroke-linecap:butt;stroke-linejoin:round;stroke:rgb(0%,0%,0%);stroke-opacity:1;stroke-miterlimit:10;" d="M 218.625 147.324219 C 218.625 132.925781 194.625 132.925781 194.625 147.324219 C 194.625 161.726562 218.625 164.125 218.625 176.125 C 218.625 164.125 242.625 161.726562 242.625 147.324219 C 242.625 132.925781 218.625 132.925781 218.625 147.324219 "/>
<path style="fill-rule:nonzero;fill:rgb(25%,88%,82%);fill-opacity:1;stroke-width:1;stroke-linecap:butt;stroke-linejoin:round;stroke:rgb(0%,0%,0%);stroke-opacity:1;stroke-miterlimit:10;" d="M 380.335938 153.097656 C 380.335938 138.699219 356.335938 138.699219 356.335938 153.097656 C 356.335938 167.496094 380.335938 169.898438 380.335938 181.898438 C 380.335938 169.898438 404.335938 167.496094 404.335938 153.097656 C 404.335938 138.699219 380.335938 138.699219 380.335938 153.097656 "/>
<path style="fill-rule:nonzero;fill:rgb(25%,88%,82%);fill-opacity:1;stroke-width:1;stroke-linecap:butt;stroke-linejoin:round;stroke:rgb(0%,0%,0%);stroke-opacity:1;stroke-miterlimit:10;" d="M 435.890625 191.433594 C 435.890625 177.035156 411.890625 177.035156 411.890625 191.433594 C 411.890625 205.835938 435.890625 208.234375 435.890625 220.234375 C 435.890625 208.234375 459.890625 205.835938 459.890625 191.433594 C 459.890625 177.035156 435.890625 177.035156 435.890625 191.433594 "/>
<path style="fill-rule:nonzero;fill:rgb(25%,88%,82%);fill-opacity:1;stroke-width:1;stroke-linecap:butt;stroke-linejoin:round;stroke:rgb(0%,0%,0%);stroke-opacity:1;stroke-miterlimit:10;" d="M 304.195312 373.867188 C 304.195312 359.46875 280.195312 359.46875 280.195312 373.867188 C 280.195312 388.265625 304.195312 390.667969 304.195312 402.667969 C 304.195312 390.667969 328.195312 388.265625 328.195312 373.867188 C 328.195312 359.46875 304.195312 359.46875 304.195312 373.867188 "/>
</g>
</svg>
