<?xml version="1.0" encoding="UTF-8"?>
<svg xmlns="http://www.w3.org/2000/svg" xmlns:xlink="http://www.w3.org/1999/xlink" width="517pt" height="517pt" viewBox="0 0 517 517" version="1.1">
<g id="surface4256">
<rect x="0" y="0" width="517" height="517" style="fill:rgb(90%,90%,90%);fill-opacity:1;stroke:none;"/>
<path style="fill:none;stroke-width:5;stroke-linecap:butt;stroke-linejoin:round;stroke:rgb(100%,0%,0%);stroke-opacity:1;stroke-miterlimit:10;" d="M 261 5 L 517 5 L 517 261 L 261 261 Z M 261 5 "/>
<path style="fill-rule:nonzero;fill:rgb(25%,88%,82%);fill-opacity:1;stroke-width:1;stroke-linecap:butt;stroke-linejoin:round;stroke:rgb(0%,0%,0%);stroke-opacity:1;stroke-miterlimit:10;" d="M 328.011719 159.636719 L 308.011719 159.636719 L 308.011719 169.636719 L 328.011719 169.636719 L 328.011719 189.636719 L 338.011719 189.636719 L 338.011719 169.636719 L 358.011719 169.636719 L 358.011719 159.636719 L 338.011719 159.636719 L 338.011719 139.636719 L 328.011719 139.636719 L 328.011719 159.636719 "/>
<path style="fill-rule:nonzero;fill:rgb(90%,65%,0%);fill-opacity:1;stroke-width:1;stroke-linecap:butt;stroke-linejoin:round;stroke:rgb(0%,0%,0%);stroke-opacity:1;stroke-miterlimit:10;" d="M 186.277344 380.269531 L 166.277344 380.269531 L 166.277344 390.269531 L 186.277344 390.269531 L 186.277344 410.269531 L 196.277344 410.269531 L 196.277344 390.269531 L 216.277344 390.269531 L 216.277344 380.269531 L 196.277344 380.269531 L 196.277344 360.269531 L 186.277344 360.269531 L 186.277344 380.269531 "/>
<path style="fill-rule:nonzero;fill:rgb(90%,65%,0%);fill-opacity:1;stroke-width:1;stroke-linecap:butt;stroke-linejoin:round;stroke:rgb(0%,0%,0%);stroke-opacity:1;stroke-miterlimit:10;" d="M 116.683594 201.996094 L 96.683594 201.996094 L 96.683594 211.996094 L 116.683594 211.996094 L 116.683594 231.996094 L 126.683594 231.996094 L 126.683594 211.996094 L 146.683594 211.996094 L 146.683594 201.996094 L 126.683594 201.996094 L 126.683594 181.996094 L 116.683594 181.996094 L 116.683594 201.996094 "/>
<path style="fill-rule:nonzero;fill:rgb(90%,65%,0%);fill-opacity:1;stroke-width:1;stroke-linecap:butt;stroke-linejoin:round;stroke:rgb(0%,0%,0%);stroke-opacity:1;stroke-miterlimit:10;" d="M 65.265625 127.542969 L 45.265625 127.542969 L 45.265625 137.542969 L 65.265625 137.542969 L 65.265625 157.542969 L 75.265625 157.542969 L 75.265625 137.542969 L 95.265625 137.542969 L 95.265625 127.542969 L 75.265625 127.542969 L 75.265625 107.542969 L 65.265625 107.542969 L 65.265625 127.542969 "/>
<path style="fill-rule:nonzero;fill:rgb(90%,65%,0%);fill-opacity:1;stroke-width:1;stroke-linecap:butt;stroke-linejoin:round;stroke:rgb(0%,0%,0%);stroke-opacity:1;stroke-miterlimit:10;" d="M 417.351562 302.453125 L 397.351562 302.453125 L 397.351562 312.453125 L 417.351562 312.453125 L 417.351562 332.453125 L 427.351562 332.453125 L 427.351562 312.453125 L 447.351562 312.453125 L 447.351562 302.453125 L 427.351562 302.453125 L 427.351562 282.453125 L 417.351562 282.453125 L 417.351562 302.453125 "/>
<path style="fill-rule:nonzero;fill:rgb(90%,65%,0%);fill-opacity:1;stroke-width:1;stroke-linecap:butt;stroke-linejoin:round;stroke:rgb(0%,0%,0%);stroke-opacity:1;stroke-miterlimit:10;" d="M 319.097656 373.273438 L 299.097656 373.273438 L 299.097656 383.273438 L 319.097656 383.273438 L 319.097656 403.273438 L 329.097656 403.273438 L 329.097656 383.273438 L 349.097656 383.273438 L 349.097656 373.273438 L 329.097656 373.273438 L 329.097656 353.273438 L 319.097656 353.273438 L 319.097656 373.273438 "/>
</g>
</svg>
