<?xml version="1.0" encoding="UTF-8"?>
<svg xmlns="http://www.w3.org/2000/svg" xmlns:xlink="http://www.w3.org/1999/xlink" width="517pt" height="517pt" viewBox="0 0 517 517" version="1.1">
<g id="surface4261">
<rect x="0" y="0" width="517" height="517" style="fill:rgb(90%,90%,90%);fill-opacity:1;stroke:none;"/>
<path style="fill:none;stroke-width:5;stroke-linecap:butt;stroke-linejoin:round;stroke:rgb(100%,0%,0%);stroke-opacity:1;stroke-miterlimit:10;" d="M 261 5 L 517 5 L 517 261 L 261 261 Z M 261 5 "/>
<path style="fill-rule:nonzero;fill:rgb(25%,88%,82%);fill-opacity:1;stroke-width:1;stroke-linecap:butt;stroke-linejoin:round;stroke:rgb(0%,0%,0%);stroke-opacity:1;stroke-miterlimit:10;" d="M 370.996094 124.40625 L 350.996094 124.40625 L 350.996094 134.40625 L 370.996094 134.40625 L 370.996094 154.40625 L 380.996094 154.40625 L 380.996094 134.40625 L 400.996094 134.40625 L 400.996094 124.40625 L 380.996094 124.40625 L 380.996094 104.40625 L 370.996094 104.40625 L 370.996094 124.40625 "/>
<path style="fill-rule:nonzero;fill:rgb(90%,65%,0%);fill-opacity:1;stroke-width:1;stroke-linecap:butt;stroke-linejoin:round;stroke:rgb(0%,0%,0%);stroke-opacity:1;stroke-miterlimit:10;" d="M 50.394531 131.953125 L 30.394531 131.953125 L 30.394531 141.953125 L 50.394531 141.953125 L 50.394531 161.953125 L 60.394531 161.953125 L 60.394531 141.953125 L 80.394531 141.953125 L 80.394531 131.953125 L 60.394531 131.953125 L 60.394531 111.953125 L 50.394531 111.953125 L 50.394531 131.953125 "/>
<path style="fill-rule:nonzero;fill:rgb(90%,65%,0%);fill-opacity:1;stroke-width:1;stroke-linecap:butt;stroke-linejoin:round;stroke:rgb(0%,0%,0%);stroke-opacity:1;stroke-miterlimit:10;" d="M 188.269531 178.136719 L 168.269531 178.136719 L 168.269531 188.136719 L 188.269531 188.136719 L 188.269531 208.136719 L 198.269531 208.136719 L 198.269531 188.136719 L 218.269531 188.136719 L 218.269531 178.136719 L 198.269531 178.136719 L 198.269531 158.136719 L 188.269531 158.136719 L 188.269531 178.136719 "/>
<path style="fill-rule:nonzero;fill:rgb(90%,65%,0%);fill-opacity:1;stroke-width:1;stroke-linecap:butt;stroke-linejoin:round;stroke:rgb(0%,0%,0%);stroke-opacity:1;stroke-miterlimit:10;" d="M 393.976562 413.96875 L 373.976562 413.96875 L 373.976562 423.96875 L 393.976562 423.96875 L 393.976562 443.96875 L 403.976562 443.96875 L 403.976562 423.96875 L 423.976562 423.96875 L 423.976562 413.96875 L 403.976562 413.96875 L 403.976562 393.96875 L 393.976562 393.96875 L 393.976562 413.96875 "/>
<path style="fill-rule:nonzero;fill:rgb(90%,65%,0%);fill-opacity:1;stroke-width:1;stroke-linecap:butt;stroke-linejoin:round;stroke:rgb(0%,0%,0%);stroke-opacity:1;stroke-miterlimit:10;" d="M 310.496094 389.726562 L 290.496094 389.726562 L 290.496094 399.726562 L 310.496094 399.726562 L 310.496094 419.726562 L 320.496094 419.726562 L 320.496094 399.726562 L 340.496094 399.726562 L 340.496094 389.726562 L 320.496094 389.726562 L 320.496094 369.726562 L 310.496094 369.726562 L 310.496094 389.726562 "/>
<path style="fill-rule:nonzero;fill:rgb(25%,88%,82%);fill-opacity:1;stroke-width:1;stroke-linecap:butt;stroke-linejoin:round;stroke:rgb(0%,0%,0%);stroke-opacity:1;stroke-miterlimit:10;" d="M 350.398438 301.4375 L 330.398438 301.4375 L 330.398438 311.4375 L 350.398438 311.4375 L 350.398438 331.4375 L 360.398438 331.4375 L 360.398438 311.4375 L 380.398438 311.4375 L 380.398438 301.4375 L 360.398438 301.4375 L 360.398438 281.4375 L 350.398438 281.4375 L 350.398438 301.4375 "/>
</g>
</svg>
