<?xml version="1.0" encoding="UTF-8"?>
<svg xmlns="http://www.w3.org/2000/svg" xmlns:xlink="http://www.w3.org/1999/xlink" width="517pt" height="517pt" viewBox="0 0 517 517" version="1.1">
<g id="surface4506">
<rect x="0" y="0" width="517" height="517" style="fill:rgb(90%,90%,90%);fill-opacity:1;stroke:none;"/>
<path style="fill:none;stroke-width:5;stroke-linecap:butt;stroke-linejoin:round;stroke:rgb(100%,0%,0%);stroke-opacity:1;stroke-miterlimit:10;" d="M 5 261 L 261 261 L 261 517 L 5 517 Z M 5 261 "/>
<path style="fill-rule:nonzero;fill:rgb(50%,0%,50%);fill-opacity:1;stroke-width:1;stroke-linecap:butt;stroke-linejoin:round;stroke:rgb(0%,0%,0%);stroke-opacity:1;stroke-miterlimit:10;" d="M 93.023438 298.695312 C 93.023438 284.292969 69.023438 284.292969 69.023438 298.695312 C 69.023438 313.09375 93.023438 315.496094 93.023438 327.496094 C 93.023438 315.496094 117.023438 313.09375 117.023438 298.695312 C 117.023438 284.292969 93.023438 284.292969 93.023438 298.695312 "/>
<path style="fill-rule:nonzero;fill:rgb(90%,65%,0%);fill-opacity:1;stroke-width:1;stroke-linecap:butt;stroke-linejoin:round;stroke:rgb(0%,0%,0%);stroke-opacity:1;stroke-miterlimit:10;" d="M 454.082031 199.898438 C 454.082031 185.5 430.082031 185.5 430.082031 199.898438 C 430.082031 214.300781 454.082031 216.699219 454.082031 228.699219 C 454.082031 216.699219 478.082031 214.300781 478.082031 199.898438 C 478.082031 185.5 454.082031 185.5 454.082031 199.898438 "/>
<path style="fill-rule:nonzero;fill:rgb(90%,65%,0%);fill-opacity:1;stroke-width:1;stroke-linecap:butt;stroke-linejoin:round;stroke:rgb(0%,0%,0%);stroke-opacity:1;stroke-miterlimit:10;" d="M 398.105469 171.613281 C 398.105469 157.210938 374.105469 157.210938 374.105469 171.613281 C 374.105469 186.011719 398.105469 188.414062 398.105469 200.414062 C 398.105469 188.414062 422.105469 186.011719 422.105469 171.613281 C 422.105469 157.210938 398.105469 157.210938 398.105469 171.613281 "/>
<path style="fill-rule:nonzero;fill:rgb(90%,65%,0%);fill-opacity:1;stroke-width:1;stroke-linecap:butt;stroke-linejoin:round;stroke:rgb(0%,0%,0%);stroke-opacity:1;stroke-miterlimit:10;" d="M 59.40625 202.113281 C 59.40625 187.714844 35.40625 187.714844 35.40625 202.113281 C 35.40625 216.511719 59.40625 218.914062 59.40625 230.914062 C 59.40625 218.914062 83.40625 216.511719 83.40625 202.113281 C 83.40625 187.714844 59.40625 187.714844 59.40625 202.113281 "/>
<path style="fill-rule:nonzero;fill:rgb(90%,65%,0%);fill-opacity:1;stroke-width:1;stroke-linecap:butt;stroke-linejoin:round;stroke:rgb(0%,0%,0%);stroke-opacity:1;stroke-miterlimit:10;" d="M 203.503906 168.03125 C 203.503906 153.632812 179.503906 153.632812 179.503906 168.03125 C 179.503906 182.429688 203.503906 184.832031 203.503906 196.832031 C 203.503906 184.832031 227.503906 182.429688 227.503906 168.03125 C 227.503906 153.632812 203.503906 153.632812 203.503906 168.03125 "/>
<path style="fill-rule:nonzero;fill:rgb(50%,0%,50%);fill-opacity:1;stroke-width:1;stroke-linecap:butt;stroke-linejoin:round;stroke:rgb(0%,0%,0%);stroke-opacity:1;stroke-miterlimit:10;" d="M 35.832031 131.921875 C 35.832031 117.523438 11.832031 117.523438 11.832031 131.921875 C 11.832031 146.320312 35.832031 148.722656 35.832031 160.722656 C 35.832031 148.722656 59.832031 146.320312 59.832031 131.921875 C 59.832031 117.523438 35.832031 117.523438 35.832031 131.921875 "/>
</g>
</svg>
