<?xml version="1.0" encoding="UTF-8"?>
<svg xmlns="http://www.w3.org/2000/svg" xmlns:xlink="http://www.w3.org/1999/xlink" width="517pt" height="517pt" viewBox="0 0 517 517" version="1.1">
<g id="surface3991">
<rect x="0" y="0" width="517" height="517" style="fill:rgb(90%,90%,90%);fill-opacity:1;stroke:none;"/>
<path style="fill:none;stroke-width:5;stroke-linecap:butt;stroke-linejoin:round;stroke:rgb(100%,0%,0%);stroke-opacity:1;stroke-miterlimit:10;" d="M 5 5 L 261 5 L 261 261 L 5 261 Z M 5 5 "/>
<path style="fill-rule:nonzero;fill:rgb(67%,100%,18%);fill-opacity:1;stroke-width:1;stroke-linecap:butt;stroke-linejoin:round;stroke:rgb(0%,0%,0%);stroke-opacity:1;stroke-miterlimit:10;" d="M 197.742188 34.195312 L 177.742188 34.195312 L 177.742188 44.195312 L 197.742188 44.195312 L 197.742188 64.195312 L 207.742188 64.195312 L 207.742188 44.195312 L 227.742188 44.195312 L 227.742188 34.195312 L 207.742188 34.195312 L 207.742188 14.195312 L 197.742188 14.195312 L 197.742188 34.195312 "/>
<path style="fill-rule:nonzero;fill:rgb(50%,0%,50%);fill-opacity:1;stroke-width:1;stroke-linecap:butt;stroke-linejoin:round;stroke:rgb(0%,0%,0%);stroke-opacity:1;stroke-miterlimit:10;" d="M 425.320312 396.90625 L 405.320312 396.90625 L 405.320312 406.90625 L 425.320312 406.90625 L 425.320312 426.90625 L 435.320312 426.90625 L 435.320312 406.90625 L 455.320312 406.90625 L 455.320312 396.90625 L 435.320312 396.90625 L 435.320312 376.90625 L 425.320312 376.90625 L 425.320312 396.90625 "/>
<path style="fill-rule:nonzero;fill:rgb(0%,0%,0%);fill-opacity:1;stroke-width:1;stroke-linecap:butt;stroke-linejoin:round;stroke:rgb(0%,0%,0%);stroke-opacity:1;stroke-miterlimit:10;" d="M 380.871094 466.320312 L 360.871094 466.320312 L 360.871094 476.320312 L 380.871094 476.320312 L 380.871094 496.320312 L 390.871094 496.320312 L 390.871094 476.320312 L 410.871094 476.320312 L 410.871094 466.320312 L 390.871094 466.320312 L 390.871094 446.320312 L 380.871094 446.320312 L 380.871094 466.320312 "/>
<path style="fill-rule:nonzero;fill:rgb(0%,0%,0%);fill-opacity:1;stroke-width:1;stroke-linecap:butt;stroke-linejoin:round;stroke:rgb(0%,0%,0%);stroke-opacity:1;stroke-miterlimit:10;" d="M 445.316406 138.792969 L 425.316406 138.792969 L 425.316406 148.792969 L 445.316406 148.792969 L 445.316406 168.792969 L 455.316406 168.792969 L 455.316406 148.792969 L 475.316406 148.792969 L 475.316406 138.792969 L 455.316406 138.792969 L 455.316406 118.792969 L 445.316406 118.792969 L 445.316406 138.792969 "/>
<path style="fill-rule:nonzero;fill:rgb(0%,0%,0%);fill-opacity:1;stroke-width:1;stroke-linecap:butt;stroke-linejoin:round;stroke:rgb(0%,0%,0%);stroke-opacity:1;stroke-miterlimit:10;" d="M 391.921875 104 L 371.921875 104 L 371.921875 114 L 391.921875 114 L 391.921875 134 L 401.921875 134 L 401.921875 114 L 421.921875 114 L 421.921875 104 L 401.921875 104 L 401.921875 84 L 391.921875 84 L 391.921875 104 "/>
<path style="fill-rule:nonzero;fill:rgb(0%,0%,0%);fill-opacity:1;stroke-width:1;stroke-linecap:butt;stroke-linejoin:round;stroke:rgb(0%,0%,0%);stroke-opacity:1;stroke-miterlimit:10;" d="M 307.601562 52.730469 L 287.601562 52.730469 L 287.601562 62.730469 L 307.601562 62.730469 L 307.601562 82.730469 L 317.601562 82.730469 L 317.601562 62.730469 L 337.601562 62.730469 L 337.601562 52.730469 L 317.601562 52.730469 L 317.601562 32.730469 L 307.601562 32.730469 L 307.601562 52.730469 "/>
</g>
</svg>
