<?xml version="1.0" encoding="UTF-8"?>
<svg xmlns="http://www.w3.org/2000/svg" xmlns:xlink="http://www.w3.org/1999/xlink" width="517pt" height="517pt" viewBox="0 0 517 517" version="1.1">
<g id="surface9556">
<rect x="0" y="0" width="517" height="517" style="fill:rgb(90%,90%,90%);fill-opacity:1;stroke:none;"/>
<path style="fill:none;stroke-width:5;stroke-linecap:butt;stroke-linejoin:round;stroke:rgb(100%,0%,0%);stroke-opacity:1;stroke-miterlimit:10;" d="M 261 261 L 517 261 L 517 517 L 261 517 Z M 261 261 "/>
<path style="fill-rule:nonzero;fill:rgb(100%,100%,0%);fill-opacity:1;stroke-width:1;stroke-linecap:butt;stroke-linejoin:round;stroke:rgb(0%,0%,0%);stroke-opacity:1;stroke-miterlimit:10;" d="M 457.898438 384.808594 L 437.898438 384.808594 L 437.898438 394.808594 L 457.898438 394.808594 L 457.898438 414.808594 L 467.898438 414.808594 L 467.898438 394.808594 L 487.898438 394.808594 L 487.898438 384.808594 L 467.898438 384.808594 L 467.898438 364.808594 L 457.898438 364.808594 L 457.898438 384.808594 "/>
<path style="fill-rule:nonzero;fill:rgb(90%,65%,0%);fill-opacity:1;stroke-width:1;stroke-linecap:butt;stroke-linejoin:round;stroke:rgb(0%,0%,0%);stroke-opacity:1;stroke-miterlimit:10;" d="M 173.066406 182.496094 L 153.066406 182.496094 L 153.066406 192.496094 L 173.066406 192.496094 L 173.066406 212.496094 L 183.066406 212.496094 L 183.066406 192.496094 L 203.066406 192.496094 L 203.066406 182.496094 L 183.066406 182.496094 L 183.066406 162.496094 L 173.066406 162.496094 L 173.066406 182.496094 "/>
<path style="fill-rule:nonzero;fill:rgb(90%,65%,0%);fill-opacity:1;stroke-width:1;stroke-linecap:butt;stroke-linejoin:round;stroke:rgb(0%,0%,0%);stroke-opacity:1;stroke-miterlimit:10;" d="M 405.730469 96.632812 L 385.730469 96.632812 L 385.730469 106.632812 L 405.730469 106.632812 L 405.730469 126.632812 L 415.730469 126.632812 L 415.730469 106.632812 L 435.730469 106.632812 L 435.730469 96.632812 L 415.730469 96.632812 L 415.730469 76.632812 L 405.730469 76.632812 L 405.730469 96.632812 "/>
<path style="fill-rule:nonzero;fill:rgb(90%,65%,0%);fill-opacity:1;stroke-width:1;stroke-linecap:butt;stroke-linejoin:round;stroke:rgb(0%,0%,0%);stroke-opacity:1;stroke-miterlimit:10;" d="M 69.226562 417.523438 L 49.226562 417.523438 L 49.226562 427.523438 L 69.226562 427.523438 L 69.226562 447.523438 L 79.226562 447.523438 L 79.226562 427.523438 L 99.226562 427.523438 L 99.226562 417.523438 L 79.226562 417.523438 L 79.226562 397.523438 L 69.226562 397.523438 L 69.226562 417.523438 "/>
<path style="fill-rule:nonzero;fill:rgb(90%,65%,0%);fill-opacity:1;stroke-width:1;stroke-linecap:butt;stroke-linejoin:round;stroke:rgb(0%,0%,0%);stroke-opacity:1;stroke-miterlimit:10;" d="M 131.949219 414.757812 L 111.949219 414.757812 L 111.949219 424.757812 L 131.949219 424.757812 L 131.949219 444.757812 L 141.949219 444.757812 L 141.949219 424.757812 L 161.949219 424.757812 L 161.949219 414.757812 L 141.949219 414.757812 L 141.949219 394.757812 L 131.949219 394.757812 L 131.949219 414.757812 "/>
</g>
</svg>
