<?xml version="1.0" encoding="UTF-8"?>
<svg xmlns="http://www.w3.org/2000/svg" xmlns:xlink="http://www.w3.org/1999/xlink" width="517pt" height="517pt" viewBox="0 0 517 517" version="1.1">
<g id="surface4536">
<rect x="0" y="0" width="517" height="517" style="fill:rgb(90%,90%,90%);fill-opacity:1;stroke:none;"/>
<path style="fill:none;stroke-width:5;stroke-linecap:butt;stroke-linejoin:round;stroke:rgb(100%,0%,0%);stroke-opacity:1;stroke-miterlimit:10;" d="M 5 261 L 261 261 L 261 517 L 5 517 Z M 5 261 "/>
<path style="fill-rule:nonzero;fill:rgb(50%,0%,50%);fill-opacity:1;stroke-width:1;stroke-linecap:butt;stroke-linejoin:round;stroke:rgb(0%,0%,0%);stroke-opacity:1;stroke-miterlimit:10;" d="M 145.726562 288.429688 C 145.726562 274.027344 121.726562 274.027344 121.726562 288.429688 C 121.726562 302.828125 145.726562 305.226562 145.726562 317.226562 C 145.726562 305.226562 169.726562 302.828125 169.726562 288.429688 C 169.726562 274.027344 145.726562 274.027344 145.726562 288.429688 "/>
<path style="fill-rule:nonzero;fill:rgb(90%,65%,0%);fill-opacity:1;stroke-width:1;stroke-linecap:butt;stroke-linejoin:round;stroke:rgb(0%,0%,0%);stroke-opacity:1;stroke-miterlimit:10;" d="M 463.554688 61.140625 C 463.554688 46.738281 439.554688 46.738281 439.554688 61.140625 C 439.554688 75.539062 463.554688 77.941406 463.554688 89.941406 C 463.554688 77.941406 487.554688 75.539062 487.554688 61.140625 C 487.554688 46.738281 463.554688 46.738281 463.554688 61.140625 "/>
<path style="fill-rule:nonzero;fill:rgb(50%,0%,50%);fill-opacity:1;stroke-width:1;stroke-linecap:butt;stroke-linejoin:round;stroke:rgb(0%,0%,0%);stroke-opacity:1;stroke-miterlimit:10;" d="M 193.824219 176.238281 C 193.824219 161.839844 169.824219 161.839844 169.824219 176.238281 C 169.824219 190.640625 193.824219 193.039062 193.824219 205.039062 C 193.824219 193.039062 217.824219 190.640625 217.824219 176.238281 C 217.824219 161.839844 193.824219 161.839844 193.824219 176.238281 "/>
<path style="fill-rule:nonzero;fill:rgb(50%,0%,50%);fill-opacity:1;stroke-width:1;stroke-linecap:butt;stroke-linejoin:round;stroke:rgb(0%,0%,0%);stroke-opacity:1;stroke-miterlimit:10;" d="M 359.742188 284.300781 C 359.742188 269.902344 335.742188 269.902344 335.742188 284.300781 C 335.742188 298.699219 359.742188 301.101562 359.742188 313.101562 C 359.742188 301.101562 383.742188 298.699219 383.742188 284.300781 C 383.742188 269.902344 359.742188 269.902344 359.742188 284.300781 "/>
<path style="fill-rule:nonzero;fill:rgb(50%,0%,50%);fill-opacity:1;stroke-width:1;stroke-linecap:butt;stroke-linejoin:round;stroke:rgb(0%,0%,0%);stroke-opacity:1;stroke-miterlimit:10;" d="M 374.496094 361.464844 C 374.496094 347.066406 350.496094 347.066406 350.496094 361.464844 C 350.496094 375.863281 374.496094 378.265625 374.496094 390.265625 C 374.496094 378.265625 398.496094 375.863281 398.496094 361.464844 C 398.496094 347.066406 374.496094 347.066406 374.496094 361.464844 "/>
<path style="fill-rule:nonzero;fill:rgb(50%,0%,50%);fill-opacity:1;stroke-width:1;stroke-linecap:butt;stroke-linejoin:round;stroke:rgb(0%,0%,0%);stroke-opacity:1;stroke-miterlimit:10;" d="M 442.707031 331.777344 C 442.707031 317.378906 418.707031 317.378906 418.707031 331.777344 C 418.707031 346.179688 442.707031 348.578125 442.707031 360.578125 C 442.707031 348.578125 466.707031 346.179688 466.707031 331.777344 C 466.707031 317.378906 442.707031 317.378906 442.707031 331.777344 "/>
</g>
</svg>
