<?xml version="1.0" encoding="UTF-8"?>
<svg xmlns="http://www.w3.org/2000/svg" xmlns:xlink="http://www.w3.org/1999/xlink" width="517pt" height="517pt" viewBox="0 0 517 517" version="1.1">
<g id="surface4511">
<rect x="0" y="0" width="517" height="517" style="fill:rgb(90%,90%,90%);fill-opacity:1;stroke:none;"/>
<path style="fill:none;stroke-width:5;stroke-linecap:butt;stroke-linejoin:round;stroke:rgb(100%,0%,0%);stroke-opacity:1;stroke-miterlimit:10;" d="M 5 261 L 261 261 L 261 517 L 5 517 Z M 5 261 "/>
<path style="fill-rule:nonzero;fill:rgb(50%,0%,50%);fill-opacity:1;stroke-width:1;stroke-linecap:butt;stroke-linejoin:round;stroke:rgb(0%,0%,0%);stroke-opacity:1;stroke-miterlimit:10;" d="M 141.9375 313.210938 C 141.9375 298.8125 117.9375 298.8125 117.9375 313.210938 C 117.9375 327.609375 141.9375 330.011719 141.9375 342.011719 C 141.9375 330.011719 165.9375 327.609375 165.9375 313.210938 C 165.9375 298.8125 141.9375 298.8125 141.9375 313.210938 "/>
<path style="fill-rule:nonzero;fill:rgb(90%,65%,0%);fill-opacity:1;stroke-width:1;stroke-linecap:butt;stroke-linejoin:round;stroke:rgb(0%,0%,0%);stroke-opacity:1;stroke-miterlimit:10;" d="M 109.003906 175.800781 C 109.003906 161.402344 85.003906 161.402344 85.003906 175.800781 C 85.003906 190.203125 109.003906 192.601562 109.003906 204.601562 C 109.003906 192.601562 133.003906 190.203125 133.003906 175.800781 C 133.003906 161.402344 109.003906 161.402344 109.003906 175.800781 "/>
<path style="fill-rule:nonzero;fill:rgb(90%,65%,0%);fill-opacity:1;stroke-width:1;stroke-linecap:butt;stroke-linejoin:round;stroke:rgb(0%,0%,0%);stroke-opacity:1;stroke-miterlimit:10;" d="M 204.125 24.269531 C 204.125 9.871094 180.125 9.871094 180.125 24.269531 C 180.125 38.667969 204.125 41.070312 204.125 53.070312 C 204.125 41.070312 228.125 38.667969 228.125 24.269531 C 228.125 9.871094 204.125 9.871094 204.125 24.269531 "/>
<path style="fill-rule:nonzero;fill:rgb(90%,65%,0%);fill-opacity:1;stroke-width:1;stroke-linecap:butt;stroke-linejoin:round;stroke:rgb(0%,0%,0%);stroke-opacity:1;stroke-miterlimit:10;" d="M 413.019531 373.453125 C 413.019531 359.054688 389.019531 359.054688 389.019531 373.453125 C 389.019531 387.855469 413.019531 390.253906 413.019531 402.253906 C 413.019531 390.253906 437.019531 387.855469 437.019531 373.453125 C 437.019531 359.054688 413.019531 359.054688 413.019531 373.453125 "/>
<path style="fill-rule:nonzero;fill:rgb(90%,65%,0%);fill-opacity:1;stroke-width:1;stroke-linecap:butt;stroke-linejoin:round;stroke:rgb(0%,0%,0%);stroke-opacity:1;stroke-miterlimit:10;" d="M 381.65625 458.332031 C 381.65625 443.933594 357.65625 443.933594 357.65625 458.332031 C 357.65625 472.734375 381.65625 475.132812 381.65625 487.132812 C 381.65625 475.132812 405.65625 472.734375 405.65625 458.332031 C 405.65625 443.933594 381.65625 443.933594 381.65625 458.332031 "/>
<path style="fill-rule:nonzero;fill:rgb(50%,0%,50%);fill-opacity:1;stroke-width:1;stroke-linecap:butt;stroke-linejoin:round;stroke:rgb(0%,0%,0%);stroke-opacity:1;stroke-miterlimit:10;" d="M 406.863281 103.125 C 406.863281 88.726562 382.863281 88.726562 382.863281 103.125 C 382.863281 117.527344 406.863281 119.925781 406.863281 131.925781 C 406.863281 119.925781 430.863281 117.527344 430.863281 103.125 C 430.863281 88.726562 406.863281 88.726562 406.863281 103.125 "/>
</g>
</svg>
