<?xml version="1.0" encoding="UTF-8"?>
<svg xmlns="http://www.w3.org/2000/svg" xmlns:xlink="http://www.w3.org/1999/xlink" width="517pt" height="517pt" viewBox="0 0 517 517" version="1.1">
<g id="surface5446">
<rect x="0" y="0" width="517" height="517" style="fill:rgb(90%,90%,90%);fill-opacity:1;stroke:none;"/>
<path style="fill-rule:nonzero;fill:rgb(100%,100%,0%);fill-opacity:1;stroke-width:1;stroke-linecap:butt;stroke-linejoin:miter;stroke:rgb(0%,0%,0%);stroke-opacity:1;stroke-miterlimit:10;" d="M 334.058594 219.757812 C 334.058594 236.324219 320.625 249.757812 304.058594 249.757812 C 287.488281 249.757812 274.058594 236.324219 274.058594 219.757812 C 274.058594 203.1875 287.488281 189.757812 304.058594 189.757812 C 320.625 189.757812 334.058594 203.1875 334.058594 219.757812 "/>
<path style="fill-rule:nonzero;fill:rgb(100%,100%,0%);fill-opacity:1;stroke-width:1;stroke-linecap:butt;stroke-linejoin:miter;stroke:rgb(0%,0%,0%);stroke-opacity:1;stroke-miterlimit:10;" d="M 478.730469 198.148438 C 478.730469 214.71875 465.300781 228.148438 448.730469 228.148438 C 432.164062 228.148438 418.730469 214.71875 418.730469 198.148438 C 418.730469 181.582031 432.164062 168.148438 448.730469 168.148438 C 465.300781 168.148438 478.730469 181.582031 478.730469 198.148438 "/>
<path style="fill-rule:nonzero;fill:rgb(100%,100%,0%);fill-opacity:1;stroke-width:1;stroke-linecap:butt;stroke-linejoin:miter;stroke:rgb(0%,0%,0%);stroke-opacity:1;stroke-miterlimit:10;" d="M 72.605469 384.46875 C 72.605469 401.035156 59.171875 414.46875 42.605469 414.46875 C 26.035156 414.46875 12.605469 401.035156 12.605469 384.46875 C 12.605469 367.898438 26.035156 354.46875 42.605469 354.46875 C 59.171875 354.46875 72.605469 367.898438 72.605469 384.46875 "/>
<path style="fill-rule:nonzero;fill:rgb(100%,100%,0%);fill-opacity:1;stroke-width:1;stroke-linecap:butt;stroke-linejoin:miter;stroke:rgb(0%,0%,0%);stroke-opacity:1;stroke-miterlimit:10;" d="M 147.683594 411.71875 C 147.683594 428.285156 134.25 441.71875 117.683594 441.71875 C 101.113281 441.71875 87.683594 428.285156 87.683594 411.71875 C 87.683594 395.148438 101.113281 381.71875 117.683594 381.71875 C 134.25 381.71875 147.683594 395.148438 147.683594 411.71875 "/>
<path style="fill-rule:nonzero;fill:rgb(100%,100%,0%);fill-opacity:1;stroke-width:1;stroke-linecap:butt;stroke-linejoin:miter;stroke:rgb(0%,0%,0%);stroke-opacity:1;stroke-miterlimit:10;" d="M 238.355469 443.140625 C 238.355469 459.707031 224.925781 473.140625 208.355469 473.140625 C 191.789062 473.140625 178.355469 459.707031 178.355469 443.140625 C 178.355469 426.570312 191.789062 413.140625 208.355469 413.140625 C 224.925781 413.140625 238.355469 426.570312 238.355469 443.140625 "/>
<path style="fill-rule:nonzero;fill:rgb(100%,100%,0%);fill-opacity:1;stroke-width:1;stroke-linecap:butt;stroke-linejoin:miter;stroke:rgb(0%,0%,0%);stroke-opacity:1;stroke-miterlimit:10;" d="M 140.5625 302.167969 C 140.5625 318.738281 127.132812 332.167969 110.5625 332.167969 C 93.996094 332.167969 80.5625 318.738281 80.5625 302.167969 C 80.5625 285.597656 93.996094 272.167969 110.5625 272.167969 C 127.132812 272.167969 140.5625 285.597656 140.5625 302.167969 "/>
<path style="fill-rule:nonzero;fill:rgb(100%,100%,0%);fill-opacity:1;stroke-width:1;stroke-linecap:butt;stroke-linejoin:miter;stroke:rgb(0%,0%,0%);stroke-opacity:1;stroke-miterlimit:10;" d="M 83.441406 458.835938 C 83.441406 475.402344 70.011719 488.835938 53.441406 488.835938 C 36.871094 488.835938 23.441406 475.402344 23.441406 458.835938 C 23.441406 442.265625 36.871094 428.835938 53.441406 428.835938 C 70.011719 428.835938 83.441406 442.265625 83.441406 458.835938 "/>
<path style="fill-rule:nonzero;fill:rgb(100%,100%,0%);fill-opacity:1;stroke-width:1;stroke-linecap:butt;stroke-linejoin:miter;stroke:rgb(0%,0%,0%);stroke-opacity:1;stroke-miterlimit:10;" d="M 231.277344 113.980469 C 231.277344 130.546875 217.847656 143.980469 201.277344 143.980469 C 184.707031 143.980469 171.277344 130.546875 171.277344 113.980469 C 171.277344 97.410156 184.707031 83.980469 201.277344 83.980469 C 217.847656 83.980469 231.277344 97.410156 231.277344 113.980469 "/>
</g>
</svg>
