<?xml version="1.0" encoding="UTF-8"?>
<svg xmlns="http://www.w3.org/2000/svg" xmlns:xlink="http://www.w3.org/1999/xlink" width="517pt" height="517pt" viewBox="0 0 517 517" version="1.1">
<g id="surface4181">
<rect x="0" y="0" width="517" height="517" style="fill:rgb(90%,90%,90%);fill-opacity:1;stroke:none;"/>
<path style="fill:none;stroke-width:5;stroke-linecap:butt;stroke-linejoin:round;stroke:rgb(100%,0%,0%);stroke-opacity:1;stroke-miterlimit:10;" d="M 261 5 L 517 5 L 517 261 L 261 261 Z M 261 5 "/>
<path style="fill-rule:nonzero;fill:rgb(35%,70%,90%);fill-opacity:1;stroke-width:1;stroke-linecap:butt;stroke-linejoin:round;stroke:rgb(0%,0%,0%);stroke-opacity:1;stroke-miterlimit:10;" d="M 401.292969 69.746094 C 401.292969 86.3125 387.863281 99.746094 371.292969 99.746094 C 354.726562 99.746094 341.292969 86.3125 341.292969 69.746094 C 341.292969 53.175781 354.726562 39.746094 371.292969 39.746094 C 387.863281 39.746094 401.292969 53.175781 401.292969 69.746094 "/>
<path style="fill-rule:nonzero;fill:rgb(100%,0%,0%);fill-opacity:1;stroke-width:1;stroke-linecap:butt;stroke-linejoin:round;stroke:rgb(0%,0%,0%);stroke-opacity:1;stroke-miterlimit:10;" d="M 446.957031 293.457031 C 446.957031 310.027344 433.527344 323.457031 416.957031 323.457031 C 400.390625 323.457031 386.957031 310.027344 386.957031 293.457031 C 386.957031 276.890625 400.390625 263.457031 416.957031 263.457031 C 433.527344 263.457031 446.957031 276.890625 446.957031 293.457031 "/>
<path style="fill-rule:nonzero;fill:rgb(100%,0%,0%);fill-opacity:1;stroke-width:1;stroke-linecap:butt;stroke-linejoin:round;stroke:rgb(0%,0%,0%);stroke-opacity:1;stroke-miterlimit:10;" d="M 340.632812 345.113281 C 340.632812 361.683594 327.199219 375.113281 310.632812 375.113281 C 294.0625 375.113281 280.632812 361.683594 280.632812 345.113281 C 280.632812 328.542969 294.0625 315.113281 310.632812 315.113281 C 327.199219 315.113281 340.632812 328.542969 340.632812 345.113281 "/>
<path style="fill-rule:nonzero;fill:rgb(100%,0%,0%);fill-opacity:1;stroke-width:1;stroke-linecap:butt;stroke-linejoin:round;stroke:rgb(0%,0%,0%);stroke-opacity:1;stroke-miterlimit:10;" d="M 99.984375 105.808594 C 99.984375 122.375 86.554688 135.808594 69.984375 135.808594 C 53.417969 135.808594 39.984375 122.375 39.984375 105.808594 C 39.984375 89.238281 53.417969 75.808594 69.984375 75.808594 C 86.554688 75.808594 99.984375 89.238281 99.984375 105.808594 "/>
<path style="fill-rule:nonzero;fill:rgb(100%,0%,0%);fill-opacity:1;stroke-width:1;stroke-linecap:butt;stroke-linejoin:round;stroke:rgb(0%,0%,0%);stroke-opacity:1;stroke-miterlimit:10;" d="M 108.761719 189.949219 C 108.761719 206.515625 95.332031 219.949219 78.761719 219.949219 C 62.195312 219.949219 48.761719 206.515625 48.761719 189.949219 C 48.761719 173.378906 62.195312 159.949219 78.761719 159.949219 C 95.332031 159.949219 108.761719 173.378906 108.761719 189.949219 "/>
<path style="fill-rule:nonzero;fill:rgb(35%,70%,90%);fill-opacity:1;stroke-width:1;stroke-linecap:butt;stroke-linejoin:round;stroke:rgb(0%,0%,0%);stroke-opacity:1;stroke-miterlimit:10;" d="M 122.90625 458.527344 C 122.90625 475.097656 109.472656 488.527344 92.90625 488.527344 C 76.335938 488.527344 62.90625 475.097656 62.90625 458.527344 C 62.90625 441.960938 76.335938 428.527344 92.90625 428.527344 C 109.472656 428.527344 122.90625 441.960938 122.90625 458.527344 "/>
</g>
</svg>
