<?xml version="1.0" encoding="UTF-8"?>
<svg xmlns="http://www.w3.org/2000/svg" xmlns:xlink="http://www.w3.org/1999/xlink" width="517pt" height="517pt" viewBox="0 0 517 517" version="1.1">
<g id="surface9136">
<rect x="0" y="0" width="517" height="517" style="fill:rgb(90%,90%,90%);fill-opacity:1;stroke:none;"/>
<path style="fill:none;stroke-width:5;stroke-linecap:butt;stroke-linejoin:round;stroke:rgb(100%,0%,0%);stroke-opacity:1;stroke-miterlimit:10;" d="M 261 5 L 517 5 L 517 261 L 261 261 Z M 261 5 "/>
<path style="fill-rule:nonzero;fill:rgb(100%,100%,0%);fill-opacity:1;stroke-width:1;stroke-linecap:butt;stroke-linejoin:round;stroke:rgb(0%,0%,0%);stroke-opacity:1;stroke-miterlimit:10;" d="M 288.976562 75.175781 L 268.976562 75.175781 L 268.976562 85.175781 L 288.976562 85.175781 L 288.976562 105.175781 L 298.976562 105.175781 L 298.976562 85.175781 L 318.976562 85.175781 L 318.976562 75.175781 L 298.976562 75.175781 L 298.976562 55.175781 L 288.976562 55.175781 L 288.976562 75.175781 "/>
<path style="fill-rule:nonzero;fill:rgb(100%,100%,0%);fill-opacity:1;stroke-width:1;stroke-linecap:butt;stroke-linejoin:round;stroke:rgb(0%,0%,0%);stroke-opacity:1;stroke-miterlimit:10;" d="M 182.234375 363.761719 L 162.234375 363.761719 L 162.234375 373.761719 L 182.234375 373.761719 L 182.234375 393.761719 L 192.234375 393.761719 L 192.234375 373.761719 L 212.234375 373.761719 L 212.234375 363.761719 L 192.234375 363.761719 L 192.234375 343.761719 L 182.234375 343.761719 L 182.234375 363.761719 "/>
<path style="fill-rule:nonzero;fill:rgb(100%,100%,0%);fill-opacity:1;stroke-width:1;stroke-linecap:butt;stroke-linejoin:round;stroke:rgb(0%,0%,0%);stroke-opacity:1;stroke-miterlimit:10;" d="M 374.257812 441.550781 L 354.257812 441.550781 L 354.257812 451.550781 L 374.257812 451.550781 L 374.257812 471.550781 L 384.257812 471.550781 L 384.257812 451.550781 L 404.257812 451.550781 L 404.257812 441.550781 L 384.257812 441.550781 L 384.257812 421.550781 L 374.257812 421.550781 L 374.257812 441.550781 "/>
<path style="fill-rule:nonzero;fill:rgb(100%,100%,0%);fill-opacity:1;stroke-width:1;stroke-linecap:butt;stroke-linejoin:round;stroke:rgb(0%,0%,0%);stroke-opacity:1;stroke-miterlimit:10;" d="M 450.589844 332.433594 L 430.589844 332.433594 L 430.589844 342.433594 L 450.589844 342.433594 L 450.589844 362.433594 L 460.589844 362.433594 L 460.589844 342.433594 L 480.589844 342.433594 L 480.589844 332.433594 L 460.589844 332.433594 L 460.589844 312.433594 L 450.589844 312.433594 L 450.589844 332.433594 "/>
<path style="fill-rule:nonzero;fill:rgb(100%,100%,0%);fill-opacity:1;stroke-width:1;stroke-linecap:butt;stroke-linejoin:round;stroke:rgb(0%,0%,0%);stroke-opacity:1;stroke-miterlimit:10;" d="M 338.28125 391.421875 L 318.28125 391.421875 L 318.28125 401.421875 L 338.28125 401.421875 L 338.28125 421.421875 L 348.28125 421.421875 L 348.28125 401.421875 L 368.28125 401.421875 L 368.28125 391.421875 L 348.28125 391.421875 L 348.28125 371.421875 L 338.28125 371.421875 L 338.28125 391.421875 "/>
<path style="fill-rule:nonzero;fill:rgb(100%,100%,0%);fill-opacity:1;stroke-width:1;stroke-linecap:butt;stroke-linejoin:round;stroke:rgb(0%,0%,0%);stroke-opacity:1;stroke-miterlimit:10;" d="M 191.550781 96.351562 L 171.550781 96.351562 L 171.550781 106.351562 L 191.550781 106.351562 L 191.550781 126.351562 L 201.550781 126.351562 L 201.550781 106.351562 L 221.550781 106.351562 L 221.550781 96.351562 L 201.550781 96.351562 L 201.550781 76.351562 L 191.550781 76.351562 L 191.550781 96.351562 "/>
</g>
</svg>
