<?xml version="1.0" encoding="UTF-8"?>
<svg xmlns="http://www.w3.org/2000/svg" xmlns:xlink="http://www.w3.org/1999/xlink" width="517pt" height="517pt" viewBox="0 0 517 517" version="1.1">
<g id="surface9566">
<rect x="0" y="0" width="517" height="517" style="fill:rgb(90%,90%,90%);fill-opacity:1;stroke:none;"/>
<path style="fill:none;stroke-width:5;stroke-linecap:butt;stroke-linejoin:round;stroke:rgb(100%,0%,0%);stroke-opacity:1;stroke-miterlimit:10;" d="M 261 261 L 517 261 L 517 517 L 261 517 Z M 261 261 "/>
<path style="fill-rule:nonzero;fill:rgb(100%,100%,0%);fill-opacity:1;stroke-width:1;stroke-linecap:butt;stroke-linejoin:round;stroke:rgb(0%,0%,0%);stroke-opacity:1;stroke-miterlimit:10;" d="M 294.296875 341.445312 L 274.296875 341.445312 L 274.296875 351.445312 L 294.296875 351.445312 L 294.296875 371.445312 L 304.296875 371.445312 L 304.296875 351.445312 L 324.296875 351.445312 L 324.296875 341.445312 L 304.296875 341.445312 L 304.296875 321.445312 L 294.296875 321.445312 L 294.296875 341.445312 "/>
<path style="fill-rule:nonzero;fill:rgb(35%,70%,90%);fill-opacity:1;stroke-width:1;stroke-linecap:butt;stroke-linejoin:round;stroke:rgb(0%,0%,0%);stroke-opacity:1;stroke-miterlimit:10;" d="M 112.476562 43.09375 L 92.476562 43.09375 L 92.476562 53.09375 L 112.476562 53.09375 L 112.476562 73.09375 L 122.476562 73.09375 L 122.476562 53.09375 L 142.476562 53.09375 L 142.476562 43.09375 L 122.476562 43.09375 L 122.476562 23.09375 L 112.476562 23.09375 L 112.476562 43.09375 "/>
<path style="fill-rule:nonzero;fill:rgb(35%,70%,90%);fill-opacity:1;stroke-width:1;stroke-linecap:butt;stroke-linejoin:round;stroke:rgb(0%,0%,0%);stroke-opacity:1;stroke-miterlimit:10;" d="M 104.378906 355.03125 L 84.378906 355.03125 L 84.378906 365.03125 L 104.378906 365.03125 L 104.378906 385.03125 L 114.378906 385.03125 L 114.378906 365.03125 L 134.378906 365.03125 L 134.378906 355.03125 L 114.378906 355.03125 L 114.378906 335.03125 L 104.378906 335.03125 L 104.378906 355.03125 "/>
<path style="fill-rule:nonzero;fill:rgb(35%,70%,90%);fill-opacity:1;stroke-width:1;stroke-linecap:butt;stroke-linejoin:round;stroke:rgb(0%,0%,0%);stroke-opacity:1;stroke-miterlimit:10;" d="M 32.945312 368.449219 L 12.945312 368.449219 L 12.945312 378.449219 L 32.945312 378.449219 L 32.945312 398.449219 L 42.945312 398.449219 L 42.945312 378.449219 L 62.945312 378.449219 L 62.945312 368.449219 L 42.945312 368.449219 L 42.945312 348.449219 L 32.945312 348.449219 L 32.945312 368.449219 "/>
<path style="fill-rule:nonzero;fill:rgb(35%,70%,90%);fill-opacity:1;stroke-width:1;stroke-linecap:butt;stroke-linejoin:round;stroke:rgb(0%,0%,0%);stroke-opacity:1;stroke-miterlimit:10;" d="M 108.457031 414.960938 L 88.457031 414.960938 L 88.457031 424.960938 L 108.457031 424.960938 L 108.457031 444.960938 L 118.457031 444.960938 L 118.457031 424.960938 L 138.457031 424.960938 L 138.457031 414.960938 L 118.457031 414.960938 L 118.457031 394.960938 L 108.457031 394.960938 L 108.457031 414.960938 "/>
</g>
</svg>
