<?xml version="1.0" encoding="UTF-8"?>
<svg xmlns="http://www.w3.org/2000/svg" xmlns:xlink="http://www.w3.org/1999/xlink" width="517pt" height="517pt" viewBox="0 0 517 517" version="1.1">
<g id="surface9066">
<rect x="0" y="0" width="517" height="517" style="fill:rgb(90%,90%,90%);fill-opacity:1;stroke:none;"/>
<path style="fill:none;stroke-width:5;stroke-linecap:butt;stroke-linejoin:round;stroke:rgb(100%,0%,0%);stroke-opacity:1;stroke-miterlimit:10;" d="M 5 261 L 261 261 L 261 517 L 5 517 Z M 5 261 "/>
<path style="fill-rule:nonzero;fill:rgb(50%,0%,50%);fill-opacity:1;stroke-width:1;stroke-linecap:butt;stroke-linejoin:round;stroke:rgb(0%,0%,0%);stroke-opacity:1;stroke-miterlimit:10;" d="M 86.457031 395.566406 L 66.457031 395.566406 L 66.457031 405.566406 L 86.457031 405.566406 L 86.457031 425.566406 L 96.457031 425.566406 L 96.457031 405.566406 L 116.457031 405.566406 L 116.457031 395.566406 L 96.457031 395.566406 L 96.457031 375.566406 L 86.457031 375.566406 L 86.457031 395.566406 "/>
<path style="fill-rule:nonzero;fill:rgb(0%,0%,0%);fill-opacity:1;stroke-width:1;stroke-linecap:butt;stroke-linejoin:round;stroke:rgb(0%,0%,0%);stroke-opacity:1;stroke-miterlimit:10;" d="M 345.78125 375.125 L 325.78125 375.125 L 325.78125 385.125 L 345.78125 385.125 L 345.78125 405.125 L 355.78125 405.125 L 355.78125 385.125 L 375.78125 385.125 L 375.78125 375.125 L 355.78125 375.125 L 355.78125 355.125 L 345.78125 355.125 L 345.78125 375.125 "/>
<path style="fill-rule:nonzero;fill:rgb(0%,0%,0%);fill-opacity:1;stroke-width:1;stroke-linecap:butt;stroke-linejoin:round;stroke:rgb(0%,0%,0%);stroke-opacity:1;stroke-miterlimit:10;" d="M 465.742188 350.960938 L 445.742188 350.960938 L 445.742188 360.960938 L 465.742188 360.960938 L 465.742188 380.960938 L 475.742188 380.960938 L 475.742188 360.960938 L 495.742188 360.960938 L 495.742188 350.960938 L 475.742188 350.960938 L 475.742188 330.960938 L 465.742188 330.960938 L 465.742188 350.960938 "/>
<path style="fill-rule:nonzero;fill:rgb(0%,0%,0%);fill-opacity:1;stroke-width:1;stroke-linecap:butt;stroke-linejoin:round;stroke:rgb(0%,0%,0%);stroke-opacity:1;stroke-miterlimit:10;" d="M 345.328125 200.425781 L 325.328125 200.425781 L 325.328125 210.425781 L 345.328125 210.425781 L 345.328125 230.425781 L 355.328125 230.425781 L 355.328125 210.425781 L 375.328125 210.425781 L 375.328125 200.425781 L 355.328125 200.425781 L 355.328125 180.425781 L 345.328125 180.425781 L 345.328125 200.425781 "/>
<path style="fill-rule:nonzero;fill:rgb(0%,0%,0%);fill-opacity:1;stroke-width:1;stroke-linecap:butt;stroke-linejoin:round;stroke:rgb(0%,0%,0%);stroke-opacity:1;stroke-miterlimit:10;" d="M 163.597656 122.164062 L 143.597656 122.164062 L 143.597656 132.164062 L 163.597656 132.164062 L 163.597656 152.164062 L 173.597656 152.164062 L 173.597656 132.164062 L 193.597656 132.164062 L 193.597656 122.164062 L 173.597656 122.164062 L 173.597656 102.164062 L 163.597656 102.164062 L 163.597656 122.164062 "/>
<path style="fill-rule:nonzero;fill:rgb(0%,0%,0%);fill-opacity:1;stroke-width:1;stroke-linecap:butt;stroke-linejoin:round;stroke:rgb(0%,0%,0%);stroke-opacity:1;stroke-miterlimit:10;" d="M 55.542969 138.753906 L 35.542969 138.753906 L 35.542969 148.753906 L 55.542969 148.753906 L 55.542969 168.753906 L 65.542969 168.753906 L 65.542969 148.753906 L 85.542969 148.753906 L 85.542969 138.753906 L 65.542969 138.753906 L 65.542969 118.753906 L 55.542969 118.753906 L 55.542969 138.753906 "/>
</g>
</svg>
