<?xml version="1.0" encoding="UTF-8"?>
<svg xmlns="http://www.w3.org/2000/svg" xmlns:xlink="http://www.w3.org/1999/xlink" width="517pt" height="517pt" viewBox="0 0 517 517" version="1.1">
<g id="surface9496">
<rect x="0" y="0" width="517" height="517" style="fill:rgb(90%,90%,90%);fill-opacity:1;stroke:none;"/>
<path style="fill:none;stroke-width:5;stroke-linecap:butt;stroke-linejoin:round;stroke:rgb(100%,0%,0%);stroke-opacity:1;stroke-miterlimit:10;" d="M 261 5 L 517 5 L 517 261 L 261 261 Z M 261 5 "/>
<path style="fill-rule:nonzero;fill:rgb(100%,100%,0%);fill-opacity:1;stroke-width:1;stroke-linecap:butt;stroke-linejoin:round;stroke:rgb(0%,0%,0%);stroke-opacity:1;stroke-miterlimit:10;" d="M 353.609375 78.8125 L 333.609375 78.8125 L 333.609375 88.8125 L 353.609375 88.8125 L 353.609375 108.8125 L 363.609375 108.8125 L 363.609375 88.8125 L 383.609375 88.8125 L 383.609375 78.8125 L 363.609375 78.8125 L 363.609375 58.8125 L 353.609375 58.8125 L 353.609375 78.8125 "/>
<path style="fill-rule:nonzero;fill:rgb(50%,0%,50%);fill-opacity:1;stroke-width:1;stroke-linecap:butt;stroke-linejoin:round;stroke:rgb(0%,0%,0%);stroke-opacity:1;stroke-miterlimit:10;" d="M 459.84375 305.773438 L 439.84375 305.773438 L 439.84375 315.773438 L 459.84375 315.773438 L 459.84375 335.773438 L 469.84375 335.773438 L 469.84375 315.773438 L 489.84375 315.773438 L 489.84375 305.773438 L 469.84375 305.773438 L 469.84375 285.773438 L 459.84375 285.773438 L 459.84375 305.773438 "/>
<path style="fill-rule:nonzero;fill:rgb(50%,0%,50%);fill-opacity:1;stroke-width:1;stroke-linecap:butt;stroke-linejoin:round;stroke:rgb(0%,0%,0%);stroke-opacity:1;stroke-miterlimit:10;" d="M 394.378906 318.644531 L 374.378906 318.644531 L 374.378906 328.644531 L 394.378906 328.644531 L 394.378906 348.644531 L 404.378906 348.644531 L 404.378906 328.644531 L 424.378906 328.644531 L 424.378906 318.644531 L 404.378906 318.644531 L 404.378906 298.644531 L 394.378906 298.644531 L 394.378906 318.644531 "/>
<path style="fill-rule:nonzero;fill:rgb(50%,0%,50%);fill-opacity:1;stroke-width:1;stroke-linecap:butt;stroke-linejoin:round;stroke:rgb(0%,0%,0%);stroke-opacity:1;stroke-miterlimit:10;" d="M 206.007812 404.574219 L 186.007812 404.574219 L 186.007812 414.574219 L 206.007812 414.574219 L 206.007812 434.574219 L 216.007812 434.574219 L 216.007812 414.574219 L 236.007812 414.574219 L 236.007812 404.574219 L 216.007812 404.574219 L 216.007812 384.574219 L 206.007812 384.574219 L 206.007812 404.574219 "/>
<path style="fill-rule:nonzero;fill:rgb(50%,0%,50%);fill-opacity:1;stroke-width:1;stroke-linecap:butt;stroke-linejoin:round;stroke:rgb(0%,0%,0%);stroke-opacity:1;stroke-miterlimit:10;" d="M 102.722656 211.019531 L 82.722656 211.019531 L 82.722656 221.019531 L 102.722656 221.019531 L 102.722656 241.019531 L 112.722656 241.019531 L 112.722656 221.019531 L 132.722656 221.019531 L 132.722656 211.019531 L 112.722656 211.019531 L 112.722656 191.019531 L 102.722656 191.019531 L 102.722656 211.019531 "/>
</g>
</svg>
