<?xml version="1.0" encoding="UTF-8"?>
<svg xmlns="http://www.w3.org/2000/svg" xmlns:xlink="http://www.w3.org/1999/xlink" width="517pt" height="517pt" viewBox="0 0 517 517" version="1.1">
<g id="surface4646">
<rect x="0" y="0" width="517" height="517" style="fill:rgb(90%,90%,90%);fill-opacity:1;stroke:none;"/>
<path style="fill:none;stroke-width:5;stroke-linecap:butt;stroke-linejoin:round;stroke:rgb(100%,0%,0%);stroke-opacity:1;stroke-miterlimit:10;" d="M 5 261 L 261 261 L 261 517 L 5 517 Z M 5 261 "/>
<path style="fill-rule:nonzero;fill:rgb(25%,88%,82%);fill-opacity:1;stroke-width:1;stroke-linecap:butt;stroke-linejoin:round;stroke:rgb(0%,0%,0%);stroke-opacity:1;stroke-miterlimit:10;" d="M 119.921875 287.992188 C 119.921875 273.589844 95.921875 273.589844 95.921875 287.992188 C 95.921875 302.390625 119.921875 304.789062 119.921875 316.789062 C 119.921875 304.789062 143.921875 302.390625 143.921875 287.992188 C 143.921875 273.589844 119.921875 273.589844 119.921875 287.992188 "/>
<path style="fill-rule:nonzero;fill:rgb(100%,100%,0%);fill-opacity:1;stroke-width:1;stroke-linecap:butt;stroke-linejoin:round;stroke:rgb(0%,0%,0%);stroke-opacity:1;stroke-miterlimit:10;" d="M 132.488281 162.472656 C 132.488281 148.070312 108.488281 148.070312 108.488281 162.472656 C 108.488281 176.871094 132.488281 179.269531 132.488281 191.269531 C 132.488281 179.269531 156.488281 176.871094 156.488281 162.472656 C 156.488281 148.070312 132.488281 148.070312 132.488281 162.472656 "/>
<path style="fill-rule:nonzero;fill:rgb(100%,100%,0%);fill-opacity:1;stroke-width:1;stroke-linecap:butt;stroke-linejoin:round;stroke:rgb(0%,0%,0%);stroke-opacity:1;stroke-miterlimit:10;" d="M 401.761719 386.710938 C 401.761719 372.308594 377.761719 372.308594 377.761719 386.710938 C 377.761719 401.109375 401.761719 403.511719 401.761719 415.511719 C 401.761719 403.511719 425.761719 401.109375 425.761719 386.710938 C 425.761719 372.308594 401.761719 372.308594 401.761719 386.710938 "/>
<path style="fill-rule:nonzero;fill:rgb(100%,100%,0%);fill-opacity:1;stroke-width:1;stroke-linecap:butt;stroke-linejoin:round;stroke:rgb(0%,0%,0%);stroke-opacity:1;stroke-miterlimit:10;" d="M 328.511719 40.550781 C 328.511719 26.148438 304.511719 26.148438 304.511719 40.550781 C 304.511719 54.949219 328.511719 57.351562 328.511719 69.351562 C 328.511719 57.351562 352.511719 54.949219 352.511719 40.550781 C 352.511719 26.148438 328.511719 26.148438 328.511719 40.550781 "/>
<path style="fill-rule:nonzero;fill:rgb(100%,100%,0%);fill-opacity:1;stroke-width:1;stroke-linecap:butt;stroke-linejoin:round;stroke:rgb(0%,0%,0%);stroke-opacity:1;stroke-miterlimit:10;" d="M 325.488281 123.71875 C 325.488281 109.316406 301.488281 109.316406 301.488281 123.71875 C 301.488281 138.117188 325.488281 140.519531 325.488281 152.519531 C 325.488281 140.519531 349.488281 138.117188 349.488281 123.71875 C 349.488281 109.316406 325.488281 109.316406 325.488281 123.71875 "/>
<path style="fill-rule:nonzero;fill:rgb(100%,100%,0%);fill-opacity:1;stroke-width:1;stroke-linecap:butt;stroke-linejoin:round;stroke:rgb(0%,0%,0%);stroke-opacity:1;stroke-miterlimit:10;" d="M 365.339844 181.507812 C 365.339844 167.105469 341.339844 167.105469 341.339844 181.507812 C 341.339844 195.90625 365.339844 198.308594 365.339844 210.308594 C 365.339844 198.308594 389.339844 195.90625 389.339844 181.507812 C 389.339844 167.105469 365.339844 167.105469 365.339844 181.507812 "/>
</g>
</svg>
