<?xml version="1.0" encoding="UTF-8"?>
<svg xmlns="http://www.w3.org/2000/svg" xmlns:xlink="http://www.w3.org/1999/xlink" width="517pt" height="517pt" viewBox="0 0 517 517" version="1.1">
<g id="surface9396">
<rect x="0" y="0" width="517" height="517" style="fill:rgb(90%,90%,90%);fill-opacity:1;stroke:none;"/>
<path style="fill:none;stroke-width:5;stroke-linecap:butt;stroke-linejoin:round;stroke:rgb(100%,0%,0%);stroke-opacity:1;stroke-miterlimit:10;" d="M 5 261 L 261 261 L 261 517 L 5 517 Z M 5 261 "/>
<path style="fill-rule:nonzero;fill:rgb(0%,0%,0%);fill-opacity:1;stroke-width:1;stroke-linecap:butt;stroke-linejoin:round;stroke:rgb(0%,0%,0%);stroke-opacity:1;stroke-miterlimit:10;" d="M 176.015625 386.976562 L 156.015625 386.976562 L 156.015625 396.976562 L 176.015625 396.976562 L 176.015625 416.976562 L 186.015625 416.976562 L 186.015625 396.976562 L 206.015625 396.976562 L 206.015625 386.976562 L 186.015625 386.976562 L 186.015625 366.976562 L 176.015625 366.976562 L 176.015625 386.976562 "/>
<path style="fill-rule:nonzero;fill:rgb(100%,100%,0%);fill-opacity:1;stroke-width:1;stroke-linecap:butt;stroke-linejoin:round;stroke:rgb(0%,0%,0%);stroke-opacity:1;stroke-miterlimit:10;" d="M 397.957031 335.816406 L 377.957031 335.816406 L 377.957031 345.816406 L 397.957031 345.816406 L 397.957031 365.816406 L 407.957031 365.816406 L 407.957031 345.816406 L 427.957031 345.816406 L 427.957031 335.816406 L 407.957031 335.816406 L 407.957031 315.816406 L 397.957031 315.816406 L 397.957031 335.816406 "/>
<path style="fill-rule:nonzero;fill:rgb(100%,100%,0%);fill-opacity:1;stroke-width:1;stroke-linecap:butt;stroke-linejoin:round;stroke:rgb(0%,0%,0%);stroke-opacity:1;stroke-miterlimit:10;" d="M 336.800781 168.714844 L 316.800781 168.714844 L 316.800781 178.714844 L 336.800781 178.714844 L 336.800781 198.714844 L 346.800781 198.714844 L 346.800781 178.714844 L 366.800781 178.714844 L 366.800781 168.714844 L 346.800781 168.714844 L 346.800781 148.714844 L 336.800781 148.714844 L 336.800781 168.714844 "/>
<path style="fill-rule:nonzero;fill:rgb(100%,100%,0%);fill-opacity:1;stroke-width:1;stroke-linecap:butt;stroke-linejoin:round;stroke:rgb(0%,0%,0%);stroke-opacity:1;stroke-miterlimit:10;" d="M 378.441406 68.515625 L 358.441406 68.515625 L 358.441406 78.515625 L 378.441406 78.515625 L 378.441406 98.515625 L 388.441406 98.515625 L 388.441406 78.515625 L 408.441406 78.515625 L 408.441406 68.515625 L 388.441406 68.515625 L 388.441406 48.515625 L 378.441406 48.515625 L 378.441406 68.515625 "/>
<path style="fill-rule:nonzero;fill:rgb(100%,100%,0%);fill-opacity:1;stroke-width:1;stroke-linecap:butt;stroke-linejoin:round;stroke:rgb(0%,0%,0%);stroke-opacity:1;stroke-miterlimit:10;" d="M 418.492188 195.226562 L 398.492188 195.226562 L 398.492188 205.226562 L 418.492188 205.226562 L 418.492188 225.226562 L 428.492188 225.226562 L 428.492188 205.226562 L 448.492188 205.226562 L 448.492188 195.226562 L 428.492188 195.226562 L 428.492188 175.226562 L 418.492188 175.226562 L 418.492188 195.226562 "/>
</g>
</svg>
