<?xml version="1.0" encoding="UTF-8"?>
<svg xmlns="http://www.w3.org/2000/svg" xmlns:xlink="http://www.w3.org/1999/xlink" width="517pt" height="517pt" viewBox="0 0 517 517" version="1.1">
<g id="surface9326">
<rect x="0" y="0" width="517" height="517" style="fill:rgb(90%,90%,90%);fill-opacity:1;stroke:none;"/>
<path style="fill:none;stroke-width:5;stroke-linecap:butt;stroke-linejoin:round;stroke:rgb(100%,0%,0%);stroke-opacity:1;stroke-miterlimit:10;" d="M 5 5 L 261 5 L 261 261 L 5 261 Z M 5 5 "/>
<path style="fill-rule:nonzero;fill:rgb(67%,100%,18%);fill-opacity:1;stroke-width:1;stroke-linecap:butt;stroke-linejoin:round;stroke:rgb(0%,0%,0%);stroke-opacity:1;stroke-miterlimit:10;" d="M 75.761719 41.4375 L 55.761719 41.4375 L 55.761719 51.4375 L 75.761719 51.4375 L 75.761719 71.4375 L 85.761719 71.4375 L 85.761719 51.4375 L 105.761719 51.4375 L 105.761719 41.4375 L 85.761719 41.4375 L 85.761719 21.4375 L 75.761719 21.4375 L 75.761719 41.4375 "/>
<path style="fill-rule:nonzero;fill:rgb(90%,65%,0%);fill-opacity:1;stroke-width:1;stroke-linecap:butt;stroke-linejoin:round;stroke:rgb(0%,0%,0%);stroke-opacity:1;stroke-miterlimit:10;" d="M 441.5625 59.289062 L 421.5625 59.289062 L 421.5625 69.289062 L 441.5625 69.289062 L 441.5625 89.289062 L 451.5625 89.289062 L 451.5625 69.289062 L 471.5625 69.289062 L 471.5625 59.289062 L 451.5625 59.289062 L 451.5625 39.289062 L 441.5625 39.289062 L 441.5625 59.289062 "/>
<path style="fill-rule:nonzero;fill:rgb(90%,65%,0%);fill-opacity:1;stroke-width:1;stroke-linecap:butt;stroke-linejoin:round;stroke:rgb(0%,0%,0%);stroke-opacity:1;stroke-miterlimit:10;" d="M 347.496094 42.445312 L 327.496094 42.445312 L 327.496094 52.445312 L 347.496094 52.445312 L 347.496094 72.445312 L 357.496094 72.445312 L 357.496094 52.445312 L 377.496094 52.445312 L 377.496094 42.445312 L 357.496094 42.445312 L 357.496094 22.445312 L 347.496094 22.445312 L 347.496094 42.445312 "/>
<path style="fill-rule:nonzero;fill:rgb(90%,65%,0%);fill-opacity:1;stroke-width:1;stroke-linecap:butt;stroke-linejoin:round;stroke:rgb(0%,0%,0%);stroke-opacity:1;stroke-miterlimit:10;" d="M 299.328125 391.667969 L 279.328125 391.667969 L 279.328125 401.667969 L 299.328125 401.667969 L 299.328125 421.667969 L 309.328125 421.667969 L 309.328125 401.667969 L 329.328125 401.667969 L 329.328125 391.667969 L 309.328125 391.667969 L 309.328125 371.667969 L 299.328125 371.667969 L 299.328125 391.667969 "/>
<path style="fill-rule:nonzero;fill:rgb(90%,65%,0%);fill-opacity:1;stroke-width:1;stroke-linecap:butt;stroke-linejoin:round;stroke:rgb(0%,0%,0%);stroke-opacity:1;stroke-miterlimit:10;" d="M 369.261719 367.414062 L 349.261719 367.414062 L 349.261719 377.414062 L 369.261719 377.414062 L 369.261719 397.414062 L 379.261719 397.414062 L 379.261719 377.414062 L 399.261719 377.414062 L 399.261719 367.414062 L 379.261719 367.414062 L 379.261719 347.414062 L 369.261719 347.414062 L 369.261719 367.414062 "/>
</g>
</svg>
