<?xml version="1.0" encoding="UTF-8"?>
<svg xmlns="http://www.w3.org/2000/svg" xmlns:xlink="http://www.w3.org/1999/xlink" width="517pt" height="517pt" viewBox="0 0 517 517" version="1.1">
<g id="surface9536">
<rect x="0" y="0" width="517" height="517" style="fill:rgb(90%,90%,90%);fill-opacity:1;stroke:none;"/>
<path style="fill:none;stroke-width:5;stroke-linecap:butt;stroke-linejoin:round;stroke:rgb(100%,0%,0%);stroke-opacity:1;stroke-miterlimit:10;" d="M 261 261 L 517 261 L 517 517 L 261 517 Z M 261 261 "/>
<path style="fill-rule:nonzero;fill:rgb(35%,70%,90%);fill-opacity:1;stroke-width:1;stroke-linecap:butt;stroke-linejoin:round;stroke:rgb(0%,0%,0%);stroke-opacity:1;stroke-miterlimit:10;" d="M 355.714844 307.027344 L 335.714844 307.027344 L 335.714844 317.027344 L 355.714844 317.027344 L 355.714844 337.027344 L 365.714844 337.027344 L 365.714844 317.027344 L 385.714844 317.027344 L 385.714844 307.027344 L 365.714844 307.027344 L 365.714844 287.027344 L 355.714844 287.027344 L 355.714844 307.027344 "/>
<path style="fill-rule:nonzero;fill:rgb(35%,70%,90%);fill-opacity:1;stroke-width:1;stroke-linecap:butt;stroke-linejoin:round;stroke:rgb(0%,0%,0%);stroke-opacity:1;stroke-miterlimit:10;" d="M 87.488281 117.167969 L 67.488281 117.167969 L 67.488281 127.167969 L 87.488281 127.167969 L 87.488281 147.167969 L 97.488281 147.167969 L 97.488281 127.167969 L 117.488281 127.167969 L 117.488281 117.167969 L 97.488281 117.167969 L 97.488281 97.167969 L 87.488281 97.167969 L 87.488281 117.167969 "/>
<path style="fill-rule:nonzero;fill:rgb(35%,70%,90%);fill-opacity:1;stroke-width:1;stroke-linecap:butt;stroke-linejoin:round;stroke:rgb(0%,0%,0%);stroke-opacity:1;stroke-miterlimit:10;" d="M 384.277344 83.886719 L 364.277344 83.886719 L 364.277344 93.886719 L 384.277344 93.886719 L 384.277344 113.886719 L 394.277344 113.886719 L 394.277344 93.886719 L 414.277344 93.886719 L 414.277344 83.886719 L 394.277344 83.886719 L 394.277344 63.886719 L 384.277344 63.886719 L 384.277344 83.886719 "/>
<path style="fill-rule:nonzero;fill:rgb(35%,70%,90%);fill-opacity:1;stroke-width:1;stroke-linecap:butt;stroke-linejoin:round;stroke:rgb(0%,0%,0%);stroke-opacity:1;stroke-miterlimit:10;" d="M 430.210938 185.074219 L 410.210938 185.074219 L 410.210938 195.074219 L 430.210938 195.074219 L 430.210938 215.074219 L 440.210938 215.074219 L 440.210938 195.074219 L 460.210938 195.074219 L 460.210938 185.074219 L 440.210938 185.074219 L 440.210938 165.074219 L 430.210938 165.074219 L 430.210938 185.074219 "/>
<path style="fill-rule:nonzero;fill:rgb(35%,70%,90%);fill-opacity:1;stroke-width:1;stroke-linecap:butt;stroke-linejoin:round;stroke:rgb(0%,0%,0%);stroke-opacity:1;stroke-miterlimit:10;" d="M 322.628906 32.792969 L 302.628906 32.792969 L 302.628906 42.792969 L 322.628906 42.792969 L 322.628906 62.792969 L 332.628906 62.792969 L 332.628906 42.792969 L 352.628906 42.792969 L 352.628906 32.792969 L 332.628906 32.792969 L 332.628906 12.792969 L 322.628906 12.792969 L 322.628906 32.792969 "/>
<path style="fill-rule:nonzero;fill:rgb(35%,70%,90%);fill-opacity:1;stroke-width:1;stroke-linecap:butt;stroke-linejoin:round;stroke:rgb(0%,0%,0%);stroke-opacity:1;stroke-miterlimit:10;" d="M 61.441406 447.3125 L 41.441406 447.3125 L 41.441406 457.3125 L 61.441406 457.3125 L 61.441406 477.3125 L 71.441406 477.3125 L 71.441406 457.3125 L 91.441406 457.3125 L 91.441406 447.3125 L 71.441406 447.3125 L 71.441406 427.3125 L 61.441406 427.3125 L 61.441406 447.3125 "/>
</g>
</svg>
