<?xml version="1.0" encoding="UTF-8"?>
<svg xmlns="http://www.w3.org/2000/svg" xmlns:xlink="http://www.w3.org/1999/xlink" width="517pt" height="517pt" viewBox="0 0 517 517" version="1.1">
<g id="surface5486">
<rect x="0" y="0" width="517" height="517" style="fill:rgb(90%,90%,90%);fill-opacity:1;stroke:none;"/>
<path style="fill-rule:nonzero;fill:rgb(100%,100%,0%);fill-opacity:1;stroke-width:1;stroke-linecap:butt;stroke-linejoin:miter;stroke:rgb(0%,0%,0%);stroke-opacity:1;stroke-miterlimit:10;" d="M 325.066406 77.515625 C 325.066406 94.085938 311.632812 107.515625 295.066406 107.515625 C 278.496094 107.515625 265.066406 94.085938 265.066406 77.515625 C 265.066406 60.945312 278.496094 47.515625 295.066406 47.515625 C 311.632812 47.515625 325.066406 60.945312 325.066406 77.515625 "/>
<path style="fill-rule:nonzero;fill:rgb(100%,100%,0%);fill-opacity:1;stroke-width:1;stroke-linecap:butt;stroke-linejoin:miter;stroke:rgb(0%,0%,0%);stroke-opacity:1;stroke-miterlimit:10;" d="M 126.308594 163.105469 C 126.308594 179.675781 112.878906 193.105469 96.308594 193.105469 C 79.738281 193.105469 66.308594 179.675781 66.308594 163.105469 C 66.308594 146.535156 79.738281 133.105469 96.308594 133.105469 C 112.878906 133.105469 126.308594 146.535156 126.308594 163.105469 "/>
<path style="fill-rule:nonzero;fill:rgb(100%,100%,0%);fill-opacity:1;stroke-width:1;stroke-linecap:butt;stroke-linejoin:miter;stroke:rgb(0%,0%,0%);stroke-opacity:1;stroke-miterlimit:10;" d="M 226.230469 367.019531 C 226.230469 383.589844 212.800781 397.019531 196.230469 397.019531 C 179.660156 397.019531 166.230469 383.589844 166.230469 367.019531 C 166.230469 350.453125 179.660156 337.019531 196.230469 337.019531 C 212.800781 337.019531 226.230469 350.453125 226.230469 367.019531 "/>
<path style="fill-rule:nonzero;fill:rgb(100%,100%,0%);fill-opacity:1;stroke-width:1;stroke-linecap:butt;stroke-linejoin:miter;stroke:rgb(0%,0%,0%);stroke-opacity:1;stroke-miterlimit:10;" d="M 125.824219 369.671875 C 125.824219 386.238281 112.390625 399.671875 95.824219 399.671875 C 79.253906 399.671875 65.824219 386.238281 65.824219 369.671875 C 65.824219 353.101562 79.253906 339.671875 95.824219 339.671875 C 112.390625 339.671875 125.824219 353.101562 125.824219 369.671875 "/>
<path style="fill-rule:nonzero;fill:rgb(100%,100%,0%);fill-opacity:1;stroke-width:1;stroke-linecap:butt;stroke-linejoin:miter;stroke:rgb(0%,0%,0%);stroke-opacity:1;stroke-miterlimit:10;" d="M 74.488281 335.894531 C 74.488281 352.464844 61.054688 365.894531 44.488281 365.894531 C 27.917969 365.894531 14.488281 352.464844 14.488281 335.894531 C 14.488281 319.328125 27.917969 305.894531 44.488281 305.894531 C 61.054688 305.894531 74.488281 319.328125 74.488281 335.894531 "/>
<path style="fill-rule:nonzero;fill:rgb(100%,100%,0%);fill-opacity:1;stroke-width:1;stroke-linecap:butt;stroke-linejoin:miter;stroke:rgb(0%,0%,0%);stroke-opacity:1;stroke-miterlimit:10;" d="M 206.300781 306.53125 C 206.300781 323.097656 192.867188 336.53125 176.300781 336.53125 C 159.730469 336.53125 146.300781 323.097656 146.300781 306.53125 C 146.300781 289.960938 159.730469 276.53125 176.300781 276.53125 C 192.867188 276.53125 206.300781 289.960938 206.300781 306.53125 "/>
<path style="fill-rule:nonzero;fill:rgb(100%,100%,0%);fill-opacity:1;stroke-width:1;stroke-linecap:butt;stroke-linejoin:miter;stroke:rgb(0%,0%,0%);stroke-opacity:1;stroke-miterlimit:10;" d="M 217.214844 459.453125 C 217.214844 476.019531 203.785156 489.453125 187.214844 489.453125 C 170.648438 489.453125 157.214844 476.019531 157.214844 459.453125 C 157.214844 442.882812 170.648438 429.453125 187.214844 429.453125 C 203.785156 429.453125 217.214844 442.882812 217.214844 459.453125 "/>
<path style="fill-rule:nonzero;fill:rgb(100%,100%,0%);fill-opacity:1;stroke-width:1;stroke-linecap:butt;stroke-linejoin:miter;stroke:rgb(0%,0%,0%);stroke-opacity:1;stroke-miterlimit:10;" d="M 129.179688 465.128906 C 129.179688 481.699219 115.75 495.128906 99.179688 495.128906 C 82.613281 495.128906 69.179688 481.699219 69.179688 465.128906 C 69.179688 448.5625 82.613281 435.128906 99.179688 435.128906 C 115.75 435.128906 129.179688 448.5625 129.179688 465.128906 "/>
</g>
</svg>
