<?xml version="1.0" encoding="UTF-8"?>
<svg xmlns="http://www.w3.org/2000/svg" xmlns:xlink="http://www.w3.org/1999/xlink" width="517pt" height="517pt" viewBox="0 0 517 517" version="1.1">
<g id="surface4476">
<rect x="0" y="0" width="517" height="517" style="fill:rgb(90%,90%,90%);fill-opacity:1;stroke:none;"/>
<path style="fill:none;stroke-width:5;stroke-linecap:butt;stroke-linejoin:round;stroke:rgb(100%,0%,0%);stroke-opacity:1;stroke-miterlimit:10;" d="M 5 261 L 261 261 L 261 517 L 5 517 Z M 5 261 "/>
<path style="fill-rule:nonzero;fill:rgb(100%,100%,0%);fill-opacity:1;stroke-width:1;stroke-linecap:butt;stroke-linejoin:round;stroke:rgb(0%,0%,0%);stroke-opacity:1;stroke-miterlimit:10;" d="M 163.34375 302.535156 L 163.34375 344.960938 L 205.769531 344.960938 L 205.769531 302.535156 L 163.34375 302.535156 "/>
<path style="fill-rule:nonzero;fill:rgb(100%,7%,57%);fill-opacity:1;stroke-width:1;stroke-linecap:butt;stroke-linejoin:round;stroke:rgb(0%,0%,0%);stroke-opacity:1;stroke-miterlimit:10;" d="M 55.0625 192.734375 L 55.0625 235.160156 L 97.488281 235.160156 L 97.488281 192.734375 L 55.0625 192.734375 "/>
<path style="fill-rule:nonzero;fill:rgb(100%,7%,57%);fill-opacity:1;stroke-width:1;stroke-linecap:butt;stroke-linejoin:round;stroke:rgb(0%,0%,0%);stroke-opacity:1;stroke-miterlimit:10;" d="M 102.449219 63.527344 L 102.449219 105.953125 L 144.875 105.953125 L 144.875 63.527344 L 102.449219 63.527344 "/>
<path style="fill-rule:nonzero;fill:rgb(100%,7%,57%);fill-opacity:1;stroke-width:1;stroke-linecap:butt;stroke-linejoin:round;stroke:rgb(0%,0%,0%);stroke-opacity:1;stroke-miterlimit:10;" d="M 452.539062 157.769531 L 452.539062 200.195312 L 494.96875 200.195312 L 494.96875 157.769531 L 452.539062 157.769531 "/>
<path style="fill-rule:nonzero;fill:rgb(100%,7%,57%);fill-opacity:1;stroke-width:1;stroke-linecap:butt;stroke-linejoin:round;stroke:rgb(0%,0%,0%);stroke-opacity:1;stroke-miterlimit:10;" d="M 342.050781 371.652344 L 342.050781 414.078125 L 384.476562 414.078125 L 384.476562 371.652344 L 342.050781 371.652344 "/>
<path style="fill-rule:nonzero;fill:rgb(67%,100%,18%);fill-opacity:1;stroke-width:1;stroke-linecap:butt;stroke-linejoin:round;stroke:rgb(0%,0%,0%);stroke-opacity:1;stroke-miterlimit:10;" d="M 401.382812 399.988281 L 401.382812 442.417969 L 443.8125 442.417969 L 443.8125 399.988281 L 401.382812 399.988281 "/>
</g>
</svg>
