<?xml version="1.0" encoding="UTF-8"?>
<svg xmlns="http://www.w3.org/2000/svg" xmlns:xlink="http://www.w3.org/1999/xlink" width="517pt" height="517pt" viewBox="0 0 517 517" version="1.1">
<g id="surface4196">
<rect x="0" y="0" width="517" height="517" style="fill:rgb(90%,90%,90%);fill-opacity:1;stroke:none;"/>
<path style="fill:none;stroke-width:5;stroke-linecap:butt;stroke-linejoin:round;stroke:rgb(100%,0%,0%);stroke-opacity:1;stroke-miterlimit:10;" d="M 261 5 L 517 5 L 517 261 L 261 261 Z M 261 5 "/>
<path style="fill-rule:nonzero;fill:rgb(35%,70%,90%);fill-opacity:1;stroke-width:1;stroke-linecap:butt;stroke-linejoin:round;stroke:rgb(0%,0%,0%);stroke-opacity:1;stroke-miterlimit:10;" d="M 433.492188 186.3125 C 433.492188 202.878906 420.0625 216.3125 403.492188 216.3125 C 386.925781 216.3125 373.492188 202.878906 373.492188 186.3125 C 373.492188 169.742188 386.925781 156.3125 403.492188 156.3125 C 420.0625 156.3125 433.492188 169.742188 433.492188 186.3125 "/>
<path style="fill-rule:nonzero;fill:rgb(100%,0%,0%);fill-opacity:1;stroke-width:1;stroke-linecap:butt;stroke-linejoin:round;stroke:rgb(0%,0%,0%);stroke-opacity:1;stroke-miterlimit:10;" d="M 385.300781 356.21875 C 385.300781 372.785156 371.867188 386.21875 355.300781 386.21875 C 338.730469 386.21875 325.300781 372.785156 325.300781 356.21875 C 325.300781 339.648438 338.730469 326.21875 355.300781 326.21875 C 371.867188 326.21875 385.300781 339.648438 385.300781 356.21875 "/>
<path style="fill-rule:nonzero;fill:rgb(100%,0%,0%);fill-opacity:1;stroke-width:1;stroke-linecap:butt;stroke-linejoin:round;stroke:rgb(0%,0%,0%);stroke-opacity:1;stroke-miterlimit:10;" d="M 133.5625 462.949219 C 133.5625 479.519531 120.128906 492.949219 103.5625 492.949219 C 86.992188 492.949219 73.5625 479.519531 73.5625 462.949219 C 73.5625 446.382812 86.992188 432.949219 103.5625 432.949219 C 120.128906 432.949219 133.5625 446.382812 133.5625 462.949219 "/>
<path style="fill-rule:nonzero;fill:rgb(100%,0%,0%);fill-opacity:1;stroke-width:1;stroke-linecap:butt;stroke-linejoin:round;stroke:rgb(0%,0%,0%);stroke-opacity:1;stroke-miterlimit:10;" d="M 147.683594 295.113281 C 147.683594 311.683594 134.25 325.113281 117.683594 325.113281 C 101.113281 325.113281 87.683594 311.683594 87.683594 295.113281 C 87.683594 278.546875 101.113281 265.113281 117.683594 265.113281 C 134.25 265.113281 147.683594 278.546875 147.683594 295.113281 "/>
<path style="fill-rule:nonzero;fill:rgb(100%,0%,0%);fill-opacity:1;stroke-width:1;stroke-linecap:butt;stroke-linejoin:round;stroke:rgb(0%,0%,0%);stroke-opacity:1;stroke-miterlimit:10;" d="M 144.773438 386.578125 C 144.773438 403.148438 131.34375 416.578125 114.773438 416.578125 C 98.207031 416.578125 84.773438 403.148438 84.773438 386.578125 C 84.773438 370.011719 98.207031 356.578125 114.773438 356.578125 C 131.34375 356.578125 144.773438 370.011719 144.773438 386.578125 "/>
<path style="fill-rule:nonzero;fill:rgb(35%,70%,90%);fill-opacity:1;stroke-width:1;stroke-linecap:butt;stroke-linejoin:round;stroke:rgb(0%,0%,0%);stroke-opacity:1;stroke-miterlimit:10;" d="M 90.480469 64.148438 C 90.480469 80.71875 77.046875 94.148438 60.480469 94.148438 C 43.910156 94.148438 30.480469 80.71875 30.480469 64.148438 C 30.480469 47.582031 43.910156 34.148438 60.480469 34.148438 C 77.046875 34.148438 90.480469 47.582031 90.480469 64.148438 "/>
</g>
</svg>
