<?xml version="1.0" encoding="UTF-8"?>
<svg xmlns="http://www.w3.org/2000/svg" xmlns:xlink="http://www.w3.org/1999/xlink" width="517pt" height="517pt" viewBox="0 0 517 517" version="1.1">
<g id="surface391">
<rect x="0" y="0" width="517" height="517" style="fill:rgb(90%,90%,90%);fill-opacity:1;stroke:none;"/>
<path style="fill:none;stroke-width:5;stroke-linecap:butt;stroke-linejoin:round;stroke:rgb(100%,0%,0%);stroke-opacity:1;stroke-miterlimit:10;" d="M 5 5 L 261 5 L 261 261 L 5 261 Z M 5 5 "/>
<path style="fill-rule:nonzero;fill:rgb(25%,88%,82%);fill-opacity:1;stroke-width:1;stroke-linecap:butt;stroke-linejoin:round;stroke:rgb(0%,0%,0%);stroke-opacity:1;stroke-miterlimit:10;" d="M 74.980469 57.410156 L 54.980469 57.410156 L 54.980469 67.410156 L 74.980469 67.410156 L 74.980469 87.410156 L 84.980469 87.410156 L 84.980469 67.410156 L 104.980469 67.410156 L 104.980469 57.410156 L 84.980469 57.410156 L 84.980469 37.410156 L 74.980469 37.410156 L 74.980469 57.410156 "/>
<path style="fill-rule:nonzero;fill:rgb(100%,100%,0%);fill-opacity:1;stroke-width:1;stroke-linecap:butt;stroke-linejoin:round;stroke:rgb(0%,0%,0%);stroke-opacity:1;stroke-miterlimit:10;" d="M 289.230469 45.996094 L 269.230469 45.996094 L 269.230469 55.996094 L 289.230469 55.996094 L 289.230469 75.996094 L 299.230469 75.996094 L 299.230469 55.996094 L 319.230469 55.996094 L 319.230469 45.996094 L 299.230469 45.996094 L 299.230469 25.996094 L 289.230469 25.996094 L 289.230469 45.996094 "/>
<path style="fill-rule:nonzero;fill:rgb(0%,0%,0%);fill-opacity:1;stroke-width:1;stroke-linecap:butt;stroke-linejoin:round;stroke:rgb(0%,0%,0%);stroke-opacity:1;stroke-miterlimit:10;" d="M 286.007812 209.359375 L 266.007812 209.359375 L 266.007812 219.359375 L 286.007812 219.359375 L 286.007812 239.359375 L 296.007812 239.359375 L 296.007812 219.359375 L 316.007812 219.359375 L 316.007812 209.359375 L 296.007812 209.359375 L 296.007812 189.359375 L 286.007812 189.359375 L 286.007812 209.359375 "/>
<path style="fill-rule:nonzero;fill:rgb(0%,0%,0%);fill-opacity:1;stroke-width:1;stroke-linecap:butt;stroke-linejoin:round;stroke:rgb(0%,0%,0%);stroke-opacity:1;stroke-miterlimit:10;" d="M 456.257812 457.910156 L 436.257812 457.910156 L 436.257812 467.910156 L 456.257812 467.910156 L 456.257812 487.910156 L 466.257812 487.910156 L 466.257812 467.910156 L 486.257812 467.910156 L 486.257812 457.910156 L 466.257812 457.910156 L 466.257812 437.910156 L 456.257812 437.910156 L 456.257812 457.910156 "/>
</g>
</svg>
