<?xml version="1.0" encoding="UTF-8"?>
<svg xmlns="http://www.w3.org/2000/svg" xmlns:xlink="http://www.w3.org/1999/xlink" width="517pt" height="517pt" viewBox="0 0 517 517" version="1.1">
<g id="surface4291">
<rect x="0" y="0" width="517" height="517" style="fill:rgb(90%,90%,90%);fill-opacity:1;stroke:none;"/>
<path style="fill:none;stroke-width:5;stroke-linecap:butt;stroke-linejoin:round;stroke:rgb(100%,0%,0%);stroke-opacity:1;stroke-miterlimit:10;" d="M 261 5 L 517 5 L 517 261 L 261 261 Z M 261 5 "/>
<path style="fill-rule:nonzero;fill:rgb(25%,88%,82%);fill-opacity:1;stroke-width:1;stroke-linecap:butt;stroke-linejoin:round;stroke:rgb(0%,0%,0%);stroke-opacity:1;stroke-miterlimit:10;" d="M 376.75 178.894531 L 356.75 178.894531 L 356.75 188.894531 L 376.75 188.894531 L 376.75 208.894531 L 386.75 208.894531 L 386.75 188.894531 L 406.75 188.894531 L 406.75 178.894531 L 386.75 178.894531 L 386.75 158.894531 L 376.75 158.894531 L 376.75 178.894531 "/>
<path style="fill-rule:nonzero;fill:rgb(90%,65%,0%);fill-opacity:1;stroke-width:1;stroke-linecap:butt;stroke-linejoin:round;stroke:rgb(0%,0%,0%);stroke-opacity:1;stroke-miterlimit:10;" d="M 405.523438 287.730469 L 385.523438 287.730469 L 385.523438 297.730469 L 405.523438 297.730469 L 405.523438 317.730469 L 415.523438 317.730469 L 415.523438 297.730469 L 435.523438 297.730469 L 435.523438 287.730469 L 415.523438 287.730469 L 415.523438 267.730469 L 405.523438 267.730469 L 405.523438 287.730469 "/>
<path style="fill-rule:nonzero;fill:rgb(25%,88%,82%);fill-opacity:1;stroke-width:1;stroke-linecap:butt;stroke-linejoin:round;stroke:rgb(0%,0%,0%);stroke-opacity:1;stroke-miterlimit:10;" d="M 78.375 379.566406 L 58.375 379.566406 L 58.375 389.566406 L 78.375 389.566406 L 78.375 409.566406 L 88.375 409.566406 L 88.375 389.566406 L 108.375 389.566406 L 108.375 379.566406 L 88.375 379.566406 L 88.375 359.566406 L 78.375 359.566406 L 78.375 379.566406 "/>
<path style="fill-rule:nonzero;fill:rgb(25%,88%,82%);fill-opacity:1;stroke-width:1;stroke-linecap:butt;stroke-linejoin:round;stroke:rgb(0%,0%,0%);stroke-opacity:1;stroke-miterlimit:10;" d="M 48.980469 80.785156 L 28.980469 80.785156 L 28.980469 90.785156 L 48.980469 90.785156 L 48.980469 110.785156 L 58.980469 110.785156 L 58.980469 90.785156 L 78.980469 90.785156 L 78.980469 80.785156 L 58.980469 80.785156 L 58.980469 60.785156 L 48.980469 60.785156 L 48.980469 80.785156 "/>
<path style="fill-rule:nonzero;fill:rgb(25%,88%,82%);fill-opacity:1;stroke-width:1;stroke-linecap:butt;stroke-linejoin:round;stroke:rgb(0%,0%,0%);stroke-opacity:1;stroke-miterlimit:10;" d="M 125.371094 207.84375 L 105.371094 207.84375 L 105.371094 217.84375 L 125.371094 217.84375 L 125.371094 237.84375 L 135.371094 237.84375 L 135.371094 217.84375 L 155.371094 217.84375 L 155.371094 207.84375 L 135.371094 207.84375 L 135.371094 187.84375 L 125.371094 187.84375 L 125.371094 207.84375 "/>
<path style="fill-rule:nonzero;fill:rgb(25%,88%,82%);fill-opacity:1;stroke-width:1;stroke-linecap:butt;stroke-linejoin:round;stroke:rgb(0%,0%,0%);stroke-opacity:1;stroke-miterlimit:10;" d="M 160.605469 98.316406 L 140.605469 98.316406 L 140.605469 108.316406 L 160.605469 108.316406 L 160.605469 128.316406 L 170.605469 128.316406 L 170.605469 108.316406 L 190.605469 108.316406 L 190.605469 98.316406 L 170.605469 98.316406 L 170.605469 78.316406 L 160.605469 78.316406 L 160.605469 98.316406 "/>
</g>
</svg>
