<?xml version="1.0" encoding="UTF-8"?>
<svg xmlns="http://www.w3.org/2000/svg" xmlns:xlink="http://www.w3.org/1999/xlink" width="517pt" height="517pt" viewBox="0 0 517 517" version="1.1">
<g id="surface9226">
<rect x="0" y="0" width="517" height="517" style="fill:rgb(90%,90%,90%);fill-opacity:1;stroke:none;"/>
<path style="fill:none;stroke-width:5;stroke-linecap:butt;stroke-linejoin:round;stroke:rgb(100%,0%,0%);stroke-opacity:1;stroke-miterlimit:10;" d="M 261 261 L 517 261 L 517 517 L 261 517 Z M 261 261 "/>
<path style="fill-rule:nonzero;fill:rgb(100%,0%,0%);fill-opacity:1;stroke-width:1;stroke-linecap:butt;stroke-linejoin:round;stroke:rgb(0%,0%,0%);stroke-opacity:1;stroke-miterlimit:10;" d="M 428.480469 341.777344 L 408.480469 341.777344 L 408.480469 351.777344 L 428.480469 351.777344 L 428.480469 371.777344 L 438.480469 371.777344 L 438.480469 351.777344 L 458.480469 351.777344 L 458.480469 341.777344 L 438.480469 341.777344 L 438.480469 321.777344 L 428.480469 321.777344 L 428.480469 341.777344 "/>
<path style="fill-rule:nonzero;fill:rgb(50%,0%,50%);fill-opacity:1;stroke-width:1;stroke-linecap:butt;stroke-linejoin:round;stroke:rgb(0%,0%,0%);stroke-opacity:1;stroke-miterlimit:10;" d="M 46.242188 326.636719 L 26.242188 326.636719 L 26.242188 336.636719 L 46.242188 336.636719 L 46.242188 356.636719 L 56.242188 356.636719 L 56.242188 336.636719 L 76.242188 336.636719 L 76.242188 326.636719 L 56.242188 326.636719 L 56.242188 306.636719 L 46.242188 306.636719 L 46.242188 326.636719 "/>
<path style="fill-rule:nonzero;fill:rgb(50%,0%,50%);fill-opacity:1;stroke-width:1;stroke-linecap:butt;stroke-linejoin:round;stroke:rgb(0%,0%,0%);stroke-opacity:1;stroke-miterlimit:10;" d="M 99.179688 443.351562 L 79.179688 443.351562 L 79.179688 453.351562 L 99.179688 453.351562 L 99.179688 473.351562 L 109.179688 473.351562 L 109.179688 453.351562 L 129.179688 453.351562 L 129.179688 443.351562 L 109.179688 443.351562 L 109.179688 423.351562 L 99.179688 423.351562 L 99.179688 443.351562 "/>
<path style="fill-rule:nonzero;fill:rgb(50%,0%,50%);fill-opacity:1;stroke-width:1;stroke-linecap:butt;stroke-linejoin:round;stroke:rgb(0%,0%,0%);stroke-opacity:1;stroke-miterlimit:10;" d="M 316.761719 168.039062 L 296.761719 168.039062 L 296.761719 178.039062 L 316.761719 178.039062 L 316.761719 198.039062 L 326.761719 198.039062 L 326.761719 178.039062 L 346.761719 178.039062 L 346.761719 168.039062 L 326.761719 168.039062 L 326.761719 148.039062 L 316.761719 148.039062 L 316.761719 168.039062 "/>
<path style="fill-rule:nonzero;fill:rgb(50%,0%,50%);fill-opacity:1;stroke-width:1;stroke-linecap:butt;stroke-linejoin:round;stroke:rgb(0%,0%,0%);stroke-opacity:1;stroke-miterlimit:10;" d="M 391.082031 57.09375 L 371.082031 57.09375 L 371.082031 67.09375 L 391.082031 67.09375 L 391.082031 87.09375 L 401.082031 87.09375 L 401.082031 67.09375 L 421.082031 67.09375 L 421.082031 57.09375 L 401.082031 57.09375 L 401.082031 37.09375 L 391.082031 37.09375 L 391.082031 57.09375 "/>
<path style="fill-rule:nonzero;fill:rgb(50%,0%,50%);fill-opacity:1;stroke-width:1;stroke-linecap:butt;stroke-linejoin:round;stroke:rgb(0%,0%,0%);stroke-opacity:1;stroke-miterlimit:10;" d="M 445.367188 156.132812 L 425.367188 156.132812 L 425.367188 166.132812 L 445.367188 166.132812 L 445.367188 186.132812 L 455.367188 186.132812 L 455.367188 166.132812 L 475.367188 166.132812 L 475.367188 156.132812 L 455.367188 156.132812 L 455.367188 136.132812 L 445.367188 136.132812 L 445.367188 156.132812 "/>
</g>
</svg>
