<?xml version="1.0" encoding="UTF-8"?>
<svg xmlns="http://www.w3.org/2000/svg" xmlns:xlink="http://www.w3.org/1999/xlink" width="517pt" height="517pt" viewBox="0 0 517 517" version="1.1">
<g id="surface4676">
<rect x="0" y="0" width="517" height="517" style="fill:rgb(90%,90%,90%);fill-opacity:1;stroke:none;"/>
<path style="fill:none;stroke-width:5;stroke-linecap:butt;stroke-linejoin:round;stroke:rgb(100%,0%,0%);stroke-opacity:1;stroke-miterlimit:10;" d="M 5 261 L 261 261 L 261 517 L 5 517 Z M 5 261 "/>
<path style="fill-rule:nonzero;fill:rgb(25%,88%,82%);fill-opacity:1;stroke-width:1;stroke-linecap:butt;stroke-linejoin:round;stroke:rgb(0%,0%,0%);stroke-opacity:1;stroke-miterlimit:10;" d="M 215.875 416.308594 C 215.875 401.910156 191.875 401.910156 191.875 416.308594 C 191.875 430.710938 215.875 433.109375 215.875 445.109375 C 215.875 433.109375 239.875 430.710938 239.875 416.308594 C 239.875 401.910156 215.875 401.910156 215.875 416.308594 "/>
<path style="fill-rule:nonzero;fill:rgb(100%,100%,0%);fill-opacity:1;stroke-width:1;stroke-linecap:butt;stroke-linejoin:round;stroke:rgb(0%,0%,0%);stroke-opacity:1;stroke-miterlimit:10;" d="M 371.230469 165.941406 C 371.230469 151.539062 347.230469 151.539062 347.230469 165.941406 C 347.230469 180.339844 371.230469 182.742188 371.230469 194.742188 C 371.230469 182.742188 395.230469 180.339844 395.230469 165.941406 C 395.230469 151.539062 371.230469 151.539062 371.230469 165.941406 "/>
<path style="fill-rule:nonzero;fill:rgb(100%,100%,0%);fill-opacity:1;stroke-width:1;stroke-linecap:butt;stroke-linejoin:round;stroke:rgb(0%,0%,0%);stroke-opacity:1;stroke-miterlimit:10;" d="M 327.414062 439.367188 C 327.414062 424.96875 303.414062 424.96875 303.414062 439.367188 C 303.414062 453.765625 327.414062 456.167969 327.414062 468.167969 C 327.414062 456.167969 351.414062 453.765625 351.414062 439.367188 C 351.414062 424.96875 327.414062 424.96875 327.414062 439.367188 "/>
<path style="fill-rule:nonzero;fill:rgb(100%,100%,0%);fill-opacity:1;stroke-width:1;stroke-linecap:butt;stroke-linejoin:round;stroke:rgb(0%,0%,0%);stroke-opacity:1;stroke-miterlimit:10;" d="M 363.628906 339.101562 C 363.628906 324.703125 339.628906 324.703125 339.628906 339.101562 C 339.628906 353.503906 363.628906 355.902344 363.628906 367.902344 C 363.628906 355.902344 387.628906 353.503906 387.628906 339.101562 C 387.628906 324.703125 363.628906 324.703125 363.628906 339.101562 "/>
<path style="fill-rule:nonzero;fill:rgb(100%,100%,0%);fill-opacity:1;stroke-width:1;stroke-linecap:butt;stroke-linejoin:round;stroke:rgb(0%,0%,0%);stroke-opacity:1;stroke-miterlimit:10;" d="M 435.8125 405.566406 C 435.8125 391.167969 411.8125 391.167969 411.8125 405.566406 C 411.8125 419.96875 435.8125 422.367188 435.8125 434.367188 C 435.8125 422.367188 459.8125 419.96875 459.8125 405.566406 C 459.8125 391.167969 435.8125 391.167969 435.8125 405.566406 "/>
<path style="fill-rule:nonzero;fill:rgb(25%,88%,82%);fill-opacity:1;stroke-width:1;stroke-linecap:butt;stroke-linejoin:round;stroke:rgb(0%,0%,0%);stroke-opacity:1;stroke-miterlimit:10;" d="M 97.355469 138.160156 C 97.355469 123.761719 73.355469 123.761719 73.355469 138.160156 C 73.355469 152.558594 97.355469 154.960938 97.355469 166.960938 C 97.355469 154.960938 121.355469 152.558594 121.355469 138.160156 C 121.355469 123.761719 97.355469 123.761719 97.355469 138.160156 "/>
</g>
</svg>
