<?xml version="1.0" encoding="UTF-8"?>
<svg xmlns="http://www.w3.org/2000/svg" xmlns:xlink="http://www.w3.org/1999/xlink" width="517pt" height="517pt" viewBox="0 0 517 517" version="1.1">
<g id="surface371">
<rect x="0" y="0" width="517" height="517" style="fill:rgb(90%,90%,90%);fill-opacity:1;stroke:none;"/>
<path style="fill:none;stroke-width:5;stroke-linecap:butt;stroke-linejoin:round;stroke:rgb(100%,0%,0%);stroke-opacity:1;stroke-miterlimit:10;" d="M 5 5 L 261 5 L 261 261 L 5 261 Z M 5 5 "/>
<path style="fill-rule:nonzero;fill:rgb(0%,0%,0%);fill-opacity:1;stroke-width:1;stroke-linecap:butt;stroke-linejoin:round;stroke:rgb(0%,0%,0%);stroke-opacity:1;stroke-miterlimit:10;" d="M 66.074219 103.28125 L 46.074219 103.28125 L 46.074219 113.28125 L 66.074219 113.28125 L 66.074219 133.28125 L 76.074219 133.28125 L 76.074219 113.28125 L 96.074219 113.28125 L 96.074219 103.28125 L 76.074219 103.28125 L 76.074219 83.28125 L 66.074219 83.28125 L 66.074219 103.28125 "/>
<path style="fill-rule:nonzero;fill:rgb(100%,100%,0%);fill-opacity:1;stroke-width:1;stroke-linecap:butt;stroke-linejoin:round;stroke:rgb(0%,0%,0%);stroke-opacity:1;stroke-miterlimit:10;" d="M 49.421875 388.390625 L 29.421875 388.390625 L 29.421875 398.390625 L 49.421875 398.390625 L 49.421875 418.390625 L 59.421875 418.390625 L 59.421875 398.390625 L 79.421875 398.390625 L 79.421875 388.390625 L 59.421875 388.390625 L 59.421875 368.390625 L 49.421875 368.390625 L 49.421875 388.390625 "/>
<path style="fill-rule:nonzero;fill:rgb(0%,0%,0%);fill-opacity:1;stroke-width:1;stroke-linecap:butt;stroke-linejoin:round;stroke:rgb(0%,0%,0%);stroke-opacity:1;stroke-miterlimit:10;" d="M 305.941406 45.023438 L 285.941406 45.023438 L 285.941406 55.023438 L 305.941406 55.023438 L 305.941406 75.023438 L 315.941406 75.023438 L 315.941406 55.023438 L 335.941406 55.023438 L 335.941406 45.023438 L 315.941406 45.023438 L 315.941406 25.023438 L 305.941406 25.023438 L 305.941406 45.023438 "/>
<path style="fill-rule:nonzero;fill:rgb(0%,0%,0%);fill-opacity:1;stroke-width:1;stroke-linecap:butt;stroke-linejoin:round;stroke:rgb(0%,0%,0%);stroke-opacity:1;stroke-miterlimit:10;" d="M 302.800781 146.03125 L 282.800781 146.03125 L 282.800781 156.03125 L 302.800781 156.03125 L 302.800781 176.03125 L 312.800781 176.03125 L 312.800781 156.03125 L 332.800781 156.03125 L 332.800781 146.03125 L 312.800781 146.03125 L 312.800781 126.03125 L 302.800781 126.03125 L 302.800781 146.03125 "/>
</g>
</svg>
