<?xml version="1.0" encoding="UTF-8"?>
<svg xmlns="http://www.w3.org/2000/svg" xmlns:xlink="http://www.w3.org/1999/xlink" width="517pt" height="517pt" viewBox="0 0 517 517" version="1.1">
<g id="surface9146">
<rect x="0" y="0" width="517" height="517" style="fill:rgb(90%,90%,90%);fill-opacity:1;stroke:none;"/>
<path style="fill:none;stroke-width:5;stroke-linecap:butt;stroke-linejoin:round;stroke:rgb(100%,0%,0%);stroke-opacity:1;stroke-miterlimit:10;" d="M 261 5 L 517 5 L 517 261 L 261 261 Z M 261 5 "/>
<path style="fill-rule:nonzero;fill:rgb(90%,65%,0%);fill-opacity:1;stroke-width:1;stroke-linecap:butt;stroke-linejoin:round;stroke:rgb(0%,0%,0%);stroke-opacity:1;stroke-miterlimit:10;" d="M 332.773438 49.207031 L 312.773438 49.207031 L 312.773438 59.207031 L 332.773438 59.207031 L 332.773438 79.207031 L 342.773438 79.207031 L 342.773438 59.207031 L 362.773438 59.207031 L 362.773438 49.207031 L 342.773438 49.207031 L 342.773438 29.207031 L 332.773438 29.207031 L 332.773438 49.207031 "/>
<path style="fill-rule:nonzero;fill:rgb(100%,100%,0%);fill-opacity:1;stroke-width:1;stroke-linecap:butt;stroke-linejoin:round;stroke:rgb(0%,0%,0%);stroke-opacity:1;stroke-miterlimit:10;" d="M 319.410156 372.597656 L 299.410156 372.597656 L 299.410156 382.597656 L 319.410156 382.597656 L 319.410156 402.597656 L 329.410156 402.597656 L 329.410156 382.597656 L 349.410156 382.597656 L 349.410156 372.597656 L 329.410156 372.597656 L 329.410156 352.597656 L 319.410156 352.597656 L 319.410156 372.597656 "/>
<path style="fill-rule:nonzero;fill:rgb(100%,100%,0%);fill-opacity:1;stroke-width:1;stroke-linecap:butt;stroke-linejoin:round;stroke:rgb(0%,0%,0%);stroke-opacity:1;stroke-miterlimit:10;" d="M 42.457031 168.425781 L 22.457031 168.425781 L 22.457031 178.425781 L 42.457031 178.425781 L 42.457031 198.425781 L 52.457031 198.425781 L 52.457031 178.425781 L 72.457031 178.425781 L 72.457031 168.425781 L 52.457031 168.425781 L 52.457031 148.425781 L 42.457031 148.425781 L 42.457031 168.425781 "/>
<path style="fill-rule:nonzero;fill:rgb(100%,100%,0%);fill-opacity:1;stroke-width:1;stroke-linecap:butt;stroke-linejoin:round;stroke:rgb(0%,0%,0%);stroke-opacity:1;stroke-miterlimit:10;" d="M 127.710938 135.148438 L 107.710938 135.148438 L 107.710938 145.148438 L 127.710938 145.148438 L 127.710938 165.148438 L 137.710938 165.148438 L 137.710938 145.148438 L 157.710938 145.148438 L 157.710938 135.148438 L 137.710938 135.148438 L 137.710938 115.148438 L 127.710938 115.148438 L 127.710938 135.148438 "/>
<path style="fill-rule:nonzero;fill:rgb(100%,100%,0%);fill-opacity:1;stroke-width:1;stroke-linecap:butt;stroke-linejoin:round;stroke:rgb(0%,0%,0%);stroke-opacity:1;stroke-miterlimit:10;" d="M 187.886719 202.085938 L 167.886719 202.085938 L 167.886719 212.085938 L 187.886719 212.085938 L 187.886719 232.085938 L 197.886719 232.085938 L 197.886719 212.085938 L 217.886719 212.085938 L 217.886719 202.085938 L 197.886719 202.085938 L 197.886719 182.085938 L 187.886719 182.085938 L 187.886719 202.085938 "/>
<path style="fill-rule:nonzero;fill:rgb(100%,100%,0%);fill-opacity:1;stroke-width:1;stroke-linecap:butt;stroke-linejoin:round;stroke:rgb(0%,0%,0%);stroke-opacity:1;stroke-miterlimit:10;" d="M 178.664062 66.476562 L 158.664062 66.476562 L 158.664062 76.476562 L 178.664062 76.476562 L 178.664062 96.476562 L 188.664062 96.476562 L 188.664062 76.476562 L 208.664062 76.476562 L 208.664062 66.476562 L 188.664062 66.476562 L 188.664062 46.476562 L 178.664062 46.476562 L 178.664062 66.476562 "/>
</g>
</svg>
