<?xml version="1.0" encoding="UTF-8"?>
<svg xmlns="http://www.w3.org/2000/svg" xmlns:xlink="http://www.w3.org/1999/xlink" width="517pt" height="517pt" viewBox="0 0 517 517" version="1.1">
<g id="surface336">
<rect x="0" y="0" width="517" height="517" style="fill:rgb(90%,90%,90%);fill-opacity:1;stroke:none;"/>
<path style="fill:none;stroke-width:5;stroke-linecap:butt;stroke-linejoin:round;stroke:rgb(100%,0%,0%);stroke-opacity:1;stroke-miterlimit:10;" d="M 5 5 L 261 5 L 261 261 L 5 261 Z M 5 5 "/>
<path style="fill-rule:nonzero;fill:rgb(0%,0%,0%);fill-opacity:1;stroke-width:1;stroke-linecap:butt;stroke-linejoin:round;stroke:rgb(0%,0%,0%);stroke-opacity:1;stroke-miterlimit:10;" d="M 135.121094 71.273438 L 115.121094 71.273438 L 115.121094 81.273438 L 135.121094 81.273438 L 135.121094 101.273438 L 145.121094 101.273438 L 145.121094 81.273438 L 165.121094 81.273438 L 165.121094 71.273438 L 145.121094 71.273438 L 145.121094 51.273438 L 135.121094 51.273438 L 135.121094 71.273438 "/>
<path style="fill-rule:nonzero;fill:rgb(100%,100%,0%);fill-opacity:1;stroke-width:1;stroke-linecap:butt;stroke-linejoin:round;stroke:rgb(0%,0%,0%);stroke-opacity:1;stroke-miterlimit:10;" d="M 188.765625 351.460938 L 168.765625 351.460938 L 168.765625 361.460938 L 188.765625 361.460938 L 188.765625 381.460938 L 198.765625 381.460938 L 198.765625 361.460938 L 218.765625 361.460938 L 218.765625 351.460938 L 198.765625 351.460938 L 198.765625 331.460938 L 188.765625 331.460938 L 188.765625 351.460938 "/>
<path style="fill-rule:nonzero;fill:rgb(100%,100%,0%);fill-opacity:1;stroke-width:1;stroke-linecap:butt;stroke-linejoin:round;stroke:rgb(0%,0%,0%);stroke-opacity:1;stroke-miterlimit:10;" d="M 62.917969 338.21875 L 42.917969 338.21875 L 42.917969 348.21875 L 62.917969 348.21875 L 62.917969 368.21875 L 72.917969 368.21875 L 72.917969 348.21875 L 92.917969 348.21875 L 92.917969 338.21875 L 72.917969 338.21875 L 72.917969 318.21875 L 62.917969 318.21875 L 62.917969 338.21875 "/>
<path style="fill-rule:nonzero;fill:rgb(100%,100%,0%);fill-opacity:1;stroke-width:1;stroke-linecap:butt;stroke-linejoin:round;stroke:rgb(0%,0%,0%);stroke-opacity:1;stroke-miterlimit:10;" d="M 332.910156 293.261719 L 312.910156 293.261719 L 312.910156 303.261719 L 332.910156 303.261719 L 332.910156 323.261719 L 342.910156 323.261719 L 342.910156 303.261719 L 362.910156 303.261719 L 362.910156 293.261719 L 342.910156 293.261719 L 342.910156 273.261719 L 332.910156 273.261719 L 332.910156 293.261719 "/>
</g>
</svg>
