<?xml version="1.0" encoding="UTF-8"?>
<svg xmlns="http://www.w3.org/2000/svg" xmlns:xlink="http://www.w3.org/1999/xlink" width="517pt" height="517pt" viewBox="0 0 517 517" version="1.1">
<g id="surface396">
<rect x="0" y="0" width="517" height="517" style="fill:rgb(90%,90%,90%);fill-opacity:1;stroke:none;"/>
<path style="fill:none;stroke-width:5;stroke-linecap:butt;stroke-linejoin:round;stroke:rgb(100%,0%,0%);stroke-opacity:1;stroke-miterlimit:10;" d="M 5 5 L 261 5 L 261 261 L 5 261 Z M 5 5 "/>
<path style="fill-rule:nonzero;fill:rgb(25%,88%,82%);fill-opacity:1;stroke-width:1;stroke-linecap:butt;stroke-linejoin:round;stroke:rgb(0%,0%,0%);stroke-opacity:1;stroke-miterlimit:10;" d="M 197.65625 131.445312 L 177.65625 131.445312 L 177.65625 141.445312 L 197.65625 141.445312 L 197.65625 161.445312 L 207.65625 161.445312 L 207.65625 141.445312 L 227.65625 141.445312 L 227.65625 131.445312 L 207.65625 131.445312 L 207.65625 111.445312 L 197.65625 111.445312 L 197.65625 131.445312 "/>
<path style="fill-rule:nonzero;fill:rgb(100%,100%,0%);fill-opacity:1;stroke-width:1;stroke-linecap:butt;stroke-linejoin:round;stroke:rgb(0%,0%,0%);stroke-opacity:1;stroke-miterlimit:10;" d="M 322.417969 428.78125 L 302.417969 428.78125 L 302.417969 438.78125 L 322.417969 438.78125 L 322.417969 458.78125 L 332.417969 458.78125 L 332.417969 438.78125 L 352.417969 438.78125 L 352.417969 428.78125 L 332.417969 428.78125 L 332.417969 408.78125 L 322.417969 408.78125 L 322.417969 428.78125 "/>
<path style="fill-rule:nonzero;fill:rgb(100%,100%,0%);fill-opacity:1;stroke-width:1;stroke-linecap:butt;stroke-linejoin:round;stroke:rgb(0%,0%,0%);stroke-opacity:1;stroke-miterlimit:10;" d="M 294.914062 164.382812 L 274.914062 164.382812 L 274.914062 174.382812 L 294.914062 174.382812 L 294.914062 194.382812 L 304.914062 194.382812 L 304.914062 174.382812 L 324.914062 174.382812 L 324.914062 164.382812 L 304.914062 164.382812 L 304.914062 144.382812 L 294.914062 144.382812 L 294.914062 164.382812 "/>
<path style="fill-rule:nonzero;fill:rgb(0%,0%,0%);fill-opacity:1;stroke-width:1;stroke-linecap:butt;stroke-linejoin:round;stroke:rgb(0%,0%,0%);stroke-opacity:1;stroke-miterlimit:10;" d="M 340.667969 64.652344 L 320.667969 64.652344 L 320.667969 74.652344 L 340.667969 74.652344 L 340.667969 94.652344 L 350.667969 94.652344 L 350.667969 74.652344 L 370.667969 74.652344 L 370.667969 64.652344 L 350.667969 64.652344 L 350.667969 44.652344 L 340.667969 44.652344 L 340.667969 64.652344 "/>
</g>
</svg>
