<?xml version="1.0" encoding="UTF-8"?>
<svg xmlns="http://www.w3.org/2000/svg" xmlns:xlink="http://www.w3.org/1999/xlink" width="517pt" height="517pt" viewBox="0 0 517 517" version="1.1">
<g id="surface4656">
<rect x="0" y="0" width="517" height="517" style="fill:rgb(90%,90%,90%);fill-opacity:1;stroke:none;"/>
<path style="fill:none;stroke-width:5;stroke-linecap:butt;stroke-linejoin:round;stroke:rgb(100%,0%,0%);stroke-opacity:1;stroke-miterlimit:10;" d="M 5 261 L 261 261 L 261 517 L 5 517 Z M 5 261 "/>
<path style="fill-rule:nonzero;fill:rgb(25%,88%,82%);fill-opacity:1;stroke-width:1;stroke-linecap:butt;stroke-linejoin:round;stroke:rgb(0%,0%,0%);stroke-opacity:1;stroke-miterlimit:10;" d="M 159.097656 438.972656 C 159.097656 424.570312 135.097656 424.570312 135.097656 438.972656 C 135.097656 453.371094 159.097656 455.769531 159.097656 467.769531 C 159.097656 455.769531 183.097656 453.371094 183.097656 438.972656 C 183.097656 424.570312 159.097656 424.570312 159.097656 438.972656 "/>
<path style="fill-rule:nonzero;fill:rgb(100%,100%,0%);fill-opacity:1;stroke-width:1;stroke-linecap:butt;stroke-linejoin:round;stroke:rgb(0%,0%,0%);stroke-opacity:1;stroke-miterlimit:10;" d="M 347.257812 109.578125 C 347.257812 95.175781 323.257812 95.175781 323.257812 109.578125 C 323.257812 123.976562 347.257812 126.378906 347.257812 138.378906 C 347.257812 126.378906 371.257812 123.976562 371.257812 109.578125 C 371.257812 95.175781 347.257812 95.175781 347.257812 109.578125 "/>
<path style="fill-rule:nonzero;fill:rgb(100%,100%,0%);fill-opacity:1;stroke-width:1;stroke-linecap:butt;stroke-linejoin:round;stroke:rgb(0%,0%,0%);stroke-opacity:1;stroke-miterlimit:10;" d="M 428.265625 26.371094 C 428.265625 11.972656 404.265625 11.972656 404.265625 26.371094 C 404.265625 40.773438 428.265625 43.171875 428.265625 55.171875 C 428.265625 43.171875 452.265625 40.773438 452.265625 26.371094 C 452.265625 11.972656 428.265625 11.972656 428.265625 26.371094 "/>
<path style="fill-rule:nonzero;fill:rgb(100%,100%,0%);fill-opacity:1;stroke-width:1;stroke-linecap:butt;stroke-linejoin:round;stroke:rgb(0%,0%,0%);stroke-opacity:1;stroke-miterlimit:10;" d="M 136.925781 144.75 C 136.925781 130.351562 112.925781 130.351562 112.925781 144.75 C 112.925781 159.152344 136.925781 161.550781 136.925781 173.550781 C 136.925781 161.550781 160.925781 159.152344 160.925781 144.75 C 160.925781 130.351562 136.925781 130.351562 136.925781 144.75 "/>
<path style="fill-rule:nonzero;fill:rgb(100%,100%,0%);fill-opacity:1;stroke-width:1;stroke-linecap:butt;stroke-linejoin:round;stroke:rgb(0%,0%,0%);stroke-opacity:1;stroke-miterlimit:10;" d="M 318.429688 401.855469 C 318.429688 387.457031 294.429688 387.457031 294.429688 401.855469 C 294.429688 416.253906 318.429688 418.65625 318.429688 430.65625 C 318.429688 418.65625 342.429688 416.253906 342.429688 401.855469 C 342.429688 387.457031 318.429688 387.457031 318.429688 401.855469 "/>
<path style="fill-rule:nonzero;fill:rgb(100%,100%,0%);fill-opacity:1;stroke-width:1;stroke-linecap:butt;stroke-linejoin:round;stroke:rgb(0%,0%,0%);stroke-opacity:1;stroke-miterlimit:10;" d="M 435.542969 328.566406 C 435.542969 314.164062 411.542969 314.164062 411.542969 328.566406 C 411.542969 342.964844 435.542969 345.363281 435.542969 357.363281 C 435.542969 345.363281 459.542969 342.964844 459.542969 328.566406 C 459.542969 314.164062 435.542969 314.164062 435.542969 328.566406 "/>
</g>
</svg>
