<?xml version="1.0" encoding="UTF-8"?>
<svg xmlns="http://www.w3.org/2000/svg" xmlns:xlink="http://www.w3.org/1999/xlink" width="517pt" height="517pt" viewBox="0 0 517 517" version="1.1">
<g id="surface4481">
<rect x="0" y="0" width="517" height="517" style="fill:rgb(90%,90%,90%);fill-opacity:1;stroke:none;"/>
<path style="fill:none;stroke-width:5;stroke-linecap:butt;stroke-linejoin:round;stroke:rgb(100%,0%,0%);stroke-opacity:1;stroke-miterlimit:10;" d="M 5 261 L 261 261 L 261 517 L 5 517 Z M 5 261 "/>
<path style="fill-rule:nonzero;fill:rgb(50%,0%,50%);fill-opacity:1;stroke-width:1;stroke-linecap:butt;stroke-linejoin:round;stroke:rgb(0%,0%,0%);stroke-opacity:1;stroke-miterlimit:10;" d="M 130.027344 322.070312 C 130.027344 307.667969 106.027344 307.667969 106.027344 322.070312 C 106.027344 336.46875 130.027344 338.871094 130.027344 350.871094 C 130.027344 338.871094 154.027344 336.46875 154.027344 322.070312 C 154.027344 307.667969 130.027344 307.667969 130.027344 322.070312 "/>
<path style="fill-rule:nonzero;fill:rgb(90%,65%,0%);fill-opacity:1;stroke-width:1;stroke-linecap:butt;stroke-linejoin:round;stroke:rgb(0%,0%,0%);stroke-opacity:1;stroke-miterlimit:10;" d="M 386.820312 326.046875 C 386.820312 311.648438 362.820312 311.648438 362.820312 326.046875 C 362.820312 340.445312 386.820312 342.847656 386.820312 354.847656 C 386.820312 342.847656 410.820312 340.445312 410.820312 326.046875 C 410.820312 311.648438 386.820312 311.648438 386.820312 326.046875 "/>
<path style="fill-rule:nonzero;fill:rgb(90%,65%,0%);fill-opacity:1;stroke-width:1;stroke-linecap:butt;stroke-linejoin:round;stroke:rgb(0%,0%,0%);stroke-opacity:1;stroke-miterlimit:10;" d="M 304.671875 307.289062 C 304.671875 292.886719 280.671875 292.886719 280.671875 307.289062 C 280.671875 321.6875 304.671875 324.085938 304.671875 336.085938 C 304.671875 324.085938 328.671875 321.6875 328.671875 307.289062 C 328.671875 292.886719 304.671875 292.886719 304.671875 307.289062 "/>
<path style="fill-rule:nonzero;fill:rgb(90%,65%,0%);fill-opacity:1;stroke-width:1;stroke-linecap:butt;stroke-linejoin:round;stroke:rgb(0%,0%,0%);stroke-opacity:1;stroke-miterlimit:10;" d="M 383.816406 86.476562 C 383.816406 72.078125 359.816406 72.078125 359.816406 86.476562 C 359.816406 100.875 383.816406 103.277344 383.816406 115.277344 C 383.816406 103.277344 407.816406 100.875 407.816406 86.476562 C 407.816406 72.078125 383.816406 72.078125 383.816406 86.476562 "/>
<path style="fill-rule:nonzero;fill:rgb(90%,65%,0%);fill-opacity:1;stroke-width:1;stroke-linecap:butt;stroke-linejoin:round;stroke:rgb(0%,0%,0%);stroke-opacity:1;stroke-miterlimit:10;" d="M 206.695312 133.371094 C 206.695312 118.972656 182.695312 118.972656 182.695312 133.371094 C 182.695312 147.769531 206.695312 150.171875 206.695312 162.171875 C 206.695312 150.171875 230.695312 147.769531 230.695312 133.371094 C 230.695312 118.972656 206.695312 118.972656 206.695312 133.371094 "/>
<path style="fill-rule:nonzero;fill:rgb(90%,65%,0%);fill-opacity:1;stroke-width:1;stroke-linecap:butt;stroke-linejoin:round;stroke:rgb(0%,0%,0%);stroke-opacity:1;stroke-miterlimit:10;" d="M 79.214844 205.378906 C 79.214844 190.980469 55.214844 190.980469 55.214844 205.378906 C 55.214844 219.777344 79.214844 222.179688 79.214844 234.179688 C 79.214844 222.179688 103.214844 219.777344 103.214844 205.378906 C 103.214844 190.980469 79.214844 190.980469 79.214844 205.378906 "/>
</g>
</svg>
