<?xml version="1.0" encoding="UTF-8"?>
<svg xmlns="http://www.w3.org/2000/svg" xmlns:xlink="http://www.w3.org/1999/xlink" width="517pt" height="517pt" viewBox="0 0 517 517" version="1.1">
<g id="surface4026">
<rect x="0" y="0" width="517" height="517" style="fill:rgb(90%,90%,90%);fill-opacity:1;stroke:none;"/>
<path style="fill:none;stroke-width:5;stroke-linecap:butt;stroke-linejoin:round;stroke:rgb(100%,0%,0%);stroke-opacity:1;stroke-miterlimit:10;" d="M 261 5 L 517 5 L 517 261 L 261 261 Z M 261 5 "/>
<path style="fill-rule:nonzero;fill:rgb(90%,65%,0%);fill-opacity:1;stroke-width:1;stroke-linecap:butt;stroke-linejoin:round;stroke:rgb(0%,0%,0%);stroke-opacity:1;stroke-miterlimit:10;" d="M 300.695312 60.347656 L 274.714844 105.347656 L 326.675781 105.347656 L 300.695312 60.347656 "/>
<path style="fill-rule:nonzero;fill:rgb(100%,7%,57%);fill-opacity:1;stroke-width:1;stroke-linecap:butt;stroke-linejoin:round;stroke:rgb(0%,0%,0%);stroke-opacity:1;stroke-miterlimit:10;" d="M 53.746094 42.890625 L 27.765625 87.890625 L 79.726562 87.890625 L 53.746094 42.890625 "/>
<path style="fill-rule:nonzero;fill:rgb(100%,7%,57%);fill-opacity:1;stroke-width:1;stroke-linecap:butt;stroke-linejoin:round;stroke:rgb(0%,0%,0%);stroke-opacity:1;stroke-miterlimit:10;" d="M 137.8125 175.933594 L 111.832031 220.933594 L 163.792969 220.933594 L 137.8125 175.933594 "/>
<path style="fill-rule:nonzero;fill:rgb(100%,7%,57%);fill-opacity:1;stroke-width:1;stroke-linecap:butt;stroke-linejoin:round;stroke:rgb(0%,0%,0%);stroke-opacity:1;stroke-miterlimit:10;" d="M 95.003906 356.734375 L 69.023438 401.734375 L 120.984375 401.734375 L 95.003906 356.734375 "/>
<path style="fill-rule:nonzero;fill:rgb(100%,7%,57%);fill-opacity:1;stroke-width:1;stroke-linecap:butt;stroke-linejoin:round;stroke:rgb(0%,0%,0%);stroke-opacity:1;stroke-miterlimit:10;" d="M 120.1875 430.304688 L 94.207031 475.304688 L 146.167969 475.304688 L 120.1875 430.304688 "/>
<path style="fill-rule:nonzero;fill:rgb(90%,65%,0%);fill-opacity:1;stroke-width:1;stroke-linecap:butt;stroke-linejoin:round;stroke:rgb(0%,0%,0%);stroke-opacity:1;stroke-miterlimit:10;" d="M 188.316406 265.445312 L 162.335938 310.445312 L 214.296875 310.445312 L 188.316406 265.445312 "/>
</g>
</svg>
