<?xml version="1.0" encoding="UTF-8"?>
<svg xmlns="http://www.w3.org/2000/svg" xmlns:xlink="http://www.w3.org/1999/xlink" width="517pt" height="517pt" viewBox="0 0 517 517" version="1.1">
<g id="surface9056">
<rect x="0" y="0" width="517" height="517" style="fill:rgb(90%,90%,90%);fill-opacity:1;stroke:none;"/>
<path style="fill:none;stroke-width:5;stroke-linecap:butt;stroke-linejoin:round;stroke:rgb(100%,0%,0%);stroke-opacity:1;stroke-miterlimit:10;" d="M 5 261 L 261 261 L 261 517 L 5 517 Z M 5 261 "/>
<path style="fill-rule:nonzero;fill:rgb(0%,0%,0%);fill-opacity:1;stroke-width:1;stroke-linecap:butt;stroke-linejoin:round;stroke:rgb(0%,0%,0%);stroke-opacity:1;stroke-miterlimit:10;" d="M 121.101562 448.714844 L 101.101562 448.714844 L 101.101562 458.714844 L 121.101562 458.714844 L 121.101562 478.714844 L 131.101562 478.714844 L 131.101562 458.714844 L 151.101562 458.714844 L 151.101562 448.714844 L 131.101562 448.714844 L 131.101562 428.714844 L 121.101562 428.714844 L 121.101562 448.714844 "/>
<path style="fill-rule:nonzero;fill:rgb(0%,0%,0%);fill-opacity:1;stroke-width:1;stroke-linecap:butt;stroke-linejoin:round;stroke:rgb(0%,0%,0%);stroke-opacity:1;stroke-miterlimit:10;" d="M 452.84375 331.6875 L 432.84375 331.6875 L 432.84375 341.6875 L 452.84375 341.6875 L 452.84375 361.6875 L 462.84375 361.6875 L 462.84375 341.6875 L 482.84375 341.6875 L 482.84375 331.6875 L 462.84375 331.6875 L 462.84375 311.6875 L 452.84375 311.6875 L 452.84375 331.6875 "/>
<path style="fill-rule:nonzero;fill:rgb(0%,0%,0%);fill-opacity:1;stroke-width:1;stroke-linecap:butt;stroke-linejoin:round;stroke:rgb(0%,0%,0%);stroke-opacity:1;stroke-miterlimit:10;" d="M 370.664062 331.832031 L 350.664062 331.832031 L 350.664062 341.832031 L 370.664062 341.832031 L 370.664062 361.832031 L 380.664062 361.832031 L 380.664062 341.832031 L 400.664062 341.832031 L 400.664062 331.832031 L 380.664062 331.832031 L 380.664062 311.832031 L 370.664062 311.832031 L 370.664062 331.832031 "/>
<path style="fill-rule:nonzero;fill:rgb(0%,0%,0%);fill-opacity:1;stroke-width:1;stroke-linecap:butt;stroke-linejoin:round;stroke:rgb(0%,0%,0%);stroke-opacity:1;stroke-miterlimit:10;" d="M 32.519531 69.199219 L 12.519531 69.199219 L 12.519531 79.199219 L 32.519531 79.199219 L 32.519531 99.199219 L 42.519531 99.199219 L 42.519531 79.199219 L 62.519531 79.199219 L 62.519531 69.199219 L 42.519531 69.199219 L 42.519531 49.199219 L 32.519531 49.199219 L 32.519531 69.199219 "/>
<path style="fill-rule:nonzero;fill:rgb(0%,0%,0%);fill-opacity:1;stroke-width:1;stroke-linecap:butt;stroke-linejoin:round;stroke:rgb(0%,0%,0%);stroke-opacity:1;stroke-miterlimit:10;" d="M 133.433594 101.742188 L 113.433594 101.742188 L 113.433594 111.742188 L 133.433594 111.742188 L 133.433594 131.742188 L 143.433594 131.742188 L 143.433594 111.742188 L 163.433594 111.742188 L 163.433594 101.742188 L 143.433594 101.742188 L 143.433594 81.742188 L 133.433594 81.742188 L 133.433594 101.742188 "/>
<path style="fill-rule:nonzero;fill:rgb(0%,0%,0%);fill-opacity:1;stroke-width:1;stroke-linecap:butt;stroke-linejoin:round;stroke:rgb(0%,0%,0%);stroke-opacity:1;stroke-miterlimit:10;" d="M 133.234375 176.414062 L 113.234375 176.414062 L 113.234375 186.414062 L 133.234375 186.414062 L 133.234375 206.414062 L 143.234375 206.414062 L 143.234375 186.414062 L 163.234375 186.414062 L 163.234375 176.414062 L 143.234375 176.414062 L 143.234375 156.414062 L 133.234375 156.414062 L 133.234375 176.414062 "/>
</g>
</svg>
