<?xml version="1.0" encoding="UTF-8"?>
<svg xmlns="http://www.w3.org/2000/svg" xmlns:xlink="http://www.w3.org/1999/xlink" width="517pt" height="517pt" viewBox="0 0 517 517" version="1.1">
<g id="surface4691">
<rect x="0" y="0" width="517" height="517" style="fill:rgb(90%,90%,90%);fill-opacity:1;stroke:none;"/>
<path style="fill:none;stroke-width:5;stroke-linecap:butt;stroke-linejoin:round;stroke:rgb(100%,0%,0%);stroke-opacity:1;stroke-miterlimit:10;" d="M 5 261 L 261 261 L 261 517 L 5 517 Z M 5 261 "/>
<path style="fill-rule:nonzero;fill:rgb(25%,88%,82%);fill-opacity:1;stroke-width:1;stroke-linecap:butt;stroke-linejoin:round;stroke:rgb(0%,0%,0%);stroke-opacity:1;stroke-miterlimit:10;" d="M 44.082031 285.574219 C 44.082031 271.171875 20.082031 271.171875 20.082031 285.574219 C 20.082031 299.972656 44.082031 302.371094 44.082031 314.371094 C 44.082031 302.371094 68.082031 299.972656 68.082031 285.574219 C 68.082031 271.171875 44.082031 271.171875 44.082031 285.574219 "/>
<path style="fill-rule:nonzero;fill:rgb(100%,100%,0%);fill-opacity:1;stroke-width:1;stroke-linecap:butt;stroke-linejoin:round;stroke:rgb(0%,0%,0%);stroke-opacity:1;stroke-miterlimit:10;" d="M 352.105469 184.558594 C 352.105469 170.160156 328.105469 170.160156 328.105469 184.558594 C 328.105469 198.960938 352.105469 201.359375 352.105469 213.359375 C 352.105469 201.359375 376.105469 198.960938 376.105469 184.558594 C 376.105469 170.160156 352.105469 170.160156 352.105469 184.558594 "/>
<path style="fill-rule:nonzero;fill:rgb(25%,88%,82%);fill-opacity:1;stroke-width:1;stroke-linecap:butt;stroke-linejoin:round;stroke:rgb(0%,0%,0%);stroke-opacity:1;stroke-miterlimit:10;" d="M 406.824219 108.621094 C 406.824219 94.222656 382.824219 94.222656 382.824219 108.621094 C 382.824219 123.019531 406.824219 125.421875 406.824219 137.421875 C 406.824219 125.421875 430.824219 123.019531 430.824219 108.621094 C 430.824219 94.222656 406.824219 94.222656 406.824219 108.621094 "/>
<path style="fill-rule:nonzero;fill:rgb(25%,88%,82%);fill-opacity:1;stroke-width:1;stroke-linecap:butt;stroke-linejoin:round;stroke:rgb(0%,0%,0%);stroke-opacity:1;stroke-miterlimit:10;" d="M 190.65625 84.429688 C 190.65625 70.027344 166.65625 70.027344 166.65625 84.429688 C 166.65625 98.828125 190.65625 101.230469 190.65625 113.230469 C 190.65625 101.230469 214.65625 98.828125 214.65625 84.429688 C 214.65625 70.027344 190.65625 70.027344 190.65625 84.429688 "/>
<path style="fill-rule:nonzero;fill:rgb(25%,88%,82%);fill-opacity:1;stroke-width:1;stroke-linecap:butt;stroke-linejoin:round;stroke:rgb(0%,0%,0%);stroke-opacity:1;stroke-miterlimit:10;" d="M 350.957031 365.191406 C 350.957031 350.789062 326.957031 350.789062 326.957031 365.191406 C 326.957031 379.589844 350.957031 381.988281 350.957031 393.988281 C 350.957031 381.988281 374.957031 379.589844 374.957031 365.191406 C 374.957031 350.789062 350.957031 350.789062 350.957031 365.191406 "/>
<path style="fill-rule:nonzero;fill:rgb(25%,88%,82%);fill-opacity:1;stroke-width:1;stroke-linecap:butt;stroke-linejoin:round;stroke:rgb(0%,0%,0%);stroke-opacity:1;stroke-miterlimit:10;" d="M 362.230469 291.972656 C 362.230469 277.574219 338.230469 277.574219 338.230469 291.972656 C 338.230469 306.371094 362.230469 308.773438 362.230469 320.773438 C 362.230469 308.773438 386.230469 306.371094 386.230469 291.972656 C 386.230469 277.574219 362.230469 277.574219 362.230469 291.972656 "/>
</g>
</svg>
