<?xml version="1.0" encoding="UTF-8"?>
<svg xmlns="http://www.w3.org/2000/svg" xmlns:xlink="http://www.w3.org/1999/xlink" width="517pt" height="517pt" viewBox="0 0 517 517" version="1.1">
<g id="surface3931">
<rect x="0" y="0" width="517" height="517" style="fill:rgb(90%,90%,90%);fill-opacity:1;stroke:none;"/>
<path style="fill:none;stroke-width:5;stroke-linecap:butt;stroke-linejoin:round;stroke:rgb(100%,0%,0%);stroke-opacity:1;stroke-miterlimit:10;" d="M 5 5 L 261 5 L 261 261 L 5 261 Z M 5 5 "/>
<path style="fill-rule:nonzero;fill:rgb(0%,0%,0%);fill-opacity:1;stroke-width:1;stroke-linecap:butt;stroke-linejoin:round;stroke:rgb(0%,0%,0%);stroke-opacity:1;stroke-miterlimit:10;" d="M 203.882812 183.476562 L 183.882812 183.476562 L 183.882812 193.476562 L 203.882812 193.476562 L 203.882812 213.476562 L 213.882812 213.476562 L 213.882812 193.476562 L 233.882812 193.476562 L 233.882812 183.476562 L 213.882812 183.476562 L 213.882812 163.476562 L 203.882812 163.476562 L 203.882812 183.476562 "/>
<path style="fill-rule:nonzero;fill:rgb(50%,0%,50%);fill-opacity:1;stroke-width:1;stroke-linecap:butt;stroke-linejoin:round;stroke:rgb(0%,0%,0%);stroke-opacity:1;stroke-miterlimit:10;" d="M 359.78125 136.113281 L 339.78125 136.113281 L 339.78125 146.113281 L 359.78125 146.113281 L 359.78125 166.113281 L 369.78125 166.113281 L 369.78125 146.113281 L 389.78125 146.113281 L 389.78125 136.113281 L 369.78125 136.113281 L 369.78125 116.113281 L 359.78125 116.113281 L 359.78125 136.113281 "/>
<path style="fill-rule:nonzero;fill:rgb(50%,0%,50%);fill-opacity:1;stroke-width:1;stroke-linecap:butt;stroke-linejoin:round;stroke:rgb(0%,0%,0%);stroke-opacity:1;stroke-miterlimit:10;" d="M 415.929688 323.535156 L 395.929688 323.535156 L 395.929688 333.535156 L 415.929688 333.535156 L 415.929688 353.535156 L 425.929688 353.535156 L 425.929688 333.535156 L 445.929688 333.535156 L 445.929688 323.535156 L 425.929688 323.535156 L 425.929688 303.535156 L 415.929688 303.535156 L 415.929688 323.535156 "/>
<path style="fill-rule:nonzero;fill:rgb(50%,0%,50%);fill-opacity:1;stroke-width:1;stroke-linecap:butt;stroke-linejoin:round;stroke:rgb(0%,0%,0%);stroke-opacity:1;stroke-miterlimit:10;" d="M 346.136719 301.339844 L 326.136719 301.339844 L 326.136719 311.339844 L 346.136719 311.339844 L 346.136719 331.339844 L 356.136719 331.339844 L 356.136719 311.339844 L 376.136719 311.339844 L 376.136719 301.339844 L 356.136719 301.339844 L 356.136719 281.339844 L 346.136719 281.339844 L 346.136719 301.339844 "/>
<path style="fill-rule:nonzero;fill:rgb(50%,0%,50%);fill-opacity:1;stroke-width:1;stroke-linecap:butt;stroke-linejoin:round;stroke:rgb(0%,0%,0%);stroke-opacity:1;stroke-miterlimit:10;" d="M 124.535156 370.257812 L 104.535156 370.257812 L 104.535156 380.257812 L 124.535156 380.257812 L 124.535156 400.257812 L 134.535156 400.257812 L 134.535156 380.257812 L 154.535156 380.257812 L 154.535156 370.257812 L 134.535156 370.257812 L 134.535156 350.257812 L 124.535156 350.257812 L 124.535156 370.257812 "/>
<path style="fill-rule:nonzero;fill:rgb(50%,0%,50%);fill-opacity:1;stroke-width:1;stroke-linecap:butt;stroke-linejoin:round;stroke:rgb(0%,0%,0%);stroke-opacity:1;stroke-miterlimit:10;" d="M 44.207031 465.011719 L 24.207031 465.011719 L 24.207031 475.011719 L 44.207031 475.011719 L 44.207031 495.011719 L 54.207031 495.011719 L 54.207031 475.011719 L 74.207031 475.011719 L 74.207031 465.011719 L 54.207031 465.011719 L 54.207031 445.011719 L 44.207031 445.011719 L 44.207031 465.011719 "/>
</g>
</svg>
