<?xml version="1.0" encoding="UTF-8"?>
<svg xmlns="http://www.w3.org/2000/svg" xmlns:xlink="http://www.w3.org/1999/xlink" width="517pt" height="517pt" viewBox="0 0 517 517" version="1.1">
<g id="surface351">
<rect x="0" y="0" width="517" height="517" style="fill:rgb(90%,90%,90%);fill-opacity:1;stroke:none;"/>
<path style="fill:none;stroke-width:5;stroke-linecap:butt;stroke-linejoin:round;stroke:rgb(100%,0%,0%);stroke-opacity:1;stroke-miterlimit:10;" d="M 5 5 L 261 5 L 261 261 L 5 261 Z M 5 5 "/>
<path style="fill-rule:nonzero;fill:rgb(0%,0%,0%);fill-opacity:1;stroke-width:1;stroke-linecap:butt;stroke-linejoin:round;stroke:rgb(0%,0%,0%);stroke-opacity:1;stroke-miterlimit:10;" d="M 170.601562 179.464844 L 150.601562 179.464844 L 150.601562 189.464844 L 170.601562 189.464844 L 170.601562 209.464844 L 180.601562 209.464844 L 180.601562 189.464844 L 200.601562 189.464844 L 200.601562 179.464844 L 180.601562 179.464844 L 180.601562 159.464844 L 170.601562 159.464844 L 170.601562 179.464844 "/>
<path style="fill-rule:nonzero;fill:rgb(100%,100%,0%);fill-opacity:1;stroke-width:1;stroke-linecap:butt;stroke-linejoin:round;stroke:rgb(0%,0%,0%);stroke-opacity:1;stroke-miterlimit:10;" d="M 171.933594 388.628906 L 151.933594 388.628906 L 151.933594 398.628906 L 171.933594 398.628906 L 171.933594 418.628906 L 181.933594 418.628906 L 181.933594 398.628906 L 201.933594 398.628906 L 201.933594 388.628906 L 181.933594 388.628906 L 181.933594 368.628906 L 171.933594 368.628906 L 171.933594 388.628906 "/>
<path style="fill-rule:nonzero;fill:rgb(100%,100%,0%);fill-opacity:1;stroke-width:1;stroke-linecap:butt;stroke-linejoin:round;stroke:rgb(0%,0%,0%);stroke-opacity:1;stroke-miterlimit:10;" d="M 306.335938 337.796875 L 286.335938 337.796875 L 286.335938 347.796875 L 306.335938 347.796875 L 306.335938 367.796875 L 316.335938 367.796875 L 316.335938 347.796875 L 336.335938 347.796875 L 336.335938 337.796875 L 316.335938 337.796875 L 316.335938 317.796875 L 306.335938 317.796875 L 306.335938 337.796875 "/>
<path style="fill-rule:nonzero;fill:rgb(0%,0%,0%);fill-opacity:1;stroke-width:1;stroke-linecap:butt;stroke-linejoin:round;stroke:rgb(0%,0%,0%);stroke-opacity:1;stroke-miterlimit:10;" d="M 388.140625 358.132812 L 368.140625 358.132812 L 368.140625 368.132812 L 388.140625 368.132812 L 388.140625 388.132812 L 398.140625 388.132812 L 398.140625 368.132812 L 418.140625 368.132812 L 418.140625 358.132812 L 398.140625 358.132812 L 398.140625 338.132812 L 388.140625 338.132812 L 388.140625 358.132812 "/>
</g>
</svg>
