<?xml version="1.0" encoding="UTF-8"?>
<svg xmlns="http://www.w3.org/2000/svg" xmlns:xlink="http://www.w3.org/1999/xlink" width="517pt" height="517pt" viewBox="0 0 517 517" version="1.1">
<g id="surface4581">
<rect x="0" y="0" width="517" height="517" style="fill:rgb(90%,90%,90%);fill-opacity:1;stroke:none;"/>
<path style="fill:none;stroke-width:5;stroke-linecap:butt;stroke-linejoin:round;stroke:rgb(100%,0%,0%);stroke-opacity:1;stroke-miterlimit:10;" d="M 5 261 L 261 261 L 261 517 L 5 517 Z M 5 261 "/>
<path style="fill-rule:nonzero;fill:rgb(53%,27%,7%);fill-opacity:1;stroke-width:1;stroke-linecap:butt;stroke-linejoin:round;stroke:rgb(0%,0%,0%);stroke-opacity:1;stroke-miterlimit:10;" d="M 207.632812 327.367188 C 207.632812 312.964844 183.632812 312.964844 183.632812 327.367188 C 183.632812 341.765625 207.632812 344.167969 207.632812 356.167969 C 207.632812 344.167969 231.632812 341.765625 231.632812 327.367188 C 231.632812 312.964844 207.632812 312.964844 207.632812 327.367188 "/>
<path style="fill-rule:nonzero;fill:rgb(100%,100%,0%);fill-opacity:1;stroke-width:1;stroke-linecap:butt;stroke-linejoin:round;stroke:rgb(0%,0%,0%);stroke-opacity:1;stroke-miterlimit:10;" d="M 405.21875 375.25 C 405.21875 360.851562 381.21875 360.851562 381.21875 375.25 C 381.21875 389.652344 405.21875 392.050781 405.21875 404.050781 C 405.21875 392.050781 429.21875 389.652344 429.21875 375.25 C 429.21875 360.851562 405.21875 360.851562 405.21875 375.25 "/>
<path style="fill-rule:nonzero;fill:rgb(100%,100%,0%);fill-opacity:1;stroke-width:1;stroke-linecap:butt;stroke-linejoin:round;stroke:rgb(0%,0%,0%);stroke-opacity:1;stroke-miterlimit:10;" d="M 194.339844 83.28125 C 194.339844 68.878906 170.339844 68.878906 170.339844 83.28125 C 170.339844 97.679688 194.339844 100.078125 194.339844 112.078125 C 194.339844 100.078125 218.339844 97.679688 218.339844 83.28125 C 218.339844 68.878906 194.339844 68.878906 194.339844 83.28125 "/>
<path style="fill-rule:nonzero;fill:rgb(100%,100%,0%);fill-opacity:1;stroke-width:1;stroke-linecap:butt;stroke-linejoin:round;stroke:rgb(0%,0%,0%);stroke-opacity:1;stroke-miterlimit:10;" d="M 400.546875 120.566406 C 400.546875 106.164062 376.546875 106.164062 376.546875 120.566406 C 376.546875 134.964844 400.546875 137.363281 400.546875 149.363281 C 400.546875 137.363281 424.546875 134.964844 424.546875 120.566406 C 424.546875 106.164062 400.546875 106.164062 400.546875 120.566406 "/>
<path style="fill-rule:nonzero;fill:rgb(100%,100%,0%);fill-opacity:1;stroke-width:1;stroke-linecap:butt;stroke-linejoin:round;stroke:rgb(0%,0%,0%);stroke-opacity:1;stroke-miterlimit:10;" d="M 316.75 37.082031 C 316.75 22.679688 292.75 22.679688 292.75 37.082031 C 292.75 51.480469 316.75 53.882812 316.75 65.882812 C 316.75 53.882812 340.75 51.480469 340.75 37.082031 C 340.75 22.679688 316.75 22.679688 316.75 37.082031 "/>
<path style="fill-rule:nonzero;fill:rgb(53%,27%,7%);fill-opacity:1;stroke-width:1;stroke-linecap:butt;stroke-linejoin:round;stroke:rgb(0%,0%,0%);stroke-opacity:1;stroke-miterlimit:10;" d="M 401.488281 203.042969 C 401.488281 188.640625 377.488281 188.640625 377.488281 203.042969 C 377.488281 217.441406 401.488281 219.839844 401.488281 231.839844 C 401.488281 219.839844 425.488281 217.441406 425.488281 203.042969 C 425.488281 188.640625 401.488281 188.640625 401.488281 203.042969 "/>
</g>
</svg>
