<?xml version="1.0" encoding="UTF-8"?>
<svg xmlns="http://www.w3.org/2000/svg" xmlns:xlink="http://www.w3.org/1999/xlink" width="517pt" height="517pt" viewBox="0 0 517 517" version="1.1">
<g id="surface4226">
<rect x="0" y="0" width="517" height="517" style="fill:rgb(90%,90%,90%);fill-opacity:1;stroke:none;"/>
<path style="fill:none;stroke-width:5;stroke-linecap:butt;stroke-linejoin:round;stroke:rgb(100%,0%,0%);stroke-opacity:1;stroke-miterlimit:10;" d="M 261 5 L 517 5 L 517 261 L 261 261 Z M 261 5 "/>
<path style="fill-rule:nonzero;fill:rgb(100%,0%,0%);fill-opacity:1;stroke-width:1;stroke-linecap:butt;stroke-linejoin:round;stroke:rgb(0%,0%,0%);stroke-opacity:1;stroke-miterlimit:10;" d="M 499.09375 132.757812 C 499.09375 149.328125 485.664062 162.757812 469.09375 162.757812 C 452.523438 162.757812 439.09375 149.328125 439.09375 132.757812 C 439.09375 116.191406 452.523438 102.757812 469.09375 102.757812 C 485.664062 102.757812 499.09375 116.191406 499.09375 132.757812 "/>
<path style="fill-rule:nonzero;fill:rgb(100%,0%,0%);fill-opacity:1;stroke-width:1;stroke-linecap:butt;stroke-linejoin:round;stroke:rgb(0%,0%,0%);stroke-opacity:1;stroke-miterlimit:10;" d="M 123.691406 292.476562 C 123.691406 309.046875 110.261719 322.476562 93.691406 322.476562 C 77.125 322.476562 63.691406 309.046875 63.691406 292.476562 C 63.691406 275.90625 77.125 262.476562 93.691406 262.476562 C 110.261719 262.476562 123.691406 275.90625 123.691406 292.476562 "/>
<path style="fill-rule:nonzero;fill:rgb(100%,0%,0%);fill-opacity:1;stroke-width:1;stroke-linecap:butt;stroke-linejoin:round;stroke:rgb(0%,0%,0%);stroke-opacity:1;stroke-miterlimit:10;" d="M 99.902344 383.875 C 99.902344 400.441406 86.46875 413.875 69.902344 413.875 C 53.332031 413.875 39.902344 400.441406 39.902344 383.875 C 39.902344 367.304688 53.332031 353.875 69.902344 353.875 C 86.46875 353.875 99.902344 367.304688 99.902344 383.875 "/>
<path style="fill-rule:nonzero;fill:rgb(100%,0%,0%);fill-opacity:1;stroke-width:1;stroke-linecap:butt;stroke-linejoin:round;stroke:rgb(0%,0%,0%);stroke-opacity:1;stroke-miterlimit:10;" d="M 325.703125 421.984375 C 325.703125 438.550781 312.273438 451.984375 295.703125 451.984375 C 279.136719 451.984375 265.703125 438.550781 265.703125 421.984375 C 265.703125 405.414062 279.136719 391.984375 295.703125 391.984375 C 312.273438 391.984375 325.703125 405.414062 325.703125 421.984375 "/>
<path style="fill-rule:nonzero;fill:rgb(100%,0%,0%);fill-opacity:1;stroke-width:1;stroke-linecap:butt;stroke-linejoin:round;stroke:rgb(0%,0%,0%);stroke-opacity:1;stroke-miterlimit:10;" d="M 400.773438 337.265625 C 400.773438 353.832031 387.34375 367.265625 370.773438 367.265625 C 354.207031 367.265625 340.773438 353.832031 340.773438 337.265625 C 340.773438 320.695312 354.207031 307.265625 370.773438 307.265625 C 387.34375 307.265625 400.773438 320.695312 400.773438 337.265625 "/>
<path style="fill-rule:nonzero;fill:rgb(100%,0%,0%);fill-opacity:1;stroke-width:1;stroke-linecap:butt;stroke-linejoin:round;stroke:rgb(0%,0%,0%);stroke-opacity:1;stroke-miterlimit:10;" d="M 395.929688 459.035156 C 395.929688 475.601562 382.5 489.035156 365.929688 489.035156 C 349.363281 489.035156 335.929688 475.601562 335.929688 459.035156 C 335.929688 442.464844 349.363281 429.035156 365.929688 429.035156 C 382.5 429.035156 395.929688 442.464844 395.929688 459.035156 "/>
</g>
</svg>
