<?xml version="1.0" encoding="UTF-8"?>
<svg xmlns="http://www.w3.org/2000/svg" xmlns:xlink="http://www.w3.org/1999/xlink" width="517pt" height="517pt" viewBox="0 0 517 517" version="1.1">
<g id="surface4696">
<rect x="0" y="0" width="517" height="517" style="fill:rgb(90%,90%,90%);fill-opacity:1;stroke:none;"/>
<path style="fill:none;stroke-width:5;stroke-linecap:butt;stroke-linejoin:round;stroke:rgb(100%,0%,0%);stroke-opacity:1;stroke-miterlimit:10;" d="M 5 261 L 261 261 L 261 517 L 5 517 Z M 5 261 "/>
<path style="fill-rule:nonzero;fill:rgb(25%,88%,82%);fill-opacity:1;stroke-width:1;stroke-linecap:butt;stroke-linejoin:round;stroke:rgb(0%,0%,0%);stroke-opacity:1;stroke-miterlimit:10;" d="M 70.171875 380.101562 C 70.171875 365.699219 46.171875 365.699219 46.171875 380.101562 C 46.171875 394.5 70.171875 396.902344 70.171875 408.902344 C 70.171875 396.902344 94.171875 394.5 94.171875 380.101562 C 94.171875 365.699219 70.171875 365.699219 70.171875 380.101562 "/>
<path style="fill-rule:nonzero;fill:rgb(100%,100%,0%);fill-opacity:1;stroke-width:1;stroke-linecap:butt;stroke-linejoin:round;stroke:rgb(0%,0%,0%);stroke-opacity:1;stroke-miterlimit:10;" d="M 58.773438 132.917969 C 58.773438 118.519531 34.773438 118.519531 34.773438 132.917969 C 34.773438 147.316406 58.773438 149.71875 58.773438 161.71875 C 58.773438 149.71875 82.773438 147.316406 82.773438 132.917969 C 82.773438 118.519531 58.773438 118.519531 58.773438 132.917969 "/>
<path style="fill-rule:nonzero;fill:rgb(25%,88%,82%);fill-opacity:1;stroke-width:1;stroke-linecap:butt;stroke-linejoin:round;stroke:rgb(0%,0%,0%);stroke-opacity:1;stroke-miterlimit:10;" d="M 180.664062 195.960938 C 180.664062 181.5625 156.664062 181.5625 156.664062 195.960938 C 156.664062 210.363281 180.664062 212.761719 180.664062 224.761719 C 180.664062 212.761719 204.664062 210.363281 204.664062 195.960938 C 204.664062 181.5625 180.664062 181.5625 180.664062 195.960938 "/>
<path style="fill-rule:nonzero;fill:rgb(25%,88%,82%);fill-opacity:1;stroke-width:1;stroke-linecap:butt;stroke-linejoin:round;stroke:rgb(0%,0%,0%);stroke-opacity:1;stroke-miterlimit:10;" d="M 409.304688 115.226562 C 409.304688 100.824219 385.304688 100.824219 385.304688 115.226562 C 385.304688 129.625 409.304688 132.023438 409.304688 144.023438 C 409.304688 132.023438 433.304688 129.625 433.304688 115.226562 C 433.304688 100.824219 409.304688 100.824219 409.304688 115.226562 "/>
<path style="fill-rule:nonzero;fill:rgb(25%,88%,82%);fill-opacity:1;stroke-width:1;stroke-linecap:butt;stroke-linejoin:round;stroke:rgb(0%,0%,0%);stroke-opacity:1;stroke-miterlimit:10;" d="M 444.210938 204.296875 C 444.210938 189.894531 420.210938 189.894531 420.210938 204.296875 C 420.210938 218.695312 444.210938 221.09375 444.210938 233.09375 C 444.210938 221.09375 468.210938 218.695312 468.210938 204.296875 C 468.210938 189.894531 444.210938 189.894531 444.210938 204.296875 "/>
<path style="fill-rule:nonzero;fill:rgb(25%,88%,82%);fill-opacity:1;stroke-width:1;stroke-linecap:butt;stroke-linejoin:round;stroke:rgb(0%,0%,0%);stroke-opacity:1;stroke-miterlimit:10;" d="M 402.84375 38.683594 C 402.84375 24.28125 378.84375 24.28125 378.84375 38.683594 C 378.84375 53.082031 402.84375 55.484375 402.84375 67.484375 C 402.84375 55.484375 426.84375 53.082031 426.84375 38.683594 C 426.84375 24.28125 402.84375 24.28125 402.84375 38.683594 "/>
</g>
</svg>
