<?xml version="1.0" encoding="UTF-8"?>
<svg xmlns="http://www.w3.org/2000/svg" xmlns:xlink="http://www.w3.org/1999/xlink" width="517pt" height="517pt" viewBox="0 0 517 517" version="1.1">
<g id="surface4521">
<rect x="0" y="0" width="517" height="517" style="fill:rgb(90%,90%,90%);fill-opacity:1;stroke:none;"/>
<path style="fill:none;stroke-width:5;stroke-linecap:butt;stroke-linejoin:round;stroke:rgb(100%,0%,0%);stroke-opacity:1;stroke-miterlimit:10;" d="M 5 261 L 261 261 L 261 517 L 5 517 Z M 5 261 "/>
<path style="fill-rule:nonzero;fill:rgb(50%,0%,50%);fill-opacity:1;stroke-width:1;stroke-linecap:butt;stroke-linejoin:round;stroke:rgb(0%,0%,0%);stroke-opacity:1;stroke-miterlimit:10;" d="M 66.445312 312.316406 C 66.445312 297.917969 42.445312 297.917969 42.445312 312.316406 C 42.445312 326.71875 66.445312 329.117188 66.445312 341.117188 C 66.445312 329.117188 90.445312 326.71875 90.445312 312.316406 C 90.445312 297.917969 66.445312 297.917969 66.445312 312.316406 "/>
<path style="fill-rule:nonzero;fill:rgb(90%,65%,0%);fill-opacity:1;stroke-width:1;stroke-linecap:butt;stroke-linejoin:round;stroke:rgb(0%,0%,0%);stroke-opacity:1;stroke-miterlimit:10;" d="M 444.667969 161.671875 C 444.667969 147.273438 420.667969 147.273438 420.667969 161.671875 C 420.667969 176.074219 444.667969 178.472656 444.667969 190.472656 C 444.667969 178.472656 468.667969 176.074219 468.667969 161.671875 C 468.667969 147.273438 444.667969 147.273438 444.667969 161.671875 "/>
<path style="fill-rule:nonzero;fill:rgb(50%,0%,50%);fill-opacity:1;stroke-width:1;stroke-linecap:butt;stroke-linejoin:round;stroke:rgb(0%,0%,0%);stroke-opacity:1;stroke-miterlimit:10;" d="M 349.214844 191.402344 C 349.214844 177.003906 325.214844 177.003906 325.214844 191.402344 C 325.214844 205.804688 349.214844 208.203125 349.214844 220.203125 C 349.214844 208.203125 373.214844 205.804688 373.214844 191.402344 C 373.214844 177.003906 349.214844 177.003906 349.214844 191.402344 "/>
<path style="fill-rule:nonzero;fill:rgb(50%,0%,50%);fill-opacity:1;stroke-width:1;stroke-linecap:butt;stroke-linejoin:round;stroke:rgb(0%,0%,0%);stroke-opacity:1;stroke-miterlimit:10;" d="M 398.640625 421.894531 C 398.640625 407.496094 374.640625 407.496094 374.640625 421.894531 C 374.640625 436.296875 398.640625 438.695312 398.640625 450.695312 C 398.640625 438.695312 422.640625 436.296875 422.640625 421.894531 C 422.640625 407.496094 398.640625 407.496094 398.640625 421.894531 "/>
<path style="fill-rule:nonzero;fill:rgb(50%,0%,50%);fill-opacity:1;stroke-width:1;stroke-linecap:butt;stroke-linejoin:round;stroke:rgb(0%,0%,0%);stroke-opacity:1;stroke-miterlimit:10;" d="M 388.597656 337.207031 C 388.597656 322.808594 364.597656 322.808594 364.597656 337.207031 C 364.597656 351.605469 388.597656 354.007812 388.597656 366.007812 C 388.597656 354.007812 412.597656 351.605469 412.597656 337.207031 C 412.597656 322.808594 388.597656 322.808594 388.597656 337.207031 "/>
<path style="fill-rule:nonzero;fill:rgb(50%,0%,50%);fill-opacity:1;stroke-width:1;stroke-linecap:butt;stroke-linejoin:round;stroke:rgb(0%,0%,0%);stroke-opacity:1;stroke-miterlimit:10;" d="M 307.289062 423.65625 C 307.289062 409.257812 283.289062 409.257812 283.289062 423.65625 C 283.289062 438.058594 307.289062 440.457031 307.289062 452.457031 C 307.289062 440.457031 331.289062 438.058594 331.289062 423.65625 C 331.289062 409.257812 307.289062 409.257812 307.289062 423.65625 "/>
</g>
</svg>
