<?xml version="1.0" encoding="UTF-8"?>
<svg xmlns="http://www.w3.org/2000/svg" xmlns:xlink="http://www.w3.org/1999/xlink" width="517pt" height="517pt" viewBox="0 0 517 517" version="1.1">
<g id="surface4471">
<rect x="0" y="0" width="517" height="517" style="fill:rgb(90%,90%,90%);fill-opacity:1;stroke:none;"/>
<path style="fill:none;stroke-width:5;stroke-linecap:butt;stroke-linejoin:round;stroke:rgb(100%,0%,0%);stroke-opacity:1;stroke-miterlimit:10;" d="M 5 261 L 261 261 L 261 517 L 5 517 Z M 5 261 "/>
<path style="fill-rule:nonzero;fill:rgb(100%,100%,0%);fill-opacity:1;stroke-width:1;stroke-linecap:butt;stroke-linejoin:round;stroke:rgb(0%,0%,0%);stroke-opacity:1;stroke-miterlimit:10;" d="M 113.308594 359.203125 L 113.308594 401.628906 L 155.734375 401.628906 L 155.734375 359.203125 L 113.308594 359.203125 "/>
<path style="fill-rule:nonzero;fill:rgb(100%,7%,57%);fill-opacity:1;stroke-width:1;stroke-linecap:butt;stroke-linejoin:round;stroke:rgb(0%,0%,0%);stroke-opacity:1;stroke-miterlimit:10;" d="M 272.464844 86.640625 L 272.464844 129.066406 L 314.890625 129.066406 L 314.890625 86.640625 L 272.464844 86.640625 "/>
<path style="fill-rule:nonzero;fill:rgb(67%,100%,18%);fill-opacity:1;stroke-width:1;stroke-linecap:butt;stroke-linejoin:round;stroke:rgb(0%,0%,0%);stroke-opacity:1;stroke-miterlimit:10;" d="M 422.285156 111.433594 L 422.285156 153.859375 L 464.710938 153.859375 L 464.710938 111.433594 L 422.285156 111.433594 "/>
<path style="fill-rule:nonzero;fill:rgb(67%,100%,18%);fill-opacity:1;stroke-width:1;stroke-linecap:butt;stroke-linejoin:round;stroke:rgb(0%,0%,0%);stroke-opacity:1;stroke-miterlimit:10;" d="M 377.53125 350.886719 L 377.53125 393.316406 L 419.960938 393.316406 L 419.960938 350.886719 L 377.53125 350.886719 "/>
<path style="fill-rule:nonzero;fill:rgb(67%,100%,18%);fill-opacity:1;stroke-width:1;stroke-linecap:butt;stroke-linejoin:round;stroke:rgb(0%,0%,0%);stroke-opacity:1;stroke-miterlimit:10;" d="M 325.667969 270.515625 L 325.667969 312.945312 L 368.09375 312.945312 L 368.09375 270.515625 L 325.667969 270.515625 "/>
<path style="fill-rule:nonzero;fill:rgb(67%,100%,18%);fill-opacity:1;stroke-width:1;stroke-linecap:butt;stroke-linejoin:round;stroke:rgb(0%,0%,0%);stroke-opacity:1;stroke-miterlimit:10;" d="M 294.023438 357.039062 L 294.023438 399.464844 L 336.449219 399.464844 L 336.449219 357.039062 L 294.023438 357.039062 "/>
</g>
</svg>
