<?xml version="1.0" encoding="UTF-8"?>
<svg xmlns="http://www.w3.org/2000/svg" xmlns:xlink="http://www.w3.org/1999/xlink" width="517pt" height="517pt" viewBox="0 0 517 517" version="1.1">
<g id="surface9046">
<rect x="0" y="0" width="517" height="517" style="fill:rgb(90%,90%,90%);fill-opacity:1;stroke:none;"/>
<path style="fill:none;stroke-width:5;stroke-linecap:butt;stroke-linejoin:round;stroke:rgb(100%,0%,0%);stroke-opacity:1;stroke-miterlimit:10;" d="M 5 261 L 261 261 L 261 517 L 5 517 Z M 5 261 "/>
<path style="fill-rule:nonzero;fill:rgb(0%,0%,0%);fill-opacity:1;stroke-width:1;stroke-linecap:butt;stroke-linejoin:round;stroke:rgb(0%,0%,0%);stroke-opacity:1;stroke-miterlimit:10;" d="M 195.871094 380.96875 L 175.871094 380.96875 L 175.871094 390.96875 L 195.871094 390.96875 L 195.871094 410.96875 L 205.871094 410.96875 L 205.871094 390.96875 L 225.871094 390.96875 L 225.871094 380.96875 L 205.871094 380.96875 L 205.871094 360.96875 L 195.871094 360.96875 L 195.871094 380.96875 "/>
<path style="fill-rule:nonzero;fill:rgb(90%,65%,0%);fill-opacity:1;stroke-width:1;stroke-linecap:butt;stroke-linejoin:round;stroke:rgb(0%,0%,0%);stroke-opacity:1;stroke-miterlimit:10;" d="M 310.214844 300.679688 L 290.214844 300.679688 L 290.214844 310.679688 L 310.214844 310.679688 L 310.214844 330.679688 L 320.214844 330.679688 L 320.214844 310.679688 L 340.214844 310.679688 L 340.214844 300.679688 L 320.214844 300.679688 L 320.214844 280.679688 L 310.214844 280.679688 L 310.214844 300.679688 "/>
<path style="fill-rule:nonzero;fill:rgb(90%,65%,0%);fill-opacity:1;stroke-width:1;stroke-linecap:butt;stroke-linejoin:round;stroke:rgb(0%,0%,0%);stroke-opacity:1;stroke-miterlimit:10;" d="M 365.234375 41.003906 L 345.234375 41.003906 L 345.234375 51.003906 L 365.234375 51.003906 L 365.234375 71.003906 L 375.234375 71.003906 L 375.234375 51.003906 L 395.234375 51.003906 L 395.234375 41.003906 L 375.234375 41.003906 L 375.234375 21.003906 L 365.234375 21.003906 L 365.234375 41.003906 "/>
<path style="fill-rule:nonzero;fill:rgb(90%,65%,0%);fill-opacity:1;stroke-width:1;stroke-linecap:butt;stroke-linejoin:round;stroke:rgb(0%,0%,0%);stroke-opacity:1;stroke-miterlimit:10;" d="M 369.957031 153.6875 L 349.957031 153.6875 L 349.957031 163.6875 L 369.957031 163.6875 L 369.957031 183.6875 L 379.957031 183.6875 L 379.957031 163.6875 L 399.957031 163.6875 L 399.957031 153.6875 L 379.957031 153.6875 L 379.957031 133.6875 L 369.957031 133.6875 L 369.957031 153.6875 "/>
<path style="fill-rule:nonzero;fill:rgb(90%,65%,0%);fill-opacity:1;stroke-width:1;stroke-linecap:butt;stroke-linejoin:round;stroke:rgb(0%,0%,0%);stroke-opacity:1;stroke-miterlimit:10;" d="M 109.871094 160.449219 L 89.871094 160.449219 L 89.871094 170.449219 L 109.871094 170.449219 L 109.871094 190.449219 L 119.871094 190.449219 L 119.871094 170.449219 L 139.871094 170.449219 L 139.871094 160.449219 L 119.871094 160.449219 L 119.871094 140.449219 L 109.871094 140.449219 L 109.871094 160.449219 "/>
</g>
</svg>
