<?xml version="1.0" encoding="UTF-8"?>
<svg xmlns="http://www.w3.org/2000/svg" xmlns:xlink="http://www.w3.org/1999/xlink" width="517pt" height="517pt" viewBox="0 0 517 517" version="1.1">
<g id="surface4486">
<rect x="0" y="0" width="517" height="517" style="fill:rgb(90%,90%,90%);fill-opacity:1;stroke:none;"/>
<path style="fill:none;stroke-width:5;stroke-linecap:butt;stroke-linejoin:round;stroke:rgb(100%,0%,0%);stroke-opacity:1;stroke-miterlimit:10;" d="M 5 261 L 261 261 L 261 517 L 5 517 Z M 5 261 "/>
<path style="fill-rule:nonzero;fill:rgb(50%,0%,50%);fill-opacity:1;stroke-width:1;stroke-linecap:butt;stroke-linejoin:round;stroke:rgb(0%,0%,0%);stroke-opacity:1;stroke-miterlimit:10;" d="M 70.175781 388.480469 C 70.175781 374.078125 46.175781 374.078125 46.175781 388.480469 C 46.175781 402.878906 70.175781 405.28125 70.175781 417.28125 C 70.175781 405.28125 94.175781 402.878906 94.175781 388.480469 C 94.175781 374.078125 70.175781 374.078125 70.175781 388.480469 "/>
<path style="fill-rule:nonzero;fill:rgb(90%,65%,0%);fill-opacity:1;stroke-width:1;stroke-linecap:butt;stroke-linejoin:round;stroke:rgb(0%,0%,0%);stroke-opacity:1;stroke-miterlimit:10;" d="M 142.902344 130.269531 C 142.902344 115.867188 118.902344 115.867188 118.902344 130.269531 C 118.902344 144.667969 142.902344 147.070312 142.902344 159.070312 C 142.902344 147.070312 166.902344 144.667969 166.902344 130.269531 C 166.902344 115.867188 142.902344 115.867188 142.902344 130.269531 "/>
<path style="fill-rule:nonzero;fill:rgb(90%,65%,0%);fill-opacity:1;stroke-width:1;stroke-linecap:butt;stroke-linejoin:round;stroke:rgb(0%,0%,0%);stroke-opacity:1;stroke-miterlimit:10;" d="M 297.273438 338.492188 C 297.273438 324.09375 273.273438 324.09375 273.273438 338.492188 C 273.273438 352.894531 297.273438 355.292969 297.273438 367.292969 C 297.273438 355.292969 321.273438 352.894531 321.273438 338.492188 C 321.273438 324.09375 297.273438 324.09375 297.273438 338.492188 "/>
<path style="fill-rule:nonzero;fill:rgb(90%,65%,0%);fill-opacity:1;stroke-width:1;stroke-linecap:butt;stroke-linejoin:round;stroke:rgb(0%,0%,0%);stroke-opacity:1;stroke-miterlimit:10;" d="M 395.707031 380.445312 C 395.707031 366.046875 371.707031 366.046875 371.707031 380.445312 C 371.707031 394.847656 395.707031 397.246094 395.707031 409.246094 C 395.707031 397.246094 419.707031 394.847656 419.707031 380.445312 C 419.707031 366.046875 395.707031 366.046875 395.707031 380.445312 "/>
<path style="fill-rule:nonzero;fill:rgb(90%,65%,0%);fill-opacity:1;stroke-width:1;stroke-linecap:butt;stroke-linejoin:round;stroke:rgb(0%,0%,0%);stroke-opacity:1;stroke-miterlimit:10;" d="M 451.636719 421.160156 C 451.636719 406.757812 427.636719 406.757812 427.636719 421.160156 C 427.636719 435.558594 451.636719 437.960938 451.636719 449.960938 C 451.636719 437.960938 475.636719 435.558594 475.636719 421.160156 C 475.636719 406.757812 451.636719 406.757812 451.636719 421.160156 "/>
<path style="fill-rule:nonzero;fill:rgb(90%,65%,0%);fill-opacity:1;stroke-width:1;stroke-linecap:butt;stroke-linejoin:round;stroke:rgb(0%,0%,0%);stroke-opacity:1;stroke-miterlimit:10;" d="M 294.453125 427.621094 C 294.453125 413.21875 270.453125 413.21875 270.453125 427.621094 C 270.453125 442.019531 294.453125 444.421875 294.453125 456.421875 C 294.453125 444.421875 318.453125 442.019531 318.453125 427.621094 C 318.453125 413.21875 294.453125 413.21875 294.453125 427.621094 "/>
</g>
</svg>
