<?xml version="1.0" encoding="UTF-8"?>
<svg xmlns="http://www.w3.org/2000/svg" xmlns:xlink="http://www.w3.org/1999/xlink" width="517pt" height="517pt" viewBox="0 0 517 517" version="1.1">
<g id="surface9406">
<rect x="0" y="0" width="517" height="517" style="fill:rgb(90%,90%,90%);fill-opacity:1;stroke:none;"/>
<path style="fill:none;stroke-width:5;stroke-linecap:butt;stroke-linejoin:round;stroke:rgb(100%,0%,0%);stroke-opacity:1;stroke-miterlimit:10;" d="M 5 261 L 261 261 L 261 517 L 5 517 Z M 5 261 "/>
<path style="fill-rule:nonzero;fill:rgb(0%,0%,0%);fill-opacity:1;stroke-width:1;stroke-linecap:butt;stroke-linejoin:round;stroke:rgb(0%,0%,0%);stroke-opacity:1;stroke-miterlimit:10;" d="M 142.679688 287.898438 L 122.679688 287.898438 L 122.679688 297.898438 L 142.679688 297.898438 L 142.679688 317.898438 L 152.679688 317.898438 L 152.679688 297.898438 L 172.679688 297.898438 L 172.679688 287.898438 L 152.679688 287.898438 L 152.679688 267.898438 L 142.679688 267.898438 L 142.679688 287.898438 "/>
<path style="fill-rule:nonzero;fill:rgb(100%,0%,0%);fill-opacity:1;stroke-width:1;stroke-linecap:butt;stroke-linejoin:round;stroke:rgb(0%,0%,0%);stroke-opacity:1;stroke-miterlimit:10;" d="M 158.0625 81.59375 L 138.0625 81.59375 L 138.0625 91.59375 L 158.0625 91.59375 L 158.0625 111.59375 L 168.0625 111.59375 L 168.0625 91.59375 L 188.0625 91.59375 L 188.0625 81.59375 L 168.0625 81.59375 L 168.0625 61.59375 L 158.0625 61.59375 L 158.0625 81.59375 "/>
<path style="fill-rule:nonzero;fill:rgb(100%,0%,0%);fill-opacity:1;stroke-width:1;stroke-linecap:butt;stroke-linejoin:round;stroke:rgb(0%,0%,0%);stroke-opacity:1;stroke-miterlimit:10;" d="M 423.003906 51.882812 L 403.003906 51.882812 L 403.003906 61.882812 L 423.003906 61.882812 L 423.003906 81.882812 L 433.003906 81.882812 L 433.003906 61.882812 L 453.003906 61.882812 L 453.003906 51.882812 L 433.003906 51.882812 L 433.003906 31.882812 L 423.003906 31.882812 L 423.003906 51.882812 "/>
<path style="fill-rule:nonzero;fill:rgb(100%,0%,0%);fill-opacity:1;stroke-width:1;stroke-linecap:butt;stroke-linejoin:round;stroke:rgb(0%,0%,0%);stroke-opacity:1;stroke-miterlimit:10;" d="M 369.261719 212.835938 L 349.261719 212.835938 L 349.261719 222.835938 L 369.261719 222.835938 L 369.261719 242.835938 L 379.261719 242.835938 L 379.261719 222.835938 L 399.261719 222.835938 L 399.261719 212.835938 L 379.261719 212.835938 L 379.261719 192.835938 L 369.261719 192.835938 L 369.261719 212.835938 "/>
<path style="fill-rule:nonzero;fill:rgb(100%,0%,0%);fill-opacity:1;stroke-width:1;stroke-linecap:butt;stroke-linejoin:round;stroke:rgb(0%,0%,0%);stroke-opacity:1;stroke-miterlimit:10;" d="M 381.957031 291.25 L 361.957031 291.25 L 361.957031 301.25 L 381.957031 301.25 L 381.957031 321.25 L 391.957031 321.25 L 391.957031 301.25 L 411.957031 301.25 L 411.957031 291.25 L 391.957031 291.25 L 391.957031 271.25 L 381.957031 271.25 L 381.957031 291.25 "/>
</g>
</svg>
