<?xml version="1.0" encoding="UTF-8"?>
<svg xmlns="http://www.w3.org/2000/svg" xmlns:xlink="http://www.w3.org/1999/xlink" width="517pt" height="517pt" viewBox="0 0 517 517" version="1.1">
<g id="surface4246">
<rect x="0" y="0" width="517" height="517" style="fill:rgb(90%,90%,90%);fill-opacity:1;stroke:none;"/>
<path style="fill:none;stroke-width:5;stroke-linecap:butt;stroke-linejoin:round;stroke:rgb(100%,0%,0%);stroke-opacity:1;stroke-miterlimit:10;" d="M 261 5 L 517 5 L 517 261 L 261 261 Z M 261 5 "/>
<path style="fill-rule:nonzero;fill:rgb(25%,88%,82%);fill-opacity:1;stroke-width:1;stroke-linecap:butt;stroke-linejoin:round;stroke:rgb(0%,0%,0%);stroke-opacity:1;stroke-miterlimit:10;" d="M 363.003906 135.15625 L 343.003906 135.15625 L 343.003906 145.15625 L 363.003906 145.15625 L 363.003906 165.15625 L 373.003906 165.15625 L 373.003906 145.15625 L 393.003906 145.15625 L 393.003906 135.15625 L 373.003906 135.15625 L 373.003906 115.15625 L 363.003906 115.15625 L 363.003906 135.15625 "/>
<path style="fill-rule:nonzero;fill:rgb(90%,65%,0%);fill-opacity:1;stroke-width:1;stroke-linecap:butt;stroke-linejoin:round;stroke:rgb(0%,0%,0%);stroke-opacity:1;stroke-miterlimit:10;" d="M 51.277344 128.027344 L 31.277344 128.027344 L 31.277344 138.027344 L 51.277344 138.027344 L 51.277344 158.027344 L 61.277344 158.027344 L 61.277344 138.027344 L 81.277344 138.027344 L 81.277344 128.027344 L 61.277344 128.027344 L 61.277344 108.027344 L 51.277344 108.027344 L 51.277344 128.027344 "/>
<path style="fill-rule:nonzero;fill:rgb(90%,65%,0%);fill-opacity:1;stroke-width:1;stroke-linecap:butt;stroke-linejoin:round;stroke:rgb(0%,0%,0%);stroke-opacity:1;stroke-miterlimit:10;" d="M 128.21875 39.332031 L 108.21875 39.332031 L 108.21875 49.332031 L 128.21875 49.332031 L 128.21875 69.332031 L 138.21875 69.332031 L 138.21875 49.332031 L 158.21875 49.332031 L 158.21875 39.332031 L 138.21875 39.332031 L 138.21875 19.332031 L 128.21875 19.332031 L 128.21875 39.332031 "/>
<path style="fill-rule:nonzero;fill:rgb(90%,65%,0%);fill-opacity:1;stroke-width:1;stroke-linecap:butt;stroke-linejoin:round;stroke:rgb(0%,0%,0%);stroke-opacity:1;stroke-miterlimit:10;" d="M 206.628906 318.257812 L 186.628906 318.257812 L 186.628906 328.257812 L 206.628906 328.257812 L 206.628906 348.257812 L 216.628906 348.257812 L 216.628906 328.257812 L 236.628906 328.257812 L 236.628906 318.257812 L 216.628906 318.257812 L 216.628906 298.257812 L 206.628906 298.257812 L 206.628906 318.257812 "/>
<path style="fill-rule:nonzero;fill:rgb(90%,65%,0%);fill-opacity:1;stroke-width:1;stroke-linecap:butt;stroke-linejoin:round;stroke:rgb(0%,0%,0%);stroke-opacity:1;stroke-miterlimit:10;" d="M 168.160156 458.238281 L 148.160156 458.238281 L 148.160156 468.238281 L 168.160156 468.238281 L 168.160156 488.238281 L 178.160156 488.238281 L 178.160156 468.238281 L 198.160156 468.238281 L 198.160156 458.238281 L 178.160156 458.238281 L 178.160156 438.238281 L 168.160156 438.238281 L 168.160156 458.238281 "/>
<path style="fill-rule:nonzero;fill:rgb(90%,65%,0%);fill-opacity:1;stroke-width:1;stroke-linecap:butt;stroke-linejoin:round;stroke:rgb(0%,0%,0%);stroke-opacity:1;stroke-miterlimit:10;" d="M 354.089844 430.714844 L 334.089844 430.714844 L 334.089844 440.714844 L 354.089844 440.714844 L 354.089844 460.714844 L 364.089844 460.714844 L 364.089844 440.714844 L 384.089844 440.714844 L 384.089844 430.714844 L 364.089844 430.714844 L 364.089844 410.714844 L 354.089844 410.714844 L 354.089844 430.714844 "/>
</g>
</svg>
