<?xml version="1.0" encoding="UTF-8"?>
<svg xmlns="http://www.w3.org/2000/svg" xmlns:xlink="http://www.w3.org/1999/xlink" width="517pt" height="517pt" viewBox="0 0 517 517" version="1.1">
<g id="surface4631">
<rect x="0" y="0" width="517" height="517" style="fill:rgb(90%,90%,90%);fill-opacity:1;stroke:none;"/>
<path style="fill:none;stroke-width:5;stroke-linecap:butt;stroke-linejoin:round;stroke:rgb(100%,0%,0%);stroke-opacity:1;stroke-miterlimit:10;" d="M 5 261 L 261 261 L 261 517 L 5 517 Z M 5 261 "/>
<path style="fill-rule:nonzero;fill:rgb(100%,0%,0%);fill-opacity:1;stroke-width:1;stroke-linecap:butt;stroke-linejoin:round;stroke:rgb(0%,0%,0%);stroke-opacity:1;stroke-miterlimit:10;" d="M 168.636719 371.222656 C 168.636719 356.824219 144.636719 356.824219 144.636719 371.222656 C 144.636719 385.625 168.636719 388.023438 168.636719 400.023438 C 168.636719 388.023438 192.636719 385.625 192.636719 371.222656 C 192.636719 356.824219 168.636719 356.824219 168.636719 371.222656 "/>
<path style="fill-rule:nonzero;fill:rgb(100%,100%,0%);fill-opacity:1;stroke-width:1;stroke-linecap:butt;stroke-linejoin:round;stroke:rgb(0%,0%,0%);stroke-opacity:1;stroke-miterlimit:10;" d="M 173.453125 140.417969 C 173.453125 126.019531 149.453125 126.019531 149.453125 140.417969 C 149.453125 154.820312 173.453125 157.21875 173.453125 169.21875 C 173.453125 157.21875 197.453125 154.820312 197.453125 140.417969 C 197.453125 126.019531 173.453125 126.019531 173.453125 140.417969 "/>
<path style="fill-rule:nonzero;fill:rgb(53%,27%,7%);fill-opacity:1;stroke-width:1;stroke-linecap:butt;stroke-linejoin:round;stroke:rgb(0%,0%,0%);stroke-opacity:1;stroke-miterlimit:10;" d="M 336.613281 93.378906 C 336.613281 78.980469 312.613281 78.980469 312.613281 93.378906 C 312.613281 107.777344 336.613281 110.179688 336.613281 122.179688 C 336.613281 110.179688 360.613281 107.777344 360.613281 93.378906 C 360.613281 78.980469 336.613281 78.980469 336.613281 93.378906 "/>
<path style="fill-rule:nonzero;fill:rgb(53%,27%,7%);fill-opacity:1;stroke-width:1;stroke-linecap:butt;stroke-linejoin:round;stroke:rgb(0%,0%,0%);stroke-opacity:1;stroke-miterlimit:10;" d="M 471.378906 342.167969 C 471.378906 327.765625 447.378906 327.765625 447.378906 342.167969 C 447.378906 356.566406 471.378906 358.96875 471.378906 370.96875 C 471.378906 358.96875 495.378906 356.566406 495.378906 342.167969 C 495.378906 327.765625 471.378906 327.765625 471.378906 342.167969 "/>
<path style="fill-rule:nonzero;fill:rgb(53%,27%,7%);fill-opacity:1;stroke-width:1;stroke-linecap:butt;stroke-linejoin:round;stroke:rgb(0%,0%,0%);stroke-opacity:1;stroke-miterlimit:10;" d="M 331.433594 461.738281 C 331.433594 447.335938 307.433594 447.335938 307.433594 461.738281 C 307.433594 476.136719 331.433594 478.539062 331.433594 490.539062 C 331.433594 478.539062 355.433594 476.136719 355.433594 461.738281 C 355.433594 447.335938 331.433594 447.335938 331.433594 461.738281 "/>
<path style="fill-rule:nonzero;fill:rgb(53%,27%,7%);fill-opacity:1;stroke-width:1;stroke-linecap:butt;stroke-linejoin:round;stroke:rgb(0%,0%,0%);stroke-opacity:1;stroke-miterlimit:10;" d="M 310.066406 327.929688 C 310.066406 313.527344 286.066406 313.527344 286.066406 327.929688 C 286.066406 342.328125 310.066406 344.726562 310.066406 356.726562 C 310.066406 344.726562 334.066406 342.328125 334.066406 327.929688 C 334.066406 313.527344 310.066406 313.527344 310.066406 327.929688 "/>
</g>
</svg>
