<?xml version="1.0" encoding="UTF-8"?>
<svg xmlns="http://www.w3.org/2000/svg" xmlns:xlink="http://www.w3.org/1999/xlink" width="517pt" height="517pt" viewBox="0 0 517 517" version="1.1">
<g id="surface9246">
<rect x="0" y="0" width="517" height="517" style="fill:rgb(90%,90%,90%);fill-opacity:1;stroke:none;"/>
<path style="fill:none;stroke-width:5;stroke-linecap:butt;stroke-linejoin:round;stroke:rgb(100%,0%,0%);stroke-opacity:1;stroke-miterlimit:10;" d="M 261 261 L 517 261 L 517 517 L 261 517 Z M 261 261 "/>
<path style="fill-rule:nonzero;fill:rgb(100%,0%,0%);fill-opacity:1;stroke-width:1;stroke-linecap:butt;stroke-linejoin:round;stroke:rgb(0%,0%,0%);stroke-opacity:1;stroke-miterlimit:10;" d="M 461.910156 289.484375 L 441.910156 289.484375 L 441.910156 299.484375 L 461.910156 299.484375 L 461.910156 319.484375 L 471.910156 319.484375 L 471.910156 299.484375 L 491.910156 299.484375 L 491.910156 289.484375 L 471.910156 289.484375 L 471.910156 269.484375 L 461.910156 269.484375 L 461.910156 289.484375 "/>
<path style="fill-rule:nonzero;fill:rgb(50%,0%,50%);fill-opacity:1;stroke-width:1;stroke-linecap:butt;stroke-linejoin:round;stroke:rgb(0%,0%,0%);stroke-opacity:1;stroke-miterlimit:10;" d="M 164.78125 47.714844 L 144.78125 47.714844 L 144.78125 57.714844 L 164.78125 57.714844 L 164.78125 77.714844 L 174.78125 77.714844 L 174.78125 57.714844 L 194.78125 57.714844 L 194.78125 47.714844 L 174.78125 47.714844 L 174.78125 27.714844 L 164.78125 27.714844 L 164.78125 47.714844 "/>
<path style="fill-rule:nonzero;fill:rgb(50%,0%,50%);fill-opacity:1;stroke-width:1;stroke-linecap:butt;stroke-linejoin:round;stroke:rgb(0%,0%,0%);stroke-opacity:1;stroke-miterlimit:10;" d="M 300.445312 79.070312 L 280.445312 79.070312 L 280.445312 89.070312 L 300.445312 89.070312 L 300.445312 109.070312 L 310.445312 109.070312 L 310.445312 89.070312 L 330.445312 89.070312 L 330.445312 79.070312 L 310.445312 79.070312 L 310.445312 59.070312 L 300.445312 59.070312 L 300.445312 79.070312 "/>
<path style="fill-rule:nonzero;fill:rgb(50%,0%,50%);fill-opacity:1;stroke-width:1;stroke-linecap:butt;stroke-linejoin:round;stroke:rgb(0%,0%,0%);stroke-opacity:1;stroke-miterlimit:10;" d="M 461.800781 116.566406 L 441.800781 116.566406 L 441.800781 126.566406 L 461.800781 126.566406 L 461.800781 146.566406 L 471.800781 146.566406 L 471.800781 126.566406 L 491.800781 126.566406 L 491.800781 116.566406 L 471.800781 116.566406 L 471.800781 96.566406 L 461.800781 96.566406 L 461.800781 116.566406 "/>
<path style="fill-rule:nonzero;fill:rgb(50%,0%,50%);fill-opacity:1;stroke-width:1;stroke-linecap:butt;stroke-linejoin:round;stroke:rgb(0%,0%,0%);stroke-opacity:1;stroke-miterlimit:10;" d="M 379.234375 65.792969 L 359.234375 65.792969 L 359.234375 75.792969 L 379.234375 75.792969 L 379.234375 95.792969 L 389.234375 95.792969 L 389.234375 75.792969 L 409.234375 75.792969 L 409.234375 65.792969 L 389.234375 65.792969 L 389.234375 45.792969 L 379.234375 45.792969 L 379.234375 65.792969 "/>
</g>
</svg>
