<?xml version="1.0" encoding="UTF-8"?>
<svg xmlns="http://www.w3.org/2000/svg" xmlns:xlink="http://www.w3.org/1999/xlink" width="517pt" height="517pt" viewBox="0 0 517 517" version="1.1">
<g id="surface4681">
<rect x="0" y="0" width="517" height="517" style="fill:rgb(90%,90%,90%);fill-opacity:1;stroke:none;"/>
<path style="fill:none;stroke-width:5;stroke-linecap:butt;stroke-linejoin:round;stroke:rgb(100%,0%,0%);stroke-opacity:1;stroke-miterlimit:10;" d="M 5 261 L 261 261 L 261 517 L 5 517 Z M 5 261 "/>
<path style="fill-rule:nonzero;fill:rgb(25%,88%,82%);fill-opacity:1;stroke-width:1;stroke-linecap:butt;stroke-linejoin:round;stroke:rgb(0%,0%,0%);stroke-opacity:1;stroke-miterlimit:10;" d="M 40.175781 379.429688 C 40.175781 365.03125 16.175781 365.03125 16.175781 379.429688 C 16.175781 393.832031 40.175781 396.230469 40.175781 408.230469 C 40.175781 396.230469 64.175781 393.832031 64.175781 379.429688 C 64.175781 365.03125 40.175781 365.03125 40.175781 379.429688 "/>
<path style="fill-rule:nonzero;fill:rgb(100%,100%,0%);fill-opacity:1;stroke-width:1;stroke-linecap:butt;stroke-linejoin:round;stroke:rgb(0%,0%,0%);stroke-opacity:1;stroke-miterlimit:10;" d="M 46.773438 132.09375 C 46.773438 117.695312 22.773438 117.695312 22.773438 132.09375 C 22.773438 146.496094 46.773438 148.894531 46.773438 160.894531 C 46.773438 148.894531 70.773438 146.496094 70.773438 132.09375 C 70.773438 117.695312 46.773438 117.695312 46.773438 132.09375 "/>
<path style="fill-rule:nonzero;fill:rgb(25%,88%,82%);fill-opacity:1;stroke-width:1;stroke-linecap:butt;stroke-linejoin:round;stroke:rgb(0%,0%,0%);stroke-opacity:1;stroke-miterlimit:10;" d="M 321.355469 444.242188 C 321.355469 429.84375 297.355469 429.84375 297.355469 444.242188 C 297.355469 458.640625 321.355469 461.042969 321.355469 473.042969 C 321.355469 461.042969 345.355469 458.640625 345.355469 444.242188 C 345.355469 429.84375 321.355469 429.84375 321.355469 444.242188 "/>
<path style="fill-rule:nonzero;fill:rgb(25%,88%,82%);fill-opacity:1;stroke-width:1;stroke-linecap:butt;stroke-linejoin:round;stroke:rgb(0%,0%,0%);stroke-opacity:1;stroke-miterlimit:10;" d="M 323.976562 297.449219 C 323.976562 283.050781 299.976562 283.050781 299.976562 297.449219 C 299.976562 311.851562 323.976562 314.25 323.976562 326.25 C 323.976562 314.25 347.976562 311.851562 347.976562 297.449219 C 347.976562 283.050781 323.976562 283.050781 323.976562 297.449219 "/>
<path style="fill-rule:nonzero;fill:rgb(25%,88%,82%);fill-opacity:1;stroke-width:1;stroke-linecap:butt;stroke-linejoin:round;stroke:rgb(0%,0%,0%);stroke-opacity:1;stroke-miterlimit:10;" d="M 419.839844 297.1875 C 419.839844 282.785156 395.839844 282.785156 395.839844 297.1875 C 395.839844 311.585938 419.839844 313.984375 419.839844 325.984375 C 419.839844 313.984375 443.839844 311.585938 443.839844 297.1875 C 443.839844 282.785156 419.839844 282.785156 419.839844 297.1875 "/>
<path style="fill-rule:nonzero;fill:rgb(25%,88%,82%);fill-opacity:1;stroke-width:1;stroke-linecap:butt;stroke-linejoin:round;stroke:rgb(0%,0%,0%);stroke-opacity:1;stroke-miterlimit:10;" d="M 353.128906 59.808594 C 353.128906 45.40625 329.128906 45.40625 329.128906 59.808594 C 329.128906 74.207031 353.128906 76.605469 353.128906 88.605469 C 353.128906 76.605469 377.128906 74.207031 377.128906 59.808594 C 377.128906 45.40625 353.128906 45.40625 353.128906 59.808594 "/>
</g>
</svg>
