<?xml version="1.0" encoding="UTF-8"?>
<svg xmlns="http://www.w3.org/2000/svg" xmlns:xlink="http://www.w3.org/1999/xlink" width="517pt" height="517pt" viewBox="0 0 517 517" version="1.1">
<g id="surface4526">
<rect x="0" y="0" width="517" height="517" style="fill:rgb(90%,90%,90%);fill-opacity:1;stroke:none;"/>
<path style="fill:none;stroke-width:5;stroke-linecap:butt;stroke-linejoin:round;stroke:rgb(100%,0%,0%);stroke-opacity:1;stroke-miterlimit:10;" d="M 5 261 L 261 261 L 261 517 L 5 517 Z M 5 261 "/>
<path style="fill-rule:nonzero;fill:rgb(50%,0%,50%);fill-opacity:1;stroke-width:1;stroke-linecap:butt;stroke-linejoin:round;stroke:rgb(0%,0%,0%);stroke-opacity:1;stroke-miterlimit:10;" d="M 62.082031 313.90625 C 62.082031 299.507812 38.082031 299.507812 38.082031 313.90625 C 38.082031 328.308594 62.082031 330.707031 62.082031 342.707031 C 62.082031 330.707031 86.082031 328.308594 86.082031 313.90625 C 86.082031 299.507812 62.082031 299.507812 62.082031 313.90625 "/>
<path style="fill-rule:nonzero;fill:rgb(90%,65%,0%);fill-opacity:1;stroke-width:1;stroke-linecap:butt;stroke-linejoin:round;stroke:rgb(0%,0%,0%);stroke-opacity:1;stroke-miterlimit:10;" d="M 144.378906 102.40625 C 144.378906 88.007812 120.378906 88.007812 120.378906 102.40625 C 120.378906 116.808594 144.378906 119.207031 144.378906 131.207031 C 144.378906 119.207031 168.378906 116.808594 168.378906 102.40625 C 168.378906 88.007812 144.378906 88.007812 144.378906 102.40625 "/>
<path style="fill-rule:nonzero;fill:rgb(50%,0%,50%);fill-opacity:1;stroke-width:1;stroke-linecap:butt;stroke-linejoin:round;stroke:rgb(0%,0%,0%);stroke-opacity:1;stroke-miterlimit:10;" d="M 423.496094 290.554688 C 423.496094 276.15625 399.496094 276.15625 399.496094 290.554688 C 399.496094 304.957031 423.496094 307.355469 423.496094 319.355469 C 423.496094 307.355469 447.496094 304.957031 447.496094 290.554688 C 447.496094 276.15625 423.496094 276.15625 423.496094 290.554688 "/>
<path style="fill-rule:nonzero;fill:rgb(50%,0%,50%);fill-opacity:1;stroke-width:1;stroke-linecap:butt;stroke-linejoin:round;stroke:rgb(0%,0%,0%);stroke-opacity:1;stroke-miterlimit:10;" d="M 371.820312 431.171875 C 371.820312 416.769531 347.820312 416.769531 347.820312 431.171875 C 347.820312 445.570312 371.820312 447.96875 371.820312 459.96875 C 371.820312 447.96875 395.820312 445.570312 395.820312 431.171875 C 395.820312 416.769531 371.820312 416.769531 371.820312 431.171875 "/>
<path style="fill-rule:nonzero;fill:rgb(50%,0%,50%);fill-opacity:1;stroke-width:1;stroke-linecap:butt;stroke-linejoin:round;stroke:rgb(0%,0%,0%);stroke-opacity:1;stroke-miterlimit:10;" d="M 431.113281 445.636719 C 431.113281 431.238281 407.113281 431.238281 407.113281 445.636719 C 407.113281 460.039062 431.113281 462.4375 431.113281 474.4375 C 431.113281 462.4375 455.113281 460.039062 455.113281 445.636719 C 455.113281 431.238281 431.113281 431.238281 431.113281 445.636719 "/>
<path style="fill-rule:nonzero;fill:rgb(50%,0%,50%);fill-opacity:1;stroke-width:1;stroke-linecap:butt;stroke-linejoin:round;stroke:rgb(0%,0%,0%);stroke-opacity:1;stroke-miterlimit:10;" d="M 301.796875 134.636719 C 301.796875 120.238281 277.796875 120.238281 277.796875 134.636719 C 277.796875 149.039062 301.796875 151.4375 301.796875 163.4375 C 301.796875 151.4375 325.796875 149.039062 325.796875 134.636719 C 325.796875 120.238281 301.796875 120.238281 301.796875 134.636719 "/>
</g>
</svg>
