<?xml version="1.0" encoding="UTF-8"?>
<svg xmlns="http://www.w3.org/2000/svg" xmlns:xlink="http://www.w3.org/1999/xlink" width="517pt" height="517pt" viewBox="0 0 517 517" version="1.1">
<g id="surface4611">
<rect x="0" y="0" width="517" height="517" style="fill:rgb(90%,90%,90%);fill-opacity:1;stroke:none;"/>
<path style="fill:none;stroke-width:5;stroke-linecap:butt;stroke-linejoin:round;stroke:rgb(100%,0%,0%);stroke-opacity:1;stroke-miterlimit:10;" d="M 5 261 L 261 261 L 261 517 L 5 517 Z M 5 261 "/>
<path style="fill-rule:nonzero;fill:rgb(53%,27%,7%);fill-opacity:1;stroke-width:1;stroke-linecap:butt;stroke-linejoin:round;stroke:rgb(0%,0%,0%);stroke-opacity:1;stroke-miterlimit:10;" d="M 121.78125 405.453125 C 121.78125 391.054688 97.78125 391.054688 97.78125 405.453125 C 97.78125 419.855469 121.78125 422.253906 121.78125 434.253906 C 121.78125 422.253906 145.78125 419.855469 145.78125 405.453125 C 145.78125 391.054688 121.78125 391.054688 121.78125 405.453125 "/>
<path style="fill-rule:nonzero;fill:rgb(100%,100%,0%);fill-opacity:1;stroke-width:1;stroke-linecap:butt;stroke-linejoin:round;stroke:rgb(0%,0%,0%);stroke-opacity:1;stroke-miterlimit:10;" d="M 415.558594 163.929688 C 415.558594 149.527344 391.558594 149.527344 391.558594 163.929688 C 391.558594 178.328125 415.558594 180.730469 415.558594 192.730469 C 415.558594 180.730469 439.558594 178.328125 439.558594 163.929688 C 439.558594 149.527344 415.558594 149.527344 415.558594 163.929688 "/>
<path style="fill-rule:nonzero;fill:rgb(53%,27%,7%);fill-opacity:1;stroke-width:1;stroke-linecap:butt;stroke-linejoin:round;stroke:rgb(0%,0%,0%);stroke-opacity:1;stroke-miterlimit:10;" d="M 344.28125 361.507812 C 344.28125 347.105469 320.28125 347.105469 320.28125 361.507812 C 320.28125 375.90625 344.28125 378.308594 344.28125 390.308594 C 344.28125 378.308594 368.28125 375.90625 368.28125 361.507812 C 368.28125 347.105469 344.28125 347.105469 344.28125 361.507812 "/>
<path style="fill-rule:nonzero;fill:rgb(53%,27%,7%);fill-opacity:1;stroke-width:1;stroke-linecap:butt;stroke-linejoin:round;stroke:rgb(0%,0%,0%);stroke-opacity:1;stroke-miterlimit:10;" d="M 460.445312 323.394531 C 460.445312 308.992188 436.445312 308.992188 436.445312 323.394531 C 436.445312 337.792969 460.445312 340.191406 460.445312 352.191406 C 460.445312 340.191406 484.445312 337.792969 484.445312 323.394531 C 484.445312 308.992188 460.445312 308.992188 460.445312 323.394531 "/>
<path style="fill-rule:nonzero;fill:rgb(53%,27%,7%);fill-opacity:1;stroke-width:1;stroke-linecap:butt;stroke-linejoin:round;stroke:rgb(0%,0%,0%);stroke-opacity:1;stroke-miterlimit:10;" d="M 163.210938 76.8125 C 163.210938 62.414062 139.210938 62.414062 139.210938 76.8125 C 139.210938 91.214844 163.210938 93.613281 163.210938 105.613281 C 163.210938 93.613281 187.210938 91.214844 187.210938 76.8125 C 187.210938 62.414062 163.210938 62.414062 163.210938 76.8125 "/>
<path style="fill-rule:nonzero;fill:rgb(53%,27%,7%);fill-opacity:1;stroke-width:1;stroke-linecap:butt;stroke-linejoin:round;stroke:rgb(0%,0%,0%);stroke-opacity:1;stroke-miterlimit:10;" d="M 38.769531 176.613281 C 38.769531 162.210938 14.769531 162.210938 14.769531 176.613281 C 14.769531 191.011719 38.769531 193.414062 38.769531 205.414062 C 38.769531 193.414062 62.769531 191.011719 62.769531 176.613281 C 62.769531 162.210938 38.769531 162.210938 38.769531 176.613281 "/>
</g>
</svg>
