<?xml version="1.0" encoding="UTF-8"?>
<svg xmlns="http://www.w3.org/2000/svg" xmlns:xlink="http://www.w3.org/1999/xlink" width="517pt" height="517pt" viewBox="0 0 517 517" version="1.1">
<g id="surface4651">
<rect x="0" y="0" width="517" height="517" style="fill:rgb(90%,90%,90%);fill-opacity:1;stroke:none;"/>
<path style="fill:none;stroke-width:5;stroke-linecap:butt;stroke-linejoin:round;stroke:rgb(100%,0%,0%);stroke-opacity:1;stroke-miterlimit:10;" d="M 5 261 L 261 261 L 261 517 L 5 517 Z M 5 261 "/>
<path style="fill-rule:nonzero;fill:rgb(25%,88%,82%);fill-opacity:1;stroke-width:1;stroke-linecap:butt;stroke-linejoin:round;stroke:rgb(0%,0%,0%);stroke-opacity:1;stroke-miterlimit:10;" d="M 93.722656 396.617188 C 93.722656 382.21875 69.722656 382.21875 69.722656 396.617188 C 69.722656 411.015625 93.722656 413.417969 93.722656 425.417969 C 93.722656 413.417969 117.722656 411.015625 117.722656 396.617188 C 117.722656 382.21875 93.722656 382.21875 93.722656 396.617188 "/>
<path style="fill-rule:nonzero;fill:rgb(100%,100%,0%);fill-opacity:1;stroke-width:1;stroke-linecap:butt;stroke-linejoin:round;stroke:rgb(0%,0%,0%);stroke-opacity:1;stroke-miterlimit:10;" d="M 58.960938 146.800781 C 58.960938 132.402344 34.960938 132.402344 34.960938 146.800781 C 34.960938 161.199219 58.960938 163.601562 58.960938 175.601562 C 58.960938 163.601562 82.960938 161.199219 82.960938 146.800781 C 82.960938 132.402344 58.960938 132.402344 58.960938 146.800781 "/>
<path style="fill-rule:nonzero;fill:rgb(100%,100%,0%);fill-opacity:1;stroke-width:1;stroke-linecap:butt;stroke-linejoin:round;stroke:rgb(0%,0%,0%);stroke-opacity:1;stroke-miterlimit:10;" d="M 319 310.214844 C 319 295.8125 295 295.8125 295 310.214844 C 295 324.613281 319 327.015625 319 339.015625 C 319 327.015625 343 324.613281 343 310.214844 C 343 295.8125 319 295.8125 319 310.214844 "/>
<path style="fill-rule:nonzero;fill:rgb(100%,100%,0%);fill-opacity:1;stroke-width:1;stroke-linecap:butt;stroke-linejoin:round;stroke:rgb(0%,0%,0%);stroke-opacity:1;stroke-miterlimit:10;" d="M 404.824219 292.367188 C 404.824219 277.96875 380.824219 277.96875 380.824219 292.367188 C 380.824219 306.769531 404.824219 309.167969 404.824219 321.167969 C 404.824219 309.167969 428.824219 306.769531 428.824219 292.367188 C 428.824219 277.96875 404.824219 277.96875 404.824219 292.367188 "/>
<path style="fill-rule:nonzero;fill:rgb(100%,100%,0%);fill-opacity:1;stroke-width:1;stroke-linecap:butt;stroke-linejoin:round;stroke:rgb(0%,0%,0%);stroke-opacity:1;stroke-miterlimit:10;" d="M 387.710938 411.273438 C 387.710938 396.871094 363.710938 396.871094 363.710938 411.273438 C 363.710938 425.671875 387.710938 428.074219 387.710938 440.074219 C 387.710938 428.074219 411.710938 425.671875 411.710938 411.273438 C 411.710938 396.871094 387.710938 396.871094 387.710938 411.273438 "/>
<path style="fill-rule:nonzero;fill:rgb(100%,100%,0%);fill-opacity:1;stroke-width:1;stroke-linecap:butt;stroke-linejoin:round;stroke:rgb(0%,0%,0%);stroke-opacity:1;stroke-miterlimit:10;" d="M 452.238281 375.578125 C 452.238281 361.175781 428.238281 361.175781 428.238281 375.578125 C 428.238281 389.976562 452.238281 392.375 452.238281 404.375 C 452.238281 392.375 476.238281 389.976562 476.238281 375.578125 C 476.238281 361.175781 452.238281 361.175781 452.238281 375.578125 "/>
</g>
</svg>
