<?xml version="1.0" encoding="UTF-8"?>
<svg xmlns="http://www.w3.org/2000/svg" xmlns:xlink="http://www.w3.org/1999/xlink" width="517pt" height="517pt" viewBox="0 0 517 517" version="1.1">
<g id="surface9316">
<rect x="0" y="0" width="517" height="517" style="fill:rgb(90%,90%,90%);fill-opacity:1;stroke:none;"/>
<path style="fill:none;stroke-width:5;stroke-linecap:butt;stroke-linejoin:round;stroke:rgb(100%,0%,0%);stroke-opacity:1;stroke-miterlimit:10;" d="M 5 5 L 261 5 L 261 261 L 5 261 Z M 5 5 "/>
<path style="fill-rule:nonzero;fill:rgb(67%,100%,18%);fill-opacity:1;stroke-width:1;stroke-linecap:butt;stroke-linejoin:round;stroke:rgb(0%,0%,0%);stroke-opacity:1;stroke-miterlimit:10;" d="M 190.914062 112.339844 L 170.914062 112.339844 L 170.914062 122.339844 L 190.914062 122.339844 L 190.914062 142.339844 L 200.914062 142.339844 L 200.914062 122.339844 L 220.914062 122.339844 L 220.914062 112.339844 L 200.914062 112.339844 L 200.914062 92.339844 L 190.914062 92.339844 L 190.914062 112.339844 "/>
<path style="fill-rule:nonzero;fill:rgb(35%,70%,90%);fill-opacity:1;stroke-width:1;stroke-linecap:butt;stroke-linejoin:round;stroke:rgb(0%,0%,0%);stroke-opacity:1;stroke-miterlimit:10;" d="M 60.179688 375.632812 L 40.179688 375.632812 L 40.179688 385.632812 L 60.179688 385.632812 L 60.179688 405.632812 L 70.179688 405.632812 L 70.179688 385.632812 L 90.179688 385.632812 L 90.179688 375.632812 L 70.179688 375.632812 L 70.179688 355.632812 L 60.179688 355.632812 L 60.179688 375.632812 "/>
<path style="fill-rule:nonzero;fill:rgb(35%,70%,90%);fill-opacity:1;stroke-width:1;stroke-linecap:butt;stroke-linejoin:round;stroke:rgb(0%,0%,0%);stroke-opacity:1;stroke-miterlimit:10;" d="M 316.953125 120.679688 L 296.953125 120.679688 L 296.953125 130.679688 L 316.953125 130.679688 L 316.953125 150.679688 L 326.953125 150.679688 L 326.953125 130.679688 L 346.953125 130.679688 L 346.953125 120.679688 L 326.953125 120.679688 L 326.953125 100.679688 L 316.953125 100.679688 L 316.953125 120.679688 "/>
<path style="fill-rule:nonzero;fill:rgb(35%,70%,90%);fill-opacity:1;stroke-width:1;stroke-linecap:butt;stroke-linejoin:round;stroke:rgb(0%,0%,0%);stroke-opacity:1;stroke-miterlimit:10;" d="M 321.722656 204.390625 L 301.722656 204.390625 L 301.722656 214.390625 L 321.722656 214.390625 L 321.722656 234.390625 L 331.722656 234.390625 L 331.722656 214.390625 L 351.722656 214.390625 L 351.722656 204.390625 L 331.722656 204.390625 L 331.722656 184.390625 L 321.722656 184.390625 L 321.722656 204.390625 "/>
<path style="fill-rule:nonzero;fill:rgb(35%,70%,90%);fill-opacity:1;stroke-width:1;stroke-linecap:butt;stroke-linejoin:round;stroke:rgb(0%,0%,0%);stroke-opacity:1;stroke-miterlimit:10;" d="M 342.742188 354.882812 L 322.742188 354.882812 L 322.742188 364.882812 L 342.742188 364.882812 L 342.742188 384.882812 L 352.742188 384.882812 L 352.742188 364.882812 L 372.742188 364.882812 L 372.742188 354.882812 L 352.742188 354.882812 L 352.742188 334.882812 L 342.742188 334.882812 L 342.742188 354.882812 "/>
</g>
</svg>
