<?xml version="1.0" encoding="UTF-8"?>
<svg xmlns="http://www.w3.org/2000/svg" xmlns:xlink="http://www.w3.org/1999/xlink" width="517pt" height="517pt" viewBox="0 0 517 517" version="1.1">
<g id="surface9096">
<rect x="0" y="0" width="517" height="517" style="fill:rgb(90%,90%,90%);fill-opacity:1;stroke:none;"/>
<path style="fill:none;stroke-width:5;stroke-linecap:butt;stroke-linejoin:round;stroke:rgb(100%,0%,0%);stroke-opacity:1;stroke-miterlimit:10;" d="M 5 261 L 261 261 L 261 517 L 5 517 Z M 5 261 "/>
<path style="fill-rule:nonzero;fill:rgb(50%,0%,50%);fill-opacity:1;stroke-width:1;stroke-linecap:butt;stroke-linejoin:round;stroke:rgb(0%,0%,0%);stroke-opacity:1;stroke-miterlimit:10;" d="M 129.609375 389.511719 L 109.609375 389.511719 L 109.609375 399.511719 L 129.609375 399.511719 L 129.609375 419.511719 L 139.609375 419.511719 L 139.609375 399.511719 L 159.609375 399.511719 L 159.609375 389.511719 L 139.609375 389.511719 L 139.609375 369.511719 L 129.609375 369.511719 L 129.609375 389.511719 "/>
<path style="fill-rule:nonzero;fill:rgb(90%,65%,0%);fill-opacity:1;stroke-width:1;stroke-linecap:butt;stroke-linejoin:round;stroke:rgb(0%,0%,0%);stroke-opacity:1;stroke-miterlimit:10;" d="M 424.492188 93.914062 L 404.492188 93.914062 L 404.492188 103.914062 L 424.492188 103.914062 L 424.492188 123.914062 L 434.492188 123.914062 L 434.492188 103.914062 L 454.492188 103.914062 L 454.492188 93.914062 L 434.492188 93.914062 L 434.492188 73.914062 L 424.492188 73.914062 L 424.492188 93.914062 "/>
<path style="fill-rule:nonzero;fill:rgb(90%,65%,0%);fill-opacity:1;stroke-width:1;stroke-linecap:butt;stroke-linejoin:round;stroke:rgb(0%,0%,0%);stroke-opacity:1;stroke-miterlimit:10;" d="M 322.933594 95.949219 L 302.933594 95.949219 L 302.933594 105.949219 L 322.933594 105.949219 L 322.933594 125.949219 L 332.933594 125.949219 L 332.933594 105.949219 L 352.933594 105.949219 L 352.933594 95.949219 L 332.933594 95.949219 L 332.933594 75.949219 L 322.933594 75.949219 L 322.933594 95.949219 "/>
<path style="fill-rule:nonzero;fill:rgb(90%,65%,0%);fill-opacity:1;stroke-width:1;stroke-linecap:butt;stroke-linejoin:round;stroke:rgb(0%,0%,0%);stroke-opacity:1;stroke-miterlimit:10;" d="M 454.4375 426.675781 L 434.4375 426.675781 L 434.4375 436.675781 L 454.4375 436.675781 L 454.4375 456.675781 L 464.4375 456.675781 L 464.4375 436.675781 L 484.4375 436.675781 L 484.4375 426.675781 L 464.4375 426.675781 L 464.4375 406.675781 L 454.4375 406.675781 L 454.4375 426.675781 "/>
<path style="fill-rule:nonzero;fill:rgb(90%,65%,0%);fill-opacity:1;stroke-width:1;stroke-linecap:butt;stroke-linejoin:round;stroke:rgb(0%,0%,0%);stroke-opacity:1;stroke-miterlimit:10;" d="M 102.15625 177.601562 L 82.15625 177.601562 L 82.15625 187.601562 L 102.15625 187.601562 L 102.15625 207.601562 L 112.15625 207.601562 L 112.15625 187.601562 L 132.15625 187.601562 L 132.15625 177.601562 L 112.15625 177.601562 L 112.15625 157.601562 L 102.15625 157.601562 L 102.15625 177.601562 "/>
</g>
</svg>
