<?xml version="1.0" encoding="UTF-8"?>
<svg xmlns="http://www.w3.org/2000/svg" xmlns:xlink="http://www.w3.org/1999/xlink" width="517pt" height="517pt" viewBox="0 0 517 517" version="1.1">
<g id="surface3921">
<rect x="0" y="0" width="517" height="517" style="fill:rgb(90%,90%,90%);fill-opacity:1;stroke:none;"/>
<path style="fill:none;stroke-width:5;stroke-linecap:butt;stroke-linejoin:round;stroke:rgb(100%,0%,0%);stroke-opacity:1;stroke-miterlimit:10;" d="M 5 5 L 261 5 L 261 261 L 5 261 Z M 5 5 "/>
<path style="fill-rule:nonzero;fill:rgb(0%,0%,0%);fill-opacity:1;stroke-width:1;stroke-linecap:butt;stroke-linejoin:round;stroke:rgb(0%,0%,0%);stroke-opacity:1;stroke-miterlimit:10;" d="M 170.515625 208.253906 L 150.515625 208.253906 L 150.515625 218.253906 L 170.515625 218.253906 L 170.515625 238.253906 L 180.515625 238.253906 L 180.515625 218.253906 L 200.515625 218.253906 L 200.515625 208.253906 L 180.515625 208.253906 L 180.515625 188.253906 L 170.515625 188.253906 L 170.515625 208.253906 "/>
<path style="fill-rule:nonzero;fill:rgb(50%,0%,50%);fill-opacity:1;stroke-width:1;stroke-linecap:butt;stroke-linejoin:round;stroke:rgb(0%,0%,0%);stroke-opacity:1;stroke-miterlimit:10;" d="M 452.332031 396.988281 L 432.332031 396.988281 L 432.332031 406.988281 L 452.332031 406.988281 L 452.332031 426.988281 L 462.332031 426.988281 L 462.332031 406.988281 L 482.332031 406.988281 L 482.332031 396.988281 L 462.332031 396.988281 L 462.332031 376.988281 L 452.332031 376.988281 L 452.332031 396.988281 "/>
<path style="fill-rule:nonzero;fill:rgb(50%,0%,50%);fill-opacity:1;stroke-width:1;stroke-linecap:butt;stroke-linejoin:round;stroke:rgb(0%,0%,0%);stroke-opacity:1;stroke-miterlimit:10;" d="M 160.144531 463.386719 L 140.144531 463.386719 L 140.144531 473.386719 L 160.144531 473.386719 L 160.144531 493.386719 L 170.144531 493.386719 L 170.144531 473.386719 L 190.144531 473.386719 L 190.144531 463.386719 L 170.144531 463.386719 L 170.144531 443.386719 L 160.144531 443.386719 L 160.144531 463.386719 "/>
<path style="fill-rule:nonzero;fill:rgb(50%,0%,50%);fill-opacity:1;stroke-width:1;stroke-linecap:butt;stroke-linejoin:round;stroke:rgb(0%,0%,0%);stroke-opacity:1;stroke-miterlimit:10;" d="M 168.617188 363.617188 L 148.617188 363.617188 L 148.617188 373.617188 L 168.617188 373.617188 L 168.617188 393.617188 L 178.617188 393.617188 L 178.617188 373.617188 L 198.617188 373.617188 L 198.617188 363.617188 L 178.617188 363.617188 L 178.617188 343.617188 L 168.617188 343.617188 L 168.617188 363.617188 "/>
<path style="fill-rule:nonzero;fill:rgb(50%,0%,50%);fill-opacity:1;stroke-width:1;stroke-linecap:butt;stroke-linejoin:round;stroke:rgb(0%,0%,0%);stroke-opacity:1;stroke-miterlimit:10;" d="M 48.214844 294.875 L 28.214844 294.875 L 28.214844 304.875 L 48.214844 304.875 L 48.214844 324.875 L 58.214844 324.875 L 58.214844 304.875 L 78.214844 304.875 L 78.214844 294.875 L 58.214844 294.875 L 58.214844 274.875 L 48.214844 274.875 L 48.214844 294.875 "/>
<path style="fill-rule:nonzero;fill:rgb(50%,0%,50%);fill-opacity:1;stroke-width:1;stroke-linecap:butt;stroke-linejoin:round;stroke:rgb(0%,0%,0%);stroke-opacity:1;stroke-miterlimit:10;" d="M 414.992188 169.039062 L 394.992188 169.039062 L 394.992188 179.039062 L 414.992188 179.039062 L 414.992188 199.039062 L 424.992188 199.039062 L 424.992188 179.039062 L 444.992188 179.039062 L 444.992188 169.039062 L 424.992188 169.039062 L 424.992188 149.039062 L 414.992188 149.039062 L 414.992188 169.039062 "/>
</g>
</svg>
