<?xml version="1.0" encoding="UTF-8"?>
<svg xmlns="http://www.w3.org/2000/svg" xmlns:xlink="http://www.w3.org/1999/xlink" width="517pt" height="517pt" viewBox="0 0 517 517" version="1.1">
<g id="surface4306">
<rect x="0" y="0" width="517" height="517" style="fill:rgb(90%,90%,90%);fill-opacity:1;stroke:none;"/>
<path style="fill:none;stroke-width:5;stroke-linecap:butt;stroke-linejoin:round;stroke:rgb(100%,0%,0%);stroke-opacity:1;stroke-miterlimit:10;" d="M 261 5 L 517 5 L 517 261 L 261 261 Z M 261 5 "/>
<path style="fill-rule:nonzero;fill:rgb(90%,65%,0%);fill-opacity:1;stroke-width:1;stroke-linecap:butt;stroke-linejoin:round;stroke:rgb(0%,0%,0%);stroke-opacity:1;stroke-miterlimit:10;" d="M 381.21875 74.636719 L 361.21875 74.636719 L 361.21875 84.636719 L 381.21875 84.636719 L 381.21875 104.636719 L 391.21875 104.636719 L 391.21875 84.636719 L 411.21875 84.636719 L 411.21875 74.636719 L 391.21875 74.636719 L 391.21875 54.636719 L 381.21875 54.636719 L 381.21875 74.636719 "/>
<path style="fill-rule:nonzero;fill:rgb(90%,65%,0%);fill-opacity:1;stroke-width:1;stroke-linecap:butt;stroke-linejoin:round;stroke:rgb(0%,0%,0%);stroke-opacity:1;stroke-miterlimit:10;" d="M 132.25 366.386719 L 112.25 366.386719 L 112.25 376.386719 L 132.25 376.386719 L 132.25 396.386719 L 142.25 396.386719 L 142.25 376.386719 L 162.25 376.386719 L 162.25 366.386719 L 142.25 366.386719 L 142.25 346.386719 L 132.25 346.386719 L 132.25 366.386719 "/>
<path style="fill-rule:nonzero;fill:rgb(90%,65%,0%);fill-opacity:1;stroke-width:1;stroke-linecap:butt;stroke-linejoin:round;stroke:rgb(0%,0%,0%);stroke-opacity:1;stroke-miterlimit:10;" d="M 462.96875 374.953125 L 442.96875 374.953125 L 442.96875 384.953125 L 462.96875 384.953125 L 462.96875 404.953125 L 472.96875 404.953125 L 472.96875 384.953125 L 492.96875 384.953125 L 492.96875 374.953125 L 472.96875 374.953125 L 472.96875 354.953125 L 462.96875 354.953125 L 462.96875 374.953125 "/>
<path style="fill-rule:nonzero;fill:rgb(90%,65%,0%);fill-opacity:1;stroke-width:1;stroke-linecap:butt;stroke-linejoin:round;stroke:rgb(0%,0%,0%);stroke-opacity:1;stroke-miterlimit:10;" d="M 200.121094 122.519531 L 180.121094 122.519531 L 180.121094 132.519531 L 200.121094 132.519531 L 200.121094 152.519531 L 210.121094 152.519531 L 210.121094 132.519531 L 230.121094 132.519531 L 230.121094 122.519531 L 210.121094 122.519531 L 210.121094 102.519531 L 200.121094 102.519531 L 200.121094 122.519531 "/>
<path style="fill-rule:nonzero;fill:rgb(90%,65%,0%);fill-opacity:1;stroke-width:1;stroke-linecap:butt;stroke-linejoin:round;stroke:rgb(0%,0%,0%);stroke-opacity:1;stroke-miterlimit:10;" d="M 168.132812 210.027344 L 148.132812 210.027344 L 148.132812 220.027344 L 168.132812 220.027344 L 168.132812 240.027344 L 178.132812 240.027344 L 178.132812 220.027344 L 198.132812 220.027344 L 198.132812 210.027344 L 178.132812 210.027344 L 178.132812 190.027344 L 168.132812 190.027344 L 168.132812 210.027344 "/>
<path style="fill-rule:nonzero;fill:rgb(90%,65%,0%);fill-opacity:1;stroke-width:1;stroke-linecap:butt;stroke-linejoin:round;stroke:rgb(0%,0%,0%);stroke-opacity:1;stroke-miterlimit:10;" d="M 93.515625 203.953125 L 73.515625 203.953125 L 73.515625 213.953125 L 93.515625 213.953125 L 93.515625 233.953125 L 103.515625 233.953125 L 103.515625 213.953125 L 123.515625 213.953125 L 123.515625 203.953125 L 103.515625 203.953125 L 103.515625 183.953125 L 93.515625 183.953125 L 93.515625 203.953125 "/>
</g>
</svg>
