<?xml version="1.0" encoding="UTF-8"?>
<svg xmlns="http://www.w3.org/2000/svg" xmlns:xlink="http://www.w3.org/1999/xlink" width="517pt" height="517pt" viewBox="0 0 517 517" version="1.1">
<g id="surface4641">
<rect x="0" y="0" width="517" height="517" style="fill:rgb(90%,90%,90%);fill-opacity:1;stroke:none;"/>
<path style="fill:none;stroke-width:5;stroke-linecap:butt;stroke-linejoin:round;stroke:rgb(100%,0%,0%);stroke-opacity:1;stroke-miterlimit:10;" d="M 5 261 L 261 261 L 261 517 L 5 517 Z M 5 261 "/>
<path style="fill-rule:nonzero;fill:rgb(25%,88%,82%);fill-opacity:1;stroke-width:1;stroke-linecap:butt;stroke-linejoin:round;stroke:rgb(0%,0%,0%);stroke-opacity:1;stroke-miterlimit:10;" d="M 193.257812 419.667969 C 193.257812 405.269531 169.257812 405.269531 169.257812 419.667969 C 169.257812 434.070312 193.257812 436.46875 193.257812 448.46875 C 193.257812 436.46875 217.257812 434.070312 217.257812 419.667969 C 217.257812 405.269531 193.257812 405.269531 193.257812 419.667969 "/>
<path style="fill-rule:nonzero;fill:rgb(100%,100%,0%);fill-opacity:1;stroke-width:1;stroke-linecap:butt;stroke-linejoin:round;stroke:rgb(0%,0%,0%);stroke-opacity:1;stroke-miterlimit:10;" d="M 181.226562 33.878906 C 181.226562 19.480469 157.226562 19.480469 157.226562 33.878906 C 157.226562 48.28125 181.226562 50.679688 181.226562 62.679688 C 181.226562 50.679688 205.226562 48.28125 205.226562 33.878906 C 205.226562 19.480469 181.226562 19.480469 181.226562 33.878906 "/>
<path style="fill-rule:nonzero;fill:rgb(100%,100%,0%);fill-opacity:1;stroke-width:1;stroke-linecap:butt;stroke-linejoin:round;stroke:rgb(0%,0%,0%);stroke-opacity:1;stroke-miterlimit:10;" d="M 125.90625 109.542969 C 125.90625 95.140625 101.90625 95.140625 101.90625 109.542969 C 101.90625 123.941406 125.90625 126.34375 125.90625 138.34375 C 125.90625 126.34375 149.90625 123.941406 149.90625 109.542969 C 149.90625 95.140625 125.90625 95.140625 125.90625 109.542969 "/>
<path style="fill-rule:nonzero;fill:rgb(100%,100%,0%);fill-opacity:1;stroke-width:1;stroke-linecap:butt;stroke-linejoin:round;stroke:rgb(0%,0%,0%);stroke-opacity:1;stroke-miterlimit:10;" d="M 408.261719 412.734375 C 408.261719 398.335938 384.261719 398.335938 384.261719 412.734375 C 384.261719 427.132812 408.261719 429.535156 408.261719 441.535156 C 408.261719 429.535156 432.261719 427.132812 432.261719 412.734375 C 432.261719 398.335938 408.261719 398.335938 408.261719 412.734375 "/>
<path style="fill-rule:nonzero;fill:rgb(100%,100%,0%);fill-opacity:1;stroke-width:1;stroke-linecap:butt;stroke-linejoin:round;stroke:rgb(0%,0%,0%);stroke-opacity:1;stroke-miterlimit:10;" d="M 333.90625 378.410156 C 333.90625 364.011719 309.90625 364.011719 309.90625 378.410156 C 309.90625 392.808594 333.90625 395.210938 333.90625 407.210938 C 333.90625 395.210938 357.90625 392.808594 357.90625 378.410156 C 357.90625 364.011719 333.90625 364.011719 333.90625 378.410156 "/>
<path style="fill-rule:nonzero;fill:rgb(100%,100%,0%);fill-opacity:1;stroke-width:1;stroke-linecap:butt;stroke-linejoin:round;stroke:rgb(0%,0%,0%);stroke-opacity:1;stroke-miterlimit:10;" d="M 369.386719 310.0625 C 369.386719 295.664062 345.386719 295.664062 345.386719 310.0625 C 345.386719 324.460938 369.386719 326.863281 369.386719 338.863281 C 369.386719 326.863281 393.386719 324.460938 393.386719 310.0625 C 393.386719 295.664062 369.386719 295.664062 369.386719 310.0625 "/>
</g>
</svg>
