<?xml version="1.0" encoding="UTF-8"?>
<svg xmlns="http://www.w3.org/2000/svg" xmlns:xlink="http://www.w3.org/1999/xlink" width="517pt" height="517pt" viewBox="0 0 517 517" version="1.1">
<g id="surface4706">
<rect x="0" y="0" width="517" height="517" style="fill:rgb(90%,90%,90%);fill-opacity:1;stroke:none;"/>
<path style="fill:none;stroke-width:5;stroke-linecap:butt;stroke-linejoin:round;stroke:rgb(100%,0%,0%);stroke-opacity:1;stroke-miterlimit:10;" d="M 5 261 L 261 261 L 261 517 L 5 517 Z M 5 261 "/>
<path style="fill-rule:nonzero;fill:rgb(100%,100%,0%);fill-opacity:1;stroke-width:1;stroke-linecap:butt;stroke-linejoin:round;stroke:rgb(0%,0%,0%);stroke-opacity:1;stroke-miterlimit:10;" d="M 204.316406 345.230469 C 204.316406 330.828125 180.316406 330.828125 180.316406 345.230469 C 180.316406 359.628906 204.316406 362.03125 204.316406 374.03125 C 204.316406 362.03125 228.316406 359.628906 228.316406 345.230469 C 228.316406 330.828125 204.316406 330.828125 204.316406 345.230469 "/>
<path style="fill-rule:nonzero;fill:rgb(100%,100%,0%);fill-opacity:1;stroke-width:1;stroke-linecap:butt;stroke-linejoin:round;stroke:rgb(0%,0%,0%);stroke-opacity:1;stroke-miterlimit:10;" d="M 323.339844 196.132812 C 323.339844 181.734375 299.339844 181.734375 299.339844 196.132812 C 299.339844 210.53125 323.339844 212.933594 323.339844 224.933594 C 323.339844 212.933594 347.339844 210.53125 347.339844 196.132812 C 347.339844 181.734375 323.339844 181.734375 323.339844 196.132812 "/>
<path style="fill-rule:nonzero;fill:rgb(100%,100%,0%);fill-opacity:1;stroke-width:1;stroke-linecap:butt;stroke-linejoin:round;stroke:rgb(0%,0%,0%);stroke-opacity:1;stroke-miterlimit:10;" d="M 128.59375 163.808594 C 128.59375 149.40625 104.59375 149.40625 104.59375 163.808594 C 104.59375 178.207031 128.59375 180.605469 128.59375 192.605469 C 128.59375 180.605469 152.59375 178.207031 152.59375 163.808594 C 152.59375 149.40625 128.59375 149.40625 128.59375 163.808594 "/>
<path style="fill-rule:nonzero;fill:rgb(100%,100%,0%);fill-opacity:1;stroke-width:1;stroke-linecap:butt;stroke-linejoin:round;stroke:rgb(0%,0%,0%);stroke-opacity:1;stroke-miterlimit:10;" d="M 295.683594 315 C 295.683594 300.601562 271.683594 300.601562 271.683594 315 C 271.683594 329.398438 295.683594 331.800781 295.683594 343.800781 C 295.683594 331.800781 319.683594 329.398438 319.683594 315 C 319.683594 300.601562 295.683594 300.601562 295.683594 315 "/>
<path style="fill-rule:nonzero;fill:rgb(100%,100%,0%);fill-opacity:1;stroke-width:1;stroke-linecap:butt;stroke-linejoin:round;stroke:rgb(0%,0%,0%);stroke-opacity:1;stroke-miterlimit:10;" d="M 404.03125 368.074219 C 404.03125 353.675781 380.03125 353.675781 380.03125 368.074219 C 380.03125 382.476562 404.03125 384.875 404.03125 396.875 C 404.03125 384.875 428.03125 382.476562 428.03125 368.074219 C 428.03125 353.675781 404.03125 353.675781 404.03125 368.074219 "/>
<path style="fill-rule:nonzero;fill:rgb(100%,100%,0%);fill-opacity:1;stroke-width:1;stroke-linecap:butt;stroke-linejoin:round;stroke:rgb(0%,0%,0%);stroke-opacity:1;stroke-miterlimit:10;" d="M 446.503906 437.558594 C 446.503906 423.160156 422.503906 423.160156 422.503906 437.558594 C 422.503906 451.960938 446.503906 454.359375 446.503906 466.359375 C 446.503906 454.359375 470.503906 451.960938 470.503906 437.558594 C 470.503906 423.160156 446.503906 423.160156 446.503906 437.558594 "/>
</g>
</svg>
