<?xml version="1.0" encoding="UTF-8"?>
<svg xmlns="http://www.w3.org/2000/svg" xmlns:xlink="http://www.w3.org/1999/xlink" width="517pt" height="517pt" viewBox="0 0 517 517" version="1.1">
<g id="surface4496">
<rect x="0" y="0" width="517" height="517" style="fill:rgb(90%,90%,90%);fill-opacity:1;stroke:none;"/>
<path style="fill:none;stroke-width:5;stroke-linecap:butt;stroke-linejoin:round;stroke:rgb(100%,0%,0%);stroke-opacity:1;stroke-miterlimit:10;" d="M 5 261 L 261 261 L 261 517 L 5 517 Z M 5 261 "/>
<path style="fill-rule:nonzero;fill:rgb(50%,0%,50%);fill-opacity:1;stroke-width:1;stroke-linecap:butt;stroke-linejoin:round;stroke:rgb(0%,0%,0%);stroke-opacity:1;stroke-miterlimit:10;" d="M 123.695312 443.558594 C 123.695312 429.15625 99.695312 429.15625 99.695312 443.558594 C 99.695312 457.957031 123.695312 460.355469 123.695312 472.355469 C 123.695312 460.355469 147.695312 457.957031 147.695312 443.558594 C 147.695312 429.15625 123.695312 429.15625 123.695312 443.558594 "/>
<path style="fill-rule:nonzero;fill:rgb(90%,65%,0%);fill-opacity:1;stroke-width:1;stroke-linecap:butt;stroke-linejoin:round;stroke:rgb(0%,0%,0%);stroke-opacity:1;stroke-miterlimit:10;" d="M 406.867188 104.957031 C 406.867188 90.558594 382.867188 90.558594 382.867188 104.957031 C 382.867188 119.359375 406.867188 121.757812 406.867188 133.757812 C 406.867188 121.757812 430.867188 119.359375 430.867188 104.957031 C 430.867188 90.558594 406.867188 90.558594 406.867188 104.957031 "/>
<path style="fill-rule:nonzero;fill:rgb(90%,65%,0%);fill-opacity:1;stroke-width:1;stroke-linecap:butt;stroke-linejoin:round;stroke:rgb(0%,0%,0%);stroke-opacity:1;stroke-miterlimit:10;" d="M 319.464844 165.664062 C 319.464844 151.261719 295.464844 151.261719 295.464844 165.664062 C 295.464844 180.0625 319.464844 182.460938 319.464844 194.460938 C 319.464844 182.460938 343.464844 180.0625 343.464844 165.664062 C 343.464844 151.261719 319.464844 151.261719 319.464844 165.664062 "/>
<path style="fill-rule:nonzero;fill:rgb(90%,65%,0%);fill-opacity:1;stroke-width:1;stroke-linecap:butt;stroke-linejoin:round;stroke:rgb(0%,0%,0%);stroke-opacity:1;stroke-miterlimit:10;" d="M 119.355469 97.703125 C 119.355469 83.304688 95.355469 83.304688 95.355469 97.703125 C 95.355469 112.105469 119.355469 114.503906 119.355469 126.503906 C 119.355469 114.503906 143.355469 112.105469 143.355469 97.703125 C 143.355469 83.304688 119.355469 83.304688 119.355469 97.703125 "/>
<path style="fill-rule:nonzero;fill:rgb(90%,65%,0%);fill-opacity:1;stroke-width:1;stroke-linecap:butt;stroke-linejoin:round;stroke:rgb(0%,0%,0%);stroke-opacity:1;stroke-miterlimit:10;" d="M 187.050781 159.902344 C 187.050781 145.503906 163.050781 145.503906 163.050781 159.902344 C 163.050781 174.300781 187.050781 176.703125 187.050781 188.703125 C 187.050781 176.703125 211.050781 174.300781 211.050781 159.902344 C 211.050781 145.503906 187.050781 145.503906 187.050781 159.902344 "/>
<path style="fill-rule:nonzero;fill:rgb(90%,65%,0%);fill-opacity:1;stroke-width:1;stroke-linecap:butt;stroke-linejoin:round;stroke:rgb(0%,0%,0%);stroke-opacity:1;stroke-miterlimit:10;" d="M 337.347656 304.441406 C 337.347656 290.042969 313.347656 290.042969 313.347656 304.441406 C 313.347656 318.839844 337.347656 321.242188 337.347656 333.242188 C 337.347656 321.242188 361.347656 318.839844 361.347656 304.441406 C 361.347656 290.042969 337.347656 290.042969 337.347656 304.441406 "/>
</g>
</svg>
