<?xml version="1.0" encoding="UTF-8"?>
<svg xmlns="http://www.w3.org/2000/svg" xmlns:xlink="http://www.w3.org/1999/xlink" width="517pt" height="517pt" viewBox="0 0 517 517" version="1.1">
<g id="surface9346">
<rect x="0" y="0" width="517" height="517" style="fill:rgb(90%,90%,90%);fill-opacity:1;stroke:none;"/>
<path style="fill:none;stroke-width:5;stroke-linecap:butt;stroke-linejoin:round;stroke:rgb(100%,0%,0%);stroke-opacity:1;stroke-miterlimit:10;" d="M 5 5 L 261 5 L 261 261 L 5 261 Z M 5 5 "/>
<path style="fill-rule:nonzero;fill:rgb(90%,65%,0%);fill-opacity:1;stroke-width:1;stroke-linecap:butt;stroke-linejoin:round;stroke:rgb(0%,0%,0%);stroke-opacity:1;stroke-miterlimit:10;" d="M 34.21875 106.242188 L 14.21875 106.242188 L 14.21875 116.242188 L 34.21875 116.242188 L 34.21875 136.242188 L 44.21875 136.242188 L 44.21875 116.242188 L 64.21875 116.242188 L 64.21875 106.242188 L 44.21875 106.242188 L 44.21875 86.242188 L 34.21875 86.242188 L 34.21875 106.242188 "/>
<path style="fill-rule:nonzero;fill:rgb(35%,70%,90%);fill-opacity:1;stroke-width:1;stroke-linecap:butt;stroke-linejoin:round;stroke:rgb(0%,0%,0%);stroke-opacity:1;stroke-miterlimit:10;" d="M 355.054688 119.25 L 335.054688 119.25 L 335.054688 129.25 L 355.054688 129.25 L 355.054688 149.25 L 365.054688 149.25 L 365.054688 129.25 L 385.054688 129.25 L 385.054688 119.25 L 365.054688 119.25 L 365.054688 99.25 L 355.054688 99.25 L 355.054688 119.25 "/>
<path style="fill-rule:nonzero;fill:rgb(35%,70%,90%);fill-opacity:1;stroke-width:1;stroke-linecap:butt;stroke-linejoin:round;stroke:rgb(0%,0%,0%);stroke-opacity:1;stroke-miterlimit:10;" d="M 354.199219 387.550781 L 334.199219 387.550781 L 334.199219 397.550781 L 354.199219 397.550781 L 354.199219 417.550781 L 364.199219 417.550781 L 364.199219 397.550781 L 384.199219 397.550781 L 384.199219 387.550781 L 364.199219 387.550781 L 364.199219 367.550781 L 354.199219 367.550781 L 354.199219 387.550781 "/>
<path style="fill-rule:nonzero;fill:rgb(35%,70%,90%);fill-opacity:1;stroke-width:1;stroke-linecap:butt;stroke-linejoin:round;stroke:rgb(0%,0%,0%);stroke-opacity:1;stroke-miterlimit:10;" d="M 446.746094 350.464844 L 426.746094 350.464844 L 426.746094 360.464844 L 446.746094 360.464844 L 446.746094 380.464844 L 456.746094 380.464844 L 456.746094 360.464844 L 476.746094 360.464844 L 476.746094 350.464844 L 456.746094 350.464844 L 456.746094 330.464844 L 446.746094 330.464844 L 446.746094 350.464844 "/>
<path style="fill-rule:nonzero;fill:rgb(35%,70%,90%);fill-opacity:1;stroke-width:1;stroke-linecap:butt;stroke-linejoin:round;stroke:rgb(0%,0%,0%);stroke-opacity:1;stroke-miterlimit:10;" d="M 111.210938 351.863281 L 91.210938 351.863281 L 91.210938 361.863281 L 111.210938 361.863281 L 111.210938 381.863281 L 121.210938 381.863281 L 121.210938 361.863281 L 141.210938 361.863281 L 141.210938 351.863281 L 121.210938 351.863281 L 121.210938 331.863281 L 111.210938 331.863281 L 111.210938 351.863281 "/>
<path style="fill-rule:nonzero;fill:rgb(35%,70%,90%);fill-opacity:1;stroke-width:1;stroke-linecap:butt;stroke-linejoin:round;stroke:rgb(0%,0%,0%);stroke-opacity:1;stroke-miterlimit:10;" d="M 65.285156 451.59375 L 45.285156 451.59375 L 45.285156 461.59375 L 65.285156 461.59375 L 65.285156 481.59375 L 75.285156 481.59375 L 75.285156 461.59375 L 95.285156 461.59375 L 95.285156 451.59375 L 75.285156 451.59375 L 75.285156 431.59375 L 65.285156 431.59375 L 65.285156 451.59375 "/>
</g>
</svg>
