<?xml version="1.0" encoding="UTF-8"?>
<svg xmlns="http://www.w3.org/2000/svg" xmlns:xlink="http://www.w3.org/1999/xlink" width="517pt" height="517pt" viewBox="0 0 517 517" version="1.1">
<g id="surface9106">
<rect x="0" y="0" width="517" height="517" style="fill:rgb(90%,90%,90%);fill-opacity:1;stroke:none;"/>
<path style="fill:none;stroke-width:5;stroke-linecap:butt;stroke-linejoin:round;stroke:rgb(100%,0%,0%);stroke-opacity:1;stroke-miterlimit:10;" d="M 5 261 L 261 261 L 261 517 L 5 517 Z M 5 261 "/>
<path style="fill-rule:nonzero;fill:rgb(0%,0%,0%);fill-opacity:1;stroke-width:1;stroke-linecap:butt;stroke-linejoin:round;stroke:rgb(0%,0%,0%);stroke-opacity:1;stroke-miterlimit:10;" d="M 185.71875 328.238281 L 165.71875 328.238281 L 165.71875 338.238281 L 185.71875 338.238281 L 185.71875 358.238281 L 195.71875 358.238281 L 195.71875 338.238281 L 215.71875 338.238281 L 215.71875 328.238281 L 195.71875 328.238281 L 195.71875 308.238281 L 185.71875 308.238281 L 185.71875 328.238281 "/>
<path style="fill-rule:nonzero;fill:rgb(90%,65%,0%);fill-opacity:1;stroke-width:1;stroke-linecap:butt;stroke-linejoin:round;stroke:rgb(0%,0%,0%);stroke-opacity:1;stroke-miterlimit:10;" d="M 108.535156 182.203125 L 88.535156 182.203125 L 88.535156 192.203125 L 108.535156 192.203125 L 108.535156 212.203125 L 118.535156 212.203125 L 118.535156 192.203125 L 138.535156 192.203125 L 138.535156 182.203125 L 118.535156 182.203125 L 118.535156 162.203125 L 108.535156 162.203125 L 108.535156 182.203125 "/>
<path style="fill-rule:nonzero;fill:rgb(90%,65%,0%);fill-opacity:1;stroke-width:1;stroke-linecap:butt;stroke-linejoin:round;stroke:rgb(0%,0%,0%);stroke-opacity:1;stroke-miterlimit:10;" d="M 461.40625 396.429688 L 441.40625 396.429688 L 441.40625 406.429688 L 461.40625 406.429688 L 461.40625 426.429688 L 471.40625 426.429688 L 471.40625 406.429688 L 491.40625 406.429688 L 491.40625 396.429688 L 471.40625 396.429688 L 471.40625 376.429688 L 461.40625 376.429688 L 461.40625 396.429688 "/>
<path style="fill-rule:nonzero;fill:rgb(90%,65%,0%);fill-opacity:1;stroke-width:1;stroke-linecap:butt;stroke-linejoin:round;stroke:rgb(0%,0%,0%);stroke-opacity:1;stroke-miterlimit:10;" d="M 370.730469 319.292969 L 350.730469 319.292969 L 350.730469 329.292969 L 370.730469 329.292969 L 370.730469 349.292969 L 380.730469 349.292969 L 380.730469 329.292969 L 400.730469 329.292969 L 400.730469 319.292969 L 380.730469 319.292969 L 380.730469 299.292969 L 370.730469 299.292969 L 370.730469 319.292969 "/>
<path style="fill-rule:nonzero;fill:rgb(90%,65%,0%);fill-opacity:1;stroke-width:1;stroke-linecap:butt;stroke-linejoin:round;stroke:rgb(0%,0%,0%);stroke-opacity:1;stroke-miterlimit:10;" d="M 445.550781 132.609375 L 425.550781 132.609375 L 425.550781 142.609375 L 445.550781 142.609375 L 445.550781 162.609375 L 455.550781 162.609375 L 455.550781 142.609375 L 475.550781 142.609375 L 475.550781 132.609375 L 455.550781 132.609375 L 455.550781 112.609375 L 445.550781 112.609375 L 445.550781 132.609375 "/>
<path style="fill-rule:nonzero;fill:rgb(90%,65%,0%);fill-opacity:1;stroke-width:1;stroke-linecap:butt;stroke-linejoin:round;stroke:rgb(0%,0%,0%);stroke-opacity:1;stroke-miterlimit:10;" d="M 309.929688 147.710938 L 289.929688 147.710938 L 289.929688 157.710938 L 309.929688 157.710938 L 309.929688 177.710938 L 319.929688 177.710938 L 319.929688 157.710938 L 339.929688 157.710938 L 339.929688 147.710938 L 319.929688 147.710938 L 319.929688 127.710938 L 309.929688 127.710938 L 309.929688 147.710938 "/>
</g>
</svg>
