<?xml version="1.0" encoding="UTF-8"?>
<svg xmlns="http://www.w3.org/2000/svg" xmlns:xlink="http://www.w3.org/1999/xlink" width="517pt" height="517pt" viewBox="0 0 517 517" version="1.1">
<g id="surface4586">
<rect x="0" y="0" width="517" height="517" style="fill:rgb(90%,90%,90%);fill-opacity:1;stroke:none;"/>
<path style="fill:none;stroke-width:5;stroke-linecap:butt;stroke-linejoin:round;stroke:rgb(100%,0%,0%);stroke-opacity:1;stroke-miterlimit:10;" d="M 5 261 L 261 261 L 261 517 L 5 517 Z M 5 261 "/>
<path style="fill-rule:nonzero;fill:rgb(53%,27%,7%);fill-opacity:1;stroke-width:1;stroke-linecap:butt;stroke-linejoin:round;stroke:rgb(0%,0%,0%);stroke-opacity:1;stroke-miterlimit:10;" d="M 216.035156 315.960938 C 216.035156 301.5625 192.035156 301.5625 192.035156 315.960938 C 192.035156 330.363281 216.035156 332.761719 216.035156 344.761719 C 216.035156 332.761719 240.035156 330.363281 240.035156 315.960938 C 240.035156 301.5625 216.035156 301.5625 216.035156 315.960938 "/>
<path style="fill-rule:nonzero;fill:rgb(100%,100%,0%);fill-opacity:1;stroke-width:1;stroke-linecap:butt;stroke-linejoin:round;stroke:rgb(0%,0%,0%);stroke-opacity:1;stroke-miterlimit:10;" d="M 325.5625 312.824219 C 325.5625 298.421875 301.5625 298.421875 301.5625 312.824219 C 301.5625 327.222656 325.5625 329.625 325.5625 341.625 C 325.5625 329.625 349.5625 327.222656 349.5625 312.824219 C 349.5625 298.421875 325.5625 298.421875 325.5625 312.824219 "/>
<path style="fill-rule:nonzero;fill:rgb(100%,100%,0%);fill-opacity:1;stroke-width:1;stroke-linecap:butt;stroke-linejoin:round;stroke:rgb(0%,0%,0%);stroke-opacity:1;stroke-miterlimit:10;" d="M 426.046875 171.125 C 426.046875 156.722656 402.046875 156.722656 402.046875 171.125 C 402.046875 185.523438 426.046875 187.925781 426.046875 199.925781 C 426.046875 187.925781 450.046875 185.523438 450.046875 171.125 C 450.046875 156.722656 426.046875 156.722656 426.046875 171.125 "/>
<path style="fill-rule:nonzero;fill:rgb(100%,100%,0%);fill-opacity:1;stroke-width:1;stroke-linecap:butt;stroke-linejoin:round;stroke:rgb(0%,0%,0%);stroke-opacity:1;stroke-miterlimit:10;" d="M 302.816406 133.867188 C 302.816406 119.464844 278.816406 119.464844 278.816406 133.867188 C 278.816406 148.265625 302.816406 150.667969 302.816406 162.667969 C 302.816406 150.667969 326.816406 148.265625 326.816406 133.867188 C 326.816406 119.464844 302.816406 119.464844 302.816406 133.867188 "/>
<path style="fill-rule:nonzero;fill:rgb(100%,100%,0%);fill-opacity:1;stroke-width:1;stroke-linecap:butt;stroke-linejoin:round;stroke:rgb(0%,0%,0%);stroke-opacity:1;stroke-miterlimit:10;" d="M 395.882812 26.164062 C 395.882812 11.765625 371.882812 11.765625 371.882812 26.164062 C 371.882812 40.566406 395.882812 42.964844 395.882812 54.964844 C 395.882812 42.964844 419.882812 40.566406 419.882812 26.164062 C 419.882812 11.765625 395.882812 11.765625 395.882812 26.164062 "/>
<path style="fill-rule:nonzero;fill:rgb(53%,27%,7%);fill-opacity:1;stroke-width:1;stroke-linecap:butt;stroke-linejoin:round;stroke:rgb(0%,0%,0%);stroke-opacity:1;stroke-miterlimit:10;" d="M 219.988281 63.558594 C 219.988281 49.15625 195.988281 49.15625 195.988281 63.558594 C 195.988281 77.957031 219.988281 80.355469 219.988281 92.355469 C 219.988281 80.355469 243.988281 77.957031 243.988281 63.558594 C 243.988281 49.15625 219.988281 49.15625 219.988281 63.558594 "/>
</g>
</svg>
