<?xml version="1.0" encoding="UTF-8"?>
<svg xmlns="http://www.w3.org/2000/svg" xmlns:xlink="http://www.w3.org/1999/xlink" width="517pt" height="517pt" viewBox="0 0 517 517" version="1.1">
<g id="surface5476">
<rect x="0" y="0" width="517" height="517" style="fill:rgb(90%,90%,90%);fill-opacity:1;stroke:none;"/>
<path style="fill-rule:nonzero;fill:rgb(50%,0%,50%);fill-opacity:1;stroke-width:1;stroke-linecap:butt;stroke-linejoin:miter;stroke:rgb(0%,0%,0%);stroke-opacity:1;stroke-miterlimit:10;" d="M 435.472656 198.402344 C 435.472656 214.96875 422.042969 228.402344 405.472656 228.402344 C 388.90625 228.402344 375.472656 214.96875 375.472656 198.402344 C 375.472656 181.832031 388.90625 168.402344 405.472656 168.402344 C 422.042969 168.402344 435.472656 181.832031 435.472656 198.402344 "/>
<path style="fill-rule:nonzero;fill:rgb(50%,0%,50%);fill-opacity:1;stroke-width:1;stroke-linecap:butt;stroke-linejoin:miter;stroke:rgb(0%,0%,0%);stroke-opacity:1;stroke-miterlimit:10;" d="M 219.261719 152.527344 C 219.261719 169.09375 205.832031 182.527344 189.261719 182.527344 C 172.695312 182.527344 159.261719 169.09375 159.261719 152.527344 C 159.261719 135.957031 172.695312 122.527344 189.261719 122.527344 C 205.832031 122.527344 219.261719 135.957031 219.261719 152.527344 "/>
<path style="fill-rule:nonzero;fill:rgb(50%,0%,50%);fill-opacity:1;stroke-width:1;stroke-linecap:butt;stroke-linejoin:miter;stroke:rgb(0%,0%,0%);stroke-opacity:1;stroke-miterlimit:10;" d="M 123.742188 199.316406 C 123.742188 215.886719 110.3125 229.316406 93.742188 229.316406 C 77.175781 229.316406 63.742188 215.886719 63.742188 199.316406 C 63.742188 182.75 77.175781 169.316406 93.742188 169.316406 C 110.3125 169.316406 123.742188 182.75 123.742188 199.316406 "/>
<path style="fill-rule:nonzero;fill:rgb(100%,100%,0%);fill-opacity:1;stroke-width:1;stroke-linecap:butt;stroke-linejoin:miter;stroke:rgb(0%,0%,0%);stroke-opacity:1;stroke-miterlimit:10;" d="M 152.605469 88.484375 C 152.605469 105.054688 139.171875 118.484375 122.605469 118.484375 C 106.035156 118.484375 92.605469 105.054688 92.605469 88.484375 C 92.605469 71.917969 106.035156 58.484375 122.605469 58.484375 C 139.171875 58.484375 152.605469 71.917969 152.605469 88.484375 "/>
<path style="fill-rule:nonzero;fill:rgb(100%,100%,0%);fill-opacity:1;stroke-width:1;stroke-linecap:butt;stroke-linejoin:miter;stroke:rgb(0%,0%,0%);stroke-opacity:1;stroke-miterlimit:10;" d="M 102.242188 38.820312 C 102.242188 55.390625 88.808594 68.820312 72.242188 68.820312 C 55.671875 68.820312 42.242188 55.390625 42.242188 38.820312 C 42.242188 22.253906 55.671875 8.820312 72.242188 8.820312 C 88.808594 8.820312 102.242188 22.253906 102.242188 38.820312 "/>
<path style="fill-rule:nonzero;fill:rgb(100%,100%,0%);fill-opacity:1;stroke-width:1;stroke-linecap:butt;stroke-linejoin:miter;stroke:rgb(0%,0%,0%);stroke-opacity:1;stroke-miterlimit:10;" d="M 96.804688 139.019531 C 96.804688 155.589844 83.371094 169.019531 66.804688 169.019531 C 50.234375 169.019531 36.804688 155.589844 36.804688 139.019531 C 36.804688 122.449219 50.234375 109.019531 66.804688 109.019531 C 83.371094 109.019531 96.804688 122.449219 96.804688 139.019531 "/>
<path style="fill-rule:nonzero;fill:rgb(100%,100%,0%);fill-opacity:1;stroke-width:1;stroke-linecap:butt;stroke-linejoin:miter;stroke:rgb(0%,0%,0%);stroke-opacity:1;stroke-miterlimit:10;" d="M 213.738281 48.4375 C 213.738281 65.007812 200.304688 78.4375 183.738281 78.4375 C 167.167969 78.4375 153.738281 65.007812 153.738281 48.4375 C 153.738281 31.871094 167.167969 18.4375 183.738281 18.4375 C 200.304688 18.4375 213.738281 31.871094 213.738281 48.4375 "/>
<path style="fill-rule:nonzero;fill:rgb(100%,100%,0%);fill-opacity:1;stroke-width:1;stroke-linecap:butt;stroke-linejoin:miter;stroke:rgb(0%,0%,0%);stroke-opacity:1;stroke-miterlimit:10;" d="M 165.214844 439.175781 C 165.214844 455.746094 151.78125 469.175781 135.214844 469.175781 C 118.644531 469.175781 105.214844 455.746094 105.214844 439.175781 C 105.214844 422.605469 118.644531 409.175781 135.214844 409.175781 C 151.78125 409.175781 165.214844 422.605469 165.214844 439.175781 "/>
</g>
</svg>
