<?xml version="1.0" encoding="UTF-8"?>
<svg xmlns="http://www.w3.org/2000/svg" xmlns:xlink="http://www.w3.org/1999/xlink" width="517pt" height="517pt" viewBox="0 0 517 517" version="1.1">
<g id="surface9476">
<rect x="0" y="0" width="517" height="517" style="fill:rgb(90%,90%,90%);fill-opacity:1;stroke:none;"/>
<path style="fill:none;stroke-width:5;stroke-linecap:butt;stroke-linejoin:round;stroke:rgb(100%,0%,0%);stroke-opacity:1;stroke-miterlimit:10;" d="M 261 5 L 517 5 L 517 261 L 261 261 Z M 261 5 "/>
<path style="fill-rule:nonzero;fill:rgb(100%,100%,0%);fill-opacity:1;stroke-width:1;stroke-linecap:butt;stroke-linejoin:round;stroke:rgb(0%,0%,0%);stroke-opacity:1;stroke-miterlimit:10;" d="M 364.179688 93.90625 L 344.179688 93.90625 L 344.179688 103.90625 L 364.179688 103.90625 L 364.179688 123.90625 L 374.179688 123.90625 L 374.179688 103.90625 L 394.179688 103.90625 L 394.179688 93.90625 L 374.179688 93.90625 L 374.179688 73.90625 L 364.179688 73.90625 L 364.179688 93.90625 "/>
<path style="fill-rule:nonzero;fill:rgb(50%,0%,50%);fill-opacity:1;stroke-width:1;stroke-linecap:butt;stroke-linejoin:round;stroke:rgb(0%,0%,0%);stroke-opacity:1;stroke-miterlimit:10;" d="M 303.050781 322.261719 L 283.050781 322.261719 L 283.050781 332.261719 L 303.050781 332.261719 L 303.050781 352.261719 L 313.050781 352.261719 L 313.050781 332.261719 L 333.050781 332.261719 L 333.050781 322.261719 L 313.050781 322.261719 L 313.050781 302.261719 L 303.050781 302.261719 L 303.050781 322.261719 "/>
<path style="fill-rule:nonzero;fill:rgb(50%,0%,50%);fill-opacity:1;stroke-width:1;stroke-linecap:butt;stroke-linejoin:round;stroke:rgb(0%,0%,0%);stroke-opacity:1;stroke-miterlimit:10;" d="M 451.617188 296.882812 L 431.617188 296.882812 L 431.617188 306.882812 L 451.617188 306.882812 L 451.617188 326.882812 L 461.617188 326.882812 L 461.617188 306.882812 L 481.617188 306.882812 L 481.617188 296.882812 L 461.617188 296.882812 L 461.617188 276.882812 L 451.617188 276.882812 L 451.617188 296.882812 "/>
<path style="fill-rule:nonzero;fill:rgb(50%,0%,50%);fill-opacity:1;stroke-width:1;stroke-linecap:butt;stroke-linejoin:round;stroke:rgb(0%,0%,0%);stroke-opacity:1;stroke-miterlimit:10;" d="M 121.996094 138.289062 L 101.996094 138.289062 L 101.996094 148.289062 L 121.996094 148.289062 L 121.996094 168.289062 L 131.996094 168.289062 L 131.996094 148.289062 L 151.996094 148.289062 L 151.996094 138.289062 L 131.996094 138.289062 L 131.996094 118.289062 L 121.996094 118.289062 L 121.996094 138.289062 "/>
<path style="fill-rule:nonzero;fill:rgb(50%,0%,50%);fill-opacity:1;stroke-width:1;stroke-linecap:butt;stroke-linejoin:round;stroke:rgb(0%,0%,0%);stroke-opacity:1;stroke-miterlimit:10;" d="M 56.683594 410.550781 L 36.683594 410.550781 L 36.683594 420.550781 L 56.683594 420.550781 L 56.683594 440.550781 L 66.683594 440.550781 L 66.683594 420.550781 L 86.683594 420.550781 L 86.683594 410.550781 L 66.683594 410.550781 L 66.683594 390.550781 L 56.683594 390.550781 L 56.683594 410.550781 "/>
</g>
</svg>
