<?xml version="1.0" encoding="UTF-8"?>
<svg xmlns="http://www.w3.org/2000/svg" xmlns:xlink="http://www.w3.org/1999/xlink" width="517pt" height="517pt" viewBox="0 0 517 517" version="1.1">
<g id="surface4281">
<rect x="0" y="0" width="517" height="517" style="fill:rgb(90%,90%,90%);fill-opacity:1;stroke:none;"/>
<path style="fill:none;stroke-width:5;stroke-linecap:butt;stroke-linejoin:round;stroke:rgb(100%,0%,0%);stroke-opacity:1;stroke-miterlimit:10;" d="M 261 5 L 517 5 L 517 261 L 261 261 Z M 261 5 "/>
<path style="fill-rule:nonzero;fill:rgb(25%,88%,82%);fill-opacity:1;stroke-width:1;stroke-linecap:butt;stroke-linejoin:round;stroke:rgb(0%,0%,0%);stroke-opacity:1;stroke-miterlimit:10;" d="M 374.644531 150.402344 L 354.644531 150.402344 L 354.644531 160.402344 L 374.644531 160.402344 L 374.644531 180.402344 L 384.644531 180.402344 L 384.644531 160.402344 L 404.644531 160.402344 L 404.644531 150.402344 L 384.644531 150.402344 L 384.644531 130.402344 L 374.644531 130.402344 L 374.644531 150.402344 "/>
<path style="fill-rule:nonzero;fill:rgb(90%,65%,0%);fill-opacity:1;stroke-width:1;stroke-linecap:butt;stroke-linejoin:round;stroke:rgb(0%,0%,0%);stroke-opacity:1;stroke-miterlimit:10;" d="M 202.089844 131.324219 L 182.089844 131.324219 L 182.089844 141.324219 L 202.089844 141.324219 L 202.089844 161.324219 L 212.089844 161.324219 L 212.089844 141.324219 L 232.089844 141.324219 L 232.089844 131.324219 L 212.089844 131.324219 L 212.089844 111.324219 L 202.089844 111.324219 L 202.089844 131.324219 "/>
<path style="fill-rule:nonzero;fill:rgb(25%,88%,82%);fill-opacity:1;stroke-width:1;stroke-linecap:butt;stroke-linejoin:round;stroke:rgb(0%,0%,0%);stroke-opacity:1;stroke-miterlimit:10;" d="M 132.246094 37.601562 L 112.246094 37.601562 L 112.246094 47.601562 L 132.246094 47.601562 L 132.246094 67.601562 L 142.246094 67.601562 L 142.246094 47.601562 L 162.246094 47.601562 L 162.246094 37.601562 L 142.246094 37.601562 L 142.246094 17.601562 L 132.246094 17.601562 L 132.246094 37.601562 "/>
<path style="fill-rule:nonzero;fill:rgb(25%,88%,82%);fill-opacity:1;stroke-width:1;stroke-linecap:butt;stroke-linejoin:round;stroke:rgb(0%,0%,0%);stroke-opacity:1;stroke-miterlimit:10;" d="M 428.242188 311.703125 L 408.242188 311.703125 L 408.242188 321.703125 L 428.242188 321.703125 L 428.242188 341.703125 L 438.242188 341.703125 L 438.242188 321.703125 L 458.242188 321.703125 L 458.242188 311.703125 L 438.242188 311.703125 L 438.242188 291.703125 L 428.242188 291.703125 L 428.242188 311.703125 "/>
<path style="fill-rule:nonzero;fill:rgb(25%,88%,82%);fill-opacity:1;stroke-width:1;stroke-linecap:butt;stroke-linejoin:round;stroke:rgb(0%,0%,0%);stroke-opacity:1;stroke-miterlimit:10;" d="M 341.824219 357.972656 L 321.824219 357.972656 L 321.824219 367.972656 L 341.824219 367.972656 L 341.824219 387.972656 L 351.824219 387.972656 L 351.824219 367.972656 L 371.824219 367.972656 L 371.824219 357.972656 L 351.824219 357.972656 L 351.824219 337.972656 L 341.824219 337.972656 L 341.824219 357.972656 "/>
<path style="fill-rule:nonzero;fill:rgb(25%,88%,82%);fill-opacity:1;stroke-width:1;stroke-linecap:butt;stroke-linejoin:round;stroke:rgb(0%,0%,0%);stroke-opacity:1;stroke-miterlimit:10;" d="M 74.714844 465.335938 L 54.714844 465.335938 L 54.714844 475.335938 L 74.714844 475.335938 L 74.714844 495.335938 L 84.714844 495.335938 L 84.714844 475.335938 L 104.714844 475.335938 L 104.714844 465.335938 L 84.714844 465.335938 L 84.714844 445.335938 L 74.714844 445.335938 L 74.714844 465.335938 "/>
</g>
</svg>
