<?xml version="1.0" encoding="UTF-8"?>
<svg xmlns="http://www.w3.org/2000/svg" xmlns:xlink="http://www.w3.org/1999/xlink" width="517pt" height="517pt" viewBox="0 0 517 517" version="1.1">
<g id="surface4301">
<rect x="0" y="0" width="517" height="517" style="fill:rgb(90%,90%,90%);fill-opacity:1;stroke:none;"/>
<path style="fill:none;stroke-width:5;stroke-linecap:butt;stroke-linejoin:round;stroke:rgb(100%,0%,0%);stroke-opacity:1;stroke-miterlimit:10;" d="M 261 5 L 517 5 L 517 261 L 261 261 Z M 261 5 "/>
<path style="fill-rule:nonzero;fill:rgb(90%,65%,0%);fill-opacity:1;stroke-width:1;stroke-linecap:butt;stroke-linejoin:round;stroke:rgb(0%,0%,0%);stroke-opacity:1;stroke-miterlimit:10;" d="M 464.664062 95.195312 L 444.664062 95.195312 L 444.664062 105.195312 L 464.664062 105.195312 L 464.664062 125.195312 L 474.664062 125.195312 L 474.664062 105.195312 L 494.664062 105.195312 L 494.664062 95.195312 L 474.664062 95.195312 L 474.664062 75.195312 L 464.664062 75.195312 L 464.664062 95.195312 "/>
<path style="fill-rule:nonzero;fill:rgb(90%,65%,0%);fill-opacity:1;stroke-width:1;stroke-linecap:butt;stroke-linejoin:round;stroke:rgb(0%,0%,0%);stroke-opacity:1;stroke-miterlimit:10;" d="M 57.5 411.1875 L 37.5 411.1875 L 37.5 421.1875 L 57.5 421.1875 L 57.5 441.1875 L 67.5 441.1875 L 67.5 421.1875 L 87.5 421.1875 L 87.5 411.1875 L 67.5 411.1875 L 67.5 391.1875 L 57.5 391.1875 L 57.5 411.1875 "/>
<path style="fill-rule:nonzero;fill:rgb(90%,65%,0%);fill-opacity:1;stroke-width:1;stroke-linecap:butt;stroke-linejoin:round;stroke:rgb(0%,0%,0%);stroke-opacity:1;stroke-miterlimit:10;" d="M 365.257812 322.335938 L 345.257812 322.335938 L 345.257812 332.335938 L 365.257812 332.335938 L 365.257812 352.335938 L 375.257812 352.335938 L 375.257812 332.335938 L 395.257812 332.335938 L 395.257812 322.335938 L 375.257812 322.335938 L 375.257812 302.335938 L 365.257812 302.335938 L 365.257812 322.335938 "/>
<path style="fill-rule:nonzero;fill:rgb(90%,65%,0%);fill-opacity:1;stroke-width:1;stroke-linecap:butt;stroke-linejoin:round;stroke:rgb(0%,0%,0%);stroke-opacity:1;stroke-miterlimit:10;" d="M 396.996094 420.804688 L 376.996094 420.804688 L 376.996094 430.804688 L 396.996094 430.804688 L 396.996094 450.804688 L 406.996094 450.804688 L 406.996094 430.804688 L 426.996094 430.804688 L 426.996094 420.804688 L 406.996094 420.804688 L 406.996094 400.804688 L 396.996094 400.804688 L 396.996094 420.804688 "/>
<path style="fill-rule:nonzero;fill:rgb(90%,65%,0%);fill-opacity:1;stroke-width:1;stroke-linecap:butt;stroke-linejoin:round;stroke:rgb(0%,0%,0%);stroke-opacity:1;stroke-miterlimit:10;" d="M 341.332031 397.929688 L 321.332031 397.929688 L 321.332031 407.929688 L 341.332031 407.929688 L 341.332031 427.929688 L 351.332031 427.929688 L 351.332031 407.929688 L 371.332031 407.929688 L 371.332031 397.929688 L 351.332031 397.929688 L 351.332031 377.929688 L 341.332031 377.929688 L 341.332031 397.929688 "/>
<path style="fill-rule:nonzero;fill:rgb(25%,88%,82%);fill-opacity:1;stroke-width:1;stroke-linecap:butt;stroke-linejoin:round;stroke:rgb(0%,0%,0%);stroke-opacity:1;stroke-miterlimit:10;" d="M 450.144531 371.597656 L 430.144531 371.597656 L 430.144531 381.597656 L 450.144531 381.597656 L 450.144531 401.597656 L 460.144531 401.597656 L 460.144531 381.597656 L 480.144531 381.597656 L 480.144531 371.597656 L 460.144531 371.597656 L 460.144531 351.597656 L 450.144531 351.597656 L 450.144531 371.597656 "/>
</g>
</svg>
