<?xml version="1.0" encoding="UTF-8"?>
<svg xmlns="http://www.w3.org/2000/svg" xmlns:xlink="http://www.w3.org/1999/xlink" width="517pt" height="517pt" viewBox="0 0 517 517" version="1.1">
<g id="surface4796">
<rect x="0" y="0" width="517" height="517" style="fill:rgb(90%,90%,90%);fill-opacity:1;stroke:none;"/>
<path style="fill:none;stroke-width:5;stroke-linecap:butt;stroke-linejoin:round;stroke:rgb(100%,0%,0%);stroke-opacity:1;stroke-miterlimit:10;" d="M 5 261 L 261 261 L 261 517 L 5 517 Z M 5 261 "/>
<path style="fill-rule:nonzero;fill:rgb(35%,70%,90%);fill-opacity:1;stroke-width:1;stroke-linecap:butt;stroke-linejoin:round;stroke:rgb(0%,0%,0%);stroke-opacity:1;stroke-miterlimit:10;" d="M 211.605469 407.507812 C 211.605469 393.109375 187.605469 393.109375 187.605469 407.507812 C 187.605469 421.910156 211.605469 424.308594 211.605469 436.308594 C 211.605469 424.308594 235.605469 421.910156 235.605469 407.507812 C 235.605469 393.109375 211.605469 393.109375 211.605469 407.507812 "/>
<path style="fill-rule:nonzero;fill:rgb(100%,0%,0%);fill-opacity:1;stroke-width:1;stroke-linecap:butt;stroke-linejoin:round;stroke:rgb(0%,0%,0%);stroke-opacity:1;stroke-miterlimit:10;" d="M 74.542969 88.472656 C 74.542969 74.074219 50.542969 74.074219 50.542969 88.472656 C 50.542969 102.875 74.542969 105.273438 74.542969 117.273438 C 74.542969 105.273438 98.542969 102.875 98.542969 88.472656 C 98.542969 74.074219 74.542969 74.074219 74.542969 88.472656 "/>
<path style="fill-rule:nonzero;fill:rgb(100%,0%,0%);fill-opacity:1;stroke-width:1;stroke-linecap:butt;stroke-linejoin:round;stroke:rgb(0%,0%,0%);stroke-opacity:1;stroke-miterlimit:10;" d="M 450.835938 176.75 C 450.835938 162.347656 426.835938 162.347656 426.835938 176.75 C 426.835938 191.148438 450.835938 193.550781 450.835938 205.550781 C 450.835938 193.550781 474.835938 191.148438 474.835938 176.75 C 474.835938 162.347656 450.835938 162.347656 450.835938 176.75 "/>
<path style="fill-rule:nonzero;fill:rgb(100%,0%,0%);fill-opacity:1;stroke-width:1;stroke-linecap:butt;stroke-linejoin:round;stroke:rgb(0%,0%,0%);stroke-opacity:1;stroke-miterlimit:10;" d="M 319.375 184.464844 C 319.375 170.0625 295.375 170.0625 295.375 184.464844 C 295.375 198.863281 319.375 201.265625 319.375 213.265625 C 319.375 201.265625 343.375 198.863281 343.375 184.464844 C 343.375 170.0625 319.375 170.0625 319.375 184.464844 "/>
<path style="fill-rule:nonzero;fill:rgb(100%,0%,0%);fill-opacity:1;stroke-width:1;stroke-linecap:butt;stroke-linejoin:round;stroke:rgb(0%,0%,0%);stroke-opacity:1;stroke-miterlimit:10;" d="M 380 148.042969 C 380 133.644531 356 133.644531 356 148.042969 C 356 162.441406 380 164.84375 380 176.84375 C 380 164.84375 404 162.441406 404 148.042969 C 404 133.644531 380 133.644531 380 148.042969 "/>
<path style="fill-rule:nonzero;fill:rgb(53%,27%,7%);fill-opacity:1;stroke-width:1;stroke-linecap:butt;stroke-linejoin:round;stroke:rgb(0%,0%,0%);stroke-opacity:1;stroke-miterlimit:10;" d="M 357.148438 449.511719 C 357.148438 435.109375 333.148438 435.109375 333.148438 449.511719 C 333.148438 463.910156 357.148438 466.3125 357.148438 478.3125 C 357.148438 466.3125 381.148438 463.910156 381.148438 449.511719 C 381.148438 435.109375 357.148438 435.109375 357.148438 449.511719 "/>
</g>
</svg>
