<?xml version="1.0" encoding="UTF-8"?>
<svg xmlns="http://www.w3.org/2000/svg" xmlns:xlink="http://www.w3.org/1999/xlink" width="517pt" height="517pt" viewBox="0 0 517 517" version="1.1">
<g id="surface5106">
<rect x="0" y="0" width="517" height="517" style="fill:rgb(90%,90%,90%);fill-opacity:1;stroke:none;"/>
<path style="fill:none;stroke-width:5;stroke-linecap:butt;stroke-linejoin:round;stroke:rgb(100%,0%,0%);stroke-opacity:1;stroke-miterlimit:10;" d="M 261 261 L 517 261 L 517 517 L 261 517 Z M 261 261 "/>
<path style="fill-rule:nonzero;fill:rgb(100%,100%,0%);fill-opacity:1;stroke-width:1;stroke-linecap:butt;stroke-linejoin:round;stroke:rgb(0%,0%,0%);stroke-opacity:1;stroke-miterlimit:10;" d="M 380.332031 415.402344 C 380.332031 401.003906 356.332031 401.003906 356.332031 415.402344 C 356.332031 429.804688 380.332031 432.203125 380.332031 444.203125 C 380.332031 432.203125 404.332031 429.804688 404.332031 415.402344 C 404.332031 401.003906 380.332031 401.003906 380.332031 415.402344 "/>
<path style="fill-rule:nonzero;fill:rgb(100%,0%,0%);fill-opacity:1;stroke-width:1;stroke-linecap:butt;stroke-linejoin:round;stroke:rgb(0%,0%,0%);stroke-opacity:1;stroke-miterlimit:10;" d="M 89.867188 76.0625 C 89.867188 61.664062 65.867188 61.664062 65.867188 76.0625 C 65.867188 90.464844 89.867188 92.863281 89.867188 104.863281 C 89.867188 92.863281 113.867188 90.464844 113.867188 76.0625 C 113.867188 61.664062 89.867188 61.664062 89.867188 76.0625 "/>
<path style="fill-rule:nonzero;fill:rgb(100%,0%,0%);fill-opacity:1;stroke-width:1;stroke-linecap:butt;stroke-linejoin:round;stroke:rgb(0%,0%,0%);stroke-opacity:1;stroke-miterlimit:10;" d="M 82.03125 142.53125 C 82.03125 128.128906 58.03125 128.128906 58.03125 142.53125 C 58.03125 156.929688 82.03125 159.328125 82.03125 171.328125 C 82.03125 159.328125 106.03125 156.929688 106.03125 142.53125 C 106.03125 128.128906 82.03125 128.128906 82.03125 142.53125 "/>
<path style="fill-rule:nonzero;fill:rgb(100%,0%,0%);fill-opacity:1;stroke-width:1;stroke-linecap:butt;stroke-linejoin:round;stroke:rgb(0%,0%,0%);stroke-opacity:1;stroke-miterlimit:10;" d="M 427.652344 87.902344 C 427.652344 73.503906 403.652344 73.503906 403.652344 87.902344 C 403.652344 102.304688 427.652344 104.703125 427.652344 116.703125 C 427.652344 104.703125 451.652344 102.304688 451.652344 87.902344 C 451.652344 73.503906 427.652344 73.503906 427.652344 87.902344 "/>
<path style="fill-rule:nonzero;fill:rgb(100%,0%,0%);fill-opacity:1;stroke-width:1;stroke-linecap:butt;stroke-linejoin:round;stroke:rgb(0%,0%,0%);stroke-opacity:1;stroke-miterlimit:10;" d="M 207.929688 329.699219 C 207.929688 315.300781 183.929688 315.300781 183.929688 329.699219 C 183.929688 344.097656 207.929688 346.5 207.929688 358.5 C 207.929688 346.5 231.929688 344.097656 231.929688 329.699219 C 231.929688 315.300781 207.929688 315.300781 207.929688 329.699219 "/>
<path style="fill-rule:nonzero;fill:rgb(100%,0%,0%);fill-opacity:1;stroke-width:1;stroke-linecap:butt;stroke-linejoin:round;stroke:rgb(0%,0%,0%);stroke-opacity:1;stroke-miterlimit:10;" d="M 40.058594 370.914062 C 40.058594 356.515625 16.058594 356.515625 16.058594 370.914062 C 16.058594 385.316406 40.058594 387.714844 40.058594 399.714844 C 40.058594 387.714844 64.058594 385.316406 64.058594 370.914062 C 64.058594 356.515625 40.058594 356.515625 40.058594 370.914062 "/>
</g>
</svg>
