<?xml version="1.0" encoding="UTF-8"?>
<svg xmlns="http://www.w3.org/2000/svg" xmlns:xlink="http://www.w3.org/1999/xlink" width="517pt" height="517pt" viewBox="0 0 517 517" version="1.1">
<g id="surface5086">
<rect x="0" y="0" width="517" height="517" style="fill:rgb(90%,90%,90%);fill-opacity:1;stroke:none;"/>
<path style="fill:none;stroke-width:5;stroke-linecap:butt;stroke-linejoin:round;stroke:rgb(100%,0%,0%);stroke-opacity:1;stroke-miterlimit:10;" d="M 261 261 L 517 261 L 517 517 L 261 517 Z M 261 261 "/>
<path style="fill-rule:nonzero;fill:rgb(0%,0%,0%);fill-opacity:1;stroke-width:1;stroke-linecap:butt;stroke-linejoin:round;stroke:rgb(0%,0%,0%);stroke-opacity:1;stroke-miterlimit:10;" d="M 305.097656 423.101562 C 305.097656 408.703125 281.097656 408.703125 281.097656 423.101562 C 281.097656 437.503906 305.097656 439.902344 305.097656 451.902344 C 305.097656 439.902344 329.097656 437.503906 329.097656 423.101562 C 329.097656 408.703125 305.097656 408.703125 305.097656 423.101562 "/>
<path style="fill-rule:nonzero;fill:rgb(100%,0%,0%);fill-opacity:1;stroke-width:1;stroke-linecap:butt;stroke-linejoin:round;stroke:rgb(0%,0%,0%);stroke-opacity:1;stroke-miterlimit:10;" d="M 207.761719 30.6875 C 207.761719 16.285156 183.761719 16.285156 183.761719 30.6875 C 183.761719 45.085938 207.761719 47.484375 207.761719 59.484375 C 207.761719 47.484375 231.761719 45.085938 231.761719 30.6875 C 231.761719 16.285156 207.761719 16.285156 207.761719 30.6875 "/>
<path style="fill-rule:nonzero;fill:rgb(0%,0%,0%);fill-opacity:1;stroke-width:1;stroke-linecap:butt;stroke-linejoin:round;stroke:rgb(0%,0%,0%);stroke-opacity:1;stroke-miterlimit:10;" d="M 45.808594 151.027344 C 45.808594 136.628906 21.808594 136.628906 21.808594 151.027344 C 21.808594 165.425781 45.808594 167.828125 45.808594 179.828125 C 45.808594 167.828125 69.808594 165.425781 69.808594 151.027344 C 69.808594 136.628906 45.808594 136.628906 45.808594 151.027344 "/>
<path style="fill-rule:nonzero;fill:rgb(0%,0%,0%);fill-opacity:1;stroke-width:1;stroke-linecap:butt;stroke-linejoin:round;stroke:rgb(0%,0%,0%);stroke-opacity:1;stroke-miterlimit:10;" d="M 326.972656 50.996094 C 326.972656 36.597656 302.972656 36.597656 302.972656 50.996094 C 302.972656 65.398438 326.972656 67.796875 326.972656 79.796875 C 326.972656 67.796875 350.972656 65.398438 350.972656 50.996094 C 350.972656 36.597656 326.972656 36.597656 326.972656 50.996094 "/>
<path style="fill-rule:nonzero;fill:rgb(0%,0%,0%);fill-opacity:1;stroke-width:1;stroke-linecap:butt;stroke-linejoin:round;stroke:rgb(0%,0%,0%);stroke-opacity:1;stroke-miterlimit:10;" d="M 71.738281 314.757812 C 71.738281 300.359375 47.738281 300.359375 47.738281 314.757812 C 47.738281 329.160156 71.738281 331.558594 71.738281 343.558594 C 71.738281 331.558594 95.738281 329.160156 95.738281 314.757812 C 95.738281 300.359375 71.738281 300.359375 71.738281 314.757812 "/>
<path style="fill-rule:nonzero;fill:rgb(0%,0%,0%);fill-opacity:1;stroke-width:1;stroke-linecap:butt;stroke-linejoin:round;stroke:rgb(0%,0%,0%);stroke-opacity:1;stroke-miterlimit:10;" d="M 184.707031 407.234375 C 184.707031 392.835938 160.707031 392.835938 160.707031 407.234375 C 160.707031 421.636719 184.707031 424.035156 184.707031 436.035156 C 184.707031 424.035156 208.707031 421.636719 208.707031 407.234375 C 208.707031 392.835938 184.707031 392.835938 184.707031 407.234375 "/>
</g>
</svg>
