<?xml version="1.0" encoding="UTF-8"?>
<svg xmlns="http://www.w3.org/2000/svg" xmlns:xlink="http://www.w3.org/1999/xlink" width="517pt" height="517pt" viewBox="0 0 517 517" version="1.1">
<g id="surface4911">
<rect x="0" y="0" width="517" height="517" style="fill:rgb(90%,90%,90%);fill-opacity:1;stroke:none;"/>
<path style="fill:none;stroke-width:5;stroke-linecap:butt;stroke-linejoin:round;stroke:rgb(100%,0%,0%);stroke-opacity:1;stroke-miterlimit:10;" d="M 5 261 L 261 261 L 261 517 L 5 517 Z M 5 261 "/>
<path style="fill-rule:nonzero;fill:rgb(90%,65%,0%);fill-opacity:1;stroke-width:1;stroke-linecap:butt;stroke-linejoin:round;stroke:rgb(0%,0%,0%);stroke-opacity:1;stroke-miterlimit:10;" d="M 41.546875 405.332031 C 41.546875 390.933594 17.546875 390.933594 17.546875 405.332031 C 17.546875 419.730469 41.546875 422.132812 41.546875 434.132812 C 41.546875 422.132812 65.546875 419.730469 65.546875 405.332031 C 65.546875 390.933594 41.546875 390.933594 41.546875 405.332031 "/>
<path style="fill-rule:nonzero;fill:rgb(100%,7%,57%);fill-opacity:1;stroke-width:1;stroke-linecap:butt;stroke-linejoin:round;stroke:rgb(0%,0%,0%);stroke-opacity:1;stroke-miterlimit:10;" d="M 293.253906 338.273438 C 293.253906 323.871094 269.253906 323.871094 269.253906 338.273438 C 269.253906 352.671875 293.253906 355.070312 293.253906 367.070312 C 293.253906 355.070312 317.253906 352.671875 317.253906 338.273438 C 317.253906 323.871094 293.253906 323.871094 293.253906 338.273438 "/>
<path style="fill-rule:nonzero;fill:rgb(100%,7%,57%);fill-opacity:1;stroke-width:1;stroke-linecap:butt;stroke-linejoin:round;stroke:rgb(0%,0%,0%);stroke-opacity:1;stroke-miterlimit:10;" d="M 430.71875 316.429688 C 430.71875 302.03125 406.71875 302.03125 406.71875 316.429688 C 406.71875 330.828125 430.71875 333.230469 430.71875 345.230469 C 430.71875 333.230469 454.71875 330.828125 454.71875 316.429688 C 454.71875 302.03125 430.71875 302.03125 430.71875 316.429688 "/>
<path style="fill-rule:nonzero;fill:rgb(100%,7%,57%);fill-opacity:1;stroke-width:1;stroke-linecap:butt;stroke-linejoin:round;stroke:rgb(0%,0%,0%);stroke-opacity:1;stroke-miterlimit:10;" d="M 317.734375 68.03125 C 317.734375 53.632812 293.734375 53.632812 293.734375 68.03125 C 293.734375 82.433594 317.734375 84.832031 317.734375 96.832031 C 317.734375 84.832031 341.734375 82.433594 341.734375 68.03125 C 341.734375 53.632812 317.734375 53.632812 317.734375 68.03125 "/>
<path style="fill-rule:nonzero;fill:rgb(100%,7%,57%);fill-opacity:1;stroke-width:1;stroke-linecap:butt;stroke-linejoin:round;stroke:rgb(0%,0%,0%);stroke-opacity:1;stroke-miterlimit:10;" d="M 471.558594 113.460938 C 471.558594 99.058594 447.558594 99.058594 447.558594 113.460938 C 447.558594 127.859375 471.558594 130.257812 471.558594 142.257812 C 471.558594 130.257812 495.558594 127.859375 495.558594 113.460938 C 495.558594 99.058594 471.558594 99.058594 471.558594 113.460938 "/>
<path style="fill-rule:nonzero;fill:rgb(90%,65%,0%);fill-opacity:1;stroke-width:1;stroke-linecap:butt;stroke-linejoin:round;stroke:rgb(0%,0%,0%);stroke-opacity:1;stroke-miterlimit:10;" d="M 220.105469 136.015625 C 220.105469 121.613281 196.105469 121.613281 196.105469 136.015625 C 196.105469 150.414062 220.105469 152.816406 220.105469 164.816406 C 220.105469 152.816406 244.105469 150.414062 244.105469 136.015625 C 244.105469 121.613281 220.105469 121.613281 220.105469 136.015625 "/>
</g>
</svg>
