<?xml version="1.0" encoding="UTF-8"?>
<svg xmlns="http://www.w3.org/2000/svg" xmlns:xlink="http://www.w3.org/1999/xlink" width="517pt" height="517pt" viewBox="0 0 517 517" version="1.1">
<g id="surface5056">
<rect x="0" y="0" width="517" height="517" style="fill:rgb(90%,90%,90%);fill-opacity:1;stroke:none;"/>
<path style="fill:none;stroke-width:5;stroke-linecap:butt;stroke-linejoin:round;stroke:rgb(100%,0%,0%);stroke-opacity:1;stroke-miterlimit:10;" d="M 261 261 L 517 261 L 517 517 L 261 517 Z M 261 261 "/>
<path style="fill-rule:nonzero;fill:rgb(0%,0%,0%);fill-opacity:1;stroke-width:1;stroke-linecap:butt;stroke-linejoin:round;stroke:rgb(0%,0%,0%);stroke-opacity:1;stroke-miterlimit:10;" d="M 456.601562 372.417969 C 456.601562 358.015625 432.601562 358.015625 432.601562 372.417969 C 432.601562 386.816406 456.601562 389.214844 456.601562 401.214844 C 456.601562 389.214844 480.601562 386.816406 480.601562 372.417969 C 480.601562 358.015625 456.601562 358.015625 456.601562 372.417969 "/>
<path style="fill-rule:nonzero;fill:rgb(100%,0%,0%);fill-opacity:1;stroke-width:1;stroke-linecap:butt;stroke-linejoin:round;stroke:rgb(0%,0%,0%);stroke-opacity:1;stroke-miterlimit:10;" d="M 79.824219 348.804688 C 79.824219 334.402344 55.824219 334.402344 55.824219 348.804688 C 55.824219 363.203125 79.824219 365.601562 79.824219 377.601562 C 79.824219 365.601562 103.824219 363.203125 103.824219 348.804688 C 103.824219 334.402344 79.824219 334.402344 79.824219 348.804688 "/>
<path style="fill-rule:nonzero;fill:rgb(100%,0%,0%);fill-opacity:1;stroke-width:1;stroke-linecap:butt;stroke-linejoin:round;stroke:rgb(0%,0%,0%);stroke-opacity:1;stroke-miterlimit:10;" d="M 104.519531 291.855469 C 104.519531 277.457031 80.519531 277.457031 80.519531 291.855469 C 80.519531 306.257812 104.519531 308.65625 104.519531 320.65625 C 104.519531 308.65625 128.519531 306.257812 128.519531 291.855469 C 128.519531 277.457031 104.519531 277.457031 104.519531 291.855469 "/>
<path style="fill-rule:nonzero;fill:rgb(100%,0%,0%);fill-opacity:1;stroke-width:1;stroke-linecap:butt;stroke-linejoin:round;stroke:rgb(0%,0%,0%);stroke-opacity:1;stroke-miterlimit:10;" d="M 368.988281 35.070312 C 368.988281 20.667969 344.988281 20.667969 344.988281 35.070312 C 344.988281 49.46875 368.988281 51.871094 368.988281 63.871094 C 368.988281 51.871094 392.988281 49.46875 392.988281 35.070312 C 392.988281 20.667969 368.988281 20.667969 368.988281 35.070312 "/>
<path style="fill-rule:nonzero;fill:rgb(100%,0%,0%);fill-opacity:1;stroke-width:1;stroke-linecap:butt;stroke-linejoin:round;stroke:rgb(0%,0%,0%);stroke-opacity:1;stroke-miterlimit:10;" d="M 397.480469 169.984375 C 397.480469 155.582031 373.480469 155.582031 373.480469 169.984375 C 373.480469 184.382812 397.480469 186.78125 397.480469 198.78125 C 397.480469 186.78125 421.480469 184.382812 421.480469 169.984375 C 421.480469 155.582031 397.480469 155.582031 397.480469 169.984375 "/>
<path style="fill-rule:nonzero;fill:rgb(100%,0%,0%);fill-opacity:1;stroke-width:1;stroke-linecap:butt;stroke-linejoin:round;stroke:rgb(0%,0%,0%);stroke-opacity:1;stroke-miterlimit:10;" d="M 457.9375 130.742188 C 457.9375 116.339844 433.9375 116.339844 433.9375 130.742188 C 433.9375 145.140625 457.9375 147.539062 457.9375 159.539062 C 457.9375 147.539062 481.9375 145.140625 481.9375 130.742188 C 481.9375 116.339844 457.9375 116.339844 457.9375 130.742188 "/>
</g>
</svg>
