<?xml version="1.0" encoding="UTF-8"?>
<svg xmlns="http://www.w3.org/2000/svg" xmlns:xlink="http://www.w3.org/1999/xlink" width="517pt" height="517pt" viewBox="0 0 517 517" version="1.1">
<g id="surface5556">
<rect x="0" y="0" width="517" height="517" style="fill:rgb(90%,90%,90%);fill-opacity:1;stroke:none;"/>
<path style="fill-rule:nonzero;fill:rgb(90%,65%,0%);fill-opacity:1;stroke-width:1;stroke-linecap:butt;stroke-linejoin:miter;stroke:rgb(0%,0%,0%);stroke-opacity:1;stroke-miterlimit:10;" d="M 95.371094 435.902344 C 95.371094 452.472656 81.9375 465.902344 65.371094 465.902344 C 48.800781 465.902344 35.371094 452.472656 35.371094 435.902344 C 35.371094 419.335938 48.800781 405.902344 65.371094 405.902344 C 81.9375 405.902344 95.371094 419.335938 95.371094 435.902344 "/>
<path style="fill-rule:nonzero;fill:rgb(90%,65%,0%);fill-opacity:1;stroke-width:1;stroke-linecap:butt;stroke-linejoin:miter;stroke:rgb(0%,0%,0%);stroke-opacity:1;stroke-miterlimit:10;" d="M 337.371094 405.554688 C 337.371094 422.121094 323.941406 435.554688 307.371094 435.554688 C 290.804688 435.554688 277.371094 422.121094 277.371094 405.554688 C 277.371094 388.984375 290.804688 375.554688 307.371094 375.554688 C 323.941406 375.554688 337.371094 388.984375 337.371094 405.554688 "/>
<path style="fill-rule:nonzero;fill:rgb(90%,65%,0%);fill-opacity:1;stroke-width:1;stroke-linecap:butt;stroke-linejoin:miter;stroke:rgb(0%,0%,0%);stroke-opacity:1;stroke-miterlimit:10;" d="M 459.554688 362.5 C 459.554688 379.070312 446.121094 392.5 429.554688 392.5 C 412.984375 392.5 399.554688 379.070312 399.554688 362.5 C 399.554688 345.933594 412.984375 332.5 429.554688 332.5 C 446.121094 332.5 459.554688 345.933594 459.554688 362.5 "/>
<path style="fill-rule:nonzero;fill:rgb(50%,0%,50%);fill-opacity:1;stroke-width:1;stroke-linecap:butt;stroke-linejoin:miter;stroke:rgb(0%,0%,0%);stroke-opacity:1;stroke-miterlimit:10;" d="M 325.476562 336.847656 C 325.476562 353.414062 312.042969 366.847656 295.476562 366.847656 C 278.90625 366.847656 265.476562 353.414062 265.476562 336.847656 C 265.476562 320.277344 278.90625 306.847656 295.476562 306.847656 C 312.042969 306.847656 325.476562 320.277344 325.476562 336.847656 "/>
<path style="fill-rule:nonzero;fill:rgb(50%,0%,50%);fill-opacity:1;stroke-width:1;stroke-linecap:butt;stroke-linejoin:miter;stroke:rgb(0%,0%,0%);stroke-opacity:1;stroke-miterlimit:10;" d="M 399.726562 389.195312 C 399.726562 405.765625 386.296875 419.195312 369.726562 419.195312 C 353.160156 419.195312 339.726562 405.765625 339.726562 389.195312 C 339.726562 372.628906 353.160156 359.195312 369.726562 359.195312 C 386.296875 359.195312 399.726562 372.628906 399.726562 389.195312 "/>
<path style="fill-rule:nonzero;fill:rgb(50%,0%,50%);fill-opacity:1;stroke-width:1;stroke-linecap:butt;stroke-linejoin:miter;stroke:rgb(0%,0%,0%);stroke-opacity:1;stroke-miterlimit:10;" d="M 156.96875 50.414062 C 156.96875 66.984375 143.535156 80.414062 126.96875 80.414062 C 110.398438 80.414062 96.96875 66.984375 96.96875 50.414062 C 96.96875 33.847656 110.398438 20.414062 126.96875 20.414062 C 143.535156 20.414062 156.96875 33.847656 156.96875 50.414062 "/>
<path style="fill-rule:nonzero;fill:rgb(50%,0%,50%);fill-opacity:1;stroke-width:1;stroke-linecap:butt;stroke-linejoin:miter;stroke:rgb(0%,0%,0%);stroke-opacity:1;stroke-miterlimit:10;" d="M 171.875 123.402344 C 171.875 139.972656 158.445312 153.402344 141.875 153.402344 C 125.308594 153.402344 111.875 139.972656 111.875 123.402344 C 111.875 106.835938 125.308594 93.402344 141.875 93.402344 C 158.445312 93.402344 171.875 106.835938 171.875 123.402344 "/>
<path style="fill-rule:nonzero;fill:rgb(50%,0%,50%);fill-opacity:1;stroke-width:1;stroke-linecap:butt;stroke-linejoin:miter;stroke:rgb(0%,0%,0%);stroke-opacity:1;stroke-miterlimit:10;" d="M 150.257812 204.421875 C 150.257812 220.992188 136.828125 234.421875 120.257812 234.421875 C 103.691406 234.421875 90.257812 220.992188 90.257812 204.421875 C 90.257812 187.855469 103.691406 174.421875 120.257812 174.421875 C 136.828125 174.421875 150.257812 187.855469 150.257812 204.421875 "/>
</g>
</svg>
