<?xml version="1.0" encoding="UTF-8"?>
<svg xmlns="http://www.w3.org/2000/svg" xmlns:xlink="http://www.w3.org/1999/xlink" width="517pt" height="517pt" viewBox="0 0 517 517" version="1.1">
<g id="surface4856">
<rect x="0" y="0" width="517" height="517" style="fill:rgb(90%,90%,90%);fill-opacity:1;stroke:none;"/>
<path style="fill:none;stroke-width:5;stroke-linecap:butt;stroke-linejoin:round;stroke:rgb(100%,0%,0%);stroke-opacity:1;stroke-miterlimit:10;" d="M 5 261 L 261 261 L 261 517 L 5 517 Z M 5 261 "/>
<path style="fill-rule:nonzero;fill:rgb(100%,0%,0%);fill-opacity:1;stroke-width:1;stroke-linecap:butt;stroke-linejoin:round;stroke:rgb(0%,0%,0%);stroke-opacity:1;stroke-miterlimit:10;" d="M 216.621094 424.152344 C 216.621094 409.75 192.621094 409.75 192.621094 424.152344 C 192.621094 438.550781 216.621094 440.949219 216.621094 452.949219 C 216.621094 440.949219 240.621094 438.550781 240.621094 424.152344 C 240.621094 409.75 216.621094 409.75 216.621094 424.152344 "/>
<path style="fill-rule:nonzero;fill:rgb(35%,70%,90%);fill-opacity:1;stroke-width:1;stroke-linecap:butt;stroke-linejoin:round;stroke:rgb(0%,0%,0%);stroke-opacity:1;stroke-miterlimit:10;" d="M 149.183594 199.4375 C 149.183594 185.035156 125.183594 185.035156 125.183594 199.4375 C 125.183594 213.835938 149.183594 216.234375 149.183594 228.234375 C 149.183594 216.234375 173.183594 213.835938 173.183594 199.4375 C 173.183594 185.035156 149.183594 185.035156 149.183594 199.4375 "/>
<path style="fill-rule:nonzero;fill:rgb(100%,0%,0%);fill-opacity:1;stroke-width:1;stroke-linecap:butt;stroke-linejoin:round;stroke:rgb(0%,0%,0%);stroke-opacity:1;stroke-miterlimit:10;" d="M 52.613281 40.050781 C 52.613281 25.652344 28.613281 25.652344 28.613281 40.050781 C 28.613281 54.453125 52.613281 56.851562 52.613281 68.851562 C 52.613281 56.851562 76.613281 54.453125 76.613281 40.050781 C 76.613281 25.652344 52.613281 25.652344 52.613281 40.050781 "/>
<path style="fill-rule:nonzero;fill:rgb(100%,0%,0%);fill-opacity:1;stroke-width:1;stroke-linecap:butt;stroke-linejoin:round;stroke:rgb(0%,0%,0%);stroke-opacity:1;stroke-miterlimit:10;" d="M 404.863281 418.992188 C 404.863281 404.59375 380.863281 404.59375 380.863281 418.992188 C 380.863281 433.390625 404.863281 435.792969 404.863281 447.792969 C 404.863281 435.792969 428.863281 433.390625 428.863281 418.992188 C 428.863281 404.59375 404.863281 404.59375 404.863281 418.992188 "/>
<path style="fill-rule:nonzero;fill:rgb(100%,0%,0%);fill-opacity:1;stroke-width:1;stroke-linecap:butt;stroke-linejoin:round;stroke:rgb(0%,0%,0%);stroke-opacity:1;stroke-miterlimit:10;" d="M 340.855469 340.300781 C 340.855469 325.902344 316.855469 325.902344 316.855469 340.300781 C 316.855469 354.703125 340.855469 357.101562 340.855469 369.101562 C 340.855469 357.101562 364.855469 354.703125 364.855469 340.300781 C 364.855469 325.902344 340.855469 325.902344 340.855469 340.300781 "/>
<path style="fill-rule:nonzero;fill:rgb(100%,0%,0%);fill-opacity:1;stroke-width:1;stroke-linecap:butt;stroke-linejoin:round;stroke:rgb(0%,0%,0%);stroke-opacity:1;stroke-miterlimit:10;" d="M 313.773438 415.769531 C 313.773438 401.367188 289.773438 401.367188 289.773438 415.769531 C 289.773438 430.167969 313.773438 432.566406 313.773438 444.566406 C 313.773438 432.566406 337.773438 430.167969 337.773438 415.769531 C 337.773438 401.367188 313.773438 401.367188 313.773438 415.769531 "/>
</g>
</svg>
