<?xml version="1.0" encoding="UTF-8"?>
<svg xmlns="http://www.w3.org/2000/svg" xmlns:xlink="http://www.w3.org/1999/xlink" width="517pt" height="517pt" viewBox="0 0 517 517" version="1.1">
<g id="surface5026">
<rect x="0" y="0" width="517" height="517" style="fill:rgb(90%,90%,90%);fill-opacity:1;stroke:none;"/>
<path style="fill:none;stroke-width:5;stroke-linecap:butt;stroke-linejoin:round;stroke:rgb(100%,0%,0%);stroke-opacity:1;stroke-miterlimit:10;" d="M 261 261 L 517 261 L 517 517 L 261 517 Z M 261 261 "/>
<path style="fill-rule:nonzero;fill:rgb(0%,0%,0%);fill-opacity:1;stroke-width:1;stroke-linecap:butt;stroke-linejoin:round;stroke:rgb(0%,0%,0%);stroke-opacity:1;stroke-miterlimit:10;" d="M 297.011719 437.011719 C 297.011719 422.609375 273.011719 422.609375 273.011719 437.011719 C 273.011719 451.410156 297.011719 453.8125 297.011719 465.8125 C 297.011719 453.8125 321.011719 451.410156 321.011719 437.011719 C 321.011719 422.609375 297.011719 422.609375 297.011719 437.011719 "/>
<path style="fill-rule:nonzero;fill:rgb(0%,0%,0%);fill-opacity:1;stroke-width:1;stroke-linecap:butt;stroke-linejoin:round;stroke:rgb(0%,0%,0%);stroke-opacity:1;stroke-miterlimit:10;" d="M 63.417969 148.636719 C 63.417969 134.234375 39.417969 134.234375 39.417969 148.636719 C 39.417969 163.035156 63.417969 165.4375 63.417969 177.4375 C 63.417969 165.4375 87.417969 163.035156 87.417969 148.636719 C 87.417969 134.234375 63.417969 134.234375 63.417969 148.636719 "/>
<path style="fill-rule:nonzero;fill:rgb(0%,0%,0%);fill-opacity:1;stroke-width:1;stroke-linecap:butt;stroke-linejoin:round;stroke:rgb(0%,0%,0%);stroke-opacity:1;stroke-miterlimit:10;" d="M 198.253906 353.484375 C 198.253906 339.082031 174.253906 339.082031 174.253906 353.484375 C 174.253906 367.882812 198.253906 370.285156 198.253906 382.285156 C 198.253906 370.285156 222.253906 367.882812 222.253906 353.484375 C 222.253906 339.082031 198.253906 339.082031 198.253906 353.484375 "/>
<path style="fill-rule:nonzero;fill:rgb(0%,0%,0%);fill-opacity:1;stroke-width:1;stroke-linecap:butt;stroke-linejoin:round;stroke:rgb(0%,0%,0%);stroke-opacity:1;stroke-miterlimit:10;" d="M 309.617188 173.941406 C 309.617188 159.539062 285.617188 159.539062 285.617188 173.941406 C 285.617188 188.339844 309.617188 190.742188 309.617188 202.742188 C 309.617188 190.742188 333.617188 188.339844 333.617188 173.941406 C 333.617188 159.539062 309.617188 159.539062 309.617188 173.941406 "/>
<path style="fill-rule:nonzero;fill:rgb(0%,0%,0%);fill-opacity:1;stroke-width:1;stroke-linecap:butt;stroke-linejoin:round;stroke:rgb(0%,0%,0%);stroke-opacity:1;stroke-miterlimit:10;" d="M 433.644531 156.738281 C 433.644531 142.339844 409.644531 142.339844 409.644531 156.738281 C 409.644531 171.136719 433.644531 173.539062 433.644531 185.539062 C 433.644531 173.539062 457.644531 171.136719 457.644531 156.738281 C 457.644531 142.339844 433.644531 142.339844 433.644531 156.738281 "/>
<path style="fill-rule:nonzero;fill:rgb(0%,0%,0%);fill-opacity:1;stroke-width:1;stroke-linecap:butt;stroke-linejoin:round;stroke:rgb(0%,0%,0%);stroke-opacity:1;stroke-miterlimit:10;" d="M 355.984375 53.460938 C 355.984375 39.0625 331.984375 39.0625 331.984375 53.460938 C 331.984375 67.863281 355.984375 70.261719 355.984375 82.261719 C 355.984375 70.261719 379.984375 67.863281 379.984375 53.460938 C 379.984375 39.0625 355.984375 39.0625 355.984375 53.460938 "/>
</g>
</svg>
