<?xml version="1.0" encoding="UTF-8"?>
<svg xmlns="http://www.w3.org/2000/svg" xmlns:xlink="http://www.w3.org/1999/xlink" width="517pt" height="517pt" viewBox="0 0 517 517" version="1.1">
<g id="surface4751">
<rect x="0" y="0" width="517" height="517" style="fill:rgb(90%,90%,90%);fill-opacity:1;stroke:none;"/>
<path style="fill:none;stroke-width:5;stroke-linecap:butt;stroke-linejoin:round;stroke:rgb(100%,0%,0%);stroke-opacity:1;stroke-miterlimit:10;" d="M 5 261 L 261 261 L 261 517 L 5 517 Z M 5 261 "/>
<path style="fill-rule:nonzero;fill:rgb(53%,27%,7%);fill-opacity:1;stroke-width:1;stroke-linecap:butt;stroke-linejoin:round;stroke:rgb(0%,0%,0%);stroke-opacity:1;stroke-miterlimit:10;" d="M 208.621094 309.816406 C 208.621094 295.417969 184.621094 295.417969 184.621094 309.816406 C 184.621094 324.214844 208.621094 326.617188 208.621094 338.617188 C 208.621094 326.617188 232.621094 324.214844 232.621094 309.816406 C 232.621094 295.417969 208.621094 295.417969 208.621094 309.816406 "/>
<path style="fill-rule:nonzero;fill:rgb(100%,0%,0%);fill-opacity:1;stroke-width:1;stroke-linecap:butt;stroke-linejoin:round;stroke:rgb(0%,0%,0%);stroke-opacity:1;stroke-miterlimit:10;" d="M 302.453125 398.152344 C 302.453125 383.753906 278.453125 383.753906 278.453125 398.152344 C 278.453125 412.550781 302.453125 414.953125 302.453125 426.953125 C 302.453125 414.953125 326.453125 412.550781 326.453125 398.152344 C 326.453125 383.753906 302.453125 383.753906 302.453125 398.152344 "/>
<path style="fill-rule:nonzero;fill:rgb(100%,0%,0%);fill-opacity:1;stroke-width:1;stroke-linecap:butt;stroke-linejoin:round;stroke:rgb(0%,0%,0%);stroke-opacity:1;stroke-miterlimit:10;" d="M 59.921875 161.839844 C 59.921875 147.441406 35.921875 147.441406 35.921875 161.839844 C 35.921875 176.242188 59.921875 178.640625 59.921875 190.640625 C 59.921875 178.640625 83.921875 176.242188 83.921875 161.839844 C 83.921875 147.441406 59.921875 147.441406 59.921875 161.839844 "/>
<path style="fill-rule:nonzero;fill:rgb(100%,0%,0%);fill-opacity:1;stroke-width:1;stroke-linecap:butt;stroke-linejoin:round;stroke:rgb(0%,0%,0%);stroke-opacity:1;stroke-miterlimit:10;" d="M 307.089844 64.71875 C 307.089844 50.316406 283.089844 50.316406 283.089844 64.71875 C 283.089844 79.117188 307.089844 81.515625 307.089844 93.515625 C 307.089844 81.515625 331.089844 79.117188 331.089844 64.71875 C 331.089844 50.316406 307.089844 50.316406 307.089844 64.71875 "/>
<path style="fill-rule:nonzero;fill:rgb(100%,0%,0%);fill-opacity:1;stroke-width:1;stroke-linecap:butt;stroke-linejoin:round;stroke:rgb(0%,0%,0%);stroke-opacity:1;stroke-miterlimit:10;" d="M 380.992188 77.546875 C 380.992188 63.144531 356.992188 63.144531 356.992188 77.546875 C 356.992188 91.945312 380.992188 94.347656 380.992188 106.347656 C 380.992188 94.347656 404.992188 91.945312 404.992188 77.546875 C 404.992188 63.144531 380.992188 63.144531 380.992188 77.546875 "/>
<path style="fill-rule:nonzero;fill:rgb(53%,27%,7%);fill-opacity:1;stroke-width:1;stroke-linecap:butt;stroke-linejoin:round;stroke:rgb(0%,0%,0%);stroke-opacity:1;stroke-miterlimit:10;" d="M 373.667969 198.484375 C 373.667969 184.085938 349.667969 184.085938 349.667969 198.484375 C 349.667969 212.886719 373.667969 215.285156 373.667969 227.285156 C 373.667969 215.285156 397.667969 212.886719 397.667969 198.484375 C 397.667969 184.085938 373.667969 184.085938 373.667969 198.484375 "/>
</g>
</svg>
