<?xml version="1.0" encoding="UTF-8"?>
<svg xmlns="http://www.w3.org/2000/svg" xmlns:xlink="http://www.w3.org/1999/xlink" width="517pt" height="517pt" viewBox="0 0 517 517" version="1.1">
<g id="surface4966">
<rect x="0" y="0" width="517" height="517" style="fill:rgb(90%,90%,90%);fill-opacity:1;stroke:none;"/>
<path style="fill:none;stroke-width:5;stroke-linecap:butt;stroke-linejoin:round;stroke:rgb(100%,0%,0%);stroke-opacity:1;stroke-miterlimit:10;" d="M 261 261 L 517 261 L 517 517 L 261 517 Z M 261 261 "/>
<path style="fill-rule:nonzero;fill:rgb(67%,100%,18%);fill-opacity:1;stroke-width:1;stroke-linecap:butt;stroke-linejoin:round;stroke:rgb(0%,0%,0%);stroke-opacity:1;stroke-miterlimit:10;" d="M 337.042969 327.085938 C 337.042969 312.683594 313.042969 312.683594 313.042969 327.085938 C 313.042969 341.484375 337.042969 343.886719 337.042969 355.886719 C 337.042969 343.886719 361.042969 341.484375 361.042969 327.085938 C 361.042969 312.683594 337.042969 312.683594 337.042969 327.085938 "/>
<path style="fill-rule:nonzero;fill:rgb(0%,0%,0%);fill-opacity:1;stroke-width:1;stroke-linecap:butt;stroke-linejoin:round;stroke:rgb(0%,0%,0%);stroke-opacity:1;stroke-miterlimit:10;" d="M 193.605469 286.609375 C 193.605469 272.207031 169.605469 272.207031 169.605469 286.609375 C 169.605469 301.007812 193.605469 303.40625 193.605469 315.40625 C 193.605469 303.40625 217.605469 301.007812 217.605469 286.609375 C 217.605469 272.207031 193.605469 272.207031 193.605469 286.609375 "/>
<path style="fill-rule:nonzero;fill:rgb(0%,0%,0%);fill-opacity:1;stroke-width:1;stroke-linecap:butt;stroke-linejoin:round;stroke:rgb(0%,0%,0%);stroke-opacity:1;stroke-miterlimit:10;" d="M 476.808594 159.71875 C 476.808594 145.316406 452.808594 145.316406 452.808594 159.71875 C 452.808594 174.117188 476.808594 176.515625 476.808594 188.515625 C 476.808594 176.515625 500.808594 174.117188 500.808594 159.71875 C 500.808594 145.316406 476.808594 145.316406 476.808594 159.71875 "/>
<path style="fill-rule:nonzero;fill:rgb(0%,0%,0%);fill-opacity:1;stroke-width:1;stroke-linecap:butt;stroke-linejoin:round;stroke:rgb(0%,0%,0%);stroke-opacity:1;stroke-miterlimit:10;" d="M 445.742188 106.125 C 445.742188 91.726562 421.742188 91.726562 421.742188 106.125 C 421.742188 120.527344 445.742188 122.925781 445.742188 134.925781 C 445.742188 122.925781 469.742188 120.527344 469.742188 106.125 C 469.742188 91.726562 445.742188 91.726562 445.742188 106.125 "/>
<path style="fill-rule:nonzero;fill:rgb(0%,0%,0%);fill-opacity:1;stroke-width:1;stroke-linecap:butt;stroke-linejoin:round;stroke:rgb(0%,0%,0%);stroke-opacity:1;stroke-miterlimit:10;" d="M 291.242188 41.15625 C 291.242188 26.753906 267.242188 26.753906 267.242188 41.15625 C 267.242188 55.554688 291.242188 57.957031 291.242188 69.957031 C 291.242188 57.957031 315.242188 55.554688 315.242188 41.15625 C 315.242188 26.753906 291.242188 26.753906 291.242188 41.15625 "/>
<path style="fill-rule:nonzero;fill:rgb(0%,0%,0%);fill-opacity:1;stroke-width:1;stroke-linecap:butt;stroke-linejoin:round;stroke:rgb(0%,0%,0%);stroke-opacity:1;stroke-miterlimit:10;" d="M 339.777344 178.964844 C 339.777344 164.5625 315.777344 164.5625 315.777344 178.964844 C 315.777344 193.363281 339.777344 195.765625 339.777344 207.765625 C 339.777344 195.765625 363.777344 193.363281 363.777344 178.964844 C 363.777344 164.5625 339.777344 164.5625 339.777344 178.964844 "/>
</g>
</svg>
