<?xml version="1.0" encoding="UTF-8"?>
<svg xmlns="http://www.w3.org/2000/svg" xmlns:xlink="http://www.w3.org/1999/xlink" width="517pt" height="517pt" viewBox="0 0 517 517" version="1.1">
<g id="surface4816">
<rect x="0" y="0" width="517" height="517" style="fill:rgb(90%,90%,90%);fill-opacity:1;stroke:none;"/>
<path style="fill:none;stroke-width:5;stroke-linecap:butt;stroke-linejoin:round;stroke:rgb(100%,0%,0%);stroke-opacity:1;stroke-miterlimit:10;" d="M 5 261 L 261 261 L 261 517 L 5 517 Z M 5 261 "/>
<path style="fill-rule:nonzero;fill:rgb(100%,0%,0%);fill-opacity:1;stroke-width:1;stroke-linecap:butt;stroke-linejoin:round;stroke:rgb(0%,0%,0%);stroke-opacity:1;stroke-miterlimit:10;" d="M 54.292969 395.964844 C 54.292969 381.5625 30.292969 381.5625 30.292969 395.964844 C 30.292969 410.363281 54.292969 412.761719 54.292969 424.761719 C 54.292969 412.761719 78.292969 410.363281 78.292969 395.964844 C 78.292969 381.5625 54.292969 381.5625 54.292969 395.964844 "/>
<path style="fill-rule:nonzero;fill:rgb(35%,70%,90%);fill-opacity:1;stroke-width:1;stroke-linecap:butt;stroke-linejoin:round;stroke:rgb(0%,0%,0%);stroke-opacity:1;stroke-miterlimit:10;" d="M 315.777344 143.945312 C 315.777344 129.546875 291.777344 129.546875 291.777344 143.945312 C 291.777344 158.34375 315.777344 160.746094 315.777344 172.746094 C 315.777344 160.746094 339.777344 158.34375 339.777344 143.945312 C 339.777344 129.546875 315.777344 129.546875 315.777344 143.945312 "/>
<path style="fill-rule:nonzero;fill:rgb(35%,70%,90%);fill-opacity:1;stroke-width:1;stroke-linecap:butt;stroke-linejoin:round;stroke:rgb(0%,0%,0%);stroke-opacity:1;stroke-miterlimit:10;" d="M 459.167969 370.976562 C 459.167969 356.578125 435.167969 356.578125 435.167969 370.976562 C 435.167969 385.375 459.167969 387.777344 459.167969 399.777344 C 459.167969 387.777344 483.167969 385.375 483.167969 370.976562 C 483.167969 356.578125 459.167969 356.578125 459.167969 370.976562 "/>
<path style="fill-rule:nonzero;fill:rgb(35%,70%,90%);fill-opacity:1;stroke-width:1;stroke-linecap:butt;stroke-linejoin:round;stroke:rgb(0%,0%,0%);stroke-opacity:1;stroke-miterlimit:10;" d="M 361.480469 380.484375 C 361.480469 366.085938 337.480469 366.085938 337.480469 380.484375 C 337.480469 394.886719 361.480469 397.285156 361.480469 409.285156 C 361.480469 397.285156 385.480469 394.886719 385.480469 380.484375 C 385.480469 366.085938 361.480469 366.085938 361.480469 380.484375 "/>
<path style="fill-rule:nonzero;fill:rgb(35%,70%,90%);fill-opacity:1;stroke-width:1;stroke-linecap:butt;stroke-linejoin:round;stroke:rgb(0%,0%,0%);stroke-opacity:1;stroke-miterlimit:10;" d="M 359.492188 294.179688 C 359.492188 279.78125 335.492188 279.78125 335.492188 294.179688 C 335.492188 308.582031 359.492188 310.980469 359.492188 322.980469 C 359.492188 310.980469 383.492188 308.582031 383.492188 294.179688 C 383.492188 279.78125 359.492188 279.78125 359.492188 294.179688 "/>
<path style="fill-rule:nonzero;fill:rgb(35%,70%,90%);fill-opacity:1;stroke-width:1;stroke-linecap:butt;stroke-linejoin:round;stroke:rgb(0%,0%,0%);stroke-opacity:1;stroke-miterlimit:10;" d="M 47.976562 164.234375 C 47.976562 149.835938 23.976562 149.835938 23.976562 164.234375 C 23.976562 178.636719 47.976562 181.035156 47.976562 193.035156 C 47.976562 181.035156 71.976562 178.636719 71.976562 164.234375 C 71.976562 149.835938 47.976562 149.835938 47.976562 164.234375 "/>
</g>
</svg>
