<?xml version="1.0" encoding="UTF-8"?>
<svg xmlns="http://www.w3.org/2000/svg" xmlns:xlink="http://www.w3.org/1999/xlink" width="517pt" height="517pt" viewBox="0 0 517 517" version="1.1">
<g id="surface4801">
<rect x="0" y="0" width="517" height="517" style="fill:rgb(90%,90%,90%);fill-opacity:1;stroke:none;"/>
<path style="fill:none;stroke-width:5;stroke-linecap:butt;stroke-linejoin:round;stroke:rgb(100%,0%,0%);stroke-opacity:1;stroke-miterlimit:10;" d="M 5 261 L 261 261 L 261 517 L 5 517 Z M 5 261 "/>
<path style="fill-rule:nonzero;fill:rgb(100%,0%,0%);fill-opacity:1;stroke-width:1;stroke-linecap:butt;stroke-linejoin:round;stroke:rgb(0%,0%,0%);stroke-opacity:1;stroke-miterlimit:10;" d="M 125.726562 456.558594 C 125.726562 442.160156 101.726562 442.160156 101.726562 456.558594 C 101.726562 470.960938 125.726562 473.359375 125.726562 485.359375 C 125.726562 473.359375 149.726562 470.960938 149.726562 456.558594 C 149.726562 442.160156 125.726562 442.160156 125.726562 456.558594 "/>
<path style="fill-rule:nonzero;fill:rgb(35%,70%,90%);fill-opacity:1;stroke-width:1;stroke-linecap:butt;stroke-linejoin:round;stroke:rgb(0%,0%,0%);stroke-opacity:1;stroke-miterlimit:10;" d="M 423.585938 454.328125 C 423.585938 439.929688 399.585938 439.929688 399.585938 454.328125 C 399.585938 468.726562 423.585938 471.128906 423.585938 483.128906 C 423.585938 471.128906 447.585938 468.726562 447.585938 454.328125 C 447.585938 439.929688 423.585938 439.929688 423.585938 454.328125 "/>
<path style="fill-rule:nonzero;fill:rgb(35%,70%,90%);fill-opacity:1;stroke-width:1;stroke-linecap:butt;stroke-linejoin:round;stroke:rgb(0%,0%,0%);stroke-opacity:1;stroke-miterlimit:10;" d="M 359.921875 286.296875 C 359.921875 271.898438 335.921875 271.898438 335.921875 286.296875 C 335.921875 300.699219 359.921875 303.097656 359.921875 315.097656 C 359.921875 303.097656 383.921875 300.699219 383.921875 286.296875 C 383.921875 271.898438 359.921875 271.898438 359.921875 286.296875 "/>
<path style="fill-rule:nonzero;fill:rgb(35%,70%,90%);fill-opacity:1;stroke-width:1;stroke-linecap:butt;stroke-linejoin:round;stroke:rgb(0%,0%,0%);stroke-opacity:1;stroke-miterlimit:10;" d="M 378.179688 87.941406 C 378.179688 73.542969 354.179688 73.542969 354.179688 87.941406 C 354.179688 102.339844 378.179688 104.742188 378.179688 116.742188 C 378.179688 104.742188 402.179688 102.339844 402.179688 87.941406 C 402.179688 73.542969 378.179688 73.542969 378.179688 87.941406 "/>
<path style="fill-rule:nonzero;fill:rgb(35%,70%,90%);fill-opacity:1;stroke-width:1;stroke-linecap:butt;stroke-linejoin:round;stroke:rgb(0%,0%,0%);stroke-opacity:1;stroke-miterlimit:10;" d="M 65.320312 27.375 C 65.320312 12.972656 41.320312 12.972656 41.320312 27.375 C 41.320312 41.773438 65.320312 44.171875 65.320312 56.171875 C 65.320312 44.171875 89.320312 41.773438 89.320312 27.375 C 89.320312 12.972656 65.320312 12.972656 65.320312 27.375 "/>
<path style="fill-rule:nonzero;fill:rgb(35%,70%,90%);fill-opacity:1;stroke-width:1;stroke-linecap:butt;stroke-linejoin:round;stroke:rgb(0%,0%,0%);stroke-opacity:1;stroke-miterlimit:10;" d="M 102.890625 105.265625 C 102.890625 90.867188 78.890625 90.867188 78.890625 105.265625 C 78.890625 119.667969 102.890625 122.066406 102.890625 134.066406 C 102.890625 122.066406 126.890625 119.667969 126.890625 105.265625 C 126.890625 90.867188 102.890625 90.867188 102.890625 105.265625 "/>
</g>
</svg>
