<?xml version="1.0" encoding="UTF-8"?>
<svg xmlns="http://www.w3.org/2000/svg" xmlns:xlink="http://www.w3.org/1999/xlink" width="517pt" height="517pt" viewBox="0 0 517 517" version="1.1">
<g id="surface5006">
<rect x="0" y="0" width="517" height="517" style="fill:rgb(90%,90%,90%);fill-opacity:1;stroke:none;"/>
<path style="fill:none;stroke-width:5;stroke-linecap:butt;stroke-linejoin:round;stroke:rgb(100%,0%,0%);stroke-opacity:1;stroke-miterlimit:10;" d="M 261 261 L 517 261 L 517 517 L 261 517 Z M 261 261 "/>
<path style="fill-rule:nonzero;fill:rgb(67%,100%,18%);fill-opacity:1;stroke-width:1;stroke-linecap:butt;stroke-linejoin:round;stroke:rgb(0%,0%,0%);stroke-opacity:1;stroke-miterlimit:10;" d="M 328.410156 437.808594 C 328.410156 423.410156 304.410156 423.410156 304.410156 437.808594 C 304.410156 452.210938 328.410156 454.609375 328.410156 466.609375 C 328.410156 454.609375 352.410156 452.210938 352.410156 437.808594 C 352.410156 423.410156 328.410156 423.410156 328.410156 437.808594 "/>
<path style="fill-rule:nonzero;fill:rgb(0%,0%,0%);fill-opacity:1;stroke-width:1;stroke-linecap:butt;stroke-linejoin:round;stroke:rgb(0%,0%,0%);stroke-opacity:1;stroke-miterlimit:10;" d="M 130.773438 168.417969 C 130.773438 154.019531 106.773438 154.019531 106.773438 168.417969 C 106.773438 182.820312 130.773438 185.21875 130.773438 197.21875 C 130.773438 185.21875 154.773438 182.820312 154.773438 168.417969 C 154.773438 154.019531 130.773438 154.019531 130.773438 168.417969 "/>
<path style="fill-rule:nonzero;fill:rgb(67%,100%,18%);fill-opacity:1;stroke-width:1;stroke-linecap:butt;stroke-linejoin:round;stroke:rgb(0%,0%,0%);stroke-opacity:1;stroke-miterlimit:10;" d="M 50.007812 415.691406 C 50.007812 401.292969 26.007812 401.292969 26.007812 415.691406 C 26.007812 430.09375 50.007812 432.492188 50.007812 444.492188 C 50.007812 432.492188 74.007812 430.09375 74.007812 415.691406 C 74.007812 401.292969 50.007812 401.292969 50.007812 415.691406 "/>
<path style="fill-rule:nonzero;fill:rgb(67%,100%,18%);fill-opacity:1;stroke-width:1;stroke-linecap:butt;stroke-linejoin:round;stroke:rgb(0%,0%,0%);stroke-opacity:1;stroke-miterlimit:10;" d="M 183.238281 391.367188 C 183.238281 376.964844 159.238281 376.964844 159.238281 391.367188 C 159.238281 405.765625 183.238281 408.164062 183.238281 420.164062 C 183.238281 408.164062 207.238281 405.765625 207.238281 391.367188 C 207.238281 376.964844 183.238281 376.964844 183.238281 391.367188 "/>
<path style="fill-rule:nonzero;fill:rgb(67%,100%,18%);fill-opacity:1;stroke-width:1;stroke-linecap:butt;stroke-linejoin:round;stroke:rgb(0%,0%,0%);stroke-opacity:1;stroke-miterlimit:10;" d="M 118.253906 337.347656 C 118.253906 322.949219 94.253906 322.949219 94.253906 337.347656 C 94.253906 351.75 118.253906 354.148438 118.253906 366.148438 C 118.253906 354.148438 142.253906 351.75 142.253906 337.347656 C 142.253906 322.949219 118.253906 322.949219 118.253906 337.347656 "/>
<path style="fill-rule:nonzero;fill:rgb(67%,100%,18%);fill-opacity:1;stroke-width:1;stroke-linecap:butt;stroke-linejoin:round;stroke:rgb(0%,0%,0%);stroke-opacity:1;stroke-miterlimit:10;" d="M 114.378906 454.421875 C 114.378906 440.023438 90.378906 440.023438 90.378906 454.421875 C 90.378906 468.824219 114.378906 471.222656 114.378906 483.222656 C 114.378906 471.222656 138.378906 468.824219 138.378906 454.421875 C 138.378906 440.023438 114.378906 440.023438 114.378906 454.421875 "/>
</g>
</svg>
