<?xml version="1.0" encoding="UTF-8"?>
<svg xmlns="http://www.w3.org/2000/svg" xmlns:xlink="http://www.w3.org/1999/xlink" width="517pt" height="517pt" viewBox="0 0 517 517" version="1.1">
<g id="surface5071">
<rect x="0" y="0" width="517" height="517" style="fill:rgb(90%,90%,90%);fill-opacity:1;stroke:none;"/>
<path style="fill:none;stroke-width:5;stroke-linecap:butt;stroke-linejoin:round;stroke:rgb(100%,0%,0%);stroke-opacity:1;stroke-miterlimit:10;" d="M 261 261 L 517 261 L 517 517 L 261 517 Z M 261 261 "/>
<path style="fill-rule:nonzero;fill:rgb(0%,0%,0%);fill-opacity:1;stroke-width:1;stroke-linecap:butt;stroke-linejoin:round;stroke:rgb(0%,0%,0%);stroke-opacity:1;stroke-miterlimit:10;" d="M 385.421875 318.164062 C 385.421875 303.765625 361.421875 303.765625 361.421875 318.164062 C 361.421875 332.5625 385.421875 334.964844 385.421875 346.964844 C 385.421875 334.964844 409.421875 332.5625 409.421875 318.164062 C 409.421875 303.765625 385.421875 303.765625 385.421875 318.164062 "/>
<path style="fill-rule:nonzero;fill:rgb(100%,0%,0%);fill-opacity:1;stroke-width:1;stroke-linecap:butt;stroke-linejoin:round;stroke:rgb(0%,0%,0%);stroke-opacity:1;stroke-miterlimit:10;" d="M 468.773438 93.128906 C 468.773438 78.730469 444.773438 78.730469 444.773438 93.128906 C 444.773438 107.527344 468.773438 109.929688 468.773438 121.929688 C 468.773438 109.929688 492.773438 107.527344 492.773438 93.128906 C 492.773438 78.730469 468.773438 78.730469 468.773438 93.128906 "/>
<path style="fill-rule:nonzero;fill:rgb(100%,0%,0%);fill-opacity:1;stroke-width:1;stroke-linecap:butt;stroke-linejoin:round;stroke:rgb(0%,0%,0%);stroke-opacity:1;stroke-miterlimit:10;" d="M 82.292969 343.1875 C 82.292969 328.789062 58.292969 328.789062 58.292969 343.1875 C 58.292969 357.589844 82.292969 359.988281 82.292969 371.988281 C 82.292969 359.988281 106.292969 357.589844 106.292969 343.1875 C 106.292969 328.789062 82.292969 328.789062 82.292969 343.1875 "/>
<path style="fill-rule:nonzero;fill:rgb(100%,0%,0%);fill-opacity:1;stroke-width:1;stroke-linecap:butt;stroke-linejoin:round;stroke:rgb(0%,0%,0%);stroke-opacity:1;stroke-miterlimit:10;" d="M 125.734375 108.785156 C 125.734375 94.386719 101.734375 94.386719 101.734375 108.785156 C 101.734375 123.1875 125.734375 125.585938 125.734375 137.585938 C 125.734375 125.585938 149.734375 123.1875 149.734375 108.785156 C 149.734375 94.386719 125.734375 94.386719 125.734375 108.785156 "/>
<path style="fill-rule:nonzero;fill:rgb(100%,0%,0%);fill-opacity:1;stroke-width:1;stroke-linecap:butt;stroke-linejoin:round;stroke:rgb(0%,0%,0%);stroke-opacity:1;stroke-miterlimit:10;" d="M 192.292969 156.472656 C 192.292969 142.074219 168.292969 142.074219 168.292969 156.472656 C 168.292969 170.875 192.292969 173.273438 192.292969 185.273438 C 192.292969 173.273438 216.292969 170.875 216.292969 156.472656 C 216.292969 142.074219 192.292969 142.074219 192.292969 156.472656 "/>
<path style="fill-rule:nonzero;fill:rgb(0%,0%,0%);fill-opacity:1;stroke-width:1;stroke-linecap:butt;stroke-linejoin:round;stroke:rgb(0%,0%,0%);stroke-opacity:1;stroke-miterlimit:10;" d="M 35.292969 131.039062 C 35.292969 116.636719 11.292969 116.636719 11.292969 131.039062 C 11.292969 145.4375 35.292969 147.835938 35.292969 159.835938 C 35.292969 147.835938 59.292969 145.4375 59.292969 131.039062 C 59.292969 116.636719 35.292969 116.636719 35.292969 131.039062 "/>
</g>
</svg>
