<?xml version="1.0" encoding="UTF-8"?>
<svg xmlns="http://www.w3.org/2000/svg" xmlns:xlink="http://www.w3.org/1999/xlink" width="517pt" height="517pt" viewBox="0 0 517 517" version="1.1">
<g id="surface4891">
<rect x="0" y="0" width="517" height="517" style="fill:rgb(90%,90%,90%);fill-opacity:1;stroke:none;"/>
<path style="fill:none;stroke-width:5;stroke-linecap:butt;stroke-linejoin:round;stroke:rgb(100%,0%,0%);stroke-opacity:1;stroke-miterlimit:10;" d="M 5 261 L 261 261 L 261 517 L 5 517 Z M 5 261 "/>
<path style="fill-rule:nonzero;fill:rgb(90%,65%,0%);fill-opacity:1;stroke-width:1;stroke-linecap:butt;stroke-linejoin:round;stroke:rgb(0%,0%,0%);stroke-opacity:1;stroke-miterlimit:10;" d="M 134.257812 299.988281 C 134.257812 285.589844 110.257812 285.589844 110.257812 299.988281 C 110.257812 314.386719 134.257812 316.789062 134.257812 328.789062 C 134.257812 316.789062 158.257812 314.386719 158.257812 299.988281 C 158.257812 285.589844 134.257812 285.589844 134.257812 299.988281 "/>
<path style="fill-rule:nonzero;fill:rgb(100%,7%,57%);fill-opacity:1;stroke-width:1;stroke-linecap:butt;stroke-linejoin:round;stroke:rgb(0%,0%,0%);stroke-opacity:1;stroke-miterlimit:10;" d="M 387.257812 196.746094 C 387.257812 182.347656 363.257812 182.347656 363.257812 196.746094 C 363.257812 211.148438 387.257812 213.546875 387.257812 225.546875 C 387.257812 213.546875 411.257812 211.148438 411.257812 196.746094 C 411.257812 182.347656 387.257812 182.347656 387.257812 196.746094 "/>
<path style="fill-rule:nonzero;fill:rgb(100%,7%,57%);fill-opacity:1;stroke-width:1;stroke-linecap:butt;stroke-linejoin:round;stroke:rgb(0%,0%,0%);stroke-opacity:1;stroke-miterlimit:10;" d="M 436.296875 301.878906 C 436.296875 287.480469 412.296875 287.480469 412.296875 301.878906 C 412.296875 316.277344 436.296875 318.679688 436.296875 330.679688 C 436.296875 318.679688 460.296875 316.277344 460.296875 301.878906 C 460.296875 287.480469 436.296875 287.480469 436.296875 301.878906 "/>
<path style="fill-rule:nonzero;fill:rgb(100%,7%,57%);fill-opacity:1;stroke-width:1;stroke-linecap:butt;stroke-linejoin:round;stroke:rgb(0%,0%,0%);stroke-opacity:1;stroke-miterlimit:10;" d="M 413.375 361.851562 C 413.375 347.449219 389.375 347.449219 389.375 361.851562 C 389.375 376.25 413.375 378.652344 413.375 390.652344 C 413.375 378.652344 437.375 376.25 437.375 361.851562 C 437.375 347.449219 413.375 347.449219 413.375 361.851562 "/>
<path style="fill-rule:nonzero;fill:rgb(100%,7%,57%);fill-opacity:1;stroke-width:1;stroke-linecap:butt;stroke-linejoin:round;stroke:rgb(0%,0%,0%);stroke-opacity:1;stroke-miterlimit:10;" d="M 303.257812 455.335938 C 303.257812 440.9375 279.257812 440.9375 279.257812 455.335938 C 279.257812 469.734375 303.257812 472.136719 303.257812 484.136719 C 303.257812 472.136719 327.257812 469.734375 327.257812 455.335938 C 327.257812 440.9375 303.257812 440.9375 303.257812 455.335938 "/>
<path style="fill-rule:nonzero;fill:rgb(100%,7%,57%);fill-opacity:1;stroke-width:1;stroke-linecap:butt;stroke-linejoin:round;stroke:rgb(0%,0%,0%);stroke-opacity:1;stroke-miterlimit:10;" d="M 57.46875 157.800781 C 57.46875 143.402344 33.46875 143.402344 33.46875 157.800781 C 33.46875 172.199219 57.46875 174.601562 57.46875 186.601562 C 57.46875 174.601562 81.46875 172.199219 81.46875 157.800781 C 81.46875 143.402344 57.46875 143.402344 57.46875 157.800781 "/>
</g>
</svg>
