<?xml version="1.0" encoding="UTF-8"?>
<svg xmlns="http://www.w3.org/2000/svg" xmlns:xlink="http://www.w3.org/1999/xlink" width="517pt" height="517pt" viewBox="0 0 517 517" version="1.1">
<g id="surface4841">
<rect x="0" y="0" width="517" height="517" style="fill:rgb(90%,90%,90%);fill-opacity:1;stroke:none;"/>
<path style="fill:none;stroke-width:5;stroke-linecap:butt;stroke-linejoin:round;stroke:rgb(100%,0%,0%);stroke-opacity:1;stroke-miterlimit:10;" d="M 5 261 L 261 261 L 261 517 L 5 517 Z M 5 261 "/>
<path style="fill-rule:nonzero;fill:rgb(100%,0%,0%);fill-opacity:1;stroke-width:1;stroke-linecap:butt;stroke-linejoin:round;stroke:rgb(0%,0%,0%);stroke-opacity:1;stroke-miterlimit:10;" d="M 217.085938 373.796875 C 217.085938 359.394531 193.085938 359.394531 193.085938 373.796875 C 193.085938 388.195312 217.085938 390.59375 217.085938 402.59375 C 217.085938 390.59375 241.085938 388.195312 241.085938 373.796875 C 241.085938 359.394531 217.085938 359.394531 217.085938 373.796875 "/>
<path style="fill-rule:nonzero;fill:rgb(35%,70%,90%);fill-opacity:1;stroke-width:1;stroke-linecap:butt;stroke-linejoin:round;stroke:rgb(0%,0%,0%);stroke-opacity:1;stroke-miterlimit:10;" d="M 320.792969 87.835938 C 320.792969 73.4375 296.792969 73.4375 296.792969 87.835938 C 296.792969 102.234375 320.792969 104.636719 320.792969 116.636719 C 320.792969 104.636719 344.792969 102.234375 344.792969 87.835938 C 344.792969 73.4375 320.792969 73.4375 320.792969 87.835938 "/>
<path style="fill-rule:nonzero;fill:rgb(100%,0%,0%);fill-opacity:1;stroke-width:1;stroke-linecap:butt;stroke-linejoin:round;stroke:rgb(0%,0%,0%);stroke-opacity:1;stroke-miterlimit:10;" d="M 296.949219 312.53125 C 296.949219 298.132812 272.949219 298.132812 272.949219 312.53125 C 272.949219 326.933594 296.949219 329.332031 296.949219 341.332031 C 296.949219 329.332031 320.949219 326.933594 320.949219 312.53125 C 320.949219 298.132812 296.949219 298.132812 296.949219 312.53125 "/>
<path style="fill-rule:nonzero;fill:rgb(100%,0%,0%);fill-opacity:1;stroke-width:1;stroke-linecap:butt;stroke-linejoin:round;stroke:rgb(0%,0%,0%);stroke-opacity:1;stroke-miterlimit:10;" d="M 58.296875 160.21875 C 58.296875 145.820312 34.296875 145.820312 34.296875 160.21875 C 34.296875 174.621094 58.296875 177.019531 58.296875 189.019531 C 58.296875 177.019531 82.296875 174.621094 82.296875 160.21875 C 82.296875 145.820312 58.296875 145.820312 58.296875 160.21875 "/>
<path style="fill-rule:nonzero;fill:rgb(100%,0%,0%);fill-opacity:1;stroke-width:1;stroke-linecap:butt;stroke-linejoin:round;stroke:rgb(0%,0%,0%);stroke-opacity:1;stroke-miterlimit:10;" d="M 161.910156 188.828125 C 161.910156 174.429688 137.910156 174.429688 137.910156 188.828125 C 137.910156 203.230469 161.910156 205.628906 161.910156 217.628906 C 161.910156 205.628906 185.910156 203.230469 185.910156 188.828125 C 185.910156 174.429688 161.910156 174.429688 161.910156 188.828125 "/>
<path style="fill-rule:nonzero;fill:rgb(100%,0%,0%);fill-opacity:1;stroke-width:1;stroke-linecap:butt;stroke-linejoin:round;stroke:rgb(0%,0%,0%);stroke-opacity:1;stroke-miterlimit:10;" d="M 217.699219 56.921875 C 217.699219 42.523438 193.699219 42.523438 193.699219 56.921875 C 193.699219 71.324219 217.699219 73.722656 217.699219 85.722656 C 217.699219 73.722656 241.699219 71.324219 241.699219 56.921875 C 241.699219 42.523438 217.699219 42.523438 217.699219 56.921875 "/>
</g>
</svg>
