<?xml version="1.0" encoding="UTF-8"?>
<svg xmlns="http://www.w3.org/2000/svg" xmlns:xlink="http://www.w3.org/1999/xlink" width="517pt" height="517pt" viewBox="0 0 517 517" version="1.1">
<g id="surface4881">
<rect x="0" y="0" width="517" height="517" style="fill:rgb(90%,90%,90%);fill-opacity:1;stroke:none;"/>
<path style="fill:none;stroke-width:5;stroke-linecap:butt;stroke-linejoin:round;stroke:rgb(100%,0%,0%);stroke-opacity:1;stroke-miterlimit:10;" d="M 5 261 L 261 261 L 261 517 L 5 517 Z M 5 261 "/>
<path style="fill-rule:nonzero;fill:rgb(90%,65%,0%);fill-opacity:1;stroke-width:1;stroke-linecap:butt;stroke-linejoin:round;stroke:rgb(0%,0%,0%);stroke-opacity:1;stroke-miterlimit:10;" d="M 153.953125 370.90625 C 153.953125 356.503906 129.953125 356.503906 129.953125 370.90625 C 129.953125 385.304688 153.953125 387.703125 153.953125 399.703125 C 153.953125 387.703125 177.953125 385.304688 177.953125 370.90625 C 177.953125 356.503906 153.953125 356.503906 153.953125 370.90625 "/>
<path style="fill-rule:nonzero;fill:rgb(100%,7%,57%);fill-opacity:1;stroke-width:1;stroke-linecap:butt;stroke-linejoin:round;stroke:rgb(0%,0%,0%);stroke-opacity:1;stroke-miterlimit:10;" d="M 452.167969 69.457031 C 452.167969 55.058594 428.167969 55.058594 428.167969 69.457031 C 428.167969 83.855469 452.167969 86.257812 452.167969 98.257812 C 452.167969 86.257812 476.167969 83.855469 476.167969 69.457031 C 476.167969 55.058594 452.167969 55.058594 452.167969 69.457031 "/>
<path style="fill-rule:nonzero;fill:rgb(100%,7%,57%);fill-opacity:1;stroke-width:1;stroke-linecap:butt;stroke-linejoin:round;stroke:rgb(0%,0%,0%);stroke-opacity:1;stroke-miterlimit:10;" d="M 393.226562 323.320312 C 393.226562 308.921875 369.226562 308.921875 369.226562 323.320312 C 369.226562 337.722656 393.226562 340.121094 393.226562 352.121094 C 393.226562 340.121094 417.226562 337.722656 417.226562 323.320312 C 417.226562 308.921875 393.226562 308.921875 393.226562 323.320312 "/>
<path style="fill-rule:nonzero;fill:rgb(100%,7%,57%);fill-opacity:1;stroke-width:1;stroke-linecap:butt;stroke-linejoin:round;stroke:rgb(0%,0%,0%);stroke-opacity:1;stroke-miterlimit:10;" d="M 339.9375 417.46875 C 339.9375 403.070312 315.9375 403.070312 315.9375 417.46875 C 315.9375 431.871094 339.9375 434.269531 339.9375 446.269531 C 339.9375 434.269531 363.9375 431.871094 363.9375 417.46875 C 363.9375 403.070312 339.9375 403.070312 339.9375 417.46875 "/>
<path style="fill-rule:nonzero;fill:rgb(100%,7%,57%);fill-opacity:1;stroke-width:1;stroke-linecap:butt;stroke-linejoin:round;stroke:rgb(0%,0%,0%);stroke-opacity:1;stroke-miterlimit:10;" d="M 321.140625 291.957031 C 321.140625 277.554688 297.140625 277.554688 297.140625 291.957031 C 297.140625 306.355469 321.140625 308.753906 321.140625 320.753906 C 321.140625 308.753906 345.140625 306.355469 345.140625 291.957031 C 345.140625 277.554688 321.140625 277.554688 321.140625 291.957031 "/>
<path style="fill-rule:nonzero;fill:rgb(100%,7%,57%);fill-opacity:1;stroke-width:1;stroke-linecap:butt;stroke-linejoin:round;stroke:rgb(0%,0%,0%);stroke-opacity:1;stroke-miterlimit:10;" d="M 36.351562 77.84375 C 36.351562 63.445312 12.351562 63.445312 12.351562 77.84375 C 12.351562 92.246094 36.351562 94.644531 36.351562 106.644531 C 36.351562 94.644531 60.351562 92.246094 60.351562 77.84375 C 60.351562 63.445312 36.351562 63.445312 36.351562 77.84375 "/>
</g>
</svg>
