<?xml version="1.0" encoding="UTF-8"?>
<svg xmlns="http://www.w3.org/2000/svg" xmlns:xlink="http://www.w3.org/1999/xlink" width="517pt" height="517pt" viewBox="0 0 517 517" version="1.1">
<g id="surface4971">
<rect x="0" y="0" width="517" height="517" style="fill:rgb(90%,90%,90%);fill-opacity:1;stroke:none;"/>
<path style="fill:none;stroke-width:5;stroke-linecap:butt;stroke-linejoin:round;stroke:rgb(100%,0%,0%);stroke-opacity:1;stroke-miterlimit:10;" d="M 261 261 L 517 261 L 517 517 L 261 517 Z M 261 261 "/>
<path style="fill-rule:nonzero;fill:rgb(67%,100%,18%);fill-opacity:1;stroke-width:1;stroke-linecap:butt;stroke-linejoin:round;stroke:rgb(0%,0%,0%);stroke-opacity:1;stroke-miterlimit:10;" d="M 291.960938 315.53125 C 291.960938 301.132812 267.960938 301.132812 267.960938 315.53125 C 267.960938 329.929688 291.960938 332.332031 291.960938 344.332031 C 291.960938 332.332031 315.960938 329.929688 315.960938 315.53125 C 315.960938 301.132812 291.960938 301.132812 291.960938 315.53125 "/>
<path style="fill-rule:nonzero;fill:rgb(0%,0%,0%);fill-opacity:1;stroke-width:1;stroke-linecap:butt;stroke-linejoin:round;stroke:rgb(0%,0%,0%);stroke-opacity:1;stroke-miterlimit:10;" d="M 56.296875 297.699219 C 56.296875 283.296875 32.296875 283.296875 32.296875 297.699219 C 32.296875 312.097656 56.296875 314.496094 56.296875 326.496094 C 56.296875 314.496094 80.296875 312.097656 80.296875 297.699219 C 80.296875 283.296875 56.296875 283.296875 56.296875 297.699219 "/>
<path style="fill-rule:nonzero;fill:rgb(0%,0%,0%);fill-opacity:1;stroke-width:1;stroke-linecap:butt;stroke-linejoin:round;stroke:rgb(0%,0%,0%);stroke-opacity:1;stroke-miterlimit:10;" d="M 342.585938 117.859375 C 342.585938 103.457031 318.585938 103.457031 318.585938 117.859375 C 318.585938 132.257812 342.585938 134.660156 342.585938 146.660156 C 342.585938 134.660156 366.585938 132.257812 366.585938 117.859375 C 366.585938 103.457031 342.585938 103.457031 342.585938 117.859375 "/>
<path style="fill-rule:nonzero;fill:rgb(0%,0%,0%);fill-opacity:1;stroke-width:1;stroke-linecap:butt;stroke-linejoin:round;stroke:rgb(0%,0%,0%);stroke-opacity:1;stroke-miterlimit:10;" d="M 133.5625 201.449219 C 133.5625 187.046875 109.5625 187.046875 109.5625 201.449219 C 109.5625 215.847656 133.5625 218.25 133.5625 230.25 C 133.5625 218.25 157.5625 215.847656 157.5625 201.449219 C 157.5625 187.046875 133.5625 187.046875 133.5625 201.449219 "/>
<path style="fill-rule:nonzero;fill:rgb(0%,0%,0%);fill-opacity:1;stroke-width:1;stroke-linecap:butt;stroke-linejoin:round;stroke:rgb(0%,0%,0%);stroke-opacity:1;stroke-miterlimit:10;" d="M 98.242188 104.300781 C 98.242188 89.902344 74.242188 89.902344 74.242188 104.300781 C 74.242188 118.699219 98.242188 121.101562 98.242188 133.101562 C 98.242188 121.101562 122.242188 118.699219 122.242188 104.300781 C 122.242188 89.902344 98.242188 89.902344 98.242188 104.300781 "/>
<path style="fill-rule:nonzero;fill:rgb(0%,0%,0%);fill-opacity:1;stroke-width:1;stroke-linecap:butt;stroke-linejoin:round;stroke:rgb(0%,0%,0%);stroke-opacity:1;stroke-miterlimit:10;" d="M 73.832031 181.96875 C 73.832031 167.570312 49.832031 167.570312 49.832031 181.96875 C 49.832031 196.371094 73.832031 198.769531 73.832031 210.769531 C 73.832031 198.769531 97.832031 196.371094 97.832031 181.96875 C 97.832031 167.570312 73.832031 167.570312 73.832031 181.96875 "/>
</g>
</svg>
