<?xml version="1.0" encoding="UTF-8"?>
<svg xmlns="http://www.w3.org/2000/svg" xmlns:xlink="http://www.w3.org/1999/xlink" width="517pt" height="517pt" viewBox="0 0 517 517" version="1.1">
<g id="surface4791">
<rect x="0" y="0" width="517" height="517" style="fill:rgb(90%,90%,90%);fill-opacity:1;stroke:none;"/>
<path style="fill:none;stroke-width:5;stroke-linecap:butt;stroke-linejoin:round;stroke:rgb(100%,0%,0%);stroke-opacity:1;stroke-miterlimit:10;" d="M 5 261 L 261 261 L 261 517 L 5 517 Z M 5 261 "/>
<path style="fill-rule:nonzero;fill:rgb(35%,70%,90%);fill-opacity:1;stroke-width:1;stroke-linecap:butt;stroke-linejoin:round;stroke:rgb(0%,0%,0%);stroke-opacity:1;stroke-miterlimit:10;" d="M 137.148438 381.21875 C 137.148438 366.820312 113.148438 366.820312 113.148438 381.21875 C 113.148438 395.621094 137.148438 398.019531 137.148438 410.019531 C 137.148438 398.019531 161.148438 395.621094 161.148438 381.21875 C 161.148438 366.820312 137.148438 366.820312 137.148438 381.21875 "/>
<path style="fill-rule:nonzero;fill:rgb(100%,0%,0%);fill-opacity:1;stroke-width:1;stroke-linecap:butt;stroke-linejoin:round;stroke:rgb(0%,0%,0%);stroke-opacity:1;stroke-miterlimit:10;" d="M 164.863281 152.554688 C 164.863281 138.15625 140.863281 138.15625 140.863281 152.554688 C 140.863281 166.953125 164.863281 169.355469 164.863281 181.355469 C 164.863281 169.355469 188.863281 166.953125 188.863281 152.554688 C 188.863281 138.15625 164.863281 138.15625 164.863281 152.554688 "/>
<path style="fill-rule:nonzero;fill:rgb(53%,27%,7%);fill-opacity:1;stroke-width:1;stroke-linecap:butt;stroke-linejoin:round;stroke:rgb(0%,0%,0%);stroke-opacity:1;stroke-miterlimit:10;" d="M 458.875 127.613281 C 458.875 113.210938 434.875 113.210938 434.875 127.613281 C 434.875 142.011719 458.875 144.414062 458.875 156.414062 C 458.875 144.414062 482.875 142.011719 482.875 127.613281 C 482.875 113.210938 458.875 113.210938 458.875 127.613281 "/>
<path style="fill-rule:nonzero;fill:rgb(53%,27%,7%);fill-opacity:1;stroke-width:1;stroke-linecap:butt;stroke-linejoin:round;stroke:rgb(0%,0%,0%);stroke-opacity:1;stroke-miterlimit:10;" d="M 327.875 113.15625 C 327.875 98.757812 303.875 98.757812 303.875 113.15625 C 303.875 127.558594 327.875 129.957031 327.875 141.957031 C 327.875 129.957031 351.875 127.558594 351.875 113.15625 C 351.875 98.757812 327.875 98.757812 327.875 113.15625 "/>
<path style="fill-rule:nonzero;fill:rgb(53%,27%,7%);fill-opacity:1;stroke-width:1;stroke-linecap:butt;stroke-linejoin:round;stroke:rgb(0%,0%,0%);stroke-opacity:1;stroke-miterlimit:10;" d="M 378.515625 53.914062 C 378.515625 39.515625 354.515625 39.515625 354.515625 53.914062 C 354.515625 68.3125 378.515625 70.714844 378.515625 82.714844 C 378.515625 70.714844 402.515625 68.3125 402.515625 53.914062 C 402.515625 39.515625 378.515625 39.515625 378.515625 53.914062 "/>
<path style="fill-rule:nonzero;fill:rgb(53%,27%,7%);fill-opacity:1;stroke-width:1;stroke-linecap:butt;stroke-linejoin:round;stroke:rgb(0%,0%,0%);stroke-opacity:1;stroke-miterlimit:10;" d="M 420.882812 201.011719 C 420.882812 186.613281 396.882812 186.613281 396.882812 201.011719 C 396.882812 215.414062 420.882812 217.8125 420.882812 229.8125 C 420.882812 217.8125 444.882812 215.414062 444.882812 201.011719 C 444.882812 186.613281 420.882812 186.613281 420.882812 201.011719 "/>
</g>
</svg>
