<?xml version="1.0" encoding="UTF-8"?>
<svg xmlns="http://www.w3.org/2000/svg" xmlns:xlink="http://www.w3.org/1999/xlink" width="517pt" height="517pt" viewBox="0 0 517 517" version="1.1">
<g id="surface4976">
<rect x="0" y="0" width="517" height="517" style="fill:rgb(90%,90%,90%);fill-opacity:1;stroke:none;"/>
<path style="fill:none;stroke-width:5;stroke-linecap:butt;stroke-linejoin:round;stroke:rgb(100%,0%,0%);stroke-opacity:1;stroke-miterlimit:10;" d="M 261 261 L 517 261 L 517 517 L 261 517 Z M 261 261 "/>
<path style="fill-rule:nonzero;fill:rgb(67%,100%,18%);fill-opacity:1;stroke-width:1;stroke-linecap:butt;stroke-linejoin:round;stroke:rgb(0%,0%,0%);stroke-opacity:1;stroke-miterlimit:10;" d="M 344.0625 435.867188 C 344.0625 421.46875 320.0625 421.46875 320.0625 435.867188 C 320.0625 450.269531 344.0625 452.667969 344.0625 464.667969 C 344.0625 452.667969 368.0625 450.269531 368.0625 435.867188 C 368.0625 421.46875 344.0625 421.46875 344.0625 435.867188 "/>
<path style="fill-rule:nonzero;fill:rgb(0%,0%,0%);fill-opacity:1;stroke-width:1;stroke-linecap:butt;stroke-linejoin:round;stroke:rgb(0%,0%,0%);stroke-opacity:1;stroke-miterlimit:10;" d="M 463.59375 37.882812 C 463.59375 23.484375 439.59375 23.484375 439.59375 37.882812 C 439.59375 52.285156 463.59375 54.683594 463.59375 66.683594 C 463.59375 54.683594 487.59375 52.285156 487.59375 37.882812 C 487.59375 23.484375 463.59375 23.484375 463.59375 37.882812 "/>
<path style="fill-rule:nonzero;fill:rgb(0%,0%,0%);fill-opacity:1;stroke-width:1;stroke-linecap:butt;stroke-linejoin:round;stroke:rgb(0%,0%,0%);stroke-opacity:1;stroke-miterlimit:10;" d="M 319.90625 141.546875 C 319.90625 127.148438 295.90625 127.148438 295.90625 141.546875 C 295.90625 155.949219 319.90625 158.347656 319.90625 170.347656 C 319.90625 158.347656 343.90625 155.949219 343.90625 141.546875 C 343.90625 127.148438 319.90625 127.148438 319.90625 141.546875 "/>
<path style="fill-rule:nonzero;fill:rgb(0%,0%,0%);fill-opacity:1;stroke-width:1;stroke-linecap:butt;stroke-linejoin:round;stroke:rgb(0%,0%,0%);stroke-opacity:1;stroke-miterlimit:10;" d="M 71.121094 56.972656 C 71.121094 42.574219 47.121094 42.574219 47.121094 56.972656 C 47.121094 71.375 71.121094 73.773438 71.121094 85.773438 C 71.121094 73.773438 95.121094 71.375 95.121094 56.972656 C 95.121094 42.574219 71.121094 42.574219 71.121094 56.972656 "/>
<path style="fill-rule:nonzero;fill:rgb(0%,0%,0%);fill-opacity:1;stroke-width:1;stroke-linecap:butt;stroke-linejoin:round;stroke:rgb(0%,0%,0%);stroke-opacity:1;stroke-miterlimit:10;" d="M 148.339844 169.691406 C 148.339844 155.292969 124.339844 155.292969 124.339844 169.691406 C 124.339844 184.09375 148.339844 186.492188 148.339844 198.492188 C 148.339844 186.492188 172.339844 184.09375 172.339844 169.691406 C 172.339844 155.292969 148.339844 155.292969 148.339844 169.691406 "/>
<path style="fill-rule:nonzero;fill:rgb(0%,0%,0%);fill-opacity:1;stroke-width:1;stroke-linecap:butt;stroke-linejoin:round;stroke:rgb(0%,0%,0%);stroke-opacity:1;stroke-miterlimit:10;" d="M 130.339844 348.457031 C 130.339844 334.054688 106.339844 334.054688 106.339844 348.457031 C 106.339844 362.855469 130.339844 365.257812 130.339844 377.257812 C 130.339844 365.257812 154.339844 362.855469 154.339844 348.457031 C 154.339844 334.054688 130.339844 334.054688 130.339844 348.457031 "/>
</g>
</svg>
