<?xml version="1.0" encoding="UTF-8"?>
<svg xmlns="http://www.w3.org/2000/svg" xmlns:xlink="http://www.w3.org/1999/xlink" width="517pt" height="517pt" viewBox="0 0 517 517" version="1.1">
<g id="surface5596">
<rect x="0" y="0" width="517" height="517" style="fill:rgb(90%,90%,90%);fill-opacity:1;stroke:none;"/>
<path style="fill-rule:nonzero;fill:rgb(90%,65%,0%);fill-opacity:1;stroke-width:1;stroke-linecap:butt;stroke-linejoin:miter;stroke:rgb(0%,0%,0%);stroke-opacity:1;stroke-miterlimit:10;" d="M 339.644531 370.484375 C 339.644531 387.054688 326.210938 400.484375 309.644531 400.484375 C 293.074219 400.484375 279.644531 387.054688 279.644531 370.484375 C 279.644531 353.917969 293.074219 340.484375 309.644531 340.484375 C 326.210938 340.484375 339.644531 353.917969 339.644531 370.484375 "/>
<path style="fill-rule:nonzero;fill:rgb(90%,65%,0%);fill-opacity:1;stroke-width:1;stroke-linecap:butt;stroke-linejoin:miter;stroke:rgb(0%,0%,0%);stroke-opacity:1;stroke-miterlimit:10;" d="M 401.546875 343.070312 C 401.546875 359.636719 388.117188 373.070312 371.546875 373.070312 C 354.980469 373.070312 341.546875 359.636719 341.546875 343.070312 C 341.546875 326.5 354.980469 313.070312 371.546875 313.070312 C 388.117188 313.070312 401.546875 326.5 401.546875 343.070312 "/>
<path style="fill-rule:nonzero;fill:rgb(90%,65%,0%);fill-opacity:1;stroke-width:1;stroke-linecap:butt;stroke-linejoin:miter;stroke:rgb(0%,0%,0%);stroke-opacity:1;stroke-miterlimit:10;" d="M 96.664062 112.875 C 96.664062 129.441406 83.234375 142.875 66.664062 142.875 C 50.09375 142.875 36.664062 129.441406 36.664062 112.875 C 36.664062 96.304688 50.09375 82.875 66.664062 82.875 C 83.234375 82.875 96.664062 96.304688 96.664062 112.875 "/>
<path style="fill-rule:nonzero;fill:rgb(50%,0%,50%);fill-opacity:1;stroke-width:1;stroke-linecap:butt;stroke-linejoin:miter;stroke:rgb(0%,0%,0%);stroke-opacity:1;stroke-miterlimit:10;" d="M 72.589844 196.121094 C 72.589844 212.691406 59.160156 226.121094 42.589844 226.121094 C 26.023438 226.121094 12.589844 212.691406 12.589844 196.121094 C 12.589844 179.554688 26.023438 166.121094 42.589844 166.121094 C 59.160156 166.121094 72.589844 179.554688 72.589844 196.121094 "/>
<path style="fill-rule:nonzero;fill:rgb(50%,0%,50%);fill-opacity:1;stroke-width:1;stroke-linecap:butt;stroke-linejoin:miter;stroke:rgb(0%,0%,0%);stroke-opacity:1;stroke-miterlimit:10;" d="M 236.851562 154.40625 C 236.851562 170.976562 223.421875 184.40625 206.851562 184.40625 C 190.285156 184.40625 176.851562 170.976562 176.851562 154.40625 C 176.851562 137.839844 190.285156 124.40625 206.851562 124.40625 C 223.421875 124.40625 236.851562 137.839844 236.851562 154.40625 "/>
<path style="fill-rule:nonzero;fill:rgb(50%,0%,50%);fill-opacity:1;stroke-width:1;stroke-linecap:butt;stroke-linejoin:miter;stroke:rgb(0%,0%,0%);stroke-opacity:1;stroke-miterlimit:10;" d="M 349.425781 71.386719 C 349.425781 87.953125 335.992188 101.386719 319.425781 101.386719 C 302.855469 101.386719 289.425781 87.953125 289.425781 71.386719 C 289.425781 54.816406 302.855469 41.386719 319.425781 41.386719 C 335.992188 41.386719 349.425781 54.816406 349.425781 71.386719 "/>
<path style="fill-rule:nonzero;fill:rgb(50%,0%,50%);fill-opacity:1;stroke-width:1;stroke-linecap:butt;stroke-linejoin:miter;stroke:rgb(0%,0%,0%);stroke-opacity:1;stroke-miterlimit:10;" d="M 389.152344 194.023438 C 389.152344 210.59375 375.722656 224.023438 359.152344 224.023438 C 342.582031 224.023438 329.152344 210.59375 329.152344 194.023438 C 329.152344 177.453125 342.582031 164.023438 359.152344 164.023438 C 375.722656 164.023438 389.152344 177.453125 389.152344 194.023438 "/>
<path style="fill-rule:nonzero;fill:rgb(50%,0%,50%);fill-opacity:1;stroke-width:1;stroke-linecap:butt;stroke-linejoin:miter;stroke:rgb(0%,0%,0%);stroke-opacity:1;stroke-miterlimit:10;" d="M 469.257812 150.335938 C 469.257812 166.90625 455.828125 180.335938 439.257812 180.335938 C 422.691406 180.335938 409.257812 166.90625 409.257812 150.335938 C 409.257812 133.769531 422.691406 120.335938 439.257812 120.335938 C 455.828125 120.335938 469.257812 133.769531 469.257812 150.335938 "/>
</g>
</svg>
