<?xml version="1.0" encoding="UTF-8"?>
<svg xmlns="http://www.w3.org/2000/svg" xmlns:xlink="http://www.w3.org/1999/xlink" width="517pt" height="517pt" viewBox="0 0 517 517" version="1.1">
<g id="surface4811">
<rect x="0" y="0" width="517" height="517" style="fill:rgb(90%,90%,90%);fill-opacity:1;stroke:none;"/>
<path style="fill:none;stroke-width:5;stroke-linecap:butt;stroke-linejoin:round;stroke:rgb(100%,0%,0%);stroke-opacity:1;stroke-miterlimit:10;" d="M 5 261 L 261 261 L 261 517 L 5 517 Z M 5 261 "/>
<path style="fill-rule:nonzero;fill:rgb(100%,0%,0%);fill-opacity:1;stroke-width:1;stroke-linecap:butt;stroke-linejoin:round;stroke:rgb(0%,0%,0%);stroke-opacity:1;stroke-miterlimit:10;" d="M 186.230469 388.945312 C 186.230469 374.546875 162.230469 374.546875 162.230469 388.945312 C 162.230469 403.34375 186.230469 405.746094 186.230469 417.746094 C 186.230469 405.746094 210.230469 403.34375 210.230469 388.945312 C 210.230469 374.546875 186.230469 374.546875 186.230469 388.945312 "/>
<path style="fill-rule:nonzero;fill:rgb(35%,70%,90%);fill-opacity:1;stroke-width:1;stroke-linecap:butt;stroke-linejoin:round;stroke:rgb(0%,0%,0%);stroke-opacity:1;stroke-miterlimit:10;" d="M 357.542969 428.222656 C 357.542969 413.824219 333.542969 413.824219 333.542969 428.222656 C 333.542969 442.625 357.542969 445.023438 357.542969 457.023438 C 357.542969 445.023438 381.542969 442.625 381.542969 428.222656 C 381.542969 413.824219 357.542969 413.824219 357.542969 428.222656 "/>
<path style="fill-rule:nonzero;fill:rgb(35%,70%,90%);fill-opacity:1;stroke-width:1;stroke-linecap:butt;stroke-linejoin:round;stroke:rgb(0%,0%,0%);stroke-opacity:1;stroke-miterlimit:10;" d="M 37.109375 161.277344 C 37.109375 146.875 13.109375 146.875 13.109375 161.277344 C 13.109375 175.675781 37.109375 178.074219 37.109375 190.074219 C 37.109375 178.074219 61.109375 175.675781 61.109375 161.277344 C 61.109375 146.875 37.109375 146.875 37.109375 161.277344 "/>
<path style="fill-rule:nonzero;fill:rgb(35%,70%,90%);fill-opacity:1;stroke-width:1;stroke-linecap:butt;stroke-linejoin:round;stroke:rgb(0%,0%,0%);stroke-opacity:1;stroke-miterlimit:10;" d="M 143.4375 168.226562 C 143.4375 153.828125 119.4375 153.828125 119.4375 168.226562 C 119.4375 182.628906 143.4375 185.027344 143.4375 197.027344 C 143.4375 185.027344 167.4375 182.628906 167.4375 168.226562 C 167.4375 153.828125 143.4375 153.828125 143.4375 168.226562 "/>
<path style="fill-rule:nonzero;fill:rgb(35%,70%,90%);fill-opacity:1;stroke-width:1;stroke-linecap:butt;stroke-linejoin:round;stroke:rgb(0%,0%,0%);stroke-opacity:1;stroke-miterlimit:10;" d="M 146.09375 39.730469 C 146.09375 25.332031 122.09375 25.332031 122.09375 39.730469 C 122.09375 54.128906 146.09375 56.53125 146.09375 68.53125 C 146.09375 56.53125 170.09375 54.128906 170.09375 39.730469 C 170.09375 25.332031 146.09375 25.332031 146.09375 39.730469 "/>
<path style="fill-rule:nonzero;fill:rgb(35%,70%,90%);fill-opacity:1;stroke-width:1;stroke-linecap:butt;stroke-linejoin:round;stroke:rgb(0%,0%,0%);stroke-opacity:1;stroke-miterlimit:10;" d="M 218.121094 52.589844 C 218.121094 38.191406 194.121094 38.191406 194.121094 52.589844 C 194.121094 66.988281 218.121094 69.390625 218.121094 81.390625 C 218.121094 69.390625 242.121094 66.988281 242.121094 52.589844 C 242.121094 38.191406 218.121094 38.191406 218.121094 52.589844 "/>
</g>
</svg>
