<?xml version="1.0" encoding="UTF-8"?>
<svg xmlns="http://www.w3.org/2000/svg" xmlns:xlink="http://www.w3.org/1999/xlink" width="517pt" height="517pt" viewBox="0 0 517 517" version="1.1">
<g id="surface4896">
<rect x="0" y="0" width="517" height="517" style="fill:rgb(90%,90%,90%);fill-opacity:1;stroke:none;"/>
<path style="fill:none;stroke-width:5;stroke-linecap:butt;stroke-linejoin:round;stroke:rgb(100%,0%,0%);stroke-opacity:1;stroke-miterlimit:10;" d="M 5 261 L 261 261 L 261 517 L 5 517 Z M 5 261 "/>
<path style="fill-rule:nonzero;fill:rgb(90%,65%,0%);fill-opacity:1;stroke-width:1;stroke-linecap:butt;stroke-linejoin:round;stroke:rgb(0%,0%,0%);stroke-opacity:1;stroke-miterlimit:10;" d="M 78.613281 304.703125 C 78.613281 290.304688 54.613281 290.304688 54.613281 304.703125 C 54.613281 319.101562 78.613281 321.503906 78.613281 333.503906 C 78.613281 321.503906 102.613281 319.101562 102.613281 304.703125 C 102.613281 290.304688 78.613281 290.304688 78.613281 304.703125 "/>
<path style="fill-rule:nonzero;fill:rgb(100%,7%,57%);fill-opacity:1;stroke-width:1;stroke-linecap:butt;stroke-linejoin:round;stroke:rgb(0%,0%,0%);stroke-opacity:1;stroke-miterlimit:10;" d="M 135.050781 125.714844 C 135.050781 111.316406 111.050781 111.316406 111.050781 125.714844 C 111.050781 140.117188 135.050781 142.515625 135.050781 154.515625 C 135.050781 142.515625 159.050781 140.117188 159.050781 125.714844 C 159.050781 111.316406 135.050781 111.316406 135.050781 125.714844 "/>
<path style="fill-rule:nonzero;fill:rgb(100%,7%,57%);fill-opacity:1;stroke-width:1;stroke-linecap:butt;stroke-linejoin:round;stroke:rgb(0%,0%,0%);stroke-opacity:1;stroke-miterlimit:10;" d="M 79 67.484375 C 79 53.085938 55 53.085938 55 67.484375 C 55 81.882812 79 84.285156 79 96.285156 C 79 84.285156 103 81.882812 103 67.484375 C 103 53.085938 79 53.085938 79 67.484375 "/>
<path style="fill-rule:nonzero;fill:rgb(100%,7%,57%);fill-opacity:1;stroke-width:1;stroke-linecap:butt;stroke-linejoin:round;stroke:rgb(0%,0%,0%);stroke-opacity:1;stroke-miterlimit:10;" d="M 292.992188 387.628906 C 292.992188 373.230469 268.992188 373.230469 268.992188 387.628906 C 268.992188 402.03125 292.992188 404.429688 292.992188 416.429688 C 292.992188 404.429688 316.992188 402.03125 316.992188 387.628906 C 316.992188 373.230469 292.992188 373.230469 292.992188 387.628906 "/>
<path style="fill-rule:nonzero;fill:rgb(100%,7%,57%);fill-opacity:1;stroke-width:1;stroke-linecap:butt;stroke-linejoin:round;stroke:rgb(0%,0%,0%);stroke-opacity:1;stroke-miterlimit:10;" d="M 475 284.050781 C 475 269.648438 451 269.648438 451 284.050781 C 451 298.449219 475 300.851562 475 312.851562 C 475 300.851562 499 298.449219 499 284.050781 C 499 269.648438 475 269.648438 475 284.050781 "/>
<path style="fill-rule:nonzero;fill:rgb(100%,7%,57%);fill-opacity:1;stroke-width:1;stroke-linecap:butt;stroke-linejoin:round;stroke:rgb(0%,0%,0%);stroke-opacity:1;stroke-miterlimit:10;" d="M 399.5625 130.507812 C 399.5625 116.109375 375.5625 116.109375 375.5625 130.507812 C 375.5625 144.910156 399.5625 147.308594 399.5625 159.308594 C 399.5625 147.308594 423.5625 144.910156 423.5625 130.507812 C 423.5625 116.109375 399.5625 116.109375 399.5625 130.507812 "/>
</g>
</svg>
