<?xml version="1.0" encoding="UTF-8"?>
<svg xmlns="http://www.w3.org/2000/svg" xmlns:xlink="http://www.w3.org/1999/xlink" width="517pt" height="517pt" viewBox="0 0 517 517" version="1.1">
<g id="surface4951">
<rect x="0" y="0" width="517" height="517" style="fill:rgb(90%,90%,90%);fill-opacity:1;stroke:none;"/>
<path style="fill:none;stroke-width:5;stroke-linecap:butt;stroke-linejoin:round;stroke:rgb(100%,0%,0%);stroke-opacity:1;stroke-miterlimit:10;" d="M 5 261 L 261 261 L 261 517 L 5 517 Z M 5 261 "/>
<path style="fill-rule:nonzero;fill:rgb(25%,88%,82%);fill-opacity:1;stroke-width:1;stroke-linecap:butt;stroke-linejoin:round;stroke:rgb(0%,0%,0%);stroke-opacity:1;stroke-miterlimit:10;" d="M 131.925781 355.886719 C 131.925781 341.488281 107.925781 341.488281 107.925781 355.886719 C 107.925781 370.289062 131.925781 372.6875 131.925781 384.6875 C 131.925781 372.6875 155.925781 370.289062 155.925781 355.886719 C 155.925781 341.488281 131.925781 341.488281 131.925781 355.886719 "/>
<path style="fill-rule:nonzero;fill:rgb(100%,7%,57%);fill-opacity:1;stroke-width:1;stroke-linecap:butt;stroke-linejoin:round;stroke:rgb(0%,0%,0%);stroke-opacity:1;stroke-miterlimit:10;" d="M 463.226562 438.128906 C 463.226562 423.726562 439.226562 423.726562 439.226562 438.128906 C 439.226562 452.527344 463.226562 454.929688 463.226562 466.929688 C 463.226562 454.929688 487.226562 452.527344 487.226562 438.128906 C 487.226562 423.726562 463.226562 423.726562 463.226562 438.128906 "/>
<path style="fill-rule:nonzero;fill:rgb(90%,65%,0%);fill-opacity:1;stroke-width:1;stroke-linecap:butt;stroke-linejoin:round;stroke:rgb(0%,0%,0%);stroke-opacity:1;stroke-miterlimit:10;" d="M 43.742188 167.835938 C 43.742188 153.4375 19.742188 153.4375 19.742188 167.835938 C 19.742188 182.238281 43.742188 184.636719 43.742188 196.636719 C 43.742188 184.636719 67.742188 182.238281 67.742188 167.835938 C 67.742188 153.4375 43.742188 153.4375 43.742188 167.835938 "/>
<path style="fill-rule:nonzero;fill:rgb(90%,65%,0%);fill-opacity:1;stroke-width:1;stroke-linecap:butt;stroke-linejoin:round;stroke:rgb(0%,0%,0%);stroke-opacity:1;stroke-miterlimit:10;" d="M 294.863281 189.53125 C 294.863281 175.132812 270.863281 175.132812 270.863281 189.53125 C 270.863281 203.929688 294.863281 206.332031 294.863281 218.332031 C 294.863281 206.332031 318.863281 203.929688 318.863281 189.53125 C 318.863281 175.132812 294.863281 175.132812 294.863281 189.53125 "/>
<path style="fill-rule:nonzero;fill:rgb(90%,65%,0%);fill-opacity:1;stroke-width:1;stroke-linecap:butt;stroke-linejoin:round;stroke:rgb(0%,0%,0%);stroke-opacity:1;stroke-miterlimit:10;" d="M 429.125 83.691406 C 429.125 69.292969 405.125 69.292969 405.125 83.691406 C 405.125 98.09375 429.125 100.492188 429.125 112.492188 C 429.125 100.492188 453.125 98.09375 453.125 83.691406 C 453.125 69.292969 429.125 69.292969 429.125 83.691406 "/>
<path style="fill-rule:nonzero;fill:rgb(90%,65%,0%);fill-opacity:1;stroke-width:1;stroke-linecap:butt;stroke-linejoin:round;stroke:rgb(0%,0%,0%);stroke-opacity:1;stroke-miterlimit:10;" d="M 462.769531 158.082031 C 462.769531 143.683594 438.769531 143.683594 438.769531 158.082031 C 438.769531 172.480469 462.769531 174.882812 462.769531 186.882812 C 462.769531 174.882812 486.769531 172.480469 486.769531 158.082031 C 486.769531 143.683594 462.769531 143.683594 462.769531 158.082031 "/>
</g>
</svg>
