<?xml version="1.0" encoding="UTF-8"?>
<svg xmlns="http://www.w3.org/2000/svg" xmlns:xlink="http://www.w3.org/1999/xlink" width="517pt" height="517pt" viewBox="0 0 517 517" version="1.1">
<g id="surface4996">
<rect x="0" y="0" width="517" height="517" style="fill:rgb(90%,90%,90%);fill-opacity:1;stroke:none;"/>
<path style="fill:none;stroke-width:5;stroke-linecap:butt;stroke-linejoin:round;stroke:rgb(100%,0%,0%);stroke-opacity:1;stroke-miterlimit:10;" d="M 261 261 L 517 261 L 517 517 L 261 517 Z M 261 261 "/>
<path style="fill-rule:nonzero;fill:rgb(67%,100%,18%);fill-opacity:1;stroke-width:1;stroke-linecap:butt;stroke-linejoin:round;stroke:rgb(0%,0%,0%);stroke-opacity:1;stroke-miterlimit:10;" d="M 434.5 359.132812 C 434.5 344.730469 410.5 344.730469 410.5 359.132812 C 410.5 373.53125 434.5 375.929688 434.5 387.929688 C 434.5 375.929688 458.5 373.53125 458.5 359.132812 C 458.5 344.730469 434.5 344.730469 434.5 359.132812 "/>
<path style="fill-rule:nonzero;fill:rgb(0%,0%,0%);fill-opacity:1;stroke-width:1;stroke-linecap:butt;stroke-linejoin:round;stroke:rgb(0%,0%,0%);stroke-opacity:1;stroke-miterlimit:10;" d="M 345.246094 131.78125 C 345.246094 117.378906 321.246094 117.378906 321.246094 131.78125 C 321.246094 146.179688 345.246094 148.582031 345.246094 160.582031 C 345.246094 148.582031 369.246094 146.179688 369.246094 131.78125 C 369.246094 117.378906 345.246094 117.378906 345.246094 131.78125 "/>
<path style="fill-rule:nonzero;fill:rgb(0%,0%,0%);fill-opacity:1;stroke-width:1;stroke-linecap:butt;stroke-linejoin:round;stroke:rgb(0%,0%,0%);stroke-opacity:1;stroke-miterlimit:10;" d="M 162.164062 425.066406 C 162.164062 410.667969 138.164062 410.667969 138.164062 425.066406 C 138.164062 439.464844 162.164062 441.867188 162.164062 453.867188 C 162.164062 441.867188 186.164062 439.464844 186.164062 425.066406 C 186.164062 410.667969 162.164062 410.667969 162.164062 425.066406 "/>
<path style="fill-rule:nonzero;fill:rgb(0%,0%,0%);fill-opacity:1;stroke-width:1;stroke-linecap:butt;stroke-linejoin:round;stroke:rgb(0%,0%,0%);stroke-opacity:1;stroke-miterlimit:10;" d="M 54.804688 413.859375 C 54.804688 399.457031 30.804688 399.457031 30.804688 413.859375 C 30.804688 428.257812 54.804688 430.660156 54.804688 442.660156 C 54.804688 430.660156 78.804688 428.257812 78.804688 413.859375 C 78.804688 399.457031 54.804688 399.457031 54.804688 413.859375 "/>
<path style="fill-rule:nonzero;fill:rgb(0%,0%,0%);fill-opacity:1;stroke-width:1;stroke-linecap:butt;stroke-linejoin:round;stroke:rgb(0%,0%,0%);stroke-opacity:1;stroke-miterlimit:10;" d="M 77.839844 195.203125 C 77.839844 180.800781 53.839844 180.800781 53.839844 195.203125 C 53.839844 209.601562 77.839844 212.003906 77.839844 224.003906 C 77.839844 212.003906 101.839844 209.601562 101.839844 195.203125 C 101.839844 180.800781 77.839844 180.800781 77.839844 195.203125 "/>
<path style="fill-rule:nonzero;fill:rgb(67%,100%,18%);fill-opacity:1;stroke-width:1;stroke-linecap:butt;stroke-linejoin:round;stroke:rgb(0%,0%,0%);stroke-opacity:1;stroke-miterlimit:10;" d="M 36.09375 25.707031 C 36.09375 11.308594 12.09375 11.308594 12.09375 25.707031 C 12.09375 40.105469 36.09375 42.507812 36.09375 54.507812 C 36.09375 42.507812 60.09375 40.105469 60.09375 25.707031 C 60.09375 11.308594 36.09375 11.308594 36.09375 25.707031 "/>
</g>
</svg>
