<?xml version="1.0" encoding="UTF-8"?>
<svg xmlns="http://www.w3.org/2000/svg" xmlns:xlink="http://www.w3.org/1999/xlink" width="517pt" height="517pt" viewBox="0 0 517 517" version="1.1">
<g id="surface4781">
<rect x="0" y="0" width="517" height="517" style="fill:rgb(90%,90%,90%);fill-opacity:1;stroke:none;"/>
<path style="fill:none;stroke-width:5;stroke-linecap:butt;stroke-linejoin:round;stroke:rgb(100%,0%,0%);stroke-opacity:1;stroke-miterlimit:10;" d="M 5 261 L 261 261 L 261 517 L 5 517 Z M 5 261 "/>
<path style="fill-rule:nonzero;fill:rgb(35%,70%,90%);fill-opacity:1;stroke-width:1;stroke-linecap:butt;stroke-linejoin:round;stroke:rgb(0%,0%,0%);stroke-opacity:1;stroke-miterlimit:10;" d="M 88.832031 410.648438 C 88.832031 396.246094 64.832031 396.246094 64.832031 410.648438 C 64.832031 425.046875 88.832031 427.449219 88.832031 439.449219 C 88.832031 427.449219 112.832031 425.046875 112.832031 410.648438 C 112.832031 396.246094 88.832031 396.246094 88.832031 410.648438 "/>
<path style="fill-rule:nonzero;fill:rgb(100%,0%,0%);fill-opacity:1;stroke-width:1;stroke-linecap:butt;stroke-linejoin:round;stroke:rgb(0%,0%,0%);stroke-opacity:1;stroke-miterlimit:10;" d="M 191.535156 133.363281 C 191.535156 118.960938 167.535156 118.960938 167.535156 133.363281 C 167.535156 147.761719 191.535156 150.160156 191.535156 162.160156 C 191.535156 150.160156 215.535156 147.761719 215.535156 133.363281 C 215.535156 118.960938 191.535156 118.960938 191.535156 133.363281 "/>
<path style="fill-rule:nonzero;fill:rgb(100%,0%,0%);fill-opacity:1;stroke-width:1;stroke-linecap:butt;stroke-linejoin:round;stroke:rgb(0%,0%,0%);stroke-opacity:1;stroke-miterlimit:10;" d="M 87.332031 156.191406 C 87.332031 141.792969 63.332031 141.792969 63.332031 156.191406 C 63.332031 170.59375 87.332031 172.992188 87.332031 184.992188 C 87.332031 172.992188 111.332031 170.59375 111.332031 156.191406 C 111.332031 141.792969 87.332031 141.792969 87.332031 156.191406 "/>
<path style="fill-rule:nonzero;fill:rgb(100%,0%,0%);fill-opacity:1;stroke-width:1;stroke-linecap:butt;stroke-linejoin:round;stroke:rgb(0%,0%,0%);stroke-opacity:1;stroke-miterlimit:10;" d="M 459.414062 461.65625 C 459.414062 447.253906 435.414062 447.253906 435.414062 461.65625 C 435.414062 476.054688 459.414062 478.457031 459.414062 490.457031 C 459.414062 478.457031 483.414062 476.054688 483.414062 461.65625 C 483.414062 447.253906 459.414062 447.253906 459.414062 461.65625 "/>
<path style="fill-rule:nonzero;fill:rgb(100%,0%,0%);fill-opacity:1;stroke-width:1;stroke-linecap:butt;stroke-linejoin:round;stroke:rgb(0%,0%,0%);stroke-opacity:1;stroke-miterlimit:10;" d="M 455.015625 136.109375 C 455.015625 121.710938 431.015625 121.710938 431.015625 136.109375 C 431.015625 150.507812 455.015625 152.910156 455.015625 164.910156 C 455.015625 152.910156 479.015625 150.507812 479.015625 136.109375 C 479.015625 121.710938 455.015625 121.710938 455.015625 136.109375 "/>
<path style="fill-rule:nonzero;fill:rgb(53%,27%,7%);fill-opacity:1;stroke-width:1;stroke-linecap:butt;stroke-linejoin:round;stroke:rgb(0%,0%,0%);stroke-opacity:1;stroke-miterlimit:10;" d="M 329.175781 111.109375 C 329.175781 96.710938 305.175781 96.710938 305.175781 111.109375 C 305.175781 125.511719 329.175781 127.910156 329.175781 139.910156 C 329.175781 127.910156 353.175781 125.511719 353.175781 111.109375 C 353.175781 96.710938 329.175781 96.710938 329.175781 111.109375 "/>
</g>
</svg>
