<?xml version="1.0" encoding="UTF-8"?>
<svg xmlns="http://www.w3.org/2000/svg" xmlns:xlink="http://www.w3.org/1999/xlink" width="517pt" height="517pt" viewBox="0 0 517 517" version="1.1">
<g id="surface4956">
<rect x="0" y="0" width="517" height="517" style="fill:rgb(90%,90%,90%);fill-opacity:1;stroke:none;"/>
<path style="fill:none;stroke-width:5;stroke-linecap:butt;stroke-linejoin:round;stroke:rgb(100%,0%,0%);stroke-opacity:1;stroke-miterlimit:10;" d="M 5 261 L 261 261 L 261 517 L 5 517 Z M 5 261 "/>
<path style="fill-rule:nonzero;fill:rgb(25%,88%,82%);fill-opacity:1;stroke-width:1;stroke-linecap:butt;stroke-linejoin:round;stroke:rgb(0%,0%,0%);stroke-opacity:1;stroke-miterlimit:10;" d="M 76.585938 370.351562 C 76.585938 355.953125 52.585938 355.953125 52.585938 370.351562 C 52.585938 384.75 76.585938 387.152344 76.585938 399.152344 C 76.585938 387.152344 100.585938 384.75 100.585938 370.351562 C 100.585938 355.953125 76.585938 355.953125 76.585938 370.351562 "/>
<path style="fill-rule:nonzero;fill:rgb(100%,7%,57%);fill-opacity:1;stroke-width:1;stroke-linecap:butt;stroke-linejoin:round;stroke:rgb(0%,0%,0%);stroke-opacity:1;stroke-miterlimit:10;" d="M 460.316406 100.9375 C 460.316406 86.539062 436.316406 86.539062 436.316406 100.9375 C 436.316406 115.339844 460.316406 117.738281 460.316406 129.738281 C 460.316406 117.738281 484.316406 115.339844 484.316406 100.9375 C 484.316406 86.539062 460.316406 86.539062 460.316406 100.9375 "/>
<path style="fill-rule:nonzero;fill:rgb(100%,7%,57%);fill-opacity:1;stroke-width:1;stroke-linecap:butt;stroke-linejoin:round;stroke:rgb(0%,0%,0%);stroke-opacity:1;stroke-miterlimit:10;" d="M 87.070312 170.140625 C 87.070312 155.738281 63.070312 155.738281 63.070312 170.140625 C 63.070312 184.539062 87.070312 186.941406 87.070312 198.941406 C 87.070312 186.941406 111.070312 184.539062 111.070312 170.140625 C 111.070312 155.738281 87.070312 155.738281 87.070312 170.140625 "/>
<path style="fill-rule:nonzero;fill:rgb(100%,7%,57%);fill-opacity:1;stroke-width:1;stroke-linecap:butt;stroke-linejoin:round;stroke:rgb(0%,0%,0%);stroke-opacity:1;stroke-miterlimit:10;" d="M 103.121094 22.300781 C 103.121094 7.898438 79.121094 7.898438 79.121094 22.300781 C 79.121094 36.699219 103.121094 39.101562 103.121094 51.101562 C 103.121094 39.101562 127.121094 36.699219 127.121094 22.300781 C 127.121094 7.898438 103.121094 7.898438 103.121094 22.300781 "/>
<path style="fill-rule:nonzero;fill:rgb(100%,7%,57%);fill-opacity:1;stroke-width:1;stroke-linecap:butt;stroke-linejoin:round;stroke:rgb(0%,0%,0%);stroke-opacity:1;stroke-miterlimit:10;" d="M 212.179688 141.652344 C 212.179688 127.25 188.179688 127.25 188.179688 141.652344 C 188.179688 156.050781 212.179688 158.449219 212.179688 170.449219 C 212.179688 158.449219 236.179688 156.050781 236.179688 141.652344 C 236.179688 127.25 212.179688 127.25 212.179688 141.652344 "/>
<path style="fill-rule:nonzero;fill:rgb(90%,65%,0%);fill-opacity:1;stroke-width:1;stroke-linecap:butt;stroke-linejoin:round;stroke:rgb(0%,0%,0%);stroke-opacity:1;stroke-miterlimit:10;" d="M 365.59375 276.695312 C 365.59375 262.296875 341.59375 262.296875 341.59375 276.695312 C 341.59375 291.09375 365.59375 293.496094 365.59375 305.496094 C 365.59375 293.496094 389.59375 291.09375 389.59375 276.695312 C 389.59375 262.296875 365.59375 262.296875 365.59375 276.695312 "/>
</g>
</svg>
