<?xml version="1.0" encoding="UTF-8"?>
<svg xmlns="http://www.w3.org/2000/svg" xmlns:xlink="http://www.w3.org/1999/xlink" width="517pt" height="517pt" viewBox="0 0 517 517" version="1.1">
<g id="surface5586">
<rect x="0" y="0" width="517" height="517" style="fill:rgb(90%,90%,90%);fill-opacity:1;stroke:none;"/>
<path style="fill-rule:nonzero;fill:rgb(90%,65%,0%);fill-opacity:1;stroke-width:1;stroke-linecap:butt;stroke-linejoin:miter;stroke:rgb(0%,0%,0%);stroke-opacity:1;stroke-miterlimit:10;" d="M 480.417969 153.699219 C 480.417969 170.265625 466.988281 183.699219 450.417969 183.699219 C 433.847656 183.699219 420.417969 170.265625 420.417969 153.699219 C 420.417969 137.128906 433.847656 123.699219 450.417969 123.699219 C 466.988281 123.699219 480.417969 137.128906 480.417969 153.699219 "/>
<path style="fill-rule:nonzero;fill:rgb(90%,65%,0%);fill-opacity:1;stroke-width:1;stroke-linecap:butt;stroke-linejoin:miter;stroke:rgb(0%,0%,0%);stroke-opacity:1;stroke-miterlimit:10;" d="M 389.433594 87.8125 C 389.433594 104.378906 376.003906 117.8125 359.433594 117.8125 C 342.867188 117.8125 329.433594 104.378906 329.433594 87.8125 C 329.433594 71.242188 342.867188 57.8125 359.433594 57.8125 C 376.003906 57.8125 389.433594 71.242188 389.433594 87.8125 "/>
<path style="fill-rule:nonzero;fill:rgb(50%,0%,50%);fill-opacity:1;stroke-width:1;stroke-linecap:butt;stroke-linejoin:miter;stroke:rgb(0%,0%,0%);stroke-opacity:1;stroke-miterlimit:10;" d="M 166.246094 172.398438 C 166.246094 188.96875 152.816406 202.398438 136.246094 202.398438 C 119.679688 202.398438 106.246094 188.96875 106.246094 172.398438 C 106.246094 155.832031 119.679688 142.398438 136.246094 142.398438 C 152.816406 142.398438 166.246094 155.832031 166.246094 172.398438 "/>
<path style="fill-rule:nonzero;fill:rgb(50%,0%,50%);fill-opacity:1;stroke-width:1;stroke-linecap:butt;stroke-linejoin:miter;stroke:rgb(0%,0%,0%);stroke-opacity:1;stroke-miterlimit:10;" d="M 121.140625 64.523438 C 121.140625 81.09375 107.707031 94.523438 91.140625 94.523438 C 74.570312 94.523438 61.140625 81.09375 61.140625 64.523438 C 61.140625 47.957031 74.570312 34.523438 91.140625 34.523438 C 107.707031 34.523438 121.140625 47.957031 121.140625 64.523438 "/>
<path style="fill-rule:nonzero;fill:rgb(50%,0%,50%);fill-opacity:1;stroke-width:1;stroke-linecap:butt;stroke-linejoin:miter;stroke:rgb(0%,0%,0%);stroke-opacity:1;stroke-miterlimit:10;" d="M 76.511719 184.652344 C 76.511719 201.21875 63.082031 214.652344 46.511719 214.652344 C 29.945312 214.652344 16.511719 201.21875 16.511719 184.652344 C 16.511719 168.082031 29.945312 154.652344 46.511719 154.652344 C 63.082031 154.652344 76.511719 168.082031 76.511719 184.652344 "/>
<path style="fill-rule:nonzero;fill:rgb(50%,0%,50%);fill-opacity:1;stroke-width:1;stroke-linecap:butt;stroke-linejoin:miter;stroke:rgb(0%,0%,0%);stroke-opacity:1;stroke-miterlimit:10;" d="M 72.035156 461.816406 C 72.035156 478.382812 58.605469 491.816406 42.035156 491.816406 C 25.46875 491.816406 12.035156 478.382812 12.035156 461.816406 C 12.035156 445.246094 25.46875 431.816406 42.035156 431.816406 C 58.605469 431.816406 72.035156 445.246094 72.035156 461.816406 "/>
<path style="fill-rule:nonzero;fill:rgb(50%,0%,50%);fill-opacity:1;stroke-width:1;stroke-linecap:butt;stroke-linejoin:miter;stroke:rgb(0%,0%,0%);stroke-opacity:1;stroke-miterlimit:10;" d="M 190.125 387.453125 C 190.125 404.023438 176.695312 417.453125 160.125 417.453125 C 143.558594 417.453125 130.125 404.023438 130.125 387.453125 C 130.125 370.886719 143.558594 357.453125 160.125 357.453125 C 176.695312 357.453125 190.125 370.886719 190.125 387.453125 "/>
<path style="fill-rule:nonzero;fill:rgb(50%,0%,50%);fill-opacity:1;stroke-width:1;stroke-linecap:butt;stroke-linejoin:miter;stroke:rgb(0%,0%,0%);stroke-opacity:1;stroke-miterlimit:10;" d="M 85.269531 376.414062 C 85.269531 392.980469 71.839844 406.414062 55.269531 406.414062 C 38.703125 406.414062 25.269531 392.980469 25.269531 376.414062 C 25.269531 359.84375 38.703125 346.414062 55.269531 346.414062 C 71.839844 346.414062 85.269531 359.84375 85.269531 376.414062 "/>
</g>
</svg>
