<?xml version="1.0" encoding="UTF-8"?>
<svg xmlns="http://www.w3.org/2000/svg" xmlns:xlink="http://www.w3.org/1999/xlink" width="517pt" height="517pt" viewBox="0 0 517 517" version="1.1">
<g id="surface4746">
<rect x="0" y="0" width="517" height="517" style="fill:rgb(90%,90%,90%);fill-opacity:1;stroke:none;"/>
<path style="fill:none;stroke-width:5;stroke-linecap:butt;stroke-linejoin:round;stroke:rgb(100%,0%,0%);stroke-opacity:1;stroke-miterlimit:10;" d="M 5 261 L 261 261 L 261 517 L 5 517 Z M 5 261 "/>
<path style="fill-rule:nonzero;fill:rgb(53%,27%,7%);fill-opacity:1;stroke-width:1;stroke-linecap:butt;stroke-linejoin:round;stroke:rgb(0%,0%,0%);stroke-opacity:1;stroke-miterlimit:10;" d="M 72.382812 321.40625 C 72.382812 307.003906 48.382812 307.003906 48.382812 321.40625 C 48.382812 335.804688 72.382812 338.207031 72.382812 350.207031 C 72.382812 338.207031 96.382812 335.804688 96.382812 321.40625 C 96.382812 307.003906 72.382812 307.003906 72.382812 321.40625 "/>
<path style="fill-rule:nonzero;fill:rgb(100%,0%,0%);fill-opacity:1;stroke-width:1;stroke-linecap:butt;stroke-linejoin:round;stroke:rgb(0%,0%,0%);stroke-opacity:1;stroke-miterlimit:10;" d="M 421.0625 332.082031 C 421.0625 317.679688 397.0625 317.679688 397.0625 332.082031 C 397.0625 346.480469 421.0625 348.882812 421.0625 360.882812 C 421.0625 348.882812 445.0625 346.480469 445.0625 332.082031 C 445.0625 317.679688 421.0625 317.679688 421.0625 332.082031 "/>
<path style="fill-rule:nonzero;fill:rgb(100%,0%,0%);fill-opacity:1;stroke-width:1;stroke-linecap:butt;stroke-linejoin:round;stroke:rgb(0%,0%,0%);stroke-opacity:1;stroke-miterlimit:10;" d="M 342.785156 24.636719 C 342.785156 10.234375 318.785156 10.234375 318.785156 24.636719 C 318.785156 39.035156 342.785156 41.4375 342.785156 53.4375 C 342.785156 41.4375 366.785156 39.035156 366.785156 24.636719 C 366.785156 10.234375 342.785156 10.234375 342.785156 24.636719 "/>
<path style="fill-rule:nonzero;fill:rgb(100%,0%,0%);fill-opacity:1;stroke-width:1;stroke-linecap:butt;stroke-linejoin:round;stroke:rgb(0%,0%,0%);stroke-opacity:1;stroke-miterlimit:10;" d="M 338.3125 135.871094 C 338.3125 121.472656 314.3125 121.472656 314.3125 135.871094 C 314.3125 150.273438 338.3125 152.671875 338.3125 164.671875 C 338.3125 152.671875 362.3125 150.273438 362.3125 135.871094 C 362.3125 121.472656 338.3125 121.472656 338.3125 135.871094 "/>
<path style="fill-rule:nonzero;fill:rgb(100%,0%,0%);fill-opacity:1;stroke-width:1;stroke-linecap:butt;stroke-linejoin:round;stroke:rgb(0%,0%,0%);stroke-opacity:1;stroke-miterlimit:10;" d="M 399.8125 68.652344 C 399.8125 54.253906 375.8125 54.253906 375.8125 68.652344 C 375.8125 83.050781 399.8125 85.453125 399.8125 97.453125 C 399.8125 85.453125 423.8125 83.050781 423.8125 68.652344 C 423.8125 54.253906 399.8125 54.253906 399.8125 68.652344 "/>
<path style="fill-rule:nonzero;fill:rgb(53%,27%,7%);fill-opacity:1;stroke-width:1;stroke-linecap:butt;stroke-linejoin:round;stroke:rgb(0%,0%,0%);stroke-opacity:1;stroke-miterlimit:10;" d="M 139.5 98.144531 C 139.5 83.742188 115.5 83.742188 115.5 98.144531 C 115.5 112.542969 139.5 114.941406 139.5 126.941406 C 139.5 114.941406 163.5 112.542969 163.5 98.144531 C 163.5 83.742188 139.5 83.742188 139.5 98.144531 "/>
</g>
</svg>
