<?xml version="1.0" encoding="UTF-8"?>
<svg xmlns="http://www.w3.org/2000/svg" xmlns:xlink="http://www.w3.org/1999/xlink" width="517pt" height="517pt" viewBox="0 0 517 517" version="1.1">
<g id="surface5526">
<rect x="0" y="0" width="517" height="517" style="fill:rgb(90%,90%,90%);fill-opacity:1;stroke:none;"/>
<path style="fill-rule:nonzero;fill:rgb(50%,0%,50%);fill-opacity:1;stroke-width:1;stroke-linecap:butt;stroke-linejoin:miter;stroke:rgb(0%,0%,0%);stroke-opacity:1;stroke-miterlimit:10;" d="M 487.625 145.703125 C 487.625 162.273438 474.191406 175.703125 457.625 175.703125 C 441.054688 175.703125 427.625 162.273438 427.625 145.703125 C 427.625 129.136719 441.054688 115.703125 457.625 115.703125 C 474.191406 115.703125 487.625 129.136719 487.625 145.703125 "/>
<path style="fill-rule:nonzero;fill:rgb(50%,0%,50%);fill-opacity:1;stroke-width:1;stroke-linecap:butt;stroke-linejoin:miter;stroke:rgb(0%,0%,0%);stroke-opacity:1;stroke-miterlimit:10;" d="M 178.566406 383.042969 C 178.566406 399.613281 165.132812 413.042969 148.566406 413.042969 C 131.996094 413.042969 118.566406 399.613281 118.566406 383.042969 C 118.566406 366.476562 131.996094 353.042969 148.566406 353.042969 C 165.132812 353.042969 178.566406 366.476562 178.566406 383.042969 "/>
<path style="fill-rule:nonzero;fill:rgb(50%,0%,50%);fill-opacity:1;stroke-width:1;stroke-linecap:butt;stroke-linejoin:miter;stroke:rgb(0%,0%,0%);stroke-opacity:1;stroke-miterlimit:10;" d="M 122.503906 332.199219 C 122.503906 348.769531 109.074219 362.199219 92.503906 362.199219 C 75.9375 362.199219 62.503906 348.769531 62.503906 332.199219 C 62.503906 315.632812 75.9375 302.199219 92.503906 302.199219 C 109.074219 302.199219 122.503906 315.632812 122.503906 332.199219 "/>
<path style="fill-rule:nonzero;fill:rgb(50%,0%,50%);fill-opacity:1;stroke-width:1;stroke-linecap:butt;stroke-linejoin:miter;stroke:rgb(0%,0%,0%);stroke-opacity:1;stroke-miterlimit:10;" d="M 70.46875 57.511719 C 70.46875 74.082031 57.039062 87.511719 40.46875 87.511719 C 23.898438 87.511719 10.46875 74.082031 10.46875 57.511719 C 10.46875 40.945312 23.898438 27.511719 40.46875 27.511719 C 57.039062 27.511719 70.46875 40.945312 70.46875 57.511719 "/>
<path style="fill-rule:nonzero;fill:rgb(50%,0%,50%);fill-opacity:1;stroke-width:1;stroke-linecap:butt;stroke-linejoin:miter;stroke:rgb(0%,0%,0%);stroke-opacity:1;stroke-miterlimit:10;" d="M 179.667969 79.246094 C 179.667969 95.816406 166.234375 109.246094 149.667969 109.246094 C 133.097656 109.246094 119.667969 95.816406 119.667969 79.246094 C 119.667969 62.675781 133.097656 49.246094 149.667969 49.246094 C 166.234375 49.246094 179.667969 62.675781 179.667969 79.246094 "/>
<path style="fill-rule:nonzero;fill:rgb(50%,0%,50%);fill-opacity:1;stroke-width:1;stroke-linecap:butt;stroke-linejoin:miter;stroke:rgb(0%,0%,0%);stroke-opacity:1;stroke-miterlimit:10;" d="M 154.730469 169.570312 C 154.730469 186.140625 141.300781 199.570312 124.730469 199.570312 C 108.164062 199.570312 94.730469 186.140625 94.730469 169.570312 C 94.730469 153.003906 108.164062 139.570312 124.730469 139.570312 C 141.300781 139.570312 154.730469 153.003906 154.730469 169.570312 "/>
<path style="fill-rule:nonzero;fill:rgb(50%,0%,50%);fill-opacity:1;stroke-width:1;stroke-linecap:butt;stroke-linejoin:miter;stroke:rgb(0%,0%,0%);stroke-opacity:1;stroke-miterlimit:10;" d="M 92.4375 214.480469 C 92.4375 231.046875 79.003906 244.480469 62.4375 244.480469 C 45.867188 244.480469 32.4375 231.046875 32.4375 214.480469 C 32.4375 197.910156 45.867188 184.480469 62.4375 184.480469 C 79.003906 184.480469 92.4375 197.910156 92.4375 214.480469 "/>
<path style="fill-rule:nonzero;fill:rgb(50%,0%,50%);fill-opacity:1;stroke-width:1;stroke-linecap:butt;stroke-linejoin:miter;stroke:rgb(0%,0%,0%);stroke-opacity:1;stroke-miterlimit:10;" d="M 225.359375 216.972656 C 225.359375 233.542969 211.925781 246.972656 195.359375 246.972656 C 178.789062 246.972656 165.359375 233.542969 165.359375 216.972656 C 165.359375 200.40625 178.789062 186.972656 195.359375 186.972656 C 211.925781 186.972656 225.359375 200.40625 225.359375 216.972656 "/>
</g>
</svg>
