<?xml version="1.0" encoding="UTF-8"?>
<svg xmlns="http://www.w3.org/2000/svg" xmlns:xlink="http://www.w3.org/1999/xlink" width="517pt" height="517pt" viewBox="0 0 517 517" version="1.1">
<g id="surface4786">
<rect x="0" y="0" width="517" height="517" style="fill:rgb(90%,90%,90%);fill-opacity:1;stroke:none;"/>
<path style="fill:none;stroke-width:5;stroke-linecap:butt;stroke-linejoin:round;stroke:rgb(100%,0%,0%);stroke-opacity:1;stroke-miterlimit:10;" d="M 5 261 L 261 261 L 261 517 L 5 517 Z M 5 261 "/>
<path style="fill-rule:nonzero;fill:rgb(35%,70%,90%);fill-opacity:1;stroke-width:1;stroke-linecap:butt;stroke-linejoin:round;stroke:rgb(0%,0%,0%);stroke-opacity:1;stroke-miterlimit:10;" d="M 128.628906 362.609375 C 128.628906 348.210938 104.628906 348.210938 104.628906 362.609375 C 104.628906 377.011719 128.628906 379.410156 128.628906 391.410156 C 128.628906 379.410156 152.628906 377.011719 152.628906 362.609375 C 152.628906 348.210938 128.628906 348.210938 128.628906 362.609375 "/>
<path style="fill-rule:nonzero;fill:rgb(100%,0%,0%);fill-opacity:1;stroke-width:1;stroke-linecap:butt;stroke-linejoin:round;stroke:rgb(0%,0%,0%);stroke-opacity:1;stroke-miterlimit:10;" d="M 155.09375 199.09375 C 155.09375 184.691406 131.09375 184.691406 131.09375 199.09375 C 131.09375 213.492188 155.09375 215.890625 155.09375 227.890625 C 155.09375 215.890625 179.09375 213.492188 179.09375 199.09375 C 179.09375 184.691406 155.09375 184.691406 155.09375 199.09375 "/>
<path style="fill-rule:nonzero;fill:rgb(100%,0%,0%);fill-opacity:1;stroke-width:1;stroke-linecap:butt;stroke-linejoin:round;stroke:rgb(0%,0%,0%);stroke-opacity:1;stroke-miterlimit:10;" d="M 341.234375 366.214844 C 341.234375 351.8125 317.234375 351.8125 317.234375 366.214844 C 317.234375 380.613281 341.234375 383.011719 341.234375 395.011719 C 341.234375 383.011719 365.234375 380.613281 365.234375 366.214844 C 365.234375 351.8125 341.234375 351.8125 341.234375 366.214844 "/>
<path style="fill-rule:nonzero;fill:rgb(100%,0%,0%);fill-opacity:1;stroke-width:1;stroke-linecap:butt;stroke-linejoin:round;stroke:rgb(0%,0%,0%);stroke-opacity:1;stroke-miterlimit:10;" d="M 369.019531 310.066406 C 369.019531 295.664062 345.019531 295.664062 345.019531 310.066406 C 345.019531 324.464844 369.019531 326.863281 369.019531 338.863281 C 369.019531 326.863281 393.019531 324.464844 393.019531 310.066406 C 393.019531 295.664062 369.019531 295.664062 369.019531 310.066406 "/>
<path style="fill-rule:nonzero;fill:rgb(100%,0%,0%);fill-opacity:1;stroke-width:1;stroke-linecap:butt;stroke-linejoin:round;stroke:rgb(0%,0%,0%);stroke-opacity:1;stroke-miterlimit:10;" d="M 370.09375 431.773438 C 370.09375 417.371094 346.09375 417.371094 346.09375 431.773438 C 346.09375 446.171875 370.09375 448.574219 370.09375 460.574219 C 370.09375 448.574219 394.09375 446.171875 394.09375 431.773438 C 394.09375 417.371094 370.09375 417.371094 370.09375 431.773438 "/>
<path style="fill-rule:nonzero;fill:rgb(100%,0%,0%);fill-opacity:1;stroke-width:1;stroke-linecap:butt;stroke-linejoin:round;stroke:rgb(0%,0%,0%);stroke-opacity:1;stroke-miterlimit:10;" d="M 464.652344 359.378906 C 464.652344 344.980469 440.652344 344.980469 440.652344 359.378906 C 440.652344 373.777344 464.652344 376.179688 464.652344 388.179688 C 464.652344 376.179688 488.652344 373.777344 488.652344 359.378906 C 488.652344 344.980469 464.652344 344.980469 464.652344 359.378906 "/>
</g>
</svg>
