<?xml version="1.0" encoding="UTF-8"?>
<svg xmlns="http://www.w3.org/2000/svg" xmlns:xlink="http://www.w3.org/1999/xlink" width="517pt" height="517pt" viewBox="0 0 517 517" version="1.1">
<g id="surface5011">
<rect x="0" y="0" width="517" height="517" style="fill:rgb(90%,90%,90%);fill-opacity:1;stroke:none;"/>
<path style="fill:none;stroke-width:5;stroke-linecap:butt;stroke-linejoin:round;stroke:rgb(100%,0%,0%);stroke-opacity:1;stroke-miterlimit:10;" d="M 261 261 L 517 261 L 517 517 L 261 517 Z M 261 261 "/>
<path style="fill-rule:nonzero;fill:rgb(67%,100%,18%);fill-opacity:1;stroke-width:1;stroke-linecap:butt;stroke-linejoin:round;stroke:rgb(0%,0%,0%);stroke-opacity:1;stroke-miterlimit:10;" d="M 335.316406 285.105469 C 335.316406 270.707031 311.316406 270.707031 311.316406 285.105469 C 311.316406 299.507812 335.316406 301.90625 335.316406 313.90625 C 335.316406 301.90625 359.316406 299.507812 359.316406 285.105469 C 359.316406 270.707031 335.316406 270.707031 335.316406 285.105469 "/>
<path style="fill-rule:nonzero;fill:rgb(0%,0%,0%);fill-opacity:1;stroke-width:1;stroke-linecap:butt;stroke-linejoin:round;stroke:rgb(0%,0%,0%);stroke-opacity:1;stroke-miterlimit:10;" d="M 66.539062 30.65625 C 66.539062 16.253906 42.539062 16.253906 42.539062 30.65625 C 42.539062 45.054688 66.539062 47.457031 66.539062 59.457031 C 66.539062 47.457031 90.539062 45.054688 90.539062 30.65625 C 90.539062 16.253906 66.539062 16.253906 66.539062 30.65625 "/>
<path style="fill-rule:nonzero;fill:rgb(67%,100%,18%);fill-opacity:1;stroke-width:1;stroke-linecap:butt;stroke-linejoin:round;stroke:rgb(0%,0%,0%);stroke-opacity:1;stroke-miterlimit:10;" d="M 100.3125 186.671875 C 100.3125 172.273438 76.3125 172.273438 76.3125 186.671875 C 76.3125 201.074219 100.3125 203.472656 100.3125 215.472656 C 100.3125 203.472656 124.3125 201.074219 124.3125 186.671875 C 124.3125 172.273438 100.3125 172.273438 100.3125 186.671875 "/>
<path style="fill-rule:nonzero;fill:rgb(67%,100%,18%);fill-opacity:1;stroke-width:1;stroke-linecap:butt;stroke-linejoin:round;stroke:rgb(0%,0%,0%);stroke-opacity:1;stroke-miterlimit:10;" d="M 200.648438 365.976562 C 200.648438 351.578125 176.648438 351.578125 176.648438 365.976562 C 176.648438 380.375 200.648438 382.777344 200.648438 394.777344 C 200.648438 382.777344 224.648438 380.375 224.648438 365.976562 C 224.648438 351.578125 200.648438 351.578125 200.648438 365.976562 "/>
<path style="fill-rule:nonzero;fill:rgb(67%,100%,18%);fill-opacity:1;stroke-width:1;stroke-linecap:butt;stroke-linejoin:round;stroke:rgb(0%,0%,0%);stroke-opacity:1;stroke-miterlimit:10;" d="M 47.351562 288.261719 C 47.351562 273.863281 23.351562 273.863281 23.351562 288.261719 C 23.351562 302.660156 47.351562 305.0625 47.351562 317.0625 C 47.351562 305.0625 71.351562 302.660156 71.351562 288.261719 C 71.351562 273.863281 47.351562 273.863281 47.351562 288.261719 "/>
<path style="fill-rule:nonzero;fill:rgb(67%,100%,18%);fill-opacity:1;stroke-width:1;stroke-linecap:butt;stroke-linejoin:round;stroke:rgb(0%,0%,0%);stroke-opacity:1;stroke-miterlimit:10;" d="M 111.6875 293.414062 C 111.6875 279.011719 87.6875 279.011719 87.6875 293.414062 C 87.6875 307.8125 111.6875 310.214844 111.6875 322.214844 C 111.6875 310.214844 135.6875 307.8125 135.6875 293.414062 C 135.6875 279.011719 111.6875 279.011719 111.6875 293.414062 "/>
</g>
</svg>
