<?xml version="1.0" encoding="UTF-8"?>
<svg xmlns="http://www.w3.org/2000/svg" xmlns:xlink="http://www.w3.org/1999/xlink" width="517pt" height="517pt" viewBox="0 0 517 517" version="1.1">
<g id="surface5016">
<rect x="0" y="0" width="517" height="517" style="fill:rgb(90%,90%,90%);fill-opacity:1;stroke:none;"/>
<path style="fill:none;stroke-width:5;stroke-linecap:butt;stroke-linejoin:round;stroke:rgb(100%,0%,0%);stroke-opacity:1;stroke-miterlimit:10;" d="M 261 261 L 517 261 L 517 517 L 261 517 Z M 261 261 "/>
<path style="fill-rule:nonzero;fill:rgb(67%,100%,18%);fill-opacity:1;stroke-width:1;stroke-linecap:butt;stroke-linejoin:round;stroke:rgb(0%,0%,0%);stroke-opacity:1;stroke-miterlimit:10;" d="M 348.769531 371.707031 C 348.769531 357.308594 324.769531 357.308594 324.769531 371.707031 C 324.769531 386.105469 348.769531 388.507812 348.769531 400.507812 C 348.769531 388.507812 372.769531 386.105469 372.769531 371.707031 C 372.769531 357.308594 348.769531 357.308594 348.769531 371.707031 "/>
<path style="fill-rule:nonzero;fill:rgb(0%,0%,0%);fill-opacity:1;stroke-width:1;stroke-linecap:butt;stroke-linejoin:round;stroke:rgb(0%,0%,0%);stroke-opacity:1;stroke-miterlimit:10;" d="M 118.679688 447.636719 C 118.679688 433.234375 94.679688 433.234375 94.679688 447.636719 C 94.679688 462.035156 118.679688 464.433594 118.679688 476.433594 C 118.679688 464.433594 142.679688 462.035156 142.679688 447.636719 C 142.679688 433.234375 118.679688 433.234375 118.679688 447.636719 "/>
<path style="fill-rule:nonzero;fill:rgb(67%,100%,18%);fill-opacity:1;stroke-width:1;stroke-linecap:butt;stroke-linejoin:round;stroke:rgb(0%,0%,0%);stroke-opacity:1;stroke-miterlimit:10;" d="M 450.925781 25.671875 C 450.925781 11.273438 426.925781 11.273438 426.925781 25.671875 C 426.925781 40.074219 450.925781 42.472656 450.925781 54.472656 C 450.925781 42.472656 474.925781 40.074219 474.925781 25.671875 C 474.925781 11.273438 450.925781 11.273438 450.925781 25.671875 "/>
<path style="fill-rule:nonzero;fill:rgb(67%,100%,18%);fill-opacity:1;stroke-width:1;stroke-linecap:butt;stroke-linejoin:round;stroke:rgb(0%,0%,0%);stroke-opacity:1;stroke-miterlimit:10;" d="M 203.78125 34.25 C 203.78125 19.851562 179.78125 19.851562 179.78125 34.25 C 179.78125 48.652344 203.78125 51.050781 203.78125 63.050781 C 203.78125 51.050781 227.78125 48.652344 227.78125 34.25 C 227.78125 19.851562 203.78125 19.851562 203.78125 34.25 "/>
<path style="fill-rule:nonzero;fill:rgb(67%,100%,18%);fill-opacity:1;stroke-width:1;stroke-linecap:butt;stroke-linejoin:round;stroke:rgb(0%,0%,0%);stroke-opacity:1;stroke-miterlimit:10;" d="M 181.820312 182.460938 C 181.820312 168.0625 157.820312 168.0625 157.820312 182.460938 C 157.820312 196.863281 181.820312 199.261719 181.820312 211.261719 C 181.820312 199.261719 205.820312 196.863281 205.820312 182.460938 C 205.820312 168.0625 181.820312 168.0625 181.820312 182.460938 "/>
<path style="fill-rule:nonzero;fill:rgb(67%,100%,18%);fill-opacity:1;stroke-width:1;stroke-linecap:butt;stroke-linejoin:round;stroke:rgb(0%,0%,0%);stroke-opacity:1;stroke-miterlimit:10;" d="M 97.351562 83.808594 C 97.351562 69.410156 73.351562 69.410156 73.351562 83.808594 C 73.351562 98.210938 97.351562 100.609375 97.351562 112.609375 C 97.351562 100.609375 121.351562 98.210938 121.351562 83.808594 C 121.351562 69.410156 97.351562 69.410156 97.351562 83.808594 "/>
</g>
</svg>
