<?xml version="1.0" encoding="UTF-8"?>
<svg xmlns="http://www.w3.org/2000/svg" xmlns:xlink="http://www.w3.org/1999/xlink" width="517pt" height="517pt" viewBox="0 0 517 517" version="1.1">
<g id="surface5081">
<rect x="0" y="0" width="517" height="517" style="fill:rgb(90%,90%,90%);fill-opacity:1;stroke:none;"/>
<path style="fill:none;stroke-width:5;stroke-linecap:butt;stroke-linejoin:round;stroke:rgb(100%,0%,0%);stroke-opacity:1;stroke-miterlimit:10;" d="M 261 261 L 517 261 L 517 517 L 261 517 Z M 261 261 "/>
<path style="fill-rule:nonzero;fill:rgb(0%,0%,0%);fill-opacity:1;stroke-width:1;stroke-linecap:butt;stroke-linejoin:round;stroke:rgb(0%,0%,0%);stroke-opacity:1;stroke-miterlimit:10;" d="M 320.082031 324.574219 C 320.082031 310.171875 296.082031 310.171875 296.082031 324.574219 C 296.082031 338.972656 320.082031 341.371094 320.082031 353.371094 C 320.082031 341.371094 344.082031 338.972656 344.082031 324.574219 C 344.082031 310.171875 320.082031 310.171875 320.082031 324.574219 "/>
<path style="fill-rule:nonzero;fill:rgb(100%,0%,0%);fill-opacity:1;stroke-width:1;stroke-linecap:butt;stroke-linejoin:round;stroke:rgb(0%,0%,0%);stroke-opacity:1;stroke-miterlimit:10;" d="M 316.882812 84.996094 C 316.882812 70.59375 292.882812 70.59375 292.882812 84.996094 C 292.882812 99.394531 316.882812 101.792969 316.882812 113.792969 C 316.882812 101.792969 340.882812 99.394531 340.882812 84.996094 C 340.882812 70.59375 316.882812 70.59375 316.882812 84.996094 "/>
<path style="fill-rule:nonzero;fill:rgb(0%,0%,0%);fill-opacity:1;stroke-width:1;stroke-linecap:butt;stroke-linejoin:round;stroke:rgb(0%,0%,0%);stroke-opacity:1;stroke-miterlimit:10;" d="M 96.703125 32.339844 C 96.703125 17.941406 72.703125 17.941406 72.703125 32.339844 C 72.703125 46.742188 96.703125 49.140625 96.703125 61.140625 C 96.703125 49.140625 120.703125 46.742188 120.703125 32.339844 C 120.703125 17.941406 96.703125 17.941406 96.703125 32.339844 "/>
<path style="fill-rule:nonzero;fill:rgb(0%,0%,0%);fill-opacity:1;stroke-width:1;stroke-linecap:butt;stroke-linejoin:round;stroke:rgb(0%,0%,0%);stroke-opacity:1;stroke-miterlimit:10;" d="M 89.140625 168.964844 C 89.140625 154.5625 65.140625 154.5625 65.140625 168.964844 C 65.140625 183.363281 89.140625 185.765625 89.140625 197.765625 C 89.140625 185.765625 113.140625 183.363281 113.140625 168.964844 C 113.140625 154.5625 89.140625 154.5625 89.140625 168.964844 "/>
<path style="fill-rule:nonzero;fill:rgb(0%,0%,0%);fill-opacity:1;stroke-width:1;stroke-linecap:butt;stroke-linejoin:round;stroke:rgb(0%,0%,0%);stroke-opacity:1;stroke-miterlimit:10;" d="M 175.308594 87.449219 C 175.308594 73.050781 151.308594 73.050781 151.308594 87.449219 C 151.308594 101.851562 175.308594 104.25 175.308594 116.25 C 175.308594 104.25 199.308594 101.851562 199.308594 87.449219 C 199.308594 73.050781 175.308594 73.050781 175.308594 87.449219 "/>
<path style="fill-rule:nonzero;fill:rgb(0%,0%,0%);fill-opacity:1;stroke-width:1;stroke-linecap:butt;stroke-linejoin:round;stroke:rgb(0%,0%,0%);stroke-opacity:1;stroke-miterlimit:10;" d="M 179.226562 196.292969 C 179.226562 181.894531 155.226562 181.894531 155.226562 196.292969 C 155.226562 210.691406 179.226562 213.09375 179.226562 225.09375 C 179.226562 213.09375 203.226562 210.691406 203.226562 196.292969 C 203.226562 181.894531 179.226562 181.894531 179.226562 196.292969 "/>
</g>
</svg>
