<?xml version="1.0" encoding="UTF-8"?>
<svg xmlns="http://www.w3.org/2000/svg" xmlns:xlink="http://www.w3.org/1999/xlink" width="517pt" height="517pt" viewBox="0 0 517 517" version="1.1">
<g id="surface5051">
<rect x="0" y="0" width="517" height="517" style="fill:rgb(90%,90%,90%);fill-opacity:1;stroke:none;"/>
<path style="fill:none;stroke-width:5;stroke-linecap:butt;stroke-linejoin:round;stroke:rgb(100%,0%,0%);stroke-opacity:1;stroke-miterlimit:10;" d="M 261 261 L 517 261 L 517 517 L 261 517 Z M 261 261 "/>
<path style="fill-rule:nonzero;fill:rgb(0%,0%,0%);fill-opacity:1;stroke-width:1;stroke-linecap:butt;stroke-linejoin:round;stroke:rgb(0%,0%,0%);stroke-opacity:1;stroke-miterlimit:10;" d="M 463.039062 395.726562 C 463.039062 381.324219 439.039062 381.324219 439.039062 395.726562 C 439.039062 410.125 463.039062 412.523438 463.039062 424.523438 C 463.039062 412.523438 487.039062 410.125 487.039062 395.726562 C 487.039062 381.324219 463.039062 381.324219 463.039062 395.726562 "/>
<path style="fill-rule:nonzero;fill:rgb(100%,0%,0%);fill-opacity:1;stroke-width:1;stroke-linecap:butt;stroke-linejoin:round;stroke:rgb(0%,0%,0%);stroke-opacity:1;stroke-miterlimit:10;" d="M 198.566406 126.460938 C 198.566406 112.0625 174.566406 112.0625 174.566406 126.460938 C 174.566406 140.863281 198.566406 143.261719 198.566406 155.261719 C 198.566406 143.261719 222.566406 140.863281 222.566406 126.460938 C 222.566406 112.0625 198.566406 112.0625 198.566406 126.460938 "/>
<path style="fill-rule:nonzero;fill:rgb(100%,0%,0%);fill-opacity:1;stroke-width:1;stroke-linecap:butt;stroke-linejoin:round;stroke:rgb(0%,0%,0%);stroke-opacity:1;stroke-miterlimit:10;" d="M 441.253906 165.757812 C 441.253906 151.355469 417.253906 151.355469 417.253906 165.757812 C 417.253906 180.15625 441.253906 182.558594 441.253906 194.558594 C 441.253906 182.558594 465.253906 180.15625 465.253906 165.757812 C 465.253906 151.355469 441.253906 151.355469 441.253906 165.757812 "/>
<path style="fill-rule:nonzero;fill:rgb(100%,0%,0%);fill-opacity:1;stroke-width:1;stroke-linecap:butt;stroke-linejoin:round;stroke:rgb(0%,0%,0%);stroke-opacity:1;stroke-miterlimit:10;" d="M 317.867188 96.859375 C 317.867188 82.457031 293.867188 82.457031 293.867188 96.859375 C 293.867188 111.257812 317.867188 113.65625 317.867188 125.65625 C 317.867188 113.65625 341.867188 111.257812 341.867188 96.859375 C 341.867188 82.457031 317.867188 82.457031 317.867188 96.859375 "/>
<path style="fill-rule:nonzero;fill:rgb(100%,0%,0%);fill-opacity:1;stroke-width:1;stroke-linecap:butt;stroke-linejoin:round;stroke:rgb(0%,0%,0%);stroke-opacity:1;stroke-miterlimit:10;" d="M 98.71875 412.40625 C 98.71875 398.003906 74.71875 398.003906 74.71875 412.40625 C 74.71875 426.804688 98.71875 429.207031 98.71875 441.207031 C 98.71875 429.207031 122.71875 426.804688 122.71875 412.40625 C 122.71875 398.003906 98.71875 398.003906 98.71875 412.40625 "/>
<path style="fill-rule:nonzero;fill:rgb(100%,0%,0%);fill-opacity:1;stroke-width:1;stroke-linecap:butt;stroke-linejoin:round;stroke:rgb(0%,0%,0%);stroke-opacity:1;stroke-miterlimit:10;" d="M 153.949219 330.371094 C 153.949219 315.972656 129.949219 315.972656 129.949219 330.371094 C 129.949219 344.769531 153.949219 347.171875 153.949219 359.171875 C 153.949219 347.171875 177.949219 344.769531 177.949219 330.371094 C 177.949219 315.972656 153.949219 315.972656 153.949219 330.371094 "/>
</g>
</svg>
