<?xml version="1.0" encoding="UTF-8"?>
<svg xmlns="http://www.w3.org/2000/svg" xmlns:xlink="http://www.w3.org/1999/xlink" width="517pt" height="517pt" viewBox="0 0 517 517" version="1.1">
<g id="surface5116">
<rect x="0" y="0" width="517" height="517" style="fill:rgb(90%,90%,90%);fill-opacity:1;stroke:none;"/>
<path style="fill:none;stroke-width:5;stroke-linecap:butt;stroke-linejoin:round;stroke:rgb(100%,0%,0%);stroke-opacity:1;stroke-miterlimit:10;" d="M 261 261 L 517 261 L 517 517 L 261 517 Z M 261 261 "/>
<path style="fill-rule:nonzero;fill:rgb(100%,100%,0%);fill-opacity:1;stroke-width:1;stroke-linecap:butt;stroke-linejoin:round;stroke:rgb(0%,0%,0%);stroke-opacity:1;stroke-miterlimit:10;" d="M 470.722656 433.703125 C 470.722656 419.300781 446.722656 419.300781 446.722656 433.703125 C 446.722656 448.101562 470.722656 450.5 470.722656 462.5 C 470.722656 450.5 494.722656 448.101562 494.722656 433.703125 C 494.722656 419.300781 470.722656 419.300781 470.722656 433.703125 "/>
<path style="fill-rule:nonzero;fill:rgb(100%,0%,0%);fill-opacity:1;stroke-width:1;stroke-linecap:butt;stroke-linejoin:round;stroke:rgb(0%,0%,0%);stroke-opacity:1;stroke-miterlimit:10;" d="M 185.363281 56.089844 C 185.363281 41.691406 161.363281 41.691406 161.363281 56.089844 C 161.363281 70.492188 185.363281 72.890625 185.363281 84.890625 C 185.363281 72.890625 209.363281 70.492188 209.363281 56.089844 C 209.363281 41.691406 185.363281 41.691406 185.363281 56.089844 "/>
<path style="fill-rule:nonzero;fill:rgb(100%,0%,0%);fill-opacity:1;stroke-width:1;stroke-linecap:butt;stroke-linejoin:round;stroke:rgb(0%,0%,0%);stroke-opacity:1;stroke-miterlimit:10;" d="M 407.914062 136.171875 C 407.914062 121.773438 383.914062 121.773438 383.914062 136.171875 C 383.914062 150.570312 407.914062 152.972656 407.914062 164.972656 C 407.914062 152.972656 431.914062 150.570312 431.914062 136.171875 C 431.914062 121.773438 407.914062 121.773438 407.914062 136.171875 "/>
<path style="fill-rule:nonzero;fill:rgb(100%,0%,0%);fill-opacity:1;stroke-width:1;stroke-linecap:butt;stroke-linejoin:round;stroke:rgb(0%,0%,0%);stroke-opacity:1;stroke-miterlimit:10;" d="M 62.75 389.6875 C 62.75 375.289062 38.75 375.289062 38.75 389.6875 C 38.75 404.089844 62.75 406.488281 62.75 418.488281 C 62.75 406.488281 86.75 404.089844 86.75 389.6875 C 86.75 375.289062 62.75 375.289062 62.75 389.6875 "/>
<path style="fill-rule:nonzero;fill:rgb(100%,0%,0%);fill-opacity:1;stroke-width:1;stroke-linecap:butt;stroke-linejoin:round;stroke:rgb(0%,0%,0%);stroke-opacity:1;stroke-miterlimit:10;" d="M 153.914062 384.042969 C 153.914062 369.644531 129.914062 369.644531 129.914062 384.042969 C 129.914062 398.441406 153.914062 400.84375 153.914062 412.84375 C 153.914062 400.84375 177.914062 398.441406 177.914062 384.042969 C 177.914062 369.644531 153.914062 369.644531 153.914062 384.042969 "/>
<path style="fill-rule:nonzero;fill:rgb(0%,0%,0%);fill-opacity:1;stroke-width:1;stroke-linecap:butt;stroke-linejoin:round;stroke:rgb(0%,0%,0%);stroke-opacity:1;stroke-miterlimit:10;" d="M 71.542969 294.226562 C 71.542969 279.824219 47.542969 279.824219 47.542969 294.226562 C 47.542969 308.625 71.542969 311.023438 71.542969 323.023438 C 71.542969 311.023438 95.542969 308.625 95.542969 294.226562 C 95.542969 279.824219 71.542969 279.824219 71.542969 294.226562 "/>
</g>
</svg>
