<?xml version="1.0" encoding="UTF-8"?>
<svg xmlns="http://www.w3.org/2000/svg" xmlns:xlink="http://www.w3.org/1999/xlink" width="517pt" height="517pt" viewBox="0 0 517 517" version="1.1">
<g id="surface5046">
<rect x="0" y="0" width="517" height="517" style="fill:rgb(90%,90%,90%);fill-opacity:1;stroke:none;"/>
<path style="fill:none;stroke-width:5;stroke-linecap:butt;stroke-linejoin:round;stroke:rgb(100%,0%,0%);stroke-opacity:1;stroke-miterlimit:10;" d="M 261 261 L 517 261 L 517 517 L 261 517 Z M 261 261 "/>
<path style="fill-rule:nonzero;fill:rgb(0%,0%,0%);fill-opacity:1;stroke-width:1;stroke-linecap:butt;stroke-linejoin:round;stroke:rgb(0%,0%,0%);stroke-opacity:1;stroke-miterlimit:10;" d="M 425.171875 450.734375 C 425.171875 436.332031 401.171875 436.332031 401.171875 450.734375 C 401.171875 465.132812 425.171875 467.535156 425.171875 479.535156 C 425.171875 467.535156 449.171875 465.132812 449.171875 450.734375 C 449.171875 436.332031 425.171875 436.332031 425.171875 450.734375 "/>
<path style="fill-rule:nonzero;fill:rgb(100%,0%,0%);fill-opacity:1;stroke-width:1;stroke-linecap:butt;stroke-linejoin:round;stroke:rgb(0%,0%,0%);stroke-opacity:1;stroke-miterlimit:10;" d="M 180.976562 60.472656 C 180.976562 46.070312 156.976562 46.070312 156.976562 60.472656 C 156.976562 74.871094 180.976562 77.269531 180.976562 89.269531 C 180.976562 77.269531 204.976562 74.871094 204.976562 60.472656 C 204.976562 46.070312 180.976562 46.070312 180.976562 60.472656 "/>
<path style="fill-rule:nonzero;fill:rgb(100%,0%,0%);fill-opacity:1;stroke-width:1;stroke-linecap:butt;stroke-linejoin:round;stroke:rgb(0%,0%,0%);stroke-opacity:1;stroke-miterlimit:10;" d="M 68.378906 295.207031 C 68.378906 280.808594 44.378906 280.808594 44.378906 295.207031 C 44.378906 309.605469 68.378906 312.007812 68.378906 324.007812 C 68.378906 312.007812 92.378906 309.605469 92.378906 295.207031 C 92.378906 280.808594 68.378906 280.808594 68.378906 295.207031 "/>
<path style="fill-rule:nonzero;fill:rgb(100%,0%,0%);fill-opacity:1;stroke-width:1;stroke-linecap:butt;stroke-linejoin:round;stroke:rgb(0%,0%,0%);stroke-opacity:1;stroke-miterlimit:10;" d="M 190.902344 284.285156 C 190.902344 269.882812 166.902344 269.882812 166.902344 284.285156 C 166.902344 298.683594 190.902344 301.085938 190.902344 313.085938 C 190.902344 301.085938 214.902344 298.683594 214.902344 284.285156 C 214.902344 269.882812 190.902344 269.882812 190.902344 284.285156 "/>
<path style="fill-rule:nonzero;fill:rgb(100%,0%,0%);fill-opacity:1;stroke-width:1;stroke-linecap:butt;stroke-linejoin:round;stroke:rgb(0%,0%,0%);stroke-opacity:1;stroke-miterlimit:10;" d="M 59.980469 416.679688 C 59.980469 402.277344 35.980469 402.277344 35.980469 416.679688 C 35.980469 431.078125 59.980469 433.480469 59.980469 445.480469 C 59.980469 433.480469 83.980469 431.078125 83.980469 416.679688 C 83.980469 402.277344 59.980469 402.277344 59.980469 416.679688 "/>
<path style="fill-rule:nonzero;fill:rgb(100%,0%,0%);fill-opacity:1;stroke-width:1;stroke-linecap:butt;stroke-linejoin:round;stroke:rgb(0%,0%,0%);stroke-opacity:1;stroke-miterlimit:10;" d="M 179.238281 416.445312 C 179.238281 402.046875 155.238281 402.046875 155.238281 416.445312 C 155.238281 430.847656 179.238281 433.246094 179.238281 445.246094 C 179.238281 433.246094 203.238281 430.847656 203.238281 416.445312 C 203.238281 402.046875 179.238281 402.046875 179.238281 416.445312 "/>
</g>
</svg>
