<?xml version="1.0" encoding="UTF-8"?>
<svg xmlns="http://www.w3.org/2000/svg" xmlns:xlink="http://www.w3.org/1999/xlink" width="517pt" height="517pt" viewBox="0 0 517 517" version="1.1">
<g id="surface4961">
<rect x="0" y="0" width="517" height="517" style="fill:rgb(90%,90%,90%);fill-opacity:1;stroke:none;"/>
<path style="fill:none;stroke-width:5;stroke-linecap:butt;stroke-linejoin:round;stroke:rgb(100%,0%,0%);stroke-opacity:1;stroke-miterlimit:10;" d="M 261 261 L 517 261 L 517 517 L 261 517 Z M 261 261 "/>
<path style="fill-rule:nonzero;fill:rgb(67%,100%,18%);fill-opacity:1;stroke-width:1;stroke-linecap:butt;stroke-linejoin:round;stroke:rgb(0%,0%,0%);stroke-opacity:1;stroke-miterlimit:10;" d="M 305.101562 307.132812 C 305.101562 292.734375 281.101562 292.734375 281.101562 307.132812 C 281.101562 321.53125 305.101562 323.933594 305.101562 335.933594 C 305.101562 323.933594 329.101562 321.53125 329.101562 307.132812 C 329.101562 292.734375 305.101562 292.734375 305.101562 307.132812 "/>
<path style="fill-rule:nonzero;fill:rgb(0%,0%,0%);fill-opacity:1;stroke-width:1;stroke-linecap:butt;stroke-linejoin:round;stroke:rgb(0%,0%,0%);stroke-opacity:1;stroke-miterlimit:10;" d="M 212.535156 364.070312 C 212.535156 349.671875 188.535156 349.671875 188.535156 364.070312 C 188.535156 378.472656 212.535156 380.871094 212.535156 392.871094 C 212.535156 380.871094 236.535156 378.472656 236.535156 364.070312 C 236.535156 349.671875 212.535156 349.671875 212.535156 364.070312 "/>
<path style="fill-rule:nonzero;fill:rgb(0%,0%,0%);fill-opacity:1;stroke-width:1;stroke-linecap:butt;stroke-linejoin:round;stroke:rgb(0%,0%,0%);stroke-opacity:1;stroke-miterlimit:10;" d="M 36.742188 136.839844 C 36.742188 122.441406 12.742188 122.441406 12.742188 136.839844 C 12.742188 151.242188 36.742188 153.640625 36.742188 165.640625 C 36.742188 153.640625 60.742188 151.242188 60.742188 136.839844 C 60.742188 122.441406 36.742188 122.441406 36.742188 136.839844 "/>
<path style="fill-rule:nonzero;fill:rgb(0%,0%,0%);fill-opacity:1;stroke-width:1;stroke-linecap:butt;stroke-linejoin:round;stroke:rgb(0%,0%,0%);stroke-opacity:1;stroke-miterlimit:10;" d="M 171.113281 73.167969 C 171.113281 58.765625 147.113281 58.765625 147.113281 73.167969 C 147.113281 87.566406 171.113281 89.96875 171.113281 101.96875 C 171.113281 89.96875 195.113281 87.566406 195.113281 73.167969 C 195.113281 58.765625 171.113281 58.765625 171.113281 73.167969 "/>
<path style="fill-rule:nonzero;fill:rgb(0%,0%,0%);fill-opacity:1;stroke-width:1;stroke-linecap:butt;stroke-linejoin:round;stroke:rgb(0%,0%,0%);stroke-opacity:1;stroke-miterlimit:10;" d="M 84.125 69.636719 C 84.125 55.238281 60.125 55.238281 60.125 69.636719 C 60.125 84.039062 84.125 86.4375 84.125 98.4375 C 84.125 86.4375 108.125 84.039062 108.125 69.636719 C 108.125 55.238281 84.125 55.238281 84.125 69.636719 "/>
<path style="fill-rule:nonzero;fill:rgb(0%,0%,0%);fill-opacity:1;stroke-width:1;stroke-linecap:butt;stroke-linejoin:round;stroke:rgb(0%,0%,0%);stroke-opacity:1;stroke-miterlimit:10;" d="M 207.621094 179.933594 C 207.621094 165.53125 183.621094 165.53125 183.621094 179.933594 C 183.621094 194.332031 207.621094 196.730469 207.621094 208.730469 C 207.621094 196.730469 231.621094 194.332031 231.621094 179.933594 C 231.621094 165.53125 207.621094 165.53125 207.621094 179.933594 "/>
</g>
</svg>
