<?xml version="1.0" encoding="UTF-8"?>
<svg xmlns="http://www.w3.org/2000/svg" xmlns:xlink="http://www.w3.org/1999/xlink" width="517pt" height="517pt" viewBox="0 0 517 517" version="1.1">
<g id="surface4851">
<rect x="0" y="0" width="517" height="517" style="fill:rgb(90%,90%,90%);fill-opacity:1;stroke:none;"/>
<path style="fill:none;stroke-width:5;stroke-linecap:butt;stroke-linejoin:round;stroke:rgb(100%,0%,0%);stroke-opacity:1;stroke-miterlimit:10;" d="M 5 261 L 261 261 L 261 517 L 5 517 Z M 5 261 "/>
<path style="fill-rule:nonzero;fill:rgb(100%,0%,0%);fill-opacity:1;stroke-width:1;stroke-linecap:butt;stroke-linejoin:round;stroke:rgb(0%,0%,0%);stroke-opacity:1;stroke-miterlimit:10;" d="M 35.09375 301.601562 C 35.09375 287.199219 11.09375 287.199219 11.09375 301.601562 C 11.09375 316 35.09375 318.402344 35.09375 330.402344 C 35.09375 318.402344 59.09375 316 59.09375 301.601562 C 59.09375 287.199219 35.09375 287.199219 35.09375 301.601562 "/>
<path style="fill-rule:nonzero;fill:rgb(35%,70%,90%);fill-opacity:1;stroke-width:1;stroke-linecap:butt;stroke-linejoin:round;stroke:rgb(0%,0%,0%);stroke-opacity:1;stroke-miterlimit:10;" d="M 354.628906 33.355469 C 354.628906 18.953125 330.628906 18.953125 330.628906 33.355469 C 330.628906 47.753906 354.628906 50.15625 354.628906 62.15625 C 354.628906 50.15625 378.628906 47.753906 378.628906 33.355469 C 378.628906 18.953125 354.628906 18.953125 354.628906 33.355469 "/>
<path style="fill-rule:nonzero;fill:rgb(100%,0%,0%);fill-opacity:1;stroke-width:1;stroke-linecap:butt;stroke-linejoin:round;stroke:rgb(0%,0%,0%);stroke-opacity:1;stroke-miterlimit:10;" d="M 354.8125 180.441406 C 354.8125 166.039062 330.8125 166.039062 330.8125 180.441406 C 330.8125 194.839844 354.8125 197.242188 354.8125 209.242188 C 354.8125 197.242188 378.8125 194.839844 378.8125 180.441406 C 378.8125 166.039062 354.8125 166.039062 354.8125 180.441406 "/>
<path style="fill-rule:nonzero;fill:rgb(100%,0%,0%);fill-opacity:1;stroke-width:1;stroke-linecap:butt;stroke-linejoin:round;stroke:rgb(0%,0%,0%);stroke-opacity:1;stroke-miterlimit:10;" d="M 381.804688 308.804688 C 381.804688 294.402344 357.804688 294.402344 357.804688 308.804688 C 357.804688 323.203125 381.804688 325.605469 381.804688 337.605469 C 381.804688 325.605469 405.804688 323.203125 405.804688 308.804688 C 405.804688 294.402344 381.804688 294.402344 381.804688 308.804688 "/>
<path style="fill-rule:nonzero;fill:rgb(100%,0%,0%);fill-opacity:1;stroke-width:1;stroke-linecap:butt;stroke-linejoin:round;stroke:rgb(0%,0%,0%);stroke-opacity:1;stroke-miterlimit:10;" d="M 374.378906 391.609375 C 374.378906 377.210938 350.378906 377.210938 350.378906 391.609375 C 350.378906 406.007812 374.378906 408.410156 374.378906 420.410156 C 374.378906 408.410156 398.378906 406.007812 398.378906 391.609375 C 398.378906 377.210938 374.378906 377.210938 374.378906 391.609375 "/>
<path style="fill-rule:nonzero;fill:rgb(100%,0%,0%);fill-opacity:1;stroke-width:1;stroke-linecap:butt;stroke-linejoin:round;stroke:rgb(0%,0%,0%);stroke-opacity:1;stroke-miterlimit:10;" d="M 465.195312 459.960938 C 465.195312 445.5625 441.195312 445.5625 441.195312 459.960938 C 441.195312 474.363281 465.195312 476.761719 465.195312 488.761719 C 465.195312 476.761719 489.195312 474.363281 489.195312 459.960938 C 489.195312 445.5625 465.195312 445.5625 465.195312 459.960938 "/>
</g>
</svg>
