<?xml version="1.0" encoding="UTF-8"?>
<svg xmlns="http://www.w3.org/2000/svg" xmlns:xlink="http://www.w3.org/1999/xlink" width="517pt" height="517pt" viewBox="0 0 517 517" version="1.1">
<g id="surface4846">
<rect x="0" y="0" width="517" height="517" style="fill:rgb(90%,90%,90%);fill-opacity:1;stroke:none;"/>
<path style="fill:none;stroke-width:5;stroke-linecap:butt;stroke-linejoin:round;stroke:rgb(100%,0%,0%);stroke-opacity:1;stroke-miterlimit:10;" d="M 5 261 L 261 261 L 261 517 L 5 517 Z M 5 261 "/>
<path style="fill-rule:nonzero;fill:rgb(100%,0%,0%);fill-opacity:1;stroke-width:1;stroke-linecap:butt;stroke-linejoin:round;stroke:rgb(0%,0%,0%);stroke-opacity:1;stroke-miterlimit:10;" d="M 126.410156 378.144531 C 126.410156 363.746094 102.410156 363.746094 102.410156 378.144531 C 102.410156 392.542969 126.410156 394.945312 126.410156 406.945312 C 126.410156 394.945312 150.410156 392.542969 150.410156 378.144531 C 150.410156 363.746094 126.410156 363.746094 126.410156 378.144531 "/>
<path style="fill-rule:nonzero;fill:rgb(35%,70%,90%);fill-opacity:1;stroke-width:1;stroke-linecap:butt;stroke-linejoin:round;stroke:rgb(0%,0%,0%);stroke-opacity:1;stroke-miterlimit:10;" d="M 407.496094 106.0625 C 407.496094 91.664062 383.496094 91.664062 383.496094 106.0625 C 383.496094 120.464844 407.496094 122.863281 407.496094 134.863281 C 407.496094 122.863281 431.496094 120.464844 431.496094 106.0625 C 431.496094 91.664062 407.496094 91.664062 407.496094 106.0625 "/>
<path style="fill-rule:nonzero;fill:rgb(100%,0%,0%);fill-opacity:1;stroke-width:1;stroke-linecap:butt;stroke-linejoin:round;stroke:rgb(0%,0%,0%);stroke-opacity:1;stroke-miterlimit:10;" d="M 351.839844 69.0625 C 351.839844 54.660156 327.839844 54.660156 327.839844 69.0625 C 327.839844 83.460938 351.839844 85.859375 351.839844 97.859375 C 351.839844 85.859375 375.839844 83.460938 375.839844 69.0625 C 375.839844 54.660156 351.839844 54.660156 351.839844 69.0625 "/>
<path style="fill-rule:nonzero;fill:rgb(100%,0%,0%);fill-opacity:1;stroke-width:1;stroke-linecap:butt;stroke-linejoin:round;stroke:rgb(0%,0%,0%);stroke-opacity:1;stroke-miterlimit:10;" d="M 439.144531 290.71875 C 439.144531 276.316406 415.144531 276.316406 415.144531 290.71875 C 415.144531 305.117188 439.144531 307.519531 439.144531 319.519531 C 439.144531 307.519531 463.144531 305.117188 463.144531 290.71875 C 463.144531 276.316406 439.144531 276.316406 439.144531 290.71875 "/>
<path style="fill-rule:nonzero;fill:rgb(100%,0%,0%);fill-opacity:1;stroke-width:1;stroke-linecap:butt;stroke-linejoin:round;stroke:rgb(0%,0%,0%);stroke-opacity:1;stroke-miterlimit:10;" d="M 413.910156 378.164062 C 413.910156 363.765625 389.910156 363.765625 389.910156 378.164062 C 389.910156 392.5625 413.910156 394.964844 413.910156 406.964844 C 413.910156 394.964844 437.910156 392.5625 437.910156 378.164062 C 437.910156 363.765625 413.910156 363.765625 413.910156 378.164062 "/>
<path style="fill-rule:nonzero;fill:rgb(100%,0%,0%);fill-opacity:1;stroke-width:1;stroke-linecap:butt;stroke-linejoin:round;stroke:rgb(0%,0%,0%);stroke-opacity:1;stroke-miterlimit:10;" d="M 307.0625 348.527344 C 307.0625 334.125 283.0625 334.125 283.0625 348.527344 C 283.0625 362.925781 307.0625 365.328125 307.0625 377.328125 C 307.0625 365.328125 331.0625 362.925781 331.0625 348.527344 C 331.0625 334.125 307.0625 334.125 307.0625 348.527344 "/>
</g>
</svg>
