<?xml version="1.0" encoding="UTF-8"?>
<svg xmlns="http://www.w3.org/2000/svg" xmlns:xlink="http://www.w3.org/1999/xlink" width="517pt" height="517pt" viewBox="0 0 517 517" version="1.1">
<g id="surface4761">
<rect x="0" y="0" width="517" height="517" style="fill:rgb(90%,90%,90%);fill-opacity:1;stroke:none;"/>
<path style="fill:none;stroke-width:5;stroke-linecap:butt;stroke-linejoin:round;stroke:rgb(100%,0%,0%);stroke-opacity:1;stroke-miterlimit:10;" d="M 5 261 L 261 261 L 261 517 L 5 517 Z M 5 261 "/>
<path style="fill-rule:nonzero;fill:rgb(53%,27%,7%);fill-opacity:1;stroke-width:1;stroke-linecap:butt;stroke-linejoin:round;stroke:rgb(0%,0%,0%);stroke-opacity:1;stroke-miterlimit:10;" d="M 140.957031 298.652344 C 140.957031 284.253906 116.957031 284.253906 116.957031 298.652344 C 116.957031 313.054688 140.957031 315.453125 140.957031 327.453125 C 140.957031 315.453125 164.957031 313.054688 164.957031 298.652344 C 164.957031 284.253906 140.957031 284.253906 140.957031 298.652344 "/>
<path style="fill-rule:nonzero;fill:rgb(100%,0%,0%);fill-opacity:1;stroke-width:1;stroke-linecap:butt;stroke-linejoin:round;stroke:rgb(0%,0%,0%);stroke-opacity:1;stroke-miterlimit:10;" d="M 387.089844 103.5 C 387.089844 89.101562 363.089844 89.101562 363.089844 103.5 C 363.089844 117.902344 387.089844 120.300781 387.089844 132.300781 C 387.089844 120.300781 411.089844 117.902344 411.089844 103.5 C 411.089844 89.101562 387.089844 89.101562 387.089844 103.5 "/>
<path style="fill-rule:nonzero;fill:rgb(53%,27%,7%);fill-opacity:1;stroke-width:1;stroke-linecap:butt;stroke-linejoin:round;stroke:rgb(0%,0%,0%);stroke-opacity:1;stroke-miterlimit:10;" d="M 398.753906 21.9375 C 398.753906 7.535156 374.753906 7.535156 374.753906 21.9375 C 374.753906 36.335938 398.753906 38.734375 398.753906 50.734375 C 398.753906 38.734375 422.753906 36.335938 422.753906 21.9375 C 422.753906 7.535156 398.753906 7.535156 398.753906 21.9375 "/>
<path style="fill-rule:nonzero;fill:rgb(53%,27%,7%);fill-opacity:1;stroke-width:1;stroke-linecap:butt;stroke-linejoin:round;stroke:rgb(0%,0%,0%);stroke-opacity:1;stroke-miterlimit:10;" d="M 210.902344 135.183594 C 210.902344 120.785156 186.902344 120.785156 186.902344 135.183594 C 186.902344 149.585938 210.902344 151.984375 210.902344 163.984375 C 210.902344 151.984375 234.902344 149.585938 234.902344 135.183594 C 234.902344 120.785156 210.902344 120.785156 210.902344 135.183594 "/>
<path style="fill-rule:nonzero;fill:rgb(53%,27%,7%);fill-opacity:1;stroke-width:1;stroke-linecap:butt;stroke-linejoin:round;stroke:rgb(0%,0%,0%);stroke-opacity:1;stroke-miterlimit:10;" d="M 126.332031 135.460938 C 126.332031 121.0625 102.332031 121.0625 102.332031 135.460938 C 102.332031 149.859375 126.332031 152.261719 126.332031 164.261719 C 126.332031 152.261719 150.332031 149.859375 150.332031 135.460938 C 150.332031 121.0625 126.332031 121.0625 126.332031 135.460938 "/>
<path style="fill-rule:nonzero;fill:rgb(53%,27%,7%);fill-opacity:1;stroke-width:1;stroke-linecap:butt;stroke-linejoin:round;stroke:rgb(0%,0%,0%);stroke-opacity:1;stroke-miterlimit:10;" d="M 327.773438 297.539062 C 327.773438 283.140625 303.773438 283.140625 303.773438 297.539062 C 303.773438 311.941406 327.773438 314.339844 327.773438 326.339844 C 327.773438 314.339844 351.773438 311.941406 351.773438 297.539062 C 351.773438 283.140625 327.773438 283.140625 327.773438 297.539062 "/>
</g>
</svg>
