<?xml version="1.0" encoding="UTF-8"?>
<svg xmlns="http://www.w3.org/2000/svg" xmlns:xlink="http://www.w3.org/1999/xlink" width="517pt" height="517pt" viewBox="0 0 517 517" version="1.1">
<g id="surface4836">
<rect x="0" y="0" width="517" height="517" style="fill:rgb(90%,90%,90%);fill-opacity:1;stroke:none;"/>
<path style="fill:none;stroke-width:5;stroke-linecap:butt;stroke-linejoin:round;stroke:rgb(100%,0%,0%);stroke-opacity:1;stroke-miterlimit:10;" d="M 5 261 L 261 261 L 261 517 L 5 517 Z M 5 261 "/>
<path style="fill-rule:nonzero;fill:rgb(100%,0%,0%);fill-opacity:1;stroke-width:1;stroke-linecap:butt;stroke-linejoin:round;stroke:rgb(0%,0%,0%);stroke-opacity:1;stroke-miterlimit:10;" d="M 63.652344 459.582031 C 63.652344 445.183594 39.652344 445.183594 39.652344 459.582031 C 39.652344 473.980469 63.652344 476.382812 63.652344 488.382812 C 63.652344 476.382812 87.652344 473.980469 87.652344 459.582031 C 87.652344 445.183594 63.652344 445.183594 63.652344 459.582031 "/>
<path style="fill-rule:nonzero;fill:rgb(35%,70%,90%);fill-opacity:1;stroke-width:1;stroke-linecap:butt;stroke-linejoin:round;stroke:rgb(0%,0%,0%);stroke-opacity:1;stroke-miterlimit:10;" d="M 126.066406 50.402344 C 126.066406 36.003906 102.066406 36.003906 102.066406 50.402344 C 102.066406 64.804688 126.066406 67.203125 126.066406 79.203125 C 126.066406 67.203125 150.066406 64.804688 150.066406 50.402344 C 150.066406 36.003906 126.066406 36.003906 126.066406 50.402344 "/>
<path style="fill-rule:nonzero;fill:rgb(35%,70%,90%);fill-opacity:1;stroke-width:1;stroke-linecap:butt;stroke-linejoin:round;stroke:rgb(0%,0%,0%);stroke-opacity:1;stroke-miterlimit:10;" d="M 386.105469 276.785156 C 386.105469 262.386719 362.105469 262.386719 362.105469 276.785156 C 362.105469 291.1875 386.105469 293.585938 386.105469 305.585938 C 386.105469 293.585938 410.105469 291.1875 410.105469 276.785156 C 410.105469 262.386719 386.105469 262.386719 386.105469 276.785156 "/>
<path style="fill-rule:nonzero;fill:rgb(35%,70%,90%);fill-opacity:1;stroke-width:1;stroke-linecap:butt;stroke-linejoin:round;stroke:rgb(0%,0%,0%);stroke-opacity:1;stroke-miterlimit:10;" d="M 433.292969 409.539062 C 433.292969 395.136719 409.292969 395.136719 409.292969 409.539062 C 409.292969 423.9375 433.292969 426.335938 433.292969 438.335938 C 433.292969 426.335938 457.292969 423.9375 457.292969 409.539062 C 457.292969 395.136719 433.292969 395.136719 433.292969 409.539062 "/>
<path style="fill-rule:nonzero;fill:rgb(35%,70%,90%);fill-opacity:1;stroke-width:1;stroke-linecap:butt;stroke-linejoin:round;stroke:rgb(0%,0%,0%);stroke-opacity:1;stroke-miterlimit:10;" d="M 297.390625 351.753906 C 297.390625 337.355469 273.390625 337.355469 273.390625 351.753906 C 273.390625 366.15625 297.390625 368.554688 297.390625 380.554688 C 297.390625 368.554688 321.390625 366.15625 321.390625 351.753906 C 321.390625 337.355469 297.390625 337.355469 297.390625 351.753906 "/>
<path style="fill-rule:nonzero;fill:rgb(100%,0%,0%);fill-opacity:1;stroke-width:1;stroke-linecap:butt;stroke-linejoin:round;stroke:rgb(0%,0%,0%);stroke-opacity:1;stroke-miterlimit:10;" d="M 374.613281 460.5 C 374.613281 446.097656 350.613281 446.097656 350.613281 460.5 C 350.613281 474.898438 374.613281 477.300781 374.613281 489.300781 C 374.613281 477.300781 398.613281 474.898438 398.613281 460.5 C 398.613281 446.097656 374.613281 446.097656 374.613281 460.5 "/>
</g>
</svg>
