<?xml version="1.0" encoding="UTF-8"?>
<svg xmlns="http://www.w3.org/2000/svg" xmlns:xlink="http://www.w3.org/1999/xlink" width="517pt" height="517pt" viewBox="0 0 517 517" version="1.1">
<g id="surface4766">
<rect x="0" y="0" width="517" height="517" style="fill:rgb(90%,90%,90%);fill-opacity:1;stroke:none;"/>
<path style="fill:none;stroke-width:5;stroke-linecap:butt;stroke-linejoin:round;stroke:rgb(100%,0%,0%);stroke-opacity:1;stroke-miterlimit:10;" d="M 5 261 L 261 261 L 261 517 L 5 517 Z M 5 261 "/>
<path style="fill-rule:nonzero;fill:rgb(53%,27%,7%);fill-opacity:1;stroke-width:1;stroke-linecap:butt;stroke-linejoin:round;stroke:rgb(0%,0%,0%);stroke-opacity:1;stroke-miterlimit:10;" d="M 215.863281 399.519531 C 215.863281 385.121094 191.863281 385.121094 191.863281 399.519531 C 191.863281 413.917969 215.863281 416.320312 215.863281 428.320312 C 215.863281 416.320312 239.863281 413.917969 239.863281 399.519531 C 239.863281 385.121094 215.863281 385.121094 215.863281 399.519531 "/>
<path style="fill-rule:nonzero;fill:rgb(100%,0%,0%);fill-opacity:1;stroke-width:1;stroke-linecap:butt;stroke-linejoin:round;stroke:rgb(0%,0%,0%);stroke-opacity:1;stroke-miterlimit:10;" d="M 142.59375 24.136719 C 142.59375 9.734375 118.59375 9.734375 118.59375 24.136719 C 118.59375 38.535156 142.59375 40.933594 142.59375 52.933594 C 142.59375 40.933594 166.59375 38.535156 166.59375 24.136719 C 166.59375 9.734375 142.59375 9.734375 142.59375 24.136719 "/>
<path style="fill-rule:nonzero;fill:rgb(53%,27%,7%);fill-opacity:1;stroke-width:1;stroke-linecap:butt;stroke-linejoin:round;stroke:rgb(0%,0%,0%);stroke-opacity:1;stroke-miterlimit:10;" d="M 296.574219 430.105469 C 296.574219 415.707031 272.574219 415.707031 272.574219 430.105469 C 272.574219 444.507812 296.574219 446.90625 296.574219 458.90625 C 296.574219 446.90625 320.574219 444.507812 320.574219 430.105469 C 320.574219 415.707031 296.574219 415.707031 296.574219 430.105469 "/>
<path style="fill-rule:nonzero;fill:rgb(53%,27%,7%);fill-opacity:1;stroke-width:1;stroke-linecap:butt;stroke-linejoin:round;stroke:rgb(0%,0%,0%);stroke-opacity:1;stroke-miterlimit:10;" d="M 369.703125 321.316406 C 369.703125 306.917969 345.703125 306.917969 345.703125 321.316406 C 345.703125 335.71875 369.703125 338.117188 369.703125 350.117188 C 369.703125 338.117188 393.703125 335.71875 393.703125 321.316406 C 393.703125 306.917969 369.703125 306.917969 369.703125 321.316406 "/>
<path style="fill-rule:nonzero;fill:rgb(53%,27%,7%);fill-opacity:1;stroke-width:1;stroke-linecap:butt;stroke-linejoin:round;stroke:rgb(0%,0%,0%);stroke-opacity:1;stroke-miterlimit:10;" d="M 323.285156 134.019531 C 323.285156 119.621094 299.285156 119.621094 299.285156 134.019531 C 299.285156 148.421875 323.285156 150.820312 323.285156 162.820312 C 323.285156 150.820312 347.285156 148.421875 347.285156 134.019531 C 347.285156 119.621094 323.285156 119.621094 323.285156 134.019531 "/>
<path style="fill-rule:nonzero;fill:rgb(53%,27%,7%);fill-opacity:1;stroke-width:1;stroke-linecap:butt;stroke-linejoin:round;stroke:rgb(0%,0%,0%);stroke-opacity:1;stroke-miterlimit:10;" d="M 356.953125 78.113281 C 356.953125 63.714844 332.953125 63.714844 332.953125 78.113281 C 332.953125 92.511719 356.953125 94.914062 356.953125 106.914062 C 356.953125 94.914062 380.953125 92.511719 380.953125 78.113281 C 380.953125 63.714844 356.953125 63.714844 356.953125 78.113281 "/>
</g>
</svg>
