<?xml version="1.0" encoding="UTF-8"?>
<svg xmlns="http://www.w3.org/2000/svg" xmlns:xlink="http://www.w3.org/1999/xlink" width="517pt" height="517pt" viewBox="0 0 517 517" version="1.1">
<g id="surface4731">
<rect x="0" y="0" width="517" height="517" style="fill:rgb(90%,90%,90%);fill-opacity:1;stroke:none;"/>
<path style="fill:none;stroke-width:5;stroke-linecap:butt;stroke-linejoin:round;stroke:rgb(100%,0%,0%);stroke-opacity:1;stroke-miterlimit:10;" d="M 5 261 L 261 261 L 261 517 L 5 517 Z M 5 261 "/>
<path style="fill-rule:nonzero;fill:rgb(53%,27%,7%);fill-opacity:1;stroke-width:1;stroke-linecap:butt;stroke-linejoin:round;stroke:rgb(0%,0%,0%);stroke-opacity:1;stroke-miterlimit:10;" d="M 94.378906 393.550781 C 94.378906 379.152344 70.378906 379.152344 70.378906 393.550781 C 70.378906 407.949219 94.378906 410.351562 94.378906 422.351562 C 94.378906 410.351562 118.378906 407.949219 118.378906 393.550781 C 118.378906 379.152344 94.378906 379.152344 94.378906 393.550781 "/>
<path style="fill-rule:nonzero;fill:rgb(100%,0%,0%);fill-opacity:1;stroke-width:1;stroke-linecap:butt;stroke-linejoin:round;stroke:rgb(0%,0%,0%);stroke-opacity:1;stroke-miterlimit:10;" d="M 147.054688 164.605469 C 147.054688 150.207031 123.054688 150.207031 123.054688 164.605469 C 123.054688 179.003906 147.054688 181.40625 147.054688 193.40625 C 147.054688 181.40625 171.054688 179.003906 171.054688 164.605469 C 171.054688 150.207031 147.054688 150.207031 147.054688 164.605469 "/>
<path style="fill-rule:nonzero;fill:rgb(100%,0%,0%);fill-opacity:1;stroke-width:1;stroke-linecap:butt;stroke-linejoin:round;stroke:rgb(0%,0%,0%);stroke-opacity:1;stroke-miterlimit:10;" d="M 77.703125 52.816406 C 77.703125 38.417969 53.703125 38.417969 53.703125 52.816406 C 53.703125 67.21875 77.703125 69.617188 77.703125 81.617188 C 77.703125 69.617188 101.703125 67.21875 101.703125 52.816406 C 101.703125 38.417969 77.703125 38.417969 77.703125 52.816406 "/>
<path style="fill-rule:nonzero;fill:rgb(100%,0%,0%);fill-opacity:1;stroke-width:1;stroke-linecap:butt;stroke-linejoin:round;stroke:rgb(0%,0%,0%);stroke-opacity:1;stroke-miterlimit:10;" d="M 391.789062 179.3125 C 391.789062 164.914062 367.789062 164.914062 367.789062 179.3125 C 367.789062 193.714844 391.789062 196.113281 391.789062 208.113281 C 391.789062 196.113281 415.789062 193.714844 415.789062 179.3125 C 415.789062 164.914062 391.789062 164.914062 391.789062 179.3125 "/>
<path style="fill-rule:nonzero;fill:rgb(100%,0%,0%);fill-opacity:1;stroke-width:1;stroke-linecap:butt;stroke-linejoin:round;stroke:rgb(0%,0%,0%);stroke-opacity:1;stroke-miterlimit:10;" d="M 384.386719 101.808594 C 384.386719 87.40625 360.386719 87.40625 360.386719 101.808594 C 360.386719 116.207031 384.386719 118.605469 384.386719 130.605469 C 384.386719 118.605469 408.386719 116.207031 408.386719 101.808594 C 408.386719 87.40625 384.386719 87.40625 384.386719 101.808594 "/>
<path style="fill-rule:nonzero;fill:rgb(100%,0%,0%);fill-opacity:1;stroke-width:1;stroke-linecap:butt;stroke-linejoin:round;stroke:rgb(0%,0%,0%);stroke-opacity:1;stroke-miterlimit:10;" d="M 332.742188 287.683594 C 332.742188 273.285156 308.742188 273.285156 308.742188 287.683594 C 308.742188 302.085938 332.742188 304.484375 332.742188 316.484375 C 332.742188 304.484375 356.742188 302.085938 356.742188 287.683594 C 356.742188 273.285156 332.742188 273.285156 332.742188 287.683594 "/>
</g>
</svg>
