<?xml version="1.0" encoding="UTF-8"?>
<svg xmlns="http://www.w3.org/2000/svg" xmlns:xlink="http://www.w3.org/1999/xlink" width="517pt" height="517pt" viewBox="0 0 517 517" version="1.1">
<g id="surface5576">
<rect x="0" y="0" width="517" height="517" style="fill:rgb(90%,90%,90%);fill-opacity:1;stroke:none;"/>
<path style="fill-rule:nonzero;fill:rgb(90%,65%,0%);fill-opacity:1;stroke-width:1;stroke-linecap:butt;stroke-linejoin:miter;stroke:rgb(0%,0%,0%);stroke-opacity:1;stroke-miterlimit:10;" d="M 205.496094 157.535156 C 205.496094 174.105469 192.0625 187.535156 175.496094 187.535156 C 158.925781 187.535156 145.496094 174.105469 145.496094 157.535156 C 145.496094 140.96875 158.925781 127.535156 175.496094 127.535156 C 192.0625 127.535156 205.496094 140.96875 205.496094 157.535156 "/>
<path style="fill-rule:nonzero;fill:rgb(50%,0%,50%);fill-opacity:1;stroke-width:1;stroke-linecap:butt;stroke-linejoin:miter;stroke:rgb(0%,0%,0%);stroke-opacity:1;stroke-miterlimit:10;" d="M 160.511719 42.507812 C 160.511719 59.078125 147.078125 72.507812 130.511719 72.507812 C 113.941406 72.507812 100.511719 59.078125 100.511719 42.507812 C 100.511719 25.941406 113.941406 12.507812 130.511719 12.507812 C 147.078125 12.507812 160.511719 25.941406 160.511719 42.507812 "/>
<path style="fill-rule:nonzero;fill:rgb(50%,0%,50%);fill-opacity:1;stroke-width:1;stroke-linecap:butt;stroke-linejoin:miter;stroke:rgb(0%,0%,0%);stroke-opacity:1;stroke-miterlimit:10;" d="M 250.757812 436.9375 C 250.757812 453.507812 237.324219 466.9375 220.757812 466.9375 C 204.1875 466.9375 190.757812 453.507812 190.757812 436.9375 C 190.757812 420.367188 204.1875 406.9375 220.757812 406.9375 C 237.324219 406.9375 250.757812 420.367188 250.757812 436.9375 "/>
<path style="fill-rule:nonzero;fill:rgb(50%,0%,50%);fill-opacity:1;stroke-width:1;stroke-linecap:butt;stroke-linejoin:miter;stroke:rgb(0%,0%,0%);stroke-opacity:1;stroke-miterlimit:10;" d="M 156.910156 405.476562 C 156.910156 422.042969 143.476562 435.476562 126.910156 435.476562 C 110.339844 435.476562 96.910156 422.042969 96.910156 405.476562 C 96.910156 388.90625 110.339844 375.476562 126.910156 375.476562 C 143.476562 375.476562 156.910156 388.90625 156.910156 405.476562 "/>
<path style="fill-rule:nonzero;fill:rgb(50%,0%,50%);fill-opacity:1;stroke-width:1;stroke-linecap:butt;stroke-linejoin:miter;stroke:rgb(0%,0%,0%);stroke-opacity:1;stroke-miterlimit:10;" d="M 122.722656 464.449219 C 122.722656 481.015625 109.289062 494.449219 92.722656 494.449219 C 76.152344 494.449219 62.722656 481.015625 62.722656 464.449219 C 62.722656 447.878906 76.152344 434.449219 92.722656 434.449219 C 109.289062 434.449219 122.722656 447.878906 122.722656 464.449219 "/>
<path style="fill-rule:nonzero;fill:rgb(50%,0%,50%);fill-opacity:1;stroke-width:1;stroke-linecap:butt;stroke-linejoin:miter;stroke:rgb(0%,0%,0%);stroke-opacity:1;stroke-miterlimit:10;" d="M 135.191406 303.164062 C 135.191406 319.734375 121.761719 333.164062 105.191406 333.164062 C 88.625 333.164062 75.191406 319.734375 75.191406 303.164062 C 75.191406 286.597656 88.625 273.164062 105.191406 273.164062 C 121.761719 273.164062 135.191406 286.597656 135.191406 303.164062 "/>
<path style="fill-rule:nonzero;fill:rgb(50%,0%,50%);fill-opacity:1;stroke-width:1;stroke-linecap:butt;stroke-linejoin:miter;stroke:rgb(0%,0%,0%);stroke-opacity:1;stroke-miterlimit:10;" d="M 246.535156 310.25 C 246.535156 326.820312 233.105469 340.25 216.535156 340.25 C 199.96875 340.25 186.535156 326.820312 186.535156 310.25 C 186.535156 293.683594 199.96875 280.25 216.535156 280.25 C 233.105469 280.25 246.535156 293.683594 246.535156 310.25 "/>
<path style="fill-rule:nonzero;fill:rgb(50%,0%,50%);fill-opacity:1;stroke-width:1;stroke-linecap:butt;stroke-linejoin:miter;stroke:rgb(0%,0%,0%);stroke-opacity:1;stroke-miterlimit:10;" d="M 410.796875 180.367188 C 410.796875 196.933594 397.363281 210.367188 380.796875 210.367188 C 364.226562 210.367188 350.796875 196.933594 350.796875 180.367188 C 350.796875 163.796875 364.226562 150.367188 380.796875 150.367188 C 397.363281 150.367188 410.796875 163.796875 410.796875 180.367188 "/>
</g>
</svg>
