<?xml version="1.0" encoding="UTF-8"?>
<svg xmlns="http://www.w3.org/2000/svg" xmlns:xlink="http://www.w3.org/1999/xlink" width="517pt" height="517pt" viewBox="0 0 517 517" version="1.1">
<g id="surface10116">
<rect x="0" y="0" width="517" height="517" style="fill:rgb(90%,90%,90%);fill-opacity:1;stroke:none;"/>
<path style="fill:none;stroke-width:5;stroke-linecap:butt;stroke-linejoin:round;stroke:rgb(100%,0%,0%);stroke-opacity:1;stroke-miterlimit:10;" d="M 261 5 L 517 5 L 517 261 L 261 261 Z M 261 5 "/>
<path style="fill-rule:nonzero;fill:rgb(35%,70%,90%);fill-opacity:1;stroke-width:1;stroke-linecap:butt;stroke-linejoin:round;stroke:rgb(0%,0%,0%);stroke-opacity:1;stroke-miterlimit:10;" d="M 337.792969 87.207031 L 337.792969 129.632812 L 380.21875 129.632812 L 380.21875 87.207031 L 337.792969 87.207031 "/>
<path style="fill-rule:nonzero;fill:rgb(67%,100%,18%);fill-opacity:1;stroke-width:1;stroke-linecap:butt;stroke-linejoin:round;stroke:rgb(0%,0%,0%);stroke-opacity:1;stroke-miterlimit:10;" d="M 90.304688 332.261719 L 90.304688 374.6875 L 132.734375 374.6875 L 132.734375 332.261719 L 90.304688 332.261719 "/>
<path style="fill-rule:nonzero;fill:rgb(67%,100%,18%);fill-opacity:1;stroke-width:1;stroke-linecap:butt;stroke-linejoin:round;stroke:rgb(0%,0%,0%);stroke-opacity:1;stroke-miterlimit:10;" d="M 166.027344 326.207031 L 166.027344 368.632812 L 208.453125 368.632812 L 208.453125 326.207031 L 166.027344 326.207031 "/>
<path style="fill-rule:nonzero;fill:rgb(67%,100%,18%);fill-opacity:1;stroke-width:1;stroke-linecap:butt;stroke-linejoin:round;stroke:rgb(0%,0%,0%);stroke-opacity:1;stroke-miterlimit:10;" d="M 35.078125 110.132812 L 35.078125 152.558594 L 77.503906 152.558594 L 77.503906 110.132812 L 35.078125 110.132812 "/>
<path style="fill-rule:nonzero;fill:rgb(67%,100%,18%);fill-opacity:1;stroke-width:1;stroke-linecap:butt;stroke-linejoin:round;stroke:rgb(0%,0%,0%);stroke-opacity:1;stroke-miterlimit:10;" d="M 128.316406 196.65625 L 128.316406 239.082031 L 170.742188 239.082031 L 170.742188 196.65625 L 128.316406 196.65625 "/>
</g>
</svg>
