<?xml version="1.0" encoding="UTF-8"?>
<svg xmlns="http://www.w3.org/2000/svg" xmlns:xlink="http://www.w3.org/1999/xlink" width="517pt" height="517pt" viewBox="0 0 517 517" version="1.1">
<g id="surface5096">
<rect x="0" y="0" width="517" height="517" style="fill:rgb(90%,90%,90%);fill-opacity:1;stroke:none;"/>
<path style="fill:none;stroke-width:5;stroke-linecap:butt;stroke-linejoin:round;stroke:rgb(100%,0%,0%);stroke-opacity:1;stroke-miterlimit:10;" d="M 261 261 L 517 261 L 517 517 L 261 517 Z M 261 261 "/>
<path style="fill-rule:nonzero;fill:rgb(0%,0%,0%);fill-opacity:1;stroke-width:1;stroke-linecap:butt;stroke-linejoin:round;stroke:rgb(0%,0%,0%);stroke-opacity:1;stroke-miterlimit:10;" d="M 299.175781 362.789062 C 299.175781 348.390625 275.175781 348.390625 275.175781 362.789062 C 275.175781 377.1875 299.175781 379.589844 299.175781 391.589844 C 299.175781 379.589844 323.175781 377.1875 323.175781 362.789062 C 323.175781 348.390625 299.175781 348.390625 299.175781 362.789062 "/>
<path style="fill-rule:nonzero;fill:rgb(100%,0%,0%);fill-opacity:1;stroke-width:1;stroke-linecap:butt;stroke-linejoin:round;stroke:rgb(0%,0%,0%);stroke-opacity:1;stroke-miterlimit:10;" d="M 143.578125 161.800781 C 143.578125 147.402344 119.578125 147.402344 119.578125 161.800781 C 119.578125 176.199219 143.578125 178.601562 143.578125 190.601562 C 143.578125 178.601562 167.578125 176.199219 167.578125 161.800781 C 167.578125 147.402344 143.578125 147.402344 143.578125 161.800781 "/>
<path style="fill-rule:nonzero;fill:rgb(0%,0%,0%);fill-opacity:1;stroke-width:1;stroke-linecap:butt;stroke-linejoin:round;stroke:rgb(0%,0%,0%);stroke-opacity:1;stroke-miterlimit:10;" d="M 175.15625 104.308594 C 175.15625 89.90625 151.15625 89.90625 151.15625 104.308594 C 151.15625 118.707031 175.15625 121.109375 175.15625 133.109375 C 175.15625 121.109375 199.15625 118.707031 199.15625 104.308594 C 199.15625 89.90625 175.15625 89.90625 175.15625 104.308594 "/>
<path style="fill-rule:nonzero;fill:rgb(0%,0%,0%);fill-opacity:1;stroke-width:1;stroke-linecap:butt;stroke-linejoin:round;stroke:rgb(0%,0%,0%);stroke-opacity:1;stroke-miterlimit:10;" d="M 302.671875 20.859375 C 302.671875 6.460938 278.671875 6.460938 278.671875 20.859375 C 278.671875 35.261719 302.671875 37.660156 302.671875 49.660156 C 302.671875 37.660156 326.671875 35.261719 326.671875 20.859375 C 326.671875 6.460938 302.671875 6.460938 302.671875 20.859375 "/>
<path style="fill-rule:nonzero;fill:rgb(0%,0%,0%);fill-opacity:1;stroke-width:1;stroke-linecap:butt;stroke-linejoin:round;stroke:rgb(0%,0%,0%);stroke-opacity:1;stroke-miterlimit:10;" d="M 35.839844 393.824219 C 35.839844 379.425781 11.839844 379.425781 11.839844 393.824219 C 11.839844 408.222656 35.839844 410.625 35.839844 422.625 C 35.839844 410.625 59.839844 408.222656 59.839844 393.824219 C 59.839844 379.425781 35.839844 379.425781 35.839844 393.824219 "/>
<path style="fill-rule:nonzero;fill:rgb(0%,0%,0%);fill-opacity:1;stroke-width:1;stroke-linecap:butt;stroke-linejoin:round;stroke:rgb(0%,0%,0%);stroke-opacity:1;stroke-miterlimit:10;" d="M 105.117188 429.949219 C 105.117188 415.546875 81.117188 415.546875 81.117188 429.949219 C 81.117188 444.347656 105.117188 446.75 105.117188 458.75 C 105.117188 446.75 129.117188 444.347656 129.117188 429.949219 C 129.117188 415.546875 105.117188 415.546875 105.117188 429.949219 "/>
</g>
</svg>
