<?xml version="1.0" encoding="UTF-8"?>
<svg xmlns="http://www.w3.org/2000/svg" xmlns:xlink="http://www.w3.org/1999/xlink" width="517pt" height="517pt" viewBox="0 0 517 517" version="1.1">
<g id="surface4981">
<rect x="0" y="0" width="517" height="517" style="fill:rgb(90%,90%,90%);fill-opacity:1;stroke:none;"/>
<path style="fill:none;stroke-width:5;stroke-linecap:butt;stroke-linejoin:round;stroke:rgb(100%,0%,0%);stroke-opacity:1;stroke-miterlimit:10;" d="M 261 261 L 517 261 L 517 517 L 261 517 Z M 261 261 "/>
<path style="fill-rule:nonzero;fill:rgb(67%,100%,18%);fill-opacity:1;stroke-width:1;stroke-linecap:butt;stroke-linejoin:round;stroke:rgb(0%,0%,0%);stroke-opacity:1;stroke-miterlimit:10;" d="M 464.449219 409.4375 C 464.449219 395.039062 440.449219 395.039062 440.449219 409.4375 C 440.449219 423.839844 464.449219 426.238281 464.449219 438.238281 C 464.449219 426.238281 488.449219 423.839844 488.449219 409.4375 C 488.449219 395.039062 464.449219 395.039062 464.449219 409.4375 "/>
<path style="fill-rule:nonzero;fill:rgb(0%,0%,0%);fill-opacity:1;stroke-width:1;stroke-linecap:butt;stroke-linejoin:round;stroke:rgb(0%,0%,0%);stroke-opacity:1;stroke-miterlimit:10;" d="M 384.253906 202.882812 C 384.253906 188.484375 360.253906 188.484375 360.253906 202.882812 C 360.253906 217.285156 384.253906 219.683594 384.253906 231.683594 C 384.253906 219.683594 408.253906 217.285156 408.253906 202.882812 C 408.253906 188.484375 384.253906 188.484375 384.253906 202.882812 "/>
<path style="fill-rule:nonzero;fill:rgb(0%,0%,0%);fill-opacity:1;stroke-width:1;stroke-linecap:butt;stroke-linejoin:round;stroke:rgb(0%,0%,0%);stroke-opacity:1;stroke-miterlimit:10;" d="M 311.390625 109.898438 C 311.390625 95.496094 287.390625 95.496094 287.390625 109.898438 C 287.390625 124.296875 311.390625 126.695312 311.390625 138.695312 C 311.390625 126.695312 335.390625 124.296875 335.390625 109.898438 C 335.390625 95.496094 311.390625 95.496094 311.390625 109.898438 "/>
<path style="fill-rule:nonzero;fill:rgb(0%,0%,0%);fill-opacity:1;stroke-width:1;stroke-linecap:butt;stroke-linejoin:round;stroke:rgb(0%,0%,0%);stroke-opacity:1;stroke-miterlimit:10;" d="M 68.589844 336.304688 C 68.589844 321.902344 44.589844 321.902344 44.589844 336.304688 C 44.589844 350.703125 68.589844 353.101562 68.589844 365.101562 C 68.589844 353.101562 92.589844 350.703125 92.589844 336.304688 C 92.589844 321.902344 68.589844 321.902344 68.589844 336.304688 "/>
<path style="fill-rule:nonzero;fill:rgb(0%,0%,0%);fill-opacity:1;stroke-width:1;stroke-linecap:butt;stroke-linejoin:round;stroke:rgb(0%,0%,0%);stroke-opacity:1;stroke-miterlimit:10;" d="M 79.488281 398.3125 C 79.488281 383.910156 55.488281 383.910156 55.488281 398.3125 C 55.488281 412.710938 79.488281 415.109375 79.488281 427.109375 C 79.488281 415.109375 103.488281 412.710938 103.488281 398.3125 C 103.488281 383.910156 79.488281 383.910156 79.488281 398.3125 "/>
<path style="fill-rule:nonzero;fill:rgb(67%,100%,18%);fill-opacity:1;stroke-width:1;stroke-linecap:butt;stroke-linejoin:round;stroke:rgb(0%,0%,0%);stroke-opacity:1;stroke-miterlimit:10;" d="M 128.179688 205.0625 C 128.179688 190.664062 104.179688 190.664062 104.179688 205.0625 C 104.179688 219.464844 128.179688 221.863281 128.179688 233.863281 C 128.179688 221.863281 152.179688 219.464844 152.179688 205.0625 C 152.179688 190.664062 128.179688 190.664062 128.179688 205.0625 "/>
</g>
</svg>
