<?xml version="1.0" encoding="UTF-8"?>
<svg xmlns="http://www.w3.org/2000/svg" xmlns:xlink="http://www.w3.org/1999/xlink" width="517pt" height="517pt" viewBox="0 0 517 517" version="1.1">
<g id="surface5101">
<rect x="0" y="0" width="517" height="517" style="fill:rgb(90%,90%,90%);fill-opacity:1;stroke:none;"/>
<path style="fill:none;stroke-width:5;stroke-linecap:butt;stroke-linejoin:round;stroke:rgb(100%,0%,0%);stroke-opacity:1;stroke-miterlimit:10;" d="M 261 261 L 517 261 L 517 517 L 261 517 Z M 261 261 "/>
<path style="fill-rule:nonzero;fill:rgb(100%,100%,0%);fill-opacity:1;stroke-width:1;stroke-linecap:butt;stroke-linejoin:round;stroke:rgb(0%,0%,0%);stroke-opacity:1;stroke-miterlimit:10;" d="M 401.691406 308.949219 C 401.691406 294.550781 377.691406 294.550781 377.691406 308.949219 C 377.691406 323.351562 401.691406 325.75 401.691406 337.75 C 401.691406 325.75 425.691406 323.351562 425.691406 308.949219 C 425.691406 294.550781 401.691406 294.550781 401.691406 308.949219 "/>
<path style="fill-rule:nonzero;fill:rgb(100%,0%,0%);fill-opacity:1;stroke-width:1;stroke-linecap:butt;stroke-linejoin:round;stroke:rgb(0%,0%,0%);stroke-opacity:1;stroke-miterlimit:10;" d="M 127.070312 341.925781 C 127.070312 327.527344 103.070312 327.527344 103.070312 341.925781 C 103.070312 356.328125 127.070312 358.726562 127.070312 370.726562 C 127.070312 358.726562 151.070312 356.328125 151.070312 341.925781 C 151.070312 327.527344 127.070312 327.527344 127.070312 341.925781 "/>
<path style="fill-rule:nonzero;fill:rgb(100%,0%,0%);fill-opacity:1;stroke-width:1;stroke-linecap:butt;stroke-linejoin:round;stroke:rgb(0%,0%,0%);stroke-opacity:1;stroke-miterlimit:10;" d="M 173.472656 396.476562 C 173.472656 382.078125 149.472656 382.078125 149.472656 396.476562 C 149.472656 410.878906 173.472656 413.277344 173.472656 425.277344 C 173.472656 413.277344 197.472656 410.878906 197.472656 396.476562 C 197.472656 382.078125 173.472656 382.078125 173.472656 396.476562 "/>
<path style="fill-rule:nonzero;fill:rgb(100%,0%,0%);fill-opacity:1;stroke-width:1;stroke-linecap:butt;stroke-linejoin:round;stroke:rgb(0%,0%,0%);stroke-opacity:1;stroke-miterlimit:10;" d="M 409.324219 137.410156 C 409.324219 123.011719 385.324219 123.011719 385.324219 137.410156 C 385.324219 151.8125 409.324219 154.210938 409.324219 166.210938 C 409.324219 154.210938 433.324219 151.8125 433.324219 137.410156 C 433.324219 123.011719 409.324219 123.011719 409.324219 137.410156 "/>
<path style="fill-rule:nonzero;fill:rgb(100%,0%,0%);fill-opacity:1;stroke-width:1;stroke-linecap:butt;stroke-linejoin:round;stroke:rgb(0%,0%,0%);stroke-opacity:1;stroke-miterlimit:10;" d="M 338.078125 161.738281 C 338.078125 147.335938 314.078125 147.335938 314.078125 161.738281 C 314.078125 176.136719 338.078125 178.539062 338.078125 190.539062 C 338.078125 178.539062 362.078125 176.136719 362.078125 161.738281 C 362.078125 147.335938 338.078125 147.335938 338.078125 161.738281 "/>
<path style="fill-rule:nonzero;fill:rgb(0%,0%,0%);fill-opacity:1;stroke-width:1;stroke-linecap:butt;stroke-linejoin:round;stroke:rgb(0%,0%,0%);stroke-opacity:1;stroke-miterlimit:10;" d="M 465.984375 181.707031 C 465.984375 167.308594 441.984375 167.308594 441.984375 181.707031 C 441.984375 196.109375 465.984375 198.507812 465.984375 210.507812 C 465.984375 198.507812 489.984375 196.109375 489.984375 181.707031 C 489.984375 167.308594 465.984375 167.308594 465.984375 181.707031 "/>
</g>
</svg>
