<?xml version="1.0" encoding="UTF-8"?>
<svg xmlns="http://www.w3.org/2000/svg" xmlns:xlink="http://www.w3.org/1999/xlink" width="517pt" height="517pt" viewBox="0 0 517 517" version="1.1">
<g id="surface4886">
<rect x="0" y="0" width="517" height="517" style="fill:rgb(90%,90%,90%);fill-opacity:1;stroke:none;"/>
<path style="fill:none;stroke-width:5;stroke-linecap:butt;stroke-linejoin:round;stroke:rgb(100%,0%,0%);stroke-opacity:1;stroke-miterlimit:10;" d="M 5 261 L 261 261 L 261 517 L 5 517 Z M 5 261 "/>
<path style="fill-rule:nonzero;fill:rgb(90%,65%,0%);fill-opacity:1;stroke-width:1;stroke-linecap:butt;stroke-linejoin:round;stroke:rgb(0%,0%,0%);stroke-opacity:1;stroke-miterlimit:10;" d="M 155.761719 416.089844 C 155.761719 401.6875 131.761719 401.6875 131.761719 416.089844 C 131.761719 430.488281 155.761719 432.886719 155.761719 444.886719 C 155.761719 432.886719 179.761719 430.488281 179.761719 416.089844 C 179.761719 401.6875 155.761719 401.6875 155.761719 416.089844 "/>
<path style="fill-rule:nonzero;fill:rgb(100%,7%,57%);fill-opacity:1;stroke-width:1;stroke-linecap:butt;stroke-linejoin:round;stroke:rgb(0%,0%,0%);stroke-opacity:1;stroke-miterlimit:10;" d="M 428.105469 203.742188 C 428.105469 189.34375 404.105469 189.34375 404.105469 203.742188 C 404.105469 218.144531 428.105469 220.542969 428.105469 232.542969 C 428.105469 220.542969 452.105469 218.144531 452.105469 203.742188 C 452.105469 189.34375 428.105469 189.34375 428.105469 203.742188 "/>
<path style="fill-rule:nonzero;fill:rgb(100%,7%,57%);fill-opacity:1;stroke-width:1;stroke-linecap:butt;stroke-linejoin:round;stroke:rgb(0%,0%,0%);stroke-opacity:1;stroke-miterlimit:10;" d="M 416.535156 61.484375 C 416.535156 47.085938 392.535156 47.085938 392.535156 61.484375 C 392.535156 75.882812 416.535156 78.285156 416.535156 90.285156 C 416.535156 78.285156 440.535156 75.882812 440.535156 61.484375 C 440.535156 47.085938 416.535156 47.085938 416.535156 61.484375 "/>
<path style="fill-rule:nonzero;fill:rgb(100%,7%,57%);fill-opacity:1;stroke-width:1;stroke-linecap:butt;stroke-linejoin:round;stroke:rgb(0%,0%,0%);stroke-opacity:1;stroke-miterlimit:10;" d="M 432.96875 340.699219 C 432.96875 326.300781 408.96875 326.300781 408.96875 340.699219 C 408.96875 355.101562 432.96875 357.5 432.96875 369.5 C 432.96875 357.5 456.96875 355.101562 456.96875 340.699219 C 456.96875 326.300781 432.96875 326.300781 432.96875 340.699219 "/>
<path style="fill-rule:nonzero;fill:rgb(100%,7%,57%);fill-opacity:1;stroke-width:1;stroke-linecap:butt;stroke-linejoin:round;stroke:rgb(0%,0%,0%);stroke-opacity:1;stroke-miterlimit:10;" d="M 166.777344 186.378906 C 166.777344 171.980469 142.777344 171.980469 142.777344 186.378906 C 142.777344 200.78125 166.777344 203.179688 166.777344 215.179688 C 166.777344 203.179688 190.777344 200.78125 190.777344 186.378906 C 190.777344 171.980469 166.777344 171.980469 166.777344 186.378906 "/>
<path style="fill-rule:nonzero;fill:rgb(100%,7%,57%);fill-opacity:1;stroke-width:1;stroke-linecap:butt;stroke-linejoin:round;stroke:rgb(0%,0%,0%);stroke-opacity:1;stroke-miterlimit:10;" d="M 191.675781 86.808594 C 191.675781 72.410156 167.675781 72.410156 167.675781 86.808594 C 167.675781 101.210938 191.675781 103.609375 191.675781 115.609375 C 191.675781 103.609375 215.675781 101.210938 215.675781 86.808594 C 215.675781 72.410156 191.675781 72.410156 191.675781 86.808594 "/>
</g>
</svg>
