<?xml version="1.0" encoding="UTF-8"?>
<svg xmlns="http://www.w3.org/2000/svg" xmlns:xlink="http://www.w3.org/1999/xlink" width="517pt" height="517pt" viewBox="0 0 517 517" version="1.1">
<g id="surface5031">
<rect x="0" y="0" width="517" height="517" style="fill:rgb(90%,90%,90%);fill-opacity:1;stroke:none;"/>
<path style="fill:none;stroke-width:5;stroke-linecap:butt;stroke-linejoin:round;stroke:rgb(100%,0%,0%);stroke-opacity:1;stroke-miterlimit:10;" d="M 261 261 L 517 261 L 517 517 L 261 517 Z M 261 261 "/>
<path style="fill-rule:nonzero;fill:rgb(0%,0%,0%);fill-opacity:1;stroke-width:1;stroke-linecap:butt;stroke-linejoin:round;stroke:rgb(0%,0%,0%);stroke-opacity:1;stroke-miterlimit:10;" d="M 346.054688 298.699219 C 346.054688 284.296875 322.054688 284.296875 322.054688 298.699219 C 322.054688 313.097656 346.054688 315.496094 346.054688 327.496094 C 346.054688 315.496094 370.054688 313.097656 370.054688 298.699219 C 370.054688 284.296875 346.054688 284.296875 346.054688 298.699219 "/>
<path style="fill-rule:nonzero;fill:rgb(0%,0%,0%);fill-opacity:1;stroke-width:1;stroke-linecap:butt;stroke-linejoin:round;stroke:rgb(0%,0%,0%);stroke-opacity:1;stroke-miterlimit:10;" d="M 160.339844 133.65625 C 160.339844 119.253906 136.339844 119.253906 136.339844 133.65625 C 136.339844 148.054688 160.339844 150.453125 160.339844 162.453125 C 160.339844 150.453125 184.339844 148.054688 184.339844 133.65625 C 184.339844 119.253906 160.339844 119.253906 160.339844 133.65625 "/>
<path style="fill-rule:nonzero;fill:rgb(67%,100%,18%);fill-opacity:1;stroke-width:1;stroke-linecap:butt;stroke-linejoin:round;stroke:rgb(0%,0%,0%);stroke-opacity:1;stroke-miterlimit:10;" d="M 474.75 34.429688 C 474.75 20.03125 450.75 20.03125 450.75 34.429688 C 450.75 48.832031 474.75 51.230469 474.75 63.230469 C 474.75 51.230469 498.75 48.832031 498.75 34.429688 C 498.75 20.03125 474.75 20.03125 474.75 34.429688 "/>
<path style="fill-rule:nonzero;fill:rgb(67%,100%,18%);fill-opacity:1;stroke-width:1;stroke-linecap:butt;stroke-linejoin:round;stroke:rgb(0%,0%,0%);stroke-opacity:1;stroke-miterlimit:10;" d="M 400.753906 142.191406 C 400.753906 127.792969 376.753906 127.792969 376.753906 142.191406 C 376.753906 156.59375 400.753906 158.992188 400.753906 170.992188 C 400.753906 158.992188 424.753906 156.59375 424.753906 142.191406 C 424.753906 127.792969 400.753906 127.792969 400.753906 142.191406 "/>
<path style="fill-rule:nonzero;fill:rgb(67%,100%,18%);fill-opacity:1;stroke-width:1;stroke-linecap:butt;stroke-linejoin:round;stroke:rgb(0%,0%,0%);stroke-opacity:1;stroke-miterlimit:10;" d="M 305.265625 139.277344 C 305.265625 124.878906 281.265625 124.878906 281.265625 139.277344 C 281.265625 153.675781 305.265625 156.078125 305.265625 168.078125 C 305.265625 156.078125 329.265625 153.675781 329.265625 139.277344 C 329.265625 124.878906 305.265625 124.878906 305.265625 139.277344 "/>
<path style="fill-rule:nonzero;fill:rgb(67%,100%,18%);fill-opacity:1;stroke-width:1;stroke-linecap:butt;stroke-linejoin:round;stroke:rgb(0%,0%,0%);stroke-opacity:1;stroke-miterlimit:10;" d="M 58.6875 441.265625 C 58.6875 426.867188 34.6875 426.867188 34.6875 441.265625 C 34.6875 455.667969 58.6875 458.066406 58.6875 470.066406 C 58.6875 458.066406 82.6875 455.667969 82.6875 441.265625 C 82.6875 426.867188 58.6875 426.867188 58.6875 441.265625 "/>
</g>
</svg>
