<?xml version="1.0" encoding="UTF-8"?>
<svg xmlns="http://www.w3.org/2000/svg" xmlns:xlink="http://www.w3.org/1999/xlink" width="517pt" height="517pt" viewBox="0 0 517 517" version="1.1">
<g id="surface5536">
<rect x="0" y="0" width="517" height="517" style="fill:rgb(90%,90%,90%);fill-opacity:1;stroke:none;"/>
<path style="fill-rule:nonzero;fill:rgb(90%,65%,0%);fill-opacity:1;stroke-width:1;stroke-linecap:butt;stroke-linejoin:miter;stroke:rgb(0%,0%,0%);stroke-opacity:1;stroke-miterlimit:10;" d="M 138.957031 56.265625 C 138.957031 72.835938 125.527344 86.265625 108.957031 86.265625 C 92.390625 86.265625 78.957031 72.835938 78.957031 56.265625 C 78.957031 39.699219 92.390625 26.265625 108.957031 26.265625 C 125.527344 26.265625 138.957031 39.699219 138.957031 56.265625 "/>
<path style="fill-rule:nonzero;fill:rgb(50%,0%,50%);fill-opacity:1;stroke-width:1;stroke-linecap:butt;stroke-linejoin:miter;stroke:rgb(0%,0%,0%);stroke-opacity:1;stroke-miterlimit:10;" d="M 224.609375 154.558594 C 224.609375 171.125 211.175781 184.558594 194.609375 184.558594 C 178.039062 184.558594 164.609375 171.125 164.609375 154.558594 C 164.609375 137.988281 178.039062 124.558594 194.609375 124.558594 C 211.175781 124.558594 224.609375 137.988281 224.609375 154.558594 "/>
<path style="fill-rule:nonzero;fill:rgb(50%,0%,50%);fill-opacity:1;stroke-width:1;stroke-linecap:butt;stroke-linejoin:miter;stroke:rgb(0%,0%,0%);stroke-opacity:1;stroke-miterlimit:10;" d="M 457.226562 207.441406 C 457.226562 224.011719 443.792969 237.441406 427.226562 237.441406 C 410.65625 237.441406 397.226562 224.011719 397.226562 207.441406 C 397.226562 190.875 410.65625 177.441406 427.226562 177.441406 C 443.792969 177.441406 457.226562 190.875 457.226562 207.441406 "/>
<path style="fill-rule:nonzero;fill:rgb(50%,0%,50%);fill-opacity:1;stroke-width:1;stroke-linecap:butt;stroke-linejoin:miter;stroke:rgb(0%,0%,0%);stroke-opacity:1;stroke-miterlimit:10;" d="M 375.324219 53.519531 C 375.324219 70.089844 361.894531 83.519531 345.324219 83.519531 C 328.757812 83.519531 315.324219 70.089844 315.324219 53.519531 C 315.324219 36.949219 328.757812 23.519531 345.324219 23.519531 C 361.894531 23.519531 375.324219 36.949219 375.324219 53.519531 "/>
<path style="fill-rule:nonzero;fill:rgb(50%,0%,50%);fill-opacity:1;stroke-width:1;stroke-linecap:butt;stroke-linejoin:miter;stroke:rgb(0%,0%,0%);stroke-opacity:1;stroke-miterlimit:10;" d="M 479.613281 148.414062 C 479.613281 164.984375 466.183594 178.414062 449.613281 178.414062 C 433.046875 178.414062 419.613281 164.984375 419.613281 148.414062 C 419.613281 131.84375 433.046875 118.414062 449.613281 118.414062 C 466.183594 118.414062 479.613281 131.84375 479.613281 148.414062 "/>
<path style="fill-rule:nonzero;fill:rgb(50%,0%,50%);fill-opacity:1;stroke-width:1;stroke-linecap:butt;stroke-linejoin:miter;stroke:rgb(0%,0%,0%);stroke-opacity:1;stroke-miterlimit:10;" d="M 137.769531 313.585938 C 137.769531 330.15625 124.339844 343.585938 107.769531 343.585938 C 91.203125 343.585938 77.769531 330.15625 77.769531 313.585938 C 77.769531 297.019531 91.203125 283.585938 107.769531 283.585938 C 124.339844 283.585938 137.769531 297.019531 137.769531 313.585938 "/>
<path style="fill-rule:nonzero;fill:rgb(50%,0%,50%);fill-opacity:1;stroke-width:1;stroke-linecap:butt;stroke-linejoin:miter;stroke:rgb(0%,0%,0%);stroke-opacity:1;stroke-miterlimit:10;" d="M 202.285156 439.359375 C 202.285156 455.925781 188.851562 469.359375 172.285156 469.359375 C 155.714844 469.359375 142.285156 455.925781 142.285156 439.359375 C 142.285156 422.789062 155.714844 409.359375 172.285156 409.359375 C 188.851562 409.359375 202.285156 422.789062 202.285156 439.359375 "/>
<path style="fill-rule:nonzero;fill:rgb(50%,0%,50%);fill-opacity:1;stroke-width:1;stroke-linecap:butt;stroke-linejoin:miter;stroke:rgb(0%,0%,0%);stroke-opacity:1;stroke-miterlimit:10;" d="M 94.859375 447.277344 C 94.859375 463.847656 81.425781 477.277344 64.859375 477.277344 C 48.289062 477.277344 34.859375 463.847656 34.859375 447.277344 C 34.859375 430.710938 48.289062 417.277344 64.859375 417.277344 C 81.425781 417.277344 94.859375 430.710938 94.859375 447.277344 "/>
</g>
</svg>
