<?xml version="1.0" encoding="UTF-8"?>
<svg xmlns="http://www.w3.org/2000/svg" xmlns:xlink="http://www.w3.org/1999/xlink" width="517pt" height="517pt" viewBox="0 0 517 517" version="1.1">
<g id="surface4901">
<rect x="0" y="0" width="517" height="517" style="fill:rgb(90%,90%,90%);fill-opacity:1;stroke:none;"/>
<path style="fill:none;stroke-width:5;stroke-linecap:butt;stroke-linejoin:round;stroke:rgb(100%,0%,0%);stroke-opacity:1;stroke-miterlimit:10;" d="M 5 261 L 261 261 L 261 517 L 5 517 Z M 5 261 "/>
<path style="fill-rule:nonzero;fill:rgb(90%,65%,0%);fill-opacity:1;stroke-width:1;stroke-linecap:butt;stroke-linejoin:round;stroke:rgb(0%,0%,0%);stroke-opacity:1;stroke-miterlimit:10;" d="M 153.648438 391.179688 C 153.648438 376.777344 129.648438 376.777344 129.648438 391.179688 C 129.648438 405.578125 153.648438 407.976562 153.648438 419.976562 C 153.648438 407.976562 177.648438 405.578125 177.648438 391.179688 C 177.648438 376.777344 153.648438 376.777344 153.648438 391.179688 "/>
<path style="fill-rule:nonzero;fill:rgb(100%,7%,57%);fill-opacity:1;stroke-width:1;stroke-linecap:butt;stroke-linejoin:round;stroke:rgb(0%,0%,0%);stroke-opacity:1;stroke-miterlimit:10;" d="M 376.445312 345.476562 C 376.445312 331.078125 352.445312 331.078125 352.445312 345.476562 C 352.445312 359.878906 376.445312 362.277344 376.445312 374.277344 C 376.445312 362.277344 400.445312 359.878906 400.445312 345.476562 C 400.445312 331.078125 376.445312 331.078125 376.445312 345.476562 "/>
<path style="fill-rule:nonzero;fill:rgb(100%,7%,57%);fill-opacity:1;stroke-width:1;stroke-linecap:butt;stroke-linejoin:round;stroke:rgb(0%,0%,0%);stroke-opacity:1;stroke-miterlimit:10;" d="M 471.625 292.832031 C 471.625 278.433594 447.625 278.433594 447.625 292.832031 C 447.625 307.234375 471.625 309.632812 471.625 321.632812 C 471.625 309.632812 495.625 307.234375 495.625 292.832031 C 495.625 278.433594 471.625 278.433594 471.625 292.832031 "/>
<path style="fill-rule:nonzero;fill:rgb(100%,7%,57%);fill-opacity:1;stroke-width:1;stroke-linecap:butt;stroke-linejoin:round;stroke:rgb(0%,0%,0%);stroke-opacity:1;stroke-miterlimit:10;" d="M 317.234375 44.839844 C 317.234375 30.4375 293.234375 30.4375 293.234375 44.839844 C 293.234375 59.238281 317.234375 61.636719 317.234375 73.636719 C 317.234375 61.636719 341.234375 59.238281 341.234375 44.839844 C 341.234375 30.4375 317.234375 30.4375 317.234375 44.839844 "/>
<path style="fill-rule:nonzero;fill:rgb(100%,7%,57%);fill-opacity:1;stroke-width:1;stroke-linecap:butt;stroke-linejoin:round;stroke:rgb(0%,0%,0%);stroke-opacity:1;stroke-miterlimit:10;" d="M 51.832031 45.117188 C 51.832031 30.714844 27.832031 30.714844 27.832031 45.117188 C 27.832031 59.515625 51.832031 61.917969 51.832031 73.917969 C 51.832031 61.917969 75.832031 59.515625 75.832031 45.117188 C 75.832031 30.714844 51.832031 30.714844 51.832031 45.117188 "/>
<path style="fill-rule:nonzero;fill:rgb(90%,65%,0%);fill-opacity:1;stroke-width:1;stroke-linecap:butt;stroke-linejoin:round;stroke:rgb(0%,0%,0%);stroke-opacity:1;stroke-miterlimit:10;" d="M 118.550781 26.675781 C 118.550781 12.277344 94.550781 12.277344 94.550781 26.675781 C 94.550781 41.074219 118.550781 43.476562 118.550781 55.476562 C 118.550781 43.476562 142.550781 41.074219 142.550781 26.675781 C 142.550781 12.277344 118.550781 12.277344 118.550781 26.675781 "/>
</g>
</svg>
