<?xml version="1.0" encoding="UTF-8"?>
<svg xmlns="http://www.w3.org/2000/svg" xmlns:xlink="http://www.w3.org/1999/xlink" width="517pt" height="517pt" viewBox="0 0 517 517" version="1.1">
<g id="surface4916">
<rect x="0" y="0" width="517" height="517" style="fill:rgb(90%,90%,90%);fill-opacity:1;stroke:none;"/>
<path style="fill:none;stroke-width:5;stroke-linecap:butt;stroke-linejoin:round;stroke:rgb(100%,0%,0%);stroke-opacity:1;stroke-miterlimit:10;" d="M 5 261 L 261 261 L 261 517 L 5 517 Z M 5 261 "/>
<path style="fill-rule:nonzero;fill:rgb(90%,65%,0%);fill-opacity:1;stroke-width:1;stroke-linecap:butt;stroke-linejoin:round;stroke:rgb(0%,0%,0%);stroke-opacity:1;stroke-miterlimit:10;" d="M 103.820312 434.148438 C 103.820312 419.75 79.820312 419.75 79.820312 434.148438 C 79.820312 448.550781 103.820312 450.949219 103.820312 462.949219 C 103.820312 450.949219 127.820312 448.550781 127.820312 434.148438 C 127.820312 419.75 103.820312 419.75 103.820312 434.148438 "/>
<path style="fill-rule:nonzero;fill:rgb(100%,7%,57%);fill-opacity:1;stroke-width:1;stroke-linecap:butt;stroke-linejoin:round;stroke:rgb(0%,0%,0%);stroke-opacity:1;stroke-miterlimit:10;" d="M 358.945312 71.671875 C 358.945312 57.273438 334.945312 57.273438 334.945312 71.671875 C 334.945312 86.074219 358.945312 88.472656 358.945312 100.472656 C 358.945312 88.472656 382.945312 86.074219 382.945312 71.671875 C 382.945312 57.273438 358.945312 57.273438 358.945312 71.671875 "/>
<path style="fill-rule:nonzero;fill:rgb(100%,7%,57%);fill-opacity:1;stroke-width:1;stroke-linecap:butt;stroke-linejoin:round;stroke:rgb(0%,0%,0%);stroke-opacity:1;stroke-miterlimit:10;" d="M 417.054688 314.890625 C 417.054688 300.488281 393.054688 300.488281 393.054688 314.890625 C 393.054688 329.289062 417.054688 331.691406 417.054688 343.691406 C 417.054688 331.691406 441.054688 329.289062 441.054688 314.890625 C 441.054688 300.488281 417.054688 300.488281 417.054688 314.890625 "/>
<path style="fill-rule:nonzero;fill:rgb(100%,7%,57%);fill-opacity:1;stroke-width:1;stroke-linecap:butt;stroke-linejoin:round;stroke:rgb(0%,0%,0%);stroke-opacity:1;stroke-miterlimit:10;" d="M 425.050781 426.777344 C 425.050781 412.378906 401.050781 412.378906 401.050781 426.777344 C 401.050781 441.179688 425.050781 443.578125 425.050781 455.578125 C 425.050781 443.578125 449.050781 441.179688 449.050781 426.777344 C 449.050781 412.378906 425.050781 412.378906 425.050781 426.777344 "/>
<path style="fill-rule:nonzero;fill:rgb(100%,7%,57%);fill-opacity:1;stroke-width:1;stroke-linecap:butt;stroke-linejoin:round;stroke:rgb(0%,0%,0%);stroke-opacity:1;stroke-miterlimit:10;" d="M 361.722656 291.484375 C 361.722656 277.082031 337.722656 277.082031 337.722656 291.484375 C 337.722656 305.882812 361.722656 308.28125 361.722656 320.28125 C 361.722656 308.28125 385.722656 305.882812 385.722656 291.484375 C 385.722656 277.082031 361.722656 277.082031 361.722656 291.484375 "/>
<path style="fill-rule:nonzero;fill:rgb(90%,65%,0%);fill-opacity:1;stroke-width:1;stroke-linecap:butt;stroke-linejoin:round;stroke:rgb(0%,0%,0%);stroke-opacity:1;stroke-miterlimit:10;" d="M 299.539062 341.054688 C 299.539062 326.65625 275.539062 326.65625 275.539062 341.054688 C 275.539062 355.457031 299.539062 357.855469 299.539062 369.855469 C 299.539062 357.855469 323.539062 355.457031 323.539062 341.054688 C 323.539062 326.65625 299.539062 326.65625 299.539062 341.054688 "/>
</g>
</svg>
