<?xml version="1.0" encoding="UTF-8"?>
<svg xmlns="http://www.w3.org/2000/svg" xmlns:xlink="http://www.w3.org/1999/xlink" width="517pt" height="517pt" viewBox="0 0 517 517" version="1.1">
<g id="surface4756">
<rect x="0" y="0" width="517" height="517" style="fill:rgb(90%,90%,90%);fill-opacity:1;stroke:none;"/>
<path style="fill:none;stroke-width:5;stroke-linecap:butt;stroke-linejoin:round;stroke:rgb(100%,0%,0%);stroke-opacity:1;stroke-miterlimit:10;" d="M 5 261 L 261 261 L 261 517 L 5 517 Z M 5 261 "/>
<path style="fill-rule:nonzero;fill:rgb(53%,27%,7%);fill-opacity:1;stroke-width:1;stroke-linecap:butt;stroke-linejoin:round;stroke:rgb(0%,0%,0%);stroke-opacity:1;stroke-miterlimit:10;" d="M 76.730469 314.613281 C 76.730469 300.210938 52.730469 300.210938 52.730469 314.613281 C 52.730469 329.011719 76.730469 331.414062 76.730469 343.414062 C 76.730469 331.414062 100.730469 329.011719 100.730469 314.613281 C 100.730469 300.210938 76.730469 300.210938 76.730469 314.613281 "/>
<path style="fill-rule:nonzero;fill:rgb(100%,0%,0%);fill-opacity:1;stroke-width:1;stroke-linecap:butt;stroke-linejoin:round;stroke:rgb(0%,0%,0%);stroke-opacity:1;stroke-miterlimit:10;" d="M 349.945312 131.652344 C 349.945312 117.253906 325.945312 117.253906 325.945312 131.652344 C 325.945312 146.050781 349.945312 148.453125 349.945312 160.453125 C 349.945312 148.453125 373.945312 146.050781 373.945312 131.652344 C 373.945312 117.253906 349.945312 117.253906 349.945312 131.652344 "/>
<path style="fill-rule:nonzero;fill:rgb(100%,0%,0%);fill-opacity:1;stroke-width:1;stroke-linecap:butt;stroke-linejoin:round;stroke:rgb(0%,0%,0%);stroke-opacity:1;stroke-miterlimit:10;" d="M 180.765625 113.304688 C 180.765625 98.90625 156.765625 98.90625 156.765625 113.304688 C 156.765625 127.707031 180.765625 130.105469 180.765625 142.105469 C 180.765625 130.105469 204.765625 127.707031 204.765625 113.304688 C 204.765625 98.90625 180.765625 98.90625 180.765625 113.304688 "/>
<path style="fill-rule:nonzero;fill:rgb(100%,0%,0%);fill-opacity:1;stroke-width:1;stroke-linecap:butt;stroke-linejoin:round;stroke:rgb(0%,0%,0%);stroke-opacity:1;stroke-miterlimit:10;" d="M 433.449219 341.050781 C 433.449219 326.652344 409.449219 326.652344 409.449219 341.050781 C 409.449219 355.449219 433.449219 357.851562 433.449219 369.851562 C 433.449219 357.851562 457.449219 355.449219 457.449219 341.050781 C 457.449219 326.652344 433.449219 326.652344 433.449219 341.050781 "/>
<path style="fill-rule:nonzero;fill:rgb(100%,0%,0%);fill-opacity:1;stroke-width:1;stroke-linecap:butt;stroke-linejoin:round;stroke:rgb(0%,0%,0%);stroke-opacity:1;stroke-miterlimit:10;" d="M 355.617188 313.488281 C 355.617188 299.085938 331.617188 299.085938 331.617188 313.488281 C 331.617188 327.886719 355.617188 330.285156 355.617188 342.285156 C 355.617188 330.285156 379.617188 327.886719 379.617188 313.488281 C 379.617188 299.085938 355.617188 299.085938 355.617188 313.488281 "/>
<path style="fill-rule:nonzero;fill:rgb(53%,27%,7%);fill-opacity:1;stroke-width:1;stroke-linecap:butt;stroke-linejoin:round;stroke:rgb(0%,0%,0%);stroke-opacity:1;stroke-miterlimit:10;" d="M 454.523438 282.746094 C 454.523438 268.347656 430.523438 268.347656 430.523438 282.746094 C 430.523438 297.148438 454.523438 299.546875 454.523438 311.546875 C 454.523438 299.546875 478.523438 297.148438 478.523438 282.746094 C 478.523438 268.347656 454.523438 268.347656 454.523438 282.746094 "/>
</g>
</svg>
