<?xml version="1.0" encoding="UTF-8"?>
<svg xmlns="http://www.w3.org/2000/svg" xmlns:xlink="http://www.w3.org/1999/xlink" width="517pt" height="517pt" viewBox="0 0 517 517" version="1.1">
<g id="surface4991">
<rect x="0" y="0" width="517" height="517" style="fill:rgb(90%,90%,90%);fill-opacity:1;stroke:none;"/>
<path style="fill:none;stroke-width:5;stroke-linecap:butt;stroke-linejoin:round;stroke:rgb(100%,0%,0%);stroke-opacity:1;stroke-miterlimit:10;" d="M 261 261 L 517 261 L 517 517 L 261 517 Z M 261 261 "/>
<path style="fill-rule:nonzero;fill:rgb(67%,100%,18%);fill-opacity:1;stroke-width:1;stroke-linecap:butt;stroke-linejoin:round;stroke:rgb(0%,0%,0%);stroke-opacity:1;stroke-miterlimit:10;" d="M 384.367188 374.460938 C 384.367188 360.0625 360.367188 360.0625 360.367188 374.460938 C 360.367188 388.863281 384.367188 391.261719 384.367188 403.261719 C 384.367188 391.261719 408.367188 388.863281 408.367188 374.460938 C 408.367188 360.0625 384.367188 360.0625 384.367188 374.460938 "/>
<path style="fill-rule:nonzero;fill:rgb(0%,0%,0%);fill-opacity:1;stroke-width:1;stroke-linecap:butt;stroke-linejoin:round;stroke:rgb(0%,0%,0%);stroke-opacity:1;stroke-miterlimit:10;" d="M 457.035156 91.667969 C 457.035156 77.265625 433.035156 77.265625 433.035156 91.667969 C 433.035156 106.066406 457.035156 108.464844 457.035156 120.464844 C 457.035156 108.464844 481.035156 106.066406 481.035156 91.667969 C 481.035156 77.265625 457.035156 77.265625 457.035156 91.667969 "/>
<path style="fill-rule:nonzero;fill:rgb(0%,0%,0%);fill-opacity:1;stroke-width:1;stroke-linecap:butt;stroke-linejoin:round;stroke:rgb(0%,0%,0%);stroke-opacity:1;stroke-miterlimit:10;" d="M 64.191406 115.585938 C 64.191406 101.1875 40.191406 101.1875 40.191406 115.585938 C 40.191406 129.988281 64.191406 132.386719 64.191406 144.386719 C 64.191406 132.386719 88.191406 129.988281 88.191406 115.585938 C 88.191406 101.1875 64.191406 101.1875 64.191406 115.585938 "/>
<path style="fill-rule:nonzero;fill:rgb(0%,0%,0%);fill-opacity:1;stroke-width:1;stroke-linecap:butt;stroke-linejoin:round;stroke:rgb(0%,0%,0%);stroke-opacity:1;stroke-miterlimit:10;" d="M 95.332031 392.175781 C 95.332031 377.773438 71.332031 377.773438 71.332031 392.175781 C 71.332031 406.574219 95.332031 408.976562 95.332031 420.976562 C 95.332031 408.976562 119.332031 406.574219 119.332031 392.175781 C 119.332031 377.773438 95.332031 377.773438 95.332031 392.175781 "/>
<path style="fill-rule:nonzero;fill:rgb(0%,0%,0%);fill-opacity:1;stroke-width:1;stroke-linecap:butt;stroke-linejoin:round;stroke:rgb(0%,0%,0%);stroke-opacity:1;stroke-miterlimit:10;" d="M 40.445312 280.171875 C 40.445312 265.773438 16.445312 265.773438 16.445312 280.171875 C 16.445312 294.574219 40.445312 296.972656 40.445312 308.972656 C 40.445312 296.972656 64.445312 294.574219 64.445312 280.171875 C 64.445312 265.773438 40.445312 265.773438 40.445312 280.171875 "/>
<path style="fill-rule:nonzero;fill:rgb(67%,100%,18%);fill-opacity:1;stroke-width:1;stroke-linecap:butt;stroke-linejoin:round;stroke:rgb(0%,0%,0%);stroke-opacity:1;stroke-miterlimit:10;" d="M 155.1875 353.203125 C 155.1875 338.800781 131.1875 338.800781 131.1875 353.203125 C 131.1875 367.601562 155.1875 370 155.1875 382 C 155.1875 370 179.1875 367.601562 179.1875 353.203125 C 179.1875 338.800781 155.1875 338.800781 155.1875 353.203125 "/>
</g>
</svg>
