<?xml version="1.0" encoding="UTF-8"?>
<svg xmlns="http://www.w3.org/2000/svg" xmlns:xlink="http://www.w3.org/1999/xlink" width="517pt" height="517pt" viewBox="0 0 517 517" version="1.1">
<g id="surface5111">
<rect x="0" y="0" width="517" height="517" style="fill:rgb(90%,90%,90%);fill-opacity:1;stroke:none;"/>
<path style="fill:none;stroke-width:5;stroke-linecap:butt;stroke-linejoin:round;stroke:rgb(100%,0%,0%);stroke-opacity:1;stroke-miterlimit:10;" d="M 261 261 L 517 261 L 517 517 L 261 517 Z M 261 261 "/>
<path style="fill-rule:nonzero;fill:rgb(100%,100%,0%);fill-opacity:1;stroke-width:1;stroke-linecap:butt;stroke-linejoin:round;stroke:rgb(0%,0%,0%);stroke-opacity:1;stroke-miterlimit:10;" d="M 399.488281 418.164062 C 399.488281 403.765625 375.488281 403.765625 375.488281 418.164062 C 375.488281 432.566406 399.488281 434.964844 399.488281 446.964844 C 399.488281 434.964844 423.488281 432.566406 423.488281 418.164062 C 423.488281 403.765625 399.488281 403.765625 399.488281 418.164062 "/>
<path style="fill-rule:nonzero;fill:rgb(100%,0%,0%);fill-opacity:1;stroke-width:1;stroke-linecap:butt;stroke-linejoin:round;stroke:rgb(0%,0%,0%);stroke-opacity:1;stroke-miterlimit:10;" d="M 343.449219 137.527344 C 343.449219 123.125 319.449219 123.125 319.449219 137.527344 C 319.449219 151.925781 343.449219 154.324219 343.449219 166.324219 C 343.449219 154.324219 367.449219 151.925781 367.449219 137.527344 C 367.449219 123.125 343.449219 123.125 343.449219 137.527344 "/>
<path style="fill-rule:nonzero;fill:rgb(0%,0%,0%);fill-opacity:1;stroke-width:1;stroke-linecap:butt;stroke-linejoin:round;stroke:rgb(0%,0%,0%);stroke-opacity:1;stroke-miterlimit:10;" d="M 112.460938 414.183594 C 112.460938 399.785156 88.460938 399.785156 88.460938 414.183594 C 88.460938 428.585938 112.460938 430.984375 112.460938 442.984375 C 112.460938 430.984375 136.460938 428.585938 136.460938 414.183594 C 136.460938 399.785156 112.460938 399.785156 112.460938 414.183594 "/>
<path style="fill-rule:nonzero;fill:rgb(0%,0%,0%);fill-opacity:1;stroke-width:1;stroke-linecap:butt;stroke-linejoin:round;stroke:rgb(0%,0%,0%);stroke-opacity:1;stroke-miterlimit:10;" d="M 206.570312 367.976562 C 206.570312 353.578125 182.570312 353.578125 182.570312 367.976562 C 182.570312 382.375 206.570312 384.777344 206.570312 396.777344 C 206.570312 384.777344 230.570312 382.375 230.570312 367.976562 C 230.570312 353.578125 206.570312 353.578125 206.570312 367.976562 "/>
<path style="fill-rule:nonzero;fill:rgb(0%,0%,0%);fill-opacity:1;stroke-width:1;stroke-linecap:butt;stroke-linejoin:round;stroke:rgb(0%,0%,0%);stroke-opacity:1;stroke-miterlimit:10;" d="M 220.148438 446.671875 C 220.148438 432.269531 196.148438 432.269531 196.148438 446.671875 C 196.148438 461.070312 220.148438 463.472656 220.148438 475.472656 C 220.148438 463.472656 244.148438 461.070312 244.148438 446.671875 C 244.148438 432.269531 220.148438 432.269531 220.148438 446.671875 "/>
<path style="fill-rule:nonzero;fill:rgb(0%,0%,0%);fill-opacity:1;stroke-width:1;stroke-linecap:butt;stroke-linejoin:round;stroke:rgb(0%,0%,0%);stroke-opacity:1;stroke-miterlimit:10;" d="M 133.574219 326.617188 C 133.574219 312.214844 109.574219 312.214844 109.574219 326.617188 C 109.574219 341.015625 133.574219 343.417969 133.574219 355.417969 C 133.574219 343.417969 157.574219 341.015625 157.574219 326.617188 C 157.574219 312.214844 133.574219 312.214844 133.574219 326.617188 "/>
</g>
</svg>
