<?xml version="1.0" encoding="UTF-8"?>
<svg xmlns="http://www.w3.org/2000/svg" xmlns:xlink="http://www.w3.org/1999/xlink" width="517pt" height="517pt" viewBox="0 0 517 517" version="1.1">
<g id="surface5566">
<rect x="0" y="0" width="517" height="517" style="fill:rgb(90%,90%,90%);fill-opacity:1;stroke:none;"/>
<path style="fill-rule:nonzero;fill:rgb(50%,0%,50%);fill-opacity:1;stroke-width:1;stroke-linecap:butt;stroke-linejoin:miter;stroke:rgb(0%,0%,0%);stroke-opacity:1;stroke-miterlimit:10;" d="M 330.71875 48.203125 C 330.71875 64.769531 317.285156 78.203125 300.71875 78.203125 C 284.148438 78.203125 270.71875 64.769531 270.71875 48.203125 C 270.71875 31.632812 284.148438 18.203125 300.71875 18.203125 C 317.285156 18.203125 330.71875 31.632812 330.71875 48.203125 "/>
<path style="fill-rule:nonzero;fill:rgb(50%,0%,50%);fill-opacity:1;stroke-width:1;stroke-linecap:butt;stroke-linejoin:miter;stroke:rgb(0%,0%,0%);stroke-opacity:1;stroke-miterlimit:10;" d="M 350.121094 132.429688 C 350.121094 149 336.691406 162.429688 320.121094 162.429688 C 303.554688 162.429688 290.121094 149 290.121094 132.429688 C 290.121094 115.863281 303.554688 102.429688 320.121094 102.429688 C 336.691406 102.429688 350.121094 115.863281 350.121094 132.429688 "/>
<path style="fill-rule:nonzero;fill:rgb(50%,0%,50%);fill-opacity:1;stroke-width:1;stroke-linecap:butt;stroke-linejoin:miter;stroke:rgb(0%,0%,0%);stroke-opacity:1;stroke-miterlimit:10;" d="M 177.320312 359.835938 C 177.320312 376.402344 163.886719 389.835938 147.320312 389.835938 C 130.75 389.835938 117.320312 376.402344 117.320312 359.835938 C 117.320312 343.265625 130.75 329.835938 147.320312 329.835938 C 163.886719 329.835938 177.320312 343.265625 177.320312 359.835938 "/>
<path style="fill-rule:nonzero;fill:rgb(50%,0%,50%);fill-opacity:1;stroke-width:1;stroke-linecap:butt;stroke-linejoin:miter;stroke:rgb(0%,0%,0%);stroke-opacity:1;stroke-miterlimit:10;" d="M 127.777344 403.496094 C 127.777344 420.0625 114.34375 433.496094 97.777344 433.496094 C 81.207031 433.496094 67.777344 420.0625 67.777344 403.496094 C 67.777344 386.925781 81.207031 373.496094 97.777344 373.496094 C 114.34375 373.496094 127.777344 386.925781 127.777344 403.496094 "/>
<path style="fill-rule:nonzero;fill:rgb(50%,0%,50%);fill-opacity:1;stroke-width:1;stroke-linecap:butt;stroke-linejoin:miter;stroke:rgb(0%,0%,0%);stroke-opacity:1;stroke-miterlimit:10;" d="M 204.820312 439.101562 C 204.820312 455.671875 191.386719 469.101562 174.820312 469.101562 C 158.25 469.101562 144.820312 455.671875 144.820312 439.101562 C 144.820312 422.535156 158.25 409.101562 174.820312 409.101562 C 191.386719 409.101562 204.820312 422.535156 204.820312 439.101562 "/>
<path style="fill-rule:nonzero;fill:rgb(50%,0%,50%);fill-opacity:1;stroke-width:1;stroke-linecap:butt;stroke-linejoin:miter;stroke:rgb(0%,0%,0%);stroke-opacity:1;stroke-miterlimit:10;" d="M 174.523438 299.007812 C 174.523438 315.578125 161.089844 329.007812 144.523438 329.007812 C 127.953125 329.007812 114.523438 315.578125 114.523438 299.007812 C 114.523438 282.441406 127.953125 269.007812 144.523438 269.007812 C 161.089844 269.007812 174.523438 282.441406 174.523438 299.007812 "/>
<path style="fill-rule:nonzero;fill:rgb(50%,0%,50%);fill-opacity:1;stroke-width:1;stroke-linecap:butt;stroke-linejoin:miter;stroke:rgb(0%,0%,0%);stroke-opacity:1;stroke-miterlimit:10;" d="M 68.238281 74.054688 C 68.238281 90.625 54.808594 104.054688 38.238281 104.054688 C 21.671875 104.054688 8.238281 90.625 8.238281 74.054688 C 8.238281 57.488281 21.671875 44.054688 38.238281 44.054688 C 54.808594 44.054688 68.238281 57.488281 68.238281 74.054688 "/>
<path style="fill-rule:nonzero;fill:rgb(50%,0%,50%);fill-opacity:1;stroke-width:1;stroke-linecap:butt;stroke-linejoin:miter;stroke:rgb(0%,0%,0%);stroke-opacity:1;stroke-miterlimit:10;" d="M 199.03125 149.304688 C 199.03125 165.875 185.601562 179.304688 169.03125 179.304688 C 152.464844 179.304688 139.03125 165.875 139.03125 149.304688 C 139.03125 132.738281 152.464844 119.304688 169.03125 119.304688 C 185.601562 119.304688 199.03125 132.738281 199.03125 149.304688 "/>
</g>
</svg>
