<?xml version="1.0" encoding="UTF-8"?>
<svg xmlns="http://www.w3.org/2000/svg" xmlns:xlink="http://www.w3.org/1999/xlink" width="517pt" height="517pt" viewBox="0 0 517 517" version="1.1">
<g id="surface4741">
<rect x="0" y="0" width="517" height="517" style="fill:rgb(90%,90%,90%);fill-opacity:1;stroke:none;"/>
<path style="fill:none;stroke-width:5;stroke-linecap:butt;stroke-linejoin:round;stroke:rgb(100%,0%,0%);stroke-opacity:1;stroke-miterlimit:10;" d="M 5 261 L 261 261 L 261 517 L 5 517 Z M 5 261 "/>
<path style="fill-rule:nonzero;fill:rgb(53%,27%,7%);fill-opacity:1;stroke-width:1;stroke-linecap:butt;stroke-linejoin:round;stroke:rgb(0%,0%,0%);stroke-opacity:1;stroke-miterlimit:10;" d="M 68.921875 452.191406 C 68.921875 437.792969 44.921875 437.792969 44.921875 452.191406 C 44.921875 466.59375 68.921875 468.992188 68.921875 480.992188 C 68.921875 468.992188 92.921875 466.59375 92.921875 452.191406 C 92.921875 437.792969 68.921875 437.792969 68.921875 452.191406 "/>
<path style="fill-rule:nonzero;fill:rgb(100%,0%,0%);fill-opacity:1;stroke-width:1;stroke-linecap:butt;stroke-linejoin:round;stroke:rgb(0%,0%,0%);stroke-opacity:1;stroke-miterlimit:10;" d="M 57.535156 168.613281 C 57.535156 154.210938 33.535156 154.210938 33.535156 168.613281 C 33.535156 183.011719 57.535156 185.414062 57.535156 197.414062 C 57.535156 185.414062 81.535156 183.011719 81.535156 168.613281 C 81.535156 154.210938 57.535156 154.210938 57.535156 168.613281 "/>
<path style="fill-rule:nonzero;fill:rgb(100%,0%,0%);fill-opacity:1;stroke-width:1;stroke-linecap:butt;stroke-linejoin:round;stroke:rgb(0%,0%,0%);stroke-opacity:1;stroke-miterlimit:10;" d="M 473.042969 302.527344 C 473.042969 288.128906 449.042969 288.128906 449.042969 302.527344 C 449.042969 316.929688 473.042969 319.328125 473.042969 331.328125 C 473.042969 319.328125 497.042969 316.929688 497.042969 302.527344 C 497.042969 288.128906 473.042969 288.128906 473.042969 302.527344 "/>
<path style="fill-rule:nonzero;fill:rgb(100%,0%,0%);fill-opacity:1;stroke-width:1;stroke-linecap:butt;stroke-linejoin:round;stroke:rgb(0%,0%,0%);stroke-opacity:1;stroke-miterlimit:10;" d="M 383.914062 400.203125 C 383.914062 385.804688 359.914062 385.804688 359.914062 400.203125 C 359.914062 414.605469 383.914062 417.003906 383.914062 429.003906 C 383.914062 417.003906 407.914062 414.605469 407.914062 400.203125 C 407.914062 385.804688 383.914062 385.804688 383.914062 400.203125 "/>
<path style="fill-rule:nonzero;fill:rgb(100%,0%,0%);fill-opacity:1;stroke-width:1;stroke-linecap:butt;stroke-linejoin:round;stroke:rgb(0%,0%,0%);stroke-opacity:1;stroke-miterlimit:10;" d="M 328.589844 329.933594 C 328.589844 315.53125 304.589844 315.53125 304.589844 329.933594 C 304.589844 344.332031 328.589844 346.734375 328.589844 358.734375 C 328.589844 346.734375 352.589844 344.332031 352.589844 329.933594 C 352.589844 315.53125 328.589844 315.53125 328.589844 329.933594 "/>
<path style="fill-rule:nonzero;fill:rgb(53%,27%,7%);fill-opacity:1;stroke-width:1;stroke-linecap:butt;stroke-linejoin:round;stroke:rgb(0%,0%,0%);stroke-opacity:1;stroke-miterlimit:10;" d="M 395.0625 309.355469 C 395.0625 294.957031 371.0625 294.957031 371.0625 309.355469 C 371.0625 323.753906 395.0625 326.15625 395.0625 338.15625 C 395.0625 326.15625 419.0625 323.753906 419.0625 309.355469 C 419.0625 294.957031 395.0625 294.957031 395.0625 309.355469 "/>
</g>
</svg>
