<?xml version="1.0" encoding="UTF-8"?>
<svg xmlns="http://www.w3.org/2000/svg" xmlns:xlink="http://www.w3.org/1999/xlink" width="517pt" height="517pt" viewBox="0 0 517 517" version="1.1">
<g id="surface4771">
<rect x="0" y="0" width="517" height="517" style="fill:rgb(90%,90%,90%);fill-opacity:1;stroke:none;"/>
<path style="fill:none;stroke-width:5;stroke-linecap:butt;stroke-linejoin:round;stroke:rgb(100%,0%,0%);stroke-opacity:1;stroke-miterlimit:10;" d="M 5 261 L 261 261 L 261 517 L 5 517 Z M 5 261 "/>
<path style="fill-rule:nonzero;fill:rgb(53%,27%,7%);fill-opacity:1;stroke-width:1;stroke-linecap:butt;stroke-linejoin:round;stroke:rgb(0%,0%,0%);stroke-opacity:1;stroke-miterlimit:10;" d="M 160.40625 454.402344 C 160.40625 440.003906 136.40625 440.003906 136.40625 454.402344 C 136.40625 468.804688 160.40625 471.203125 160.40625 483.203125 C 160.40625 471.203125 184.40625 468.804688 184.40625 454.402344 C 184.40625 440.003906 160.40625 440.003906 160.40625 454.402344 "/>
<path style="fill-rule:nonzero;fill:rgb(100%,0%,0%);fill-opacity:1;stroke-width:1;stroke-linecap:butt;stroke-linejoin:round;stroke:rgb(0%,0%,0%);stroke-opacity:1;stroke-miterlimit:10;" d="M 154.171875 54.394531 C 154.171875 39.996094 130.171875 39.996094 130.171875 54.394531 C 130.171875 68.796875 154.171875 71.195312 154.171875 83.195312 C 154.171875 71.195312 178.171875 68.796875 178.171875 54.394531 C 178.171875 39.996094 154.171875 39.996094 154.171875 54.394531 "/>
<path style="fill-rule:nonzero;fill:rgb(53%,27%,7%);fill-opacity:1;stroke-width:1;stroke-linecap:butt;stroke-linejoin:round;stroke:rgb(0%,0%,0%);stroke-opacity:1;stroke-miterlimit:10;" d="M 114.46875 119.636719 C 114.46875 105.234375 90.46875 105.234375 90.46875 119.636719 C 90.46875 134.035156 114.46875 136.4375 114.46875 148.4375 C 114.46875 136.4375 138.46875 134.035156 138.46875 119.636719 C 138.46875 105.234375 114.46875 105.234375 114.46875 119.636719 "/>
<path style="fill-rule:nonzero;fill:rgb(53%,27%,7%);fill-opacity:1;stroke-width:1;stroke-linecap:butt;stroke-linejoin:round;stroke:rgb(0%,0%,0%);stroke-opacity:1;stroke-miterlimit:10;" d="M 355.667969 190.992188 C 355.667969 176.59375 331.667969 176.59375 331.667969 190.992188 C 331.667969 205.394531 355.667969 207.792969 355.667969 219.792969 C 355.667969 207.792969 379.667969 205.394531 379.667969 190.992188 C 379.667969 176.59375 355.667969 176.59375 355.667969 190.992188 "/>
<path style="fill-rule:nonzero;fill:rgb(53%,27%,7%);fill-opacity:1;stroke-width:1;stroke-linecap:butt;stroke-linejoin:round;stroke:rgb(0%,0%,0%);stroke-opacity:1;stroke-miterlimit:10;" d="M 312.492188 89.160156 C 312.492188 74.761719 288.492188 74.761719 288.492188 89.160156 C 288.492188 103.558594 312.492188 105.960938 312.492188 117.960938 C 312.492188 105.960938 336.492188 103.558594 336.492188 89.160156 C 336.492188 74.761719 312.492188 74.761719 312.492188 89.160156 "/>
<path style="fill-rule:nonzero;fill:rgb(53%,27%,7%);fill-opacity:1;stroke-width:1;stroke-linecap:butt;stroke-linejoin:round;stroke:rgb(0%,0%,0%);stroke-opacity:1;stroke-miterlimit:10;" d="M 363.125 50.503906 C 363.125 36.105469 339.125 36.105469 339.125 50.503906 C 339.125 64.90625 363.125 67.304688 363.125 79.304688 C 363.125 67.304688 387.125 64.90625 387.125 50.503906 C 387.125 36.105469 363.125 36.105469 363.125 50.503906 "/>
</g>
</svg>
