<?xml version="1.0" encoding="UTF-8"?>
<svg xmlns="http://www.w3.org/2000/svg" xmlns:xlink="http://www.w3.org/1999/xlink" width="517pt" height="517pt" viewBox="0 0 517 517" version="1.1">
<g id="surface4926">
<rect x="0" y="0" width="517" height="517" style="fill:rgb(90%,90%,90%);fill-opacity:1;stroke:none;"/>
<path style="fill:none;stroke-width:5;stroke-linecap:butt;stroke-linejoin:round;stroke:rgb(100%,0%,0%);stroke-opacity:1;stroke-miterlimit:10;" d="M 5 261 L 261 261 L 261 517 L 5 517 Z M 5 261 "/>
<path style="fill-rule:nonzero;fill:rgb(90%,65%,0%);fill-opacity:1;stroke-width:1;stroke-linecap:butt;stroke-linejoin:round;stroke:rgb(0%,0%,0%);stroke-opacity:1;stroke-miterlimit:10;" d="M 209.851562 400.3125 C 209.851562 385.910156 185.851562 385.910156 185.851562 400.3125 C 185.851562 414.710938 209.851562 417.109375 209.851562 429.109375 C 209.851562 417.109375 233.851562 414.710938 233.851562 400.3125 C 233.851562 385.910156 209.851562 385.910156 209.851562 400.3125 "/>
<path style="fill-rule:nonzero;fill:rgb(100%,7%,57%);fill-opacity:1;stroke-width:1;stroke-linecap:butt;stroke-linejoin:round;stroke:rgb(0%,0%,0%);stroke-opacity:1;stroke-miterlimit:10;" d="M 175.707031 180.964844 C 175.707031 166.5625 151.707031 166.5625 151.707031 180.964844 C 151.707031 195.363281 175.707031 197.761719 175.707031 209.761719 C 175.707031 197.761719 199.707031 195.363281 199.707031 180.964844 C 199.707031 166.5625 175.707031 166.5625 175.707031 180.964844 "/>
<path style="fill-rule:nonzero;fill:rgb(90%,65%,0%);fill-opacity:1;stroke-width:1;stroke-linecap:butt;stroke-linejoin:round;stroke:rgb(0%,0%,0%);stroke-opacity:1;stroke-miterlimit:10;" d="M 145.183594 57.875 C 145.183594 43.476562 121.183594 43.476562 121.183594 57.875 C 121.183594 72.277344 145.183594 74.675781 145.183594 86.675781 C 145.183594 74.675781 169.183594 72.277344 169.183594 57.875 C 169.183594 43.476562 145.183594 43.476562 145.183594 57.875 "/>
<path style="fill-rule:nonzero;fill:rgb(90%,65%,0%);fill-opacity:1;stroke-width:1;stroke-linecap:butt;stroke-linejoin:round;stroke:rgb(0%,0%,0%);stroke-opacity:1;stroke-miterlimit:10;" d="M 451.03125 453.378906 C 451.03125 438.980469 427.03125 438.980469 427.03125 453.378906 C 427.03125 467.78125 451.03125 470.179688 451.03125 482.179688 C 451.03125 470.179688 475.03125 467.78125 475.03125 453.378906 C 475.03125 438.980469 451.03125 438.980469 451.03125 453.378906 "/>
<path style="fill-rule:nonzero;fill:rgb(90%,65%,0%);fill-opacity:1;stroke-width:1;stroke-linecap:butt;stroke-linejoin:round;stroke:rgb(0%,0%,0%);stroke-opacity:1;stroke-miterlimit:10;" d="M 371.859375 461.726562 C 371.859375 447.328125 347.859375 447.328125 347.859375 461.726562 C 347.859375 476.128906 371.859375 478.527344 371.859375 490.527344 C 371.859375 478.527344 395.859375 476.128906 395.859375 461.726562 C 395.859375 447.328125 371.859375 447.328125 371.859375 461.726562 "/>
<path style="fill-rule:nonzero;fill:rgb(90%,65%,0%);fill-opacity:1;stroke-width:1;stroke-linecap:butt;stroke-linejoin:round;stroke:rgb(0%,0%,0%);stroke-opacity:1;stroke-miterlimit:10;" d="M 368.660156 399.339844 C 368.660156 384.9375 344.660156 384.9375 344.660156 399.339844 C 344.660156 413.738281 368.660156 416.136719 368.660156 428.136719 C 368.660156 416.136719 392.660156 413.738281 392.660156 399.339844 C 392.660156 384.9375 368.660156 384.9375 368.660156 399.339844 "/>
</g>
</svg>
