<?xml version="1.0" encoding="UTF-8"?>
<svg xmlns="http://www.w3.org/2000/svg" xmlns:xlink="http://www.w3.org/1999/xlink" width="517pt" height="517pt" viewBox="0 0 517 517" version="1.1">
<g id="surface5021">
<rect x="0" y="0" width="517" height="517" style="fill:rgb(90%,90%,90%);fill-opacity:1;stroke:none;"/>
<path style="fill:none;stroke-width:5;stroke-linecap:butt;stroke-linejoin:round;stroke:rgb(100%,0%,0%);stroke-opacity:1;stroke-miterlimit:10;" d="M 261 261 L 517 261 L 517 517 L 261 517 Z M 261 261 "/>
<path style="fill-rule:nonzero;fill:rgb(0%,0%,0%);fill-opacity:1;stroke-width:1;stroke-linecap:butt;stroke-linejoin:round;stroke:rgb(0%,0%,0%);stroke-opacity:1;stroke-miterlimit:10;" d="M 317.417969 292.816406 C 317.417969 278.417969 293.417969 278.417969 293.417969 292.816406 C 293.417969 307.214844 317.417969 309.617188 317.417969 321.617188 C 317.417969 309.617188 341.417969 307.214844 341.417969 292.816406 C 341.417969 278.417969 317.417969 278.417969 317.417969 292.816406 "/>
<path style="fill-rule:nonzero;fill:rgb(0%,0%,0%);fill-opacity:1;stroke-width:1;stroke-linecap:butt;stroke-linejoin:round;stroke:rgb(0%,0%,0%);stroke-opacity:1;stroke-miterlimit:10;" d="M 167.265625 383.984375 C 167.265625 369.585938 143.265625 369.585938 143.265625 383.984375 C 143.265625 398.386719 167.265625 400.785156 167.265625 412.785156 C 167.265625 400.785156 191.265625 398.386719 191.265625 383.984375 C 191.265625 369.585938 167.265625 369.585938 167.265625 383.984375 "/>
<path style="fill-rule:nonzero;fill:rgb(0%,0%,0%);fill-opacity:1;stroke-width:1;stroke-linecap:butt;stroke-linejoin:round;stroke:rgb(0%,0%,0%);stroke-opacity:1;stroke-miterlimit:10;" d="M 303.730469 40.667969 C 303.730469 26.265625 279.730469 26.265625 279.730469 40.667969 C 279.730469 55.066406 303.730469 57.46875 303.730469 69.46875 C 303.730469 57.46875 327.730469 55.066406 327.730469 40.667969 C 327.730469 26.265625 303.730469 26.265625 303.730469 40.667969 "/>
<path style="fill-rule:nonzero;fill:rgb(0%,0%,0%);fill-opacity:1;stroke-width:1;stroke-linecap:butt;stroke-linejoin:round;stroke:rgb(0%,0%,0%);stroke-opacity:1;stroke-miterlimit:10;" d="M 73.679688 202.339844 C 73.679688 187.941406 49.679688 187.941406 49.679688 202.339844 C 49.679688 216.742188 73.679688 219.140625 73.679688 231.140625 C 73.679688 219.140625 97.679688 216.742188 97.679688 202.339844 C 97.679688 187.941406 73.679688 187.941406 73.679688 202.339844 "/>
<path style="fill-rule:nonzero;fill:rgb(0%,0%,0%);fill-opacity:1;stroke-width:1;stroke-linecap:butt;stroke-linejoin:round;stroke:rgb(0%,0%,0%);stroke-opacity:1;stroke-miterlimit:10;" d="M 83.125 46.5 C 83.125 32.097656 59.125 32.097656 59.125 46.5 C 59.125 60.898438 83.125 63.300781 83.125 75.300781 C 83.125 63.300781 107.125 60.898438 107.125 46.5 C 107.125 32.097656 83.125 32.097656 83.125 46.5 "/>
<path style="fill-rule:nonzero;fill:rgb(67%,100%,18%);fill-opacity:1;stroke-width:1;stroke-linecap:butt;stroke-linejoin:round;stroke:rgb(0%,0%,0%);stroke-opacity:1;stroke-miterlimit:10;" d="M 187.265625 158.507812 C 187.265625 144.109375 163.265625 144.109375 163.265625 158.507812 C 163.265625 172.90625 187.265625 175.308594 187.265625 187.308594 C 187.265625 175.308594 211.265625 172.90625 211.265625 158.507812 C 211.265625 144.109375 187.265625 144.109375 187.265625 158.507812 "/>
</g>
</svg>
