<?xml version="1.0" encoding="UTF-8"?>
<svg xmlns="http://www.w3.org/2000/svg" xmlns:xlink="http://www.w3.org/1999/xlink" width="517pt" height="517pt" viewBox="0 0 517 517" version="1.1">
<g id="surface4946">
<rect x="0" y="0" width="517" height="517" style="fill:rgb(90%,90%,90%);fill-opacity:1;stroke:none;"/>
<path style="fill:none;stroke-width:5;stroke-linecap:butt;stroke-linejoin:round;stroke:rgb(100%,0%,0%);stroke-opacity:1;stroke-miterlimit:10;" d="M 5 261 L 261 261 L 261 517 L 5 517 Z M 5 261 "/>
<path style="fill-rule:nonzero;fill:rgb(25%,88%,82%);fill-opacity:1;stroke-width:1;stroke-linecap:butt;stroke-linejoin:round;stroke:rgb(0%,0%,0%);stroke-opacity:1;stroke-miterlimit:10;" d="M 43.375 317.078125 C 43.375 302.675781 19.375 302.675781 19.375 317.078125 C 19.375 331.476562 43.375 333.875 43.375 345.875 C 43.375 333.875 67.375 331.476562 67.375 317.078125 C 67.375 302.675781 43.375 302.675781 43.375 317.078125 "/>
<path style="fill-rule:nonzero;fill:rgb(100%,7%,57%);fill-opacity:1;stroke-width:1;stroke-linecap:butt;stroke-linejoin:round;stroke:rgb(0%,0%,0%);stroke-opacity:1;stroke-miterlimit:10;" d="M 307.484375 152.402344 C 307.484375 138 283.484375 138 283.484375 152.402344 C 283.484375 166.800781 307.484375 169.199219 307.484375 181.199219 C 307.484375 169.199219 331.484375 166.800781 331.484375 152.402344 C 331.484375 138 307.484375 138 307.484375 152.402344 "/>
<path style="fill-rule:nonzero;fill:rgb(100%,7%,57%);fill-opacity:1;stroke-width:1;stroke-linecap:butt;stroke-linejoin:round;stroke:rgb(0%,0%,0%);stroke-opacity:1;stroke-miterlimit:10;" d="M 99.851562 102.839844 C 99.851562 88.4375 75.851562 88.4375 75.851562 102.839844 C 75.851562 117.238281 99.851562 119.640625 99.851562 131.640625 C 99.851562 119.640625 123.851562 117.238281 123.851562 102.839844 C 123.851562 88.4375 99.851562 88.4375 99.851562 102.839844 "/>
<path style="fill-rule:nonzero;fill:rgb(100%,7%,57%);fill-opacity:1;stroke-width:1;stroke-linecap:butt;stroke-linejoin:round;stroke:rgb(0%,0%,0%);stroke-opacity:1;stroke-miterlimit:10;" d="M 471.457031 282.007812 C 471.457031 267.605469 447.457031 267.605469 447.457031 282.007812 C 447.457031 296.40625 471.457031 298.804688 471.457031 310.804688 C 471.457031 298.804688 495.457031 296.40625 495.457031 282.007812 C 495.457031 267.605469 471.457031 267.605469 471.457031 282.007812 "/>
<path style="fill-rule:nonzero;fill:rgb(100%,7%,57%);fill-opacity:1;stroke-width:1;stroke-linecap:butt;stroke-linejoin:round;stroke:rgb(0%,0%,0%);stroke-opacity:1;stroke-miterlimit:10;" d="M 398.917969 371.933594 C 398.917969 357.535156 374.917969 357.535156 374.917969 371.933594 C 374.917969 386.335938 398.917969 388.734375 398.917969 400.734375 C 398.917969 388.734375 422.917969 386.335938 422.917969 371.933594 C 422.917969 357.535156 398.917969 357.535156 398.917969 371.933594 "/>
<path style="fill-rule:nonzero;fill:rgb(100%,7%,57%);fill-opacity:1;stroke-width:1;stroke-linecap:butt;stroke-linejoin:round;stroke:rgb(0%,0%,0%);stroke-opacity:1;stroke-miterlimit:10;" d="M 291.320312 381.832031 C 291.320312 367.429688 267.320312 367.429688 267.320312 381.832031 C 267.320312 396.230469 291.320312 398.632812 291.320312 410.632812 C 291.320312 398.632812 315.320312 396.230469 315.320312 381.832031 C 315.320312 367.429688 291.320312 367.429688 291.320312 381.832031 "/>
</g>
</svg>
