<?xml version="1.0" encoding="UTF-8"?>
<svg xmlns="http://www.w3.org/2000/svg" xmlns:xlink="http://www.w3.org/1999/xlink" width="517pt" height="517pt" viewBox="0 0 517 517" version="1.1">
<g id="surface4826">
<rect x="0" y="0" width="517" height="517" style="fill:rgb(90%,90%,90%);fill-opacity:1;stroke:none;"/>
<path style="fill:none;stroke-width:5;stroke-linecap:butt;stroke-linejoin:round;stroke:rgb(100%,0%,0%);stroke-opacity:1;stroke-miterlimit:10;" d="M 5 261 L 261 261 L 261 517 L 5 517 Z M 5 261 "/>
<path style="fill-rule:nonzero;fill:rgb(100%,0%,0%);fill-opacity:1;stroke-width:1;stroke-linecap:butt;stroke-linejoin:round;stroke:rgb(0%,0%,0%);stroke-opacity:1;stroke-miterlimit:10;" d="M 193.035156 308.515625 C 193.035156 294.117188 169.035156 294.117188 169.035156 308.515625 C 169.035156 322.917969 193.035156 325.316406 193.035156 337.316406 C 193.035156 325.316406 217.035156 322.917969 217.035156 308.515625 C 217.035156 294.117188 193.035156 294.117188 193.035156 308.515625 "/>
<path style="fill-rule:nonzero;fill:rgb(35%,70%,90%);fill-opacity:1;stroke-width:1;stroke-linecap:butt;stroke-linejoin:round;stroke:rgb(0%,0%,0%);stroke-opacity:1;stroke-miterlimit:10;" d="M 425.402344 153.535156 C 425.402344 139.136719 401.402344 139.136719 401.402344 153.535156 C 401.402344 167.933594 425.402344 170.335938 425.402344 182.335938 C 425.402344 170.335938 449.402344 167.933594 449.402344 153.535156 C 449.402344 139.136719 425.402344 139.136719 425.402344 153.535156 "/>
<path style="fill-rule:nonzero;fill:rgb(35%,70%,90%);fill-opacity:1;stroke-width:1;stroke-linecap:butt;stroke-linejoin:round;stroke:rgb(0%,0%,0%);stroke-opacity:1;stroke-miterlimit:10;" d="M 114.695312 71.226562 C 114.695312 56.824219 90.695312 56.824219 90.695312 71.226562 C 90.695312 85.625 114.695312 88.027344 114.695312 100.027344 C 114.695312 88.027344 138.695312 85.625 138.695312 71.226562 C 138.695312 56.824219 114.695312 56.824219 114.695312 71.226562 "/>
<path style="fill-rule:nonzero;fill:rgb(35%,70%,90%);fill-opacity:1;stroke-width:1;stroke-linecap:butt;stroke-linejoin:round;stroke:rgb(0%,0%,0%);stroke-opacity:1;stroke-miterlimit:10;" d="M 455.652344 405.761719 C 455.652344 391.359375 431.652344 391.359375 431.652344 405.761719 C 431.652344 420.160156 455.652344 422.558594 455.652344 434.558594 C 455.652344 422.558594 479.652344 420.160156 479.652344 405.761719 C 479.652344 391.359375 455.652344 391.359375 455.652344 405.761719 "/>
<path style="fill-rule:nonzero;fill:rgb(35%,70%,90%);fill-opacity:1;stroke-width:1;stroke-linecap:butt;stroke-linejoin:round;stroke:rgb(0%,0%,0%);stroke-opacity:1;stroke-miterlimit:10;" d="M 391.414062 430.140625 C 391.414062 415.742188 367.414062 415.742188 367.414062 430.140625 C 367.414062 444.542969 391.414062 446.941406 391.414062 458.941406 C 391.414062 446.941406 415.414062 444.542969 415.414062 430.140625 C 415.414062 415.742188 391.414062 415.742188 391.414062 430.140625 "/>
<path style="fill-rule:nonzero;fill:rgb(100%,0%,0%);fill-opacity:1;stroke-width:1;stroke-linecap:butt;stroke-linejoin:round;stroke:rgb(0%,0%,0%);stroke-opacity:1;stroke-miterlimit:10;" d="M 338.304688 397.859375 C 338.304688 383.460938 314.304688 383.460938 314.304688 397.859375 C 314.304688 412.261719 338.304688 414.660156 338.304688 426.660156 C 338.304688 414.660156 362.304688 412.261719 362.304688 397.859375 C 362.304688 383.460938 338.304688 383.460938 338.304688 397.859375 "/>
</g>
</svg>
