<?xml version="1.0" encoding="UTF-8"?>
<svg xmlns="http://www.w3.org/2000/svg" xmlns:xlink="http://www.w3.org/1999/xlink" width="517pt" height="517pt" viewBox="0 0 517 517" version="1.1">
<g id="surface4906">
<rect x="0" y="0" width="517" height="517" style="fill:rgb(90%,90%,90%);fill-opacity:1;stroke:none;"/>
<path style="fill:none;stroke-width:5;stroke-linecap:butt;stroke-linejoin:round;stroke:rgb(100%,0%,0%);stroke-opacity:1;stroke-miterlimit:10;" d="M 5 261 L 261 261 L 261 517 L 5 517 Z M 5 261 "/>
<path style="fill-rule:nonzero;fill:rgb(90%,65%,0%);fill-opacity:1;stroke-width:1;stroke-linecap:butt;stroke-linejoin:round;stroke:rgb(0%,0%,0%);stroke-opacity:1;stroke-miterlimit:10;" d="M 51.535156 351.429688 C 51.535156 337.03125 27.535156 337.03125 27.535156 351.429688 C 27.535156 365.832031 51.535156 368.230469 51.535156 380.230469 C 51.535156 368.230469 75.535156 365.832031 75.535156 351.429688 C 75.535156 337.03125 51.535156 337.03125 51.535156 351.429688 "/>
<path style="fill-rule:nonzero;fill:rgb(100%,7%,57%);fill-opacity:1;stroke-width:1;stroke-linecap:butt;stroke-linejoin:round;stroke:rgb(0%,0%,0%);stroke-opacity:1;stroke-miterlimit:10;" d="M 365.976562 96.492188 C 365.976562 82.089844 341.976562 82.089844 341.976562 96.492188 C 341.976562 110.890625 365.976562 113.292969 365.976562 125.292969 C 365.976562 113.292969 389.976562 110.890625 389.976562 96.492188 C 389.976562 82.089844 365.976562 82.089844 365.976562 96.492188 "/>
<path style="fill-rule:nonzero;fill:rgb(100%,7%,57%);fill-opacity:1;stroke-width:1;stroke-linecap:butt;stroke-linejoin:round;stroke:rgb(0%,0%,0%);stroke-opacity:1;stroke-miterlimit:10;" d="M 160.582031 59.6875 C 160.582031 45.289062 136.582031 45.289062 136.582031 59.6875 C 136.582031 74.089844 160.582031 76.488281 160.582031 88.488281 C 160.582031 76.488281 184.582031 74.089844 184.582031 59.6875 C 184.582031 45.289062 160.582031 45.289062 160.582031 59.6875 "/>
<path style="fill-rule:nonzero;fill:rgb(100%,7%,57%);fill-opacity:1;stroke-width:1;stroke-linecap:butt;stroke-linejoin:round;stroke:rgb(0%,0%,0%);stroke-opacity:1;stroke-miterlimit:10;" d="M 447.933594 407.972656 C 447.933594 393.570312 423.933594 393.570312 423.933594 407.972656 C 423.933594 422.371094 447.933594 424.773438 447.933594 436.773438 C 447.933594 424.773438 471.933594 422.371094 471.933594 407.972656 C 471.933594 393.570312 447.933594 393.570312 447.933594 407.972656 "/>
<path style="fill-rule:nonzero;fill:rgb(100%,7%,57%);fill-opacity:1;stroke-width:1;stroke-linecap:butt;stroke-linejoin:round;stroke:rgb(0%,0%,0%);stroke-opacity:1;stroke-miterlimit:10;" d="M 357.011719 342.796875 C 357.011719 328.394531 333.011719 328.394531 333.011719 342.796875 C 333.011719 357.195312 357.011719 359.597656 357.011719 371.597656 C 357.011719 359.597656 381.011719 357.195312 381.011719 342.796875 C 381.011719 328.394531 357.011719 328.394531 357.011719 342.796875 "/>
<path style="fill-rule:nonzero;fill:rgb(90%,65%,0%);fill-opacity:1;stroke-width:1;stroke-linecap:butt;stroke-linejoin:round;stroke:rgb(0%,0%,0%);stroke-opacity:1;stroke-miterlimit:10;" d="M 430.515625 324.339844 C 430.515625 309.941406 406.515625 309.941406 406.515625 324.339844 C 406.515625 338.742188 430.515625 341.140625 430.515625 353.140625 C 430.515625 341.140625 454.515625 338.742188 454.515625 324.339844 C 454.515625 309.941406 430.515625 309.941406 430.515625 324.339844 "/>
</g>
</svg>
