<?xml version="1.0" encoding="UTF-8"?>
<svg xmlns="http://www.w3.org/2000/svg" xmlns:xlink="http://www.w3.org/1999/xlink" width="517pt" height="517pt" viewBox="0 0 517 517" version="1.1">
<g id="surface4986">
<rect x="0" y="0" width="517" height="517" style="fill:rgb(90%,90%,90%);fill-opacity:1;stroke:none;"/>
<path style="fill:none;stroke-width:5;stroke-linecap:butt;stroke-linejoin:round;stroke:rgb(100%,0%,0%);stroke-opacity:1;stroke-miterlimit:10;" d="M 261 261 L 517 261 L 517 517 L 261 517 Z M 261 261 "/>
<path style="fill-rule:nonzero;fill:rgb(67%,100%,18%);fill-opacity:1;stroke-width:1;stroke-linecap:butt;stroke-linejoin:round;stroke:rgb(0%,0%,0%);stroke-opacity:1;stroke-miterlimit:10;" d="M 306.167969 397.148438 C 306.167969 382.75 282.167969 382.75 282.167969 397.148438 C 282.167969 411.550781 306.167969 413.949219 306.167969 425.949219 C 306.167969 413.949219 330.167969 411.550781 330.167969 397.148438 C 330.167969 382.75 306.167969 382.75 306.167969 397.148438 "/>
<path style="fill-rule:nonzero;fill:rgb(0%,0%,0%);fill-opacity:1;stroke-width:1;stroke-linecap:butt;stroke-linejoin:round;stroke:rgb(0%,0%,0%);stroke-opacity:1;stroke-miterlimit:10;" d="M 122.058594 422.03125 C 122.058594 407.632812 98.058594 407.632812 98.058594 422.03125 C 98.058594 436.429688 122.058594 438.832031 122.058594 450.832031 C 122.058594 438.832031 146.058594 436.429688 146.058594 422.03125 C 146.058594 407.632812 122.058594 407.632812 122.058594 422.03125 "/>
<path style="fill-rule:nonzero;fill:rgb(0%,0%,0%);fill-opacity:1;stroke-width:1;stroke-linecap:butt;stroke-linejoin:round;stroke:rgb(0%,0%,0%);stroke-opacity:1;stroke-miterlimit:10;" d="M 196.167969 130.59375 C 196.167969 116.195312 172.167969 116.195312 172.167969 130.59375 C 172.167969 144.992188 196.167969 147.394531 196.167969 159.394531 C 196.167969 147.394531 220.167969 144.992188 220.167969 130.59375 C 220.167969 116.195312 196.167969 116.195312 196.167969 130.59375 "/>
<path style="fill-rule:nonzero;fill:rgb(0%,0%,0%);fill-opacity:1;stroke-width:1;stroke-linecap:butt;stroke-linejoin:round;stroke:rgb(0%,0%,0%);stroke-opacity:1;stroke-miterlimit:10;" d="M 91.355469 69.21875 C 91.355469 54.820312 67.355469 54.820312 67.355469 69.21875 C 67.355469 83.617188 91.355469 86.019531 91.355469 98.019531 C 91.355469 86.019531 115.355469 83.617188 115.355469 69.21875 C 115.355469 54.820312 91.355469 54.820312 91.355469 69.21875 "/>
<path style="fill-rule:nonzero;fill:rgb(0%,0%,0%);fill-opacity:1;stroke-width:1;stroke-linecap:butt;stroke-linejoin:round;stroke:rgb(0%,0%,0%);stroke-opacity:1;stroke-miterlimit:10;" d="M 76.824219 186.957031 C 76.824219 172.554688 52.824219 172.554688 52.824219 186.957031 C 52.824219 201.355469 76.824219 203.757812 76.824219 215.757812 C 76.824219 203.757812 100.824219 201.355469 100.824219 186.957031 C 100.824219 172.554688 76.824219 172.554688 76.824219 186.957031 "/>
<path style="fill-rule:nonzero;fill:rgb(67%,100%,18%);fill-opacity:1;stroke-width:1;stroke-linecap:butt;stroke-linejoin:round;stroke:rgb(0%,0%,0%);stroke-opacity:1;stroke-miterlimit:10;" d="M 214.222656 66.824219 C 214.222656 52.421875 190.222656 52.421875 190.222656 66.824219 C 190.222656 81.222656 214.222656 83.621094 214.222656 95.621094 C 214.222656 83.621094 238.222656 81.222656 238.222656 66.824219 C 238.222656 52.421875 214.222656 52.421875 214.222656 66.824219 "/>
</g>
</svg>
