<?xml version="1.0" encoding="UTF-8"?>
<svg xmlns="http://www.w3.org/2000/svg" xmlns:xlink="http://www.w3.org/1999/xlink" width="517pt" height="517pt" viewBox="0 0 517 517" version="1.1">
<g id="surface4936">
<rect x="0" y="0" width="517" height="517" style="fill:rgb(90%,90%,90%);fill-opacity:1;stroke:none;"/>
<path style="fill:none;stroke-width:5;stroke-linecap:butt;stroke-linejoin:round;stroke:rgb(100%,0%,0%);stroke-opacity:1;stroke-miterlimit:10;" d="M 5 261 L 261 261 L 261 517 L 5 517 Z M 5 261 "/>
<path style="fill-rule:nonzero;fill:rgb(90%,65%,0%);fill-opacity:1;stroke-width:1;stroke-linecap:butt;stroke-linejoin:round;stroke:rgb(0%,0%,0%);stroke-opacity:1;stroke-miterlimit:10;" d="M 130.464844 299.96875 C 130.464844 285.570312 106.464844 285.570312 106.464844 299.96875 C 106.464844 314.371094 130.464844 316.769531 130.464844 328.769531 C 130.464844 316.769531 154.464844 314.371094 154.464844 299.96875 C 154.464844 285.570312 130.464844 285.570312 130.464844 299.96875 "/>
<path style="fill-rule:nonzero;fill:rgb(100%,7%,57%);fill-opacity:1;stroke-width:1;stroke-linecap:butt;stroke-linejoin:round;stroke:rgb(0%,0%,0%);stroke-opacity:1;stroke-miterlimit:10;" d="M 306.742188 425.339844 C 306.742188 410.9375 282.742188 410.9375 282.742188 425.339844 C 282.742188 439.738281 306.742188 442.140625 306.742188 454.140625 C 306.742188 442.140625 330.742188 439.738281 330.742188 425.339844 C 330.742188 410.9375 306.742188 410.9375 306.742188 425.339844 "/>
<path style="fill-rule:nonzero;fill:rgb(90%,65%,0%);fill-opacity:1;stroke-width:1;stroke-linecap:butt;stroke-linejoin:round;stroke:rgb(0%,0%,0%);stroke-opacity:1;stroke-miterlimit:10;" d="M 473.8125 362.769531 C 473.8125 348.367188 449.8125 348.367188 449.8125 362.769531 C 449.8125 377.167969 473.8125 379.566406 473.8125 391.566406 C 473.8125 379.566406 497.8125 377.167969 497.8125 362.769531 C 497.8125 348.367188 473.8125 348.367188 473.8125 362.769531 "/>
<path style="fill-rule:nonzero;fill:rgb(90%,65%,0%);fill-opacity:1;stroke-width:1;stroke-linecap:butt;stroke-linejoin:round;stroke:rgb(0%,0%,0%);stroke-opacity:1;stroke-miterlimit:10;" d="M 362.800781 197.546875 C 362.800781 183.144531 338.800781 183.144531 338.800781 197.546875 C 338.800781 211.945312 362.800781 214.34375 362.800781 226.34375 C 362.800781 214.34375 386.800781 211.945312 386.800781 197.546875 C 386.800781 183.144531 362.800781 183.144531 362.800781 197.546875 "/>
<path style="fill-rule:nonzero;fill:rgb(90%,65%,0%);fill-opacity:1;stroke-width:1;stroke-linecap:butt;stroke-linejoin:round;stroke:rgb(0%,0%,0%);stroke-opacity:1;stroke-miterlimit:10;" d="M 370.621094 83.230469 C 370.621094 68.828125 346.621094 68.828125 346.621094 83.230469 C 346.621094 97.628906 370.621094 100.027344 370.621094 112.027344 C 370.621094 100.027344 394.621094 97.628906 394.621094 83.230469 C 394.621094 68.828125 370.621094 68.828125 370.621094 83.230469 "/>
<path style="fill-rule:nonzero;fill:rgb(90%,65%,0%);fill-opacity:1;stroke-width:1;stroke-linecap:butt;stroke-linejoin:round;stroke:rgb(0%,0%,0%);stroke-opacity:1;stroke-miterlimit:10;" d="M 450.472656 94.519531 C 450.472656 80.117188 426.472656 80.117188 426.472656 94.519531 C 426.472656 108.917969 450.472656 111.320312 450.472656 123.320312 C 450.472656 111.320312 474.472656 108.917969 474.472656 94.519531 C 474.472656 80.117188 450.472656 80.117188 450.472656 94.519531 "/>
</g>
</svg>
