<?xml version="1.0" encoding="UTF-8"?>
<svg xmlns="http://www.w3.org/2000/svg" xmlns:xlink="http://www.w3.org/1999/xlink" width="517pt" height="517pt" viewBox="0 0 517 517" version="1.1">
<g id="surface5076">
<rect x="0" y="0" width="517" height="517" style="fill:rgb(90%,90%,90%);fill-opacity:1;stroke:none;"/>
<path style="fill:none;stroke-width:5;stroke-linecap:butt;stroke-linejoin:round;stroke:rgb(100%,0%,0%);stroke-opacity:1;stroke-miterlimit:10;" d="M 261 261 L 517 261 L 517 517 L 261 517 Z M 261 261 "/>
<path style="fill-rule:nonzero;fill:rgb(0%,0%,0%);fill-opacity:1;stroke-width:1;stroke-linecap:butt;stroke-linejoin:round;stroke:rgb(0%,0%,0%);stroke-opacity:1;stroke-miterlimit:10;" d="M 448.746094 287.6875 C 448.746094 273.285156 424.746094 273.285156 424.746094 287.6875 C 424.746094 302.085938 448.746094 304.484375 448.746094 316.484375 C 448.746094 304.484375 472.746094 302.085938 472.746094 287.6875 C 472.746094 273.285156 448.746094 273.285156 448.746094 287.6875 "/>
<path style="fill-rule:nonzero;fill:rgb(100%,0%,0%);fill-opacity:1;stroke-width:1;stroke-linecap:butt;stroke-linejoin:round;stroke:rgb(0%,0%,0%);stroke-opacity:1;stroke-miterlimit:10;" d="M 411.03125 201.304688 C 411.03125 186.902344 387.03125 186.902344 387.03125 201.304688 C 387.03125 215.703125 411.03125 218.105469 411.03125 230.105469 C 411.03125 218.105469 435.03125 215.703125 435.03125 201.304688 C 435.03125 186.902344 411.03125 186.902344 411.03125 201.304688 "/>
<path style="fill-rule:nonzero;fill:rgb(100%,0%,0%);fill-opacity:1;stroke-width:1;stroke-linecap:butt;stroke-linejoin:round;stroke:rgb(0%,0%,0%);stroke-opacity:1;stroke-miterlimit:10;" d="M 61.367188 140.769531 C 61.367188 126.371094 37.367188 126.371094 37.367188 140.769531 C 37.367188 155.167969 61.367188 157.570312 61.367188 169.570312 C 61.367188 157.570312 85.367188 155.167969 85.367188 140.769531 C 85.367188 126.371094 61.367188 126.371094 61.367188 140.769531 "/>
<path style="fill-rule:nonzero;fill:rgb(100%,0%,0%);fill-opacity:1;stroke-width:1;stroke-linecap:butt;stroke-linejoin:round;stroke:rgb(0%,0%,0%);stroke-opacity:1;stroke-miterlimit:10;" d="M 89.851562 67.964844 C 89.851562 53.5625 65.851562 53.5625 65.851562 67.964844 C 65.851562 82.363281 89.851562 84.761719 89.851562 96.761719 C 89.851562 84.761719 113.851562 82.363281 113.851562 67.964844 C 113.851562 53.5625 89.851562 53.5625 89.851562 67.964844 "/>
<path style="fill-rule:nonzero;fill:rgb(100%,0%,0%);fill-opacity:1;stroke-width:1;stroke-linecap:butt;stroke-linejoin:round;stroke:rgb(0%,0%,0%);stroke-opacity:1;stroke-miterlimit:10;" d="M 106.675781 205.28125 C 106.675781 190.882812 82.675781 190.882812 82.675781 205.28125 C 82.675781 219.683594 106.675781 222.082031 106.675781 234.082031 C 106.675781 222.082031 130.675781 219.683594 130.675781 205.28125 C 130.675781 190.882812 106.675781 190.882812 106.675781 205.28125 "/>
<path style="fill-rule:nonzero;fill:rgb(0%,0%,0%);fill-opacity:1;stroke-width:1;stroke-linecap:butt;stroke-linejoin:round;stroke:rgb(0%,0%,0%);stroke-opacity:1;stroke-miterlimit:10;" d="M 74.945312 363.085938 C 74.945312 348.6875 50.945312 348.6875 50.945312 363.085938 C 50.945312 377.488281 74.945312 379.886719 74.945312 391.886719 C 74.945312 379.886719 98.945312 377.488281 98.945312 363.085938 C 98.945312 348.6875 74.945312 348.6875 74.945312 363.085938 "/>
</g>
</svg>
