<?xml version="1.0" encoding="UTF-8"?>
<svg xmlns="http://www.w3.org/2000/svg" xmlns:xlink="http://www.w3.org/1999/xlink" width="517pt" height="517pt" viewBox="0 0 517 517" version="1.1">
<g id="surface5091">
<rect x="0" y="0" width="517" height="517" style="fill:rgb(90%,90%,90%);fill-opacity:1;stroke:none;"/>
<path style="fill:none;stroke-width:5;stroke-linecap:butt;stroke-linejoin:round;stroke:rgb(100%,0%,0%);stroke-opacity:1;stroke-miterlimit:10;" d="M 261 261 L 517 261 L 517 517 L 261 517 Z M 261 261 "/>
<path style="fill-rule:nonzero;fill:rgb(0%,0%,0%);fill-opacity:1;stroke-width:1;stroke-linecap:butt;stroke-linejoin:round;stroke:rgb(0%,0%,0%);stroke-opacity:1;stroke-miterlimit:10;" d="M 334.386719 365.292969 C 334.386719 350.890625 310.386719 350.890625 310.386719 365.292969 C 310.386719 379.691406 334.386719 382.09375 334.386719 394.09375 C 334.386719 382.09375 358.386719 379.691406 358.386719 365.292969 C 358.386719 350.890625 334.386719 350.890625 334.386719 365.292969 "/>
<path style="fill-rule:nonzero;fill:rgb(100%,0%,0%);fill-opacity:1;stroke-width:1;stroke-linecap:butt;stroke-linejoin:round;stroke:rgb(0%,0%,0%);stroke-opacity:1;stroke-miterlimit:10;" d="M 395.613281 198.105469 C 395.613281 183.703125 371.613281 183.703125 371.613281 198.105469 C 371.613281 212.503906 395.613281 214.902344 395.613281 226.902344 C 395.613281 214.902344 419.613281 212.503906 419.613281 198.105469 C 419.613281 183.703125 395.613281 183.703125 395.613281 198.105469 "/>
<path style="fill-rule:nonzero;fill:rgb(0%,0%,0%);fill-opacity:1;stroke-width:1;stroke-linecap:butt;stroke-linejoin:round;stroke:rgb(0%,0%,0%);stroke-opacity:1;stroke-miterlimit:10;" d="M 337.636719 92.640625 C 337.636719 78.242188 313.636719 78.242188 313.636719 92.640625 C 313.636719 107.042969 337.636719 109.441406 337.636719 121.441406 C 337.636719 109.441406 361.636719 107.042969 361.636719 92.640625 C 361.636719 78.242188 337.636719 78.242188 337.636719 92.640625 "/>
<path style="fill-rule:nonzero;fill:rgb(0%,0%,0%);fill-opacity:1;stroke-width:1;stroke-linecap:butt;stroke-linejoin:round;stroke:rgb(0%,0%,0%);stroke-opacity:1;stroke-miterlimit:10;" d="M 71.867188 363.613281 C 71.867188 349.210938 47.867188 349.210938 47.867188 363.613281 C 47.867188 378.011719 71.867188 380.410156 71.867188 392.410156 C 71.867188 380.410156 95.867188 378.011719 95.867188 363.613281 C 95.867188 349.210938 71.867188 349.210938 71.867188 363.613281 "/>
<path style="fill-rule:nonzero;fill:rgb(0%,0%,0%);fill-opacity:1;stroke-width:1;stroke-linecap:butt;stroke-linejoin:round;stroke:rgb(0%,0%,0%);stroke-opacity:1;stroke-miterlimit:10;" d="M 96.402344 285.949219 C 96.402344 271.550781 72.402344 271.550781 72.402344 285.949219 C 72.402344 300.351562 96.402344 302.75 96.402344 314.75 C 96.402344 302.75 120.402344 300.351562 120.402344 285.949219 C 120.402344 271.550781 96.402344 271.550781 96.402344 285.949219 "/>
<path style="fill-rule:nonzero;fill:rgb(0%,0%,0%);fill-opacity:1;stroke-width:1;stroke-linecap:butt;stroke-linejoin:round;stroke:rgb(0%,0%,0%);stroke-opacity:1;stroke-miterlimit:10;" d="M 147.464844 370.949219 C 147.464844 356.546875 123.464844 356.546875 123.464844 370.949219 C 123.464844 385.347656 147.464844 387.746094 147.464844 399.746094 C 147.464844 387.746094 171.464844 385.347656 171.464844 370.949219 C 171.464844 356.546875 147.464844 356.546875 147.464844 370.949219 "/>
</g>
</svg>
