<?xml version="1.0" encoding="UTF-8"?>
<svg xmlns="http://www.w3.org/2000/svg" xmlns:xlink="http://www.w3.org/1999/xlink" width="517pt" height="517pt" viewBox="0 0 517 517" version="1.1">
<g id="surface4921">
<rect x="0" y="0" width="517" height="517" style="fill:rgb(90%,90%,90%);fill-opacity:1;stroke:none;"/>
<path style="fill:none;stroke-width:5;stroke-linecap:butt;stroke-linejoin:round;stroke:rgb(100%,0%,0%);stroke-opacity:1;stroke-miterlimit:10;" d="M 5 261 L 261 261 L 261 517 L 5 517 Z M 5 261 "/>
<path style="fill-rule:nonzero;fill:rgb(90%,65%,0%);fill-opacity:1;stroke-width:1;stroke-linecap:butt;stroke-linejoin:round;stroke:rgb(0%,0%,0%);stroke-opacity:1;stroke-miterlimit:10;" d="M 140.996094 442.238281 C 140.996094 427.839844 116.996094 427.839844 116.996094 442.238281 C 116.996094 456.640625 140.996094 459.039062 140.996094 471.039062 C 140.996094 459.039062 164.996094 456.640625 164.996094 442.238281 C 164.996094 427.839844 140.996094 427.839844 140.996094 442.238281 "/>
<path style="fill-rule:nonzero;fill:rgb(100%,7%,57%);fill-opacity:1;stroke-width:1;stroke-linecap:butt;stroke-linejoin:round;stroke:rgb(0%,0%,0%);stroke-opacity:1;stroke-miterlimit:10;" d="M 192.164062 24.929688 C 192.164062 10.527344 168.164062 10.527344 168.164062 24.929688 C 168.164062 39.328125 192.164062 41.726562 192.164062 53.726562 C 192.164062 41.726562 216.164062 39.328125 216.164062 24.929688 C 216.164062 10.527344 192.164062 10.527344 192.164062 24.929688 "/>
<path style="fill-rule:nonzero;fill:rgb(90%,65%,0%);fill-opacity:1;stroke-width:1;stroke-linecap:butt;stroke-linejoin:round;stroke:rgb(0%,0%,0%);stroke-opacity:1;stroke-miterlimit:10;" d="M 153.710938 165.152344 C 153.710938 150.753906 129.710938 150.753906 129.710938 165.152344 C 129.710938 179.550781 153.710938 181.953125 153.710938 193.953125 C 153.710938 181.953125 177.710938 179.550781 177.710938 165.152344 C 177.710938 150.753906 153.710938 150.753906 153.710938 165.152344 "/>
<path style="fill-rule:nonzero;fill:rgb(90%,65%,0%);fill-opacity:1;stroke-width:1;stroke-linecap:butt;stroke-linejoin:round;stroke:rgb(0%,0%,0%);stroke-opacity:1;stroke-miterlimit:10;" d="M 400.183594 169.332031 C 400.183594 154.929688 376.183594 154.929688 376.183594 169.332031 C 376.183594 183.730469 400.183594 186.128906 400.183594 198.128906 C 400.183594 186.128906 424.183594 183.730469 424.183594 169.332031 C 424.183594 154.929688 400.183594 154.929688 400.183594 169.332031 "/>
<path style="fill-rule:nonzero;fill:rgb(90%,65%,0%);fill-opacity:1;stroke-width:1;stroke-linecap:butt;stroke-linejoin:round;stroke:rgb(0%,0%,0%);stroke-opacity:1;stroke-miterlimit:10;" d="M 378.71875 105.269531 C 378.71875 90.867188 354.71875 90.867188 354.71875 105.269531 C 354.71875 119.667969 378.71875 122.070312 378.71875 134.070312 C 378.71875 122.070312 402.71875 119.667969 402.71875 105.269531 C 402.71875 90.867188 378.71875 90.867188 378.71875 105.269531 "/>
<path style="fill-rule:nonzero;fill:rgb(90%,65%,0%);fill-opacity:1;stroke-width:1;stroke-linecap:butt;stroke-linejoin:round;stroke:rgb(0%,0%,0%);stroke-opacity:1;stroke-miterlimit:10;" d="M 344.882812 30.121094 C 344.882812 15.71875 320.882812 15.71875 320.882812 30.121094 C 320.882812 44.519531 344.882812 46.921875 344.882812 58.921875 C 344.882812 46.921875 368.882812 44.519531 368.882812 30.121094 C 368.882812 15.71875 344.882812 15.71875 344.882812 30.121094 "/>
</g>
</svg>
