<?xml version="1.0" encoding="UTF-8"?>
<svg xmlns="http://www.w3.org/2000/svg" xmlns:xlink="http://www.w3.org/1999/xlink" width="517pt" height="517pt" viewBox="0 0 517 517" version="1.1">
<g id="surface4726">
<rect x="0" y="0" width="517" height="517" style="fill:rgb(90%,90%,90%);fill-opacity:1;stroke:none;"/>
<path style="fill:none;stroke-width:5;stroke-linecap:butt;stroke-linejoin:round;stroke:rgb(100%,0%,0%);stroke-opacity:1;stroke-miterlimit:10;" d="M 5 261 L 261 261 L 261 517 L 5 517 Z M 5 261 "/>
<path style="fill-rule:nonzero;fill:rgb(53%,27%,7%);fill-opacity:1;stroke-width:1;stroke-linecap:butt;stroke-linejoin:round;stroke:rgb(0%,0%,0%);stroke-opacity:1;stroke-miterlimit:10;" d="M 131.683594 444.484375 C 131.683594 430.085938 107.683594 430.085938 107.683594 444.484375 C 107.683594 458.882812 131.683594 461.285156 131.683594 473.285156 C 131.683594 461.285156 155.683594 458.882812 155.683594 444.484375 C 155.683594 430.085938 131.683594 430.085938 131.683594 444.484375 "/>
<path style="fill-rule:nonzero;fill:rgb(100%,0%,0%);fill-opacity:1;stroke-width:1;stroke-linecap:butt;stroke-linejoin:round;stroke:rgb(0%,0%,0%);stroke-opacity:1;stroke-miterlimit:10;" d="M 374.542969 457.507812 C 374.542969 443.105469 350.542969 443.105469 350.542969 457.507812 C 350.542969 471.90625 374.542969 474.308594 374.542969 486.308594 C 374.542969 474.308594 398.542969 471.90625 398.542969 457.507812 C 398.542969 443.105469 374.542969 443.105469 374.542969 457.507812 "/>
<path style="fill-rule:nonzero;fill:rgb(100%,0%,0%);fill-opacity:1;stroke-width:1;stroke-linecap:butt;stroke-linejoin:round;stroke:rgb(0%,0%,0%);stroke-opacity:1;stroke-miterlimit:10;" d="M 120.746094 200.6875 C 120.746094 186.285156 96.746094 186.285156 96.746094 200.6875 C 96.746094 215.085938 120.746094 217.484375 120.746094 229.484375 C 120.746094 217.484375 144.746094 215.085938 144.746094 200.6875 C 144.746094 186.285156 120.746094 186.285156 120.746094 200.6875 "/>
<path style="fill-rule:nonzero;fill:rgb(100%,0%,0%);fill-opacity:1;stroke-width:1;stroke-linecap:butt;stroke-linejoin:round;stroke:rgb(0%,0%,0%);stroke-opacity:1;stroke-miterlimit:10;" d="M 85.117188 103.023438 C 85.117188 88.625 61.117188 88.625 61.117188 103.023438 C 61.117188 117.425781 85.117188 119.824219 85.117188 131.824219 C 85.117188 119.824219 109.117188 117.425781 109.117188 103.023438 C 109.117188 88.625 85.117188 88.625 85.117188 103.023438 "/>
<path style="fill-rule:nonzero;fill:rgb(100%,0%,0%);fill-opacity:1;stroke-width:1;stroke-linecap:butt;stroke-linejoin:round;stroke:rgb(0%,0%,0%);stroke-opacity:1;stroke-miterlimit:10;" d="M 161.78125 74.789062 C 161.78125 60.386719 137.78125 60.386719 137.78125 74.789062 C 137.78125 89.1875 161.78125 91.585938 161.78125 103.585938 C 161.78125 91.585938 185.78125 89.1875 185.78125 74.789062 C 185.78125 60.386719 161.78125 60.386719 161.78125 74.789062 "/>
<path style="fill-rule:nonzero;fill:rgb(100%,0%,0%);fill-opacity:1;stroke-width:1;stroke-linecap:butt;stroke-linejoin:round;stroke:rgb(0%,0%,0%);stroke-opacity:1;stroke-miterlimit:10;" d="M 54.726562 21.035156 C 54.726562 6.632812 30.726562 6.632812 30.726562 21.035156 C 30.726562 35.433594 54.726562 37.835938 54.726562 49.835938 C 54.726562 37.835938 78.726562 35.433594 78.726562 21.035156 C 78.726562 6.632812 54.726562 6.632812 54.726562 21.035156 "/>
</g>
</svg>
