<?xml version="1.0" encoding="UTF-8"?>
<svg xmlns="http://www.w3.org/2000/svg" xmlns:xlink="http://www.w3.org/1999/xlink" width="517pt" height="517pt" viewBox="0 0 517 517" version="1.1">
<g id="surface4806">
<rect x="0" y="0" width="517" height="517" style="fill:rgb(90%,90%,90%);fill-opacity:1;stroke:none;"/>
<path style="fill:none;stroke-width:5;stroke-linecap:butt;stroke-linejoin:round;stroke:rgb(100%,0%,0%);stroke-opacity:1;stroke-miterlimit:10;" d="M 5 261 L 261 261 L 261 517 L 5 517 Z M 5 261 "/>
<path style="fill-rule:nonzero;fill:rgb(100%,0%,0%);fill-opacity:1;stroke-width:1;stroke-linecap:butt;stroke-linejoin:round;stroke:rgb(0%,0%,0%);stroke-opacity:1;stroke-miterlimit:10;" d="M 198.917969 308.363281 C 198.917969 293.960938 174.917969 293.960938 174.917969 308.363281 C 174.917969 322.761719 198.917969 325.164062 198.917969 337.164062 C 198.917969 325.164062 222.917969 322.761719 222.917969 308.363281 C 222.917969 293.960938 198.917969 293.960938 198.917969 308.363281 "/>
<path style="fill-rule:nonzero;fill:rgb(35%,70%,90%);fill-opacity:1;stroke-width:1;stroke-linecap:butt;stroke-linejoin:round;stroke:rgb(0%,0%,0%);stroke-opacity:1;stroke-miterlimit:10;" d="M 152.816406 205.359375 C 152.816406 190.957031 128.816406 190.957031 128.816406 205.359375 C 128.816406 219.757812 152.816406 222.15625 152.816406 234.15625 C 152.816406 222.15625 176.816406 219.757812 176.816406 205.359375 C 176.816406 190.957031 152.816406 190.957031 152.816406 205.359375 "/>
<path style="fill-rule:nonzero;fill:rgb(35%,70%,90%);fill-opacity:1;stroke-width:1;stroke-linecap:butt;stroke-linejoin:round;stroke:rgb(0%,0%,0%);stroke-opacity:1;stroke-miterlimit:10;" d="M 433.160156 101.84375 C 433.160156 87.445312 409.160156 87.445312 409.160156 101.84375 C 409.160156 116.246094 433.160156 118.644531 433.160156 130.644531 C 433.160156 118.644531 457.160156 116.246094 457.160156 101.84375 C 457.160156 87.445312 433.160156 87.445312 433.160156 101.84375 "/>
<path style="fill-rule:nonzero;fill:rgb(35%,70%,90%);fill-opacity:1;stroke-width:1;stroke-linecap:butt;stroke-linejoin:round;stroke:rgb(0%,0%,0%);stroke-opacity:1;stroke-miterlimit:10;" d="M 420.277344 418.269531 C 420.277344 403.867188 396.277344 403.867188 396.277344 418.269531 C 396.277344 432.667969 420.277344 435.066406 420.277344 447.066406 C 420.277344 435.066406 444.277344 432.667969 444.277344 418.269531 C 444.277344 403.867188 420.277344 403.867188 420.277344 418.269531 "/>
<path style="fill-rule:nonzero;fill:rgb(35%,70%,90%);fill-opacity:1;stroke-width:1;stroke-linecap:butt;stroke-linejoin:round;stroke:rgb(0%,0%,0%);stroke-opacity:1;stroke-miterlimit:10;" d="M 339.519531 282.335938 C 339.519531 267.933594 315.519531 267.933594 315.519531 282.335938 C 315.519531 296.734375 339.519531 299.136719 339.519531 311.136719 C 339.519531 299.136719 363.519531 296.734375 363.519531 282.335938 C 363.519531 267.933594 339.519531 267.933594 339.519531 282.335938 "/>
<path style="fill-rule:nonzero;fill:rgb(35%,70%,90%);fill-opacity:1;stroke-width:1;stroke-linecap:butt;stroke-linejoin:round;stroke:rgb(0%,0%,0%);stroke-opacity:1;stroke-miterlimit:10;" d="M 318.433594 356.480469 C 318.433594 342.082031 294.433594 342.082031 294.433594 356.480469 C 294.433594 370.882812 318.433594 373.28125 318.433594 385.28125 C 318.433594 373.28125 342.433594 370.882812 342.433594 356.480469 C 342.433594 342.082031 318.433594 342.082031 318.433594 356.480469 "/>
</g>
</svg>
