<?xml version="1.0" encoding="UTF-8"?>
<svg xmlns="http://www.w3.org/2000/svg" xmlns:xlink="http://www.w3.org/1999/xlink" width="517pt" height="517pt" viewBox="0 0 517 517" version="1.1">
<g id="surface4931">
<rect x="0" y="0" width="517" height="517" style="fill:rgb(90%,90%,90%);fill-opacity:1;stroke:none;"/>
<path style="fill:none;stroke-width:5;stroke-linecap:butt;stroke-linejoin:round;stroke:rgb(100%,0%,0%);stroke-opacity:1;stroke-miterlimit:10;" d="M 5 261 L 261 261 L 261 517 L 5 517 Z M 5 261 "/>
<path style="fill-rule:nonzero;fill:rgb(90%,65%,0%);fill-opacity:1;stroke-width:1;stroke-linecap:butt;stroke-linejoin:round;stroke:rgb(0%,0%,0%);stroke-opacity:1;stroke-miterlimit:10;" d="M 201.011719 341.785156 C 201.011719 327.386719 177.011719 327.386719 177.011719 341.785156 C 177.011719 356.183594 201.011719 358.585938 201.011719 370.585938 C 201.011719 358.585938 225.011719 356.183594 225.011719 341.785156 C 225.011719 327.386719 201.011719 327.386719 201.011719 341.785156 "/>
<path style="fill-rule:nonzero;fill:rgb(100%,7%,57%);fill-opacity:1;stroke-width:1;stroke-linecap:butt;stroke-linejoin:round;stroke:rgb(0%,0%,0%);stroke-opacity:1;stroke-miterlimit:10;" d="M 183.402344 156.851562 C 183.402344 142.449219 159.402344 142.449219 159.402344 156.851562 C 159.402344 171.25 183.402344 173.648438 183.402344 185.648438 C 183.402344 173.648438 207.402344 171.25 207.402344 156.851562 C 207.402344 142.449219 183.402344 142.449219 183.402344 156.851562 "/>
<path style="fill-rule:nonzero;fill:rgb(90%,65%,0%);fill-opacity:1;stroke-width:1;stroke-linecap:butt;stroke-linejoin:round;stroke:rgb(0%,0%,0%);stroke-opacity:1;stroke-miterlimit:10;" d="M 310.21875 335.898438 C 310.21875 321.496094 286.21875 321.496094 286.21875 335.898438 C 286.21875 350.296875 310.21875 352.699219 310.21875 364.699219 C 310.21875 352.699219 334.21875 350.296875 334.21875 335.898438 C 334.21875 321.496094 310.21875 321.496094 310.21875 335.898438 "/>
<path style="fill-rule:nonzero;fill:rgb(90%,65%,0%);fill-opacity:1;stroke-width:1;stroke-linecap:butt;stroke-linejoin:round;stroke:rgb(0%,0%,0%);stroke-opacity:1;stroke-miterlimit:10;" d="M 453.375 282.433594 C 453.375 268.035156 429.375 268.035156 429.375 282.433594 C 429.375 296.835938 453.375 299.234375 453.375 311.234375 C 453.375 299.234375 477.375 296.835938 477.375 282.433594 C 477.375 268.035156 453.375 268.035156 453.375 282.433594 "/>
<path style="fill-rule:nonzero;fill:rgb(90%,65%,0%);fill-opacity:1;stroke-width:1;stroke-linecap:butt;stroke-linejoin:round;stroke:rgb(0%,0%,0%);stroke-opacity:1;stroke-miterlimit:10;" d="M 438.4375 432.9375 C 438.4375 418.535156 414.4375 418.535156 414.4375 432.9375 C 414.4375 447.335938 438.4375 449.734375 438.4375 461.734375 C 438.4375 449.734375 462.4375 447.335938 462.4375 432.9375 C 462.4375 418.535156 438.4375 418.535156 438.4375 432.9375 "/>
<path style="fill-rule:nonzero;fill:rgb(90%,65%,0%);fill-opacity:1;stroke-width:1;stroke-linecap:butt;stroke-linejoin:round;stroke:rgb(0%,0%,0%);stroke-opacity:1;stroke-miterlimit:10;" d="M 353.355469 111.242188 C 353.355469 96.84375 329.355469 96.84375 329.355469 111.242188 C 329.355469 125.644531 353.355469 128.042969 353.355469 140.042969 C 353.355469 128.042969 377.355469 125.644531 377.355469 111.242188 C 377.355469 96.84375 353.355469 96.84375 353.355469 111.242188 "/>
</g>
</svg>
