<?xml version="1.0" encoding="UTF-8"?>
<svg xmlns="http://www.w3.org/2000/svg" xmlns:xlink="http://www.w3.org/1999/xlink" width="517pt" height="517pt" viewBox="0 0 517 517" version="1.1">
<g id="surface5001">
<rect x="0" y="0" width="517" height="517" style="fill:rgb(90%,90%,90%);fill-opacity:1;stroke:none;"/>
<path style="fill:none;stroke-width:5;stroke-linecap:butt;stroke-linejoin:round;stroke:rgb(100%,0%,0%);stroke-opacity:1;stroke-miterlimit:10;" d="M 261 261 L 517 261 L 517 517 L 261 517 Z M 261 261 "/>
<path style="fill-rule:nonzero;fill:rgb(67%,100%,18%);fill-opacity:1;stroke-width:1;stroke-linecap:butt;stroke-linejoin:round;stroke:rgb(0%,0%,0%);stroke-opacity:1;stroke-miterlimit:10;" d="M 307.324219 376.582031 C 307.324219 362.183594 283.324219 362.183594 283.324219 376.582031 C 283.324219 390.984375 307.324219 393.382812 307.324219 405.382812 C 307.324219 393.382812 331.324219 390.984375 331.324219 376.582031 C 331.324219 362.183594 307.324219 362.183594 307.324219 376.582031 "/>
<path style="fill-rule:nonzero;fill:rgb(0%,0%,0%);fill-opacity:1;stroke-width:1;stroke-linecap:butt;stroke-linejoin:round;stroke:rgb(0%,0%,0%);stroke-opacity:1;stroke-miterlimit:10;" d="M 80.066406 47.917969 C 80.066406 33.515625 56.066406 33.515625 56.066406 47.917969 C 56.066406 62.316406 80.066406 64.71875 80.066406 76.71875 C 80.066406 64.71875 104.066406 62.316406 104.066406 47.917969 C 104.066406 33.515625 80.066406 33.515625 80.066406 47.917969 "/>
<path style="fill-rule:nonzero;fill:rgb(67%,100%,18%);fill-opacity:1;stroke-width:1;stroke-linecap:butt;stroke-linejoin:round;stroke:rgb(0%,0%,0%);stroke-opacity:1;stroke-miterlimit:10;" d="M 56.125 115.523438 C 56.125 101.121094 32.125 101.121094 32.125 115.523438 C 32.125 129.921875 56.125 132.320312 56.125 144.320312 C 56.125 132.320312 80.125 129.921875 80.125 115.523438 C 80.125 101.121094 56.125 101.121094 56.125 115.523438 "/>
<path style="fill-rule:nonzero;fill:rgb(67%,100%,18%);fill-opacity:1;stroke-width:1;stroke-linecap:butt;stroke-linejoin:round;stroke:rgb(0%,0%,0%);stroke-opacity:1;stroke-miterlimit:10;" d="M 185.1875 411.800781 C 185.1875 397.402344 161.1875 397.402344 161.1875 411.800781 C 161.1875 426.199219 185.1875 428.601562 185.1875 440.601562 C 185.1875 428.601562 209.1875 426.199219 209.1875 411.800781 C 209.1875 397.402344 185.1875 397.402344 185.1875 411.800781 "/>
<path style="fill-rule:nonzero;fill:rgb(67%,100%,18%);fill-opacity:1;stroke-width:1;stroke-linecap:butt;stroke-linejoin:round;stroke:rgb(0%,0%,0%);stroke-opacity:1;stroke-miterlimit:10;" d="M 111.765625 460.480469 C 111.765625 446.078125 87.765625 446.078125 87.765625 460.480469 C 87.765625 474.878906 111.765625 477.28125 111.765625 489.28125 C 111.765625 477.28125 135.765625 474.878906 135.765625 460.480469 C 135.765625 446.078125 111.765625 446.078125 111.765625 460.480469 "/>
<path style="fill-rule:nonzero;fill:rgb(67%,100%,18%);fill-opacity:1;stroke-width:1;stroke-linecap:butt;stroke-linejoin:round;stroke:rgb(0%,0%,0%);stroke-opacity:1;stroke-miterlimit:10;" d="M 100.085938 343.308594 C 100.085938 328.90625 76.085938 328.90625 76.085938 343.308594 C 76.085938 357.707031 100.085938 360.105469 100.085938 372.105469 C 100.085938 360.105469 124.085938 357.707031 124.085938 343.308594 C 124.085938 328.90625 100.085938 328.90625 100.085938 343.308594 "/>
</g>
</svg>
