<?xml version="1.0" encoding="UTF-8"?>
<svg xmlns="http://www.w3.org/2000/svg" xmlns:xlink="http://www.w3.org/1999/xlink" width="517pt" height="517pt" viewBox="0 0 517 517" version="1.1">
<g id="surface4776">
<rect x="0" y="0" width="517" height="517" style="fill:rgb(90%,90%,90%);fill-opacity:1;stroke:none;"/>
<path style="fill:none;stroke-width:5;stroke-linecap:butt;stroke-linejoin:round;stroke:rgb(100%,0%,0%);stroke-opacity:1;stroke-miterlimit:10;" d="M 5 261 L 261 261 L 261 517 L 5 517 Z M 5 261 "/>
<path style="fill-rule:nonzero;fill:rgb(53%,27%,7%);fill-opacity:1;stroke-width:1;stroke-linecap:butt;stroke-linejoin:round;stroke:rgb(0%,0%,0%);stroke-opacity:1;stroke-miterlimit:10;" d="M 58.738281 317.351562 C 58.738281 302.953125 34.738281 302.953125 34.738281 317.351562 C 34.738281 331.753906 58.738281 334.152344 58.738281 346.152344 C 58.738281 334.152344 82.738281 331.753906 82.738281 317.351562 C 82.738281 302.953125 58.738281 302.953125 58.738281 317.351562 "/>
<path style="fill-rule:nonzero;fill:rgb(100%,0%,0%);fill-opacity:1;stroke-width:1;stroke-linecap:butt;stroke-linejoin:round;stroke:rgb(0%,0%,0%);stroke-opacity:1;stroke-miterlimit:10;" d="M 401.039062 31.707031 C 401.039062 17.308594 377.039062 17.308594 377.039062 31.707031 C 377.039062 46.109375 401.039062 48.507812 401.039062 60.507812 C 401.039062 48.507812 425.039062 46.109375 425.039062 31.707031 C 425.039062 17.308594 401.039062 17.308594 401.039062 31.707031 "/>
<path style="fill-rule:nonzero;fill:rgb(53%,27%,7%);fill-opacity:1;stroke-width:1;stroke-linecap:butt;stroke-linejoin:round;stroke:rgb(0%,0%,0%);stroke-opacity:1;stroke-miterlimit:10;" d="M 174.535156 204.195312 C 174.535156 189.796875 150.535156 189.796875 150.535156 204.195312 C 150.535156 218.59375 174.535156 220.996094 174.535156 232.996094 C 174.535156 220.996094 198.535156 218.59375 198.535156 204.195312 C 198.535156 189.796875 174.535156 189.796875 174.535156 204.195312 "/>
<path style="fill-rule:nonzero;fill:rgb(53%,27%,7%);fill-opacity:1;stroke-width:1;stroke-linecap:butt;stroke-linejoin:round;stroke:rgb(0%,0%,0%);stroke-opacity:1;stroke-miterlimit:10;" d="M 413.3125 300.972656 C 413.3125 286.574219 389.3125 286.574219 389.3125 300.972656 C 389.3125 315.375 413.3125 317.773438 413.3125 329.773438 C 413.3125 317.773438 437.3125 315.375 437.3125 300.972656 C 437.3125 286.574219 413.3125 286.574219 413.3125 300.972656 "/>
<path style="fill-rule:nonzero;fill:rgb(53%,27%,7%);fill-opacity:1;stroke-width:1;stroke-linecap:butt;stroke-linejoin:round;stroke:rgb(0%,0%,0%);stroke-opacity:1;stroke-miterlimit:10;" d="M 367.203125 456.089844 C 367.203125 441.6875 343.203125 441.6875 343.203125 456.089844 C 343.203125 470.488281 367.203125 472.890625 367.203125 484.890625 C 367.203125 472.890625 391.203125 470.488281 391.203125 456.089844 C 391.203125 441.6875 367.203125 441.6875 367.203125 456.089844 "/>
<path style="fill-rule:nonzero;fill:rgb(53%,27%,7%);fill-opacity:1;stroke-width:1;stroke-linecap:butt;stroke-linejoin:round;stroke:rgb(0%,0%,0%);stroke-opacity:1;stroke-miterlimit:10;" d="M 311.277344 317.183594 C 311.277344 302.785156 287.277344 302.785156 287.277344 317.183594 C 287.277344 331.582031 311.277344 333.984375 311.277344 345.984375 C 311.277344 333.984375 335.277344 331.582031 335.277344 317.183594 C 335.277344 302.785156 311.277344 302.785156 311.277344 317.183594 "/>
</g>
</svg>
