<?xml version="1.0" encoding="UTF-8"?>
<svg xmlns="http://www.w3.org/2000/svg" xmlns:xlink="http://www.w3.org/1999/xlink" width="517pt" height="517pt" viewBox="0 0 517 517" version="1.1">
<g id="surface4831">
<rect x="0" y="0" width="517" height="517" style="fill:rgb(90%,90%,90%);fill-opacity:1;stroke:none;"/>
<path style="fill:none;stroke-width:5;stroke-linecap:butt;stroke-linejoin:round;stroke:rgb(100%,0%,0%);stroke-opacity:1;stroke-miterlimit:10;" d="M 5 261 L 261 261 L 261 517 L 5 517 Z M 5 261 "/>
<path style="fill-rule:nonzero;fill:rgb(100%,0%,0%);fill-opacity:1;stroke-width:1;stroke-linecap:butt;stroke-linejoin:round;stroke:rgb(0%,0%,0%);stroke-opacity:1;stroke-miterlimit:10;" d="M 84.882812 434.1875 C 84.882812 419.789062 60.882812 419.789062 60.882812 434.1875 C 60.882812 448.589844 84.882812 450.988281 84.882812 462.988281 C 84.882812 450.988281 108.882812 448.589844 108.882812 434.1875 C 108.882812 419.789062 84.882812 419.789062 84.882812 434.1875 "/>
<path style="fill-rule:nonzero;fill:rgb(35%,70%,90%);fill-opacity:1;stroke-width:1;stroke-linecap:butt;stroke-linejoin:round;stroke:rgb(0%,0%,0%);stroke-opacity:1;stroke-miterlimit:10;" d="M 443.066406 360.023438 C 443.066406 345.625 419.066406 345.625 419.066406 360.023438 C 419.066406 374.425781 443.066406 376.824219 443.066406 388.824219 C 443.066406 376.824219 467.066406 374.425781 467.066406 360.023438 C 467.066406 345.625 443.066406 345.625 443.066406 360.023438 "/>
<path style="fill-rule:nonzero;fill:rgb(35%,70%,90%);fill-opacity:1;stroke-width:1;stroke-linecap:butt;stroke-linejoin:round;stroke:rgb(0%,0%,0%);stroke-opacity:1;stroke-miterlimit:10;" d="M 408.023438 45.164062 C 408.023438 30.765625 384.023438 30.765625 384.023438 45.164062 C 384.023438 59.5625 408.023438 61.964844 408.023438 73.964844 C 408.023438 61.964844 432.023438 59.5625 432.023438 45.164062 C 432.023438 30.765625 408.023438 30.765625 408.023438 45.164062 "/>
<path style="fill-rule:nonzero;fill:rgb(35%,70%,90%);fill-opacity:1;stroke-width:1;stroke-linecap:butt;stroke-linejoin:round;stroke:rgb(0%,0%,0%);stroke-opacity:1;stroke-miterlimit:10;" d="M 101.308594 192.480469 C 101.308594 178.078125 77.308594 178.078125 77.308594 192.480469 C 77.308594 206.878906 101.308594 209.277344 101.308594 221.277344 C 101.308594 209.277344 125.308594 206.878906 125.308594 192.480469 C 125.308594 178.078125 101.308594 178.078125 101.308594 192.480469 "/>
<path style="fill-rule:nonzero;fill:rgb(35%,70%,90%);fill-opacity:1;stroke-width:1;stroke-linecap:butt;stroke-linejoin:round;stroke:rgb(0%,0%,0%);stroke-opacity:1;stroke-miterlimit:10;" d="M 216.03125 81.316406 C 216.03125 66.914062 192.03125 66.914062 192.03125 81.316406 C 192.03125 95.714844 216.03125 98.117188 216.03125 110.117188 C 216.03125 98.117188 240.03125 95.714844 240.03125 81.316406 C 240.03125 66.914062 216.03125 66.914062 216.03125 81.316406 "/>
<path style="fill-rule:nonzero;fill:rgb(100%,0%,0%);fill-opacity:1;stroke-width:1;stroke-linecap:butt;stroke-linejoin:round;stroke:rgb(0%,0%,0%);stroke-opacity:1;stroke-miterlimit:10;" d="M 92.492188 68.136719 C 92.492188 53.734375 68.492188 53.734375 68.492188 68.136719 C 68.492188 82.535156 92.492188 84.933594 92.492188 96.933594 C 92.492188 84.933594 116.492188 82.535156 116.492188 68.136719 C 116.492188 53.734375 92.492188 53.734375 92.492188 68.136719 "/>
</g>
</svg>
