<?xml version="1.0" encoding="UTF-8"?>
<svg xmlns="http://www.w3.org/2000/svg" xmlns:xlink="http://www.w3.org/1999/xlink" width="517pt" height="517pt" viewBox="0 0 517 517" version="1.1">
<g id="surface4876">
<rect x="0" y="0" width="517" height="517" style="fill:rgb(90%,90%,90%);fill-opacity:1;stroke:none;"/>
<path style="fill:none;stroke-width:5;stroke-linecap:butt;stroke-linejoin:round;stroke:rgb(100%,0%,0%);stroke-opacity:1;stroke-miterlimit:10;" d="M 5 261 L 261 261 L 261 517 L 5 517 Z M 5 261 "/>
<path style="fill-rule:nonzero;fill:rgb(35%,70%,90%);fill-opacity:1;stroke-width:1;stroke-linecap:butt;stroke-linejoin:round;stroke:rgb(0%,0%,0%);stroke-opacity:1;stroke-miterlimit:10;" d="M 149.910156 313.578125 C 149.910156 299.175781 125.910156 299.175781 125.910156 313.578125 C 125.910156 327.976562 149.910156 330.375 149.910156 342.375 C 149.910156 330.375 173.910156 327.976562 173.910156 313.578125 C 173.910156 299.175781 149.910156 299.175781 149.910156 313.578125 "/>
<path style="fill-rule:nonzero;fill:rgb(35%,70%,90%);fill-opacity:1;stroke-width:1;stroke-linecap:butt;stroke-linejoin:round;stroke:rgb(0%,0%,0%);stroke-opacity:1;stroke-miterlimit:10;" d="M 429.625 35.710938 C 429.625 21.3125 405.625 21.3125 405.625 35.710938 C 405.625 50.113281 429.625 52.511719 429.625 64.511719 C 429.625 52.511719 453.625 50.113281 453.625 35.710938 C 453.625 21.3125 429.625 21.3125 429.625 35.710938 "/>
<path style="fill-rule:nonzero;fill:rgb(35%,70%,90%);fill-opacity:1;stroke-width:1;stroke-linecap:butt;stroke-linejoin:round;stroke:rgb(0%,0%,0%);stroke-opacity:1;stroke-miterlimit:10;" d="M 152.460938 47.480469 C 152.460938 33.082031 128.460938 33.082031 128.460938 47.480469 C 128.460938 61.882812 152.460938 64.28125 152.460938 76.28125 C 152.460938 64.28125 176.460938 61.882812 176.460938 47.480469 C 176.460938 33.082031 152.460938 33.082031 152.460938 47.480469 "/>
<path style="fill-rule:nonzero;fill:rgb(35%,70%,90%);fill-opacity:1;stroke-width:1;stroke-linecap:butt;stroke-linejoin:round;stroke:rgb(0%,0%,0%);stroke-opacity:1;stroke-miterlimit:10;" d="M 151.496094 163.980469 C 151.496094 149.578125 127.496094 149.578125 127.496094 163.980469 C 127.496094 178.378906 151.496094 180.78125 151.496094 192.78125 C 151.496094 180.78125 175.496094 178.378906 175.496094 163.980469 C 175.496094 149.578125 151.496094 149.578125 151.496094 163.980469 "/>
<path style="fill-rule:nonzero;fill:rgb(35%,70%,90%);fill-opacity:1;stroke-width:1;stroke-linecap:butt;stroke-linejoin:round;stroke:rgb(0%,0%,0%);stroke-opacity:1;stroke-miterlimit:10;" d="M 218.535156 150.3125 C 218.535156 135.910156 194.535156 135.910156 194.535156 150.3125 C 194.535156 164.710938 218.535156 167.109375 218.535156 179.109375 C 218.535156 167.109375 242.535156 164.710938 242.535156 150.3125 C 242.535156 135.910156 218.535156 135.910156 218.535156 150.3125 "/>
<path style="fill-rule:nonzero;fill:rgb(100%,0%,0%);fill-opacity:1;stroke-width:1;stroke-linecap:butt;stroke-linejoin:round;stroke:rgb(0%,0%,0%);stroke-opacity:1;stroke-miterlimit:10;" d="M 419.308594 424.90625 C 419.308594 410.507812 395.308594 410.507812 395.308594 424.90625 C 395.308594 439.304688 419.308594 441.707031 419.308594 453.707031 C 419.308594 441.707031 443.308594 439.304688 443.308594 424.90625 C 443.308594 410.507812 419.308594 410.507812 419.308594 424.90625 "/>
</g>
</svg>
