<?xml version="1.0" encoding="UTF-8"?>
<svg xmlns="http://www.w3.org/2000/svg" xmlns:xlink="http://www.w3.org/1999/xlink" width="517pt" height="517pt" viewBox="0 0 517 517" version="1.1">
<g id="surface5546">
<rect x="0" y="0" width="517" height="517" style="fill:rgb(90%,90%,90%);fill-opacity:1;stroke:none;"/>
<path style="fill-rule:nonzero;fill:rgb(90%,65%,0%);fill-opacity:1;stroke-width:1;stroke-linecap:butt;stroke-linejoin:miter;stroke:rgb(0%,0%,0%);stroke-opacity:1;stroke-miterlimit:10;" d="M 115.125 397.933594 C 115.125 414.5 101.691406 427.933594 85.125 427.933594 C 68.554688 427.933594 55.125 414.5 55.125 397.933594 C 55.125 381.363281 68.554688 367.933594 85.125 367.933594 C 101.691406 367.933594 115.125 381.363281 115.125 397.933594 "/>
<path style="fill-rule:nonzero;fill:rgb(90%,65%,0%);fill-opacity:1;stroke-width:1;stroke-linecap:butt;stroke-linejoin:miter;stroke:rgb(0%,0%,0%);stroke-opacity:1;stroke-miterlimit:10;" d="M 240.777344 293.488281 C 240.777344 310.058594 227.347656 323.488281 210.777344 323.488281 C 194.210938 323.488281 180.777344 310.058594 180.777344 293.488281 C 180.777344 276.921875 194.210938 263.488281 210.777344 263.488281 C 227.347656 263.488281 240.777344 276.921875 240.777344 293.488281 "/>
<path style="fill-rule:nonzero;fill:rgb(50%,0%,50%);fill-opacity:1;stroke-width:1;stroke-linecap:butt;stroke-linejoin:miter;stroke:rgb(0%,0%,0%);stroke-opacity:1;stroke-miterlimit:10;" d="M 345.253906 369.910156 C 345.253906 386.480469 331.824219 399.910156 315.253906 399.910156 C 298.6875 399.910156 285.253906 386.480469 285.253906 369.910156 C 285.253906 353.34375 298.6875 339.910156 315.253906 339.910156 C 331.824219 339.910156 345.253906 353.34375 345.253906 369.910156 "/>
<path style="fill-rule:nonzero;fill:rgb(50%,0%,50%);fill-opacity:1;stroke-width:1;stroke-linecap:butt;stroke-linejoin:miter;stroke:rgb(0%,0%,0%);stroke-opacity:1;stroke-miterlimit:10;" d="M 475.828125 390.601562 C 475.828125 407.167969 462.394531 420.601562 445.828125 420.601562 C 429.257812 420.601562 415.828125 407.167969 415.828125 390.601562 C 415.828125 374.03125 429.257812 360.601562 445.828125 360.601562 C 462.394531 360.601562 475.828125 374.03125 475.828125 390.601562 "/>
<path style="fill-rule:nonzero;fill:rgb(50%,0%,50%);fill-opacity:1;stroke-width:1;stroke-linecap:butt;stroke-linejoin:miter;stroke:rgb(0%,0%,0%);stroke-opacity:1;stroke-miterlimit:10;" d="M 414.816406 339.886719 C 414.816406 356.453125 401.386719 369.886719 384.816406 369.886719 C 368.25 369.886719 354.816406 356.453125 354.816406 339.886719 C 354.816406 323.316406 368.25 309.886719 384.816406 309.886719 C 401.386719 309.886719 414.816406 323.316406 414.816406 339.886719 "/>
<path style="fill-rule:nonzero;fill:rgb(50%,0%,50%);fill-opacity:1;stroke-width:1;stroke-linecap:butt;stroke-linejoin:miter;stroke:rgb(0%,0%,0%);stroke-opacity:1;stroke-miterlimit:10;" d="M 367.46875 459.804688 C 367.46875 476.375 354.039062 489.804688 337.46875 489.804688 C 320.898438 489.804688 307.46875 476.375 307.46875 459.804688 C 307.46875 443.238281 320.898438 429.804688 337.46875 429.804688 C 354.039062 429.804688 367.46875 443.238281 367.46875 459.804688 "/>
<path style="fill-rule:nonzero;fill:rgb(50%,0%,50%);fill-opacity:1;stroke-width:1;stroke-linecap:butt;stroke-linejoin:miter;stroke:rgb(0%,0%,0%);stroke-opacity:1;stroke-miterlimit:10;" d="M 206.8125 162.890625 C 206.8125 179.457031 193.382812 192.890625 176.8125 192.890625 C 160.246094 192.890625 146.8125 179.457031 146.8125 162.890625 C 146.8125 146.320312 160.246094 132.890625 176.8125 132.890625 C 193.382812 132.890625 206.8125 146.320312 206.8125 162.890625 "/>
<path style="fill-rule:nonzero;fill:rgb(50%,0%,50%);fill-opacity:1;stroke-width:1;stroke-linecap:butt;stroke-linejoin:miter;stroke:rgb(0%,0%,0%);stroke-opacity:1;stroke-miterlimit:10;" d="M 65.355469 115.941406 C 65.355469 132.507812 51.925781 145.941406 35.355469 145.941406 C 18.789062 145.941406 5.355469 132.507812 5.355469 115.941406 C 5.355469 99.371094 18.789062 85.941406 35.355469 85.941406 C 51.925781 85.941406 65.355469 99.371094 65.355469 115.941406 "/>
</g>
</svg>
