<?xml version="1.0" encoding="UTF-8"?>
<svg xmlns="http://www.w3.org/2000/svg" xmlns:xlink="http://www.w3.org/1999/xlink" width="517pt" height="517pt" viewBox="0 0 517 517" version="1.1">
<g id="surface4721">
<rect x="0" y="0" width="517" height="517" style="fill:rgb(90%,90%,90%);fill-opacity:1;stroke:none;"/>
<path style="fill:none;stroke-width:5;stroke-linecap:butt;stroke-linejoin:round;stroke:rgb(100%,0%,0%);stroke-opacity:1;stroke-miterlimit:10;" d="M 5 261 L 261 261 L 261 517 L 5 517 Z M 5 261 "/>
<path style="fill-rule:nonzero;fill:rgb(53%,27%,7%);fill-opacity:1;stroke-width:1;stroke-linecap:butt;stroke-linejoin:round;stroke:rgb(0%,0%,0%);stroke-opacity:1;stroke-miterlimit:10;" d="M 177.09375 353.800781 C 177.09375 339.402344 153.09375 339.402344 153.09375 353.800781 C 153.09375 368.199219 177.09375 370.601562 177.09375 382.601562 C 177.09375 370.601562 201.09375 368.199219 201.09375 353.800781 C 201.09375 339.402344 177.09375 339.402344 177.09375 353.800781 "/>
<path style="fill-rule:nonzero;fill:rgb(100%,0%,0%);fill-opacity:1;stroke-width:1;stroke-linecap:butt;stroke-linejoin:round;stroke:rgb(0%,0%,0%);stroke-opacity:1;stroke-miterlimit:10;" d="M 51.300781 103.195312 C 51.300781 88.792969 27.300781 88.792969 27.300781 103.195312 C 27.300781 117.59375 51.300781 119.996094 51.300781 131.996094 C 51.300781 119.996094 75.300781 117.59375 75.300781 103.195312 C 75.300781 88.792969 51.300781 88.792969 51.300781 103.195312 "/>
<path style="fill-rule:nonzero;fill:rgb(100%,0%,0%);fill-opacity:1;stroke-width:1;stroke-linecap:butt;stroke-linejoin:round;stroke:rgb(0%,0%,0%);stroke-opacity:1;stroke-miterlimit:10;" d="M 391.746094 327.761719 C 391.746094 313.363281 367.746094 313.363281 367.746094 327.761719 C 367.746094 342.164062 391.746094 344.5625 391.746094 356.5625 C 391.746094 344.5625 415.746094 342.164062 415.746094 327.761719 C 415.746094 313.363281 391.746094 313.363281 391.746094 327.761719 "/>
<path style="fill-rule:nonzero;fill:rgb(100%,0%,0%);fill-opacity:1;stroke-width:1;stroke-linecap:butt;stroke-linejoin:round;stroke:rgb(0%,0%,0%);stroke-opacity:1;stroke-miterlimit:10;" d="M 297.882812 368.167969 C 297.882812 353.769531 273.882812 353.769531 273.882812 368.167969 C 273.882812 382.570312 297.882812 384.96875 297.882812 396.96875 C 297.882812 384.96875 321.882812 382.570312 321.882812 368.167969 C 321.882812 353.769531 297.882812 353.769531 297.882812 368.167969 "/>
<path style="fill-rule:nonzero;fill:rgb(100%,0%,0%);fill-opacity:1;stroke-width:1;stroke-linecap:butt;stroke-linejoin:round;stroke:rgb(0%,0%,0%);stroke-opacity:1;stroke-miterlimit:10;" d="M 445.890625 440.515625 C 445.890625 426.113281 421.890625 426.113281 421.890625 440.515625 C 421.890625 454.914062 445.890625 457.316406 445.890625 469.316406 C 445.890625 457.316406 469.890625 454.914062 469.890625 440.515625 C 469.890625 426.113281 445.890625 426.113281 445.890625 440.515625 "/>
<path style="fill-rule:nonzero;fill:rgb(100%,0%,0%);fill-opacity:1;stroke-width:1;stroke-linecap:butt;stroke-linejoin:round;stroke:rgb(0%,0%,0%);stroke-opacity:1;stroke-miterlimit:10;" d="M 371.351562 449.664062 C 371.351562 435.265625 347.351562 435.265625 347.351562 449.664062 C 347.351562 464.066406 371.351562 466.464844 371.351562 478.464844 C 371.351562 466.464844 395.351562 464.066406 395.351562 449.664062 C 395.351562 435.265625 371.351562 435.265625 371.351562 449.664062 "/>
</g>
</svg>
