<?xml version="1.0" encoding="UTF-8"?>
<svg xmlns="http://www.w3.org/2000/svg" xmlns:xlink="http://www.w3.org/1999/xlink" width="517pt" height="517pt" viewBox="0 0 517 517" version="1.1">
<g id="surface4736">
<rect x="0" y="0" width="517" height="517" style="fill:rgb(90%,90%,90%);fill-opacity:1;stroke:none;"/>
<path style="fill:none;stroke-width:5;stroke-linecap:butt;stroke-linejoin:round;stroke:rgb(100%,0%,0%);stroke-opacity:1;stroke-miterlimit:10;" d="M 5 261 L 261 261 L 261 517 L 5 517 Z M 5 261 "/>
<path style="fill-rule:nonzero;fill:rgb(53%,27%,7%);fill-opacity:1;stroke-width:1;stroke-linecap:butt;stroke-linejoin:round;stroke:rgb(0%,0%,0%);stroke-opacity:1;stroke-miterlimit:10;" d="M 152.519531 405.75 C 152.519531 391.347656 128.519531 391.347656 128.519531 405.75 C 128.519531 420.148438 152.519531 422.550781 152.519531 434.550781 C 152.519531 422.550781 176.519531 420.148438 176.519531 405.75 C 176.519531 391.347656 152.519531 391.347656 152.519531 405.75 "/>
<path style="fill-rule:nonzero;fill:rgb(100%,0%,0%);fill-opacity:1;stroke-width:1;stroke-linecap:butt;stroke-linejoin:round;stroke:rgb(0%,0%,0%);stroke-opacity:1;stroke-miterlimit:10;" d="M 342.503906 70.554688 C 342.503906 56.152344 318.503906 56.152344 318.503906 70.554688 C 318.503906 84.953125 342.503906 87.355469 342.503906 99.355469 C 342.503906 87.355469 366.503906 84.953125 366.503906 70.554688 C 366.503906 56.152344 342.503906 56.152344 342.503906 70.554688 "/>
<path style="fill-rule:nonzero;fill:rgb(100%,0%,0%);fill-opacity:1;stroke-width:1;stroke-linecap:butt;stroke-linejoin:round;stroke:rgb(0%,0%,0%);stroke-opacity:1;stroke-miterlimit:10;" d="M 447.300781 50.667969 C 447.300781 36.265625 423.300781 36.265625 423.300781 50.667969 C 423.300781 65.066406 447.300781 67.46875 447.300781 79.46875 C 447.300781 67.46875 471.300781 65.066406 471.300781 50.667969 C 471.300781 36.265625 447.300781 36.265625 447.300781 50.667969 "/>
<path style="fill-rule:nonzero;fill:rgb(100%,0%,0%);fill-opacity:1;stroke-width:1;stroke-linecap:butt;stroke-linejoin:round;stroke:rgb(0%,0%,0%);stroke-opacity:1;stroke-miterlimit:10;" d="M 467.90625 335.820312 C 467.90625 321.417969 443.90625 321.417969 443.90625 335.820312 C 443.90625 350.21875 467.90625 352.617188 467.90625 364.617188 C 467.90625 352.617188 491.90625 350.21875 491.90625 335.820312 C 491.90625 321.417969 467.90625 321.417969 467.90625 335.820312 "/>
<path style="fill-rule:nonzero;fill:rgb(100%,0%,0%);fill-opacity:1;stroke-width:1;stroke-linecap:butt;stroke-linejoin:round;stroke:rgb(0%,0%,0%);stroke-opacity:1;stroke-miterlimit:10;" d="M 327.285156 439.957031 C 327.285156 425.558594 303.285156 425.558594 303.285156 439.957031 C 303.285156 454.355469 327.285156 456.757812 327.285156 468.757812 C 327.285156 456.757812 351.285156 454.355469 351.285156 439.957031 C 351.285156 425.558594 327.285156 425.558594 327.285156 439.957031 "/>
<path style="fill-rule:nonzero;fill:rgb(100%,0%,0%);fill-opacity:1;stroke-width:1;stroke-linecap:butt;stroke-linejoin:round;stroke:rgb(0%,0%,0%);stroke-opacity:1;stroke-miterlimit:10;" d="M 358.050781 369.613281 C 358.050781 355.214844 334.050781 355.214844 334.050781 369.613281 C 334.050781 384.015625 358.050781 386.414062 358.050781 398.414062 C 358.050781 386.414062 382.050781 384.015625 382.050781 369.613281 C 382.050781 355.214844 358.050781 355.214844 358.050781 369.613281 "/>
</g>
</svg>
