<?xml version="1.0" encoding="UTF-8"?>
<svg xmlns="http://www.w3.org/2000/svg" xmlns:xlink="http://www.w3.org/1999/xlink" width="517pt" height="517pt" viewBox="0 0 517 517" version="1.1">
<g id="surface5036">
<rect x="0" y="0" width="517" height="517" style="fill:rgb(90%,90%,90%);fill-opacity:1;stroke:none;"/>
<path style="fill:none;stroke-width:5;stroke-linecap:butt;stroke-linejoin:round;stroke:rgb(100%,0%,0%);stroke-opacity:1;stroke-miterlimit:10;" d="M 261 261 L 517 261 L 517 517 L 261 517 Z M 261 261 "/>
<path style="fill-rule:nonzero;fill:rgb(0%,0%,0%);fill-opacity:1;stroke-width:1;stroke-linecap:butt;stroke-linejoin:round;stroke:rgb(0%,0%,0%);stroke-opacity:1;stroke-miterlimit:10;" d="M 355.511719 330.445312 C 355.511719 316.042969 331.511719 316.042969 331.511719 330.445312 C 331.511719 344.84375 355.511719 347.242188 355.511719 359.242188 C 355.511719 347.242188 379.511719 344.84375 379.511719 330.445312 C 379.511719 316.042969 355.511719 316.042969 355.511719 330.445312 "/>
<path style="fill-rule:nonzero;fill:rgb(0%,0%,0%);fill-opacity:1;stroke-width:1;stroke-linecap:butt;stroke-linejoin:round;stroke:rgb(0%,0%,0%);stroke-opacity:1;stroke-miterlimit:10;" d="M 41.816406 360.226562 C 41.816406 345.824219 17.816406 345.824219 17.816406 360.226562 C 17.816406 374.625 41.816406 377.027344 41.816406 389.027344 C 41.816406 377.027344 65.816406 374.625 65.816406 360.226562 C 65.816406 345.824219 41.816406 345.824219 41.816406 360.226562 "/>
<path style="fill-rule:nonzero;fill:rgb(0%,0%,0%);fill-opacity:1;stroke-width:1;stroke-linecap:butt;stroke-linejoin:round;stroke:rgb(0%,0%,0%);stroke-opacity:1;stroke-miterlimit:10;" d="M 134.488281 374.628906 C 134.488281 360.226562 110.488281 360.226562 110.488281 374.628906 C 110.488281 389.027344 134.488281 391.425781 134.488281 403.425781 C 134.488281 391.425781 158.488281 389.027344 158.488281 374.628906 C 158.488281 360.226562 134.488281 360.226562 134.488281 374.628906 "/>
<path style="fill-rule:nonzero;fill:rgb(0%,0%,0%);fill-opacity:1;stroke-width:1;stroke-linecap:butt;stroke-linejoin:round;stroke:rgb(0%,0%,0%);stroke-opacity:1;stroke-miterlimit:10;" d="M 429.425781 149.25 C 429.425781 134.851562 405.425781 134.851562 405.425781 149.25 C 405.425781 163.652344 429.425781 166.050781 429.425781 178.050781 C 429.425781 166.050781 453.425781 163.652344 453.425781 149.25 C 453.425781 134.851562 429.425781 134.851562 429.425781 149.25 "/>
<path style="fill-rule:nonzero;fill:rgb(0%,0%,0%);fill-opacity:1;stroke-width:1;stroke-linecap:butt;stroke-linejoin:round;stroke:rgb(0%,0%,0%);stroke-opacity:1;stroke-miterlimit:10;" d="M 45.566406 138.730469 C 45.566406 124.328125 21.566406 124.328125 21.566406 138.730469 C 21.566406 153.128906 45.566406 155.53125 45.566406 167.53125 C 45.566406 155.53125 69.566406 153.128906 69.566406 138.730469 C 69.566406 124.328125 45.566406 124.328125 45.566406 138.730469 "/>
<path style="fill-rule:nonzero;fill:rgb(67%,100%,18%);fill-opacity:1;stroke-width:1;stroke-linecap:butt;stroke-linejoin:round;stroke:rgb(0%,0%,0%);stroke-opacity:1;stroke-miterlimit:10;" d="M 106.46875 46.664062 C 106.46875 32.261719 82.46875 32.261719 82.46875 46.664062 C 82.46875 61.0625 106.46875 63.464844 106.46875 75.464844 C 106.46875 63.464844 130.46875 61.0625 130.46875 46.664062 C 130.46875 32.261719 106.46875 32.261719 106.46875 46.664062 "/>
</g>
</svg>
