<?xml version="1.0" encoding="UTF-8"?>
<svg xmlns="http://www.w3.org/2000/svg" xmlns:xlink="http://www.w3.org/1999/xlink" width="517pt" height="517pt" viewBox="0 0 517 517" version="1.1">
<g id="surface4871">
<rect x="0" y="0" width="517" height="517" style="fill:rgb(90%,90%,90%);fill-opacity:1;stroke:none;"/>
<path style="fill:none;stroke-width:5;stroke-linecap:butt;stroke-linejoin:round;stroke:rgb(100%,0%,0%);stroke-opacity:1;stroke-miterlimit:10;" d="M 5 261 L 261 261 L 261 517 L 5 517 Z M 5 261 "/>
<path style="fill-rule:nonzero;fill:rgb(35%,70%,90%);fill-opacity:1;stroke-width:1;stroke-linecap:butt;stroke-linejoin:round;stroke:rgb(0%,0%,0%);stroke-opacity:1;stroke-miterlimit:10;" d="M 159.046875 343.320312 C 159.046875 328.917969 135.046875 328.917969 135.046875 343.320312 C 135.046875 357.71875 159.046875 360.117188 159.046875 372.117188 C 159.046875 360.117188 183.046875 357.71875 183.046875 343.320312 C 183.046875 328.917969 159.046875 328.917969 159.046875 343.320312 "/>
<path style="fill-rule:nonzero;fill:rgb(35%,70%,90%);fill-opacity:1;stroke-width:1;stroke-linecap:butt;stroke-linejoin:round;stroke:rgb(0%,0%,0%);stroke-opacity:1;stroke-miterlimit:10;" d="M 102.941406 76.261719 C 102.941406 61.859375 78.941406 61.859375 78.941406 76.261719 C 78.941406 90.660156 102.941406 93.0625 102.941406 105.0625 C 102.941406 93.0625 126.941406 90.660156 126.941406 76.261719 C 126.941406 61.859375 102.941406 61.859375 102.941406 76.261719 "/>
<path style="fill-rule:nonzero;fill:rgb(100%,0%,0%);fill-opacity:1;stroke-width:1;stroke-linecap:butt;stroke-linejoin:round;stroke:rgb(0%,0%,0%);stroke-opacity:1;stroke-miterlimit:10;" d="M 302.304688 295.664062 C 302.304688 281.265625 278.304688 281.265625 278.304688 295.664062 C 278.304688 310.066406 302.304688 312.464844 302.304688 324.464844 C 302.304688 312.464844 326.304688 310.066406 326.304688 295.664062 C 326.304688 281.265625 302.304688 281.265625 302.304688 295.664062 "/>
<path style="fill-rule:nonzero;fill:rgb(100%,0%,0%);fill-opacity:1;stroke-width:1;stroke-linecap:butt;stroke-linejoin:round;stroke:rgb(0%,0%,0%);stroke-opacity:1;stroke-miterlimit:10;" d="M 466.988281 373.871094 C 466.988281 359.46875 442.988281 359.46875 442.988281 373.871094 C 442.988281 388.269531 466.988281 390.671875 466.988281 402.671875 C 466.988281 390.671875 490.988281 388.269531 490.988281 373.871094 C 490.988281 359.46875 466.988281 359.46875 466.988281 373.871094 "/>
<path style="fill-rule:nonzero;fill:rgb(100%,0%,0%);fill-opacity:1;stroke-width:1;stroke-linecap:butt;stroke-linejoin:round;stroke:rgb(0%,0%,0%);stroke-opacity:1;stroke-miterlimit:10;" d="M 330.179688 174.777344 C 330.179688 160.378906 306.179688 160.378906 306.179688 174.777344 C 306.179688 189.175781 330.179688 191.578125 330.179688 203.578125 C 330.179688 191.578125 354.179688 189.175781 354.179688 174.777344 C 354.179688 160.378906 330.179688 160.378906 330.179688 174.777344 "/>
<path style="fill-rule:nonzero;fill:rgb(100%,0%,0%);fill-opacity:1;stroke-width:1;stroke-linecap:butt;stroke-linejoin:round;stroke:rgb(0%,0%,0%);stroke-opacity:1;stroke-miterlimit:10;" d="M 344.816406 79.050781 C 344.816406 64.648438 320.816406 64.648438 320.816406 79.050781 C 320.816406 93.449219 344.816406 95.851562 344.816406 107.851562 C 344.816406 95.851562 368.816406 93.449219 368.816406 79.050781 C 368.816406 64.648438 344.816406 64.648438 344.816406 79.050781 "/>
</g>
</svg>
