<?xml version="1.0" encoding="UTF-8"?>
<svg xmlns="http://www.w3.org/2000/svg" xmlns:xlink="http://www.w3.org/1999/xlink" width="517pt" height="517pt" viewBox="0 0 517 517" version="1.1">
<g id="surface5061">
<rect x="0" y="0" width="517" height="517" style="fill:rgb(90%,90%,90%);fill-opacity:1;stroke:none;"/>
<path style="fill:none;stroke-width:5;stroke-linecap:butt;stroke-linejoin:round;stroke:rgb(100%,0%,0%);stroke-opacity:1;stroke-miterlimit:10;" d="M 261 261 L 517 261 L 517 517 L 261 517 Z M 261 261 "/>
<path style="fill-rule:nonzero;fill:rgb(0%,0%,0%);fill-opacity:1;stroke-width:1;stroke-linecap:butt;stroke-linejoin:round;stroke:rgb(0%,0%,0%);stroke-opacity:1;stroke-miterlimit:10;" d="M 312.605469 455.917969 C 312.605469 441.519531 288.605469 441.519531 288.605469 455.917969 C 288.605469 470.316406 312.605469 472.71875 312.605469 484.71875 C 312.605469 472.71875 336.605469 470.316406 336.605469 455.917969 C 336.605469 441.519531 312.605469 441.519531 312.605469 455.917969 "/>
<path style="fill-rule:nonzero;fill:rgb(100%,0%,0%);fill-opacity:1;stroke-width:1;stroke-linecap:butt;stroke-linejoin:round;stroke:rgb(0%,0%,0%);stroke-opacity:1;stroke-miterlimit:10;" d="M 442.488281 86.230469 C 442.488281 71.832031 418.488281 71.832031 418.488281 86.230469 C 418.488281 100.632812 442.488281 103.03125 442.488281 115.03125 C 442.488281 103.03125 466.488281 100.632812 466.488281 86.230469 C 466.488281 71.832031 442.488281 71.832031 442.488281 86.230469 "/>
<path style="fill-rule:nonzero;fill:rgb(100%,0%,0%);fill-opacity:1;stroke-width:1;stroke-linecap:butt;stroke-linejoin:round;stroke:rgb(0%,0%,0%);stroke-opacity:1;stroke-miterlimit:10;" d="M 69.371094 119.78125 C 69.371094 105.382812 45.371094 105.382812 45.371094 119.78125 C 45.371094 134.179688 69.371094 136.582031 69.371094 148.582031 C 69.371094 136.582031 93.371094 134.179688 93.371094 119.78125 C 93.371094 105.382812 69.371094 105.382812 69.371094 119.78125 "/>
<path style="fill-rule:nonzero;fill:rgb(100%,0%,0%);fill-opacity:1;stroke-width:1;stroke-linecap:butt;stroke-linejoin:round;stroke:rgb(0%,0%,0%);stroke-opacity:1;stroke-miterlimit:10;" d="M 218.179688 126.609375 C 218.179688 112.210938 194.179688 112.210938 194.179688 126.609375 C 194.179688 141.011719 218.179688 143.410156 218.179688 155.410156 C 218.179688 143.410156 242.179688 141.011719 242.179688 126.609375 C 242.179688 112.210938 218.179688 112.210938 218.179688 126.609375 "/>
<path style="fill-rule:nonzero;fill:rgb(100%,0%,0%);fill-opacity:1;stroke-width:1;stroke-linecap:butt;stroke-linejoin:round;stroke:rgb(0%,0%,0%);stroke-opacity:1;stroke-miterlimit:10;" d="M 196.820312 27.785156 C 196.820312 13.382812 172.820312 13.382812 172.820312 27.785156 C 172.820312 42.183594 196.820312 44.585938 196.820312 56.585938 C 196.820312 44.585938 220.820312 42.183594 220.820312 27.785156 C 220.820312 13.382812 196.820312 13.382812 196.820312 27.785156 "/>
<path style="fill-rule:nonzero;fill:rgb(0%,0%,0%);fill-opacity:1;stroke-width:1;stroke-linecap:butt;stroke-linejoin:round;stroke:rgb(0%,0%,0%);stroke-opacity:1;stroke-miterlimit:10;" d="M 163.628906 152.800781 C 163.628906 138.402344 139.628906 138.402344 139.628906 152.800781 C 139.628906 167.199219 163.628906 169.601562 163.628906 181.601562 C 163.628906 169.601562 187.628906 167.199219 187.628906 152.800781 C 187.628906 138.402344 163.628906 138.402344 163.628906 152.800781 "/>
</g>
</svg>
