<?xml version="1.0" encoding="UTF-8"?>
<svg xmlns="http://www.w3.org/2000/svg" xmlns:xlink="http://www.w3.org/1999/xlink" width="517pt" height="517pt" viewBox="0 0 517 517" version="1.1">
<g id="surface4861">
<rect x="0" y="0" width="517" height="517" style="fill:rgb(90%,90%,90%);fill-opacity:1;stroke:none;"/>
<path style="fill:none;stroke-width:5;stroke-linecap:butt;stroke-linejoin:round;stroke:rgb(100%,0%,0%);stroke-opacity:1;stroke-miterlimit:10;" d="M 5 261 L 261 261 L 261 517 L 5 517 Z M 5 261 "/>
<path style="fill-rule:nonzero;fill:rgb(35%,70%,90%);fill-opacity:1;stroke-width:1;stroke-linecap:butt;stroke-linejoin:round;stroke:rgb(0%,0%,0%);stroke-opacity:1;stroke-miterlimit:10;" d="M 95.886719 340.234375 C 95.886719 325.835938 71.886719 325.835938 71.886719 340.234375 C 71.886719 354.632812 95.886719 357.035156 95.886719 369.035156 C 95.886719 357.035156 119.886719 354.632812 119.886719 340.234375 C 119.886719 325.835938 95.886719 325.835938 95.886719 340.234375 "/>
<path style="fill-rule:nonzero;fill:rgb(35%,70%,90%);fill-opacity:1;stroke-width:1;stroke-linecap:butt;stroke-linejoin:round;stroke:rgb(0%,0%,0%);stroke-opacity:1;stroke-miterlimit:10;" d="M 449.222656 172.265625 C 449.222656 157.863281 425.222656 157.863281 425.222656 172.265625 C 425.222656 186.664062 449.222656 189.0625 449.222656 201.0625 C 449.222656 189.0625 473.222656 186.664062 473.222656 172.265625 C 473.222656 157.863281 449.222656 157.863281 449.222656 172.265625 "/>
<path style="fill-rule:nonzero;fill:rgb(35%,70%,90%);fill-opacity:1;stroke-width:1;stroke-linecap:butt;stroke-linejoin:round;stroke:rgb(0%,0%,0%);stroke-opacity:1;stroke-miterlimit:10;" d="M 326.296875 438.722656 C 326.296875 424.324219 302.296875 424.324219 302.296875 438.722656 C 302.296875 453.125 326.296875 455.523438 326.296875 467.523438 C 326.296875 455.523438 350.296875 453.125 350.296875 438.722656 C 350.296875 424.324219 326.296875 424.324219 326.296875 438.722656 "/>
<path style="fill-rule:nonzero;fill:rgb(35%,70%,90%);fill-opacity:1;stroke-width:1;stroke-linecap:butt;stroke-linejoin:round;stroke:rgb(0%,0%,0%);stroke-opacity:1;stroke-miterlimit:10;" d="M 397.769531 354.988281 C 397.769531 340.589844 373.769531 340.589844 373.769531 354.988281 C 373.769531 369.386719 397.769531 371.789062 397.769531 383.789062 C 397.769531 371.789062 421.769531 369.386719 421.769531 354.988281 C 421.769531 340.589844 397.769531 340.589844 397.769531 354.988281 "/>
<path style="fill-rule:nonzero;fill:rgb(35%,70%,90%);fill-opacity:1;stroke-width:1;stroke-linecap:butt;stroke-linejoin:round;stroke:rgb(0%,0%,0%);stroke-opacity:1;stroke-miterlimit:10;" d="M 430.449219 416.867188 C 430.449219 402.46875 406.449219 402.46875 406.449219 416.867188 C 406.449219 431.269531 430.449219 433.667969 430.449219 445.667969 C 430.449219 433.667969 454.449219 431.269531 454.449219 416.867188 C 454.449219 402.46875 430.449219 402.46875 430.449219 416.867188 "/>
<path style="fill-rule:nonzero;fill:rgb(100%,0%,0%);fill-opacity:1;stroke-width:1;stroke-linecap:butt;stroke-linejoin:round;stroke:rgb(0%,0%,0%);stroke-opacity:1;stroke-miterlimit:10;" d="M 425.261719 293.929688 C 425.261719 279.53125 401.261719 279.53125 401.261719 293.929688 C 401.261719 308.332031 425.261719 310.730469 425.261719 322.730469 C 425.261719 310.730469 449.261719 308.332031 449.261719 293.929688 C 449.261719 279.53125 425.261719 279.53125 425.261719 293.929688 "/>
</g>
</svg>
