<?xml version="1.0" encoding="UTF-8"?>
<svg xmlns="http://www.w3.org/2000/svg" xmlns:xlink="http://www.w3.org/1999/xlink" width="517pt" height="517pt" viewBox="0 0 517 517" version="1.1">
<g id="surface5041">
<rect x="0" y="0" width="517" height="517" style="fill:rgb(90%,90%,90%);fill-opacity:1;stroke:none;"/>
<path style="fill:none;stroke-width:5;stroke-linecap:butt;stroke-linejoin:round;stroke:rgb(100%,0%,0%);stroke-opacity:1;stroke-miterlimit:10;" d="M 261 261 L 517 261 L 517 517 L 261 517 Z M 261 261 "/>
<path style="fill-rule:nonzero;fill:rgb(0%,0%,0%);fill-opacity:1;stroke-width:1;stroke-linecap:butt;stroke-linejoin:round;stroke:rgb(0%,0%,0%);stroke-opacity:1;stroke-miterlimit:10;" d="M 453.253906 451.429688 C 453.253906 437.027344 429.253906 437.027344 429.253906 451.429688 C 429.253906 465.828125 453.253906 468.230469 453.253906 480.230469 C 453.253906 468.230469 477.253906 465.828125 477.253906 451.429688 C 477.253906 437.027344 453.253906 437.027344 453.253906 451.429688 "/>
<path style="fill-rule:nonzero;fill:rgb(100%,0%,0%);fill-opacity:1;stroke-width:1;stroke-linecap:butt;stroke-linejoin:round;stroke:rgb(0%,0%,0%);stroke-opacity:1;stroke-miterlimit:10;" d="M 462.734375 188.046875 C 462.734375 173.648438 438.734375 173.648438 438.734375 188.046875 C 438.734375 202.449219 462.734375 204.847656 462.734375 216.847656 C 462.734375 204.847656 486.734375 202.449219 486.734375 188.046875 C 486.734375 173.648438 462.734375 173.648438 462.734375 188.046875 "/>
<path style="fill-rule:nonzero;fill:rgb(100%,0%,0%);fill-opacity:1;stroke-width:1;stroke-linecap:butt;stroke-linejoin:round;stroke:rgb(0%,0%,0%);stroke-opacity:1;stroke-miterlimit:10;" d="M 401.515625 111.4375 C 401.515625 97.039062 377.515625 97.039062 377.515625 111.4375 C 377.515625 125.839844 401.515625 128.238281 401.515625 140.238281 C 401.515625 128.238281 425.515625 125.839844 425.515625 111.4375 C 425.515625 97.039062 401.515625 97.039062 401.515625 111.4375 "/>
<path style="fill-rule:nonzero;fill:rgb(100%,0%,0%);fill-opacity:1;stroke-width:1;stroke-linecap:butt;stroke-linejoin:round;stroke:rgb(0%,0%,0%);stroke-opacity:1;stroke-miterlimit:10;" d="M 58.59375 383.359375 C 58.59375 368.957031 34.59375 368.957031 34.59375 383.359375 C 34.59375 397.757812 58.59375 400.15625 58.59375 412.15625 C 58.59375 400.15625 82.59375 397.757812 82.59375 383.359375 C 82.59375 368.957031 58.59375 368.957031 58.59375 383.359375 "/>
<path style="fill-rule:nonzero;fill:rgb(100%,0%,0%);fill-opacity:1;stroke-width:1;stroke-linecap:butt;stroke-linejoin:round;stroke:rgb(0%,0%,0%);stroke-opacity:1;stroke-miterlimit:10;" d="M 159.308594 410.84375 C 159.308594 396.445312 135.308594 396.445312 135.308594 410.84375 C 135.308594 425.246094 159.308594 427.644531 159.308594 439.644531 C 159.308594 427.644531 183.308594 425.246094 183.308594 410.84375 C 183.308594 396.445312 159.308594 396.445312 159.308594 410.84375 "/>
<path style="fill-rule:nonzero;fill:rgb(100%,0%,0%);fill-opacity:1;stroke-width:1;stroke-linecap:butt;stroke-linejoin:round;stroke:rgb(0%,0%,0%);stroke-opacity:1;stroke-miterlimit:10;" d="M 128.78125 189.589844 C 128.78125 175.191406 104.78125 175.191406 104.78125 189.589844 C 104.78125 203.992188 128.78125 206.390625 128.78125 218.390625 C 128.78125 206.390625 152.78125 203.992188 152.78125 189.589844 C 152.78125 175.191406 128.78125 175.191406 128.78125 189.589844 "/>
</g>
</svg>
