<?xml version="1.0" encoding="UTF-8"?>
<svg xmlns="http://www.w3.org/2000/svg" xmlns:xlink="http://www.w3.org/1999/xlink" width="517pt" height="517pt" viewBox="0 0 517 517" version="1.1">
<g id="surface4941">
<rect x="0" y="0" width="517" height="517" style="fill:rgb(90%,90%,90%);fill-opacity:1;stroke:none;"/>
<path style="fill:none;stroke-width:5;stroke-linecap:butt;stroke-linejoin:round;stroke:rgb(100%,0%,0%);stroke-opacity:1;stroke-miterlimit:10;" d="M 5 261 L 261 261 L 261 517 L 5 517 Z M 5 261 "/>
<path style="fill-rule:nonzero;fill:rgb(25%,88%,82%);fill-opacity:1;stroke-width:1;stroke-linecap:butt;stroke-linejoin:round;stroke:rgb(0%,0%,0%);stroke-opacity:1;stroke-miterlimit:10;" d="M 105.828125 385.542969 C 105.828125 371.144531 81.828125 371.144531 81.828125 385.542969 C 81.828125 399.945312 105.828125 402.34375 105.828125 414.34375 C 105.828125 402.34375 129.828125 399.945312 129.828125 385.542969 C 129.828125 371.144531 105.828125 371.144531 105.828125 385.542969 "/>
<path style="fill-rule:nonzero;fill:rgb(100%,7%,57%);fill-opacity:1;stroke-width:1;stroke-linecap:butt;stroke-linejoin:round;stroke:rgb(0%,0%,0%);stroke-opacity:1;stroke-miterlimit:10;" d="M 186.589844 203.824219 C 186.589844 189.425781 162.589844 189.425781 162.589844 203.824219 C 162.589844 218.226562 186.589844 220.625 186.589844 232.625 C 186.589844 220.625 210.589844 218.226562 210.589844 203.824219 C 210.589844 189.425781 186.589844 189.425781 186.589844 203.824219 "/>
<path style="fill-rule:nonzero;fill:rgb(100%,7%,57%);fill-opacity:1;stroke-width:1;stroke-linecap:butt;stroke-linejoin:round;stroke:rgb(0%,0%,0%);stroke-opacity:1;stroke-miterlimit:10;" d="M 92.722656 156.335938 C 92.722656 141.9375 68.722656 141.9375 68.722656 156.335938 C 68.722656 170.738281 92.722656 173.136719 92.722656 185.136719 C 92.722656 173.136719 116.722656 170.738281 116.722656 156.335938 C 116.722656 141.9375 92.722656 141.9375 92.722656 156.335938 "/>
<path style="fill-rule:nonzero;fill:rgb(100%,7%,57%);fill-opacity:1;stroke-width:1;stroke-linecap:butt;stroke-linejoin:round;stroke:rgb(0%,0%,0%);stroke-opacity:1;stroke-miterlimit:10;" d="M 336.703125 322.621094 C 336.703125 308.222656 312.703125 308.222656 312.703125 322.621094 C 312.703125 337.023438 336.703125 339.421875 336.703125 351.421875 C 336.703125 339.421875 360.703125 337.023438 360.703125 322.621094 C 360.703125 308.222656 336.703125 308.222656 336.703125 322.621094 "/>
<path style="fill-rule:nonzero;fill:rgb(100%,7%,57%);fill-opacity:1;stroke-width:1;stroke-linecap:butt;stroke-linejoin:round;stroke:rgb(0%,0%,0%);stroke-opacity:1;stroke-miterlimit:10;" d="M 406.9375 351.75 C 406.9375 337.347656 382.9375 337.347656 382.9375 351.75 C 382.9375 366.148438 406.9375 368.550781 406.9375 380.550781 C 406.9375 368.550781 430.9375 366.148438 430.9375 351.75 C 430.9375 337.347656 406.9375 337.347656 406.9375 351.75 "/>
<path style="fill-rule:nonzero;fill:rgb(90%,65%,0%);fill-opacity:1;stroke-width:1;stroke-linecap:butt;stroke-linejoin:round;stroke:rgb(0%,0%,0%);stroke-opacity:1;stroke-miterlimit:10;" d="M 433.808594 423.589844 C 433.808594 409.1875 409.808594 409.1875 409.808594 423.589844 C 409.808594 437.988281 433.808594 440.390625 433.808594 452.390625 C 433.808594 440.390625 457.808594 437.988281 457.808594 423.589844 C 457.808594 409.1875 433.808594 409.1875 433.808594 423.589844 "/>
</g>
</svg>
