<?xml version="1.0" encoding="UTF-8"?>
<svg xmlns="http://www.w3.org/2000/svg" xmlns:xlink="http://www.w3.org/1999/xlink" width="517pt" height="517pt" viewBox="0 0 517 517" version="1.1">
<g id="surface5066">
<rect x="0" y="0" width="517" height="517" style="fill:rgb(90%,90%,90%);fill-opacity:1;stroke:none;"/>
<path style="fill:none;stroke-width:5;stroke-linecap:butt;stroke-linejoin:round;stroke:rgb(100%,0%,0%);stroke-opacity:1;stroke-miterlimit:10;" d="M 261 261 L 517 261 L 517 517 L 261 517 Z M 261 261 "/>
<path style="fill-rule:nonzero;fill:rgb(0%,0%,0%);fill-opacity:1;stroke-width:1;stroke-linecap:butt;stroke-linejoin:round;stroke:rgb(0%,0%,0%);stroke-opacity:1;stroke-miterlimit:10;" d="M 291.492188 281.917969 C 291.492188 267.519531 267.492188 267.519531 267.492188 281.917969 C 267.492188 296.320312 291.492188 298.71875 291.492188 310.71875 C 291.492188 298.71875 315.492188 296.320312 315.492188 281.917969 C 315.492188 267.519531 291.492188 267.519531 291.492188 281.917969 "/>
<path style="fill-rule:nonzero;fill:rgb(100%,0%,0%);fill-opacity:1;stroke-width:1;stroke-linecap:butt;stroke-linejoin:round;stroke:rgb(0%,0%,0%);stroke-opacity:1;stroke-miterlimit:10;" d="M 203.507812 182.574219 C 203.507812 168.175781 179.507812 168.175781 179.507812 182.574219 C 179.507812 196.976562 203.507812 199.375 203.507812 211.375 C 203.507812 199.375 227.507812 196.976562 227.507812 182.574219 C 227.507812 168.175781 203.507812 168.175781 203.507812 182.574219 "/>
<path style="fill-rule:nonzero;fill:rgb(100%,0%,0%);fill-opacity:1;stroke-width:1;stroke-linecap:butt;stroke-linejoin:round;stroke:rgb(0%,0%,0%);stroke-opacity:1;stroke-miterlimit:10;" d="M 71.539062 388.492188 C 71.539062 374.089844 47.539062 374.089844 47.539062 388.492188 C 47.539062 402.890625 71.539062 405.292969 71.539062 417.292969 C 71.539062 405.292969 95.539062 402.890625 95.539062 388.492188 C 95.539062 374.089844 71.539062 374.089844 71.539062 388.492188 "/>
<path style="fill-rule:nonzero;fill:rgb(100%,0%,0%);fill-opacity:1;stroke-width:1;stroke-linecap:butt;stroke-linejoin:round;stroke:rgb(0%,0%,0%);stroke-opacity:1;stroke-miterlimit:10;" d="M 209.742188 427.671875 C 209.742188 413.273438 185.742188 413.273438 185.742188 427.671875 C 185.742188 442.074219 209.742188 444.472656 209.742188 456.472656 C 209.742188 444.472656 233.742188 442.074219 233.742188 427.671875 C 233.742188 413.273438 209.742188 413.273438 209.742188 427.671875 "/>
<path style="fill-rule:nonzero;fill:rgb(100%,0%,0%);fill-opacity:1;stroke-width:1;stroke-linecap:butt;stroke-linejoin:round;stroke:rgb(0%,0%,0%);stroke-opacity:1;stroke-miterlimit:10;" d="M 160.101562 393.304688 C 160.101562 378.90625 136.101562 378.90625 136.101562 393.304688 C 136.101562 407.707031 160.101562 410.105469 160.101562 422.105469 C 160.101562 410.105469 184.101562 407.707031 184.101562 393.304688 C 184.101562 378.90625 160.101562 378.90625 160.101562 393.304688 "/>
<path style="fill-rule:nonzero;fill:rgb(0%,0%,0%);fill-opacity:1;stroke-width:1;stroke-linecap:butt;stroke-linejoin:round;stroke:rgb(0%,0%,0%);stroke-opacity:1;stroke-miterlimit:10;" d="M 186.964844 336.433594 C 186.964844 322.03125 162.964844 322.03125 162.964844 336.433594 C 162.964844 350.832031 186.964844 353.230469 186.964844 365.230469 C 186.964844 353.230469 210.964844 350.832031 210.964844 336.433594 C 210.964844 322.03125 186.964844 322.03125 186.964844 336.433594 "/>
</g>
</svg>
