<?xml version="1.0" encoding="UTF-8"?>
<svg xmlns="http://www.w3.org/2000/svg" xmlns:xlink="http://www.w3.org/1999/xlink" width="517pt" height="517pt" viewBox="0 0 517 517" version="1.1">
<g id="surface4866">
<rect x="0" y="0" width="517" height="517" style="fill:rgb(90%,90%,90%);fill-opacity:1;stroke:none;"/>
<path style="fill:none;stroke-width:5;stroke-linecap:butt;stroke-linejoin:round;stroke:rgb(100%,0%,0%);stroke-opacity:1;stroke-miterlimit:10;" d="M 5 261 L 261 261 L 261 517 L 5 517 Z M 5 261 "/>
<path style="fill-rule:nonzero;fill:rgb(35%,70%,90%);fill-opacity:1;stroke-width:1;stroke-linecap:butt;stroke-linejoin:round;stroke:rgb(0%,0%,0%);stroke-opacity:1;stroke-miterlimit:10;" d="M 108.292969 386.023438 C 108.292969 371.625 84.292969 371.625 84.292969 386.023438 C 84.292969 400.425781 108.292969 402.824219 108.292969 414.824219 C 108.292969 402.824219 132.292969 400.425781 132.292969 386.023438 C 132.292969 371.625 108.292969 371.625 108.292969 386.023438 "/>
<path style="fill-rule:nonzero;fill:rgb(35%,70%,90%);fill-opacity:1;stroke-width:1;stroke-linecap:butt;stroke-linejoin:round;stroke:rgb(0%,0%,0%);stroke-opacity:1;stroke-miterlimit:10;" d="M 64.730469 168.433594 C 64.730469 154.035156 40.730469 154.035156 40.730469 168.433594 C 40.730469 182.832031 64.730469 185.234375 64.730469 197.234375 C 64.730469 185.234375 88.730469 182.832031 88.730469 168.433594 C 88.730469 154.035156 64.730469 154.035156 64.730469 168.433594 "/>
<path style="fill-rule:nonzero;fill:rgb(35%,70%,90%);fill-opacity:1;stroke-width:1;stroke-linecap:butt;stroke-linejoin:round;stroke:rgb(0%,0%,0%);stroke-opacity:1;stroke-miterlimit:10;" d="M 314.3125 205.835938 C 314.3125 191.4375 290.3125 191.4375 290.3125 205.835938 C 290.3125 220.234375 314.3125 222.636719 314.3125 234.636719 C 314.3125 222.636719 338.3125 220.234375 338.3125 205.835938 C 338.3125 191.4375 314.3125 191.4375 314.3125 205.835938 "/>
<path style="fill-rule:nonzero;fill:rgb(35%,70%,90%);fill-opacity:1;stroke-width:1;stroke-linecap:butt;stroke-linejoin:round;stroke:rgb(0%,0%,0%);stroke-opacity:1;stroke-miterlimit:10;" d="M 293.851562 77.253906 C 293.851562 62.855469 269.851562 62.855469 269.851562 77.253906 C 269.851562 91.65625 293.851562 94.054688 293.851562 106.054688 C 293.851562 94.054688 317.851562 91.65625 317.851562 77.253906 C 317.851562 62.855469 293.851562 62.855469 293.851562 77.253906 "/>
<path style="fill-rule:nonzero;fill:rgb(35%,70%,90%);fill-opacity:1;stroke-width:1;stroke-linecap:butt;stroke-linejoin:round;stroke:rgb(0%,0%,0%);stroke-opacity:1;stroke-miterlimit:10;" d="M 379.917969 148.976562 C 379.917969 134.574219 355.917969 134.574219 355.917969 148.976562 C 355.917969 163.375 379.917969 165.777344 379.917969 177.777344 C 379.917969 165.777344 403.917969 163.375 403.917969 148.976562 C 403.917969 134.574219 379.917969 134.574219 379.917969 148.976562 "/>
<path style="fill-rule:nonzero;fill:rgb(35%,70%,90%);fill-opacity:1;stroke-width:1;stroke-linecap:butt;stroke-linejoin:round;stroke:rgb(0%,0%,0%);stroke-opacity:1;stroke-miterlimit:10;" d="M 436.175781 60.480469 C 436.175781 46.078125 412.175781 46.078125 412.175781 60.480469 C 412.175781 74.878906 436.175781 77.28125 436.175781 89.28125 C 436.175781 77.28125 460.175781 74.878906 460.175781 60.480469 C 460.175781 46.078125 436.175781 46.078125 436.175781 60.480469 "/>
</g>
</svg>
