<?xml version="1.0" encoding="UTF-8"?>
<svg xmlns="http://www.w3.org/2000/svg" xmlns:xlink="http://www.w3.org/1999/xlink" width="517pt" height="517pt" viewBox="0 0 517 517" version="1.1">
<g id="surface4821">
<rect x="0" y="0" width="517" height="517" style="fill:rgb(90%,90%,90%);fill-opacity:1;stroke:none;"/>
<path style="fill:none;stroke-width:5;stroke-linecap:butt;stroke-linejoin:round;stroke:rgb(100%,0%,0%);stroke-opacity:1;stroke-miterlimit:10;" d="M 5 261 L 261 261 L 261 517 L 5 517 Z M 5 261 "/>
<path style="fill-rule:nonzero;fill:rgb(100%,0%,0%);fill-opacity:1;stroke-width:1;stroke-linecap:butt;stroke-linejoin:round;stroke:rgb(0%,0%,0%);stroke-opacity:1;stroke-miterlimit:10;" d="M 102.71875 371.847656 C 102.71875 357.449219 78.71875 357.449219 78.71875 371.847656 C 78.71875 386.25 102.71875 388.648438 102.71875 400.648438 C 102.71875 388.648438 126.71875 386.25 126.71875 371.847656 C 126.71875 357.449219 102.71875 357.449219 102.71875 371.847656 "/>
<path style="fill-rule:nonzero;fill:rgb(35%,70%,90%);fill-opacity:1;stroke-width:1;stroke-linecap:butt;stroke-linejoin:round;stroke:rgb(0%,0%,0%);stroke-opacity:1;stroke-miterlimit:10;" d="M 474.714844 176.640625 C 474.714844 162.238281 450.714844 162.238281 450.714844 176.640625 C 450.714844 191.039062 474.714844 193.441406 474.714844 205.441406 C 474.714844 193.441406 498.714844 191.039062 498.714844 176.640625 C 498.714844 162.238281 474.714844 162.238281 474.714844 176.640625 "/>
<path style="fill-rule:nonzero;fill:rgb(35%,70%,90%);fill-opacity:1;stroke-width:1;stroke-linecap:butt;stroke-linejoin:round;stroke:rgb(0%,0%,0%);stroke-opacity:1;stroke-miterlimit:10;" d="M 164.625 165.648438 C 164.625 151.246094 140.625 151.246094 140.625 165.648438 C 140.625 180.046875 164.625 182.449219 164.625 194.449219 C 164.625 182.449219 188.625 180.046875 188.625 165.648438 C 188.625 151.246094 164.625 151.246094 164.625 165.648438 "/>
<path style="fill-rule:nonzero;fill:rgb(35%,70%,90%);fill-opacity:1;stroke-width:1;stroke-linecap:butt;stroke-linejoin:round;stroke:rgb(0%,0%,0%);stroke-opacity:1;stroke-miterlimit:10;" d="M 384.441406 311.675781 C 384.441406 297.273438 360.441406 297.273438 360.441406 311.675781 C 360.441406 326.074219 384.441406 328.472656 384.441406 340.472656 C 384.441406 328.472656 408.441406 326.074219 408.441406 311.675781 C 408.441406 297.273438 384.441406 297.273438 384.441406 311.675781 "/>
<path style="fill-rule:nonzero;fill:rgb(35%,70%,90%);fill-opacity:1;stroke-width:1;stroke-linecap:butt;stroke-linejoin:round;stroke:rgb(0%,0%,0%);stroke-opacity:1;stroke-miterlimit:10;" d="M 399.039062 392.230469 C 399.039062 377.828125 375.039062 377.828125 375.039062 392.230469 C 375.039062 406.628906 399.039062 409.03125 399.039062 421.03125 C 399.039062 409.03125 423.039062 406.628906 423.039062 392.230469 C 423.039062 377.828125 399.039062 377.828125 399.039062 392.230469 "/>
<path style="fill-rule:nonzero;fill:rgb(100%,0%,0%);fill-opacity:1;stroke-width:1;stroke-linecap:butt;stroke-linejoin:round;stroke:rgb(0%,0%,0%);stroke-opacity:1;stroke-miterlimit:10;" d="M 308.449219 333.949219 C 308.449219 319.550781 284.449219 319.550781 284.449219 333.949219 C 284.449219 348.347656 308.449219 350.75 308.449219 362.75 C 308.449219 350.75 332.449219 348.347656 332.449219 333.949219 C 332.449219 319.550781 308.449219 319.550781 308.449219 333.949219 "/>
</g>
</svg>
