<?xml version="1.0" encoding="UTF-8"?>
<svg xmlns="http://www.w3.org/2000/svg" xmlns:xlink="http://www.w3.org/1999/xlink" width="517pt" height="517pt" viewBox="0 0 517 517" version="1.1">
<g id="surface12376">
<rect x="0" y="0" width="517" height="517" style="fill:rgb(90%,90%,90%);fill-opacity:1;stroke:none;"/>
<path style="fill-rule:nonzero;fill:rgb(67%,100%,18%);fill-opacity:1;stroke-width:1;stroke-linecap:butt;stroke-linejoin:miter;stroke:rgb(0%,0%,0%);stroke-opacity:1;stroke-miterlimit:10;" d="M 340.949219 59.683594 L 320.949219 59.683594 L 320.949219 69.683594 L 340.949219 69.683594 L 340.949219 89.683594 L 350.949219 89.683594 L 350.949219 69.683594 L 370.949219 69.683594 L 370.949219 59.683594 L 350.949219 59.683594 L 350.949219 39.683594 L 340.949219 39.683594 L 340.949219 59.683594 "/>
<path style="fill-rule:nonzero;fill:rgb(67%,100%,18%);fill-opacity:1;stroke-width:1;stroke-linecap:butt;stroke-linejoin:miter;stroke:rgb(0%,0%,0%);stroke-opacity:1;stroke-miterlimit:10;" d="M 389.457031 203.113281 L 369.457031 203.113281 L 369.457031 213.113281 L 389.457031 213.113281 L 389.457031 233.113281 L 399.457031 233.113281 L 399.457031 213.113281 L 419.457031 213.113281 L 419.457031 203.113281 L 399.457031 203.113281 L 399.457031 183.113281 L 389.457031 183.113281 L 389.457031 203.113281 "/>
<path style="fill-rule:nonzero;fill:rgb(100%,100%,0%);fill-opacity:1;stroke-width:1;stroke-linecap:butt;stroke-linejoin:miter;stroke:rgb(0%,0%,0%);stroke-opacity:1;stroke-miterlimit:10;" d="M 136.285156 204.097656 L 116.285156 204.097656 L 116.285156 214.097656 L 136.285156 214.097656 L 136.285156 234.097656 L 146.285156 234.097656 L 146.285156 214.097656 L 166.285156 214.097656 L 166.285156 204.097656 L 146.285156 204.097656 L 146.285156 184.097656 L 136.285156 184.097656 L 136.285156 204.097656 "/>
<path style="fill-rule:nonzero;fill:rgb(100%,100%,0%);fill-opacity:1;stroke-width:1;stroke-linecap:butt;stroke-linejoin:miter;stroke:rgb(0%,0%,0%);stroke-opacity:1;stroke-miterlimit:10;" d="M 142.628906 34.742188 L 122.628906 34.742188 L 122.628906 44.742188 L 142.628906 44.742188 L 142.628906 64.742188 L 152.628906 64.742188 L 152.628906 44.742188 L 172.628906 44.742188 L 172.628906 34.742188 L 152.628906 34.742188 L 152.628906 14.742188 L 142.628906 14.742188 L 142.628906 34.742188 "/>
<path style="fill-rule:nonzero;fill:rgb(100%,100%,0%);fill-opacity:1;stroke-width:1;stroke-linecap:butt;stroke-linejoin:miter;stroke:rgb(0%,0%,0%);stroke-opacity:1;stroke-miterlimit:10;" d="M 65.523438 78.164062 L 45.523438 78.164062 L 45.523438 88.164062 L 65.523438 88.164062 L 65.523438 108.164062 L 75.523438 108.164062 L 75.523438 88.164062 L 95.523438 88.164062 L 95.523438 78.164062 L 75.523438 78.164062 L 75.523438 58.164062 L 65.523438 58.164062 L 65.523438 78.164062 "/>
</g>
</svg>
