<?xml version="1.0" encoding="UTF-8"?>
<svg xmlns="http://www.w3.org/2000/svg" xmlns:xlink="http://www.w3.org/1999/xlink" width="517pt" height="517pt" viewBox="0 0 517 517" version="1.1">
<g id="surface5616">
<rect x="0" y="0" width="517" height="517" style="fill:rgb(90%,90%,90%);fill-opacity:1;stroke:none;"/>
<path style="fill-rule:nonzero;fill:rgb(35%,70%,90%);fill-opacity:1;stroke-width:1;stroke-linecap:butt;stroke-linejoin:miter;stroke:rgb(0%,0%,0%);stroke-opacity:1;stroke-miterlimit:10;" d="M 145.441406 304.730469 C 145.441406 321.296875 132.011719 334.730469 115.441406 334.730469 C 98.875 334.730469 85.441406 321.296875 85.441406 304.730469 C 85.441406 288.160156 98.875 274.730469 115.441406 274.730469 C 132.011719 274.730469 145.441406 288.160156 145.441406 304.730469 "/>
<path style="fill-rule:nonzero;fill:rgb(90%,65%,0%);fill-opacity:1;stroke-width:1;stroke-linecap:butt;stroke-linejoin:miter;stroke:rgb(0%,0%,0%);stroke-opacity:1;stroke-miterlimit:10;" d="M 126.125 468 C 126.125 484.570312 112.695312 498 96.125 498 C 79.558594 498 66.125 484.570312 66.125 468 C 66.125 451.433594 79.558594 438 96.125 438 C 112.695312 438 126.125 451.433594 126.125 468 "/>
<path style="fill-rule:nonzero;fill:rgb(90%,65%,0%);fill-opacity:1;stroke-width:1;stroke-linecap:butt;stroke-linejoin:miter;stroke:rgb(0%,0%,0%);stroke-opacity:1;stroke-miterlimit:10;" d="M 429.765625 391.9375 C 429.765625 408.507812 416.332031 421.9375 399.765625 421.9375 C 383.195312 421.9375 369.765625 408.507812 369.765625 391.9375 C 369.765625 375.367188 383.195312 361.9375 399.765625 361.9375 C 416.332031 361.9375 429.765625 375.367188 429.765625 391.9375 "/>
<path style="fill-rule:nonzero;fill:rgb(90%,65%,0%);fill-opacity:1;stroke-width:1;stroke-linecap:butt;stroke-linejoin:miter;stroke:rgb(0%,0%,0%);stroke-opacity:1;stroke-miterlimit:10;" d="M 410.582031 303.070312 C 410.582031 319.640625 397.152344 333.070312 380.582031 333.070312 C 364.015625 333.070312 350.582031 319.640625 350.582031 303.070312 C 350.582031 286.503906 364.015625 273.070312 380.582031 273.070312 C 397.152344 273.070312 410.582031 286.503906 410.582031 303.070312 "/>
<path style="fill-rule:nonzero;fill:rgb(90%,65%,0%);fill-opacity:1;stroke-width:1;stroke-linecap:butt;stroke-linejoin:miter;stroke:rgb(0%,0%,0%);stroke-opacity:1;stroke-miterlimit:10;" d="M 484.265625 331.019531 C 484.265625 347.585938 470.835938 361.019531 454.265625 361.019531 C 437.699219 361.019531 424.265625 347.585938 424.265625 331.019531 C 424.265625 314.449219 437.699219 301.019531 454.265625 301.019531 C 470.835938 301.019531 484.265625 314.449219 484.265625 331.019531 "/>
<path style="fill-rule:nonzero;fill:rgb(90%,65%,0%);fill-opacity:1;stroke-width:1;stroke-linecap:butt;stroke-linejoin:miter;stroke:rgb(0%,0%,0%);stroke-opacity:1;stroke-miterlimit:10;" d="M 341.460938 326.070312 C 341.460938 342.636719 328.03125 356.070312 311.460938 356.070312 C 294.894531 356.070312 281.460938 342.636719 281.460938 326.070312 C 281.460938 309.5 294.894531 296.070312 311.460938 296.070312 C 328.03125 296.070312 341.460938 309.5 341.460938 326.070312 "/>
<path style="fill-rule:nonzero;fill:rgb(90%,65%,0%);fill-opacity:1;stroke-width:1;stroke-linecap:butt;stroke-linejoin:miter;stroke:rgb(0%,0%,0%);stroke-opacity:1;stroke-miterlimit:10;" d="M 410.816406 475.9375 C 410.816406 492.507812 397.386719 505.9375 380.816406 505.9375 C 364.25 505.9375 350.816406 492.507812 350.816406 475.9375 C 350.816406 459.367188 364.25 445.9375 380.816406 445.9375 C 397.386719 445.9375 410.816406 459.367188 410.816406 475.9375 "/>
<path style="fill-rule:nonzero;fill:rgb(90%,65%,0%);fill-opacity:1;stroke-width:1;stroke-linecap:butt;stroke-linejoin:miter;stroke:rgb(0%,0%,0%);stroke-opacity:1;stroke-miterlimit:10;" d="M 143.664062 98.441406 C 143.664062 115.011719 130.234375 128.441406 113.664062 128.441406 C 97.097656 128.441406 83.664062 115.011719 83.664062 98.441406 C 83.664062 81.875 97.097656 68.441406 113.664062 68.441406 C 130.234375 68.441406 143.664062 81.875 143.664062 98.441406 "/>
</g>
</svg>
