<?xml version="1.0" encoding="UTF-8"?>
<svg xmlns="http://www.w3.org/2000/svg" xmlns:xlink="http://www.w3.org/1999/xlink" width="517pt" height="517pt" viewBox="0 0 517 517" version="1.1">
<g id="surface12056">
<rect x="0" y="0" width="517" height="517" style="fill:rgb(90%,90%,90%);fill-opacity:1;stroke:none;"/>
<path style="fill-rule:nonzero;fill:rgb(100%,0%,0%);fill-opacity:1;stroke-width:1;stroke-linecap:butt;stroke-linejoin:miter;stroke:rgb(0%,0%,0%);stroke-opacity:1;stroke-miterlimit:10;" d="M 459.84375 335.128906 L 439.84375 335.128906 L 439.84375 345.128906 L 459.84375 345.128906 L 459.84375 365.128906 L 469.84375 365.128906 L 469.84375 345.128906 L 489.84375 345.128906 L 489.84375 335.128906 L 469.84375 335.128906 L 469.84375 315.128906 L 459.84375 315.128906 L 459.84375 335.128906 "/>
<path style="fill-rule:nonzero;fill:rgb(67%,100%,18%);fill-opacity:1;stroke-width:1;stroke-linecap:butt;stroke-linejoin:miter;stroke:rgb(0%,0%,0%);stroke-opacity:1;stroke-miterlimit:10;" d="M 290.765625 459.109375 L 270.765625 459.109375 L 270.765625 469.109375 L 290.765625 469.109375 L 290.765625 489.109375 L 300.765625 489.109375 L 300.765625 469.109375 L 320.765625 469.109375 L 320.765625 459.109375 L 300.765625 459.109375 L 300.765625 439.109375 L 290.765625 439.109375 L 290.765625 459.109375 "/>
<path style="fill-rule:nonzero;fill:rgb(67%,100%,18%);fill-opacity:1;stroke-width:1;stroke-linecap:butt;stroke-linejoin:miter;stroke:rgb(0%,0%,0%);stroke-opacity:1;stroke-miterlimit:10;" d="M 347.921875 154.808594 L 327.921875 154.808594 L 327.921875 164.808594 L 347.921875 164.808594 L 347.921875 184.808594 L 357.921875 184.808594 L 357.921875 164.808594 L 377.921875 164.808594 L 377.921875 154.808594 L 357.921875 154.808594 L 357.921875 134.808594 L 347.921875 134.808594 L 347.921875 154.808594 "/>
<path style="fill-rule:nonzero;fill:rgb(67%,100%,18%);fill-opacity:1;stroke-width:1;stroke-linecap:butt;stroke-linejoin:miter;stroke:rgb(0%,0%,0%);stroke-opacity:1;stroke-miterlimit:10;" d="M 385.566406 201.859375 L 365.566406 201.859375 L 365.566406 211.859375 L 385.566406 211.859375 L 385.566406 231.859375 L 395.566406 231.859375 L 395.566406 211.859375 L 415.566406 211.859375 L 415.566406 201.859375 L 395.566406 201.859375 L 395.566406 181.859375 L 385.566406 181.859375 L 385.566406 201.859375 "/>
</g>
</svg>
