<?xml version="1.0" encoding="UTF-8"?>
<svg xmlns="http://www.w3.org/2000/svg" xmlns:xlink="http://www.w3.org/1999/xlink" width="517pt" height="517pt" viewBox="0 0 517 517" version="1.1">
<g id="surface11776">
<rect x="0" y="0" width="517" height="517" style="fill:rgb(90%,90%,90%);fill-opacity:1;stroke:none;"/>
<path style="fill-rule:nonzero;fill:rgb(67%,100%,18%);fill-opacity:1;stroke-width:1;stroke-linecap:butt;stroke-linejoin:miter;stroke:rgb(0%,0%,0%);stroke-opacity:1;stroke-miterlimit:10;" d="M 411.695312 205.492188 L 391.695312 205.492188 L 391.695312 215.492188 L 411.695312 215.492188 L 411.695312 235.492188 L 421.695312 235.492188 L 421.695312 215.492188 L 441.695312 215.492188 L 441.695312 205.492188 L 421.695312 205.492188 L 421.695312 185.492188 L 411.695312 185.492188 L 411.695312 205.492188 "/>
<path style="fill-rule:nonzero;fill:rgb(67%,100%,18%);fill-opacity:1;stroke-width:1;stroke-linecap:butt;stroke-linejoin:miter;stroke:rgb(0%,0%,0%);stroke-opacity:1;stroke-miterlimit:10;" d="M 77.683594 116.277344 L 57.683594 116.277344 L 57.683594 126.277344 L 77.683594 126.277344 L 77.683594 146.277344 L 87.683594 146.277344 L 87.683594 126.277344 L 107.683594 126.277344 L 107.683594 116.277344 L 87.683594 116.277344 L 87.683594 96.277344 L 77.683594 96.277344 L 77.683594 116.277344 "/>
<path style="fill-rule:nonzero;fill:rgb(67%,100%,18%);fill-opacity:1;stroke-width:1;stroke-linecap:butt;stroke-linejoin:miter;stroke:rgb(0%,0%,0%);stroke-opacity:1;stroke-miterlimit:10;" d="M 163.203125 348.609375 L 143.203125 348.609375 L 143.203125 358.609375 L 163.203125 358.609375 L 163.203125 378.609375 L 173.203125 378.609375 L 173.203125 358.609375 L 193.203125 358.609375 L 193.203125 348.609375 L 173.203125 348.609375 L 173.203125 328.609375 L 163.203125 328.609375 L 163.203125 348.609375 "/>
<path style="fill-rule:nonzero;fill:rgb(67%,100%,18%);fill-opacity:1;stroke-width:1;stroke-linecap:butt;stroke-linejoin:miter;stroke:rgb(0%,0%,0%);stroke-opacity:1;stroke-miterlimit:10;" d="M 49.304688 323.386719 L 29.304688 323.386719 L 29.304688 333.386719 L 49.304688 333.386719 L 49.304688 353.386719 L 59.304688 353.386719 L 59.304688 333.386719 L 79.304688 333.386719 L 79.304688 323.386719 L 59.304688 323.386719 L 59.304688 303.386719 L 49.304688 303.386719 L 49.304688 323.386719 "/>
</g>
</svg>
