<?xml version="1.0" encoding="UTF-8"?>
<svg xmlns="http://www.w3.org/2000/svg" xmlns:xlink="http://www.w3.org/1999/xlink" width="517pt" height="517pt" viewBox="0 0 517 517" version="1.1">
<g id="surface12076">
<rect x="0" y="0" width="517" height="517" style="fill:rgb(90%,90%,90%);fill-opacity:1;stroke:none;"/>
<path style="fill-rule:nonzero;fill:rgb(100%,0%,0%);fill-opacity:1;stroke-width:1;stroke-linecap:butt;stroke-linejoin:miter;stroke:rgb(0%,0%,0%);stroke-opacity:1;stroke-miterlimit:10;" d="M 74.59375 172.304688 L 54.59375 172.304688 L 54.59375 182.304688 L 74.59375 182.304688 L 74.59375 202.304688 L 84.59375 202.304688 L 84.59375 182.304688 L 104.59375 182.304688 L 104.59375 172.304688 L 84.59375 172.304688 L 84.59375 152.304688 L 74.59375 152.304688 L 74.59375 172.304688 "/>
<path style="fill-rule:nonzero;fill:rgb(67%,100%,18%);fill-opacity:1;stroke-width:1;stroke-linecap:butt;stroke-linejoin:miter;stroke:rgb(0%,0%,0%);stroke-opacity:1;stroke-miterlimit:10;" d="M 295.8125 376.792969 L 275.8125 376.792969 L 275.8125 386.792969 L 295.8125 386.792969 L 295.8125 406.792969 L 305.8125 406.792969 L 305.8125 386.792969 L 325.8125 386.792969 L 325.8125 376.792969 L 305.8125 376.792969 L 305.8125 356.792969 L 295.8125 356.792969 L 295.8125 376.792969 "/>
<path style="fill-rule:nonzero;fill:rgb(67%,100%,18%);fill-opacity:1;stroke-width:1;stroke-linecap:butt;stroke-linejoin:miter;stroke:rgb(0%,0%,0%);stroke-opacity:1;stroke-miterlimit:10;" d="M 372.605469 206.757812 L 352.605469 206.757812 L 352.605469 216.757812 L 372.605469 216.757812 L 372.605469 236.757812 L 382.605469 236.757812 L 382.605469 216.757812 L 402.605469 216.757812 L 402.605469 206.757812 L 382.605469 206.757812 L 382.605469 186.757812 L 372.605469 186.757812 L 372.605469 206.757812 "/>
<path style="fill-rule:nonzero;fill:rgb(67%,100%,18%);fill-opacity:1;stroke-width:1;stroke-linecap:butt;stroke-linejoin:miter;stroke:rgb(0%,0%,0%);stroke-opacity:1;stroke-miterlimit:10;" d="M 313.492188 31.519531 L 293.492188 31.519531 L 293.492188 41.519531 L 313.492188 41.519531 L 313.492188 61.519531 L 323.492188 61.519531 L 323.492188 41.519531 L 343.492188 41.519531 L 343.492188 31.519531 L 323.492188 31.519531 L 323.492188 11.519531 L 313.492188 11.519531 L 313.492188 31.519531 "/>
</g>
</svg>
