<?xml version="1.0" encoding="UTF-8"?>
<svg xmlns="http://www.w3.org/2000/svg" xmlns:xlink="http://www.w3.org/1999/xlink" width="517pt" height="517pt" viewBox="0 0 517 517" version="1.1">
<g id="surface11616">
<rect x="0" y="0" width="517" height="517" style="fill:rgb(90%,90%,90%);fill-opacity:1;stroke:none;"/>
<path style="fill-rule:nonzero;fill:rgb(0%,0%,0%);fill-opacity:1;stroke-width:1;stroke-linecap:butt;stroke-linejoin:miter;stroke:rgb(0%,0%,0%);stroke-opacity:1;stroke-miterlimit:10;" d="M 406.519531 91.710938 L 386.519531 91.710938 L 386.519531 101.710938 L 406.519531 101.710938 L 406.519531 121.710938 L 416.519531 121.710938 L 416.519531 101.710938 L 436.519531 101.710938 L 436.519531 91.710938 L 416.519531 91.710938 L 416.519531 71.710938 L 406.519531 71.710938 L 406.519531 91.710938 "/>
<path style="fill-rule:nonzero;fill:rgb(0%,0%,0%);fill-opacity:1;stroke-width:1;stroke-linecap:butt;stroke-linejoin:miter;stroke:rgb(0%,0%,0%);stroke-opacity:1;stroke-miterlimit:10;" d="M 74.074219 88.035156 L 54.074219 88.035156 L 54.074219 98.035156 L 74.074219 98.035156 L 74.074219 118.035156 L 84.074219 118.035156 L 84.074219 98.035156 L 104.074219 98.035156 L 104.074219 88.035156 L 84.074219 88.035156 L 84.074219 68.035156 L 74.074219 68.035156 L 74.074219 88.035156 "/>
<path style="fill-rule:nonzero;fill:rgb(0%,0%,0%);fill-opacity:1;stroke-width:1;stroke-linecap:butt;stroke-linejoin:miter;stroke:rgb(0%,0%,0%);stroke-opacity:1;stroke-miterlimit:10;" d="M 191.355469 204.761719 L 171.355469 204.761719 L 171.355469 214.761719 L 191.355469 214.761719 L 191.355469 234.761719 L 201.355469 234.761719 L 201.355469 214.761719 L 221.355469 214.761719 L 221.355469 204.761719 L 201.355469 204.761719 L 201.355469 184.761719 L 191.355469 184.761719 L 191.355469 204.761719 "/>
<path style="fill-rule:nonzero;fill:rgb(0%,0%,0%);fill-opacity:1;stroke-width:1;stroke-linecap:butt;stroke-linejoin:miter;stroke:rgb(0%,0%,0%);stroke-opacity:1;stroke-miterlimit:10;" d="M 83.75 386.253906 L 63.75 386.253906 L 63.75 396.253906 L 83.75 396.253906 L 83.75 416.253906 L 93.75 416.253906 L 93.75 396.253906 L 113.75 396.253906 L 113.75 386.253906 L 93.75 386.253906 L 93.75 366.253906 L 83.75 366.253906 L 83.75 386.253906 "/>
<path style="fill-rule:nonzero;fill:rgb(0%,0%,0%);fill-opacity:1;stroke-width:1;stroke-linecap:butt;stroke-linejoin:miter;stroke:rgb(0%,0%,0%);stroke-opacity:1;stroke-miterlimit:10;" d="M 142.511719 455.3125 L 122.511719 455.3125 L 122.511719 465.3125 L 142.511719 465.3125 L 142.511719 485.3125 L 152.511719 485.3125 L 152.511719 465.3125 L 172.511719 465.3125 L 172.511719 455.3125 L 152.511719 455.3125 L 152.511719 435.3125 L 142.511719 435.3125 L 142.511719 455.3125 "/>
</g>
</svg>
