<?xml version="1.0" encoding="UTF-8"?>
<svg xmlns="http://www.w3.org/2000/svg" xmlns:xlink="http://www.w3.org/1999/xlink" width="517pt" height="517pt" viewBox="0 0 517 517" version="1.1">
<g id="surface12596">
<rect x="0" y="0" width="517" height="517" style="fill:rgb(90%,90%,90%);fill-opacity:1;stroke:none;"/>
<path style="fill-rule:nonzero;fill:rgb(50%,0%,50%);fill-opacity:1;stroke-width:1;stroke-linecap:butt;stroke-linejoin:miter;stroke:rgb(0%,0%,0%);stroke-opacity:1;stroke-miterlimit:10;" d="M 294.976562 99.675781 L 274.976562 99.675781 L 274.976562 109.675781 L 294.976562 109.675781 L 294.976562 129.675781 L 304.976562 129.675781 L 304.976562 109.675781 L 324.976562 109.675781 L 324.976562 99.675781 L 304.976562 99.675781 L 304.976562 79.675781 L 294.976562 79.675781 L 294.976562 99.675781 "/>
<path style="fill-rule:nonzero;fill:rgb(100%,0%,0%);fill-opacity:1;stroke-width:1;stroke-linecap:butt;stroke-linejoin:miter;stroke:rgb(0%,0%,0%);stroke-opacity:1;stroke-miterlimit:10;" d="M 412.386719 30.0625 L 392.386719 30.0625 L 392.386719 40.0625 L 412.386719 40.0625 L 412.386719 60.0625 L 422.386719 60.0625 L 422.386719 40.0625 L 442.386719 40.0625 L 442.386719 30.0625 L 422.386719 30.0625 L 422.386719 10.0625 L 412.386719 10.0625 L 412.386719 30.0625 "/>
<path style="fill-rule:nonzero;fill:rgb(100%,0%,0%);fill-opacity:1;stroke-width:1;stroke-linecap:butt;stroke-linejoin:miter;stroke:rgb(0%,0%,0%);stroke-opacity:1;stroke-miterlimit:10;" d="M 180.6875 89.589844 L 160.6875 89.589844 L 160.6875 99.589844 L 180.6875 99.589844 L 180.6875 119.589844 L 190.6875 119.589844 L 190.6875 99.589844 L 210.6875 99.589844 L 210.6875 89.589844 L 190.6875 89.589844 L 190.6875 69.589844 L 180.6875 69.589844 L 180.6875 89.589844 "/>
<path style="fill-rule:nonzero;fill:rgb(100%,0%,0%);fill-opacity:1;stroke-width:1;stroke-linecap:butt;stroke-linejoin:miter;stroke:rgb(0%,0%,0%);stroke-opacity:1;stroke-miterlimit:10;" d="M 149.890625 150.644531 L 129.890625 150.644531 L 129.890625 160.644531 L 149.890625 160.644531 L 149.890625 180.644531 L 159.890625 180.644531 L 159.890625 160.644531 L 179.890625 160.644531 L 179.890625 150.644531 L 159.890625 150.644531 L 159.890625 130.644531 L 149.890625 130.644531 L 149.890625 150.644531 "/>
<path style="fill-rule:nonzero;fill:rgb(100%,0%,0%);fill-opacity:1;stroke-width:1;stroke-linecap:butt;stroke-linejoin:miter;stroke:rgb(0%,0%,0%);stroke-opacity:1;stroke-miterlimit:10;" d="M 202.121094 464.03125 L 182.121094 464.03125 L 182.121094 474.03125 L 202.121094 474.03125 L 202.121094 494.03125 L 212.121094 494.03125 L 212.121094 474.03125 L 232.121094 474.03125 L 232.121094 464.03125 L 212.121094 464.03125 L 212.121094 444.03125 L 202.121094 444.03125 L 202.121094 464.03125 "/>
<path style="fill-rule:nonzero;fill:rgb(100%,0%,0%);fill-opacity:1;stroke-width:1;stroke-linecap:butt;stroke-linejoin:miter;stroke:rgb(0%,0%,0%);stroke-opacity:1;stroke-miterlimit:10;" d="M 196.726562 372.101562 L 176.726562 372.101562 L 176.726562 382.101562 L 196.726562 382.101562 L 196.726562 402.101562 L 206.726562 402.101562 L 206.726562 382.101562 L 226.726562 382.101562 L 226.726562 372.101562 L 206.726562 372.101562 L 206.726562 352.101562 L 196.726562 352.101562 L 196.726562 372.101562 "/>
</g>
</svg>
