<?xml version="1.0" encoding="UTF-8"?>
<svg xmlns="http://www.w3.org/2000/svg" xmlns:xlink="http://www.w3.org/1999/xlink" width="517pt" height="517pt" viewBox="0 0 517 517" version="1.1">
<g id="surface5666">
<rect x="0" y="0" width="517" height="517" style="fill:rgb(90%,90%,90%);fill-opacity:1;stroke:none;"/>
<path style="fill-rule:nonzero;fill:rgb(35%,70%,90%);fill-opacity:1;stroke-width:1;stroke-linecap:butt;stroke-linejoin:miter;stroke:rgb(0%,0%,0%);stroke-opacity:1;stroke-miterlimit:10;" d="M 148.394531 291.800781 C 148.394531 308.367188 134.960938 321.800781 118.394531 321.800781 C 101.824219 321.800781 88.394531 308.367188 88.394531 291.800781 C 88.394531 275.230469 101.824219 261.800781 118.394531 261.800781 C 134.960938 261.800781 148.394531 275.230469 148.394531 291.800781 "/>
<path style="fill-rule:nonzero;fill:rgb(35%,70%,90%);fill-opacity:1;stroke-width:1;stroke-linecap:butt;stroke-linejoin:miter;stroke:rgb(0%,0%,0%);stroke-opacity:1;stroke-miterlimit:10;" d="M 502.089844 122.738281 C 502.089844 139.308594 488.660156 152.738281 472.089844 152.738281 C 455.519531 152.738281 442.089844 139.308594 442.089844 122.738281 C 442.089844 106.171875 455.519531 92.738281 472.089844 92.738281 C 488.660156 92.738281 502.089844 106.171875 502.089844 122.738281 "/>
<path style="fill-rule:nonzero;fill:rgb(90%,65%,0%);fill-opacity:1;stroke-width:1;stroke-linecap:butt;stroke-linejoin:miter;stroke:rgb(0%,0%,0%);stroke-opacity:1;stroke-miterlimit:10;" d="M 449.792969 49.363281 C 449.792969 65.929688 436.363281 79.363281 419.792969 79.363281 C 403.226562 79.363281 389.792969 65.929688 389.792969 49.363281 C 389.792969 32.792969 403.226562 19.363281 419.792969 19.363281 C 436.363281 19.363281 449.792969 32.792969 449.792969 49.363281 "/>
<path style="fill-rule:nonzero;fill:rgb(90%,65%,0%);fill-opacity:1;stroke-width:1;stroke-linecap:butt;stroke-linejoin:miter;stroke:rgb(0%,0%,0%);stroke-opacity:1;stroke-miterlimit:10;" d="M 441.929688 159.414062 C 441.929688 175.980469 428.5 189.414062 411.929688 189.414062 C 395.363281 189.414062 381.929688 175.980469 381.929688 159.414062 C 381.929688 142.84375 395.363281 129.414062 411.929688 129.414062 C 428.5 129.414062 441.929688 142.84375 441.929688 159.414062 "/>
<path style="fill-rule:nonzero;fill:rgb(90%,65%,0%);fill-opacity:1;stroke-width:1;stroke-linecap:butt;stroke-linejoin:miter;stroke:rgb(0%,0%,0%);stroke-opacity:1;stroke-miterlimit:10;" d="M 359.75 55.433594 C 359.75 72 346.320312 85.433594 329.75 85.433594 C 313.183594 85.433594 299.75 72 299.75 55.433594 C 299.75 38.863281 313.183594 25.433594 329.75 25.433594 C 346.320312 25.433594 359.75 38.863281 359.75 55.433594 "/>
<path style="fill-rule:nonzero;fill:rgb(90%,65%,0%);fill-opacity:1;stroke-width:1;stroke-linecap:butt;stroke-linejoin:miter;stroke:rgb(0%,0%,0%);stroke-opacity:1;stroke-miterlimit:10;" d="M 367.707031 167.394531 C 367.707031 183.964844 354.273438 197.394531 337.707031 197.394531 C 321.136719 197.394531 307.707031 183.964844 307.707031 167.394531 C 307.707031 150.828125 321.136719 137.394531 337.707031 137.394531 C 354.273438 137.394531 367.707031 150.828125 367.707031 167.394531 "/>
<path style="fill-rule:nonzero;fill:rgb(90%,65%,0%);fill-opacity:1;stroke-width:1;stroke-linecap:butt;stroke-linejoin:miter;stroke:rgb(0%,0%,0%);stroke-opacity:1;stroke-miterlimit:10;" d="M 395.675781 111.300781 C 395.675781 127.871094 382.242188 141.300781 365.675781 141.300781 C 349.105469 141.300781 335.675781 127.871094 335.675781 111.300781 C 335.675781 94.734375 349.105469 81.300781 365.675781 81.300781 C 382.242188 81.300781 395.675781 94.734375 395.675781 111.300781 "/>
<path style="fill-rule:nonzero;fill:rgb(90%,65%,0%);fill-opacity:1;stroke-width:1;stroke-linecap:butt;stroke-linejoin:miter;stroke:rgb(0%,0%,0%);stroke-opacity:1;stroke-miterlimit:10;" d="M 477.144531 213.90625 C 477.144531 230.472656 463.710938 243.90625 447.144531 243.90625 C 430.574219 243.90625 417.144531 230.472656 417.144531 213.90625 C 417.144531 197.335938 430.574219 183.90625 447.144531 183.90625 C 463.710938 183.90625 477.144531 197.335938 477.144531 213.90625 "/>
</g>
</svg>
