<?xml version="1.0" encoding="UTF-8"?>
<svg xmlns="http://www.w3.org/2000/svg" xmlns:xlink="http://www.w3.org/1999/xlink" width="517pt" height="517pt" viewBox="0 0 517 517" version="1.1">
<g id="surface12216">
<rect x="0" y="0" width="517" height="517" style="fill:rgb(90%,90%,90%);fill-opacity:1;stroke:none;"/>
<path style="fill-rule:nonzero;fill:rgb(35%,70%,90%);fill-opacity:1;stroke-width:1;stroke-linecap:butt;stroke-linejoin:miter;stroke:rgb(0%,0%,0%);stroke-opacity:1;stroke-miterlimit:10;" d="M 410.773438 338.882812 L 390.773438 338.882812 L 390.773438 348.882812 L 410.773438 348.882812 L 410.773438 368.882812 L 420.773438 368.882812 L 420.773438 348.882812 L 440.773438 348.882812 L 440.773438 338.882812 L 420.773438 338.882812 L 420.773438 318.882812 L 410.773438 318.882812 L 410.773438 338.882812 "/>
<path style="fill-rule:nonzero;fill:rgb(35%,70%,90%);fill-opacity:1;stroke-width:1;stroke-linecap:butt;stroke-linejoin:miter;stroke:rgb(0%,0%,0%);stroke-opacity:1;stroke-miterlimit:10;" d="M 307.621094 418.152344 L 287.621094 418.152344 L 287.621094 428.152344 L 307.621094 428.152344 L 307.621094 448.152344 L 317.621094 448.152344 L 317.621094 428.152344 L 337.621094 428.152344 L 337.621094 418.152344 L 317.621094 418.152344 L 317.621094 398.152344 L 307.621094 398.152344 L 307.621094 418.152344 "/>
<path style="fill-rule:nonzero;fill:rgb(35%,70%,90%);fill-opacity:1;stroke-width:1;stroke-linecap:butt;stroke-linejoin:miter;stroke:rgb(0%,0%,0%);stroke-opacity:1;stroke-miterlimit:10;" d="M 410.679688 159.058594 L 390.679688 159.058594 L 390.679688 169.058594 L 410.679688 169.058594 L 410.679688 189.058594 L 420.679688 189.058594 L 420.679688 169.058594 L 440.679688 169.058594 L 440.679688 159.058594 L 420.679688 159.058594 L 420.679688 139.058594 L 410.679688 139.058594 L 410.679688 159.058594 "/>
<path style="fill-rule:nonzero;fill:rgb(35%,70%,90%);fill-opacity:1;stroke-width:1;stroke-linecap:butt;stroke-linejoin:miter;stroke:rgb(0%,0%,0%);stroke-opacity:1;stroke-miterlimit:10;" d="M 294.339844 132.628906 L 274.339844 132.628906 L 274.339844 142.628906 L 294.339844 142.628906 L 294.339844 162.628906 L 304.339844 162.628906 L 304.339844 142.628906 L 324.339844 142.628906 L 324.339844 132.628906 L 304.339844 132.628906 L 304.339844 112.628906 L 294.339844 112.628906 L 294.339844 132.628906 "/>
<path style="fill-rule:nonzero;fill:rgb(35%,70%,90%);fill-opacity:1;stroke-width:1;stroke-linecap:butt;stroke-linejoin:miter;stroke:rgb(0%,0%,0%);stroke-opacity:1;stroke-miterlimit:10;" d="M 190.78125 164.105469 L 170.78125 164.105469 L 170.78125 174.105469 L 190.78125 174.105469 L 190.78125 194.105469 L 200.78125 194.105469 L 200.78125 174.105469 L 220.78125 174.105469 L 220.78125 164.105469 L 200.78125 164.105469 L 200.78125 144.105469 L 190.78125 144.105469 L 190.78125 164.105469 "/>
</g>
</svg>
