<?xml version="1.0" encoding="UTF-8"?>
<svg xmlns="http://www.w3.org/2000/svg" xmlns:xlink="http://www.w3.org/1999/xlink" width="517pt" height="517pt" viewBox="0 0 517 517" version="1.1">
<g id="surface12016">
<rect x="0" y="0" width="517" height="517" style="fill:rgb(90%,90%,90%);fill-opacity:1;stroke:none;"/>
<path style="fill-rule:nonzero;fill:rgb(100%,0%,0%);fill-opacity:1;stroke-width:1;stroke-linecap:butt;stroke-linejoin:miter;stroke:rgb(0%,0%,0%);stroke-opacity:1;stroke-miterlimit:10;" d="M 84.238281 437.351562 L 64.238281 437.351562 L 64.238281 447.351562 L 84.238281 447.351562 L 84.238281 467.351562 L 94.238281 467.351562 L 94.238281 447.351562 L 114.238281 447.351562 L 114.238281 437.351562 L 94.238281 437.351562 L 94.238281 417.351562 L 84.238281 417.351562 L 84.238281 437.351562 "/>
<path style="fill-rule:nonzero;fill:rgb(67%,100%,18%);fill-opacity:1;stroke-width:1;stroke-linecap:butt;stroke-linejoin:miter;stroke:rgb(0%,0%,0%);stroke-opacity:1;stroke-miterlimit:10;" d="M 116.183594 356.332031 L 96.183594 356.332031 L 96.183594 366.332031 L 116.183594 366.332031 L 116.183594 386.332031 L 126.183594 386.332031 L 126.183594 366.332031 L 146.183594 366.332031 L 146.183594 356.332031 L 126.183594 356.332031 L 126.183594 336.332031 L 116.183594 336.332031 L 116.183594 356.332031 "/>
<path style="fill-rule:nonzero;fill:rgb(67%,100%,18%);fill-opacity:1;stroke-width:1;stroke-linecap:butt;stroke-linejoin:miter;stroke:rgb(0%,0%,0%);stroke-opacity:1;stroke-miterlimit:10;" d="M 151.109375 185.324219 L 131.109375 185.324219 L 131.109375 195.324219 L 151.109375 195.324219 L 151.109375 215.324219 L 161.109375 215.324219 L 161.109375 195.324219 L 181.109375 195.324219 L 181.109375 185.324219 L 161.109375 185.324219 L 161.109375 165.324219 L 151.109375 165.324219 L 151.109375 185.324219 "/>
<path style="fill-rule:nonzero;fill:rgb(67%,100%,18%);fill-opacity:1;stroke-width:1;stroke-linecap:butt;stroke-linejoin:miter;stroke:rgb(0%,0%,0%);stroke-opacity:1;stroke-miterlimit:10;" d="M 208.96875 150.308594 L 188.96875 150.308594 L 188.96875 160.308594 L 208.96875 160.308594 L 208.96875 180.308594 L 218.96875 180.308594 L 218.96875 160.308594 L 238.96875 160.308594 L 238.96875 150.308594 L 218.96875 150.308594 L 218.96875 130.308594 L 208.96875 130.308594 L 208.96875 150.308594 "/>
</g>
</svg>
