<?xml version="1.0" encoding="UTF-8"?>
<svg xmlns="http://www.w3.org/2000/svg" xmlns:xlink="http://www.w3.org/1999/xlink" width="517pt" height="517pt" viewBox="0 0 517 517" version="1.1">
<g id="surface11996">
<rect x="0" y="0" width="517" height="517" style="fill:rgb(90%,90%,90%);fill-opacity:1;stroke:none;"/>
<path style="fill-rule:nonzero;fill:rgb(100%,7%,57%);fill-opacity:1;stroke-width:1;stroke-linecap:butt;stroke-linejoin:miter;stroke:rgb(0%,0%,0%);stroke-opacity:1;stroke-miterlimit:10;" d="M 69.691406 395.210938 L 49.691406 395.210938 L 49.691406 405.210938 L 69.691406 405.210938 L 69.691406 425.210938 L 79.691406 425.210938 L 79.691406 405.210938 L 99.691406 405.210938 L 99.691406 395.210938 L 79.691406 395.210938 L 79.691406 375.210938 L 69.691406 375.210938 L 69.691406 395.210938 "/>
<path style="fill-rule:nonzero;fill:rgb(100%,7%,57%);fill-opacity:1;stroke-width:1;stroke-linecap:butt;stroke-linejoin:miter;stroke:rgb(0%,0%,0%);stroke-opacity:1;stroke-miterlimit:10;" d="M 54.28125 78.71875 L 34.28125 78.71875 L 34.28125 88.71875 L 54.28125 88.71875 L 54.28125 108.71875 L 64.28125 108.71875 L 64.28125 88.71875 L 84.28125 88.71875 L 84.28125 78.71875 L 64.28125 78.71875 L 64.28125 58.71875 L 54.28125 58.71875 L 54.28125 78.71875 "/>
<path style="fill-rule:nonzero;fill:rgb(100%,7%,57%);fill-opacity:1;stroke-width:1;stroke-linecap:butt;stroke-linejoin:miter;stroke:rgb(0%,0%,0%);stroke-opacity:1;stroke-miterlimit:10;" d="M 141.449219 102.5 L 121.449219 102.5 L 121.449219 112.5 L 141.449219 112.5 L 141.449219 132.5 L 151.449219 132.5 L 151.449219 112.5 L 171.449219 112.5 L 171.449219 102.5 L 151.449219 102.5 L 151.449219 82.5 L 141.449219 82.5 L 141.449219 102.5 "/>
<path style="fill-rule:nonzero;fill:rgb(100%,7%,57%);fill-opacity:1;stroke-width:1;stroke-linecap:butt;stroke-linejoin:miter;stroke:rgb(0%,0%,0%);stroke-opacity:1;stroke-miterlimit:10;" d="M 96.714844 165.675781 L 76.714844 165.675781 L 76.714844 175.675781 L 96.714844 175.675781 L 96.714844 195.675781 L 106.714844 195.675781 L 106.714844 175.675781 L 126.714844 175.675781 L 126.714844 165.675781 L 106.714844 165.675781 L 106.714844 145.675781 L 96.714844 145.675781 L 96.714844 165.675781 "/>
<path style="fill-rule:nonzero;fill:rgb(100%,100%,0%);fill-opacity:1;stroke-width:1;stroke-linecap:butt;stroke-linejoin:miter;stroke:rgb(0%,0%,0%);stroke-opacity:1;stroke-miterlimit:10;" d="M 165.230469 207.859375 L 145.230469 207.859375 L 145.230469 217.859375 L 165.230469 217.859375 L 165.230469 237.859375 L 175.230469 237.859375 L 175.230469 217.859375 L 195.230469 217.859375 L 195.230469 207.859375 L 175.230469 207.859375 L 175.230469 187.859375 L 165.230469 187.859375 L 165.230469 207.859375 "/>
</g>
</svg>
