<?xml version="1.0" encoding="UTF-8"?>
<svg xmlns="http://www.w3.org/2000/svg" xmlns:xlink="http://www.w3.org/1999/xlink" width="517pt" height="517pt" viewBox="0 0 517 517" version="1.1">
<g id="surface11716">
<rect x="0" y="0" width="517" height="517" style="fill:rgb(90%,90%,90%);fill-opacity:1;stroke:none;"/>
<path style="fill-rule:nonzero;fill:rgb(67%,100%,18%);fill-opacity:1;stroke-width:1;stroke-linecap:butt;stroke-linejoin:miter;stroke:rgb(0%,0%,0%);stroke-opacity:1;stroke-miterlimit:10;" d="M 401.316406 168.296875 L 381.316406 168.296875 L 381.316406 178.296875 L 401.316406 178.296875 L 401.316406 198.296875 L 411.316406 198.296875 L 411.316406 178.296875 L 431.316406 178.296875 L 431.316406 168.296875 L 411.316406 168.296875 L 411.316406 148.296875 L 401.316406 148.296875 L 401.316406 168.296875 "/>
<path style="fill-rule:nonzero;fill:rgb(67%,100%,18%);fill-opacity:1;stroke-width:1;stroke-linecap:butt;stroke-linejoin:miter;stroke:rgb(0%,0%,0%);stroke-opacity:1;stroke-miterlimit:10;" d="M 44.554688 83.085938 L 24.554688 83.085938 L 24.554688 93.085938 L 44.554688 93.085938 L 44.554688 113.085938 L 54.554688 113.085938 L 54.554688 93.085938 L 74.554688 93.085938 L 74.554688 83.085938 L 54.554688 83.085938 L 54.554688 63.085938 L 44.554688 63.085938 L 44.554688 83.085938 "/>
<path style="fill-rule:nonzero;fill:rgb(67%,100%,18%);fill-opacity:1;stroke-width:1;stroke-linecap:butt;stroke-linejoin:miter;stroke:rgb(0%,0%,0%);stroke-opacity:1;stroke-miterlimit:10;" d="M 87.546875 174.464844 L 67.546875 174.464844 L 67.546875 184.464844 L 87.546875 184.464844 L 87.546875 204.464844 L 97.546875 204.464844 L 97.546875 184.464844 L 117.546875 184.464844 L 117.546875 174.464844 L 97.546875 174.464844 L 97.546875 154.464844 L 87.546875 154.464844 L 87.546875 174.464844 "/>
<path style="fill-rule:nonzero;fill:rgb(67%,100%,18%);fill-opacity:1;stroke-width:1;stroke-linecap:butt;stroke-linejoin:miter;stroke:rgb(0%,0%,0%);stroke-opacity:1;stroke-miterlimit:10;" d="M 207.261719 104.671875 L 187.261719 104.671875 L 187.261719 114.671875 L 207.261719 114.671875 L 207.261719 134.671875 L 217.261719 134.671875 L 217.261719 114.671875 L 237.261719 114.671875 L 237.261719 104.671875 L 217.261719 104.671875 L 217.261719 84.671875 L 207.261719 84.671875 L 207.261719 104.671875 "/>
</g>
</svg>
