<?xml version="1.0" encoding="UTF-8"?>
<svg xmlns="http://www.w3.org/2000/svg" xmlns:xlink="http://www.w3.org/1999/xlink" width="517pt" height="517pt" viewBox="0 0 517 517" version="1.1">
<g id="surface12196">
<rect x="0" y="0" width="517" height="517" style="fill:rgb(90%,90%,90%);fill-opacity:1;stroke:none;"/>
<path style="fill-rule:nonzero;fill:rgb(35%,70%,90%);fill-opacity:1;stroke-width:1;stroke-linecap:butt;stroke-linejoin:miter;stroke:rgb(0%,0%,0%);stroke-opacity:1;stroke-miterlimit:10;" d="M 327.035156 68.035156 L 307.035156 68.035156 L 307.035156 78.035156 L 327.035156 78.035156 L 327.035156 98.035156 L 337.035156 98.035156 L 337.035156 78.035156 L 357.035156 78.035156 L 357.035156 68.035156 L 337.035156 68.035156 L 337.035156 48.035156 L 327.035156 48.035156 L 327.035156 68.035156 "/>
<path style="fill-rule:nonzero;fill:rgb(35%,70%,90%);fill-opacity:1;stroke-width:1;stroke-linecap:butt;stroke-linejoin:miter;stroke:rgb(0%,0%,0%);stroke-opacity:1;stroke-miterlimit:10;" d="M 321.910156 178.035156 L 301.910156 178.035156 L 301.910156 188.035156 L 321.910156 188.035156 L 321.910156 208.035156 L 331.910156 208.035156 L 331.910156 188.035156 L 351.910156 188.035156 L 351.910156 178.035156 L 331.910156 178.035156 L 331.910156 158.035156 L 321.910156 158.035156 L 321.910156 178.035156 "/>
<path style="fill-rule:nonzero;fill:rgb(35%,70%,90%);fill-opacity:1;stroke-width:1;stroke-linecap:butt;stroke-linejoin:miter;stroke:rgb(0%,0%,0%);stroke-opacity:1;stroke-miterlimit:10;" d="M 91.417969 108.140625 L 71.417969 108.140625 L 71.417969 118.140625 L 91.417969 118.140625 L 91.417969 138.140625 L 101.417969 138.140625 L 101.417969 118.140625 L 121.417969 118.140625 L 121.417969 108.140625 L 101.417969 108.140625 L 101.417969 88.140625 L 91.417969 88.140625 L 91.417969 108.140625 "/>
<path style="fill-rule:nonzero;fill:rgb(35%,70%,90%);fill-opacity:1;stroke-width:1;stroke-linecap:butt;stroke-linejoin:miter;stroke:rgb(0%,0%,0%);stroke-opacity:1;stroke-miterlimit:10;" d="M 32.917969 186.988281 L 12.917969 186.988281 L 12.917969 196.988281 L 32.917969 196.988281 L 32.917969 216.988281 L 42.917969 216.988281 L 42.917969 196.988281 L 62.917969 196.988281 L 62.917969 186.988281 L 42.917969 186.988281 L 42.917969 166.988281 L 32.917969 166.988281 L 32.917969 186.988281 "/>
<path style="fill-rule:nonzero;fill:rgb(35%,70%,90%);fill-opacity:1;stroke-width:1;stroke-linecap:butt;stroke-linejoin:miter;stroke:rgb(0%,0%,0%);stroke-opacity:1;stroke-miterlimit:10;" d="M 129.113281 291.847656 L 109.113281 291.847656 L 109.113281 301.847656 L 129.113281 301.847656 L 129.113281 321.847656 L 139.113281 321.847656 L 139.113281 301.847656 L 159.113281 301.847656 L 159.113281 291.847656 L 139.113281 291.847656 L 139.113281 271.847656 L 129.113281 271.847656 L 129.113281 291.847656 "/>
</g>
</svg>
