<?xml version="1.0" encoding="UTF-8"?>
<svg xmlns="http://www.w3.org/2000/svg" xmlns:xlink="http://www.w3.org/1999/xlink" width="517pt" height="517pt" viewBox="0 0 517 517" version="1.1">
<g id="surface12136">
<rect x="0" y="0" width="517" height="517" style="fill:rgb(90%,90%,90%);fill-opacity:1;stroke:none;"/>
<path style="fill-rule:nonzero;fill:rgb(100%,0%,0%);fill-opacity:1;stroke-width:1;stroke-linecap:butt;stroke-linejoin:miter;stroke:rgb(0%,0%,0%);stroke-opacity:1;stroke-miterlimit:10;" d="M 387.371094 359.296875 L 367.371094 359.296875 L 367.371094 369.296875 L 387.371094 369.296875 L 387.371094 389.296875 L 397.371094 389.296875 L 397.371094 369.296875 L 417.371094 369.296875 L 417.371094 359.296875 L 397.371094 359.296875 L 397.371094 339.296875 L 387.371094 339.296875 L 387.371094 359.296875 "/>
<path style="fill-rule:nonzero;fill:rgb(67%,100%,18%);fill-opacity:1;stroke-width:1;stroke-linecap:butt;stroke-linejoin:miter;stroke:rgb(0%,0%,0%);stroke-opacity:1;stroke-miterlimit:10;" d="M 377.207031 445.746094 L 357.207031 445.746094 L 357.207031 455.746094 L 377.207031 455.746094 L 377.207031 475.746094 L 387.207031 475.746094 L 387.207031 455.746094 L 407.207031 455.746094 L 407.207031 445.746094 L 387.207031 445.746094 L 387.207031 425.746094 L 377.207031 425.746094 L 377.207031 445.746094 "/>
<path style="fill-rule:nonzero;fill:rgb(67%,100%,18%);fill-opacity:1;stroke-width:1;stroke-linecap:butt;stroke-linejoin:miter;stroke:rgb(0%,0%,0%);stroke-opacity:1;stroke-miterlimit:10;" d="M 332.386719 33.628906 L 312.386719 33.628906 L 312.386719 43.628906 L 332.386719 43.628906 L 332.386719 63.628906 L 342.386719 63.628906 L 342.386719 43.628906 L 362.386719 43.628906 L 362.386719 33.628906 L 342.386719 33.628906 L 342.386719 13.628906 L 332.386719 13.628906 L 332.386719 33.628906 "/>
<path style="fill-rule:nonzero;fill:rgb(67%,100%,18%);fill-opacity:1;stroke-width:1;stroke-linecap:butt;stroke-linejoin:miter;stroke:rgb(0%,0%,0%);stroke-opacity:1;stroke-miterlimit:10;" d="M 132.316406 104.730469 L 112.316406 104.730469 L 112.316406 114.730469 L 132.316406 114.730469 L 132.316406 134.730469 L 142.316406 134.730469 L 142.316406 114.730469 L 162.316406 114.730469 L 162.316406 104.730469 L 142.316406 104.730469 L 142.316406 84.730469 L 132.316406 84.730469 L 132.316406 104.730469 "/>
</g>
</svg>
