<?xml version="1.0" encoding="UTF-8"?>
<svg xmlns="http://www.w3.org/2000/svg" xmlns:xlink="http://www.w3.org/1999/xlink" width="517pt" height="517pt" viewBox="0 0 517 517" version="1.1">
<g id="surface12176">
<rect x="0" y="0" width="517" height="517" style="fill:rgb(90%,90%,90%);fill-opacity:1;stroke:none;"/>
<path style="fill-rule:nonzero;fill:rgb(35%,70%,90%);fill-opacity:1;stroke-width:1;stroke-linecap:butt;stroke-linejoin:miter;stroke:rgb(0%,0%,0%);stroke-opacity:1;stroke-miterlimit:10;" d="M 333.179688 329.296875 L 313.179688 329.296875 L 313.179688 339.296875 L 333.179688 339.296875 L 333.179688 359.296875 L 343.179688 359.296875 L 343.179688 339.296875 L 363.179688 339.296875 L 363.179688 329.296875 L 343.179688 329.296875 L 343.179688 309.296875 L 333.179688 309.296875 L 333.179688 329.296875 "/>
<path style="fill-rule:nonzero;fill:rgb(35%,70%,90%);fill-opacity:1;stroke-width:1;stroke-linecap:butt;stroke-linejoin:miter;stroke:rgb(0%,0%,0%);stroke-opacity:1;stroke-miterlimit:10;" d="M 124.125 452.367188 L 104.125 452.367188 L 104.125 462.367188 L 124.125 462.367188 L 124.125 482.367188 L 134.125 482.367188 L 134.125 462.367188 L 154.125 462.367188 L 154.125 452.367188 L 134.125 452.367188 L 134.125 432.367188 L 124.125 432.367188 L 124.125 452.367188 "/>
<path style="fill-rule:nonzero;fill:rgb(35%,70%,90%);fill-opacity:1;stroke-width:1;stroke-linecap:butt;stroke-linejoin:miter;stroke:rgb(0%,0%,0%);stroke-opacity:1;stroke-miterlimit:10;" d="M 46.929688 345.175781 L 26.929688 345.175781 L 26.929688 355.175781 L 46.929688 355.175781 L 46.929688 375.175781 L 56.929688 375.175781 L 56.929688 355.175781 L 76.929688 355.175781 L 76.929688 345.175781 L 56.929688 345.175781 L 56.929688 325.175781 L 46.929688 325.175781 L 46.929688 345.175781 "/>
<path style="fill-rule:nonzero;fill:rgb(35%,70%,90%);fill-opacity:1;stroke-width:1;stroke-linecap:butt;stroke-linejoin:miter;stroke:rgb(0%,0%,0%);stroke-opacity:1;stroke-miterlimit:10;" d="M 162.429688 39.292969 L 142.429688 39.292969 L 142.429688 49.292969 L 162.429688 49.292969 L 162.429688 69.292969 L 172.429688 69.292969 L 172.429688 49.292969 L 192.429688 49.292969 L 192.429688 39.292969 L 172.429688 39.292969 L 172.429688 19.292969 L 162.429688 19.292969 L 162.429688 39.292969 "/>
<path style="fill-rule:nonzero;fill:rgb(35%,70%,90%);fill-opacity:1;stroke-width:1;stroke-linecap:butt;stroke-linejoin:miter;stroke:rgb(0%,0%,0%);stroke-opacity:1;stroke-miterlimit:10;" d="M 93.445312 97.804688 L 73.445312 97.804688 L 73.445312 107.804688 L 93.445312 107.804688 L 93.445312 127.804688 L 103.445312 127.804688 L 103.445312 107.804688 L 123.445312 107.804688 L 123.445312 97.804688 L 103.445312 97.804688 L 103.445312 77.804688 L 93.445312 77.804688 L 93.445312 97.804688 "/>
</g>
</svg>
