<?xml version="1.0" encoding="UTF-8"?>
<svg xmlns="http://www.w3.org/2000/svg" xmlns:xlink="http://www.w3.org/1999/xlink" width="517pt" height="517pt" viewBox="0 0 517 517" version="1.1">
<g id="surface11896">
<rect x="0" y="0" width="517" height="517" style="fill:rgb(90%,90%,90%);fill-opacity:1;stroke:none;"/>
<path style="fill-rule:nonzero;fill:rgb(100%,7%,57%);fill-opacity:1;stroke-width:1;stroke-linecap:butt;stroke-linejoin:miter;stroke:rgb(0%,0%,0%);stroke-opacity:1;stroke-miterlimit:10;" d="M 125.996094 35.882812 L 105.996094 35.882812 L 105.996094 45.882812 L 125.996094 45.882812 L 125.996094 65.882812 L 135.996094 65.882812 L 135.996094 45.882812 L 155.996094 45.882812 L 155.996094 35.882812 L 135.996094 35.882812 L 135.996094 15.882812 L 125.996094 15.882812 L 125.996094 35.882812 "/>
<path style="fill-rule:nonzero;fill:rgb(100%,7%,57%);fill-opacity:1;stroke-width:1;stroke-linecap:butt;stroke-linejoin:miter;stroke:rgb(0%,0%,0%);stroke-opacity:1;stroke-miterlimit:10;" d="M 63.101562 310.402344 L 43.101562 310.402344 L 43.101562 320.402344 L 63.101562 320.402344 L 63.101562 340.402344 L 73.101562 340.402344 L 73.101562 320.402344 L 93.101562 320.402344 L 93.101562 310.402344 L 73.101562 310.402344 L 73.101562 290.402344 L 63.101562 290.402344 L 63.101562 310.402344 "/>
<path style="fill-rule:nonzero;fill:rgb(100%,7%,57%);fill-opacity:1;stroke-width:1;stroke-linecap:butt;stroke-linejoin:miter;stroke:rgb(0%,0%,0%);stroke-opacity:1;stroke-miterlimit:10;" d="M 403.867188 191.3125 L 383.867188 191.3125 L 383.867188 201.3125 L 403.867188 201.3125 L 403.867188 221.3125 L 413.867188 221.3125 L 413.867188 201.3125 L 433.867188 201.3125 L 433.867188 191.3125 L 413.867188 191.3125 L 413.867188 171.3125 L 403.867188 171.3125 L 403.867188 191.3125 "/>
<path style="fill-rule:nonzero;fill:rgb(100%,7%,57%);fill-opacity:1;stroke-width:1;stroke-linecap:butt;stroke-linejoin:miter;stroke:rgb(0%,0%,0%);stroke-opacity:1;stroke-miterlimit:10;" d="M 291.847656 87.335938 L 271.847656 87.335938 L 271.847656 97.335938 L 291.847656 97.335938 L 291.847656 117.335938 L 301.847656 117.335938 L 301.847656 97.335938 L 321.847656 97.335938 L 321.847656 87.335938 L 301.847656 87.335938 L 301.847656 67.335938 L 291.847656 67.335938 L 291.847656 87.335938 "/>
<path style="fill-rule:nonzero;fill:rgb(100%,100%,0%);fill-opacity:1;stroke-width:1;stroke-linecap:butt;stroke-linejoin:miter;stroke:rgb(0%,0%,0%);stroke-opacity:1;stroke-miterlimit:10;" d="M 469.222656 41.195312 L 449.222656 41.195312 L 449.222656 51.195312 L 469.222656 51.195312 L 469.222656 71.195312 L 479.222656 71.195312 L 479.222656 51.195312 L 499.222656 51.195312 L 499.222656 41.195312 L 479.222656 41.195312 L 479.222656 21.195312 L 469.222656 21.195312 L 469.222656 41.195312 "/>
</g>
</svg>
