<?xml version="1.0" encoding="UTF-8"?>
<svg xmlns="http://www.w3.org/2000/svg" xmlns:xlink="http://www.w3.org/1999/xlink" width="517pt" height="517pt" viewBox="0 0 517 517" version="1.1">
<g id="surface11556">
<rect x="0" y="0" width="517" height="517" style="fill:rgb(90%,90%,90%);fill-opacity:1;stroke:none;"/>
<path style="fill-rule:nonzero;fill:rgb(0%,0%,0%);fill-opacity:1;stroke-width:1;stroke-linecap:butt;stroke-linejoin:miter;stroke:rgb(0%,0%,0%);stroke-opacity:1;stroke-miterlimit:10;" d="M 212.203125 352.386719 L 192.203125 352.386719 L 192.203125 362.386719 L 212.203125 362.386719 L 212.203125 382.386719 L 222.203125 382.386719 L 222.203125 362.386719 L 242.203125 362.386719 L 242.203125 352.386719 L 222.203125 352.386719 L 222.203125 332.386719 L 212.203125 332.386719 L 212.203125 352.386719 "/>
<path style="fill-rule:nonzero;fill:rgb(0%,0%,0%);fill-opacity:1;stroke-width:1;stroke-linecap:butt;stroke-linejoin:miter;stroke:rgb(0%,0%,0%);stroke-opacity:1;stroke-miterlimit:10;" d="M 53.703125 452.242188 L 33.703125 452.242188 L 33.703125 462.242188 L 53.703125 462.242188 L 53.703125 482.242188 L 63.703125 482.242188 L 63.703125 462.242188 L 83.703125 462.242188 L 83.703125 452.242188 L 63.703125 452.242188 L 63.703125 432.242188 L 53.703125 432.242188 L 53.703125 452.242188 "/>
<path style="fill-rule:nonzero;fill:rgb(0%,0%,0%);fill-opacity:1;stroke-width:1;stroke-linecap:butt;stroke-linejoin:miter;stroke:rgb(0%,0%,0%);stroke-opacity:1;stroke-miterlimit:10;" d="M 358.054688 86.175781 L 338.054688 86.175781 L 338.054688 96.175781 L 358.054688 96.175781 L 358.054688 116.175781 L 368.054688 116.175781 L 368.054688 96.175781 L 388.054688 96.175781 L 388.054688 86.175781 L 368.054688 86.175781 L 368.054688 66.175781 L 358.054688 66.175781 L 358.054688 86.175781 "/>
<path style="fill-rule:nonzero;fill:rgb(0%,0%,0%);fill-opacity:1;stroke-width:1;stroke-linecap:butt;stroke-linejoin:miter;stroke:rgb(0%,0%,0%);stroke-opacity:1;stroke-miterlimit:10;" d="M 430.621094 76.835938 L 410.621094 76.835938 L 410.621094 86.835938 L 430.621094 86.835938 L 430.621094 106.835938 L 440.621094 106.835938 L 440.621094 86.835938 L 460.621094 86.835938 L 460.621094 76.835938 L 440.621094 76.835938 L 440.621094 56.835938 L 430.621094 56.835938 L 430.621094 76.835938 "/>
<path style="fill-rule:nonzero;fill:rgb(0%,0%,0%);fill-opacity:1;stroke-width:1;stroke-linecap:butt;stroke-linejoin:miter;stroke:rgb(0%,0%,0%);stroke-opacity:1;stroke-miterlimit:10;" d="M 90.53125 80.054688 L 70.53125 80.054688 L 70.53125 90.054688 L 90.53125 90.054688 L 90.53125 110.054688 L 100.53125 110.054688 L 100.53125 90.054688 L 120.53125 90.054688 L 120.53125 80.054688 L 100.53125 80.054688 L 100.53125 60.054688 L 90.53125 60.054688 L 90.53125 80.054688 "/>
</g>
</svg>
