<?xml version="1.0" encoding="UTF-8"?>
<svg xmlns="http://www.w3.org/2000/svg" xmlns:xlink="http://www.w3.org/1999/xlink" width="517pt" height="517pt" viewBox="0 0 517 517" version="1.1">
<g id="surface12396">
<rect x="0" y="0" width="517" height="517" style="fill:rgb(90%,90%,90%);fill-opacity:1;stroke:none;"/>
<path style="fill-rule:nonzero;fill:rgb(67%,100%,18%);fill-opacity:1;stroke-width:1;stroke-linecap:butt;stroke-linejoin:miter;stroke:rgb(0%,0%,0%);stroke-opacity:1;stroke-miterlimit:10;" d="M 425.039062 378.554688 L 405.039062 378.554688 L 405.039062 388.554688 L 425.039062 388.554688 L 425.039062 408.554688 L 435.039062 408.554688 L 435.039062 388.554688 L 455.039062 388.554688 L 455.039062 378.554688 L 435.039062 378.554688 L 435.039062 358.554688 L 425.039062 358.554688 L 425.039062 378.554688 "/>
<path style="fill-rule:nonzero;fill:rgb(67%,100%,18%);fill-opacity:1;stroke-width:1;stroke-linecap:butt;stroke-linejoin:miter;stroke:rgb(0%,0%,0%);stroke-opacity:1;stroke-miterlimit:10;" d="M 386.902344 215.507812 L 366.902344 215.507812 L 366.902344 225.507812 L 386.902344 225.507812 L 386.902344 245.507812 L 396.902344 245.507812 L 396.902344 225.507812 L 416.902344 225.507812 L 416.902344 215.507812 L 396.902344 215.507812 L 396.902344 195.507812 L 386.902344 195.507812 L 386.902344 215.507812 "/>
<path style="fill-rule:nonzero;fill:rgb(100%,100%,0%);fill-opacity:1;stroke-width:1;stroke-linecap:butt;stroke-linejoin:miter;stroke:rgb(0%,0%,0%);stroke-opacity:1;stroke-miterlimit:10;" d="M 163.34375 66.941406 L 143.34375 66.941406 L 143.34375 76.941406 L 163.34375 76.941406 L 163.34375 96.941406 L 173.34375 96.941406 L 173.34375 76.941406 L 193.34375 76.941406 L 193.34375 66.941406 L 173.34375 66.941406 L 173.34375 46.941406 L 163.34375 46.941406 L 163.34375 66.941406 "/>
<path style="fill-rule:nonzero;fill:rgb(100%,100%,0%);fill-opacity:1;stroke-width:1;stroke-linecap:butt;stroke-linejoin:miter;stroke:rgb(0%,0%,0%);stroke-opacity:1;stroke-miterlimit:10;" d="M 49.390625 158.964844 L 29.390625 158.964844 L 29.390625 168.964844 L 49.390625 168.964844 L 49.390625 188.964844 L 59.390625 188.964844 L 59.390625 168.964844 L 79.390625 168.964844 L 79.390625 158.964844 L 59.390625 158.964844 L 59.390625 138.964844 L 49.390625 138.964844 L 49.390625 158.964844 "/>
<path style="fill-rule:nonzero;fill:rgb(100%,100%,0%);fill-opacity:1;stroke-width:1;stroke-linecap:butt;stroke-linejoin:miter;stroke:rgb(0%,0%,0%);stroke-opacity:1;stroke-miterlimit:10;" d="M 159.441406 196.449219 L 139.441406 196.449219 L 139.441406 206.449219 L 159.441406 206.449219 L 159.441406 226.449219 L 169.441406 226.449219 L 169.441406 206.449219 L 189.441406 206.449219 L 189.441406 196.449219 L 169.441406 196.449219 L 169.441406 176.449219 L 159.441406 176.449219 L 159.441406 196.449219 "/>
</g>
</svg>
