<?xml version="1.0" encoding="UTF-8"?>
<svg xmlns="http://www.w3.org/2000/svg" xmlns:xlink="http://www.w3.org/1999/xlink" width="517pt" height="517pt" viewBox="0 0 517 517" version="1.1">
<g id="surface5636">
<rect x="0" y="0" width="517" height="517" style="fill:rgb(90%,90%,90%);fill-opacity:1;stroke:none;"/>
<path style="fill-rule:nonzero;fill:rgb(35%,70%,90%);fill-opacity:1;stroke-width:1;stroke-linecap:butt;stroke-linejoin:miter;stroke:rgb(0%,0%,0%);stroke-opacity:1;stroke-miterlimit:10;" d="M 333.667969 112.464844 C 333.667969 129.03125 320.238281 142.464844 303.667969 142.464844 C 287.101562 142.464844 273.667969 129.03125 273.667969 112.464844 C 273.667969 95.894531 287.101562 82.464844 303.667969 82.464844 C 320.238281 82.464844 333.667969 95.894531 333.667969 112.464844 "/>
<path style="fill-rule:nonzero;fill:rgb(35%,70%,90%);fill-opacity:1;stroke-width:1;stroke-linecap:butt;stroke-linejoin:miter;stroke:rgb(0%,0%,0%);stroke-opacity:1;stroke-miterlimit:10;" d="M 444.675781 399.589844 C 444.675781 416.15625 431.242188 429.589844 414.675781 429.589844 C 398.105469 429.589844 384.675781 416.15625 384.675781 399.589844 C 384.675781 383.019531 398.105469 369.589844 414.675781 369.589844 C 431.242188 369.589844 444.675781 383.019531 444.675781 399.589844 "/>
<path style="fill-rule:nonzero;fill:rgb(35%,70%,90%);fill-opacity:1;stroke-width:1;stroke-linecap:butt;stroke-linejoin:miter;stroke:rgb(0%,0%,0%);stroke-opacity:1;stroke-miterlimit:10;" d="M 488.675781 334.183594 C 488.675781 350.75 475.242188 364.183594 458.675781 364.183594 C 442.105469 364.183594 428.675781 350.75 428.675781 334.183594 C 428.675781 317.613281 442.105469 304.183594 458.675781 304.183594 C 475.242188 304.183594 488.675781 317.613281 488.675781 334.183594 "/>
<path style="fill-rule:nonzero;fill:rgb(90%,65%,0%);fill-opacity:1;stroke-width:1;stroke-linecap:butt;stroke-linejoin:miter;stroke:rgb(0%,0%,0%);stroke-opacity:1;stroke-miterlimit:10;" d="M 506.703125 472.355469 C 506.703125 488.921875 493.273438 502.355469 476.703125 502.355469 C 460.132812 502.355469 446.703125 488.921875 446.703125 472.355469 C 446.703125 455.785156 460.132812 442.355469 476.703125 442.355469 C 493.273438 442.355469 506.703125 455.785156 506.703125 472.355469 "/>
<path style="fill-rule:nonzero;fill:rgb(90%,65%,0%);fill-opacity:1;stroke-width:1;stroke-linecap:butt;stroke-linejoin:miter;stroke:rgb(0%,0%,0%);stroke-opacity:1;stroke-miterlimit:10;" d="M 405.652344 296.125 C 405.652344 312.691406 392.222656 326.125 375.652344 326.125 C 359.085938 326.125 345.652344 312.691406 345.652344 296.125 C 345.652344 279.554688 359.085938 266.125 375.652344 266.125 C 392.222656 266.125 405.652344 279.554688 405.652344 296.125 "/>
<path style="fill-rule:nonzero;fill:rgb(90%,65%,0%);fill-opacity:1;stroke-width:1;stroke-linecap:butt;stroke-linejoin:miter;stroke:rgb(0%,0%,0%);stroke-opacity:1;stroke-miterlimit:10;" d="M 382.363281 425.867188 C 382.363281 442.433594 368.933594 455.867188 352.363281 455.867188 C 335.796875 455.867188 322.363281 442.433594 322.363281 425.867188 C 322.363281 409.296875 335.796875 395.867188 352.363281 395.867188 C 368.933594 395.867188 382.363281 409.296875 382.363281 425.867188 "/>
<path style="fill-rule:nonzero;fill:rgb(90%,65%,0%);fill-opacity:1;stroke-width:1;stroke-linecap:butt;stroke-linejoin:miter;stroke:rgb(0%,0%,0%);stroke-opacity:1;stroke-miterlimit:10;" d="M 363.820312 364.433594 C 363.820312 381.003906 350.386719 394.433594 333.820312 394.433594 C 317.25 394.433594 303.820312 381.003906 303.820312 364.433594 C 303.820312 347.867188 317.25 334.433594 333.820312 334.433594 C 350.386719 334.433594 363.820312 347.867188 363.820312 364.433594 "/>
<path style="fill-rule:nonzero;fill:rgb(90%,65%,0%);fill-opacity:1;stroke-width:1;stroke-linecap:butt;stroke-linejoin:miter;stroke:rgb(0%,0%,0%);stroke-opacity:1;stroke-miterlimit:10;" d="M 327.578125 300.261719 C 327.578125 316.832031 314.144531 330.261719 297.578125 330.261719 C 281.007812 330.261719 267.578125 316.832031 267.578125 300.261719 C 267.578125 283.695312 281.007812 270.261719 297.578125 270.261719 C 314.144531 270.261719 327.578125 283.695312 327.578125 300.261719 "/>
</g>
</svg>
