<?xml version="1.0" encoding="UTF-8"?>
<svg xmlns="http://www.w3.org/2000/svg" xmlns:xlink="http://www.w3.org/1999/xlink" width="517pt" height="517pt" viewBox="0 0 517 517" version="1.1">
<g id="surface5676">
<rect x="0" y="0" width="517" height="517" style="fill:rgb(90%,90%,90%);fill-opacity:1;stroke:none;"/>
<path style="fill-rule:nonzero;fill:rgb(35%,70%,90%);fill-opacity:1;stroke-width:1;stroke-linecap:butt;stroke-linejoin:miter;stroke:rgb(0%,0%,0%);stroke-opacity:1;stroke-miterlimit:10;" d="M 370.917969 336.234375 C 370.917969 352.800781 357.484375 366.234375 340.917969 366.234375 C 324.347656 366.234375 310.917969 352.800781 310.917969 336.234375 C 310.917969 319.664062 324.347656 306.234375 340.917969 306.234375 C 357.484375 306.234375 370.917969 319.664062 370.917969 336.234375 "/>
<path style="fill-rule:nonzero;fill:rgb(35%,70%,90%);fill-opacity:1;stroke-width:1;stroke-linecap:butt;stroke-linejoin:miter;stroke:rgb(0%,0%,0%);stroke-opacity:1;stroke-miterlimit:10;" d="M 407.910156 390.457031 C 407.910156 407.027344 394.480469 420.457031 377.910156 420.457031 C 361.339844 420.457031 347.910156 407.027344 347.910156 390.457031 C 347.910156 373.890625 361.339844 360.457031 377.910156 360.457031 C 394.480469 360.457031 407.910156 373.890625 407.910156 390.457031 "/>
<path style="fill-rule:nonzero;fill:rgb(35%,70%,90%);fill-opacity:1;stroke-width:1;stroke-linecap:butt;stroke-linejoin:miter;stroke:rgb(0%,0%,0%);stroke-opacity:1;stroke-miterlimit:10;" d="M 121.550781 133.332031 C 121.550781 149.902344 108.121094 163.332031 91.550781 163.332031 C 74.984375 163.332031 61.550781 149.902344 61.550781 133.332031 C 61.550781 116.765625 74.984375 103.332031 91.550781 103.332031 C 108.121094 103.332031 121.550781 116.765625 121.550781 133.332031 "/>
<path style="fill-rule:nonzero;fill:rgb(90%,65%,0%);fill-opacity:1;stroke-width:1;stroke-linecap:butt;stroke-linejoin:miter;stroke:rgb(0%,0%,0%);stroke-opacity:1;stroke-miterlimit:10;" d="M 219.613281 39.800781 C 219.613281 56.367188 206.179688 69.800781 189.613281 69.800781 C 173.042969 69.800781 159.613281 56.367188 159.613281 39.800781 C 159.613281 23.230469 173.042969 9.800781 189.613281 9.800781 C 206.179688 9.800781 219.613281 23.230469 219.613281 39.800781 "/>
<path style="fill-rule:nonzero;fill:rgb(90%,65%,0%);fill-opacity:1;stroke-width:1;stroke-linecap:butt;stroke-linejoin:miter;stroke:rgb(0%,0%,0%);stroke-opacity:1;stroke-miterlimit:10;" d="M 119.460938 41.683594 C 119.460938 58.25 106.027344 71.683594 89.460938 71.683594 C 72.890625 71.683594 59.460938 58.25 59.460938 41.683594 C 59.460938 25.113281 72.890625 11.683594 89.460938 11.683594 C 106.027344 11.683594 119.460938 25.113281 119.460938 41.683594 "/>
<path style="fill-rule:nonzero;fill:rgb(90%,65%,0%);fill-opacity:1;stroke-width:1;stroke-linecap:butt;stroke-linejoin:miter;stroke:rgb(0%,0%,0%);stroke-opacity:1;stroke-miterlimit:10;" d="M 221.753906 219.847656 C 221.753906 236.414062 208.324219 249.847656 191.753906 249.847656 C 175.1875 249.847656 161.753906 236.414062 161.753906 219.847656 C 161.753906 203.277344 175.1875 189.847656 191.753906 189.847656 C 208.324219 189.847656 221.753906 203.277344 221.753906 219.847656 "/>
<path style="fill-rule:nonzero;fill:rgb(90%,65%,0%);fill-opacity:1;stroke-width:1;stroke-linecap:butt;stroke-linejoin:miter;stroke:rgb(0%,0%,0%);stroke-opacity:1;stroke-miterlimit:10;" d="M 81.671875 181.34375 C 81.671875 197.914062 68.238281 211.34375 51.671875 211.34375 C 35.101562 211.34375 21.671875 197.914062 21.671875 181.34375 C 21.671875 164.777344 35.101562 151.34375 51.671875 151.34375 C 68.238281 151.34375 81.671875 164.777344 81.671875 181.34375 "/>
<path style="fill-rule:nonzero;fill:rgb(90%,65%,0%);fill-opacity:1;stroke-width:1;stroke-linecap:butt;stroke-linejoin:miter;stroke:rgb(0%,0%,0%);stroke-opacity:1;stroke-miterlimit:10;" d="M 201.984375 121.1875 C 201.984375 137.757812 188.554688 151.1875 171.984375 151.1875 C 155.414062 151.1875 141.984375 137.757812 141.984375 121.1875 C 141.984375 104.621094 155.414062 91.1875 171.984375 91.1875 C 188.554688 91.1875 201.984375 104.621094 201.984375 121.1875 "/>
</g>
</svg>
