<?xml version="1.0" encoding="UTF-8"?>
<svg xmlns="http://www.w3.org/2000/svg" xmlns:xlink="http://www.w3.org/1999/xlink" width="517pt" height="517pt" viewBox="0 0 517 517" version="1.1">
<g id="surface11736">
<rect x="0" y="0" width="517" height="517" style="fill:rgb(90%,90%,90%);fill-opacity:1;stroke:none;"/>
<path style="fill-rule:nonzero;fill:rgb(67%,100%,18%);fill-opacity:1;stroke-width:1;stroke-linecap:butt;stroke-linejoin:miter;stroke:rgb(0%,0%,0%);stroke-opacity:1;stroke-miterlimit:10;" d="M 358.34375 441.898438 L 338.34375 441.898438 L 338.34375 451.898438 L 358.34375 451.898438 L 358.34375 471.898438 L 368.34375 471.898438 L 368.34375 451.898438 L 388.34375 451.898438 L 388.34375 441.898438 L 368.34375 441.898438 L 368.34375 421.898438 L 358.34375 421.898438 L 358.34375 441.898438 "/>
<path style="fill-rule:nonzero;fill:rgb(67%,100%,18%);fill-opacity:1;stroke-width:1;stroke-linecap:butt;stroke-linejoin:miter;stroke:rgb(0%,0%,0%);stroke-opacity:1;stroke-miterlimit:10;" d="M 56.316406 364.625 L 36.316406 364.625 L 36.316406 374.625 L 56.316406 374.625 L 56.316406 394.625 L 66.316406 394.625 L 66.316406 374.625 L 86.316406 374.625 L 86.316406 364.625 L 66.316406 364.625 L 66.316406 344.625 L 56.316406 344.625 L 56.316406 364.625 "/>
<path style="fill-rule:nonzero;fill:rgb(67%,100%,18%);fill-opacity:1;stroke-width:1;stroke-linecap:butt;stroke-linejoin:miter;stroke:rgb(0%,0%,0%);stroke-opacity:1;stroke-miterlimit:10;" d="M 68.339844 151.730469 L 48.339844 151.730469 L 48.339844 161.730469 L 68.339844 161.730469 L 68.339844 181.730469 L 78.339844 181.730469 L 78.339844 161.730469 L 98.339844 161.730469 L 98.339844 151.730469 L 78.339844 151.730469 L 78.339844 131.730469 L 68.339844 131.730469 L 68.339844 151.730469 "/>
<path style="fill-rule:nonzero;fill:rgb(67%,100%,18%);fill-opacity:1;stroke-width:1;stroke-linecap:butt;stroke-linejoin:miter;stroke:rgb(0%,0%,0%);stroke-opacity:1;stroke-miterlimit:10;" d="M 108.207031 63.765625 L 88.207031 63.765625 L 88.207031 73.765625 L 108.207031 73.765625 L 108.207031 93.765625 L 118.207031 93.765625 L 118.207031 73.765625 L 138.207031 73.765625 L 138.207031 63.765625 L 118.207031 63.765625 L 118.207031 43.765625 L 108.207031 43.765625 L 108.207031 63.765625 "/>
</g>
</svg>
