<?xml version="1.0" encoding="UTF-8"?>
<svg xmlns="http://www.w3.org/2000/svg" xmlns:xlink="http://www.w3.org/1999/xlink" width="517pt" height="517pt" viewBox="0 0 517 517" version="1.1">
<g id="surface12156">
<rect x="0" y="0" width="517" height="517" style="fill:rgb(90%,90%,90%);fill-opacity:1;stroke:none;"/>
<path style="fill-rule:nonzero;fill:rgb(100%,0%,0%);fill-opacity:1;stroke-width:1;stroke-linecap:butt;stroke-linejoin:miter;stroke:rgb(0%,0%,0%);stroke-opacity:1;stroke-miterlimit:10;" d="M 117.304688 55.117188 L 97.304688 55.117188 L 97.304688 65.117188 L 117.304688 65.117188 L 117.304688 85.117188 L 127.304688 85.117188 L 127.304688 65.117188 L 147.304688 65.117188 L 147.304688 55.117188 L 127.304688 55.117188 L 127.304688 35.117188 L 117.304688 35.117188 L 117.304688 55.117188 "/>
<path style="fill-rule:nonzero;fill:rgb(67%,100%,18%);fill-opacity:1;stroke-width:1;stroke-linecap:butt;stroke-linejoin:miter;stroke:rgb(0%,0%,0%);stroke-opacity:1;stroke-miterlimit:10;" d="M 185.625 91.613281 L 165.625 91.613281 L 165.625 101.613281 L 185.625 101.613281 L 185.625 121.613281 L 195.625 121.613281 L 195.625 101.613281 L 215.625 101.613281 L 215.625 91.613281 L 195.625 91.613281 L 195.625 71.613281 L 185.625 71.613281 L 185.625 91.613281 "/>
<path style="fill-rule:nonzero;fill:rgb(67%,100%,18%);fill-opacity:1;stroke-width:1;stroke-linecap:butt;stroke-linejoin:miter;stroke:rgb(0%,0%,0%);stroke-opacity:1;stroke-miterlimit:10;" d="M 421.011719 397.023438 L 401.011719 397.023438 L 401.011719 407.023438 L 421.011719 407.023438 L 421.011719 427.023438 L 431.011719 427.023438 L 431.011719 407.023438 L 451.011719 407.023438 L 451.011719 397.023438 L 431.011719 397.023438 L 431.011719 377.023438 L 421.011719 377.023438 L 421.011719 397.023438 "/>
<path style="fill-rule:nonzero;fill:rgb(67%,100%,18%);fill-opacity:1;stroke-width:1;stroke-linecap:butt;stroke-linejoin:miter;stroke:rgb(0%,0%,0%);stroke-opacity:1;stroke-miterlimit:10;" d="M 357.839844 107.898438 L 337.839844 107.898438 L 337.839844 117.898438 L 357.839844 117.898438 L 357.839844 137.898438 L 367.839844 137.898438 L 367.839844 117.898438 L 387.839844 117.898438 L 387.839844 107.898438 L 367.839844 107.898438 L 367.839844 87.898438 L 357.839844 87.898438 L 357.839844 107.898438 "/>
</g>
</svg>
