<?xml version="1.0" encoding="UTF-8"?>
<svg xmlns="http://www.w3.org/2000/svg" xmlns:xlink="http://www.w3.org/1999/xlink" width="517pt" height="517pt" viewBox="0 0 517 517" version="1.1">
<g id="surface12336">
<rect x="0" y="0" width="517" height="517" style="fill:rgb(90%,90%,90%);fill-opacity:1;stroke:none;"/>
<path style="fill-rule:nonzero;fill:rgb(67%,100%,18%);fill-opacity:1;stroke-width:1;stroke-linecap:butt;stroke-linejoin:miter;stroke:rgb(0%,0%,0%);stroke-opacity:1;stroke-miterlimit:10;" d="M 110.632812 107.890625 L 90.632812 107.890625 L 90.632812 117.890625 L 110.632812 117.890625 L 110.632812 137.890625 L 120.632812 137.890625 L 120.632812 117.890625 L 140.632812 117.890625 L 140.632812 107.890625 L 120.632812 107.890625 L 120.632812 87.890625 L 110.632812 87.890625 L 110.632812 107.890625 "/>
<path style="fill-rule:nonzero;fill:rgb(67%,100%,18%);fill-opacity:1;stroke-width:1;stroke-linecap:butt;stroke-linejoin:miter;stroke:rgb(0%,0%,0%);stroke-opacity:1;stroke-miterlimit:10;" d="M 332.445312 192.238281 L 312.445312 192.238281 L 312.445312 202.238281 L 332.445312 202.238281 L 332.445312 222.238281 L 342.445312 222.238281 L 342.445312 202.238281 L 362.445312 202.238281 L 362.445312 192.238281 L 342.445312 192.238281 L 342.445312 172.238281 L 332.445312 172.238281 L 332.445312 192.238281 "/>
<path style="fill-rule:nonzero;fill:rgb(100%,100%,0%);fill-opacity:1;stroke-width:1;stroke-linecap:butt;stroke-linejoin:miter;stroke:rgb(0%,0%,0%);stroke-opacity:1;stroke-miterlimit:10;" d="M 446.496094 125.0625 L 426.496094 125.0625 L 426.496094 135.0625 L 446.496094 135.0625 L 446.496094 155.0625 L 456.496094 155.0625 L 456.496094 135.0625 L 476.496094 135.0625 L 476.496094 125.0625 L 456.496094 125.0625 L 456.496094 105.0625 L 446.496094 105.0625 L 446.496094 125.0625 "/>
<path style="fill-rule:nonzero;fill:rgb(100%,100%,0%);fill-opacity:1;stroke-width:1;stroke-linecap:butt;stroke-linejoin:miter;stroke:rgb(0%,0%,0%);stroke-opacity:1;stroke-miterlimit:10;" d="M 367.328125 132.085938 L 347.328125 132.085938 L 347.328125 142.085938 L 367.328125 142.085938 L 367.328125 162.085938 L 377.328125 162.085938 L 377.328125 142.085938 L 397.328125 142.085938 L 397.328125 132.085938 L 377.328125 132.085938 L 377.328125 112.085938 L 367.328125 112.085938 L 367.328125 132.085938 "/>
<path style="fill-rule:nonzero;fill:rgb(100%,100%,0%);fill-opacity:1;stroke-width:1;stroke-linecap:butt;stroke-linejoin:miter;stroke:rgb(0%,0%,0%);stroke-opacity:1;stroke-miterlimit:10;" d="M 424.792969 34.890625 L 404.792969 34.890625 L 404.792969 44.890625 L 424.792969 44.890625 L 424.792969 64.890625 L 434.792969 64.890625 L 434.792969 44.890625 L 454.792969 44.890625 L 454.792969 34.890625 L 434.792969 34.890625 L 434.792969 14.890625 L 424.792969 14.890625 L 424.792969 34.890625 "/>
</g>
</svg>
