<?xml version="1.0" encoding="UTF-8"?>
<svg xmlns="http://www.w3.org/2000/svg" xmlns:xlink="http://www.w3.org/1999/xlink" width="517pt" height="517pt" viewBox="0 0 517 517" version="1.1">
<g id="surface11796">
<rect x="0" y="0" width="517" height="517" style="fill:rgb(90%,90%,90%);fill-opacity:1;stroke:none;"/>
<path style="fill-rule:nonzero;fill:rgb(67%,100%,18%);fill-opacity:1;stroke-width:1;stroke-linecap:butt;stroke-linejoin:miter;stroke:rgb(0%,0%,0%);stroke-opacity:1;stroke-miterlimit:10;" d="M 67.804688 183.316406 L 47.804688 183.316406 L 47.804688 193.316406 L 67.804688 193.316406 L 67.804688 213.316406 L 77.804688 213.316406 L 77.804688 193.316406 L 97.804688 193.316406 L 97.804688 183.316406 L 77.804688 183.316406 L 77.804688 163.316406 L 67.804688 163.316406 L 67.804688 183.316406 "/>
<path style="fill-rule:nonzero;fill:rgb(67%,100%,18%);fill-opacity:1;stroke-width:1;stroke-linecap:butt;stroke-linejoin:miter;stroke:rgb(0%,0%,0%);stroke-opacity:1;stroke-miterlimit:10;" d="M 162.992188 186.511719 L 142.992188 186.511719 L 142.992188 196.511719 L 162.992188 196.511719 L 162.992188 216.511719 L 172.992188 216.511719 L 172.992188 196.511719 L 192.992188 196.511719 L 192.992188 186.511719 L 172.992188 186.511719 L 172.992188 166.511719 L 162.992188 166.511719 L 162.992188 186.511719 "/>
<path style="fill-rule:nonzero;fill:rgb(67%,100%,18%);fill-opacity:1;stroke-width:1;stroke-linecap:butt;stroke-linejoin:miter;stroke:rgb(0%,0%,0%);stroke-opacity:1;stroke-miterlimit:10;" d="M 350.957031 174.859375 L 330.957031 174.859375 L 330.957031 184.859375 L 350.957031 184.859375 L 350.957031 204.859375 L 360.957031 204.859375 L 360.957031 184.859375 L 380.957031 184.859375 L 380.957031 174.859375 L 360.957031 174.859375 L 360.957031 154.859375 L 350.957031 154.859375 L 350.957031 174.859375 "/>
<path style="fill-rule:nonzero;fill:rgb(67%,100%,18%);fill-opacity:1;stroke-width:1;stroke-linecap:butt;stroke-linejoin:miter;stroke:rgb(0%,0%,0%);stroke-opacity:1;stroke-miterlimit:10;" d="M 401.332031 109.527344 L 381.332031 109.527344 L 381.332031 119.527344 L 401.332031 119.527344 L 401.332031 139.527344 L 411.332031 139.527344 L 411.332031 119.527344 L 431.332031 119.527344 L 431.332031 109.527344 L 411.332031 109.527344 L 411.332031 89.527344 L 401.332031 89.527344 L 401.332031 109.527344 "/>
</g>
</svg>
