<?xml version="1.0" encoding="UTF-8"?>
<svg xmlns="http://www.w3.org/2000/svg" xmlns:xlink="http://www.w3.org/1999/xlink" width="517pt" height="517pt" viewBox="0 0 517 517" version="1.1">
<g id="surface11916">
<rect x="0" y="0" width="517" height="517" style="fill:rgb(90%,90%,90%);fill-opacity:1;stroke:none;"/>
<path style="fill-rule:nonzero;fill:rgb(100%,7%,57%);fill-opacity:1;stroke-width:1;stroke-linecap:butt;stroke-linejoin:miter;stroke:rgb(0%,0%,0%);stroke-opacity:1;stroke-miterlimit:10;" d="M 404.304688 186.820312 L 384.304688 186.820312 L 384.304688 196.820312 L 404.304688 196.820312 L 404.304688 216.820312 L 414.304688 216.820312 L 414.304688 196.820312 L 434.304688 196.820312 L 434.304688 186.820312 L 414.304688 186.820312 L 414.304688 166.820312 L 404.304688 166.820312 L 404.304688 186.820312 "/>
<path style="fill-rule:nonzero;fill:rgb(100%,7%,57%);fill-opacity:1;stroke-width:1;stroke-linecap:butt;stroke-linejoin:miter;stroke:rgb(0%,0%,0%);stroke-opacity:1;stroke-miterlimit:10;" d="M 340.769531 40.074219 L 320.769531 40.074219 L 320.769531 50.074219 L 340.769531 50.074219 L 340.769531 70.074219 L 350.769531 70.074219 L 350.769531 50.074219 L 370.769531 50.074219 L 370.769531 40.074219 L 350.769531 40.074219 L 350.769531 20.074219 L 340.769531 20.074219 L 340.769531 40.074219 "/>
<path style="fill-rule:nonzero;fill:rgb(100%,7%,57%);fill-opacity:1;stroke-width:1;stroke-linecap:butt;stroke-linejoin:miter;stroke:rgb(0%,0%,0%);stroke-opacity:1;stroke-miterlimit:10;" d="M 41.359375 111.578125 L 21.359375 111.578125 L 21.359375 121.578125 L 41.359375 121.578125 L 41.359375 141.578125 L 51.359375 141.578125 L 51.359375 121.578125 L 71.359375 121.578125 L 71.359375 111.578125 L 51.359375 111.578125 L 51.359375 91.578125 L 41.359375 91.578125 L 41.359375 111.578125 "/>
<path style="fill-rule:nonzero;fill:rgb(100%,7%,57%);fill-opacity:1;stroke-width:1;stroke-linecap:butt;stroke-linejoin:miter;stroke:rgb(0%,0%,0%);stroke-opacity:1;stroke-miterlimit:10;" d="M 112.984375 142.488281 L 92.984375 142.488281 L 92.984375 152.488281 L 112.984375 152.488281 L 112.984375 172.488281 L 122.984375 172.488281 L 122.984375 152.488281 L 142.984375 152.488281 L 142.984375 142.488281 L 122.984375 142.488281 L 122.984375 122.488281 L 112.984375 122.488281 L 112.984375 142.488281 "/>
<path style="fill-rule:nonzero;fill:rgb(100%,100%,0%);fill-opacity:1;stroke-width:1;stroke-linecap:butt;stroke-linejoin:miter;stroke:rgb(0%,0%,0%);stroke-opacity:1;stroke-miterlimit:10;" d="M 195.730469 364.773438 L 175.730469 364.773438 L 175.730469 374.773438 L 195.730469 374.773438 L 195.730469 394.773438 L 205.730469 394.773438 L 205.730469 374.773438 L 225.730469 374.773438 L 225.730469 364.773438 L 205.730469 364.773438 L 205.730469 344.773438 L 195.730469 344.773438 L 195.730469 364.773438 "/>
</g>
</svg>
