<?xml version="1.0" encoding="UTF-8"?>
<svg xmlns="http://www.w3.org/2000/svg" xmlns:xlink="http://www.w3.org/1999/xlink" width="517pt" height="517pt" viewBox="0 0 517 517" version="1.1">
<g id="surface11576">
<rect x="0" y="0" width="517" height="517" style="fill:rgb(90%,90%,90%);fill-opacity:1;stroke:none;"/>
<path style="fill-rule:nonzero;fill:rgb(0%,0%,0%);fill-opacity:1;stroke-width:1;stroke-linecap:butt;stroke-linejoin:miter;stroke:rgb(0%,0%,0%);stroke-opacity:1;stroke-miterlimit:10;" d="M 451.566406 339.613281 L 431.566406 339.613281 L 431.566406 349.613281 L 451.566406 349.613281 L 451.566406 369.613281 L 461.566406 369.613281 L 461.566406 349.613281 L 481.566406 349.613281 L 481.566406 339.613281 L 461.566406 339.613281 L 461.566406 319.613281 L 451.566406 319.613281 L 451.566406 339.613281 "/>
<path style="fill-rule:nonzero;fill:rgb(0%,0%,0%);fill-opacity:1;stroke-width:1;stroke-linecap:butt;stroke-linejoin:miter;stroke:rgb(0%,0%,0%);stroke-opacity:1;stroke-miterlimit:10;" d="M 345.878906 413.582031 L 325.878906 413.582031 L 325.878906 423.582031 L 345.878906 423.582031 L 345.878906 443.582031 L 355.878906 443.582031 L 355.878906 423.582031 L 375.878906 423.582031 L 375.878906 413.582031 L 355.878906 413.582031 L 355.878906 393.582031 L 345.878906 393.582031 L 345.878906 413.582031 "/>
<path style="fill-rule:nonzero;fill:rgb(0%,0%,0%);fill-opacity:1;stroke-width:1;stroke-linecap:butt;stroke-linejoin:miter;stroke:rgb(0%,0%,0%);stroke-opacity:1;stroke-miterlimit:10;" d="M 198.078125 175.832031 L 178.078125 175.832031 L 178.078125 185.832031 L 198.078125 185.832031 L 198.078125 205.832031 L 208.078125 205.832031 L 208.078125 185.832031 L 228.078125 185.832031 L 228.078125 175.832031 L 208.078125 175.832031 L 208.078125 155.832031 L 198.078125 155.832031 L 198.078125 175.832031 "/>
<path style="fill-rule:nonzero;fill:rgb(0%,0%,0%);fill-opacity:1;stroke-width:1;stroke-linecap:butt;stroke-linejoin:miter;stroke:rgb(0%,0%,0%);stroke-opacity:1;stroke-miterlimit:10;" d="M 154.011719 114.191406 L 134.011719 114.191406 L 134.011719 124.191406 L 154.011719 124.191406 L 154.011719 144.191406 L 164.011719 144.191406 L 164.011719 124.191406 L 184.011719 124.191406 L 184.011719 114.191406 L 164.011719 114.191406 L 164.011719 94.191406 L 154.011719 94.191406 L 154.011719 114.191406 "/>
<path style="fill-rule:nonzero;fill:rgb(0%,0%,0%);fill-opacity:1;stroke-width:1;stroke-linecap:butt;stroke-linejoin:miter;stroke:rgb(0%,0%,0%);stroke-opacity:1;stroke-miterlimit:10;" d="M 30.882812 52.945312 L 10.882812 52.945312 L 10.882812 62.945312 L 30.882812 62.945312 L 30.882812 82.945312 L 40.882812 82.945312 L 40.882812 62.945312 L 60.882812 62.945312 L 60.882812 52.945312 L 40.882812 52.945312 L 40.882812 32.945312 L 30.882812 32.945312 L 30.882812 52.945312 "/>
</g>
</svg>
