<?xml version="1.0" encoding="UTF-8"?>
<svg xmlns="http://www.w3.org/2000/svg" xmlns:xlink="http://www.w3.org/1999/xlink" width="517pt" height="517pt" viewBox="0 0 517 517" version="1.1">
<g id="surface11536">
<rect x="0" y="0" width="517" height="517" style="fill:rgb(90%,90%,90%);fill-opacity:1;stroke:none;"/>
<path style="fill-rule:nonzero;fill:rgb(0%,0%,0%);fill-opacity:1;stroke-width:1;stroke-linecap:butt;stroke-linejoin:miter;stroke:rgb(0%,0%,0%);stroke-opacity:1;stroke-miterlimit:10;" d="M 42.914062 427.261719 L 22.914062 427.261719 L 22.914062 437.261719 L 42.914062 437.261719 L 42.914062 457.261719 L 52.914062 457.261719 L 52.914062 437.261719 L 72.914062 437.261719 L 72.914062 427.261719 L 52.914062 427.261719 L 52.914062 407.261719 L 42.914062 407.261719 L 42.914062 427.261719 "/>
<path style="fill-rule:nonzero;fill:rgb(0%,0%,0%);fill-opacity:1;stroke-width:1;stroke-linecap:butt;stroke-linejoin:miter;stroke:rgb(0%,0%,0%);stroke-opacity:1;stroke-miterlimit:10;" d="M 184.730469 446.460938 L 164.730469 446.460938 L 164.730469 456.460938 L 184.730469 456.460938 L 184.730469 476.460938 L 194.730469 476.460938 L 194.730469 456.460938 L 214.730469 456.460938 L 214.730469 446.460938 L 194.730469 446.460938 L 194.730469 426.460938 L 184.730469 426.460938 L 184.730469 446.460938 "/>
<path style="fill-rule:nonzero;fill:rgb(0%,0%,0%);fill-opacity:1;stroke-width:1;stroke-linecap:butt;stroke-linejoin:miter;stroke:rgb(0%,0%,0%);stroke-opacity:1;stroke-miterlimit:10;" d="M 113.296875 163.5625 L 93.296875 163.5625 L 93.296875 173.5625 L 113.296875 173.5625 L 113.296875 193.5625 L 123.296875 193.5625 L 123.296875 173.5625 L 143.296875 173.5625 L 143.296875 163.5625 L 123.296875 163.5625 L 123.296875 143.5625 L 113.296875 143.5625 L 113.296875 163.5625 "/>
<path style="fill-rule:nonzero;fill:rgb(0%,0%,0%);fill-opacity:1;stroke-width:1;stroke-linecap:butt;stroke-linejoin:miter;stroke:rgb(0%,0%,0%);stroke-opacity:1;stroke-miterlimit:10;" d="M 181.046875 118.058594 L 161.046875 118.058594 L 161.046875 128.058594 L 181.046875 128.058594 L 181.046875 148.058594 L 191.046875 148.058594 L 191.046875 128.058594 L 211.046875 128.058594 L 211.046875 118.058594 L 191.046875 118.058594 L 191.046875 98.058594 L 181.046875 98.058594 L 181.046875 118.058594 "/>
<path style="fill-rule:nonzero;fill:rgb(0%,0%,0%);fill-opacity:1;stroke-width:1;stroke-linecap:butt;stroke-linejoin:miter;stroke:rgb(0%,0%,0%);stroke-opacity:1;stroke-miterlimit:10;" d="M 358.785156 78.9375 L 338.785156 78.9375 L 338.785156 88.9375 L 358.785156 88.9375 L 358.785156 108.9375 L 368.785156 108.9375 L 368.785156 88.9375 L 388.785156 88.9375 L 388.785156 78.9375 L 368.785156 78.9375 L 368.785156 58.9375 L 358.785156 58.9375 L 358.785156 78.9375 "/>
</g>
</svg>
