<?xml version="1.0" encoding="UTF-8"?>
<svg xmlns="http://www.w3.org/2000/svg" xmlns:xlink="http://www.w3.org/1999/xlink" width="517pt" height="517pt" viewBox="0 0 517 517" version="1.1">
<g id="surface12096">
<rect x="0" y="0" width="517" height="517" style="fill:rgb(90%,90%,90%);fill-opacity:1;stroke:none;"/>
<path style="fill-rule:nonzero;fill:rgb(100%,0%,0%);fill-opacity:1;stroke-width:1;stroke-linecap:butt;stroke-linejoin:miter;stroke:rgb(0%,0%,0%);stroke-opacity:1;stroke-miterlimit:10;" d="M 296.589844 413.90625 L 276.589844 413.90625 L 276.589844 423.90625 L 296.589844 423.90625 L 296.589844 443.90625 L 306.589844 443.90625 L 306.589844 423.90625 L 326.589844 423.90625 L 326.589844 413.90625 L 306.589844 413.90625 L 306.589844 393.90625 L 296.589844 393.90625 L 296.589844 413.90625 "/>
<path style="fill-rule:nonzero;fill:rgb(67%,100%,18%);fill-opacity:1;stroke-width:1;stroke-linecap:butt;stroke-linejoin:miter;stroke:rgb(0%,0%,0%);stroke-opacity:1;stroke-miterlimit:10;" d="M 54.902344 95.898438 L 34.902344 95.898438 L 34.902344 105.898438 L 54.902344 105.898438 L 54.902344 125.898438 L 64.902344 125.898438 L 64.902344 105.898438 L 84.902344 105.898438 L 84.902344 95.898438 L 64.902344 95.898438 L 64.902344 75.898438 L 54.902344 75.898438 L 54.902344 95.898438 "/>
<path style="fill-rule:nonzero;fill:rgb(67%,100%,18%);fill-opacity:1;stroke-width:1;stroke-linecap:butt;stroke-linejoin:miter;stroke:rgb(0%,0%,0%);stroke-opacity:1;stroke-miterlimit:10;" d="M 170.085938 102.273438 L 150.085938 102.273438 L 150.085938 112.273438 L 170.085938 112.273438 L 170.085938 132.273438 L 180.085938 132.273438 L 180.085938 112.273438 L 200.085938 112.273438 L 200.085938 102.273438 L 180.085938 102.273438 L 180.085938 82.273438 L 170.085938 82.273438 L 170.085938 102.273438 "/>
<path style="fill-rule:nonzero;fill:rgb(67%,100%,18%);fill-opacity:1;stroke-width:1;stroke-linecap:butt;stroke-linejoin:miter;stroke:rgb(0%,0%,0%);stroke-opacity:1;stroke-miterlimit:10;" d="M 454.09375 155.382812 L 434.09375 155.382812 L 434.09375 165.382812 L 454.09375 165.382812 L 454.09375 185.382812 L 464.09375 185.382812 L 464.09375 165.382812 L 484.09375 165.382812 L 484.09375 155.382812 L 464.09375 155.382812 L 464.09375 135.382812 L 454.09375 135.382812 L 454.09375 155.382812 "/>
</g>
</svg>
