<?xml version="1.0" encoding="UTF-8"?>
<svg xmlns="http://www.w3.org/2000/svg" xmlns:xlink="http://www.w3.org/1999/xlink" width="517pt" height="517pt" viewBox="0 0 517 517" version="1.1">
<g id="surface11956">
<rect x="0" y="0" width="517" height="517" style="fill:rgb(90%,90%,90%);fill-opacity:1;stroke:none;"/>
<path style="fill-rule:nonzero;fill:rgb(100%,7%,57%);fill-opacity:1;stroke-width:1;stroke-linecap:butt;stroke-linejoin:miter;stroke:rgb(0%,0%,0%);stroke-opacity:1;stroke-miterlimit:10;" d="M 109.246094 139.449219 L 89.246094 139.449219 L 89.246094 149.449219 L 109.246094 149.449219 L 109.246094 169.449219 L 119.246094 169.449219 L 119.246094 149.449219 L 139.246094 149.449219 L 139.246094 139.449219 L 119.246094 139.449219 L 119.246094 119.449219 L 109.246094 119.449219 L 109.246094 139.449219 "/>
<path style="fill-rule:nonzero;fill:rgb(100%,7%,57%);fill-opacity:1;stroke-width:1;stroke-linecap:butt;stroke-linejoin:miter;stroke:rgb(0%,0%,0%);stroke-opacity:1;stroke-miterlimit:10;" d="M 307.648438 407.679688 L 287.648438 407.679688 L 287.648438 417.679688 L 307.648438 417.679688 L 307.648438 437.679688 L 317.648438 437.679688 L 317.648438 417.679688 L 337.648438 417.679688 L 337.648438 407.679688 L 317.648438 407.679688 L 317.648438 387.679688 L 307.648438 387.679688 L 307.648438 407.679688 "/>
<path style="fill-rule:nonzero;fill:rgb(100%,7%,57%);fill-opacity:1;stroke-width:1;stroke-linecap:butt;stroke-linejoin:miter;stroke:rgb(0%,0%,0%);stroke-opacity:1;stroke-miterlimit:10;" d="M 437.605469 293.945312 L 417.605469 293.945312 L 417.605469 303.945312 L 437.605469 303.945312 L 437.605469 323.945312 L 447.605469 323.945312 L 447.605469 303.945312 L 467.605469 303.945312 L 467.605469 293.945312 L 447.605469 293.945312 L 447.605469 273.945312 L 437.605469 273.945312 L 437.605469 293.945312 "/>
<path style="fill-rule:nonzero;fill:rgb(100%,7%,57%);fill-opacity:1;stroke-width:1;stroke-linecap:butt;stroke-linejoin:miter;stroke:rgb(0%,0%,0%);stroke-opacity:1;stroke-miterlimit:10;" d="M 361.421875 302.480469 L 341.421875 302.480469 L 341.421875 312.480469 L 361.421875 312.480469 L 361.421875 332.480469 L 371.421875 332.480469 L 371.421875 312.480469 L 391.421875 312.480469 L 391.421875 302.480469 L 371.421875 302.480469 L 371.421875 282.480469 L 361.421875 282.480469 L 361.421875 302.480469 "/>
<path style="fill-rule:nonzero;fill:rgb(100%,100%,0%);fill-opacity:1;stroke-width:1;stroke-linecap:butt;stroke-linejoin:miter;stroke:rgb(0%,0%,0%);stroke-opacity:1;stroke-miterlimit:10;" d="M 327.257812 71.199219 L 307.257812 71.199219 L 307.257812 81.199219 L 327.257812 81.199219 L 327.257812 101.199219 L 337.257812 101.199219 L 337.257812 81.199219 L 357.257812 81.199219 L 357.257812 71.199219 L 337.257812 71.199219 L 337.257812 51.199219 L 327.257812 51.199219 L 327.257812 71.199219 "/>
</g>
</svg>
