<?xml version="1.0" encoding="UTF-8"?>
<svg xmlns="http://www.w3.org/2000/svg" xmlns:xlink="http://www.w3.org/1999/xlink" width="517pt" height="517pt" viewBox="0 0 517 517" version="1.1">
<g id="surface11976">
<rect x="0" y="0" width="517" height="517" style="fill:rgb(90%,90%,90%);fill-opacity:1;stroke:none;"/>
<path style="fill-rule:nonzero;fill:rgb(100%,7%,57%);fill-opacity:1;stroke-width:1;stroke-linecap:butt;stroke-linejoin:miter;stroke:rgb(0%,0%,0%);stroke-opacity:1;stroke-miterlimit:10;" d="M 310.902344 113.730469 L 290.902344 113.730469 L 290.902344 123.730469 L 310.902344 123.730469 L 310.902344 143.730469 L 320.902344 143.730469 L 320.902344 123.730469 L 340.902344 123.730469 L 340.902344 113.730469 L 320.902344 113.730469 L 320.902344 93.730469 L 310.902344 93.730469 L 310.902344 113.730469 "/>
<path style="fill-rule:nonzero;fill:rgb(100%,7%,57%);fill-opacity:1;stroke-width:1;stroke-linecap:butt;stroke-linejoin:miter;stroke:rgb(0%,0%,0%);stroke-opacity:1;stroke-miterlimit:10;" d="M 85.378906 43.09375 L 65.378906 43.09375 L 65.378906 53.09375 L 85.378906 53.09375 L 85.378906 73.09375 L 95.378906 73.09375 L 95.378906 53.09375 L 115.378906 53.09375 L 115.378906 43.09375 L 95.378906 43.09375 L 95.378906 23.09375 L 85.378906 23.09375 L 85.378906 43.09375 "/>
<path style="fill-rule:nonzero;fill:rgb(100%,7%,57%);fill-opacity:1;stroke-width:1;stroke-linecap:butt;stroke-linejoin:miter;stroke:rgb(0%,0%,0%);stroke-opacity:1;stroke-miterlimit:10;" d="M 169.742188 401.683594 L 149.742188 401.683594 L 149.742188 411.683594 L 169.742188 411.683594 L 169.742188 431.683594 L 179.742188 431.683594 L 179.742188 411.683594 L 199.742188 411.683594 L 199.742188 401.683594 L 179.742188 401.683594 L 179.742188 381.683594 L 169.742188 381.683594 L 169.742188 401.683594 "/>
<path style="fill-rule:nonzero;fill:rgb(100%,7%,57%);fill-opacity:1;stroke-width:1;stroke-linecap:butt;stroke-linejoin:miter;stroke:rgb(0%,0%,0%);stroke-opacity:1;stroke-miterlimit:10;" d="M 81.140625 467.375 L 61.140625 467.375 L 61.140625 477.375 L 81.140625 477.375 L 81.140625 497.375 L 91.140625 497.375 L 91.140625 477.375 L 111.140625 477.375 L 111.140625 467.375 L 91.140625 467.375 L 91.140625 447.375 L 81.140625 447.375 L 81.140625 467.375 "/>
<path style="fill-rule:nonzero;fill:rgb(100%,100%,0%);fill-opacity:1;stroke-width:1;stroke-linecap:butt;stroke-linejoin:miter;stroke:rgb(0%,0%,0%);stroke-opacity:1;stroke-miterlimit:10;" d="M 93.671875 310.726562 L 73.671875 310.726562 L 73.671875 320.726562 L 93.671875 320.726562 L 93.671875 340.726562 L 103.671875 340.726562 L 103.671875 320.726562 L 123.671875 320.726562 L 123.671875 310.726562 L 103.671875 310.726562 L 103.671875 290.726562 L 93.671875 290.726562 L 93.671875 310.726562 "/>
</g>
</svg>
