<?xml version="1.0" encoding="UTF-8"?>
<svg xmlns="http://www.w3.org/2000/svg" xmlns:xlink="http://www.w3.org/1999/xlink" width="517pt" height="517pt" viewBox="0 0 517 517" version="1.1">
<g id="surface5606">
<rect x="0" y="0" width="517" height="517" style="fill:rgb(90%,90%,90%);fill-opacity:1;stroke:none;"/>
<path style="fill-rule:nonzero;fill:rgb(90%,65%,0%);fill-opacity:1;stroke-width:1;stroke-linecap:butt;stroke-linejoin:miter;stroke:rgb(0%,0%,0%);stroke-opacity:1;stroke-miterlimit:10;" d="M 334.863281 57.253906 C 334.863281 73.824219 321.433594 87.253906 304.863281 87.253906 C 288.296875 87.253906 274.863281 73.824219 274.863281 57.253906 C 274.863281 40.6875 288.296875 27.253906 304.863281 27.253906 C 321.433594 27.253906 334.863281 40.6875 334.863281 57.253906 "/>
<path style="fill-rule:nonzero;fill:rgb(90%,65%,0%);fill-opacity:1;stroke-width:1;stroke-linecap:butt;stroke-linejoin:miter;stroke:rgb(0%,0%,0%);stroke-opacity:1;stroke-miterlimit:10;" d="M 403.480469 111.75 C 403.480469 128.316406 390.050781 141.75 373.480469 141.75 C 356.914062 141.75 343.480469 128.316406 343.480469 111.75 C 343.480469 95.179688 356.914062 81.75 373.480469 81.75 C 390.050781 81.75 403.480469 95.179688 403.480469 111.75 "/>
<path style="fill-rule:nonzero;fill:rgb(90%,65%,0%);fill-opacity:1;stroke-width:1;stroke-linecap:butt;stroke-linejoin:miter;stroke:rgb(0%,0%,0%);stroke-opacity:1;stroke-miterlimit:10;" d="M 189.78125 75 C 189.78125 91.566406 176.351562 105 159.78125 105 C 143.210938 105 129.78125 91.566406 129.78125 75 C 129.78125 58.429688 143.210938 45 159.78125 45 C 176.351562 45 189.78125 58.429688 189.78125 75 "/>
<path style="fill-rule:nonzero;fill:rgb(90%,65%,0%);fill-opacity:1;stroke-width:1;stroke-linecap:butt;stroke-linejoin:miter;stroke:rgb(0%,0%,0%);stroke-opacity:1;stroke-miterlimit:10;" d="M 140.050781 156.53125 C 140.050781 173.097656 126.621094 186.53125 110.050781 186.53125 C 93.484375 186.53125 80.050781 173.097656 80.050781 156.53125 C 80.050781 139.960938 93.484375 126.53125 110.050781 126.53125 C 126.621094 126.53125 140.050781 139.960938 140.050781 156.53125 "/>
<path style="fill-rule:nonzero;fill:rgb(90%,65%,0%);fill-opacity:1;stroke-width:1;stroke-linecap:butt;stroke-linejoin:miter;stroke:rgb(0%,0%,0%);stroke-opacity:1;stroke-miterlimit:10;" d="M 93.953125 90.785156 C 93.953125 107.355469 80.519531 120.785156 63.953125 120.785156 C 47.382812 120.785156 33.953125 107.355469 33.953125 90.785156 C 33.953125 74.21875 47.382812 60.785156 63.953125 60.785156 C 80.519531 60.785156 93.953125 74.21875 93.953125 90.785156 "/>
<path style="fill-rule:nonzero;fill:rgb(90%,65%,0%);fill-opacity:1;stroke-width:1;stroke-linecap:butt;stroke-linejoin:miter;stroke:rgb(0%,0%,0%);stroke-opacity:1;stroke-miterlimit:10;" d="M 222.792969 181.128906 C 222.792969 197.695312 209.359375 211.128906 192.792969 211.128906 C 176.222656 211.128906 162.792969 197.695312 162.792969 181.128906 C 162.792969 164.558594 176.222656 151.128906 192.792969 151.128906 C 209.359375 151.128906 222.792969 164.558594 222.792969 181.128906 "/>
<path style="fill-rule:nonzero;fill:rgb(90%,65%,0%);fill-opacity:1;stroke-width:1;stroke-linecap:butt;stroke-linejoin:miter;stroke:rgb(0%,0%,0%);stroke-opacity:1;stroke-miterlimit:10;" d="M 248.605469 58.34375 C 248.605469 74.914062 235.175781 88.34375 218.605469 88.34375 C 202.039062 88.34375 188.605469 74.914062 188.605469 58.34375 C 188.605469 41.773438 202.039062 28.34375 218.605469 28.34375 C 235.175781 28.34375 248.605469 41.773438 248.605469 58.34375 "/>
<path style="fill-rule:nonzero;fill:rgb(90%,65%,0%);fill-opacity:1;stroke-width:1;stroke-linecap:butt;stroke-linejoin:miter;stroke:rgb(0%,0%,0%);stroke-opacity:1;stroke-miterlimit:10;" d="M 117.40625 219.132812 C 117.40625 235.699219 103.972656 249.132812 87.40625 249.132812 C 70.835938 249.132812 57.40625 235.699219 57.40625 219.132812 C 57.40625 202.5625 70.835938 189.132812 87.40625 189.132812 C 103.972656 189.132812 117.40625 202.5625 117.40625 219.132812 "/>
</g>
</svg>
