<?xml version="1.0" encoding="UTF-8"?>
<svg xmlns="http://www.w3.org/2000/svg" xmlns:xlink="http://www.w3.org/1999/xlink" width="517pt" height="517pt" viewBox="0 0 517 517" version="1.1">
<g id="surface12616">
<rect x="0" y="0" width="517" height="517" style="fill:rgb(90%,90%,90%);fill-opacity:1;stroke:none;"/>
<path style="fill-rule:nonzero;fill:rgb(50%,0%,50%);fill-opacity:1;stroke-width:1;stroke-linecap:butt;stroke-linejoin:miter;stroke:rgb(0%,0%,0%);stroke-opacity:1;stroke-miterlimit:10;" d="M 414.90625 455.90625 L 394.90625 455.90625 L 394.90625 465.90625 L 414.90625 465.90625 L 414.90625 485.90625 L 424.90625 485.90625 L 424.90625 465.90625 L 444.90625 465.90625 L 444.90625 455.90625 L 424.90625 455.90625 L 424.90625 435.90625 L 414.90625 435.90625 L 414.90625 455.90625 "/>
<path style="fill-rule:nonzero;fill:rgb(100%,0%,0%);fill-opacity:1;stroke-width:1;stroke-linecap:butt;stroke-linejoin:miter;stroke:rgb(0%,0%,0%);stroke-opacity:1;stroke-miterlimit:10;" d="M 454.644531 295.84375 L 434.644531 295.84375 L 434.644531 305.84375 L 454.644531 305.84375 L 454.644531 325.84375 L 464.644531 325.84375 L 464.644531 305.84375 L 484.644531 305.84375 L 484.644531 295.84375 L 464.644531 295.84375 L 464.644531 275.84375 L 454.644531 275.84375 L 454.644531 295.84375 "/>
<path style="fill-rule:nonzero;fill:rgb(100%,0%,0%);fill-opacity:1;stroke-width:1;stroke-linecap:butt;stroke-linejoin:miter;stroke:rgb(0%,0%,0%);stroke-opacity:1;stroke-miterlimit:10;" d="M 157.257812 190.339844 L 137.257812 190.339844 L 137.257812 200.339844 L 157.257812 200.339844 L 157.257812 220.339844 L 167.257812 220.339844 L 167.257812 200.339844 L 187.257812 200.339844 L 187.257812 190.339844 L 167.257812 190.339844 L 167.257812 170.339844 L 157.257812 170.339844 L 157.257812 190.339844 "/>
<path style="fill-rule:nonzero;fill:rgb(100%,0%,0%);fill-opacity:1;stroke-width:1;stroke-linecap:butt;stroke-linejoin:miter;stroke:rgb(0%,0%,0%);stroke-opacity:1;stroke-miterlimit:10;" d="M 78.925781 152.394531 L 58.925781 152.394531 L 58.925781 162.394531 L 78.925781 162.394531 L 78.925781 182.394531 L 88.925781 182.394531 L 88.925781 162.394531 L 108.925781 162.394531 L 108.925781 152.394531 L 88.925781 152.394531 L 88.925781 132.394531 L 78.925781 132.394531 L 78.925781 152.394531 "/>
<path style="fill-rule:nonzero;fill:rgb(100%,0%,0%);fill-opacity:1;stroke-width:1;stroke-linecap:butt;stroke-linejoin:miter;stroke:rgb(0%,0%,0%);stroke-opacity:1;stroke-miterlimit:10;" d="M 183.273438 71.375 L 163.273438 71.375 L 163.273438 81.375 L 183.273438 81.375 L 183.273438 101.375 L 193.273438 101.375 L 193.273438 81.375 L 213.273438 81.375 L 213.273438 71.375 L 193.273438 71.375 L 193.273438 51.375 L 183.273438 51.375 L 183.273438 71.375 "/>
<path style="fill-rule:nonzero;fill:rgb(100%,0%,0%);fill-opacity:1;stroke-width:1;stroke-linecap:butt;stroke-linejoin:miter;stroke:rgb(0%,0%,0%);stroke-opacity:1;stroke-miterlimit:10;" d="M 455.253906 82.898438 L 435.253906 82.898438 L 435.253906 92.898438 L 455.253906 92.898438 L 455.253906 112.898438 L 465.253906 112.898438 L 465.253906 92.898438 L 485.253906 92.898438 L 485.253906 82.898438 L 465.253906 82.898438 L 465.253906 62.898438 L 455.253906 62.898438 L 455.253906 82.898438 "/>
</g>
</svg>
