<?xml version="1.0" encoding="UTF-8"?>
<svg xmlns="http://www.w3.org/2000/svg" xmlns:xlink="http://www.w3.org/1999/xlink" width="517pt" height="517pt" viewBox="0 0 517 517" version="1.1">
<g id="surface12436">
<rect x="0" y="0" width="517" height="517" style="fill:rgb(90%,90%,90%);fill-opacity:1;stroke:none;"/>
<path style="fill-rule:nonzero;fill:rgb(67%,100%,18%);fill-opacity:1;stroke-width:1;stroke-linecap:butt;stroke-linejoin:miter;stroke:rgb(0%,0%,0%);stroke-opacity:1;stroke-miterlimit:10;" d="M 136.527344 327.0625 L 116.527344 327.0625 L 116.527344 337.0625 L 136.527344 337.0625 L 136.527344 357.0625 L 146.527344 357.0625 L 146.527344 337.0625 L 166.527344 337.0625 L 166.527344 327.0625 L 146.527344 327.0625 L 146.527344 307.0625 L 136.527344 307.0625 L 136.527344 327.0625 "/>
<path style="fill-rule:nonzero;fill:rgb(67%,100%,18%);fill-opacity:1;stroke-width:1;stroke-linecap:butt;stroke-linejoin:miter;stroke:rgb(0%,0%,0%);stroke-opacity:1;stroke-miterlimit:10;" d="M 197.84375 204.894531 L 177.84375 204.894531 L 177.84375 214.894531 L 197.84375 214.894531 L 197.84375 234.894531 L 207.84375 234.894531 L 207.84375 214.894531 L 227.84375 214.894531 L 227.84375 204.894531 L 207.84375 204.894531 L 207.84375 184.894531 L 197.84375 184.894531 L 197.84375 204.894531 "/>
<path style="fill-rule:nonzero;fill:rgb(100%,100%,0%);fill-opacity:1;stroke-width:1;stroke-linecap:butt;stroke-linejoin:miter;stroke:rgb(0%,0%,0%);stroke-opacity:1;stroke-miterlimit:10;" d="M 109.648438 50.523438 L 89.648438 50.523438 L 89.648438 60.523438 L 109.648438 60.523438 L 109.648438 80.523438 L 119.648438 80.523438 L 119.648438 60.523438 L 139.648438 60.523438 L 139.648438 50.523438 L 119.648438 50.523438 L 119.648438 30.523438 L 109.648438 30.523438 L 109.648438 50.523438 "/>
<path style="fill-rule:nonzero;fill:rgb(100%,100%,0%);fill-opacity:1;stroke-width:1;stroke-linecap:butt;stroke-linejoin:miter;stroke:rgb(0%,0%,0%);stroke-opacity:1;stroke-miterlimit:10;" d="M 195.976562 121.960938 L 175.976562 121.960938 L 175.976562 131.960938 L 195.976562 131.960938 L 195.976562 151.960938 L 205.976562 151.960938 L 205.976562 131.960938 L 225.976562 131.960938 L 225.976562 121.960938 L 205.976562 121.960938 L 205.976562 101.960938 L 195.976562 101.960938 L 195.976562 121.960938 "/>
<path style="fill-rule:nonzero;fill:rgb(100%,100%,0%);fill-opacity:1;stroke-width:1;stroke-linecap:butt;stroke-linejoin:miter;stroke:rgb(0%,0%,0%);stroke-opacity:1;stroke-miterlimit:10;" d="M 46.394531 64.953125 L 26.394531 64.953125 L 26.394531 74.953125 L 46.394531 74.953125 L 46.394531 94.953125 L 56.394531 94.953125 L 56.394531 74.953125 L 76.394531 74.953125 L 76.394531 64.953125 L 56.394531 64.953125 L 56.394531 44.953125 L 46.394531 44.953125 L 46.394531 64.953125 "/>
</g>
</svg>
