<?xml version="1.0" encoding="UTF-8"?>
<svg xmlns="http://www.w3.org/2000/svg" xmlns:xlink="http://www.w3.org/1999/xlink" width="517pt" height="517pt" viewBox="0 0 517 517" version="1.1">
<g id="surface12116">
<rect x="0" y="0" width="517" height="517" style="fill:rgb(90%,90%,90%);fill-opacity:1;stroke:none;"/>
<path style="fill-rule:nonzero;fill:rgb(100%,0%,0%);fill-opacity:1;stroke-width:1;stroke-linecap:butt;stroke-linejoin:miter;stroke:rgb(0%,0%,0%);stroke-opacity:1;stroke-miterlimit:10;" d="M 38.527344 430.667969 L 18.527344 430.667969 L 18.527344 440.667969 L 38.527344 440.667969 L 38.527344 460.667969 L 48.527344 460.667969 L 48.527344 440.667969 L 68.527344 440.667969 L 68.527344 430.667969 L 48.527344 430.667969 L 48.527344 410.667969 L 38.527344 410.667969 L 38.527344 430.667969 "/>
<path style="fill-rule:nonzero;fill:rgb(67%,100%,18%);fill-opacity:1;stroke-width:1;stroke-linecap:butt;stroke-linejoin:miter;stroke:rgb(0%,0%,0%);stroke-opacity:1;stroke-miterlimit:10;" d="M 449.613281 435.261719 L 429.613281 435.261719 L 429.613281 445.261719 L 449.613281 445.261719 L 449.613281 465.261719 L 459.613281 465.261719 L 459.613281 445.261719 L 479.613281 445.261719 L 479.613281 435.261719 L 459.613281 435.261719 L 459.613281 415.261719 L 449.613281 415.261719 L 449.613281 435.261719 "/>
<path style="fill-rule:nonzero;fill:rgb(67%,100%,18%);fill-opacity:1;stroke-width:1;stroke-linecap:butt;stroke-linejoin:miter;stroke:rgb(0%,0%,0%);stroke-opacity:1;stroke-miterlimit:10;" d="M 94.421875 146.800781 L 74.421875 146.800781 L 74.421875 156.800781 L 94.421875 156.800781 L 94.421875 176.800781 L 104.421875 176.800781 L 104.421875 156.800781 L 124.421875 156.800781 L 124.421875 146.800781 L 104.421875 146.800781 L 104.421875 126.800781 L 94.421875 126.800781 L 94.421875 146.800781 "/>
<path style="fill-rule:nonzero;fill:rgb(67%,100%,18%);fill-opacity:1;stroke-width:1;stroke-linecap:butt;stroke-linejoin:miter;stroke:rgb(0%,0%,0%);stroke-opacity:1;stroke-miterlimit:10;" d="M 209.21875 127.171875 L 189.21875 127.171875 L 189.21875 137.171875 L 209.21875 137.171875 L 209.21875 157.171875 L 219.21875 157.171875 L 219.21875 137.171875 L 239.21875 137.171875 L 239.21875 127.171875 L 219.21875 127.171875 L 219.21875 107.171875 L 209.21875 107.171875 L 209.21875 127.171875 "/>
</g>
</svg>
