<?xml version="1.0" encoding="UTF-8"?>
<svg xmlns="http://www.w3.org/2000/svg" xmlns:xlink="http://www.w3.org/1999/xlink" width="517pt" height="517pt" viewBox="0 0 517 517" version="1.1">
<g id="surface12576">
<rect x="0" y="0" width="517" height="517" style="fill:rgb(90%,90%,90%);fill-opacity:1;stroke:none;"/>
<path style="fill-rule:nonzero;fill:rgb(50%,0%,50%);fill-opacity:1;stroke-width:1;stroke-linecap:butt;stroke-linejoin:miter;stroke:rgb(0%,0%,0%);stroke-opacity:1;stroke-miterlimit:10;" d="M 337.238281 168.261719 L 317.238281 168.261719 L 317.238281 178.261719 L 337.238281 178.261719 L 337.238281 198.261719 L 347.238281 198.261719 L 347.238281 178.261719 L 367.238281 178.261719 L 367.238281 168.261719 L 347.238281 168.261719 L 347.238281 148.261719 L 337.238281 148.261719 L 337.238281 168.261719 "/>
<path style="fill-rule:nonzero;fill:rgb(100%,0%,0%);fill-opacity:1;stroke-width:1;stroke-linecap:butt;stroke-linejoin:miter;stroke:rgb(0%,0%,0%);stroke-opacity:1;stroke-miterlimit:10;" d="M 137.597656 112.574219 L 117.597656 112.574219 L 117.597656 122.574219 L 137.597656 122.574219 L 137.597656 142.574219 L 147.597656 142.574219 L 147.597656 122.574219 L 167.597656 122.574219 L 167.597656 112.574219 L 147.597656 112.574219 L 147.597656 92.574219 L 137.597656 92.574219 L 137.597656 112.574219 "/>
<path style="fill-rule:nonzero;fill:rgb(100%,0%,0%);fill-opacity:1;stroke-width:1;stroke-linecap:butt;stroke-linejoin:miter;stroke:rgb(0%,0%,0%);stroke-opacity:1;stroke-miterlimit:10;" d="M 213.089844 103.878906 L 193.089844 103.878906 L 193.089844 113.878906 L 213.089844 113.878906 L 213.089844 133.878906 L 223.089844 133.878906 L 223.089844 113.878906 L 243.089844 113.878906 L 243.089844 103.878906 L 223.089844 103.878906 L 223.089844 83.878906 L 213.089844 83.878906 L 213.089844 103.878906 "/>
<path style="fill-rule:nonzero;fill:rgb(100%,0%,0%);fill-opacity:1;stroke-width:1;stroke-linecap:butt;stroke-linejoin:miter;stroke:rgb(0%,0%,0%);stroke-opacity:1;stroke-miterlimit:10;" d="M 79.226562 185.90625 L 59.226562 185.90625 L 59.226562 195.90625 L 79.226562 195.90625 L 79.226562 215.90625 L 89.226562 215.90625 L 89.226562 195.90625 L 109.226562 195.90625 L 109.226562 185.90625 L 89.226562 185.90625 L 89.226562 165.90625 L 79.226562 165.90625 L 79.226562 185.90625 "/>
<path style="fill-rule:nonzero;fill:rgb(100%,0%,0%);fill-opacity:1;stroke-width:1;stroke-linecap:butt;stroke-linejoin:miter;stroke:rgb(0%,0%,0%);stroke-opacity:1;stroke-miterlimit:10;" d="M 174.707031 329.417969 L 154.707031 329.417969 L 154.707031 339.417969 L 174.707031 339.417969 L 174.707031 359.417969 L 184.707031 359.417969 L 184.707031 339.417969 L 204.707031 339.417969 L 204.707031 329.417969 L 184.707031 329.417969 L 184.707031 309.417969 L 174.707031 309.417969 L 174.707031 329.417969 "/>
<path style="fill-rule:nonzero;fill:rgb(100%,0%,0%);fill-opacity:1;stroke-width:1;stroke-linecap:butt;stroke-linejoin:miter;stroke:rgb(0%,0%,0%);stroke-opacity:1;stroke-miterlimit:10;" d="M 34.554688 361.191406 L 14.554688 361.191406 L 14.554688 371.191406 L 34.554688 371.191406 L 34.554688 391.191406 L 44.554688 391.191406 L 44.554688 371.191406 L 64.554688 371.191406 L 64.554688 361.191406 L 44.554688 361.191406 L 44.554688 341.191406 L 34.554688 341.191406 L 34.554688 361.191406 "/>
</g>
</svg>
