<?xml version="1.0" encoding="UTF-8"?>
<svg xmlns="http://www.w3.org/2000/svg" xmlns:xlink="http://www.w3.org/1999/xlink" width="517pt" height="517pt" viewBox="0 0 517 517" version="1.1">
<g id="surface5646">
<rect x="0" y="0" width="517" height="517" style="fill:rgb(90%,90%,90%);fill-opacity:1;stroke:none;"/>
<path style="fill-rule:nonzero;fill:rgb(90%,65%,0%);fill-opacity:1;stroke-width:1;stroke-linecap:butt;stroke-linejoin:miter;stroke:rgb(0%,0%,0%);stroke-opacity:1;stroke-miterlimit:10;" d="M 426.101562 182.679688 C 426.101562 199.25 412.671875 212.679688 396.101562 212.679688 C 379.535156 212.679688 366.101562 199.25 366.101562 182.679688 C 366.101562 166.113281 379.535156 152.679688 396.101562 152.679688 C 412.671875 152.679688 426.101562 166.113281 426.101562 182.679688 "/>
<path style="fill-rule:nonzero;fill:rgb(90%,65%,0%);fill-opacity:1;stroke-width:1;stroke-linecap:butt;stroke-linejoin:miter;stroke:rgb(0%,0%,0%);stroke-opacity:1;stroke-miterlimit:10;" d="M 411.976562 84.273438 C 411.976562 100.84375 398.546875 114.273438 381.976562 114.273438 C 365.410156 114.273438 351.976562 100.84375 351.976562 84.273438 C 351.976562 67.707031 365.410156 54.273438 381.976562 54.273438 C 398.546875 54.273438 411.976562 67.707031 411.976562 84.273438 "/>
<path style="fill-rule:nonzero;fill:rgb(90%,65%,0%);fill-opacity:1;stroke-width:1;stroke-linecap:butt;stroke-linejoin:miter;stroke:rgb(0%,0%,0%);stroke-opacity:1;stroke-miterlimit:10;" d="M 147.847656 53.195312 C 147.847656 69.761719 134.417969 83.195312 117.847656 83.195312 C 101.28125 83.195312 87.847656 69.761719 87.847656 53.195312 C 87.847656 36.625 101.28125 23.195312 117.847656 23.195312 C 134.417969 23.195312 147.847656 36.625 147.847656 53.195312 "/>
<path style="fill-rule:nonzero;fill:rgb(90%,65%,0%);fill-opacity:1;stroke-width:1;stroke-linecap:butt;stroke-linejoin:miter;stroke:rgb(0%,0%,0%);stroke-opacity:1;stroke-miterlimit:10;" d="M 134.03125 190.558594 C 134.03125 207.128906 120.597656 220.558594 104.03125 220.558594 C 87.460938 220.558594 74.03125 207.128906 74.03125 190.558594 C 74.03125 173.988281 87.460938 160.558594 104.03125 160.558594 C 120.597656 160.558594 134.03125 173.988281 134.03125 190.558594 "/>
<path style="fill-rule:nonzero;fill:rgb(90%,65%,0%);fill-opacity:1;stroke-width:1;stroke-linecap:butt;stroke-linejoin:miter;stroke:rgb(0%,0%,0%);stroke-opacity:1;stroke-miterlimit:10;" d="M 247.828125 40.304688 C 247.828125 56.875 234.398438 70.304688 217.828125 70.304688 C 201.261719 70.304688 187.828125 56.875 187.828125 40.304688 C 187.828125 23.738281 201.261719 10.304688 217.828125 10.304688 C 234.398438 10.304688 247.828125 23.738281 247.828125 40.304688 "/>
<path style="fill-rule:nonzero;fill:rgb(90%,65%,0%);fill-opacity:1;stroke-width:1;stroke-linecap:butt;stroke-linejoin:miter;stroke:rgb(0%,0%,0%);stroke-opacity:1;stroke-miterlimit:10;" d="M 76.898438 95.417969 C 76.898438 111.984375 63.46875 125.417969 46.898438 125.417969 C 30.332031 125.417969 16.898438 111.984375 16.898438 95.417969 C 16.898438 78.847656 30.332031 65.417969 46.898438 65.417969 C 63.46875 65.417969 76.898438 78.847656 76.898438 95.417969 "/>
<path style="fill-rule:nonzero;fill:rgb(90%,65%,0%);fill-opacity:1;stroke-width:1;stroke-linecap:butt;stroke-linejoin:miter;stroke:rgb(0%,0%,0%);stroke-opacity:1;stroke-miterlimit:10;" d="M 218.558594 162.277344 C 218.558594 178.84375 205.128906 192.277344 188.558594 192.277344 C 171.992188 192.277344 158.558594 178.84375 158.558594 162.277344 C 158.558594 145.707031 171.992188 132.277344 188.558594 132.277344 C 205.128906 132.277344 218.558594 145.707031 218.558594 162.277344 "/>
<path style="fill-rule:nonzero;fill:rgb(90%,65%,0%);fill-opacity:1;stroke-width:1;stroke-linecap:butt;stroke-linejoin:miter;stroke:rgb(0%,0%,0%);stroke-opacity:1;stroke-miterlimit:10;" d="M 131.859375 400.46875 C 131.859375 417.039062 118.429688 430.46875 101.859375 430.46875 C 85.289062 430.46875 71.859375 417.039062 71.859375 400.46875 C 71.859375 383.902344 85.289062 370.46875 101.859375 370.46875 C 118.429688 370.46875 131.859375 383.902344 131.859375 400.46875 "/>
</g>
</svg>
