<?xml version="1.0" encoding="UTF-8"?>
<svg xmlns="http://www.w3.org/2000/svg" xmlns:xlink="http://www.w3.org/1999/xlink" width="517pt" height="517pt" viewBox="0 0 517 517" version="1.1">
<g id="surface12356">
<rect x="0" y="0" width="517" height="517" style="fill:rgb(90%,90%,90%);fill-opacity:1;stroke:none;"/>
<path style="fill-rule:nonzero;fill:rgb(67%,100%,18%);fill-opacity:1;stroke-width:1;stroke-linecap:butt;stroke-linejoin:miter;stroke:rgb(0%,0%,0%);stroke-opacity:1;stroke-miterlimit:10;" d="M 423.582031 195.0625 L 403.582031 195.0625 L 403.582031 205.0625 L 423.582031 205.0625 L 423.582031 225.0625 L 433.582031 225.0625 L 433.582031 205.0625 L 453.582031 205.0625 L 453.582031 195.0625 L 433.582031 195.0625 L 433.582031 175.0625 L 423.582031 175.0625 L 423.582031 195.0625 "/>
<path style="fill-rule:nonzero;fill:rgb(67%,100%,18%);fill-opacity:1;stroke-width:1;stroke-linecap:butt;stroke-linejoin:miter;stroke:rgb(0%,0%,0%);stroke-opacity:1;stroke-miterlimit:10;" d="M 324.261719 342.355469 L 304.261719 342.355469 L 304.261719 352.355469 L 324.261719 352.355469 L 324.261719 372.355469 L 334.261719 372.355469 L 334.261719 352.355469 L 354.261719 352.355469 L 354.261719 342.355469 L 334.261719 342.355469 L 334.261719 322.355469 L 324.261719 322.355469 L 324.261719 342.355469 "/>
<path style="fill-rule:nonzero;fill:rgb(100%,100%,0%);fill-opacity:1;stroke-width:1;stroke-linecap:butt;stroke-linejoin:miter;stroke:rgb(0%,0%,0%);stroke-opacity:1;stroke-miterlimit:10;" d="M 80.871094 107.976562 L 60.871094 107.976562 L 60.871094 117.976562 L 80.871094 117.976562 L 80.871094 137.976562 L 90.871094 137.976562 L 90.871094 117.976562 L 110.871094 117.976562 L 110.871094 107.976562 L 90.871094 107.976562 L 90.871094 87.976562 L 80.871094 87.976562 L 80.871094 107.976562 "/>
<path style="fill-rule:nonzero;fill:rgb(100%,100%,0%);fill-opacity:1;stroke-width:1;stroke-linecap:butt;stroke-linejoin:miter;stroke:rgb(0%,0%,0%);stroke-opacity:1;stroke-miterlimit:10;" d="M 189.082031 211.109375 L 169.082031 211.109375 L 169.082031 221.109375 L 189.082031 221.109375 L 189.082031 241.109375 L 199.082031 241.109375 L 199.082031 221.109375 L 219.082031 221.109375 L 219.082031 211.109375 L 199.082031 211.109375 L 199.082031 191.109375 L 189.082031 191.109375 L 189.082031 211.109375 "/>
<path style="fill-rule:nonzero;fill:rgb(100%,100%,0%);fill-opacity:1;stroke-width:1;stroke-linecap:butt;stroke-linejoin:miter;stroke:rgb(0%,0%,0%);stroke-opacity:1;stroke-miterlimit:10;" d="M 209.527344 63.175781 L 189.527344 63.175781 L 189.527344 73.175781 L 209.527344 73.175781 L 209.527344 93.175781 L 219.527344 93.175781 L 219.527344 73.175781 L 239.527344 73.175781 L 239.527344 63.175781 L 219.527344 63.175781 L 219.527344 43.175781 L 209.527344 43.175781 L 209.527344 63.175781 "/>
</g>
</svg>
