<?xml version="1.0" encoding="UTF-8"?>
<svg xmlns="http://www.w3.org/2000/svg" xmlns:xlink="http://www.w3.org/1999/xlink" width="517pt" height="517pt" viewBox="0 0 517 517" version="1.1">
<g id="surface11756">
<rect x="0" y="0" width="517" height="517" style="fill:rgb(90%,90%,90%);fill-opacity:1;stroke:none;"/>
<path style="fill-rule:nonzero;fill:rgb(67%,100%,18%);fill-opacity:1;stroke-width:1;stroke-linecap:butt;stroke-linejoin:miter;stroke:rgb(0%,0%,0%);stroke-opacity:1;stroke-miterlimit:10;" d="M 335.558594 439.449219 L 315.558594 439.449219 L 315.558594 449.449219 L 335.558594 449.449219 L 335.558594 469.449219 L 345.558594 469.449219 L 345.558594 449.449219 L 365.558594 449.449219 L 365.558594 439.449219 L 345.558594 439.449219 L 345.558594 419.449219 L 335.558594 419.449219 L 335.558594 439.449219 "/>
<path style="fill-rule:nonzero;fill:rgb(67%,100%,18%);fill-opacity:1;stroke-width:1;stroke-linecap:butt;stroke-linejoin:miter;stroke:rgb(0%,0%,0%);stroke-opacity:1;stroke-miterlimit:10;" d="M 388.925781 342.691406 L 368.925781 342.691406 L 368.925781 352.691406 L 388.925781 352.691406 L 388.925781 372.691406 L 398.925781 372.691406 L 398.925781 352.691406 L 418.925781 352.691406 L 418.925781 342.691406 L 398.925781 342.691406 L 398.925781 322.691406 L 388.925781 322.691406 L 388.925781 342.691406 "/>
<path style="fill-rule:nonzero;fill:rgb(67%,100%,18%);fill-opacity:1;stroke-width:1;stroke-linecap:butt;stroke-linejoin:miter;stroke:rgb(0%,0%,0%);stroke-opacity:1;stroke-miterlimit:10;" d="M 122.660156 75.449219 L 102.660156 75.449219 L 102.660156 85.449219 L 122.660156 85.449219 L 122.660156 105.449219 L 132.660156 105.449219 L 132.660156 85.449219 L 152.660156 85.449219 L 152.660156 75.449219 L 132.660156 75.449219 L 132.660156 55.449219 L 122.660156 55.449219 L 122.660156 75.449219 "/>
<path style="fill-rule:nonzero;fill:rgb(67%,100%,18%);fill-opacity:1;stroke-width:1;stroke-linecap:butt;stroke-linejoin:miter;stroke:rgb(0%,0%,0%);stroke-opacity:1;stroke-miterlimit:10;" d="M 43.144531 211.96875 L 23.144531 211.96875 L 23.144531 221.96875 L 43.144531 221.96875 L 43.144531 241.96875 L 53.144531 241.96875 L 53.144531 221.96875 L 73.144531 221.96875 L 73.144531 211.96875 L 53.144531 211.96875 L 53.144531 191.96875 L 43.144531 191.96875 L 43.144531 211.96875 "/>
</g>
</svg>
