<?xml version="1.0" encoding="UTF-8"?>
<svg xmlns="http://www.w3.org/2000/svg" xmlns:xlink="http://www.w3.org/1999/xlink" width="517pt" height="517pt" viewBox="0 0 517 517" version="1.1">
<g id="surface11936">
<rect x="0" y="0" width="517" height="517" style="fill:rgb(90%,90%,90%);fill-opacity:1;stroke:none;"/>
<path style="fill-rule:nonzero;fill:rgb(100%,7%,57%);fill-opacity:1;stroke-width:1;stroke-linecap:butt;stroke-linejoin:miter;stroke:rgb(0%,0%,0%);stroke-opacity:1;stroke-miterlimit:10;" d="M 116.742188 159.324219 L 96.742188 159.324219 L 96.742188 169.324219 L 116.742188 169.324219 L 116.742188 189.324219 L 126.742188 189.324219 L 126.742188 169.324219 L 146.742188 169.324219 L 146.742188 159.324219 L 126.742188 159.324219 L 126.742188 139.324219 L 116.742188 139.324219 L 116.742188 159.324219 "/>
<path style="fill-rule:nonzero;fill:rgb(100%,7%,57%);fill-opacity:1;stroke-width:1;stroke-linecap:butt;stroke-linejoin:miter;stroke:rgb(0%,0%,0%);stroke-opacity:1;stroke-miterlimit:10;" d="M 161.386719 98.046875 L 141.386719 98.046875 L 141.386719 108.046875 L 161.386719 108.046875 L 161.386719 128.046875 L 171.386719 128.046875 L 171.386719 108.046875 L 191.386719 108.046875 L 191.386719 98.046875 L 171.386719 98.046875 L 171.386719 78.046875 L 161.386719 78.046875 L 161.386719 98.046875 "/>
<path style="fill-rule:nonzero;fill:rgb(100%,7%,57%);fill-opacity:1;stroke-width:1;stroke-linecap:butt;stroke-linejoin:miter;stroke:rgb(0%,0%,0%);stroke-opacity:1;stroke-miterlimit:10;" d="M 450.328125 306.722656 L 430.328125 306.722656 L 430.328125 316.722656 L 450.328125 316.722656 L 450.328125 336.722656 L 460.328125 336.722656 L 460.328125 316.722656 L 480.328125 316.722656 L 480.328125 306.722656 L 460.328125 306.722656 L 460.328125 286.722656 L 450.328125 286.722656 L 450.328125 306.722656 "/>
<path style="fill-rule:nonzero;fill:rgb(100%,7%,57%);fill-opacity:1;stroke-width:1;stroke-linecap:butt;stroke-linejoin:miter;stroke:rgb(0%,0%,0%);stroke-opacity:1;stroke-miterlimit:10;" d="M 376.847656 426.691406 L 356.847656 426.691406 L 356.847656 436.691406 L 376.847656 436.691406 L 376.847656 456.691406 L 386.847656 456.691406 L 386.847656 436.691406 L 406.847656 436.691406 L 406.847656 426.691406 L 386.847656 426.691406 L 386.847656 406.691406 L 376.847656 406.691406 L 376.847656 426.691406 "/>
<path style="fill-rule:nonzero;fill:rgb(100%,100%,0%);fill-opacity:1;stroke-width:1;stroke-linecap:butt;stroke-linejoin:miter;stroke:rgb(0%,0%,0%);stroke-opacity:1;stroke-miterlimit:10;" d="M 297.714844 96.890625 L 277.714844 96.890625 L 277.714844 106.890625 L 297.714844 106.890625 L 297.714844 126.890625 L 307.714844 126.890625 L 307.714844 106.890625 L 327.714844 106.890625 L 327.714844 96.890625 L 307.714844 96.890625 L 307.714844 76.890625 L 297.714844 76.890625 L 297.714844 96.890625 "/>
</g>
</svg>
