<?xml version="1.0" encoding="UTF-8"?>
<svg xmlns="http://www.w3.org/2000/svg" xmlns:xlink="http://www.w3.org/1999/xlink" width="517pt" height="517pt" viewBox="0 0 517 517" version="1.1">
<g id="surface12456">
<rect x="0" y="0" width="517" height="517" style="fill:rgb(90%,90%,90%);fill-opacity:1;stroke:none;"/>
<path style="fill-rule:nonzero;fill:rgb(67%,100%,18%);fill-opacity:1;stroke-width:1;stroke-linecap:butt;stroke-linejoin:miter;stroke:rgb(0%,0%,0%);stroke-opacity:1;stroke-miterlimit:10;" d="M 291.304688 356.226562 L 271.304688 356.226562 L 271.304688 366.226562 L 291.304688 366.226562 L 291.304688 386.226562 L 301.304688 386.226562 L 301.304688 366.226562 L 321.304688 366.226562 L 321.304688 356.226562 L 301.304688 356.226562 L 301.304688 336.226562 L 291.304688 336.226562 L 291.304688 356.226562 "/>
<path style="fill-rule:nonzero;fill:rgb(67%,100%,18%);fill-opacity:1;stroke-width:1;stroke-linecap:butt;stroke-linejoin:miter;stroke:rgb(0%,0%,0%);stroke-opacity:1;stroke-miterlimit:10;" d="M 106.484375 392.539062 L 86.484375 392.539062 L 86.484375 402.539062 L 106.484375 402.539062 L 106.484375 422.539062 L 116.484375 422.539062 L 116.484375 402.539062 L 136.484375 402.539062 L 136.484375 392.539062 L 116.484375 392.539062 L 116.484375 372.539062 L 106.484375 372.539062 L 106.484375 392.539062 "/>
<path style="fill-rule:nonzero;fill:rgb(100%,100%,0%);fill-opacity:1;stroke-width:1;stroke-linecap:butt;stroke-linejoin:miter;stroke:rgb(0%,0%,0%);stroke-opacity:1;stroke-miterlimit:10;" d="M 34.738281 374.289062 L 14.738281 374.289062 L 14.738281 384.289062 L 34.738281 384.289062 L 34.738281 404.289062 L 44.738281 404.289062 L 44.738281 384.289062 L 64.738281 384.289062 L 64.738281 374.289062 L 44.738281 374.289062 L 44.738281 354.289062 L 34.738281 354.289062 L 34.738281 374.289062 "/>
<path style="fill-rule:nonzero;fill:rgb(100%,100%,0%);fill-opacity:1;stroke-width:1;stroke-linecap:butt;stroke-linejoin:miter;stroke:rgb(0%,0%,0%);stroke-opacity:1;stroke-miterlimit:10;" d="M 174.835938 457.824219 L 154.835938 457.824219 L 154.835938 467.824219 L 174.835938 467.824219 L 174.835938 487.824219 L 184.835938 487.824219 L 184.835938 467.824219 L 204.835938 467.824219 L 204.835938 457.824219 L 184.835938 457.824219 L 184.835938 437.824219 L 174.835938 437.824219 L 174.835938 457.824219 "/>
<path style="fill-rule:nonzero;fill:rgb(100%,100%,0%);fill-opacity:1;stroke-width:1;stroke-linecap:butt;stroke-linejoin:miter;stroke:rgb(0%,0%,0%);stroke-opacity:1;stroke-miterlimit:10;" d="M 200.617188 93.710938 L 180.617188 93.710938 L 180.617188 103.710938 L 200.617188 103.710938 L 200.617188 123.710938 L 210.617188 123.710938 L 210.617188 103.710938 L 230.617188 103.710938 L 230.617188 93.710938 L 210.617188 93.710938 L 210.617188 73.710938 L 200.617188 73.710938 L 200.617188 93.710938 "/>
</g>
</svg>
