<?xml version="1.0" encoding="UTF-8"?>
<svg xmlns="http://www.w3.org/2000/svg" xmlns:xlink="http://www.w3.org/1999/xlink" width="517pt" height="517pt" viewBox="0 0 517 517" version="1.1">
<g id="surface12276">
<rect x="0" y="0" width="517" height="517" style="fill:rgb(90%,90%,90%);fill-opacity:1;stroke:none;"/>
<path style="fill-rule:nonzero;fill:rgb(35%,70%,90%);fill-opacity:1;stroke-width:1;stroke-linecap:butt;stroke-linejoin:miter;stroke:rgb(0%,0%,0%);stroke-opacity:1;stroke-miterlimit:10;" d="M 109.964844 433.53125 L 89.964844 433.53125 L 89.964844 443.53125 L 109.964844 443.53125 L 109.964844 463.53125 L 119.964844 463.53125 L 119.964844 443.53125 L 139.964844 443.53125 L 139.964844 433.53125 L 119.964844 433.53125 L 119.964844 413.53125 L 109.964844 413.53125 L 109.964844 433.53125 "/>
<path style="fill-rule:nonzero;fill:rgb(35%,70%,90%);fill-opacity:1;stroke-width:1;stroke-linecap:butt;stroke-linejoin:miter;stroke:rgb(0%,0%,0%);stroke-opacity:1;stroke-miterlimit:10;" d="M 103.144531 361.316406 L 83.144531 361.316406 L 83.144531 371.316406 L 103.144531 371.316406 L 103.144531 391.316406 L 113.144531 391.316406 L 113.144531 371.316406 L 133.144531 371.316406 L 133.144531 361.316406 L 113.144531 361.316406 L 113.144531 341.316406 L 103.144531 341.316406 L 103.144531 361.316406 "/>
<path style="fill-rule:nonzero;fill:rgb(35%,70%,90%);fill-opacity:1;stroke-width:1;stroke-linecap:butt;stroke-linejoin:miter;stroke:rgb(0%,0%,0%);stroke-opacity:1;stroke-miterlimit:10;" d="M 409.246094 75.128906 L 389.246094 75.128906 L 389.246094 85.128906 L 409.246094 85.128906 L 409.246094 105.128906 L 419.246094 105.128906 L 419.246094 85.128906 L 439.246094 85.128906 L 439.246094 75.128906 L 419.246094 75.128906 L 419.246094 55.128906 L 409.246094 55.128906 L 409.246094 75.128906 "/>
<path style="fill-rule:nonzero;fill:rgb(35%,70%,90%);fill-opacity:1;stroke-width:1;stroke-linecap:butt;stroke-linejoin:miter;stroke:rgb(0%,0%,0%);stroke-opacity:1;stroke-miterlimit:10;" d="M 448.976562 30.074219 L 428.976562 30.074219 L 428.976562 40.074219 L 448.976562 40.074219 L 448.976562 60.074219 L 458.976562 60.074219 L 458.976562 40.074219 L 478.976562 40.074219 L 478.976562 30.074219 L 458.976562 30.074219 L 458.976562 10.074219 L 448.976562 10.074219 L 448.976562 30.074219 "/>
<path style="fill-rule:nonzero;fill:rgb(35%,70%,90%);fill-opacity:1;stroke-width:1;stroke-linecap:butt;stroke-linejoin:miter;stroke:rgb(0%,0%,0%);stroke-opacity:1;stroke-miterlimit:10;" d="M 470.167969 196.9375 L 450.167969 196.9375 L 450.167969 206.9375 L 470.167969 206.9375 L 470.167969 226.9375 L 480.167969 226.9375 L 480.167969 206.9375 L 500.167969 206.9375 L 500.167969 196.9375 L 480.167969 196.9375 L 480.167969 176.9375 L 470.167969 176.9375 L 470.167969 196.9375 "/>
</g>
</svg>
