<?xml version="1.0" encoding="UTF-8"?>
<svg xmlns="http://www.w3.org/2000/svg" xmlns:xlink="http://www.w3.org/1999/xlink" width="517pt" height="517pt" viewBox="0 0 517 517" version="1.1">
<g id="surface11696">
<rect x="0" y="0" width="517" height="517" style="fill:rgb(90%,90%,90%);fill-opacity:1;stroke:none;"/>
<path style="fill-rule:nonzero;fill:rgb(67%,100%,18%);fill-opacity:1;stroke-width:1;stroke-linecap:butt;stroke-linejoin:miter;stroke:rgb(0%,0%,0%);stroke-opacity:1;stroke-miterlimit:10;" d="M 200.402344 52.675781 L 180.402344 52.675781 L 180.402344 62.675781 L 200.402344 62.675781 L 200.402344 82.675781 L 210.402344 82.675781 L 210.402344 62.675781 L 230.402344 62.675781 L 230.402344 52.675781 L 210.402344 52.675781 L 210.402344 32.675781 L 200.402344 32.675781 L 200.402344 52.675781 "/>
<path style="fill-rule:nonzero;fill:rgb(67%,100%,18%);fill-opacity:1;stroke-width:1;stroke-linecap:butt;stroke-linejoin:miter;stroke:rgb(0%,0%,0%);stroke-opacity:1;stroke-miterlimit:10;" d="M 47.859375 45.957031 L 27.859375 45.957031 L 27.859375 55.957031 L 47.859375 55.957031 L 47.859375 75.957031 L 57.859375 75.957031 L 57.859375 55.957031 L 77.859375 55.957031 L 77.859375 45.957031 L 57.859375 45.957031 L 57.859375 25.957031 L 47.859375 25.957031 L 47.859375 45.957031 "/>
<path style="fill-rule:nonzero;fill:rgb(67%,100%,18%);fill-opacity:1;stroke-width:1;stroke-linecap:butt;stroke-linejoin:miter;stroke:rgb(0%,0%,0%);stroke-opacity:1;stroke-miterlimit:10;" d="M 58.6875 402.375 L 38.6875 402.375 L 38.6875 412.375 L 58.6875 412.375 L 58.6875 432.375 L 68.6875 432.375 L 68.6875 412.375 L 88.6875 412.375 L 88.6875 402.375 L 68.6875 402.375 L 68.6875 382.375 L 58.6875 382.375 L 58.6875 402.375 "/>
<path style="fill-rule:nonzero;fill:rgb(67%,100%,18%);fill-opacity:1;stroke-width:1;stroke-linecap:butt;stroke-linejoin:miter;stroke:rgb(0%,0%,0%);stroke-opacity:1;stroke-miterlimit:10;" d="M 92.339844 324.917969 L 72.339844 324.917969 L 72.339844 334.917969 L 92.339844 334.917969 L 92.339844 354.917969 L 102.339844 354.917969 L 102.339844 334.917969 L 122.339844 334.917969 L 122.339844 324.917969 L 102.339844 324.917969 L 102.339844 304.917969 L 92.339844 304.917969 L 92.339844 324.917969 "/>
</g>
</svg>
