<?xml version="1.0" encoding="UTF-8"?>
<svg xmlns="http://www.w3.org/2000/svg" xmlns:xlink="http://www.w3.org/1999/xlink" width="517pt" height="517pt" viewBox="0 0 517 517" version="1.1">
<g id="surface12496">
<rect x="0" y="0" width="517" height="517" style="fill:rgb(90%,90%,90%);fill-opacity:1;stroke:none;"/>
<path style="fill-rule:nonzero;fill:rgb(50%,0%,50%);fill-opacity:1;stroke-width:1;stroke-linecap:butt;stroke-linejoin:miter;stroke:rgb(0%,0%,0%);stroke-opacity:1;stroke-miterlimit:10;" d="M 110.867188 43.992188 L 90.867188 43.992188 L 90.867188 53.992188 L 110.867188 53.992188 L 110.867188 73.992188 L 120.867188 73.992188 L 120.867188 53.992188 L 140.867188 53.992188 L 140.867188 43.992188 L 120.867188 43.992188 L 120.867188 23.992188 L 110.867188 23.992188 L 110.867188 43.992188 "/>
<path style="fill-rule:nonzero;fill:rgb(100%,0%,0%);fill-opacity:1;stroke-width:1;stroke-linecap:butt;stroke-linejoin:miter;stroke:rgb(0%,0%,0%);stroke-opacity:1;stroke-miterlimit:10;" d="M 214.46875 142.011719 L 194.46875 142.011719 L 194.46875 152.011719 L 214.46875 152.011719 L 214.46875 172.011719 L 224.46875 172.011719 L 224.46875 152.011719 L 244.46875 152.011719 L 244.46875 142.011719 L 224.46875 142.011719 L 224.46875 122.011719 L 214.46875 122.011719 L 214.46875 142.011719 "/>
<path style="fill-rule:nonzero;fill:rgb(100%,0%,0%);fill-opacity:1;stroke-width:1;stroke-linecap:butt;stroke-linejoin:miter;stroke:rgb(0%,0%,0%);stroke-opacity:1;stroke-miterlimit:10;" d="M 78.273438 319.03125 L 58.273438 319.03125 L 58.273438 329.03125 L 78.273438 329.03125 L 78.273438 349.03125 L 88.273438 349.03125 L 88.273438 329.03125 L 108.273438 329.03125 L 108.273438 319.03125 L 88.273438 319.03125 L 88.273438 299.03125 L 78.273438 299.03125 L 78.273438 319.03125 "/>
<path style="fill-rule:nonzero;fill:rgb(100%,0%,0%);fill-opacity:1;stroke-width:1;stroke-linecap:butt;stroke-linejoin:miter;stroke:rgb(0%,0%,0%);stroke-opacity:1;stroke-miterlimit:10;" d="M 406.347656 47.851562 L 386.347656 47.851562 L 386.347656 57.851562 L 406.347656 57.851562 L 406.347656 77.851562 L 416.347656 77.851562 L 416.347656 57.851562 L 436.347656 57.851562 L 436.347656 47.851562 L 416.347656 47.851562 L 416.347656 27.851562 L 406.347656 27.851562 L 406.347656 47.851562 "/>
<path style="fill-rule:nonzero;fill:rgb(100%,0%,0%);fill-opacity:1;stroke-width:1;stroke-linecap:butt;stroke-linejoin:miter;stroke:rgb(0%,0%,0%);stroke-opacity:1;stroke-miterlimit:10;" d="M 351.035156 128.832031 L 331.035156 128.832031 L 331.035156 138.832031 L 351.035156 138.832031 L 351.035156 158.832031 L 361.035156 158.832031 L 361.035156 138.832031 L 381.035156 138.832031 L 381.035156 128.832031 L 361.035156 128.832031 L 361.035156 108.832031 L 351.035156 108.832031 L 351.035156 128.832031 "/>
<path style="fill-rule:nonzero;fill:rgb(100%,0%,0%);fill-opacity:1;stroke-width:1;stroke-linecap:butt;stroke-linejoin:miter;stroke:rgb(0%,0%,0%);stroke-opacity:1;stroke-miterlimit:10;" d="M 326.636719 202.871094 L 306.636719 202.871094 L 306.636719 212.871094 L 326.636719 212.871094 L 326.636719 232.871094 L 336.636719 232.871094 L 336.636719 212.871094 L 356.636719 212.871094 L 356.636719 202.871094 L 336.636719 202.871094 L 336.636719 182.871094 L 326.636719 182.871094 L 326.636719 202.871094 "/>
</g>
</svg>
