<?xml version="1.0" encoding="UTF-8"?>
<svg xmlns="http://www.w3.org/2000/svg" xmlns:xlink="http://www.w3.org/1999/xlink" width="517pt" height="517pt" viewBox="0 0 517 517" version="1.1">
<g id="surface5656">
<rect x="0" y="0" width="517" height="517" style="fill:rgb(90%,90%,90%);fill-opacity:1;stroke:none;"/>
<path style="fill-rule:nonzero;fill:rgb(35%,70%,90%);fill-opacity:1;stroke-width:1;stroke-linecap:butt;stroke-linejoin:miter;stroke:rgb(0%,0%,0%);stroke-opacity:1;stroke-miterlimit:10;" d="M 138.464844 188.699219 C 138.464844 205.265625 125.03125 218.699219 108.464844 218.699219 C 91.894531 218.699219 78.464844 205.265625 78.464844 188.699219 C 78.464844 172.128906 91.894531 158.699219 108.464844 158.699219 C 125.03125 158.699219 138.464844 172.128906 138.464844 188.699219 "/>
<path style="fill-rule:nonzero;fill:rgb(90%,65%,0%);fill-opacity:1;stroke-width:1;stroke-linecap:butt;stroke-linejoin:miter;stroke:rgb(0%,0%,0%);stroke-opacity:1;stroke-miterlimit:10;" d="M 408.835938 368.769531 C 408.835938 385.339844 395.40625 398.769531 378.835938 398.769531 C 362.269531 398.769531 348.835938 385.339844 348.835938 368.769531 C 348.835938 352.203125 362.269531 338.769531 378.835938 338.769531 C 395.40625 338.769531 408.835938 352.203125 408.835938 368.769531 "/>
<path style="fill-rule:nonzero;fill:rgb(90%,65%,0%);fill-opacity:1;stroke-width:1;stroke-linecap:butt;stroke-linejoin:miter;stroke:rgb(0%,0%,0%);stroke-opacity:1;stroke-miterlimit:10;" d="M 411.65625 461.605469 C 411.65625 478.175781 398.226562 491.605469 381.65625 491.605469 C 365.085938 491.605469 351.65625 478.175781 351.65625 461.605469 C 351.65625 445.039062 365.085938 431.605469 381.65625 431.605469 C 398.226562 431.605469 411.65625 445.039062 411.65625 461.605469 "/>
<path style="fill-rule:nonzero;fill:rgb(90%,65%,0%);fill-opacity:1;stroke-width:1;stroke-linecap:butt;stroke-linejoin:miter;stroke:rgb(0%,0%,0%);stroke-opacity:1;stroke-miterlimit:10;" d="M 446.214844 135.773438 C 446.214844 152.339844 432.785156 165.773438 416.214844 165.773438 C 399.648438 165.773438 386.214844 152.339844 386.214844 135.773438 C 386.214844 119.203125 399.648438 105.773438 416.214844 105.773438 C 432.785156 105.773438 446.214844 119.203125 446.214844 135.773438 "/>
<path style="fill-rule:nonzero;fill:rgb(90%,65%,0%);fill-opacity:1;stroke-width:1;stroke-linecap:butt;stroke-linejoin:miter;stroke:rgb(0%,0%,0%);stroke-opacity:1;stroke-miterlimit:10;" d="M 420.421875 66.398438 C 420.421875 82.96875 406.992188 96.398438 390.421875 96.398438 C 373.855469 96.398438 360.421875 82.96875 360.421875 66.398438 C 360.421875 49.832031 373.855469 36.398438 390.421875 36.398438 C 406.992188 36.398438 420.421875 49.832031 420.421875 66.398438 "/>
<path style="fill-rule:nonzero;fill:rgb(90%,65%,0%);fill-opacity:1;stroke-width:1;stroke-linecap:butt;stroke-linejoin:miter;stroke:rgb(0%,0%,0%);stroke-opacity:1;stroke-miterlimit:10;" d="M 328.535156 112.535156 C 328.535156 129.105469 315.105469 142.535156 298.535156 142.535156 C 281.96875 142.535156 268.535156 129.105469 268.535156 112.535156 C 268.535156 95.96875 281.96875 82.535156 298.535156 82.535156 C 315.105469 82.535156 328.535156 95.96875 328.535156 112.535156 "/>
<path style="fill-rule:nonzero;fill:rgb(90%,65%,0%);fill-opacity:1;stroke-width:1;stroke-linecap:butt;stroke-linejoin:miter;stroke:rgb(0%,0%,0%);stroke-opacity:1;stroke-miterlimit:10;" d="M 350.960938 35.0625 C 350.960938 51.628906 337.527344 65.0625 320.960938 65.0625 C 304.390625 65.0625 290.960938 51.628906 290.960938 35.0625 C 290.960938 18.492188 304.390625 5.0625 320.960938 5.0625 C 337.527344 5.0625 350.960938 18.492188 350.960938 35.0625 "/>
<path style="fill-rule:nonzero;fill:rgb(90%,65%,0%);fill-opacity:1;stroke-width:1;stroke-linecap:butt;stroke-linejoin:miter;stroke:rgb(0%,0%,0%);stroke-opacity:1;stroke-miterlimit:10;" d="M 506.621094 212.054688 C 506.621094 228.625 493.1875 242.054688 476.621094 242.054688 C 460.050781 242.054688 446.621094 228.625 446.621094 212.054688 C 446.621094 195.488281 460.050781 182.054688 476.621094 182.054688 C 493.1875 182.054688 506.621094 195.488281 506.621094 212.054688 "/>
</g>
</svg>
