<?xml version="1.0" encoding="UTF-8"?>
<svg xmlns="http://www.w3.org/2000/svg" xmlns:xlink="http://www.w3.org/1999/xlink" width="517pt" height="517pt" viewBox="0 0 517 517" version="1.1">
<g id="surface12296">
<rect x="0" y="0" width="517" height="517" style="fill:rgb(90%,90%,90%);fill-opacity:1;stroke:none;"/>
<path style="fill-rule:nonzero;fill:rgb(35%,70%,90%);fill-opacity:1;stroke-width:1;stroke-linecap:butt;stroke-linejoin:miter;stroke:rgb(0%,0%,0%);stroke-opacity:1;stroke-miterlimit:10;" d="M 464.875 84.640625 L 444.875 84.640625 L 444.875 94.640625 L 464.875 94.640625 L 464.875 114.640625 L 474.875 114.640625 L 474.875 94.640625 L 494.875 94.640625 L 494.875 84.640625 L 474.875 84.640625 L 474.875 64.640625 L 464.875 64.640625 L 464.875 84.640625 "/>
<path style="fill-rule:nonzero;fill:rgb(35%,70%,90%);fill-opacity:1;stroke-width:1;stroke-linecap:butt;stroke-linejoin:miter;stroke:rgb(0%,0%,0%);stroke-opacity:1;stroke-miterlimit:10;" d="M 134.453125 171.328125 L 114.453125 171.328125 L 114.453125 181.328125 L 134.453125 181.328125 L 134.453125 201.328125 L 144.453125 201.328125 L 144.453125 181.328125 L 164.453125 181.328125 L 164.453125 171.328125 L 144.453125 171.328125 L 144.453125 151.328125 L 134.453125 151.328125 L 134.453125 171.328125 "/>
<path style="fill-rule:nonzero;fill:rgb(35%,70%,90%);fill-opacity:1;stroke-width:1;stroke-linecap:butt;stroke-linejoin:miter;stroke:rgb(0%,0%,0%);stroke-opacity:1;stroke-miterlimit:10;" d="M 104.664062 409.671875 L 84.664062 409.671875 L 84.664062 419.671875 L 104.664062 419.671875 L 104.664062 439.671875 L 114.664062 439.671875 L 114.664062 419.671875 L 134.664062 419.671875 L 134.664062 409.671875 L 114.664062 409.671875 L 114.664062 389.671875 L 104.664062 389.671875 L 104.664062 409.671875 "/>
<path style="fill-rule:nonzero;fill:rgb(35%,70%,90%);fill-opacity:1;stroke-width:1;stroke-linecap:butt;stroke-linejoin:miter;stroke:rgb(0%,0%,0%);stroke-opacity:1;stroke-miterlimit:10;" d="M 130.828125 318.796875 L 110.828125 318.796875 L 110.828125 328.796875 L 130.828125 328.796875 L 130.828125 348.796875 L 140.828125 348.796875 L 140.828125 328.796875 L 160.828125 328.796875 L 160.828125 318.796875 L 140.828125 318.796875 L 140.828125 298.796875 L 130.828125 298.796875 L 130.828125 318.796875 "/>
<path style="fill-rule:nonzero;fill:rgb(35%,70%,90%);fill-opacity:1;stroke-width:1;stroke-linecap:butt;stroke-linejoin:miter;stroke:rgb(0%,0%,0%);stroke-opacity:1;stroke-miterlimit:10;" d="M 214.425781 451.902344 L 194.425781 451.902344 L 194.425781 461.902344 L 214.425781 461.902344 L 214.425781 481.902344 L 224.425781 481.902344 L 224.425781 461.902344 L 244.425781 461.902344 L 244.425781 451.902344 L 224.425781 451.902344 L 224.425781 431.902344 L 214.425781 431.902344 L 214.425781 451.902344 "/>
</g>
</svg>
