<?xml version="1.0" encoding="UTF-8"?>
<svg xmlns="http://www.w3.org/2000/svg" xmlns:xlink="http://www.w3.org/1999/xlink" width="517pt" height="517pt" viewBox="0 0 517 517" version="1.1">
<g id="surface12556">
<rect x="0" y="0" width="517" height="517" style="fill:rgb(90%,90%,90%);fill-opacity:1;stroke:none;"/>
<path style="fill-rule:nonzero;fill:rgb(50%,0%,50%);fill-opacity:1;stroke-width:1;stroke-linecap:butt;stroke-linejoin:miter;stroke:rgb(0%,0%,0%);stroke-opacity:1;stroke-miterlimit:10;" d="M 215.714844 330.78125 L 195.714844 330.78125 L 195.714844 340.78125 L 215.714844 340.78125 L 215.714844 360.78125 L 225.714844 360.78125 L 225.714844 340.78125 L 245.714844 340.78125 L 245.714844 330.78125 L 225.714844 330.78125 L 225.714844 310.78125 L 215.714844 310.78125 L 215.714844 330.78125 "/>
<path style="fill-rule:nonzero;fill:rgb(100%,0%,0%);fill-opacity:1;stroke-width:1;stroke-linecap:butt;stroke-linejoin:miter;stroke:rgb(0%,0%,0%);stroke-opacity:1;stroke-miterlimit:10;" d="M 129.863281 338.472656 L 109.863281 338.472656 L 109.863281 348.472656 L 129.863281 348.472656 L 129.863281 368.472656 L 139.863281 368.472656 L 139.863281 348.472656 L 159.863281 348.472656 L 159.863281 338.472656 L 139.863281 338.472656 L 139.863281 318.472656 L 129.863281 318.472656 L 129.863281 338.472656 "/>
<path style="fill-rule:nonzero;fill:rgb(100%,0%,0%);fill-opacity:1;stroke-width:1;stroke-linecap:butt;stroke-linejoin:miter;stroke:rgb(0%,0%,0%);stroke-opacity:1;stroke-miterlimit:10;" d="M 454.632812 325.835938 L 434.632812 325.835938 L 434.632812 335.835938 L 454.632812 335.835938 L 454.632812 355.835938 L 464.632812 355.835938 L 464.632812 335.835938 L 484.632812 335.835938 L 484.632812 325.835938 L 464.632812 325.835938 L 464.632812 305.835938 L 454.632812 305.835938 L 454.632812 325.835938 "/>
<path style="fill-rule:nonzero;fill:rgb(100%,0%,0%);fill-opacity:1;stroke-width:1;stroke-linecap:butt;stroke-linejoin:miter;stroke:rgb(0%,0%,0%);stroke-opacity:1;stroke-miterlimit:10;" d="M 74.847656 154.300781 L 54.847656 154.300781 L 54.847656 164.300781 L 74.847656 164.300781 L 74.847656 184.300781 L 84.847656 184.300781 L 84.847656 164.300781 L 104.847656 164.300781 L 104.847656 154.300781 L 84.847656 154.300781 L 84.847656 134.300781 L 74.847656 134.300781 L 74.847656 154.300781 "/>
<path style="fill-rule:nonzero;fill:rgb(100%,0%,0%);fill-opacity:1;stroke-width:1;stroke-linecap:butt;stroke-linejoin:miter;stroke:rgb(0%,0%,0%);stroke-opacity:1;stroke-miterlimit:10;" d="M 71.882812 65.695312 L 51.882812 65.695312 L 51.882812 75.695312 L 71.882812 75.695312 L 71.882812 95.695312 L 81.882812 95.695312 L 81.882812 75.695312 L 101.882812 75.695312 L 101.882812 65.695312 L 81.882812 65.695312 L 81.882812 45.695312 L 71.882812 45.695312 L 71.882812 65.695312 "/>
<path style="fill-rule:nonzero;fill:rgb(100%,0%,0%);fill-opacity:1;stroke-width:1;stroke-linecap:butt;stroke-linejoin:miter;stroke:rgb(0%,0%,0%);stroke-opacity:1;stroke-miterlimit:10;" d="M 158.660156 193.726562 L 138.660156 193.726562 L 138.660156 203.726562 L 158.660156 203.726562 L 158.660156 223.726562 L 168.660156 223.726562 L 168.660156 203.726562 L 188.660156 203.726562 L 188.660156 193.726562 L 168.660156 193.726562 L 168.660156 173.726562 L 158.660156 173.726562 L 158.660156 193.726562 "/>
</g>
</svg>
