<?xml version="1.0" encoding="UTF-8"?>
<svg xmlns="http://www.w3.org/2000/svg" xmlns:xlink="http://www.w3.org/1999/xlink" width="517pt" height="517pt" viewBox="0 0 517 517" version="1.1">
<g id="surface12636">
<rect x="0" y="0" width="517" height="517" style="fill:rgb(90%,90%,90%);fill-opacity:1;stroke:none;"/>
<path style="fill-rule:nonzero;fill:rgb(50%,0%,50%);fill-opacity:1;stroke-width:1;stroke-linecap:butt;stroke-linejoin:miter;stroke:rgb(0%,0%,0%);stroke-opacity:1;stroke-miterlimit:10;" d="M 200.5625 61.886719 L 180.5625 61.886719 L 180.5625 71.886719 L 200.5625 71.886719 L 200.5625 91.886719 L 210.5625 91.886719 L 210.5625 71.886719 L 230.5625 71.886719 L 230.5625 61.886719 L 210.5625 61.886719 L 210.5625 41.886719 L 200.5625 41.886719 L 200.5625 61.886719 "/>
<path style="fill-rule:nonzero;fill:rgb(100%,0%,0%);fill-opacity:1;stroke-width:1;stroke-linecap:butt;stroke-linejoin:miter;stroke:rgb(0%,0%,0%);stroke-opacity:1;stroke-miterlimit:10;" d="M 123.546875 303.492188 L 103.546875 303.492188 L 103.546875 313.492188 L 123.546875 313.492188 L 123.546875 333.492188 L 133.546875 333.492188 L 133.546875 313.492188 L 153.546875 313.492188 L 153.546875 303.492188 L 133.546875 303.492188 L 133.546875 283.492188 L 123.546875 283.492188 L 123.546875 303.492188 "/>
<path style="fill-rule:nonzero;fill:rgb(100%,0%,0%);fill-opacity:1;stroke-width:1;stroke-linecap:butt;stroke-linejoin:miter;stroke:rgb(0%,0%,0%);stroke-opacity:1;stroke-miterlimit:10;" d="M 445.660156 148.148438 L 425.660156 148.148438 L 425.660156 158.148438 L 445.660156 158.148438 L 445.660156 178.148438 L 455.660156 178.148438 L 455.660156 158.148438 L 475.660156 158.148438 L 475.660156 148.148438 L 455.660156 148.148438 L 455.660156 128.148438 L 445.660156 128.148438 L 445.660156 148.148438 "/>
<path style="fill-rule:nonzero;fill:rgb(100%,0%,0%);fill-opacity:1;stroke-width:1;stroke-linecap:butt;stroke-linejoin:miter;stroke:rgb(0%,0%,0%);stroke-opacity:1;stroke-miterlimit:10;" d="M 352.074219 175.066406 L 332.074219 175.066406 L 332.074219 185.066406 L 352.074219 185.066406 L 352.074219 205.066406 L 362.074219 205.066406 L 362.074219 185.066406 L 382.074219 185.066406 L 382.074219 175.066406 L 362.074219 175.066406 L 362.074219 155.066406 L 352.074219 155.066406 L 352.074219 175.066406 "/>
<path style="fill-rule:nonzero;fill:rgb(100%,0%,0%);fill-opacity:1;stroke-width:1;stroke-linecap:butt;stroke-linejoin:miter;stroke:rgb(0%,0%,0%);stroke-opacity:1;stroke-miterlimit:10;" d="M 354.921875 111.710938 L 334.921875 111.710938 L 334.921875 121.710938 L 354.921875 121.710938 L 354.921875 141.710938 L 364.921875 141.710938 L 364.921875 121.710938 L 384.921875 121.710938 L 384.921875 111.710938 L 364.921875 111.710938 L 364.921875 91.710938 L 354.921875 91.710938 L 354.921875 111.710938 "/>
<path style="fill-rule:nonzero;fill:rgb(100%,0%,0%);fill-opacity:1;stroke-width:1;stroke-linecap:butt;stroke-linejoin:miter;stroke:rgb(0%,0%,0%);stroke-opacity:1;stroke-miterlimit:10;" d="M 430.984375 212.167969 L 410.984375 212.167969 L 410.984375 222.167969 L 430.984375 222.167969 L 430.984375 242.167969 L 440.984375 242.167969 L 440.984375 222.167969 L 460.984375 222.167969 L 460.984375 212.167969 L 440.984375 212.167969 L 440.984375 192.167969 L 430.984375 192.167969 L 430.984375 212.167969 "/>
</g>
</svg>
