<?xml version="1.0" encoding="UTF-8"?>
<svg xmlns="http://www.w3.org/2000/svg" xmlns:xlink="http://www.w3.org/1999/xlink" width="517pt" height="517pt" viewBox="0 0 517 517" version="1.1">
<g id="surface11816">
<rect x="0" y="0" width="517" height="517" style="fill:rgb(90%,90%,90%);fill-opacity:1;stroke:none;"/>
<path style="fill-rule:nonzero;fill:rgb(67%,100%,18%);fill-opacity:1;stroke-width:1;stroke-linecap:butt;stroke-linejoin:miter;stroke:rgb(0%,0%,0%);stroke-opacity:1;stroke-miterlimit:10;" d="M 164.320312 55.003906 L 144.320312 55.003906 L 144.320312 65.003906 L 164.320312 65.003906 L 164.320312 85.003906 L 174.320312 85.003906 L 174.320312 65.003906 L 194.320312 65.003906 L 194.320312 55.003906 L 174.320312 55.003906 L 174.320312 35.003906 L 164.320312 35.003906 L 164.320312 55.003906 "/>
<path style="fill-rule:nonzero;fill:rgb(67%,100%,18%);fill-opacity:1;stroke-width:1;stroke-linecap:butt;stroke-linejoin:miter;stroke:rgb(0%,0%,0%);stroke-opacity:1;stroke-miterlimit:10;" d="M 115.472656 188.285156 L 95.472656 188.285156 L 95.472656 198.285156 L 115.472656 198.285156 L 115.472656 218.285156 L 125.472656 218.285156 L 125.472656 198.285156 L 145.472656 198.285156 L 145.472656 188.285156 L 125.472656 188.285156 L 125.472656 168.285156 L 115.472656 168.285156 L 115.472656 188.285156 "/>
<path style="fill-rule:nonzero;fill:rgb(67%,100%,18%);fill-opacity:1;stroke-width:1;stroke-linecap:butt;stroke-linejoin:miter;stroke:rgb(0%,0%,0%);stroke-opacity:1;stroke-miterlimit:10;" d="M 345.75 385.484375 L 325.75 385.484375 L 325.75 395.484375 L 345.75 395.484375 L 345.75 415.484375 L 355.75 415.484375 L 355.75 395.484375 L 375.75 395.484375 L 375.75 385.484375 L 355.75 385.484375 L 355.75 365.484375 L 345.75 365.484375 L 345.75 385.484375 "/>
<path style="fill-rule:nonzero;fill:rgb(67%,100%,18%);fill-opacity:1;stroke-width:1;stroke-linecap:butt;stroke-linejoin:miter;stroke:rgb(0%,0%,0%);stroke-opacity:1;stroke-miterlimit:10;" d="M 406.375 30.769531 L 386.375 30.769531 L 386.375 40.769531 L 406.375 40.769531 L 406.375 60.769531 L 416.375 60.769531 L 416.375 40.769531 L 436.375 40.769531 L 436.375 30.769531 L 416.375 30.769531 L 416.375 10.769531 L 406.375 10.769531 L 406.375 30.769531 "/>
</g>
</svg>
