<?xml version="1.0" encoding="UTF-8"?>
<svg xmlns="http://www.w3.org/2000/svg" xmlns:xlink="http://www.w3.org/1999/xlink" width="517pt" height="517pt" viewBox="0 0 517 517" version="1.1">
<g id="surface12316">
<rect x="0" y="0" width="517" height="517" style="fill:rgb(90%,90%,90%);fill-opacity:1;stroke:none;"/>
<path style="fill-rule:nonzero;fill:rgb(35%,70%,90%);fill-opacity:1;stroke-width:1;stroke-linecap:butt;stroke-linejoin:miter;stroke:rgb(0%,0%,0%);stroke-opacity:1;stroke-miterlimit:10;" d="M 144.113281 416.523438 L 124.113281 416.523438 L 124.113281 426.523438 L 144.113281 426.523438 L 144.113281 446.523438 L 154.113281 446.523438 L 154.113281 426.523438 L 174.113281 426.523438 L 174.113281 416.523438 L 154.113281 416.523438 L 154.113281 396.523438 L 144.113281 396.523438 L 144.113281 416.523438 "/>
<path style="fill-rule:nonzero;fill:rgb(35%,70%,90%);fill-opacity:1;stroke-width:1;stroke-linecap:butt;stroke-linejoin:miter;stroke:rgb(0%,0%,0%);stroke-opacity:1;stroke-miterlimit:10;" d="M 84.453125 449.238281 L 64.453125 449.238281 L 64.453125 459.238281 L 84.453125 459.238281 L 84.453125 479.238281 L 94.453125 479.238281 L 94.453125 459.238281 L 114.453125 459.238281 L 114.453125 449.238281 L 94.453125 449.238281 L 94.453125 429.238281 L 84.453125 429.238281 L 84.453125 449.238281 "/>
<path style="fill-rule:nonzero;fill:rgb(35%,70%,90%);fill-opacity:1;stroke-width:1;stroke-linecap:butt;stroke-linejoin:miter;stroke:rgb(0%,0%,0%);stroke-opacity:1;stroke-miterlimit:10;" d="M 353.003906 137.53125 L 333.003906 137.53125 L 333.003906 147.53125 L 353.003906 147.53125 L 353.003906 167.53125 L 363.003906 167.53125 L 363.003906 147.53125 L 383.003906 147.53125 L 383.003906 137.53125 L 363.003906 137.53125 L 363.003906 117.53125 L 353.003906 117.53125 L 353.003906 137.53125 "/>
<path style="fill-rule:nonzero;fill:rgb(35%,70%,90%);fill-opacity:1;stroke-width:1;stroke-linecap:butt;stroke-linejoin:miter;stroke:rgb(0%,0%,0%);stroke-opacity:1;stroke-miterlimit:10;" d="M 389.808594 192.472656 L 369.808594 192.472656 L 369.808594 202.472656 L 389.808594 202.472656 L 389.808594 222.472656 L 399.808594 222.472656 L 399.808594 202.472656 L 419.808594 202.472656 L 419.808594 192.472656 L 399.808594 192.472656 L 399.808594 172.472656 L 389.808594 172.472656 L 389.808594 192.472656 "/>
<path style="fill-rule:nonzero;fill:rgb(35%,70%,90%);fill-opacity:1;stroke-width:1;stroke-linecap:butt;stroke-linejoin:miter;stroke:rgb(0%,0%,0%);stroke-opacity:1;stroke-miterlimit:10;" d="M 176.550781 97.203125 L 156.550781 97.203125 L 156.550781 107.203125 L 176.550781 107.203125 L 176.550781 127.203125 L 186.550781 127.203125 L 186.550781 107.203125 L 206.550781 107.203125 L 206.550781 97.203125 L 186.550781 97.203125 L 186.550781 77.203125 L 176.550781 77.203125 L 176.550781 97.203125 "/>
</g>
</svg>
