<?xml version="1.0" encoding="UTF-8"?>
<svg xmlns="http://www.w3.org/2000/svg" xmlns:xlink="http://www.w3.org/1999/xlink" width="517pt" height="517pt" viewBox="0 0 517 517" version="1.1">
<g id="surface5626">
<rect x="0" y="0" width="517" height="517" style="fill:rgb(90%,90%,90%);fill-opacity:1;stroke:none;"/>
<path style="fill-rule:nonzero;fill:rgb(35%,70%,90%);fill-opacity:1;stroke-width:1;stroke-linecap:butt;stroke-linejoin:miter;stroke:rgb(0%,0%,0%);stroke-opacity:1;stroke-miterlimit:10;" d="M 418.558594 402.210938 C 418.558594 418.777344 405.128906 432.210938 388.558594 432.210938 C 371.992188 432.210938 358.558594 418.777344 358.558594 402.210938 C 358.558594 385.640625 371.992188 372.210938 388.558594 372.210938 C 405.128906 372.210938 418.558594 385.640625 418.558594 402.210938 "/>
<path style="fill-rule:nonzero;fill:rgb(35%,70%,90%);fill-opacity:1;stroke-width:1;stroke-linecap:butt;stroke-linejoin:miter;stroke:rgb(0%,0%,0%);stroke-opacity:1;stroke-miterlimit:10;" d="M 400.328125 468.800781 C 400.328125 485.371094 386.894531 498.800781 370.328125 498.800781 C 353.757812 498.800781 340.328125 485.371094 340.328125 468.800781 C 340.328125 452.234375 353.757812 438.800781 370.328125 438.800781 C 386.894531 438.800781 400.328125 452.234375 400.328125 468.800781 "/>
<path style="fill-rule:nonzero;fill:rgb(90%,65%,0%);fill-opacity:1;stroke-width:1;stroke-linecap:butt;stroke-linejoin:miter;stroke:rgb(0%,0%,0%);stroke-opacity:1;stroke-miterlimit:10;" d="M 429.523438 193.96875 C 429.523438 210.539062 416.089844 223.96875 399.523438 223.96875 C 382.953125 223.96875 369.523438 210.539062 369.523438 193.96875 C 369.523438 177.402344 382.953125 163.96875 399.523438 163.96875 C 416.089844 163.96875 429.523438 177.402344 429.523438 193.96875 "/>
<path style="fill-rule:nonzero;fill:rgb(90%,65%,0%);fill-opacity:1;stroke-width:1;stroke-linecap:butt;stroke-linejoin:miter;stroke:rgb(0%,0%,0%);stroke-opacity:1;stroke-miterlimit:10;" d="M 495.210938 144.46875 C 495.210938 161.039062 481.78125 174.46875 465.210938 174.46875 C 448.644531 174.46875 435.210938 161.039062 435.210938 144.46875 C 435.210938 127.902344 448.644531 114.46875 465.210938 114.46875 C 481.78125 114.46875 495.210938 127.902344 495.210938 144.46875 "/>
<path style="fill-rule:nonzero;fill:rgb(90%,65%,0%);fill-opacity:1;stroke-width:1;stroke-linecap:butt;stroke-linejoin:miter;stroke:rgb(0%,0%,0%);stroke-opacity:1;stroke-miterlimit:10;" d="M 370.695312 135.90625 C 370.695312 152.476562 357.265625 165.90625 340.695312 165.90625 C 324.128906 165.90625 310.695312 152.476562 310.695312 135.90625 C 310.695312 119.339844 324.128906 105.90625 340.695312 105.90625 C 357.265625 105.90625 370.695312 119.339844 370.695312 135.90625 "/>
<path style="fill-rule:nonzero;fill:rgb(90%,65%,0%);fill-opacity:1;stroke-width:1;stroke-linecap:butt;stroke-linejoin:miter;stroke:rgb(0%,0%,0%);stroke-opacity:1;stroke-miterlimit:10;" d="M 504.089844 80.703125 C 504.089844 97.269531 490.660156 110.703125 474.089844 110.703125 C 457.523438 110.703125 444.089844 97.269531 444.089844 80.703125 C 444.089844 64.132812 457.523438 50.703125 474.089844 50.703125 C 490.660156 50.703125 504.089844 64.132812 504.089844 80.703125 "/>
<path style="fill-rule:nonzero;fill:rgb(90%,65%,0%);fill-opacity:1;stroke-width:1;stroke-linecap:butt;stroke-linejoin:miter;stroke:rgb(0%,0%,0%);stroke-opacity:1;stroke-miterlimit:10;" d="M 93.496094 72.519531 C 93.496094 89.085938 80.0625 102.519531 63.496094 102.519531 C 46.925781 102.519531 33.496094 89.085938 33.496094 72.519531 C 33.496094 55.949219 46.925781 42.519531 63.496094 42.519531 C 80.0625 42.519531 93.496094 55.949219 93.496094 72.519531 "/>
<path style="fill-rule:nonzero;fill:rgb(90%,65%,0%);fill-opacity:1;stroke-width:1;stroke-linecap:butt;stroke-linejoin:miter;stroke:rgb(0%,0%,0%);stroke-opacity:1;stroke-miterlimit:10;" d="M 175.945312 95.472656 C 175.945312 112.039062 162.511719 125.472656 145.945312 125.472656 C 129.375 125.472656 115.945312 112.039062 115.945312 95.472656 C 115.945312 78.902344 129.375 65.472656 145.945312 65.472656 C 162.511719 65.472656 175.945312 78.902344 175.945312 95.472656 "/>
</g>
</svg>
