<?xml version="1.0" encoding="UTF-8"?>
<svg xmlns="http://www.w3.org/2000/svg" xmlns:xlink="http://www.w3.org/1999/xlink" width="517pt" height="517pt" viewBox="0 0 517 517" version="1.1">
<g id="surface12476">
<rect x="0" y="0" width="517" height="517" style="fill:rgb(90%,90%,90%);fill-opacity:1;stroke:none;"/>
<path style="fill-rule:nonzero;fill:rgb(67%,100%,18%);fill-opacity:1;stroke-width:1;stroke-linecap:butt;stroke-linejoin:miter;stroke:rgb(0%,0%,0%);stroke-opacity:1;stroke-miterlimit:10;" d="M 401.441406 387.351562 L 381.441406 387.351562 L 381.441406 397.351562 L 401.441406 397.351562 L 401.441406 417.351562 L 411.441406 417.351562 L 411.441406 397.351562 L 431.441406 397.351562 L 431.441406 387.351562 L 411.441406 387.351562 L 411.441406 367.351562 L 401.441406 367.351562 L 401.441406 387.351562 "/>
<path style="fill-rule:nonzero;fill:rgb(67%,100%,18%);fill-opacity:1;stroke-width:1;stroke-linecap:butt;stroke-linejoin:miter;stroke:rgb(0%,0%,0%);stroke-opacity:1;stroke-miterlimit:10;" d="M 93.394531 467.253906 L 73.394531 467.253906 L 73.394531 477.253906 L 93.394531 477.253906 L 93.394531 497.253906 L 103.394531 497.253906 L 103.394531 477.253906 L 123.394531 477.253906 L 123.394531 467.253906 L 103.394531 467.253906 L 103.394531 447.253906 L 93.394531 447.253906 L 93.394531 467.253906 "/>
<path style="fill-rule:nonzero;fill:rgb(100%,100%,0%);fill-opacity:1;stroke-width:1;stroke-linecap:butt;stroke-linejoin:miter;stroke:rgb(0%,0%,0%);stroke-opacity:1;stroke-miterlimit:10;" d="M 147.941406 322.273438 L 127.941406 322.273438 L 127.941406 332.273438 L 147.941406 332.273438 L 147.941406 352.273438 L 157.941406 352.273438 L 157.941406 332.273438 L 177.941406 332.273438 L 177.941406 322.273438 L 157.941406 322.273438 L 157.941406 302.273438 L 147.941406 302.273438 L 147.941406 322.273438 "/>
<path style="fill-rule:nonzero;fill:rgb(100%,100%,0%);fill-opacity:1;stroke-width:1;stroke-linecap:butt;stroke-linejoin:miter;stroke:rgb(0%,0%,0%);stroke-opacity:1;stroke-miterlimit:10;" d="M 197.539062 179.269531 L 177.539062 179.269531 L 177.539062 189.269531 L 197.539062 189.269531 L 197.539062 209.269531 L 207.539062 209.269531 L 207.539062 189.269531 L 227.539062 189.269531 L 227.539062 179.269531 L 207.539062 179.269531 L 207.539062 159.269531 L 197.539062 159.269531 L 197.539062 179.269531 "/>
<path style="fill-rule:nonzero;fill:rgb(100%,100%,0%);fill-opacity:1;stroke-width:1;stroke-linecap:butt;stroke-linejoin:miter;stroke:rgb(0%,0%,0%);stroke-opacity:1;stroke-miterlimit:10;" d="M 101.722656 196.792969 L 81.722656 196.792969 L 81.722656 206.792969 L 101.722656 206.792969 L 101.722656 226.792969 L 111.722656 226.792969 L 111.722656 206.792969 L 131.722656 206.792969 L 131.722656 196.792969 L 111.722656 196.792969 L 111.722656 176.792969 L 101.722656 176.792969 L 101.722656 196.792969 "/>
</g>
</svg>
