<?xml version="1.0" encoding="UTF-8"?>
<svg xmlns="http://www.w3.org/2000/svg" xmlns:xlink="http://www.w3.org/1999/xlink" width="517pt" height="517pt" viewBox="0 0 517 517" version="1.1">
<g id="surface12516">
<rect x="0" y="0" width="517" height="517" style="fill:rgb(90%,90%,90%);fill-opacity:1;stroke:none;"/>
<path style="fill-rule:nonzero;fill:rgb(50%,0%,50%);fill-opacity:1;stroke-width:1;stroke-linecap:butt;stroke-linejoin:miter;stroke:rgb(0%,0%,0%);stroke-opacity:1;stroke-miterlimit:10;" d="M 466.34375 118.78125 L 446.34375 118.78125 L 446.34375 128.78125 L 466.34375 128.78125 L 466.34375 148.78125 L 476.34375 148.78125 L 476.34375 128.78125 L 496.34375 128.78125 L 496.34375 118.78125 L 476.34375 118.78125 L 476.34375 98.78125 L 466.34375 98.78125 L 466.34375 118.78125 "/>
<path style="fill-rule:nonzero;fill:rgb(100%,0%,0%);fill-opacity:1;stroke-width:1;stroke-linecap:butt;stroke-linejoin:miter;stroke:rgb(0%,0%,0%);stroke-opacity:1;stroke-miterlimit:10;" d="M 407.488281 42.523438 L 387.488281 42.523438 L 387.488281 52.523438 L 407.488281 52.523438 L 407.488281 72.523438 L 417.488281 72.523438 L 417.488281 52.523438 L 437.488281 52.523438 L 437.488281 42.523438 L 417.488281 42.523438 L 417.488281 22.523438 L 407.488281 22.523438 L 407.488281 42.523438 "/>
<path style="fill-rule:nonzero;fill:rgb(100%,0%,0%);fill-opacity:1;stroke-width:1;stroke-linecap:butt;stroke-linejoin:miter;stroke:rgb(0%,0%,0%);stroke-opacity:1;stroke-miterlimit:10;" d="M 42.140625 302.570312 L 22.140625 302.570312 L 22.140625 312.570312 L 42.140625 312.570312 L 42.140625 332.570312 L 52.140625 332.570312 L 52.140625 312.570312 L 72.140625 312.570312 L 72.140625 302.570312 L 52.140625 302.570312 L 52.140625 282.570312 L 42.140625 282.570312 L 42.140625 302.570312 "/>
<path style="fill-rule:nonzero;fill:rgb(100%,0%,0%);fill-opacity:1;stroke-width:1;stroke-linecap:butt;stroke-linejoin:miter;stroke:rgb(0%,0%,0%);stroke-opacity:1;stroke-miterlimit:10;" d="M 201.828125 165.496094 L 181.828125 165.496094 L 181.828125 175.496094 L 201.828125 175.496094 L 201.828125 195.496094 L 211.828125 195.496094 L 211.828125 175.496094 L 231.828125 175.496094 L 231.828125 165.496094 L 211.828125 165.496094 L 211.828125 145.496094 L 201.828125 145.496094 L 201.828125 165.496094 "/>
<path style="fill-rule:nonzero;fill:rgb(100%,0%,0%);fill-opacity:1;stroke-width:1;stroke-linecap:butt;stroke-linejoin:miter;stroke:rgb(0%,0%,0%);stroke-opacity:1;stroke-miterlimit:10;" d="M 36.359375 55.160156 L 16.359375 55.160156 L 16.359375 65.160156 L 36.359375 65.160156 L 36.359375 85.160156 L 46.359375 85.160156 L 46.359375 65.160156 L 66.359375 65.160156 L 66.359375 55.160156 L 46.359375 55.160156 L 46.359375 35.160156 L 36.359375 35.160156 L 36.359375 55.160156 "/>
<path style="fill-rule:nonzero;fill:rgb(100%,0%,0%);fill-opacity:1;stroke-width:1;stroke-linecap:butt;stroke-linejoin:miter;stroke:rgb(0%,0%,0%);stroke-opacity:1;stroke-miterlimit:10;" d="M 153.457031 94.230469 L 133.457031 94.230469 L 133.457031 104.230469 L 153.457031 104.230469 L 153.457031 124.230469 L 163.457031 124.230469 L 163.457031 104.230469 L 183.457031 104.230469 L 183.457031 94.230469 L 163.457031 94.230469 L 163.457031 74.230469 L 153.457031 74.230469 L 153.457031 94.230469 "/>
</g>
</svg>
