<?xml version="1.0" encoding="UTF-8"?>
<svg xmlns="http://www.w3.org/2000/svg" xmlns:xlink="http://www.w3.org/1999/xlink" width="517pt" height="517pt" viewBox="0 0 517 517" version="1.1">
<g id="surface11596">
<rect x="0" y="0" width="517" height="517" style="fill:rgb(90%,90%,90%);fill-opacity:1;stroke:none;"/>
<path style="fill-rule:nonzero;fill:rgb(0%,0%,0%);fill-opacity:1;stroke-width:1;stroke-linecap:butt;stroke-linejoin:miter;stroke:rgb(0%,0%,0%);stroke-opacity:1;stroke-miterlimit:10;" d="M 419.511719 420.292969 L 399.511719 420.292969 L 399.511719 430.292969 L 419.511719 430.292969 L 419.511719 450.292969 L 429.511719 450.292969 L 429.511719 430.292969 L 449.511719 430.292969 L 449.511719 420.292969 L 429.511719 420.292969 L 429.511719 400.292969 L 419.511719 400.292969 L 419.511719 420.292969 "/>
<path style="fill-rule:nonzero;fill:rgb(0%,0%,0%);fill-opacity:1;stroke-width:1;stroke-linecap:butt;stroke-linejoin:miter;stroke:rgb(0%,0%,0%);stroke-opacity:1;stroke-miterlimit:10;" d="M 335.71875 348.984375 L 315.71875 348.984375 L 315.71875 358.984375 L 335.71875 358.984375 L 335.71875 378.984375 L 345.71875 378.984375 L 345.71875 358.984375 L 365.71875 358.984375 L 365.71875 348.984375 L 345.71875 348.984375 L 345.71875 328.984375 L 335.71875 328.984375 L 335.71875 348.984375 "/>
<path style="fill-rule:nonzero;fill:rgb(0%,0%,0%);fill-opacity:1;stroke-width:1;stroke-linecap:butt;stroke-linejoin:miter;stroke:rgb(0%,0%,0%);stroke-opacity:1;stroke-miterlimit:10;" d="M 83.988281 175.9375 L 63.988281 175.9375 L 63.988281 185.9375 L 83.988281 185.9375 L 83.988281 205.9375 L 93.988281 205.9375 L 93.988281 185.9375 L 113.988281 185.9375 L 113.988281 175.9375 L 93.988281 175.9375 L 93.988281 155.9375 L 83.988281 155.9375 L 83.988281 175.9375 "/>
<path style="fill-rule:nonzero;fill:rgb(0%,0%,0%);fill-opacity:1;stroke-width:1;stroke-linecap:butt;stroke-linejoin:miter;stroke:rgb(0%,0%,0%);stroke-opacity:1;stroke-miterlimit:10;" d="M 166.011719 173.789062 L 146.011719 173.789062 L 146.011719 183.789062 L 166.011719 183.789062 L 166.011719 203.789062 L 176.011719 203.789062 L 176.011719 183.789062 L 196.011719 183.789062 L 196.011719 173.789062 L 176.011719 173.789062 L 176.011719 153.789062 L 166.011719 153.789062 L 166.011719 173.789062 "/>
<path style="fill-rule:nonzero;fill:rgb(0%,0%,0%);fill-opacity:1;stroke-width:1;stroke-linecap:butt;stroke-linejoin:miter;stroke:rgb(0%,0%,0%);stroke-opacity:1;stroke-miterlimit:10;" d="M 470.976562 46.910156 L 450.976562 46.910156 L 450.976562 56.910156 L 470.976562 56.910156 L 470.976562 76.910156 L 480.976562 76.910156 L 480.976562 56.910156 L 500.976562 56.910156 L 500.976562 46.910156 L 480.976562 46.910156 L 480.976562 26.910156 L 470.976562 26.910156 L 470.976562 46.910156 "/>
</g>
</svg>
