<?xml version="1.0" encoding="UTF-8"?>
<svg xmlns="http://www.w3.org/2000/svg" xmlns:xlink="http://www.w3.org/1999/xlink" width="517pt" height="517pt" viewBox="0 0 517 517" version="1.1">
<g id="surface11656">
<rect x="0" y="0" width="517" height="517" style="fill:rgb(90%,90%,90%);fill-opacity:1;stroke:none;"/>
<path style="fill-rule:nonzero;fill:rgb(0%,0%,0%);fill-opacity:1;stroke-width:1;stroke-linecap:butt;stroke-linejoin:miter;stroke:rgb(0%,0%,0%);stroke-opacity:1;stroke-miterlimit:10;" d="M 60.117188 129.957031 L 40.117188 129.957031 L 40.117188 139.957031 L 60.117188 139.957031 L 60.117188 159.957031 L 70.117188 159.957031 L 70.117188 139.957031 L 90.117188 139.957031 L 90.117188 129.957031 L 70.117188 129.957031 L 70.117188 109.957031 L 60.117188 109.957031 L 60.117188 129.957031 "/>
<path style="fill-rule:nonzero;fill:rgb(0%,0%,0%);fill-opacity:1;stroke-width:1;stroke-linecap:butt;stroke-linejoin:miter;stroke:rgb(0%,0%,0%);stroke-opacity:1;stroke-miterlimit:10;" d="M 146.28125 36.175781 L 126.28125 36.175781 L 126.28125 46.175781 L 146.28125 46.175781 L 146.28125 66.175781 L 156.28125 66.175781 L 156.28125 46.175781 L 176.28125 46.175781 L 176.28125 36.175781 L 156.28125 36.175781 L 156.28125 16.175781 L 146.28125 16.175781 L 146.28125 36.175781 "/>
<path style="fill-rule:nonzero;fill:rgb(0%,0%,0%);fill-opacity:1;stroke-width:1;stroke-linecap:butt;stroke-linejoin:miter;stroke:rgb(0%,0%,0%);stroke-opacity:1;stroke-miterlimit:10;" d="M 74.253906 381.152344 L 54.253906 381.152344 L 54.253906 391.152344 L 74.253906 391.152344 L 74.253906 411.152344 L 84.253906 411.152344 L 84.253906 391.152344 L 104.253906 391.152344 L 104.253906 381.152344 L 84.253906 381.152344 L 84.253906 361.152344 L 74.253906 361.152344 L 74.253906 381.152344 "/>
<path style="fill-rule:nonzero;fill:rgb(0%,0%,0%);fill-opacity:1;stroke-width:1;stroke-linecap:butt;stroke-linejoin:miter;stroke:rgb(0%,0%,0%);stroke-opacity:1;stroke-miterlimit:10;" d="M 62.953125 315.613281 L 42.953125 315.613281 L 42.953125 325.613281 L 62.953125 325.613281 L 62.953125 345.613281 L 72.953125 345.613281 L 72.953125 325.613281 L 92.953125 325.613281 L 92.953125 315.613281 L 72.953125 315.613281 L 72.953125 295.613281 L 62.953125 295.613281 L 62.953125 315.613281 "/>
<path style="fill-rule:nonzero;fill:rgb(0%,0%,0%);fill-opacity:1;stroke-width:1;stroke-linecap:butt;stroke-linejoin:miter;stroke:rgb(0%,0%,0%);stroke-opacity:1;stroke-miterlimit:10;" d="M 172.125 286.980469 L 152.125 286.980469 L 152.125 296.980469 L 172.125 296.980469 L 172.125 316.980469 L 182.125 316.980469 L 182.125 296.980469 L 202.125 296.980469 L 202.125 286.980469 L 182.125 286.980469 L 182.125 266.980469 L 172.125 266.980469 L 172.125 286.980469 "/>
</g>
</svg>
