<?xml version="1.0" encoding="UTF-8"?>
<svg xmlns="http://www.w3.org/2000/svg" xmlns:xlink="http://www.w3.org/1999/xlink" width="517pt" height="517pt" viewBox="0 0 517 517" version="1.1">
<g id="surface11636">
<rect x="0" y="0" width="517" height="517" style="fill:rgb(90%,90%,90%);fill-opacity:1;stroke:none;"/>
<path style="fill-rule:nonzero;fill:rgb(0%,0%,0%);fill-opacity:1;stroke-width:1;stroke-linecap:butt;stroke-linejoin:miter;stroke:rgb(0%,0%,0%);stroke-opacity:1;stroke-miterlimit:10;" d="M 113.507812 203.433594 L 93.507812 203.433594 L 93.507812 213.433594 L 113.507812 213.433594 L 113.507812 233.433594 L 123.507812 233.433594 L 123.507812 213.433594 L 143.507812 213.433594 L 143.507812 203.433594 L 123.507812 203.433594 L 123.507812 183.433594 L 113.507812 183.433594 L 113.507812 203.433594 "/>
<path style="fill-rule:nonzero;fill:rgb(0%,0%,0%);fill-opacity:1;stroke-width:1;stroke-linecap:butt;stroke-linejoin:miter;stroke:rgb(0%,0%,0%);stroke-opacity:1;stroke-miterlimit:10;" d="M 462.039062 454.324219 L 442.039062 454.324219 L 442.039062 464.324219 L 462.039062 464.324219 L 462.039062 484.324219 L 472.039062 484.324219 L 472.039062 464.324219 L 492.039062 464.324219 L 492.039062 454.324219 L 472.039062 454.324219 L 472.039062 434.324219 L 462.039062 434.324219 L 462.039062 454.324219 "/>
<path style="fill-rule:nonzero;fill:rgb(0%,0%,0%);fill-opacity:1;stroke-width:1;stroke-linecap:butt;stroke-linejoin:miter;stroke:rgb(0%,0%,0%);stroke-opacity:1;stroke-miterlimit:10;" d="M 446.980469 382.777344 L 426.980469 382.777344 L 426.980469 392.777344 L 446.980469 392.777344 L 446.980469 412.777344 L 456.980469 412.777344 L 456.980469 392.777344 L 476.980469 392.777344 L 476.980469 382.777344 L 456.980469 382.777344 L 456.980469 362.777344 L 446.980469 362.777344 L 446.980469 382.777344 "/>
<path style="fill-rule:nonzero;fill:rgb(0%,0%,0%);fill-opacity:1;stroke-width:1;stroke-linecap:butt;stroke-linejoin:miter;stroke:rgb(0%,0%,0%);stroke-opacity:1;stroke-miterlimit:10;" d="M 319.5 88.132812 L 299.5 88.132812 L 299.5 98.132812 L 319.5 98.132812 L 319.5 118.132812 L 329.5 118.132812 L 329.5 98.132812 L 349.5 98.132812 L 349.5 88.132812 L 329.5 88.132812 L 329.5 68.132812 L 319.5 68.132812 L 319.5 88.132812 "/>
<path style="fill-rule:nonzero;fill:rgb(0%,0%,0%);fill-opacity:1;stroke-width:1;stroke-linecap:butt;stroke-linejoin:miter;stroke:rgb(0%,0%,0%);stroke-opacity:1;stroke-miterlimit:10;" d="M 310.878906 171.023438 L 290.878906 171.023438 L 290.878906 181.023438 L 310.878906 181.023438 L 310.878906 201.023438 L 320.878906 201.023438 L 320.878906 181.023438 L 340.878906 181.023438 L 340.878906 171.023438 L 320.878906 171.023438 L 320.878906 151.023438 L 310.878906 151.023438 L 310.878906 171.023438 "/>
</g>
</svg>
