<?xml version="1.0" encoding="UTF-8"?>
<svg xmlns="http://www.w3.org/2000/svg" xmlns:xlink="http://www.w3.org/1999/xlink" width="517pt" height="517pt" viewBox="0 0 517 517" version="1.1">
<g id="surface12416">
<rect x="0" y="0" width="517" height="517" style="fill:rgb(90%,90%,90%);fill-opacity:1;stroke:none;"/>
<path style="fill-rule:nonzero;fill:rgb(67%,100%,18%);fill-opacity:1;stroke-width:1;stroke-linecap:butt;stroke-linejoin:miter;stroke:rgb(0%,0%,0%);stroke-opacity:1;stroke-miterlimit:10;" d="M 146.941406 213.5 L 126.941406 213.5 L 126.941406 223.5 L 146.941406 223.5 L 146.941406 243.5 L 156.941406 243.5 L 156.941406 223.5 L 176.941406 223.5 L 176.941406 213.5 L 156.941406 213.5 L 156.941406 193.5 L 146.941406 193.5 L 146.941406 213.5 "/>
<path style="fill-rule:nonzero;fill:rgb(67%,100%,18%);fill-opacity:1;stroke-width:1;stroke-linecap:butt;stroke-linejoin:miter;stroke:rgb(0%,0%,0%);stroke-opacity:1;stroke-miterlimit:10;" d="M 101.792969 32.589844 L 81.792969 32.589844 L 81.792969 42.589844 L 101.792969 42.589844 L 101.792969 62.589844 L 111.792969 62.589844 L 111.792969 42.589844 L 131.792969 42.589844 L 131.792969 32.589844 L 111.792969 32.589844 L 111.792969 12.589844 L 101.792969 12.589844 L 101.792969 32.589844 "/>
<path style="fill-rule:nonzero;fill:rgb(100%,100%,0%);fill-opacity:1;stroke-width:1;stroke-linecap:butt;stroke-linejoin:miter;stroke:rgb(0%,0%,0%);stroke-opacity:1;stroke-miterlimit:10;" d="M 407.53125 116.9375 L 387.53125 116.9375 L 387.53125 126.9375 L 407.53125 126.9375 L 407.53125 146.9375 L 417.53125 146.9375 L 417.53125 126.9375 L 437.53125 126.9375 L 437.53125 116.9375 L 417.53125 116.9375 L 417.53125 96.9375 L 407.53125 96.9375 L 407.53125 116.9375 "/>
<path style="fill-rule:nonzero;fill:rgb(100%,100%,0%);fill-opacity:1;stroke-width:1;stroke-linecap:butt;stroke-linejoin:miter;stroke:rgb(0%,0%,0%);stroke-opacity:1;stroke-miterlimit:10;" d="M 44.1875 386.707031 L 24.1875 386.707031 L 24.1875 396.707031 L 44.1875 396.707031 L 44.1875 416.707031 L 54.1875 416.707031 L 54.1875 396.707031 L 74.1875 396.707031 L 74.1875 386.707031 L 54.1875 386.707031 L 54.1875 366.707031 L 44.1875 366.707031 L 44.1875 386.707031 "/>
<path style="fill-rule:nonzero;fill:rgb(100%,100%,0%);fill-opacity:1;stroke-width:1;stroke-linecap:butt;stroke-linejoin:miter;stroke:rgb(0%,0%,0%);stroke-opacity:1;stroke-miterlimit:10;" d="M 177.933594 335.410156 L 157.933594 335.410156 L 157.933594 345.410156 L 177.933594 345.410156 L 177.933594 365.410156 L 187.933594 365.410156 L 187.933594 345.410156 L 207.933594 345.410156 L 207.933594 335.410156 L 187.933594 335.410156 L 187.933594 315.410156 L 177.933594 315.410156 L 177.933594 335.410156 "/>
</g>
</svg>
