<?xml version="1.0" encoding="UTF-8"?>
<svg xmlns="http://www.w3.org/2000/svg" xmlns:xlink="http://www.w3.org/1999/xlink" width="517pt" height="517pt" viewBox="0 0 517 517" version="1.1">
<g id="surface12036">
<rect x="0" y="0" width="517" height="517" style="fill:rgb(90%,90%,90%);fill-opacity:1;stroke:none;"/>
<path style="fill-rule:nonzero;fill:rgb(100%,0%,0%);fill-opacity:1;stroke-width:1;stroke-linecap:butt;stroke-linejoin:miter;stroke:rgb(0%,0%,0%);stroke-opacity:1;stroke-miterlimit:10;" d="M 45.683594 465.980469 L 25.683594 465.980469 L 25.683594 475.980469 L 45.683594 475.980469 L 45.683594 495.980469 L 55.683594 495.980469 L 55.683594 475.980469 L 75.683594 475.980469 L 75.683594 465.980469 L 55.683594 465.980469 L 55.683594 445.980469 L 45.683594 445.980469 L 45.683594 465.980469 "/>
<path style="fill-rule:nonzero;fill:rgb(67%,100%,18%);fill-opacity:1;stroke-width:1;stroke-linecap:butt;stroke-linejoin:miter;stroke:rgb(0%,0%,0%);stroke-opacity:1;stroke-miterlimit:10;" d="M 468.734375 122.410156 L 448.734375 122.410156 L 448.734375 132.410156 L 468.734375 132.410156 L 468.734375 152.410156 L 478.734375 152.410156 L 478.734375 132.410156 L 498.734375 132.410156 L 498.734375 122.410156 L 478.734375 122.410156 L 478.734375 102.410156 L 468.734375 102.410156 L 468.734375 122.410156 "/>
<path style="fill-rule:nonzero;fill:rgb(67%,100%,18%);fill-opacity:1;stroke-width:1;stroke-linecap:butt;stroke-linejoin:miter;stroke:rgb(0%,0%,0%);stroke-opacity:1;stroke-miterlimit:10;" d="M 389.359375 141.445312 L 369.359375 141.445312 L 369.359375 151.445312 L 389.359375 151.445312 L 389.359375 171.445312 L 399.359375 171.445312 L 399.359375 151.445312 L 419.359375 151.445312 L 419.359375 141.445312 L 399.359375 141.445312 L 399.359375 121.445312 L 389.359375 121.445312 L 389.359375 141.445312 "/>
<path style="fill-rule:nonzero;fill:rgb(67%,100%,18%);fill-opacity:1;stroke-width:1;stroke-linecap:butt;stroke-linejoin:miter;stroke:rgb(0%,0%,0%);stroke-opacity:1;stroke-miterlimit:10;" d="M 316.84375 52.714844 L 296.84375 52.714844 L 296.84375 62.714844 L 316.84375 62.714844 L 316.84375 82.714844 L 326.84375 82.714844 L 326.84375 62.714844 L 346.84375 62.714844 L 346.84375 52.714844 L 326.84375 52.714844 L 326.84375 32.714844 L 316.84375 32.714844 L 316.84375 52.714844 "/>
</g>
</svg>
