<?xml version="1.0" encoding="UTF-8"?>
<svg xmlns="http://www.w3.org/2000/svg" xmlns:xlink="http://www.w3.org/1999/xlink" width="517pt" height="517pt" viewBox="0 0 517 517" version="1.1">
<g id="surface12256">
<rect x="0" y="0" width="517" height="517" style="fill:rgb(90%,90%,90%);fill-opacity:1;stroke:none;"/>
<path style="fill-rule:nonzero;fill:rgb(35%,70%,90%);fill-opacity:1;stroke-width:1;stroke-linecap:butt;stroke-linejoin:miter;stroke:rgb(0%,0%,0%);stroke-opacity:1;stroke-miterlimit:10;" d="M 58.398438 332.96875 L 38.398438 332.96875 L 38.398438 342.96875 L 58.398438 342.96875 L 58.398438 362.96875 L 68.398438 362.96875 L 68.398438 342.96875 L 88.398438 342.96875 L 88.398438 332.96875 L 68.398438 332.96875 L 68.398438 312.96875 L 58.398438 312.96875 L 58.398438 332.96875 "/>
<path style="fill-rule:nonzero;fill:rgb(35%,70%,90%);fill-opacity:1;stroke-width:1;stroke-linecap:butt;stroke-linejoin:miter;stroke:rgb(0%,0%,0%);stroke-opacity:1;stroke-miterlimit:10;" d="M 392.253906 189.019531 L 372.253906 189.019531 L 372.253906 199.019531 L 392.253906 199.019531 L 392.253906 219.019531 L 402.253906 219.019531 L 402.253906 199.019531 L 422.253906 199.019531 L 422.253906 189.019531 L 402.253906 189.019531 L 402.253906 169.019531 L 392.253906 169.019531 L 392.253906 189.019531 "/>
<path style="fill-rule:nonzero;fill:rgb(35%,70%,90%);fill-opacity:1;stroke-width:1;stroke-linecap:butt;stroke-linejoin:miter;stroke:rgb(0%,0%,0%);stroke-opacity:1;stroke-miterlimit:10;" d="M 349.992188 40.6875 L 329.992188 40.6875 L 329.992188 50.6875 L 349.992188 50.6875 L 349.992188 70.6875 L 359.992188 70.6875 L 359.992188 50.6875 L 379.992188 50.6875 L 379.992188 40.6875 L 359.992188 40.6875 L 359.992188 20.6875 L 349.992188 20.6875 L 349.992188 40.6875 "/>
<path style="fill-rule:nonzero;fill:rgb(35%,70%,90%);fill-opacity:1;stroke-width:1;stroke-linecap:butt;stroke-linejoin:miter;stroke:rgb(0%,0%,0%);stroke-opacity:1;stroke-miterlimit:10;" d="M 151.054688 169.640625 L 131.054688 169.640625 L 131.054688 179.640625 L 151.054688 179.640625 L 151.054688 199.640625 L 161.054688 199.640625 L 161.054688 179.640625 L 181.054688 179.640625 L 181.054688 169.640625 L 161.054688 169.640625 L 161.054688 149.640625 L 151.054688 149.640625 L 151.054688 169.640625 "/>
<path style="fill-rule:nonzero;fill:rgb(35%,70%,90%);fill-opacity:1;stroke-width:1;stroke-linecap:butt;stroke-linejoin:miter;stroke:rgb(0%,0%,0%);stroke-opacity:1;stroke-miterlimit:10;" d="M 60.175781 45.816406 L 40.175781 45.816406 L 40.175781 55.816406 L 60.175781 55.816406 L 60.175781 75.816406 L 70.175781 75.816406 L 70.175781 55.816406 L 90.175781 55.816406 L 90.175781 45.816406 L 70.175781 45.816406 L 70.175781 25.816406 L 60.175781 25.816406 L 60.175781 45.816406 "/>
</g>
</svg>
