<?xml version="1.0" encoding="UTF-8"?>
<svg xmlns="http://www.w3.org/2000/svg" xmlns:xlink="http://www.w3.org/1999/xlink" width="517pt" height="517pt" viewBox="0 0 517 517" version="1.1">
<g id="surface11876">
<rect x="0" y="0" width="517" height="517" style="fill:rgb(90%,90%,90%);fill-opacity:1;stroke:none;"/>
<path style="fill-rule:nonzero;fill:rgb(100%,7%,57%);fill-opacity:1;stroke-width:1;stroke-linecap:butt;stroke-linejoin:miter;stroke:rgb(0%,0%,0%);stroke-opacity:1;stroke-miterlimit:10;" d="M 170.054688 106.683594 L 150.054688 106.683594 L 150.054688 116.683594 L 170.054688 116.683594 L 170.054688 136.683594 L 180.054688 136.683594 L 180.054688 116.683594 L 200.054688 116.683594 L 200.054688 106.683594 L 180.054688 106.683594 L 180.054688 86.683594 L 170.054688 86.683594 L 170.054688 106.683594 "/>
<path style="fill-rule:nonzero;fill:rgb(100%,7%,57%);fill-opacity:1;stroke-width:1;stroke-linecap:butt;stroke-linejoin:miter;stroke:rgb(0%,0%,0%);stroke-opacity:1;stroke-miterlimit:10;" d="M 455.285156 458.367188 L 435.285156 458.367188 L 435.285156 468.367188 L 455.285156 468.367188 L 455.285156 488.367188 L 465.285156 488.367188 L 465.285156 468.367188 L 485.285156 468.367188 L 485.285156 458.367188 L 465.285156 458.367188 L 465.285156 438.367188 L 455.285156 438.367188 L 455.285156 458.367188 "/>
<path style="fill-rule:nonzero;fill:rgb(100%,7%,57%);fill-opacity:1;stroke-width:1;stroke-linecap:butt;stroke-linejoin:miter;stroke:rgb(0%,0%,0%);stroke-opacity:1;stroke-miterlimit:10;" d="M 286.105469 311.597656 L 266.105469 311.597656 L 266.105469 321.597656 L 286.105469 321.597656 L 286.105469 341.597656 L 296.105469 341.597656 L 296.105469 321.597656 L 316.105469 321.597656 L 316.105469 311.597656 L 296.105469 311.597656 L 296.105469 291.597656 L 286.105469 291.597656 L 286.105469 311.597656 "/>
<path style="fill-rule:nonzero;fill:rgb(100%,7%,57%);fill-opacity:1;stroke-width:1;stroke-linecap:butt;stroke-linejoin:miter;stroke:rgb(0%,0%,0%);stroke-opacity:1;stroke-miterlimit:10;" d="M 297.167969 396.699219 L 277.167969 396.699219 L 277.167969 406.699219 L 297.167969 406.699219 L 297.167969 426.699219 L 307.167969 426.699219 L 307.167969 406.699219 L 327.167969 406.699219 L 327.167969 396.699219 L 307.167969 396.699219 L 307.167969 376.699219 L 297.167969 376.699219 L 297.167969 396.699219 "/>
<path style="fill-rule:nonzero;fill:rgb(100%,100%,0%);fill-opacity:1;stroke-width:1;stroke-linecap:butt;stroke-linejoin:miter;stroke:rgb(0%,0%,0%);stroke-opacity:1;stroke-miterlimit:10;" d="M 379.128906 294.066406 L 359.128906 294.066406 L 359.128906 304.066406 L 379.128906 304.066406 L 379.128906 324.066406 L 389.128906 324.066406 L 389.128906 304.066406 L 409.128906 304.066406 L 409.128906 294.066406 L 389.128906 294.066406 L 389.128906 274.066406 L 379.128906 274.066406 L 379.128906 294.066406 "/>
</g>
</svg>
