<?xml version="1.0" encoding="UTF-8"?>
<svg xmlns="http://www.w3.org/2000/svg" xmlns:xlink="http://www.w3.org/1999/xlink" width="517pt" height="517pt" viewBox="0 0 517 517" version="1.1">
<g id="surface11676">
<rect x="0" y="0" width="517" height="517" style="fill:rgb(90%,90%,90%);fill-opacity:1;stroke:none;"/>
<path style="fill-rule:nonzero;fill:rgb(0%,0%,0%);fill-opacity:1;stroke-width:1;stroke-linecap:butt;stroke-linejoin:miter;stroke:rgb(0%,0%,0%);stroke-opacity:1;stroke-miterlimit:10;" d="M 87.070312 428.347656 L 67.070312 428.347656 L 67.070312 438.347656 L 87.070312 438.347656 L 87.070312 458.347656 L 97.070312 458.347656 L 97.070312 438.347656 L 117.070312 438.347656 L 117.070312 428.347656 L 97.070312 428.347656 L 97.070312 408.347656 L 87.070312 408.347656 L 87.070312 428.347656 "/>
<path style="fill-rule:nonzero;fill:rgb(0%,0%,0%);fill-opacity:1;stroke-width:1;stroke-linecap:butt;stroke-linejoin:miter;stroke:rgb(0%,0%,0%);stroke-opacity:1;stroke-miterlimit:10;" d="M 107.027344 351.941406 L 87.027344 351.941406 L 87.027344 361.941406 L 107.027344 361.941406 L 107.027344 381.941406 L 117.027344 381.941406 L 117.027344 361.941406 L 137.027344 361.941406 L 137.027344 351.941406 L 117.027344 351.941406 L 117.027344 331.941406 L 107.027344 331.941406 L 107.027344 351.941406 "/>
<path style="fill-rule:nonzero;fill:rgb(0%,0%,0%);fill-opacity:1;stroke-width:1;stroke-linecap:butt;stroke-linejoin:miter;stroke:rgb(0%,0%,0%);stroke-opacity:1;stroke-miterlimit:10;" d="M 91.328125 127.570312 L 71.328125 127.570312 L 71.328125 137.570312 L 91.328125 137.570312 L 91.328125 157.570312 L 101.328125 157.570312 L 101.328125 137.570312 L 121.328125 137.570312 L 121.328125 127.570312 L 101.328125 127.570312 L 101.328125 107.570312 L 91.328125 107.570312 L 91.328125 127.570312 "/>
<path style="fill-rule:nonzero;fill:rgb(0%,0%,0%);fill-opacity:1;stroke-width:1;stroke-linecap:butt;stroke-linejoin:miter;stroke:rgb(0%,0%,0%);stroke-opacity:1;stroke-miterlimit:10;" d="M 195.609375 208.050781 L 175.609375 208.050781 L 175.609375 218.050781 L 195.609375 218.050781 L 195.609375 238.050781 L 205.609375 238.050781 L 205.609375 218.050781 L 225.609375 218.050781 L 225.609375 208.050781 L 205.609375 208.050781 L 205.609375 188.050781 L 195.609375 188.050781 L 195.609375 208.050781 "/>
<path style="fill-rule:nonzero;fill:rgb(0%,0%,0%);fill-opacity:1;stroke-width:1;stroke-linecap:butt;stroke-linejoin:miter;stroke:rgb(0%,0%,0%);stroke-opacity:1;stroke-miterlimit:10;" d="M 110.800781 67.730469 L 90.800781 67.730469 L 90.800781 77.730469 L 110.800781 77.730469 L 110.800781 97.730469 L 120.800781 97.730469 L 120.800781 77.730469 L 140.800781 77.730469 L 140.800781 67.730469 L 120.800781 67.730469 L 120.800781 47.730469 L 110.800781 47.730469 L 110.800781 67.730469 "/>
</g>
</svg>
