<?xml version="1.0" encoding="UTF-8"?>
<svg xmlns="http://www.w3.org/2000/svg" xmlns:xlink="http://www.w3.org/1999/xlink" width="517pt" height="517pt" viewBox="0 0 517 517" version="1.1">
<g id="surface12536">
<rect x="0" y="0" width="517" height="517" style="fill:rgb(90%,90%,90%);fill-opacity:1;stroke:none;"/>
<path style="fill-rule:nonzero;fill:rgb(50%,0%,50%);fill-opacity:1;stroke-width:1;stroke-linecap:butt;stroke-linejoin:miter;stroke:rgb(0%,0%,0%);stroke-opacity:1;stroke-miterlimit:10;" d="M 419.195312 196.933594 L 399.195312 196.933594 L 399.195312 206.933594 L 419.195312 206.933594 L 419.195312 226.933594 L 429.195312 226.933594 L 429.195312 206.933594 L 449.195312 206.933594 L 449.195312 196.933594 L 429.195312 196.933594 L 429.195312 176.933594 L 419.195312 176.933594 L 419.195312 196.933594 "/>
<path style="fill-rule:nonzero;fill:rgb(100%,0%,0%);fill-opacity:1;stroke-width:1;stroke-linecap:butt;stroke-linejoin:miter;stroke:rgb(0%,0%,0%);stroke-opacity:1;stroke-miterlimit:10;" d="M 383.472656 328.054688 L 363.472656 328.054688 L 363.472656 338.054688 L 383.472656 338.054688 L 383.472656 358.054688 L 393.472656 358.054688 L 393.472656 338.054688 L 413.472656 338.054688 L 413.472656 328.054688 L 393.472656 328.054688 L 393.472656 308.054688 L 383.472656 308.054688 L 383.472656 328.054688 "/>
<path style="fill-rule:nonzero;fill:rgb(100%,0%,0%);fill-opacity:1;stroke-width:1;stroke-linecap:butt;stroke-linejoin:miter;stroke:rgb(0%,0%,0%);stroke-opacity:1;stroke-miterlimit:10;" d="M 429.246094 380.679688 L 409.246094 380.679688 L 409.246094 390.679688 L 429.246094 390.679688 L 429.246094 410.679688 L 439.246094 410.679688 L 439.246094 390.679688 L 459.246094 390.679688 L 459.246094 380.679688 L 439.246094 380.679688 L 439.246094 360.679688 L 429.246094 360.679688 L 429.246094 380.679688 "/>
<path style="fill-rule:nonzero;fill:rgb(100%,0%,0%);fill-opacity:1;stroke-width:1;stroke-linecap:butt;stroke-linejoin:miter;stroke:rgb(0%,0%,0%);stroke-opacity:1;stroke-miterlimit:10;" d="M 196.253906 166.742188 L 176.253906 166.742188 L 176.253906 176.742188 L 196.253906 176.742188 L 196.253906 196.742188 L 206.253906 196.742188 L 206.253906 176.742188 L 226.253906 176.742188 L 226.253906 166.742188 L 206.253906 166.742188 L 206.253906 146.742188 L 196.253906 146.742188 L 196.253906 166.742188 "/>
<path style="fill-rule:nonzero;fill:rgb(100%,0%,0%);fill-opacity:1;stroke-width:1;stroke-linecap:butt;stroke-linejoin:miter;stroke:rgb(0%,0%,0%);stroke-opacity:1;stroke-miterlimit:10;" d="M 125.453125 95.25 L 105.453125 95.25 L 105.453125 105.25 L 125.453125 105.25 L 125.453125 125.25 L 135.453125 125.25 L 135.453125 105.25 L 155.453125 105.25 L 155.453125 95.25 L 135.453125 95.25 L 135.453125 75.25 L 125.453125 75.25 L 125.453125 95.25 "/>
<path style="fill-rule:nonzero;fill:rgb(100%,0%,0%);fill-opacity:1;stroke-width:1;stroke-linecap:butt;stroke-linejoin:miter;stroke:rgb(0%,0%,0%);stroke-opacity:1;stroke-miterlimit:10;" d="M 113.347656 211.464844 L 93.347656 211.464844 L 93.347656 221.464844 L 113.347656 221.464844 L 113.347656 241.464844 L 123.347656 241.464844 L 123.347656 221.464844 L 143.347656 221.464844 L 143.347656 211.464844 L 123.347656 211.464844 L 123.347656 191.464844 L 113.347656 191.464844 L 113.347656 211.464844 "/>
</g>
</svg>
