<?xml version="1.0" encoding="UTF-8"?>
<svg xmlns="http://www.w3.org/2000/svg" xmlns:xlink="http://www.w3.org/1999/xlink" width="517pt" height="517pt" viewBox="0 0 517 517" version="1.1">
<g id="surface11836">
<rect x="0" y="0" width="517" height="517" style="fill:rgb(90%,90%,90%);fill-opacity:1;stroke:none;"/>
<path style="fill-rule:nonzero;fill:rgb(67%,100%,18%);fill-opacity:1;stroke-width:1;stroke-linecap:butt;stroke-linejoin:miter;stroke:rgb(0%,0%,0%);stroke-opacity:1;stroke-miterlimit:10;" d="M 131.246094 37.011719 L 111.246094 37.011719 L 111.246094 47.011719 L 131.246094 47.011719 L 131.246094 67.011719 L 141.246094 67.011719 L 141.246094 47.011719 L 161.246094 47.011719 L 161.246094 37.011719 L 141.246094 37.011719 L 141.246094 17.011719 L 131.246094 17.011719 L 131.246094 37.011719 "/>
<path style="fill-rule:nonzero;fill:rgb(67%,100%,18%);fill-opacity:1;stroke-width:1;stroke-linecap:butt;stroke-linejoin:miter;stroke:rgb(0%,0%,0%);stroke-opacity:1;stroke-miterlimit:10;" d="M 86.808594 132.433594 L 66.808594 132.433594 L 66.808594 142.433594 L 86.808594 142.433594 L 86.808594 162.433594 L 96.808594 162.433594 L 96.808594 142.433594 L 116.808594 142.433594 L 116.808594 132.433594 L 96.808594 132.433594 L 96.808594 112.433594 L 86.808594 112.433594 L 86.808594 132.433594 "/>
<path style="fill-rule:nonzero;fill:rgb(67%,100%,18%);fill-opacity:1;stroke-width:1;stroke-linecap:butt;stroke-linejoin:miter;stroke:rgb(0%,0%,0%);stroke-opacity:1;stroke-miterlimit:10;" d="M 348.175781 66.882812 L 328.175781 66.882812 L 328.175781 76.882812 L 348.175781 76.882812 L 348.175781 96.882812 L 358.175781 96.882812 L 358.175781 76.882812 L 378.175781 76.882812 L 378.175781 66.882812 L 358.175781 66.882812 L 358.175781 46.882812 L 348.175781 46.882812 L 348.175781 66.882812 "/>
<path style="fill-rule:nonzero;fill:rgb(67%,100%,18%);fill-opacity:1;stroke-width:1;stroke-linecap:butt;stroke-linejoin:miter;stroke:rgb(0%,0%,0%);stroke-opacity:1;stroke-miterlimit:10;" d="M 286.335938 111.785156 L 266.335938 111.785156 L 266.335938 121.785156 L 286.335938 121.785156 L 286.335938 141.785156 L 296.335938 141.785156 L 296.335938 121.785156 L 316.335938 121.785156 L 316.335938 111.785156 L 296.335938 111.785156 L 296.335938 91.785156 L 286.335938 91.785156 L 286.335938 111.785156 "/>
</g>
</svg>
