<?xml version="1.0" encoding="UTF-8"?>
<svg xmlns="http://www.w3.org/2000/svg" xmlns:xlink="http://www.w3.org/1999/xlink" width="517pt" height="517pt" viewBox="0 0 517 517" version="1.1">
<g id="surface11856">
<rect x="0" y="0" width="517" height="517" style="fill:rgb(90%,90%,90%);fill-opacity:1;stroke:none;"/>
<path style="fill-rule:nonzero;fill:rgb(100%,7%,57%);fill-opacity:1;stroke-width:1;stroke-linecap:butt;stroke-linejoin:miter;stroke:rgb(0%,0%,0%);stroke-opacity:1;stroke-miterlimit:10;" d="M 154.640625 127.867188 L 134.640625 127.867188 L 134.640625 137.867188 L 154.640625 137.867188 L 154.640625 157.867188 L 164.640625 157.867188 L 164.640625 137.867188 L 184.640625 137.867188 L 184.640625 127.867188 L 164.640625 127.867188 L 164.640625 107.867188 L 154.640625 107.867188 L 154.640625 127.867188 "/>
<path style="fill-rule:nonzero;fill:rgb(100%,7%,57%);fill-opacity:1;stroke-width:1;stroke-linecap:butt;stroke-linejoin:miter;stroke:rgb(0%,0%,0%);stroke-opacity:1;stroke-miterlimit:10;" d="M 128.136719 71.085938 L 108.136719 71.085938 L 108.136719 81.085938 L 128.136719 81.085938 L 128.136719 101.085938 L 138.136719 101.085938 L 138.136719 81.085938 L 158.136719 81.085938 L 158.136719 71.085938 L 138.136719 71.085938 L 138.136719 51.085938 L 128.136719 51.085938 L 128.136719 71.085938 "/>
<path style="fill-rule:nonzero;fill:rgb(100%,7%,57%);fill-opacity:1;stroke-width:1;stroke-linecap:butt;stroke-linejoin:miter;stroke:rgb(0%,0%,0%);stroke-opacity:1;stroke-miterlimit:10;" d="M 309.097656 36.214844 L 289.097656 36.214844 L 289.097656 46.214844 L 309.097656 46.214844 L 309.097656 66.214844 L 319.097656 66.214844 L 319.097656 46.214844 L 339.097656 46.214844 L 339.097656 36.214844 L 319.097656 36.214844 L 319.097656 16.214844 L 309.097656 16.214844 L 309.097656 36.214844 "/>
<path style="fill-rule:nonzero;fill:rgb(100%,7%,57%);fill-opacity:1;stroke-width:1;stroke-linecap:butt;stroke-linejoin:miter;stroke:rgb(0%,0%,0%);stroke-opacity:1;stroke-miterlimit:10;" d="M 399.628906 68.429688 L 379.628906 68.429688 L 379.628906 78.429688 L 399.628906 78.429688 L 399.628906 98.429688 L 409.628906 98.429688 L 409.628906 78.429688 L 429.628906 78.429688 L 429.628906 68.429688 L 409.628906 68.429688 L 409.628906 48.429688 L 399.628906 48.429688 L 399.628906 68.429688 "/>
<path style="fill-rule:nonzero;fill:rgb(100%,100%,0%);fill-opacity:1;stroke-width:1;stroke-linecap:butt;stroke-linejoin:miter;stroke:rgb(0%,0%,0%);stroke-opacity:1;stroke-miterlimit:10;" d="M 199.078125 454.984375 L 179.078125 454.984375 L 179.078125 464.984375 L 199.078125 464.984375 L 199.078125 484.984375 L 209.078125 484.984375 L 209.078125 464.984375 L 229.078125 464.984375 L 229.078125 454.984375 L 209.078125 454.984375 L 209.078125 434.984375 L 199.078125 434.984375 L 199.078125 454.984375 "/>
</g>
</svg>
