<?xml version="1.0" encoding="UTF-8"?>
<svg xmlns="http://www.w3.org/2000/svg" xmlns:xlink="http://www.w3.org/1999/xlink" width="517pt" height="517pt" viewBox="0 0 517 517" version="1.1">
<g id="surface12236">
<rect x="0" y="0" width="517" height="517" style="fill:rgb(90%,90%,90%);fill-opacity:1;stroke:none;"/>
<path style="fill-rule:nonzero;fill:rgb(35%,70%,90%);fill-opacity:1;stroke-width:1;stroke-linecap:butt;stroke-linejoin:miter;stroke:rgb(0%,0%,0%);stroke-opacity:1;stroke-miterlimit:10;" d="M 378.609375 420.382812 L 358.609375 420.382812 L 358.609375 430.382812 L 378.609375 430.382812 L 378.609375 450.382812 L 388.609375 450.382812 L 388.609375 430.382812 L 408.609375 430.382812 L 408.609375 420.382812 L 388.609375 420.382812 L 388.609375 400.382812 L 378.609375 400.382812 L 378.609375 420.382812 "/>
<path style="fill-rule:nonzero;fill:rgb(35%,70%,90%);fill-opacity:1;stroke-width:1;stroke-linecap:butt;stroke-linejoin:miter;stroke:rgb(0%,0%,0%);stroke-opacity:1;stroke-miterlimit:10;" d="M 126.035156 113.582031 L 106.035156 113.582031 L 106.035156 123.582031 L 126.035156 123.582031 L 126.035156 143.582031 L 136.035156 143.582031 L 136.035156 123.582031 L 156.035156 123.582031 L 156.035156 113.582031 L 136.035156 113.582031 L 136.035156 93.582031 L 126.035156 93.582031 L 126.035156 113.582031 "/>
<path style="fill-rule:nonzero;fill:rgb(35%,70%,90%);fill-opacity:1;stroke-width:1;stroke-linecap:butt;stroke-linejoin:miter;stroke:rgb(0%,0%,0%);stroke-opacity:1;stroke-miterlimit:10;" d="M 51.171875 142.480469 L 31.171875 142.480469 L 31.171875 152.480469 L 51.171875 152.480469 L 51.171875 172.480469 L 61.171875 172.480469 L 61.171875 152.480469 L 81.171875 152.480469 L 81.171875 142.480469 L 61.171875 142.480469 L 61.171875 122.480469 L 51.171875 122.480469 L 51.171875 142.480469 "/>
<path style="fill-rule:nonzero;fill:rgb(35%,70%,90%);fill-opacity:1;stroke-width:1;stroke-linecap:butt;stroke-linejoin:miter;stroke:rgb(0%,0%,0%);stroke-opacity:1;stroke-miterlimit:10;" d="M 350.207031 169.820312 L 330.207031 169.820312 L 330.207031 179.820312 L 350.207031 179.820312 L 350.207031 199.820312 L 360.207031 199.820312 L 360.207031 179.820312 L 380.207031 179.820312 L 380.207031 169.820312 L 360.207031 169.820312 L 360.207031 149.820312 L 350.207031 149.820312 L 350.207031 169.820312 "/>
<path style="fill-rule:nonzero;fill:rgb(35%,70%,90%);fill-opacity:1;stroke-width:1;stroke-linecap:butt;stroke-linejoin:miter;stroke:rgb(0%,0%,0%);stroke-opacity:1;stroke-miterlimit:10;" d="M 414.261719 155.808594 L 394.261719 155.808594 L 394.261719 165.808594 L 414.261719 165.808594 L 414.261719 185.808594 L 424.261719 185.808594 L 424.261719 165.808594 L 444.261719 165.808594 L 444.261719 155.808594 L 424.261719 155.808594 L 424.261719 135.808594 L 414.261719 135.808594 L 414.261719 155.808594 "/>
</g>
</svg>
