<?xml version="1.0" encoding="UTF-8"?>
<svg xmlns="http://www.w3.org/2000/svg" xmlns:xlink="http://www.w3.org/1999/xlink" width="517pt" height="517pt" viewBox="0 0 517 517" version="1.1">
<g id="surface12696">
<rect x="0" y="0" width="517" height="517" style="fill:rgb(90%,90%,90%);fill-opacity:1;stroke:none;"/>
<path style="fill-rule:nonzero;fill:rgb(35%,70%,90%);fill-opacity:1;stroke-width:1;stroke-linecap:butt;stroke-linejoin:miter;stroke:rgb(0%,0%,0%);stroke-opacity:1;stroke-miterlimit:10;" d="M 344.882812 192.039062 L 324.882812 192.039062 L 324.882812 202.039062 L 344.882812 202.039062 L 344.882812 222.039062 L 354.882812 222.039062 L 354.882812 202.039062 L 374.882812 202.039062 L 374.882812 192.039062 L 354.882812 192.039062 L 354.882812 172.039062 L 344.882812 172.039062 L 344.882812 192.039062 "/>
<path style="fill-rule:nonzero;fill:rgb(35%,70%,90%);fill-opacity:1;stroke-width:1;stroke-linecap:butt;stroke-linejoin:miter;stroke:rgb(0%,0%,0%);stroke-opacity:1;stroke-miterlimit:10;" d="M 287.964844 143.679688 L 267.964844 143.679688 L 267.964844 153.679688 L 287.964844 153.679688 L 287.964844 173.679688 L 297.964844 173.679688 L 297.964844 153.679688 L 317.964844 153.679688 L 317.964844 143.679688 L 297.964844 143.679688 L 297.964844 123.679688 L 287.964844 123.679688 L 287.964844 143.679688 "/>
<path style="fill-rule:nonzero;fill:rgb(35%,70%,90%);fill-opacity:1;stroke-width:1;stroke-linecap:butt;stroke-linejoin:miter;stroke:rgb(0%,0%,0%);stroke-opacity:1;stroke-miterlimit:10;" d="M 108.445312 73.78125 L 88.445312 73.78125 L 88.445312 83.78125 L 108.445312 83.78125 L 108.445312 103.78125 L 118.445312 103.78125 L 118.445312 83.78125 L 138.445312 83.78125 L 138.445312 73.78125 L 118.445312 73.78125 L 118.445312 53.78125 L 108.445312 53.78125 L 108.445312 73.78125 "/>
<path style="fill-rule:nonzero;fill:rgb(35%,70%,90%);fill-opacity:1;stroke-width:1;stroke-linecap:butt;stroke-linejoin:miter;stroke:rgb(0%,0%,0%);stroke-opacity:1;stroke-miterlimit:10;" d="M 50.152344 125.675781 L 30.152344 125.675781 L 30.152344 135.675781 L 50.152344 135.675781 L 50.152344 155.675781 L 60.152344 155.675781 L 60.152344 135.675781 L 80.152344 135.675781 L 80.152344 125.675781 L 60.152344 125.675781 L 60.152344 105.675781 L 50.152344 105.675781 L 50.152344 125.675781 "/>
<path style="fill-rule:nonzero;fill:rgb(35%,70%,90%);fill-opacity:1;stroke-width:1;stroke-linecap:butt;stroke-linejoin:miter;stroke:rgb(0%,0%,0%);stroke-opacity:1;stroke-miterlimit:10;" d="M 166.71875 422.425781 L 146.71875 422.425781 L 146.71875 432.425781 L 166.71875 432.425781 L 166.71875 452.425781 L 176.71875 452.425781 L 176.71875 432.425781 L 196.71875 432.425781 L 196.71875 422.425781 L 176.71875 422.425781 L 176.71875 402.425781 L 166.71875 402.425781 L 166.71875 422.425781 "/>
</g>
</svg>
