<?xml version="1.0" encoding="UTF-8"?>
<svg xmlns="http://www.w3.org/2000/svg" xmlns:xlink="http://www.w3.org/1999/xlink" width="517pt" height="517pt" viewBox="0 0 517 517" version="1.1">
<g id="surface13436">
<rect x="0" y="0" width="517" height="517" style="fill:rgb(90%,90%,90%);fill-opacity:1;stroke:none;"/>
<path style="fill-rule:nonzero;fill:rgb(0%,0%,0%);fill-opacity:1;stroke-width:1;stroke-linecap:butt;stroke-linejoin:miter;stroke:rgb(0%,0%,0%);stroke-opacity:1;stroke-miterlimit:10;" d="M 89.820312 325.820312 C 89.820312 342.386719 76.386719 355.820312 59.820312 355.820312 C 43.25 355.820312 29.820312 342.386719 29.820312 325.820312 C 29.820312 309.25 43.25 295.820312 59.820312 295.820312 C 76.386719 295.820312 89.820312 309.25 89.820312 325.820312 "/>
<path style="fill-rule:nonzero;fill:rgb(0%,0%,0%);fill-opacity:1;stroke-width:1;stroke-linecap:butt;stroke-linejoin:miter;stroke:rgb(0%,0%,0%);stroke-opacity:1;stroke-miterlimit:10;" d="M 481.398438 68.261719 C 481.398438 84.828125 467.96875 98.261719 451.398438 98.261719 C 434.828125 98.261719 421.398438 84.828125 421.398438 68.261719 C 421.398438 51.691406 434.828125 38.261719 451.398438 38.261719 C 467.96875 38.261719 481.398438 51.691406 481.398438 68.261719 "/>
<path style="fill-rule:nonzero;fill:rgb(0%,0%,0%);fill-opacity:1;stroke-width:1;stroke-linecap:butt;stroke-linejoin:miter;stroke:rgb(0%,0%,0%);stroke-opacity:1;stroke-miterlimit:10;" d="M 506.074219 155.421875 C 506.074219 171.988281 492.644531 185.421875 476.074219 185.421875 C 459.507812 185.421875 446.074219 171.988281 446.074219 155.421875 C 446.074219 138.851562 459.507812 125.421875 476.074219 125.421875 C 492.644531 125.421875 506.074219 138.851562 506.074219 155.421875 "/>
<path style="fill-rule:nonzero;fill:rgb(0%,0%,0%);fill-opacity:1;stroke-width:1;stroke-linecap:butt;stroke-linejoin:miter;stroke:rgb(0%,0%,0%);stroke-opacity:1;stroke-miterlimit:10;" d="M 386.980469 110.40625 C 386.980469 126.972656 373.550781 140.40625 356.980469 140.40625 C 340.414062 140.40625 326.980469 126.972656 326.980469 110.40625 C 326.980469 93.835938 340.414062 80.40625 356.980469 80.40625 C 373.550781 80.40625 386.980469 93.835938 386.980469 110.40625 "/>
<path style="fill-rule:nonzero;fill:rgb(0%,0%,0%);fill-opacity:1;stroke-width:1;stroke-linecap:butt;stroke-linejoin:miter;stroke:rgb(0%,0%,0%);stroke-opacity:1;stroke-miterlimit:10;" d="M 191.746094 148.484375 C 191.746094 165.050781 178.316406 178.484375 161.746094 178.484375 C 145.179688 178.484375 131.746094 165.050781 131.746094 148.484375 C 131.746094 131.914062 145.179688 118.484375 161.746094 118.484375 C 178.316406 118.484375 191.746094 131.914062 191.746094 148.484375 "/>
<path style="fill-rule:nonzero;fill:rgb(35%,70%,90%);fill-opacity:1;stroke-width:1;stroke-linecap:butt;stroke-linejoin:miter;stroke:rgb(0%,0%,0%);stroke-opacity:1;stroke-miterlimit:10;" d="M 146.410156 92.707031 C 146.410156 109.277344 132.980469 122.707031 116.410156 122.707031 C 99.84375 122.707031 86.410156 109.277344 86.410156 92.707031 C 86.410156 76.140625 99.84375 62.707031 116.410156 62.707031 C 132.980469 62.707031 146.410156 76.140625 146.410156 92.707031 "/>
</g>
</svg>
