<?xml version="1.0" encoding="UTF-8"?>
<svg xmlns="http://www.w3.org/2000/svg" xmlns:xlink="http://www.w3.org/1999/xlink" width="517pt" height="517pt" viewBox="0 0 517 517" version="1.1">
<g id="surface616">
<rect x="0" y="0" width="517" height="517" style="fill:rgb(90%,90%,90%);fill-opacity:1;stroke:none;"/>
<path style="fill:none;stroke-width:5;stroke-linecap:butt;stroke-linejoin:round;stroke:rgb(100%,0%,0%);stroke-opacity:1;stroke-miterlimit:10;" d="M 261 5 L 517 5 L 517 261 L 261 261 Z M 261 5 "/>
<path style="fill-rule:nonzero;fill:rgb(35%,70%,90%);fill-opacity:1;stroke-width:1;stroke-linecap:butt;stroke-linejoin:round;stroke:rgb(0%,0%,0%);stroke-opacity:1;stroke-miterlimit:10;" d="M 443.777344 205.945312 C 443.777344 222.515625 430.34375 235.945312 413.777344 235.945312 C 397.207031 235.945312 383.777344 222.515625 383.777344 205.945312 C 383.777344 189.378906 397.207031 175.945312 413.777344 175.945312 C 430.34375 175.945312 443.777344 189.378906 443.777344 205.945312 "/>
<path style="fill-rule:nonzero;fill:rgb(67%,100%,18%);fill-opacity:1;stroke-width:1;stroke-linecap:butt;stroke-linejoin:round;stroke:rgb(0%,0%,0%);stroke-opacity:1;stroke-miterlimit:10;" d="M 70.785156 125.050781 C 70.785156 141.621094 57.355469 155.050781 40.785156 155.050781 C 24.214844 155.050781 10.785156 141.621094 10.785156 125.050781 C 10.785156 108.484375 24.214844 95.050781 40.785156 95.050781 C 57.355469 95.050781 70.785156 108.484375 70.785156 125.050781 "/>
<path style="fill-rule:nonzero;fill:rgb(35%,70%,90%);fill-opacity:1;stroke-width:1;stroke-linecap:butt;stroke-linejoin:round;stroke:rgb(0%,0%,0%);stroke-opacity:1;stroke-miterlimit:10;" d="M 176.257812 433.601562 C 176.257812 450.171875 162.824219 463.601562 146.257812 463.601562 C 129.6875 463.601562 116.257812 450.171875 116.257812 433.601562 C 116.257812 417.035156 129.6875 403.601562 146.257812 403.601562 C 162.824219 403.601562 176.257812 417.035156 176.257812 433.601562 "/>
<path style="fill-rule:nonzero;fill:rgb(35%,70%,90%);fill-opacity:1;stroke-width:1;stroke-linecap:butt;stroke-linejoin:round;stroke:rgb(0%,0%,0%);stroke-opacity:1;stroke-miterlimit:10;" d="M 182.183594 368.542969 C 182.183594 385.109375 168.75 398.542969 152.183594 398.542969 C 135.613281 398.542969 122.183594 385.109375 122.183594 368.542969 C 122.183594 351.972656 135.613281 338.542969 152.183594 338.542969 C 168.75 338.542969 182.183594 351.972656 182.183594 368.542969 "/>
</g>
</svg>
