<?xml version="1.0" encoding="UTF-8"?>
<svg xmlns="http://www.w3.org/2000/svg" xmlns:xlink="http://www.w3.org/1999/xlink" width="517pt" height="517pt" viewBox="0 0 517 517" version="1.1">
<g id="surface586">
<rect x="0" y="0" width="517" height="517" style="fill:rgb(90%,90%,90%);fill-opacity:1;stroke:none;"/>
<path style="fill:none;stroke-width:5;stroke-linecap:butt;stroke-linejoin:round;stroke:rgb(100%,0%,0%);stroke-opacity:1;stroke-miterlimit:10;" d="M 261 5 L 517 5 L 517 261 L 261 261 Z M 261 5 "/>
<path style="fill-rule:nonzero;fill:rgb(35%,70%,90%);fill-opacity:1;stroke-width:1;stroke-linecap:butt;stroke-linejoin:round;stroke:rgb(0%,0%,0%);stroke-opacity:1;stroke-miterlimit:10;" d="M 373.746094 156.109375 C 373.746094 172.679688 360.3125 186.109375 343.746094 186.109375 C 327.175781 186.109375 313.746094 172.679688 313.746094 156.109375 C 313.746094 139.542969 327.175781 126.109375 343.746094 126.109375 C 360.3125 126.109375 373.746094 139.542969 373.746094 156.109375 "/>
<path style="fill-rule:nonzero;fill:rgb(67%,100%,18%);fill-opacity:1;stroke-width:1;stroke-linecap:butt;stroke-linejoin:round;stroke:rgb(0%,0%,0%);stroke-opacity:1;stroke-miterlimit:10;" d="M 72.125 382.722656 C 72.125 399.289062 58.691406 412.722656 42.125 412.722656 C 25.554688 412.722656 12.125 399.289062 12.125 382.722656 C 12.125 366.152344 25.554688 352.722656 42.125 352.722656 C 58.691406 352.722656 72.125 366.152344 72.125 382.722656 "/>
<path style="fill-rule:nonzero;fill:rgb(67%,100%,18%);fill-opacity:1;stroke-width:1;stroke-linecap:butt;stroke-linejoin:round;stroke:rgb(0%,0%,0%);stroke-opacity:1;stroke-miterlimit:10;" d="M 237.277344 337.667969 C 237.277344 354.238281 223.84375 367.667969 207.277344 367.667969 C 190.707031 367.667969 177.277344 354.238281 177.277344 337.667969 C 177.277344 321.097656 190.707031 307.667969 207.277344 307.667969 C 223.84375 307.667969 237.277344 321.097656 237.277344 337.667969 "/>
<path style="fill-rule:nonzero;fill:rgb(35%,70%,90%);fill-opacity:1;stroke-width:1;stroke-linecap:butt;stroke-linejoin:round;stroke:rgb(0%,0%,0%);stroke-opacity:1;stroke-miterlimit:10;" d="M 323.050781 415.378906 C 323.050781 431.945312 309.621094 445.378906 293.050781 445.378906 C 276.484375 445.378906 263.050781 431.945312 263.050781 415.378906 C 263.050781 398.808594 276.484375 385.378906 293.050781 385.378906 C 309.621094 385.378906 323.050781 398.808594 323.050781 415.378906 "/>
</g>
</svg>
