<?xml version="1.0" encoding="UTF-8"?>
<svg xmlns="http://www.w3.org/2000/svg" xmlns:xlink="http://www.w3.org/1999/xlink" width="517pt" height="517pt" viewBox="0 0 517 517" version="1.1">
<g id="surface13196">
<rect x="0" y="0" width="517" height="517" style="fill:rgb(90%,90%,90%);fill-opacity:1;stroke:none;"/>
<path style="fill-rule:nonzero;fill:rgb(90%,65%,0%);fill-opacity:1;stroke-width:1;stroke-linecap:butt;stroke-linejoin:miter;stroke:rgb(0%,0%,0%);stroke-opacity:1;stroke-miterlimit:10;" d="M 183.050781 157.835938 C 183.050781 174.40625 169.621094 187.835938 153.050781 187.835938 C 136.484375 187.835938 123.050781 174.40625 123.050781 157.835938 C 123.050781 141.269531 136.484375 127.835938 153.050781 127.835938 C 169.621094 127.835938 183.050781 141.269531 183.050781 157.835938 "/>
<path style="fill-rule:nonzero;fill:rgb(50%,0%,50%);fill-opacity:1;stroke-width:1;stroke-linecap:butt;stroke-linejoin:miter;stroke:rgb(0%,0%,0%);stroke-opacity:1;stroke-miterlimit:10;" d="M 172.703125 445.121094 C 172.703125 461.691406 159.269531 475.121094 142.703125 475.121094 C 126.132812 475.121094 112.703125 461.691406 112.703125 445.121094 C 112.703125 428.554688 126.132812 415.121094 142.703125 415.121094 C 159.269531 415.121094 172.703125 428.554688 172.703125 445.121094 "/>
<path style="fill-rule:nonzero;fill:rgb(50%,0%,50%);fill-opacity:1;stroke-width:1;stroke-linecap:butt;stroke-linejoin:miter;stroke:rgb(0%,0%,0%);stroke-opacity:1;stroke-miterlimit:10;" d="M 420.5625 138.175781 C 420.5625 154.746094 407.128906 168.175781 390.5625 168.175781 C 373.992188 168.175781 360.5625 154.746094 360.5625 138.175781 C 360.5625 121.609375 373.992188 108.175781 390.5625 108.175781 C 407.128906 108.175781 420.5625 121.609375 420.5625 138.175781 "/>
<path style="fill-rule:nonzero;fill:rgb(50%,0%,50%);fill-opacity:1;stroke-width:1;stroke-linecap:butt;stroke-linejoin:miter;stroke:rgb(0%,0%,0%);stroke-opacity:1;stroke-miterlimit:10;" d="M 435.738281 79.304688 C 435.738281 95.871094 422.308594 109.304688 405.738281 109.304688 C 389.171875 109.304688 375.738281 95.871094 375.738281 79.304688 C 375.738281 62.734375 389.171875 49.304688 405.738281 49.304688 C 422.308594 49.304688 435.738281 62.734375 435.738281 79.304688 "/>
<path style="fill-rule:nonzero;fill:rgb(50%,0%,50%);fill-opacity:1;stroke-width:1;stroke-linecap:butt;stroke-linejoin:miter;stroke:rgb(0%,0%,0%);stroke-opacity:1;stroke-miterlimit:10;" d="M 501.34375 74.226562 C 501.34375 90.796875 487.914062 104.226562 471.34375 104.226562 C 454.773438 104.226562 441.34375 90.796875 441.34375 74.226562 C 441.34375 57.660156 454.773438 44.226562 471.34375 44.226562 C 487.914062 44.226562 501.34375 57.660156 501.34375 74.226562 "/>
</g>
</svg>
