<?xml version="1.0" encoding="UTF-8"?>
<svg xmlns="http://www.w3.org/2000/svg" xmlns:xlink="http://www.w3.org/1999/xlink" width="517pt" height="517pt" viewBox="0 0 517 517" version="1.1">
<g id="surface5736">
<rect x="0" y="0" width="517" height="517" style="fill:rgb(90%,90%,90%);fill-opacity:1;stroke:none;"/>
<path style="fill-rule:nonzero;fill:rgb(67%,100%,18%);fill-opacity:1;stroke-width:1;stroke-linecap:butt;stroke-linejoin:miter;stroke:rgb(0%,0%,0%);stroke-opacity:1;stroke-miterlimit:10;" d="M 236.582031 432.777344 C 236.582031 449.347656 223.152344 462.777344 206.582031 462.777344 C 190.015625 462.777344 176.582031 449.347656 176.582031 432.777344 C 176.582031 416.210938 190.015625 402.777344 206.582031 402.777344 C 223.152344 402.777344 236.582031 416.210938 236.582031 432.777344 "/>
<path style="fill-rule:nonzero;fill:rgb(35%,70%,90%);fill-opacity:1;stroke-width:1;stroke-linecap:butt;stroke-linejoin:miter;stroke:rgb(0%,0%,0%);stroke-opacity:1;stroke-miterlimit:10;" d="M 464.59375 305.15625 C 464.59375 321.726562 451.164062 335.15625 434.59375 335.15625 C 418.027344 335.15625 404.59375 321.726562 404.59375 305.15625 C 404.59375 288.589844 418.027344 275.15625 434.59375 275.15625 C 451.164062 275.15625 464.59375 288.589844 464.59375 305.15625 "/>
<path style="fill-rule:nonzero;fill:rgb(35%,70%,90%);fill-opacity:1;stroke-width:1;stroke-linecap:butt;stroke-linejoin:miter;stroke:rgb(0%,0%,0%);stroke-opacity:1;stroke-miterlimit:10;" d="M 389.675781 437.042969 C 389.675781 453.613281 376.242188 467.042969 359.675781 467.042969 C 343.105469 467.042969 329.675781 453.613281 329.675781 437.042969 C 329.675781 420.476562 343.105469 407.042969 359.675781 407.042969 C 376.242188 407.042969 389.675781 420.476562 389.675781 437.042969 "/>
<path style="fill-rule:nonzero;fill:rgb(35%,70%,90%);fill-opacity:1;stroke-width:1;stroke-linecap:butt;stroke-linejoin:miter;stroke:rgb(0%,0%,0%);stroke-opacity:1;stroke-miterlimit:10;" d="M 471.257812 445.6875 C 471.257812 462.253906 457.828125 475.6875 441.257812 475.6875 C 424.691406 475.6875 411.257812 462.253906 411.257812 445.6875 C 411.257812 429.117188 424.691406 415.6875 441.257812 415.6875 C 457.828125 415.6875 471.257812 429.117188 471.257812 445.6875 "/>
<path style="fill-rule:nonzero;fill:rgb(35%,70%,90%);fill-opacity:1;stroke-width:1;stroke-linecap:butt;stroke-linejoin:miter;stroke:rgb(0%,0%,0%);stroke-opacity:1;stroke-miterlimit:10;" d="M 380.863281 340.679688 C 380.863281 357.25 367.433594 370.679688 350.863281 370.679688 C 334.296875 370.679688 320.863281 357.25 320.863281 340.679688 C 320.863281 324.113281 334.296875 310.679688 350.863281 310.679688 C 367.433594 310.679688 380.863281 324.113281 380.863281 340.679688 "/>
<path style="fill-rule:nonzero;fill:rgb(35%,70%,90%);fill-opacity:1;stroke-width:1;stroke-linecap:butt;stroke-linejoin:miter;stroke:rgb(0%,0%,0%);stroke-opacity:1;stroke-miterlimit:10;" d="M 435.105469 373.363281 C 435.105469 389.933594 421.675781 403.363281 405.105469 403.363281 C 388.539062 403.363281 375.105469 389.933594 375.105469 373.363281 C 375.105469 356.792969 388.539062 343.363281 405.105469 343.363281 C 421.675781 343.363281 435.105469 356.792969 435.105469 373.363281 "/>
<path style="fill-rule:nonzero;fill:rgb(35%,70%,90%);fill-opacity:1;stroke-width:1;stroke-linecap:butt;stroke-linejoin:miter;stroke:rgb(0%,0%,0%);stroke-opacity:1;stroke-miterlimit:10;" d="M 219.109375 56.574219 C 219.109375 73.144531 205.679688 86.574219 189.109375 86.574219 C 172.539062 86.574219 159.109375 73.144531 159.109375 56.574219 C 159.109375 40.007812 172.539062 26.574219 189.109375 26.574219 C 205.679688 26.574219 219.109375 40.007812 219.109375 56.574219 "/>
<path style="fill-rule:nonzero;fill:rgb(35%,70%,90%);fill-opacity:1;stroke-width:1;stroke-linecap:butt;stroke-linejoin:miter;stroke:rgb(0%,0%,0%);stroke-opacity:1;stroke-miterlimit:10;" d="M 65.109375 123.390625 C 65.109375 139.960938 51.675781 153.390625 35.109375 153.390625 C 18.539062 153.390625 5.109375 139.960938 5.109375 123.390625 C 5.109375 106.824219 18.539062 93.390625 35.109375 93.390625 C 51.675781 93.390625 65.109375 106.824219 65.109375 123.390625 "/>
</g>
</svg>
