<?xml version="1.0" encoding="UTF-8"?>
<svg xmlns="http://www.w3.org/2000/svg" xmlns:xlink="http://www.w3.org/1999/xlink" width="517pt" height="517pt" viewBox="0 0 517 517" version="1.1">
<g id="surface13036">
<rect x="0" y="0" width="517" height="517" style="fill:rgb(90%,90%,90%);fill-opacity:1;stroke:none;"/>
<path style="fill-rule:nonzero;fill:rgb(100%,0%,0%);fill-opacity:1;stroke-width:1;stroke-linecap:butt;stroke-linejoin:miter;stroke:rgb(0%,0%,0%);stroke-opacity:1;stroke-miterlimit:10;" d="M 386.085938 475.742188 C 386.085938 492.3125 372.652344 505.742188 356.085938 505.742188 C 339.515625 505.742188 326.085938 492.3125 326.085938 475.742188 C 326.085938 459.175781 339.515625 445.742188 356.085938 445.742188 C 372.652344 445.742188 386.085938 459.175781 386.085938 475.742188 "/>
<path style="fill-rule:nonzero;fill:rgb(100%,0%,0%);fill-opacity:1;stroke-width:1;stroke-linecap:butt;stroke-linejoin:miter;stroke:rgb(0%,0%,0%);stroke-opacity:1;stroke-miterlimit:10;" d="M 323.917969 403.617188 C 323.917969 420.1875 310.484375 433.617188 293.917969 433.617188 C 277.347656 433.617188 263.917969 420.1875 263.917969 403.617188 C 263.917969 387.050781 277.347656 373.617188 293.917969 373.617188 C 310.484375 373.617188 323.917969 387.050781 323.917969 403.617188 "/>
<path style="fill-rule:nonzero;fill:rgb(0%,0%,0%);fill-opacity:1;stroke-width:1;stroke-linecap:butt;stroke-linejoin:miter;stroke:rgb(0%,0%,0%);stroke-opacity:1;stroke-miterlimit:10;" d="M 207.921875 214.402344 C 207.921875 230.972656 194.488281 244.402344 177.921875 244.402344 C 161.351562 244.402344 147.921875 230.972656 147.921875 214.402344 C 147.921875 197.835938 161.351562 184.402344 177.921875 184.402344 C 194.488281 184.402344 207.921875 197.835938 207.921875 214.402344 "/>
<path style="fill-rule:nonzero;fill:rgb(0%,0%,0%);fill-opacity:1;stroke-width:1;stroke-linecap:butt;stroke-linejoin:miter;stroke:rgb(0%,0%,0%);stroke-opacity:1;stroke-miterlimit:10;" d="M 458.09375 47.644531 C 458.09375 64.210938 444.660156 77.644531 428.09375 77.644531 C 411.523438 77.644531 398.09375 64.210938 398.09375 47.644531 C 398.09375 31.074219 411.523438 17.644531 428.09375 17.644531 C 444.660156 17.644531 458.09375 31.074219 458.09375 47.644531 "/>
<path style="fill-rule:nonzero;fill:rgb(0%,0%,0%);fill-opacity:1;stroke-width:1;stroke-linecap:butt;stroke-linejoin:miter;stroke:rgb(0%,0%,0%);stroke-opacity:1;stroke-miterlimit:10;" d="M 356.464844 94.09375 C 356.464844 110.660156 343.035156 124.09375 326.464844 124.09375 C 309.898438 124.09375 296.464844 110.660156 296.464844 94.09375 C 296.464844 77.523438 309.898438 64.09375 326.464844 64.09375 C 343.035156 64.09375 356.464844 77.523438 356.464844 94.09375 "/>
<path style="fill-rule:nonzero;fill:rgb(0%,0%,0%);fill-opacity:1;stroke-width:1;stroke-linecap:butt;stroke-linejoin:miter;stroke:rgb(0%,0%,0%);stroke-opacity:1;stroke-miterlimit:10;" d="M 504.226562 165.449219 C 504.226562 182.019531 490.792969 195.449219 474.226562 195.449219 C 457.65625 195.449219 444.226562 182.019531 444.226562 165.449219 C 444.226562 148.882812 457.65625 135.449219 474.226562 135.449219 C 490.792969 135.449219 504.226562 148.882812 504.226562 165.449219 "/>
</g>
</svg>
