<?xml version="1.0" encoding="UTF-8"?>
<svg xmlns="http://www.w3.org/2000/svg" xmlns:xlink="http://www.w3.org/1999/xlink" width="517pt" height="517pt" viewBox="0 0 517 517" version="1.1">
<g id="surface5726">
<rect x="0" y="0" width="517" height="517" style="fill:rgb(90%,90%,90%);fill-opacity:1;stroke:none;"/>
<path style="fill-rule:nonzero;fill:rgb(35%,70%,90%);fill-opacity:1;stroke-width:1;stroke-linecap:butt;stroke-linejoin:miter;stroke:rgb(0%,0%,0%);stroke-opacity:1;stroke-miterlimit:10;" d="M 403.851562 117.027344 C 403.851562 133.597656 390.421875 147.027344 373.851562 147.027344 C 357.285156 147.027344 343.851562 133.597656 343.851562 117.027344 C 343.851562 100.460938 357.285156 87.027344 373.851562 87.027344 C 390.421875 87.027344 403.851562 100.460938 403.851562 117.027344 "/>
<path style="fill-rule:nonzero;fill:rgb(35%,70%,90%);fill-opacity:1;stroke-width:1;stroke-linecap:butt;stroke-linejoin:miter;stroke:rgb(0%,0%,0%);stroke-opacity:1;stroke-miterlimit:10;" d="M 87.671875 368.402344 C 87.671875 384.972656 74.238281 398.402344 57.671875 398.402344 C 41.101562 398.402344 27.671875 384.972656 27.671875 368.402344 C 27.671875 351.835938 41.101562 338.402344 57.671875 338.402344 C 74.238281 338.402344 87.671875 351.835938 87.671875 368.402344 "/>
<path style="fill-rule:nonzero;fill:rgb(35%,70%,90%);fill-opacity:1;stroke-width:1;stroke-linecap:butt;stroke-linejoin:miter;stroke:rgb(0%,0%,0%);stroke-opacity:1;stroke-miterlimit:10;" d="M 181.914062 323.527344 C 181.914062 340.09375 168.480469 353.527344 151.914062 353.527344 C 135.34375 353.527344 121.914062 340.09375 121.914062 323.527344 C 121.914062 306.957031 135.34375 293.527344 151.914062 293.527344 C 168.480469 293.527344 181.914062 306.957031 181.914062 323.527344 "/>
<path style="fill-rule:nonzero;fill:rgb(35%,70%,90%);fill-opacity:1;stroke-width:1;stroke-linecap:butt;stroke-linejoin:miter;stroke:rgb(0%,0%,0%);stroke-opacity:1;stroke-miterlimit:10;" d="M 244.882812 360.984375 C 244.882812 377.550781 231.453125 390.984375 214.882812 390.984375 C 198.316406 390.984375 184.882812 377.550781 184.882812 360.984375 C 184.882812 344.414062 198.316406 330.984375 214.882812 330.984375 C 231.453125 330.984375 244.882812 344.414062 244.882812 360.984375 "/>
<path style="fill-rule:nonzero;fill:rgb(35%,70%,90%);fill-opacity:1;stroke-width:1;stroke-linecap:butt;stroke-linejoin:miter;stroke:rgb(0%,0%,0%);stroke-opacity:1;stroke-miterlimit:10;" d="M 72.664062 432.070312 C 72.664062 448.640625 59.230469 462.070312 42.664062 462.070312 C 26.09375 462.070312 12.664062 448.640625 12.664062 432.070312 C 12.664062 415.503906 26.09375 402.070312 42.664062 402.070312 C 59.230469 402.070312 72.664062 415.503906 72.664062 432.070312 "/>
<path style="fill-rule:nonzero;fill:rgb(35%,70%,90%);fill-opacity:1;stroke-width:1;stroke-linecap:butt;stroke-linejoin:miter;stroke:rgb(0%,0%,0%);stroke-opacity:1;stroke-miterlimit:10;" d="M 237.164062 295.929688 C 237.164062 312.496094 223.734375 325.929688 207.164062 325.929688 C 190.597656 325.929688 177.164062 312.496094 177.164062 295.929688 C 177.164062 279.359375 190.597656 265.929688 207.164062 265.929688 C 223.734375 265.929688 237.164062 279.359375 237.164062 295.929688 "/>
<path style="fill-rule:nonzero;fill:rgb(35%,70%,90%);fill-opacity:1;stroke-width:1;stroke-linecap:butt;stroke-linejoin:miter;stroke:rgb(0%,0%,0%);stroke-opacity:1;stroke-miterlimit:10;" d="M 159.398438 214.535156 C 159.398438 231.105469 145.964844 244.535156 129.398438 244.535156 C 112.828125 244.535156 99.398438 231.105469 99.398438 214.535156 C 99.398438 197.964844 112.828125 184.535156 129.398438 184.535156 C 145.964844 184.535156 159.398438 197.964844 159.398438 214.535156 "/>
<path style="fill-rule:nonzero;fill:rgb(35%,70%,90%);fill-opacity:1;stroke-width:1;stroke-linecap:butt;stroke-linejoin:miter;stroke:rgb(0%,0%,0%);stroke-opacity:1;stroke-miterlimit:10;" d="M 108.496094 133.601562 C 108.496094 150.171875 95.066406 163.601562 78.496094 163.601562 C 61.929688 163.601562 48.496094 150.171875 48.496094 133.601562 C 48.496094 117.035156 61.929688 103.601562 78.496094 103.601562 C 95.066406 103.601562 108.496094 117.035156 108.496094 133.601562 "/>
</g>
</svg>
