<?xml version="1.0" encoding="UTF-8"?>
<svg xmlns="http://www.w3.org/2000/svg" xmlns:xlink="http://www.w3.org/1999/xlink" width="517pt" height="517pt" viewBox="0 0 517 517" version="1.1">
<g id="surface566">
<rect x="0" y="0" width="517" height="517" style="fill:rgb(90%,90%,90%);fill-opacity:1;stroke:none;"/>
<path style="fill:none;stroke-width:5;stroke-linecap:butt;stroke-linejoin:round;stroke:rgb(100%,0%,0%);stroke-opacity:1;stroke-miterlimit:10;" d="M 261 5 L 517 5 L 517 261 L 261 261 Z M 261 5 "/>
<path style="fill-rule:nonzero;fill:rgb(35%,70%,90%);fill-opacity:1;stroke-width:1;stroke-linecap:butt;stroke-linejoin:round;stroke:rgb(0%,0%,0%);stroke-opacity:1;stroke-miterlimit:10;" d="M 503.449219 67.429688 C 503.449219 84 490.015625 97.429688 473.449219 97.429688 C 456.878906 97.429688 443.449219 84 443.449219 67.429688 C 443.449219 50.863281 456.878906 37.429688 473.449219 37.429688 C 490.015625 37.429688 503.449219 50.863281 503.449219 67.429688 "/>
<path style="fill-rule:nonzero;fill:rgb(67%,100%,18%);fill-opacity:1;stroke-width:1;stroke-linecap:butt;stroke-linejoin:round;stroke:rgb(0%,0%,0%);stroke-opacity:1;stroke-miterlimit:10;" d="M 236.558594 163.90625 C 236.558594 180.476562 223.128906 193.90625 206.558594 193.90625 C 189.992188 193.90625 176.558594 180.476562 176.558594 163.90625 C 176.558594 147.339844 189.992188 133.90625 206.558594 133.90625 C 223.128906 133.90625 236.558594 147.339844 236.558594 163.90625 "/>
<path style="fill-rule:nonzero;fill:rgb(67%,100%,18%);fill-opacity:1;stroke-width:1;stroke-linecap:butt;stroke-linejoin:round;stroke:rgb(0%,0%,0%);stroke-opacity:1;stroke-miterlimit:10;" d="M 226.25 455.832031 C 226.25 472.402344 212.816406 485.832031 196.25 485.832031 C 179.679688 485.832031 166.25 472.402344 166.25 455.832031 C 166.25 439.265625 179.679688 425.832031 196.25 425.832031 C 212.816406 425.832031 226.25 439.265625 226.25 455.832031 "/>
<path style="fill-rule:nonzero;fill:rgb(67%,100%,18%);fill-opacity:1;stroke-width:1;stroke-linecap:butt;stroke-linejoin:round;stroke:rgb(0%,0%,0%);stroke-opacity:1;stroke-miterlimit:10;" d="M 444.136719 466.605469 C 444.136719 483.175781 430.707031 496.605469 414.136719 496.605469 C 397.570312 496.605469 384.136719 483.175781 384.136719 466.605469 C 384.136719 450.039062 397.570312 436.605469 414.136719 436.605469 C 430.707031 436.605469 444.136719 450.039062 444.136719 466.605469 "/>
</g>
</svg>
