<?xml version="1.0" encoding="UTF-8"?>
<svg xmlns="http://www.w3.org/2000/svg" xmlns:xlink="http://www.w3.org/1999/xlink" width="517pt" height="517pt" viewBox="0 0 517 517" version="1.1">
<g id="surface12656">
<rect x="0" y="0" width="517" height="517" style="fill:rgb(90%,90%,90%);fill-opacity:1;stroke:none;"/>
<path style="fill-rule:nonzero;fill:rgb(35%,70%,90%);fill-opacity:1;stroke-width:1;stroke-linecap:butt;stroke-linejoin:miter;stroke:rgb(0%,0%,0%);stroke-opacity:1;stroke-miterlimit:10;" d="M 161.53125 185.058594 L 141.53125 185.058594 L 141.53125 195.058594 L 161.53125 195.058594 L 161.53125 215.058594 L 171.53125 215.058594 L 171.53125 195.058594 L 191.53125 195.058594 L 191.53125 185.058594 L 171.53125 185.058594 L 171.53125 165.058594 L 161.53125 165.058594 L 161.53125 185.058594 "/>
<path style="fill-rule:nonzero;fill:rgb(35%,70%,90%);fill-opacity:1;stroke-width:1;stroke-linecap:butt;stroke-linejoin:miter;stroke:rgb(0%,0%,0%);stroke-opacity:1;stroke-miterlimit:10;" d="M 35.628906 432.289062 L 15.628906 432.289062 L 15.628906 442.289062 L 35.628906 442.289062 L 35.628906 462.289062 L 45.628906 462.289062 L 45.628906 442.289062 L 65.628906 442.289062 L 65.628906 432.289062 L 45.628906 432.289062 L 45.628906 412.289062 L 35.628906 412.289062 L 35.628906 432.289062 "/>
<path style="fill-rule:nonzero;fill:rgb(35%,70%,90%);fill-opacity:1;stroke-width:1;stroke-linecap:butt;stroke-linejoin:miter;stroke:rgb(0%,0%,0%);stroke-opacity:1;stroke-miterlimit:10;" d="M 311.246094 44.964844 L 291.246094 44.964844 L 291.246094 54.964844 L 311.246094 54.964844 L 311.246094 74.964844 L 321.246094 74.964844 L 321.246094 54.964844 L 341.246094 54.964844 L 341.246094 44.964844 L 321.246094 44.964844 L 321.246094 24.964844 L 311.246094 24.964844 L 311.246094 44.964844 "/>
<path style="fill-rule:nonzero;fill:rgb(35%,70%,90%);fill-opacity:1;stroke-width:1;stroke-linecap:butt;stroke-linejoin:miter;stroke:rgb(0%,0%,0%);stroke-opacity:1;stroke-miterlimit:10;" d="M 356.382812 192.964844 L 336.382812 192.964844 L 336.382812 202.964844 L 356.382812 202.964844 L 356.382812 222.964844 L 366.382812 222.964844 L 366.382812 202.964844 L 386.382812 202.964844 L 386.382812 192.964844 L 366.382812 192.964844 L 366.382812 172.964844 L 356.382812 172.964844 L 356.382812 192.964844 "/>
<path style="fill-rule:nonzero;fill:rgb(35%,70%,90%);fill-opacity:1;stroke-width:1;stroke-linecap:butt;stroke-linejoin:miter;stroke:rgb(0%,0%,0%);stroke-opacity:1;stroke-miterlimit:10;" d="M 390.949219 78.339844 L 370.949219 78.339844 L 370.949219 88.339844 L 390.949219 88.339844 L 390.949219 108.339844 L 400.949219 108.339844 L 400.949219 88.339844 L 420.949219 88.339844 L 420.949219 78.339844 L 400.949219 78.339844 L 400.949219 58.339844 L 390.949219 58.339844 L 390.949219 78.339844 "/>
</g>
</svg>
