<?xml version="1.0" encoding="UTF-8"?>
<svg xmlns="http://www.w3.org/2000/svg" xmlns:xlink="http://www.w3.org/1999/xlink" width="517pt" height="517pt" viewBox="0 0 517 517" version="1.1">
<g id="surface13256">
<rect x="0" y="0" width="517" height="517" style="fill:rgb(90%,90%,90%);fill-opacity:1;stroke:none;"/>
<path style="fill-rule:nonzero;fill:rgb(90%,65%,0%);fill-opacity:1;stroke-width:1;stroke-linecap:butt;stroke-linejoin:miter;stroke:rgb(0%,0%,0%);stroke-opacity:1;stroke-miterlimit:10;" d="M 452.757812 56.824219 C 452.757812 73.394531 439.328125 86.824219 422.757812 86.824219 C 406.191406 86.824219 392.757812 73.394531 392.757812 56.824219 C 392.757812 40.257812 406.191406 26.824219 422.757812 26.824219 C 439.328125 26.824219 452.757812 40.257812 452.757812 56.824219 "/>
<path style="fill-rule:nonzero;fill:rgb(50%,0%,50%);fill-opacity:1;stroke-width:1;stroke-linecap:butt;stroke-linejoin:miter;stroke:rgb(0%,0%,0%);stroke-opacity:1;stroke-miterlimit:10;" d="M 349.726562 111.914062 C 349.726562 128.484375 336.296875 141.914062 319.726562 141.914062 C 303.160156 141.914062 289.726562 128.484375 289.726562 111.914062 C 289.726562 95.34375 303.160156 81.914062 319.726562 81.914062 C 336.296875 81.914062 349.726562 95.34375 349.726562 111.914062 "/>
<path style="fill-rule:nonzero;fill:rgb(50%,0%,50%);fill-opacity:1;stroke-width:1;stroke-linecap:butt;stroke-linejoin:miter;stroke:rgb(0%,0%,0%);stroke-opacity:1;stroke-miterlimit:10;" d="M 143.46875 365.40625 C 143.46875 381.972656 130.039062 395.40625 113.46875 395.40625 C 96.902344 395.40625 83.46875 381.972656 83.46875 365.40625 C 83.46875 348.835938 96.902344 335.40625 113.46875 335.40625 C 130.039062 335.40625 143.46875 348.835938 143.46875 365.40625 "/>
<path style="fill-rule:nonzero;fill:rgb(50%,0%,50%);fill-opacity:1;stroke-width:1;stroke-linecap:butt;stroke-linejoin:miter;stroke:rgb(0%,0%,0%);stroke-opacity:1;stroke-miterlimit:10;" d="M 147.386719 112.828125 C 147.386719 129.398438 133.953125 142.828125 117.386719 142.828125 C 100.816406 142.828125 87.386719 129.398438 87.386719 112.828125 C 87.386719 96.261719 100.816406 82.828125 117.386719 82.828125 C 133.953125 82.828125 147.386719 96.261719 147.386719 112.828125 "/>
<path style="fill-rule:nonzero;fill:rgb(50%,0%,50%);fill-opacity:1;stroke-width:1;stroke-linecap:butt;stroke-linejoin:miter;stroke:rgb(0%,0%,0%);stroke-opacity:1;stroke-miterlimit:10;" d="M 240.472656 152.160156 C 240.472656 168.730469 227.039062 182.160156 210.472656 182.160156 C 193.902344 182.160156 180.472656 168.730469 180.472656 152.160156 C 180.472656 135.59375 193.902344 122.160156 210.472656 122.160156 C 227.039062 122.160156 240.472656 135.59375 240.472656 152.160156 "/>
</g>
</svg>
