<?xml version="1.0" encoding="UTF-8"?>
<svg xmlns="http://www.w3.org/2000/svg" xmlns:xlink="http://www.w3.org/1999/xlink" width="517pt" height="517pt" viewBox="0 0 517 517" version="1.1">
<g id="surface13136">
<rect x="0" y="0" width="517" height="517" style="fill:rgb(90%,90%,90%);fill-opacity:1;stroke:none;"/>
<path style="fill-rule:nonzero;fill:rgb(90%,65%,0%);fill-opacity:1;stroke-width:1;stroke-linecap:butt;stroke-linejoin:miter;stroke:rgb(0%,0%,0%);stroke-opacity:1;stroke-miterlimit:10;" d="M 446.675781 453.671875 C 446.675781 470.238281 433.246094 483.671875 416.675781 483.671875 C 400.109375 483.671875 386.675781 470.238281 386.675781 453.671875 C 386.675781 437.101562 400.109375 423.671875 416.675781 423.671875 C 433.246094 423.671875 446.675781 437.101562 446.675781 453.671875 "/>
<path style="fill-rule:nonzero;fill:rgb(50%,0%,50%);fill-opacity:1;stroke-width:1;stroke-linecap:butt;stroke-linejoin:miter;stroke:rgb(0%,0%,0%);stroke-opacity:1;stroke-miterlimit:10;" d="M 465.03125 327.117188 C 465.03125 343.683594 451.601562 357.117188 435.03125 357.117188 C 418.464844 357.117188 405.03125 343.683594 405.03125 327.117188 C 405.03125 310.546875 418.464844 297.117188 435.03125 297.117188 C 451.601562 297.117188 465.03125 310.546875 465.03125 327.117188 "/>
<path style="fill-rule:nonzero;fill:rgb(50%,0%,50%);fill-opacity:1;stroke-width:1;stroke-linecap:butt;stroke-linejoin:miter;stroke:rgb(0%,0%,0%);stroke-opacity:1;stroke-miterlimit:10;" d="M 213.769531 301.257812 C 213.769531 317.828125 200.339844 331.257812 183.769531 331.257812 C 167.203125 331.257812 153.769531 317.828125 153.769531 301.257812 C 153.769531 284.6875 167.203125 271.257812 183.769531 271.257812 C 200.339844 271.257812 213.769531 284.6875 213.769531 301.257812 "/>
<path style="fill-rule:nonzero;fill:rgb(50%,0%,50%);fill-opacity:1;stroke-width:1;stroke-linecap:butt;stroke-linejoin:miter;stroke:rgb(0%,0%,0%);stroke-opacity:1;stroke-miterlimit:10;" d="M 79.234375 402.113281 C 79.234375 418.683594 65.800781 432.113281 49.234375 432.113281 C 32.664062 432.113281 19.234375 418.683594 19.234375 402.113281 C 19.234375 385.542969 32.664062 372.113281 49.234375 372.113281 C 65.800781 372.113281 79.234375 385.542969 79.234375 402.113281 "/>
<path style="fill-rule:nonzero;fill:rgb(50%,0%,50%);fill-opacity:1;stroke-width:1;stroke-linecap:butt;stroke-linejoin:miter;stroke:rgb(0%,0%,0%);stroke-opacity:1;stroke-miterlimit:10;" d="M 236.355469 426.6875 C 236.355469 443.257812 222.921875 456.6875 206.355469 456.6875 C 189.785156 456.6875 176.355469 443.257812 176.355469 426.6875 C 176.355469 410.121094 189.785156 396.6875 206.355469 396.6875 C 222.921875 396.6875 236.355469 410.121094 236.355469 426.6875 "/>
</g>
</svg>
