<?xml version="1.0" encoding="UTF-8"?>
<svg xmlns="http://www.w3.org/2000/svg" xmlns:xlink="http://www.w3.org/1999/xlink" width="517pt" height="517pt" viewBox="0 0 517 517" version="1.1">
<g id="surface5716">
<rect x="0" y="0" width="517" height="517" style="fill:rgb(90%,90%,90%);fill-opacity:1;stroke:none;"/>
<path style="fill-rule:nonzero;fill:rgb(67%,100%,18%);fill-opacity:1;stroke-width:1;stroke-linecap:butt;stroke-linejoin:miter;stroke:rgb(0%,0%,0%);stroke-opacity:1;stroke-miterlimit:10;" d="M 455.066406 372.222656 C 455.066406 388.792969 441.632812 402.222656 425.066406 402.222656 C 408.496094 402.222656 395.066406 388.792969 395.066406 372.222656 C 395.066406 355.65625 408.496094 342.222656 425.066406 342.222656 C 441.632812 342.222656 455.066406 355.65625 455.066406 372.222656 "/>
<path style="fill-rule:nonzero;fill:rgb(67%,100%,18%);fill-opacity:1;stroke-width:1;stroke-linecap:butt;stroke-linejoin:miter;stroke:rgb(0%,0%,0%);stroke-opacity:1;stroke-miterlimit:10;" d="M 71.550781 303.496094 C 71.550781 320.0625 58.117188 333.496094 41.550781 333.496094 C 24.980469 333.496094 11.550781 320.0625 11.550781 303.496094 C 11.550781 286.925781 24.980469 273.496094 41.550781 273.496094 C 58.117188 273.496094 71.550781 286.925781 71.550781 303.496094 "/>
<path style="fill-rule:nonzero;fill:rgb(67%,100%,18%);fill-opacity:1;stroke-width:1;stroke-linecap:butt;stroke-linejoin:miter;stroke:rgb(0%,0%,0%);stroke-opacity:1;stroke-miterlimit:10;" d="M 199.585938 392.808594 C 199.585938 409.378906 186.152344 422.808594 169.585938 422.808594 C 153.015625 422.808594 139.585938 409.378906 139.585938 392.808594 C 139.585938 376.242188 153.015625 362.808594 169.585938 362.808594 C 186.152344 362.808594 199.585938 376.242188 199.585938 392.808594 "/>
<path style="fill-rule:nonzero;fill:rgb(35%,70%,90%);fill-opacity:1;stroke-width:1;stroke-linecap:butt;stroke-linejoin:miter;stroke:rgb(0%,0%,0%);stroke-opacity:1;stroke-miterlimit:10;" d="M 117.421875 466.574219 C 117.421875 483.144531 103.992188 496.574219 87.421875 496.574219 C 70.851562 496.574219 57.421875 483.144531 57.421875 466.574219 C 57.421875 450.003906 70.851562 436.574219 87.421875 436.574219 C 103.992188 436.574219 117.421875 450.003906 117.421875 466.574219 "/>
<path style="fill-rule:nonzero;fill:rgb(35%,70%,90%);fill-opacity:1;stroke-width:1;stroke-linecap:butt;stroke-linejoin:miter;stroke:rgb(0%,0%,0%);stroke-opacity:1;stroke-miterlimit:10;" d="M 200.914062 324.703125 C 200.914062 341.273438 187.480469 354.703125 170.914062 354.703125 C 154.34375 354.703125 140.914062 341.273438 140.914062 324.703125 C 140.914062 308.136719 154.34375 294.703125 170.914062 294.703125 C 187.480469 294.703125 200.914062 308.136719 200.914062 324.703125 "/>
<path style="fill-rule:nonzero;fill:rgb(35%,70%,90%);fill-opacity:1;stroke-width:1;stroke-linecap:butt;stroke-linejoin:miter;stroke:rgb(0%,0%,0%);stroke-opacity:1;stroke-miterlimit:10;" d="M 96.0625 385.324219 C 96.0625 401.894531 82.632812 415.324219 66.0625 415.324219 C 49.496094 415.324219 36.0625 401.894531 36.0625 385.324219 C 36.0625 368.757812 49.496094 355.324219 66.0625 355.324219 C 82.632812 355.324219 96.0625 368.757812 96.0625 385.324219 "/>
<path style="fill-rule:nonzero;fill:rgb(35%,70%,90%);fill-opacity:1;stroke-width:1;stroke-linecap:butt;stroke-linejoin:miter;stroke:rgb(0%,0%,0%);stroke-opacity:1;stroke-miterlimit:10;" d="M 143.863281 136.636719 C 143.863281 153.203125 130.433594 166.636719 113.863281 166.636719 C 97.296875 166.636719 83.863281 153.203125 83.863281 136.636719 C 83.863281 120.066406 97.296875 106.636719 113.863281 106.636719 C 130.433594 106.636719 143.863281 120.066406 143.863281 136.636719 "/>
<path style="fill-rule:nonzero;fill:rgb(35%,70%,90%);fill-opacity:1;stroke-width:1;stroke-linecap:butt;stroke-linejoin:miter;stroke:rgb(0%,0%,0%);stroke-opacity:1;stroke-miterlimit:10;" d="M 95.96875 64.023438 C 95.96875 80.59375 82.535156 94.023438 65.96875 94.023438 C 49.398438 94.023438 35.96875 80.59375 35.96875 64.023438 C 35.96875 47.457031 49.398438 34.023438 65.96875 34.023438 C 82.535156 34.023438 95.96875 47.457031 95.96875 64.023438 "/>
</g>
</svg>
