<?xml version="1.0" encoding="UTF-8"?>
<svg xmlns="http://www.w3.org/2000/svg" xmlns:xlink="http://www.w3.org/1999/xlink" width="517pt" height="517pt" viewBox="0 0 517 517" version="1.1">
<g id="surface12876">
<rect x="0" y="0" width="517" height="517" style="fill:rgb(90%,90%,90%);fill-opacity:1;stroke:none;"/>
<path style="fill-rule:nonzero;fill:rgb(67%,100%,18%);fill-opacity:1;stroke-width:1;stroke-linecap:butt;stroke-linejoin:miter;stroke:rgb(0%,0%,0%);stroke-opacity:1;stroke-miterlimit:10;" d="M 400.023438 42.171875 C 400.023438 58.742188 386.589844 72.171875 370.023438 72.171875 C 353.453125 72.171875 340.023438 58.742188 340.023438 42.171875 C 340.023438 25.605469 353.453125 12.171875 370.023438 12.171875 C 386.589844 12.171875 400.023438 25.605469 400.023438 42.171875 "/>
<path style="fill-rule:nonzero;fill:rgb(67%,100%,18%);fill-opacity:1;stroke-width:1;stroke-linecap:butt;stroke-linejoin:miter;stroke:rgb(0%,0%,0%);stroke-opacity:1;stroke-miterlimit:10;" d="M 390.402344 461.5625 C 390.402344 478.128906 376.96875 491.5625 360.402344 491.5625 C 343.832031 491.5625 330.402344 478.128906 330.402344 461.5625 C 330.402344 444.992188 343.832031 431.5625 360.402344 431.5625 C 376.96875 431.5625 390.402344 444.992188 390.402344 461.5625 "/>
<path style="fill-rule:nonzero;fill:rgb(67%,100%,18%);fill-opacity:1;stroke-width:1;stroke-linecap:butt;stroke-linejoin:miter;stroke:rgb(0%,0%,0%);stroke-opacity:1;stroke-miterlimit:10;" d="M 66.230469 149.503906 C 66.230469 166.070312 52.800781 179.503906 36.230469 179.503906 C 19.664062 179.503906 6.230469 166.070312 6.230469 149.503906 C 6.230469 132.933594 19.664062 119.503906 36.230469 119.503906 C 52.800781 119.503906 66.230469 132.933594 66.230469 149.503906 "/>
<path style="fill-rule:nonzero;fill:rgb(67%,100%,18%);fill-opacity:1;stroke-width:1;stroke-linecap:butt;stroke-linejoin:miter;stroke:rgb(0%,0%,0%);stroke-opacity:1;stroke-miterlimit:10;" d="M 242.558594 153.050781 C 242.558594 169.617188 229.125 183.050781 212.558594 183.050781 C 195.988281 183.050781 182.558594 169.617188 182.558594 153.050781 C 182.558594 136.480469 195.988281 123.050781 212.558594 123.050781 C 229.125 123.050781 242.558594 136.480469 242.558594 153.050781 "/>
<path style="fill-rule:nonzero;fill:rgb(67%,100%,18%);fill-opacity:1;stroke-width:1;stroke-linecap:butt;stroke-linejoin:miter;stroke:rgb(0%,0%,0%);stroke-opacity:1;stroke-miterlimit:10;" d="M 152.875 64.609375 C 152.875 81.175781 139.445312 94.609375 122.875 94.609375 C 106.308594 94.609375 92.875 81.175781 92.875 64.609375 C 92.875 48.039062 106.308594 34.609375 122.875 34.609375 C 139.445312 34.609375 152.875 48.039062 152.875 64.609375 "/>
<path style="fill-rule:nonzero;fill:rgb(67%,100%,18%);fill-opacity:1;stroke-width:1;stroke-linecap:butt;stroke-linejoin:miter;stroke:rgb(0%,0%,0%);stroke-opacity:1;stroke-miterlimit:10;" d="M 244.773438 91.460938 C 244.773438 108.03125 231.339844 121.460938 214.773438 121.460938 C 198.203125 121.460938 184.773438 108.03125 184.773438 91.460938 C 184.773438 74.894531 198.203125 61.460938 214.773438 61.460938 C 231.339844 61.460938 244.773438 74.894531 244.773438 91.460938 "/>
</g>
</svg>
