<?xml version="1.0" encoding="UTF-8"?>
<svg xmlns="http://www.w3.org/2000/svg" xmlns:xlink="http://www.w3.org/1999/xlink" width="517pt" height="517pt" viewBox="0 0 517 517" version="1.1">
<g id="surface571">
<rect x="0" y="0" width="517" height="517" style="fill:rgb(90%,90%,90%);fill-opacity:1;stroke:none;"/>
<path style="fill:none;stroke-width:5;stroke-linecap:butt;stroke-linejoin:round;stroke:rgb(100%,0%,0%);stroke-opacity:1;stroke-miterlimit:10;" d="M 261 5 L 517 5 L 517 261 L 261 261 Z M 261 5 "/>
<path style="fill-rule:nonzero;fill:rgb(35%,70%,90%);fill-opacity:1;stroke-width:1;stroke-linecap:butt;stroke-linejoin:round;stroke:rgb(0%,0%,0%);stroke-opacity:1;stroke-miterlimit:10;" d="M 365.199219 183.8125 C 365.199219 200.378906 351.769531 213.8125 335.199219 213.8125 C 318.632812 213.8125 305.199219 200.378906 305.199219 183.8125 C 305.199219 167.242188 318.632812 153.8125 335.199219 153.8125 C 351.769531 153.8125 365.199219 167.242188 365.199219 183.8125 "/>
<path style="fill-rule:nonzero;fill:rgb(67%,100%,18%);fill-opacity:1;stroke-width:1;stroke-linecap:butt;stroke-linejoin:round;stroke:rgb(0%,0%,0%);stroke-opacity:1;stroke-miterlimit:10;" d="M 475.996094 384.296875 C 475.996094 400.867188 462.566406 414.296875 445.996094 414.296875 C 429.425781 414.296875 415.996094 400.867188 415.996094 384.296875 C 415.996094 367.726562 429.425781 354.296875 445.996094 354.296875 C 462.566406 354.296875 475.996094 367.726562 475.996094 384.296875 "/>
<path style="fill-rule:nonzero;fill:rgb(67%,100%,18%);fill-opacity:1;stroke-width:1;stroke-linecap:butt;stroke-linejoin:round;stroke:rgb(0%,0%,0%);stroke-opacity:1;stroke-miterlimit:10;" d="M 506.757812 325.898438 C 506.757812 342.46875 493.324219 355.898438 476.757812 355.898438 C 460.1875 355.898438 446.757812 342.46875 446.757812 325.898438 C 446.757812 309.332031 460.1875 295.898438 476.757812 295.898438 C 493.324219 295.898438 506.757812 309.332031 506.757812 325.898438 "/>
<path style="fill-rule:nonzero;fill:rgb(67%,100%,18%);fill-opacity:1;stroke-width:1;stroke-linecap:butt;stroke-linejoin:round;stroke:rgb(0%,0%,0%);stroke-opacity:1;stroke-miterlimit:10;" d="M 226.828125 70.011719 C 226.828125 86.582031 213.394531 100.011719 196.828125 100.011719 C 180.257812 100.011719 166.828125 86.582031 166.828125 70.011719 C 166.828125 53.445312 180.257812 40.011719 196.828125 40.011719 C 213.394531 40.011719 226.828125 53.445312 226.828125 70.011719 "/>
</g>
</svg>
