<?xml version="1.0" encoding="UTF-8"?>
<svg xmlns="http://www.w3.org/2000/svg" xmlns:xlink="http://www.w3.org/1999/xlink" width="517pt" height="517pt" viewBox="0 0 517 517" version="1.1">
<g id="surface601">
<rect x="0" y="0" width="517" height="517" style="fill:rgb(90%,90%,90%);fill-opacity:1;stroke:none;"/>
<path style="fill:none;stroke-width:5;stroke-linecap:butt;stroke-linejoin:round;stroke:rgb(100%,0%,0%);stroke-opacity:1;stroke-miterlimit:10;" d="M 261 5 L 517 5 L 517 261 L 261 261 Z M 261 5 "/>
<path style="fill-rule:nonzero;fill:rgb(35%,70%,90%);fill-opacity:1;stroke-width:1;stroke-linecap:butt;stroke-linejoin:round;stroke:rgb(0%,0%,0%);stroke-opacity:1;stroke-miterlimit:10;" d="M 502.921875 183.648438 C 502.921875 200.21875 489.492188 213.648438 472.921875 213.648438 C 456.355469 213.648438 442.921875 200.21875 442.921875 183.648438 C 442.921875 167.082031 456.355469 153.648438 472.921875 153.648438 C 489.492188 153.648438 502.921875 167.082031 502.921875 183.648438 "/>
<path style="fill-rule:nonzero;fill:rgb(67%,100%,18%);fill-opacity:1;stroke-width:1;stroke-linecap:butt;stroke-linejoin:round;stroke:rgb(0%,0%,0%);stroke-opacity:1;stroke-miterlimit:10;" d="M 486.441406 348.648438 C 486.441406 365.21875 473.007812 378.648438 456.441406 378.648438 C 439.871094 378.648438 426.441406 365.21875 426.441406 348.648438 C 426.441406 332.082031 439.871094 318.648438 456.441406 318.648438 C 473.007812 318.648438 486.441406 332.082031 486.441406 348.648438 "/>
<path style="fill-rule:nonzero;fill:rgb(35%,70%,90%);fill-opacity:1;stroke-width:1;stroke-linecap:butt;stroke-linejoin:round;stroke:rgb(0%,0%,0%);stroke-opacity:1;stroke-miterlimit:10;" d="M 68.429688 197.816406 C 68.429688 214.386719 54.996094 227.816406 38.429688 227.816406 C 21.859375 227.816406 8.429688 214.386719 8.429688 197.816406 C 8.429688 181.25 21.859375 167.816406 38.429688 167.816406 C 54.996094 167.816406 68.429688 181.25 68.429688 197.816406 "/>
<path style="fill-rule:nonzero;fill:rgb(35%,70%,90%);fill-opacity:1;stroke-width:1;stroke-linecap:butt;stroke-linejoin:round;stroke:rgb(0%,0%,0%);stroke-opacity:1;stroke-miterlimit:10;" d="M 245.308594 87.003906 C 245.308594 103.570312 231.878906 117.003906 215.308594 117.003906 C 198.742188 117.003906 185.308594 103.570312 185.308594 87.003906 C 185.308594 70.433594 198.742188 57.003906 215.308594 57.003906 C 231.878906 57.003906 245.308594 70.433594 245.308594 87.003906 "/>
</g>
</svg>
