<?xml version="1.0" encoding="UTF-8"?>
<svg xmlns="http://www.w3.org/2000/svg" xmlns:xlink="http://www.w3.org/1999/xlink" width="517pt" height="517pt" viewBox="0 0 517 517" version="1.1">
<g id="surface12676">
<rect x="0" y="0" width="517" height="517" style="fill:rgb(90%,90%,90%);fill-opacity:1;stroke:none;"/>
<path style="fill-rule:nonzero;fill:rgb(35%,70%,90%);fill-opacity:1;stroke-width:1;stroke-linecap:butt;stroke-linejoin:miter;stroke:rgb(0%,0%,0%);stroke-opacity:1;stroke-miterlimit:10;" d="M 374.996094 307.683594 L 354.996094 307.683594 L 354.996094 317.683594 L 374.996094 317.683594 L 374.996094 337.683594 L 384.996094 337.683594 L 384.996094 317.683594 L 404.996094 317.683594 L 404.996094 307.683594 L 384.996094 307.683594 L 384.996094 287.683594 L 374.996094 287.683594 L 374.996094 307.683594 "/>
<path style="fill-rule:nonzero;fill:rgb(35%,70%,90%);fill-opacity:1;stroke-width:1;stroke-linecap:butt;stroke-linejoin:miter;stroke:rgb(0%,0%,0%);stroke-opacity:1;stroke-miterlimit:10;" d="M 215.183594 200.363281 L 195.183594 200.363281 L 195.183594 210.363281 L 215.183594 210.363281 L 215.183594 230.363281 L 225.183594 230.363281 L 225.183594 210.363281 L 245.183594 210.363281 L 245.183594 200.363281 L 225.183594 200.363281 L 225.183594 180.363281 L 215.183594 180.363281 L 215.183594 200.363281 "/>
<path style="fill-rule:nonzero;fill:rgb(35%,70%,90%);fill-opacity:1;stroke-width:1;stroke-linecap:butt;stroke-linejoin:miter;stroke:rgb(0%,0%,0%);stroke-opacity:1;stroke-miterlimit:10;" d="M 202.308594 133.132812 L 182.308594 133.132812 L 182.308594 143.132812 L 202.308594 143.132812 L 202.308594 163.132812 L 212.308594 163.132812 L 212.308594 143.132812 L 232.308594 143.132812 L 232.308594 133.132812 L 212.308594 133.132812 L 212.308594 113.132812 L 202.308594 113.132812 L 202.308594 133.132812 "/>
<path style="fill-rule:nonzero;fill:rgb(35%,70%,90%);fill-opacity:1;stroke-width:1;stroke-linecap:butt;stroke-linejoin:miter;stroke:rgb(0%,0%,0%);stroke-opacity:1;stroke-miterlimit:10;" d="M 445.34375 39.21875 L 425.34375 39.21875 L 425.34375 49.21875 L 445.34375 49.21875 L 445.34375 69.21875 L 455.34375 69.21875 L 455.34375 49.21875 L 475.34375 49.21875 L 475.34375 39.21875 L 455.34375 39.21875 L 455.34375 19.21875 L 445.34375 19.21875 L 445.34375 39.21875 "/>
<path style="fill-rule:nonzero;fill:rgb(35%,70%,90%);fill-opacity:1;stroke-width:1;stroke-linecap:butt;stroke-linejoin:miter;stroke:rgb(0%,0%,0%);stroke-opacity:1;stroke-miterlimit:10;" d="M 316.863281 163.234375 L 296.863281 163.234375 L 296.863281 173.234375 L 316.863281 173.234375 L 316.863281 193.234375 L 326.863281 193.234375 L 326.863281 173.234375 L 346.863281 173.234375 L 346.863281 163.234375 L 326.863281 163.234375 L 326.863281 143.234375 L 316.863281 143.234375 L 316.863281 163.234375 "/>
</g>
</svg>
