<?xml version="1.0" encoding="UTF-8"?>
<svg xmlns="http://www.w3.org/2000/svg" xmlns:xlink="http://www.w3.org/1999/xlink" width="517pt" height="517pt" viewBox="0 0 517 517" version="1.1">
<g id="surface631">
<rect x="0" y="0" width="517" height="517" style="fill:rgb(90%,90%,90%);fill-opacity:1;stroke:none;"/>
<path style="fill:none;stroke-width:5;stroke-linecap:butt;stroke-linejoin:round;stroke:rgb(100%,0%,0%);stroke-opacity:1;stroke-miterlimit:10;" d="M 261 5 L 517 5 L 517 261 L 261 261 Z M 261 5 "/>
<path style="fill-rule:nonzero;fill:rgb(67%,100%,18%);fill-opacity:1;stroke-width:1;stroke-linecap:butt;stroke-linejoin:round;stroke:rgb(0%,0%,0%);stroke-opacity:1;stroke-miterlimit:10;" d="M 322.292969 206.195312 C 322.292969 222.761719 308.859375 236.195312 292.292969 236.195312 C 275.722656 236.195312 262.292969 222.761719 262.292969 206.195312 C 262.292969 189.625 275.722656 176.195312 292.292969 176.195312 C 308.859375 176.195312 322.292969 189.625 322.292969 206.195312 "/>
<path style="fill-rule:nonzero;fill:rgb(67%,100%,18%);fill-opacity:1;stroke-width:1;stroke-linecap:butt;stroke-linejoin:round;stroke:rgb(0%,0%,0%);stroke-opacity:1;stroke-miterlimit:10;" d="M 76.527344 190.035156 C 76.527344 206.601562 63.097656 220.035156 46.527344 220.035156 C 29.957031 220.035156 16.527344 206.601562 16.527344 190.035156 C 16.527344 173.464844 29.957031 160.035156 46.527344 160.035156 C 63.097656 160.035156 76.527344 173.464844 76.527344 190.035156 "/>
<path style="fill-rule:nonzero;fill:rgb(35%,70%,90%);fill-opacity:1;stroke-width:1;stroke-linecap:butt;stroke-linejoin:round;stroke:rgb(0%,0%,0%);stroke-opacity:1;stroke-miterlimit:10;" d="M 496.578125 303.253906 C 496.578125 319.824219 483.148438 333.253906 466.578125 333.253906 C 450.007812 333.253906 436.578125 319.824219 436.578125 303.253906 C 436.578125 286.683594 450.007812 273.253906 466.578125 273.253906 C 483.148438 273.253906 496.578125 286.683594 496.578125 303.253906 "/>
<path style="fill-rule:nonzero;fill:rgb(35%,70%,90%);fill-opacity:1;stroke-width:1;stroke-linecap:butt;stroke-linejoin:round;stroke:rgb(0%,0%,0%);stroke-opacity:1;stroke-miterlimit:10;" d="M 494.535156 387.945312 C 494.535156 404.511719 481.101562 417.945312 464.535156 417.945312 C 447.964844 417.945312 434.535156 404.511719 434.535156 387.945312 C 434.535156 371.375 447.964844 357.945312 464.535156 357.945312 C 481.101562 357.945312 494.535156 371.375 494.535156 387.945312 "/>
</g>
</svg>
