<?xml version="1.0" encoding="UTF-8"?>
<svg xmlns="http://www.w3.org/2000/svg" xmlns:xlink="http://www.w3.org/1999/xlink" width="517pt" height="517pt" viewBox="0 0 517 517" version="1.1">
<g id="surface606">
<rect x="0" y="0" width="517" height="517" style="fill:rgb(90%,90%,90%);fill-opacity:1;stroke:none;"/>
<path style="fill:none;stroke-width:5;stroke-linecap:butt;stroke-linejoin:round;stroke:rgb(100%,0%,0%);stroke-opacity:1;stroke-miterlimit:10;" d="M 261 5 L 517 5 L 517 261 L 261 261 Z M 261 5 "/>
<path style="fill-rule:nonzero;fill:rgb(35%,70%,90%);fill-opacity:1;stroke-width:1;stroke-linecap:butt;stroke-linejoin:round;stroke:rgb(0%,0%,0%);stroke-opacity:1;stroke-miterlimit:10;" d="M 434.183594 186.929688 C 434.183594 203.496094 420.75 216.929688 404.183594 216.929688 C 387.613281 216.929688 374.183594 203.496094 374.183594 186.929688 C 374.183594 170.359375 387.613281 156.929688 404.183594 156.929688 C 420.75 156.929688 434.183594 170.359375 434.183594 186.929688 "/>
<path style="fill-rule:nonzero;fill:rgb(67%,100%,18%);fill-opacity:1;stroke-width:1;stroke-linecap:butt;stroke-linejoin:round;stroke:rgb(0%,0%,0%);stroke-opacity:1;stroke-miterlimit:10;" d="M 455.285156 324.421875 C 455.285156 340.992188 441.851562 354.421875 425.285156 354.421875 C 408.714844 354.421875 395.285156 340.992188 395.285156 324.421875 C 395.285156 307.855469 408.714844 294.421875 425.285156 294.421875 C 441.851562 294.421875 455.285156 307.855469 455.285156 324.421875 "/>
<path style="fill-rule:nonzero;fill:rgb(35%,70%,90%);fill-opacity:1;stroke-width:1;stroke-linecap:butt;stroke-linejoin:round;stroke:rgb(0%,0%,0%);stroke-opacity:1;stroke-miterlimit:10;" d="M 109.011719 102.742188 C 109.011719 119.308594 95.582031 132.742188 79.011719 132.742188 C 62.445312 132.742188 49.011719 119.308594 49.011719 102.742188 C 49.011719 86.171875 62.445312 72.742188 79.011719 72.742188 C 95.582031 72.742188 109.011719 86.171875 109.011719 102.742188 "/>
<path style="fill-rule:nonzero;fill:rgb(35%,70%,90%);fill-opacity:1;stroke-width:1;stroke-linecap:butt;stroke-linejoin:round;stroke:rgb(0%,0%,0%);stroke-opacity:1;stroke-miterlimit:10;" d="M 152.410156 431.476562 C 152.410156 448.046875 138.976562 461.476562 122.410156 461.476562 C 105.839844 461.476562 92.410156 448.046875 92.410156 431.476562 C 92.410156 414.910156 105.839844 401.476562 122.410156 401.476562 C 138.976562 401.476562 152.410156 414.910156 152.410156 431.476562 "/>
</g>
</svg>
