<?xml version="1.0" encoding="UTF-8"?>
<svg xmlns="http://www.w3.org/2000/svg" xmlns:xlink="http://www.w3.org/1999/xlink" width="517pt" height="517pt" viewBox="0 0 517 517" version="1.1">
<g id="surface576">
<rect x="0" y="0" width="517" height="517" style="fill:rgb(90%,90%,90%);fill-opacity:1;stroke:none;"/>
<path style="fill:none;stroke-width:5;stroke-linecap:butt;stroke-linejoin:round;stroke:rgb(100%,0%,0%);stroke-opacity:1;stroke-miterlimit:10;" d="M 261 5 L 517 5 L 517 261 L 261 261 Z M 261 5 "/>
<path style="fill-rule:nonzero;fill:rgb(35%,70%,90%);fill-opacity:1;stroke-width:1;stroke-linecap:butt;stroke-linejoin:round;stroke:rgb(0%,0%,0%);stroke-opacity:1;stroke-miterlimit:10;" d="M 342.074219 84.71875 C 342.074219 101.289062 328.640625 114.71875 312.074219 114.71875 C 295.503906 114.71875 282.074219 101.289062 282.074219 84.71875 C 282.074219 68.152344 295.503906 54.71875 312.074219 54.71875 C 328.640625 54.71875 342.074219 68.152344 342.074219 84.71875 "/>
<path style="fill-rule:nonzero;fill:rgb(67%,100%,18%);fill-opacity:1;stroke-width:1;stroke-linecap:butt;stroke-linejoin:round;stroke:rgb(0%,0%,0%);stroke-opacity:1;stroke-miterlimit:10;" d="M 223.328125 409.902344 C 223.328125 426.472656 209.898438 439.902344 193.328125 439.902344 C 176.761719 439.902344 163.328125 426.472656 163.328125 409.902344 C 163.328125 393.335938 176.761719 379.902344 193.328125 379.902344 C 209.898438 379.902344 223.328125 393.335938 223.328125 409.902344 "/>
<path style="fill-rule:nonzero;fill:rgb(67%,100%,18%);fill-opacity:1;stroke-width:1;stroke-linecap:butt;stroke-linejoin:round;stroke:rgb(0%,0%,0%);stroke-opacity:1;stroke-miterlimit:10;" d="M 73.992188 397.148438 C 73.992188 413.714844 60.558594 427.148438 43.992188 427.148438 C 27.421875 427.148438 13.992188 413.714844 13.992188 397.148438 C 13.992188 380.578125 27.421875 367.148438 43.992188 367.148438 C 60.558594 367.148438 73.992188 380.578125 73.992188 397.148438 "/>
<path style="fill-rule:nonzero;fill:rgb(67%,100%,18%);fill-opacity:1;stroke-width:1;stroke-linecap:butt;stroke-linejoin:round;stroke:rgb(0%,0%,0%);stroke-opacity:1;stroke-miterlimit:10;" d="M 186.417969 179.628906 C 186.417969 196.195312 172.988281 209.628906 156.417969 209.628906 C 139.851562 209.628906 126.417969 196.195312 126.417969 179.628906 C 126.417969 163.058594 139.851562 149.628906 156.417969 149.628906 C 172.988281 149.628906 186.417969 163.058594 186.417969 179.628906 "/>
</g>
</svg>
