<?xml version="1.0" encoding="UTF-8"?>
<svg xmlns="http://www.w3.org/2000/svg" xmlns:xlink="http://www.w3.org/1999/xlink" width="517pt" height="517pt" viewBox="0 0 517 517" version="1.1">
<g id="surface13336">
<rect x="0" y="0" width="517" height="517" style="fill:rgb(90%,90%,90%);fill-opacity:1;stroke:none;"/>
<path style="fill-rule:nonzero;fill:rgb(0%,0%,0%);fill-opacity:1;stroke-width:1;stroke-linecap:butt;stroke-linejoin:miter;stroke:rgb(0%,0%,0%);stroke-opacity:1;stroke-miterlimit:10;" d="M 442.5 64.328125 C 442.5 80.898438 429.070312 94.328125 412.5 94.328125 C 395.933594 94.328125 382.5 80.898438 382.5 64.328125 C 382.5 47.761719 395.933594 34.328125 412.5 34.328125 C 429.070312 34.328125 442.5 47.761719 442.5 64.328125 "/>
<path style="fill-rule:nonzero;fill:rgb(0%,0%,0%);fill-opacity:1;stroke-width:1;stroke-linecap:butt;stroke-linejoin:miter;stroke:rgb(0%,0%,0%);stroke-opacity:1;stroke-miterlimit:10;" d="M 327.21875 108.457031 C 327.21875 125.023438 313.789062 138.457031 297.21875 138.457031 C 280.648438 138.457031 267.21875 125.023438 267.21875 108.457031 C 267.21875 91.886719 280.648438 78.457031 297.21875 78.457031 C 313.789062 78.457031 327.21875 91.886719 327.21875 108.457031 "/>
<path style="fill-rule:nonzero;fill:rgb(0%,0%,0%);fill-opacity:1;stroke-width:1;stroke-linecap:butt;stroke-linejoin:miter;stroke:rgb(0%,0%,0%);stroke-opacity:1;stroke-miterlimit:10;" d="M 243.867188 459.980469 C 243.867188 476.546875 230.433594 489.980469 213.867188 489.980469 C 197.296875 489.980469 183.867188 476.546875 183.867188 459.980469 C 183.867188 443.410156 197.296875 429.980469 213.867188 429.980469 C 230.433594 429.980469 243.867188 443.410156 243.867188 459.980469 "/>
<path style="fill-rule:nonzero;fill:rgb(0%,0%,0%);fill-opacity:1;stroke-width:1;stroke-linecap:butt;stroke-linejoin:miter;stroke:rgb(0%,0%,0%);stroke-opacity:1;stroke-miterlimit:10;" d="M 168.425781 306.105469 C 168.425781 322.675781 154.996094 336.105469 138.425781 336.105469 C 121.859375 336.105469 108.425781 322.675781 108.425781 306.105469 C 108.425781 289.539062 121.859375 276.105469 138.425781 276.105469 C 154.996094 276.105469 168.425781 289.539062 168.425781 306.105469 "/>
<path style="fill-rule:nonzero;fill:rgb(0%,0%,0%);fill-opacity:1;stroke-width:1;stroke-linecap:butt;stroke-linejoin:miter;stroke:rgb(0%,0%,0%);stroke-opacity:1;stroke-miterlimit:10;" d="M 151.324219 463.886719 C 151.324219 480.453125 137.890625 493.886719 121.324219 493.886719 C 104.753906 493.886719 91.324219 480.453125 91.324219 463.886719 C 91.324219 447.316406 104.753906 433.886719 121.324219 433.886719 C 137.890625 433.886719 151.324219 447.316406 151.324219 463.886719 "/>
<path style="fill-rule:nonzero;fill:rgb(35%,70%,90%);fill-opacity:1;stroke-width:1;stroke-linecap:butt;stroke-linejoin:miter;stroke:rgb(0%,0%,0%);stroke-opacity:1;stroke-miterlimit:10;" d="M 100 381.761719 C 100 398.328125 86.570312 411.761719 70 411.761719 C 53.433594 411.761719 40 398.328125 40 381.761719 C 40 365.191406 53.433594 351.761719 70 351.761719 C 86.570312 351.761719 100 365.191406 100 381.761719 "/>
</g>
</svg>
