<?xml version="1.0" encoding="UTF-8"?>
<svg xmlns="http://www.w3.org/2000/svg" xmlns:xlink="http://www.w3.org/1999/xlink" width="517pt" height="517pt" viewBox="0 0 517 517" version="1.1">
<g id="surface5756">
<rect x="0" y="0" width="517" height="517" style="fill:rgb(90%,90%,90%);fill-opacity:1;stroke:none;"/>
<path style="fill-rule:nonzero;fill:rgb(67%,100%,18%);fill-opacity:1;stroke-width:1;stroke-linecap:butt;stroke-linejoin:miter;stroke:rgb(0%,0%,0%);stroke-opacity:1;stroke-miterlimit:10;" d="M 141.839844 339.0625 C 141.839844 355.628906 128.410156 369.0625 111.839844 369.0625 C 95.273438 369.0625 81.839844 355.628906 81.839844 339.0625 C 81.839844 322.492188 95.273438 309.0625 111.839844 309.0625 C 128.410156 309.0625 141.839844 322.492188 141.839844 339.0625 "/>
<path style="fill-rule:nonzero;fill:rgb(67%,100%,18%);fill-opacity:1;stroke-width:1;stroke-linecap:butt;stroke-linejoin:miter;stroke:rgb(0%,0%,0%);stroke-opacity:1;stroke-miterlimit:10;" d="M 177.867188 151.484375 C 177.867188 168.050781 164.4375 181.484375 147.867188 181.484375 C 131.300781 181.484375 117.867188 168.050781 117.867188 151.484375 C 117.867188 134.914062 131.300781 121.484375 147.867188 121.484375 C 164.4375 121.484375 177.867188 134.914062 177.867188 151.484375 "/>
<path style="fill-rule:nonzero;fill:rgb(67%,100%,18%);fill-opacity:1;stroke-width:1;stroke-linecap:butt;stroke-linejoin:miter;stroke:rgb(0%,0%,0%);stroke-opacity:1;stroke-miterlimit:10;" d="M 161.742188 70.089844 C 161.742188 86.660156 148.308594 100.089844 131.742188 100.089844 C 115.171875 100.089844 101.742188 86.660156 101.742188 70.089844 C 101.742188 53.519531 115.171875 40.089844 131.742188 40.089844 C 148.308594 40.089844 161.742188 53.519531 161.742188 70.089844 "/>
<path style="fill-rule:nonzero;fill:rgb(35%,70%,90%);fill-opacity:1;stroke-width:1;stroke-linecap:butt;stroke-linejoin:miter;stroke:rgb(0%,0%,0%);stroke-opacity:1;stroke-miterlimit:10;" d="M 500.367188 138.8125 C 500.367188 155.382812 486.9375 168.8125 470.367188 168.8125 C 453.800781 168.8125 440.367188 155.382812 440.367188 138.8125 C 440.367188 122.246094 453.800781 108.8125 470.367188 108.8125 C 486.9375 108.8125 500.367188 122.246094 500.367188 138.8125 "/>
<path style="fill-rule:nonzero;fill:rgb(35%,70%,90%);fill-opacity:1;stroke-width:1;stroke-linecap:butt;stroke-linejoin:miter;stroke:rgb(0%,0%,0%);stroke-opacity:1;stroke-miterlimit:10;" d="M 450.988281 50.683594 C 450.988281 67.253906 437.554688 80.683594 420.988281 80.683594 C 404.417969 80.683594 390.988281 67.253906 390.988281 50.683594 C 390.988281 34.117188 404.417969 20.683594 420.988281 20.683594 C 437.554688 20.683594 450.988281 34.117188 450.988281 50.683594 "/>
<path style="fill-rule:nonzero;fill:rgb(35%,70%,90%);fill-opacity:1;stroke-width:1;stroke-linecap:butt;stroke-linejoin:miter;stroke:rgb(0%,0%,0%);stroke-opacity:1;stroke-miterlimit:10;" d="M 355.390625 105.085938 C 355.390625 121.65625 341.957031 135.085938 325.390625 135.085938 C 308.820312 135.085938 295.390625 121.65625 295.390625 105.085938 C 295.390625 88.519531 308.820312 75.085938 325.390625 75.085938 C 341.957031 75.085938 355.390625 88.519531 355.390625 105.085938 "/>
<path style="fill-rule:nonzero;fill:rgb(35%,70%,90%);fill-opacity:1;stroke-width:1;stroke-linecap:butt;stroke-linejoin:miter;stroke:rgb(0%,0%,0%);stroke-opacity:1;stroke-miterlimit:10;" d="M 339.046875 205.308594 C 339.046875 221.875 325.617188 235.308594 309.046875 235.308594 C 292.476562 235.308594 279.046875 221.875 279.046875 205.308594 C 279.046875 188.738281 292.476562 175.308594 309.046875 175.308594 C 325.617188 175.308594 339.046875 188.738281 339.046875 205.308594 "/>
<path style="fill-rule:nonzero;fill:rgb(35%,70%,90%);fill-opacity:1;stroke-width:1;stroke-linecap:butt;stroke-linejoin:miter;stroke:rgb(0%,0%,0%);stroke-opacity:1;stroke-miterlimit:10;" d="M 418.027344 192.726562 C 418.027344 209.296875 404.59375 222.726562 388.027344 222.726562 C 371.457031 222.726562 358.027344 209.296875 358.027344 192.726562 C 358.027344 176.160156 371.457031 162.726562 388.027344 162.726562 C 404.59375 162.726562 418.027344 176.160156 418.027344 192.726562 "/>
</g>
</svg>
