<?xml version="1.0" encoding="UTF-8"?>
<svg xmlns="http://www.w3.org/2000/svg" xmlns:xlink="http://www.w3.org/1999/xlink" width="517pt" height="517pt" viewBox="0 0 517 517" version="1.1">
<g id="surface12896">
<rect x="0" y="0" width="517" height="517" style="fill:rgb(90%,90%,90%);fill-opacity:1;stroke:none;"/>
<path style="fill-rule:nonzero;fill:rgb(67%,100%,18%);fill-opacity:1;stroke-width:1;stroke-linecap:butt;stroke-linejoin:miter;stroke:rgb(0%,0%,0%);stroke-opacity:1;stroke-miterlimit:10;" d="M 201.644531 390.960938 C 201.644531 407.527344 188.210938 420.960938 171.644531 420.960938 C 155.074219 420.960938 141.644531 407.527344 141.644531 390.960938 C 141.644531 374.390625 155.074219 360.960938 171.644531 360.960938 C 188.210938 360.960938 201.644531 374.390625 201.644531 390.960938 "/>
<path style="fill-rule:nonzero;fill:rgb(67%,100%,18%);fill-opacity:1;stroke-width:1;stroke-linecap:butt;stroke-linejoin:miter;stroke:rgb(0%,0%,0%);stroke-opacity:1;stroke-miterlimit:10;" d="M 237.703125 473.191406 C 237.703125 489.757812 224.269531 503.191406 207.703125 503.191406 C 191.132812 503.191406 177.703125 489.757812 177.703125 473.191406 C 177.703125 456.621094 191.132812 443.191406 207.703125 443.191406 C 224.269531 443.191406 237.703125 456.621094 237.703125 473.191406 "/>
<path style="fill-rule:nonzero;fill:rgb(67%,100%,18%);fill-opacity:1;stroke-width:1;stroke-linecap:butt;stroke-linejoin:miter;stroke:rgb(0%,0%,0%);stroke-opacity:1;stroke-miterlimit:10;" d="M 486.519531 314.402344 C 486.519531 330.972656 473.089844 344.402344 456.519531 344.402344 C 439.953125 344.402344 426.519531 330.972656 426.519531 314.402344 C 426.519531 297.835938 439.953125 284.402344 456.519531 284.402344 C 473.089844 284.402344 486.519531 297.835938 486.519531 314.402344 "/>
<path style="fill-rule:nonzero;fill:rgb(67%,100%,18%);fill-opacity:1;stroke-width:1;stroke-linecap:butt;stroke-linejoin:miter;stroke:rgb(0%,0%,0%);stroke-opacity:1;stroke-miterlimit:10;" d="M 387.707031 447.195312 C 387.707031 463.765625 374.273438 477.195312 357.707031 477.195312 C 341.136719 477.195312 327.707031 463.765625 327.707031 447.195312 C 327.707031 430.628906 341.136719 417.195312 357.707031 417.195312 C 374.273438 417.195312 387.707031 430.628906 387.707031 447.195312 "/>
<path style="fill-rule:nonzero;fill:rgb(67%,100%,18%);fill-opacity:1;stroke-width:1;stroke-linecap:butt;stroke-linejoin:miter;stroke:rgb(0%,0%,0%);stroke-opacity:1;stroke-miterlimit:10;" d="M 187.632812 167.503906 C 187.632812 184.070312 174.203125 197.503906 157.632812 197.503906 C 141.066406 197.503906 127.632812 184.070312 127.632812 167.503906 C 127.632812 150.933594 141.066406 137.503906 157.632812 137.503906 C 174.203125 137.503906 187.632812 150.933594 187.632812 167.503906 "/>
<path style="fill-rule:nonzero;fill:rgb(67%,100%,18%);fill-opacity:1;stroke-width:1;stroke-linecap:butt;stroke-linejoin:miter;stroke:rgb(0%,0%,0%);stroke-opacity:1;stroke-miterlimit:10;" d="M 95.605469 104.390625 C 95.605469 120.957031 82.175781 134.390625 65.605469 134.390625 C 49.039062 134.390625 35.605469 120.957031 35.605469 104.390625 C 35.605469 87.820312 49.039062 74.390625 65.605469 74.390625 C 82.175781 74.390625 95.605469 87.820312 95.605469 104.390625 "/>
</g>
</svg>
