<?xml version="1.0" encoding="UTF-8"?>
<svg xmlns="http://www.w3.org/2000/svg" xmlns:xlink="http://www.w3.org/1999/xlink" width="517pt" height="517pt" viewBox="0 0 517 517" version="1.1">
<g id="surface12816">
<rect x="0" y="0" width="517" height="517" style="fill:rgb(90%,90%,90%);fill-opacity:1;stroke:none;"/>
<path style="fill-rule:nonzero;fill:rgb(67%,100%,18%);fill-opacity:1;stroke-width:1;stroke-linecap:butt;stroke-linejoin:miter;stroke:rgb(0%,0%,0%);stroke-opacity:1;stroke-miterlimit:10;" d="M 156.203125 151.570312 C 156.203125 168.136719 142.773438 181.570312 126.203125 181.570312 C 109.636719 181.570312 96.203125 168.136719 96.203125 151.570312 C 96.203125 135 109.636719 121.570312 126.203125 121.570312 C 142.773438 121.570312 156.203125 135 156.203125 151.570312 "/>
<path style="fill-rule:nonzero;fill:rgb(67%,100%,18%);fill-opacity:1;stroke-width:1;stroke-linecap:butt;stroke-linejoin:miter;stroke:rgb(0%,0%,0%);stroke-opacity:1;stroke-miterlimit:10;" d="M 482.199219 96.035156 C 482.199219 112.605469 468.765625 126.035156 452.199219 126.035156 C 435.628906 126.035156 422.199219 112.605469 422.199219 96.035156 C 422.199219 79.46875 435.628906 66.035156 452.199219 66.035156 C 468.765625 66.035156 482.199219 79.46875 482.199219 96.035156 "/>
<path style="fill-rule:nonzero;fill:rgb(67%,100%,18%);fill-opacity:1;stroke-width:1;stroke-linecap:butt;stroke-linejoin:miter;stroke:rgb(0%,0%,0%);stroke-opacity:1;stroke-miterlimit:10;" d="M 80.550781 331.851562 C 80.550781 348.417969 67.121094 361.851562 50.550781 361.851562 C 33.984375 361.851562 20.550781 348.417969 20.550781 331.851562 C 20.550781 315.28125 33.984375 301.851562 50.550781 301.851562 C 67.121094 301.851562 80.550781 315.28125 80.550781 331.851562 "/>
<path style="fill-rule:nonzero;fill:rgb(67%,100%,18%);fill-opacity:1;stroke-width:1;stroke-linecap:butt;stroke-linejoin:miter;stroke:rgb(0%,0%,0%);stroke-opacity:1;stroke-miterlimit:10;" d="M 135.621094 446.261719 C 135.621094 462.828125 122.191406 476.261719 105.621094 476.261719 C 89.054688 476.261719 75.621094 462.828125 75.621094 446.261719 C 75.621094 429.691406 89.054688 416.261719 105.621094 416.261719 C 122.191406 416.261719 135.621094 429.691406 135.621094 446.261719 "/>
<path style="fill-rule:nonzero;fill:rgb(67%,100%,18%);fill-opacity:1;stroke-width:1;stroke-linecap:butt;stroke-linejoin:miter;stroke:rgb(0%,0%,0%);stroke-opacity:1;stroke-miterlimit:10;" d="M 189.910156 311.324219 C 189.910156 327.894531 176.476562 341.324219 159.910156 341.324219 C 143.339844 341.324219 129.910156 327.894531 129.910156 311.324219 C 129.910156 294.753906 143.339844 281.324219 159.910156 281.324219 C 176.476562 281.324219 189.910156 294.753906 189.910156 311.324219 "/>
<path style="fill-rule:nonzero;fill:rgb(67%,100%,18%);fill-opacity:1;stroke-width:1;stroke-linecap:butt;stroke-linejoin:miter;stroke:rgb(0%,0%,0%);stroke-opacity:1;stroke-miterlimit:10;" d="M 222.117188 434.3125 C 222.117188 450.882812 208.6875 464.3125 192.117188 464.3125 C 175.550781 464.3125 162.117188 450.882812 162.117188 434.3125 C 162.117188 417.742188 175.550781 404.3125 192.117188 404.3125 C 208.6875 404.3125 222.117188 417.742188 222.117188 434.3125 "/>
</g>
</svg>
