<?xml version="1.0" encoding="UTF-8"?>
<svg xmlns="http://www.w3.org/2000/svg" xmlns:xlink="http://www.w3.org/1999/xlink" width="517pt" height="517pt" viewBox="0 0 517 517" version="1.1">
<g id="surface12856">
<rect x="0" y="0" width="517" height="517" style="fill:rgb(90%,90%,90%);fill-opacity:1;stroke:none;"/>
<path style="fill-rule:nonzero;fill:rgb(67%,100%,18%);fill-opacity:1;stroke-width:1;stroke-linecap:butt;stroke-linejoin:miter;stroke:rgb(0%,0%,0%);stroke-opacity:1;stroke-miterlimit:10;" d="M 504.21875 311.964844 C 504.21875 328.535156 490.785156 341.964844 474.21875 341.964844 C 457.648438 341.964844 444.21875 328.535156 444.21875 311.964844 C 444.21875 295.398438 457.648438 281.964844 474.21875 281.964844 C 490.785156 281.964844 504.21875 295.398438 504.21875 311.964844 "/>
<path style="fill-rule:nonzero;fill:rgb(67%,100%,18%);fill-opacity:1;stroke-width:1;stroke-linecap:butt;stroke-linejoin:miter;stroke:rgb(0%,0%,0%);stroke-opacity:1;stroke-miterlimit:10;" d="M 373.972656 134.078125 C 373.972656 150.648438 360.539062 164.078125 343.972656 164.078125 C 327.402344 164.078125 313.972656 150.648438 313.972656 134.078125 C 313.972656 117.511719 327.402344 104.078125 343.972656 104.078125 C 360.539062 104.078125 373.972656 117.511719 373.972656 134.078125 "/>
<path style="fill-rule:nonzero;fill:rgb(67%,100%,18%);fill-opacity:1;stroke-width:1;stroke-linecap:butt;stroke-linejoin:miter;stroke:rgb(0%,0%,0%);stroke-opacity:1;stroke-miterlimit:10;" d="M 468.929688 171.734375 C 468.929688 188.300781 455.5 201.734375 438.929688 201.734375 C 422.363281 201.734375 408.929688 188.300781 408.929688 171.734375 C 408.929688 155.164062 422.363281 141.734375 438.929688 141.734375 C 455.5 141.734375 468.929688 155.164062 468.929688 171.734375 "/>
<path style="fill-rule:nonzero;fill:rgb(67%,100%,18%);fill-opacity:1;stroke-width:1;stroke-linecap:butt;stroke-linejoin:miter;stroke:rgb(0%,0%,0%);stroke-opacity:1;stroke-miterlimit:10;" d="M 411.117188 72.925781 C 411.117188 89.496094 397.683594 102.925781 381.117188 102.925781 C 364.546875 102.925781 351.117188 89.496094 351.117188 72.925781 C 351.117188 56.359375 364.546875 42.925781 381.117188 42.925781 C 397.683594 42.925781 411.117188 56.359375 411.117188 72.925781 "/>
<path style="fill-rule:nonzero;fill:rgb(67%,100%,18%);fill-opacity:1;stroke-width:1;stroke-linecap:butt;stroke-linejoin:miter;stroke:rgb(0%,0%,0%);stroke-opacity:1;stroke-miterlimit:10;" d="M 129.4375 42.148438 C 129.4375 58.71875 116.007812 72.148438 99.4375 72.148438 C 82.871094 72.148438 69.4375 58.71875 69.4375 42.148438 C 69.4375 25.578125 82.871094 12.148438 99.4375 12.148438 C 116.007812 12.148438 129.4375 25.578125 129.4375 42.148438 "/>
<path style="fill-rule:nonzero;fill:rgb(67%,100%,18%);fill-opacity:1;stroke-width:1;stroke-linecap:butt;stroke-linejoin:miter;stroke:rgb(0%,0%,0%);stroke-opacity:1;stroke-miterlimit:10;" d="M 165.191406 141.945312 C 165.191406 158.511719 151.761719 171.945312 135.191406 171.945312 C 118.625 171.945312 105.191406 158.511719 105.191406 141.945312 C 105.191406 125.375 118.625 111.945312 135.191406 111.945312 C 151.761719 111.945312 165.191406 125.375 165.191406 141.945312 "/>
</g>
</svg>
