<?xml version="1.0" encoding="UTF-8"?>
<svg xmlns="http://www.w3.org/2000/svg" xmlns:xlink="http://www.w3.org/1999/xlink" width="517pt" height="517pt" viewBox="0 0 517 517" version="1.1">
<g id="surface12836">
<rect x="0" y="0" width="517" height="517" style="fill:rgb(90%,90%,90%);fill-opacity:1;stroke:none;"/>
<path style="fill-rule:nonzero;fill:rgb(67%,100%,18%);fill-opacity:1;stroke-width:1;stroke-linecap:butt;stroke-linejoin:miter;stroke:rgb(0%,0%,0%);stroke-opacity:1;stroke-miterlimit:10;" d="M 185.023438 176.300781 C 185.023438 192.871094 171.589844 206.300781 155.023438 206.300781 C 138.453125 206.300781 125.023438 192.871094 125.023438 176.300781 C 125.023438 159.730469 138.453125 146.300781 155.023438 146.300781 C 171.589844 146.300781 185.023438 159.730469 185.023438 176.300781 "/>
<path style="fill-rule:nonzero;fill:rgb(67%,100%,18%);fill-opacity:1;stroke-width:1;stroke-linecap:butt;stroke-linejoin:miter;stroke:rgb(0%,0%,0%);stroke-opacity:1;stroke-miterlimit:10;" d="M 136.15625 125.640625 C 136.15625 142.207031 122.726562 155.640625 106.15625 155.640625 C 89.589844 155.640625 76.15625 142.207031 76.15625 125.640625 C 76.15625 109.070312 89.589844 95.640625 106.15625 95.640625 C 122.726562 95.640625 136.15625 109.070312 136.15625 125.640625 "/>
<path style="fill-rule:nonzero;fill:rgb(67%,100%,18%);fill-opacity:1;stroke-width:1;stroke-linecap:butt;stroke-linejoin:miter;stroke:rgb(0%,0%,0%);stroke-opacity:1;stroke-miterlimit:10;" d="M 345.851562 453.402344 C 345.851562 469.972656 332.417969 483.402344 315.851562 483.402344 C 299.28125 483.402344 285.851562 469.972656 285.851562 453.402344 C 285.851562 436.835938 299.28125 423.402344 315.851562 423.402344 C 332.417969 423.402344 345.851562 436.835938 345.851562 453.402344 "/>
<path style="fill-rule:nonzero;fill:rgb(67%,100%,18%);fill-opacity:1;stroke-width:1;stroke-linecap:butt;stroke-linejoin:miter;stroke:rgb(0%,0%,0%);stroke-opacity:1;stroke-miterlimit:10;" d="M 361.125 164.613281 C 361.125 181.179688 347.695312 194.613281 331.125 194.613281 C 314.558594 194.613281 301.125 181.179688 301.125 164.613281 C 301.125 148.042969 314.558594 134.613281 331.125 134.613281 C 347.695312 134.613281 361.125 148.042969 361.125 164.613281 "/>
<path style="fill-rule:nonzero;fill:rgb(67%,100%,18%);fill-opacity:1;stroke-width:1;stroke-linecap:butt;stroke-linejoin:miter;stroke:rgb(0%,0%,0%);stroke-opacity:1;stroke-miterlimit:10;" d="M 494.355469 215.722656 C 494.355469 232.292969 480.925781 245.722656 464.355469 245.722656 C 447.789062 245.722656 434.355469 232.292969 434.355469 215.722656 C 434.355469 199.15625 447.789062 185.722656 464.355469 185.722656 C 480.925781 185.722656 494.355469 199.15625 494.355469 215.722656 "/>
<path style="fill-rule:nonzero;fill:rgb(67%,100%,18%);fill-opacity:1;stroke-width:1;stroke-linecap:butt;stroke-linejoin:miter;stroke:rgb(0%,0%,0%);stroke-opacity:1;stroke-miterlimit:10;" d="M 416.828125 189.761719 C 416.828125 206.328125 403.398438 219.761719 386.828125 219.761719 C 370.257812 219.761719 356.828125 206.328125 356.828125 189.761719 C 356.828125 173.191406 370.257812 159.761719 386.828125 159.761719 C 403.398438 159.761719 416.828125 173.191406 416.828125 189.761719 "/>
</g>
</svg>
