<?xml version="1.0" encoding="UTF-8"?>
<svg xmlns="http://www.w3.org/2000/svg" xmlns:xlink="http://www.w3.org/1999/xlink" width="517pt" height="517pt" viewBox="0 0 517 517" version="1.1">
<g id="surface621">
<rect x="0" y="0" width="517" height="517" style="fill:rgb(90%,90%,90%);fill-opacity:1;stroke:none;"/>
<path style="fill:none;stroke-width:5;stroke-linecap:butt;stroke-linejoin:round;stroke:rgb(100%,0%,0%);stroke-opacity:1;stroke-miterlimit:10;" d="M 261 5 L 517 5 L 517 261 L 261 261 Z M 261 5 "/>
<path style="fill-rule:nonzero;fill:rgb(67%,100%,18%);fill-opacity:1;stroke-width:1;stroke-linecap:butt;stroke-linejoin:round;stroke:rgb(0%,0%,0%);stroke-opacity:1;stroke-miterlimit:10;" d="M 492.59375 115.898438 C 492.59375 132.46875 479.160156 145.898438 462.59375 145.898438 C 446.023438 145.898438 432.59375 132.46875 432.59375 115.898438 C 432.59375 99.332031 446.023438 85.898438 462.59375 85.898438 C 479.160156 85.898438 492.59375 99.332031 492.59375 115.898438 "/>
<path style="fill-rule:nonzero;fill:rgb(67%,100%,18%);fill-opacity:1;stroke-width:1;stroke-linecap:butt;stroke-linejoin:round;stroke:rgb(0%,0%,0%);stroke-opacity:1;stroke-miterlimit:10;" d="M 240.023438 53.03125 C 240.023438 69.601562 226.59375 83.03125 210.023438 83.03125 C 193.457031 83.03125 180.023438 69.601562 180.023438 53.03125 C 180.023438 36.460938 193.457031 23.03125 210.023438 23.03125 C 226.59375 23.03125 240.023438 36.460938 240.023438 53.03125 "/>
<path style="fill-rule:nonzero;fill:rgb(67%,100%,18%);fill-opacity:1;stroke-width:1;stroke-linecap:butt;stroke-linejoin:round;stroke:rgb(0%,0%,0%);stroke-opacity:1;stroke-miterlimit:10;" d="M 96.761719 294.535156 C 96.761719 311.101562 83.328125 324.535156 66.761719 324.535156 C 50.191406 324.535156 36.761719 311.101562 36.761719 294.535156 C 36.761719 277.964844 50.191406 264.535156 66.761719 264.535156 C 83.328125 264.535156 96.761719 277.964844 96.761719 294.535156 "/>
<path style="fill-rule:nonzero;fill:rgb(35%,70%,90%);fill-opacity:1;stroke-width:1;stroke-linecap:butt;stroke-linejoin:round;stroke:rgb(0%,0%,0%);stroke-opacity:1;stroke-miterlimit:10;" d="M 149.046875 329.417969 C 149.046875 345.988281 135.617188 359.417969 119.046875 359.417969 C 102.480469 359.417969 89.046875 345.988281 89.046875 329.417969 C 89.046875 312.851562 102.480469 299.417969 119.046875 299.417969 C 135.617188 299.417969 149.046875 312.851562 149.046875 329.417969 "/>
</g>
</svg>
