<?xml version="1.0" encoding="UTF-8"?>
<svg xmlns="http://www.w3.org/2000/svg" xmlns:xlink="http://www.w3.org/1999/xlink" width="517pt" height="517pt" viewBox="0 0 517 517" version="1.1">
<g id="surface13156">
<rect x="0" y="0" width="517" height="517" style="fill:rgb(90%,90%,90%);fill-opacity:1;stroke:none;"/>
<path style="fill-rule:nonzero;fill:rgb(90%,65%,0%);fill-opacity:1;stroke-width:1;stroke-linecap:butt;stroke-linejoin:miter;stroke:rgb(0%,0%,0%);stroke-opacity:1;stroke-miterlimit:10;" d="M 478.851562 409.535156 C 478.851562 426.105469 465.417969 439.535156 448.851562 439.535156 C 432.28125 439.535156 418.851562 426.105469 418.851562 409.535156 C 418.851562 392.96875 432.28125 379.535156 448.851562 379.535156 C 465.417969 379.535156 478.851562 392.96875 478.851562 409.535156 "/>
<path style="fill-rule:nonzero;fill:rgb(50%,0%,50%);fill-opacity:1;stroke-width:1;stroke-linecap:butt;stroke-linejoin:miter;stroke:rgb(0%,0%,0%);stroke-opacity:1;stroke-miterlimit:10;" d="M 355.003906 414.71875 C 355.003906 431.289062 341.570312 444.71875 325.003906 444.71875 C 308.433594 444.71875 295.003906 431.289062 295.003906 414.71875 C 295.003906 398.148438 308.433594 384.71875 325.003906 384.71875 C 341.570312 384.71875 355.003906 398.148438 355.003906 414.71875 "/>
<path style="fill-rule:nonzero;fill:rgb(50%,0%,50%);fill-opacity:1;stroke-width:1;stroke-linecap:butt;stroke-linejoin:miter;stroke:rgb(0%,0%,0%);stroke-opacity:1;stroke-miterlimit:10;" d="M 498.984375 149.804688 C 498.984375 166.371094 485.550781 179.804688 468.984375 179.804688 C 452.414062 179.804688 438.984375 166.371094 438.984375 149.804688 C 438.984375 133.234375 452.414062 119.804688 468.984375 119.804688 C 485.550781 119.804688 498.984375 133.234375 498.984375 149.804688 "/>
<path style="fill-rule:nonzero;fill:rgb(50%,0%,50%);fill-opacity:1;stroke-width:1;stroke-linecap:butt;stroke-linejoin:miter;stroke:rgb(0%,0%,0%);stroke-opacity:1;stroke-miterlimit:10;" d="M 185.746094 134.25 C 185.746094 150.820312 172.316406 164.25 155.746094 164.25 C 139.179688 164.25 125.746094 150.820312 125.746094 134.25 C 125.746094 117.683594 139.179688 104.25 155.746094 104.25 C 172.316406 104.25 185.746094 117.683594 185.746094 134.25 "/>
<path style="fill-rule:nonzero;fill:rgb(50%,0%,50%);fill-opacity:1;stroke-width:1;stroke-linecap:butt;stroke-linejoin:miter;stroke:rgb(0%,0%,0%);stroke-opacity:1;stroke-miterlimit:10;" d="M 197.632812 46.585938 C 197.632812 63.15625 184.203125 76.585938 167.632812 76.585938 C 151.066406 76.585938 137.632812 63.15625 137.632812 46.585938 C 137.632812 30.019531 151.066406 16.585938 167.632812 16.585938 C 184.203125 16.585938 197.632812 30.019531 197.632812 46.585938 "/>
</g>
</svg>
