<?xml version="1.0" encoding="UTF-8"?>
<svg xmlns="http://www.w3.org/2000/svg" xmlns:xlink="http://www.w3.org/1999/xlink" width="517pt" height="517pt" viewBox="0 0 517 517" version="1.1">
<g id="surface626">
<rect x="0" y="0" width="517" height="517" style="fill:rgb(90%,90%,90%);fill-opacity:1;stroke:none;"/>
<path style="fill:none;stroke-width:5;stroke-linecap:butt;stroke-linejoin:round;stroke:rgb(100%,0%,0%);stroke-opacity:1;stroke-miterlimit:10;" d="M 261 5 L 517 5 L 517 261 L 261 261 Z M 261 5 "/>
<path style="fill-rule:nonzero;fill:rgb(67%,100%,18%);fill-opacity:1;stroke-width:1;stroke-linecap:butt;stroke-linejoin:round;stroke:rgb(0%,0%,0%);stroke-opacity:1;stroke-miterlimit:10;" d="M 453.890625 112.105469 C 453.890625 128.671875 440.460938 142.105469 423.890625 142.105469 C 407.320312 142.105469 393.890625 128.671875 393.890625 112.105469 C 393.890625 95.535156 407.320312 82.105469 423.890625 82.105469 C 440.460938 82.105469 453.890625 95.535156 453.890625 112.105469 "/>
<path style="fill-rule:nonzero;fill:rgb(67%,100%,18%);fill-opacity:1;stroke-width:1;stroke-linecap:butt;stroke-linejoin:round;stroke:rgb(0%,0%,0%);stroke-opacity:1;stroke-miterlimit:10;" d="M 234.148438 173.738281 C 234.148438 190.304688 220.71875 203.738281 204.148438 203.738281 C 187.578125 203.738281 174.148438 190.304688 174.148438 173.738281 C 174.148438 157.167969 187.578125 143.738281 204.148438 143.738281 C 220.71875 143.738281 234.148438 157.167969 234.148438 173.738281 "/>
<path style="fill-rule:nonzero;fill:rgb(67%,100%,18%);fill-opacity:1;stroke-width:1;stroke-linecap:butt;stroke-linejoin:round;stroke:rgb(0%,0%,0%);stroke-opacity:1;stroke-miterlimit:10;" d="M 156.917969 98.324219 C 156.917969 114.890625 143.484375 128.324219 126.917969 128.324219 C 110.347656 128.324219 96.917969 114.890625 96.917969 98.324219 C 96.917969 81.753906 110.347656 68.324219 126.917969 68.324219 C 143.484375 68.324219 156.917969 81.753906 156.917969 98.324219 "/>
<path style="fill-rule:nonzero;fill:rgb(67%,100%,18%);fill-opacity:1;stroke-width:1;stroke-linecap:butt;stroke-linejoin:round;stroke:rgb(0%,0%,0%);stroke-opacity:1;stroke-miterlimit:10;" d="M 475.496094 382.140625 C 475.496094 398.710938 462.0625 412.140625 445.496094 412.140625 C 428.925781 412.140625 415.496094 398.710938 415.496094 382.140625 C 415.496094 365.574219 428.925781 352.140625 445.496094 352.140625 C 462.0625 352.140625 475.496094 365.574219 475.496094 382.140625 "/>
</g>
</svg>
