<?xml version="1.0" encoding="UTF-8"?>
<svg xmlns="http://www.w3.org/2000/svg" xmlns:xlink="http://www.w3.org/1999/xlink" width="517pt" height="517pt" viewBox="0 0 517 517" version="1.1">
<g id="surface561">
<rect x="0" y="0" width="517" height="517" style="fill:rgb(90%,90%,90%);fill-opacity:1;stroke:none;"/>
<path style="fill:none;stroke-width:5;stroke-linecap:butt;stroke-linejoin:round;stroke:rgb(100%,0%,0%);stroke-opacity:1;stroke-miterlimit:10;" d="M 261 5 L 517 5 L 517 261 L 261 261 Z M 261 5 "/>
<path style="fill-rule:nonzero;fill:rgb(35%,70%,90%);fill-opacity:1;stroke-width:1;stroke-linecap:butt;stroke-linejoin:round;stroke:rgb(0%,0%,0%);stroke-opacity:1;stroke-miterlimit:10;" d="M 456.988281 196.351562 C 456.988281 212.917969 443.554688 226.351562 426.988281 226.351562 C 410.417969 226.351562 396.988281 212.917969 396.988281 196.351562 C 396.988281 179.78125 410.417969 166.351562 426.988281 166.351562 C 443.554688 166.351562 456.988281 179.78125 456.988281 196.351562 "/>
<path style="fill-rule:nonzero;fill:rgb(67%,100%,18%);fill-opacity:1;stroke-width:1;stroke-linecap:butt;stroke-linejoin:round;stroke:rgb(0%,0%,0%);stroke-opacity:1;stroke-miterlimit:10;" d="M 231.738281 446.441406 C 231.738281 463.007812 218.304688 476.441406 201.738281 476.441406 C 185.167969 476.441406 171.738281 463.007812 171.738281 446.441406 C 171.738281 429.871094 185.167969 416.441406 201.738281 416.441406 C 218.304688 416.441406 231.738281 429.871094 231.738281 446.441406 "/>
<path style="fill-rule:nonzero;fill:rgb(67%,100%,18%);fill-opacity:1;stroke-width:1;stroke-linecap:butt;stroke-linejoin:round;stroke:rgb(0%,0%,0%);stroke-opacity:1;stroke-miterlimit:10;" d="M 179.589844 153.625 C 179.589844 170.195312 166.15625 183.625 149.589844 183.625 C 133.019531 183.625 119.589844 170.195312 119.589844 153.625 C 119.589844 137.058594 133.019531 123.625 149.589844 123.625 C 166.15625 123.625 179.589844 137.058594 179.589844 153.625 "/>
<path style="fill-rule:nonzero;fill:rgb(67%,100%,18%);fill-opacity:1;stroke-width:1;stroke-linecap:butt;stroke-linejoin:round;stroke:rgb(0%,0%,0%);stroke-opacity:1;stroke-miterlimit:10;" d="M 451.226562 397.257812 C 451.226562 413.828125 437.796875 427.257812 421.226562 427.257812 C 404.660156 427.257812 391.226562 413.828125 391.226562 397.257812 C 391.226562 380.6875 404.660156 367.257812 421.226562 367.257812 C 437.796875 367.257812 451.226562 380.6875 451.226562 397.257812 "/>
</g>
</svg>
