<?xml version="1.0" encoding="UTF-8"?>
<svg xmlns="http://www.w3.org/2000/svg" xmlns:xlink="http://www.w3.org/1999/xlink" width="517pt" height="517pt" viewBox="0 0 517 517" version="1.1">
<g id="surface12796">
<rect x="0" y="0" width="517" height="517" style="fill:rgb(90%,90%,90%);fill-opacity:1;stroke:none;"/>
<path style="fill-rule:nonzero;fill:rgb(35%,70%,90%);fill-opacity:1;stroke-width:1;stroke-linecap:butt;stroke-linejoin:miter;stroke:rgb(0%,0%,0%);stroke-opacity:1;stroke-miterlimit:10;" d="M 170.175781 154.203125 L 150.175781 154.203125 L 150.175781 164.203125 L 170.175781 164.203125 L 170.175781 184.203125 L 180.175781 184.203125 L 180.175781 164.203125 L 200.175781 164.203125 L 200.175781 154.203125 L 180.175781 154.203125 L 180.175781 134.203125 L 170.175781 134.203125 L 170.175781 154.203125 "/>
<path style="fill-rule:nonzero;fill:rgb(35%,70%,90%);fill-opacity:1;stroke-width:1;stroke-linecap:butt;stroke-linejoin:miter;stroke:rgb(0%,0%,0%);stroke-opacity:1;stroke-miterlimit:10;" d="M 77.832031 140.527344 L 57.832031 140.527344 L 57.832031 150.527344 L 77.832031 150.527344 L 77.832031 170.527344 L 87.832031 170.527344 L 87.832031 150.527344 L 107.832031 150.527344 L 107.832031 140.527344 L 87.832031 140.527344 L 87.832031 120.527344 L 77.832031 120.527344 L 77.832031 140.527344 "/>
<path style="fill-rule:nonzero;fill:rgb(35%,70%,90%);fill-opacity:1;stroke-width:1;stroke-linecap:butt;stroke-linejoin:miter;stroke:rgb(0%,0%,0%);stroke-opacity:1;stroke-miterlimit:10;" d="M 186.816406 357.847656 L 166.816406 357.847656 L 166.816406 367.847656 L 186.816406 367.847656 L 186.816406 387.847656 L 196.816406 387.847656 L 196.816406 367.847656 L 216.816406 367.847656 L 216.816406 357.847656 L 196.816406 357.847656 L 196.816406 337.847656 L 186.816406 337.847656 L 186.816406 357.847656 "/>
<path style="fill-rule:nonzero;fill:rgb(35%,70%,90%);fill-opacity:1;stroke-width:1;stroke-linecap:butt;stroke-linejoin:miter;stroke:rgb(0%,0%,0%);stroke-opacity:1;stroke-miterlimit:10;" d="M 470.652344 66.6875 L 450.652344 66.6875 L 450.652344 76.6875 L 470.652344 76.6875 L 470.652344 96.6875 L 480.652344 96.6875 L 480.652344 76.6875 L 500.652344 76.6875 L 500.652344 66.6875 L 480.652344 66.6875 L 480.652344 46.6875 L 470.652344 46.6875 L 470.652344 66.6875 "/>
<path style="fill-rule:nonzero;fill:rgb(35%,70%,90%);fill-opacity:1;stroke-width:1;stroke-linecap:butt;stroke-linejoin:miter;stroke:rgb(0%,0%,0%);stroke-opacity:1;stroke-miterlimit:10;" d="M 339.25 90.617188 L 319.25 90.617188 L 319.25 100.617188 L 339.25 100.617188 L 339.25 120.617188 L 349.25 120.617188 L 349.25 100.617188 L 369.25 100.617188 L 369.25 90.617188 L 349.25 90.617188 L 349.25 70.617188 L 339.25 70.617188 L 339.25 90.617188 "/>
</g>
</svg>
