<?xml version="1.0" encoding="UTF-8"?>
<svg xmlns="http://www.w3.org/2000/svg" xmlns:xlink="http://www.w3.org/1999/xlink" width="517pt" height="517pt" viewBox="0 0 517 517" version="1.1">
<g id="surface12956">
<rect x="0" y="0" width="517" height="517" style="fill:rgb(90%,90%,90%);fill-opacity:1;stroke:none;"/>
<path style="fill-rule:nonzero;fill:rgb(67%,100%,18%);fill-opacity:1;stroke-width:1;stroke-linecap:butt;stroke-linejoin:miter;stroke:rgb(0%,0%,0%);stroke-opacity:1;stroke-miterlimit:10;" d="M 401.40625 197.957031 C 401.40625 214.523438 387.976562 227.957031 371.40625 227.957031 C 354.839844 227.957031 341.40625 214.523438 341.40625 197.957031 C 341.40625 181.386719 354.839844 167.957031 371.40625 167.957031 C 387.976562 167.957031 401.40625 181.386719 401.40625 197.957031 "/>
<path style="fill-rule:nonzero;fill:rgb(67%,100%,18%);fill-opacity:1;stroke-width:1;stroke-linecap:butt;stroke-linejoin:miter;stroke:rgb(0%,0%,0%);stroke-opacity:1;stroke-miterlimit:10;" d="M 152.296875 472.714844 C 152.296875 489.285156 138.867188 502.714844 122.296875 502.714844 C 105.730469 502.714844 92.296875 489.285156 92.296875 472.714844 C 92.296875 456.144531 105.730469 442.714844 122.296875 442.714844 C 138.867188 442.714844 152.296875 456.144531 152.296875 472.714844 "/>
<path style="fill-rule:nonzero;fill:rgb(67%,100%,18%);fill-opacity:1;stroke-width:1;stroke-linecap:butt;stroke-linejoin:miter;stroke:rgb(0%,0%,0%);stroke-opacity:1;stroke-miterlimit:10;" d="M 235.003906 408.617188 C 235.003906 425.1875 221.574219 438.617188 205.003906 438.617188 C 188.4375 438.617188 175.003906 425.1875 175.003906 408.617188 C 175.003906 392.046875 188.4375 378.617188 205.003906 378.617188 C 221.574219 378.617188 235.003906 392.046875 235.003906 408.617188 "/>
<path style="fill-rule:nonzero;fill:rgb(67%,100%,18%);fill-opacity:1;stroke-width:1;stroke-linecap:butt;stroke-linejoin:miter;stroke:rgb(0%,0%,0%);stroke-opacity:1;stroke-miterlimit:10;" d="M 247.992188 302.070312 C 247.992188 318.640625 234.5625 332.070312 217.992188 332.070312 C 201.425781 332.070312 187.992188 318.640625 187.992188 302.070312 C 187.992188 285.503906 201.425781 272.070312 217.992188 272.070312 C 234.5625 272.070312 247.992188 285.503906 247.992188 302.070312 "/>
<path style="fill-rule:nonzero;fill:rgb(67%,100%,18%);fill-opacity:1;stroke-width:1;stroke-linecap:butt;stroke-linejoin:miter;stroke:rgb(0%,0%,0%);stroke-opacity:1;stroke-miterlimit:10;" d="M 210.726562 349.570312 C 210.726562 366.140625 197.292969 379.570312 180.726562 379.570312 C 164.15625 379.570312 150.726562 366.140625 150.726562 349.570312 C 150.726562 333.003906 164.15625 319.570312 180.726562 319.570312 C 197.292969 319.570312 210.726562 333.003906 210.726562 349.570312 "/>
<path style="fill-rule:nonzero;fill:rgb(67%,100%,18%);fill-opacity:1;stroke-width:1;stroke-linecap:butt;stroke-linejoin:miter;stroke:rgb(0%,0%,0%);stroke-opacity:1;stroke-miterlimit:10;" d="M 93.433594 46.382812 C 93.433594 62.953125 80.003906 76.382812 63.433594 76.382812 C 46.867188 76.382812 33.433594 62.953125 33.433594 46.382812 C 33.433594 29.816406 46.867188 16.382812 63.433594 16.382812 C 80.003906 16.382812 93.433594 29.816406 93.433594 46.382812 "/>
</g>
</svg>
