<?xml version="1.0" encoding="UTF-8"?>
<svg xmlns="http://www.w3.org/2000/svg" xmlns:xlink="http://www.w3.org/1999/xlink" width="517pt" height="517pt" viewBox="0 0 517 517" version="1.1">
<g id="surface596">
<rect x="0" y="0" width="517" height="517" style="fill:rgb(90%,90%,90%);fill-opacity:1;stroke:none;"/>
<path style="fill:none;stroke-width:5;stroke-linecap:butt;stroke-linejoin:round;stroke:rgb(100%,0%,0%);stroke-opacity:1;stroke-miterlimit:10;" d="M 261 5 L 517 5 L 517 261 L 261 261 Z M 261 5 "/>
<path style="fill-rule:nonzero;fill:rgb(35%,70%,90%);fill-opacity:1;stroke-width:1;stroke-linecap:butt;stroke-linejoin:round;stroke:rgb(0%,0%,0%);stroke-opacity:1;stroke-miterlimit:10;" d="M 386.488281 128.292969 C 386.488281 144.863281 373.054688 158.292969 356.488281 158.292969 C 339.917969 158.292969 326.488281 144.863281 326.488281 128.292969 C 326.488281 111.726562 339.917969 98.292969 356.488281 98.292969 C 373.054688 98.292969 386.488281 111.726562 386.488281 128.292969 "/>
<path style="fill-rule:nonzero;fill:rgb(67%,100%,18%);fill-opacity:1;stroke-width:1;stroke-linecap:butt;stroke-linejoin:round;stroke:rgb(0%,0%,0%);stroke-opacity:1;stroke-miterlimit:10;" d="M 490.40625 305.882812 C 490.40625 322.449219 476.972656 335.882812 460.40625 335.882812 C 443.835938 335.882812 430.40625 322.449219 430.40625 305.882812 C 430.40625 289.3125 443.835938 275.882812 460.40625 275.882812 C 476.972656 275.882812 490.40625 289.3125 490.40625 305.882812 "/>
<path style="fill-rule:nonzero;fill:rgb(67%,100%,18%);fill-opacity:1;stroke-width:1;stroke-linecap:butt;stroke-linejoin:round;stroke:rgb(0%,0%,0%);stroke-opacity:1;stroke-miterlimit:10;" d="M 402.203125 469.265625 C 402.203125 485.835938 388.773438 499.265625 372.203125 499.265625 C 355.636719 499.265625 342.203125 485.835938 342.203125 469.265625 C 342.203125 452.699219 355.636719 439.265625 372.203125 439.265625 C 388.773438 439.265625 402.203125 452.699219 402.203125 469.265625 "/>
<path style="fill-rule:nonzero;fill:rgb(35%,70%,90%);fill-opacity:1;stroke-width:1;stroke-linecap:butt;stroke-linejoin:round;stroke:rgb(0%,0%,0%);stroke-opacity:1;stroke-miterlimit:10;" d="M 145.300781 40.992188 C 145.300781 57.5625 131.871094 70.992188 115.300781 70.992188 C 98.734375 70.992188 85.300781 57.5625 85.300781 40.992188 C 85.300781 24.425781 98.734375 10.992188 115.300781 10.992188 C 131.871094 10.992188 145.300781 24.425781 145.300781 40.992188 "/>
</g>
</svg>
