<?xml version="1.0" encoding="UTF-8"?>
<svg xmlns="http://www.w3.org/2000/svg" xmlns:xlink="http://www.w3.org/1999/xlink" width="517pt" height="517pt" viewBox="0 0 517 517" version="1.1">
<g id="surface12916">
<rect x="0" y="0" width="517" height="517" style="fill:rgb(90%,90%,90%);fill-opacity:1;stroke:none;"/>
<path style="fill-rule:nonzero;fill:rgb(67%,100%,18%);fill-opacity:1;stroke-width:1;stroke-linecap:butt;stroke-linejoin:miter;stroke:rgb(0%,0%,0%);stroke-opacity:1;stroke-miterlimit:10;" d="M 378.964844 187.859375 C 378.964844 204.429688 365.53125 217.859375 348.964844 217.859375 C 332.394531 217.859375 318.964844 204.429688 318.964844 187.859375 C 318.964844 171.292969 332.394531 157.859375 348.964844 157.859375 C 365.53125 157.859375 378.964844 171.292969 378.964844 187.859375 "/>
<path style="fill-rule:nonzero;fill:rgb(67%,100%,18%);fill-opacity:1;stroke-width:1;stroke-linecap:butt;stroke-linejoin:miter;stroke:rgb(0%,0%,0%);stroke-opacity:1;stroke-miterlimit:10;" d="M 382.035156 355.0625 C 382.035156 371.632812 368.605469 385.0625 352.035156 385.0625 C 335.46875 385.0625 322.035156 371.632812 322.035156 355.0625 C 322.035156 338.496094 335.46875 325.0625 352.035156 325.0625 C 368.605469 325.0625 382.035156 338.496094 382.035156 355.0625 "/>
<path style="fill-rule:nonzero;fill:rgb(67%,100%,18%);fill-opacity:1;stroke-width:1;stroke-linecap:butt;stroke-linejoin:miter;stroke:rgb(0%,0%,0%);stroke-opacity:1;stroke-miterlimit:10;" d="M 329.046875 305.09375 C 329.046875 321.664062 315.613281 335.09375 299.046875 335.09375 C 282.476562 335.09375 269.046875 321.664062 269.046875 305.09375 C 269.046875 288.523438 282.476562 275.09375 299.046875 275.09375 C 315.613281 275.09375 329.046875 288.523438 329.046875 305.09375 "/>
<path style="fill-rule:nonzero;fill:rgb(67%,100%,18%);fill-opacity:1;stroke-width:1;stroke-linecap:butt;stroke-linejoin:miter;stroke:rgb(0%,0%,0%);stroke-opacity:1;stroke-miterlimit:10;" d="M 330.515625 456.738281 C 330.515625 473.308594 317.082031 486.738281 300.515625 486.738281 C 283.945312 486.738281 270.515625 473.308594 270.515625 456.738281 C 270.515625 440.167969 283.945312 426.738281 300.515625 426.738281 C 317.082031 426.738281 330.515625 440.167969 330.515625 456.738281 "/>
<path style="fill-rule:nonzero;fill:rgb(67%,100%,18%);fill-opacity:1;stroke-width:1;stroke-linecap:butt;stroke-linejoin:miter;stroke:rgb(0%,0%,0%);stroke-opacity:1;stroke-miterlimit:10;" d="M 467.375 436.660156 C 467.375 453.230469 453.941406 466.660156 437.375 466.660156 C 420.804688 466.660156 407.375 453.230469 407.375 436.660156 C 407.375 420.09375 420.804688 406.660156 437.375 406.660156 C 453.941406 406.660156 467.375 420.09375 467.375 436.660156 "/>
<path style="fill-rule:nonzero;fill:rgb(67%,100%,18%);fill-opacity:1;stroke-width:1;stroke-linecap:butt;stroke-linejoin:miter;stroke:rgb(0%,0%,0%);stroke-opacity:1;stroke-miterlimit:10;" d="M 98.90625 211.183594 C 98.90625 227.753906 85.472656 241.183594 68.90625 241.183594 C 52.335938 241.183594 38.90625 227.753906 38.90625 211.183594 C 38.90625 194.617188 52.335938 181.183594 68.90625 181.183594 C 85.472656 181.183594 98.90625 194.617188 98.90625 211.183594 "/>
</g>
</svg>
