<?xml version="1.0" encoding="UTF-8"?>
<svg xmlns="http://www.w3.org/2000/svg" xmlns:xlink="http://www.w3.org/1999/xlink" width="517pt" height="517pt" viewBox="0 0 517 517" version="1.1">
<g id="surface636">
<rect x="0" y="0" width="517" height="517" style="fill:rgb(90%,90%,90%);fill-opacity:1;stroke:none;"/>
<path style="fill:none;stroke-width:5;stroke-linecap:butt;stroke-linejoin:round;stroke:rgb(100%,0%,0%);stroke-opacity:1;stroke-miterlimit:10;" d="M 261 5 L 517 5 L 517 261 L 261 261 Z M 261 5 "/>
<path style="fill-rule:nonzero;fill:rgb(67%,100%,18%);fill-opacity:1;stroke-width:1;stroke-linecap:butt;stroke-linejoin:round;stroke:rgb(0%,0%,0%);stroke-opacity:1;stroke-miterlimit:10;" d="M 456.582031 187.179688 C 456.582031 203.746094 443.152344 217.179688 426.582031 217.179688 C 410.015625 217.179688 396.582031 203.746094 396.582031 187.179688 C 396.582031 170.609375 410.015625 157.179688 426.582031 157.179688 C 443.152344 157.179688 456.582031 170.609375 456.582031 187.179688 "/>
<path style="fill-rule:nonzero;fill:rgb(67%,100%,18%);fill-opacity:1;stroke-width:1;stroke-linecap:butt;stroke-linejoin:round;stroke:rgb(0%,0%,0%);stroke-opacity:1;stroke-miterlimit:10;" d="M 223.109375 426.132812 C 223.109375 442.699219 209.679688 456.132812 193.109375 456.132812 C 176.542969 456.132812 163.109375 442.699219 163.109375 426.132812 C 163.109375 409.5625 176.542969 396.132812 193.109375 396.132812 C 209.679688 396.132812 223.109375 409.5625 223.109375 426.132812 "/>
<path style="fill-rule:nonzero;fill:rgb(67%,100%,18%);fill-opacity:1;stroke-width:1;stroke-linecap:butt;stroke-linejoin:round;stroke:rgb(0%,0%,0%);stroke-opacity:1;stroke-miterlimit:10;" d="M 101.75 418.335938 C 101.75 434.902344 88.320312 448.335938 71.75 448.335938 C 55.183594 448.335938 41.75 434.902344 41.75 418.335938 C 41.75 401.765625 55.183594 388.335938 71.75 388.335938 C 88.320312 388.335938 101.75 401.765625 101.75 418.335938 "/>
<path style="fill-rule:nonzero;fill:rgb(35%,70%,90%);fill-opacity:1;stroke-width:1;stroke-linecap:butt;stroke-linejoin:round;stroke:rgb(0%,0%,0%);stroke-opacity:1;stroke-miterlimit:10;" d="M 415.183594 424.441406 C 415.183594 441.007812 401.75 454.441406 385.183594 454.441406 C 368.613281 454.441406 355.183594 441.007812 355.183594 424.441406 C 355.183594 407.871094 368.613281 394.441406 385.183594 394.441406 C 401.75 394.441406 415.183594 407.871094 415.183594 424.441406 "/>
</g>
</svg>
