<?xml version="1.0" encoding="UTF-8"?>
<svg xmlns="http://www.w3.org/2000/svg" xmlns:xlink="http://www.w3.org/1999/xlink" width="517pt" height="517pt" viewBox="0 0 517 517" version="1.1">
<g id="surface12736">
<rect x="0" y="0" width="517" height="517" style="fill:rgb(90%,90%,90%);fill-opacity:1;stroke:none;"/>
<path style="fill-rule:nonzero;fill:rgb(35%,70%,90%);fill-opacity:1;stroke-width:1;stroke-linecap:butt;stroke-linejoin:miter;stroke:rgb(0%,0%,0%);stroke-opacity:1;stroke-miterlimit:10;" d="M 34.703125 436.664062 L 14.703125 436.664062 L 14.703125 446.664062 L 34.703125 446.664062 L 34.703125 466.664062 L 44.703125 466.664062 L 44.703125 446.664062 L 64.703125 446.664062 L 64.703125 436.664062 L 44.703125 436.664062 L 44.703125 416.664062 L 34.703125 416.664062 L 34.703125 436.664062 "/>
<path style="fill-rule:nonzero;fill:rgb(35%,70%,90%);fill-opacity:1;stroke-width:1;stroke-linecap:butt;stroke-linejoin:miter;stroke:rgb(0%,0%,0%);stroke-opacity:1;stroke-miterlimit:10;" d="M 156.496094 416.953125 L 136.496094 416.953125 L 136.496094 426.953125 L 156.496094 426.953125 L 156.496094 446.953125 L 166.496094 446.953125 L 166.496094 426.953125 L 186.496094 426.953125 L 186.496094 416.953125 L 166.496094 416.953125 L 166.496094 396.953125 L 156.496094 396.953125 L 156.496094 416.953125 "/>
<path style="fill-rule:nonzero;fill:rgb(35%,70%,90%);fill-opacity:1;stroke-width:1;stroke-linecap:butt;stroke-linejoin:miter;stroke:rgb(0%,0%,0%);stroke-opacity:1;stroke-miterlimit:10;" d="M 368.8125 78.085938 L 348.8125 78.085938 L 348.8125 88.085938 L 368.8125 88.085938 L 368.8125 108.085938 L 378.8125 108.085938 L 378.8125 88.085938 L 398.8125 88.085938 L 398.8125 78.085938 L 378.8125 78.085938 L 378.8125 58.085938 L 368.8125 58.085938 L 368.8125 78.085938 "/>
<path style="fill-rule:nonzero;fill:rgb(35%,70%,90%);fill-opacity:1;stroke-width:1;stroke-linecap:butt;stroke-linejoin:miter;stroke:rgb(0%,0%,0%);stroke-opacity:1;stroke-miterlimit:10;" d="M 336.214844 164.4375 L 316.214844 164.4375 L 316.214844 174.4375 L 336.214844 174.4375 L 336.214844 194.4375 L 346.214844 194.4375 L 346.214844 174.4375 L 366.214844 174.4375 L 366.214844 164.4375 L 346.214844 164.4375 L 346.214844 144.4375 L 336.214844 144.4375 L 336.214844 164.4375 "/>
<path style="fill-rule:nonzero;fill:rgb(35%,70%,90%);fill-opacity:1;stroke-width:1;stroke-linecap:butt;stroke-linejoin:miter;stroke:rgb(0%,0%,0%);stroke-opacity:1;stroke-miterlimit:10;" d="M 419.324219 204.828125 L 399.324219 204.828125 L 399.324219 214.828125 L 419.324219 214.828125 L 419.324219 234.828125 L 429.324219 234.828125 L 429.324219 214.828125 L 449.324219 214.828125 L 449.324219 204.828125 L 429.324219 204.828125 L 429.324219 184.828125 L 419.324219 184.828125 L 419.324219 204.828125 "/>
</g>
</svg>
