<?xml version="1.0" encoding="UTF-8"?>
<svg xmlns="http://www.w3.org/2000/svg" xmlns:xlink="http://www.w3.org/1999/xlink" width="517pt" height="517pt" viewBox="0 0 517 517" version="1.1">
<g id="surface13416">
<rect x="0" y="0" width="517" height="517" style="fill:rgb(90%,90%,90%);fill-opacity:1;stroke:none;"/>
<path style="fill-rule:nonzero;fill:rgb(0%,0%,0%);fill-opacity:1;stroke-width:1;stroke-linecap:butt;stroke-linejoin:miter;stroke:rgb(0%,0%,0%);stroke-opacity:1;stroke-miterlimit:10;" d="M 189.726562 345.101562 C 189.726562 361.671875 176.296875 375.101562 159.726562 375.101562 C 143.160156 375.101562 129.726562 361.671875 129.726562 345.101562 C 129.726562 328.53125 143.160156 315.101562 159.726562 315.101562 C 176.296875 315.101562 189.726562 328.53125 189.726562 345.101562 "/>
<path style="fill-rule:nonzero;fill:rgb(0%,0%,0%);fill-opacity:1;stroke-width:1;stroke-linecap:butt;stroke-linejoin:miter;stroke:rgb(0%,0%,0%);stroke-opacity:1;stroke-miterlimit:10;" d="M 338.078125 309.023438 C 338.078125 325.59375 324.648438 339.023438 308.078125 339.023438 C 291.511719 339.023438 278.078125 325.59375 278.078125 309.023438 C 278.078125 292.457031 291.511719 279.023438 308.078125 279.023438 C 324.648438 279.023438 338.078125 292.457031 338.078125 309.023438 "/>
<path style="fill-rule:nonzero;fill:rgb(0%,0%,0%);fill-opacity:1;stroke-width:1;stroke-linecap:butt;stroke-linejoin:miter;stroke:rgb(0%,0%,0%);stroke-opacity:1;stroke-miterlimit:10;" d="M 416.621094 437.605469 C 416.621094 454.175781 403.1875 467.605469 386.621094 467.605469 C 370.050781 467.605469 356.621094 454.175781 356.621094 437.605469 C 356.621094 421.039062 370.050781 407.605469 386.621094 407.605469 C 403.1875 407.605469 416.621094 421.039062 416.621094 437.605469 "/>
<path style="fill-rule:nonzero;fill:rgb(0%,0%,0%);fill-opacity:1;stroke-width:1;stroke-linecap:butt;stroke-linejoin:miter;stroke:rgb(0%,0%,0%);stroke-opacity:1;stroke-miterlimit:10;" d="M 500.890625 301.613281 C 500.890625 318.183594 487.457031 331.613281 470.890625 331.613281 C 454.320312 331.613281 440.890625 318.183594 440.890625 301.613281 C 440.890625 285.046875 454.320312 271.613281 470.890625 271.613281 C 487.457031 271.613281 500.890625 285.046875 500.890625 301.613281 "/>
<path style="fill-rule:nonzero;fill:rgb(0%,0%,0%);fill-opacity:1;stroke-width:1;stroke-linecap:butt;stroke-linejoin:miter;stroke:rgb(0%,0%,0%);stroke-opacity:1;stroke-miterlimit:10;" d="M 159.101562 38.421875 C 159.101562 54.992188 145.667969 68.421875 129.101562 68.421875 C 112.53125 68.421875 99.101562 54.992188 99.101562 38.421875 C 99.101562 21.851562 112.53125 8.421875 129.101562 8.421875 C 145.667969 8.421875 159.101562 21.851562 159.101562 38.421875 "/>
<path style="fill-rule:nonzero;fill:rgb(35%,70%,90%);fill-opacity:1;stroke-width:1;stroke-linecap:butt;stroke-linejoin:miter;stroke:rgb(0%,0%,0%);stroke-opacity:1;stroke-miterlimit:10;" d="M 76.347656 196.25 C 76.347656 212.816406 62.917969 226.25 46.347656 226.25 C 29.78125 226.25 16.347656 212.816406 16.347656 196.25 C 16.347656 179.679688 29.78125 166.25 46.347656 166.25 C 62.917969 166.25 76.347656 179.679688 76.347656 196.25 "/>
</g>
</svg>
