<?xml version="1.0" encoding="UTF-8"?>
<svg xmlns="http://www.w3.org/2000/svg" xmlns:xlink="http://www.w3.org/1999/xlink" width="517pt" height="517pt" viewBox="0 0 517 517" version="1.1">
<g id="surface13096">
<rect x="0" y="0" width="517" height="517" style="fill:rgb(90%,90%,90%);fill-opacity:1;stroke:none;"/>
<path style="fill-rule:nonzero;fill:rgb(100%,0%,0%);fill-opacity:1;stroke-width:1;stroke-linecap:butt;stroke-linejoin:miter;stroke:rgb(0%,0%,0%);stroke-opacity:1;stroke-miterlimit:10;" d="M 475.132812 212.941406 C 475.132812 229.507812 461.699219 242.941406 445.132812 242.941406 C 428.5625 242.941406 415.132812 229.507812 415.132812 212.941406 C 415.132812 196.371094 428.5625 182.941406 445.132812 182.941406 C 461.699219 182.941406 475.132812 196.371094 475.132812 212.941406 "/>
<path style="fill-rule:nonzero;fill:rgb(100%,0%,0%);fill-opacity:1;stroke-width:1;stroke-linecap:butt;stroke-linejoin:miter;stroke:rgb(0%,0%,0%);stroke-opacity:1;stroke-miterlimit:10;" d="M 245.546875 291.609375 C 245.546875 308.175781 232.117188 321.609375 215.546875 321.609375 C 198.980469 321.609375 185.546875 308.175781 185.546875 291.609375 C 185.546875 275.039062 198.980469 261.609375 215.546875 261.609375 C 232.117188 261.609375 245.546875 275.039062 245.546875 291.609375 "/>
<path style="fill-rule:nonzero;fill:rgb(0%,0%,0%);fill-opacity:1;stroke-width:1;stroke-linecap:butt;stroke-linejoin:miter;stroke:rgb(0%,0%,0%);stroke-opacity:1;stroke-miterlimit:10;" d="M 165.660156 435.136719 C 165.660156 451.703125 152.226562 465.136719 135.660156 465.136719 C 119.089844 465.136719 105.660156 451.703125 105.660156 435.136719 C 105.660156 418.566406 119.089844 405.136719 135.660156 405.136719 C 152.226562 405.136719 165.660156 418.566406 165.660156 435.136719 "/>
<path style="fill-rule:nonzero;fill:rgb(0%,0%,0%);fill-opacity:1;stroke-width:1;stroke-linecap:butt;stroke-linejoin:miter;stroke:rgb(0%,0%,0%);stroke-opacity:1;stroke-miterlimit:10;" d="M 170.984375 73.796875 C 170.984375 90.363281 157.554688 103.796875 140.984375 103.796875 C 124.417969 103.796875 110.984375 90.363281 110.984375 73.796875 C 110.984375 57.226562 124.417969 43.796875 140.984375 43.796875 C 157.554688 43.796875 170.984375 57.226562 170.984375 73.796875 "/>
<path style="fill-rule:nonzero;fill:rgb(0%,0%,0%);fill-opacity:1;stroke-width:1;stroke-linecap:butt;stroke-linejoin:miter;stroke:rgb(0%,0%,0%);stroke-opacity:1;stroke-miterlimit:10;" d="M 229.832031 53.390625 C 229.832031 69.957031 216.398438 83.390625 199.832031 83.390625 C 183.261719 83.390625 169.832031 69.957031 169.832031 53.390625 C 169.832031 36.820312 183.261719 23.390625 199.832031 23.390625 C 216.398438 23.390625 229.832031 36.820312 229.832031 53.390625 "/>
<path style="fill-rule:nonzero;fill:rgb(0%,0%,0%);fill-opacity:1;stroke-width:1;stroke-linecap:butt;stroke-linejoin:miter;stroke:rgb(0%,0%,0%);stroke-opacity:1;stroke-miterlimit:10;" d="M 138.691406 196.902344 C 138.691406 213.472656 125.257812 226.902344 108.691406 226.902344 C 92.121094 226.902344 78.691406 213.472656 78.691406 196.902344 C 78.691406 180.335938 92.121094 166.902344 108.691406 166.902344 C 125.257812 166.902344 138.691406 180.335938 138.691406 196.902344 "/>
</g>
</svg>
