<?xml version="1.0" encoding="UTF-8"?>
<svg xmlns="http://www.w3.org/2000/svg" xmlns:xlink="http://www.w3.org/1999/xlink" width="517pt" height="517pt" viewBox="0 0 517 517" version="1.1">
<g id="surface13316">
<rect x="0" y="0" width="517" height="517" style="fill:rgb(90%,90%,90%);fill-opacity:1;stroke:none;"/>
<path style="fill-rule:nonzero;fill:rgb(0%,0%,0%);fill-opacity:1;stroke-width:1;stroke-linecap:butt;stroke-linejoin:miter;stroke:rgb(0%,0%,0%);stroke-opacity:1;stroke-miterlimit:10;" d="M 159.160156 363.808594 C 159.160156 380.378906 145.730469 393.808594 129.160156 393.808594 C 112.589844 393.808594 99.160156 380.378906 99.160156 363.808594 C 99.160156 347.238281 112.589844 333.808594 129.160156 333.808594 C 145.730469 333.808594 159.160156 347.238281 159.160156 363.808594 "/>
<path style="fill-rule:nonzero;fill:rgb(0%,0%,0%);fill-opacity:1;stroke-width:1;stroke-linecap:butt;stroke-linejoin:miter;stroke:rgb(0%,0%,0%);stroke-opacity:1;stroke-miterlimit:10;" d="M 504.402344 388.089844 C 504.402344 404.65625 490.972656 418.089844 474.402344 418.089844 C 457.835938 418.089844 444.402344 404.65625 444.402344 388.089844 C 444.402344 371.519531 457.835938 358.089844 474.402344 358.089844 C 490.972656 358.089844 504.402344 371.519531 504.402344 388.089844 "/>
<path style="fill-rule:nonzero;fill:rgb(0%,0%,0%);fill-opacity:1;stroke-width:1;stroke-linecap:butt;stroke-linejoin:miter;stroke:rgb(0%,0%,0%);stroke-opacity:1;stroke-miterlimit:10;" d="M 342.105469 380.308594 C 342.105469 396.875 328.675781 410.308594 312.105469 410.308594 C 295.539062 410.308594 282.105469 396.875 282.105469 380.308594 C 282.105469 363.738281 295.539062 350.308594 312.105469 350.308594 C 328.675781 350.308594 342.105469 363.738281 342.105469 380.308594 "/>
<path style="fill-rule:nonzero;fill:rgb(0%,0%,0%);fill-opacity:1;stroke-width:1;stroke-linecap:butt;stroke-linejoin:miter;stroke:rgb(0%,0%,0%);stroke-opacity:1;stroke-miterlimit:10;" d="M 451.515625 326.894531 C 451.515625 343.460938 438.082031 356.894531 421.515625 356.894531 C 404.945312 356.894531 391.515625 343.460938 391.515625 326.894531 C 391.515625 310.324219 404.945312 296.894531 421.515625 296.894531 C 438.082031 296.894531 451.515625 310.324219 451.515625 326.894531 "/>
<path style="fill-rule:nonzero;fill:rgb(0%,0%,0%);fill-opacity:1;stroke-width:1;stroke-linecap:butt;stroke-linejoin:miter;stroke:rgb(0%,0%,0%);stroke-opacity:1;stroke-miterlimit:10;" d="M 384.195312 461.320312 C 384.195312 477.886719 370.761719 491.320312 354.195312 491.320312 C 337.625 491.320312 324.195312 477.886719 324.195312 461.320312 C 324.195312 444.75 337.625 431.320312 354.195312 431.320312 C 370.761719 431.320312 384.195312 444.75 384.195312 461.320312 "/>
<path style="fill-rule:nonzero;fill:rgb(35%,70%,90%);fill-opacity:1;stroke-width:1;stroke-linecap:butt;stroke-linejoin:miter;stroke:rgb(0%,0%,0%);stroke-opacity:1;stroke-miterlimit:10;" d="M 205.726562 220.65625 C 205.726562 237.222656 192.296875 250.65625 175.726562 250.65625 C 159.160156 250.65625 145.726562 237.222656 145.726562 220.65625 C 145.726562 204.085938 159.160156 190.65625 175.726562 190.65625 C 192.296875 190.65625 205.726562 204.085938 205.726562 220.65625 "/>
</g>
</svg>
