<?xml version="1.0" encoding="UTF-8"?>
<svg xmlns="http://www.w3.org/2000/svg" xmlns:xlink="http://www.w3.org/1999/xlink" width="517pt" height="517pt" viewBox="0 0 517 517" version="1.1">
<g id="surface13076">
<rect x="0" y="0" width="517" height="517" style="fill:rgb(90%,90%,90%);fill-opacity:1;stroke:none;"/>
<path style="fill-rule:nonzero;fill:rgb(100%,0%,0%);fill-opacity:1;stroke-width:1;stroke-linecap:butt;stroke-linejoin:miter;stroke:rgb(0%,0%,0%);stroke-opacity:1;stroke-miterlimit:10;" d="M 137.042969 174.945312 C 137.042969 191.511719 123.613281 204.945312 107.042969 204.945312 C 90.476562 204.945312 77.042969 191.511719 77.042969 174.945312 C 77.042969 158.375 90.476562 144.945312 107.042969 144.945312 C 123.613281 144.945312 137.042969 158.375 137.042969 174.945312 "/>
<path style="fill-rule:nonzero;fill:rgb(100%,0%,0%);fill-opacity:1;stroke-width:1;stroke-linecap:butt;stroke-linejoin:miter;stroke:rgb(0%,0%,0%);stroke-opacity:1;stroke-miterlimit:10;" d="M 405.082031 184.128906 C 405.082031 200.695312 391.652344 214.128906 375.082031 214.128906 C 358.511719 214.128906 345.082031 200.695312 345.082031 184.128906 C 345.082031 167.558594 358.511719 154.128906 375.082031 154.128906 C 391.652344 154.128906 405.082031 167.558594 405.082031 184.128906 "/>
<path style="fill-rule:nonzero;fill:rgb(0%,0%,0%);fill-opacity:1;stroke-width:1;stroke-linecap:butt;stroke-linejoin:miter;stroke:rgb(0%,0%,0%);stroke-opacity:1;stroke-miterlimit:10;" d="M 481.109375 138.582031 C 481.109375 155.148438 467.679688 168.582031 451.109375 168.582031 C 434.542969 168.582031 421.109375 155.148438 421.109375 138.582031 C 421.109375 122.011719 434.542969 108.582031 451.109375 108.582031 C 467.679688 108.582031 481.109375 122.011719 481.109375 138.582031 "/>
<path style="fill-rule:nonzero;fill:rgb(0%,0%,0%);fill-opacity:1;stroke-width:1;stroke-linecap:butt;stroke-linejoin:miter;stroke:rgb(0%,0%,0%);stroke-opacity:1;stroke-miterlimit:10;" d="M 328.292969 121.699219 C 328.292969 138.265625 314.859375 151.699219 298.292969 151.699219 C 281.722656 151.699219 268.292969 138.265625 268.292969 121.699219 C 268.292969 105.128906 281.722656 91.699219 298.292969 91.699219 C 314.859375 91.699219 328.292969 105.128906 328.292969 121.699219 "/>
<path style="fill-rule:nonzero;fill:rgb(0%,0%,0%);fill-opacity:1;stroke-width:1;stroke-linecap:butt;stroke-linejoin:miter;stroke:rgb(0%,0%,0%);stroke-opacity:1;stroke-miterlimit:10;" d="M 389.039062 76.699219 C 389.039062 93.265625 375.609375 106.699219 359.039062 106.699219 C 342.472656 106.699219 329.039062 93.265625 329.039062 76.699219 C 329.039062 60.128906 342.472656 46.699219 359.039062 46.699219 C 375.609375 46.699219 389.039062 60.128906 389.039062 76.699219 "/>
<path style="fill-rule:nonzero;fill:rgb(0%,0%,0%);fill-opacity:1;stroke-width:1;stroke-linecap:butt;stroke-linejoin:miter;stroke:rgb(0%,0%,0%);stroke-opacity:1;stroke-miterlimit:10;" d="M 479.15625 74.125 C 479.15625 90.695312 465.722656 104.125 449.15625 104.125 C 432.585938 104.125 419.15625 90.695312 419.15625 74.125 C 419.15625 57.558594 432.585938 44.125 449.15625 44.125 C 465.722656 44.125 479.15625 57.558594 479.15625 74.125 "/>
</g>
</svg>
