<?xml version="1.0" encoding="UTF-8"?>
<svg xmlns="http://www.w3.org/2000/svg" xmlns:xlink="http://www.w3.org/1999/xlink" width="517pt" height="517pt" viewBox="0 0 517 517" version="1.1">
<g id="surface13176">
<rect x="0" y="0" width="517" height="517" style="fill:rgb(90%,90%,90%);fill-opacity:1;stroke:none;"/>
<path style="fill-rule:nonzero;fill:rgb(90%,65%,0%);fill-opacity:1;stroke-width:1;stroke-linecap:butt;stroke-linejoin:miter;stroke:rgb(0%,0%,0%);stroke-opacity:1;stroke-miterlimit:10;" d="M 486.152344 411.285156 C 486.152344 427.855469 472.71875 441.285156 456.152344 441.285156 C 439.582031 441.285156 426.152344 427.855469 426.152344 411.285156 C 426.152344 394.71875 439.582031 381.285156 456.152344 381.285156 C 472.71875 381.285156 486.152344 394.71875 486.152344 411.285156 "/>
<path style="fill-rule:nonzero;fill:rgb(50%,0%,50%);fill-opacity:1;stroke-width:1;stroke-linecap:butt;stroke-linejoin:miter;stroke:rgb(0%,0%,0%);stroke-opacity:1;stroke-miterlimit:10;" d="M 398.839844 410.246094 C 398.839844 426.816406 385.410156 440.246094 368.839844 440.246094 C 352.273438 440.246094 338.839844 426.816406 338.839844 410.246094 C 338.839844 393.679688 352.273438 380.246094 368.839844 380.246094 C 385.410156 380.246094 398.839844 393.679688 398.839844 410.246094 "/>
<path style="fill-rule:nonzero;fill:rgb(50%,0%,50%);fill-opacity:1;stroke-width:1;stroke-linecap:butt;stroke-linejoin:miter;stroke:rgb(0%,0%,0%);stroke-opacity:1;stroke-miterlimit:10;" d="M 417.832031 179.652344 C 417.832031 196.21875 404.402344 209.652344 387.832031 209.652344 C 371.265625 209.652344 357.832031 196.21875 357.832031 179.652344 C 357.832031 163.082031 371.265625 149.652344 387.832031 149.652344 C 404.402344 149.652344 417.832031 163.082031 417.832031 179.652344 "/>
<path style="fill-rule:nonzero;fill:rgb(50%,0%,50%);fill-opacity:1;stroke-width:1;stroke-linecap:butt;stroke-linejoin:miter;stroke:rgb(0%,0%,0%);stroke-opacity:1;stroke-miterlimit:10;" d="M 473.117188 152.730469 C 473.117188 169.296875 459.6875 182.730469 443.117188 182.730469 C 426.550781 182.730469 413.117188 169.296875 413.117188 152.730469 C 413.117188 136.160156 426.550781 122.730469 443.117188 122.730469 C 459.6875 122.730469 473.117188 136.160156 473.117188 152.730469 "/>
<path style="fill-rule:nonzero;fill:rgb(50%,0%,50%);fill-opacity:1;stroke-width:1;stroke-linecap:butt;stroke-linejoin:miter;stroke:rgb(0%,0%,0%);stroke-opacity:1;stroke-miterlimit:10;" d="M 330.394531 127.835938 C 330.394531 144.40625 316.960938 157.835938 300.394531 157.835938 C 283.824219 157.835938 270.394531 144.40625 270.394531 127.835938 C 270.394531 111.269531 283.824219 97.835938 300.394531 97.835938 C 316.960938 97.835938 330.394531 111.269531 330.394531 127.835938 "/>
</g>
</svg>
