<?xml version="1.0" encoding="UTF-8"?>
<svg xmlns="http://www.w3.org/2000/svg" xmlns:xlink="http://www.w3.org/1999/xlink" width="517pt" height="517pt" viewBox="0 0 517 517" version="1.1">
<g id="surface13236">
<rect x="0" y="0" width="517" height="517" style="fill:rgb(90%,90%,90%);fill-opacity:1;stroke:none;"/>
<path style="fill-rule:nonzero;fill:rgb(90%,65%,0%);fill-opacity:1;stroke-width:1;stroke-linecap:butt;stroke-linejoin:miter;stroke:rgb(0%,0%,0%);stroke-opacity:1;stroke-miterlimit:10;" d="M 503.792969 460.835938 C 503.792969 477.402344 490.363281 490.835938 473.792969 490.835938 C 457.226562 490.835938 443.792969 477.402344 443.792969 460.835938 C 443.792969 444.265625 457.226562 430.835938 473.792969 430.835938 C 490.363281 430.835938 503.792969 444.265625 503.792969 460.835938 "/>
<path style="fill-rule:nonzero;fill:rgb(50%,0%,50%);fill-opacity:1;stroke-width:1;stroke-linecap:butt;stroke-linejoin:miter;stroke:rgb(0%,0%,0%);stroke-opacity:1;stroke-miterlimit:10;" d="M 227.441406 410.902344 C 227.441406 427.472656 214.007812 440.902344 197.441406 440.902344 C 180.871094 440.902344 167.441406 427.472656 167.441406 410.902344 C 167.441406 394.335938 180.871094 380.902344 197.441406 380.902344 C 214.007812 380.902344 227.441406 394.335938 227.441406 410.902344 "/>
<path style="fill-rule:nonzero;fill:rgb(50%,0%,50%);fill-opacity:1;stroke-width:1;stroke-linecap:butt;stroke-linejoin:miter;stroke:rgb(0%,0%,0%);stroke-opacity:1;stroke-miterlimit:10;" d="M 97.5625 418.449219 C 97.5625 435.019531 84.128906 448.449219 67.5625 448.449219 C 50.992188 448.449219 37.5625 435.019531 37.5625 418.449219 C 37.5625 401.878906 50.992188 388.449219 67.5625 388.449219 C 84.128906 388.449219 97.5625 401.878906 97.5625 418.449219 "/>
<path style="fill-rule:nonzero;fill:rgb(50%,0%,50%);fill-opacity:1;stroke-width:1;stroke-linecap:butt;stroke-linejoin:miter;stroke:rgb(0%,0%,0%);stroke-opacity:1;stroke-miterlimit:10;" d="M 151.316406 316.046875 C 151.316406 332.613281 137.886719 346.046875 121.316406 346.046875 C 104.75 346.046875 91.316406 332.613281 91.316406 316.046875 C 91.316406 299.476562 104.75 286.046875 121.316406 286.046875 C 137.886719 286.046875 151.316406 299.476562 151.316406 316.046875 "/>
<path style="fill-rule:nonzero;fill:rgb(50%,0%,50%);fill-opacity:1;stroke-width:1;stroke-linecap:butt;stroke-linejoin:miter;stroke:rgb(0%,0%,0%);stroke-opacity:1;stroke-miterlimit:10;" d="M 226.269531 340.183594 C 226.269531 356.753906 212.839844 370.183594 196.269531 370.183594 C 179.703125 370.183594 166.269531 356.753906 166.269531 340.183594 C 166.269531 323.617188 179.703125 310.183594 196.269531 310.183594 C 212.839844 310.183594 226.269531 323.617188 226.269531 340.183594 "/>
</g>
</svg>
