<?xml version="1.0" encoding="UTF-8"?>
<svg xmlns="http://www.w3.org/2000/svg" xmlns:xlink="http://www.w3.org/1999/xlink" width="517pt" height="517pt" viewBox="0 0 517 517" version="1.1">
<g id="surface13356">
<rect x="0" y="0" width="517" height="517" style="fill:rgb(90%,90%,90%);fill-opacity:1;stroke:none;"/>
<path style="fill-rule:nonzero;fill:rgb(0%,0%,0%);fill-opacity:1;stroke-width:1;stroke-linecap:butt;stroke-linejoin:miter;stroke:rgb(0%,0%,0%);stroke-opacity:1;stroke-miterlimit:10;" d="M 89.300781 185.328125 C 89.300781 201.894531 75.871094 215.328125 59.300781 215.328125 C 42.734375 215.328125 29.300781 201.894531 29.300781 185.328125 C 29.300781 168.757812 42.734375 155.328125 59.300781 155.328125 C 75.871094 155.328125 89.300781 168.757812 89.300781 185.328125 "/>
<path style="fill-rule:nonzero;fill:rgb(0%,0%,0%);fill-opacity:1;stroke-width:1;stroke-linecap:butt;stroke-linejoin:miter;stroke:rgb(0%,0%,0%);stroke-opacity:1;stroke-miterlimit:10;" d="M 162.121094 163.027344 C 162.121094 179.597656 148.691406 193.027344 132.121094 193.027344 C 115.554688 193.027344 102.121094 179.597656 102.121094 163.027344 C 102.121094 146.460938 115.554688 133.027344 132.121094 133.027344 C 148.691406 133.027344 162.121094 146.460938 162.121094 163.027344 "/>
<path style="fill-rule:nonzero;fill:rgb(0%,0%,0%);fill-opacity:1;stroke-width:1;stroke-linecap:butt;stroke-linejoin:miter;stroke:rgb(0%,0%,0%);stroke-opacity:1;stroke-miterlimit:10;" d="M 456.578125 195.015625 C 456.578125 211.582031 443.144531 225.015625 426.578125 225.015625 C 410.007812 225.015625 396.578125 211.582031 396.578125 195.015625 C 396.578125 178.445312 410.007812 165.015625 426.578125 165.015625 C 443.144531 165.015625 456.578125 178.445312 456.578125 195.015625 "/>
<path style="fill-rule:nonzero;fill:rgb(0%,0%,0%);fill-opacity:1;stroke-width:1;stroke-linecap:butt;stroke-linejoin:miter;stroke:rgb(0%,0%,0%);stroke-opacity:1;stroke-miterlimit:10;" d="M 326.480469 203.703125 C 326.480469 220.273438 313.050781 233.703125 296.480469 233.703125 C 279.910156 233.703125 266.480469 220.273438 266.480469 203.703125 C 266.480469 187.136719 279.910156 173.703125 296.480469 173.703125 C 313.050781 173.703125 326.480469 187.136719 326.480469 203.703125 "/>
<path style="fill-rule:nonzero;fill:rgb(0%,0%,0%);fill-opacity:1;stroke-width:1;stroke-linecap:butt;stroke-linejoin:miter;stroke:rgb(0%,0%,0%);stroke-opacity:1;stroke-miterlimit:10;" d="M 182.636719 378.300781 C 182.636719 394.871094 169.203125 408.300781 152.636719 408.300781 C 136.066406 408.300781 122.636719 394.871094 122.636719 378.300781 C 122.636719 361.734375 136.066406 348.300781 152.636719 348.300781 C 169.203125 348.300781 182.636719 361.734375 182.636719 378.300781 "/>
<path style="fill-rule:nonzero;fill:rgb(35%,70%,90%);fill-opacity:1;stroke-width:1;stroke-linecap:butt;stroke-linejoin:miter;stroke:rgb(0%,0%,0%);stroke-opacity:1;stroke-miterlimit:10;" d="M 165.867188 455.484375 C 165.867188 472.054688 152.433594 485.484375 135.867188 485.484375 C 119.296875 485.484375 105.867188 472.054688 105.867188 455.484375 C 105.867188 438.914062 119.296875 425.484375 135.867188 425.484375 C 152.433594 425.484375 165.867188 438.914062 165.867188 455.484375 "/>
</g>
</svg>
