<?xml version="1.0" encoding="UTF-8"?>
<svg xmlns="http://www.w3.org/2000/svg" xmlns:xlink="http://www.w3.org/1999/xlink" width="517pt" height="517pt" viewBox="0 0 517 517" version="1.1">
<g id="surface13116">
<rect x="0" y="0" width="517" height="517" style="fill:rgb(90%,90%,90%);fill-opacity:1;stroke:none;"/>
<path style="fill-rule:nonzero;fill:rgb(100%,0%,0%);fill-opacity:1;stroke-width:1;stroke-linecap:butt;stroke-linejoin:miter;stroke:rgb(0%,0%,0%);stroke-opacity:1;stroke-miterlimit:10;" d="M 485.582031 77.257812 C 485.582031 93.824219 472.148438 107.257812 455.582031 107.257812 C 439.011719 107.257812 425.582031 93.824219 425.582031 77.257812 C 425.582031 60.6875 439.011719 47.257812 455.582031 47.257812 C 472.148438 47.257812 485.582031 60.6875 485.582031 77.257812 "/>
<path style="fill-rule:nonzero;fill:rgb(100%,0%,0%);fill-opacity:1;stroke-width:1;stroke-linecap:butt;stroke-linejoin:miter;stroke:rgb(0%,0%,0%);stroke-opacity:1;stroke-miterlimit:10;" d="M 188.492188 58.742188 C 188.492188 75.3125 175.058594 88.742188 158.492188 88.742188 C 141.921875 88.742188 128.492188 75.3125 128.492188 58.742188 C 128.492188 42.175781 141.921875 28.742188 158.492188 28.742188 C 175.058594 28.742188 188.492188 42.175781 188.492188 58.742188 "/>
<path style="fill-rule:nonzero;fill:rgb(0%,0%,0%);fill-opacity:1;stroke-width:1;stroke-linecap:butt;stroke-linejoin:miter;stroke:rgb(0%,0%,0%);stroke-opacity:1;stroke-miterlimit:10;" d="M 171.21875 217.234375 C 171.21875 233.804688 157.789062 247.234375 141.21875 247.234375 C 124.652344 247.234375 111.21875 233.804688 111.21875 217.234375 C 111.21875 200.667969 124.652344 187.234375 141.21875 187.234375 C 157.789062 187.234375 171.21875 200.667969 171.21875 217.234375 "/>
<path style="fill-rule:nonzero;fill:rgb(0%,0%,0%);fill-opacity:1;stroke-width:1;stroke-linecap:butt;stroke-linejoin:miter;stroke:rgb(0%,0%,0%);stroke-opacity:1;stroke-miterlimit:10;" d="M 172.347656 327.542969 C 172.347656 344.109375 158.917969 357.542969 142.347656 357.542969 C 125.777344 357.542969 112.347656 344.109375 112.347656 327.542969 C 112.347656 310.972656 125.777344 297.542969 142.347656 297.542969 C 158.917969 297.542969 172.347656 310.972656 172.347656 327.542969 "/>
<path style="fill-rule:nonzero;fill:rgb(0%,0%,0%);fill-opacity:1;stroke-width:1;stroke-linecap:butt;stroke-linejoin:miter;stroke:rgb(0%,0%,0%);stroke-opacity:1;stroke-miterlimit:10;" d="M 84.566406 408.519531 C 84.566406 425.089844 71.132812 438.519531 54.566406 438.519531 C 37.996094 438.519531 24.566406 425.089844 24.566406 408.519531 C 24.566406 391.953125 37.996094 378.519531 54.566406 378.519531 C 71.132812 378.519531 84.566406 391.953125 84.566406 408.519531 "/>
<path style="fill-rule:nonzero;fill:rgb(0%,0%,0%);fill-opacity:1;stroke-width:1;stroke-linecap:butt;stroke-linejoin:miter;stroke:rgb(0%,0%,0%);stroke-opacity:1;stroke-miterlimit:10;" d="M 151.363281 447.679688 C 151.363281 464.25 137.929688 477.679688 121.363281 477.679688 C 104.792969 477.679688 91.363281 464.25 91.363281 447.679688 C 91.363281 431.113281 104.792969 417.679688 121.363281 417.679688 C 137.929688 417.679688 151.363281 431.113281 151.363281 447.679688 "/>
</g>
</svg>
