<?xml version="1.0" encoding="UTF-8"?>
<svg xmlns="http://www.w3.org/2000/svg" xmlns:xlink="http://www.w3.org/1999/xlink" width="517pt" height="517pt" viewBox="0 0 517 517" version="1.1">
<g id="surface12776">
<rect x="0" y="0" width="517" height="517" style="fill:rgb(90%,90%,90%);fill-opacity:1;stroke:none;"/>
<path style="fill-rule:nonzero;fill:rgb(35%,70%,90%);fill-opacity:1;stroke-width:1;stroke-linecap:butt;stroke-linejoin:miter;stroke:rgb(0%,0%,0%);stroke-opacity:1;stroke-miterlimit:10;" d="M 408.519531 338.28125 L 388.519531 338.28125 L 388.519531 348.28125 L 408.519531 348.28125 L 408.519531 368.28125 L 418.519531 368.28125 L 418.519531 348.28125 L 438.519531 348.28125 L 438.519531 338.28125 L 418.519531 338.28125 L 418.519531 318.28125 L 408.519531 318.28125 L 408.519531 338.28125 "/>
<path style="fill-rule:nonzero;fill:rgb(35%,70%,90%);fill-opacity:1;stroke-width:1;stroke-linecap:butt;stroke-linejoin:miter;stroke:rgb(0%,0%,0%);stroke-opacity:1;stroke-miterlimit:10;" d="M 421.09375 409.320312 L 401.09375 409.320312 L 401.09375 419.320312 L 421.09375 419.320312 L 421.09375 439.320312 L 431.09375 439.320312 L 431.09375 419.320312 L 451.09375 419.320312 L 451.09375 409.320312 L 431.09375 409.320312 L 431.09375 389.320312 L 421.09375 389.320312 L 421.09375 409.320312 "/>
<path style="fill-rule:nonzero;fill:rgb(35%,70%,90%);fill-opacity:1;stroke-width:1;stroke-linecap:butt;stroke-linejoin:miter;stroke:rgb(0%,0%,0%);stroke-opacity:1;stroke-miterlimit:10;" d="M 70.285156 140.832031 L 50.285156 140.832031 L 50.285156 150.832031 L 70.285156 150.832031 L 70.285156 170.832031 L 80.285156 170.832031 L 80.285156 150.832031 L 100.285156 150.832031 L 100.285156 140.832031 L 80.285156 140.832031 L 80.285156 120.832031 L 70.285156 120.832031 L 70.285156 140.832031 "/>
<path style="fill-rule:nonzero;fill:rgb(35%,70%,90%);fill-opacity:1;stroke-width:1;stroke-linecap:butt;stroke-linejoin:miter;stroke:rgb(0%,0%,0%);stroke-opacity:1;stroke-miterlimit:10;" d="M 200.9375 178.46875 L 180.9375 178.46875 L 180.9375 188.46875 L 200.9375 188.46875 L 200.9375 208.46875 L 210.9375 208.46875 L 210.9375 188.46875 L 230.9375 188.46875 L 230.9375 178.46875 L 210.9375 178.46875 L 210.9375 158.46875 L 200.9375 158.46875 L 200.9375 178.46875 "/>
<path style="fill-rule:nonzero;fill:rgb(35%,70%,90%);fill-opacity:1;stroke-width:1;stroke-linecap:butt;stroke-linejoin:miter;stroke:rgb(0%,0%,0%);stroke-opacity:1;stroke-miterlimit:10;" d="M 445.914062 87.824219 L 425.914062 87.824219 L 425.914062 97.824219 L 445.914062 97.824219 L 445.914062 117.824219 L 455.914062 117.824219 L 455.914062 97.824219 L 475.914062 97.824219 L 475.914062 87.824219 L 455.914062 87.824219 L 455.914062 67.824219 L 445.914062 67.824219 L 445.914062 87.824219 "/>
</g>
</svg>
