<?xml version="1.0" encoding="UTF-8"?>
<svg xmlns="http://www.w3.org/2000/svg" xmlns:xlink="http://www.w3.org/1999/xlink" width="517pt" height="517pt" viewBox="0 0 517 517" version="1.1">
<g id="surface13216">
<rect x="0" y="0" width="517" height="517" style="fill:rgb(90%,90%,90%);fill-opacity:1;stroke:none;"/>
<path style="fill-rule:nonzero;fill:rgb(90%,65%,0%);fill-opacity:1;stroke-width:1;stroke-linecap:butt;stroke-linejoin:miter;stroke:rgb(0%,0%,0%);stroke-opacity:1;stroke-miterlimit:10;" d="M 367.550781 188.378906 C 367.550781 204.949219 354.117188 218.378906 337.550781 218.378906 C 320.980469 218.378906 307.550781 204.949219 307.550781 188.378906 C 307.550781 171.808594 320.980469 158.378906 337.550781 158.378906 C 354.117188 158.378906 367.550781 171.808594 367.550781 188.378906 "/>
<path style="fill-rule:nonzero;fill:rgb(50%,0%,50%);fill-opacity:1;stroke-width:1;stroke-linecap:butt;stroke-linejoin:miter;stroke:rgb(0%,0%,0%);stroke-opacity:1;stroke-miterlimit:10;" d="M 346.222656 62.519531 C 346.222656 79.089844 332.789062 92.519531 316.222656 92.519531 C 299.652344 92.519531 286.222656 79.089844 286.222656 62.519531 C 286.222656 45.953125 299.652344 32.519531 316.222656 32.519531 C 332.789062 32.519531 346.222656 45.953125 346.222656 62.519531 "/>
<path style="fill-rule:nonzero;fill:rgb(50%,0%,50%);fill-opacity:1;stroke-width:1;stroke-linecap:butt;stroke-linejoin:miter;stroke:rgb(0%,0%,0%);stroke-opacity:1;stroke-miterlimit:10;" d="M 145.027344 406.066406 C 145.027344 422.636719 131.59375 436.066406 115.027344 436.066406 C 98.457031 436.066406 85.027344 422.636719 85.027344 406.066406 C 85.027344 389.5 98.457031 376.066406 115.027344 376.066406 C 131.59375 376.066406 145.027344 389.5 145.027344 406.066406 "/>
<path style="fill-rule:nonzero;fill:rgb(50%,0%,50%);fill-opacity:1;stroke-width:1;stroke-linecap:butt;stroke-linejoin:miter;stroke:rgb(0%,0%,0%);stroke-opacity:1;stroke-miterlimit:10;" d="M 220.386719 337.863281 C 220.386719 354.433594 206.953125 367.863281 190.386719 367.863281 C 173.816406 367.863281 160.386719 354.433594 160.386719 337.863281 C 160.386719 321.296875 173.816406 307.863281 190.386719 307.863281 C 206.953125 307.863281 220.386719 321.296875 220.386719 337.863281 "/>
<path style="fill-rule:nonzero;fill:rgb(50%,0%,50%);fill-opacity:1;stroke-width:1;stroke-linecap:butt;stroke-linejoin:miter;stroke:rgb(0%,0%,0%);stroke-opacity:1;stroke-miterlimit:10;" d="M 171.898438 474.433594 C 171.898438 491.003906 158.464844 504.433594 141.898438 504.433594 C 125.328125 504.433594 111.898438 491.003906 111.898438 474.433594 C 111.898438 457.867188 125.328125 444.433594 141.898438 444.433594 C 158.464844 444.433594 171.898438 457.867188 171.898438 474.433594 "/>
</g>
</svg>
