<?xml version="1.0" encoding="UTF-8"?>
<svg xmlns="http://www.w3.org/2000/svg" xmlns:xlink="http://www.w3.org/1999/xlink" width="517pt" height="517pt" viewBox="0 0 517 517" version="1.1">
<g id="surface12936">
<rect x="0" y="0" width="517" height="517" style="fill:rgb(90%,90%,90%);fill-opacity:1;stroke:none;"/>
<path style="fill-rule:nonzero;fill:rgb(67%,100%,18%);fill-opacity:1;stroke-width:1;stroke-linecap:butt;stroke-linejoin:miter;stroke:rgb(0%,0%,0%);stroke-opacity:1;stroke-miterlimit:10;" d="M 192.960938 122.847656 C 192.960938 139.414062 179.53125 152.847656 162.960938 152.847656 C 146.394531 152.847656 132.960938 139.414062 132.960938 122.847656 C 132.960938 106.277344 146.394531 92.847656 162.960938 92.847656 C 179.53125 92.847656 192.960938 106.277344 192.960938 122.847656 "/>
<path style="fill-rule:nonzero;fill:rgb(67%,100%,18%);fill-opacity:1;stroke-width:1;stroke-linecap:butt;stroke-linejoin:miter;stroke:rgb(0%,0%,0%);stroke-opacity:1;stroke-miterlimit:10;" d="M 111.996094 396.003906 C 111.996094 412.574219 98.566406 426.003906 81.996094 426.003906 C 65.429688 426.003906 51.996094 412.574219 51.996094 396.003906 C 51.996094 379.4375 65.429688 366.003906 81.996094 366.003906 C 98.566406 366.003906 111.996094 379.4375 111.996094 396.003906 "/>
<path style="fill-rule:nonzero;fill:rgb(67%,100%,18%);fill-opacity:1;stroke-width:1;stroke-linecap:butt;stroke-linejoin:miter;stroke:rgb(0%,0%,0%);stroke-opacity:1;stroke-miterlimit:10;" d="M 112.414062 458.046875 C 112.414062 474.617188 98.980469 488.046875 82.414062 488.046875 C 65.84375 488.046875 52.414062 474.617188 52.414062 458.046875 C 52.414062 441.480469 65.84375 428.046875 82.414062 428.046875 C 98.980469 428.046875 112.414062 441.480469 112.414062 458.046875 "/>
<path style="fill-rule:nonzero;fill:rgb(67%,100%,18%);fill-opacity:1;stroke-width:1;stroke-linecap:butt;stroke-linejoin:miter;stroke:rgb(0%,0%,0%);stroke-opacity:1;stroke-miterlimit:10;" d="M 213.988281 413.917969 C 213.988281 430.484375 200.558594 443.917969 183.988281 443.917969 C 167.421875 443.917969 153.988281 430.484375 153.988281 413.917969 C 153.988281 397.347656 167.421875 383.917969 183.988281 383.917969 C 200.558594 383.917969 213.988281 397.347656 213.988281 413.917969 "/>
<path style="fill-rule:nonzero;fill:rgb(67%,100%,18%);fill-opacity:1;stroke-width:1;stroke-linecap:butt;stroke-linejoin:miter;stroke:rgb(0%,0%,0%);stroke-opacity:1;stroke-miterlimit:10;" d="M 203.195312 326.277344 C 203.195312 342.84375 189.765625 356.277344 173.195312 356.277344 C 156.628906 356.277344 143.195312 342.84375 143.195312 326.277344 C 143.195312 309.707031 156.628906 296.277344 173.195312 296.277344 C 189.765625 296.277344 203.195312 309.707031 203.195312 326.277344 "/>
<path style="fill-rule:nonzero;fill:rgb(67%,100%,18%);fill-opacity:1;stroke-width:1;stroke-linecap:butt;stroke-linejoin:miter;stroke:rgb(0%,0%,0%);stroke-opacity:1;stroke-miterlimit:10;" d="M 386.320312 110.195312 C 386.320312 126.765625 372.890625 140.195312 356.320312 140.195312 C 339.753906 140.195312 326.320312 126.765625 326.320312 110.195312 C 326.320312 93.628906 339.753906 80.195312 356.320312 80.195312 C 372.890625 80.195312 386.320312 93.628906 386.320312 110.195312 "/>
</g>
</svg>
