<?xml version="1.0" encoding="UTF-8"?>
<svg xmlns="http://www.w3.org/2000/svg" xmlns:xlink="http://www.w3.org/1999/xlink" width="517pt" height="517pt" viewBox="0 0 517 517" version="1.1">
<g id="surface5746">
<rect x="0" y="0" width="517" height="517" style="fill:rgb(90%,90%,90%);fill-opacity:1;stroke:none;"/>
<path style="fill-rule:nonzero;fill:rgb(67%,100%,18%);fill-opacity:1;stroke-width:1;stroke-linecap:butt;stroke-linejoin:miter;stroke:rgb(0%,0%,0%);stroke-opacity:1;stroke-miterlimit:10;" d="M 338.367188 405.515625 C 338.367188 422.085938 324.9375 435.515625 308.367188 435.515625 C 291.800781 435.515625 278.367188 422.085938 278.367188 405.515625 C 278.367188 388.949219 291.800781 375.515625 308.367188 375.515625 C 324.9375 375.515625 338.367188 388.949219 338.367188 405.515625 "/>
<path style="fill-rule:nonzero;fill:rgb(67%,100%,18%);fill-opacity:1;stroke-width:1;stroke-linecap:butt;stroke-linejoin:miter;stroke:rgb(0%,0%,0%);stroke-opacity:1;stroke-miterlimit:10;" d="M 200.671875 377.835938 C 200.671875 394.40625 187.238281 407.835938 170.671875 407.835938 C 154.101562 407.835938 140.671875 394.40625 140.671875 377.835938 C 140.671875 361.269531 154.101562 347.835938 170.671875 347.835938 C 187.238281 347.835938 200.671875 361.269531 200.671875 377.835938 "/>
<path style="fill-rule:nonzero;fill:rgb(35%,70%,90%);fill-opacity:1;stroke-width:1;stroke-linecap:butt;stroke-linejoin:miter;stroke:rgb(0%,0%,0%);stroke-opacity:1;stroke-miterlimit:10;" d="M 153.492188 473.039062 C 153.492188 489.609375 140.0625 503.039062 123.492188 503.039062 C 106.921875 503.039062 93.492188 489.609375 93.492188 473.039062 C 93.492188 456.472656 106.921875 443.039062 123.492188 443.039062 C 140.0625 443.039062 153.492188 456.472656 153.492188 473.039062 "/>
<path style="fill-rule:nonzero;fill:rgb(35%,70%,90%);fill-opacity:1;stroke-width:1;stroke-linecap:butt;stroke-linejoin:miter;stroke:rgb(0%,0%,0%);stroke-opacity:1;stroke-miterlimit:10;" d="M 246.058594 334.457031 C 246.058594 351.023438 232.628906 364.457031 216.058594 364.457031 C 199.492188 364.457031 186.058594 351.023438 186.058594 334.457031 C 186.058594 317.886719 199.492188 304.457031 216.058594 304.457031 C 232.628906 304.457031 246.058594 317.886719 246.058594 334.457031 "/>
<path style="fill-rule:nonzero;fill:rgb(35%,70%,90%);fill-opacity:1;stroke-width:1;stroke-linecap:butt;stroke-linejoin:miter;stroke:rgb(0%,0%,0%);stroke-opacity:1;stroke-miterlimit:10;" d="M 85.4375 310.433594 C 85.4375 327.003906 72.007812 340.433594 55.4375 340.433594 C 38.871094 340.433594 25.4375 327.003906 25.4375 310.433594 C 25.4375 293.867188 38.871094 280.433594 55.4375 280.433594 C 72.007812 280.433594 85.4375 293.867188 85.4375 310.433594 "/>
<path style="fill-rule:nonzero;fill:rgb(35%,70%,90%);fill-opacity:1;stroke-width:1;stroke-linecap:butt;stroke-linejoin:miter;stroke:rgb(0%,0%,0%);stroke-opacity:1;stroke-miterlimit:10;" d="M 99.152344 431.976562 C 99.152344 448.542969 85.71875 461.976562 69.152344 461.976562 C 52.582031 461.976562 39.152344 448.542969 39.152344 431.976562 C 39.152344 415.40625 52.582031 401.976562 69.152344 401.976562 C 85.71875 401.976562 99.152344 415.40625 99.152344 431.976562 "/>
<path style="fill-rule:nonzero;fill:rgb(35%,70%,90%);fill-opacity:1;stroke-width:1;stroke-linecap:butt;stroke-linejoin:miter;stroke:rgb(0%,0%,0%);stroke-opacity:1;stroke-miterlimit:10;" d="M 216.847656 203.589844 C 216.847656 220.15625 203.417969 233.589844 186.847656 233.589844 C 170.28125 233.589844 156.847656 220.15625 156.847656 203.589844 C 156.847656 187.019531 170.28125 173.589844 186.847656 173.589844 C 203.417969 173.589844 216.847656 187.019531 216.847656 203.589844 "/>
<path style="fill-rule:nonzero;fill:rgb(35%,70%,90%);fill-opacity:1;stroke-width:1;stroke-linecap:butt;stroke-linejoin:miter;stroke:rgb(0%,0%,0%);stroke-opacity:1;stroke-miterlimit:10;" d="M 71.332031 170.652344 C 71.332031 187.222656 57.902344 200.652344 41.332031 200.652344 C 24.765625 200.652344 11.332031 187.222656 11.332031 170.652344 C 11.332031 154.085938 24.765625 140.652344 41.332031 140.652344 C 57.902344 140.652344 71.332031 154.085938 71.332031 170.652344 "/>
</g>
</svg>
