<?xml version="1.0" encoding="UTF-8"?>
<svg xmlns="http://www.w3.org/2000/svg" xmlns:xlink="http://www.w3.org/1999/xlink" width="517pt" height="517pt" viewBox="0 0 517 517" version="1.1">
<g id="surface5686">
<rect x="0" y="0" width="517" height="517" style="fill:rgb(90%,90%,90%);fill-opacity:1;stroke:none;"/>
<path style="fill-rule:nonzero;fill:rgb(35%,70%,90%);fill-opacity:1;stroke-width:1;stroke-linecap:butt;stroke-linejoin:miter;stroke:rgb(0%,0%,0%);stroke-opacity:1;stroke-miterlimit:10;" d="M 349.625 384.460938 C 349.625 401.03125 336.191406 414.460938 319.625 414.460938 C 303.054688 414.460938 289.625 401.03125 289.625 384.460938 C 289.625 367.894531 303.054688 354.460938 319.625 354.460938 C 336.191406 354.460938 349.625 367.894531 349.625 384.460938 "/>
<path style="fill-rule:nonzero;fill:rgb(35%,70%,90%);fill-opacity:1;stroke-width:1;stroke-linecap:butt;stroke-linejoin:miter;stroke:rgb(0%,0%,0%);stroke-opacity:1;stroke-miterlimit:10;" d="M 498.171875 329.671875 C 498.171875 346.238281 484.742188 359.671875 468.171875 359.671875 C 451.605469 359.671875 438.171875 346.238281 438.171875 329.671875 C 438.171875 313.101562 451.605469 299.671875 468.171875 299.671875 C 484.742188 299.671875 498.171875 313.101562 498.171875 329.671875 "/>
<path style="fill-rule:nonzero;fill:rgb(35%,70%,90%);fill-opacity:1;stroke-width:1;stroke-linecap:butt;stroke-linejoin:miter;stroke:rgb(0%,0%,0%);stroke-opacity:1;stroke-miterlimit:10;" d="M 79.195312 50.546875 C 79.195312 67.117188 65.761719 80.546875 49.195312 80.546875 C 32.625 80.546875 19.195312 67.117188 19.195312 50.546875 C 19.195312 33.980469 32.625 20.546875 49.195312 20.546875 C 65.761719 20.546875 79.195312 33.980469 79.195312 50.546875 "/>
<path style="fill-rule:nonzero;fill:rgb(35%,70%,90%);fill-opacity:1;stroke-width:1;stroke-linecap:butt;stroke-linejoin:miter;stroke:rgb(0%,0%,0%);stroke-opacity:1;stroke-miterlimit:10;" d="M 65.980469 210.546875 C 65.980469 227.117188 52.546875 240.546875 35.980469 240.546875 C 19.410156 240.546875 5.980469 227.117188 5.980469 210.546875 C 5.980469 193.980469 19.410156 180.546875 35.980469 180.546875 C 52.546875 180.546875 65.980469 193.980469 65.980469 210.546875 "/>
<path style="fill-rule:nonzero;fill:rgb(35%,70%,90%);fill-opacity:1;stroke-width:1;stroke-linecap:butt;stroke-linejoin:miter;stroke:rgb(0%,0%,0%);stroke-opacity:1;stroke-miterlimit:10;" d="M 155.808594 42.449219 C 155.808594 59.019531 142.378906 72.449219 125.808594 72.449219 C 109.238281 72.449219 95.808594 59.019531 95.808594 42.449219 C 95.808594 25.882812 109.238281 12.449219 125.808594 12.449219 C 142.378906 12.449219 155.808594 25.882812 155.808594 42.449219 "/>
<path style="fill-rule:nonzero;fill:rgb(35%,70%,90%);fill-opacity:1;stroke-width:1;stroke-linecap:butt;stroke-linejoin:miter;stroke:rgb(0%,0%,0%);stroke-opacity:1;stroke-miterlimit:10;" d="M 100.8125 130.152344 C 100.8125 146.722656 87.378906 160.152344 70.8125 160.152344 C 54.242188 160.152344 40.8125 146.722656 40.8125 130.152344 C 40.8125 113.585938 54.242188 100.152344 70.8125 100.152344 C 87.378906 100.152344 100.8125 113.585938 100.8125 130.152344 "/>
<path style="fill-rule:nonzero;fill:rgb(35%,70%,90%);fill-opacity:1;stroke-width:1;stroke-linecap:butt;stroke-linejoin:miter;stroke:rgb(0%,0%,0%);stroke-opacity:1;stroke-miterlimit:10;" d="M 195.058594 158.753906 C 195.058594 175.320312 181.628906 188.753906 165.058594 188.753906 C 148.492188 188.753906 135.058594 175.320312 135.058594 158.753906 C 135.058594 142.183594 148.492188 128.753906 165.058594 128.753906 C 181.628906 128.753906 195.058594 142.183594 195.058594 158.753906 "/>
<path style="fill-rule:nonzero;fill:rgb(35%,70%,90%);fill-opacity:1;stroke-width:1;stroke-linecap:butt;stroke-linejoin:miter;stroke:rgb(0%,0%,0%);stroke-opacity:1;stroke-miterlimit:10;" d="M 506.375 105.097656 C 506.375 121.667969 492.945312 135.097656 476.375 135.097656 C 459.808594 135.097656 446.375 121.667969 446.375 105.097656 C 446.375 88.53125 459.808594 75.097656 476.375 75.097656 C 492.945312 75.097656 506.375 88.53125 506.375 105.097656 "/>
</g>
</svg>
