<?xml version="1.0" encoding="UTF-8"?>
<svg xmlns="http://www.w3.org/2000/svg" xmlns:xlink="http://www.w3.org/1999/xlink" width="517pt" height="517pt" viewBox="0 0 517 517" version="1.1">
<g id="surface13296">
<rect x="0" y="0" width="517" height="517" style="fill:rgb(90%,90%,90%);fill-opacity:1;stroke:none;"/>
<path style="fill-rule:nonzero;fill:rgb(0%,0%,0%);fill-opacity:1;stroke-width:1;stroke-linecap:butt;stroke-linejoin:miter;stroke:rgb(0%,0%,0%);stroke-opacity:1;stroke-miterlimit:10;" d="M 391.179688 314.269531 C 391.179688 330.835938 377.75 344.269531 361.179688 344.269531 C 344.609375 344.269531 331.179688 330.835938 331.179688 314.269531 C 331.179688 297.699219 344.609375 284.269531 361.179688 284.269531 C 377.75 284.269531 391.179688 297.699219 391.179688 314.269531 "/>
<path style="fill-rule:nonzero;fill:rgb(0%,0%,0%);fill-opacity:1;stroke-width:1;stroke-linecap:butt;stroke-linejoin:miter;stroke:rgb(0%,0%,0%);stroke-opacity:1;stroke-miterlimit:10;" d="M 384.957031 124.988281 C 384.957031 141.558594 371.523438 154.988281 354.957031 154.988281 C 338.386719 154.988281 324.957031 141.558594 324.957031 124.988281 C 324.957031 108.421875 338.386719 94.988281 354.957031 94.988281 C 371.523438 94.988281 384.957031 108.421875 384.957031 124.988281 "/>
<path style="fill-rule:nonzero;fill:rgb(0%,0%,0%);fill-opacity:1;stroke-width:1;stroke-linecap:butt;stroke-linejoin:miter;stroke:rgb(0%,0%,0%);stroke-opacity:1;stroke-miterlimit:10;" d="M 340.558594 53.894531 C 340.558594 70.460938 327.125 83.894531 310.558594 83.894531 C 293.988281 83.894531 280.558594 70.460938 280.558594 53.894531 C 280.558594 37.324219 293.988281 23.894531 310.558594 23.894531 C 327.125 23.894531 340.558594 37.324219 340.558594 53.894531 "/>
<path style="fill-rule:nonzero;fill:rgb(0%,0%,0%);fill-opacity:1;stroke-width:1;stroke-linecap:butt;stroke-linejoin:miter;stroke:rgb(0%,0%,0%);stroke-opacity:1;stroke-miterlimit:10;" d="M 453.636719 120.832031 C 453.636719 137.398438 440.203125 150.832031 423.636719 150.832031 C 407.066406 150.832031 393.636719 137.398438 393.636719 120.832031 C 393.636719 104.261719 407.066406 90.832031 423.636719 90.832031 C 440.203125 90.832031 453.636719 104.261719 453.636719 120.832031 "/>
<path style="fill-rule:nonzero;fill:rgb(0%,0%,0%);fill-opacity:1;stroke-width:1;stroke-linecap:butt;stroke-linejoin:miter;stroke:rgb(0%,0%,0%);stroke-opacity:1;stroke-miterlimit:10;" d="M 69.921875 175.277344 C 69.921875 191.847656 56.492188 205.277344 39.921875 205.277344 C 23.355469 205.277344 9.921875 191.847656 9.921875 175.277344 C 9.921875 158.710938 23.355469 145.277344 39.921875 145.277344 C 56.492188 145.277344 69.921875 158.710938 69.921875 175.277344 "/>
<path style="fill-rule:nonzero;fill:rgb(35%,70%,90%);fill-opacity:1;stroke-width:1;stroke-linecap:butt;stroke-linejoin:miter;stroke:rgb(0%,0%,0%);stroke-opacity:1;stroke-miterlimit:10;" d="M 120.355469 41.769531 C 120.355469 58.339844 106.925781 71.769531 90.355469 71.769531 C 73.789062 71.769531 60.355469 58.339844 60.355469 41.769531 C 60.355469 25.203125 73.789062 11.769531 90.355469 11.769531 C 106.925781 11.769531 120.355469 25.203125 120.355469 41.769531 "/>
</g>
</svg>
