<?xml version="1.0" encoding="UTF-8"?>
<svg xmlns="http://www.w3.org/2000/svg" xmlns:xlink="http://www.w3.org/1999/xlink" width="517pt" height="517pt" viewBox="0 0 517 517" version="1.1">
<g id="surface12996">
<rect x="0" y="0" width="517" height="517" style="fill:rgb(90%,90%,90%);fill-opacity:1;stroke:none;"/>
<path style="fill-rule:nonzero;fill:rgb(100%,0%,0%);fill-opacity:1;stroke-width:1;stroke-linecap:butt;stroke-linejoin:miter;stroke:rgb(0%,0%,0%);stroke-opacity:1;stroke-miterlimit:10;" d="M 336.148438 426.941406 C 336.148438 443.507812 322.714844 456.941406 306.148438 456.941406 C 289.578125 456.941406 276.148438 443.507812 276.148438 426.941406 C 276.148438 410.371094 289.578125 396.941406 306.148438 396.941406 C 322.714844 396.941406 336.148438 410.371094 336.148438 426.941406 "/>
<path style="fill-rule:nonzero;fill:rgb(100%,0%,0%);fill-opacity:1;stroke-width:1;stroke-linecap:butt;stroke-linejoin:miter;stroke:rgb(0%,0%,0%);stroke-opacity:1;stroke-miterlimit:10;" d="M 71.765625 57.238281 C 71.765625 73.808594 58.332031 87.238281 41.765625 87.238281 C 25.195312 87.238281 11.765625 73.808594 11.765625 57.238281 C 11.765625 40.671875 25.195312 27.238281 41.765625 27.238281 C 58.332031 27.238281 71.765625 40.671875 71.765625 57.238281 "/>
<path style="fill-rule:nonzero;fill:rgb(0%,0%,0%);fill-opacity:1;stroke-width:1;stroke-linecap:butt;stroke-linejoin:miter;stroke:rgb(0%,0%,0%);stroke-opacity:1;stroke-miterlimit:10;" d="M 69.875 131.675781 C 69.875 148.242188 56.441406 161.675781 39.875 161.675781 C 23.304688 161.675781 9.875 148.242188 9.875 131.675781 C 9.875 115.105469 23.304688 101.675781 39.875 101.675781 C 56.441406 101.675781 69.875 115.105469 69.875 131.675781 "/>
<path style="fill-rule:nonzero;fill:rgb(0%,0%,0%);fill-opacity:1;stroke-width:1;stroke-linecap:butt;stroke-linejoin:miter;stroke:rgb(0%,0%,0%);stroke-opacity:1;stroke-miterlimit:10;" d="M 177.367188 151.070312 C 177.367188 167.640625 163.9375 181.070312 147.367188 181.070312 C 130.800781 181.070312 117.367188 167.640625 117.367188 151.070312 C 117.367188 134.503906 130.800781 121.070312 147.367188 121.070312 C 163.9375 121.070312 177.367188 134.503906 177.367188 151.070312 "/>
<path style="fill-rule:nonzero;fill:rgb(0%,0%,0%);fill-opacity:1;stroke-width:1;stroke-linecap:butt;stroke-linejoin:miter;stroke:rgb(0%,0%,0%);stroke-opacity:1;stroke-miterlimit:10;" d="M 184.394531 55.15625 C 184.394531 71.726562 170.964844 85.15625 154.394531 85.15625 C 137.828125 85.15625 124.394531 71.726562 124.394531 55.15625 C 124.394531 38.589844 137.828125 25.15625 154.394531 25.15625 C 170.964844 25.15625 184.394531 38.589844 184.394531 55.15625 "/>
<path style="fill-rule:nonzero;fill:rgb(0%,0%,0%);fill-opacity:1;stroke-width:1;stroke-linecap:butt;stroke-linejoin:miter;stroke:rgb(0%,0%,0%);stroke-opacity:1;stroke-miterlimit:10;" d="M 493.519531 127.113281 C 493.519531 143.679688 480.089844 157.113281 463.519531 157.113281 C 446.953125 157.113281 433.519531 143.679688 433.519531 127.113281 C 433.519531 110.542969 446.953125 97.113281 463.519531 97.113281 C 480.089844 97.113281 493.519531 110.542969 493.519531 127.113281 "/>
</g>
</svg>
