<?xml version="1.0" encoding="UTF-8"?>
<svg xmlns="http://www.w3.org/2000/svg" xmlns:xlink="http://www.w3.org/1999/xlink" width="517pt" height="517pt" viewBox="0 0 517 517" version="1.1">
<g id="surface12976">
<rect x="0" y="0" width="517" height="517" style="fill:rgb(90%,90%,90%);fill-opacity:1;stroke:none;"/>
<path style="fill-rule:nonzero;fill:rgb(100%,0%,0%);fill-opacity:1;stroke-width:1;stroke-linecap:butt;stroke-linejoin:miter;stroke:rgb(0%,0%,0%);stroke-opacity:1;stroke-miterlimit:10;" d="M 341.78125 383.441406 C 341.78125 400.007812 328.347656 413.441406 311.78125 413.441406 C 295.210938 413.441406 281.78125 400.007812 281.78125 383.441406 C 281.78125 366.871094 295.210938 353.441406 311.78125 353.441406 C 328.347656 353.441406 341.78125 366.871094 341.78125 383.441406 "/>
<path style="fill-rule:nonzero;fill:rgb(100%,0%,0%);fill-opacity:1;stroke-width:1;stroke-linecap:butt;stroke-linejoin:miter;stroke:rgb(0%,0%,0%);stroke-opacity:1;stroke-miterlimit:10;" d="M 198.152344 406.164062 C 198.152344 422.734375 184.722656 436.164062 168.152344 436.164062 C 151.585938 436.164062 138.152344 422.734375 138.152344 406.164062 C 138.152344 389.59375 151.585938 376.164062 168.152344 376.164062 C 184.722656 376.164062 198.152344 389.59375 198.152344 406.164062 "/>
<path style="fill-rule:nonzero;fill:rgb(0%,0%,0%);fill-opacity:1;stroke-width:1;stroke-linecap:butt;stroke-linejoin:miter;stroke:rgb(0%,0%,0%);stroke-opacity:1;stroke-miterlimit:10;" d="M 85.433594 401.5625 C 85.433594 418.128906 72 431.5625 55.433594 431.5625 C 38.863281 431.5625 25.433594 418.128906 25.433594 401.5625 C 25.433594 384.992188 38.863281 371.5625 55.433594 371.5625 C 72 371.5625 85.433594 384.992188 85.433594 401.5625 "/>
<path style="fill-rule:nonzero;fill:rgb(0%,0%,0%);fill-opacity:1;stroke-width:1;stroke-linecap:butt;stroke-linejoin:miter;stroke:rgb(0%,0%,0%);stroke-opacity:1;stroke-miterlimit:10;" d="M 128.335938 329.839844 C 128.335938 346.410156 114.90625 359.839844 98.335938 359.839844 C 81.769531 359.839844 68.335938 346.410156 68.335938 329.839844 C 68.335938 313.273438 81.769531 299.839844 98.335938 299.839844 C 114.90625 299.839844 128.335938 313.273438 128.335938 329.839844 "/>
<path style="fill-rule:nonzero;fill:rgb(0%,0%,0%);fill-opacity:1;stroke-width:1;stroke-linecap:butt;stroke-linejoin:miter;stroke:rgb(0%,0%,0%);stroke-opacity:1;stroke-miterlimit:10;" d="M 141.742188 119.957031 C 141.742188 136.527344 128.3125 149.957031 111.742188 149.957031 C 95.175781 149.957031 81.742188 136.527344 81.742188 119.957031 C 81.742188 103.386719 95.175781 89.957031 111.742188 89.957031 C 128.3125 89.957031 141.742188 103.386719 141.742188 119.957031 "/>
<path style="fill-rule:nonzero;fill:rgb(0%,0%,0%);fill-opacity:1;stroke-width:1;stroke-linecap:butt;stroke-linejoin:miter;stroke:rgb(0%,0%,0%);stroke-opacity:1;stroke-miterlimit:10;" d="M 240.722656 119.402344 C 240.722656 135.96875 227.289062 149.402344 210.722656 149.402344 C 194.152344 149.402344 180.722656 135.96875 180.722656 119.402344 C 180.722656 102.832031 194.152344 89.402344 210.722656 89.402344 C 227.289062 89.402344 240.722656 102.832031 240.722656 119.402344 "/>
</g>
</svg>
