<?xml version="1.0" encoding="UTF-8"?>
<svg xmlns="http://www.w3.org/2000/svg" xmlns:xlink="http://www.w3.org/1999/xlink" width="517pt" height="517pt" viewBox="0 0 517 517" version="1.1">
<g id="surface5696">
<rect x="0" y="0" width="517" height="517" style="fill:rgb(90%,90%,90%);fill-opacity:1;stroke:none;"/>
<path style="fill-rule:nonzero;fill:rgb(67%,100%,18%);fill-opacity:1;stroke-width:1;stroke-linecap:butt;stroke-linejoin:miter;stroke:rgb(0%,0%,0%);stroke-opacity:1;stroke-miterlimit:10;" d="M 350.257812 335.992188 C 350.257812 352.558594 336.824219 365.992188 320.257812 365.992188 C 303.6875 365.992188 290.257812 352.558594 290.257812 335.992188 C 290.257812 319.421875 303.6875 305.992188 320.257812 305.992188 C 336.824219 305.992188 350.257812 319.421875 350.257812 335.992188 "/>
<path style="fill-rule:nonzero;fill:rgb(35%,70%,90%);fill-opacity:1;stroke-width:1;stroke-linecap:butt;stroke-linejoin:miter;stroke:rgb(0%,0%,0%);stroke-opacity:1;stroke-miterlimit:10;" d="M 420.339844 451.496094 C 420.339844 468.066406 406.90625 481.496094 390.339844 481.496094 C 373.769531 481.496094 360.339844 468.066406 360.339844 451.496094 C 360.339844 434.929688 373.769531 421.496094 390.339844 421.496094 C 406.90625 421.496094 420.339844 434.929688 420.339844 451.496094 "/>
<path style="fill-rule:nonzero;fill:rgb(35%,70%,90%);fill-opacity:1;stroke-width:1;stroke-linecap:butt;stroke-linejoin:miter;stroke:rgb(0%,0%,0%);stroke-opacity:1;stroke-miterlimit:10;" d="M 217.007812 367.230469 C 217.007812 383.800781 203.578125 397.230469 187.007812 397.230469 C 170.441406 397.230469 157.007812 383.800781 157.007812 367.230469 C 157.007812 350.664062 170.441406 337.230469 187.007812 337.230469 C 203.578125 337.230469 217.007812 350.664062 217.007812 367.230469 "/>
<path style="fill-rule:nonzero;fill:rgb(35%,70%,90%);fill-opacity:1;stroke-width:1;stroke-linecap:butt;stroke-linejoin:miter;stroke:rgb(0%,0%,0%);stroke-opacity:1;stroke-miterlimit:10;" d="M 166.171875 325.96875 C 166.171875 342.539062 152.738281 355.96875 136.171875 355.96875 C 119.601562 355.96875 106.171875 342.539062 106.171875 325.96875 C 106.171875 309.402344 119.601562 295.96875 136.171875 295.96875 C 152.738281 295.96875 166.171875 309.402344 166.171875 325.96875 "/>
<path style="fill-rule:nonzero;fill:rgb(35%,70%,90%);fill-opacity:1;stroke-width:1;stroke-linecap:butt;stroke-linejoin:miter;stroke:rgb(0%,0%,0%);stroke-opacity:1;stroke-miterlimit:10;" d="M 79.4375 433.414062 C 79.4375 449.984375 66.007812 463.414062 49.4375 463.414062 C 32.867188 463.414062 19.4375 449.984375 19.4375 433.414062 C 19.4375 416.847656 32.867188 403.414062 49.4375 403.414062 C 66.007812 403.414062 79.4375 416.847656 79.4375 433.414062 "/>
<path style="fill-rule:nonzero;fill:rgb(35%,70%,90%);fill-opacity:1;stroke-width:1;stroke-linecap:butt;stroke-linejoin:miter;stroke:rgb(0%,0%,0%);stroke-opacity:1;stroke-miterlimit:10;" d="M 109.867188 294.265625 C 109.867188 310.835938 96.4375 324.265625 79.867188 324.265625 C 63.300781 324.265625 49.867188 310.835938 49.867188 294.265625 C 49.867188 277.699219 63.300781 264.265625 79.867188 264.265625 C 96.4375 264.265625 109.867188 277.699219 109.867188 294.265625 "/>
<path style="fill-rule:nonzero;fill:rgb(35%,70%,90%);fill-opacity:1;stroke-width:1;stroke-linecap:butt;stroke-linejoin:miter;stroke:rgb(0%,0%,0%);stroke-opacity:1;stroke-miterlimit:10;" d="M 87.289062 137.730469 C 87.289062 154.300781 73.859375 167.730469 57.289062 167.730469 C 40.722656 167.730469 27.289062 154.300781 27.289062 137.730469 C 27.289062 121.164062 40.722656 107.730469 57.289062 107.730469 C 73.859375 107.730469 87.289062 121.164062 87.289062 137.730469 "/>
<path style="fill-rule:nonzero;fill:rgb(35%,70%,90%);fill-opacity:1;stroke-width:1;stroke-linecap:butt;stroke-linejoin:miter;stroke:rgb(0%,0%,0%);stroke-opacity:1;stroke-miterlimit:10;" d="M 120.046875 76.179688 C 120.046875 92.75 106.613281 106.179688 90.046875 106.179688 C 73.476562 106.179688 60.046875 92.75 60.046875 76.179688 C 60.046875 59.613281 73.476562 46.179688 90.046875 46.179688 C 106.613281 46.179688 120.046875 59.613281 120.046875 76.179688 "/>
</g>
</svg>
