<?xml version="1.0" encoding="UTF-8"?>
<svg xmlns="http://www.w3.org/2000/svg" xmlns:xlink="http://www.w3.org/1999/xlink" width="517pt" height="517pt" viewBox="0 0 517 517" version="1.1">
<g id="surface5706">
<rect x="0" y="0" width="517" height="517" style="fill:rgb(90%,90%,90%);fill-opacity:1;stroke:none;"/>
<path style="fill-rule:nonzero;fill:rgb(67%,100%,18%);fill-opacity:1;stroke-width:1;stroke-linecap:butt;stroke-linejoin:miter;stroke:rgb(0%,0%,0%);stroke-opacity:1;stroke-miterlimit:10;" d="M 372.28125 418.945312 C 372.28125 435.515625 358.847656 448.945312 342.28125 448.945312 C 325.710938 448.945312 312.28125 435.515625 312.28125 418.945312 C 312.28125 402.378906 325.710938 388.945312 342.28125 388.945312 C 358.847656 388.945312 372.28125 402.378906 372.28125 418.945312 "/>
<path style="fill-rule:nonzero;fill:rgb(67%,100%,18%);fill-opacity:1;stroke-width:1;stroke-linecap:butt;stroke-linejoin:miter;stroke:rgb(0%,0%,0%);stroke-opacity:1;stroke-miterlimit:10;" d="M 183.214844 92.53125 C 183.214844 109.097656 169.785156 122.53125 153.214844 122.53125 C 136.644531 122.53125 123.214844 109.097656 123.214844 92.53125 C 123.214844 75.960938 136.644531 62.53125 153.214844 62.53125 C 169.785156 62.53125 183.214844 75.960938 183.214844 92.53125 "/>
<path style="fill-rule:nonzero;fill:rgb(35%,70%,90%);fill-opacity:1;stroke-width:1;stroke-linecap:butt;stroke-linejoin:miter;stroke:rgb(0%,0%,0%);stroke-opacity:1;stroke-miterlimit:10;" d="M 228.472656 139.539062 C 228.472656 156.109375 215.042969 169.539062 198.472656 169.539062 C 181.90625 169.539062 168.472656 156.109375 168.472656 139.539062 C 168.472656 122.972656 181.90625 109.539062 198.472656 109.539062 C 215.042969 109.539062 228.472656 122.972656 228.472656 139.539062 "/>
<path style="fill-rule:nonzero;fill:rgb(35%,70%,90%);fill-opacity:1;stroke-width:1;stroke-linecap:butt;stroke-linejoin:miter;stroke:rgb(0%,0%,0%);stroke-opacity:1;stroke-miterlimit:10;" d="M 75.378906 197.597656 C 75.378906 214.167969 61.945312 227.597656 45.378906 227.597656 C 28.808594 227.597656 15.378906 214.167969 15.378906 197.597656 C 15.378906 181.03125 28.808594 167.597656 45.378906 167.597656 C 61.945312 167.597656 75.378906 181.03125 75.378906 197.597656 "/>
<path style="fill-rule:nonzero;fill:rgb(35%,70%,90%);fill-opacity:1;stroke-width:1;stroke-linecap:butt;stroke-linejoin:miter;stroke:rgb(0%,0%,0%);stroke-opacity:1;stroke-miterlimit:10;" d="M 150.125 153.355469 C 150.125 169.925781 136.695312 183.355469 120.125 183.355469 C 103.558594 183.355469 90.125 169.925781 90.125 153.355469 C 90.125 136.789062 103.558594 123.355469 120.125 123.355469 C 136.695312 123.355469 150.125 136.789062 150.125 153.355469 "/>
<path style="fill-rule:nonzero;fill:rgb(35%,70%,90%);fill-opacity:1;stroke-width:1;stroke-linecap:butt;stroke-linejoin:miter;stroke:rgb(0%,0%,0%);stroke-opacity:1;stroke-miterlimit:10;" d="M 400.886719 39.785156 C 400.886719 56.355469 387.457031 69.785156 370.886719 69.785156 C 354.320312 69.785156 340.886719 56.355469 340.886719 39.785156 C 340.886719 23.21875 354.320312 9.785156 370.886719 9.785156 C 387.457031 9.785156 400.886719 23.21875 400.886719 39.785156 "/>
<path style="fill-rule:nonzero;fill:rgb(35%,70%,90%);fill-opacity:1;stroke-width:1;stroke-linecap:butt;stroke-linejoin:miter;stroke:rgb(0%,0%,0%);stroke-opacity:1;stroke-miterlimit:10;" d="M 486.589844 170.929688 C 486.589844 187.496094 473.160156 200.929688 456.589844 200.929688 C 440.023438 200.929688 426.589844 187.496094 426.589844 170.929688 C 426.589844 154.359375 440.023438 140.929688 456.589844 140.929688 C 473.160156 140.929688 486.589844 154.359375 486.589844 170.929688 "/>
<path style="fill-rule:nonzero;fill:rgb(35%,70%,90%);fill-opacity:1;stroke-width:1;stroke-linecap:butt;stroke-linejoin:miter;stroke:rgb(0%,0%,0%);stroke-opacity:1;stroke-miterlimit:10;" d="M 374.902344 134.480469 C 374.902344 151.046875 361.472656 164.480469 344.902344 164.480469 C 328.335938 164.480469 314.902344 151.046875 314.902344 134.480469 C 314.902344 117.910156 328.335938 104.480469 344.902344 104.480469 C 361.472656 104.480469 374.902344 117.910156 374.902344 134.480469 "/>
</g>
</svg>
