<?xml version="1.0" encoding="UTF-8"?>
<svg xmlns="http://www.w3.org/2000/svg" xmlns:xlink="http://www.w3.org/1999/xlink" width="517pt" height="517pt" viewBox="0 0 517 517" version="1.1">
<g id="surface12756">
<rect x="0" y="0" width="517" height="517" style="fill:rgb(90%,90%,90%);fill-opacity:1;stroke:none;"/>
<path style="fill-rule:nonzero;fill:rgb(35%,70%,90%);fill-opacity:1;stroke-width:1;stroke-linecap:butt;stroke-linejoin:miter;stroke:rgb(0%,0%,0%);stroke-opacity:1;stroke-miterlimit:10;" d="M 426.320312 64.011719 L 406.320312 64.011719 L 406.320312 74.011719 L 426.320312 74.011719 L 426.320312 94.011719 L 436.320312 94.011719 L 436.320312 74.011719 L 456.320312 74.011719 L 456.320312 64.011719 L 436.320312 64.011719 L 436.320312 44.011719 L 426.320312 44.011719 L 426.320312 64.011719 "/>
<path style="fill-rule:nonzero;fill:rgb(35%,70%,90%);fill-opacity:1;stroke-width:1;stroke-linecap:butt;stroke-linejoin:miter;stroke:rgb(0%,0%,0%);stroke-opacity:1;stroke-miterlimit:10;" d="M 440.730469 323.960938 L 420.730469 323.960938 L 420.730469 333.960938 L 440.730469 333.960938 L 440.730469 353.960938 L 450.730469 353.960938 L 450.730469 333.960938 L 470.730469 333.960938 L 470.730469 323.960938 L 450.730469 323.960938 L 450.730469 303.960938 L 440.730469 303.960938 L 440.730469 323.960938 "/>
<path style="fill-rule:nonzero;fill:rgb(35%,70%,90%);fill-opacity:1;stroke-width:1;stroke-linecap:butt;stroke-linejoin:miter;stroke:rgb(0%,0%,0%);stroke-opacity:1;stroke-miterlimit:10;" d="M 466.777344 386.898438 L 446.777344 386.898438 L 446.777344 396.898438 L 466.777344 396.898438 L 466.777344 416.898438 L 476.777344 416.898438 L 476.777344 396.898438 L 496.777344 396.898438 L 496.777344 386.898438 L 476.777344 386.898438 L 476.777344 366.898438 L 466.777344 366.898438 L 466.777344 386.898438 "/>
<path style="fill-rule:nonzero;fill:rgb(35%,70%,90%);fill-opacity:1;stroke-width:1;stroke-linecap:butt;stroke-linejoin:miter;stroke:rgb(0%,0%,0%);stroke-opacity:1;stroke-miterlimit:10;" d="M 307.78125 333.300781 L 287.78125 333.300781 L 287.78125 343.300781 L 307.78125 343.300781 L 307.78125 363.300781 L 317.78125 363.300781 L 317.78125 343.300781 L 337.78125 343.300781 L 337.78125 333.300781 L 317.78125 333.300781 L 317.78125 313.300781 L 307.78125 313.300781 L 307.78125 333.300781 "/>
<path style="fill-rule:nonzero;fill:rgb(35%,70%,90%);fill-opacity:1;stroke-width:1;stroke-linecap:butt;stroke-linejoin:miter;stroke:rgb(0%,0%,0%);stroke-opacity:1;stroke-miterlimit:10;" d="M 322.851562 443.367188 L 302.851562 443.367188 L 302.851562 453.367188 L 322.851562 453.367188 L 322.851562 473.367188 L 332.851562 473.367188 L 332.851562 453.367188 L 352.851562 453.367188 L 352.851562 443.367188 L 332.851562 443.367188 L 332.851562 423.367188 L 322.851562 423.367188 L 322.851562 443.367188 "/>
</g>
</svg>
