<?xml version="1.0" encoding="UTF-8"?>
<svg xmlns="http://www.w3.org/2000/svg" xmlns:xlink="http://www.w3.org/1999/xlink" width="517pt" height="517pt" viewBox="0 0 517 517" version="1.1">
<g id="surface581">
<rect x="0" y="0" width="517" height="517" style="fill:rgb(90%,90%,90%);fill-opacity:1;stroke:none;"/>
<path style="fill:none;stroke-width:5;stroke-linecap:butt;stroke-linejoin:round;stroke:rgb(100%,0%,0%);stroke-opacity:1;stroke-miterlimit:10;" d="M 261 5 L 517 5 L 517 261 L 261 261 Z M 261 5 "/>
<path style="fill-rule:nonzero;fill:rgb(35%,70%,90%);fill-opacity:1;stroke-width:1;stroke-linecap:butt;stroke-linejoin:round;stroke:rgb(0%,0%,0%);stroke-opacity:1;stroke-miterlimit:10;" d="M 363.671875 218.078125 C 363.671875 234.644531 350.238281 248.078125 333.671875 248.078125 C 317.101562 248.078125 303.671875 234.644531 303.671875 218.078125 C 303.671875 201.507812 317.101562 188.078125 333.671875 188.078125 C 350.238281 188.078125 363.671875 201.507812 363.671875 218.078125 "/>
<path style="fill-rule:nonzero;fill:rgb(67%,100%,18%);fill-opacity:1;stroke-width:1;stroke-linecap:butt;stroke-linejoin:round;stroke:rgb(0%,0%,0%);stroke-opacity:1;stroke-miterlimit:10;" d="M 247.730469 47.222656 C 247.730469 63.792969 234.296875 77.222656 217.730469 77.222656 C 201.160156 77.222656 187.730469 63.792969 187.730469 47.222656 C 187.730469 30.65625 201.160156 17.222656 217.730469 17.222656 C 234.296875 17.222656 247.730469 30.65625 247.730469 47.222656 "/>
<path style="fill-rule:nonzero;fill:rgb(67%,100%,18%);fill-opacity:1;stroke-width:1;stroke-linecap:butt;stroke-linejoin:round;stroke:rgb(0%,0%,0%);stroke-opacity:1;stroke-miterlimit:10;" d="M 163.128906 89.5625 C 163.128906 106.128906 149.699219 119.5625 133.128906 119.5625 C 116.5625 119.5625 103.128906 106.128906 103.128906 89.5625 C 103.128906 72.992188 116.5625 59.5625 133.128906 59.5625 C 149.699219 59.5625 163.128906 72.992188 163.128906 89.5625 "/>
<path style="fill-rule:nonzero;fill:rgb(35%,70%,90%);fill-opacity:1;stroke-width:1;stroke-linecap:butt;stroke-linejoin:round;stroke:rgb(0%,0%,0%);stroke-opacity:1;stroke-miterlimit:10;" d="M 202.101562 296.328125 C 202.101562 312.894531 188.671875 326.328125 172.101562 326.328125 C 155.535156 326.328125 142.101562 312.894531 142.101562 296.328125 C 142.101562 279.757812 155.535156 266.328125 172.101562 266.328125 C 188.671875 266.328125 202.101562 279.757812 202.101562 296.328125 "/>
</g>
</svg>
