<?xml version="1.0" encoding="UTF-8"?>
<svg xmlns="http://www.w3.org/2000/svg" xmlns:xlink="http://www.w3.org/1999/xlink" width="517pt" height="517pt" viewBox="0 0 517 517" version="1.1">
<g id="surface12716">
<rect x="0" y="0" width="517" height="517" style="fill:rgb(90%,90%,90%);fill-opacity:1;stroke:none;"/>
<path style="fill-rule:nonzero;fill:rgb(35%,70%,90%);fill-opacity:1;stroke-width:1;stroke-linecap:butt;stroke-linejoin:miter;stroke:rgb(0%,0%,0%);stroke-opacity:1;stroke-miterlimit:10;" d="M 207.199219 363.734375 L 187.199219 363.734375 L 187.199219 373.734375 L 207.199219 373.734375 L 207.199219 393.734375 L 217.199219 393.734375 L 217.199219 373.734375 L 237.199219 373.734375 L 237.199219 363.734375 L 217.199219 363.734375 L 217.199219 343.734375 L 207.199219 343.734375 L 207.199219 363.734375 "/>
<path style="fill-rule:nonzero;fill:rgb(35%,70%,90%);fill-opacity:1;stroke-width:1;stroke-linecap:butt;stroke-linejoin:miter;stroke:rgb(0%,0%,0%);stroke-opacity:1;stroke-miterlimit:10;" d="M 74.90625 420.320312 L 54.90625 420.320312 L 54.90625 430.320312 L 74.90625 430.320312 L 74.90625 450.320312 L 84.90625 450.320312 L 84.90625 430.320312 L 104.90625 430.320312 L 104.90625 420.320312 L 84.90625 420.320312 L 84.90625 400.320312 L 74.90625 400.320312 L 74.90625 420.320312 "/>
<path style="fill-rule:nonzero;fill:rgb(35%,70%,90%);fill-opacity:1;stroke-width:1;stroke-linecap:butt;stroke-linejoin:miter;stroke:rgb(0%,0%,0%);stroke-opacity:1;stroke-miterlimit:10;" d="M 215.488281 68.132812 L 195.488281 68.132812 L 195.488281 78.132812 L 215.488281 78.132812 L 215.488281 98.132812 L 225.488281 98.132812 L 225.488281 78.132812 L 245.488281 78.132812 L 245.488281 68.132812 L 225.488281 68.132812 L 225.488281 48.132812 L 215.488281 48.132812 L 215.488281 68.132812 "/>
<path style="fill-rule:nonzero;fill:rgb(35%,70%,90%);fill-opacity:1;stroke-width:1;stroke-linecap:butt;stroke-linejoin:miter;stroke:rgb(0%,0%,0%);stroke-opacity:1;stroke-miterlimit:10;" d="M 202.105469 143.320312 L 182.105469 143.320312 L 182.105469 153.320312 L 202.105469 153.320312 L 202.105469 173.320312 L 212.105469 173.320312 L 212.105469 153.320312 L 232.105469 153.320312 L 232.105469 143.320312 L 212.105469 143.320312 L 212.105469 123.320312 L 202.105469 123.320312 L 202.105469 143.320312 "/>
<path style="fill-rule:nonzero;fill:rgb(35%,70%,90%);fill-opacity:1;stroke-width:1;stroke-linecap:butt;stroke-linejoin:miter;stroke:rgb(0%,0%,0%);stroke-opacity:1;stroke-miterlimit:10;" d="M 83.492188 149.210938 L 63.492188 149.210938 L 63.492188 159.210938 L 83.492188 159.210938 L 83.492188 179.210938 L 93.492188 179.210938 L 93.492188 159.210938 L 113.492188 159.210938 L 113.492188 149.210938 L 93.492188 149.210938 L 93.492188 129.210938 L 83.492188 129.210938 L 83.492188 149.210938 "/>
</g>
</svg>
