<?xml version="1.0" encoding="UTF-8"?>
<svg xmlns="http://www.w3.org/2000/svg" xmlns:xlink="http://www.w3.org/1999/xlink" width="517pt" height="517pt" viewBox="0 0 517 517" version="1.1">
<g id="surface591">
<rect x="0" y="0" width="517" height="517" style="fill:rgb(90%,90%,90%);fill-opacity:1;stroke:none;"/>
<path style="fill:none;stroke-width:5;stroke-linecap:butt;stroke-linejoin:round;stroke:rgb(100%,0%,0%);stroke-opacity:1;stroke-miterlimit:10;" d="M 261 5 L 517 5 L 517 261 L 261 261 Z M 261 5 "/>
<path style="fill-rule:nonzero;fill:rgb(35%,70%,90%);fill-opacity:1;stroke-width:1;stroke-linecap:butt;stroke-linejoin:round;stroke:rgb(0%,0%,0%);stroke-opacity:1;stroke-miterlimit:10;" d="M 360.804688 50.453125 C 360.804688 67.023438 347.371094 80.453125 330.804688 80.453125 C 314.234375 80.453125 300.804688 67.023438 300.804688 50.453125 C 300.804688 33.886719 314.234375 20.453125 330.804688 20.453125 C 347.371094 20.453125 360.804688 33.886719 360.804688 50.453125 "/>
<path style="fill-rule:nonzero;fill:rgb(67%,100%,18%);fill-opacity:1;stroke-width:1;stroke-linecap:butt;stroke-linejoin:round;stroke:rgb(0%,0%,0%);stroke-opacity:1;stroke-miterlimit:10;" d="M 481.023438 361.566406 C 481.023438 378.132812 467.59375 391.566406 451.023438 391.566406 C 434.457031 391.566406 421.023438 378.132812 421.023438 361.566406 C 421.023438 344.996094 434.457031 331.566406 451.023438 331.566406 C 467.59375 331.566406 481.023438 344.996094 481.023438 361.566406 "/>
<path style="fill-rule:nonzero;fill:rgb(67%,100%,18%);fill-opacity:1;stroke-width:1;stroke-linecap:butt;stroke-linejoin:round;stroke:rgb(0%,0%,0%);stroke-opacity:1;stroke-miterlimit:10;" d="M 410.441406 409.789062 C 410.441406 426.355469 397.011719 439.789062 380.441406 439.789062 C 363.875 439.789062 350.441406 426.355469 350.441406 409.789062 C 350.441406 393.21875 363.875 379.789062 380.441406 379.789062 C 397.011719 379.789062 410.441406 393.21875 410.441406 409.789062 "/>
<path style="fill-rule:nonzero;fill:rgb(35%,70%,90%);fill-opacity:1;stroke-width:1;stroke-linecap:butt;stroke-linejoin:round;stroke:rgb(0%,0%,0%);stroke-opacity:1;stroke-miterlimit:10;" d="M 230.335938 42.535156 C 230.335938 59.105469 216.902344 72.535156 200.335938 72.535156 C 183.765625 72.535156 170.335938 59.105469 170.335938 42.535156 C 170.335938 25.96875 183.765625 12.535156 200.335938 12.535156 C 216.902344 12.535156 230.335938 25.96875 230.335938 42.535156 "/>
</g>
</svg>
