<?xml version="1.0" encoding="UTF-8"?>
<svg xmlns="http://www.w3.org/2000/svg" xmlns:xlink="http://www.w3.org/1999/xlink" width="517pt" height="517pt" viewBox="0 0 517 517" version="1.1">
<g id="surface611">
<rect x="0" y="0" width="517" height="517" style="fill:rgb(90%,90%,90%);fill-opacity:1;stroke:none;"/>
<path style="fill:none;stroke-width:5;stroke-linecap:butt;stroke-linejoin:round;stroke:rgb(100%,0%,0%);stroke-opacity:1;stroke-miterlimit:10;" d="M 261 5 L 517 5 L 517 261 L 261 261 Z M 261 5 "/>
<path style="fill-rule:nonzero;fill:rgb(35%,70%,90%);fill-opacity:1;stroke-width:1;stroke-linecap:butt;stroke-linejoin:round;stroke:rgb(0%,0%,0%);stroke-opacity:1;stroke-miterlimit:10;" d="M 499.523438 142.199219 C 499.523438 158.769531 486.089844 172.199219 469.523438 172.199219 C 452.953125 172.199219 439.523438 158.769531 439.523438 142.199219 C 439.523438 125.632812 452.953125 112.199219 469.523438 112.199219 C 486.089844 112.199219 499.523438 125.632812 499.523438 142.199219 "/>
<path style="fill-rule:nonzero;fill:rgb(67%,100%,18%);fill-opacity:1;stroke-width:1;stroke-linecap:butt;stroke-linejoin:round;stroke:rgb(0%,0%,0%);stroke-opacity:1;stroke-miterlimit:10;" d="M 446.542969 361.386719 C 446.542969 377.953125 433.113281 391.386719 416.542969 391.386719 C 399.976562 391.386719 386.542969 377.953125 386.542969 361.386719 C 386.542969 344.816406 399.976562 331.386719 416.542969 331.386719 C 433.113281 331.386719 446.542969 344.816406 446.542969 361.386719 "/>
<path style="fill-rule:nonzero;fill:rgb(35%,70%,90%);fill-opacity:1;stroke-width:1;stroke-linecap:butt;stroke-linejoin:round;stroke:rgb(0%,0%,0%);stroke-opacity:1;stroke-miterlimit:10;" d="M 463.195312 462.359375 C 463.195312 478.929688 449.765625 492.359375 433.195312 492.359375 C 416.628906 492.359375 403.195312 478.929688 403.195312 462.359375 C 403.195312 445.792969 416.628906 432.359375 433.195312 432.359375 C 449.765625 432.359375 463.195312 445.792969 463.195312 462.359375 "/>
<path style="fill-rule:nonzero;fill:rgb(35%,70%,90%);fill-opacity:1;stroke-width:1;stroke-linecap:butt;stroke-linejoin:round;stroke:rgb(0%,0%,0%);stroke-opacity:1;stroke-miterlimit:10;" d="M 86.277344 155.96875 C 86.277344 172.535156 72.84375 185.96875 56.277344 185.96875 C 39.707031 185.96875 26.277344 172.535156 26.277344 155.96875 C 26.277344 139.398438 39.707031 125.96875 56.277344 125.96875 C 72.84375 125.96875 86.277344 139.398438 86.277344 155.96875 "/>
</g>
</svg>
