<?xml version="1.0" encoding="UTF-8"?>
<svg xmlns="http://www.w3.org/2000/svg" xmlns:xlink="http://www.w3.org/1999/xlink" width="517pt" height="517pt" viewBox="0 0 517 517" version="1.1">
<g id="surface13396">
<rect x="0" y="0" width="517" height="517" style="fill:rgb(90%,90%,90%);fill-opacity:1;stroke:none;"/>
<path style="fill-rule:nonzero;fill:rgb(0%,0%,0%);fill-opacity:1;stroke-width:1;stroke-linecap:butt;stroke-linejoin:miter;stroke:rgb(0%,0%,0%);stroke-opacity:1;stroke-miterlimit:10;" d="M 72.339844 84.355469 C 72.339844 100.925781 58.910156 114.355469 42.339844 114.355469 C 25.773438 114.355469 12.339844 100.925781 12.339844 84.355469 C 12.339844 67.789062 25.773438 54.355469 42.339844 54.355469 C 58.910156 54.355469 72.339844 67.789062 72.339844 84.355469 "/>
<path style="fill-rule:nonzero;fill:rgb(0%,0%,0%);fill-opacity:1;stroke-width:1;stroke-linecap:butt;stroke-linejoin:miter;stroke:rgb(0%,0%,0%);stroke-opacity:1;stroke-miterlimit:10;" d="M 89.039062 148.9375 C 89.039062 165.507812 75.605469 178.9375 59.039062 178.9375 C 42.46875 178.9375 29.039062 165.507812 29.039062 148.9375 C 29.039062 132.371094 42.46875 118.9375 59.039062 118.9375 C 75.605469 118.9375 89.039062 132.371094 89.039062 148.9375 "/>
<path style="fill-rule:nonzero;fill:rgb(0%,0%,0%);fill-opacity:1;stroke-width:1;stroke-linecap:butt;stroke-linejoin:miter;stroke:rgb(0%,0%,0%);stroke-opacity:1;stroke-miterlimit:10;" d="M 237.328125 384.574219 C 237.328125 401.140625 223.898438 414.574219 207.328125 414.574219 C 190.761719 414.574219 177.328125 401.140625 177.328125 384.574219 C 177.328125 368.003906 190.761719 354.574219 207.328125 354.574219 C 223.898438 354.574219 237.328125 368.003906 237.328125 384.574219 "/>
<path style="fill-rule:nonzero;fill:rgb(0%,0%,0%);fill-opacity:1;stroke-width:1;stroke-linecap:butt;stroke-linejoin:miter;stroke:rgb(0%,0%,0%);stroke-opacity:1;stroke-miterlimit:10;" d="M 69.148438 348.3125 C 69.148438 364.882812 55.71875 378.3125 39.148438 378.3125 C 22.578125 378.3125 9.148438 364.882812 9.148438 348.3125 C 9.148438 331.746094 22.578125 318.3125 39.148438 318.3125 C 55.71875 318.3125 69.148438 331.746094 69.148438 348.3125 "/>
<path style="fill-rule:nonzero;fill:rgb(0%,0%,0%);fill-opacity:1;stroke-width:1;stroke-linecap:butt;stroke-linejoin:miter;stroke:rgb(0%,0%,0%);stroke-opacity:1;stroke-miterlimit:10;" d="M 245.867188 294.9375 C 245.867188 311.507812 232.4375 324.9375 215.867188 324.9375 C 199.300781 324.9375 185.867188 311.507812 185.867188 294.9375 C 185.867188 278.367188 199.300781 264.9375 215.867188 264.9375 C 232.4375 264.9375 245.867188 278.367188 245.867188 294.9375 "/>
<path style="fill-rule:nonzero;fill:rgb(35%,70%,90%);fill-opacity:1;stroke-width:1;stroke-linecap:butt;stroke-linejoin:miter;stroke:rgb(0%,0%,0%);stroke-opacity:1;stroke-miterlimit:10;" d="M 134.679688 303.691406 C 134.679688 320.257812 121.246094 333.691406 104.679688 333.691406 C 88.109375 333.691406 74.679688 320.257812 74.679688 303.691406 C 74.679688 287.121094 88.109375 273.691406 104.679688 273.691406 C 121.246094 273.691406 134.679688 287.121094 134.679688 303.691406 "/>
</g>
</svg>
