<?xml version="1.0" encoding="UTF-8"?>
<svg xmlns="http://www.w3.org/2000/svg" xmlns:xlink="http://www.w3.org/1999/xlink" width="517pt" height="517pt" viewBox="0 0 517 517" version="1.1">
<g id="surface13376">
<rect x="0" y="0" width="517" height="517" style="fill:rgb(90%,90%,90%);fill-opacity:1;stroke:none;"/>
<path style="fill-rule:nonzero;fill:rgb(0%,0%,0%);fill-opacity:1;stroke-width:1;stroke-linecap:butt;stroke-linejoin:miter;stroke:rgb(0%,0%,0%);stroke-opacity:1;stroke-miterlimit:10;" d="M 497.433594 341.59375 C 497.433594 358.160156 484 371.59375 467.433594 371.59375 C 450.863281 371.59375 437.433594 358.160156 437.433594 341.59375 C 437.433594 325.023438 450.863281 311.59375 467.433594 311.59375 C 484 311.59375 497.433594 325.023438 497.433594 341.59375 "/>
<path style="fill-rule:nonzero;fill:rgb(0%,0%,0%);fill-opacity:1;stroke-width:1;stroke-linecap:butt;stroke-linejoin:miter;stroke:rgb(0%,0%,0%);stroke-opacity:1;stroke-miterlimit:10;" d="M 380.789062 210.394531 C 380.789062 226.964844 367.359375 240.394531 350.789062 240.394531 C 334.222656 240.394531 320.789062 226.964844 320.789062 210.394531 C 320.789062 193.828125 334.222656 180.394531 350.789062 180.394531 C 367.359375 180.394531 380.789062 193.828125 380.789062 210.394531 "/>
<path style="fill-rule:nonzero;fill:rgb(0%,0%,0%);fill-opacity:1;stroke-width:1;stroke-linecap:butt;stroke-linejoin:miter;stroke:rgb(0%,0%,0%);stroke-opacity:1;stroke-miterlimit:10;" d="M 341.875 147.714844 C 341.875 164.28125 328.441406 177.714844 311.875 177.714844 C 295.304688 177.714844 281.875 164.28125 281.875 147.714844 C 281.875 131.144531 295.304688 117.714844 311.875 117.714844 C 328.441406 117.714844 341.875 131.144531 341.875 147.714844 "/>
<path style="fill-rule:nonzero;fill:rgb(0%,0%,0%);fill-opacity:1;stroke-width:1;stroke-linecap:butt;stroke-linejoin:miter;stroke:rgb(0%,0%,0%);stroke-opacity:1;stroke-miterlimit:10;" d="M 424.964844 70.757812 C 424.964844 87.324219 411.535156 100.757812 394.964844 100.757812 C 378.398438 100.757812 364.964844 87.324219 364.964844 70.757812 C 364.964844 54.1875 378.398438 40.757812 394.964844 40.757812 C 411.535156 40.757812 424.964844 54.1875 424.964844 70.757812 "/>
<path style="fill-rule:nonzero;fill:rgb(0%,0%,0%);fill-opacity:1;stroke-width:1;stroke-linecap:butt;stroke-linejoin:miter;stroke:rgb(0%,0%,0%);stroke-opacity:1;stroke-miterlimit:10;" d="M 498.59375 103.375 C 498.59375 119.945312 485.164062 133.375 468.59375 133.375 C 452.027344 133.375 438.59375 119.945312 438.59375 103.375 C 438.59375 86.808594 452.027344 73.375 468.59375 73.375 C 485.164062 73.375 498.59375 86.808594 498.59375 103.375 "/>
<path style="fill-rule:nonzero;fill:rgb(35%,70%,90%);fill-opacity:1;stroke-width:1;stroke-linecap:butt;stroke-linejoin:miter;stroke:rgb(0%,0%,0%);stroke-opacity:1;stroke-miterlimit:10;" d="M 225.707031 88.816406 C 225.707031 105.382812 212.273438 118.816406 195.707031 118.816406 C 179.136719 118.816406 165.707031 105.382812 165.707031 88.816406 C 165.707031 72.246094 179.136719 58.816406 195.707031 58.816406 C 212.273438 58.816406 225.707031 72.246094 225.707031 88.816406 "/>
</g>
</svg>
