<?xml version="1.0" encoding="UTF-8"?>
<svg xmlns="http://www.w3.org/2000/svg" xmlns:xlink="http://www.w3.org/1999/xlink" width="517pt" height="517pt" viewBox="0 0 517 517" version="1.1">
<g id="surface13276">
<rect x="0" y="0" width="517" height="517" style="fill:rgb(90%,90%,90%);fill-opacity:1;stroke:none;"/>
<path style="fill-rule:nonzero;fill:rgb(90%,65%,0%);fill-opacity:1;stroke-width:1;stroke-linecap:butt;stroke-linejoin:miter;stroke:rgb(0%,0%,0%);stroke-opacity:1;stroke-miterlimit:10;" d="M 504.164062 54.289062 C 504.164062 70.855469 490.730469 84.289062 474.164062 84.289062 C 457.59375 84.289062 444.164062 70.855469 444.164062 54.289062 C 444.164062 37.71875 457.59375 24.289062 474.164062 24.289062 C 490.730469 24.289062 504.164062 37.71875 504.164062 54.289062 "/>
<path style="fill-rule:nonzero;fill:rgb(50%,0%,50%);fill-opacity:1;stroke-width:1;stroke-linecap:butt;stroke-linejoin:miter;stroke:rgb(0%,0%,0%);stroke-opacity:1;stroke-miterlimit:10;" d="M 206.183594 182.09375 C 206.183594 198.664062 192.75 212.09375 176.183594 212.09375 C 159.613281 212.09375 146.183594 198.664062 146.183594 182.09375 C 146.183594 165.523438 159.613281 152.09375 176.183594 152.09375 C 192.75 152.09375 206.183594 165.523438 206.183594 182.09375 "/>
<path style="fill-rule:nonzero;fill:rgb(50%,0%,50%);fill-opacity:1;stroke-width:1;stroke-linecap:butt;stroke-linejoin:miter;stroke:rgb(0%,0%,0%);stroke-opacity:1;stroke-miterlimit:10;" d="M 172.511719 79.878906 C 172.511719 96.449219 159.082031 109.878906 142.511719 109.878906 C 125.945312 109.878906 112.511719 96.449219 112.511719 79.878906 C 112.511719 63.3125 125.945312 49.878906 142.511719 49.878906 C 159.082031 49.878906 172.511719 63.3125 172.511719 79.878906 "/>
<path style="fill-rule:nonzero;fill:rgb(50%,0%,50%);fill-opacity:1;stroke-width:1;stroke-linecap:butt;stroke-linejoin:miter;stroke:rgb(0%,0%,0%);stroke-opacity:1;stroke-miterlimit:10;" d="M 220.832031 468.472656 C 220.832031 485.042969 207.402344 498.472656 190.832031 498.472656 C 174.265625 498.472656 160.832031 485.042969 160.832031 468.472656 C 160.832031 451.90625 174.265625 438.472656 190.832031 438.472656 C 207.402344 438.472656 220.832031 451.90625 220.832031 468.472656 "/>
<path style="fill-rule:nonzero;fill:rgb(50%,0%,50%);fill-opacity:1;stroke-width:1;stroke-linecap:butt;stroke-linejoin:miter;stroke:rgb(0%,0%,0%);stroke-opacity:1;stroke-miterlimit:10;" d="M 134.449219 316.027344 C 134.449219 332.597656 121.015625 346.027344 104.449219 346.027344 C 87.878906 346.027344 74.449219 332.597656 74.449219 316.027344 C 74.449219 299.460938 87.878906 286.027344 104.449219 286.027344 C 121.015625 286.027344 134.449219 299.460938 134.449219 316.027344 "/>
</g>
</svg>
