<?xml version="1.0" encoding="UTF-8"?>
<svg xmlns="http://www.w3.org/2000/svg" xmlns:xlink="http://www.w3.org/1999/xlink" width="517pt" height="517pt" viewBox="0 0 517 517" version="1.1">
<g id="surface13056">
<rect x="0" y="0" width="517" height="517" style="fill:rgb(90%,90%,90%);fill-opacity:1;stroke:none;"/>
<path style="fill-rule:nonzero;fill:rgb(100%,0%,0%);fill-opacity:1;stroke-width:1;stroke-linecap:butt;stroke-linejoin:miter;stroke:rgb(0%,0%,0%);stroke-opacity:1;stroke-miterlimit:10;" d="M 169.734375 174.21875 C 169.734375 190.785156 156.300781 204.21875 139.734375 204.21875 C 123.164062 204.21875 109.734375 190.785156 109.734375 174.21875 C 109.734375 157.648438 123.164062 144.21875 139.734375 144.21875 C 156.300781 144.21875 169.734375 157.648438 169.734375 174.21875 "/>
<path style="fill-rule:nonzero;fill:rgb(100%,0%,0%);fill-opacity:1;stroke-width:1;stroke-linecap:butt;stroke-linejoin:miter;stroke:rgb(0%,0%,0%);stroke-opacity:1;stroke-miterlimit:10;" d="M 180.488281 417.378906 C 180.488281 433.945312 167.054688 447.378906 150.488281 447.378906 C 133.917969 447.378906 120.488281 433.945312 120.488281 417.378906 C 120.488281 400.808594 133.917969 387.378906 150.488281 387.378906 C 167.054688 387.378906 180.488281 400.808594 180.488281 417.378906 "/>
<path style="fill-rule:nonzero;fill:rgb(0%,0%,0%);fill-opacity:1;stroke-width:1;stroke-linecap:butt;stroke-linejoin:miter;stroke:rgb(0%,0%,0%);stroke-opacity:1;stroke-miterlimit:10;" d="M 115.664062 308.867188 C 115.664062 325.4375 102.234375 338.867188 85.664062 338.867188 C 69.097656 338.867188 55.664062 325.4375 55.664062 308.867188 C 55.664062 292.300781 69.097656 278.867188 85.664062 278.867188 C 102.234375 278.867188 115.664062 292.300781 115.664062 308.867188 "/>
<path style="fill-rule:nonzero;fill:rgb(0%,0%,0%);fill-opacity:1;stroke-width:1;stroke-linecap:butt;stroke-linejoin:miter;stroke:rgb(0%,0%,0%);stroke-opacity:1;stroke-miterlimit:10;" d="M 65.652344 475.746094 C 65.652344 492.316406 52.222656 505.746094 35.652344 505.746094 C 19.085938 505.746094 5.652344 492.316406 5.652344 475.746094 C 5.652344 459.179688 19.085938 445.746094 35.652344 445.746094 C 52.222656 445.746094 65.652344 459.179688 65.652344 475.746094 "/>
<path style="fill-rule:nonzero;fill:rgb(0%,0%,0%);fill-opacity:1;stroke-width:1;stroke-linecap:butt;stroke-linejoin:miter;stroke:rgb(0%,0%,0%);stroke-opacity:1;stroke-miterlimit:10;" d="M 227.117188 309.796875 C 227.117188 326.367188 213.6875 339.796875 197.117188 339.796875 C 180.550781 339.796875 167.117188 326.367188 167.117188 309.796875 C 167.117188 293.230469 180.550781 279.796875 197.117188 279.796875 C 213.6875 279.796875 227.117188 293.230469 227.117188 309.796875 "/>
<path style="fill-rule:nonzero;fill:rgb(0%,0%,0%);fill-opacity:1;stroke-width:1;stroke-linecap:butt;stroke-linejoin:miter;stroke:rgb(0%,0%,0%);stroke-opacity:1;stroke-miterlimit:10;" d="M 175.3125 351.492188 C 175.3125 368.0625 161.882812 381.492188 145.3125 381.492188 C 128.746094 381.492188 115.3125 368.0625 115.3125 351.492188 C 115.3125 334.925781 128.746094 321.492188 145.3125 321.492188 C 161.882812 321.492188 175.3125 334.925781 175.3125 351.492188 "/>
</g>
</svg>
