<?xml version="1.0" encoding="UTF-8"?>
<svg xmlns="http://www.w3.org/2000/svg" xmlns:xlink="http://www.w3.org/1999/xlink" width="517pt" height="517pt" viewBox="0 0 517 517" version="1.1">
<g id="surface13016">
<rect x="0" y="0" width="517" height="517" style="fill:rgb(90%,90%,90%);fill-opacity:1;stroke:none;"/>
<path style="fill-rule:nonzero;fill:rgb(100%,0%,0%);fill-opacity:1;stroke-width:1;stroke-linecap:butt;stroke-linejoin:miter;stroke:rgb(0%,0%,0%);stroke-opacity:1;stroke-miterlimit:10;" d="M 379.230469 406.367188 C 379.230469 422.9375 365.800781 436.367188 349.230469 436.367188 C 332.660156 436.367188 319.230469 422.9375 319.230469 406.367188 C 319.230469 389.800781 332.660156 376.367188 349.230469 376.367188 C 365.800781 376.367188 379.230469 389.800781 379.230469 406.367188 "/>
<path style="fill-rule:nonzero;fill:rgb(100%,0%,0%);fill-opacity:1;stroke-width:1;stroke-linecap:butt;stroke-linejoin:miter;stroke:rgb(0%,0%,0%);stroke-opacity:1;stroke-miterlimit:10;" d="M 444.4375 155.675781 C 444.4375 172.242188 431.003906 185.675781 414.4375 185.675781 C 397.867188 185.675781 384.4375 172.242188 384.4375 155.675781 C 384.4375 139.105469 397.867188 125.675781 414.4375 125.675781 C 431.003906 125.675781 444.4375 139.105469 444.4375 155.675781 "/>
<path style="fill-rule:nonzero;fill:rgb(0%,0%,0%);fill-opacity:1;stroke-width:1;stroke-linecap:butt;stroke-linejoin:miter;stroke:rgb(0%,0%,0%);stroke-opacity:1;stroke-miterlimit:10;" d="M 400.339844 76.578125 C 400.339844 93.144531 386.90625 106.578125 370.339844 106.578125 C 353.769531 106.578125 340.339844 93.144531 340.339844 76.578125 C 340.339844 60.007812 353.769531 46.578125 370.339844 46.578125 C 386.90625 46.578125 400.339844 60.007812 400.339844 76.578125 "/>
<path style="fill-rule:nonzero;fill:rgb(0%,0%,0%);fill-opacity:1;stroke-width:1;stroke-linecap:butt;stroke-linejoin:miter;stroke:rgb(0%,0%,0%);stroke-opacity:1;stroke-miterlimit:10;" d="M 469.875 55.257812 C 469.875 71.824219 456.441406 85.257812 439.875 85.257812 C 423.304688 85.257812 409.875 71.824219 409.875 55.257812 C 409.875 38.6875 423.304688 25.257812 439.875 25.257812 C 456.441406 25.257812 469.875 38.6875 469.875 55.257812 "/>
<path style="fill-rule:nonzero;fill:rgb(0%,0%,0%);fill-opacity:1;stroke-width:1;stroke-linecap:butt;stroke-linejoin:miter;stroke:rgb(0%,0%,0%);stroke-opacity:1;stroke-miterlimit:10;" d="M 387.09375 215.5 C 387.09375 232.070312 373.664062 245.5 357.09375 245.5 C 340.527344 245.5 327.09375 232.070312 327.09375 215.5 C 327.09375 198.933594 340.527344 185.5 357.09375 185.5 C 373.664062 185.5 387.09375 198.933594 387.09375 215.5 "/>
<path style="fill-rule:nonzero;fill:rgb(0%,0%,0%);fill-opacity:1;stroke-width:1;stroke-linecap:butt;stroke-linejoin:miter;stroke:rgb(0%,0%,0%);stroke-opacity:1;stroke-miterlimit:10;" d="M 370.101562 151.835938 C 370.101562 168.40625 356.667969 181.835938 340.101562 181.835938 C 323.53125 181.835938 310.101562 168.40625 310.101562 151.835938 C 310.101562 135.269531 323.53125 121.835938 340.101562 121.835938 C 356.667969 121.835938 370.101562 135.269531 370.101562 151.835938 "/>
</g>
</svg>
