<?xml version="1.0" encoding="UTF-8"?>
<svg xmlns="http://www.w3.org/2000/svg" xmlns:xlink="http://www.w3.org/1999/xlink" width="517pt" height="517pt" viewBox="0 0 517 517" version="1.1">
<g id="surface691">
<rect x="0" y="0" width="517" height="517" style="fill:rgb(90%,90%,90%);fill-opacity:1;stroke:none;"/>
<path style="fill:none;stroke-width:5;stroke-linecap:butt;stroke-linejoin:round;stroke:rgb(100%,0%,0%);stroke-opacity:1;stroke-miterlimit:10;" d="M 261 5 L 517 5 L 517 261 L 261 261 Z M 261 5 "/>
<path style="fill-rule:nonzero;fill:rgb(100%,100%,0%);fill-opacity:1;stroke-width:1;stroke-linecap:butt;stroke-linejoin:round;stroke:rgb(0%,0%,0%);stroke-opacity:1;stroke-miterlimit:10;" d="M 458.117188 142.476562 C 458.117188 128.074219 434.117188 128.074219 434.117188 142.476562 C 434.117188 156.875 458.117188 159.273438 458.117188 171.273438 C 458.117188 159.273438 482.117188 156.875 482.117188 142.476562 C 482.117188 128.074219 458.117188 128.074219 458.117188 142.476562 "/>
<path style="fill-rule:nonzero;fill:rgb(67%,100%,18%);fill-opacity:1;stroke-width:1;stroke-linecap:butt;stroke-linejoin:round;stroke:rgb(0%,0%,0%);stroke-opacity:1;stroke-miterlimit:10;" d="M 456.929688 314.96875 C 456.929688 300.570312 432.929688 300.570312 432.929688 314.96875 C 432.929688 329.371094 456.929688 331.769531 456.929688 343.769531 C 456.929688 331.769531 480.929688 329.371094 480.929688 314.96875 C 480.929688 300.570312 456.929688 300.570312 456.929688 314.96875 "/>
<path style="fill-rule:nonzero;fill:rgb(100%,100%,0%);fill-opacity:1;stroke-width:1;stroke-linecap:butt;stroke-linejoin:round;stroke:rgb(0%,0%,0%);stroke-opacity:1;stroke-miterlimit:10;" d="M 365.316406 377.683594 C 365.316406 363.28125 341.316406 363.28125 341.316406 377.683594 C 341.316406 392.082031 365.316406 394.484375 365.316406 406.484375 C 365.316406 394.484375 389.316406 392.082031 389.316406 377.683594 C 389.316406 363.28125 365.316406 363.28125 365.316406 377.683594 "/>
<path style="fill-rule:nonzero;fill:rgb(100%,100%,0%);fill-opacity:1;stroke-width:1;stroke-linecap:butt;stroke-linejoin:round;stroke:rgb(0%,0%,0%);stroke-opacity:1;stroke-miterlimit:10;" d="M 79.746094 340.160156 C 79.746094 325.761719 55.746094 325.761719 55.746094 340.160156 C 55.746094 354.558594 79.746094 356.960938 79.746094 368.960938 C 79.746094 356.960938 103.746094 354.558594 103.746094 340.160156 C 103.746094 325.761719 79.746094 325.761719 79.746094 340.160156 "/>
</g>
</svg>
