<?xml version="1.0" encoding="UTF-8"?>
<svg xmlns="http://www.w3.org/2000/svg" xmlns:xlink="http://www.w3.org/1999/xlink" width="517pt" height="517pt" viewBox="0 0 517 517" version="1.1">
<g id="surface5786">
<rect x="0" y="0" width="517" height="517" style="fill:rgb(90%,90%,90%);fill-opacity:1;stroke:none;"/>
<path style="fill-rule:nonzero;fill:rgb(67%,100%,18%);fill-opacity:1;stroke-width:1;stroke-linecap:butt;stroke-linejoin:miter;stroke:rgb(0%,0%,0%);stroke-opacity:1;stroke-miterlimit:10;" d="M 307.332031 199.875 L 287.332031 199.875 L 287.332031 209.875 L 307.332031 209.875 L 307.332031 229.875 L 317.332031 229.875 L 317.332031 209.875 L 337.332031 209.875 L 337.332031 199.875 L 317.332031 199.875 L 317.332031 179.875 L 307.332031 179.875 L 307.332031 199.875 "/>
<path style="fill-rule:nonzero;fill:rgb(67%,100%,18%);fill-opacity:1;stroke-width:1;stroke-linecap:butt;stroke-linejoin:miter;stroke:rgb(0%,0%,0%);stroke-opacity:1;stroke-miterlimit:10;" d="M 295.597656 312.324219 L 275.597656 312.324219 L 275.597656 322.324219 L 295.597656 322.324219 L 295.597656 342.324219 L 305.597656 342.324219 L 305.597656 322.324219 L 325.597656 322.324219 L 325.597656 312.324219 L 305.597656 312.324219 L 305.597656 292.324219 L 295.597656 292.324219 L 295.597656 312.324219 "/>
<path style="fill-rule:nonzero;fill:rgb(50%,0%,50%);fill-opacity:1;stroke-width:1;stroke-linecap:butt;stroke-linejoin:miter;stroke:rgb(0%,0%,0%);stroke-opacity:1;stroke-miterlimit:10;" d="M 425.386719 429.441406 L 405.386719 429.441406 L 405.386719 439.441406 L 425.386719 439.441406 L 425.386719 459.441406 L 435.386719 459.441406 L 435.386719 439.441406 L 455.386719 439.441406 L 455.386719 429.441406 L 435.386719 429.441406 L 435.386719 409.441406 L 425.386719 409.441406 L 425.386719 429.441406 "/>
<path style="fill-rule:nonzero;fill:rgb(50%,0%,50%);fill-opacity:1;stroke-width:1;stroke-linecap:butt;stroke-linejoin:miter;stroke:rgb(0%,0%,0%);stroke-opacity:1;stroke-miterlimit:10;" d="M 119.214844 133.722656 L 99.214844 133.722656 L 99.214844 143.722656 L 119.214844 143.722656 L 119.214844 163.722656 L 129.214844 163.722656 L 129.214844 143.722656 L 149.214844 143.722656 L 149.214844 133.722656 L 129.214844 133.722656 L 129.214844 113.722656 L 119.214844 113.722656 L 119.214844 133.722656 "/>
<path style="fill-rule:nonzero;fill:rgb(50%,0%,50%);fill-opacity:1;stroke-width:1;stroke-linecap:butt;stroke-linejoin:miter;stroke:rgb(0%,0%,0%);stroke-opacity:1;stroke-miterlimit:10;" d="M 35.15625 149.226562 L 15.15625 149.226562 L 15.15625 159.226562 L 35.15625 159.226562 L 35.15625 179.226562 L 45.15625 179.226562 L 45.15625 159.226562 L 65.15625 159.226562 L 65.15625 149.226562 L 45.15625 149.226562 L 45.15625 129.226562 L 35.15625 129.226562 L 35.15625 149.226562 "/>
<path style="fill-rule:nonzero;fill:rgb(50%,0%,50%);fill-opacity:1;stroke-width:1;stroke-linecap:butt;stroke-linejoin:miter;stroke:rgb(0%,0%,0%);stroke-opacity:1;stroke-miterlimit:10;" d="M 43.714844 40.917969 L 23.714844 40.917969 L 23.714844 50.917969 L 43.714844 50.917969 L 43.714844 70.917969 L 53.714844 70.917969 L 53.714844 50.917969 L 73.714844 50.917969 L 73.714844 40.917969 L 53.714844 40.917969 L 53.714844 20.917969 L 43.714844 20.917969 L 43.714844 40.917969 "/>
<path style="fill-rule:nonzero;fill:rgb(50%,0%,50%);fill-opacity:1;stroke-width:1;stroke-linecap:butt;stroke-linejoin:miter;stroke:rgb(0%,0%,0%);stroke-opacity:1;stroke-miterlimit:10;" d="M 187.972656 118.640625 L 167.972656 118.640625 L 167.972656 128.640625 L 187.972656 128.640625 L 187.972656 148.640625 L 197.972656 148.640625 L 197.972656 128.640625 L 217.972656 128.640625 L 217.972656 118.640625 L 197.972656 118.640625 L 197.972656 98.640625 L 187.972656 98.640625 L 187.972656 118.640625 "/>
<path style="fill-rule:nonzero;fill:rgb(50%,0%,50%);fill-opacity:1;stroke-width:1;stroke-linecap:butt;stroke-linejoin:miter;stroke:rgb(0%,0%,0%);stroke-opacity:1;stroke-miterlimit:10;" d="M 212.941406 57.875 L 192.941406 57.875 L 192.941406 67.875 L 212.941406 67.875 L 212.941406 87.875 L 222.941406 87.875 L 222.941406 67.875 L 242.941406 67.875 L 242.941406 57.875 L 222.941406 57.875 L 222.941406 37.875 L 212.941406 37.875 L 212.941406 57.875 "/>
</g>
</svg>
