<?xml version="1.0" encoding="UTF-8"?>
<svg xmlns="http://www.w3.org/2000/svg" xmlns:xlink="http://www.w3.org/1999/xlink" width="517pt" height="517pt" viewBox="0 0 517 517" version="1.1">
<g id="surface5836">
<rect x="0" y="0" width="517" height="517" style="fill:rgb(90%,90%,90%);fill-opacity:1;stroke:none;"/>
<path style="fill-rule:nonzero;fill:rgb(67%,100%,18%);fill-opacity:1;stroke-width:1;stroke-linecap:butt;stroke-linejoin:miter;stroke:rgb(0%,0%,0%);stroke-opacity:1;stroke-miterlimit:10;" d="M 452.101562 57.734375 L 432.101562 57.734375 L 432.101562 67.734375 L 452.101562 67.734375 L 452.101562 87.734375 L 462.101562 87.734375 L 462.101562 67.734375 L 482.101562 67.734375 L 482.101562 57.734375 L 462.101562 57.734375 L 462.101562 37.734375 L 452.101562 37.734375 L 452.101562 57.734375 "/>
<path style="fill-rule:nonzero;fill:rgb(67%,100%,18%);fill-opacity:1;stroke-width:1;stroke-linecap:butt;stroke-linejoin:miter;stroke:rgb(0%,0%,0%);stroke-opacity:1;stroke-miterlimit:10;" d="M 314.257812 135.8125 L 294.257812 135.8125 L 294.257812 145.8125 L 314.257812 145.8125 L 314.257812 165.8125 L 324.257812 165.8125 L 324.257812 145.8125 L 344.257812 145.8125 L 344.257812 135.8125 L 324.257812 135.8125 L 324.257812 115.8125 L 314.257812 115.8125 L 314.257812 135.8125 "/>
<path style="fill-rule:nonzero;fill:rgb(67%,100%,18%);fill-opacity:1;stroke-width:1;stroke-linecap:butt;stroke-linejoin:miter;stroke:rgb(0%,0%,0%);stroke-opacity:1;stroke-miterlimit:10;" d="M 33.804688 181.519531 L 13.804688 181.519531 L 13.804688 191.519531 L 33.804688 191.519531 L 33.804688 211.519531 L 43.804688 211.519531 L 43.804688 191.519531 L 63.804688 191.519531 L 63.804688 181.519531 L 43.804688 181.519531 L 43.804688 161.519531 L 33.804688 161.519531 L 33.804688 181.519531 "/>
<path style="fill-rule:nonzero;fill:rgb(50%,0%,50%);fill-opacity:1;stroke-width:1;stroke-linecap:butt;stroke-linejoin:miter;stroke:rgb(0%,0%,0%);stroke-opacity:1;stroke-miterlimit:10;" d="M 206.109375 180.574219 L 186.109375 180.574219 L 186.109375 190.574219 L 206.109375 190.574219 L 206.109375 210.574219 L 216.109375 210.574219 L 216.109375 190.574219 L 236.109375 190.574219 L 236.109375 180.574219 L 216.109375 180.574219 L 216.109375 160.574219 L 206.109375 160.574219 L 206.109375 180.574219 "/>
<path style="fill-rule:nonzero;fill:rgb(50%,0%,50%);fill-opacity:1;stroke-width:1;stroke-linecap:butt;stroke-linejoin:miter;stroke:rgb(0%,0%,0%);stroke-opacity:1;stroke-miterlimit:10;" d="M 147.292969 118.0625 L 127.292969 118.0625 L 127.292969 128.0625 L 147.292969 128.0625 L 147.292969 148.0625 L 157.292969 148.0625 L 157.292969 128.0625 L 177.292969 128.0625 L 177.292969 118.0625 L 157.292969 118.0625 L 157.292969 98.0625 L 147.292969 98.0625 L 147.292969 118.0625 "/>
<path style="fill-rule:nonzero;fill:rgb(50%,0%,50%);fill-opacity:1;stroke-width:1;stroke-linecap:butt;stroke-linejoin:miter;stroke:rgb(0%,0%,0%);stroke-opacity:1;stroke-miterlimit:10;" d="M 72.9375 61.171875 L 52.9375 61.171875 L 52.9375 71.171875 L 72.9375 71.171875 L 72.9375 91.171875 L 82.9375 91.171875 L 82.9375 71.171875 L 102.9375 71.171875 L 102.9375 61.171875 L 82.9375 61.171875 L 82.9375 41.171875 L 72.9375 41.171875 L 72.9375 61.171875 "/>
<path style="fill-rule:nonzero;fill:rgb(50%,0%,50%);fill-opacity:1;stroke-width:1;stroke-linecap:butt;stroke-linejoin:miter;stroke:rgb(0%,0%,0%);stroke-opacity:1;stroke-miterlimit:10;" d="M 164.085938 326.191406 L 144.085938 326.191406 L 144.085938 336.191406 L 164.085938 336.191406 L 164.085938 356.191406 L 174.085938 356.191406 L 174.085938 336.191406 L 194.085938 336.191406 L 194.085938 326.191406 L 174.085938 326.191406 L 174.085938 306.191406 L 164.085938 306.191406 L 164.085938 326.191406 "/>
<path style="fill-rule:nonzero;fill:rgb(50%,0%,50%);fill-opacity:1;stroke-width:1;stroke-linecap:butt;stroke-linejoin:miter;stroke:rgb(0%,0%,0%);stroke-opacity:1;stroke-miterlimit:10;" d="M 215.679688 466.25 L 195.679688 466.25 L 195.679688 476.25 L 215.679688 476.25 L 215.679688 496.25 L 225.679688 496.25 L 225.679688 476.25 L 245.679688 476.25 L 245.679688 466.25 L 225.679688 466.25 L 225.679688 446.25 L 215.679688 446.25 L 215.679688 466.25 "/>
</g>
</svg>
