<?xml version="1.0" encoding="UTF-8"?>
<svg xmlns="http://www.w3.org/2000/svg" xmlns:xlink="http://www.w3.org/1999/xlink" width="517pt" height="517pt" viewBox="0 0 517 517" version="1.1">
<g id="surface686">
<rect x="0" y="0" width="517" height="517" style="fill:rgb(90%,90%,90%);fill-opacity:1;stroke:none;"/>
<path style="fill:none;stroke-width:5;stroke-linecap:butt;stroke-linejoin:round;stroke:rgb(100%,0%,0%);stroke-opacity:1;stroke-miterlimit:10;" d="M 261 5 L 517 5 L 517 261 L 261 261 Z M 261 5 "/>
<path style="fill-rule:nonzero;fill:rgb(100%,100%,0%);fill-opacity:1;stroke-width:1;stroke-linecap:butt;stroke-linejoin:round;stroke:rgb(0%,0%,0%);stroke-opacity:1;stroke-miterlimit:10;" d="M 438.761719 41.050781 C 438.761719 26.648438 414.761719 26.648438 414.761719 41.050781 C 414.761719 55.449219 438.761719 57.851562 438.761719 69.851562 C 438.761719 57.851562 462.761719 55.449219 462.761719 41.050781 C 462.761719 26.648438 438.761719 26.648438 438.761719 41.050781 "/>
<path style="fill-rule:nonzero;fill:rgb(67%,100%,18%);fill-opacity:1;stroke-width:1;stroke-linecap:butt;stroke-linejoin:round;stroke:rgb(0%,0%,0%);stroke-opacity:1;stroke-miterlimit:10;" d="M 48.425781 83.484375 C 48.425781 69.085938 24.425781 69.085938 24.425781 83.484375 C 24.425781 97.886719 48.425781 100.285156 48.425781 112.285156 C 48.425781 100.285156 72.425781 97.886719 72.425781 83.484375 C 72.425781 69.085938 48.425781 69.085938 48.425781 83.484375 "/>
<path style="fill-rule:nonzero;fill:rgb(100%,100%,0%);fill-opacity:1;stroke-width:1;stroke-linecap:butt;stroke-linejoin:round;stroke:rgb(0%,0%,0%);stroke-opacity:1;stroke-miterlimit:10;" d="M 147.144531 192.890625 C 147.144531 178.488281 123.144531 178.488281 123.144531 192.890625 C 123.144531 207.289062 147.144531 209.6875 147.144531 221.6875 C 147.144531 209.6875 171.144531 207.289062 171.144531 192.890625 C 171.144531 178.488281 147.144531 178.488281 147.144531 192.890625 "/>
<path style="fill-rule:nonzero;fill:rgb(100%,100%,0%);fill-opacity:1;stroke-width:1;stroke-linecap:butt;stroke-linejoin:round;stroke:rgb(0%,0%,0%);stroke-opacity:1;stroke-miterlimit:10;" d="M 313.582031 371.773438 C 313.582031 357.375 289.582031 357.375 289.582031 371.773438 C 289.582031 386.171875 313.582031 388.574219 313.582031 400.574219 C 313.582031 388.574219 337.582031 386.171875 337.582031 371.773438 C 337.582031 357.375 313.582031 357.375 313.582031 371.773438 "/>
</g>
</svg>
