<?xml version="1.0" encoding="UTF-8"?>
<svg xmlns="http://www.w3.org/2000/svg" xmlns:xlink="http://www.w3.org/1999/xlink" width="517pt" height="517pt" viewBox="0 0 517 517" version="1.1">
<g id="surface681">
<rect x="0" y="0" width="517" height="517" style="fill:rgb(90%,90%,90%);fill-opacity:1;stroke:none;"/>
<path style="fill:none;stroke-width:5;stroke-linecap:butt;stroke-linejoin:round;stroke:rgb(100%,0%,0%);stroke-opacity:1;stroke-miterlimit:10;" d="M 261 5 L 517 5 L 517 261 L 261 261 Z M 261 5 "/>
<path style="fill-rule:nonzero;fill:rgb(100%,100%,0%);fill-opacity:1;stroke-width:1;stroke-linecap:butt;stroke-linejoin:round;stroke:rgb(0%,0%,0%);stroke-opacity:1;stroke-miterlimit:10;" d="M 465 183.011719 C 465 168.609375 441 168.609375 441 183.011719 C 441 197.410156 465 199.808594 465 211.808594 C 465 199.808594 489 197.410156 489 183.011719 C 489 168.609375 465 168.609375 465 183.011719 "/>
<path style="fill-rule:nonzero;fill:rgb(67%,100%,18%);fill-opacity:1;stroke-width:1;stroke-linecap:butt;stroke-linejoin:round;stroke:rgb(0%,0%,0%);stroke-opacity:1;stroke-miterlimit:10;" d="M 170.894531 384.679688 C 170.894531 370.28125 146.894531 370.28125 146.894531 384.679688 C 146.894531 399.082031 170.894531 401.480469 170.894531 413.480469 C 170.894531 401.480469 194.894531 399.082031 194.894531 384.679688 C 194.894531 370.28125 170.894531 370.28125 170.894531 384.679688 "/>
<path style="fill-rule:nonzero;fill:rgb(100%,100%,0%);fill-opacity:1;stroke-width:1;stroke-linecap:butt;stroke-linejoin:round;stroke:rgb(0%,0%,0%);stroke-opacity:1;stroke-miterlimit:10;" d="M 69.074219 36.992188 C 69.074219 22.59375 45.074219 22.59375 45.074219 36.992188 C 45.074219 51.394531 69.074219 53.792969 69.074219 65.792969 C 69.074219 53.792969 93.074219 51.394531 93.074219 36.992188 C 93.074219 22.59375 69.074219 22.59375 69.074219 36.992188 "/>
<path style="fill-rule:nonzero;fill:rgb(100%,100%,0%);fill-opacity:1;stroke-width:1;stroke-linecap:butt;stroke-linejoin:round;stroke:rgb(0%,0%,0%);stroke-opacity:1;stroke-miterlimit:10;" d="M 83.984375 148.480469 C 83.984375 134.078125 59.984375 134.078125 59.984375 148.480469 C 59.984375 162.878906 83.984375 165.277344 83.984375 177.277344 C 83.984375 165.277344 107.984375 162.878906 107.984375 148.480469 C 107.984375 134.078125 83.984375 134.078125 83.984375 148.480469 "/>
</g>
</svg>
