<?xml version="1.0" encoding="UTF-8"?>
<svg xmlns="http://www.w3.org/2000/svg" xmlns:xlink="http://www.w3.org/1999/xlink" width="517pt" height="517pt" viewBox="0 0 517 517" version="1.1">
<g id="surface671">
<rect x="0" y="0" width="517" height="517" style="fill:rgb(90%,90%,90%);fill-opacity:1;stroke:none;"/>
<path style="fill:none;stroke-width:5;stroke-linecap:butt;stroke-linejoin:round;stroke:rgb(100%,0%,0%);stroke-opacity:1;stroke-miterlimit:10;" d="M 261 5 L 517 5 L 517 261 L 261 261 Z M 261 5 "/>
<path style="fill-rule:nonzero;fill:rgb(100%,100%,0%);fill-opacity:1;stroke-width:1;stroke-linecap:butt;stroke-linejoin:round;stroke:rgb(0%,0%,0%);stroke-opacity:1;stroke-miterlimit:10;" d="M 422.402344 140.34375 C 422.402344 125.945312 398.402344 125.945312 398.402344 140.34375 C 398.402344 154.746094 422.402344 157.144531 422.402344 169.144531 C 422.402344 157.144531 446.402344 154.746094 446.402344 140.34375 C 446.402344 125.945312 422.402344 125.945312 422.402344 140.34375 "/>
<path style="fill-rule:nonzero;fill:rgb(67%,100%,18%);fill-opacity:1;stroke-width:1;stroke-linecap:butt;stroke-linejoin:round;stroke:rgb(0%,0%,0%);stroke-opacity:1;stroke-miterlimit:10;" d="M 456.851562 392.601562 C 456.851562 378.199219 432.851562 378.199219 432.851562 392.601562 C 432.851562 407 456.851562 409.398438 456.851562 421.398438 C 456.851562 409.398438 480.851562 407 480.851562 392.601562 C 480.851562 378.199219 456.851562 378.199219 456.851562 392.601562 "/>
<path style="fill-rule:nonzero;fill:rgb(67%,100%,18%);fill-opacity:1;stroke-width:1;stroke-linecap:butt;stroke-linejoin:round;stroke:rgb(0%,0%,0%);stroke-opacity:1;stroke-miterlimit:10;" d="M 391.640625 384.046875 C 391.640625 369.644531 367.640625 369.644531 367.640625 384.046875 C 367.640625 398.445312 391.640625 400.847656 391.640625 412.847656 C 391.640625 400.847656 415.640625 398.445312 415.640625 384.046875 C 415.640625 369.644531 391.640625 369.644531 391.640625 384.046875 "/>
<path style="fill-rule:nonzero;fill:rgb(100%,100%,0%);fill-opacity:1;stroke-width:1;stroke-linecap:butt;stroke-linejoin:round;stroke:rgb(0%,0%,0%);stroke-opacity:1;stroke-miterlimit:10;" d="M 76.773438 364.542969 C 76.773438 350.144531 52.773438 350.144531 52.773438 364.542969 C 52.773438 378.945312 76.773438 381.34375 76.773438 393.34375 C 76.773438 381.34375 100.773438 378.945312 100.773438 364.542969 C 100.773438 350.144531 76.773438 350.144531 76.773438 364.542969 "/>
</g>
</svg>
