<?xml version="1.0" encoding="UTF-8"?>
<svg xmlns="http://www.w3.org/2000/svg" xmlns:xlink="http://www.w3.org/1999/xlink" width="517pt" height="517pt" viewBox="0 0 517 517" version="1.1">
<g id="surface716">
<rect x="0" y="0" width="517" height="517" style="fill:rgb(90%,90%,90%);fill-opacity:1;stroke:none;"/>
<path style="fill:none;stroke-width:5;stroke-linecap:butt;stroke-linejoin:round;stroke:rgb(100%,0%,0%);stroke-opacity:1;stroke-miterlimit:10;" d="M 261 5 L 517 5 L 517 261 L 261 261 Z M 261 5 "/>
<path style="fill-rule:nonzero;fill:rgb(67%,100%,18%);fill-opacity:1;stroke-width:1;stroke-linecap:butt;stroke-linejoin:round;stroke:rgb(0%,0%,0%);stroke-opacity:1;stroke-miterlimit:10;" d="M 419.765625 185.972656 C 419.765625 171.570312 395.765625 171.570312 395.765625 185.972656 C 395.765625 200.371094 419.765625 202.773438 419.765625 214.773438 C 419.765625 202.773438 443.765625 200.371094 443.765625 185.972656 C 443.765625 171.570312 419.765625 171.570312 419.765625 185.972656 "/>
<path style="fill-rule:nonzero;fill:rgb(67%,100%,18%);fill-opacity:1;stroke-width:1;stroke-linecap:butt;stroke-linejoin:round;stroke:rgb(0%,0%,0%);stroke-opacity:1;stroke-miterlimit:10;" d="M 377.4375 365.417969 C 377.4375 351.015625 353.4375 351.015625 353.4375 365.417969 C 353.4375 379.816406 377.4375 382.21875 377.4375 394.21875 C 377.4375 382.21875 401.4375 379.816406 401.4375 365.417969 C 401.4375 351.015625 377.4375 351.015625 377.4375 365.417969 "/>
<path style="fill-rule:nonzero;fill:rgb(67%,100%,18%);fill-opacity:1;stroke-width:1;stroke-linecap:butt;stroke-linejoin:round;stroke:rgb(0%,0%,0%);stroke-opacity:1;stroke-miterlimit:10;" d="M 320.890625 283.585938 C 320.890625 269.1875 296.890625 269.1875 296.890625 283.585938 C 296.890625 297.984375 320.890625 300.386719 320.890625 312.386719 C 320.890625 300.386719 344.890625 297.984375 344.890625 283.585938 C 344.890625 269.1875 320.890625 269.1875 320.890625 283.585938 "/>
<path style="fill-rule:nonzero;fill:rgb(100%,100%,0%);fill-opacity:1;stroke-width:1;stroke-linecap:butt;stroke-linejoin:round;stroke:rgb(0%,0%,0%);stroke-opacity:1;stroke-miterlimit:10;" d="M 139.753906 56.394531 C 139.753906 41.996094 115.753906 41.996094 115.753906 56.394531 C 115.753906 70.792969 139.753906 73.195312 139.753906 85.195312 C 139.753906 73.195312 163.753906 70.792969 163.753906 56.394531 C 163.753906 41.996094 139.753906 41.996094 139.753906 56.394531 "/>
</g>
</svg>
