<?xml version="1.0" encoding="UTF-8"?>
<svg xmlns="http://www.w3.org/2000/svg" xmlns:xlink="http://www.w3.org/1999/xlink" width="517pt" height="517pt" viewBox="0 0 517 517" version="1.1">
<g id="surface5816">
<rect x="0" y="0" width="517" height="517" style="fill:rgb(90%,90%,90%);fill-opacity:1;stroke:none;"/>
<path style="fill-rule:nonzero;fill:rgb(67%,100%,18%);fill-opacity:1;stroke-width:1;stroke-linecap:butt;stroke-linejoin:miter;stroke:rgb(0%,0%,0%);stroke-opacity:1;stroke-miterlimit:10;" d="M 325.738281 300.730469 L 305.738281 300.730469 L 305.738281 310.730469 L 325.738281 310.730469 L 325.738281 330.730469 L 335.738281 330.730469 L 335.738281 310.730469 L 355.738281 310.730469 L 355.738281 300.730469 L 335.738281 300.730469 L 335.738281 280.730469 L 325.738281 280.730469 L 325.738281 300.730469 "/>
<path style="fill-rule:nonzero;fill:rgb(50%,0%,50%);fill-opacity:1;stroke-width:1;stroke-linecap:butt;stroke-linejoin:miter;stroke:rgb(0%,0%,0%);stroke-opacity:1;stroke-miterlimit:10;" d="M 110.289062 168.546875 L 90.289062 168.546875 L 90.289062 178.546875 L 110.289062 178.546875 L 110.289062 198.546875 L 120.289062 198.546875 L 120.289062 178.546875 L 140.289062 178.546875 L 140.289062 168.546875 L 120.289062 168.546875 L 120.289062 148.546875 L 110.289062 148.546875 L 110.289062 168.546875 "/>
<path style="fill-rule:nonzero;fill:rgb(50%,0%,50%);fill-opacity:1;stroke-width:1;stroke-linecap:butt;stroke-linejoin:miter;stroke:rgb(0%,0%,0%);stroke-opacity:1;stroke-miterlimit:10;" d="M 35.054688 31.804688 L 15.054688 31.804688 L 15.054688 41.804688 L 35.054688 41.804688 L 35.054688 61.804688 L 45.054688 61.804688 L 45.054688 41.804688 L 65.054688 41.804688 L 65.054688 31.804688 L 45.054688 31.804688 L 45.054688 11.804688 L 35.054688 11.804688 L 35.054688 31.804688 "/>
<path style="fill-rule:nonzero;fill:rgb(50%,0%,50%);fill-opacity:1;stroke-width:1;stroke-linecap:butt;stroke-linejoin:miter;stroke:rgb(0%,0%,0%);stroke-opacity:1;stroke-miterlimit:10;" d="M 454.105469 92.199219 L 434.105469 92.199219 L 434.105469 102.199219 L 454.105469 102.199219 L 454.105469 122.199219 L 464.105469 122.199219 L 464.105469 102.199219 L 484.105469 102.199219 L 484.105469 92.199219 L 464.105469 92.199219 L 464.105469 72.199219 L 454.105469 72.199219 L 454.105469 92.199219 "/>
<path style="fill-rule:nonzero;fill:rgb(50%,0%,50%);fill-opacity:1;stroke-width:1;stroke-linecap:butt;stroke-linejoin:miter;stroke:rgb(0%,0%,0%);stroke-opacity:1;stroke-miterlimit:10;" d="M 305.484375 168.773438 L 285.484375 168.773438 L 285.484375 178.773438 L 305.484375 178.773438 L 305.484375 198.773438 L 315.484375 198.773438 L 315.484375 178.773438 L 335.484375 178.773438 L 335.484375 168.773438 L 315.484375 168.773438 L 315.484375 148.773438 L 305.484375 148.773438 L 305.484375 168.773438 "/>
<path style="fill-rule:nonzero;fill:rgb(50%,0%,50%);fill-opacity:1;stroke-width:1;stroke-linecap:butt;stroke-linejoin:miter;stroke:rgb(0%,0%,0%);stroke-opacity:1;stroke-miterlimit:10;" d="M 350.386719 209.402344 L 330.386719 209.402344 L 330.386719 219.402344 L 350.386719 219.402344 L 350.386719 239.402344 L 360.386719 239.402344 L 360.386719 219.402344 L 380.386719 219.402344 L 380.386719 209.402344 L 360.386719 209.402344 L 360.386719 189.402344 L 350.386719 189.402344 L 350.386719 209.402344 "/>
<path style="fill-rule:nonzero;fill:rgb(50%,0%,50%);fill-opacity:1;stroke-width:1;stroke-linecap:butt;stroke-linejoin:miter;stroke:rgb(0%,0%,0%);stroke-opacity:1;stroke-miterlimit:10;" d="M 413.503906 32.328125 L 393.503906 32.328125 L 393.503906 42.328125 L 413.503906 42.328125 L 413.503906 62.328125 L 423.503906 62.328125 L 423.503906 42.328125 L 443.503906 42.328125 L 443.503906 32.328125 L 423.503906 32.328125 L 423.503906 12.328125 L 413.503906 12.328125 L 413.503906 32.328125 "/>
<path style="fill-rule:nonzero;fill:rgb(50%,0%,50%);fill-opacity:1;stroke-width:1;stroke-linecap:butt;stroke-linejoin:miter;stroke:rgb(0%,0%,0%);stroke-opacity:1;stroke-miterlimit:10;" d="M 374.171875 140.886719 L 354.171875 140.886719 L 354.171875 150.886719 L 374.171875 150.886719 L 374.171875 170.886719 L 384.171875 170.886719 L 384.171875 150.886719 L 404.171875 150.886719 L 404.171875 140.886719 L 384.171875 140.886719 L 384.171875 120.886719 L 374.171875 120.886719 L 374.171875 140.886719 "/>
</g>
</svg>
