<?xml version="1.0" encoding="UTF-8"?>
<svg xmlns="http://www.w3.org/2000/svg" xmlns:xlink="http://www.w3.org/1999/xlink" width="517pt" height="517pt" viewBox="0 0 517 517" version="1.1">
<g id="surface706">
<rect x="0" y="0" width="517" height="517" style="fill:rgb(90%,90%,90%);fill-opacity:1;stroke:none;"/>
<path style="fill:none;stroke-width:5;stroke-linecap:butt;stroke-linejoin:round;stroke:rgb(100%,0%,0%);stroke-opacity:1;stroke-miterlimit:10;" d="M 261 5 L 517 5 L 517 261 L 261 261 Z M 261 5 "/>
<path style="fill-rule:nonzero;fill:rgb(67%,100%,18%);fill-opacity:1;stroke-width:1;stroke-linecap:butt;stroke-linejoin:round;stroke:rgb(0%,0%,0%);stroke-opacity:1;stroke-miterlimit:10;" d="M 349.839844 70.625 C 349.839844 56.222656 325.839844 56.222656 325.839844 70.625 C 325.839844 85.023438 349.839844 87.421875 349.839844 99.421875 C 349.839844 87.421875 373.839844 85.023438 373.839844 70.625 C 373.839844 56.222656 349.839844 56.222656 349.839844 70.625 "/>
<path style="fill-rule:nonzero;fill:rgb(67%,100%,18%);fill-opacity:1;stroke-width:1;stroke-linecap:butt;stroke-linejoin:round;stroke:rgb(0%,0%,0%);stroke-opacity:1;stroke-miterlimit:10;" d="M 61.820312 420.699219 C 61.820312 406.296875 37.820312 406.296875 37.820312 420.699219 C 37.820312 435.097656 61.820312 437.5 61.820312 449.5 C 61.820312 437.5 85.820312 435.097656 85.820312 420.699219 C 85.820312 406.296875 61.820312 406.296875 61.820312 420.699219 "/>
<path style="fill-rule:nonzero;fill:rgb(67%,100%,18%);fill-opacity:1;stroke-width:1;stroke-linecap:butt;stroke-linejoin:round;stroke:rgb(0%,0%,0%);stroke-opacity:1;stroke-miterlimit:10;" d="M 333.136719 413.042969 C 333.136719 398.644531 309.136719 398.644531 309.136719 413.042969 C 309.136719 427.445312 333.136719 429.84375 333.136719 441.84375 C 333.136719 429.84375 357.136719 427.445312 357.136719 413.042969 C 357.136719 398.644531 333.136719 398.644531 333.136719 413.042969 "/>
<path style="fill-rule:nonzero;fill:rgb(67%,100%,18%);fill-opacity:1;stroke-width:1;stroke-linecap:butt;stroke-linejoin:round;stroke:rgb(0%,0%,0%);stroke-opacity:1;stroke-miterlimit:10;" d="M 68.257812 204.113281 C 68.257812 189.714844 44.257812 189.714844 44.257812 204.113281 C 44.257812 218.515625 68.257812 220.914062 68.257812 232.914062 C 68.257812 220.914062 92.257812 218.515625 92.257812 204.113281 C 92.257812 189.714844 68.257812 189.714844 68.257812 204.113281 "/>
</g>
</svg>
