<?xml version="1.0" encoding="UTF-8"?>
<svg xmlns="http://www.w3.org/2000/svg" xmlns:xlink="http://www.w3.org/1999/xlink" width="517pt" height="517pt" viewBox="0 0 517 517" version="1.1">
<g id="surface646">
<rect x="0" y="0" width="517" height="517" style="fill:rgb(90%,90%,90%);fill-opacity:1;stroke:none;"/>
<path style="fill:none;stroke-width:5;stroke-linecap:butt;stroke-linejoin:round;stroke:rgb(100%,0%,0%);stroke-opacity:1;stroke-miterlimit:10;" d="M 261 5 L 517 5 L 517 261 L 261 261 Z M 261 5 "/>
<path style="fill-rule:nonzero;fill:rgb(100%,100%,0%);fill-opacity:1;stroke-width:1;stroke-linecap:butt;stroke-linejoin:round;stroke:rgb(0%,0%,0%);stroke-opacity:1;stroke-miterlimit:10;" d="M 401.175781 125.019531 C 401.175781 110.621094 377.175781 110.621094 377.175781 125.019531 C 377.175781 139.417969 401.175781 141.820312 401.175781 153.820312 C 401.175781 141.820312 425.175781 139.417969 425.175781 125.019531 C 425.175781 110.621094 401.175781 110.621094 401.175781 125.019531 "/>
<path style="fill-rule:nonzero;fill:rgb(67%,100%,18%);fill-opacity:1;stroke-width:1;stroke-linecap:butt;stroke-linejoin:round;stroke:rgb(0%,0%,0%);stroke-opacity:1;stroke-miterlimit:10;" d="M 199.417969 42.050781 C 199.417969 27.652344 175.417969 27.652344 175.417969 42.050781 C 175.417969 56.449219 199.417969 58.851562 199.417969 70.851562 C 199.417969 58.851562 223.417969 56.449219 223.417969 42.050781 C 223.417969 27.652344 199.417969 27.652344 199.417969 42.050781 "/>
<path style="fill-rule:nonzero;fill:rgb(67%,100%,18%);fill-opacity:1;stroke-width:1;stroke-linecap:butt;stroke-linejoin:round;stroke:rgb(0%,0%,0%);stroke-opacity:1;stroke-miterlimit:10;" d="M 130.0625 445.898438 C 130.0625 431.5 106.0625 431.5 106.0625 445.898438 C 106.0625 460.300781 130.0625 462.699219 130.0625 474.699219 C 130.0625 462.699219 154.0625 460.300781 154.0625 445.898438 C 154.0625 431.5 130.0625 431.5 130.0625 445.898438 "/>
<path style="fill-rule:nonzero;fill:rgb(67%,100%,18%);fill-opacity:1;stroke-width:1;stroke-linecap:butt;stroke-linejoin:round;stroke:rgb(0%,0%,0%);stroke-opacity:1;stroke-miterlimit:10;" d="M 337.371094 401.207031 C 337.371094 386.804688 313.371094 386.804688 313.371094 401.207031 C 313.371094 415.605469 337.371094 418.003906 337.371094 430.003906 C 337.371094 418.003906 361.371094 415.605469 361.371094 401.207031 C 361.371094 386.804688 337.371094 386.804688 337.371094 401.207031 "/>
</g>
</svg>
