<?xml version="1.0" encoding="UTF-8"?>
<svg xmlns="http://www.w3.org/2000/svg" xmlns:xlink="http://www.w3.org/1999/xlink" width="517pt" height="517pt" viewBox="0 0 517 517" version="1.1">
<g id="surface5826">
<rect x="0" y="0" width="517" height="517" style="fill:rgb(90%,90%,90%);fill-opacity:1;stroke:none;"/>
<path style="fill-rule:nonzero;fill:rgb(67%,100%,18%);fill-opacity:1;stroke-width:1;stroke-linecap:butt;stroke-linejoin:miter;stroke:rgb(0%,0%,0%);stroke-opacity:1;stroke-miterlimit:10;" d="M 204.289062 81.789062 L 184.289062 81.789062 L 184.289062 91.789062 L 204.289062 91.789062 L 204.289062 111.789062 L 214.289062 111.789062 L 214.289062 91.789062 L 234.289062 91.789062 L 234.289062 81.789062 L 214.289062 81.789062 L 214.289062 61.789062 L 204.289062 61.789062 L 204.289062 81.789062 "/>
<path style="fill-rule:nonzero;fill:rgb(67%,100%,18%);fill-opacity:1;stroke-width:1;stroke-linecap:butt;stroke-linejoin:miter;stroke:rgb(0%,0%,0%);stroke-opacity:1;stroke-miterlimit:10;" d="M 39.464844 130.28125 L 19.464844 130.28125 L 19.464844 140.28125 L 39.464844 140.28125 L 39.464844 160.28125 L 49.464844 160.28125 L 49.464844 140.28125 L 69.464844 140.28125 L 69.464844 130.28125 L 49.464844 130.28125 L 49.464844 110.28125 L 39.464844 110.28125 L 39.464844 130.28125 "/>
<path style="fill-rule:nonzero;fill:rgb(50%,0%,50%);fill-opacity:1;stroke-width:1;stroke-linecap:butt;stroke-linejoin:miter;stroke:rgb(0%,0%,0%);stroke-opacity:1;stroke-miterlimit:10;" d="M 341.9375 115.992188 L 321.9375 115.992188 L 321.9375 125.992188 L 341.9375 125.992188 L 341.9375 145.992188 L 351.9375 145.992188 L 351.9375 125.992188 L 371.9375 125.992188 L 371.9375 115.992188 L 351.9375 115.992188 L 351.9375 95.992188 L 341.9375 95.992188 L 341.9375 115.992188 "/>
<path style="fill-rule:nonzero;fill:rgb(50%,0%,50%);fill-opacity:1;stroke-width:1;stroke-linecap:butt;stroke-linejoin:miter;stroke:rgb(0%,0%,0%);stroke-opacity:1;stroke-miterlimit:10;" d="M 402.796875 90.703125 L 382.796875 90.703125 L 382.796875 100.703125 L 402.796875 100.703125 L 402.796875 120.703125 L 412.796875 120.703125 L 412.796875 100.703125 L 432.796875 100.703125 L 432.796875 90.703125 L 412.796875 90.703125 L 412.796875 70.703125 L 402.796875 70.703125 L 402.796875 90.703125 "/>
<path style="fill-rule:nonzero;fill:rgb(50%,0%,50%);fill-opacity:1;stroke-width:1;stroke-linecap:butt;stroke-linejoin:miter;stroke:rgb(0%,0%,0%);stroke-opacity:1;stroke-miterlimit:10;" d="M 326.578125 54.640625 L 306.578125 54.640625 L 306.578125 64.640625 L 326.578125 64.640625 L 326.578125 84.640625 L 336.578125 84.640625 L 336.578125 64.640625 L 356.578125 64.640625 L 356.578125 54.640625 L 336.578125 54.640625 L 336.578125 34.640625 L 326.578125 34.640625 L 326.578125 54.640625 "/>
<path style="fill-rule:nonzero;fill:rgb(50%,0%,50%);fill-opacity:1;stroke-width:1;stroke-linecap:butt;stroke-linejoin:miter;stroke:rgb(0%,0%,0%);stroke-opacity:1;stroke-miterlimit:10;" d="M 467.789062 189.332031 L 447.789062 189.332031 L 447.789062 199.332031 L 467.789062 199.332031 L 467.789062 219.332031 L 477.789062 219.332031 L 477.789062 199.332031 L 497.789062 199.332031 L 497.789062 189.332031 L 477.789062 189.332031 L 477.789062 169.332031 L 467.789062 169.332031 L 467.789062 189.332031 "/>
<path style="fill-rule:nonzero;fill:rgb(50%,0%,50%);fill-opacity:1;stroke-width:1;stroke-linecap:butt;stroke-linejoin:miter;stroke:rgb(0%,0%,0%);stroke-opacity:1;stroke-miterlimit:10;" d="M 395.585938 170.339844 L 375.585938 170.339844 L 375.585938 180.339844 L 395.585938 180.339844 L 395.585938 200.339844 L 405.585938 200.339844 L 405.585938 180.339844 L 425.585938 180.339844 L 425.585938 170.339844 L 405.585938 170.339844 L 405.585938 150.339844 L 395.585938 150.339844 L 395.585938 170.339844 "/>
<path style="fill-rule:nonzero;fill:rgb(50%,0%,50%);fill-opacity:1;stroke-width:1;stroke-linecap:butt;stroke-linejoin:miter;stroke:rgb(0%,0%,0%);stroke-opacity:1;stroke-miterlimit:10;" d="M 348.132812 210.589844 L 328.132812 210.589844 L 328.132812 220.589844 L 348.132812 220.589844 L 348.132812 240.589844 L 358.132812 240.589844 L 358.132812 220.589844 L 378.132812 220.589844 L 378.132812 210.589844 L 358.132812 210.589844 L 358.132812 190.589844 L 348.132812 190.589844 L 348.132812 210.589844 "/>
</g>
</svg>
