<?xml version="1.0" encoding="UTF-8"?>
<svg xmlns="http://www.w3.org/2000/svg" xmlns:xlink="http://www.w3.org/1999/xlink" width="517pt" height="517pt" viewBox="0 0 517 517" version="1.1">
<g id="surface701">
<rect x="0" y="0" width="517" height="517" style="fill:rgb(90%,90%,90%);fill-opacity:1;stroke:none;"/>
<path style="fill:none;stroke-width:5;stroke-linecap:butt;stroke-linejoin:round;stroke:rgb(100%,0%,0%);stroke-opacity:1;stroke-miterlimit:10;" d="M 261 5 L 517 5 L 517 261 L 261 261 Z M 261 5 "/>
<path style="fill-rule:nonzero;fill:rgb(67%,100%,18%);fill-opacity:1;stroke-width:1;stroke-linecap:butt;stroke-linejoin:round;stroke:rgb(0%,0%,0%);stroke-opacity:1;stroke-miterlimit:10;" d="M 375.253906 91.386719 C 375.253906 76.984375 351.253906 76.984375 351.253906 91.386719 C 351.253906 105.785156 375.253906 108.1875 375.253906 120.1875 C 375.253906 108.1875 399.253906 105.785156 399.253906 91.386719 C 399.253906 76.984375 375.253906 76.984375 375.253906 91.386719 "/>
<path style="fill-rule:nonzero;fill:rgb(67%,100%,18%);fill-opacity:1;stroke-width:1;stroke-linecap:butt;stroke-linejoin:round;stroke:rgb(0%,0%,0%);stroke-opacity:1;stroke-miterlimit:10;" d="M 97.652344 122 C 97.652344 107.601562 73.652344 107.601562 73.652344 122 C 73.652344 136.402344 97.652344 138.800781 97.652344 150.800781 C 97.652344 138.800781 121.652344 136.402344 121.652344 122 C 121.652344 107.601562 97.652344 107.601562 97.652344 122 "/>
<path style="fill-rule:nonzero;fill:rgb(67%,100%,18%);fill-opacity:1;stroke-width:1;stroke-linecap:butt;stroke-linejoin:round;stroke:rgb(0%,0%,0%);stroke-opacity:1;stroke-miterlimit:10;" d="M 53.371094 291.394531 C 53.371094 276.996094 29.371094 276.996094 29.371094 291.394531 C 29.371094 305.796875 53.371094 308.195312 53.371094 320.195312 C 53.371094 308.195312 77.371094 305.796875 77.371094 291.394531 C 77.371094 276.996094 53.371094 276.996094 53.371094 291.394531 "/>
<path style="fill-rule:nonzero;fill:rgb(100%,100%,0%);fill-opacity:1;stroke-width:1;stroke-linecap:butt;stroke-linejoin:round;stroke:rgb(0%,0%,0%);stroke-opacity:1;stroke-miterlimit:10;" d="M 114.449219 427.214844 C 114.449219 412.816406 90.449219 412.816406 90.449219 427.214844 C 90.449219 441.617188 114.449219 444.015625 114.449219 456.015625 C 114.449219 444.015625 138.449219 441.617188 138.449219 427.214844 C 138.449219 412.816406 114.449219 412.816406 114.449219 427.214844 "/>
</g>
</svg>
