<?xml version="1.0" encoding="UTF-8"?>
<svg xmlns="http://www.w3.org/2000/svg" xmlns:xlink="http://www.w3.org/1999/xlink" width="517pt" height="517pt" viewBox="0 0 517 517" version="1.1">
<g id="surface676">
<rect x="0" y="0" width="517" height="517" style="fill:rgb(90%,90%,90%);fill-opacity:1;stroke:none;"/>
<path style="fill:none;stroke-width:5;stroke-linecap:butt;stroke-linejoin:round;stroke:rgb(100%,0%,0%);stroke-opacity:1;stroke-miterlimit:10;" d="M 261 5 L 517 5 L 517 261 L 261 261 Z M 261 5 "/>
<path style="fill-rule:nonzero;fill:rgb(100%,100%,0%);fill-opacity:1;stroke-width:1;stroke-linecap:butt;stroke-linejoin:round;stroke:rgb(0%,0%,0%);stroke-opacity:1;stroke-miterlimit:10;" d="M 366.34375 49.097656 C 366.34375 34.699219 342.34375 34.699219 342.34375 49.097656 C 342.34375 63.5 366.34375 65.898438 366.34375 77.898438 C 366.34375 65.898438 390.34375 63.5 390.34375 49.097656 C 390.34375 34.699219 366.34375 34.699219 366.34375 49.097656 "/>
<path style="fill-rule:nonzero;fill:rgb(67%,100%,18%);fill-opacity:1;stroke-width:1;stroke-linecap:butt;stroke-linejoin:round;stroke:rgb(0%,0%,0%);stroke-opacity:1;stroke-miterlimit:10;" d="M 111.097656 427.960938 C 111.097656 413.558594 87.097656 413.558594 87.097656 427.960938 C 87.097656 442.359375 111.097656 444.761719 111.097656 456.761719 C 111.097656 444.761719 135.097656 442.359375 135.097656 427.960938 C 135.097656 413.558594 111.097656 413.558594 111.097656 427.960938 "/>
<path style="fill-rule:nonzero;fill:rgb(67%,100%,18%);fill-opacity:1;stroke-width:1;stroke-linecap:butt;stroke-linejoin:round;stroke:rgb(0%,0%,0%);stroke-opacity:1;stroke-miterlimit:10;" d="M 388.65625 406.945312 C 388.65625 392.546875 364.65625 392.546875 364.65625 406.945312 C 364.65625 421.347656 388.65625 423.746094 388.65625 435.746094 C 388.65625 423.746094 412.65625 421.347656 412.65625 406.945312 C 412.65625 392.546875 388.65625 392.546875 388.65625 406.945312 "/>
<path style="fill-rule:nonzero;fill:rgb(100%,100%,0%);fill-opacity:1;stroke-width:1;stroke-linecap:butt;stroke-linejoin:round;stroke:rgb(0%,0%,0%);stroke-opacity:1;stroke-miterlimit:10;" d="M 363.007812 290.832031 C 363.007812 276.433594 339.007812 276.433594 339.007812 290.832031 C 339.007812 305.230469 363.007812 307.632812 363.007812 319.632812 C 363.007812 307.632812 387.007812 305.230469 387.007812 290.832031 C 387.007812 276.433594 363.007812 276.433594 363.007812 290.832031 "/>
</g>
</svg>
