<?xml version="1.0" encoding="UTF-8"?>
<svg xmlns="http://www.w3.org/2000/svg" xmlns:xlink="http://www.w3.org/1999/xlink" width="517pt" height="517pt" viewBox="0 0 517 517" version="1.1">
<g id="surface641">
<rect x="0" y="0" width="517" height="517" style="fill:rgb(90%,90%,90%);fill-opacity:1;stroke:none;"/>
<path style="fill:none;stroke-width:5;stroke-linecap:butt;stroke-linejoin:round;stroke:rgb(100%,0%,0%);stroke-opacity:1;stroke-miterlimit:10;" d="M 261 5 L 517 5 L 517 261 L 261 261 Z M 261 5 "/>
<path style="fill-rule:nonzero;fill:rgb(100%,100%,0%);fill-opacity:1;stroke-width:1;stroke-linecap:butt;stroke-linejoin:round;stroke:rgb(0%,0%,0%);stroke-opacity:1;stroke-miterlimit:10;" d="M 400.164062 193.667969 C 400.164062 179.265625 376.164062 179.265625 376.164062 193.667969 C 376.164062 208.066406 400.164062 210.46875 400.164062 222.46875 C 400.164062 210.46875 424.164062 208.066406 424.164062 193.667969 C 424.164062 179.265625 400.164062 179.265625 400.164062 193.667969 "/>
<path style="fill-rule:nonzero;fill:rgb(67%,100%,18%);fill-opacity:1;stroke-width:1;stroke-linecap:butt;stroke-linejoin:round;stroke:rgb(0%,0%,0%);stroke-opacity:1;stroke-miterlimit:10;" d="M 473.308594 349.4375 C 473.308594 335.039062 449.308594 335.039062 449.308594 349.4375 C 449.308594 363.839844 473.308594 366.238281 473.308594 378.238281 C 473.308594 366.238281 497.308594 363.839844 497.308594 349.4375 C 497.308594 335.039062 473.308594 335.039062 473.308594 349.4375 "/>
<path style="fill-rule:nonzero;fill:rgb(67%,100%,18%);fill-opacity:1;stroke-width:1;stroke-linecap:butt;stroke-linejoin:round;stroke:rgb(0%,0%,0%);stroke-opacity:1;stroke-miterlimit:10;" d="M 80.011719 119.039062 C 80.011719 104.640625 56.011719 104.640625 56.011719 119.039062 C 56.011719 133.4375 80.011719 135.839844 80.011719 147.839844 C 80.011719 135.839844 104.011719 133.4375 104.011719 119.039062 C 104.011719 104.640625 80.011719 104.640625 80.011719 119.039062 "/>
<path style="fill-rule:nonzero;fill:rgb(67%,100%,18%);fill-opacity:1;stroke-width:1;stroke-linecap:butt;stroke-linejoin:round;stroke:rgb(0%,0%,0%);stroke-opacity:1;stroke-miterlimit:10;" d="M 134.039062 84.328125 C 134.039062 69.925781 110.039062 69.925781 110.039062 84.328125 C 110.039062 98.726562 134.039062 101.125 134.039062 113.125 C 134.039062 101.125 158.039062 98.726562 158.039062 84.328125 C 158.039062 69.925781 134.039062 69.925781 134.039062 84.328125 "/>
</g>
</svg>
