<?xml version="1.0" encoding="UTF-8"?>
<svg xmlns="http://www.w3.org/2000/svg" xmlns:xlink="http://www.w3.org/1999/xlink" width="517pt" height="517pt" viewBox="0 0 517 517" version="1.1">
<g id="surface5776">
<rect x="0" y="0" width="517" height="517" style="fill:rgb(90%,90%,90%);fill-opacity:1;stroke:none;"/>
<path style="fill-rule:nonzero;fill:rgb(67%,100%,18%);fill-opacity:1;stroke-width:1;stroke-linecap:butt;stroke-linejoin:miter;stroke:rgb(0%,0%,0%);stroke-opacity:1;stroke-miterlimit:10;" d="M 444.753906 31.683594 L 424.753906 31.683594 L 424.753906 41.683594 L 444.753906 41.683594 L 444.753906 61.683594 L 454.753906 61.683594 L 454.753906 41.683594 L 474.753906 41.683594 L 474.753906 31.683594 L 454.753906 31.683594 L 454.753906 11.683594 L 444.753906 11.683594 L 444.753906 31.683594 "/>
<path style="fill-rule:nonzero;fill:rgb(50%,0%,50%);fill-opacity:1;stroke-width:1;stroke-linecap:butt;stroke-linejoin:miter;stroke:rgb(0%,0%,0%);stroke-opacity:1;stroke-miterlimit:10;" d="M 338.996094 355.847656 L 318.996094 355.847656 L 318.996094 365.847656 L 338.996094 365.847656 L 338.996094 385.847656 L 348.996094 385.847656 L 348.996094 365.847656 L 368.996094 365.847656 L 368.996094 355.847656 L 348.996094 355.847656 L 348.996094 335.847656 L 338.996094 335.847656 L 338.996094 355.847656 "/>
<path style="fill-rule:nonzero;fill:rgb(50%,0%,50%);fill-opacity:1;stroke-width:1;stroke-linecap:butt;stroke-linejoin:miter;stroke:rgb(0%,0%,0%);stroke-opacity:1;stroke-miterlimit:10;" d="M 443.023438 440.003906 L 423.023438 440.003906 L 423.023438 450.003906 L 443.023438 450.003906 L 443.023438 470.003906 L 453.023438 470.003906 L 453.023438 450.003906 L 473.023438 450.003906 L 473.023438 440.003906 L 453.023438 440.003906 L 453.023438 420.003906 L 443.023438 420.003906 L 443.023438 440.003906 "/>
<path style="fill-rule:nonzero;fill:rgb(50%,0%,50%);fill-opacity:1;stroke-width:1;stroke-linecap:butt;stroke-linejoin:miter;stroke:rgb(0%,0%,0%);stroke-opacity:1;stroke-miterlimit:10;" d="M 429.546875 303.085938 L 409.546875 303.085938 L 409.546875 313.085938 L 429.546875 313.085938 L 429.546875 333.085938 L 439.546875 333.085938 L 439.546875 313.085938 L 459.546875 313.085938 L 459.546875 303.085938 L 439.546875 303.085938 L 439.546875 283.085938 L 429.546875 283.085938 L 429.546875 303.085938 "/>
<path style="fill-rule:nonzero;fill:rgb(50%,0%,50%);fill-opacity:1;stroke-width:1;stroke-linecap:butt;stroke-linejoin:miter;stroke:rgb(0%,0%,0%);stroke-opacity:1;stroke-miterlimit:10;" d="M 376.867188 409.019531 L 356.867188 409.019531 L 356.867188 419.019531 L 376.867188 419.019531 L 376.867188 439.019531 L 386.867188 439.019531 L 386.867188 419.019531 L 406.867188 419.019531 L 406.867188 409.019531 L 386.867188 409.019531 L 386.867188 389.019531 L 376.867188 389.019531 L 376.867188 409.019531 "/>
<path style="fill-rule:nonzero;fill:rgb(50%,0%,50%);fill-opacity:1;stroke-width:1;stroke-linecap:butt;stroke-linejoin:miter;stroke:rgb(0%,0%,0%);stroke-opacity:1;stroke-miterlimit:10;" d="M 52.417969 138.449219 L 32.417969 138.449219 L 32.417969 148.449219 L 52.417969 148.449219 L 52.417969 168.449219 L 62.417969 168.449219 L 62.417969 148.449219 L 82.417969 148.449219 L 82.417969 138.449219 L 62.417969 138.449219 L 62.417969 118.449219 L 52.417969 118.449219 L 52.417969 138.449219 "/>
<path style="fill-rule:nonzero;fill:rgb(50%,0%,50%);fill-opacity:1;stroke-width:1;stroke-linecap:butt;stroke-linejoin:miter;stroke:rgb(0%,0%,0%);stroke-opacity:1;stroke-miterlimit:10;" d="M 78.929688 215.011719 L 58.929688 215.011719 L 58.929688 225.011719 L 78.929688 225.011719 L 78.929688 245.011719 L 88.929688 245.011719 L 88.929688 225.011719 L 108.929688 225.011719 L 108.929688 215.011719 L 88.929688 215.011719 L 88.929688 195.011719 L 78.929688 195.011719 L 78.929688 215.011719 "/>
<path style="fill-rule:nonzero;fill:rgb(50%,0%,50%);fill-opacity:1;stroke-width:1;stroke-linecap:butt;stroke-linejoin:miter;stroke:rgb(0%,0%,0%);stroke-opacity:1;stroke-miterlimit:10;" d="M 150.207031 164.410156 L 130.207031 164.410156 L 130.207031 174.410156 L 150.207031 174.410156 L 150.207031 194.410156 L 160.207031 194.410156 L 160.207031 174.410156 L 180.207031 174.410156 L 180.207031 164.410156 L 160.207031 164.410156 L 160.207031 144.410156 L 150.207031 144.410156 L 150.207031 164.410156 "/>
</g>
</svg>
