<?xml version="1.0" encoding="UTF-8"?>
<svg xmlns="http://www.w3.org/2000/svg" xmlns:xlink="http://www.w3.org/1999/xlink" width="517pt" height="517pt" viewBox="0 0 517 517" version="1.1">
<g id="surface661">
<rect x="0" y="0" width="517" height="517" style="fill:rgb(90%,90%,90%);fill-opacity:1;stroke:none;"/>
<path style="fill:none;stroke-width:5;stroke-linecap:butt;stroke-linejoin:round;stroke:rgb(100%,0%,0%);stroke-opacity:1;stroke-miterlimit:10;" d="M 261 5 L 517 5 L 517 261 L 261 261 Z M 261 5 "/>
<path style="fill-rule:nonzero;fill:rgb(100%,100%,0%);fill-opacity:1;stroke-width:1;stroke-linecap:butt;stroke-linejoin:round;stroke:rgb(0%,0%,0%);stroke-opacity:1;stroke-miterlimit:10;" d="M 475.304688 91.789062 C 475.304688 77.390625 451.304688 77.390625 451.304688 91.789062 C 451.304688 106.1875 475.304688 108.589844 475.304688 120.589844 C 475.304688 108.589844 499.304688 106.1875 499.304688 91.789062 C 499.304688 77.390625 475.304688 77.390625 475.304688 91.789062 "/>
<path style="fill-rule:nonzero;fill:rgb(67%,100%,18%);fill-opacity:1;stroke-width:1;stroke-linecap:butt;stroke-linejoin:round;stroke:rgb(0%,0%,0%);stroke-opacity:1;stroke-miterlimit:10;" d="M 341.425781 450.5 C 341.425781 436.101562 317.425781 436.101562 317.425781 450.5 C 317.425781 464.902344 341.425781 467.300781 341.425781 479.300781 C 341.425781 467.300781 365.425781 464.902344 365.425781 450.5 C 365.425781 436.101562 341.425781 436.101562 341.425781 450.5 "/>
<path style="fill-rule:nonzero;fill:rgb(67%,100%,18%);fill-opacity:1;stroke-width:1;stroke-linecap:butt;stroke-linejoin:round;stroke:rgb(0%,0%,0%);stroke-opacity:1;stroke-miterlimit:10;" d="M 466.605469 348.519531 C 466.605469 334.121094 442.605469 334.121094 442.605469 348.519531 C 442.605469 362.921875 466.605469 365.320312 466.605469 377.320312 C 466.605469 365.320312 490.605469 362.921875 490.605469 348.519531 C 490.605469 334.121094 466.605469 334.121094 466.605469 348.519531 "/>
<path style="fill-rule:nonzero;fill:rgb(100%,100%,0%);fill-opacity:1;stroke-width:1;stroke-linecap:butt;stroke-linejoin:round;stroke:rgb(0%,0%,0%);stroke-opacity:1;stroke-miterlimit:10;" d="M 177.453125 337.890625 C 177.453125 323.492188 153.453125 323.492188 153.453125 337.890625 C 153.453125 352.292969 177.453125 354.691406 177.453125 366.691406 C 177.453125 354.691406 201.453125 352.292969 201.453125 337.890625 C 201.453125 323.492188 177.453125 323.492188 177.453125 337.890625 "/>
</g>
</svg>
