<?xml version="1.0" encoding="UTF-8"?>
<svg xmlns="http://www.w3.org/2000/svg" xmlns:xlink="http://www.w3.org/1999/xlink" width="517pt" height="517pt" viewBox="0 0 517 517" version="1.1">
<g id="surface5766">
<rect x="0" y="0" width="517" height="517" style="fill:rgb(90%,90%,90%);fill-opacity:1;stroke:none;"/>
<path style="fill-rule:nonzero;fill:rgb(50%,0%,50%);fill-opacity:1;stroke-width:1;stroke-linecap:butt;stroke-linejoin:miter;stroke:rgb(0%,0%,0%);stroke-opacity:1;stroke-miterlimit:10;" d="M 61.101562 385.410156 L 41.101562 385.410156 L 41.101562 395.410156 L 61.101562 395.410156 L 61.101562 415.410156 L 71.101562 415.410156 L 71.101562 395.410156 L 91.101562 395.410156 L 91.101562 385.410156 L 71.101562 385.410156 L 71.101562 365.410156 L 61.101562 365.410156 L 61.101562 385.410156 "/>
<path style="fill-rule:nonzero;fill:rgb(50%,0%,50%);fill-opacity:1;stroke-width:1;stroke-linecap:butt;stroke-linejoin:miter;stroke:rgb(0%,0%,0%);stroke-opacity:1;stroke-miterlimit:10;" d="M 136.367188 358.492188 L 116.367188 358.492188 L 116.367188 368.492188 L 136.367188 368.492188 L 136.367188 388.492188 L 146.367188 388.492188 L 146.367188 368.492188 L 166.367188 368.492188 L 166.367188 358.492188 L 146.367188 358.492188 L 146.367188 338.492188 L 136.367188 338.492188 L 136.367188 358.492188 "/>
<path style="fill-rule:nonzero;fill:rgb(50%,0%,50%);fill-opacity:1;stroke-width:1;stroke-linecap:butt;stroke-linejoin:miter;stroke:rgb(0%,0%,0%);stroke-opacity:1;stroke-miterlimit:10;" d="M 432.742188 365.882812 L 412.742188 365.882812 L 412.742188 375.882812 L 432.742188 375.882812 L 432.742188 395.882812 L 442.742188 395.882812 L 442.742188 375.882812 L 462.742188 375.882812 L 462.742188 365.882812 L 442.742188 365.882812 L 442.742188 345.882812 L 432.742188 345.882812 L 432.742188 365.882812 "/>
<path style="fill-rule:nonzero;fill:rgb(50%,0%,50%);fill-opacity:1;stroke-width:1;stroke-linecap:butt;stroke-linejoin:miter;stroke:rgb(0%,0%,0%);stroke-opacity:1;stroke-miterlimit:10;" d="M 370.335938 430.964844 L 350.335938 430.964844 L 350.335938 440.964844 L 370.335938 440.964844 L 370.335938 460.964844 L 380.335938 460.964844 L 380.335938 440.964844 L 400.335938 440.964844 L 400.335938 430.964844 L 380.335938 430.964844 L 380.335938 410.964844 L 370.335938 410.964844 L 370.335938 430.964844 "/>
<path style="fill-rule:nonzero;fill:rgb(50%,0%,50%);fill-opacity:1;stroke-width:1;stroke-linecap:butt;stroke-linejoin:miter;stroke:rgb(0%,0%,0%);stroke-opacity:1;stroke-miterlimit:10;" d="M 433.269531 427.070312 L 413.269531 427.070312 L 413.269531 437.070312 L 433.269531 437.070312 L 433.269531 457.070312 L 443.269531 457.070312 L 443.269531 437.070312 L 463.269531 437.070312 L 463.269531 427.070312 L 443.269531 427.070312 L 443.269531 407.070312 L 433.269531 407.070312 L 433.269531 427.070312 "/>
<path style="fill-rule:nonzero;fill:rgb(50%,0%,50%);fill-opacity:1;stroke-width:1;stroke-linecap:butt;stroke-linejoin:miter;stroke:rgb(0%,0%,0%);stroke-opacity:1;stroke-miterlimit:10;" d="M 181.84375 108.886719 L 161.84375 108.886719 L 161.84375 118.886719 L 181.84375 118.886719 L 181.84375 138.886719 L 191.84375 138.886719 L 191.84375 118.886719 L 211.84375 118.886719 L 211.84375 108.886719 L 191.84375 108.886719 L 191.84375 88.886719 L 181.84375 88.886719 L 181.84375 108.886719 "/>
<path style="fill-rule:nonzero;fill:rgb(50%,0%,50%);fill-opacity:1;stroke-width:1;stroke-linecap:butt;stroke-linejoin:miter;stroke:rgb(0%,0%,0%);stroke-opacity:1;stroke-miterlimit:10;" d="M 160.945312 193.167969 L 140.945312 193.167969 L 140.945312 203.167969 L 160.945312 203.167969 L 160.945312 223.167969 L 170.945312 223.167969 L 170.945312 203.167969 L 190.945312 203.167969 L 190.945312 193.167969 L 170.945312 193.167969 L 170.945312 173.167969 L 160.945312 173.167969 L 160.945312 193.167969 "/>
<path style="fill-rule:nonzero;fill:rgb(50%,0%,50%);fill-opacity:1;stroke-width:1;stroke-linecap:butt;stroke-linejoin:miter;stroke:rgb(0%,0%,0%);stroke-opacity:1;stroke-miterlimit:10;" d="M 87.707031 37.914062 L 67.707031 37.914062 L 67.707031 47.914062 L 87.707031 47.914062 L 87.707031 67.914062 L 97.707031 67.914062 L 97.707031 47.914062 L 117.707031 47.914062 L 117.707031 37.914062 L 97.707031 37.914062 L 97.707031 17.914062 L 87.707031 17.914062 L 87.707031 37.914062 "/>
</g>
</svg>
