<?xml version="1.0" encoding="UTF-8"?>
<svg xmlns="http://www.w3.org/2000/svg" xmlns:xlink="http://www.w3.org/1999/xlink" width="517pt" height="517pt" viewBox="0 0 517 517" version="1.1">
<g id="surface711">
<rect x="0" y="0" width="517" height="517" style="fill:rgb(90%,90%,90%);fill-opacity:1;stroke:none;"/>
<path style="fill:none;stroke-width:5;stroke-linecap:butt;stroke-linejoin:round;stroke:rgb(100%,0%,0%);stroke-opacity:1;stroke-miterlimit:10;" d="M 261 5 L 517 5 L 517 261 L 261 261 Z M 261 5 "/>
<path style="fill-rule:nonzero;fill:rgb(67%,100%,18%);fill-opacity:1;stroke-width:1;stroke-linecap:butt;stroke-linejoin:round;stroke:rgb(0%,0%,0%);stroke-opacity:1;stroke-miterlimit:10;" d="M 467.90625 178.675781 C 467.90625 164.277344 443.90625 164.277344 443.90625 178.675781 C 443.90625 193.078125 467.90625 195.476562 467.90625 207.476562 C 467.90625 195.476562 491.90625 193.078125 491.90625 178.675781 C 491.90625 164.277344 467.90625 164.277344 467.90625 178.675781 "/>
<path style="fill-rule:nonzero;fill:rgb(67%,100%,18%);fill-opacity:1;stroke-width:1;stroke-linecap:butt;stroke-linejoin:round;stroke:rgb(0%,0%,0%);stroke-opacity:1;stroke-miterlimit:10;" d="M 194.683594 375.242188 C 194.683594 360.84375 170.683594 360.84375 170.683594 375.242188 C 170.683594 389.644531 194.683594 392.042969 194.683594 404.042969 C 194.683594 392.042969 218.683594 389.644531 218.683594 375.242188 C 218.683594 360.84375 194.683594 360.84375 194.683594 375.242188 "/>
<path style="fill-rule:nonzero;fill:rgb(67%,100%,18%);fill-opacity:1;stroke-width:1;stroke-linecap:butt;stroke-linejoin:round;stroke:rgb(0%,0%,0%);stroke-opacity:1;stroke-miterlimit:10;" d="M 417.457031 295.199219 C 417.457031 280.800781 393.457031 280.800781 393.457031 295.199219 C 393.457031 309.597656 417.457031 312 417.457031 324 C 417.457031 312 441.457031 309.597656 441.457031 295.199219 C 441.457031 280.800781 417.457031 280.800781 417.457031 295.199219 "/>
<path style="fill-rule:nonzero;fill:rgb(67%,100%,18%);fill-opacity:1;stroke-width:1;stroke-linecap:butt;stroke-linejoin:round;stroke:rgb(0%,0%,0%);stroke-opacity:1;stroke-miterlimit:10;" d="M 126.796875 122.019531 C 126.796875 107.617188 102.796875 107.617188 102.796875 122.019531 C 102.796875 136.417969 126.796875 138.816406 126.796875 150.816406 C 126.796875 138.816406 150.796875 136.417969 150.796875 122.019531 C 150.796875 107.617188 126.796875 107.617188 126.796875 122.019531 "/>
</g>
</svg>
