<?xml version="1.0" encoding="UTF-8"?>
<svg xmlns="http://www.w3.org/2000/svg" xmlns:xlink="http://www.w3.org/1999/xlink" width="517pt" height="517pt" viewBox="0 0 517 517" version="1.1">
<g id="surface666">
<rect x="0" y="0" width="517" height="517" style="fill:rgb(90%,90%,90%);fill-opacity:1;stroke:none;"/>
<path style="fill:none;stroke-width:5;stroke-linecap:butt;stroke-linejoin:round;stroke:rgb(100%,0%,0%);stroke-opacity:1;stroke-miterlimit:10;" d="M 261 5 L 517 5 L 517 261 L 261 261 Z M 261 5 "/>
<path style="fill-rule:nonzero;fill:rgb(100%,100%,0%);fill-opacity:1;stroke-width:1;stroke-linecap:butt;stroke-linejoin:round;stroke:rgb(0%,0%,0%);stroke-opacity:1;stroke-miterlimit:10;" d="M 423.097656 141.644531 C 423.097656 127.242188 399.097656 127.242188 399.097656 141.644531 C 399.097656 156.042969 423.097656 158.441406 423.097656 170.441406 C 423.097656 158.441406 447.097656 156.042969 447.097656 141.644531 C 447.097656 127.242188 423.097656 127.242188 423.097656 141.644531 "/>
<path style="fill-rule:nonzero;fill:rgb(67%,100%,18%);fill-opacity:1;stroke-width:1;stroke-linecap:butt;stroke-linejoin:round;stroke:rgb(0%,0%,0%);stroke-opacity:1;stroke-miterlimit:10;" d="M 212.585938 460.574219 C 212.585938 446.175781 188.585938 446.175781 188.585938 460.574219 C 188.585938 474.972656 212.585938 477.375 212.585938 489.375 C 212.585938 477.375 236.585938 474.972656 236.585938 460.574219 C 236.585938 446.175781 212.585938 446.175781 212.585938 460.574219 "/>
<path style="fill-rule:nonzero;fill:rgb(67%,100%,18%);fill-opacity:1;stroke-width:1;stroke-linecap:butt;stroke-linejoin:round;stroke:rgb(0%,0%,0%);stroke-opacity:1;stroke-miterlimit:10;" d="M 85.328125 162.996094 C 85.328125 148.59375 61.328125 148.59375 61.328125 162.996094 C 61.328125 177.394531 85.328125 179.792969 85.328125 191.792969 C 85.328125 179.792969 109.328125 177.394531 109.328125 162.996094 C 109.328125 148.59375 85.328125 148.59375 85.328125 162.996094 "/>
<path style="fill-rule:nonzero;fill:rgb(100%,100%,0%);fill-opacity:1;stroke-width:1;stroke-linecap:butt;stroke-linejoin:round;stroke:rgb(0%,0%,0%);stroke-opacity:1;stroke-miterlimit:10;" d="M 212.390625 40.957031 C 212.390625 26.558594 188.390625 26.558594 188.390625 40.957031 C 188.390625 55.355469 212.390625 57.757812 212.390625 69.757812 C 212.390625 57.757812 236.390625 55.355469 236.390625 40.957031 C 236.390625 26.558594 212.390625 26.558594 212.390625 40.957031 "/>
</g>
</svg>
