<?xml version="1.0" encoding="UTF-8"?>
<svg xmlns="http://www.w3.org/2000/svg" xmlns:xlink="http://www.w3.org/1999/xlink" width="517pt" height="517pt" viewBox="0 0 517 517" version="1.1">
<g id="surface656">
<rect x="0" y="0" width="517" height="517" style="fill:rgb(90%,90%,90%);fill-opacity:1;stroke:none;"/>
<path style="fill:none;stroke-width:5;stroke-linecap:butt;stroke-linejoin:round;stroke:rgb(100%,0%,0%);stroke-opacity:1;stroke-miterlimit:10;" d="M 261 5 L 517 5 L 517 261 L 261 261 Z M 261 5 "/>
<path style="fill-rule:nonzero;fill:rgb(100%,100%,0%);fill-opacity:1;stroke-width:1;stroke-linecap:butt;stroke-linejoin:round;stroke:rgb(0%,0%,0%);stroke-opacity:1;stroke-miterlimit:10;" d="M 315.179688 50.394531 C 315.179688 35.996094 291.179688 35.996094 291.179688 50.394531 C 291.179688 64.792969 315.179688 67.195312 315.179688 79.195312 C 315.179688 67.195312 339.179688 64.792969 339.179688 50.394531 C 339.179688 35.996094 315.179688 35.996094 315.179688 50.394531 "/>
<path style="fill-rule:nonzero;fill:rgb(67%,100%,18%);fill-opacity:1;stroke-width:1;stroke-linecap:butt;stroke-linejoin:round;stroke:rgb(0%,0%,0%);stroke-opacity:1;stroke-miterlimit:10;" d="M 214.980469 357.453125 C 214.980469 343.054688 190.980469 343.054688 190.980469 357.453125 C 190.980469 371.851562 214.980469 374.253906 214.980469 386.253906 C 214.980469 374.253906 238.980469 371.851562 238.980469 357.453125 C 238.980469 343.054688 214.980469 343.054688 214.980469 357.453125 "/>
<path style="fill-rule:nonzero;fill:rgb(67%,100%,18%);fill-opacity:1;stroke-width:1;stroke-linecap:butt;stroke-linejoin:round;stroke:rgb(0%,0%,0%);stroke-opacity:1;stroke-miterlimit:10;" d="M 325.996094 439.910156 C 325.996094 425.507812 301.996094 425.507812 301.996094 439.910156 C 301.996094 454.308594 325.996094 456.707031 325.996094 468.707031 C 325.996094 456.707031 349.996094 454.308594 349.996094 439.910156 C 349.996094 425.507812 325.996094 425.507812 325.996094 439.910156 "/>
<path style="fill-rule:nonzero;fill:rgb(67%,100%,18%);fill-opacity:1;stroke-width:1;stroke-linecap:butt;stroke-linejoin:round;stroke:rgb(0%,0%,0%);stroke-opacity:1;stroke-miterlimit:10;" d="M 55.730469 95.824219 C 55.730469 81.425781 31.730469 81.425781 31.730469 95.824219 C 31.730469 110.226562 55.730469 112.625 55.730469 124.625 C 55.730469 112.625 79.730469 110.226562 79.730469 95.824219 C 79.730469 81.425781 55.730469 81.425781 55.730469 95.824219 "/>
</g>
</svg>
