<?xml version="1.0" encoding="UTF-8"?>
<svg xmlns="http://www.w3.org/2000/svg" xmlns:xlink="http://www.w3.org/1999/xlink" width="517pt" height="517pt" viewBox="0 0 517 517" version="1.1">
<g id="surface696">
<rect x="0" y="0" width="517" height="517" style="fill:rgb(90%,90%,90%);fill-opacity:1;stroke:none;"/>
<path style="fill:none;stroke-width:5;stroke-linecap:butt;stroke-linejoin:round;stroke:rgb(100%,0%,0%);stroke-opacity:1;stroke-miterlimit:10;" d="M 261 5 L 517 5 L 517 261 L 261 261 Z M 261 5 "/>
<path style="fill-rule:nonzero;fill:rgb(100%,100%,0%);fill-opacity:1;stroke-width:1;stroke-linecap:butt;stroke-linejoin:round;stroke:rgb(0%,0%,0%);stroke-opacity:1;stroke-miterlimit:10;" d="M 336.570312 196.492188 C 336.570312 182.089844 312.570312 182.089844 312.570312 196.492188 C 312.570312 210.890625 336.570312 213.292969 336.570312 225.292969 C 336.570312 213.292969 360.570312 210.890625 360.570312 196.492188 C 360.570312 182.089844 336.570312 182.089844 336.570312 196.492188 "/>
<path style="fill-rule:nonzero;fill:rgb(67%,100%,18%);fill-opacity:1;stroke-width:1;stroke-linecap:butt;stroke-linejoin:round;stroke:rgb(0%,0%,0%);stroke-opacity:1;stroke-miterlimit:10;" d="M 458.902344 329.722656 C 458.902344 315.320312 434.902344 315.320312 434.902344 329.722656 C 434.902344 344.121094 458.902344 346.519531 458.902344 358.519531 C 458.902344 346.519531 482.902344 344.121094 482.902344 329.722656 C 482.902344 315.320312 458.902344 315.320312 458.902344 329.722656 "/>
<path style="fill-rule:nonzero;fill:rgb(100%,100%,0%);fill-opacity:1;stroke-width:1;stroke-linecap:butt;stroke-linejoin:round;stroke:rgb(0%,0%,0%);stroke-opacity:1;stroke-miterlimit:10;" d="M 77.535156 363.898438 C 77.535156 349.5 53.535156 349.5 53.535156 363.898438 C 53.535156 378.296875 77.535156 380.699219 77.535156 392.699219 C 77.535156 380.699219 101.535156 378.296875 101.535156 363.898438 C 101.535156 349.5 77.535156 349.5 77.535156 363.898438 "/>
<path style="fill-rule:nonzero;fill:rgb(100%,100%,0%);fill-opacity:1;stroke-width:1;stroke-linecap:butt;stroke-linejoin:round;stroke:rgb(0%,0%,0%);stroke-opacity:1;stroke-miterlimit:10;" d="M 129.792969 281.273438 C 129.792969 266.875 105.792969 266.875 105.792969 281.273438 C 105.792969 295.671875 129.792969 298.074219 129.792969 310.074219 C 129.792969 298.074219 153.792969 295.671875 153.792969 281.273438 C 153.792969 266.875 129.792969 266.875 129.792969 281.273438 "/>
</g>
</svg>
