<?xml version="1.0" encoding="UTF-8"?>
<svg xmlns="http://www.w3.org/2000/svg" xmlns:xlink="http://www.w3.org/1999/xlink" width="517pt" height="517pt" viewBox="0 0 517 517" version="1.1">
<g id="surface5806">
<rect x="0" y="0" width="517" height="517" style="fill:rgb(90%,90%,90%);fill-opacity:1;stroke:none;"/>
<path style="fill-rule:nonzero;fill:rgb(50%,0%,50%);fill-opacity:1;stroke-width:1;stroke-linecap:butt;stroke-linejoin:miter;stroke:rgb(0%,0%,0%);stroke-opacity:1;stroke-miterlimit:10;" d="M 413.148438 106.601562 L 393.148438 106.601562 L 393.148438 116.601562 L 413.148438 116.601562 L 413.148438 136.601562 L 423.148438 136.601562 L 423.148438 116.601562 L 443.148438 116.601562 L 443.148438 106.601562 L 423.148438 106.601562 L 423.148438 86.601562 L 413.148438 86.601562 L 413.148438 106.601562 "/>
<path style="fill-rule:nonzero;fill:rgb(50%,0%,50%);fill-opacity:1;stroke-width:1;stroke-linecap:butt;stroke-linejoin:miter;stroke:rgb(0%,0%,0%);stroke-opacity:1;stroke-miterlimit:10;" d="M 131.148438 318.355469 L 111.148438 318.355469 L 111.148438 328.355469 L 131.148438 328.355469 L 131.148438 348.355469 L 141.148438 348.355469 L 141.148438 328.355469 L 161.148438 328.355469 L 161.148438 318.355469 L 141.148438 318.355469 L 141.148438 298.355469 L 131.148438 298.355469 L 131.148438 318.355469 "/>
<path style="fill-rule:nonzero;fill:rgb(50%,0%,50%);fill-opacity:1;stroke-width:1;stroke-linecap:butt;stroke-linejoin:miter;stroke:rgb(0%,0%,0%);stroke-opacity:1;stroke-miterlimit:10;" d="M 194.015625 73.136719 L 174.015625 73.136719 L 174.015625 83.136719 L 194.015625 83.136719 L 194.015625 103.136719 L 204.015625 103.136719 L 204.015625 83.136719 L 224.015625 83.136719 L 224.015625 73.136719 L 204.015625 73.136719 L 204.015625 53.136719 L 194.015625 53.136719 L 194.015625 73.136719 "/>
<path style="fill-rule:nonzero;fill:rgb(50%,0%,50%);fill-opacity:1;stroke-width:1;stroke-linecap:butt;stroke-linejoin:miter;stroke:rgb(0%,0%,0%);stroke-opacity:1;stroke-miterlimit:10;" d="M 63.859375 107.457031 L 43.859375 107.457031 L 43.859375 117.457031 L 63.859375 117.457031 L 63.859375 137.457031 L 73.859375 137.457031 L 73.859375 117.457031 L 93.859375 117.457031 L 93.859375 107.457031 L 73.859375 107.457031 L 73.859375 87.457031 L 63.859375 87.457031 L 63.859375 107.457031 "/>
<path style="fill-rule:nonzero;fill:rgb(50%,0%,50%);fill-opacity:1;stroke-width:1;stroke-linecap:butt;stroke-linejoin:miter;stroke:rgb(0%,0%,0%);stroke-opacity:1;stroke-miterlimit:10;" d="M 137.453125 160.410156 L 117.453125 160.410156 L 117.453125 170.410156 L 137.453125 170.410156 L 137.453125 190.410156 L 147.453125 190.410156 L 147.453125 170.410156 L 167.453125 170.410156 L 167.453125 160.410156 L 147.453125 160.410156 L 147.453125 140.410156 L 137.453125 140.410156 L 137.453125 160.410156 "/>
<path style="fill-rule:nonzero;fill:rgb(50%,0%,50%);fill-opacity:1;stroke-width:1;stroke-linecap:butt;stroke-linejoin:miter;stroke:rgb(0%,0%,0%);stroke-opacity:1;stroke-miterlimit:10;" d="M 36.257812 195.15625 L 16.257812 195.15625 L 16.257812 205.15625 L 36.257812 205.15625 L 36.257812 225.15625 L 46.257812 225.15625 L 46.257812 205.15625 L 66.257812 205.15625 L 66.257812 195.15625 L 46.257812 195.15625 L 46.257812 175.15625 L 36.257812 175.15625 L 36.257812 195.15625 "/>
<path style="fill-rule:nonzero;fill:rgb(50%,0%,50%);fill-opacity:1;stroke-width:1;stroke-linecap:butt;stroke-linejoin:miter;stroke:rgb(0%,0%,0%);stroke-opacity:1;stroke-miterlimit:10;" d="M 201.960938 197.039062 L 181.960938 197.039062 L 181.960938 207.039062 L 201.960938 207.039062 L 201.960938 227.039062 L 211.960938 227.039062 L 211.960938 207.039062 L 231.960938 207.039062 L 231.960938 197.039062 L 211.960938 197.039062 L 211.960938 177.039062 L 201.960938 177.039062 L 201.960938 197.039062 "/>
<path style="fill-rule:nonzero;fill:rgb(50%,0%,50%);fill-opacity:1;stroke-width:1;stroke-linecap:butt;stroke-linejoin:miter;stroke:rgb(0%,0%,0%);stroke-opacity:1;stroke-miterlimit:10;" d="M 55.1875 47.644531 L 35.1875 47.644531 L 35.1875 57.644531 L 55.1875 57.644531 L 55.1875 77.644531 L 65.1875 77.644531 L 65.1875 57.644531 L 85.1875 57.644531 L 85.1875 47.644531 L 65.1875 47.644531 L 65.1875 27.644531 L 55.1875 27.644531 L 55.1875 47.644531 "/>
</g>
</svg>
