<?xml version="1.0" encoding="UTF-8"?>
<svg xmlns="http://www.w3.org/2000/svg" xmlns:xlink="http://www.w3.org/1999/xlink" width="517pt" height="517pt" viewBox="0 0 517 517" version="1.1">
<g id="surface5796">
<rect x="0" y="0" width="517" height="517" style="fill:rgb(90%,90%,90%);fill-opacity:1;stroke:none;"/>
<path style="fill-rule:nonzero;fill:rgb(67%,100%,18%);fill-opacity:1;stroke-width:1;stroke-linecap:butt;stroke-linejoin:miter;stroke:rgb(0%,0%,0%);stroke-opacity:1;stroke-miterlimit:10;" d="M 129.375 367.507812 L 109.375 367.507812 L 109.375 377.507812 L 129.375 377.507812 L 129.375 397.507812 L 139.375 397.507812 L 139.375 377.507812 L 159.375 377.507812 L 159.375 367.507812 L 139.375 367.507812 L 139.375 347.507812 L 129.375 347.507812 L 129.375 367.507812 "/>
<path style="fill-rule:nonzero;fill:rgb(67%,100%,18%);fill-opacity:1;stroke-width:1;stroke-linecap:butt;stroke-linejoin:miter;stroke:rgb(0%,0%,0%);stroke-opacity:1;stroke-miterlimit:10;" d="M 378.546875 309.695312 L 358.546875 309.695312 L 358.546875 319.695312 L 378.546875 319.695312 L 378.546875 339.695312 L 388.546875 339.695312 L 388.546875 319.695312 L 408.546875 319.695312 L 408.546875 309.695312 L 388.546875 309.695312 L 388.546875 289.695312 L 378.546875 289.695312 L 378.546875 309.695312 "/>
<path style="fill-rule:nonzero;fill:rgb(67%,100%,18%);fill-opacity:1;stroke-width:1;stroke-linecap:butt;stroke-linejoin:miter;stroke:rgb(0%,0%,0%);stroke-opacity:1;stroke-miterlimit:10;" d="M 370.234375 442.878906 L 350.234375 442.878906 L 350.234375 452.878906 L 370.234375 452.878906 L 370.234375 472.878906 L 380.234375 472.878906 L 380.234375 452.878906 L 400.234375 452.878906 L 400.234375 442.878906 L 380.234375 442.878906 L 380.234375 422.878906 L 370.234375 422.878906 L 370.234375 442.878906 "/>
<path style="fill-rule:nonzero;fill:rgb(50%,0%,50%);fill-opacity:1;stroke-width:1;stroke-linecap:butt;stroke-linejoin:miter;stroke:rgb(0%,0%,0%);stroke-opacity:1;stroke-miterlimit:10;" d="M 401.808594 383.464844 L 381.808594 383.464844 L 381.808594 393.464844 L 401.808594 393.464844 L 401.808594 413.464844 L 411.808594 413.464844 L 411.808594 393.464844 L 431.808594 393.464844 L 431.808594 383.464844 L 411.808594 383.464844 L 411.808594 363.464844 L 401.808594 363.464844 L 401.808594 383.464844 "/>
<path style="fill-rule:nonzero;fill:rgb(50%,0%,50%);fill-opacity:1;stroke-width:1;stroke-linecap:butt;stroke-linejoin:miter;stroke:rgb(0%,0%,0%);stroke-opacity:1;stroke-miterlimit:10;" d="M 317.292969 378.90625 L 297.292969 378.90625 L 297.292969 388.90625 L 317.292969 388.90625 L 317.292969 408.90625 L 327.292969 408.90625 L 327.292969 388.90625 L 347.292969 388.90625 L 347.292969 378.90625 L 327.292969 378.90625 L 327.292969 358.90625 L 317.292969 358.90625 L 317.292969 378.90625 "/>
<path style="fill-rule:nonzero;fill:rgb(50%,0%,50%);fill-opacity:1;stroke-width:1;stroke-linecap:butt;stroke-linejoin:miter;stroke:rgb(0%,0%,0%);stroke-opacity:1;stroke-miterlimit:10;" d="M 436.171875 432.882812 L 416.171875 432.882812 L 416.171875 442.882812 L 436.171875 442.882812 L 436.171875 462.882812 L 446.171875 462.882812 L 446.171875 442.882812 L 466.171875 442.882812 L 466.171875 432.882812 L 446.171875 432.882812 L 446.171875 412.882812 L 436.171875 412.882812 L 436.171875 432.882812 "/>
<path style="fill-rule:nonzero;fill:rgb(50%,0%,50%);fill-opacity:1;stroke-width:1;stroke-linecap:butt;stroke-linejoin:miter;stroke:rgb(0%,0%,0%);stroke-opacity:1;stroke-miterlimit:10;" d="M 305.394531 467.128906 L 285.394531 467.128906 L 285.394531 477.128906 L 305.394531 477.128906 L 305.394531 497.128906 L 315.394531 497.128906 L 315.394531 477.128906 L 335.394531 477.128906 L 335.394531 467.128906 L 315.394531 467.128906 L 315.394531 447.128906 L 305.394531 447.128906 L 305.394531 467.128906 "/>
<path style="fill-rule:nonzero;fill:rgb(50%,0%,50%);fill-opacity:1;stroke-width:1;stroke-linecap:butt;stroke-linejoin:miter;stroke:rgb(0%,0%,0%);stroke-opacity:1;stroke-miterlimit:10;" d="M 182.503906 161.605469 L 162.503906 161.605469 L 162.503906 171.605469 L 182.503906 171.605469 L 182.503906 191.605469 L 192.503906 191.605469 L 192.503906 171.605469 L 212.503906 171.605469 L 212.503906 161.605469 L 192.503906 161.605469 L 192.503906 141.605469 L 182.503906 141.605469 L 182.503906 161.605469 "/>
</g>
</svg>
